time,event,Pitch,Velocity,MidFile,NoteNr,SubArt,SubDyn,MidFileShort,timeFixed,KeyOnOff
2880,Note On,79,72,art_only_2,1,NA,NA,a_2,2880,1
3164,Note On,78,71,art_only_2,2,NA,NA,a_2,3164,1
3173,Note Off,79,0,art_only_2,3,NA,NA,a_2,3173,0
3437,Note Off,78,0,art_only_2,4,NA,NA,a_2,3437,0
3445,Note On,79,72,art_only_2,5,NA,NA,a_2,3445,1
3723,Note On,76,69,art_only_2,6,NA,NA,a_2,3723,1
3725,Note Off,79,0,art_only_2,7,NA,NA,a_2,3725,0
4011,Note On,72,76,art_only_2,8,NA,NA,a_2,4011,1
4026,Note Off,76,0,art_only_2,9,NA,NA,a_2,4026,0
4292,Note On,67,70,art_only_2,10,NA,NA,a_2,4292,1
4306,Note Off,72,0,art_only_2,11,NA,NA,a_2,4306,0
4369,Note Off,67,0,art_only_2,12,NA,NA,a_2,4369,0
4574,Note On,67,66,art_only_2,13,NA,NA,a_2,4574,1
4651,Note Off,67,0,art_only_2,14,NA,NA,a_2,4651,0
4863,Note On,67,69,art_only_2,15,NA,NA,a_2,4863,1
4927,Note Off,67,0,art_only_2,16,NA,NA,a_2,4927,0
5160,Note On,79,76,art_only_2,17,NA,NA,a_2,5160,1
5439,Note On,78,71,art_only_2,18,NA,NA,a_2,5439,1
5445,Note Off,79,0,art_only_2,19,NA,NA,a_2,5445,0
5712,Note On,79,70,art_only_2,20,NA,NA,a_2,5712,1
5723,Note Off,78,0,art_only_2,21,NA,NA,a_2,5723,0
5992,Note On,76,65,art_only_2,22,NA,NA,a_2,5992,1
6006,Note Off,79,0,art_only_2,23,NA,NA,a_2,6006,0
6241,Note Off,76,0,art_only_2,24,NA,NA,a_2,6241,0
6264,Note On,72,67,art_only_2,25,NA,NA,a_2,6264,1
6543,Note On,76,72,art_only_2,26,NA,NA,a_2,6543,1
6556,Note Off,72,0,art_only_2,27,NA,NA,a_2,6556,0
6820,Note On,79,72,art_only_2,28,NA,NA,a_2,6820,1
6857,Note Off,76,0,art_only_2,29,NA,NA,a_2,6857,0
7089,Note On,84,79,art_only_2,30,NA,NA,a_2,7089,1
7096,Note Off,79,0,art_only_2,31,NA,NA,a_2,7096,0
7375,Note On,83,80,art_only_2,32,NA,NA,a_2,7375,1
7441,Note Off,84,0,art_only_2,33,NA,NA,a_2,7441,0
7632,Note Off,83,0,art_only_2,34,NA,NA,a_2,7632,0
7650,Note On,81,74,art_only_2,35,NA,NA,a_2,7650,1
7726,Note Off,81,0,art_only_2,36,NA,NA,a_2,7726,0
7925,Note On,81,78,art_only_2,37,NA,NA,a_2,7925,1
7993,Note Off,81,0,art_only_2,38,NA,NA,a_2,7993,0
8191,Note On,81,79,art_only_2,39,NA,NA,a_2,8191,1
8276,Note Off,81,0,art_only_2,40,NA,NA,a_2,8276,0
8472,Note On,83,77,art_only_2,41,NA,NA,a_2,8472,1
8749,Note Off,83,0,art_only_2,42,NA,NA,a_2,8749,0
8753,Note On,81,69,art_only_2,43,NA,NA,a_2,8753,1
9017,Note On,84,68,art_only_2,44,NA,NA,a_2,9017,1
9030,Note Off,81,0,art_only_2,45,NA,NA,a_2,9030,0
9299,Note On,81,72,art_only_2,46,NA,NA,a_2,9299,1
9317,Note Off,84,0,art_only_2,47,NA,NA,a_2,9317,0
9572,Note On,78,68,art_only_2,48,NA,NA,a_2,9572,1
9600,Note Off,81,0,art_only_2,49,NA,NA,a_2,9600,0
9825,Note Off,78,0,art_only_2,50,NA,NA,a_2,9825,0
9837,Note On,79,68,art_only_2,51,NA,NA,a_2,9837,1
9996,Note Off,79,0,art_only_2,52,NA,NA,a_2,9996,0
10118,Note On,79,69,art_only_2,53,NA,NA,a_2,10118,1
10471,Note Off,79,0,art_only_2,54,NA,NA,a_2,10471,0
10691,Note On,79,72,art_only_2,55,NA,NA,a_2,10691,1
11315,Note Off,79,0,art_only_2,56,NA,NA,a_2,11315,0
11801,Note On,77,73,art_only_2,57,NA,NA,a_2,11801,1
11895,Note Off,77,0,art_only_2,58,NA,NA,a_2,11895,0
12077,Note On,77,71,art_only_2,59,NA,NA,a_2,12077,1
12156,Note Off,77,0,art_only_2,60,NA,NA,a_2,12156,0
12346,Note On,76,70,art_only_2,61,NA,NA,a_2,12346,1
12411,Note Off,76,0,art_only_2,62,NA,NA,a_2,12411,0
12613,Note On,76,73,art_only_2,63,NA,NA,a_2,12613,1
12693,Note Off,76,0,art_only_2,64,NA,NA,a_2,12693,0
12917,Note On,74,75,art_only_2,65,NA,NA,a_2,12917,1
13595,Note Off,74,0,art_only_2,66,NA,NA,a_2,13595,0
14003,Note On,79,79,art_only_2,67,NA,NA,a_2,14003,1
14411,Note Off,79,0,art_only_2,68,NA,NA,a_2,14411,0
14582,Note On,77,76,art_only_2,69,NA,NA,a_2,14582,1
14998,Note Off,77,0,art_only_2,70,NA,NA,a_2,14998,0
15124,Note On,76,69,art_only_2,71,NA,NA,a_2,15124,1
15196,Note Off,76,0,art_only_2,72,NA,NA,a_2,15196,0
15408,Note On,76,68,art_only_2,73,NA,NA,a_2,15408,1
15471,Note Off,76,0,art_only_2,74,NA,NA,a_2,15471,0
15685,Note On,76,69,art_only_2,75,NA,NA,a_2,15685,1
15765,Note Off,76,0,art_only_2,76,NA,NA,a_2,15765,0
15963,Note On,76,63,art_only_2,77,NA,NA,a_2,15963,1
16059,Note Off,76,0,art_only_2,78,NA,NA,a_2,16059,0
16243,Note On,81,72,art_only_2,79,NA,NA,a_2,16243,1
16533,Note On,77,71,art_only_2,80,NA,NA,a_2,16533,1
16584,Note Off,81,0,art_only_2,81,NA,NA,a_2,16584,0
16799,Note On,76,63,art_only_2,82,NA,NA,a_2,16799,1
16839,Note Off,77,0,art_only_2,83,NA,NA,a_2,16839,0
17071,Note Off,76,0,art_only_2,84,NA,NA,a_2,17071,0
17076,Note On,74,75,art_only_2,85,NA,NA,a_2,17076,1
17348,Note On,76,69,art_only_2,86,NA,NA,a_2,17348,1
17360,Note Off,74,0,art_only_2,87,NA,NA,a_2,17360,0
17613,Note On,79,74,art_only_2,88,NA,NA,a_2,17613,1
17636,Note Off,76,0,art_only_2,89,NA,NA,a_2,17636,0
17892,Note On,74,73,art_only_2,90,NA,NA,a_2,17892,1
17913,Note Off,79,0,art_only_2,91,NA,NA,a_2,17913,0
18173,Note On,71,69,art_only_2,92,NA,NA,a_2,18173,1
18179,Note Off,74,0,art_only_2,93,NA,NA,a_2,18179,0
18393,Note Off,71,0,art_only_2,94,NA,NA,a_2,18393,0
18438,Note On,72,74,art_only_2,95,NA,NA,a_2,18438,1
18499,Note Off,72,0,art_only_2,96,NA,NA,a_2,18499,0
18717,Note On,72,77,art_only_2,97,NA,NA,a_2,18717,1
18770,Note Off,72,0,art_only_2,98,NA,NA,a_2,18770,0
18975,Note On,74,78,art_only_2,99,NA,NA,a_2,18975,1
19027,Note Off,74,0,art_only_2,100,NA,NA,a_2,19027,0
19258,Note On,74,78,art_only_2,101,NA,NA,a_2,19258,1
19316,Note Off,74,0,art_only_2,102,NA,NA,a_2,19316,0
19561,Note On,76,68,art_only_2,103,NA,NA,a_2,19561,1
20143,Note Off,76,0,art_only_2,104,NA,NA,a_2,20143,0
20637,Note On,65,76,art_only_2,105,NA,NA,a_2,20637,1
20687,Note Off,65,0,art_only_2,106,NA,NA,a_2,20687,0
20912,Note On,65,73,art_only_2,107,NA,NA,a_2,20912,1
20962,Note Off,65,0,art_only_2,108,NA,NA,a_2,20962,0
21181,Note On,64,74,art_only_2,109,NA,NA,a_2,21181,1
21225,Note Off,64,0,art_only_2,110,NA,NA,a_2,21225,0
21464,Note On,64,69,art_only_2,111,NA,NA,a_2,21464,1
21525,Note Off,64,0,art_only_2,112,NA,NA,a_2,21525,0
21773,Note On,62,72,art_only_2,113,NA,NA,a_2,21773,1
22370,Note Off,62,0,art_only_2,114,NA,NA,a_2,22370,0
22811,Note On,67,72,art_only_2,115,NA,NA,a_2,22811,1
22870,Note Off,67,0,art_only_2,116,NA,NA,a_2,22870,0
23087,Note On,67,76,art_only_2,117,NA,NA,a_2,23087,1
23144,Note Off,67,0,art_only_2,118,NA,NA,a_2,23144,0
23367,Note On,71,71,art_only_2,119,NA,NA,a_2,23367,1
23409,Note Off,71,0,art_only_2,120,NA,NA,a_2,23409,0
23631,Note On,71,78,art_only_2,121,NA,NA,a_2,23631,1
23688,Note Off,71,0,art_only_2,122,NA,NA,a_2,23688,0
23896,Note On,72,79,art_only_2,123,NA,NA,a_2,23896,1
23965,Note Off,72,0,art_only_2,124,NA,NA,a_2,23965,0
24156,Note On,72,80,art_only_2,125,NA,NA,a_2,24156,1
24223,Note Off,72,0,art_only_2,126,NA,NA,a_2,24223,0
24430,Note On,73,77,art_only_2,127,NA,NA,a_2,24430,1
24495,Note Off,73,0,art_only_2,128,NA,NA,a_2,24495,0
24712,Note On,73,83,art_only_2,129,NA,NA,a_2,24712,1
24786,Note Off,73,0,art_only_2,130,NA,NA,a_2,24786,0
25006,Note On,74,82,art_only_2,131,NA,NA,a_2,25006,1
25514,Note Off,74,0,art_only_2,132,NA,NA,a_2,25514,0
25571,Note On,77,78,art_only_2,133,NA,NA,a_2,25571,1
26090,Note Off,77,0,art_only_2,134,NA,NA,a_2,26090,0
26150,Note On,76,77,art_only_2,135,NA,NA,a_2,26150,1
26661,Note Off,76,0,art_only_2,136,NA,NA,a_2,26661,0
26721,Note On,74,81,art_only_2,137,NA,NA,a_2,26721,1
27263,Note Off,74,0,art_only_2,138,NA,NA,a_2,27263,0
27275,Note On,72,79,art_only_2,139,NA,NA,a_2,27275,1
27793,Note Off,72,0,art_only_2,140,NA,NA,a_2,27793,0
27864,Note On,84,82,art_only_2,141,NA,NA,a_2,27864,1
28297,Note Off,84,0,art_only_2,142,NA,NA,a_2,28297,0
28475,Note On,84,83,art_only_2,143,NA,NA,a_2,28475,1
29340,Note Off,84,0,art_only_2,144,NA,NA,a_2,29340,0
