time,event,Pitch,Velocity,MidFile,NoteNr,SubArt,SubDyn,MidFileShort,timeFixed,KeyOnOff
2880,Note On,79,68,art_only_3,1,NA,NA,a_3,2880,1
3173,Note On,78,67,art_only_3,2,NA,NA,a_3,3173,1
3202,Note Off,79,0,art_only_3,3,NA,NA,a_3,3202,0
3458,Note On,79,70,art_only_3,4,NA,NA,a_3,3458,1
3469,Note Off,78,0,art_only_3,5,NA,NA,a_3,3469,0
3747,Note On,76,67,art_only_3,6,NA,NA,a_3,3747,1
3752,Note Off,79,0,art_only_3,7,NA,NA,a_3,3752,0
4031,Note On,72,71,art_only_3,8,NA,NA,a_3,4031,1
4083,Note Off,76,0,art_only_3,9,NA,NA,a_3,4083,0
4274,Note Off,72,0,art_only_3,10,NA,NA,a_3,4274,0
4320,Note On,67,70,art_only_3,11,NA,NA,a_3,4320,1
4376,Note Off,67,0,art_only_3,12,NA,NA,a_3,4376,0
4601,Note On,67,72,art_only_3,13,NA,NA,a_3,4601,1
4648,Note Off,67,0,art_only_3,14,NA,NA,a_3,4648,0
4885,Note On,67,73,art_only_3,15,NA,NA,a_3,4885,1
4928,Note Off,67,0,art_only_3,16,NA,NA,a_3,4928,0
5184,Note On,79,74,art_only_3,17,NA,NA,a_3,5184,1
5476,Note On,78,68,art_only_3,18,NA,NA,a_3,5476,1
5500,Note Off,79,0,art_only_3,19,NA,NA,a_3,5500,0
5764,Note On,79,71,art_only_3,20,NA,NA,a_3,5764,1
5776,Note Off,78,0,art_only_3,21,NA,NA,a_3,5776,0
6048,Note On,76,68,art_only_3,22,NA,NA,a_3,6048,1
6085,Note Off,79,0,art_only_3,23,NA,NA,a_3,6085,0
6338,Note On,72,72,art_only_3,24,NA,NA,a_3,6338,1
6360,Note Off,76,0,art_only_3,25,NA,NA,a_3,6360,0
6616,Note On,76,74,art_only_3,26,NA,NA,a_3,6616,1
6677,Note Off,72,0,art_only_3,27,NA,NA,a_3,6677,0
6898,Note On,79,73,art_only_3,28,NA,NA,a_3,6898,1
6944,Note Off,76,0,art_only_3,29,NA,NA,a_3,6944,0
7175,Note Off,79,0,art_only_3,30,NA,NA,a_3,7175,0
7183,Note On,84,78,art_only_3,31,NA,NA,a_3,7183,1
7472,Note On,83,74,art_only_3,32,NA,NA,a_3,7472,1
7512,Note Off,84,0,art_only_3,33,NA,NA,a_3,7512,0
7708,Note Off,83,0,art_only_3,34,NA,NA,a_3,7708,0
7757,Note On,81,70,art_only_3,35,NA,NA,a_3,7757,1
7814,Note Off,81,0,art_only_3,36,NA,NA,a_3,7814,0
8033,Note On,81,70,art_only_3,37,NA,NA,a_3,8033,1
8091,Note Off,81,0,art_only_3,38,NA,NA,a_3,8091,0
8312,Note On,81,67,art_only_3,39,NA,NA,a_3,8312,1
8385,Note Off,81,0,art_only_3,40,NA,NA,a_3,8385,0
8591,Note On,83,70,art_only_3,41,NA,NA,a_3,8591,1
8880,Note On,81,69,art_only_3,42,NA,NA,a_3,8880,1
8899,Note Off,83,0,art_only_3,43,NA,NA,a_3,8899,0
9157,Note On,84,74,art_only_3,44,NA,NA,a_3,9157,1
9176,Note Off,81,0,art_only_3,45,NA,NA,a_3,9176,0
9446,Note On,81,71,art_only_3,46,NA,NA,a_3,9446,1
9467,Note Off,84,0,art_only_3,47,NA,NA,a_3,9467,0
9729,Note On,78,70,art_only_3,48,NA,NA,a_3,9729,1
9744,Note Off,81,0,art_only_3,49,NA,NA,a_3,9744,0
9995,Note Off,78,0,art_only_3,50,NA,NA,a_3,9995,0
10013,Note On,79,72,art_only_3,51,NA,NA,a_3,10013,1
10169,Note Off,79,0,art_only_3,52,NA,NA,a_3,10169,0
10308,Note On,79,69,art_only_3,53,NA,NA,a_3,10308,1
10732,Note Off,79,0,art_only_3,54,NA,NA,a_3,10732,0
10891,Note On,79,68,art_only_3,55,NA,NA,a_3,10891,1
11515,Note Off,79,0,art_only_3,56,NA,NA,a_3,11515,0
12104,Note On,77,76,art_only_3,57,NA,NA,a_3,12104,1
12146,Note Off,77,0,art_only_3,58,NA,NA,a_3,12146,0
12398,Note On,77,69,art_only_3,59,NA,NA,a_3,12398,1
12447,Note Off,77,0,art_only_3,60,NA,NA,a_3,12447,0
12676,Note On,76,73,art_only_3,61,NA,NA,a_3,12676,1
12730,Note Off,76,0,art_only_3,62,NA,NA,a_3,12730,0
12954,Note On,76,71,art_only_3,63,NA,NA,a_3,12954,1
13025,Note Off,76,0,art_only_3,64,NA,NA,a_3,13025,0
13254,Note On,74,70,art_only_3,65,NA,NA,a_3,13254,1
13886,Note Off,74,0,art_only_3,66,NA,NA,a_3,13886,0
14455,Note On,79,73,art_only_3,67,NA,NA,a_3,14455,1
14904,Note Off,79,0,art_only_3,68,NA,NA,a_3,14904,0
15046,Note On,77,67,art_only_3,69,NA,NA,a_3,15046,1
15500,Note Off,77,0,art_only_3,70,NA,NA,a_3,15500,0
15603,Note On,76,73,art_only_3,71,NA,NA,a_3,15603,1
15654,Note Off,76,0,art_only_3,72,NA,NA,a_3,15654,0
15889,Note On,76,73,art_only_3,73,NA,NA,a_3,15889,1
15936,Note Off,76,0,art_only_3,74,NA,NA,a_3,15936,0
16169,Note On,76,76,art_only_3,75,NA,NA,a_3,16169,1
16217,Note Off,76,0,art_only_3,76,NA,NA,a_3,16217,0
16438,Note On,76,71,art_only_3,77,NA,NA,a_3,16438,1
16515,Note Off,76,0,art_only_3,78,NA,NA,a_3,16515,0
16733,Note On,81,72,art_only_3,79,NA,NA,a_3,16733,1
17024,Note On,77,67,art_only_3,80,NA,NA,a_3,17024,1
17032,Note Off,81,0,art_only_3,81,NA,NA,a_3,17032,0
17295,Note On,76,68,art_only_3,82,NA,NA,a_3,17295,1
17328,Note Off,77,0,art_only_3,83,NA,NA,a_3,17328,0
17573,Note On,74,69,art_only_3,84,NA,NA,a_3,17573,1
17584,Note Off,76,0,art_only_3,85,NA,NA,a_3,17584,0
17857,Note On,76,70,art_only_3,86,NA,NA,a_3,17857,1
17871,Note Off,74,0,art_only_3,87,NA,NA,a_3,17871,0
18138,Note On,79,69,art_only_3,88,NA,NA,a_3,18138,1
18147,Note Off,76,0,art_only_3,89,NA,NA,a_3,18147,0
18416,Note On,74,70,art_only_3,90,NA,NA,a_3,18416,1
18457,Note Off,79,0,art_only_3,91,NA,NA,a_3,18457,0
18703,Note On,71,69,art_only_3,92,NA,NA,a_3,18703,1
18714,Note Off,74,0,art_only_3,93,NA,NA,a_3,18714,0
18960,Note Off,71,0,art_only_3,94,NA,NA,a_3,18960,0
18984,Note On,72,71,art_only_3,95,NA,NA,a_3,18984,1
19025,Note Off,72,0,art_only_3,96,NA,NA,a_3,19025,0
19261,Note On,72,73,art_only_3,97,NA,NA,a_3,19261,1
19304,Note Off,72,0,art_only_3,98,NA,NA,a_3,19304,0
19549,Note On,74,73,art_only_3,99,NA,NA,a_3,19549,1
19588,Note Off,74,0,art_only_3,100,NA,NA,a_3,19588,0
19821,Note On,74,75,art_only_3,101,NA,NA,a_3,19821,1
19867,Note Off,74,0,art_only_3,102,NA,NA,a_3,19867,0
20123,Note On,76,66,art_only_3,103,NA,NA,a_3,20123,1
20696,Note Off,76,0,art_only_3,104,NA,NA,a_3,20696,0
21327,Note On,65,76,art_only_3,105,NA,NA,a_3,21327,1
21370,Note Off,65,0,art_only_3,106,NA,NA,a_3,21370,0
21611,Note On,65,74,art_only_3,107,NA,NA,a_3,21611,1
21657,Note Off,65,0,art_only_3,108,NA,NA,a_3,21657,0
21895,Note On,64,77,art_only_3,109,NA,NA,a_3,21895,1
21942,Note Off,64,0,art_only_3,110,NA,NA,a_3,21942,0
22176,Note On,64,72,art_only_3,111,NA,NA,a_3,22176,1
22238,Note Off,64,0,art_only_3,112,NA,NA,a_3,22238,0
22467,Note On,62,69,art_only_3,113,NA,NA,a_3,22467,1
23051,Note Off,62,0,art_only_3,114,NA,NA,a_3,23051,0
23608,Note On,67,74,art_only_3,115,NA,NA,a_3,23608,1
23650,Note Off,67,0,art_only_3,116,NA,NA,a_3,23650,0
23890,Note On,67,74,art_only_3,117,NA,NA,a_3,23890,1
23943,Note Off,67,0,art_only_3,118,NA,NA,a_3,23943,0
24169,Note On,71,76,art_only_3,119,NA,NA,a_3,24169,1
24229,Note Off,71,0,art_only_3,120,NA,NA,a_3,24229,0
24435,Note On,71,75,art_only_3,121,NA,NA,a_3,24435,1
24508,Note Off,71,0,art_only_3,122,NA,NA,a_3,24508,0
24715,Note On,72,77,art_only_3,123,NA,NA,a_3,24715,1
24781,Note Off,72,0,art_only_3,124,NA,NA,a_3,24781,0
24984,Note On,72,77,art_only_3,125,NA,NA,a_3,24984,1
25065,Note Off,72,0,art_only_3,126,NA,NA,a_3,25065,0
25260,Note On,73,80,art_only_3,127,NA,NA,a_3,25260,1
25344,Note Off,73,0,art_only_3,128,NA,NA,a_3,25344,0
25543,Note On,73,76,art_only_3,129,NA,NA,a_3,25543,1
25632,Note Off,73,0,art_only_3,130,NA,NA,a_3,25632,0
25831,Note On,74,78,art_only_3,131,NA,NA,a_3,25831,1
26325,Note Off,74,0,art_only_3,132,NA,NA,a_3,26325,0
26410,Note On,77,73,art_only_3,133,NA,NA,a_3,26410,1
26896,Note Off,77,0,art_only_3,134,NA,NA,a_3,26896,0
26984,Note On,76,68,art_only_3,135,NA,NA,a_3,26984,1
27463,Note Off,76,0,art_only_3,136,NA,NA,a_3,27463,0
27550,Note On,74,69,art_only_3,137,NA,NA,a_3,27550,1
27994,Note Off,74,0,art_only_3,138,NA,NA,a_3,27994,0
28153,Note On,72,71,art_only_3,139,NA,NA,a_3,28153,1
28585,Note Off,72,0,art_only_3,140,NA,NA,a_3,28585,0
28763,Note On,84,76,art_only_3,141,NA,NA,a_3,28763,1
29169,Note Off,84,0,art_only_3,142,NA,NA,a_3,29169,0
29403,Note On,84,76,art_only_3,143,NA,NA,a_3,29403,1
30050,Note Off,84,0,art_only_3,144,NA,NA,a_3,30050,0
