time,event,Pitch,Velocity,MidFile,NoteNr,SubArt,SubDyn,MidFileShort,timeFixed,KeyOnOff
2880,Note On,79,75,dyn_only_3,1,NA,NA,d_3,2880,1
2944,Note Off,79,0,dyn_only_3,2,NA,NA,d_3,3109,0
3173,Note On,78,79,dyn_only_3,3,NA,NA,d_3,3173,1
3235,Note Off,78,0,dyn_only_3,4,NA,NA,d_3,3400,0
3458,Note On,79,78,dyn_only_3,5,NA,NA,d_3,3458,1
3500,Note Off,79,0,dyn_only_3,6,NA,NA,d_3,3665,0
3747,Note On,76,78,dyn_only_3,7,NA,NA,d_3,3747,1
3789,Note Off,76,0,dyn_only_3,8,NA,NA,d_3,3954,0
4031,Note On,72,78,dyn_only_3,9,NA,NA,d_3,4031,1
4101,Note Off,72,0,dyn_only_3,10,NA,NA,d_3,4266,0
4320,Note On,67,61,dyn_only_3,11,NA,NA,d_3,4320,1
4393,Note Off,67,0,dyn_only_3,12,NA,NA,d_3,4558,0
4601,Note On,67,57,dyn_only_3,13,NA,NA,d_3,4601,1
4652,Note Off,67,0,dyn_only_3,14,NA,NA,d_3,4817,0
4885,Note On,67,60,dyn_only_3,15,NA,NA,d_3,4885,1
4947,Note Off,67,0,dyn_only_3,16,NA,NA,d_3,5112,0
5184,Note On,79,78,dyn_only_3,17,NA,NA,d_3,5184,1
5243,Note Off,79,0,dyn_only_3,18,NA,NA,d_3,5408,0
5476,Note On,78,80,dyn_only_3,19,NA,NA,d_3,5476,1
5543,Note Off,78,0,dyn_only_3,20,NA,NA,d_3,5708,0
5764,Note On,79,78,dyn_only_3,21,NA,NA,d_3,5764,1
5814,Note Off,79,0,dyn_only_3,22,NA,NA,d_3,5979,0
6048,Note On,76,80,dyn_only_3,23,NA,NA,d_3,6048,1
6105,Note Off,76,0,dyn_only_3,24,NA,NA,d_3,6270,0
6338,Note On,72,80,dyn_only_3,25,NA,NA,d_3,6338,1
6387,Note Off,72,0,dyn_only_3,26,NA,NA,d_3,6552,0
6616,Note On,76,82,dyn_only_3,27,NA,NA,d_3,6616,1
6673,Note Off,76,0,dyn_only_3,28,NA,NA,d_3,6838,0
6898,Note On,79,84,dyn_only_3,29,NA,NA,d_3,6898,1
6938,Note Off,79,0,dyn_only_3,30,NA,NA,d_3,7103,0
7183,Note On,84,82,dyn_only_3,31,NA,NA,d_3,7183,1
7227,Note Off,84,0,dyn_only_3,32,NA,NA,d_3,7392,0
7472,Note On,83,84,dyn_only_3,33,NA,NA,d_3,7472,1
7519,Note Off,83,0,dyn_only_3,34,NA,NA,d_3,7684,0
7757,Note On,81,56,dyn_only_3,35,NA,NA,d_3,7757,1
7802,Note Off,81,0,dyn_only_3,36,NA,NA,d_3,7967,0
8033,Note On,81,60,dyn_only_3,37,NA,NA,d_3,8033,1
8080,Note Off,81,0,dyn_only_3,38,NA,NA,d_3,8245,0
8312,Note On,81,64,dyn_only_3,39,NA,NA,d_3,8312,1
8352,Note Off,81,0,dyn_only_3,40,NA,NA,d_3,8517,0
8591,Note On,83,79,dyn_only_3,41,NA,NA,d_3,8591,1
8637,Note Off,83,0,dyn_only_3,42,NA,NA,d_3,8802,0
8880,Note On,81,81,dyn_only_3,43,NA,NA,d_3,8880,1
8928,Note Off,81,0,dyn_only_3,44,NA,NA,d_3,9093,0
9157,Note On,84,82,dyn_only_3,45,NA,NA,d_3,9157,1
9207,Note Off,84,0,dyn_only_3,46,NA,NA,d_3,9372,0
9446,Note On,81,85,dyn_only_3,47,NA,NA,d_3,9446,1
9488,Note Off,81,0,dyn_only_3,48,NA,NA,d_3,9653,0
9729,Note On,78,81,dyn_only_3,49,NA,NA,d_3,9729,1
9830,Note Off,78,0,dyn_only_3,50,NA,NA,d_3,9995,0
10013,Note On,79,78,dyn_only_3,51,NA,NA,d_3,10013,1
10056,Note Off,79,0,dyn_only_3,52,NA,NA,d_3,10221,0
10308,Note On,79,75,dyn_only_3,53,NA,NA,d_3,10308,1
10383,Note Off,79,0,dyn_only_3,54,NA,NA,d_3,10548,0
10891,Note On,79,74,dyn_only_3,55,NA,NA,d_3,10891,1
11021,Note Off,79,0,dyn_only_3,56,NA,NA,d_3,11186,0
12104,Note On,77,53,dyn_only_3,57,NA,NA,d_3,12104,1
12157,Note Off,77,0,dyn_only_3,58,NA,NA,d_3,12322,0
12398,Note On,77,57,dyn_only_3,59,NA,NA,d_3,12398,1
12451,Note Off,77,0,dyn_only_3,60,NA,NA,d_3,12616,0
12676,Note On,76,55,dyn_only_3,61,NA,NA,d_3,12676,1
12739,Note Off,76,0,dyn_only_3,62,NA,NA,d_3,12904,0
12954,Note On,76,55,dyn_only_3,63,NA,NA,d_3,12954,1
13008,Note Off,76,0,dyn_only_3,64,NA,NA,d_3,13173,0
13254,Note On,74,56,dyn_only_3,65,NA,NA,d_3,13254,1
13699,Note Off,74,0,dyn_only_3,66,NA,NA,d_3,13864,0
14455,Note On,79,58,dyn_only_3,67,NA,NA,d_3,14455,1
14625,Note Off,79,0,dyn_only_3,68,NA,NA,d_3,14790,0
15046,Note On,77,64,dyn_only_3,69,NA,NA,d_3,15046,1
15201,Note Off,77,0,dyn_only_3,70,NA,NA,d_3,15366,0
15603,Note On,76,57,dyn_only_3,71,NA,NA,d_3,15603,1
15676,Note Off,76,0,dyn_only_3,72,NA,NA,d_3,15841,0
15889,Note On,76,60,dyn_only_3,73,NA,NA,d_3,15889,1
15947,Note Off,76,0,dyn_only_3,74,NA,NA,d_3,16112,0
16169,Note On,76,60,dyn_only_3,75,NA,NA,d_3,16169,1
16257,Note Off,76,0,dyn_only_3,76,NA,NA,d_3,16422,0
16438,Note On,76,62,dyn_only_3,77,NA,NA,d_3,16438,1
16526,Note Off,76,0,dyn_only_3,78,NA,NA,d_3,16691,0
16733,Note On,81,75,dyn_only_3,79,NA,NA,d_3,16733,1
16776,Note Off,81,0,dyn_only_3,80,NA,NA,d_3,16941,0
17024,Note On,77,80,dyn_only_3,81,NA,NA,d_3,17024,1
17069,Note Off,77,0,dyn_only_3,82,NA,NA,d_3,17234,0
17295,Note On,76,76,dyn_only_3,83,NA,NA,d_3,17295,1
17344,Note Off,76,0,dyn_only_3,84,NA,NA,d_3,17509,0
17573,Note On,74,78,dyn_only_3,85,NA,NA,d_3,17573,1
17620,Note Off,74,0,dyn_only_3,86,NA,NA,d_3,17785,0
17857,Note On,76,77,dyn_only_3,87,NA,NA,d_3,17857,1
17915,Note Off,76,0,dyn_only_3,88,NA,NA,d_3,18080,0
18138,Note On,79,80,dyn_only_3,89,NA,NA,d_3,18138,1
18216,Note Off,79,0,dyn_only_3,90,NA,NA,d_3,18381,0
18416,Note On,74,81,dyn_only_3,91,NA,NA,d_3,18416,1
18479,Note Off,74,0,dyn_only_3,92,NA,NA,d_3,18644,0
18703,Note On,71,74,dyn_only_3,93,NA,NA,d_3,18703,1
18757,Note Off,71,0,dyn_only_3,94,NA,NA,d_3,18922,0
18984,Note On,72,63,dyn_only_3,95,NA,NA,d_3,18984,1
19065,Note Off,72,0,dyn_only_3,96,NA,NA,d_3,19230,0
19261,Note On,72,58,dyn_only_3,97,NA,NA,d_3,19261,1
19305,Note Off,72,0,dyn_only_3,98,NA,NA,d_3,19470,0
19549,Note On,74,58,dyn_only_3,99,NA,NA,d_3,19549,1
19584,Note Off,74,0,dyn_only_3,100,NA,NA,d_3,19749,0
19821,Note On,74,54,dyn_only_3,101,NA,NA,d_3,19821,1
19873,Note Off,74,0,dyn_only_3,102,NA,NA,d_3,20038,0
20123,Note On,76,50,dyn_only_3,103,NA,NA,d_3,20123,1
20590,Note Off,76,0,dyn_only_3,104,NA,NA,d_3,20755,0
21327,Note On,65,57,dyn_only_3,105,NA,NA,d_3,21327,1
21432,Note Off,65,0,dyn_only_3,106,NA,NA,d_3,21597,0
21611,Note On,65,59,dyn_only_3,107,NA,NA,d_3,21611,1
21677,Note Off,65,0,dyn_only_3,108,NA,NA,d_3,21842,0
21895,Note On,64,52,dyn_only_3,109,NA,NA,d_3,21895,1
21949,Note Off,64,0,dyn_only_3,110,NA,NA,d_3,22114,0
22176,Note On,64,53,dyn_only_3,111,NA,NA,d_3,22176,1
22231,Note Off,64,0,dyn_only_3,112,NA,NA,d_3,22396,0
22467,Note On,62,53,dyn_only_3,113,NA,NA,d_3,22467,1
23002,Note Off,62,0,dyn_only_3,114,NA,NA,d_3,23167,0
23608,Note On,67,56,dyn_only_3,115,NA,NA,d_3,23608,1
23697,Note Off,67,0,dyn_only_3,116,NA,NA,d_3,23862,0
23890,Note On,67,61,dyn_only_3,117,NA,NA,d_3,23890,1
23958,Note Off,67,0,dyn_only_3,118,NA,NA,d_3,24123,0
24169,Note On,71,63,dyn_only_3,119,NA,NA,d_3,24169,1
24229,Note Off,71,0,dyn_only_3,120,NA,NA,d_3,24394,0
24435,Note On,71,64,dyn_only_3,121,NA,NA,d_3,24435,1
24527,Note Off,71,0,dyn_only_3,122,NA,NA,d_3,24692,0
24715,Note On,72,71,dyn_only_3,123,NA,NA,d_3,24715,1
24780,Note Off,72,0,dyn_only_3,124,NA,NA,d_3,24945,0
24984,Note On,72,68,dyn_only_3,125,NA,NA,d_3,24984,1
25067,Note Off,72,0,dyn_only_3,126,NA,NA,d_3,25232,0
25260,Note On,73,71,dyn_only_3,127,NA,NA,d_3,25260,1
25338,Note Off,73,0,dyn_only_3,128,NA,NA,d_3,25503,0
25543,Note On,73,73,dyn_only_3,129,NA,NA,d_3,25543,1
25637,Note Off,73,0,dyn_only_3,130,NA,NA,d_3,25802,0
25831,Note On,74,91,dyn_only_3,131,NA,NA,d_3,25831,1
26138,Note Off,74,0,dyn_only_3,132,NA,NA,d_3,26303,0
26410,Note On,77,86,dyn_only_3,133,NA,NA,d_3,26410,1
26573,Note Off,77,0,dyn_only_3,134,NA,NA,d_3,26738,0
26984,Note On,76,83,dyn_only_3,135,NA,NA,d_3,26984,1
27152,Note Off,76,0,dyn_only_3,136,NA,NA,d_3,27317,0
27550,Note On,74,85,dyn_only_3,137,NA,NA,d_3,27550,1
27737,Note Off,74,0,dyn_only_3,138,NA,NA,d_3,27902,0
28153,Note On,72,85,dyn_only_3,139,NA,NA,d_3,28153,1
28497,Note Off,72,0,dyn_only_3,140,NA,NA,d_3,28662,0
28763,Note On,84,84,dyn_only_3,141,NA,NA,d_3,28763,1
28882,Note Off,84,0,dyn_only_3,142,NA,NA,d_3,29047,0
29403,Note On,84,80,dyn_only_3,143,NA,NA,d_3,29403,1
29665,Note Off,84,0,dyn_only_3,144,NA,NA,d_3,29665,0
