time,event,Pitch,Velocity,MidFile,NoteNr,SubArt,SubDyn,MidFileShort,timeFixed,KeyOnOff
2880,Note On,79,68,low_3,1,NA,NA,l_3,2880,1
2944,Note Off,79,0,low_3,2,NA,NA,l_3,3054,0
3173,Note On,78,67,low_3,3,NA,NA,l_3,3173,1
3235,Note Off,78,0,low_3,4,NA,NA,l_3,3345,0
3458,Note On,79,70,low_3,5,NA,NA,l_3,3458,1
3500,Note Off,79,0,low_3,6,NA,NA,l_3,3610,0
3747,Note On,76,67,low_3,7,NA,NA,l_3,3747,1
3789,Note Off,76,0,low_3,8,NA,NA,l_3,3899,0
4031,Note On,72,71,low_3,9,NA,NA,l_3,4031,1
4101,Note Off,72,0,low_3,10,NA,NA,l_3,4211,0
4320,Note On,67,70,low_3,11,NA,NA,l_3,4320,1
4393,Note Off,67,0,low_3,12,NA,NA,l_3,4503,0
4601,Note On,67,72,low_3,13,NA,NA,l_3,4601,1
4652,Note Off,67,0,low_3,14,NA,NA,l_3,4762,0
4885,Note On,67,73,low_3,15,NA,NA,l_3,4885,1
4947,Note Off,67,0,low_3,16,NA,NA,l_3,5057,0
5184,Note On,79,74,low_3,17,NA,NA,l_3,5184,1
5243,Note Off,79,0,low_3,18,NA,NA,l_3,5353,0
5476,Note On,78,68,low_3,19,NA,NA,l_3,5476,1
5543,Note Off,78,0,low_3,20,NA,NA,l_3,5653,0
5764,Note On,79,71,low_3,21,NA,NA,l_3,5764,1
5814,Note Off,79,0,low_3,22,NA,NA,l_3,5924,0
6048,Note On,76,68,low_3,23,NA,NA,l_3,6048,1
6105,Note Off,76,0,low_3,24,NA,NA,l_3,6215,0
6338,Note On,72,72,low_3,25,NA,NA,l_3,6338,1
6387,Note Off,72,0,low_3,26,NA,NA,l_3,6497,0
6616,Note On,76,74,low_3,27,NA,NA,l_3,6616,1
6673,Note Off,76,0,low_3,28,NA,NA,l_3,6783,0
6898,Note On,79,73,low_3,29,NA,NA,l_3,6898,1
6938,Note Off,79,0,low_3,30,NA,NA,l_3,7048,0
7183,Note On,84,78,low_3,31,NA,NA,l_3,7183,1
7227,Note Off,84,0,low_3,32,NA,NA,l_3,7337,0
7472,Note On,83,74,low_3,33,NA,NA,l_3,7472,1
7519,Note Off,83,0,low_3,34,NA,NA,l_3,7629,0
7757,Note On,81,70,low_3,35,NA,NA,l_3,7757,1
7802,Note Off,81,0,low_3,36,NA,NA,l_3,7912,0
8033,Note On,81,70,low_3,37,NA,NA,l_3,8033,1
8080,Note Off,81,0,low_3,38,NA,NA,l_3,8190,0
8312,Note On,81,67,low_3,39,NA,NA,l_3,8312,1
8352,Note Off,81,0,low_3,40,NA,NA,l_3,8462,0
8591,Note On,83,70,low_3,41,NA,NA,l_3,8591,1
8637,Note Off,83,0,low_3,42,NA,NA,l_3,8747,0
8880,Note On,81,69,low_3,43,NA,NA,l_3,8880,1
8928,Note Off,81,0,low_3,44,NA,NA,l_3,9038,0
9157,Note On,84,74,low_3,45,NA,NA,l_3,9157,1
9207,Note Off,84,0,low_3,46,NA,NA,l_3,9317,0
9446,Note On,81,71,low_3,47,NA,NA,l_3,9446,1
9488,Note Off,81,0,low_3,48,NA,NA,l_3,9598,0
9729,Note On,78,70,low_3,49,NA,NA,l_3,9729,1
9830,Note Off,78,0,low_3,50,NA,NA,l_3,9940,0
10013,Note On,79,72,low_3,51,NA,NA,l_3,10013,1
10056,Note Off,79,0,low_3,52,NA,NA,l_3,10166,0
10308,Note On,79,69,low_3,53,NA,NA,l_3,10308,1
10383,Note Off,79,0,low_3,54,NA,NA,l_3,10493,0
10891,Note On,79,68,low_3,55,NA,NA,l_3,10891,1
11021,Note Off,79,0,low_3,56,NA,NA,l_3,11131,0
12104,Note On,77,76,low_3,57,NA,NA,l_3,12104,1
12157,Note Off,77,0,low_3,58,NA,NA,l_3,12267,0
12398,Note On,77,69,low_3,59,NA,NA,l_3,12398,1
12451,Note Off,77,0,low_3,60,NA,NA,l_3,12561,0
12676,Note On,76,73,low_3,61,NA,NA,l_3,12676,1
12739,Note Off,76,0,low_3,62,NA,NA,l_3,12849,0
12954,Note On,76,71,low_3,63,NA,NA,l_3,12954,1
13008,Note Off,76,0,low_3,64,NA,NA,l_3,13118,0
13254,Note On,74,70,low_3,65,NA,NA,l_3,13254,1
13699,Note Off,74,0,low_3,66,NA,NA,l_3,13809,0
14455,Note On,79,73,low_3,67,NA,NA,l_3,14455,1
14625,Note Off,79,0,low_3,68,NA,NA,l_3,14735,0
15046,Note On,77,67,low_3,69,NA,NA,l_3,15046,1
15201,Note Off,77,0,low_3,70,NA,NA,l_3,15311,0
15603,Note On,76,73,low_3,71,NA,NA,l_3,15603,1
15676,Note Off,76,0,low_3,72,NA,NA,l_3,15786,0
15889,Note On,76,73,low_3,73,NA,NA,l_3,15889,1
15947,Note Off,76,0,low_3,74,NA,NA,l_3,16057,0
16169,Note On,76,76,low_3,75,NA,NA,l_3,16169,1
16257,Note Off,76,0,low_3,76,NA,NA,l_3,16367,0
16438,Note On,76,71,low_3,77,NA,NA,l_3,16438,1
16526,Note Off,76,0,low_3,78,NA,NA,l_3,16636,0
16733,Note On,81,72,low_3,79,NA,NA,l_3,16733,1
16776,Note Off,81,0,low_3,80,NA,NA,l_3,16886,0
17024,Note On,77,67,low_3,81,NA,NA,l_3,17024,1
17069,Note Off,77,0,low_3,82,NA,NA,l_3,17179,0
17295,Note On,76,68,low_3,83,NA,NA,l_3,17295,1
17344,Note Off,76,0,low_3,84,NA,NA,l_3,17454,0
17573,Note On,74,69,low_3,85,NA,NA,l_3,17573,1
17620,Note Off,74,0,low_3,86,NA,NA,l_3,17730,0
17857,Note On,76,70,low_3,87,NA,NA,l_3,17857,1
17915,Note Off,76,0,low_3,88,NA,NA,l_3,18025,0
18138,Note On,79,69,low_3,89,NA,NA,l_3,18138,1
18216,Note Off,79,0,low_3,90,NA,NA,l_3,18326,0
18416,Note On,74,70,low_3,91,NA,NA,l_3,18416,1
18479,Note Off,74,0,low_3,92,NA,NA,l_3,18589,0
18703,Note On,71,69,low_3,93,NA,NA,l_3,18703,1
18757,Note Off,71,0,low_3,94,NA,NA,l_3,18867,0
18984,Note On,72,71,low_3,95,NA,NA,l_3,18984,1
19065,Note Off,72,0,low_3,96,NA,NA,l_3,19175,0
19261,Note On,72,73,low_3,97,NA,NA,l_3,19261,1
19305,Note Off,72,0,low_3,98,NA,NA,l_3,19415,0
19549,Note On,74,73,low_3,99,NA,NA,l_3,19549,1
19584,Note Off,74,0,low_3,100,NA,NA,l_3,19694,0
19821,Note On,74,75,low_3,101,NA,NA,l_3,19821,1
19873,Note Off,74,0,low_3,102,NA,NA,l_3,19983,0
20123,Note On,76,66,low_3,103,NA,NA,l_3,20123,1
20590,Note Off,76,0,low_3,104,NA,NA,l_3,20700,0
21327,Note On,65,76,low_3,105,NA,NA,l_3,21327,1
21432,Note Off,65,0,low_3,106,NA,NA,l_3,21542,0
21611,Note On,65,74,low_3,107,NA,NA,l_3,21611,1
21677,Note Off,65,0,low_3,108,NA,NA,l_3,21787,0
21895,Note On,64,77,low_3,109,NA,NA,l_3,21895,1
21949,Note Off,64,0,low_3,110,NA,NA,l_3,22059,0
22176,Note On,64,72,low_3,111,NA,NA,l_3,22176,1
22231,Note Off,64,0,low_3,112,NA,NA,l_3,22341,0
22467,Note On,62,69,low_3,113,NA,NA,l_3,22467,1
23002,Note Off,62,0,low_3,114,NA,NA,l_3,23112,0
23608,Note On,67,74,low_3,115,NA,NA,l_3,23608,1
23697,Note Off,67,0,low_3,116,NA,NA,l_3,23807,0
23890,Note On,67,74,low_3,117,NA,NA,l_3,23890,1
23958,Note Off,67,0,low_3,118,NA,NA,l_3,24068,0
24169,Note On,71,76,low_3,119,NA,NA,l_3,24169,1
24229,Note Off,71,0,low_3,120,NA,NA,l_3,24339,0
24435,Note On,71,75,low_3,121,NA,NA,l_3,24435,1
24527,Note Off,71,0,low_3,122,NA,NA,l_3,24637,0
24715,Note On,72,77,low_3,123,NA,NA,l_3,24715,1
24780,Note Off,72,0,low_3,124,NA,NA,l_3,24890,0
24984,Note On,72,77,low_3,125,NA,NA,l_3,24984,1
25067,Note Off,72,0,low_3,126,NA,NA,l_3,25177,0
25260,Note On,73,80,low_3,127,NA,NA,l_3,25260,1
25338,Note Off,73,0,low_3,128,NA,NA,l_3,25448,0
25543,Note On,73,76,low_3,129,NA,NA,l_3,25543,1
25637,Note Off,73,0,low_3,130,NA,NA,l_3,25747,0
25831,Note On,74,78,low_3,131,NA,NA,l_3,25831,1
26138,Note Off,74,0,low_3,132,NA,NA,l_3,26248,0
26410,Note On,77,73,low_3,133,NA,NA,l_3,26410,1
26573,Note Off,77,0,low_3,134,NA,NA,l_3,26683,0
26984,Note On,76,68,low_3,135,NA,NA,l_3,26984,1
27152,Note Off,76,0,low_3,136,NA,NA,l_3,27262,0
27550,Note On,74,69,low_3,137,NA,NA,l_3,27550,1
27737,Note Off,74,0,low_3,138,NA,NA,l_3,27847,0
28153,Note On,72,71,low_3,139,NA,NA,l_3,28153,1
28497,Note Off,72,0,low_3,140,NA,NA,l_3,28607,0
28763,Note On,84,76,low_3,141,NA,NA,l_3,28763,1
28882,Note Off,84,0,low_3,142,NA,NA,l_3,28992,0
29403,Note On,84,76,low_3,143,NA,NA,l_3,29403,1
29665,Note Off,84,0,low_3,144,NA,NA,l_3,29665,0
