RowNr,NoteNr,TimeStamp,Pitch,Velocity,Key_OnOff,Device,SubNr,TrialNr,Stimuli,Session,Error
1,17,7798,79,96,1,2,4,1,7.mid,experiment,1
2,18,8078,78,98,1,2,4,1,7.mid,experiment,1
3,20,8386,79,93,1,2,4,1,7.mid,experiment,1
4,22,8656,76,87,1,2,4,1,7.mid,experiment,1
5,24,8942,72,97,1,2,4,1,7.mid,experiment,1
6,27,9246,67,67,1,2,4,1,7.mid,experiment,1
7,29,9512,67,62,1,2,4,1,7.mid,experiment,1
8,31,9798,67,52,1,2,4,1,7.mid,experiment,1
9,33,10129,79,72,1,2,4,1,7.mid,experiment,1
10,34,10404,78,91,1,2,4,1,7.mid,experiment,1
11,36,10706,79,94,1,2,4,1,7.mid,experiment,1
12,38,10982,76,72,1,2,4,1,7.mid,experiment,1
13,40,11302,72,58,1,2,4,1,7.mid,experiment,1
14,42,11598,76,72,1,2,4,1,7.mid,experiment,1
15,43,11866,79,83,1,2,4,1,7.mid,experiment,1
16,46,12154,84,99,1,2,4,1,7.mid,experiment,1
17,48,12448,83,90,1,2,4,1,7.mid,experiment,1
18,51,12782,81,66,1,2,4,1,7.mid,experiment,1
19,53,13058,81,49,1,2,4,1,7.mid,experiment,1
20,55,13334,81,47,1,2,4,1,7.mid,experiment,1
21,57,13668,83,47,1,2,4,1,7.mid,experiment,1
22,58,13937,81,70,1,2,4,1,7.mid,experiment,1
23,60,14230,84,79,1,2,4,1,7.mid,experiment,1
24,62,14502,81,84,1,2,4,1,7.mid,experiment,1
25,64,14805,78,91,1,2,4,1,7.mid,experiment,1
26,66,15099,79,72,1,2,4,1,7.mid,experiment,1
27,69,15394,79,60,1,2,4,1,7.mid,experiment,1
28,71,15994,79,48,1,2,4,1,7.mid,experiment,1
29,73,17132,77,56,1,2,4,1,7.mid,experiment,1
30,75,17410,77,61,1,2,4,1,7.mid,experiment,1
31,77,17692,76,55,1,2,4,1,7.mid,experiment,1
32,79,17956,76,70,1,2,4,1,7.mid,experiment,1
33,81,18320,74,44,1,2,4,1,7.mid,experiment,1
34,83,19446,79,51,1,2,4,1,7.mid,experiment,1
35,85,20034,77,48,1,2,4,1,7.mid,experiment,1
36,87,20558,76,60,1,2,4,1,7.mid,experiment,1
37,89,20827,76,71,1,2,4,1,7.mid,experiment,1
38,91,21094,76,65,1,2,4,1,7.mid,experiment,1
39,93,21362,76,56,1,2,4,1,7.mid,experiment,1
40,95,21706,81,58,1,2,4,1,7.mid,experiment,1
41,96,21998,77,69,1,2,4,1,7.mid,experiment,1
42,97,22272,76,82,1,2,4,1,7.mid,experiment,1
43,100,22536,74,86,1,2,4,1,7.mid,experiment,1
44,102,22825,76,90,1,2,4,1,7.mid,experiment,1
45,104,23088,79,78,1,2,4,1,7.mid,experiment,1
46,106,23380,74,79,1,2,4,1,7.mid,experiment,1
47,108,23640,71,65,1,2,4,1,7.mid,experiment,1
48,111,23932,72,56,1,2,4,1,7.mid,experiment,1
49,113,24174,72,62,1,2,4,1,7.mid,experiment,1
50,115,24460,74,52,1,2,4,1,7.mid,experiment,1
51,117,24724,74,45,1,2,4,1,7.mid,experiment,1
52,119,25091,76,33,1,2,4,1,7.mid,experiment,1
53,121,26121,65,65,1,2,4,1,7.mid,experiment,1
54,123,26384,65,70,1,2,4,1,7.mid,experiment,1
55,125,26670,64,56,1,2,4,1,7.mid,experiment,1
56,127,26915,64,55,1,2,4,1,7.mid,experiment,1
57,129,27284,62,41,1,2,4,1,7.mid,experiment,1
58,131,28338,67,56,1,2,4,1,7.mid,experiment,1
59,133,28596,67,62,1,2,4,1,7.mid,experiment,1
60,135,29146,71,76,1,2,4,1,7.mid,experiment,1
61,135,,71,,1,2,4,1,7.mid,experiment,1
62,137,29404,72,89,1,2,4,1,7.mid,experiment,1
63,139,29682,72,74,1,2,4,1,7.mid,experiment,1
64,141,29956,73,76,1,2,4,1,7.mid,experiment,1
65,143,30214,73,67,1,2,4,1,7.mid,experiment,1
66,145,30530,74,72,1,2,4,1,7.mid,experiment,1
67,146,31100,77,87,1,2,4,1,7.mid,experiment,1
68,148,31642,76,103,1,2,4,1,7.mid,experiment,1
69,150,32224,74,107,1,2,4,1,7.mid,experiment,1
70,152,32808,72,105,1,2,4,1,7.mid,experiment,1
71,154,33415,84,112,1,2,4,1,7.mid,experiment,1
72,157,34076,84,98,1,2,4,1,7.mid,experiment,1
1,17,7835,79,95,1,2,4,4,5.mid,experiment,1
2,18,8113,78,97,1,2,4,4,5.mid,experiment,1
3,20,8410,79,93,1,2,4,4,5.mid,experiment,1
4,22,8665,76,81,1,2,4,4,5.mid,experiment,1
5,24,8941,72,90,1,2,4,4,5.mid,experiment,1
6,27,9223,67,58,1,2,4,4,5.mid,experiment,1
7,29,9477,67,70,1,2,4,4,5.mid,experiment,1
8,31,9760,67,63,1,2,4,4,5.mid,experiment,1
9,33,10071,79,75,1,2,4,4,5.mid,experiment,1
10,34,10332,78,91,1,2,4,4,5.mid,experiment,1
11,36,10602,79,93,1,2,4,4,5.mid,experiment,1
12,38,10857,76,71,1,2,4,4,5.mid,experiment,1
13,40,11155,72,76,1,2,4,4,5.mid,experiment,1
14,42,11423,76,85,1,2,4,4,5.mid,experiment,1
15,44,11677,79,98,1,2,4,4,5.mid,experiment,1
16,46,11927,84,105,1,2,4,4,5.mid,experiment,1
17,48,12205,83,100,1,2,4,4,5.mid,experiment,1
18,51,12499,81,63,1,2,4,4,5.mid,experiment,1
19,53,12748,81,69,1,2,4,4,5.mid,experiment,1
20,53,,81,,1,2,4,4,5.mid,experiment,1
21,55,13282,83,63,1,2,4,4,5.mid,experiment,1
22,56,13551,81,83,1,2,4,4,5.mid,experiment,1
23,58,13820,84,87,1,2,4,4,5.mid,experiment,1
24,60,14074,81,91,1,2,4,4,5.mid,experiment,1
25,62,14358,78,99,1,2,4,4,5.mid,experiment,1
26,64,14631,79,77,1,2,4,4,5.mid,experiment,1
27,67,14890,79,87,1,2,4,4,5.mid,experiment,1
28,69,15476,79,63,1,2,4,4,5.mid,experiment,1
29,71,16506,77,57,1,2,4,4,5.mid,experiment,1
30,73,16780,77,62,1,2,4,4,5.mid,experiment,1
31,75,17034,76,70,1,2,4,4,5.mid,experiment,1
32,77,17260,76,71,1,2,4,4,5.mid,experiment,1
33,79,17606,74,49,1,2,4,4,5.mid,experiment,1
34,81,18678,79,54,1,2,4,4,5.mid,experiment,1
35,83,19243,77,55,1,2,4,4,5.mid,experiment,1
36,85,19819,76,56,1,2,4,4,5.mid,experiment,1
37,87,20089,76,78,1,2,4,4,5.mid,experiment,1
38,89,20343,76,72,1,2,4,4,5.mid,experiment,1
39,91,20605,76,61,1,2,4,4,5.mid,experiment,1
40,93,20893,81,70,1,2,4,4,5.mid,experiment,1
41,94,21185,77,78,1,2,4,4,5.mid,experiment,1
42,96,21466,76,75,1,2,4,4,5.mid,experiment,1
43,98,21720,74,91,1,2,4,4,5.mid,experiment,1
44,100,21988,76,91,1,2,4,4,5.mid,experiment,1
45,102,22265,79,94,1,2,4,4,5.mid,experiment,1
46,104,22534,74,91,1,2,4,4,5.mid,experiment,1
47,106,22787,71,85,1,2,4,4,5.mid,experiment,1
48,109,23086,72,69,1,2,4,4,5.mid,experiment,1
49,111,23332,72,70,1,2,4,4,5.mid,experiment,1
50,113,23614,74,59,1,2,4,4,5.mid,experiment,1
51,115,23881,74,53,1,2,4,4,5.mid,experiment,1
52,117,24223,76,40,1,2,4,4,5.mid,experiment,1
53,119,25224,65,74,1,2,4,4,5.mid,experiment,1
54,121,25486,65,65,1,2,4,4,5.mid,experiment,1
55,123,26005,64,59,1,2,4,4,5.mid,experiment,1
56,123,,64,,1,2,4,4,5.mid,experiment,1
57,125,26345,62,40,1,2,4,4,5.mid,experiment,1
58,127,27378,67,65,1,2,4,4,5.mid,experiment,1
59,129,27642,67,56,1,2,4,4,5.mid,experiment,1
60,131,27918,71,61,1,2,4,4,5.mid,experiment,1
61,133,28182,71,54,1,2,4,4,5.mid,experiment,1
62,135,28446,72,71,1,2,4,4,5.mid,experiment,1
63,137,28713,72,75,1,2,4,4,5.mid,experiment,1
64,139,28970,73,80,1,2,4,4,5.mid,experiment,1
65,141,29223,73,80,1,2,4,4,5.mid,experiment,1
66,143,29545,74,75,1,2,4,4,5.mid,experiment,1
67,144,30151,77,80,1,2,4,4,5.mid,experiment,1
68,146,30660,76,89,1,2,4,4,5.mid,experiment,1
69,148,31198,74,98,1,2,4,4,5.mid,experiment,1
70,150,31791,72,100,1,2,4,4,5.mid,experiment,1
71,152,32441,84,105,1,2,4,4,5.mid,experiment,1
72,155,33190,84,91,1,2,4,4,5.mid,experiment,1
1,17,7815,79,87,1,2,4,5,3.mid,experiment,1
2,18,8090,78,91,1,2,4,5,3.mid,experiment,1
3,20,8380,79,95,1,2,4,5,3.mid,experiment,1
4,22,8658,76,84,1,2,4,5,3.mid,experiment,1
5,24,8950,72,91,1,2,4,5,3.mid,experiment,1
6,26,9238,67,70,1,2,4,5,3.mid,experiment,1
7,29,9496,67,60,1,2,4,5,3.mid,experiment,1
8,31,9779,67,67,1,2,4,5,3.mid,experiment,1
9,33,10116,79,64,1,2,4,5,3.mid,experiment,1
10,34,10379,78,87,1,2,4,5,3.mid,experiment,1
11,36,10657,79,95,1,2,4,5,3.mid,experiment,1
12,38,10928,76,88,1,2,4,5,3.mid,experiment,1
13,40,11224,72,85,1,2,4,5,3.mid,experiment,1
14,42,11492,76,91,1,2,4,5,3.mid,experiment,1
15,44,11759,79,95,1,2,4,5,3.mid,experiment,1
16,46,12021,84,103,1,2,4,5,3.mid,experiment,1
17,48,12321,83,96,1,2,4,5,3.mid,experiment,1
18,51,12628,81,65,1,2,4,5,3.mid,experiment,1
19,53,12884,81,69,1,2,4,5,3.mid,experiment,1
20,55,13139,81,61,1,2,4,5,3.mid,experiment,1
21,57,13438,83,54,1,2,4,5,3.mid,experiment,1
22,58,13710,81,81,1,2,4,5,3.mid,experiment,1
23,60,13985,84,91,1,2,4,5,3.mid,experiment,1
24,62,14239,81,96,1,2,4,5,3.mid,experiment,1
25,64,14553,78,99,1,2,4,5,3.mid,experiment,1
26,66,14819,79,96,1,2,4,5,3.mid,experiment,1
27,69,15128,79,82,1,2,4,5,3.mid,experiment,1
28,71,15725,79,72,1,2,4,5,3.mid,experiment,1
29,73,16865,77,68,1,2,4,5,3.mid,experiment,1
30,75,17122,77,72,1,2,4,5,3.mid,experiment,1
31,77,17397,76,55,1,2,4,5,3.mid,experiment,1
32,79,17649,76,65,1,2,4,5,3.mid,experiment,1
33,81,17962,74,50,1,2,4,5,3.mid,experiment,1
34,83,19090,79,58,1,2,4,5,3.mid,experiment,1
35,85,19725,77,24,1,2,4,5,3.mid,experiment,1
36,87,20248,76,59,1,2,4,5,3.mid,experiment,1
37,89,20505,76,65,1,2,4,5,3.mid,experiment,1
38,91,20778,76,66,1,2,4,5,3.mid,experiment,1
39,93,21059,76,58,1,2,4,5,3.mid,experiment,1
40,95,21370,81,71,1,2,4,5,3.mid,experiment,1
41,96,21654,77,75,1,2,4,5,3.mid,experiment,1
42,97,21949,76,79,1,2,4,5,3.mid,experiment,1
43,100,22214,74,87,1,2,4,5,3.mid,experiment,1
44,102,22490,76,85,1,2,4,5,3.mid,experiment,1
45,104,22780,79,97,1,2,4,5,3.mid,experiment,1
46,106,23065,74,91,1,2,4,5,3.mid,experiment,1
47,108,23337,71,75,1,2,4,5,3.mid,experiment,1
48,111,23622,72,64,1,2,4,5,3.mid,experiment,1
49,113,23874,72,66,1,2,4,5,3.mid,experiment,1
50,115,24163,74,54,1,2,4,5,3.mid,experiment,1
51,117,24422,74,60,1,2,4,5,3.mid,experiment,1
52,119,24751,76,49,1,2,4,5,3.mid,experiment,1
53,121,25898,65,68,1,2,4,5,3.mid,experiment,1
54,123,26152,65,72,1,2,4,5,3.mid,experiment,1
55,125,26434,64,60,1,2,4,5,3.mid,experiment,1
56,127,26702,64,66,1,2,4,5,3.mid,experiment,1
57,129,27052,62,45,1,2,4,5,3.mid,experiment,1
58,131,28169,67,57,1,2,4,5,3.mid,experiment,1
59,133,28452,67,51,1,2,4,5,3.mid,experiment,1
60,135,28987,71,41,1,2,4,5,3.mid,experiment,1
61,135,,71,,1,2,4,5,3.mid,experiment,1
62,137,29259,72,65,1,2,4,5,3.mid,experiment,1
63,139,29535,72,75,1,2,4,5,3.mid,experiment,1
64,141,29820,73,89,1,2,4,5,3.mid,experiment,1
65,143,30080,73,86,1,2,4,5,3.mid,experiment,1
66,145,30386,74,84,1,2,4,5,3.mid,experiment,1
67,146,30960,77,87,1,2,4,5,3.mid,experiment,1
68,148,31524,76,93,1,2,4,5,3.mid,experiment,1
69,150,32101,74,96,1,2,4,5,3.mid,experiment,1
70,152,32675,72,93,1,2,4,5,3.mid,experiment,1
71,154,33283,84,104,1,2,4,5,3.mid,experiment,1
72,157,33955,84,101,1,2,4,5,3.mid,experiment,1
1,17,7802,79,86,1,2,4,13,12.mid,experiment,1
2,18,8082,78,91,1,2,4,13,12.mid,experiment,1
3,20,8378,79,101,1,2,4,13,12.mid,experiment,1
4,22,8644,76,90,1,2,4,13,12.mid,experiment,1
5,24,8936,72,88,1,2,4,13,12.mid,experiment,1
6,26,9222,67,60,1,2,4,13,12.mid,experiment,1
7,29,9500,67,63,1,2,4,13,12.mid,experiment,1
8,31,9766,67,59,1,2,4,13,12.mid,experiment,1
9,33,10064,79,74,1,2,4,13,12.mid,experiment,1
10,34,10326,78,86,1,2,4,13,12.mid,experiment,1
11,36,10600,79,84,1,2,4,13,12.mid,experiment,1
12,38,10868,76,82,1,2,4,13,12.mid,experiment,1
13,40,11163,72,90,1,2,4,13,12.mid,experiment,1
14,42,11434,76,86,1,2,4,13,12.mid,experiment,1
15,44,11690,79,81,1,2,4,13,12.mid,experiment,1
16,46,11954,84,96,1,2,4,13,12.mid,experiment,1
17,48,12232,83,103,1,2,4,13,12.mid,experiment,1
18,50,12520,81,68,1,2,4,13,12.mid,experiment,1
19,53,12784,81,58,1,2,4,13,12.mid,experiment,1
20,55,13034,81,63,1,2,4,13,12.mid,experiment,1
21,57,13322,83,79,1,2,4,13,12.mid,experiment,1
22,58,13596,81,86,1,2,4,13,12.mid,experiment,1
23,60,13876,84,96,1,2,4,13,12.mid,experiment,1
24,62,14134,81,94,1,2,4,13,12.mid,experiment,1
25,64,14436,78,95,1,2,4,13,12.mid,experiment,1
26,66,14718,79,78,1,2,4,13,12.mid,experiment,1
27,69,15005,79,71,1,2,4,13,12.mid,experiment,1
28,71,15606,79,46,1,2,4,13,12.mid,experiment,1
29,73,16708,77,63,1,2,4,13,12.mid,experiment,1
30,75,16992,77,64,1,2,4,13,12.mid,experiment,1
31,77,17281,76,50,1,2,4,13,12.mid,experiment,1
32,79,17542,76,53,1,2,4,13,12.mid,experiment,1
33,81,17884,74,43,1,2,4,13,12.mid,experiment,1
34,83,18954,79,53,1,2,4,13,12.mid,experiment,1
35,84,19530,77,58,1,2,4,13,12.mid,experiment,1
36,87,20078,76,53,1,2,4,13,12.mid,experiment,1
37,89,20344,76,52,1,2,4,13,12.mid,experiment,1
38,91,20634,76,51,1,2,4,13,12.mid,experiment,1
39,91,,76,,1,2,4,13,12.mid,experiment,1
40,93,21226,81,69,1,2,4,13,12.mid,experiment,1
41,94,21518,77,84,1,2,4,13,12.mid,experiment,1
42,96,21794,76,89,1,2,4,13,12.mid,experiment,1
43,98,22056,74,88,1,2,4,13,12.mid,experiment,1
44,100,22340,76,91,1,2,4,13,12.mid,experiment,1
45,102,22604,79,91,1,2,4,13,12.mid,experiment,1
46,104,22892,74,91,1,2,4,13,12.mid,experiment,1
47,106,23158,71,77,1,2,4,13,12.mid,experiment,1
48,109,23446,72,70,1,2,4,13,12.mid,experiment,1
49,111,23690,72,68,1,2,4,13,12.mid,experiment,1
50,113,23972,74,56,1,2,4,13,12.mid,experiment,1
51,115,24228,74,58,1,2,4,13,12.mid,experiment,1
52,117,24553,76,55,1,2,4,13,12.mid,experiment,1
53,119,25634,65,65,1,2,4,13,12.mid,experiment,1
54,121,25916,65,57,1,2,4,13,12.mid,experiment,1
55,123,26212,64,54,1,2,4,13,12.mid,experiment,1
56,125,26501,64,48,1,2,4,13,12.mid,experiment,1
57,127,26826,62,39,1,2,4,13,12.mid,experiment,1
58,129,27834,67,56,1,2,4,13,12.mid,experiment,1
59,131,28118,67,51,1,2,4,13,12.mid,experiment,1
60,133,28390,71,56,1,2,4,13,12.mid,experiment,1
61,135,28672,71,52,1,2,4,13,12.mid,experiment,1
62,137,28946,72,68,1,2,4,13,12.mid,experiment,1
63,139,29200,72,63,1,2,4,13,12.mid,experiment,1
64,141,29477,73,72,1,2,4,13,12.mid,experiment,1
65,143,29733,73,71,1,2,4,13,12.mid,experiment,1
66,145,30052,74,76,1,2,4,13,12.mid,experiment,1
67,146,30652,77,87,1,2,4,13,12.mid,experiment,1
68,148,31204,76,95,1,2,4,13,12.mid,experiment,1
69,150,31726,74,104,1,2,4,13,12.mid,experiment,1
70,152,32300,72,98,1,2,4,13,12.mid,experiment,1
71,154,32856,84,103,1,2,4,13,12.mid,experiment,1
72,157,33556,84,97,1,2,4,13,12.mid,experiment,1
1,17,7806,79,76,1,2,4,15,14.mid,experiment,1
2,18,8090,78,85,1,2,4,15,14.mid,experiment,1
3,20,8383,79,90,1,2,4,15,14.mid,experiment,1
4,22,8664,76,87,1,2,4,15,14.mid,experiment,1
5,24,8976,72,82,1,2,4,15,14.mid,experiment,1
6,26,9275,67,64,1,2,4,15,14.mid,experiment,1
7,29,9546,67,55,1,2,4,15,14.mid,experiment,1
8,31,9829,67,66,1,2,4,15,14.mid,experiment,1
9,33,10126,79,69,1,2,4,15,14.mid,experiment,1
10,34,10386,78,82,1,2,4,15,14.mid,experiment,1
11,36,10672,79,95,1,2,4,15,14.mid,experiment,1
12,38,10932,76,78,1,2,4,15,14.mid,experiment,1
13,40,11232,72,79,1,2,4,15,14.mid,experiment,1
14,42,11492,76,96,1,2,4,15,14.mid,experiment,1
15,44,11757,79,101,1,2,4,15,14.mid,experiment,1
16,46,12024,84,104,1,2,4,15,14.mid,experiment,1
17,48,12317,83,98,1,2,4,15,14.mid,experiment,1
18,51,12659,81,51,1,2,4,15,14.mid,experiment,1
19,53,12897,81,67,1,2,4,15,14.mid,experiment,1
20,55,13164,81,51,1,2,4,15,14.mid,experiment,1
21,57,13422,83,77,1,2,4,15,14.mid,experiment,1
22,58,13695,81,91,1,2,4,15,14.mid,experiment,1
23,60,13969,84,93,1,2,4,15,14.mid,experiment,1
24,62,14234,81,86,1,2,4,15,14.mid,experiment,1
25,63,14508,78,84,1,2,4,15,14.mid,experiment,1
26,66,14779,79,74,1,2,4,15,14.mid,experiment,1
27,69,15071,79,56,1,2,4,15,14.mid,experiment,1
28,71,15654,79,41,1,2,4,15,14.mid,experiment,1
29,73,16714,77,63,1,2,4,15,14.mid,experiment,1
30,75,17005,77,64,1,2,4,15,14.mid,experiment,1
31,77,17274,76,67,1,2,4,15,14.mid,experiment,1
32,79,17545,76,54,1,2,4,15,14.mid,experiment,1
33,81,17888,74,45,1,2,4,15,14.mid,experiment,1
34,83,18987,79,44,1,2,4,15,14.mid,experiment,1
35,85,19563,77,56,1,2,4,15,14.mid,experiment,1
36,87,20116,76,62,1,2,4,15,14.mid,experiment,1
37,89,20392,76,66,1,2,4,15,14.mid,experiment,1
38,91,20657,76,68,1,2,4,15,14.mid,experiment,1
39,91,,76,,1,2,4,15,14.mid,experiment,1
40,93,21213,81,70,1,2,4,15,14.mid,experiment,1
41,94,21503,77,83,1,2,4,15,14.mid,experiment,1
42,96,21788,76,85,1,2,4,15,14.mid,experiment,1
43,98,22044,74,87,1,2,4,15,14.mid,experiment,1
44,100,22326,76,88,1,2,4,15,14.mid,experiment,1
45,102,22594,79,91,1,2,4,15,14.mid,experiment,1
46,104,22874,74,95,1,2,4,15,14.mid,experiment,1
47,106,23143,71,74,1,2,4,15,14.mid,experiment,1
48,109,23433,72,63,1,2,4,15,14.mid,experiment,1
49,111,23678,72,68,1,2,4,15,14.mid,experiment,1
50,113,23951,74,63,1,2,4,15,14.mid,experiment,1
51,115,24221,74,58,1,2,4,15,14.mid,experiment,1
52,117,24553,76,39,1,2,4,15,14.mid,experiment,1
53,119,25545,65,66,1,2,4,15,14.mid,experiment,1
54,121,25827,65,64,1,2,4,15,14.mid,experiment,1
55,123,26088,64,63,1,2,4,15,14.mid,experiment,1
56,125,26360,64,62,1,2,4,15,14.mid,experiment,1
57,127,26740,62,30,1,2,4,15,14.mid,experiment,1
58,129,27777,67,57,1,2,4,15,14.mid,experiment,1
59,131,28055,67,56,1,2,4,15,14.mid,experiment,1
60,133,28318,71,63,1,2,4,15,14.mid,experiment,1
61,135,28592,71,73,1,2,4,15,14.mid,experiment,1
62,137,28887,72,68,1,2,4,15,14.mid,experiment,1
63,139,29148,72,73,1,2,4,15,14.mid,experiment,1
64,141,29423,73,85,1,2,4,15,14.mid,experiment,1
65,143,29692,73,81,1,2,4,15,14.mid,experiment,1
66,145,30002,74,81,1,2,4,15,14.mid,experiment,1
67,146,30553,77,88,1,2,4,15,14.mid,experiment,1
68,148,31107,76,96,1,2,4,15,14.mid,experiment,1
69,150,31667,74,103,1,2,4,15,14.mid,experiment,1
70,152,32253,72,93,1,2,4,15,14.mid,experiment,1
71,154,32851,84,105,1,2,4,15,14.mid,experiment,1
72,157,33572,84,99,1,2,4,15,14.mid,experiment,1
1,17,7905,79,65,1,2,5,1,11.mid,experiment,1
2,18,8195,78,81,1,2,5,1,11.mid,experiment,1
3,20,8493,79,75,1,2,5,1,11.mid,experiment,1
4,22,8757,76,81,1,2,5,1,11.mid,experiment,1
5,24,9089,72,79,1,2,5,1,11.mid,experiment,1
6,27,9409,67,56,1,2,5,1,11.mid,experiment,1
7,29,9676,67,55,1,2,5,1,11.mid,experiment,1
8,31,9965,67,63,1,2,5,1,11.mid,experiment,1
9,33,10266,79,66,1,2,5,1,11.mid,experiment,1
10,34,10541,78,75,1,2,5,1,11.mid,experiment,1
11,36,10834,79,78,1,2,5,1,11.mid,experiment,1
12,38,11106,76,81,1,2,5,1,11.mid,experiment,1
13,40,11390,72,83,1,2,5,1,11.mid,experiment,1
14,42,11659,76,84,1,2,5,1,11.mid,experiment,1
15,44,11942,79,83,1,2,5,1,11.mid,experiment,1
16,46,12226,84,84,1,2,5,1,11.mid,experiment,1
17,48,12552,83,86,1,2,5,1,11.mid,experiment,1
18,51,12882,81,45,1,2,5,1,11.mid,experiment,1
19,53,13150,81,52,1,2,5,1,11.mid,experiment,1
20,55,13425,81,48,1,2,5,1,11.mid,experiment,1
21,57,13697,83,68,1,2,5,1,11.mid,experiment,1
22,58,13983,81,76,1,2,5,1,11.mid,experiment,1
23,60,14282,84,82,1,2,5,1,11.mid,experiment,1
24,62,14558,81,78,1,2,5,1,11.mid,experiment,1
25,64,14869,78,70,1,2,5,1,11.mid,experiment,1
26,66,15151,79,75,1,2,5,1,11.mid,experiment,1
27,69,15461,79,71,1,2,5,1,11.mid,experiment,1
28,71,16076,79,68,1,2,5,1,11.mid,experiment,1
29,73,17346,77,52,1,2,5,1,11.mid,experiment,1
30,75,17615,77,55,1,2,5,1,11.mid,experiment,1
31,77,17902,76,50,1,2,5,1,11.mid,experiment,1
32,79,18179,76,55,1,2,5,1,11.mid,experiment,1
33,81,18509,74,59,1,2,5,1,11.mid,experiment,1
34,83,19751,79,59,1,2,5,1,11.mid,experiment,1
35,84,20348,77,58,1,2,5,1,11.mid,experiment,1
36,87,20928,76,53,1,2,5,1,11.mid,experiment,1
37,89,21213,76,63,1,2,5,1,11.mid,experiment,1
38,91,21486,76,70,1,2,5,1,11.mid,experiment,1
39,93,21760,76,68,1,2,5,1,11.mid,experiment,1
40,95,22104,81,75,1,2,5,1,11.mid,experiment,1
41,96,22397,77,81,1,2,5,1,11.mid,experiment,1
42,98,22689,76,79,1,2,5,1,11.mid,experiment,1
43,100,22958,74,82,1,2,5,1,11.mid,experiment,1
44,102,23246,76,74,1,2,5,1,11.mid,experiment,1
45,104,23534,79,70,1,2,5,1,11.mid,experiment,1
46,106,23822,74,75,1,2,5,1,11.mid,experiment,1
47,108,24132,71,61,1,2,5,1,11.mid,experiment,1
48,110,24451,72,65,1,2,5,1,11.mid,experiment,1
49,113,24725,72,57,1,2,5,1,11.mid,experiment,1
50,115,25009,74,57,1,2,5,1,11.mid,experiment,1
51,117,25285,74,53,1,2,5,1,11.mid,experiment,1
52,119,25634,76,38,1,2,5,1,11.mid,experiment,1
53,121,26884,65,47,1,2,5,1,11.mid,experiment,1
54,123,27149,65,52,1,2,5,1,11.mid,experiment,1
55,125,27734,64,48,1,2,5,1,11.mid,experiment,1
56,125,,64,,1,2,5,1,11.mid,experiment,1
57,127,28091,62,49,1,2,5,1,11.mid,experiment,1
58,129,29232,67,52,1,2,5,1,11.mid,experiment,1
59,131,29500,67,60,1,2,5,1,11.mid,experiment,1
60,133,29776,71,64,1,2,5,1,11.mid,experiment,1
61,135,30052,71,70,1,2,5,1,11.mid,experiment,1
62,137,30326,72,76,1,2,5,1,11.mid,experiment,1
63,139,30602,72,77,1,2,5,1,11.mid,experiment,1
64,141,30865,73,78,1,2,5,1,11.mid,experiment,1
65,143,31139,73,79,1,2,5,1,11.mid,experiment,1
66,145,31467,74,82,1,2,5,1,11.mid,experiment,1
67,146,32028,77,81,1,2,5,1,11.mid,experiment,1
68,148,32612,76,78,1,2,5,1,11.mid,experiment,1
69,150,33189,74,81,1,2,5,1,11.mid,experiment,1
70,152,33814,72,79,1,2,5,1,11.mid,experiment,1
71,155,34426,84,87,1,2,5,1,11.mid,experiment,1
72,157,35121,84,82,1,2,5,1,11.mid,experiment,1
1,17,7863,79,58,1,2,5,2,13.mid,experiment,1
2,18,8161,78,75,1,2,5,2,13.mid,experiment,1
3,20,8446,79,78,1,2,5,2,13.mid,experiment,1
4,22,8733,76,76,1,2,5,2,13.mid,experiment,1
5,24,9041,72,78,1,2,5,2,13.mid,experiment,1
6,27,9369,67,57,1,2,5,2,13.mid,experiment,1
7,29,9653,67,58,1,2,5,2,13.mid,experiment,1
8,31,9951,67,44,1,2,5,2,13.mid,experiment,1
9,33,10245,79,72,1,2,5,2,13.mid,experiment,1
10,34,10541,78,74,1,2,5,2,13.mid,experiment,1
11,36,10847,79,74,1,2,5,2,13.mid,experiment,1
12,38,11131,76,69,1,2,5,2,13.mid,experiment,1
13,40,11413,72,78,1,2,5,2,13.mid,experiment,1
14,42,11699,76,81,1,2,5,2,13.mid,experiment,1
15,44,11975,79,82,1,2,5,2,13.mid,experiment,1
16,46,12275,84,83,1,2,5,2,13.mid,experiment,1
17,48,12623,83,81,1,2,5,2,13.mid,experiment,1
18,51,12969,81,70,1,2,5,2,13.mid,experiment,1
19,53,13250,81,68,1,2,5,2,13.mid,experiment,1
20,55,13530,81,53,1,2,5,2,13.mid,experiment,1
21,57,13841,83,78,1,2,5,2,13.mid,experiment,1
22,58,14124,81,82,1,2,5,2,13.mid,experiment,1
23,60,14407,84,81,1,2,5,2,13.mid,experiment,1
24,62,14684,81,81,1,2,5,2,13.mid,experiment,1
25,64,14996,78,75,1,2,5,2,13.mid,experiment,1
26,66,15279,79,74,1,2,5,2,13.mid,experiment,1
27,69,15584,79,70,1,2,5,2,13.mid,experiment,1
28,71,16178,79,77,1,2,5,2,13.mid,experiment,1
29,73,17471,77,60,1,2,5,2,13.mid,experiment,1
30,75,17757,77,50,1,2,5,2,13.mid,experiment,1
31,77,18055,76,54,1,2,5,2,13.mid,experiment,1
32,79,18350,76,55,1,2,5,2,13.mid,experiment,1
33,81,18689,74,53,1,2,5,2,13.mid,experiment,1
34,83,20002,79,68,1,2,5,2,13.mid,experiment,1
35,84,20605,77,61,1,2,5,2,13.mid,experiment,1
36,86,21199,76,53,1,2,5,2,13.mid,experiment,1
37,89,21467,76,65,1,2,5,2,13.mid,experiment,1
38,91,21753,76,71,1,2,5,2,13.mid,experiment,1
39,93,22033,76,72,1,2,5,2,13.mid,experiment,1
40,95,22373,81,75,1,2,5,2,13.mid,experiment,1
41,96,22663,77,73,1,2,5,2,13.mid,experiment,1
42,98,22949,76,78,1,2,5,2,13.mid,experiment,1
43,100,23217,74,84,1,2,5,2,13.mid,experiment,1
44,102,23517,76,80,1,2,5,2,13.mid,experiment,1
45,104,23803,79,84,1,2,5,2,13.mid,experiment,1
46,106,24097,74,84,1,2,5,2,13.mid,experiment,1
47,108,24385,71,73,1,2,5,2,13.mid,experiment,1
48,111,24679,72,59,1,2,5,2,13.mid,experiment,1
49,113,24948,72,62,1,2,5,2,13.mid,experiment,1
50,115,25239,74,53,1,2,5,2,13.mid,experiment,1
51,117,25525,74,41,1,2,5,2,13.mid,experiment,1
52,119,25881,76,41,1,2,5,2,13.mid,experiment,1
53,121,27175,65,52,1,2,5,2,13.mid,experiment,1
54,123,27467,65,63,1,2,5,2,13.mid,experiment,1
55,125,28042,64,46,1,2,5,2,13.mid,experiment,1
56,125,,64,,1,2,5,2,13.mid,experiment,1
57,127,28392,62,56,1,2,5,2,13.mid,experiment,1
58,129,29597,67,57,1,2,5,2,13.mid,experiment,1
59,131,29882,67,51,1,2,5,2,13.mid,experiment,1
60,133,30166,71,51,1,2,5,2,13.mid,experiment,1
61,135,30434,71,62,1,2,5,2,13.mid,experiment,1
62,137,30713,72,70,1,2,5,2,13.mid,experiment,1
63,139,30992,72,72,1,2,5,2,13.mid,experiment,1
64,141,31263,73,80,1,2,5,2,13.mid,experiment,1
65,143,31532,73,88,1,2,5,2,13.mid,experiment,1
66,145,31891,74,81,1,2,5,2,13.mid,experiment,1
67,146,32471,77,82,1,2,5,2,13.mid,experiment,1
68,148,33051,76,82,1,2,5,2,13.mid,experiment,1
69,150,33648,74,81,1,2,5,2,13.mid,experiment,1
70,153,34259,72,86,1,2,5,2,13.mid,experiment,1
71,154,34881,84,86,1,2,5,2,13.mid,experiment,1
72,157,35520,84,84,1,2,5,2,13.mid,experiment,1
1,17,7953,79,64,1,2,5,7,16.mid,experiment,1
2,18,8236,78,75,1,2,5,7,16.mid,experiment,1
3,20,8509,79,81,1,2,5,7,16.mid,experiment,1
4,22,8791,76,86,1,2,5,7,16.mid,experiment,1
5,24,9091,72,79,1,2,5,7,16.mid,experiment,1
6,27,9433,67,58,1,2,5,7,16.mid,experiment,1
7,29,9709,67,51,1,2,5,7,16.mid,experiment,1
8,31,9973,67,69,1,2,5,7,16.mid,experiment,1
9,33,10281,79,70,1,2,5,7,16.mid,experiment,1
10,34,10542,78,78,1,2,5,7,16.mid,experiment,1
11,36,10824,79,86,1,2,5,7,16.mid,experiment,1
12,38,11091,76,88,1,2,5,7,16.mid,experiment,1
13,40,11373,72,79,1,2,5,7,16.mid,experiment,1
14,42,11641,76,81,1,2,5,7,16.mid,experiment,1
15,44,11919,79,89,1,2,5,7,16.mid,experiment,1
16,46,12195,84,91,1,2,5,7,16.mid,experiment,1
17,48,12527,83,86,1,2,5,7,16.mid,experiment,1
18,51,12879,81,67,1,2,5,7,16.mid,experiment,1
19,53,13151,81,54,1,2,5,7,16.mid,experiment,1
20,55,13418,81,52,1,2,5,7,16.mid,experiment,1
21,57,13689,83,79,1,2,5,7,16.mid,experiment,1
22,58,13968,81,81,1,2,5,7,16.mid,experiment,1
23,60,14247,84,88,1,2,5,7,16.mid,experiment,1
24,62,14529,81,90,1,2,5,7,16.mid,experiment,1
25,64,14820,78,88,1,2,5,7,16.mid,experiment,1
26,66,15090,79,87,1,2,5,7,16.mid,experiment,1
27,69,15396,79,81,1,2,5,7,16.mid,experiment,1
28,71,16044,79,88,1,2,5,7,16.mid,experiment,1
29,73,17273,77,63,1,2,5,7,16.mid,experiment,1
30,75,17557,77,60,1,2,5,7,16.mid,experiment,1
31,77,17832,76,58,1,2,5,7,16.mid,experiment,1
32,79,18121,76,58,1,2,5,7,16.mid,experiment,1
33,81,18464,74,53,1,2,5,7,16.mid,experiment,1
34,83,19742,79,62,1,2,5,7,16.mid,experiment,1
35,84,20330,77,65,1,2,5,7,16.mid,experiment,1
36,87,20919,76,58,1,2,5,7,16.mid,experiment,1
37,89,21218,76,51,1,2,5,7,16.mid,experiment,1
38,91,21490,76,55,1,2,5,7,16.mid,experiment,1
39,93,21767,76,55,1,2,5,7,16.mid,experiment,1
40,95,22104,81,69,1,2,5,7,16.mid,experiment,1
41,96,22379,77,81,1,2,5,7,16.mid,experiment,1
42,98,22659,76,76,1,2,5,7,16.mid,experiment,1
43,100,22922,74,81,1,2,5,7,16.mid,experiment,1
44,102,23199,76,79,1,2,5,7,16.mid,experiment,1
45,104,23456,79,83,1,2,5,7,16.mid,experiment,1
46,106,23728,74,84,1,2,5,7,16.mid,experiment,1
47,109,24011,71,74,1,2,5,7,16.mid,experiment,1
48,111,24284,72,61,1,2,5,7,16.mid,experiment,1
49,113,24567,72,63,1,2,5,7,16.mid,experiment,1
50,115,24836,74,63,1,2,5,7,16.mid,experiment,1
51,117,25112,74,65,1,2,5,7,16.mid,experiment,1
52,119,25487,76,48,1,2,5,7,16.mid,experiment,1
53,121,26743,65,58,1,2,5,7,16.mid,experiment,1
54,123,27025,65,62,1,2,5,7,16.mid,experiment,1
55,123,,64,,1,2,5,7,16.mid,experiment,1
56,123,,64,,1,2,5,7,16.mid,experiment,1
57,125,27957,62,43,1,2,5,7,16.mid,experiment,1
58,127,29070,67,55,1,2,5,7,16.mid,experiment,1
59,129,29349,67,56,1,2,5,7,16.mid,experiment,1
60,131,29638,71,58,1,2,5,7,16.mid,experiment,1
61,133,29900,71,60,1,2,5,7,16.mid,experiment,1
62,135,30169,72,74,1,2,5,7,16.mid,experiment,1
63,137,30443,72,81,1,2,5,7,16.mid,experiment,1
64,139,30714,73,88,1,2,5,7,16.mid,experiment,1
65,141,30994,73,91,1,2,5,7,16.mid,experiment,1
66,143,31347,74,93,1,2,5,7,16.mid,experiment,1
67,144,31928,77,90,1,2,5,7,16.mid,experiment,1
68,146,32522,76,80,1,2,5,7,16.mid,experiment,1
69,148,33117,74,85,1,2,5,7,16.mid,experiment,1
70,150,33751,72,81,1,2,5,7,16.mid,experiment,1
71,152,34391,84,85,1,2,5,7,16.mid,experiment,1
72,155,35087,84,85,1,2,5,7,16.mid,experiment,1
1,17,7834,79,67,1,2,5,9,8.mid,experiment,1
2,18,8121,78,76,1,2,5,9,8.mid,experiment,1
3,20,8402,79,79,1,2,5,9,8.mid,experiment,1
4,23,8678,76,81,1,2,5,9,8.mid,experiment,1
5,24,8994,72,76,1,2,5,9,8.mid,experiment,1
6,27,9277,67,65,1,2,5,9,8.mid,experiment,1
7,29,9534,67,64,1,2,5,9,8.mid,experiment,1
8,31,9822,67,63,1,2,5,9,8.mid,experiment,1
9,33,10131,79,63,1,2,5,9,8.mid,experiment,1
10,34,10400,78,79,1,2,5,9,8.mid,experiment,1
11,36,10679,79,82,1,2,5,9,8.mid,experiment,1
12,38,10952,76,68,1,2,5,9,8.mid,experiment,1
13,40,11232,72,72,1,2,5,9,8.mid,experiment,1
14,42,11515,76,79,1,2,5,9,8.mid,experiment,1
15,44,11791,79,86,1,2,5,9,8.mid,experiment,1
16,46,12070,84,87,1,2,5,9,8.mid,experiment,1
17,48,12362,83,77,1,2,5,9,8.mid,experiment,1
18,51,12643,81,70,1,2,5,9,8.mid,experiment,1
19,53,12919,81,81,1,2,5,9,8.mid,experiment,1
20,55,13164,81,71,1,2,5,9,8.mid,experiment,1
21,57,13474,83,81,1,2,5,9,8.mid,experiment,1
22,58,13753,81,88,1,2,5,9,8.mid,experiment,1
23,60,14038,84,90,1,2,5,9,8.mid,experiment,1
24,62,14320,81,81,1,2,5,9,8.mid,experiment,1
25,64,14602,78,79,1,2,5,9,8.mid,experiment,1
26,66,14890,79,81,1,2,5,9,8.mid,experiment,1
27,69,15182,79,70,1,2,5,9,8.mid,experiment,1
28,71,15799,79,77,1,2,5,9,8.mid,experiment,1
29,73,17073,77,56,1,2,5,9,8.mid,experiment,1
30,75,17361,77,65,1,2,5,9,8.mid,experiment,1
31,77,17636,76,58,1,2,5,9,8.mid,experiment,1
32,79,17907,76,62,1,2,5,9,8.mid,experiment,1
33,81,18237,74,51,1,2,5,9,8.mid,experiment,1
34,83,19486,79,60,1,2,5,9,8.mid,experiment,1
35,84,20119,77,57,1,2,5,9,8.mid,experiment,1
36,87,20716,76,47,1,2,5,9,8.mid,experiment,1
37,89,20993,76,58,1,2,5,9,8.mid,experiment,1
38,91,21282,76,54,1,2,5,9,8.mid,experiment,1
39,93,21539,76,75,1,2,5,9,8.mid,experiment,1
40,95,21871,81,81,1,2,5,9,8.mid,experiment,1
41,96,22158,77,82,1,2,5,9,8.mid,experiment,1
42,98,22447,76,77,1,2,5,9,8.mid,experiment,1
43,100,22714,74,76,1,2,5,9,8.mid,experiment,1
44,102,23003,76,81,1,2,5,9,8.mid,experiment,1
45,104,23281,79,87,1,2,5,9,8.mid,experiment,1
46,106,23560,74,81,1,2,5,9,8.mid,experiment,1
47,109,23852,71,51,1,2,5,9,8.mid,experiment,1
48,111,24138,72,63,1,2,5,9,8.mid,experiment,1
49,113,24412,72,62,1,2,5,9,8.mid,experiment,1
50,115,24698,74,44,1,2,5,9,8.mid,experiment,1
51,117,24974,74,63,1,2,5,9,8.mid,experiment,1
52,119,25337,76,49,1,2,5,9,8.mid,experiment,1
53,121,26605,65,56,1,2,5,9,8.mid,experiment,1
54,123,26889,65,62,1,2,5,9,8.mid,experiment,1
55,125,27464,64,40,1,2,5,9,8.mid,experiment,1
56,125,,64,,1,2,5,9,8.mid,experiment,1
57,127,27798,62,53,1,2,5,9,8.mid,experiment,1
58,129,28986,67,44,1,2,5,9,8.mid,experiment,1
59,131,29260,67,51,1,2,5,9,8.mid,experiment,1
60,133,29552,71,53,1,2,5,9,8.mid,experiment,1
61,135,29813,71,76,1,2,5,9,8.mid,experiment,1
62,137,30091,72,78,1,2,5,9,8.mid,experiment,1
63,139,30357,72,78,1,2,5,9,8.mid,experiment,1
64,141,30633,73,87,1,2,5,9,8.mid,experiment,1
65,143,30909,73,81,1,2,5,9,8.mid,experiment,1
66,145,31249,74,91,1,2,5,9,8.mid,experiment,1
67,146,31825,77,90,1,2,5,9,8.mid,experiment,1
68,148,32418,76,81,1,2,5,9,8.mid,experiment,1
69,150,33007,74,88,1,2,5,9,8.mid,experiment,1
70,153,33617,72,81,1,2,5,9,8.mid,experiment,1
71,154,34237,84,80,1,2,5,9,8.mid,experiment,1
72,157,34927,84,82,1,2,5,9,8.mid,experiment,1
1,17,7836,79,69,1,2,5,15,14.mid,experiment,1
2,18,8116,78,79,1,2,5,15,14.mid,experiment,1
3,20,8395,79,86,1,2,5,15,14.mid,experiment,1
4,22,8666,76,73,1,2,5,15,14.mid,experiment,1
5,24,8980,72,79,1,2,5,15,14.mid,experiment,1
6,27,9306,67,67,1,2,5,15,14.mid,experiment,1
7,29,9575,67,65,1,2,5,15,14.mid,experiment,1
8,31,9861,67,55,1,2,5,15,14.mid,experiment,1
9,33,10153,79,75,1,2,5,15,14.mid,experiment,1
10,34,10431,78,78,1,2,5,15,14.mid,experiment,1
11,36,10710,79,85,1,2,5,15,14.mid,experiment,1
12,38,10980,76,85,1,2,5,15,14.mid,experiment,1
13,40,11271,72,82,1,2,5,15,14.mid,experiment,1
14,42,11547,76,83,1,2,5,15,14.mid,experiment,1
15,44,11821,79,86,1,2,5,15,14.mid,experiment,1
16,47,12117,84,77,1,2,5,15,14.mid,experiment,1
17,48,12410,83,83,1,2,5,15,14.mid,experiment,1
18,51,12711,81,65,1,2,5,15,14.mid,experiment,1
19,53,12987,81,63,1,2,5,15,14.mid,experiment,1
20,53,,81,,1,2,5,15,14.mid,experiment,1
21,55,13569,83,74,1,2,5,15,14.mid,experiment,1
22,56,13843,81,82,1,2,5,15,14.mid,experiment,1
23,58,14117,84,85,1,2,5,15,14.mid,experiment,1
24,60,14401,81,84,1,2,5,15,14.mid,experiment,1
25,62,14687,78,81,1,2,5,15,14.mid,experiment,1
26,64,14954,79,77,1,2,5,15,14.mid,experiment,1
27,67,15250,79,76,1,2,5,15,14.mid,experiment,1
28,69,15854,79,74,1,2,5,15,14.mid,experiment,1
29,71,17076,77,64,1,2,5,15,14.mid,experiment,1
30,73,17354,77,65,1,2,5,15,14.mid,experiment,1
31,75,17633,76,56,1,2,5,15,14.mid,experiment,1
32,77,17909,76,55,1,2,5,15,14.mid,experiment,1
33,79,18268,74,48,1,2,5,15,14.mid,experiment,1
34,81,19449,79,60,1,2,5,15,14.mid,experiment,1
35,82,20022,77,65,1,2,5,15,14.mid,experiment,1
36,85,20623,76,59,1,2,5,15,14.mid,experiment,1
37,87,20904,76,67,1,2,5,15,14.mid,experiment,1
38,89,21170,76,59,1,2,5,15,14.mid,experiment,1
39,91,21427,76,72,1,2,5,15,14.mid,experiment,1
40,93,21729,81,81,1,2,5,15,14.mid,experiment,1
41,94,22012,77,80,1,2,5,15,14.mid,experiment,1
42,96,22281,76,80,1,2,5,15,14.mid,experiment,1
43,98,22549,74,81,1,2,5,15,14.mid,experiment,1
44,100,22843,76,79,1,2,5,15,14.mid,experiment,1
45,102,23124,79,81,1,2,5,15,14.mid,experiment,1
46,104,23411,74,84,1,2,5,15,14.mid,experiment,1
47,107,23688,71,79,1,2,5,15,14.mid,experiment,1
48,109,23962,72,74,1,2,5,15,14.mid,experiment,1
49,111,24228,72,67,1,2,5,15,14.mid,experiment,1
50,113,24491,74,67,1,2,5,15,14.mid,experiment,1
51,115,24778,74,61,1,2,5,15,14.mid,experiment,1
52,117,25100,76,57,1,2,5,15,14.mid,experiment,1
53,119,26283,65,57,1,2,5,15,14.mid,experiment,1
54,121,26556,65,66,1,2,5,15,14.mid,experiment,1
55,123,26840,64,59,1,2,5,15,14.mid,experiment,1
56,125,27134,64,44,1,2,5,15,14.mid,experiment,1
57,127,27482,62,48,1,2,5,15,14.mid,experiment,1
58,129,28596,67,63,1,2,5,15,14.mid,experiment,1
59,131,28859,67,68,1,2,5,15,14.mid,experiment,1
60,133,29132,71,74,1,2,5,15,14.mid,experiment,1
61,135,29397,71,75,1,2,5,15,14.mid,experiment,1
62,137,29654,72,73,1,2,5,15,14.mid,experiment,1
63,139,29923,72,81,1,2,5,15,14.mid,experiment,1
64,141,30192,73,86,1,2,5,15,14.mid,experiment,1
65,143,30458,73,84,1,2,5,15,14.mid,experiment,1
66,145,30759,74,91,1,2,5,15,14.mid,experiment,1
67,146,31312,77,89,1,2,5,15,14.mid,experiment,1
68,148,31882,76,81,1,2,5,15,14.mid,experiment,1
69,150,32457,74,89,1,2,5,15,14.mid,experiment,1
70,152,33073,72,87,1,2,5,15,14.mid,experiment,1
71,154,33669,84,93,1,2,5,15,14.mid,experiment,1
72,157,34294,84,79,1,2,5,15,14.mid,experiment,1
1,17,7823,79,70,1,2,5,16,3.mid,experiment,1
2,18,8118,78,79,1,2,5,16,3.mid,experiment,1
3,20,8383,79,81,1,2,5,16,3.mid,experiment,1
4,22,8663,76,85,1,2,5,16,3.mid,experiment,1
5,24,8973,72,79,1,2,5,16,3.mid,experiment,1
6,27,9266,67,63,1,2,5,16,3.mid,experiment,1
7,29,9548,67,65,1,2,5,16,3.mid,experiment,1
8,31,9808,67,75,1,2,5,16,3.mid,experiment,1
9,33,10111,79,76,1,2,5,16,3.mid,experiment,1
10,34,10387,78,79,1,2,5,16,3.mid,experiment,1
11,36,10675,79,85,1,2,5,16,3.mid,experiment,1
12,38,10949,76,76,1,2,5,16,3.mid,experiment,1
13,40,11240,72,68,1,2,5,16,3.mid,experiment,1
14,42,11514,76,79,1,2,5,16,3.mid,experiment,1
15,44,11799,79,89,1,2,5,16,3.mid,experiment,1
16,46,12070,84,94,1,2,5,16,3.mid,experiment,1
17,48,12394,83,91,1,2,5,16,3.mid,experiment,1
18,50,12728,81,70,1,2,5,16,3.mid,experiment,1
19,53,13024,81,41,1,2,5,16,3.mid,experiment,1
20,55,13294,81,55,1,2,5,16,3.mid,experiment,1
21,57,13581,83,72,1,2,5,16,3.mid,experiment,1
22,58,13845,81,79,1,2,5,16,3.mid,experiment,1
23,60,14124,84,85,1,2,5,16,3.mid,experiment,1
24,62,14402,81,84,1,2,5,16,3.mid,experiment,1
25,64,14714,78,81,1,2,5,16,3.mid,experiment,1
26,66,15020,79,73,1,2,5,16,3.mid,experiment,1
27,69,15308,79,72,1,2,5,16,3.mid,experiment,1
28,71,15906,79,67,1,2,5,16,3.mid,experiment,1
29,73,17126,77,64,1,2,5,16,3.mid,experiment,1
30,75,17412,77,63,1,2,5,16,3.mid,experiment,1
31,77,17701,76,63,1,2,5,16,3.mid,experiment,1
32,79,17977,76,62,1,2,5,16,3.mid,experiment,1
33,81,18312,74,56,1,2,5,16,3.mid,experiment,1
34,83,19553,79,57,1,2,5,16,3.mid,experiment,1
35,84,20149,77,62,1,2,5,16,3.mid,experiment,1
36,87,20759,76,63,1,2,5,16,3.mid,experiment,1
37,89,21029,76,65,1,2,5,16,3.mid,experiment,1
38,91,21316,76,72,1,2,5,16,3.mid,experiment,1
39,93,21590,76,77,1,2,5,16,3.mid,experiment,1
40,95,21913,81,90,1,2,5,16,3.mid,experiment,1
41,96,22195,77,84,1,2,5,16,3.mid,experiment,1
42,98,22467,76,81,1,2,5,16,3.mid,experiment,1
43,100,22734,74,84,1,2,5,16,3.mid,experiment,1
44,102,23022,76,86,1,2,5,16,3.mid,experiment,1
45,104,23287,79,81,1,2,5,16,3.mid,experiment,1
46,106,23581,74,83,1,2,5,16,3.mid,experiment,1
47,109,23866,71,75,1,2,5,16,3.mid,experiment,1
48,111,24164,72,68,1,2,5,16,3.mid,experiment,1
49,111,,72,,1,2,5,16,3.mid,experiment,1
50,113,24727,74,62,1,2,5,16,3.mid,experiment,1
51,115,25008,74,62,1,2,5,16,3.mid,experiment,1
52,117,25357,76,47,1,2,5,16,3.mid,experiment,1
53,119,26571,65,66,1,2,5,16,3.mid,experiment,1
54,121,26841,65,63,1,2,5,16,3.mid,experiment,1
55,123,27126,64,57,1,2,5,16,3.mid,experiment,1
56,125,27397,64,55,1,2,5,16,3.mid,experiment,1
57,127,27725,62,52,1,2,5,16,3.mid,experiment,1
58,129,28923,67,61,1,2,5,16,3.mid,experiment,1
59,131,29219,67,68,1,2,5,16,3.mid,experiment,1
60,133,29490,71,63,1,2,5,16,3.mid,experiment,1
61,135,29767,71,70,1,2,5,16,3.mid,experiment,1
62,137,30019,72,80,1,2,5,16,3.mid,experiment,1
63,139,30295,72,87,1,2,5,16,3.mid,experiment,1
64,141,30567,73,83,1,2,5,16,3.mid,experiment,1
65,143,30839,73,91,1,2,5,16,3.mid,experiment,1
66,145,31166,74,90,1,2,5,16,3.mid,experiment,1
67,146,31726,77,81,1,2,5,16,3.mid,experiment,1
68,148,32293,76,81,1,2,5,16,3.mid,experiment,1
69,150,32879,74,83,1,2,5,16,3.mid,experiment,1
70,152,33480,72,80,1,2,5,16,3.mid,experiment,1
71,154,34111,84,81,1,2,5,16,3.mid,experiment,1
72,157,34782,84,85,1,2,5,16,3.mid,experiment,1
1,17,7775,79,76,1,2,6,1,3.mid,experiment,1
2,18,8078,78,89,1,2,6,1,3.mid,experiment,1
3,20,8358,79,81,1,2,6,1,3.mid,experiment,1
4,22,8632,76,88,1,2,6,1,3.mid,experiment,1
5,24,8920,72,91,1,2,6,1,3.mid,experiment,1
6,27,9239,67,53,1,2,6,1,3.mid,experiment,1
7,29,9525,67,53,1,2,6,1,3.mid,experiment,1
8,29,,67,,1,2,6,1,3.mid,experiment,1
9,31,10110,79,81,1,2,6,1,3.mid,experiment,1
10,32,10392,78,94,1,2,6,1,3.mid,experiment,1
11,34,10661,79,87,1,2,6,1,3.mid,experiment,1
12,36,10930,76,94,1,2,6,1,3.mid,experiment,1
13,38,11209,72,97,1,2,6,1,3.mid,experiment,1
14,40,11494,76,89,1,2,6,1,3.mid,experiment,1
15,42,11783,79,95,1,2,6,1,3.mid,experiment,1
16,44,12051,84,91,1,2,6,1,3.mid,experiment,1
17,46,12334,83,95,1,2,6,1,3.mid,experiment,1
18,49,12665,81,66,1,2,6,1,3.mid,experiment,1
19,51,12969,81,46,1,2,6,1,3.mid,experiment,1
20,53,13236,81,63,1,2,6,1,3.mid,experiment,1
21,55,13494,83,88,1,2,6,1,3.mid,experiment,1
22,56,13762,81,91,1,2,6,1,3.mid,experiment,1
23,58,14028,84,94,1,2,6,1,3.mid,experiment,1
24,60,14281,81,88,1,2,6,1,3.mid,experiment,1
25,62,14565,78,72,1,2,6,1,3.mid,experiment,1
26,65,14867,79,48,1,2,6,1,3.mid,experiment,1
27,67,15126,79,49,1,2,6,1,3.mid,experiment,1
28,69,15715,79,59,1,2,6,1,3.mid,experiment,1
29,71,16861,77,54,1,2,6,1,3.mid,experiment,1
30,73,17155,77,46,1,2,6,1,3.mid,experiment,1
31,75,17415,76,47,1,2,6,1,3.mid,experiment,1
32,77,17706,76,48,1,2,6,1,3.mid,experiment,1
33,79,18043,74,51,1,2,6,1,3.mid,experiment,1
34,81,19283,79,53,1,2,6,1,3.mid,experiment,1
35,83,19890,77,56,1,2,6,1,3.mid,experiment,1
36,85,20489,76,67,1,2,6,1,3.mid,experiment,1
37,87,20766,76,50,1,2,6,1,3.mid,experiment,1
38,89,21032,76,54,1,2,6,1,3.mid,experiment,1
39,91,21272,76,72,1,2,6,1,3.mid,experiment,1
40,93,21559,81,91,1,2,6,1,3.mid,experiment,1
41,94,21839,77,83,1,2,6,1,3.mid,experiment,1
42,96,22096,76,89,1,2,6,1,3.mid,experiment,1
43,98,22371,74,91,1,2,6,1,3.mid,experiment,1
44,100,22641,76,96,1,2,6,1,3.mid,experiment,1
45,102,22910,79,91,1,2,6,1,3.mid,experiment,1
46,104,23187,74,97,1,2,6,1,3.mid,experiment,1
47,107,23465,71,59,1,2,6,1,3.mid,experiment,1
48,108,23726,72,54,1,2,6,1,3.mid,experiment,1
49,111,23994,72,59,1,2,6,1,3.mid,experiment,1
50,113,24259,74,60,1,2,6,1,3.mid,experiment,1
51,115,24537,74,57,1,2,6,1,3.mid,experiment,1
52,117,24878,76,48,1,2,6,1,3.mid,experiment,1
53,119,26038,65,57,1,2,6,1,3.mid,experiment,1
54,121,26337,65,37,1,2,6,1,3.mid,experiment,1
55,123,26616,64,49,1,2,6,1,3.mid,experiment,1
56,125,26915,64,40,1,2,6,1,3.mid,experiment,1
57,127,27268,62,37,1,2,6,1,3.mid,experiment,1
58,129,28462,67,55,1,2,6,1,3.mid,experiment,1
59,131,28746,67,54,1,2,6,1,3.mid,experiment,1
60,133,29027,71,60,1,2,6,1,3.mid,experiment,1
61,135,29288,71,63,1,2,6,1,3.mid,experiment,1
62,137,29560,72,65,1,2,6,1,3.mid,experiment,1
63,139,29829,72,58,1,2,6,1,3.mid,experiment,1
64,141,30100,73,55,1,2,6,1,3.mid,experiment,1
65,143,30358,73,65,1,2,6,1,3.mid,experiment,1
66,145,30644,74,101,1,2,6,1,3.mid,experiment,1
67,146,31224,77,96,1,2,6,1,3.mid,experiment,1
68,148,31776,76,97,1,2,6,1,3.mid,experiment,1
69,150,32346,74,97,1,2,6,1,3.mid,experiment,1
70,152,32915,72,95,1,2,6,1,3.mid,experiment,1
71,154,33468,84,94,1,2,6,1,3.mid,experiment,1
72,157,34027,84,81,1,2,6,1,3.mid,experiment,1
1,17,7809,79,78,1,2,6,3,6.mid,experiment,1
2,18,8100,78,86,1,2,6,3,6.mid,experiment,1
3,20,8371,79,88,1,2,6,3,6.mid,experiment,1
4,22,8634,76,88,1,2,6,3,6.mid,experiment,1
5,24,8908,72,94,1,2,6,3,6.mid,experiment,1
6,27,9212,67,60,1,2,6,3,6.mid,experiment,1
7,29,9518,67,39,1,2,6,3,6.mid,experiment,1
8,31,9772,67,52,1,2,6,3,6.mid,experiment,1
9,33,10054,79,91,1,2,6,3,6.mid,experiment,1
10,34,10324,78,91,1,2,6,3,6.mid,experiment,1
11,36,10568,79,91,1,2,6,3,6.mid,experiment,1
12,38,10843,76,94,1,2,6,3,6.mid,experiment,1
13,40,11116,72,100,1,2,6,3,6.mid,experiment,1
14,42,11386,76,94,1,2,6,3,6.mid,experiment,1
15,44,11668,79,96,1,2,6,3,6.mid,experiment,1
16,46,11919,84,89,1,2,6,3,6.mid,experiment,1
17,48,12196,83,96,1,2,6,3,6.mid,experiment,1
18,51,12514,81,54,1,2,6,3,6.mid,experiment,1
19,53,12802,81,44,1,2,6,3,6.mid,experiment,1
20,55,13052,81,63,1,2,6,3,6.mid,experiment,1
21,57,13311,83,90,1,2,6,3,6.mid,experiment,1
22,58,13587,81,96,1,2,6,3,6.mid,experiment,1
23,60,13854,84,99,1,2,6,3,6.mid,experiment,1
24,62,14122,81,91,1,2,6,3,6.mid,experiment,1
25,64,14389,78,99,1,2,6,3,6.mid,experiment,1
26,67,14696,79,70,1,2,6,3,6.mid,experiment,1
27,69,14976,79,93,1,2,6,3,6.mid,experiment,1
28,71,15550,79,91,1,2,6,3,6.mid,experiment,1
29,73,16745,77,57,1,2,6,3,6.mid,experiment,1
30,75,17022,77,55,1,2,6,3,6.mid,experiment,1
31,77,17296,76,41,1,2,6,3,6.mid,experiment,1
32,79,17570,76,50,1,2,6,3,6.mid,experiment,1
33,81,17894,74,48,1,2,6,3,6.mid,experiment,1
34,83,19058,79,52,1,2,6,3,6.mid,experiment,1
35,85,19680,77,57,1,2,6,3,6.mid,experiment,1
36,87,20250,76,65,1,2,6,3,6.mid,experiment,1
37,89,20515,76,47,1,2,6,3,6.mid,experiment,1
38,91,20746,76,58,1,2,6,3,6.mid,experiment,1
39,93,21006,76,70,1,2,6,3,6.mid,experiment,1
40,95,21262,81,96,1,2,6,3,6.mid,experiment,1
41,96,21532,77,98,1,2,6,3,6.mid,experiment,1
42,98,21793,76,95,1,2,6,3,6.mid,experiment,1
43,100,22066,74,94,1,2,6,3,6.mid,experiment,1
44,102,22340,76,90,1,2,6,3,6.mid,experiment,1
45,104,22600,79,86,1,2,6,3,6.mid,experiment,1
46,106,22870,74,97,1,2,6,3,6.mid,experiment,1
47,108,23160,71,74,1,2,6,3,6.mid,experiment,1
48,111,23428,72,57,1,2,6,3,6.mid,experiment,1
49,113,23692,72,57,1,2,6,3,6.mid,experiment,1
50,115,23942,74,59,1,2,6,3,6.mid,experiment,1
51,117,24202,74,59,1,2,6,3,6.mid,experiment,1
52,119,24494,76,51,1,2,6,3,6.mid,experiment,1
53,121,25568,65,54,1,2,6,3,6.mid,experiment,1
54,121,,65,,1,2,6,3,6.mid,experiment,1
55,123,26105,64,59,1,2,6,3,6.mid,experiment,1
56,125,26384,64,55,1,2,6,3,6.mid,experiment,1
57,127,26692,62,51,1,2,6,3,6.mid,experiment,1
58,129,27826,67,62,1,2,6,3,6.mid,experiment,1
59,131,28108,67,53,1,2,6,3,6.mid,experiment,1
60,133,28376,71,67,1,2,6,3,6.mid,experiment,1
61,135,28638,71,58,1,2,6,3,6.mid,experiment,1
62,137,28903,72,58,1,2,6,3,6.mid,experiment,1
63,139,29152,72,62,1,2,6,3,6.mid,experiment,1
64,141,29412,73,58,1,2,6,3,6.mid,experiment,1
65,143,29658,73,60,1,2,6,3,6.mid,experiment,1
66,145,29942,74,106,1,2,6,3,6.mid,experiment,1
67,146,30528,77,98,1,2,6,3,6.mid,experiment,1
68,148,31066,76,97,1,2,6,3,6.mid,experiment,1
69,150,31612,74,107,1,2,6,3,6.mid,experiment,1
70,152,32166,72,100,1,2,6,3,6.mid,experiment,1
71,154,32710,84,106,1,2,6,3,6.mid,experiment,1
72,157,33269,84,90,1,2,6,3,6.mid,experiment,1
1,17,7756,79,85,1,2,6,4,11.mid,experiment,1
2,18,8046,78,91,1,2,6,4,11.mid,experiment,1
3,20,8312,79,91,1,2,6,4,11.mid,experiment,1
4,22,8571,76,87,1,2,6,4,11.mid,experiment,1
5,24,8855,72,101,1,2,6,4,11.mid,experiment,1
6,27,9182,67,46,1,2,6,4,11.mid,experiment,1
7,29,9455,67,52,1,2,6,4,11.mid,experiment,1
8,31,9727,67,55,1,2,6,4,11.mid,experiment,1
9,33,9997,79,91,1,2,6,4,11.mid,experiment,1
10,34,10262,78,95,1,2,6,4,11.mid,experiment,1
11,36,10522,79,91,1,2,6,4,11.mid,experiment,1
12,38,10783,76,97,1,2,6,4,11.mid,experiment,1
13,40,11061,72,97,1,2,6,4,11.mid,experiment,1
14,42,11335,76,96,1,2,6,4,11.mid,experiment,1
15,44,11604,79,91,1,2,6,4,11.mid,experiment,1
16,46,11864,84,93,1,2,6,4,11.mid,experiment,1
17,48,12133,83,96,1,2,6,4,11.mid,experiment,1
18,51,12450,81,59,1,2,6,4,11.mid,experiment,1
19,53,12718,81,50,1,2,6,4,11.mid,experiment,1
20,55,12990,81,68,1,2,6,4,11.mid,experiment,1
21,57,13242,83,90,1,2,6,4,11.mid,experiment,1
22,58,13505,81,96,1,2,6,4,11.mid,experiment,1
23,60,13778,84,93,1,2,6,4,11.mid,experiment,1
24,62,14027,81,93,1,2,6,4,11.mid,experiment,1
25,64,14295,78,95,1,2,6,4,11.mid,experiment,1
26,67,14614,79,60,1,2,6,4,11.mid,experiment,1
27,69,14849,79,103,1,2,6,4,11.mid,experiment,1
28,71,15431,79,88,1,2,6,4,11.mid,experiment,1
29,73,16636,77,61,1,2,6,4,11.mid,experiment,1
30,75,16931,77,49,1,2,6,4,11.mid,experiment,1
31,77,17184,76,51,1,2,6,4,11.mid,experiment,1
32,79,17454,76,60,1,2,6,4,11.mid,experiment,1
33,81,17765,74,51,1,2,6,4,11.mid,experiment,1
34,83,18929,79,58,1,2,6,4,11.mid,experiment,1
35,85,19537,77,57,1,2,6,4,11.mid,experiment,1
36,87,20128,76,65,1,2,6,4,11.mid,experiment,1
37,89,20634,76,68,1,2,6,4,11.mid,experiment,1
38,91,20880,76,79,1,2,6,4,11.mid,experiment,1
39,91,,76,,1,2,6,4,11.mid,experiment,1
40,93,21165,81,93,1,2,6,4,11.mid,experiment,1
41,94,21431,77,88,1,2,6,4,11.mid,experiment,1
42,96,21698,76,89,1,2,6,4,11.mid,experiment,1
43,98,21967,74,91,1,2,6,4,11.mid,experiment,1
44,100,22236,76,93,1,2,6,4,11.mid,experiment,1
45,102,22502,79,90,1,2,6,4,11.mid,experiment,1
46,104,22779,74,98,1,2,6,4,11.mid,experiment,1
47,106,23073,71,75,1,2,6,4,11.mid,experiment,1
48,109,23342,72,62,1,2,6,4,11.mid,experiment,1
49,111,23621,72,53,1,2,6,4,11.mid,experiment,1
50,113,23883,74,61,1,2,6,4,11.mid,experiment,1
51,115,24154,74,59,1,2,6,4,11.mid,experiment,1
52,117,24465,76,56,1,2,6,4,11.mid,experiment,1
53,119,25622,65,63,1,2,6,4,11.mid,experiment,1
54,121,25948,65,38,1,2,6,4,11.mid,experiment,1
55,123,26210,64,47,1,2,6,4,11.mid,experiment,1
56,125,26490,64,56,1,2,6,4,11.mid,experiment,1
57,127,26800,62,48,1,2,6,4,11.mid,experiment,1
58,129,27935,67,60,1,2,6,4,11.mid,experiment,1
59,131,28216,67,65,1,2,6,4,11.mid,experiment,1
60,133,28526,71,46,1,2,6,4,11.mid,experiment,1
61,135,28778,71,60,1,2,6,4,11.mid,experiment,1
62,137,29043,72,60,1,2,6,4,11.mid,experiment,1
63,139,29296,72,68,1,2,6,4,11.mid,experiment,1
64,141,29588,73,57,1,2,6,4,11.mid,experiment,1
65,143,29854,73,72,1,2,6,4,11.mid,experiment,1
66,145,30132,74,105,1,2,6,4,11.mid,experiment,1
67,147,30706,77,97,1,2,6,4,11.mid,experiment,1
68,149,31282,76,93,1,2,6,4,11.mid,experiment,1
69,151,31876,74,105,1,2,6,4,11.mid,experiment,1
70,153,32472,72,104,1,2,6,4,11.mid,experiment,1
71,155,33079,84,100,1,2,6,4,11.mid,experiment,1
72,157,33693,84,91,1,2,6,4,11.mid,experiment,1
1,17,7756,79,84,1,2,6,5,5.mid,experiment,1
2,18,8055,78,95,1,2,6,5,5.mid,experiment,1
3,20,8322,79,91,1,2,6,5,5.mid,experiment,1
4,22,8590,76,89,1,2,6,5,5.mid,experiment,1
5,24,8863,72,94,1,2,6,5,5.mid,experiment,1
6,27,9176,67,68,1,2,6,5,5.mid,experiment,1
7,29,9462,67,50,1,2,6,5,5.mid,experiment,1
8,31,9747,67,48,1,2,6,5,5.mid,experiment,1
9,33,10021,79,90,1,2,6,5,5.mid,experiment,1
10,34,10299,78,99,1,2,6,5,5.mid,experiment,1
11,36,10560,79,96,1,2,6,5,5.mid,experiment,1
12,38,10819,76,98,1,2,6,5,5.mid,experiment,1
13,40,11083,72,93,1,2,6,5,5.mid,experiment,1
14,42,11367,76,94,1,2,6,5,5.mid,experiment,1
15,44,11642,79,91,1,2,6,5,5.mid,experiment,1
16,46,11893,84,91,1,2,6,5,5.mid,experiment,1
17,48,12157,83,95,1,2,6,5,5.mid,experiment,1
18,51,12467,81,62,1,2,6,5,5.mid,experiment,1
19,53,12739,81,56,1,2,6,5,5.mid,experiment,1
20,55,13006,81,70,1,2,6,5,5.mid,experiment,1
21,57,13264,83,94,1,2,6,5,5.mid,experiment,1
22,58,13518,81,98,1,2,6,5,5.mid,experiment,1
23,60,13790,84,98,1,2,6,5,5.mid,experiment,1
24,62,14039,81,95,1,2,6,5,5.mid,experiment,1
25,64,14301,78,96,1,2,6,5,5.mid,experiment,1
26,67,14585,79,98,1,2,6,5,5.mid,experiment,1
27,69,14884,79,98,1,2,6,5,5.mid,experiment,1
28,71,15433,79,81,1,2,6,5,5.mid,experiment,1
29,73,16581,77,57,1,2,6,5,5.mid,experiment,1
30,75,16856,77,53,1,2,6,5,5.mid,experiment,1
31,77,17118,76,53,1,2,6,5,5.mid,experiment,1
32,79,17385,76,50,1,2,6,5,5.mid,experiment,1
33,81,17678,74,54,1,2,6,5,5.mid,experiment,1
34,83,18804,79,52,1,2,6,5,5.mid,experiment,1
35,85,19370,77,53,1,2,6,5,5.mid,experiment,1
36,87,19943,76,55,1,2,6,5,5.mid,experiment,1
37,89,20216,76,42,1,2,6,5,5.mid,experiment,1
38,91,20478,76,50,1,2,6,5,5.mid,experiment,1
39,93,20717,76,70,1,2,6,5,5.mid,experiment,1
40,95,21001,81,94,1,2,6,5,5.mid,experiment,1
41,96,21270,77,80,1,2,6,5,5.mid,experiment,1
42,98,21523,76,89,1,2,6,5,5.mid,experiment,1
43,100,21789,74,89,1,2,6,5,5.mid,experiment,1
44,102,22047,76,98,1,2,6,5,5.mid,experiment,1
45,104,22311,79,89,1,2,6,5,5.mid,experiment,1
46,106,22583,74,93,1,2,6,5,5.mid,experiment,1
47,108,22847,71,76,1,2,6,5,5.mid,experiment,1
48,111,23142,72,49,1,2,6,5,5.mid,experiment,1
49,113,23401,72,57,1,2,6,5,5.mid,experiment,1
50,115,23648,74,65,1,2,6,5,5.mid,experiment,1
51,117,23920,74,57,1,2,6,5,5.mid,experiment,1
52,119,24236,76,54,1,2,6,5,5.mid,experiment,1
53,121,25350,65,59,1,2,6,5,5.mid,experiment,1
54,123,25629,65,56,1,2,6,5,5.mid,experiment,1
55,125,25895,64,58,1,2,6,5,5.mid,experiment,1
56,127,26164,64,59,1,2,6,5,5.mid,experiment,1
57,129,26508,62,60,1,2,6,5,5.mid,experiment,1
58,131,27684,67,59,1,2,6,5,5.mid,experiment,1
59,131,,67,,1,2,6,5,5.mid,experiment,1
60,133,28222,71,68,1,2,6,5,5.mid,experiment,1
61,135,28478,71,70,1,2,6,5,5.mid,experiment,1
62,137,28740,72,68,1,2,6,5,5.mid,experiment,1
63,139,28994,72,65,1,2,6,5,5.mid,experiment,1
64,141,29267,73,59,1,2,6,5,5.mid,experiment,1
65,143,29522,73,68,1,2,6,5,5.mid,experiment,1
66,145,29791,74,100,1,2,6,5,5.mid,experiment,1
67,147,30365,77,98,1,2,6,5,5.mid,experiment,1
68,149,30920,76,90,1,2,6,5,5.mid,experiment,1
69,151,31489,74,101,1,2,6,5,5.mid,experiment,1
70,153,32062,72,106,1,2,6,5,5.mid,experiment,1
71,155,32642,84,98,1,2,6,5,5.mid,experiment,1
72,157,33240,84,95,1,2,6,5,5.mid,experiment,1
1,17,7758,79,89,1,2,6,7,7.mid,experiment,1
2,18,8054,78,96,1,2,6,7,7.mid,experiment,1
3,20,8321,79,93,1,2,6,7,7.mid,experiment,1
4,22,8571,76,90,1,2,6,7,7.mid,experiment,1
5,24,8855,72,103,1,2,6,7,7.mid,experiment,1
6,27,9167,67,59,1,2,6,7,7.mid,experiment,1
7,29,9440,67,49,1,2,6,7,7.mid,experiment,1
8,31,9699,67,65,1,2,6,7,7.mid,experiment,1
9,33,9990,79,89,1,2,6,7,7.mid,experiment,1
10,34,10265,78,101,1,2,6,7,7.mid,experiment,1
11,36,10519,79,95,1,2,6,7,7.mid,experiment,1
12,38,10780,76,94,1,2,6,7,7.mid,experiment,1
13,40,11040,72,93,1,2,6,7,7.mid,experiment,1
14,42,11312,76,97,1,2,6,7,7.mid,experiment,1
15,44,11571,79,95,1,2,6,7,7.mid,experiment,1
16,46,11822,84,96,1,2,6,7,7.mid,experiment,1
17,48,12095,83,95,1,2,6,7,7.mid,experiment,1
18,51,12387,81,61,1,2,6,7,7.mid,experiment,1
19,53,12666,81,48,1,2,6,7,7.mid,experiment,1
20,55,12924,81,75,1,2,6,7,7.mid,experiment,1
21,57,13182,83,91,1,2,6,7,7.mid,experiment,1
22,58,13447,81,96,1,2,6,7,7.mid,experiment,1
23,60,13714,84,95,1,2,6,7,7.mid,experiment,1
24,62,13969,81,98,1,2,6,7,7.mid,experiment,1
25,64,14245,78,91,1,2,6,7,7.mid,experiment,1
26,67,14542,79,88,1,2,6,7,7.mid,experiment,1
27,69,14848,79,93,1,2,6,7,7.mid,experiment,1
28,71,15389,79,81,1,2,6,7,7.mid,experiment,1
29,73,16537,77,51,1,2,6,7,7.mid,experiment,1
30,75,16821,77,44,1,2,6,7,7.mid,experiment,1
31,77,17073,76,56,1,2,6,7,7.mid,experiment,1
32,79,17346,76,47,1,2,6,7,7.mid,experiment,1
33,81,17640,74,51,1,2,6,7,7.mid,experiment,1
34,83,18822,79,54,1,2,6,7,7.mid,experiment,1
35,85,19425,77,41,1,2,6,7,7.mid,experiment,1
36,87,19997,76,51,1,2,6,7,7.mid,experiment,1
37,89,20258,76,52,1,2,6,7,7.mid,experiment,1
38,91,20517,76,51,1,2,6,7,7.mid,experiment,1
39,93,20761,76,62,1,2,6,7,7.mid,experiment,1
40,95,21026,81,91,1,2,6,7,7.mid,experiment,1
41,96,21284,77,94,1,2,6,7,7.mid,experiment,1
42,98,21548,76,98,1,2,6,7,7.mid,experiment,1
43,100,21799,74,91,1,2,6,7,7.mid,experiment,1
44,102,22071,76,91,1,2,6,7,7.mid,experiment,1
45,104,22338,79,89,1,2,6,7,7.mid,experiment,1
46,106,22606,74,95,1,2,6,7,7.mid,experiment,1
47,108,22891,71,84,1,2,6,7,7.mid,experiment,1
48,111,23166,72,54,1,2,6,7,7.mid,experiment,1
49,113,23435,72,55,1,2,6,7,7.mid,experiment,1
50,115,23678,74,63,1,2,6,7,7.mid,experiment,1
51,117,23941,74,58,1,2,6,7,7.mid,experiment,1
52,119,24243,76,52,1,2,6,7,7.mid,experiment,1
53,121,25335,65,58,1,2,6,7,7.mid,experiment,1
54,121,,65,,1,2,6,7,7.mid,experiment,1
55,123,25875,64,53,1,2,6,7,7.mid,experiment,1
56,125,26151,64,56,1,2,6,7,7.mid,experiment,1
57,127,26461,62,50,1,2,6,7,7.mid,experiment,1
58,129,27492,67,66,1,2,6,7,7.mid,experiment,1
59,131,27790,67,43,1,2,6,7,7.mid,experiment,1
60,133,28308,71,60,1,2,6,7,7.mid,experiment,1
61,133,,71,,1,2,6,7,7.mid,experiment,1
62,135,28580,72,66,1,2,6,7,7.mid,experiment,1
63,137,28842,72,62,1,2,6,7,7.mid,experiment,1
64,139,29094,73,63,1,2,6,7,7.mid,experiment,1
65,141,29344,73,70,1,2,6,7,7.mid,experiment,1
66,143,29623,74,101,1,2,6,7,7.mid,experiment,1
67,145,30165,77,98,1,2,6,7,7.mid,experiment,1
68,147,30705,76,91,1,2,6,7,7.mid,experiment,1
69,149,31261,74,99,1,2,6,7,7.mid,experiment,1
70,151,31802,72,94,1,2,6,7,7.mid,experiment,1
71,153,32350,84,101,1,2,6,7,7.mid,experiment,1
72,155,32912,84,79,1,2,6,7,7.mid,experiment,1
1,17,7756,79,87,1,2,6,9,14.mid,experiment,1
2,18,8053,78,94,1,2,6,9,14.mid,experiment,1
3,20,8317,79,88,1,2,6,9,14.mid,experiment,1
4,22,8569,76,88,1,2,6,9,14.mid,experiment,1
5,24,8843,72,94,1,2,6,9,14.mid,experiment,1
6,27,9158,67,66,1,2,6,9,14.mid,experiment,1
7,29,9438,67,50,1,2,6,9,14.mid,experiment,1
8,31,9701,67,63,1,2,6,9,14.mid,experiment,1
9,33,9985,79,91,1,2,6,9,14.mid,experiment,1
10,34,10255,78,99,1,2,6,9,14.mid,experiment,1
11,36,10518,79,91,1,2,6,9,14.mid,experiment,1
12,38,10776,76,95,1,2,6,9,14.mid,experiment,1
13,40,11029,72,95,1,2,6,9,14.mid,experiment,1
14,42,11295,76,97,1,2,6,9,14.mid,experiment,1
15,44,11574,79,94,1,2,6,9,14.mid,experiment,1
16,46,11832,84,95,1,2,6,9,14.mid,experiment,1
17,48,12105,83,96,1,2,6,9,14.mid,experiment,1
18,51,12650,81,56,1,2,6,9,14.mid,experiment,1
19,53,12921,81,61,1,2,6,9,14.mid,experiment,1
20,53,,81,,1,2,6,9,14.mid,experiment,1
21,55,13171,83,88,1,2,6,9,14.mid,experiment,1
22,56,13436,81,98,1,2,6,9,14.mid,experiment,1
23,58,13690,84,94,1,2,6,9,14.mid,experiment,1
24,60,13941,81,94,1,2,6,9,14.mid,experiment,1
25,62,14207,78,90,1,2,6,9,14.mid,experiment,1
26,65,14485,79,64,1,2,6,9,14.mid,experiment,1
27,67,14753,79,84,1,2,6,9,14.mid,experiment,1
28,69,15326,79,87,1,2,6,9,14.mid,experiment,1
29,71,16474,77,56,1,2,6,9,14.mid,experiment,1
30,71,,77,,1,2,6,9,14.mid,experiment,1
31,73,16994,76,47,1,2,6,9,14.mid,experiment,1
32,75,17260,76,53,1,2,6,9,14.mid,experiment,1
33,77,17544,74,53,1,2,6,9,14.mid,experiment,1
34,79,18624,79,55,1,2,6,9,14.mid,experiment,1
35,81,19190,77,51,1,2,6,9,14.mid,experiment,1
36,83,19744,76,61,1,2,6,9,14.mid,experiment,1
37,85,20014,76,47,1,2,6,9,14.mid,experiment,1
38,87,20507,76,68,1,2,6,9,14.mid,experiment,1
39,87,,76,,1,2,6,9,14.mid,experiment,1
40,89,20785,81,88,1,2,6,9,14.mid,experiment,1
41,90,21060,77,78,1,2,6,9,14.mid,experiment,1
42,92,21313,76,91,1,2,6,9,14.mid,experiment,1
43,94,21564,74,91,1,2,6,9,14.mid,experiment,1
44,96,21821,76,97,1,2,6,9,14.mid,experiment,1
45,98,22087,79,88,1,2,6,9,14.mid,experiment,1
46,100,22344,74,94,1,2,6,9,14.mid,experiment,1
47,102,22618,71,79,1,2,6,9,14.mid,experiment,1
48,105,22866,72,56,1,2,6,9,14.mid,experiment,1
49,107,23129,72,57,1,2,6,9,14.mid,experiment,1
50,109,23383,74,56,1,2,6,9,14.mid,experiment,1
51,111,23637,74,59,1,2,6,9,14.mid,experiment,1
52,113,23958,76,54,1,2,6,9,14.mid,experiment,1
53,115,25036,65,60,1,2,6,9,14.mid,experiment,1
54,117,25317,65,53,1,2,6,9,14.mid,experiment,1
55,119,25599,64,45,1,2,6,9,14.mid,experiment,1
56,121,25861,64,57,1,2,6,9,14.mid,experiment,1
57,123,26179,62,55,1,2,6,9,14.mid,experiment,1
58,125,27310,67,63,1,2,6,9,14.mid,experiment,1
59,127,27592,67,62,1,2,6,9,14.mid,experiment,1
60,129,27887,71,49,1,2,6,9,14.mid,experiment,1
61,131,28131,71,60,1,2,6,9,14.mid,experiment,1
62,133,28396,72,58,1,2,6,9,14.mid,experiment,1
63,135,28657,72,61,1,2,6,9,14.mid,experiment,1
64,137,28916,73,60,1,2,6,9,14.mid,experiment,1
65,139,29172,73,67,1,2,6,9,14.mid,experiment,1
66,141,29459,74,98,1,2,6,9,14.mid,experiment,1
67,143,30020,77,97,1,2,6,9,14.mid,experiment,1
68,145,30583,76,93,1,2,6,9,14.mid,experiment,1
69,147,31128,74,104,1,2,6,9,14.mid,experiment,1
70,149,31679,72,103,1,2,6,9,14.mid,experiment,1
71,151,32245,84,103,1,2,6,9,14.mid,experiment,1
72,153,32829,84,96,1,2,6,9,14.mid,experiment,1
1,17,7751,79,85,1,2,6,13,13.mid,experiment,1
2,18,8017,78,97,1,2,6,13,13.mid,experiment,1
3,20,8287,79,95,1,2,6,13,13.mid,experiment,1
4,22,8533,76,88,1,2,6,13,13.mid,experiment,1
5,24,8802,72,91,1,2,6,13,13.mid,experiment,1
6,27,9125,67,55,1,2,6,13,13.mid,experiment,1
7,29,9397,67,50,1,2,6,13,13.mid,experiment,1
8,31,9651,67,67,1,2,6,13,13.mid,experiment,1
9,33,9933,79,91,1,2,6,13,13.mid,experiment,1
10,34,10195,78,101,1,2,6,13,13.mid,experiment,1
11,36,10465,79,95,1,2,6,13,13.mid,experiment,1
12,38,10722,76,91,1,2,6,13,13.mid,experiment,1
13,40,10969,72,84,1,2,6,13,13.mid,experiment,1
14,42,11240,76,95,1,2,6,13,13.mid,experiment,1
15,44,11521,79,95,1,2,6,13,13.mid,experiment,1
16,46,11767,84,95,1,2,6,13,13.mid,experiment,1
17,48,12029,83,95,1,2,6,13,13.mid,experiment,1
18,51,12336,81,67,1,2,6,13,13.mid,experiment,1
19,53,12595,81,56,1,2,6,13,13.mid,experiment,1
20,55,12857,81,62,1,2,6,13,13.mid,experiment,1
21,57,13100,83,95,1,2,6,13,13.mid,experiment,1
22,58,13376,81,97,1,2,6,13,13.mid,experiment,1
23,60,13645,84,97,1,2,6,13,13.mid,experiment,1
24,62,13901,81,96,1,2,6,13,13.mid,experiment,1
25,64,14159,78,91,1,2,6,13,13.mid,experiment,1
26,67,14433,79,85,1,2,6,13,13.mid,experiment,1
27,69,14711,79,91,1,2,6,13,13.mid,experiment,1
28,71,15259,79,82,1,2,6,13,13.mid,experiment,1
29,73,16369,77,59,1,2,6,13,13.mid,experiment,1
30,75,16653,77,51,1,2,6,13,13.mid,experiment,1
31,77,16915,76,48,1,2,6,13,13.mid,experiment,1
32,79,17175,76,52,1,2,6,13,13.mid,experiment,1
33,81,17465,74,60,1,2,6,13,13.mid,experiment,1
34,83,18605,79,63,1,2,6,13,13.mid,experiment,1
35,85,19197,77,54,1,2,6,13,13.mid,experiment,1
36,87,20030,76,59,1,2,6,13,13.mid,experiment,1
37,89,20300,76,59,1,2,6,13,13.mid,experiment,1
38,91,20541,76,76,1,2,6,13,13.mid,experiment,1
39,91,,76,,1,2,6,13,13.mid,experiment,1
40,93,20793,81,90,1,2,6,13,13.mid,experiment,1
41,94,21063,77,94,1,2,6,13,13.mid,experiment,1
42,96,21313,76,93,1,2,6,13,13.mid,experiment,1
43,98,21565,74,95,1,2,6,13,13.mid,experiment,1
44,100,21824,76,94,1,2,6,13,13.mid,experiment,1
45,102,22087,79,93,1,2,6,13,13.mid,experiment,1
46,104,22352,74,99,1,2,6,13,13.mid,experiment,1
47,106,22657,71,83,1,2,6,13,13.mid,experiment,1
48,109,22912,72,65,1,2,6,13,13.mid,experiment,1
49,111,23179,72,61,1,2,6,13,13.mid,experiment,1
50,113,23437,74,56,1,2,6,13,13.mid,experiment,1
51,115,23686,74,62,1,2,6,13,13.mid,experiment,1
52,117,24005,76,58,1,2,6,13,13.mid,experiment,1
53,119,25111,65,60,1,2,6,13,13.mid,experiment,1
54,121,25402,65,41,1,2,6,13,13.mid,experiment,1
55,123,25680,64,38,1,2,6,13,13.mid,experiment,1
56,125,25938,64,52,1,2,6,13,13.mid,experiment,1
57,127,26243,62,55,1,2,6,13,13.mid,experiment,1
58,129,27402,67,64,1,2,6,13,13.mid,experiment,1
59,131,27696,67,52,1,2,6,13,13.mid,experiment,1
60,133,27967,71,61,1,2,6,13,13.mid,experiment,1
61,135,28242,71,54,1,2,6,13,13.mid,experiment,1
62,137,28488,72,66,1,2,6,13,13.mid,experiment,1
63,139,28756,72,60,1,2,6,13,13.mid,experiment,1
64,141,29032,73,51,1,2,6,13,13.mid,experiment,1
65,143,29291,73,67,1,2,6,13,13.mid,experiment,1
66,145,29577,74,99,1,2,6,13,13.mid,experiment,1
67,147,30137,77,98,1,2,6,13,13.mid,experiment,1
68,149,30684,76,97,1,2,6,13,13.mid,experiment,1
69,151,31250,74,89,1,2,6,13,13.mid,experiment,1
70,153,31813,72,97,1,2,6,13,13.mid,experiment,1
71,155,32402,84,99,1,2,6,13,13.mid,experiment,1
72,157,32992,84,91,1,2,6,13,13.mid,experiment,1
1,17,7745,79,85,1,2,6,16,4.mid,experiment,1
2,18,8031,78,93,1,2,6,16,4.mid,experiment,1
3,20,8287,79,90,1,2,6,16,4.mid,experiment,1
4,22,8545,76,87,1,2,6,16,4.mid,experiment,1
5,24,8821,72,95,1,2,6,16,4.mid,experiment,1
6,27,9124,67,63,1,2,6,16,4.mid,experiment,1
7,29,9403,67,43,1,2,6,16,4.mid,experiment,1
8,31,9665,67,59,1,2,6,16,4.mid,experiment,1
9,33,9936,79,87,1,2,6,16,4.mid,experiment,1
10,34,10203,78,98,1,2,6,16,4.mid,experiment,1
11,36,10448,79,89,1,2,6,16,4.mid,experiment,1
12,38,10707,76,91,1,2,6,16,4.mid,experiment,1
13,40,10971,72,98,1,2,6,16,4.mid,experiment,1
14,42,11237,76,94,1,2,6,16,4.mid,experiment,1
15,44,11511,79,91,1,2,6,16,4.mid,experiment,1
16,46,11768,84,91,1,2,6,16,4.mid,experiment,1
17,48,12029,83,95,1,2,6,16,4.mid,experiment,1
18,51,12331,81,58,1,2,6,16,4.mid,experiment,1
19,53,12591,81,57,1,2,6,16,4.mid,experiment,1
20,55,12852,81,65,1,2,6,16,4.mid,experiment,1
21,57,13107,83,90,1,2,6,16,4.mid,experiment,1
22,58,13385,81,94,1,2,6,16,4.mid,experiment,1
23,60,13638,84,97,1,2,6,16,4.mid,experiment,1
24,62,13893,81,96,1,2,6,16,4.mid,experiment,1
25,64,14154,78,95,1,2,6,16,4.mid,experiment,1
26,67,14434,79,94,1,2,6,16,4.mid,experiment,1
27,69,14723,79,86,1,2,6,16,4.mid,experiment,1
28,71,15292,79,89,1,2,6,16,4.mid,experiment,1
29,73,16431,77,56,1,2,6,16,4.mid,experiment,1
30,75,16728,77,41,1,2,6,16,4.mid,experiment,1
31,77,16994,76,41,1,2,6,16,4.mid,experiment,1
32,79,17268,76,43,1,2,6,16,4.mid,experiment,1
33,81,17568,74,47,1,2,6,16,4.mid,experiment,1
34,83,18686,79,44,1,2,6,16,4.mid,experiment,1
35,85,19285,77,38,1,2,6,16,4.mid,experiment,1
36,87,19832,76,58,1,2,6,16,4.mid,experiment,1
37,89,20094,76,52,1,2,6,16,4.mid,experiment,1
38,91,20343,76,63,1,2,6,16,4.mid,experiment,1
39,93,20595,76,72,1,2,6,16,4.mid,experiment,1
40,95,20864,81,93,1,2,6,16,4.mid,experiment,1
41,96,21112,77,91,1,2,6,16,4.mid,experiment,1
42,98,21393,76,91,1,2,6,16,4.mid,experiment,1
43,100,21653,74,89,1,2,6,16,4.mid,experiment,1
44,102,21921,76,97,1,2,6,16,4.mid,experiment,1
45,104,22178,79,93,1,2,6,16,4.mid,experiment,1
46,106,22432,74,99,1,2,6,16,4.mid,experiment,1
47,108,22730,71,91,1,2,6,16,4.mid,experiment,1
48,111,22992,72,58,1,2,6,16,4.mid,experiment,1
49,113,23248,72,55,1,2,6,16,4.mid,experiment,1
50,115,23504,74,55,1,2,6,16,4.mid,experiment,1
51,117,23756,74,54,1,2,6,16,4.mid,experiment,1
52,119,24064,76,46,1,2,6,16,4.mid,experiment,1
53,121,25143,65,57,1,2,6,16,4.mid,experiment,1
54,121,,65,,1,2,6,16,4.mid,experiment,1
55,123,25673,64,56,1,2,6,16,4.mid,experiment,1
56,125,25943,64,52,1,2,6,16,4.mid,experiment,1
57,127,26271,62,49,1,2,6,16,4.mid,experiment,1
58,129,27346,67,56,1,2,6,16,4.mid,experiment,1
59,131,27619,67,56,1,2,6,16,4.mid,experiment,1
60,133,27887,71,57,1,2,6,16,4.mid,experiment,1
61,135,28139,71,58,1,2,6,16,4.mid,experiment,1
62,137,28395,72,65,1,2,6,16,4.mid,experiment,1
63,139,28641,72,63,1,2,6,16,4.mid,experiment,1
64,141,28904,73,53,1,2,6,16,4.mid,experiment,1
65,143,29153,73,70,1,2,6,16,4.mid,experiment,1
66,145,29432,74,101,1,2,6,16,4.mid,experiment,1
67,147,29987,77,93,1,2,6,16,4.mid,experiment,1
68,149,30526,76,100,1,2,6,16,4.mid,experiment,1
69,151,31079,74,98,1,2,6,16,4.mid,experiment,1
70,153,31628,72,98,1,2,6,16,4.mid,experiment,1
71,155,32164,84,99,1,2,6,16,4.mid,experiment,1
72,157,32710,84,91,1,2,6,16,4.mid,experiment,1
1,17,7937,79,57,1,2,7,1,16.mid,experiment,1
2,18,8238,78,82,1,2,7,1,16.mid,experiment,1
3,20,8556,79,81,1,2,7,1,16.mid,experiment,1
4,22,8872,76,68,1,2,7,1,16.mid,experiment,1
5,24,9195,72,63,1,2,7,1,16.mid,experiment,1
6,27,9529,67,55,1,2,7,1,16.mid,experiment,1
7,29,9833,67,66,1,2,7,1,16.mid,experiment,1
8,31,10144,67,63,1,2,7,1,16.mid,experiment,1
9,33,10488,79,58,1,2,7,1,16.mid,experiment,1
10,34,10782,78,75,1,2,7,1,16.mid,experiment,1
11,36,11102,79,82,1,2,7,1,16.mid,experiment,1
12,38,11398,76,76,1,2,7,1,16.mid,experiment,1
13,41,11724,72,74,1,2,7,1,16.mid,experiment,1
14,42,12038,76,78,1,2,7,1,16.mid,experiment,1
15,44,12356,79,87,1,2,7,1,16.mid,experiment,1
16,46,12672,84,88,1,2,7,1,16.mid,experiment,1
17,48,13023,83,78,1,2,7,1,16.mid,experiment,1
18,51,13643,81,57,1,2,7,1,16.mid,experiment,1
19,51,,81,,1,2,7,1,16.mid,experiment,1
20,51,,81,,1,2,7,1,16.mid,experiment,1
21,53,14258,83,70,1,2,7,1,16.mid,experiment,1
22,54,14557,81,81,1,2,7,1,16.mid,experiment,1
23,56,14857,84,78,1,2,7,1,16.mid,experiment,1
24,58,15150,81,75,1,2,7,1,16.mid,experiment,1
25,61,15453,78,79,1,2,7,1,16.mid,experiment,1
26,63,15768,79,76,1,2,7,1,16.mid,experiment,1
27,65,16103,79,70,1,2,7,1,16.mid,experiment,1
28,67,16727,79,72,1,2,7,1,16.mid,experiment,1
29,69,17995,77,55,1,2,7,1,16.mid,experiment,1
30,71,18288,77,63,1,2,7,1,16.mid,experiment,1
31,73,18589,76,60,1,2,7,1,16.mid,experiment,1
32,75,18887,76,65,1,2,7,1,16.mid,experiment,1
33,77,19229,74,55,1,2,7,1,16.mid,experiment,1
34,79,20500,79,59,1,2,7,1,16.mid,experiment,1
35,81,21102,77,60,1,2,7,1,16.mid,experiment,1
36,83,21716,76,59,1,2,7,1,16.mid,experiment,1
37,85,22011,76,59,1,2,7,1,16.mid,experiment,1
38,87,22317,76,63,1,2,7,1,16.mid,experiment,1
39,89,22632,76,62,1,2,7,1,16.mid,experiment,1
40,91,23007,81,68,1,2,7,1,16.mid,experiment,1
41,92,23332,77,78,1,2,7,1,16.mid,experiment,1
42,94,23623,76,76,1,2,7,1,16.mid,experiment,1
43,96,23914,74,78,1,2,7,1,16.mid,experiment,1
44,98,24217,76,75,1,2,7,1,16.mid,experiment,1
45,100,24507,79,79,1,2,7,1,16.mid,experiment,1
46,102,24817,74,72,1,2,7,1,16.mid,experiment,1
47,105,25120,71,63,1,2,7,1,16.mid,experiment,1
48,107,25428,72,62,1,2,7,1,16.mid,experiment,1
49,109,25725,72,57,1,2,7,1,16.mid,experiment,1
50,111,26022,74,68,1,2,7,1,16.mid,experiment,1
51,113,26333,74,51,1,2,7,1,16.mid,experiment,1
52,115,26671,76,44,1,2,7,1,16.mid,experiment,1
53,117,27911,65,70,1,2,7,1,16.mid,experiment,1
54,119,28211,65,66,1,2,7,1,16.mid,experiment,1
55,121,28518,64,54,1,2,7,1,16.mid,experiment,1
56,123,28830,64,62,1,2,7,1,16.mid,experiment,1
57,125,29182,62,57,1,2,7,1,16.mid,experiment,1
58,127,30334,67,53,1,2,7,1,16.mid,experiment,1
59,129,30639,67,65,1,2,7,1,16.mid,experiment,1
60,131,31229,71,60,1,2,7,1,16.mid,experiment,1
61,131,,71,,1,2,7,1,16.mid,experiment,1
62,133,31512,72,70,1,2,7,1,16.mid,experiment,1
63,135,31795,72,79,1,2,7,1,16.mid,experiment,1
64,137,32092,73,82,1,2,7,1,16.mid,experiment,1
65,139,32388,73,86,1,2,7,1,16.mid,experiment,1
66,141,32729,74,88,1,2,7,1,16.mid,experiment,1
67,142,33310,77,82,1,2,7,1,16.mid,experiment,1
68,145,33910,76,76,1,2,7,1,16.mid,experiment,1
69,147,34503,74,72,1,2,7,1,16.mid,experiment,1
70,149,35124,72,72,1,2,7,1,16.mid,experiment,1
71,151,35752,84,78,1,2,7,1,16.mid,experiment,1
72,153,36432,84,75,1,2,7,1,16.mid,experiment,1
1,17,7948,79,57,1,2,7,3,7.mid,experiment,1
2,18,8241,78,78,1,2,7,3,7.mid,experiment,1
3,20,8546,79,78,1,2,7,3,7.mid,experiment,1
4,22,8844,76,73,1,2,7,3,7.mid,experiment,1
5,24,9147,72,65,1,2,7,3,7.mid,experiment,1
6,27,9442,67,70,1,2,7,3,7.mid,experiment,1
7,29,9737,67,63,1,2,7,3,7.mid,experiment,1
8,31,10037,67,74,1,2,7,3,7.mid,experiment,1
9,33,10364,79,78,1,2,7,3,7.mid,experiment,1
10,34,10679,78,81,1,2,7,3,7.mid,experiment,1
11,36,10974,79,82,1,2,7,3,7.mid,experiment,1
12,38,11259,76,66,1,2,7,3,7.mid,experiment,1
13,41,11563,72,61,1,2,7,3,7.mid,experiment,1
14,42,11849,76,66,1,2,7,3,7.mid,experiment,1
15,44,12153,79,79,1,2,7,3,7.mid,experiment,1
16,46,12453,84,83,1,2,7,3,7.mid,experiment,1
17,48,12779,83,72,1,2,7,3,7.mid,experiment,1
18,51,13093,81,63,1,2,7,3,7.mid,experiment,1
19,53,13387,81,61,1,2,7,3,7.mid,experiment,1
20,55,13679,81,64,1,2,7,3,7.mid,experiment,1
21,57,13997,83,71,1,2,7,3,7.mid,experiment,1
22,58,14281,81,77,1,2,7,3,7.mid,experiment,1
23,60,14577,84,75,1,2,7,3,7.mid,experiment,1
24,63,14877,81,73,1,2,7,3,7.mid,experiment,1
25,64,15163,78,72,1,2,7,3,7.mid,experiment,1
26,67,15439,79,64,1,2,7,3,7.mid,experiment,1
27,69,15758,79,67,1,2,7,3,7.mid,experiment,1
28,71,16369,79,55,1,2,7,3,7.mid,experiment,1
29,73,17576,77,62,1,2,7,3,7.mid,experiment,1
30,75,17878,77,64,1,2,7,3,7.mid,experiment,1
31,77,18165,76,61,1,2,7,3,7.mid,experiment,1
32,79,18462,76,66,1,2,7,3,7.mid,experiment,1
33,81,18778,74,59,1,2,7,3,7.mid,experiment,1
34,83,19982,79,63,1,2,7,3,7.mid,experiment,1
35,85,20604,77,58,1,2,7,3,7.mid,experiment,1
36,87,21246,76,51,1,2,7,3,7.mid,experiment,1
37,89,21535,76,52,1,2,7,3,7.mid,experiment,1
38,91,21833,76,66,1,2,7,3,7.mid,experiment,1
39,93,22128,76,58,1,2,7,3,7.mid,experiment,1
40,95,22477,81,61,1,2,7,3,7.mid,experiment,1
41,96,22773,77,71,1,2,7,3,7.mid,experiment,1
42,98,23060,76,74,1,2,7,3,7.mid,experiment,1
43,100,23340,74,68,1,2,7,3,7.mid,experiment,1
44,102,23647,76,67,1,2,7,3,7.mid,experiment,1
45,104,23929,79,70,1,2,7,3,7.mid,experiment,1
46,106,24239,74,63,1,2,7,3,7.mid,experiment,1
47,109,24549,71,56,1,2,7,3,7.mid,experiment,1
48,111,24865,72,61,1,2,7,3,7.mid,experiment,1
49,113,25146,72,58,1,2,7,3,7.mid,experiment,1
50,115,25440,74,68,1,2,7,3,7.mid,experiment,1
51,117,25735,74,62,1,2,7,3,7.mid,experiment,1
52,119,26071,76,46,1,2,7,3,7.mid,experiment,1
53,121,27273,65,66,1,2,7,3,7.mid,experiment,1
54,123,27573,65,67,1,2,7,3,7.mid,experiment,1
55,125,27886,64,51,1,2,7,3,7.mid,experiment,1
56,127,28197,64,60,1,2,7,3,7.mid,experiment,1
57,129,28551,62,54,1,2,7,3,7.mid,experiment,1
58,131,29734,67,48,1,2,7,3,7.mid,experiment,1
59,133,30019,67,61,1,2,7,3,7.mid,experiment,1
60,133,,71,,1,2,7,3,7.mid,experiment,1
61,133,,71,,1,2,7,3,7.mid,experiment,1
62,135,30893,72,59,1,2,7,3,7.mid,experiment,1
63,137,31161,72,67,1,2,7,3,7.mid,experiment,1
64,139,31451,73,69,1,2,7,3,7.mid,experiment,1
65,141,31749,73,70,1,2,7,3,7.mid,experiment,1
66,143,32078,74,69,1,2,7,3,7.mid,experiment,1
67,144,32659,77,79,1,2,7,3,7.mid,experiment,1
68,147,33245,76,73,1,2,7,3,7.mid,experiment,1
69,149,33824,74,67,1,2,7,3,7.mid,experiment,1
70,151,34425,72,66,1,2,7,3,7.mid,experiment,1
71,153,35058,84,70,1,2,7,3,7.mid,experiment,1
72,155,35718,84,67,1,2,7,3,7.mid,experiment,1
1,17,7894,79,75,1,2,7,8,4.mid,experiment,1
2,18,8184,78,86,1,2,7,8,4.mid,experiment,1
3,20,8458,79,85,1,2,7,8,4.mid,experiment,1
4,22,8724,76,80,1,2,7,8,4.mid,experiment,1
5,24,9018,72,79,1,2,7,8,4.mid,experiment,1
6,27,9306,67,65,1,2,7,8,4.mid,experiment,1
7,29,9603,67,58,1,2,7,8,4.mid,experiment,1
8,31,9878,67,58,1,2,7,8,4.mid,experiment,1
9,33,10168,79,75,1,2,7,8,4.mid,experiment,1
10,34,10430,78,82,1,2,7,8,4.mid,experiment,1
11,36,10716,79,81,1,2,7,8,4.mid,experiment,1
12,38,10984,76,76,1,2,7,8,4.mid,experiment,1
13,41,11261,72,78,1,2,7,8,4.mid,experiment,1
14,42,11522,76,79,1,2,7,8,4.mid,experiment,1
15,44,11796,79,84,1,2,7,8,4.mid,experiment,1
16,46,12064,84,84,1,2,7,8,4.mid,experiment,1
17,48,12358,83,81,1,2,7,8,4.mid,experiment,1
18,51,12637,81,62,1,2,7,8,4.mid,experiment,1
19,53,12920,81,63,1,2,7,8,4.mid,experiment,1
20,55,13190,81,60,1,2,7,8,4.mid,experiment,1
21,57,13460,83,74,1,2,7,8,4.mid,experiment,1
22,58,13723,81,81,1,2,7,8,4.mid,experiment,1
23,60,14024,84,86,1,2,7,8,4.mid,experiment,1
24,63,14296,81,87,1,2,7,8,4.mid,experiment,1
25,64,14572,78,79,1,2,7,8,4.mid,experiment,1
26,67,14872,79,63,1,2,7,8,4.mid,experiment,1
27,69,15180,79,68,1,2,7,8,4.mid,experiment,1
28,71,15754,79,68,1,2,7,8,4.mid,experiment,1
29,73,16978,77,54,1,2,7,8,4.mid,experiment,1
30,75,17251,77,58,1,2,7,8,4.mid,experiment,1
31,77,17536,76,54,1,2,7,8,4.mid,experiment,1
32,79,17818,76,49,1,2,7,8,4.mid,experiment,1
33,81,18106,74,55,1,2,7,8,4.mid,experiment,1
34,83,19284,79,62,1,2,7,8,4.mid,experiment,1
35,85,19868,77,57,1,2,7,8,4.mid,experiment,1
36,87,20450,76,56,1,2,7,8,4.mid,experiment,1
37,89,20722,76,58,1,2,7,8,4.mid,experiment,1
38,91,21006,76,55,1,2,7,8,4.mid,experiment,1
39,93,21278,76,53,1,2,7,8,4.mid,experiment,1
40,95,21596,81,79,1,2,7,8,4.mid,experiment,1
41,96,21898,77,83,1,2,7,8,4.mid,experiment,1
42,98,22158,76,76,1,2,7,8,4.mid,experiment,1
43,100,22433,74,76,1,2,7,8,4.mid,experiment,1
44,102,22714,76,78,1,2,7,8,4.mid,experiment,1
45,104,22990,79,78,1,2,7,8,4.mid,experiment,1
46,106,23272,74,76,1,2,7,8,4.mid,experiment,1
47,109,23552,71,67,1,2,7,8,4.mid,experiment,1
48,111,23906,72,44,1,2,7,8,4.mid,experiment,1
49,113,24166,72,61,1,2,7,8,4.mid,experiment,1
50,115,24454,74,63,1,2,7,8,4.mid,experiment,1
51,117,24728,74,54,1,2,7,8,4.mid,experiment,1
52,119,25052,76,43,1,2,7,8,4.mid,experiment,1
53,121,26206,65,62,1,2,7,8,4.mid,experiment,1
54,123,26482,65,63,1,2,7,8,4.mid,experiment,1
55,125,27023,64,60,1,2,7,8,4.mid,experiment,1
56,125,,64,,1,2,7,8,4.mid,experiment,1
57,127,27336,62,61,1,2,7,8,4.mid,experiment,1
58,129,28484,67,50,1,2,7,8,4.mid,experiment,1
59,131,28760,67,62,1,2,7,8,4.mid,experiment,1
60,133,29066,71,35,1,2,7,8,4.mid,experiment,1
61,135,29320,71,55,1,2,7,8,4.mid,experiment,1
62,137,29600,72,62,1,2,7,8,4.mid,experiment,1
63,139,29872,72,71,1,2,7,8,4.mid,experiment,1
64,141,30148,73,72,1,2,7,8,4.mid,experiment,1
65,143,30422,73,70,1,2,7,8,4.mid,experiment,1
66,145,30747,74,76,1,2,7,8,4.mid,experiment,1
67,146,31340,77,81,1,2,7,8,4.mid,experiment,1
68,148,31900,76,78,1,2,7,8,4.mid,experiment,1
69,150,32485,74,72,1,2,7,8,4.mid,experiment,1
70,153,33081,72,84,1,2,7,8,4.mid,experiment,1
71,155,33710,84,90,1,2,7,8,4.mid,experiment,1
72,157,34382,84,76,1,2,7,8,4.mid,experiment,1
1,17,7846,79,73,1,2,7,9,5.mid,experiment,1
2,18,8132,78,83,1,2,7,9,5.mid,experiment,1
3,20,8430,79,81,1,2,7,9,5.mid,experiment,1
4,22,8710,76,68,1,2,7,9,5.mid,experiment,1
5,24,9014,72,68,1,2,7,9,5.mid,experiment,1
6,27,9306,67,57,1,2,7,9,5.mid,experiment,1
7,29,9577,67,71,1,2,7,9,5.mid,experiment,1
8,31,9853,67,65,1,2,7,9,5.mid,experiment,1
9,33,10162,79,71,1,2,7,9,5.mid,experiment,1
10,34,10447,78,77,1,2,7,9,5.mid,experiment,1
11,36,10736,79,74,1,2,7,9,5.mid,experiment,1
12,38,11006,76,66,1,2,7,9,5.mid,experiment,1
13,41,11302,72,66,1,2,7,9,5.mid,experiment,1
14,42,11565,76,70,1,2,7,9,5.mid,experiment,1
15,44,11860,79,77,1,2,7,9,5.mid,experiment,1
16,46,12135,84,80,1,2,7,9,5.mid,experiment,1
17,48,12430,83,81,1,2,7,9,5.mid,experiment,1
18,51,12716,81,60,1,2,7,9,5.mid,experiment,1
19,53,12986,81,63,1,2,7,9,5.mid,experiment,1
20,55,13282,81,60,1,2,7,9,5.mid,experiment,1
21,57,13580,83,70,1,2,7,9,5.mid,experiment,1
22,58,13851,81,73,1,2,7,9,5.mid,experiment,1
23,60,14133,84,80,1,2,7,9,5.mid,experiment,1
24,62,14398,81,76,1,2,7,9,5.mid,experiment,1
25,64,14690,78,78,1,2,7,9,5.mid,experiment,1
26,67,14960,79,67,1,2,7,9,5.mid,experiment,1
27,69,15261,79,67,1,2,7,9,5.mid,experiment,1
28,71,15840,79,63,1,2,7,9,5.mid,experiment,1
29,73,16995,77,55,1,2,7,9,5.mid,experiment,1
30,75,17266,77,66,1,2,7,9,5.mid,experiment,1
31,77,17551,76,60,1,2,7,9,5.mid,experiment,1
32,79,17831,76,58,1,2,7,9,5.mid,experiment,1
33,81,18134,74,55,1,2,7,9,5.mid,experiment,1
34,83,19337,79,60,1,2,7,9,5.mid,experiment,1
35,85,19921,77,63,1,2,7,9,5.mid,experiment,1
36,87,20484,76,58,1,2,7,9,5.mid,experiment,1
37,89,20755,76,59,1,2,7,9,5.mid,experiment,1
38,91,21033,76,57,1,2,7,9,5.mid,experiment,1
39,93,21311,76,58,1,2,7,9,5.mid,experiment,1
40,95,21624,81,68,1,2,7,9,5.mid,experiment,1
41,96,21910,77,70,1,2,7,9,5.mid,experiment,1
42,98,22176,76,65,1,2,7,9,5.mid,experiment,1
43,100,22458,74,67,1,2,7,9,5.mid,experiment,1
44,102,22740,76,72,1,2,7,9,5.mid,experiment,1
45,104,23010,79,75,1,2,7,9,5.mid,experiment,1
46,106,23289,74,72,1,2,7,9,5.mid,experiment,1
47,109,23580,71,62,1,2,7,9,5.mid,experiment,1
48,111,23885,72,63,1,2,7,9,5.mid,experiment,1
49,113,24155,72,57,1,2,7,9,5.mid,experiment,1
50,115,24428,74,63,1,2,7,9,5.mid,experiment,1
51,117,24710,74,58,1,2,7,9,5.mid,experiment,1
52,119,25034,76,45,1,2,7,9,5.mid,experiment,1
53,121,26245,65,45,1,2,7,9,5.mid,experiment,1
54,123,26519,65,66,1,2,7,9,5.mid,experiment,1
55,125,27044,64,67,1,2,7,9,5.mid,experiment,1
56,125,,64,,1,2,7,9,5.mid,experiment,1
57,127,27365,62,61,1,2,7,9,5.mid,experiment,1
58,129,28464,67,51,1,2,7,9,5.mid,experiment,1
59,131,28728,67,67,1,2,7,9,5.mid,experiment,1
60,133,29014,71,56,1,2,7,9,5.mid,experiment,1
61,135,29285,71,59,1,2,7,9,5.mid,experiment,1
62,137,29563,72,65,1,2,7,9,5.mid,experiment,1
63,139,29830,72,71,1,2,7,9,5.mid,experiment,1
64,141,30102,73,70,1,2,7,9,5.mid,experiment,1
65,143,30362,73,68,1,2,7,9,5.mid,experiment,1
66,145,30677,74,72,1,2,7,9,5.mid,experiment,1
67,146,31240,77,81,1,2,7,9,5.mid,experiment,1
68,149,31796,76,73,1,2,7,9,5.mid,experiment,1
69,150,32388,74,67,1,2,7,9,5.mid,experiment,1
70,153,32974,72,67,1,2,7,9,5.mid,experiment,1
71,155,33588,84,68,1,2,7,9,5.mid,experiment,1
72,157,34251,84,67,1,2,7,9,5.mid,experiment,1
1,17,7928,79,67,1,2,7,11,15.mid,experiment,1
2,18,8218,78,76,1,2,7,11,15.mid,experiment,1
3,20,8513,79,81,1,2,7,11,15.mid,experiment,1
4,21,8807,76,71,1,2,7,11,15.mid,experiment,1
5,24,9103,72,66,1,2,7,11,15.mid,experiment,1
6,27,9680,67,62,1,2,7,11,15.mid,experiment,1
7,29,9954,67,67,1,2,7,11,15.mid,experiment,1
8,29,,67,,1,2,7,11,15.mid,experiment,1
9,31,10238,79,79,1,2,7,11,15.mid,experiment,1
10,32,10502,78,81,1,2,7,11,15.mid,experiment,1
11,34,10786,79,78,1,2,7,11,15.mid,experiment,1
12,36,11050,76,75,1,2,7,11,15.mid,experiment,1
13,39,11351,72,71,1,2,7,11,15.mid,experiment,1
14,40,11628,76,70,1,2,7,11,15.mid,experiment,1
15,42,11900,79,76,1,2,7,11,15.mid,experiment,1
16,44,12178,84,79,1,2,7,11,15.mid,experiment,1
17,46,12472,83,79,1,2,7,11,15.mid,experiment,1
18,49,12766,81,60,1,2,7,11,15.mid,experiment,1
19,51,13036,81,65,1,2,7,11,15.mid,experiment,1
20,53,13312,81,65,1,2,7,11,15.mid,experiment,1
21,55,13597,83,64,1,2,7,11,15.mid,experiment,1
22,56,13847,81,76,1,2,7,11,15.mid,experiment,1
23,58,14139,84,83,1,2,7,11,15.mid,experiment,1
24,61,14399,81,82,1,2,7,11,15.mid,experiment,1
25,63,14696,78,76,1,2,7,11,15.mid,experiment,1
26,65,14977,79,63,1,2,7,11,15.mid,experiment,1
27,67,15276,79,62,1,2,7,11,15.mid,experiment,1
28,69,15859,79,65,1,2,7,11,15.mid,experiment,1
29,71,17056,77,57,1,2,7,11,15.mid,experiment,1
30,73,17333,77,59,1,2,7,11,15.mid,experiment,1
31,75,17607,76,62,1,2,7,11,15.mid,experiment,1
32,77,17905,76,51,1,2,7,11,15.mid,experiment,1
33,79,18211,74,57,1,2,7,11,15.mid,experiment,1
34,81,19362,79,59,1,2,7,11,15.mid,experiment,1
35,83,19945,77,59,1,2,7,11,15.mid,experiment,1
36,85,20549,76,49,1,2,7,11,15.mid,experiment,1
37,87,20839,76,53,1,2,7,11,15.mid,experiment,1
38,89,21121,76,56,1,2,7,11,15.mid,experiment,1
39,91,21394,76,53,1,2,7,11,15.mid,experiment,1
40,93,21715,81,63,1,2,7,11,15.mid,experiment,1
41,94,21985,77,78,1,2,7,11,15.mid,experiment,1
42,96,22269,76,71,1,2,7,11,15.mid,experiment,1
43,98,22540,74,70,1,2,7,11,15.mid,experiment,1
44,100,22836,76,74,1,2,7,11,15.mid,experiment,1
45,102,23111,79,76,1,2,7,11,15.mid,experiment,1
46,104,23407,74,73,1,2,7,11,15.mid,experiment,1
47,107,23676,71,65,1,2,7,11,15.mid,experiment,1
48,109,23983,72,63,1,2,7,11,15.mid,experiment,1
49,111,24264,72,57,1,2,7,11,15.mid,experiment,1
50,113,24543,74,62,1,2,7,11,15.mid,experiment,1
51,115,24830,74,62,1,2,7,11,15.mid,experiment,1
52,117,25168,76,40,1,2,7,11,15.mid,experiment,1
53,119,26285,65,56,1,2,7,11,15.mid,experiment,1
54,121,26549,65,67,1,2,7,11,15.mid,experiment,1
55,123,26834,64,62,1,2,7,11,15.mid,experiment,1
56,125,27117,64,56,1,2,7,11,15.mid,experiment,1
57,127,27450,62,56,1,2,7,11,15.mid,experiment,1
58,129,28572,67,46,1,2,7,11,15.mid,experiment,1
59,131,28852,67,58,1,2,7,11,15.mid,experiment,1
60,133,29148,71,48,1,2,7,11,15.mid,experiment,1
61,135,29431,71,57,1,2,7,11,15.mid,experiment,1
62,137,29727,72,64,1,2,7,11,15.mid,experiment,1
63,139,30014,72,69,1,2,7,11,15.mid,experiment,1
64,141,30284,73,78,1,2,7,11,15.mid,experiment,1
65,143,30560,73,75,1,2,7,11,15.mid,experiment,1
66,145,30897,74,77,1,2,7,11,15.mid,experiment,1
67,146,31492,77,68,1,2,7,11,15.mid,experiment,1
68,148,32060,76,67,1,2,7,11,15.mid,experiment,1
69,151,32650,74,68,1,2,7,11,15.mid,experiment,1
70,153,33266,72,70,1,2,7,11,15.mid,experiment,1
71,155,33877,84,73,1,2,7,11,15.mid,experiment,1
72,157,34536,84,68,1,2,7,11,15.mid,experiment,1
1,17,7920,79,65,1,2,7,16,12.mid,experiment,1
2,18,8201,78,76,1,2,7,16,12.mid,experiment,1
3,20,8499,79,80,1,2,7,16,12.mid,experiment,1
4,22,8775,76,74,1,2,7,16,12.mid,experiment,1
5,24,9077,72,68,1,2,7,16,12.mid,experiment,1
6,27,9374,67,66,1,2,7,16,12.mid,experiment,1
7,29,9650,67,68,1,2,7,16,12.mid,experiment,1
8,31,9917,67,74,1,2,7,16,12.mid,experiment,1
9,33,10222,79,81,1,2,7,16,12.mid,experiment,1
10,34,10510,78,79,1,2,7,16,12.mid,experiment,1
11,36,10806,79,79,1,2,7,16,12.mid,experiment,1
12,38,11076,76,72,1,2,7,16,12.mid,experiment,1
13,41,11373,72,74,1,2,7,16,12.mid,experiment,1
14,42,11640,76,72,1,2,7,16,12.mid,experiment,1
15,44,11926,79,78,1,2,7,16,12.mid,experiment,1
16,46,12201,84,78,1,2,7,16,12.mid,experiment,1
17,48,12502,83,78,1,2,7,16,12.mid,experiment,1
18,51,13030,81,72,1,2,7,16,12.mid,experiment,1
19,53,13309,81,60,1,2,7,16,12.mid,experiment,1
20,53,,81,,1,2,7,16,12.mid,experiment,1
21,55,13596,83,71,1,2,7,16,12.mid,experiment,1
22,56,13861,81,81,1,2,7,16,12.mid,experiment,1
23,58,14140,84,90,1,2,7,16,12.mid,experiment,1
24,60,14408,81,81,1,2,7,16,12.mid,experiment,1
25,63,14682,78,75,1,2,7,16,12.mid,experiment,1
26,65,14976,79,72,1,2,7,16,12.mid,experiment,1
27,67,15268,79,72,1,2,7,16,12.mid,experiment,1
28,69,15855,79,61,1,2,7,16,12.mid,experiment,1
29,71,17000,77,63,1,2,7,16,12.mid,experiment,1
30,73,17271,77,70,1,2,7,16,12.mid,experiment,1
31,75,17551,76,60,1,2,7,16,12.mid,experiment,1
32,77,17826,76,68,1,2,7,16,12.mid,experiment,1
33,79,18144,74,60,1,2,7,16,12.mid,experiment,1
34,81,19325,79,58,1,2,7,16,12.mid,experiment,1
35,83,19894,77,68,1,2,7,16,12.mid,experiment,1
36,85,20497,76,65,1,2,7,16,12.mid,experiment,1
37,87,20772,76,58,1,2,7,16,12.mid,experiment,1
38,89,21059,76,62,1,2,7,16,12.mid,experiment,1
39,91,21333,76,59,1,2,7,16,12.mid,experiment,1
40,93,21667,81,71,1,2,7,16,12.mid,experiment,1
41,94,21948,77,76,1,2,7,16,12.mid,experiment,1
42,96,22235,76,70,1,2,7,16,12.mid,experiment,1
43,98,22512,74,60,1,2,7,16,12.mid,experiment,1
44,101,22820,76,66,1,2,7,16,12.mid,experiment,1
45,102,23092,79,68,1,2,7,16,12.mid,experiment,1
46,103,23385,74,70,1,2,7,16,12.mid,experiment,1
47,107,23655,71,70,1,2,7,16,12.mid,experiment,1
48,109,23954,72,68,1,2,7,16,12.mid,experiment,1
49,111,24226,72,63,1,2,7,16,12.mid,experiment,1
50,113,24509,74,64,1,2,7,16,12.mid,experiment,1
51,115,24800,74,54,1,2,7,16,12.mid,experiment,1
52,117,25129,76,46,1,2,7,16,12.mid,experiment,1
53,119,26231,65,63,1,2,7,16,12.mid,experiment,1
54,121,26506,65,71,1,2,7,16,12.mid,experiment,1
55,123,26786,64,60,1,2,7,16,12.mid,experiment,1
56,125,27060,64,62,1,2,7,16,12.mid,experiment,1
57,127,27397,62,52,1,2,7,16,12.mid,experiment,1
58,129,28532,67,49,1,2,7,16,12.mid,experiment,1
59,131,28820,67,57,1,2,7,16,12.mid,experiment,1
60,133,29099,71,57,1,2,7,16,12.mid,experiment,1
61,135,29385,71,55,1,2,7,16,12.mid,experiment,1
62,137,29669,72,64,1,2,7,16,12.mid,experiment,1
63,139,29930,72,76,1,2,7,16,12.mid,experiment,1
64,141,30209,73,72,1,2,7,16,12.mid,experiment,1
65,143,30484,73,74,1,2,7,16,12.mid,experiment,1
66,145,30808,74,78,1,2,7,16,12.mid,experiment,1
67,147,31380,77,76,1,2,7,16,12.mid,experiment,1
68,148,31964,76,66,1,2,7,16,12.mid,experiment,1
69,151,32542,74,64,1,2,7,16,12.mid,experiment,1
70,153,33130,72,75,1,2,7,16,12.mid,experiment,1
71,155,33755,84,79,1,2,7,16,12.mid,experiment,1
72,157,34431,84,73,1,2,7,16,12.mid,experiment,1
1,17,7829,79,93,1,2,8,3,8.mid,experiment,1
2,18,8103,78,91,1,2,8,3,8.mid,experiment,1
3,20,8407,79,97,1,2,8,3,8.mid,experiment,1
4,22,8689,76,91,1,2,8,3,8.mid,experiment,1
5,24,8995,72,73,1,2,8,3,8.mid,experiment,1
6,27,9815,67,64,1,2,8,3,8.mid,experiment,1
7,27,,67,,1,2,8,3,8.mid,experiment,1
8,27,,67,,1,2,8,3,8.mid,experiment,1
9,29,10115,79,87,1,2,8,3,8.mid,experiment,1
10,30,10391,78,91,1,2,8,3,8.mid,experiment,1
11,32,10689,79,98,1,2,8,3,8.mid,experiment,1
12,34,10963,76,87,1,2,8,3,8.mid,experiment,1
13,37,11242,72,93,1,2,8,3,8.mid,experiment,1
14,38,11522,76,86,1,2,8,3,8.mid,experiment,1
15,40,11804,79,97,1,2,8,3,8.mid,experiment,1
16,42,12068,84,99,1,2,8,3,8.mid,experiment,1
17,44,12363,83,88,1,2,8,3,8.mid,experiment,1
18,47,12638,81,68,1,2,8,3,8.mid,experiment,1
19,49,12919,81,66,1,2,8,3,8.mid,experiment,1
20,51,13199,81,57,1,2,8,3,8.mid,experiment,1
21,53,13479,83,91,1,2,8,3,8.mid,experiment,1
22,54,13752,81,93,1,2,8,3,8.mid,experiment,1
23,56,14034,84,96,1,2,8,3,8.mid,experiment,1
24,58,14299,81,85,1,2,8,3,8.mid,experiment,1
25,60,14597,78,88,1,2,8,3,8.mid,experiment,1
26,62,14861,79,75,1,2,8,3,8.mid,experiment,1
27,65,15179,79,72,1,2,8,3,8.mid,experiment,1
28,67,15703,79,81,1,2,8,3,8.mid,experiment,1
29,69,16865,77,50,1,2,8,3,8.mid,experiment,1
30,71,17147,77,60,1,2,8,3,8.mid,experiment,1
31,73,17433,76,53,1,2,8,3,8.mid,experiment,1
32,75,17711,76,56,1,2,8,3,8.mid,experiment,1
33,77,18041,74,49,1,2,8,3,8.mid,experiment,1
34,79,19151,79,58,1,2,8,3,8.mid,experiment,1
35,81,19731,77,63,1,2,8,3,8.mid,experiment,1
36,83,20327,76,41,1,2,8,3,8.mid,experiment,1
37,85,20587,76,57,1,2,8,3,8.mid,experiment,1
38,87,20865,76,71,1,2,8,3,8.mid,experiment,1
39,89,21139,76,67,1,2,8,3,8.mid,experiment,1
40,91,21419,81,95,1,2,8,3,8.mid,experiment,1
41,92,21689,77,86,1,2,8,3,8.mid,experiment,1
42,94,21980,76,84,1,2,8,3,8.mid,experiment,1
43,96,22258,74,83,1,2,8,3,8.mid,experiment,1
44,98,22534,76,86,1,2,8,3,8.mid,experiment,1
45,100,22819,79,88,1,2,8,3,8.mid,experiment,1
46,102,23110,74,85,1,2,8,3,8.mid,experiment,1
47,105,23373,71,63,1,2,8,3,8.mid,experiment,1
48,106,23655,72,70,1,2,8,3,8.mid,experiment,1
49,109,23933,72,53,1,2,8,3,8.mid,experiment,1
50,111,24203,74,62,1,2,8,3,8.mid,experiment,1
51,113,24467,74,73,1,2,8,3,8.mid,experiment,1
52,115,24791,76,59,1,2,8,3,8.mid,experiment,1
53,117,25850,65,67,1,2,8,3,8.mid,experiment,1
54,119,26123,65,68,1,2,8,3,8.mid,experiment,1
55,121,26419,64,50,1,2,8,3,8.mid,experiment,1
56,123,26679,64,66,1,2,8,3,8.mid,experiment,1
57,125,27001,62,61,1,2,8,3,8.mid,experiment,1
58,127,28351,67,78,1,2,8,3,8.mid,experiment,1
59,127,,67,,1,2,8,3,8.mid,experiment,1
60,129,28627,71,74,1,2,8,3,8.mid,experiment,1
61,131,28885,71,76,1,2,8,3,8.mid,experiment,1
62,133,29165,72,74,1,2,8,3,8.mid,experiment,1
63,135,29419,72,76,1,2,8,3,8.mid,experiment,1
64,137,29691,73,74,1,2,8,3,8.mid,experiment,1
65,139,29967,73,74,1,2,8,3,8.mid,experiment,1
66,141,30266,74,90,1,2,8,3,8.mid,experiment,1
67,142,30841,77,93,1,2,8,3,8.mid,experiment,1
68,144,31389,76,91,1,2,8,3,8.mid,experiment,1
69,146,31933,74,96,1,2,8,3,8.mid,experiment,1
70,148,32513,72,98,1,2,8,3,8.mid,experiment,1
71,151,33085,84,101,1,2,8,3,8.mid,experiment,1
72,153,33669,84,101,1,2,8,3,8.mid,experiment,1
1,17,7833,79,89,1,2,8,4,14.mid,experiment,1
2,18,8117,78,93,1,2,8,4,14.mid,experiment,1
3,20,8421,79,89,1,2,8,4,14.mid,experiment,1
4,22,8702,76,90,1,2,8,4,14.mid,experiment,1
5,24,9004,72,80,1,2,8,4,14.mid,experiment,1
6,27,9299,67,49,1,2,8,4,14.mid,experiment,1
7,29,9576,67,61,1,2,8,4,14.mid,experiment,1
8,31,9855,67,55,1,2,8,4,14.mid,experiment,1
9,33,10172,79,89,1,2,8,4,14.mid,experiment,1
10,34,10442,78,88,1,2,8,4,14.mid,experiment,1
11,36,10741,79,88,1,2,8,4,14.mid,experiment,1
12,38,11022,76,90,1,2,8,4,14.mid,experiment,1
13,41,11318,72,86,1,2,8,4,14.mid,experiment,1
14,42,11598,76,85,1,2,8,4,14.mid,experiment,1
15,44,11881,79,91,1,2,8,4,14.mid,experiment,1
16,46,12156,84,98,1,2,8,4,14.mid,experiment,1
17,48,12459,83,91,1,2,8,4,14.mid,experiment,1
18,51,12747,81,68,1,2,8,4,14.mid,experiment,1
19,53,13055,81,58,1,2,8,4,14.mid,experiment,1
20,55,13336,81,53,1,2,8,4,14.mid,experiment,1
21,57,13629,83,81,1,2,8,4,14.mid,experiment,1
22,58,13914,81,93,1,2,8,4,14.mid,experiment,1
23,60,14194,84,98,1,2,8,4,14.mid,experiment,1
24,62,14462,81,88,1,2,8,4,14.mid,experiment,1
25,65,14767,78,84,1,2,8,4,14.mid,experiment,1
26,66,15059,79,84,1,2,8,4,14.mid,experiment,1
27,69,15372,79,87,1,2,8,4,14.mid,experiment,1
28,71,15960,79,75,1,2,8,4,14.mid,experiment,1
29,73,17162,77,48,1,2,8,4,14.mid,experiment,1
30,75,17464,77,44,1,2,8,4,14.mid,experiment,1
31,77,17747,76,38,1,2,8,4,14.mid,experiment,1
32,79,18028,76,44,1,2,8,4,14.mid,experiment,1
33,79,,74,,1,2,8,4,14.mid,experiment,1
34,81,19381,79,74,1,2,8,4,14.mid,experiment,1
35,82,19964,77,72,1,2,8,4,14.mid,experiment,1
36,85,20550,76,51,1,2,8,4,14.mid,experiment,1
37,87,20829,76,57,1,2,8,4,14.mid,experiment,1
38,89,21111,76,55,1,2,8,4,14.mid,experiment,1
39,91,21387,76,62,1,2,8,4,14.mid,experiment,1
40,93,21699,81,91,1,2,8,4,14.mid,experiment,1
41,94,21986,77,81,1,2,8,4,14.mid,experiment,1
42,96,22264,76,85,1,2,8,4,14.mid,experiment,1
43,98,22549,74,84,1,2,8,4,14.mid,experiment,1
44,100,22838,76,88,1,2,8,4,14.mid,experiment,1
45,102,23101,79,91,1,2,8,4,14.mid,experiment,1
46,104,23392,74,90,1,2,8,4,14.mid,experiment,1
47,107,23673,71,67,1,2,8,4,14.mid,experiment,1
48,108,23986,72,61,1,2,8,4,14.mid,experiment,1
49,111,24268,72,58,1,2,8,4,14.mid,experiment,1
50,113,24556,74,52,1,2,8,4,14.mid,experiment,1
51,115,24825,74,55,1,2,8,4,14.mid,experiment,1
52,117,25187,76,44,1,2,8,4,14.mid,experiment,1
53,119,26296,65,58,1,2,8,4,14.mid,experiment,1
54,121,26581,65,62,1,2,8,4,14.mid,experiment,1
55,123,26873,64,54,1,2,8,4,14.mid,experiment,1
56,125,27144,64,60,1,2,8,4,14.mid,experiment,1
57,127,27499,62,50,1,2,8,4,14.mid,experiment,1
58,129,28665,67,47,1,2,8,4,14.mid,experiment,1
59,131,28950,67,50,1,2,8,4,14.mid,experiment,1
60,133,29495,71,63,1,2,8,4,14.mid,experiment,1
61,133,,71,,1,2,8,4,14.mid,experiment,1
62,135,29787,72,66,1,2,8,4,14.mid,experiment,1
63,137,30062,72,67,1,2,8,4,14.mid,experiment,1
64,139,30336,73,69,1,2,8,4,14.mid,experiment,1
65,141,30597,73,77,1,2,8,4,14.mid,experiment,1
66,143,30909,74,87,1,2,8,4,14.mid,experiment,1
67,145,31487,77,89,1,2,8,4,14.mid,experiment,1
68,147,32062,76,89,1,2,8,4,14.mid,experiment,1
69,149,32624,74,95,1,2,8,4,14.mid,experiment,1
70,151,33205,72,87,1,2,8,4,14.mid,experiment,1
71,153,33797,84,96,1,2,8,4,14.mid,experiment,1
72,155,34412,84,83,1,2,8,4,14.mid,experiment,1
1,17,7847,79,79,1,2,8,9,3.mid,experiment,1
2,18,8129,78,95,1,2,8,9,3.mid,experiment,1
3,20,8433,79,95,1,2,8,9,3.mid,experiment,1
4,22,8725,76,96,1,2,8,9,3.mid,experiment,1
5,24,9041,72,91,1,2,8,9,3.mid,experiment,1
6,27,9403,67,30,1,2,8,9,3.mid,experiment,1
7,29,9670,67,49,1,2,8,9,3.mid,experiment,1
8,31,9951,67,59,1,2,8,9,3.mid,experiment,1
9,33,10269,79,97,1,2,8,9,3.mid,experiment,1
10,34,10552,78,93,1,2,8,9,3.mid,experiment,1
11,36,10855,79,97,1,2,8,9,3.mid,experiment,1
12,38,11134,76,91,1,2,8,9,3.mid,experiment,1
13,41,11437,72,83,1,2,8,9,3.mid,experiment,1
14,42,11715,76,89,1,2,8,9,3.mid,experiment,1
15,44,11991,79,97,1,2,8,9,3.mid,experiment,1
16,46,12263,84,100,1,2,8,9,3.mid,experiment,1
17,48,12575,83,94,1,2,8,9,3.mid,experiment,1
18,51,13153,81,54,1,2,8,9,3.mid,experiment,1
19,53,13445,81,65,1,2,8,9,3.mid,experiment,1
20,53,,81,,1,2,8,9,3.mid,experiment,1
21,55,13739,83,97,1,2,8,9,3.mid,experiment,1
22,56,14025,81,93,1,2,8,9,3.mid,experiment,1
23,58,14315,84,98,1,2,8,9,3.mid,experiment,1
24,60,14595,81,88,1,2,8,9,3.mid,experiment,1
25,63,14904,78,91,1,2,8,9,3.mid,experiment,1
26,64,15185,79,84,1,2,8,9,3.mid,experiment,1
27,67,15495,79,91,1,2,8,9,3.mid,experiment,1
28,69,16069,79,81,1,2,8,9,3.mid,experiment,1
29,71,17275,77,50,1,2,8,9,3.mid,experiment,1
30,73,17549,77,58,1,2,8,9,3.mid,experiment,1
31,75,17839,76,54,1,2,8,9,3.mid,experiment,1
32,77,18129,76,57,1,2,8,9,3.mid,experiment,1
33,79,18467,74,46,1,2,8,9,3.mid,experiment,1
34,81,19672,79,48,1,2,8,9,3.mid,experiment,1
35,83,20249,77,59,1,2,8,9,3.mid,experiment,1
36,85,20855,76,47,1,2,8,9,3.mid,experiment,1
37,87,21135,76,57,1,2,8,9,3.mid,experiment,1
38,89,21447,76,55,1,2,8,9,3.mid,experiment,1
39,91,21731,76,58,1,2,8,9,3.mid,experiment,1
40,93,22017,81,85,1,2,8,9,3.mid,experiment,1
41,94,22301,77,90,1,2,8,9,3.mid,experiment,1
42,96,22606,76,91,1,2,8,9,3.mid,experiment,1
43,98,22903,74,87,1,2,8,9,3.mid,experiment,1
44,100,23193,76,86,1,2,8,9,3.mid,experiment,1
45,102,23460,79,91,1,2,8,9,3.mid,experiment,1
46,104,23761,74,90,1,2,8,9,3.mid,experiment,1
47,107,24046,71,63,1,2,8,9,3.mid,experiment,1
48,108,24333,72,63,1,2,8,9,3.mid,experiment,1
49,111,24618,72,58,1,2,8,9,3.mid,experiment,1
50,113,24919,74,55,1,2,8,9,3.mid,experiment,1
51,115,25219,74,61,1,2,8,9,3.mid,experiment,1
52,117,25569,76,63,1,2,8,9,3.mid,experiment,1
53,119,26753,65,62,1,2,8,9,3.mid,experiment,1
54,121,27034,65,67,1,2,8,9,3.mid,experiment,1
55,123,27331,64,59,1,2,8,9,3.mid,experiment,1
56,125,27631,64,53,1,2,8,9,3.mid,experiment,1
57,127,27983,62,43,1,2,8,9,3.mid,experiment,1
58,129,29169,67,46,1,2,8,9,3.mid,experiment,1
59,131,29443,67,47,1,2,8,9,3.mid,experiment,1
60,133,29995,71,56,1,2,8,9,3.mid,experiment,1
61,133,,71,,1,2,8,9,3.mid,experiment,1
62,135,30303,72,64,1,2,8,9,3.mid,experiment,1
63,137,30585,72,68,1,2,8,9,3.mid,experiment,1
64,139,30865,73,73,1,2,8,9,3.mid,experiment,1
65,141,31151,73,75,1,2,8,9,3.mid,experiment,1
66,143,31477,74,82,1,2,8,9,3.mid,experiment,1
67,144,32041,77,96,1,2,8,9,3.mid,experiment,1
68,146,32605,76,98,1,2,8,9,3.mid,experiment,1
69,148,33222,74,101,1,2,8,9,3.mid,experiment,1
70,150,33827,72,96,1,2,8,9,3.mid,experiment,1
71,152,34413,84,101,1,2,8,9,3.mid,experiment,1
72,155,35023,84,98,1,2,8,9,3.mid,experiment,1
1,17,7851,79,85,1,2,8,11,15.mid,experiment,1
2,18,8134,78,96,1,2,8,11,15.mid,experiment,1
3,20,8440,79,97,1,2,8,11,15.mid,experiment,1
4,22,8721,76,91,1,2,8,11,15.mid,experiment,1
5,24,9023,72,91,1,2,8,11,15.mid,experiment,1
6,27,9320,67,54,1,2,8,11,15.mid,experiment,1
7,29,9604,67,57,1,2,8,11,15.mid,experiment,1
8,29,,67,,1,2,8,11,15.mid,experiment,1
9,31,10194,79,95,1,2,8,11,15.mid,experiment,1
10,32,10469,78,94,1,2,8,11,15.mid,experiment,1
11,34,10773,79,96,1,2,8,11,15.mid,experiment,1
12,36,11048,76,89,1,2,8,11,15.mid,experiment,1
13,39,11337,72,89,1,2,8,11,15.mid,experiment,1
14,40,11616,76,86,1,2,8,11,15.mid,experiment,1
15,42,11905,79,94,1,2,8,11,15.mid,experiment,1
16,45,12183,84,97,1,2,8,11,15.mid,experiment,1
17,46,12495,83,94,1,2,8,11,15.mid,experiment,1
18,49,12797,81,63,1,2,8,11,15.mid,experiment,1
19,51,13102,81,54,1,2,8,11,15.mid,experiment,1
20,53,13381,81,62,1,2,8,11,15.mid,experiment,1
21,55,13677,83,91,1,2,8,11,15.mid,experiment,1
22,56,13960,81,90,1,2,8,11,15.mid,experiment,1
23,58,14254,84,100,1,2,8,11,15.mid,experiment,1
24,60,14539,81,76,1,2,8,11,15.mid,experiment,1
25,62,14829,78,91,1,2,8,11,15.mid,experiment,1
26,64,15116,79,89,1,2,8,11,15.mid,experiment,1
27,67,15429,79,90,1,2,8,11,15.mid,experiment,1
28,69,16023,79,86,1,2,8,11,15.mid,experiment,1
29,71,17267,77,52,1,2,8,11,15.mid,experiment,1
30,73,17543,77,57,1,2,8,11,15.mid,experiment,1
31,75,17826,76,55,1,2,8,11,15.mid,experiment,1
32,77,18101,76,53,1,2,8,11,15.mid,experiment,1
33,79,18425,74,52,1,2,8,11,15.mid,experiment,1
34,81,19649,79,55,1,2,8,11,15.mid,experiment,1
35,83,20256,77,54,1,2,8,11,15.mid,experiment,1
36,85,20845,76,47,1,2,8,11,15.mid,experiment,1
37,87,21136,76,45,1,2,8,11,15.mid,experiment,1
38,89,21425,76,49,1,2,8,11,15.mid,experiment,1
39,91,21713,76,67,1,2,8,11,15.mid,experiment,1
40,93,22037,81,93,1,2,8,11,15.mid,experiment,1
41,94,22323,77,84,1,2,8,11,15.mid,experiment,1
42,96,22622,76,88,1,2,8,11,15.mid,experiment,1
43,98,22910,74,81,1,2,8,11,15.mid,experiment,1
44,100,23205,76,83,1,2,8,11,15.mid,experiment,1
45,102,23465,79,90,1,2,8,11,15.mid,experiment,1
46,104,23772,74,96,1,2,8,11,15.mid,experiment,1
47,106,24054,71,89,1,2,8,11,15.mid,experiment,1
48,109,24357,72,70,1,2,8,11,15.mid,experiment,1
49,111,24650,72,61,1,2,8,11,15.mid,experiment,1
50,113,24938,74,60,1,2,8,11,15.mid,experiment,1
51,115,25239,74,58,1,2,8,11,15.mid,experiment,1
52,117,25640,76,48,1,2,8,11,15.mid,experiment,1
53,119,26773,65,56,1,2,8,11,15.mid,experiment,1
54,121,27073,65,66,1,2,8,11,15.mid,experiment,1
55,123,27360,64,61,1,2,8,11,15.mid,experiment,1
56,125,27628,64,65,1,2,8,11,15.mid,experiment,1
57,127,27994,62,53,1,2,8,11,15.mid,experiment,1
58,129,29173,67,50,1,2,8,11,15.mid,experiment,1
59,131,29441,67,56,1,2,8,11,15.mid,experiment,1
60,133,29735,71,63,1,2,8,11,15.mid,experiment,1
61,135,30028,71,62,1,2,8,11,15.mid,experiment,1
62,137,30320,72,63,1,2,8,11,15.mid,experiment,1
63,139,30603,72,65,1,2,8,11,15.mid,experiment,1
64,141,30904,73,70,1,2,8,11,15.mid,experiment,1
65,143,31179,73,76,1,2,8,11,15.mid,experiment,1
66,145,31492,74,90,1,2,8,11,15.mid,experiment,1
67,146,32075,77,95,1,2,8,11,15.mid,experiment,1
68,149,32688,76,91,1,2,8,11,15.mid,experiment,1
69,151,33296,74,89,1,2,8,11,15.mid,experiment,1
70,153,33930,72,87,1,2,8,11,15.mid,experiment,1
71,155,34545,84,94,1,2,8,11,15.mid,experiment,1
72,157,35200,84,81,1,2,8,11,15.mid,experiment,1
1,17,7839,79,87,1,2,8,12,2.mid,experiment,1
2,18,8121,78,96,1,2,8,12,2.mid,experiment,1
3,20,8431,79,95,1,2,8,12,2.mid,experiment,1
4,22,8717,76,96,1,2,8,12,2.mid,experiment,1
5,24,9026,72,94,1,2,8,12,2.mid,experiment,1
6,27,9330,67,54,1,2,8,12,2.mid,experiment,1
7,29,9618,67,55,1,2,8,12,2.mid,experiment,1
8,31,9902,67,58,1,2,8,12,2.mid,experiment,1
9,33,10221,79,103,1,2,8,12,2.mid,experiment,1
10,34,10497,78,98,1,2,8,12,2.mid,experiment,1
11,36,10804,79,96,1,2,8,12,2.mid,experiment,1
12,38,11078,76,91,1,2,8,12,2.mid,experiment,1
13,41,11374,72,88,1,2,8,12,2.mid,experiment,1
14,42,11641,76,89,1,2,8,12,2.mid,experiment,1
15,44,11924,79,98,1,2,8,12,2.mid,experiment,1
16,46,12204,84,99,1,2,8,12,2.mid,experiment,1
17,48,12501,83,98,1,2,8,12,2.mid,experiment,1
18,51,12810,81,52,1,2,8,12,2.mid,experiment,1
19,53,13122,81,45,1,2,8,12,2.mid,experiment,1
20,55,13435,81,35,1,2,8,12,2.mid,experiment,1
21,57,13711,83,91,1,2,8,12,2.mid,experiment,1
22,58,13991,81,93,1,2,8,12,2.mid,experiment,1
23,60,14290,84,98,1,2,8,12,2.mid,experiment,1
24,62,14569,81,84,1,2,8,12,2.mid,experiment,1
25,64,14887,78,88,1,2,8,12,2.mid,experiment,1
26,66,15180,79,82,1,2,8,12,2.mid,experiment,1
27,69,15492,79,91,1,2,8,12,2.mid,experiment,1
28,71,16098,79,76,1,2,8,12,2.mid,experiment,1
29,73,17601,77,54,1,2,8,12,2.mid,experiment,1
30,73,,77,,1,2,8,12,2.mid,experiment,1
31,75,17900,76,42,1,2,8,12,2.mid,experiment,1
32,77,18141,76,50,1,2,8,12,2.mid,experiment,1
33,79,18473,74,48,1,2,8,12,2.mid,experiment,1
34,81,19634,79,58,1,2,8,12,2.mid,experiment,1
35,83,20225,77,57,1,2,8,12,2.mid,experiment,1
36,85,20810,76,49,1,2,8,12,2.mid,experiment,1
37,87,21084,76,51,1,2,8,12,2.mid,experiment,1
38,89,21374,76,56,1,2,8,12,2.mid,experiment,1
39,91,21663,76,57,1,2,8,12,2.mid,experiment,1
40,93,21981,81,96,1,2,8,12,2.mid,experiment,1
41,94,22271,77,89,1,2,8,12,2.mid,experiment,1
42,96,22563,76,90,1,2,8,12,2.mid,experiment,1
43,98,22860,74,91,1,2,8,12,2.mid,experiment,1
44,100,23144,76,87,1,2,8,12,2.mid,experiment,1
45,102,23416,79,93,1,2,8,12,2.mid,experiment,1
46,104,23714,74,94,1,2,8,12,2.mid,experiment,1
47,107,23995,71,75,1,2,8,12,2.mid,experiment,1
48,108,24286,72,66,1,2,8,12,2.mid,experiment,1
49,111,24559,72,57,1,2,8,12,2.mid,experiment,1
50,113,24857,74,48,1,2,8,12,2.mid,experiment,1
51,115,25138,74,49,1,2,8,12,2.mid,experiment,1
52,117,25469,76,44,1,2,8,12,2.mid,experiment,1
53,119,26593,65,53,1,2,8,12,2.mid,experiment,1
54,121,26874,65,57,1,2,8,12,2.mid,experiment,1
55,123,27443,64,53,1,2,8,12,2.mid,experiment,1
56,123,,64,,1,2,8,12,2.mid,experiment,1
57,125,27807,62,47,1,2,8,12,2.mid,experiment,1
58,127,28938,67,54,1,2,8,12,2.mid,experiment,1
59,129,29207,67,62,1,2,8,12,2.mid,experiment,1
60,131,29509,71,65,1,2,8,12,2.mid,experiment,1
61,133,29813,71,54,1,2,8,12,2.mid,experiment,1
62,135,30085,72,70,1,2,8,12,2.mid,experiment,1
63,137,30366,72,71,1,2,8,12,2.mid,experiment,1
64,139,30656,73,70,1,2,8,12,2.mid,experiment,1
65,141,30938,73,68,1,2,8,12,2.mid,experiment,1
66,143,31249,74,90,1,2,8,12,2.mid,experiment,1
67,144,31830,77,91,1,2,8,12,2.mid,experiment,1
68,147,32400,76,90,1,2,8,12,2.mid,experiment,1
69,149,32974,74,89,1,2,8,12,2.mid,experiment,1
70,151,33556,72,82,1,2,8,12,2.mid,experiment,1
71,153,34140,84,93,1,2,8,12,2.mid,experiment,1
72,155,34769,84,94,1,2,8,12,2.mid,experiment,1
1,17,7819,79,96,1,2,8,16,1.mid,experiment,1
2,18,8100,78,91,1,2,8,16,1.mid,experiment,1
3,20,8405,79,96,1,2,8,16,1.mid,experiment,1
4,22,8674,76,95,1,2,8,16,1.mid,experiment,1
5,24,8985,72,96,1,2,8,16,1.mid,experiment,1
6,27,9284,67,55,1,2,8,16,1.mid,experiment,1
7,29,9595,67,37,1,2,8,16,1.mid,experiment,1
8,31,9876,67,57,1,2,8,16,1.mid,experiment,1
9,33,10178,79,100,1,2,8,16,1.mid,experiment,1
10,34,10447,78,97,1,2,8,16,1.mid,experiment,1
11,36,10740,79,97,1,2,8,16,1.mid,experiment,1
12,38,11012,76,93,1,2,8,16,1.mid,experiment,1
13,41,11317,72,88,1,2,8,16,1.mid,experiment,1
14,42,11600,76,90,1,2,8,16,1.mid,experiment,1
15,44,11899,79,103,1,2,8,16,1.mid,experiment,1
16,46,12171,84,99,1,2,8,16,1.mid,experiment,1
17,48,12464,83,101,1,2,8,16,1.mid,experiment,1
18,51,12771,81,52,1,2,8,16,1.mid,experiment,1
19,53,13051,81,54,1,2,8,16,1.mid,experiment,1
20,55,13352,81,61,1,2,8,16,1.mid,experiment,1
21,57,13652,83,98,1,2,8,16,1.mid,experiment,1
22,58,13934,81,94,1,2,8,16,1.mid,experiment,1
23,60,14239,84,97,1,2,8,16,1.mid,experiment,1
24,62,14527,81,89,1,2,8,16,1.mid,experiment,1
25,64,14842,78,91,1,2,8,16,1.mid,experiment,1
26,66,15115,79,87,1,2,8,16,1.mid,experiment,1
27,69,15463,79,87,1,2,8,16,1.mid,experiment,1
28,71,16066,79,75,1,2,8,16,1.mid,experiment,1
29,73,17299,77,51,1,2,8,16,1.mid,experiment,1
30,75,17580,77,62,1,2,8,16,1.mid,experiment,1
31,77,18124,76,70,1,2,8,16,1.mid,experiment,1
32,77,,76,,1,2,8,16,1.mid,experiment,1
33,79,18461,74,66,1,2,8,16,1.mid,experiment,1
34,81,19638,79,63,1,2,8,16,1.mid,experiment,1
35,83,20207,77,70,1,2,8,16,1.mid,experiment,1
36,85,20772,76,62,1,2,8,16,1.mid,experiment,1
37,87,21059,76,57,1,2,8,16,1.mid,experiment,1
38,89,21350,76,65,1,2,8,16,1.mid,experiment,1
39,91,21645,76,58,1,2,8,16,1.mid,experiment,1
40,93,21947,81,98,1,2,8,16,1.mid,experiment,1
41,94,22228,77,94,1,2,8,16,1.mid,experiment,1
42,96,22527,76,96,1,2,8,16,1.mid,experiment,1
43,98,22815,74,90,1,2,8,16,1.mid,experiment,1
44,100,23102,76,91,1,2,8,16,1.mid,experiment,1
45,102,23376,79,99,1,2,8,16,1.mid,experiment,1
46,104,23670,74,98,1,2,8,16,1.mid,experiment,1
47,107,23952,71,77,1,2,8,16,1.mid,experiment,1
48,108,24243,72,68,1,2,8,16,1.mid,experiment,1
49,111,24520,72,69,1,2,8,16,1.mid,experiment,1
50,113,24801,74,60,1,2,8,16,1.mid,experiment,1
51,115,25094,74,68,1,2,8,16,1.mid,experiment,1
52,117,25443,76,53,1,2,8,16,1.mid,experiment,1
53,119,26596,65,62,1,2,8,16,1.mid,experiment,1
54,121,26881,65,62,1,2,8,16,1.mid,experiment,1
55,123,27156,64,74,1,2,8,16,1.mid,experiment,1
56,125,27436,64,72,1,2,8,16,1.mid,experiment,1
57,127,27824,62,50,1,2,8,16,1.mid,experiment,1
58,129,29025,67,51,1,2,8,16,1.mid,experiment,1
59,131,29312,67,61,1,2,8,16,1.mid,experiment,1
60,133,29617,71,57,1,2,8,16,1.mid,experiment,1
61,135,29886,71,62,1,2,8,16,1.mid,experiment,1
62,137,30177,72,57,1,2,8,16,1.mid,experiment,1
63,139,30460,72,68,1,2,8,16,1.mid,experiment,1
64,141,30751,73,68,1,2,8,16,1.mid,experiment,1
65,143,31029,73,70,1,2,8,16,1.mid,experiment,1
66,145,31359,74,97,1,2,8,16,1.mid,experiment,1
67,147,31970,77,95,1,2,8,16,1.mid,experiment,1
68,149,32554,76,94,1,2,8,16,1.mid,experiment,1
69,151,33133,74,101,1,2,8,16,1.mid,experiment,1
70,153,33714,72,94,1,2,8,16,1.mid,experiment,1
71,155,34306,84,98,1,2,8,16,1.mid,experiment,1
72,157,34974,84,99,1,2,8,16,1.mid,experiment,1
1,17,7828,79,71,1,2,9,2,9.mid,experiment,1
2,18,8117,78,81,1,2,9,2,9.mid,experiment,1
3,20,8388,79,94,1,2,9,2,9.mid,experiment,1
4,22,8664,76,78,1,2,9,2,9.mid,experiment,1
5,24,8951,72,72,1,2,9,2,9.mid,experiment,1
6,27,9229,67,57,1,2,9,2,9.mid,experiment,1
7,29,9518,67,51,1,2,9,2,9.mid,experiment,1
8,31,9793,67,58,1,2,9,2,9.mid,experiment,1
9,33,10105,79,61,1,2,9,2,9.mid,experiment,1
10,34,10383,78,81,1,2,9,2,9.mid,experiment,1
11,36,10637,79,86,1,2,9,2,9.mid,experiment,1
12,38,10906,76,75,1,2,9,2,9.mid,experiment,1
13,40,11185,72,79,1,2,9,2,9.mid,experiment,1
14,42,11449,76,83,1,2,9,2,9.mid,experiment,1
15,44,11701,79,90,1,2,9,2,9.mid,experiment,1
16,46,11958,84,93,1,2,9,2,9.mid,experiment,1
17,48,12230,83,81,1,2,9,2,9.mid,experiment,1
18,51,12531,81,48,1,2,9,2,9.mid,experiment,1
19,53,12816,81,39,1,2,9,2,9.mid,experiment,1
20,55,13060,81,47,1,2,9,2,9.mid,experiment,1
21,57,13341,83,70,1,2,9,2,9.mid,experiment,1
22,58,13594,81,83,1,2,9,2,9.mid,experiment,1
23,60,13866,84,90,1,2,9,2,9.mid,experiment,1
24,62,14128,81,93,1,2,9,2,9.mid,experiment,1
25,64,14387,78,94,1,2,9,2,9.mid,experiment,1
26,66,14645,79,98,1,2,9,2,9.mid,experiment,1
27,69,14950,79,77,1,2,9,2,9.mid,experiment,1
28,71,15510,79,84,1,2,9,2,9.mid,experiment,1
29,73,16700,77,50,1,2,9,2,9.mid,experiment,1
30,75,16961,77,50,1,2,9,2,9.mid,experiment,1
31,77,17196,76,49,1,2,9,2,9.mid,experiment,1
32,79,17451,76,50,1,2,9,2,9.mid,experiment,1
33,81,17772,74,38,1,2,9,2,9.mid,experiment,1
34,83,18856,79,53,1,2,9,2,9.mid,experiment,1
35,85,19410,77,54,1,2,9,2,9.mid,experiment,1
36,87,19955,76,50,1,2,9,2,9.mid,experiment,1
37,89,20232,76,43,1,2,9,2,9.mid,experiment,1
38,91,20477,76,51,1,2,9,2,9.mid,experiment,1
39,93,20735,76,46,1,2,9,2,9.mid,experiment,1
40,95,21007,81,66,1,2,9,2,9.mid,experiment,1
41,96,21248,77,76,1,2,9,2,9.mid,experiment,1
42,98,21502,76,91,1,2,9,2,9.mid,experiment,1
43,100,21756,74,97,1,2,9,2,9.mid,experiment,1
44,102,22015,76,94,1,2,9,2,9.mid,experiment,1
45,104,22263,79,91,1,2,9,2,9.mid,experiment,1
46,106,22520,74,83,1,2,9,2,9.mid,experiment,1
47,108,22800,71,55,1,2,9,2,9.mid,experiment,1
48,111,23044,72,53,1,2,9,2,9.mid,experiment,1
49,113,23279,72,51,1,2,9,2,9.mid,experiment,1
50,115,23530,74,56,1,2,9,2,9.mid,experiment,1
51,117,23783,74,49,1,2,9,2,9.mid,experiment,1
52,119,24105,76,37,1,2,9,2,9.mid,experiment,1
53,121,25099,65,54,1,2,9,2,9.mid,experiment,1
54,123,25384,65,33,1,2,9,2,9.mid,experiment,1
55,125,25655,64,39,1,2,9,2,9.mid,experiment,1
56,125,,64,,1,2,9,2,9.mid,experiment,1
57,127,26216,62,40,1,2,9,2,9.mid,experiment,1
58,129,27183,67,48,1,2,9,2,9.mid,experiment,1
59,131,27436,67,43,1,2,9,2,9.mid,experiment,1
60,133,27957,71,53,1,2,9,2,9.mid,experiment,1
61,133,,71,,1,2,9,2,9.mid,experiment,1
62,135,28194,72,57,1,2,9,2,9.mid,experiment,1
63,137,28445,72,58,1,2,9,2,9.mid,experiment,1
64,139,28695,73,67,1,2,9,2,9.mid,experiment,1
65,141,28931,73,72,1,2,9,2,9.mid,experiment,1
66,143,29234,74,76,1,2,9,2,9.mid,experiment,1
67,145,29741,77,82,1,2,9,2,9.mid,experiment,1
68,147,30237,76,87,1,2,9,2,9.mid,experiment,1
69,149,30739,74,105,1,2,9,2,9.mid,experiment,1
70,151,31277,72,104,1,2,9,2,9.mid,experiment,1
71,153,31814,84,104,1,2,9,2,9.mid,experiment,1
72,155,32489,84,99,1,2,9,2,9.mid,experiment,1
1,17,7818,79,67,1,2,9,7,5.mid,experiment,1
2,18,8075,78,79,1,2,9,7,5.mid,experiment,1
3,20,8340,79,90,1,2,9,7,5.mid,experiment,1
4,22,8603,76,75,1,2,9,7,5.mid,experiment,1
5,24,8879,72,70,1,2,9,7,5.mid,experiment,1
6,27,9145,67,55,1,2,9,7,5.mid,experiment,1
7,29,9403,67,48,1,2,9,7,5.mid,experiment,1
8,31,9657,67,52,1,2,9,7,5.mid,experiment,1
9,33,9920,79,64,1,2,9,7,5.mid,experiment,1
10,34,10187,78,79,1,2,9,7,5.mid,experiment,1
11,36,10429,79,82,1,2,9,7,5.mid,experiment,1
12,38,10687,76,79,1,2,9,7,5.mid,experiment,1
13,40,10948,72,86,1,2,9,7,5.mid,experiment,1
14,42,11199,76,85,1,2,9,7,5.mid,experiment,1
15,44,11447,79,99,1,2,9,7,5.mid,experiment,1
16,46,11705,84,93,1,2,9,7,5.mid,experiment,1
17,48,11971,83,86,1,2,9,7,5.mid,experiment,1
18,51,12245,81,60,1,2,9,7,5.mid,experiment,1
19,53,12474,81,55,1,2,9,7,5.mid,experiment,1
20,55,12723,81,63,1,2,9,7,5.mid,experiment,1
21,57,12972,83,63,1,2,9,7,5.mid,experiment,1
22,58,13219,81,83,1,2,9,7,5.mid,experiment,1
23,60,13465,84,86,1,2,9,7,5.mid,experiment,1
24,62,13705,81,91,1,2,9,7,5.mid,experiment,1
25,64,13965,78,82,1,2,9,7,5.mid,experiment,1
26,66,14220,79,78,1,2,9,7,5.mid,experiment,1
27,69,14496,79,74,1,2,9,7,5.mid,experiment,1
28,71,14996,79,67,1,2,9,7,5.mid,experiment,1
29,73,16081,77,58,1,2,9,7,5.mid,experiment,1
30,75,16330,77,52,1,2,9,7,5.mid,experiment,1
31,77,16561,76,50,1,2,9,7,5.mid,experiment,1
32,79,16809,76,52,1,2,9,7,5.mid,experiment,1
33,81,17108,74,45,1,2,9,7,5.mid,experiment,1
34,83,18150,79,58,1,2,9,7,5.mid,experiment,1
35,85,18667,77,57,1,2,9,7,5.mid,experiment,1
36,87,19182,76,51,1,2,9,7,5.mid,experiment,1
37,89,19432,76,48,1,2,9,7,5.mid,experiment,1
38,91,19679,76,54,1,2,9,7,5.mid,experiment,1
39,93,19921,76,50,1,2,9,7,5.mid,experiment,1
40,95,20211,81,63,1,2,9,7,5.mid,experiment,1
41,96,20455,77,75,1,2,9,7,5.mid,experiment,1
42,98,20699,76,81,1,2,9,7,5.mid,experiment,1
43,100,20935,74,91,1,2,9,7,5.mid,experiment,1
44,102,21190,76,91,1,2,9,7,5.mid,experiment,1
45,104,21425,79,88,1,2,9,7,5.mid,experiment,1
46,106,21672,74,93,1,2,9,7,5.mid,experiment,1
47,108,21921,71,83,1,2,9,7,5.mid,experiment,1
48,111,22246,72,68,1,2,9,7,5.mid,experiment,1
49,113,22508,72,56,1,2,9,7,5.mid,experiment,1
50,115,22755,74,55,1,2,9,7,5.mid,experiment,1
51,117,23009,74,55,1,2,9,7,5.mid,experiment,1
52,119,23334,76,37,1,2,9,7,5.mid,experiment,1
53,121,24340,65,53,1,2,9,7,5.mid,experiment,1
54,123,24592,65,55,1,2,9,7,5.mid,experiment,1
55,125,25084,64,47,1,2,9,7,5.mid,experiment,1
56,125,,64,,1,2,9,7,5.mid,experiment,1
57,127,25387,62,49,1,2,9,7,5.mid,experiment,1
58,129,26416,67,50,1,2,9,7,5.mid,experiment,1
59,131,26662,67,56,1,2,9,7,5.mid,experiment,1
60,133,27163,71,52,1,2,9,7,5.mid,experiment,1
61,133,,71,,1,2,9,7,5.mid,experiment,1
62,135,27413,72,57,1,2,9,7,5.mid,experiment,1
63,137,27649,72,56,1,2,9,7,5.mid,experiment,1
64,139,27901,73,57,1,2,9,7,5.mid,experiment,1
65,141,28151,73,62,1,2,9,7,5.mid,experiment,1
66,143,28439,74,91,1,2,9,7,5.mid,experiment,1
67,145,28930,77,90,1,2,9,7,5.mid,experiment,1
68,147,29455,76,96,1,2,9,7,5.mid,experiment,1
69,149,29957,74,87,1,2,9,7,5.mid,experiment,1
70,151,30485,72,97,1,2,9,7,5.mid,experiment,1
71,153,31021,84,91,1,2,9,7,5.mid,experiment,1
72,155,31646,84,89,1,2,9,7,5.mid,experiment,1
1,17,7817,79,67,1,2,9,8,1.mid,experiment,1
2,18,8072,78,80,1,2,9,8,1.mid,experiment,1
3,20,8334,79,85,1,2,9,8,1.mid,experiment,1
4,22,8610,76,68,1,2,9,8,1.mid,experiment,1
5,24,8879,72,67,1,2,9,8,1.mid,experiment,1
6,27,9147,67,60,1,2,9,8,1.mid,experiment,1
7,29,9408,67,57,1,2,9,8,1.mid,experiment,1
8,31,9670,67,58,1,2,9,8,1.mid,experiment,1
9,33,9920,79,74,1,2,9,8,1.mid,experiment,1
10,34,10180,78,86,1,2,9,8,1.mid,experiment,1
11,36,10436,79,90,1,2,9,8,1.mid,experiment,1
12,38,10685,76,79,1,2,9,8,1.mid,experiment,1
13,40,10947,72,81,1,2,9,8,1.mid,experiment,1
14,42,11199,76,81,1,2,9,8,1.mid,experiment,1
15,44,11456,79,91,1,2,9,8,1.mid,experiment,1
16,46,11702,84,84,1,2,9,8,1.mid,experiment,1
17,48,11972,83,78,1,2,9,8,1.mid,experiment,1
18,51,12232,81,69,1,2,9,8,1.mid,experiment,1
19,53,12482,81,58,1,2,9,8,1.mid,experiment,1
20,55,12724,81,68,1,2,9,8,1.mid,experiment,1
21,57,12992,83,76,1,2,9,8,1.mid,experiment,1
22,58,13244,81,86,1,2,9,8,1.mid,experiment,1
23,60,13493,84,85,1,2,9,8,1.mid,experiment,1
24,62,13733,81,87,1,2,9,8,1.mid,experiment,1
25,64,13998,78,85,1,2,9,8,1.mid,experiment,1
26,66,14255,79,87,1,2,9,8,1.mid,experiment,1
27,69,14528,79,82,1,2,9,8,1.mid,experiment,1
28,71,15058,79,70,1,2,9,8,1.mid,experiment,1
29,73,16396,77,44,1,2,9,8,1.mid,experiment,1
30,73,,77,,1,2,9,8,1.mid,experiment,1
31,75,16650,76,39,1,2,9,8,1.mid,experiment,1
32,77,16902,76,44,1,2,9,8,1.mid,experiment,1
33,79,17177,74,42,1,2,9,8,1.mid,experiment,1
34,81,18203,79,44,1,2,9,8,1.mid,experiment,1
35,83,18731,77,49,1,2,9,8,1.mid,experiment,1
36,85,19226,76,43,1,2,9,8,1.mid,experiment,1
37,87,19482,76,49,1,2,9,8,1.mid,experiment,1
38,89,19729,76,48,1,2,9,8,1.mid,experiment,1
39,91,19968,76,46,1,2,9,8,1.mid,experiment,1
40,93,20245,81,62,1,2,9,8,1.mid,experiment,1
41,94,20482,77,75,1,2,9,8,1.mid,experiment,1
42,96,20731,76,79,1,2,9,8,1.mid,experiment,1
43,98,20971,74,91,1,2,9,8,1.mid,experiment,1
44,100,21225,76,87,1,2,9,8,1.mid,experiment,1
45,102,21461,79,85,1,2,9,8,1.mid,experiment,1
46,104,21729,74,86,1,2,9,8,1.mid,experiment,1
47,106,21995,71,68,1,2,9,8,1.mid,experiment,1
48,109,22272,72,63,1,2,9,8,1.mid,experiment,1
49,111,22500,72,49,1,2,9,8,1.mid,experiment,1
50,113,22759,74,51,1,2,9,8,1.mid,experiment,1
51,115,23003,74,50,1,2,9,8,1.mid,experiment,1
52,117,23306,76,47,1,2,9,8,1.mid,experiment,1
53,119,24323,65,62,1,2,9,8,1.mid,experiment,1
54,121,24575,65,50,1,2,9,8,1.mid,experiment,1
55,123,24837,64,43,1,2,9,8,1.mid,experiment,1
56,125,25084,64,48,1,2,9,8,1.mid,experiment,1
57,127,25389,62,45,1,2,9,8,1.mid,experiment,1
58,129,26368,67,57,1,2,9,8,1.mid,experiment,1
59,131,26609,67,51,1,2,9,8,1.mid,experiment,1
60,133,27116,71,53,1,2,9,8,1.mid,experiment,1
61,133,,71,,1,2,9,8,1.mid,experiment,1
62,135,27357,72,61,1,2,9,8,1.mid,experiment,1
63,137,27616,72,58,1,2,9,8,1.mid,experiment,1
64,139,27878,73,58,1,2,9,8,1.mid,experiment,1
65,141,28119,73,60,1,2,9,8,1.mid,experiment,1
66,143,28432,74,79,1,2,9,8,1.mid,experiment,1
67,145,28934,77,83,1,2,9,8,1.mid,experiment,1
68,147,29449,76,85,1,2,9,8,1.mid,experiment,1
69,149,29974,74,88,1,2,9,8,1.mid,experiment,1
70,151,30506,72,90,1,2,9,8,1.mid,experiment,1
71,153,31014,84,90,1,2,9,8,1.mid,experiment,1
72,155,31606,84,99,1,2,9,8,1.mid,experiment,1
1,17,7829,79,69,1,2,9,16,6.mid,experiment,1
2,18,8096,78,80,1,2,9,16,6.mid,experiment,1
3,20,8364,79,90,1,2,9,16,6.mid,experiment,1
4,22,8618,76,78,1,2,9,16,6.mid,experiment,1
5,24,8892,72,72,1,2,9,16,6.mid,experiment,1
6,27,9172,67,53,1,2,9,16,6.mid,experiment,1
7,29,9428,67,53,1,2,9,16,6.mid,experiment,1
8,31,9692,67,62,1,2,9,16,6.mid,experiment,1
9,33,9958,79,67,1,2,9,16,6.mid,experiment,1
10,34,10220,78,88,1,2,9,16,6.mid,experiment,1
11,36,10476,79,87,1,2,9,16,6.mid,experiment,1
12,38,10731,76,72,1,2,9,16,6.mid,experiment,1
13,40,10993,72,81,1,2,9,16,6.mid,experiment,1
14,42,11247,76,81,1,2,9,16,6.mid,experiment,1
15,44,11498,79,90,1,2,9,16,6.mid,experiment,1
16,46,11744,84,83,1,2,9,16,6.mid,experiment,1
17,48,12012,83,84,1,2,9,16,6.mid,experiment,1
18,51,12275,81,67,1,2,9,16,6.mid,experiment,1
19,53,12525,81,60,1,2,9,16,6.mid,experiment,1
20,55,12762,81,63,1,2,9,16,6.mid,experiment,1
21,57,13033,83,75,1,2,9,16,6.mid,experiment,1
22,58,13281,81,87,1,2,9,16,6.mid,experiment,1
23,60,13538,84,88,1,2,9,16,6.mid,experiment,1
24,62,13768,81,90,1,2,9,16,6.mid,experiment,1
25,64,14028,78,89,1,2,9,16,6.mid,experiment,1
26,66,14293,79,86,1,2,9,16,6.mid,experiment,1
27,69,14574,79,86,1,2,9,16,6.mid,experiment,1
28,71,15091,79,69,1,2,9,16,6.mid,experiment,1
29,73,16104,77,62,1,2,9,16,6.mid,experiment,1
30,75,16359,77,60,1,2,9,16,6.mid,experiment,1
31,77,16602,76,46,1,2,9,16,6.mid,experiment,1
32,79,16847,76,49,1,2,9,16,6.mid,experiment,1
33,81,17132,74,45,1,2,9,16,6.mid,experiment,1
34,83,18212,79,59,1,2,9,16,6.mid,experiment,1
35,85,18733,77,63,1,2,9,16,6.mid,experiment,1
36,87,19238,76,56,1,2,9,16,6.mid,experiment,1
37,89,19479,76,63,1,2,9,16,6.mid,experiment,1
38,91,19723,76,63,1,2,9,16,6.mid,experiment,1
39,93,19964,76,70,1,2,9,16,6.mid,experiment,1
40,95,20225,81,76,1,2,9,16,6.mid,experiment,1
41,96,20455,77,82,1,2,9,16,6.mid,experiment,1
42,98,20703,76,83,1,2,9,16,6.mid,experiment,1
43,100,20942,74,91,1,2,9,16,6.mid,experiment,1
44,102,21189,76,88,1,2,9,16,6.mid,experiment,1
45,104,21438,79,93,1,2,9,16,6.mid,experiment,1
46,106,21690,74,91,1,2,9,16,6.mid,experiment,1
47,108,21951,71,71,1,2,9,16,6.mid,experiment,1
48,111,22211,72,67,1,2,9,16,6.mid,experiment,1
49,113,22451,72,54,1,2,9,16,6.mid,experiment,1
50,115,22698,74,55,1,2,9,16,6.mid,experiment,1
51,117,22943,74,54,1,2,9,16,6.mid,experiment,1
52,119,23222,76,51,1,2,9,16,6.mid,experiment,1
53,121,24271,65,60,1,2,9,16,6.mid,experiment,1
54,123,24517,65,64,1,2,9,16,6.mid,experiment,1
55,125,25022,64,47,1,2,9,16,6.mid,experiment,1
56,125,,64,,1,2,9,16,6.mid,experiment,1
57,127,25306,62,47,1,2,9,16,6.mid,experiment,1
58,129,26321,67,55,1,2,9,16,6.mid,experiment,1
59,131,26565,67,52,1,2,9,16,6.mid,experiment,1
60,133,26839,71,55,1,2,9,16,6.mid,experiment,1
61,135,27076,71,61,1,2,9,16,6.mid,experiment,1
62,137,27326,72,55,1,2,9,16,6.mid,experiment,1
63,139,27581,72,52,1,2,9,16,6.mid,experiment,1
64,141,27841,73,55,1,2,9,16,6.mid,experiment,1
65,143,28081,73,57,1,2,9,16,6.mid,experiment,1
66,145,28379,74,94,1,2,9,16,6.mid,experiment,1
67,147,28915,77,99,1,2,9,16,6.mid,experiment,1
68,149,29420,76,90,1,2,9,16,6.mid,experiment,1
69,151,29948,74,91,1,2,9,16,6.mid,experiment,1
70,153,30467,72,93,1,2,9,16,6.mid,experiment,1
71,155,30999,84,101,1,2,9,16,6.mid,experiment,1
72,157,31610,84,100,1,2,9,16,6.mid,experiment,1
1,17,7857,79,82,1,2,10,1,9.mid,experiment,1
2,18,8153,78,86,1,2,10,1,9.mid,experiment,1
3,20,8439,79,87,1,2,10,1,9.mid,experiment,1
4,22,8726,76,87,1,2,10,1,9.mid,experiment,1
5,24,9010,72,89,1,2,10,1,9.mid,experiment,1
6,27,9317,67,55,1,2,10,1,9.mid,experiment,1
7,29,9595,67,37,1,2,10,1,9.mid,experiment,1
8,31,9877,67,47,1,2,10,1,9.mid,experiment,1
9,33,10157,79,88,1,2,10,1,9.mid,experiment,1
10,34,10436,78,91,1,2,10,1,9.mid,experiment,1
11,36,10714,79,91,1,2,10,1,9.mid,experiment,1
12,38,11006,76,83,1,2,10,1,9.mid,experiment,1
13,40,11284,72,93,1,2,10,1,9.mid,experiment,1
14,42,11556,76,85,1,2,10,1,9.mid,experiment,1
15,44,11826,79,90,1,2,10,1,9.mid,experiment,1
16,46,12101,84,93,1,2,10,1,9.mid,experiment,1
17,48,12374,83,81,1,2,10,1,9.mid,experiment,1
18,51,12661,81,60,1,2,10,1,9.mid,experiment,1
19,53,12932,81,54,1,2,10,1,9.mid,experiment,1
20,55,13217,81,53,1,2,10,1,9.mid,experiment,1
21,57,13492,83,90,1,2,10,1,9.mid,experiment,1
22,58,13775,81,88,1,2,10,1,9.mid,experiment,1
23,60,14039,84,94,1,2,10,1,9.mid,experiment,1
24,62,14322,81,88,1,2,10,1,9.mid,experiment,1
25,64,14598,78,96,1,2,10,1,9.mid,experiment,1
26,66,14881,79,79,1,2,10,1,9.mid,experiment,1
27,69,15187,79,76,1,2,10,1,9.mid,experiment,1
28,71,15725,79,78,1,2,10,1,9.mid,experiment,1
29,73,16910,77,50,1,2,10,1,9.mid,experiment,1
30,75,17172,77,49,1,2,10,1,9.mid,experiment,1
31,77,17444,76,46,1,2,10,1,9.mid,experiment,1
32,79,17706,76,54,1,2,10,1,9.mid,experiment,1
33,81,18023,74,47,1,2,10,1,9.mid,experiment,1
34,83,19127,79,57,1,2,10,1,9.mid,experiment,1
35,85,19694,77,58,1,2,10,1,9.mid,experiment,1
36,87,20249,76,51,1,2,10,1,9.mid,experiment,1
37,89,20522,76,51,1,2,10,1,9.mid,experiment,1
38,91,20792,76,50,1,2,10,1,9.mid,experiment,1
39,93,21061,76,51,1,2,10,1,9.mid,experiment,1
40,95,21350,81,91,1,2,10,1,9.mid,experiment,1
41,96,21621,77,84,1,2,10,1,9.mid,experiment,1
42,98,21879,76,93,1,2,10,1,9.mid,experiment,1
43,100,22154,74,90,1,2,10,1,9.mid,experiment,1
44,102,22425,76,89,1,2,10,1,9.mid,experiment,1
45,104,22701,79,93,1,2,10,1,9.mid,experiment,1
46,106,22969,74,91,1,2,10,1,9.mid,experiment,1
47,108,23235,71,81,1,2,10,1,9.mid,experiment,1
48,111,23504,72,64,1,2,10,1,9.mid,experiment,1
49,113,23787,72,53,1,2,10,1,9.mid,experiment,1
50,115,24063,74,50,1,2,10,1,9.mid,experiment,1
51,117,24333,74,46,1,2,10,1,9.mid,experiment,1
52,119,24654,76,34,1,2,10,1,9.mid,experiment,1
53,121,25791,65,44,1,2,10,1,9.mid,experiment,1
54,123,26051,65,57,1,2,10,1,9.mid,experiment,1
55,125,26605,64,53,1,2,10,1,9.mid,experiment,1
56,125,,64,,1,2,10,1,9.mid,experiment,1
57,127,26946,62,48,1,2,10,1,9.mid,experiment,1
58,129,28074,67,59,1,2,10,1,9.mid,experiment,1
59,131,28357,67,55,1,2,10,1,9.mid,experiment,1
60,133,28906,71,50,1,2,10,1,9.mid,experiment,1
61,133,,71,,1,2,10,1,9.mid,experiment,1
62,135,29157,72,67,1,2,10,1,9.mid,experiment,1
63,137,29425,72,68,1,2,10,1,9.mid,experiment,1
64,139,29691,73,78,1,2,10,1,9.mid,experiment,1
65,141,29941,73,76,1,2,10,1,9.mid,experiment,1
66,143,30249,74,96,1,2,10,1,9.mid,experiment,1
67,145,30826,77,99,1,2,10,1,9.mid,experiment,1
68,147,31413,76,91,1,2,10,1,9.mid,experiment,1
69,149,31986,74,97,1,2,10,1,9.mid,experiment,1
70,151,32571,72,100,1,2,10,1,9.mid,experiment,1
71,153,33181,84,95,1,2,10,1,9.mid,experiment,1
72,155,33793,84,96,1,2,10,1,9.mid,experiment,1
1,17,7871,79,81,1,2,10,3,2.mid,experiment,1
2,18,8163,78,82,1,2,10,3,2.mid,experiment,1
3,20,8452,79,89,1,2,10,3,2.mid,experiment,1
4,22,8725,76,88,1,2,10,3,2.mid,experiment,1
5,24,9008,72,90,1,2,10,3,2.mid,experiment,1
6,27,9309,67,52,1,2,10,3,2.mid,experiment,1
7,29,9564,67,62,1,2,10,3,2.mid,experiment,1
8,31,9844,67,56,1,2,10,3,2.mid,experiment,1
9,33,10123,79,86,1,2,10,3,2.mid,experiment,1
10,34,10396,78,90,1,2,10,3,2.mid,experiment,1
11,36,10667,79,93,1,2,10,3,2.mid,experiment,1
12,38,10943,76,87,1,2,10,3,2.mid,experiment,1
13,40,11227,72,93,1,2,10,3,2.mid,experiment,1
14,42,11504,76,88,1,2,10,3,2.mid,experiment,1
15,44,11772,79,93,1,2,10,3,2.mid,experiment,1
16,46,12052,84,94,1,2,10,3,2.mid,experiment,1
17,48,12325,83,89,1,2,10,3,2.mid,experiment,1
18,51,12598,81,60,1,2,10,3,2.mid,experiment,1
19,53,12865,81,53,1,2,10,3,2.mid,experiment,1
20,55,13138,81,57,1,2,10,3,2.mid,experiment,1
21,57,13421,83,86,1,2,10,3,2.mid,experiment,1
22,58,13698,81,96,1,2,10,3,2.mid,experiment,1
23,60,13954,84,96,1,2,10,3,2.mid,experiment,1
24,62,14217,81,89,1,2,10,3,2.mid,experiment,1
25,64,14493,78,84,1,2,10,3,2.mid,experiment,1
26,66,14768,79,79,1,2,10,3,2.mid,experiment,1
27,69,15068,79,62,1,2,10,3,2.mid,experiment,1
28,71,15608,79,65,1,2,10,3,2.mid,experiment,1
29,73,16718,77,50,1,2,10,3,2.mid,experiment,1
30,75,16982,77,55,1,2,10,3,2.mid,experiment,1
31,77,17250,76,49,1,2,10,3,2.mid,experiment,1
32,79,17503,76,51,1,2,10,3,2.mid,experiment,1
33,81,17795,74,55,1,2,10,3,2.mid,experiment,1
34,83,18951,79,55,1,2,10,3,2.mid,experiment,1
35,85,19511,77,56,1,2,10,3,2.mid,experiment,1
36,87,20052,76,55,1,2,10,3,2.mid,experiment,1
37,89,20332,76,50,1,2,10,3,2.mid,experiment,1
38,91,20598,76,46,1,2,10,3,2.mid,experiment,1
39,93,20876,76,45,1,2,10,3,2.mid,experiment,1
40,95,21150,81,91,1,2,10,3,2.mid,experiment,1
41,96,21435,77,90,1,2,10,3,2.mid,experiment,1
42,98,21695,76,91,1,2,10,3,2.mid,experiment,1
43,100,21962,74,90,1,2,10,3,2.mid,experiment,1
44,102,22241,76,94,1,2,10,3,2.mid,experiment,1
45,104,22516,79,93,1,2,10,3,2.mid,experiment,1
46,106,22777,74,90,1,2,10,3,2.mid,experiment,1
47,108,23041,71,81,1,2,10,3,2.mid,experiment,1
48,111,23320,72,68,1,2,10,3,2.mid,experiment,1
49,113,23605,72,53,1,2,10,3,2.mid,experiment,1
50,115,23866,74,60,1,2,10,3,2.mid,experiment,1
51,117,24132,74,60,1,2,10,3,2.mid,experiment,1
52,119,24436,76,49,1,2,10,3,2.mid,experiment,1
53,121,25561,65,57,1,2,10,3,2.mid,experiment,1
54,123,25841,65,54,1,2,10,3,2.mid,experiment,1
55,125,26113,64,45,1,2,10,3,2.mid,experiment,1
56,127,26372,64,52,1,2,10,3,2.mid,experiment,1
57,129,26682,62,51,1,2,10,3,2.mid,experiment,1
58,131,27760,67,51,1,2,10,3,2.mid,experiment,1
59,133,28029,67,56,1,2,10,3,2.mid,experiment,1
60,135,28558,71,53,1,2,10,3,2.mid,experiment,1
61,135,,71,,1,2,10,3,2.mid,experiment,1
62,137,28828,72,63,1,2,10,3,2.mid,experiment,1
63,139,29095,72,63,1,2,10,3,2.mid,experiment,1
64,141,29359,73,65,1,2,10,3,2.mid,experiment,1
65,143,29619,73,68,1,2,10,3,2.mid,experiment,1
66,145,29934,74,99,1,2,10,3,2.mid,experiment,1
67,147,30506,77,94,1,2,10,3,2.mid,experiment,1
68,149,31071,76,89,1,2,10,3,2.mid,experiment,1
69,151,31641,74,96,1,2,10,3,2.mid,experiment,1
70,153,32224,72,93,1,2,10,3,2.mid,experiment,1
71,155,32816,84,98,1,2,10,3,2.mid,experiment,1
72,157,33419,84,97,1,2,10,3,2.mid,experiment,1
1,17,7838,79,83,1,2,10,7,7.mid,experiment,1
2,18,8142,78,83,1,2,10,7,7.mid,experiment,1
3,20,8420,79,91,1,2,10,7,7.mid,experiment,1
4,22,8713,76,87,1,2,10,7,7.mid,experiment,1
5,24,8986,72,91,1,2,10,7,7.mid,experiment,1
6,27,9292,67,53,1,2,10,7,7.mid,experiment,1
7,29,9841,67,54,1,2,10,7,7.mid,experiment,1
8,29,,67,,1,2,10,7,7.mid,experiment,1
9,31,10129,79,94,1,2,10,7,7.mid,experiment,1
10,32,10402,78,86,1,2,10,7,7.mid,experiment,1
11,34,10673,79,90,1,2,10,7,7.mid,experiment,1
12,36,10959,76,84,1,2,10,7,7.mid,experiment,1
13,38,11237,72,88,1,2,10,7,7.mid,experiment,1
14,40,11502,76,87,1,2,10,7,7.mid,experiment,1
15,42,11774,79,90,1,2,10,7,7.mid,experiment,1
16,44,12046,84,94,1,2,10,7,7.mid,experiment,1
17,46,12320,83,88,1,2,10,7,7.mid,experiment,1
18,49,12620,81,54,1,2,10,7,7.mid,experiment,1
19,51,12882,81,62,1,2,10,7,7.mid,experiment,1
20,53,13165,81,57,1,2,10,7,7.mid,experiment,1
21,55,13427,83,90,1,2,10,7,7.mid,experiment,1
22,56,13695,81,91,1,2,10,7,7.mid,experiment,1
23,58,13958,84,94,1,2,10,7,7.mid,experiment,1
24,60,14223,81,90,1,2,10,7,7.mid,experiment,1
25,62,14505,78,87,1,2,10,7,7.mid,experiment,1
26,65,14796,79,78,1,2,10,7,7.mid,experiment,1
27,67,15104,79,76,1,2,10,7,7.mid,experiment,1
28,69,15650,79,86,1,2,10,7,7.mid,experiment,1
29,71,16830,77,52,1,2,10,7,7.mid,experiment,1
30,73,17105,77,56,1,2,10,7,7.mid,experiment,1
31,75,17370,76,50,1,2,10,7,7.mid,experiment,1
32,77,17648,76,46,1,2,10,7,7.mid,experiment,1
33,79,17954,74,50,1,2,10,7,7.mid,experiment,1
34,81,19108,79,57,1,2,10,7,7.mid,experiment,1
35,83,19699,77,58,1,2,10,7,7.mid,experiment,1
36,85,20251,76,65,1,2,10,7,7.mid,experiment,1
37,87,20517,76,67,1,2,10,7,7.mid,experiment,1
38,89,20790,76,66,1,2,10,7,7.mid,experiment,1
39,91,21053,76,65,1,2,10,7,7.mid,experiment,1
40,93,21341,81,89,1,2,10,7,7.mid,experiment,1
41,94,21613,77,89,1,2,10,7,7.mid,experiment,1
42,96,21886,76,88,1,2,10,7,7.mid,experiment,1
43,98,22153,74,93,1,2,10,7,7.mid,experiment,1
44,100,22437,76,91,1,2,10,7,7.mid,experiment,1
45,102,22703,79,93,1,2,10,7,7.mid,experiment,1
46,104,22973,74,88,1,2,10,7,7.mid,experiment,1
47,106,23240,71,83,1,2,10,7,7.mid,experiment,1
48,109,23528,72,71,1,2,10,7,7.mid,experiment,1
49,111,23795,72,57,1,2,10,7,7.mid,experiment,1
50,113,24088,74,51,1,2,10,7,7.mid,experiment,1
51,115,24350,74,63,1,2,10,7,7.mid,experiment,1
52,117,24656,76,54,1,2,10,7,7.mid,experiment,1
53,119,25807,65,62,1,2,10,7,7.mid,experiment,1
54,121,26081,65,62,1,2,10,7,7.mid,experiment,1
55,123,26339,64,66,1,2,10,7,7.mid,experiment,1
56,125,26611,64,56,1,2,10,7,7.mid,experiment,1
57,127,26928,62,57,1,2,10,7,7.mid,experiment,1
58,129,28072,67,51,1,2,10,7,7.mid,experiment,1
59,131,28335,67,57,1,2,10,7,7.mid,experiment,1
60,133,28621,71,52,1,2,10,7,7.mid,experiment,1
61,135,28889,71,56,1,2,10,7,7.mid,experiment,1
62,137,29158,72,69,1,2,10,7,7.mid,experiment,1
63,139,29445,72,63,1,2,10,7,7.mid,experiment,1
64,141,29711,73,70,1,2,10,7,7.mid,experiment,1
65,143,29984,73,69,1,2,10,7,7.mid,experiment,1
66,145,30307,74,93,1,2,10,7,7.mid,experiment,1
67,147,30899,77,98,1,2,10,7,7.mid,experiment,1
68,149,31519,76,91,1,2,10,7,7.mid,experiment,1
69,151,32096,74,91,1,2,10,7,7.mid,experiment,1
70,153,32695,72,90,1,2,10,7,7.mid,experiment,1
71,155,33303,84,96,1,2,10,7,7.mid,experiment,1
72,157,33936,84,99,1,2,10,7,7.mid,experiment,1
1,17,7778,79,90,1,2,10,8,3.mid,experiment,1
2,18,8096,78,91,1,2,10,8,3.mid,experiment,1
3,20,8370,79,94,1,2,10,8,3.mid,experiment,1
4,22,8648,76,93,1,2,10,8,3.mid,experiment,1
5,24,8930,72,97,1,2,10,8,3.mid,experiment,1
6,27,9241,67,50,1,2,10,8,3.mid,experiment,1
7,29,9521,67,50,1,2,10,8,3.mid,experiment,1
8,31,9814,67,39,1,2,10,8,3.mid,experiment,1
9,33,10075,79,94,1,2,10,8,3.mid,experiment,1
10,34,10367,78,88,1,2,10,8,3.mid,experiment,1
11,36,10631,79,88,1,2,10,8,3.mid,experiment,1
12,38,10898,76,91,1,2,10,8,3.mid,experiment,1
13,40,11183,72,101,1,2,10,8,3.mid,experiment,1
14,42,11452,76,90,1,2,10,8,3.mid,experiment,1
15,44,11724,79,93,1,2,10,8,3.mid,experiment,1
16,46,12000,84,91,1,2,10,8,3.mid,experiment,1
17,48,12272,83,91,1,2,10,8,3.mid,experiment,1
18,51,12575,81,55,1,2,10,8,3.mid,experiment,1
19,53,12846,81,55,1,2,10,8,3.mid,experiment,1
20,55,13122,81,57,1,2,10,8,3.mid,experiment,1
21,57,13404,83,91,1,2,10,8,3.mid,experiment,1
22,58,13672,81,91,1,2,10,8,3.mid,experiment,1
23,60,13939,84,98,1,2,10,8,3.mid,experiment,1
24,62,14222,81,89,1,2,10,8,3.mid,experiment,1
25,64,14499,78,88,1,2,10,8,3.mid,experiment,1
26,67,14792,79,69,1,2,10,8,3.mid,experiment,1
27,69,15076,79,70,1,2,10,8,3.mid,experiment,1
28,71,15616,79,78,1,2,10,8,3.mid,experiment,1
29,73,16846,77,42,1,2,10,8,3.mid,experiment,1
30,75,17106,77,48,1,2,10,8,3.mid,experiment,1
31,77,17375,76,49,1,2,10,8,3.mid,experiment,1
32,79,17648,76,53,1,2,10,8,3.mid,experiment,1
33,81,17980,74,47,1,2,10,8,3.mid,experiment,1
34,83,19161,79,59,1,2,10,8,3.mid,experiment,1
35,85,19757,77,61,1,2,10,8,3.mid,experiment,1
36,87,20339,76,56,1,2,10,8,3.mid,experiment,1
37,89,20621,76,49,1,2,10,8,3.mid,experiment,1
38,91,20886,76,52,1,2,10,8,3.mid,experiment,1
39,93,21171,76,55,1,2,10,8,3.mid,experiment,1
40,95,21476,81,88,1,2,10,8,3.mid,experiment,1
41,96,21757,77,91,1,2,10,8,3.mid,experiment,1
42,98,22020,76,89,1,2,10,8,3.mid,experiment,1
43,100,22288,74,87,1,2,10,8,3.mid,experiment,1
44,102,22566,76,91,1,2,10,8,3.mid,experiment,1
45,104,22846,79,94,1,2,10,8,3.mid,experiment,1
46,106,23116,74,90,1,2,10,8,3.mid,experiment,1
47,108,23385,71,83,1,2,10,8,3.mid,experiment,1
48,111,23677,72,67,1,2,10,8,3.mid,experiment,1
49,113,23943,72,57,1,2,10,8,3.mid,experiment,1
50,115,24214,74,60,1,2,10,8,3.mid,experiment,1
51,117,24485,74,57,1,2,10,8,3.mid,experiment,1
52,119,24809,76,44,1,2,10,8,3.mid,experiment,1
53,121,25977,65,54,1,2,10,8,3.mid,experiment,1
54,123,26253,65,54,1,2,10,8,3.mid,experiment,1
55,125,26790,64,52,1,2,10,8,3.mid,experiment,1
56,125,,64,,1,2,10,8,3.mid,experiment,1
57,127,27124,62,48,1,2,10,8,3.mid,experiment,1
58,129,28233,67,65,1,2,10,8,3.mid,experiment,1
59,131,28514,67,65,1,2,10,8,3.mid,experiment,1
60,133,28783,71,63,1,2,10,8,3.mid,experiment,1
61,135,29058,71,50,1,2,10,8,3.mid,experiment,1
62,137,29348,72,62,1,2,10,8,3.mid,experiment,1
63,139,29605,72,64,1,2,10,8,3.mid,experiment,1
64,141,29886,73,70,1,2,10,8,3.mid,experiment,1
65,143,30156,73,69,1,2,10,8,3.mid,experiment,1
66,145,30477,74,94,1,2,10,8,3.mid,experiment,1
67,147,31046,77,99,1,2,10,8,3.mid,experiment,1
68,149,31648,76,93,1,2,10,8,3.mid,experiment,1
69,151,32211,74,99,1,2,10,8,3.mid,experiment,1
70,153,32795,72,100,1,2,10,8,3.mid,experiment,1
71,155,33388,84,98,1,2,10,8,3.mid,experiment,1
72,157,34001,84,103,1,2,10,8,3.mid,experiment,1
1,17,7832,79,87,1,2,10,11,13.mid,experiment,1
2,18,8139,78,91,1,2,10,11,13.mid,experiment,1
3,20,8414,79,93,1,2,10,11,13.mid,experiment,1
4,22,8685,76,89,1,2,10,11,13.mid,experiment,1
5,24,8967,72,87,1,2,10,11,13.mid,experiment,1
6,27,9233,67,62,1,2,10,11,13.mid,experiment,1
7,29,9523,67,53,1,2,10,11,13.mid,experiment,1
8,29,,67,,1,2,10,11,13.mid,experiment,1
9,31,10075,79,86,1,2,10,11,13.mid,experiment,1
10,32,10350,78,94,1,2,10,11,13.mid,experiment,1
11,34,10625,79,91,1,2,10,11,13.mid,experiment,1
12,36,10887,76,88,1,2,10,11,13.mid,experiment,1
13,39,11171,72,99,1,2,10,11,13.mid,experiment,1
14,40,11447,76,93,1,2,10,11,13.mid,experiment,1
15,42,11714,79,94,1,2,10,11,13.mid,experiment,1
16,44,11978,84,96,1,2,10,11,13.mid,experiment,1
17,46,12261,83,91,1,2,10,11,13.mid,experiment,1
18,49,12536,81,72,1,2,10,11,13.mid,experiment,1
19,51,12803,81,60,1,2,10,11,13.mid,experiment,1
20,53,13075,81,68,1,2,10,11,13.mid,experiment,1
21,55,13354,83,88,1,2,10,11,13.mid,experiment,1
22,56,13633,81,94,1,2,10,11,13.mid,experiment,1
23,58,13905,84,95,1,2,10,11,13.mid,experiment,1
24,60,14182,81,90,1,2,10,11,13.mid,experiment,1
25,62,14462,78,91,1,2,10,11,13.mid,experiment,1
26,64,14733,79,76,1,2,10,11,13.mid,experiment,1
27,67,15009,79,84,1,2,10,11,13.mid,experiment,1
28,69,15583,79,90,1,2,10,11,13.mid,experiment,1
29,71,16760,77,59,1,2,10,11,13.mid,experiment,1
30,73,17024,77,58,1,2,10,11,13.mid,experiment,1
31,75,17288,76,62,1,2,10,11,13.mid,experiment,1
32,77,17563,76,55,1,2,10,11,13.mid,experiment,1
33,79,17874,74,58,1,2,10,11,13.mid,experiment,1
34,81,18979,79,62,1,2,10,11,13.mid,experiment,1
35,83,19524,77,70,1,2,10,11,13.mid,experiment,1
36,85,20102,76,67,1,2,10,11,13.mid,experiment,1
37,87,20384,76,67,1,2,10,11,13.mid,experiment,1
38,89,20656,76,68,1,2,10,11,13.mid,experiment,1
39,91,20921,76,70,1,2,10,11,13.mid,experiment,1
40,93,21208,81,93,1,2,10,11,13.mid,experiment,1
41,94,21483,77,91,1,2,10,11,13.mid,experiment,1
42,96,21760,76,87,1,2,10,11,13.mid,experiment,1
43,98,22031,74,88,1,2,10,11,13.mid,experiment,1
44,100,22297,76,91,1,2,10,11,13.mid,experiment,1
45,102,22560,79,93,1,2,10,11,13.mid,experiment,1
46,104,22843,74,83,1,2,10,11,13.mid,experiment,1
47,106,23100,71,79,1,2,10,11,13.mid,experiment,1
48,109,23399,72,65,1,2,10,11,13.mid,experiment,1
49,111,23661,72,62,1,2,10,11,13.mid,experiment,1
50,113,23921,74,64,1,2,10,11,13.mid,experiment,1
51,115,24190,74,63,1,2,10,11,13.mid,experiment,1
52,117,24483,76,57,1,2,10,11,13.mid,experiment,1
53,119,25632,65,66,1,2,10,11,13.mid,experiment,1
54,121,25898,65,59,1,2,10,11,13.mid,experiment,1
55,123,26185,64,50,1,2,10,11,13.mid,experiment,1
56,125,26459,64,53,1,2,10,11,13.mid,experiment,1
57,127,26772,62,56,1,2,10,11,13.mid,experiment,1
58,129,27871,67,57,1,2,10,11,13.mid,experiment,1
59,131,28133,67,65,1,2,10,11,13.mid,experiment,1
60,133,28419,71,69,1,2,10,11,13.mid,experiment,1
61,135,28682,71,67,1,2,10,11,13.mid,experiment,1
62,137,28954,72,68,1,2,10,11,13.mid,experiment,1
63,139,29214,72,68,1,2,10,11,13.mid,experiment,1
64,141,29503,73,65,1,2,10,11,13.mid,experiment,1
65,143,29765,73,69,1,2,10,11,13.mid,experiment,1
66,145,30074,74,94,1,2,10,11,13.mid,experiment,1
67,147,30665,77,98,1,2,10,11,13.mid,experiment,1
68,149,31259,76,94,1,2,10,11,13.mid,experiment,1
69,151,31832,74,91,1,2,10,11,13.mid,experiment,1
70,153,32436,72,95,1,2,10,11,13.mid,experiment,1
71,155,33056,84,95,1,2,10,11,13.mid,experiment,1
72,157,33691,84,97,1,2,10,11,13.mid,experiment,1
1,17,7850,79,81,1,2,11,4,1.mid,experiment,1
2,18,8150,78,81,1,2,11,4,1.mid,experiment,1
3,20,8434,79,93,1,2,11,4,1.mid,experiment,1
4,22,8694,76,84,1,2,11,4,1.mid,experiment,1
5,24,8978,72,68,1,2,11,4,1.mid,experiment,1
6,27,9272,67,54,1,2,11,4,1.mid,experiment,1
7,29,9530,67,49,1,2,11,4,1.mid,experiment,1
8,31,9816,67,45,1,2,11,4,1.mid,experiment,1
9,33,10076,79,79,1,2,11,4,1.mid,experiment,1
10,34,10355,78,79,1,2,11,4,1.mid,experiment,1
11,36,10617,79,80,1,2,11,4,1.mid,experiment,1
12,38,10881,76,86,1,2,11,4,1.mid,experiment,1
13,40,11153,72,91,1,2,11,4,1.mid,experiment,1
14,42,11414,76,86,1,2,11,4,1.mid,experiment,1
15,44,11659,79,93,1,2,11,4,1.mid,experiment,1
16,46,11920,84,96,1,2,11,4,1.mid,experiment,1
17,48,12161,83,81,1,2,11,4,1.mid,experiment,1
18,51,12479,81,55,1,2,11,4,1.mid,experiment,1
19,53,12741,81,47,1,2,11,4,1.mid,experiment,1
20,55,12969,81,60,1,2,11,4,1.mid,experiment,1
21,57,13257,83,82,1,2,11,4,1.mid,experiment,1
22,58,13517,81,94,1,2,11,4,1.mid,experiment,1
23,60,13772,84,104,1,2,11,4,1.mid,experiment,1
24,62,14028,81,94,1,2,11,4,1.mid,experiment,1
25,64,14298,78,98,1,2,11,4,1.mid,experiment,1
26,66,14547,79,88,1,2,11,4,1.mid,experiment,1
27,69,14799,79,94,1,2,11,4,1.mid,experiment,1
28,71,15353,79,94,1,2,11,4,1.mid,experiment,1
29,73,16513,77,52,1,2,11,4,1.mid,experiment,1
30,75,16773,77,50,1,2,11,4,1.mid,experiment,1
31,77,17017,76,48,1,2,11,4,1.mid,experiment,1
32,79,17267,76,45,1,2,11,4,1.mid,experiment,1
33,81,17543,74,49,1,2,11,4,1.mid,experiment,1
34,83,18660,79,47,1,2,11,4,1.mid,experiment,1
35,85,19220,77,48,1,2,11,4,1.mid,experiment,1
36,87,19765,76,39,1,2,11,4,1.mid,experiment,1
37,89,20031,76,46,1,2,11,4,1.mid,experiment,1
38,91,20287,76,53,1,2,11,4,1.mid,experiment,1
39,93,20529,76,63,1,2,11,4,1.mid,experiment,1
40,95,20817,81,81,1,2,11,4,1.mid,experiment,1
41,96,21089,77,91,1,2,11,4,1.mid,experiment,1
42,98,21345,76,98,1,2,11,4,1.mid,experiment,1
43,100,21602,74,97,1,2,11,4,1.mid,experiment,1
44,102,21874,76,97,1,2,11,4,1.mid,experiment,1
45,104,22113,79,87,1,2,11,4,1.mid,experiment,1
46,106,22372,74,99,1,2,11,4,1.mid,experiment,1
47,108,22625,71,74,1,2,11,4,1.mid,experiment,1
48,111,22947,72,61,1,2,11,4,1.mid,experiment,1
49,113,23216,72,58,1,2,11,4,1.mid,experiment,1
50,115,23446,74,61,1,2,11,4,1.mid,experiment,1
51,117,23707,74,50,1,2,11,4,1.mid,experiment,1
52,119,24017,76,43,1,2,11,4,1.mid,experiment,1
53,121,25130,65,54,1,2,11,4,1.mid,experiment,1
54,123,25385,65,56,1,2,11,4,1.mid,experiment,1
55,125,25636,64,48,1,2,11,4,1.mid,experiment,1
56,127,25892,64,46,1,2,11,4,1.mid,experiment,1
57,129,26185,62,48,1,2,11,4,1.mid,experiment,1
58,131,27309,67,49,1,2,11,4,1.mid,experiment,1
59,133,27595,67,43,1,2,11,4,1.mid,experiment,1
60,135,28076,71,63,1,2,11,4,1.mid,experiment,1
61,135,,71,,1,2,11,4,1.mid,experiment,1
62,137,28332,72,79,1,2,11,4,1.mid,experiment,1
63,139,28574,72,68,1,2,11,4,1.mid,experiment,1
64,141,28822,73,103,1,2,11,4,1.mid,experiment,1
65,143,29067,73,101,1,2,11,4,1.mid,experiment,1
66,145,29345,74,121,1,2,11,4,1.mid,experiment,1
67,147,29881,77,114,1,2,11,4,1.mid,experiment,1
68,149,30420,76,110,1,2,11,4,1.mid,experiment,1
69,151,30956,74,116,1,2,11,4,1.mid,experiment,1
70,153,31494,72,112,1,2,11,4,1.mid,experiment,1
71,155,32066,84,114,1,2,11,4,1.mid,experiment,1
72,157,32685,84,116,1,2,11,4,1.mid,experiment,1
1,17,7828,79,101,1,2,11,11,6.mid,experiment,1
2,18,8134,78,86,1,2,11,11,6.mid,experiment,1
3,20,8402,79,93,1,2,11,11,6.mid,experiment,1
4,22,8665,76,103,1,2,11,11,6.mid,experiment,1
5,24,8940,72,90,1,2,11,11,6.mid,experiment,1
6,27,9520,67,59,1,2,11,11,6.mid,experiment,1
7,29,9776,67,63,1,2,11,11,6.mid,experiment,1
8,29,,67,,1,2,11,11,6.mid,experiment,1
9,31,10079,79,71,1,2,11,11,6.mid,experiment,1
10,32,10350,78,90,1,2,11,11,6.mid,experiment,1
11,34,10612,79,93,1,2,11,11,6.mid,experiment,1
12,36,10870,76,96,1,2,11,11,6.mid,experiment,1
13,38,11140,72,96,1,2,11,11,6.mid,experiment,1
14,40,11406,76,98,1,2,11,11,6.mid,experiment,1
15,42,11667,79,100,1,2,11,11,6.mid,experiment,1
16,44,11910,84,100,1,2,11,11,6.mid,experiment,1
17,46,12174,83,87,1,2,11,11,6.mid,experiment,1
18,49,12498,81,65,1,2,11,11,6.mid,experiment,1
19,51,12745,81,68,1,2,11,11,6.mid,experiment,1
20,53,13012,81,65,1,2,11,11,6.mid,experiment,1
21,55,13304,83,101,1,2,11,11,6.mid,experiment,1
22,56,13562,81,100,1,2,11,11,6.mid,experiment,1
23,58,13818,84,101,1,2,11,11,6.mid,experiment,1
24,60,14084,81,94,1,2,11,11,6.mid,experiment,1
25,62,14356,78,94,1,2,11,11,6.mid,experiment,1
26,64,14614,79,94,1,2,11,11,6.mid,experiment,1
27,67,14892,79,106,1,2,11,11,6.mid,experiment,1
28,69,15470,79,97,1,2,11,11,6.mid,experiment,1
29,71,16782,77,55,1,2,11,11,6.mid,experiment,1
30,73,17042,77,59,1,2,11,11,6.mid,experiment,1
31,75,17288,76,60,1,2,11,11,6.mid,experiment,1
32,77,17540,76,65,1,2,11,11,6.mid,experiment,1
33,79,17845,74,58,1,2,11,11,6.mid,experiment,1
34,81,19007,79,46,1,2,11,11,6.mid,experiment,1
35,83,19565,77,51,1,2,11,11,6.mid,experiment,1
36,85,20092,76,51,1,2,11,11,6.mid,experiment,1
37,87,20366,76,60,1,2,11,11,6.mid,experiment,1
38,89,20632,76,60,1,2,11,11,6.mid,experiment,1
39,91,20896,76,54,1,2,11,11,6.mid,experiment,1
40,93,21198,81,94,1,2,11,11,6.mid,experiment,1
41,94,21458,77,98,1,2,11,11,6.mid,experiment,1
42,96,21708,76,103,1,2,11,11,6.mid,experiment,1
43,98,21972,74,101,1,2,11,11,6.mid,experiment,1
44,100,22248,76,106,1,2,11,11,6.mid,experiment,1
45,102,22495,79,93,1,2,11,11,6.mid,experiment,1
46,104,22756,74,99,1,2,11,11,6.mid,experiment,1
47,106,23008,71,75,1,2,11,11,6.mid,experiment,1
48,109,23310,72,58,1,2,11,11,6.mid,experiment,1
49,111,23564,72,67,1,2,11,11,6.mid,experiment,1
50,113,23814,74,64,1,2,11,11,6.mid,experiment,1
51,115,24072,74,60,1,2,11,11,6.mid,experiment,1
52,117,24371,76,46,1,2,11,11,6.mid,experiment,1
53,119,25556,65,45,1,2,11,11,6.mid,experiment,1
54,121,25807,65,51,1,2,11,11,6.mid,experiment,1
55,123,26080,64,38,1,2,11,11,6.mid,experiment,1
56,125,26322,64,51,1,2,11,11,6.mid,experiment,1
57,127,26626,62,46,1,2,11,11,6.mid,experiment,1
58,129,27738,67,53,1,2,11,11,6.mid,experiment,1
59,131,28004,67,51,1,2,11,11,6.mid,experiment,1
60,133,28273,71,60,1,2,11,11,6.mid,experiment,1
61,135,28534,71,57,1,2,11,11,6.mid,experiment,1
62,137,28798,72,61,1,2,11,11,6.mid,experiment,1
63,139,29056,72,61,1,2,11,11,6.mid,experiment,1
64,141,29298,73,79,1,2,11,11,6.mid,experiment,1
65,143,29544,73,85,1,2,11,11,6.mid,experiment,1
66,145,29838,74,99,1,2,11,11,6.mid,experiment,1
67,147,30414,77,101,1,2,11,11,6.mid,experiment,1
68,149,30940,76,106,1,2,11,11,6.mid,experiment,1
69,151,31484,74,114,1,2,11,11,6.mid,experiment,1
70,153,32058,72,116,1,2,11,11,6.mid,experiment,1
71,155,32668,84,105,1,2,11,11,6.mid,experiment,1
72,157,33312,84,106,1,2,11,11,6.mid,experiment,1
1,17,7881,79,77,1,2,11,15,5.mid,experiment,1
2,18,8206,78,85,1,2,11,15,5.mid,experiment,1
3,20,8470,79,91,1,2,11,15,5.mid,experiment,1
4,22,8721,76,83,1,2,11,15,5.mid,experiment,1
5,24,8994,72,68,1,2,11,15,5.mid,experiment,1
6,27,9282,67,61,1,2,11,15,5.mid,experiment,1
7,29,9544,67,67,1,2,11,15,5.mid,experiment,1
8,29,,67,,1,2,11,15,5.mid,experiment,1
9,31,10117,79,66,1,2,11,15,5.mid,experiment,1
10,32,10415,78,81,1,2,11,15,5.mid,experiment,1
11,34,10660,79,76,1,2,11,15,5.mid,experiment,1
12,36,10899,76,85,1,2,11,15,5.mid,experiment,1
13,38,11185,72,94,1,2,11,15,5.mid,experiment,1
14,40,11461,76,91,1,2,11,15,5.mid,experiment,1
15,42,11705,79,95,1,2,11,15,5.mid,experiment,1
16,44,11944,84,94,1,2,11,15,5.mid,experiment,1
17,46,12219,83,83,1,2,11,15,5.mid,experiment,1
18,49,12520,81,64,1,2,11,15,5.mid,experiment,1
19,51,12764,81,70,1,2,11,15,5.mid,experiment,1
20,53,13008,81,68,1,2,11,15,5.mid,experiment,1
21,55,13334,83,87,1,2,11,15,5.mid,experiment,1
22,56,13612,81,95,1,2,11,15,5.mid,experiment,1
23,58,13846,84,100,1,2,11,15,5.mid,experiment,1
24,60,14094,81,90,1,2,11,15,5.mid,experiment,1
25,62,14377,78,86,1,2,11,15,5.mid,experiment,1
26,64,14662,79,81,1,2,11,15,5.mid,experiment,1
27,67,14921,79,83,1,2,11,15,5.mid,experiment,1
28,69,15482,79,61,1,2,11,15,5.mid,experiment,1
29,71,16710,77,49,1,2,11,15,5.mid,experiment,1
30,73,16983,77,53,1,2,11,15,5.mid,experiment,1
31,75,17224,76,62,1,2,11,15,5.mid,experiment,1
32,77,17481,76,56,1,2,11,15,5.mid,experiment,1
33,79,17820,74,44,1,2,11,15,5.mid,experiment,1
34,81,18984,79,55,1,2,11,15,5.mid,experiment,1
35,83,19541,77,54,1,2,11,15,5.mid,experiment,1
36,85,20085,76,53,1,2,11,15,5.mid,experiment,1
37,87,20343,76,63,1,2,11,15,5.mid,experiment,1
38,89,20587,76,66,1,2,11,15,5.mid,experiment,1
39,91,20850,76,62,1,2,11,15,5.mid,experiment,1
40,93,21181,81,75,1,2,11,15,5.mid,experiment,1
41,94,21465,77,88,1,2,11,15,5.mid,experiment,1
42,96,21713,76,93,1,2,11,15,5.mid,experiment,1
43,98,21963,74,96,1,2,11,15,5.mid,experiment,1
44,100,22239,76,96,1,2,11,15,5.mid,experiment,1
45,102,22497,79,81,1,2,11,15,5.mid,experiment,1
46,104,22753,74,91,1,2,11,15,5.mid,experiment,1
47,106,23004,71,76,1,2,11,15,5.mid,experiment,1
48,109,23289,72,68,1,2,11,15,5.mid,experiment,1
49,111,23549,72,69,1,2,11,15,5.mid,experiment,1
50,113,23795,74,60,1,2,11,15,5.mid,experiment,1
51,115,24063,74,57,1,2,11,15,5.mid,experiment,1
52,117,24366,76,46,1,2,11,15,5.mid,experiment,1
53,119,25553,65,60,1,2,11,15,5.mid,experiment,1
54,121,25812,65,62,1,2,11,15,5.mid,experiment,1
55,123,26093,64,47,1,2,11,15,5.mid,experiment,1
56,125,26340,64,55,1,2,11,15,5.mid,experiment,1
57,127,26675,62,43,1,2,11,15,5.mid,experiment,1
58,129,27852,67,47,1,2,11,15,5.mid,experiment,1
59,131,28129,67,51,1,2,11,15,5.mid,experiment,1
60,133,28392,71,62,1,2,11,15,5.mid,experiment,1
61,135,28643,71,65,1,2,11,15,5.mid,experiment,1
62,137,28894,72,79,1,2,11,15,5.mid,experiment,1
63,139,29154,72,88,1,2,11,15,5.mid,experiment,1
64,141,29403,73,100,1,2,11,15,5.mid,experiment,1
65,143,29655,73,105,1,2,11,15,5.mid,experiment,1
66,145,29956,74,109,1,2,11,15,5.mid,experiment,1
67,147,30520,77,97,1,2,11,15,5.mid,experiment,1
68,149,31063,76,94,1,2,11,15,5.mid,experiment,1
69,151,31611,74,90,1,2,11,15,5.mid,experiment,1
70,153,32175,72,93,1,2,11,15,5.mid,experiment,1
71,155,32854,84,106,1,2,11,15,5.mid,experiment,1
72,157,33540,84,112,1,2,11,15,5.mid,experiment,1
1,17,7876,79,57,1,2,12,1,16.mid,experiment,1
2,18,8199,78,81,1,2,12,1,16.mid,experiment,1
3,20,8532,79,75,1,2,12,1,16.mid,experiment,1
4,22,8820,76,84,1,2,12,1,16.mid,experiment,1
5,24,9143,72,78,1,2,12,1,16.mid,experiment,1
6,27,9782,67,58,1,2,12,1,16.mid,experiment,1
7,29,10074,67,75,1,2,12,1,16.mid,experiment,1
8,29,,67,,1,2,12,1,16.mid,experiment,1
9,31,10413,79,58,1,2,12,1,16.mid,experiment,1
10,32,10709,78,79,1,2,12,1,16.mid,experiment,1
11,34,11019,79,85,1,2,12,1,16.mid,experiment,1
12,36,11324,76,78,1,2,12,1,16.mid,experiment,1
13,38,11625,72,85,1,2,12,1,16.mid,experiment,1
14,40,11936,76,81,1,2,12,1,16.mid,experiment,1
15,42,12230,79,93,1,2,12,1,16.mid,experiment,1
16,44,12544,84,93,1,2,12,1,16.mid,experiment,1
17,46,12862,83,85,1,2,12,1,16.mid,experiment,1
18,49,13189,81,68,1,2,12,1,16.mid,experiment,1
19,51,13488,81,72,1,2,12,1,16.mid,experiment,1
20,53,13799,81,78,1,2,12,1,16.mid,experiment,1
21,55,14123,83,65,1,2,12,1,16.mid,experiment,1
22,56,14437,81,75,1,2,12,1,16.mid,experiment,1
23,58,14755,84,81,1,2,12,1,16.mid,experiment,1
24,60,15054,81,79,1,2,12,1,16.mid,experiment,1
25,62,15381,78,73,1,2,12,1,16.mid,experiment,1
26,64,15702,79,70,1,2,12,1,16.mid,experiment,1
27,67,16071,79,71,1,2,12,1,16.mid,experiment,1
28,69,16769,79,77,1,2,12,1,16.mid,experiment,1
29,71,18013,77,56,1,2,12,1,16.mid,experiment,1
30,73,18330,77,64,1,2,12,1,16.mid,experiment,1
31,75,18641,76,64,1,2,12,1,16.mid,experiment,1
32,77,18941,76,67,1,2,12,1,16.mid,experiment,1
33,79,19359,74,53,1,2,12,1,16.mid,experiment,1
34,81,20694,79,56,1,2,12,1,16.mid,experiment,1
35,83,21380,77,67,1,2,12,1,16.mid,experiment,1
36,85,22001,76,60,1,2,12,1,16.mid,experiment,1
37,87,22317,76,56,1,2,12,1,16.mid,experiment,1
38,89,22620,76,68,1,2,12,1,16.mid,experiment,1
39,91,22910,76,81,1,2,12,1,16.mid,experiment,1
40,93,23252,81,76,1,2,12,1,16.mid,experiment,1
41,94,23592,77,87,1,2,12,1,16.mid,experiment,1
42,96,23923,76,91,1,2,12,1,16.mid,experiment,1
43,98,24233,74,91,1,2,12,1,16.mid,experiment,1
44,100,24541,76,81,1,2,12,1,16.mid,experiment,1
45,102,24845,79,79,1,2,12,1,16.mid,experiment,1
46,104,25149,74,79,1,2,12,1,16.mid,experiment,1
47,106,25464,71,75,1,2,12,1,16.mid,experiment,1
48,109,25761,72,72,1,2,12,1,16.mid,experiment,1
49,111,26053,72,80,1,2,12,1,16.mid,experiment,1
50,113,26371,74,71,1,2,12,1,16.mid,experiment,1
51,115,26683,74,65,1,2,12,1,16.mid,experiment,1
52,117,27055,76,51,1,2,12,1,16.mid,experiment,1
53,119,28294,65,46,1,2,12,1,16.mid,experiment,1
54,121,28617,65,57,1,2,12,1,16.mid,experiment,1
55,123,28938,64,43,1,2,12,1,16.mid,experiment,1
56,125,29259,64,52,1,2,12,1,16.mid,experiment,1
57,127,29645,62,47,1,2,12,1,16.mid,experiment,1
58,129,30827,67,53,1,2,12,1,16.mid,experiment,1
59,131,31152,67,57,1,2,12,1,16.mid,experiment,1
60,133,31484,71,35,1,2,12,1,16.mid,experiment,1
61,135,31765,71,81,1,2,12,1,16.mid,experiment,1
62,137,32069,72,87,1,2,12,1,16.mid,experiment,1
63,139,32379,72,93,1,2,12,1,16.mid,experiment,1
64,141,32682,73,81,1,2,12,1,16.mid,experiment,1
65,143,32984,73,93,1,2,12,1,16.mid,experiment,1
66,145,33307,74,81,1,2,12,1,16.mid,experiment,1
67,147,33979,77,82,1,2,12,1,16.mid,experiment,1
68,149,34650,76,88,1,2,12,1,16.mid,experiment,1
69,151,35328,74,94,1,2,12,1,16.mid,experiment,1
70,153,36030,72,91,1,2,12,1,16.mid,experiment,1
71,155,36724,84,100,1,2,12,1,16.mid,experiment,1
72,157,37422,84,96,1,2,12,1,16.mid,experiment,1
1,17,7857,79,82,1,2,12,5,10.mid,experiment,1
2,18,8156,78,91,1,2,12,5,10.mid,experiment,1
3,20,8446,79,94,1,2,12,5,10.mid,experiment,1
4,22,8719,76,90,1,2,12,5,10.mid,experiment,1
5,24,8998,72,89,1,2,12,5,10.mid,experiment,1
6,27,9300,67,59,1,2,12,5,10.mid,experiment,1
7,29,9566,67,65,1,2,12,5,10.mid,experiment,1
8,31,9832,67,56,1,2,12,5,10.mid,experiment,1
9,33,10099,79,79,1,2,12,5,10.mid,experiment,1
10,34,10369,78,98,1,2,12,5,10.mid,experiment,1
11,36,10636,79,85,1,2,12,5,10.mid,experiment,1
12,38,10907,76,91,1,2,12,5,10.mid,experiment,1
13,40,11170,72,95,1,2,12,5,10.mid,experiment,1
14,42,11438,76,95,1,2,12,5,10.mid,experiment,1
15,44,11695,79,103,1,2,12,5,10.mid,experiment,1
16,46,11968,84,101,1,2,12,5,10.mid,experiment,1
17,48,12246,83,95,1,2,12,5,10.mid,experiment,1
18,51,12632,81,54,1,2,12,5,10.mid,experiment,1
19,53,12918,81,50,1,2,12,5,10.mid,experiment,1
20,55,13176,81,54,1,2,12,5,10.mid,experiment,1
21,57,13438,83,78,1,2,12,5,10.mid,experiment,1
22,58,13711,81,91,1,2,12,5,10.mid,experiment,1
23,60,13978,84,99,1,2,12,5,10.mid,experiment,1
24,62,14252,81,99,1,2,12,5,10.mid,experiment,1
25,64,14520,78,100,1,2,12,5,10.mid,experiment,1
26,66,14778,79,98,1,2,12,5,10.mid,experiment,1
27,69,15080,79,96,1,2,12,5,10.mid,experiment,1
28,71,15628,79,103,1,2,12,5,10.mid,experiment,1
29,73,16860,77,46,1,2,12,5,10.mid,experiment,1
30,75,17121,77,58,1,2,12,5,10.mid,experiment,1
31,77,17404,76,49,1,2,12,5,10.mid,experiment,1
32,79,17658,76,55,1,2,12,5,10.mid,experiment,1
33,81,17980,74,49,1,2,12,5,10.mid,experiment,1
34,83,19150,79,40,1,2,12,5,10.mid,experiment,1
35,85,19726,77,47,1,2,12,5,10.mid,experiment,1
36,87,20274,76,42,1,2,12,5,10.mid,experiment,1
37,89,20550,76,49,1,2,12,5,10.mid,experiment,1
38,91,20812,76,58,1,2,12,5,10.mid,experiment,1
39,93,21080,76,63,1,2,12,5,10.mid,experiment,1
40,95,21356,81,69,1,2,12,5,10.mid,experiment,1
41,96,21601,77,77,1,2,12,5,10.mid,experiment,1
42,98,21874,76,79,1,2,12,5,10.mid,experiment,1
43,100,22118,74,85,1,2,12,5,10.mid,experiment,1
44,102,22386,76,88,1,2,12,5,10.mid,experiment,1
45,104,22646,79,94,1,2,12,5,10.mid,experiment,1
46,106,22900,74,94,1,2,12,5,10.mid,experiment,1
47,108,23160,71,94,1,2,12,5,10.mid,experiment,1
48,111,23492,72,50,1,2,12,5,10.mid,experiment,1
49,113,23742,72,54,1,2,12,5,10.mid,experiment,1
50,115,24010,74,58,1,2,12,5,10.mid,experiment,1
51,117,24277,74,58,1,2,12,5,10.mid,experiment,1
52,119,24638,76,38,1,2,12,5,10.mid,experiment,1
53,121,25794,65,43,1,2,12,5,10.mid,experiment,1
54,123,26052,65,52,1,2,12,5,10.mid,experiment,1
55,125,26622,64,54,1,2,12,5,10.mid,experiment,1
56,125,,64,,1,2,12,5,10.mid,experiment,1
57,127,26976,62,44,1,2,12,5,10.mid,experiment,1
58,129,28144,67,53,1,2,12,5,10.mid,experiment,1
59,131,28429,67,45,1,2,12,5,10.mid,experiment,1
60,133,28693,71,50,1,2,12,5,10.mid,experiment,1
61,135,28950,71,53,1,2,12,5,10.mid,experiment,1
62,137,29219,72,61,1,2,12,5,10.mid,experiment,1
63,139,29484,72,58,1,2,12,5,10.mid,experiment,1
64,141,29763,73,62,1,2,12,5,10.mid,experiment,1
65,143,30028,73,72,1,2,12,5,10.mid,experiment,1
66,145,30355,74,97,1,2,12,5,10.mid,experiment,1
67,147,30964,77,86,1,2,12,5,10.mid,experiment,1
68,149,31514,76,99,1,2,12,5,10.mid,experiment,1
69,151,32110,74,107,1,2,12,5,10.mid,experiment,1
70,153,32685,72,105,1,2,12,5,10.mid,experiment,1
71,155,33270,84,112,1,2,12,5,10.mid,experiment,1
72,157,33869,84,112,1,2,12,5,10.mid,experiment,1
1,17,7854,79,86,1,2,12,6,4.mid,experiment,1
2,18,8161,78,91,1,2,12,6,4.mid,experiment,1
3,20,8449,79,91,1,2,12,6,4.mid,experiment,1
4,22,8708,76,88,1,2,12,6,4.mid,experiment,1
5,24,9009,72,81,1,2,12,6,4.mid,experiment,1
6,27,9823,67,41,1,2,12,6,4.mid,experiment,1
7,29,10154,67,56,1,2,12,6,4.mid,experiment,1
8,31,10488,67,58,1,2,12,6,4.mid,experiment,1
9,33,10797,79,78,1,2,12,6,4.mid,experiment,1
10,34,11072,78,93,1,2,12,6,4.mid,experiment,1
11,36,11336,79,91,1,2,12,6,4.mid,experiment,1
12,38,11593,76,93,1,2,12,6,4.mid,experiment,1
13,40,11858,72,94,1,2,12,6,4.mid,experiment,1
14,42,12112,76,96,1,2,12,6,4.mid,experiment,1
15,44,12366,79,104,1,2,12,6,4.mid,experiment,1
16,46,12631,84,100,1,2,12,6,4.mid,experiment,1
17,48,12962,83,91,1,2,12,6,4.mid,experiment,1
18,51,13485,81,54,1,2,12,6,4.mid,experiment,1
19,53,13815,81,55,1,2,12,6,4.mid,experiment,1
20,55,14112,81,62,1,2,12,6,4.mid,experiment,1
21,57,14381,83,83,1,2,12,6,4.mid,experiment,1
22,58,14656,81,93,1,2,12,6,4.mid,experiment,1
23,60,14922,84,93,1,2,12,6,4.mid,experiment,1
24,62,15198,81,81,1,2,12,6,4.mid,experiment,1
25,64,15456,78,89,1,2,12,6,4.mid,experiment,1
26,66,15714,79,95,1,2,12,6,4.mid,experiment,1
27,69,16010,79,91,1,2,12,6,4.mid,experiment,1
28,71,16582,79,100,1,2,12,6,4.mid,experiment,1
29,73,17874,77,48,1,2,12,6,4.mid,experiment,1
30,75,18167,77,53,1,2,12,6,4.mid,experiment,1
31,77,18435,76,49,1,2,12,6,4.mid,experiment,1
32,79,18733,76,46,1,2,12,6,4.mid,experiment,1
33,81,19100,74,50,1,2,12,6,4.mid,experiment,1
34,83,20368,79,41,1,2,12,6,4.mid,experiment,1
35,85,20975,77,45,1,2,12,6,4.mid,experiment,1
36,87,21569,76,42,1,2,12,6,4.mid,experiment,1
37,89,21860,76,45,1,2,12,6,4.mid,experiment,1
38,91,22140,76,52,1,2,12,6,4.mid,experiment,1
39,93,22393,76,66,1,2,12,6,4.mid,experiment,1
40,95,22678,81,79,1,2,12,6,4.mid,experiment,1
41,96,22967,77,71,1,2,12,6,4.mid,experiment,1
42,98,23244,76,74,1,2,12,6,4.mid,experiment,1
43,101,23520,74,74,1,2,12,6,4.mid,experiment,1
44,102,23795,76,81,1,2,12,6,4.mid,experiment,1
45,104,24069,79,76,1,2,12,6,4.mid,experiment,1
46,106,24337,74,85,1,2,12,6,4.mid,experiment,1
47,109,24599,71,83,1,2,12,6,4.mid,experiment,1
48,111,25004,72,47,1,2,12,6,4.mid,experiment,1
49,113,25285,72,54,1,2,12,6,4.mid,experiment,1
50,115,25559,74,53,1,2,12,6,4.mid,experiment,1
51,117,25815,74,54,1,2,12,6,4.mid,experiment,1
52,119,26161,76,44,1,2,12,6,4.mid,experiment,1
53,121,27522,65,47,1,2,12,6,4.mid,experiment,1
54,123,27790,65,57,1,2,12,6,4.mid,experiment,1
55,125,28093,64,43,1,2,12,6,4.mid,experiment,1
56,127,28374,64,52,1,2,12,6,4.mid,experiment,1
57,129,28759,62,39,1,2,12,6,4.mid,experiment,1
58,131,29877,67,46,1,2,12,6,4.mid,experiment,1
59,133,30169,67,46,1,2,12,6,4.mid,experiment,1
60,135,30722,71,56,1,2,12,6,4.mid,experiment,1
61,135,,71,,1,2,12,6,4.mid,experiment,1
62,137,30998,72,59,1,2,12,6,4.mid,experiment,1
63,139,31277,72,62,1,2,12,6,4.mid,experiment,1
64,141,31565,73,63,1,2,12,6,4.mid,experiment,1
65,143,31831,73,73,1,2,12,6,4.mid,experiment,1
66,145,32148,74,93,1,2,12,6,4.mid,experiment,1
67,147,32752,77,93,1,2,12,6,4.mid,experiment,1
68,149,33356,76,98,1,2,12,6,4.mid,experiment,1
69,151,33939,74,94,1,2,12,6,4.mid,experiment,1
70,153,34515,72,94,1,2,12,6,4.mid,experiment,1
71,155,35099,84,95,1,2,12,6,4.mid,experiment,1
72,157,35684,84,99,1,2,12,6,4.mid,experiment,1
1,17,7999,79,66,1,2,12,15,14.mid,experiment,1
2,18,8450,78,79,1,2,12,15,14.mid,experiment,1
3,20,8849,79,85,1,2,12,15,14.mid,experiment,1
4,22,9280,76,78,1,2,12,15,14.mid,experiment,1
5,24,9745,72,58,1,2,12,15,14.mid,experiment,1
6,27,10166,67,55,1,2,12,15,14.mid,experiment,1
7,29,10497,67,57,1,2,12,15,14.mid,experiment,1
8,31,10818,67,70,1,2,12,15,14.mid,experiment,1
9,33,11244,79,74,1,2,12,15,14.mid,experiment,1
10,34,11622,78,78,1,2,12,15,14.mid,experiment,1
11,36,11970,79,79,1,2,12,15,14.mid,experiment,1
12,38,12297,76,75,1,2,12,15,14.mid,experiment,1
13,40,12622,72,79,1,2,12,15,14.mid,experiment,1
14,42,12939,76,81,1,2,12,15,14.mid,experiment,1
15,44,13274,79,87,1,2,12,15,14.mid,experiment,1
16,46,13645,84,96,1,2,12,15,14.mid,experiment,1
17,48,14035,83,66,1,2,12,15,14.mid,experiment,1
18,51,14354,81,60,1,2,12,15,14.mid,experiment,1
19,53,14635,81,65,1,2,12,15,14.mid,experiment,1
20,55,14930,81,62,1,2,12,15,14.mid,experiment,1
21,57,15298,83,68,1,2,12,15,14.mid,experiment,1
22,58,15641,81,81,1,2,12,15,14.mid,experiment,1
23,60,16002,84,82,1,2,12,15,14.mid,experiment,1
24,62,16339,81,78,1,2,12,15,14.mid,experiment,1
25,64,16662,78,65,1,2,12,15,14.mid,experiment,1
26,67,16976,79,61,1,2,12,15,14.mid,experiment,1
27,69,17313,79,53,1,2,12,15,14.mid,experiment,1
28,71,17912,79,63,1,2,12,15,14.mid,experiment,1
29,73,19101,77,56,1,2,12,15,14.mid,experiment,1
30,75,19369,77,68,1,2,12,15,14.mid,experiment,1
31,77,19653,76,60,1,2,12,15,14.mid,experiment,1
32,79,19939,76,57,1,2,12,15,14.mid,experiment,1
33,81,20405,74,48,1,2,12,15,14.mid,experiment,1
34,83,21580,79,53,1,2,12,15,14.mid,experiment,1
35,85,22165,77,55,1,2,12,15,14.mid,experiment,1
36,87,22686,76,53,1,2,12,15,14.mid,experiment,1
37,89,22955,76,56,1,2,12,15,14.mid,experiment,1
38,91,23229,76,68,1,2,12,15,14.mid,experiment,1
39,93,23480,76,75,1,2,12,15,14.mid,experiment,1
40,95,23765,81,73,1,2,12,15,14.mid,experiment,1
41,96,24153,77,71,1,2,12,15,14.mid,experiment,1
42,98,24479,76,74,1,2,12,15,14.mid,experiment,1
43,100,24796,74,81,1,2,12,15,14.mid,experiment,1
44,102,25102,76,83,1,2,12,15,14.mid,experiment,1
45,104,25409,79,88,1,2,12,15,14.mid,experiment,1
46,106,25717,74,79,1,2,12,15,14.mid,experiment,1
47,108,26055,71,72,1,2,12,15,14.mid,experiment,1
48,111,26365,72,66,1,2,12,15,14.mid,experiment,1
49,113,26641,72,51,1,2,12,15,14.mid,experiment,1
50,115,26911,74,60,1,2,12,15,14.mid,experiment,1
51,117,27176,74,57,1,2,12,15,14.mid,experiment,1
52,119,27487,76,51,1,2,12,15,14.mid,experiment,1
53,121,28505,65,51,1,2,12,15,14.mid,experiment,1
54,123,28752,65,58,1,2,12,15,14.mid,experiment,1
55,125,29306,64,50,1,2,12,15,14.mid,experiment,1
56,125,,64,,1,2,12,15,14.mid,experiment,1
57,127,29631,62,48,1,2,12,15,14.mid,experiment,1
58,129,30656,67,52,1,2,12,15,14.mid,experiment,1
59,131,30912,67,55,1,2,12,15,14.mid,experiment,1
60,133,31168,71,63,1,2,12,15,14.mid,experiment,1
61,135,31427,71,68,1,2,12,15,14.mid,experiment,1
62,137,31690,72,79,1,2,12,15,14.mid,experiment,1
63,139,31950,72,82,1,2,12,15,14.mid,experiment,1
64,141,32206,73,91,1,2,12,15,14.mid,experiment,1
65,143,32462,73,98,1,2,12,15,14.mid,experiment,1
66,145,32748,74,98,1,2,12,15,14.mid,experiment,1
67,147,33294,77,100,1,2,12,15,14.mid,experiment,1
68,149,33824,76,101,1,2,12,15,14.mid,experiment,1
69,151,34367,74,105,1,2,12,15,14.mid,experiment,1
70,153,34918,72,96,1,2,12,15,14.mid,experiment,1
71,155,35475,84,101,1,2,12,15,14.mid,experiment,1
72,157,36042,84,100,1,2,12,15,14.mid,experiment,1
1,17,7849,79,76,1,2,13,8,15.mid,experiment,1
2,18,8154,78,91,1,2,13,8,15.mid,experiment,1
3,20,8431,79,95,1,2,13,8,15.mid,experiment,1
4,22,8708,76,80,1,2,13,8,15.mid,experiment,1
5,24,8985,72,88,1,2,13,8,15.mid,experiment,1
6,27,9266,67,67,1,2,13,8,15.mid,experiment,1
7,29,9517,67,67,1,2,13,8,15.mid,experiment,1
8,31,9775,67,70,1,2,13,8,15.mid,experiment,1
9,33,10070,79,79,1,2,13,8,15.mid,experiment,1
10,34,10346,78,91,1,2,13,8,15.mid,experiment,1
11,36,10611,79,90,1,2,13,8,15.mid,experiment,1
12,38,10884,76,76,1,2,13,8,15.mid,experiment,1
13,40,11170,72,76,1,2,13,8,15.mid,experiment,1
14,42,11438,76,87,1,2,13,8,15.mid,experiment,1
15,44,11698,79,97,1,2,13,8,15.mid,experiment,1
16,46,11949,84,97,1,2,13,8,15.mid,experiment,1
17,48,12225,83,95,1,2,13,8,15.mid,experiment,1
18,51,12512,81,38,1,2,13,8,15.mid,experiment,1
19,53,12737,81,62,1,2,13,8,15.mid,experiment,1
20,55,12999,81,63,1,2,13,8,15.mid,experiment,1
21,57,13260,83,86,1,2,13,8,15.mid,experiment,1
22,58,13531,81,93,1,2,13,8,15.mid,experiment,1
23,60,13792,84,98,1,2,13,8,15.mid,experiment,1
24,62,14051,81,86,1,2,13,8,15.mid,experiment,1
25,65,14310,78,89,1,2,13,8,15.mid,experiment,1
26,66,14567,79,88,1,2,13,8,15.mid,experiment,1
27,69,14857,79,89,1,2,13,8,15.mid,experiment,1
28,71,15410,79,87,1,2,13,8,15.mid,experiment,1
29,73,16699,77,55,1,2,13,8,15.mid,experiment,1
30,75,16972,77,57,1,2,13,8,15.mid,experiment,1
31,77,17490,76,52,1,2,13,8,15.mid,experiment,1
32,77,,76,,1,2,13,8,15.mid,experiment,1
33,79,17800,74,50,1,2,13,8,15.mid,experiment,1
34,81,18901,79,59,1,2,13,8,15.mid,experiment,1
35,83,19458,77,63,1,2,13,8,15.mid,experiment,1
36,85,20025,76,59,1,2,13,8,15.mid,experiment,1
37,87,20289,76,51,1,2,13,8,15.mid,experiment,1
38,89,20544,76,55,1,2,13,8,15.mid,experiment,1
39,91,20806,76,59,1,2,13,8,15.mid,experiment,1
40,93,21097,81,76,1,2,13,8,15.mid,experiment,1
41,94,21363,77,88,1,2,13,8,15.mid,experiment,1
42,96,21618,76,88,1,2,13,8,15.mid,experiment,1
43,98,21873,74,93,1,2,13,8,15.mid,experiment,1
44,100,22142,76,88,1,2,13,8,15.mid,experiment,1
45,102,22396,79,94,1,2,13,8,15.mid,experiment,1
46,104,22647,74,94,1,2,13,8,15.mid,experiment,1
47,106,22902,71,86,1,2,13,8,15.mid,experiment,1
48,109,23161,72,63,1,2,13,8,15.mid,experiment,1
49,111,23411,72,57,1,2,13,8,15.mid,experiment,1
50,113,23649,74,63,1,2,13,8,15.mid,experiment,1
51,115,23904,74,62,1,2,13,8,15.mid,experiment,1
52,117,24203,76,55,1,2,13,8,15.mid,experiment,1
53,119,25386,65,64,1,2,13,8,15.mid,experiment,1
54,121,25654,65,62,1,2,13,8,15.mid,experiment,1
55,123,25905,64,58,1,2,13,8,15.mid,experiment,1
56,125,26171,64,57,1,2,13,8,15.mid,experiment,1
57,127,26481,62,54,1,2,13,8,15.mid,experiment,1
58,129,27659,67,58,1,2,13,8,15.mid,experiment,1
59,131,27916,67,57,1,2,13,8,15.mid,experiment,1
60,133,28170,71,50,1,2,13,8,15.mid,experiment,1
61,135,28414,71,58,1,2,13,8,15.mid,experiment,1
62,137,28665,72,67,1,2,13,8,15.mid,experiment,1
63,139,28913,72,72,1,2,13,8,15.mid,experiment,1
64,141,29168,73,76,1,2,13,8,15.mid,experiment,1
65,143,29412,73,82,1,2,13,8,15.mid,experiment,1
66,145,29695,74,105,1,2,13,8,15.mid,experiment,1
67,147,30223,77,100,1,2,13,8,15.mid,experiment,1
68,149,30740,76,89,1,2,13,8,15.mid,experiment,1
69,151,31269,74,97,1,2,13,8,15.mid,experiment,1
70,153,31793,72,97,1,2,13,8,15.mid,experiment,1
71,155,32336,84,110,1,2,13,8,15.mid,experiment,1
72,157,32952,84,104,1,2,13,8,15.mid,experiment,1
1,17,8490,79,76,1,2,15,1,5.mid,experiment,1
2,18,8786,78,81,1,2,15,1,5.mid,experiment,1
3,20,9072,79,75,1,2,15,1,5.mid,experiment,1
4,22,9347,76,72,1,2,15,1,5.mid,experiment,1
5,24,9651,72,68,1,2,15,1,5.mid,experiment,1
6,27,9954,67,33,1,2,15,1,5.mid,experiment,1
7,29,10225,67,50,1,2,15,1,5.mid,experiment,1
8,31,10488,67,59,1,2,15,1,5.mid,experiment,1
9,33,10755,79,75,1,2,15,1,5.mid,experiment,1
10,34,11021,78,79,1,2,15,1,5.mid,experiment,1
11,36,11311,79,78,1,2,15,1,5.mid,experiment,1
12,38,11571,76,72,1,2,15,1,5.mid,experiment,1
13,40,11857,72,81,1,2,15,1,5.mid,experiment,1
14,42,12125,76,81,1,2,15,1,5.mid,experiment,1
15,44,12433,79,76,1,2,15,1,5.mid,experiment,1
16,46,12692,84,75,1,2,15,1,5.mid,experiment,1
17,48,12991,83,70,1,2,15,1,5.mid,experiment,1
18,50,13261,81,65,1,2,15,1,5.mid,experiment,1
19,53,13524,81,60,1,2,15,1,5.mid,experiment,1
20,55,13783,81,70,1,2,15,1,5.mid,experiment,1
21,57,14080,83,65,1,2,15,1,5.mid,experiment,1
22,58,14343,81,80,1,2,15,1,5.mid,experiment,1
23,60,14627,84,89,1,2,15,1,5.mid,experiment,1
24,62,14887,81,86,1,2,15,1,5.mid,experiment,1
25,64,15171,78,79,1,2,15,1,5.mid,experiment,1
26,66,15442,79,76,1,2,15,1,5.mid,experiment,1
27,69,15739,79,70,1,2,15,1,5.mid,experiment,1
28,71,16321,79,67,1,2,15,1,5.mid,experiment,1
29,73,17402,77,58,1,2,15,1,5.mid,experiment,1
30,75,17662,77,62,1,2,15,1,5.mid,experiment,1
31,77,17933,76,52,1,2,15,1,5.mid,experiment,1
32,79,18192,76,52,1,2,15,1,5.mid,experiment,1
33,81,18500,74,45,1,2,15,1,5.mid,experiment,1
34,83,19586,79,54,1,2,15,1,5.mid,experiment,1
35,85,20133,77,56,1,2,15,1,5.mid,experiment,1
36,87,20715,76,49,1,2,15,1,5.mid,experiment,1
37,89,20966,76,51,1,2,15,1,5.mid,experiment,1
38,91,21225,76,61,1,2,15,1,5.mid,experiment,1
39,93,21481,76,70,1,2,15,1,5.mid,experiment,1
40,95,21765,81,72,1,2,15,1,5.mid,experiment,1
41,96,22019,77,68,1,2,15,1,5.mid,experiment,1
42,98,22298,76,71,1,2,15,1,5.mid,experiment,1
43,100,22546,74,85,1,2,15,1,5.mid,experiment,1
44,102,22812,76,80,1,2,15,1,5.mid,experiment,1
45,104,23078,79,78,1,2,15,1,5.mid,experiment,1
46,106,23347,74,80,1,2,15,1,5.mid,experiment,1
47,108,23594,71,78,1,2,15,1,5.mid,experiment,1
48,111,23872,72,72,1,2,15,1,5.mid,experiment,1
49,113,24128,72,67,1,2,15,1,5.mid,experiment,1
50,115,24393,74,68,1,2,15,1,5.mid,experiment,1
51,117,24644,74,63,1,2,15,1,5.mid,experiment,1
52,119,24935,76,58,1,2,15,1,5.mid,experiment,1
53,121,26033,65,60,1,2,15,1,5.mid,experiment,1
54,123,26288,65,60,1,2,15,1,5.mid,experiment,1
55,125,26825,64,47,1,2,15,1,5.mid,experiment,1
56,125,,64,,1,2,15,1,5.mid,experiment,1
57,127,27123,62,57,1,2,15,1,5.mid,experiment,1
58,129,28272,67,50,1,2,15,1,5.mid,experiment,1
59,131,28524,67,57,1,2,15,1,5.mid,experiment,1
60,133,28781,71,66,1,2,15,1,5.mid,experiment,1
61,135,29039,71,56,1,2,15,1,5.mid,experiment,1
62,137,29319,72,62,1,2,15,1,5.mid,experiment,1
63,139,29568,72,66,1,2,15,1,5.mid,experiment,1
64,141,29825,73,67,1,2,15,1,5.mid,experiment,1
65,143,30068,73,72,1,2,15,1,5.mid,experiment,1
66,145,30369,74,83,1,2,15,1,5.mid,experiment,1
67,146,30952,77,72,1,2,15,1,5.mid,experiment,1
68,148,31497,76,75,1,2,15,1,5.mid,experiment,1
69,150,32054,74,88,1,2,15,1,5.mid,experiment,1
70,152,32616,72,89,1,2,15,1,5.mid,experiment,1
71,154,33193,84,88,1,2,15,1,5.mid,experiment,1
72,157,33780,84,91,1,2,15,1,5.mid,experiment,1
1,17,7780,79,78,1,2,16,13,3.mid,experiment,1
2,18,8077,78,87,1,2,16,13,3.mid,experiment,1
3,20,8369,79,88,1,2,16,13,3.mid,experiment,1
4,22,8651,76,86,1,2,16,13,3.mid,experiment,1
5,24,8952,72,72,1,2,16,13,3.mid,experiment,1
6,27,9241,67,56,1,2,16,13,3.mid,experiment,1
7,29,9529,67,56,1,2,16,13,3.mid,experiment,1
8,31,9809,67,60,1,2,16,13,3.mid,experiment,1
9,33,10113,79,81,1,2,16,13,3.mid,experiment,1
10,34,10405,78,87,1,2,16,13,3.mid,experiment,1
11,36,10671,79,84,1,2,16,13,3.mid,experiment,1
12,38,10967,76,75,1,2,16,13,3.mid,experiment,1
13,41,11251,72,77,1,2,16,13,3.mid,experiment,1
14,42,11557,76,81,1,2,16,13,3.mid,experiment,1
15,44,11853,79,90,1,2,16,13,3.mid,experiment,1
16,47,12113,84,86,1,2,16,13,3.mid,experiment,1
17,48,12423,83,68,1,2,16,13,3.mid,experiment,1
18,51,12730,81,49,1,2,16,13,3.mid,experiment,1
19,53,13027,81,46,1,2,16,13,3.mid,experiment,1
20,55,13316,81,48,1,2,16,13,3.mid,experiment,1
21,57,13623,83,86,1,2,16,13,3.mid,experiment,1
22,58,13922,81,81,1,2,16,13,3.mid,experiment,1
23,60,14217,84,88,1,2,16,13,3.mid,experiment,1
24,63,14508,81,85,1,2,16,13,3.mid,experiment,1
25,64,14813,78,81,1,2,16,13,3.mid,experiment,1
26,67,15080,79,85,1,2,16,13,3.mid,experiment,1
27,69,15379,79,91,1,2,16,13,3.mid,experiment,1
28,71,15985,79,86,1,2,16,13,3.mid,experiment,1
29,73,17159,77,61,1,2,16,13,3.mid,experiment,1
30,75,17451,77,63,1,2,16,13,3.mid,experiment,1
31,77,17733,76,56,1,2,16,13,3.mid,experiment,1
32,79,18005,76,58,1,2,16,13,3.mid,experiment,1
33,81,18339,74,53,1,2,16,13,3.mid,experiment,1
34,83,19521,79,70,1,2,16,13,3.mid,experiment,1
35,84,20111,77,67,1,2,16,13,3.mid,experiment,1
36,86,20705,76,52,1,2,16,13,3.mid,experiment,1
37,89,20993,76,57,1,2,16,13,3.mid,experiment,1
38,91,21279,76,61,1,2,16,13,3.mid,experiment,1
39,93,21567,76,67,1,2,16,13,3.mid,experiment,1
40,95,21877,81,90,1,2,16,13,3.mid,experiment,1
41,96,22173,77,87,1,2,16,13,3.mid,experiment,1
42,98,22459,76,86,1,2,16,13,3.mid,experiment,1
43,101,22755,74,81,1,2,16,13,3.mid,experiment,1
44,102,23053,76,83,1,2,16,13,3.mid,experiment,1
45,105,23346,79,84,1,2,16,13,3.mid,experiment,1
46,106,23639,74,83,1,2,16,13,3.mid,experiment,1
47,109,23927,71,68,1,2,16,13,3.mid,experiment,1
48,111,24228,72,62,1,2,16,13,3.mid,experiment,1
49,113,24515,72,56,1,2,16,13,3.mid,experiment,1
50,115,24806,74,53,1,2,16,13,3.mid,experiment,1
51,117,25077,74,58,1,2,16,13,3.mid,experiment,1
52,119,25403,76,52,1,2,16,13,3.mid,experiment,1
53,121,26553,65,56,1,2,16,13,3.mid,experiment,1
54,123,26834,65,60,1,2,16,13,3.mid,experiment,1
55,125,27127,64,51,1,2,16,13,3.mid,experiment,1
56,127,27401,64,57,1,2,16,13,3.mid,experiment,1
57,129,27731,62,49,1,2,16,13,3.mid,experiment,1
58,131,28939,67,60,1,2,16,13,3.mid,experiment,1
59,133,29231,67,55,1,2,16,13,3.mid,experiment,1
60,135,29507,71,63,1,2,16,13,3.mid,experiment,1
61,135,,71,,1,2,16,13,3.mid,experiment,1
62,137,30075,72,68,1,2,16,13,3.mid,experiment,1
63,139,30365,72,62,1,2,16,13,3.mid,experiment,1
64,141,30662,73,65,1,2,16,13,3.mid,experiment,1
65,143,30925,73,63,1,2,16,13,3.mid,experiment,1
66,145,31255,74,86,1,2,16,13,3.mid,experiment,1
67,146,31816,77,88,1,2,16,13,3.mid,experiment,1
68,148,32401,76,81,1,2,16,13,3.mid,experiment,1
69,151,32960,74,91,1,2,16,13,3.mid,experiment,1
70,153,33549,72,90,1,2,16,13,3.mid,experiment,1
71,155,34171,84,90,1,2,16,13,3.mid,experiment,1
72,157,34777,84,91,1,2,16,13,3.mid,experiment,1
1,17,7898,79,70,1,2,17,1,4.mid,experiment,1
2,18,8213,78,83,1,2,17,1,4.mid,experiment,1
3,20,8476,79,83,1,2,17,1,4.mid,experiment,1
4,22,8768,76,90,1,2,17,1,4.mid,experiment,1
5,24,9061,72,83,1,2,17,1,4.mid,experiment,1
6,27,9356,67,68,1,2,17,1,4.mid,experiment,1
7,29,9645,67,60,1,2,17,1,4.mid,experiment,1
8,31,9943,67,57,1,2,17,1,4.mid,experiment,1
9,33,10261,79,81,1,2,17,1,4.mid,experiment,1
10,34,10549,78,87,1,2,17,1,4.mid,experiment,1
11,36,10834,79,88,1,2,17,1,4.mid,experiment,1
12,38,11132,76,82,1,2,17,1,4.mid,experiment,1
13,40,11417,72,88,1,2,17,1,4.mid,experiment,1
14,42,11709,76,94,1,2,17,1,4.mid,experiment,1
15,44,11996,79,99,1,2,17,1,4.mid,experiment,1
16,46,12286,84,99,1,2,17,1,4.mid,experiment,1
17,48,12610,83,82,1,2,17,1,4.mid,experiment,1
18,51,13185,81,65,1,2,17,1,4.mid,experiment,1
19,53,13462,81,54,1,2,17,1,4.mid,experiment,1
20,53,,81,,1,2,17,1,4.mid,experiment,1
21,55,13775,83,87,1,2,17,1,4.mid,experiment,1
22,56,14049,81,94,1,2,17,1,4.mid,experiment,1
23,58,14345,84,97,1,2,17,1,4.mid,experiment,1
24,60,14622,81,88,1,2,17,1,4.mid,experiment,1
25,61,14916,78,91,1,2,17,1,4.mid,experiment,1
26,64,15192,79,93,1,2,17,1,4.mid,experiment,1
27,67,15504,79,91,1,2,17,1,4.mid,experiment,1
28,69,16089,79,83,1,2,17,1,4.mid,experiment,1
29,71,17292,77,58,1,2,17,1,4.mid,experiment,1
30,73,17544,77,61,1,2,17,1,4.mid,experiment,1
31,75,17823,76,53,1,2,17,1,4.mid,experiment,1
32,77,18095,76,55,1,2,17,1,4.mid,experiment,1
33,79,18417,74,51,1,2,17,1,4.mid,experiment,1
34,81,19561,79,63,1,2,17,1,4.mid,experiment,1
35,83,20134,77,63,1,2,17,1,4.mid,experiment,1
36,85,20727,76,63,1,2,17,1,4.mid,experiment,1
37,87,21012,76,62,1,2,17,1,4.mid,experiment,1
38,89,21286,76,59,1,2,17,1,4.mid,experiment,1
39,91,21574,76,49,1,2,17,1,4.mid,experiment,1
40,93,21854,81,78,1,2,17,1,4.mid,experiment,1
41,94,22147,77,79,1,2,17,1,4.mid,experiment,1
42,95,22422,76,87,1,2,17,1,4.mid,experiment,1
43,98,22701,74,91,1,2,17,1,4.mid,experiment,1
44,100,23001,76,95,1,2,17,1,4.mid,experiment,1
45,102,23256,79,90,1,2,17,1,4.mid,experiment,1
46,104,23546,74,91,1,2,17,1,4.mid,experiment,1
47,105,23814,71,83,1,2,17,1,4.mid,experiment,1
48,109,24133,72,53,1,2,17,1,4.mid,experiment,1
49,111,24396,72,59,1,2,17,1,4.mid,experiment,1
50,113,24670,74,61,1,2,17,1,4.mid,experiment,1
51,115,24944,74,48,1,2,17,1,4.mid,experiment,1
52,117,25255,76,46,1,2,17,1,4.mid,experiment,1
53,119,26392,65,59,1,2,17,1,4.mid,experiment,1
54,121,26649,65,60,1,2,17,1,4.mid,experiment,1
55,123,26941,64,51,1,2,17,1,4.mid,experiment,1
56,125,27208,64,51,1,2,17,1,4.mid,experiment,1
57,127,27550,62,42,1,2,17,1,4.mid,experiment,1
58,129,28637,67,43,1,2,17,1,4.mid,experiment,1
59,131,28914,67,50,1,2,17,1,4.mid,experiment,1
60,133,29178,71,54,1,2,17,1,4.mid,experiment,1
61,135,29441,71,67,1,2,17,1,4.mid,experiment,1
62,137,29708,72,70,1,2,17,1,4.mid,experiment,1
63,139,29971,72,72,1,2,17,1,4.mid,experiment,1
64,141,30246,73,75,1,2,17,1,4.mid,experiment,1
65,143,30510,73,75,1,2,17,1,4.mid,experiment,1
66,145,30802,74,104,1,2,17,1,4.mid,experiment,1
67,146,31370,77,104,1,2,17,1,4.mid,experiment,1
68,148,31930,76,99,1,2,17,1,4.mid,experiment,1
69,150,32504,74,96,1,2,17,1,4.mid,experiment,1
70,153,33069,72,99,1,2,17,1,4.mid,experiment,1
71,155,33644,84,106,1,2,17,1,4.mid,experiment,1
72,157,34254,84,98,1,2,17,1,4.mid,experiment,1
1,17,7938,79,73,1,2,17,2,1.mid,experiment,1
2,18,8283,78,78,1,2,17,2,1.mid,experiment,1
3,20,8561,79,82,1,2,17,2,1.mid,experiment,1
4,22,8851,76,91,1,2,17,2,1.mid,experiment,1
5,24,9155,72,82,1,2,17,2,1.mid,experiment,1
6,27,9455,67,70,1,2,17,2,1.mid,experiment,1
7,29,9745,67,64,1,2,17,2,1.mid,experiment,1
8,31,10044,67,55,1,2,17,2,1.mid,experiment,1
9,33,10369,79,80,1,2,17,2,1.mid,experiment,1
10,34,10672,78,86,1,2,17,2,1.mid,experiment,1
11,36,10970,79,81,1,2,17,2,1.mid,experiment,1
12,38,11267,76,93,1,2,17,2,1.mid,experiment,1
13,40,11559,72,91,1,2,17,2,1.mid,experiment,1
14,42,11848,76,91,1,2,17,2,1.mid,experiment,1
15,44,12162,79,96,1,2,17,2,1.mid,experiment,1
16,46,12446,84,94,1,2,17,2,1.mid,experiment,1
17,48,12752,83,81,1,2,17,2,1.mid,experiment,1
18,51,13385,81,65,1,2,17,2,1.mid,experiment,1
19,53,13673,81,51,1,2,17,2,1.mid,experiment,1
20,53,,81,,1,2,17,2,1.mid,experiment,1
21,55,14009,83,89,1,2,17,2,1.mid,experiment,1
22,56,14306,81,100,1,2,17,2,1.mid,experiment,1
23,58,14607,84,95,1,2,17,2,1.mid,experiment,1
24,60,14890,81,97,1,2,17,2,1.mid,experiment,1
25,61,15191,78,91,1,2,17,2,1.mid,experiment,1
26,64,15477,79,96,1,2,17,2,1.mid,experiment,1
27,67,15807,79,104,1,2,17,2,1.mid,experiment,1
28,69,16435,79,75,1,2,17,2,1.mid,experiment,1
29,71,17709,77,60,1,2,17,2,1.mid,experiment,1
30,73,18000,77,68,1,2,17,2,1.mid,experiment,1
31,75,18274,76,65,1,2,17,2,1.mid,experiment,1
32,77,18557,76,55,1,2,17,2,1.mid,experiment,1
33,79,18889,74,46,1,2,17,2,1.mid,experiment,1
34,81,20108,79,62,1,2,17,2,1.mid,experiment,1
35,83,20725,77,66,1,2,17,2,1.mid,experiment,1
36,85,21353,76,58,1,2,17,2,1.mid,experiment,1
37,87,21632,76,64,1,2,17,2,1.mid,experiment,1
38,89,21928,76,59,1,2,17,2,1.mid,experiment,1
39,89,,76,,1,2,17,2,1.mid,experiment,1
40,91,22541,81,78,1,2,17,2,1.mid,experiment,1
41,92,22821,77,81,1,2,17,2,1.mid,experiment,1
42,93,23109,76,97,1,2,17,2,1.mid,experiment,1
43,96,23393,74,95,1,2,17,2,1.mid,experiment,1
44,98,23700,76,91,1,2,17,2,1.mid,experiment,1
45,100,23994,79,78,1,2,17,2,1.mid,experiment,1
46,102,24274,74,93,1,2,17,2,1.mid,experiment,1
47,104,24560,71,74,1,2,17,2,1.mid,experiment,1
48,107,24857,72,66,1,2,17,2,1.mid,experiment,1
49,109,25137,72,70,1,2,17,2,1.mid,experiment,1
50,111,25416,74,62,1,2,17,2,1.mid,experiment,1
51,113,25703,74,55,1,2,17,2,1.mid,experiment,1
52,115,26040,76,45,1,2,17,2,1.mid,experiment,1
53,117,27227,65,53,1,2,17,2,1.mid,experiment,1
54,119,27498,65,57,1,2,17,2,1.mid,experiment,1
55,121,27795,64,53,1,2,17,2,1.mid,experiment,1
56,123,28070,64,51,1,2,17,2,1.mid,experiment,1
57,125,28397,62,42,1,2,17,2,1.mid,experiment,1
58,127,29563,67,71,1,2,17,2,1.mid,experiment,1
59,129,29848,67,69,1,2,17,2,1.mid,experiment,1
60,131,30141,71,58,1,2,17,2,1.mid,experiment,1
61,133,30423,71,66,1,2,17,2,1.mid,experiment,1
62,135,30692,72,68,1,2,17,2,1.mid,experiment,1
63,137,30956,72,79,1,2,17,2,1.mid,experiment,1
64,139,31253,73,76,1,2,17,2,1.mid,experiment,1
65,141,31513,73,70,1,2,17,2,1.mid,experiment,1
66,143,31817,74,90,1,2,17,2,1.mid,experiment,1
67,144,32425,77,96,1,2,17,2,1.mid,experiment,1
68,146,32988,76,97,1,2,17,2,1.mid,experiment,1
69,148,33572,74,103,1,2,17,2,1.mid,experiment,1
70,150,34163,72,101,1,2,17,2,1.mid,experiment,1
71,152,34786,84,105,1,2,17,2,1.mid,experiment,1
72,155,35455,84,93,1,2,17,2,1.mid,experiment,1
1,17,7877,79,74,1,2,17,6,3.mid,experiment,1
2,18,8185,78,78,1,2,17,6,3.mid,experiment,1
3,20,8469,79,78,1,2,17,6,3.mid,experiment,1
4,22,8760,76,88,1,2,17,6,3.mid,experiment,1
5,24,9067,72,79,1,2,17,6,3.mid,experiment,1
6,27,9379,67,55,1,2,17,6,3.mid,experiment,1
7,29,9664,67,66,1,2,17,6,3.mid,experiment,1
8,31,9944,67,65,1,2,17,6,3.mid,experiment,1
9,33,10263,79,55,1,2,17,6,3.mid,experiment,1
10,34,10537,78,79,1,2,17,6,3.mid,experiment,1
11,36,10833,79,93,1,2,17,6,3.mid,experiment,1
12,38,11115,76,89,1,2,17,6,3.mid,experiment,1
13,40,11413,72,94,1,2,17,6,3.mid,experiment,1
14,42,11717,76,91,1,2,17,6,3.mid,experiment,1
15,44,12005,79,93,1,2,17,6,3.mid,experiment,1
16,46,12298,84,96,1,2,17,6,3.mid,experiment,1
17,48,12623,83,78,1,2,17,6,3.mid,experiment,1
18,51,12914,81,66,1,2,17,6,3.mid,experiment,1
19,53,13211,81,52,1,2,17,6,3.mid,experiment,1
20,55,13481,81,57,1,2,17,6,3.mid,experiment,1
21,57,13797,83,81,1,2,17,6,3.mid,experiment,1
22,58,14105,81,89,1,2,17,6,3.mid,experiment,1
23,60,14397,84,84,1,2,17,6,3.mid,experiment,1
24,62,14673,81,82,1,2,17,6,3.mid,experiment,1
25,63,14979,78,81,1,2,17,6,3.mid,experiment,1
26,66,15283,79,78,1,2,17,6,3.mid,experiment,1
27,69,15599,79,90,1,2,17,6,3.mid,experiment,1
28,71,16237,79,65,1,2,17,6,3.mid,experiment,1
29,73,17528,77,57,1,2,17,6,3.mid,experiment,1
30,75,17805,77,61,1,2,17,6,3.mid,experiment,1
31,77,18091,76,52,1,2,17,6,3.mid,experiment,1
32,79,18379,76,47,1,2,17,6,3.mid,experiment,1
33,81,18697,74,46,1,2,17,6,3.mid,experiment,1
34,83,19867,79,63,1,2,17,6,3.mid,experiment,1
35,85,20483,77,54,1,2,17,6,3.mid,experiment,1
36,87,21073,76,53,1,2,17,6,3.mid,experiment,1
37,89,21361,76,56,1,2,17,6,3.mid,experiment,1
38,91,21641,76,61,1,2,17,6,3.mid,experiment,1
39,93,21925,76,45,1,2,17,6,3.mid,experiment,1
40,95,22273,81,62,1,2,17,6,3.mid,experiment,1
41,96,22557,77,72,1,2,17,6,3.mid,experiment,1
42,97,22837,76,85,1,2,17,6,3.mid,experiment,1
43,100,23118,74,93,1,2,17,6,3.mid,experiment,1
44,102,23414,76,88,1,2,17,6,3.mid,experiment,1
45,104,23698,79,87,1,2,17,6,3.mid,experiment,1
46,106,23984,74,91,1,2,17,6,3.mid,experiment,1
47,107,24252,71,79,1,2,17,6,3.mid,experiment,1
48,111,24547,72,63,1,2,17,6,3.mid,experiment,1
49,113,24826,72,62,1,2,17,6,3.mid,experiment,1
50,115,25101,74,63,1,2,17,6,3.mid,experiment,1
51,115,,74,,1,2,17,6,3.mid,experiment,1
52,117,25677,76,49,1,2,17,6,3.mid,experiment,1
53,119,26889,65,56,1,2,17,6,3.mid,experiment,1
54,121,27167,65,62,1,2,17,6,3.mid,experiment,1
55,123,27447,64,50,1,2,17,6,3.mid,experiment,1
56,125,27733,64,51,1,2,17,6,3.mid,experiment,1
57,127,28049,62,48,1,2,17,6,3.mid,experiment,1
58,129,29553,67,68,1,2,17,6,3.mid,experiment,1
59,131,30073,67,70,1,2,17,6,3.mid,experiment,1
60,133,30353,71,58,1,2,17,6,3.mid,experiment,1
61,135,30625,71,60,1,2,17,6,3.mid,experiment,1
62,137,30898,72,72,1,2,17,6,3.mid,experiment,1
63,139,31159,72,74,1,2,17,6,3.mid,experiment,1
64,141,31443,73,78,1,2,17,6,3.mid,experiment,1
65,143,31729,73,74,1,2,17,6,3.mid,experiment,1
66,145,32031,74,93,1,2,17,6,3.mid,experiment,1
67,146,32635,77,98,1,2,17,6,3.mid,experiment,1
68,148,33225,76,96,1,2,17,6,3.mid,experiment,1
69,150,33825,74,98,1,2,17,6,3.mid,experiment,1
70,152,34422,72,97,1,2,17,6,3.mid,experiment,1
71,154,35033,84,93,1,2,17,6,3.mid,experiment,1
72,157,35679,84,83,1,2,17,6,3.mid,experiment,1
1,17,7895,79,72,1,2,17,10,10.mid,experiment,1
2,18,8205,78,81,1,2,17,10,10.mid,experiment,1
3,20,8487,79,81,1,2,17,10,10.mid,experiment,1
4,22,8779,76,91,1,2,17,10,10.mid,experiment,1
5,24,9091,72,91,1,2,17,10,10.mid,experiment,1
6,27,9421,67,76,1,2,17,10,10.mid,experiment,1
7,29,9702,67,72,1,2,17,10,10.mid,experiment,1
8,31,10019,67,49,1,2,17,10,10.mid,experiment,1
9,33,10313,79,88,1,2,17,10,10.mid,experiment,1
10,34,10607,78,83,1,2,17,10,10.mid,experiment,1
11,36,10887,79,73,1,2,17,10,10.mid,experiment,1
12,38,11170,76,75,1,2,17,10,10.mid,experiment,1
13,40,11477,72,80,1,2,17,10,10.mid,experiment,1
14,42,11771,76,88,1,2,17,10,10.mid,experiment,1
15,44,12051,79,98,1,2,17,10,10.mid,experiment,1
16,46,12341,84,97,1,2,17,10,10.mid,experiment,1
17,48,12663,83,90,1,2,17,10,10.mid,experiment,1
18,51,12967,81,67,1,2,17,10,10.mid,experiment,1
19,53,13256,81,62,1,2,17,10,10.mid,experiment,1
20,53,,81,,1,2,17,10,10.mid,experiment,1
21,55,13886,83,81,1,2,17,10,10.mid,experiment,1
22,56,14205,81,84,1,2,17,10,10.mid,experiment,1
23,58,14505,84,88,1,2,17,10,10.mid,experiment,1
24,60,14783,81,87,1,2,17,10,10.mid,experiment,1
25,61,15082,78,88,1,2,17,10,10.mid,experiment,1
26,64,15371,79,88,1,2,17,10,10.mid,experiment,1
27,67,15710,79,103,1,2,17,10,10.mid,experiment,1
28,69,16320,79,83,1,2,17,10,10.mid,experiment,1
29,71,17544,77,62,1,2,17,10,10.mid,experiment,1
30,73,17815,77,58,1,2,17,10,10.mid,experiment,1
31,75,18084,76,55,1,2,17,10,10.mid,experiment,1
32,77,18360,76,65,1,2,17,10,10.mid,experiment,1
33,79,18683,74,55,1,2,17,10,10.mid,experiment,1
34,81,19874,79,70,1,2,17,10,10.mid,experiment,1
35,83,20489,77,55,1,2,17,10,10.mid,experiment,1
36,85,21092,76,68,1,2,17,10,10.mid,experiment,1
37,87,21383,76,69,1,2,17,10,10.mid,experiment,1
38,89,21665,76,63,1,2,17,10,10.mid,experiment,1
39,91,21944,76,56,1,2,17,10,10.mid,experiment,1
40,93,22268,81,76,1,2,17,10,10.mid,experiment,1
41,94,22519,77,78,1,2,17,10,10.mid,experiment,1
42,96,22818,76,85,1,2,17,10,10.mid,experiment,1
43,98,23073,74,83,1,2,17,10,10.mid,experiment,1
44,100,23382,76,85,1,2,17,10,10.mid,experiment,1
45,102,23654,79,88,1,2,17,10,10.mid,experiment,1
46,104,23935,74,93,1,2,17,10,10.mid,experiment,1
47,106,24222,71,81,1,2,17,10,10.mid,experiment,1
48,109,24526,72,65,1,2,17,10,10.mid,experiment,1
49,111,24793,72,69,1,2,17,10,10.mid,experiment,1
50,113,25083,74,62,1,2,17,10,10.mid,experiment,1
51,115,25350,74,62,1,2,17,10,10.mid,experiment,1
52,117,25691,76,53,1,2,17,10,10.mid,experiment,1
53,119,26887,65,56,1,2,17,10,10.mid,experiment,1
54,121,27166,65,60,1,2,17,10,10.mid,experiment,1
55,123,27482,64,32,1,2,17,10,10.mid,experiment,1
56,125,27739,64,49,1,2,17,10,10.mid,experiment,1
57,127,28076,62,51,1,2,17,10,10.mid,experiment,1
58,129,29245,67,55,1,2,17,10,10.mid,experiment,1
59,131,29533,67,65,1,2,17,10,10.mid,experiment,1
60,133,29805,71,62,1,2,17,10,10.mid,experiment,1
61,135,30094,71,67,1,2,17,10,10.mid,experiment,1
62,137,30358,72,75,1,2,17,10,10.mid,experiment,1
63,139,30637,72,78,1,2,17,10,10.mid,experiment,1
64,141,31179,73,78,1,2,17,10,10.mid,experiment,1
65,141,,73,,1,2,17,10,10.mid,experiment,1
66,143,31480,74,91,1,2,17,10,10.mid,experiment,1
67,144,32072,77,93,1,2,17,10,10.mid,experiment,1
68,146,32627,76,94,1,2,17,10,10.mid,experiment,1
69,148,33218,74,95,1,2,17,10,10.mid,experiment,1
70,150,33794,72,86,1,2,17,10,10.mid,experiment,1
71,152,34383,84,96,1,2,17,10,10.mid,experiment,1
72,155,35008,84,98,1,2,17,10,10.mid,experiment,1
1,17,7897,79,70,1,2,17,11,6.mid,experiment,1
2,18,8219,78,83,1,2,17,11,6.mid,experiment,1
3,20,8487,79,81,1,2,17,11,6.mid,experiment,1
4,22,8763,76,87,1,2,17,11,6.mid,experiment,1
5,24,9061,72,87,1,2,17,11,6.mid,experiment,1
6,27,9357,67,69,1,2,17,11,6.mid,experiment,1
7,29,9640,67,77,1,2,17,11,6.mid,experiment,1
8,31,9903,67,75,1,2,17,11,6.mid,experiment,1
9,33,10220,79,81,1,2,17,11,6.mid,experiment,1
10,34,10519,78,87,1,2,17,11,6.mid,experiment,1
11,36,10805,79,94,1,2,17,11,6.mid,experiment,1
12,38,11078,76,76,1,2,17,11,6.mid,experiment,1
13,40,11374,72,76,1,2,17,11,6.mid,experiment,1
14,42,11653,76,84,1,2,17,11,6.mid,experiment,1
15,44,11939,79,99,1,2,17,11,6.mid,experiment,1
16,46,12219,84,100,1,2,17,11,6.mid,experiment,1
17,48,12525,83,98,1,2,17,11,6.mid,experiment,1
18,51,12832,81,74,1,2,17,11,6.mid,experiment,1
19,53,13118,81,75,1,2,17,11,6.mid,experiment,1
20,55,13391,81,68,1,2,17,11,6.mid,experiment,1
21,57,13709,83,91,1,2,17,11,6.mid,experiment,1
22,58,13993,81,97,1,2,17,11,6.mid,experiment,1
23,60,14285,84,96,1,2,17,11,6.mid,experiment,1
24,62,14565,81,91,1,2,17,11,6.mid,experiment,1
25,64,14853,78,87,1,2,17,11,6.mid,experiment,1
26,66,15127,79,91,1,2,17,11,6.mid,experiment,1
27,69,15425,79,103,1,2,17,11,6.mid,experiment,1
28,71,16005,79,91,1,2,17,11,6.mid,experiment,1
29,73,17247,77,68,1,2,17,11,6.mid,experiment,1
30,75,17521,77,68,1,2,17,11,6.mid,experiment,1
31,77,17797,76,58,1,2,17,11,6.mid,experiment,1
32,79,18064,76,59,1,2,17,11,6.mid,experiment,1
33,81,18373,74,56,1,2,17,11,6.mid,experiment,1
34,83,19533,79,61,1,2,17,11,6.mid,experiment,1
35,85,20133,77,53,1,2,17,11,6.mid,experiment,1
36,87,20737,76,56,1,2,17,11,6.mid,experiment,1
37,89,21019,76,66,1,2,17,11,6.mid,experiment,1
38,91,21303,76,62,1,2,17,11,6.mid,experiment,1
39,93,21586,76,58,1,2,17,11,6.mid,experiment,1
40,95,21889,81,95,1,2,17,11,6.mid,experiment,1
41,96,22167,77,82,1,2,17,11,6.mid,experiment,1
42,98,22447,76,91,1,2,17,11,6.mid,experiment,1
43,100,22723,74,95,1,2,17,11,6.mid,experiment,1
44,102,23016,76,88,1,2,17,11,6.mid,experiment,1
45,104,23299,79,93,1,2,17,11,6.mid,experiment,1
46,106,23581,74,91,1,2,17,11,6.mid,experiment,1
47,109,23868,71,78,1,2,17,11,6.mid,experiment,1
48,111,24147,72,68,1,2,17,11,6.mid,experiment,1
49,113,24429,72,60,1,2,17,11,6.mid,experiment,1
50,115,24705,74,67,1,2,17,11,6.mid,experiment,1
51,117,24987,74,63,1,2,17,11,6.mid,experiment,1
52,119,25311,76,48,1,2,17,11,6.mid,experiment,1
53,121,26495,65,68,1,2,17,11,6.mid,experiment,1
54,123,26779,65,70,1,2,17,11,6.mid,experiment,1
55,125,27055,64,61,1,2,17,11,6.mid,experiment,1
56,127,27339,64,54,1,2,17,11,6.mid,experiment,1
57,129,27681,62,53,1,2,17,11,6.mid,experiment,1
58,131,28879,67,54,1,2,17,11,6.mid,experiment,1
59,133,29156,67,62,1,2,17,11,6.mid,experiment,1
60,135,29431,71,64,1,2,17,11,6.mid,experiment,1
61,137,29705,71,59,1,2,17,11,6.mid,experiment,1
62,139,29983,72,65,1,2,17,11,6.mid,experiment,1
63,141,30255,72,66,1,2,17,11,6.mid,experiment,1
64,143,30541,73,59,1,2,17,11,6.mid,experiment,1
65,143,,73,,1,2,17,11,6.mid,experiment,1
66,145,31115,74,97,1,2,17,11,6.mid,experiment,1
67,146,31697,77,98,1,2,17,11,6.mid,experiment,1
68,148,32277,76,93,1,2,17,11,6.mid,experiment,1
69,150,32855,74,100,1,2,17,11,6.mid,experiment,1
70,152,33463,72,91,1,2,17,11,6.mid,experiment,1
71,154,34079,84,95,1,2,17,11,6.mid,experiment,1
72,157,34741,84,84,1,2,17,11,6.mid,experiment,1
1,17,7886,79,72,1,2,17,12,2.mid,experiment,1
2,18,8208,78,81,1,2,17,12,2.mid,experiment,1
3,20,8493,79,81,1,2,17,12,2.mid,experiment,1
4,22,8775,76,91,1,2,17,12,2.mid,experiment,1
5,24,9080,72,84,1,2,17,12,2.mid,experiment,1
6,27,9416,67,63,1,2,17,12,2.mid,experiment,1
7,29,9689,67,67,1,2,17,12,2.mid,experiment,1
8,31,9998,67,57,1,2,17,12,2.mid,experiment,1
9,33,10308,79,86,1,2,17,12,2.mid,experiment,1
10,34,10594,78,89,1,2,17,12,2.mid,experiment,1
11,36,10859,79,79,1,2,17,12,2.mid,experiment,1
12,38,11146,76,81,1,2,17,12,2.mid,experiment,1
13,40,11431,72,81,1,2,17,12,2.mid,experiment,1
14,42,11710,76,88,1,2,17,12,2.mid,experiment,1
15,44,11991,79,100,1,2,17,12,2.mid,experiment,1
16,46,12277,84,103,1,2,17,12,2.mid,experiment,1
17,48,12586,83,96,1,2,17,12,2.mid,experiment,1
18,51,12898,81,71,1,2,17,12,2.mid,experiment,1
19,53,13185,81,63,1,2,17,12,2.mid,experiment,1
20,55,13494,81,49,1,2,17,12,2.mid,experiment,1
21,57,13778,83,89,1,2,17,12,2.mid,experiment,1
22,58,14088,81,91,1,2,17,12,2.mid,experiment,1
23,60,14377,84,95,1,2,17,12,2.mid,experiment,1
24,62,14663,81,82,1,2,17,12,2.mid,experiment,1
25,63,14951,78,81,1,2,17,12,2.mid,experiment,1
26,66,15240,79,87,1,2,17,12,2.mid,experiment,1
27,69,15547,79,94,1,2,17,12,2.mid,experiment,1
28,71,16152,79,77,1,2,17,12,2.mid,experiment,1
29,73,17446,77,53,1,2,17,12,2.mid,experiment,1
30,75,17727,77,64,1,2,17,12,2.mid,experiment,1
31,77,18006,76,54,1,2,17,12,2.mid,experiment,1
32,79,18282,76,55,1,2,17,12,2.mid,experiment,1
33,81,18608,74,48,1,2,17,12,2.mid,experiment,1
34,83,19809,79,38,1,2,17,12,2.mid,experiment,1
35,85,20393,77,48,1,2,17,12,2.mid,experiment,1
36,87,20994,76,54,1,2,17,12,2.mid,experiment,1
37,89,21268,76,55,1,2,17,12,2.mid,experiment,1
38,91,21562,76,52,1,2,17,12,2.mid,experiment,1
39,93,21837,76,52,1,2,17,12,2.mid,experiment,1
40,95,22134,81,67,1,2,17,12,2.mid,experiment,1
41,96,22406,77,81,1,2,17,12,2.mid,experiment,1
42,97,22705,76,91,1,2,17,12,2.mid,experiment,1
43,100,22975,74,94,1,2,17,12,2.mid,experiment,1
44,102,23274,76,86,1,2,17,12,2.mid,experiment,1
45,104,23552,79,86,1,2,17,12,2.mid,experiment,1
46,106,23830,74,91,1,2,17,12,2.mid,experiment,1
47,108,24116,71,76,1,2,17,12,2.mid,experiment,1
48,111,24424,72,67,1,2,17,12,2.mid,experiment,1
49,113,24696,72,67,1,2,17,12,2.mid,experiment,1
50,115,24968,74,60,1,2,17,12,2.mid,experiment,1
51,117,25244,74,62,1,2,17,12,2.mid,experiment,1
52,119,25554,76,54,1,2,17,12,2.mid,experiment,1
53,121,26744,65,56,1,2,17,12,2.mid,experiment,1
54,123,27022,65,62,1,2,17,12,2.mid,experiment,1
55,125,27306,64,50,1,2,17,12,2.mid,experiment,1
56,127,27584,64,50,1,2,17,12,2.mid,experiment,1
57,129,27889,62,56,1,2,17,12,2.mid,experiment,1
58,131,29083,67,57,1,2,17,12,2.mid,experiment,1
59,133,29349,67,64,1,2,17,12,2.mid,experiment,1
60,135,29901,71,56,1,2,17,12,2.mid,experiment,1
61,135,,71,,1,2,17,12,2.mid,experiment,1
62,137,30158,72,72,1,2,17,12,2.mid,experiment,1
63,139,30431,72,72,1,2,17,12,2.mid,experiment,1
64,141,30684,73,76,1,2,17,12,2.mid,experiment,1
65,143,30949,73,82,1,2,17,12,2.mid,experiment,1
66,145,31245,74,112,1,2,17,12,2.mid,experiment,1
67,146,31827,77,98,1,2,17,12,2.mid,experiment,1
68,148,32356,76,93,1,2,17,12,2.mid,experiment,1
69,150,32915,74,91,1,2,17,12,2.mid,experiment,1
70,152,33517,72,90,1,2,17,12,2.mid,experiment,1
71,154,34119,84,81,1,2,17,12,2.mid,experiment,1
72,157,34734,84,81,1,2,17,12,2.mid,experiment,1
1,17,7860,79,70,1,2,17,14,16.mid,experiment,1
2,18,8173,78,81,1,2,17,14,16.mid,experiment,1
3,20,8462,79,91,1,2,17,14,16.mid,experiment,1
4,22,8744,76,89,1,2,17,14,16.mid,experiment,1
5,24,9058,72,88,1,2,17,14,16.mid,experiment,1
6,27,9351,67,68,1,2,17,14,16.mid,experiment,1
7,29,9631,67,74,1,2,17,14,16.mid,experiment,1
8,31,9927,67,67,1,2,17,14,16.mid,experiment,1
9,33,10229,79,82,1,2,17,14,16.mid,experiment,1
10,34,10525,78,97,1,2,17,14,16.mid,experiment,1
11,36,10807,79,91,1,2,17,14,16.mid,experiment,1
12,38,11101,76,85,1,2,17,14,16.mid,experiment,1
13,40,11387,72,90,1,2,17,14,16.mid,experiment,1
14,42,11681,76,91,1,2,17,14,16.mid,experiment,1
15,44,11969,79,99,1,2,17,14,16.mid,experiment,1
16,46,12245,84,100,1,2,17,14,16.mid,experiment,1
17,48,12556,83,91,1,2,17,14,16.mid,experiment,1
18,51,12867,81,63,1,2,17,14,16.mid,experiment,1
19,53,13147,81,66,1,2,17,14,16.mid,experiment,1
20,55,13432,81,63,1,2,17,14,16.mid,experiment,1
21,57,13728,83,87,1,2,17,14,16.mid,experiment,1
22,58,14021,81,93,1,2,17,14,16.mid,experiment,1
23,60,14306,84,91,1,2,17,14,16.mid,experiment,1
24,62,14578,81,81,1,2,17,14,16.mid,experiment,1
25,63,14874,78,86,1,2,17,14,16.mid,experiment,1
26,66,15151,79,90,1,2,17,14,16.mid,experiment,1
27,69,15467,79,75,1,2,17,14,16.mid,experiment,1
28,71,16064,79,86,1,2,17,14,16.mid,experiment,1
29,73,17319,77,65,1,2,17,14,16.mid,experiment,1
30,75,17605,77,62,1,2,17,14,16.mid,experiment,1
31,77,17890,76,58,1,2,17,14,16.mid,experiment,1
32,77,,76,,1,2,17,14,16.mid,experiment,1
33,79,18484,74,46,1,2,17,14,16.mid,experiment,1
34,81,19668,79,68,1,2,17,14,16.mid,experiment,1
35,83,20297,77,59,1,2,17,14,16.mid,experiment,1
36,85,20970,76,39,1,2,17,14,16.mid,experiment,1
37,87,21236,76,67,1,2,17,14,16.mid,experiment,1
38,89,21523,76,58,1,2,17,14,16.mid,experiment,1
39,91,21800,76,55,1,2,17,14,16.mid,experiment,1
40,93,22100,81,72,1,2,17,14,16.mid,experiment,1
41,94,22382,77,81,1,2,17,14,16.mid,experiment,1
42,96,22675,76,87,1,2,17,14,16.mid,experiment,1
43,97,22946,74,90,1,2,17,14,16.mid,experiment,1
44,100,23257,76,86,1,2,17,14,16.mid,experiment,1
45,102,23541,79,87,1,2,17,14,16.mid,experiment,1
46,104,23824,74,96,1,2,17,14,16.mid,experiment,1
47,106,24118,71,79,1,2,17,14,16.mid,experiment,1
48,109,24429,72,74,1,2,17,14,16.mid,experiment,1
49,111,24702,72,68,1,2,17,14,16.mid,experiment,1
50,113,24991,74,63,1,2,17,14,16.mid,experiment,1
51,115,25257,74,62,1,2,17,14,16.mid,experiment,1
52,117,25571,76,54,1,2,17,14,16.mid,experiment,1
53,119,26797,65,62,1,2,17,14,16.mid,experiment,1
54,121,27078,65,64,1,2,17,14,16.mid,experiment,1
55,123,27371,64,53,1,2,17,14,16.mid,experiment,1
56,125,27656,64,53,1,2,17,14,16.mid,experiment,1
57,127,27986,62,50,1,2,17,14,16.mid,experiment,1
58,129,29447,67,63,1,2,17,14,16.mid,experiment,1
59,131,29726,67,68,1,2,17,14,16.mid,experiment,1
60,133,30011,71,55,1,2,17,14,16.mid,experiment,1
61,135,30286,71,66,1,2,17,14,16.mid,experiment,1
62,137,30561,72,71,1,2,17,14,16.mid,experiment,1
63,139,30824,72,70,1,2,17,14,16.mid,experiment,1
64,141,31099,73,68,1,2,17,14,16.mid,experiment,1
65,143,31382,73,72,1,2,17,14,16.mid,experiment,1
66,145,31671,74,101,1,2,17,14,16.mid,experiment,1
67,146,32263,77,100,1,2,17,14,16.mid,experiment,1
68,148,32826,76,93,1,2,17,14,16.mid,experiment,1
69,150,33387,74,94,1,2,17,14,16.mid,experiment,1
70,152,33967,72,91,1,2,17,14,16.mid,experiment,1
71,154,34542,84,95,1,2,17,14,16.mid,experiment,1
72,157,35170,84,81,1,2,17,14,16.mid,experiment,1
1,17,7864,79,71,1,2,18,1,15.mid,experiment,1
2,18,8154,78,78,1,2,18,1,15.mid,experiment,1
3,20,8458,79,79,1,2,18,1,15.mid,experiment,1
4,22,8757,76,69,1,2,18,1,15.mid,experiment,1
5,24,9059,72,68,1,2,18,1,15.mid,experiment,1
6,27,9375,67,44,1,2,18,1,15.mid,experiment,1
7,29,9656,67,51,1,2,18,1,15.mid,experiment,1
8,31,9961,67,55,1,2,18,1,15.mid,experiment,1
9,33,10281,79,67,1,2,18,1,15.mid,experiment,1
10,34,10557,78,79,1,2,18,1,15.mid,experiment,1
11,36,10835,79,85,1,2,18,1,15.mid,experiment,1
12,38,11129,76,65,1,2,18,1,15.mid,experiment,1
13,40,11417,72,67,1,2,18,1,15.mid,experiment,1
14,42,11707,76,79,1,2,18,1,15.mid,experiment,1
15,44,11986,79,88,1,2,18,1,15.mid,experiment,1
16,46,12253,84,81,1,2,18,1,15.mid,experiment,1
17,48,12559,83,80,1,2,18,1,15.mid,experiment,1
18,51,12858,81,57,1,2,18,1,15.mid,experiment,1
19,53,13121,81,53,1,2,18,1,15.mid,experiment,1
20,55,13399,81,55,1,2,18,1,15.mid,experiment,1
21,57,13696,83,75,1,2,18,1,15.mid,experiment,1
22,58,13959,81,81,1,2,18,1,15.mid,experiment,1
23,60,14254,84,85,1,2,18,1,15.mid,experiment,1
24,62,14517,81,80,1,2,18,1,15.mid,experiment,1
25,64,14815,78,74,1,2,18,1,15.mid,experiment,1
26,66,15067,79,93,1,2,18,1,15.mid,experiment,1
27,69,15374,79,91,1,2,18,1,15.mid,experiment,1
28,71,15994,79,88,1,2,18,1,15.mid,experiment,1
29,73,17089,77,53,1,2,18,1,15.mid,experiment,1
30,75,17370,77,55,1,2,18,1,15.mid,experiment,1
31,77,17663,76,37,1,2,18,1,15.mid,experiment,1
32,79,17949,76,49,1,2,18,1,15.mid,experiment,1
33,81,18257,74,51,1,2,18,1,15.mid,experiment,1
34,83,19390,79,53,1,2,18,1,15.mid,experiment,1
35,85,19968,77,54,1,2,18,1,15.mid,experiment,1
36,87,20576,76,49,1,2,18,1,15.mid,experiment,1
37,89,20836,76,43,1,2,18,1,15.mid,experiment,1
38,91,21119,76,39,1,2,18,1,15.mid,experiment,1
39,93,21394,76,33,1,2,18,1,15.mid,experiment,1
40,95,21700,81,56,1,2,18,1,15.mid,experiment,1
41,96,21969,77,70,1,2,18,1,15.mid,experiment,1
42,98,22256,76,71,1,2,18,1,15.mid,experiment,1
43,100,22526,74,77,1,2,18,1,15.mid,experiment,1
44,102,22821,76,75,1,2,18,1,15.mid,experiment,1
45,104,23081,79,72,1,2,18,1,15.mid,experiment,1
46,106,23358,74,61,1,2,18,1,15.mid,experiment,1
47,108,23638,71,50,1,2,18,1,15.mid,experiment,1
48,111,23907,72,54,1,2,18,1,15.mid,experiment,1
49,111,,72,,1,2,18,1,15.mid,experiment,1
50,113,24464,74,58,1,2,18,1,15.mid,experiment,1
51,115,24740,74,58,1,2,18,1,15.mid,experiment,1
52,117,25041,76,49,1,2,18,1,15.mid,experiment,1
53,119,26090,65,65,1,2,18,1,15.mid,experiment,1
54,121,26363,65,66,1,2,18,1,15.mid,experiment,1
55,123,26627,64,65,1,2,18,1,15.mid,experiment,1
56,125,26913,64,53,1,2,18,1,15.mid,experiment,1
57,127,27229,62,43,1,2,18,1,15.mid,experiment,1
58,129,28326,67,54,1,2,18,1,15.mid,experiment,1
59,131,28600,67,58,1,2,18,1,15.mid,experiment,1
60,133,28877,71,60,1,2,18,1,15.mid,experiment,1
61,135,29127,71,63,1,2,18,1,15.mid,experiment,1
62,137,29405,72,68,1,2,18,1,15.mid,experiment,1
63,139,29661,72,65,1,2,18,1,15.mid,experiment,1
64,141,29949,73,63,1,2,18,1,15.mid,experiment,1
65,143,30219,73,64,1,2,18,1,15.mid,experiment,1
66,145,30529,74,72,1,2,18,1,15.mid,experiment,1
67,147,31107,77,82,1,2,18,1,15.mid,experiment,1
68,149,31674,76,80,1,2,18,1,15.mid,experiment,1
69,151,32251,74,91,1,2,18,1,15.mid,experiment,1
70,153,32840,72,95,1,2,18,1,15.mid,experiment,1
71,155,33457,84,91,1,2,18,1,15.mid,experiment,1
72,157,34094,84,98,1,2,18,1,15.mid,experiment,1
1,17,7812,79,72,1,2,18,5,14.mid,experiment,1
2,18,8097,78,80,1,2,18,5,14.mid,experiment,1
3,20,8373,79,85,1,2,18,5,14.mid,experiment,1
4,22,8641,76,73,1,2,18,5,14.mid,experiment,1
5,24,8921,72,76,1,2,18,5,14.mid,experiment,1
6,27,9198,67,69,1,2,18,5,14.mid,experiment,1
7,29,9472,67,56,1,2,18,5,14.mid,experiment,1
8,31,9740,67,60,1,2,18,5,14.mid,experiment,1
9,33,10011,79,72,1,2,18,5,14.mid,experiment,1
10,34,10272,78,76,1,2,18,5,14.mid,experiment,1
11,36,10551,79,81,1,2,18,5,14.mid,experiment,1
12,38,10813,76,72,1,2,18,5,14.mid,experiment,1
13,41,11089,72,73,1,2,18,5,14.mid,experiment,1
14,42,11347,76,75,1,2,18,5,14.mid,experiment,1
15,44,11613,79,86,1,2,18,5,14.mid,experiment,1
16,46,11880,84,87,1,2,18,5,14.mid,experiment,1
17,48,12140,83,93,1,2,18,5,14.mid,experiment,1
18,51,12416,81,72,1,2,18,5,14.mid,experiment,1
19,53,12674,81,53,1,2,18,5,14.mid,experiment,1
20,55,12927,81,67,1,2,18,5,14.mid,experiment,1
21,57,13201,83,84,1,2,18,5,14.mid,experiment,1
22,58,13461,81,83,1,2,18,5,14.mid,experiment,1
23,60,13742,84,74,1,2,18,5,14.mid,experiment,1
24,63,14008,81,81,1,2,18,5,14.mid,experiment,1
25,64,14290,78,85,1,2,18,5,14.mid,experiment,1
26,66,14537,79,91,1,2,18,5,14.mid,experiment,1
27,69,14830,79,63,1,2,18,5,14.mid,experiment,1
28,71,15373,79,64,1,2,18,5,14.mid,experiment,1
29,73,16440,77,44,1,2,18,5,14.mid,experiment,1
30,75,16692,77,55,1,2,18,5,14.mid,experiment,1
31,77,16971,76,44,1,2,18,5,14.mid,experiment,1
32,79,17236,76,43,1,2,18,5,14.mid,experiment,1
33,81,17529,74,44,1,2,18,5,14.mid,experiment,1
34,83,18650,79,52,1,2,18,5,14.mid,experiment,1
35,85,19208,77,50,1,2,18,5,14.mid,experiment,1
36,87,19775,76,34,1,2,18,5,14.mid,experiment,1
37,89,20032,76,47,1,2,18,5,14.mid,experiment,1
38,91,20275,76,54,1,2,18,5,14.mid,experiment,1
39,93,20544,76,54,1,2,18,5,14.mid,experiment,1
40,95,20815,81,65,1,2,18,5,14.mid,experiment,1
41,96,21073,77,81,1,2,18,5,14.mid,experiment,1
42,98,21344,76,78,1,2,18,5,14.mid,experiment,1
43,100,21595,74,80,1,2,18,5,14.mid,experiment,1
44,102,21879,76,70,1,2,18,5,14.mid,experiment,1
45,104,22127,79,80,1,2,18,5,14.mid,experiment,1
46,106,22394,74,82,1,2,18,5,14.mid,experiment,1
47,108,22629,71,78,1,2,18,5,14.mid,experiment,1
48,111,22912,72,61,1,2,18,5,14.mid,experiment,1
49,113,23172,72,53,1,2,18,5,14.mid,experiment,1
50,115,23434,74,47,1,2,18,5,14.mid,experiment,1
51,117,23695,74,51,1,2,18,5,14.mid,experiment,1
52,119,23994,76,37,1,2,18,5,14.mid,experiment,1
53,121,25093,65,48,1,2,18,5,14.mid,experiment,1
54,123,25335,65,47,1,2,18,5,14.mid,experiment,1
55,125,25857,64,46,1,2,18,5,14.mid,experiment,1
56,125,,64,,1,2,18,5,14.mid,experiment,1
57,127,26155,62,50,1,2,18,5,14.mid,experiment,1
58,129,27212,67,48,1,2,18,5,14.mid,experiment,1
59,131,27484,67,50,1,2,18,5,14.mid,experiment,1
60,133,27739,71,63,1,2,18,5,14.mid,experiment,1
61,135,27987,71,71,1,2,18,5,14.mid,experiment,1
62,137,28266,72,71,1,2,18,5,14.mid,experiment,1
63,139,28530,72,61,1,2,18,5,14.mid,experiment,1
64,141,28788,73,65,1,2,18,5,14.mid,experiment,1
65,143,29056,73,58,1,2,18,5,14.mid,experiment,1
66,145,29362,74,87,1,2,18,5,14.mid,experiment,1
67,147,29915,77,84,1,2,18,5,14.mid,experiment,1
68,149,30443,76,79,1,2,18,5,14.mid,experiment,1
69,151,30980,74,90,1,2,18,5,14.mid,experiment,1
70,153,31541,72,90,1,2,18,5,14.mid,experiment,1
71,155,32102,84,95,1,2,18,5,14.mid,experiment,1
72,157,32678,84,96,1,2,18,5,14.mid,experiment,1
1,17,7848,79,74,1,2,18,9,11.mid,experiment,1
2,18,8134,78,83,1,2,18,9,11.mid,experiment,1
3,20,8422,79,88,1,2,18,9,11.mid,experiment,1
4,22,8689,76,81,1,2,18,9,11.mid,experiment,1
5,24,8978,72,77,1,2,18,9,11.mid,experiment,1
6,27,9248,67,61,1,2,18,9,11.mid,experiment,1
7,29,9532,67,50,1,2,18,9,11.mid,experiment,1
8,31,9795,67,66,1,2,18,9,11.mid,experiment,1
9,33,10084,79,73,1,2,18,9,11.mid,experiment,1
10,34,10346,78,84,1,2,18,9,11.mid,experiment,1
11,36,10638,79,85,1,2,18,9,11.mid,experiment,1
12,38,10906,76,83,1,2,18,9,11.mid,experiment,1
13,40,11182,72,78,1,2,18,9,11.mid,experiment,1
14,42,11443,76,83,1,2,18,9,11.mid,experiment,1
15,44,11717,79,98,1,2,18,9,11.mid,experiment,1
16,46,11989,84,94,1,2,18,9,11.mid,experiment,1
17,48,12292,83,89,1,2,18,9,11.mid,experiment,1
18,51,12570,81,56,1,2,18,9,11.mid,experiment,1
19,53,12841,81,48,1,2,18,9,11.mid,experiment,1
20,55,13092,81,55,1,2,18,9,11.mid,experiment,1
21,57,13380,83,76,1,2,18,9,11.mid,experiment,1
22,58,13624,81,88,1,2,18,9,11.mid,experiment,1
23,60,13908,84,93,1,2,18,9,11.mid,experiment,1
24,62,14174,81,96,1,2,18,9,11.mid,experiment,1
25,65,14461,78,78,1,2,18,9,11.mid,experiment,1
26,67,14713,79,77,1,2,18,9,11.mid,experiment,1
27,69,15019,79,77,1,2,18,9,11.mid,experiment,1
28,71,15580,79,60,1,2,18,9,11.mid,experiment,1
29,73,16667,77,52,1,2,18,9,11.mid,experiment,1
30,75,16940,77,55,1,2,18,9,11.mid,experiment,1
31,77,17481,76,43,1,2,18,9,11.mid,experiment,1
32,77,,76,,1,2,18,9,11.mid,experiment,1
33,79,17783,74,48,1,2,18,9,11.mid,experiment,1
34,81,18892,79,52,1,2,18,9,11.mid,experiment,1
35,83,19463,77,50,1,2,18,9,11.mid,experiment,1
36,85,20044,76,37,1,2,18,9,11.mid,experiment,1
37,87,20313,76,52,1,2,18,9,11.mid,experiment,1
38,89,20574,76,50,1,2,18,9,11.mid,experiment,1
39,91,20831,76,59,1,2,18,9,11.mid,experiment,1
40,93,21103,81,73,1,2,18,9,11.mid,experiment,1
41,94,21353,77,85,1,2,18,9,11.mid,experiment,1
42,96,21622,76,85,1,2,18,9,11.mid,experiment,1
43,98,21883,74,87,1,2,18,9,11.mid,experiment,1
44,100,22151,76,83,1,2,18,9,11.mid,experiment,1
45,102,22395,79,81,1,2,18,9,11.mid,experiment,1
46,104,22665,74,81,1,2,18,9,11.mid,experiment,1
47,106,22912,71,79,1,2,18,9,11.mid,experiment,1
48,108,23181,72,68,1,2,18,9,11.mid,experiment,1
49,111,23439,72,65,1,2,18,9,11.mid,experiment,1
50,113,23695,74,60,1,2,18,9,11.mid,experiment,1
51,115,23949,74,63,1,2,18,9,11.mid,experiment,1
52,117,24274,76,42,1,2,18,9,11.mid,experiment,1
53,119,25309,65,65,1,2,18,9,11.mid,experiment,1
54,121,25563,65,67,1,2,18,9,11.mid,experiment,1
55,123,25845,64,54,1,2,18,9,11.mid,experiment,1
56,123,,64,,1,2,18,9,11.mid,experiment,1
57,125,26394,62,51,1,2,18,9,11.mid,experiment,1
58,127,27432,67,55,1,2,18,9,11.mid,experiment,1
59,129,27708,67,57,1,2,18,9,11.mid,experiment,1
60,131,27972,71,62,1,2,18,9,11.mid,experiment,1
61,133,28232,71,60,1,2,18,9,11.mid,experiment,1
62,135,28500,72,66,1,2,18,9,11.mid,experiment,1
63,137,28750,72,60,1,2,18,9,11.mid,experiment,1
64,139,29015,73,65,1,2,18,9,11.mid,experiment,1
65,141,29265,73,75,1,2,18,9,11.mid,experiment,1
66,143,29555,74,98,1,2,18,9,11.mid,experiment,1
67,145,30107,77,85,1,2,18,9,11.mid,experiment,1
68,147,30640,76,84,1,2,18,9,11.mid,experiment,1
69,148,31187,74,94,1,2,18,9,11.mid,experiment,1
70,151,31735,72,91,1,2,18,9,11.mid,experiment,1
71,153,32292,84,94,1,2,18,9,11.mid,experiment,1
72,155,32874,84,89,1,2,18,9,11.mid,experiment,1
1,17,7842,79,77,1,2,18,11,5.mid,experiment,1
2,18,8113,78,85,1,2,18,11,5.mid,experiment,1
3,20,8387,79,89,1,2,18,11,5.mid,experiment,1
4,22,8671,76,82,1,2,18,11,5.mid,experiment,1
5,24,8974,72,72,1,2,18,11,5.mid,experiment,1
6,27,9250,67,74,1,2,18,11,5.mid,experiment,1
7,29,9516,67,60,1,2,18,11,5.mid,experiment,1
8,31,9778,67,63,1,2,18,11,5.mid,experiment,1
9,33,10063,79,72,1,2,18,11,5.mid,experiment,1
10,34,10316,78,82,1,2,18,11,5.mid,experiment,1
11,36,10616,79,86,1,2,18,11,5.mid,experiment,1
12,38,10879,76,77,1,2,18,11,5.mid,experiment,1
13,40,11161,72,78,1,2,18,11,5.mid,experiment,1
14,42,11417,76,81,1,2,18,11,5.mid,experiment,1
15,44,11687,79,87,1,2,18,11,5.mid,experiment,1
16,46,11950,84,85,1,2,18,11,5.mid,experiment,1
17,48,12227,83,81,1,2,18,11,5.mid,experiment,1
18,51,12508,81,51,1,2,18,11,5.mid,experiment,1
19,53,12765,81,53,1,2,18,11,5.mid,experiment,1
20,55,13027,81,53,1,2,18,11,5.mid,experiment,1
21,57,13295,83,81,1,2,18,11,5.mid,experiment,1
22,58,13549,81,82,1,2,18,11,5.mid,experiment,1
23,60,13818,84,85,1,2,18,11,5.mid,experiment,1
24,62,14080,81,86,1,2,18,11,5.mid,experiment,1
25,65,14352,78,81,1,2,18,11,5.mid,experiment,1
26,66,14617,79,81,1,2,18,11,5.mid,experiment,1
27,69,14885,79,81,1,2,18,11,5.mid,experiment,1
28,71,15447,79,95,1,2,18,11,5.mid,experiment,1
29,73,16537,77,65,1,2,18,11,5.mid,experiment,1
30,75,16789,77,59,1,2,18,11,5.mid,experiment,1
31,77,17059,76,51,1,2,18,11,5.mid,experiment,1
32,77,,76,,1,2,18,11,5.mid,experiment,1
33,79,17601,74,55,1,2,18,11,5.mid,experiment,1
34,81,18659,79,55,1,2,18,11,5.mid,experiment,1
35,83,19193,77,60,1,2,18,11,5.mid,experiment,1
36,85,19734,76,53,1,2,18,11,5.mid,experiment,1
37,87,19994,76,57,1,2,18,11,5.mid,experiment,1
38,89,20256,76,53,1,2,18,11,5.mid,experiment,1
39,91,20504,76,60,1,2,18,11,5.mid,experiment,1
40,93,20775,81,72,1,2,18,11,5.mid,experiment,1
41,94,21035,77,81,1,2,18,11,5.mid,experiment,1
42,96,21291,76,81,1,2,18,11,5.mid,experiment,1
43,98,21550,74,81,1,2,18,11,5.mid,experiment,1
44,100,21819,76,74,1,2,18,11,5.mid,experiment,1
45,102,22063,79,78,1,2,18,11,5.mid,experiment,1
46,104,22344,74,79,1,2,18,11,5.mid,experiment,1
47,106,22582,71,73,1,2,18,11,5.mid,experiment,1
48,109,22863,72,63,1,2,18,11,5.mid,experiment,1
49,111,23108,72,61,1,2,18,11,5.mid,experiment,1
50,113,23368,74,61,1,2,18,11,5.mid,experiment,1
51,115,23631,74,53,1,2,18,11,5.mid,experiment,1
52,117,23925,76,47,1,2,18,11,5.mid,experiment,1
53,119,24966,65,59,1,2,18,11,5.mid,experiment,1
54,121,25210,65,58,1,2,18,11,5.mid,experiment,1
55,123,25486,64,52,1,2,18,11,5.mid,experiment,1
56,125,25734,64,53,1,2,18,11,5.mid,experiment,1
57,127,26054,62,46,1,2,18,11,5.mid,experiment,1
58,129,27126,67,51,1,2,18,11,5.mid,experiment,1
59,131,27389,67,53,1,2,18,11,5.mid,experiment,1
60,133,27641,71,52,1,2,18,11,5.mid,experiment,1
61,135,27910,71,56,1,2,18,11,5.mid,experiment,1
62,137,28156,72,69,1,2,18,11,5.mid,experiment,1
63,139,28433,72,58,1,2,18,11,5.mid,experiment,1
64,141,28693,73,58,1,2,18,11,5.mid,experiment,1
65,143,28950,73,64,1,2,18,11,5.mid,experiment,1
66,145,29248,74,81,1,2,18,11,5.mid,experiment,1
67,146,29776,77,83,1,2,18,11,5.mid,experiment,1
68,149,30322,76,76,1,2,18,11,5.mid,experiment,1
69,151,30849,74,91,1,2,18,11,5.mid,experiment,1
70,153,31411,72,93,1,2,18,11,5.mid,experiment,1
71,155,31988,84,82,1,2,18,11,5.mid,experiment,1
72,157,32535,84,76,1,2,18,11,5.mid,experiment,1
1,17,7806,79,73,1,2,18,12,7.mid,experiment,1
2,18,8092,78,80,1,2,18,12,7.mid,experiment,1
3,20,8360,79,81,1,2,18,12,7.mid,experiment,1
4,22,8641,76,87,1,2,18,12,7.mid,experiment,1
5,24,8912,72,82,1,2,18,12,7.mid,experiment,1
6,27,9180,67,75,1,2,18,12,7.mid,experiment,1
7,29,9448,67,61,1,2,18,12,7.mid,experiment,1
8,31,9728,67,54,1,2,18,12,7.mid,experiment,1
9,33,10002,79,70,1,2,18,12,7.mid,experiment,1
10,34,10269,78,81,1,2,18,12,7.mid,experiment,1
11,36,10546,79,79,1,2,18,12,7.mid,experiment,1
12,38,10828,76,72,1,2,18,12,7.mid,experiment,1
13,40,11106,72,63,1,2,18,12,7.mid,experiment,1
14,42,11370,76,79,1,2,18,12,7.mid,experiment,1
15,44,11638,79,89,1,2,18,12,7.mid,experiment,1
16,46,11910,84,90,1,2,18,12,7.mid,experiment,1
17,48,12182,83,81,1,2,18,12,7.mid,experiment,1
18,51,12446,81,68,1,2,18,12,7.mid,experiment,1
19,53,12728,81,56,1,2,18,12,7.mid,experiment,1
20,55,12990,81,59,1,2,18,12,7.mid,experiment,1
21,57,13262,83,76,1,2,18,12,7.mid,experiment,1
22,58,13516,81,84,1,2,18,12,7.mid,experiment,1
23,60,13783,84,89,1,2,18,12,7.mid,experiment,1
24,62,14046,81,89,1,2,18,12,7.mid,experiment,1
25,65,14322,78,72,1,2,18,12,7.mid,experiment,1
26,66,14589,79,82,1,2,18,12,7.mid,experiment,1
27,69,14892,79,86,1,2,18,12,7.mid,experiment,1
28,71,15476,79,85,1,2,18,12,7.mid,experiment,1
29,73,16572,77,70,1,2,18,12,7.mid,experiment,1
30,75,16833,77,65,1,2,18,12,7.mid,experiment,1
31,77,17095,76,63,1,2,18,12,7.mid,experiment,1
32,79,17351,76,58,1,2,18,12,7.mid,experiment,1
33,81,17682,74,52,1,2,18,12,7.mid,experiment,1
34,83,18808,79,60,1,2,18,12,7.mid,experiment,1
35,85,19358,77,61,1,2,18,12,7.mid,experiment,1
36,87,19926,76,55,1,2,18,12,7.mid,experiment,1
37,89,20180,76,52,1,2,18,12,7.mid,experiment,1
38,91,20458,76,56,1,2,18,12,7.mid,experiment,1
39,93,20712,76,63,1,2,18,12,7.mid,experiment,1
40,95,21000,81,75,1,2,18,12,7.mid,experiment,1
41,96,21254,77,81,1,2,18,12,7.mid,experiment,1
42,98,21530,76,78,1,2,18,12,7.mid,experiment,1
43,100,21792,74,82,1,2,18,12,7.mid,experiment,1
44,102,22069,76,78,1,2,18,12,7.mid,experiment,1
45,104,22312,79,84,1,2,18,12,7.mid,experiment,1
46,106,22598,74,74,1,2,18,12,7.mid,experiment,1
47,108,22851,71,72,1,2,18,12,7.mid,experiment,1
48,110,23110,72,67,1,2,18,12,7.mid,experiment,1
49,113,23352,72,72,1,2,18,12,7.mid,experiment,1
50,115,23634,74,57,1,2,18,12,7.mid,experiment,1
51,117,23886,74,60,1,2,18,12,7.mid,experiment,1
52,119,24176,76,43,1,2,18,12,7.mid,experiment,1
53,121,25210,65,62,1,2,18,12,7.mid,experiment,1
54,123,25472,65,61,1,2,18,12,7.mid,experiment,1
55,125,25976,64,74,1,2,18,12,7.mid,experiment,1
56,125,,64,,1,2,18,12,7.mid,experiment,1
57,127,26270,62,58,1,2,18,12,7.mid,experiment,1
58,129,27304,67,51,1,2,18,12,7.mid,experiment,1
59,131,27579,67,52,1,2,18,12,7.mid,experiment,1
60,133,27846,71,51,1,2,18,12,7.mid,experiment,1
61,135,28104,71,54,1,2,18,12,7.mid,experiment,1
62,137,28358,72,62,1,2,18,12,7.mid,experiment,1
63,139,28612,72,56,1,2,18,12,7.mid,experiment,1
64,141,28882,73,55,1,2,18,12,7.mid,experiment,1
65,143,29132,73,61,1,2,18,12,7.mid,experiment,1
66,145,29424,74,78,1,2,18,12,7.mid,experiment,1
67,146,29934,77,82,1,2,18,12,7.mid,experiment,1
68,148,30466,76,81,1,2,18,12,7.mid,experiment,1
69,151,31030,74,88,1,2,18,12,7.mid,experiment,1
70,153,31588,72,90,1,2,18,12,7.mid,experiment,1
71,154,32174,84,94,1,2,18,12,7.mid,experiment,1
72,157,32764,84,95,1,2,18,12,7.mid,experiment,1
1,17,7829,79,76,1,2,18,15,12.mid,experiment,1
2,18,8093,78,81,1,2,18,15,12.mid,experiment,1
3,20,8363,79,88,1,2,18,15,12.mid,experiment,1
4,22,8632,76,86,1,2,18,15,12.mid,experiment,1
5,24,8899,72,86,1,2,18,15,12.mid,experiment,1
6,27,9168,67,75,1,2,18,15,12.mid,experiment,1
7,29,9441,67,57,1,2,18,15,12.mid,experiment,1
8,31,9707,67,68,1,2,18,15,12.mid,experiment,1
9,33,9991,79,76,1,2,18,15,12.mid,experiment,1
10,34,10244,78,83,1,2,18,15,12.mid,experiment,1
11,36,10505,79,78,1,2,18,15,12.mid,experiment,1
12,38,10780,76,71,1,2,18,15,12.mid,experiment,1
13,40,11053,72,78,1,2,18,15,12.mid,experiment,1
14,42,11305,76,75,1,2,18,15,12.mid,experiment,1
15,44,11562,79,91,1,2,18,15,12.mid,experiment,1
16,46,11825,84,93,1,2,18,15,12.mid,experiment,1
17,48,12103,83,90,1,2,18,15,12.mid,experiment,1
18,51,12371,81,69,1,2,18,15,12.mid,experiment,1
19,53,12643,81,49,1,2,18,15,12.mid,experiment,1
20,55,12931,81,35,1,2,18,15,12.mid,experiment,1
21,57,13201,83,76,1,2,18,15,12.mid,experiment,1
22,58,13457,81,89,1,2,18,15,12.mid,experiment,1
23,60,13729,84,88,1,2,18,15,12.mid,experiment,1
24,62,13973,81,87,1,2,18,15,12.mid,experiment,1
25,65,14257,78,79,1,2,18,15,12.mid,experiment,1
26,67,14527,79,87,1,2,18,15,12.mid,experiment,1
27,69,14805,79,90,1,2,18,15,12.mid,experiment,1
28,71,15401,79,91,1,2,18,15,12.mid,experiment,1
29,73,16504,77,55,1,2,18,15,12.mid,experiment,1
30,75,16760,77,54,1,2,18,15,12.mid,experiment,1
31,77,17047,76,37,1,2,18,15,12.mid,experiment,1
32,77,,76,,1,2,18,15,12.mid,experiment,1
33,79,17592,74,49,1,2,18,15,12.mid,experiment,1
34,81,18659,79,46,1,2,18,15,12.mid,experiment,1
35,83,19208,77,51,1,2,18,15,12.mid,experiment,1
36,85,19756,76,44,1,2,18,15,12.mid,experiment,1
37,87,20021,76,50,1,2,18,15,12.mid,experiment,1
38,89,20272,76,43,1,2,18,15,12.mid,experiment,1
39,91,20518,76,55,1,2,18,15,12.mid,experiment,1
40,93,20781,81,78,1,2,18,15,12.mid,experiment,1
41,94,21031,77,88,1,2,18,15,12.mid,experiment,1
42,96,21302,76,90,1,2,18,15,12.mid,experiment,1
43,98,21553,74,90,1,2,18,15,12.mid,experiment,1
44,100,21823,76,82,1,2,18,15,12.mid,experiment,1
45,102,22053,79,80,1,2,18,15,12.mid,experiment,1
46,104,22327,74,80,1,2,18,15,12.mid,experiment,1
47,106,22587,71,73,1,2,18,15,12.mid,experiment,1
48,109,22852,72,58,1,2,18,15,12.mid,experiment,1
49,111,23098,72,60,1,2,18,15,12.mid,experiment,1
50,113,23363,74,50,1,2,18,15,12.mid,experiment,1
51,115,23599,74,54,1,2,18,15,12.mid,experiment,1
52,117,23921,76,34,1,2,18,15,12.mid,experiment,1
53,119,24956,65,62,1,2,18,15,12.mid,experiment,1
54,121,25207,65,63,1,2,18,15,12.mid,experiment,1
55,123,25475,64,54,1,2,18,15,12.mid,experiment,1
56,125,25726,64,55,1,2,18,15,12.mid,experiment,1
57,127,26026,62,49,1,2,18,15,12.mid,experiment,1
58,129,27110,67,47,1,2,18,15,12.mid,experiment,1
59,131,27363,67,50,1,2,18,15,12.mid,experiment,1
60,133,27619,71,57,1,2,18,15,12.mid,experiment,1
61,135,27885,71,40,1,2,18,15,12.mid,experiment,1
62,137,28145,72,57,1,2,18,15,12.mid,experiment,1
63,139,28390,72,52,1,2,18,15,12.mid,experiment,1
64,141,28673,73,50,1,2,18,15,12.mid,experiment,1
65,143,28911,73,58,1,2,18,15,12.mid,experiment,1
66,145,29211,74,81,1,2,18,15,12.mid,experiment,1
67,147,29757,77,91,1,2,18,15,12.mid,experiment,1
68,149,30290,76,88,1,2,18,15,12.mid,experiment,1
69,151,30819,74,90,1,2,18,15,12.mid,experiment,1
70,153,31385,72,96,1,2,18,15,12.mid,experiment,1
71,155,31975,84,97,1,2,18,15,12.mid,experiment,1
72,157,32576,84,87,1,2,18,15,12.mid,experiment,1
1,17,7800,79,78,1,2,18,16,8.mid,experiment,1
2,18,8070,78,87,1,2,18,16,8.mid,experiment,1
3,20,8336,79,85,1,2,18,16,8.mid,experiment,1
4,22,8614,76,84,1,2,18,16,8.mid,experiment,1
5,24,8886,72,81,1,2,18,16,8.mid,experiment,1
6,27,9152,67,68,1,2,18,16,8.mid,experiment,1
7,29,9413,67,58,1,2,18,16,8.mid,experiment,1
8,31,9686,67,57,1,2,18,16,8.mid,experiment,1
9,33,9958,79,68,1,2,18,16,8.mid,experiment,1
10,34,10211,78,81,1,2,18,16,8.mid,experiment,1
11,36,10477,79,81,1,2,18,16,8.mid,experiment,1
12,38,10742,76,76,1,2,18,16,8.mid,experiment,1
13,40,11000,72,71,1,2,18,16,8.mid,experiment,1
14,42,11259,76,81,1,2,18,16,8.mid,experiment,1
15,44,11520,79,91,1,2,18,16,8.mid,experiment,1
16,46,11776,84,87,1,2,18,16,8.mid,experiment,1
17,48,12053,83,89,1,2,18,16,8.mid,experiment,1
18,51,12329,81,62,1,2,18,16,8.mid,experiment,1
19,53,12590,81,58,1,2,18,16,8.mid,experiment,1
20,55,12852,81,65,1,2,18,16,8.mid,experiment,1
21,57,13115,83,73,1,2,18,16,8.mid,experiment,1
22,58,13374,81,89,1,2,18,16,8.mid,experiment,1
23,60,13636,84,86,1,2,18,16,8.mid,experiment,1
24,62,13896,81,89,1,2,18,16,8.mid,experiment,1
25,65,14165,78,79,1,2,18,16,8.mid,experiment,1
26,67,14412,79,88,1,2,18,16,8.mid,experiment,1
27,69,14706,79,83,1,2,18,16,8.mid,experiment,1
28,71,15276,79,93,1,2,18,16,8.mid,experiment,1
29,73,16362,77,58,1,2,18,16,8.mid,experiment,1
30,75,16613,77,62,1,2,18,16,8.mid,experiment,1
31,77,16874,76,54,1,2,18,16,8.mid,experiment,1
32,79,17146,76,56,1,2,18,16,8.mid,experiment,1
33,81,17446,74,53,1,2,18,16,8.mid,experiment,1
34,83,18554,79,59,1,2,18,16,8.mid,experiment,1
35,85,19100,77,57,1,2,18,16,8.mid,experiment,1
36,87,19652,76,58,1,2,18,16,8.mid,experiment,1
37,89,19916,76,47,1,2,18,16,8.mid,experiment,1
38,91,20166,76,58,1,2,18,16,8.mid,experiment,1
39,93,20425,76,57,1,2,18,16,8.mid,experiment,1
40,95,20680,81,77,1,2,18,16,8.mid,experiment,1
41,96,20944,77,83,1,2,18,16,8.mid,experiment,1
42,98,21211,76,83,1,2,18,16,8.mid,experiment,1
43,100,21464,74,88,1,2,18,16,8.mid,experiment,1
44,102,21738,76,77,1,2,18,16,8.mid,experiment,1
45,104,21992,79,87,1,2,18,16,8.mid,experiment,1
46,106,22246,74,89,1,2,18,16,8.mid,experiment,1
47,108,22494,71,71,1,2,18,16,8.mid,experiment,1
48,111,22758,72,58,1,2,18,16,8.mid,experiment,1
49,113,23008,72,55,1,2,18,16,8.mid,experiment,1
50,115,23266,74,57,1,2,18,16,8.mid,experiment,1
51,117,23508,74,58,1,2,18,16,8.mid,experiment,1
52,119,23826,76,43,1,2,18,16,8.mid,experiment,1
53,121,24872,65,55,1,2,18,16,8.mid,experiment,1
54,123,25127,65,57,1,2,18,16,8.mid,experiment,1
55,125,25378,64,55,1,2,18,16,8.mid,experiment,1
56,127,25638,64,51,1,2,18,16,8.mid,experiment,1
57,129,25940,62,47,1,2,18,16,8.mid,experiment,1
58,131,27294,67,60,1,2,18,16,8.mid,experiment,1
59,131,,67,,1,2,18,16,8.mid,experiment,1
60,133,27568,71,60,1,2,18,16,8.mid,experiment,1
61,135,27812,71,61,1,2,18,16,8.mid,experiment,1
62,137,28080,72,68,1,2,18,16,8.mid,experiment,1
63,139,28325,72,62,1,2,18,16,8.mid,experiment,1
64,141,28592,73,73,1,2,18,16,8.mid,experiment,1
65,143,28850,73,72,1,2,18,16,8.mid,experiment,1
66,145,29146,74,83,1,2,18,16,8.mid,experiment,1
67,146,29705,77,93,1,2,18,16,8.mid,experiment,1
68,148,30248,76,88,1,2,18,16,8.mid,experiment,1
69,150,30794,74,103,1,2,18,16,8.mid,experiment,1
70,152,31374,72,94,1,2,18,16,8.mid,experiment,1
71,155,31938,84,98,1,2,18,16,8.mid,experiment,1
72,157,32554,84,96,1,2,18,16,8.mid,experiment,1
1,17,9822,79,70,1,2,19,9,8.mid,experiment,1
2,18,10109,78,85,1,2,19,9,8.mid,experiment,1
3,20,10386,79,88,1,2,19,9,8.mid,experiment,1
4,22,10647,76,87,1,2,19,9,8.mid,experiment,1
5,24,10927,72,96,1,2,19,9,8.mid,experiment,1
6,27,11224,67,61,1,2,19,9,8.mid,experiment,1
7,29,11512,67,53,1,2,19,9,8.mid,experiment,1
8,31,11797,67,60,1,2,19,9,8.mid,experiment,1
9,33,12080,79,74,1,2,19,9,8.mid,experiment,1
10,34,12348,78,94,1,2,19,9,8.mid,experiment,1
11,36,12621,79,88,1,2,19,9,8.mid,experiment,1
12,38,12887,76,88,1,2,19,9,8.mid,experiment,1
13,40,13148,72,91,1,2,19,9,8.mid,experiment,1
14,42,13416,76,100,1,2,19,9,8.mid,experiment,1
15,44,13675,79,94,1,2,19,9,8.mid,experiment,1
16,46,13939,84,101,1,2,19,9,8.mid,experiment,1
17,48,14211,83,91,1,2,19,9,8.mid,experiment,1
18,51,14499,81,53,1,2,19,9,8.mid,experiment,1
19,53,14779,81,67,1,2,19,9,8.mid,experiment,1
20,55,15070,81,63,1,2,19,9,8.mid,experiment,1
21,57,15323,83,93,1,2,19,9,8.mid,experiment,1
22,58,15597,81,100,1,2,19,9,8.mid,experiment,1
23,60,15873,84,104,1,2,19,9,8.mid,experiment,1
24,62,16143,81,90,1,2,19,9,8.mid,experiment,1
25,64,16426,78,81,1,2,19,9,8.mid,experiment,1
26,66,16699,79,74,1,2,19,9,8.mid,experiment,1
27,69,17018,79,68,1,2,19,9,8.mid,experiment,1
28,71,17650,79,78,1,2,19,9,8.mid,experiment,1
29,73,18912,77,54,1,2,19,9,8.mid,experiment,1
30,75,19167,77,62,1,2,19,9,8.mid,experiment,1
31,77,19445,76,57,1,2,19,9,8.mid,experiment,1
32,79,19705,76,58,1,2,19,9,8.mid,experiment,1
33,81,19994,74,58,1,2,19,9,8.mid,experiment,1
34,83,21238,79,67,1,2,19,9,8.mid,experiment,1
35,85,21804,77,57,1,2,19,9,8.mid,experiment,1
36,87,22367,76,47,1,2,19,9,8.mid,experiment,1
37,89,22648,76,50,1,2,19,9,8.mid,experiment,1
38,91,22919,76,47,1,2,19,9,8.mid,experiment,1
39,93,23162,76,54,1,2,19,9,8.mid,experiment,1
40,95,23442,81,86,1,2,19,9,8.mid,experiment,1
41,96,23701,77,95,1,2,19,9,8.mid,experiment,1
42,98,23963,76,96,1,2,19,9,8.mid,experiment,1
43,100,24215,74,97,1,2,19,9,8.mid,experiment,1
44,102,24487,76,100,1,2,19,9,8.mid,experiment,1
45,104,24732,79,94,1,2,19,9,8.mid,experiment,1
46,106,25001,74,95,1,2,19,9,8.mid,experiment,1
47,108,25264,71,84,1,2,19,9,8.mid,experiment,1
48,111,25528,72,70,1,2,19,9,8.mid,experiment,1
49,113,25790,72,67,1,2,19,9,8.mid,experiment,1
50,115,26063,74,56,1,2,19,9,8.mid,experiment,1
51,117,26332,74,58,1,2,19,9,8.mid,experiment,1
52,119,26636,76,63,1,2,19,9,8.mid,experiment,1
53,121,27824,65,42,1,2,19,9,8.mid,experiment,1
54,123,28086,65,41,1,2,19,9,8.mid,experiment,1
55,125,28590,64,41,1,2,19,9,8.mid,experiment,1
56,125,,64,,1,2,19,9,8.mid,experiment,1
57,127,28917,62,41,1,2,19,9,8.mid,experiment,1
58,129,30027,67,54,1,2,19,9,8.mid,experiment,1
59,131,30291,67,54,1,2,19,9,8.mid,experiment,1
60,133,30541,71,61,1,2,19,9,8.mid,experiment,1
61,135,30797,71,62,1,2,19,9,8.mid,experiment,1
62,137,31060,72,62,1,2,19,9,8.mid,experiment,1
63,139,31327,72,59,1,2,19,9,8.mid,experiment,1
64,141,31581,73,63,1,2,19,9,8.mid,experiment,1
65,143,31846,73,67,1,2,19,9,8.mid,experiment,1
66,145,32133,74,101,1,2,19,9,8.mid,experiment,1
67,146,32666,77,95,1,2,19,9,8.mid,experiment,1
68,149,33247,76,100,1,2,19,9,8.mid,experiment,1
69,151,33785,74,106,1,2,19,9,8.mid,experiment,1
70,153,34341,72,105,1,2,19,9,8.mid,experiment,1
71,155,34912,84,106,1,2,19,9,8.mid,experiment,1
72,157,35501,84,105,1,2,19,9,8.mid,experiment,1
1,17,9748,79,64,1,2,20,1,7.mid,experiment,1
2,18,10109,78,75,1,2,20,1,7.mid,experiment,1
3,20,10415,79,70,1,2,20,1,7.mid,experiment,1
4,22,10713,76,73,1,2,20,1,7.mid,experiment,1
5,24,11061,72,78,1,2,20,1,7.mid,experiment,1
6,26,11396,67,56,1,2,20,1,7.mid,experiment,1
7,29,11735,67,54,1,2,20,1,7.mid,experiment,1
8,31,12069,67,59,1,2,20,1,7.mid,experiment,1
9,33,12510,79,57,1,2,20,1,7.mid,experiment,1
10,34,12809,78,66,1,2,20,1,7.mid,experiment,1
11,37,13129,79,65,1,2,20,1,7.mid,experiment,1
12,38,13431,76,67,1,2,20,1,7.mid,experiment,1
13,40,13751,72,68,1,2,20,1,7.mid,experiment,1
14,42,14053,76,74,1,2,20,1,7.mid,experiment,1
15,44,14361,79,81,1,2,20,1,7.mid,experiment,1
16,46,14650,84,88,1,2,20,1,7.mid,experiment,1
17,48,14993,83,87,1,2,20,1,7.mid,experiment,1
18,50,15333,81,70,1,2,20,1,7.mid,experiment,1
19,53,15651,81,61,1,2,20,1,7.mid,experiment,1
20,55,15974,81,65,1,2,20,1,7.mid,experiment,1
21,57,16354,83,59,1,2,20,1,7.mid,experiment,1
22,58,16659,81,75,1,2,20,1,7.mid,experiment,1
23,61,16974,84,76,1,2,20,1,7.mid,experiment,1
24,62,17265,81,79,1,2,20,1,7.mid,experiment,1
25,64,17598,78,77,1,2,20,1,7.mid,experiment,1
26,66,17912,79,80,1,2,20,1,7.mid,experiment,1
27,69,18284,79,78,1,2,20,1,7.mid,experiment,1
28,71,18971,79,67,1,2,20,1,7.mid,experiment,1
29,73,20351,77,57,1,2,20,1,7.mid,experiment,1
30,75,20690,77,58,1,2,20,1,7.mid,experiment,1
31,77,21011,76,46,1,2,20,1,7.mid,experiment,1
32,79,21327,76,52,1,2,20,1,7.mid,experiment,1
33,81,21669,74,53,1,2,20,1,7.mid,experiment,1
34,83,23133,79,52,1,2,20,1,7.mid,experiment,1
35,84,23792,77,60,1,2,20,1,7.mid,experiment,1
36,86,24435,76,54,1,2,20,1,7.mid,experiment,1
37,89,24774,76,59,1,2,20,1,7.mid,experiment,1
38,91,25090,76,63,1,2,20,1,7.mid,experiment,1
39,93,25401,76,55,1,2,20,1,7.mid,experiment,1
40,95,25807,81,64,1,2,20,1,7.mid,experiment,1
41,96,26143,77,74,1,2,20,1,7.mid,experiment,1
42,98,26450,76,79,1,2,20,1,7.mid,experiment,1
43,100,26733,74,81,1,2,20,1,7.mid,experiment,1
44,102,27059,76,81,1,2,20,1,7.mid,experiment,1
45,104,27355,79,83,1,2,20,1,7.mid,experiment,1
46,106,27649,74,89,1,2,20,1,7.mid,experiment,1
47,108,27963,71,77,1,2,20,1,7.mid,experiment,1
48,110,28327,72,65,1,2,20,1,7.mid,experiment,1
49,113,28636,72,64,1,2,20,1,7.mid,experiment,1
50,115,28949,74,68,1,2,20,1,7.mid,experiment,1
51,117,29267,74,56,1,2,20,1,7.mid,experiment,1
52,119,29662,76,37,1,2,20,1,7.mid,experiment,1
53,121,30974,65,55,1,2,20,1,7.mid,experiment,1
54,123,31286,65,65,1,2,20,1,7.mid,experiment,1
55,125,31893,64,57,1,2,20,1,7.mid,experiment,1
56,125,,64,,1,2,20,1,7.mid,experiment,1
57,127,32250,62,56,1,2,20,1,7.mid,experiment,1
58,129,33562,67,56,1,2,20,1,7.mid,experiment,1
59,131,33913,67,56,1,2,20,1,7.mid,experiment,1
60,133,34203,71,64,1,2,20,1,7.mid,experiment,1
61,135,34503,71,65,1,2,20,1,7.mid,experiment,1
62,137,34795,72,77,1,2,20,1,7.mid,experiment,1
63,139,35097,72,78,1,2,20,1,7.mid,experiment,1
64,141,35387,73,81,1,2,20,1,7.mid,experiment,1
65,143,35696,73,76,1,2,20,1,7.mid,experiment,1
66,145,36042,74,80,1,2,20,1,7.mid,experiment,1
67,146,36692,77,79,1,2,20,1,7.mid,experiment,1
68,148,37293,76,82,1,2,20,1,7.mid,experiment,1
69,150,37886,74,76,1,2,20,1,7.mid,experiment,1
70,153,38484,72,81,1,2,20,1,7.mid,experiment,1
71,155,39134,84,90,1,2,20,1,7.mid,experiment,1
72,157,39795,84,87,1,2,20,1,7.mid,experiment,1
1,17,9854,79,63,1,2,20,5,16.mid,experiment,1
2,18,10193,78,71,1,2,20,5,16.mid,experiment,1
3,21,10478,79,78,1,2,20,5,16.mid,experiment,1
4,22,10771,76,72,1,2,20,5,16.mid,experiment,1
5,24,11115,72,81,1,2,20,5,16.mid,experiment,1
6,26,11424,67,67,1,2,20,5,16.mid,experiment,1
7,29,11719,67,58,1,2,20,5,16.mid,experiment,1
8,31,12015,67,63,1,2,20,5,16.mid,experiment,1
9,33,12397,79,65,1,2,20,5,16.mid,experiment,1
10,34,12711,78,71,1,2,20,5,16.mid,experiment,1
11,36,12997,79,73,1,2,20,5,16.mid,experiment,1
12,38,13283,76,67,1,2,20,5,16.mid,experiment,1
13,40,13573,72,71,1,2,20,5,16.mid,experiment,1
14,42,13854,76,70,1,2,20,5,16.mid,experiment,1
15,44,14137,79,81,1,2,20,5,16.mid,experiment,1
16,46,14407,84,88,1,2,20,5,16.mid,experiment,1
17,48,14714,83,82,1,2,20,5,16.mid,experiment,1
18,50,15037,81,59,1,2,20,5,16.mid,experiment,1
19,53,15334,81,64,1,2,20,5,16.mid,experiment,1
20,55,15631,81,57,1,2,20,5,16.mid,experiment,1
21,57,15959,83,68,1,2,20,5,16.mid,experiment,1
22,58,16235,81,78,1,2,20,5,16.mid,experiment,1
23,60,16519,84,83,1,2,20,5,16.mid,experiment,1
24,62,16797,81,81,1,2,20,5,16.mid,experiment,1
25,64,17099,78,78,1,2,20,5,16.mid,experiment,1
26,66,17400,79,83,1,2,20,5,16.mid,experiment,1
27,69,17723,79,74,1,2,20,5,16.mid,experiment,1
28,71,18371,79,75,1,2,20,5,16.mid,experiment,1
29,73,19692,77,61,1,2,20,5,16.mid,experiment,1
30,75,20004,77,62,1,2,20,5,16.mid,experiment,1
31,77,20300,76,57,1,2,20,5,16.mid,experiment,1
32,79,20585,76,55,1,2,20,5,16.mid,experiment,1
33,81,20907,74,57,1,2,20,5,16.mid,experiment,1
34,83,22167,79,50,1,2,20,5,16.mid,experiment,1
35,85,22783,77,58,1,2,20,5,16.mid,experiment,1
36,86,23388,76,55,1,2,20,5,16.mid,experiment,1
37,89,23711,76,50,1,2,20,5,16.mid,experiment,1
38,91,24007,76,59,1,2,20,5,16.mid,experiment,1
39,93,24288,76,54,1,2,20,5,16.mid,experiment,1
40,95,24648,81,62,1,2,20,5,16.mid,experiment,1
41,96,24950,77,70,1,2,20,5,16.mid,experiment,1
42,98,25229,76,70,1,2,20,5,16.mid,experiment,1
43,100,25496,74,77,1,2,20,5,16.mid,experiment,1
44,102,25804,76,76,1,2,20,5,16.mid,experiment,1
45,104,26084,79,81,1,2,20,5,16.mid,experiment,1
46,106,26359,74,85,1,2,20,5,16.mid,experiment,1
47,108,26650,71,76,1,2,20,5,16.mid,experiment,1
48,110,26971,72,65,1,2,20,5,16.mid,experiment,1
49,113,27251,72,63,1,2,20,5,16.mid,experiment,1
50,115,27541,74,55,1,2,20,5,16.mid,experiment,1
51,117,27830,74,54,1,2,20,5,16.mid,experiment,1
52,119,28165,76,48,1,2,20,5,16.mid,experiment,1
53,121,29455,65,57,1,2,20,5,16.mid,experiment,1
54,123,29762,65,67,1,2,20,5,16.mid,experiment,1
55,125,30057,64,59,1,2,20,5,16.mid,experiment,1
56,127,30337,64,61,1,2,20,5,16.mid,experiment,1
57,129,30670,62,56,1,2,20,5,16.mid,experiment,1
58,131,31967,67,55,1,2,20,5,16.mid,experiment,1
59,133,32298,67,50,1,2,20,5,16.mid,experiment,1
60,135,32841,71,63,1,2,20,5,16.mid,experiment,1
61,135,,71,,1,2,20,5,16.mid,experiment,1
62,137,33139,72,63,1,2,20,5,16.mid,experiment,1
63,139,33423,72,68,1,2,20,5,16.mid,experiment,1
64,141,33685,73,72,1,2,20,5,16.mid,experiment,1
65,143,33964,73,73,1,2,20,5,16.mid,experiment,1
66,145,34293,74,72,1,2,20,5,16.mid,experiment,1
67,146,34915,77,71,1,2,20,5,16.mid,experiment,1
68,148,35499,76,73,1,2,20,5,16.mid,experiment,1
69,150,36059,74,80,1,2,20,5,16.mid,experiment,1
70,153,36665,72,78,1,2,20,5,16.mid,experiment,1
71,154,37276,84,93,1,2,20,5,16.mid,experiment,1
72,157,37930,84,85,1,2,20,5,16.mid,experiment,1
1,17,7801,79,63,1,2,21,3,8.mid,experiment,1
2,18,8099,78,74,1,2,21,3,8.mid,experiment,1
3,20,8391,79,68,1,2,21,3,8.mid,experiment,1
4,23,8660,76,55,1,2,21,3,8.mid,experiment,1
5,25,8979,72,52,1,2,21,3,8.mid,experiment,1
6,27,9245,67,36,1,2,21,3,8.mid,experiment,1
7,29,9533,67,52,1,2,21,3,8.mid,experiment,1
8,31,9829,67,51,1,2,21,3,8.mid,experiment,1
9,33,10103,79,56,1,2,21,3,8.mid,experiment,1
10,34,10380,78,67,1,2,21,3,8.mid,experiment,1
11,36,10643,79,68,1,2,21,3,8.mid,experiment,1
12,38,10911,76,75,1,2,21,3,8.mid,experiment,1
13,41,11208,72,81,1,2,21,3,8.mid,experiment,1
14,42,11465,76,75,1,2,21,3,8.mid,experiment,1
15,44,11751,79,81,1,2,21,3,8.mid,experiment,1
16,47,12007,84,67,1,2,21,3,8.mid,experiment,1
17,48,12297,83,59,1,2,21,3,8.mid,experiment,1
18,51,12575,81,56,1,2,21,3,8.mid,experiment,1
19,53,12844,81,56,1,2,21,3,8.mid,experiment,1
20,55,13131,81,47,1,2,21,3,8.mid,experiment,1
21,57,13420,83,57,1,2,21,3,8.mid,experiment,1
22,58,13685,81,71,1,2,21,3,8.mid,experiment,1
23,61,13961,84,73,1,2,21,3,8.mid,experiment,1
24,62,14233,81,51,1,2,21,3,8.mid,experiment,1
25,64,14505,78,65,1,2,21,3,8.mid,experiment,1
26,66,14769,79,70,1,2,21,3,8.mid,experiment,1
27,69,15063,79,63,1,2,21,3,8.mid,experiment,1
28,71,15675,79,60,1,2,21,3,8.mid,experiment,1
29,73,16831,77,44,1,2,21,3,8.mid,experiment,1
30,75,17132,77,47,1,2,21,3,8.mid,experiment,1
31,77,17379,76,56,1,2,21,3,8.mid,experiment,1
32,79,17669,76,53,1,2,21,3,8.mid,experiment,1
33,81,17997,74,45,1,2,21,3,8.mid,experiment,1
34,83,19031,79,52,1,2,21,3,8.mid,experiment,1
35,85,19605,77,46,1,2,21,3,8.mid,experiment,1
36,87,20145,76,63,1,2,21,3,8.mid,experiment,1
37,89,20425,76,79,1,2,21,3,8.mid,experiment,1
38,91,20693,76,90,1,2,21,3,8.mid,experiment,1
39,93,20957,76,78,1,2,21,3,8.mid,experiment,1
40,95,21257,81,72,1,2,21,3,8.mid,experiment,1
41,96,21556,77,67,1,2,21,3,8.mid,experiment,1
42,99,21821,76,76,1,2,21,3,8.mid,experiment,1
43,101,22068,74,72,1,2,21,3,8.mid,experiment,1
44,102,22352,76,78,1,2,21,3,8.mid,experiment,1
45,104,22639,79,57,1,2,21,3,8.mid,experiment,1
46,106,22923,74,63,1,2,21,3,8.mid,experiment,1
47,109,23181,71,54,1,2,21,3,8.mid,experiment,1
48,111,23441,72,63,1,2,21,3,8.mid,experiment,1
49,113,23733,72,52,1,2,21,3,8.mid,experiment,1
50,115,24263,74,57,1,2,21,3,8.mid,experiment,1
51,115,,74,,1,2,21,3,8.mid,experiment,1
52,117,24627,76,47,1,2,21,3,8.mid,experiment,1
53,119,25935,65,57,1,2,21,3,8.mid,experiment,1
54,121,26203,65,61,1,2,21,3,8.mid,experiment,1
55,123,26489,64,45,1,2,21,3,8.mid,experiment,1
56,125,26751,64,59,1,2,21,3,8.mid,experiment,1
57,127,27099,62,50,1,2,21,3,8.mid,experiment,1
58,129,28115,67,52,1,2,21,3,8.mid,experiment,1
59,131,28389,67,62,1,2,21,3,8.mid,experiment,1
60,133,28663,71,71,1,2,21,3,8.mid,experiment,1
61,135,28925,71,80,1,2,21,3,8.mid,experiment,1
62,137,29193,72,75,1,2,21,3,8.mid,experiment,1
63,139,29449,72,88,1,2,21,3,8.mid,experiment,1
64,141,29705,73,82,1,2,21,3,8.mid,experiment,1
65,143,29953,73,83,1,2,21,3,8.mid,experiment,1
66,145,30265,74,77,1,2,21,3,8.mid,experiment,1
67,147,30826,77,74,1,2,21,3,8.mid,experiment,1
68,149,31360,76,70,1,2,21,3,8.mid,experiment,1
69,151,31927,74,78,1,2,21,3,8.mid,experiment,1
70,153,32481,72,75,1,2,21,3,8.mid,experiment,1
71,155,33103,84,52,1,2,21,3,8.mid,experiment,1
72,157,33725,84,71,1,2,21,3,8.mid,experiment,1
1,17,7819,79,54,1,2,21,5,7.mid,experiment,1
2,18,8105,78,70,1,2,21,5,7.mid,experiment,1
3,20,8414,79,63,1,2,21,5,7.mid,experiment,1
4,23,8683,76,64,1,2,21,5,7.mid,experiment,1
5,25,8984,72,60,1,2,21,5,7.mid,experiment,1
6,27,9277,67,48,1,2,21,5,7.mid,experiment,1
7,29,9565,67,37,1,2,21,5,7.mid,experiment,1
8,31,9831,67,57,1,2,21,5,7.mid,experiment,1
9,33,10162,79,49,1,2,21,5,7.mid,experiment,1
10,34,10438,78,70,1,2,21,5,7.mid,experiment,1
11,36,10727,79,57,1,2,21,5,7.mid,experiment,1
12,38,11001,76,67,1,2,21,5,7.mid,experiment,1
13,41,11290,72,82,1,2,21,5,7.mid,experiment,1
14,42,11569,76,78,1,2,21,5,7.mid,experiment,1
15,44,11845,79,81,1,2,21,5,7.mid,experiment,1
16,47,12127,84,63,1,2,21,5,7.mid,experiment,1
17,49,12429,83,55,1,2,21,5,7.mid,experiment,1
18,51,12963,81,56,1,2,21,5,7.mid,experiment,1
19,53,13247,81,60,1,2,21,5,7.mid,experiment,1
20,53,,81,,1,2,21,5,7.mid,experiment,1
21,55,13557,83,54,1,2,21,5,7.mid,experiment,1
22,56,13824,81,73,1,2,21,5,7.mid,experiment,1
23,59,14104,84,72,1,2,21,5,7.mid,experiment,1
24,61,14390,81,63,1,2,21,5,7.mid,experiment,1
25,63,14668,78,59,1,2,21,5,7.mid,experiment,1
26,65,14934,79,55,1,2,21,5,7.mid,experiment,1
27,67,15263,79,57,1,2,21,5,7.mid,experiment,1
28,69,15948,79,43,1,2,21,5,7.mid,experiment,1
29,71,17021,77,48,1,2,21,5,7.mid,experiment,1
30,73,17319,77,47,1,2,21,5,7.mid,experiment,1
31,75,17597,76,47,1,2,21,5,7.mid,experiment,1
32,77,17881,76,43,1,2,21,5,7.mid,experiment,1
33,79,18204,74,43,1,2,21,5,7.mid,experiment,1
34,81,19286,79,50,1,2,21,5,7.mid,experiment,1
35,83,19825,77,63,1,2,21,5,7.mid,experiment,1
36,85,20392,76,56,1,2,21,5,7.mid,experiment,1
37,87,20688,76,68,1,2,21,5,7.mid,experiment,1
38,89,20950,76,80,1,2,21,5,7.mid,experiment,1
39,91,21215,76,79,1,2,21,5,7.mid,experiment,1
40,93,21508,81,74,1,2,21,5,7.mid,experiment,1
41,94,21784,77,69,1,2,21,5,7.mid,experiment,1
42,97,22052,76,68,1,2,21,5,7.mid,experiment,1
43,98,22327,74,73,1,2,21,5,7.mid,experiment,1
44,100,22616,76,79,1,2,21,5,7.mid,experiment,1
45,103,22901,79,70,1,2,21,5,7.mid,experiment,1
46,105,23193,74,67,1,2,21,5,7.mid,experiment,1
47,107,23478,71,48,1,2,21,5,7.mid,experiment,1
48,109,23730,72,48,1,2,21,5,7.mid,experiment,1
49,111,24010,72,51,1,2,21,5,7.mid,experiment,1
50,113,24265,74,55,1,2,21,5,7.mid,experiment,1
51,115,24549,74,57,1,2,21,5,7.mid,experiment,1
52,117,24973,76,34,1,2,21,5,7.mid,experiment,1
53,119,26049,65,47,1,2,21,5,7.mid,experiment,1
54,121,26353,65,51,1,2,21,5,7.mid,experiment,1
55,123,26651,64,45,1,2,21,5,7.mid,experiment,1
56,125,26903,64,62,1,2,21,5,7.mid,experiment,1
57,127,27220,62,59,1,2,21,5,7.mid,experiment,1
58,129,28305,67,43,1,2,21,5,7.mid,experiment,1
59,131,28587,67,58,1,2,21,5,7.mid,experiment,1
60,133,28878,71,55,1,2,21,5,7.mid,experiment,1
61,135,29143,71,71,1,2,21,5,7.mid,experiment,1
62,137,29407,72,81,1,2,21,5,7.mid,experiment,1
63,139,29689,72,89,1,2,21,5,7.mid,experiment,1
64,141,29956,73,95,1,2,21,5,7.mid,experiment,1
65,143,30236,73,93,1,2,21,5,7.mid,experiment,1
66,145,30518,74,82,1,2,21,5,7.mid,experiment,1
67,147,31069,77,77,1,2,21,5,7.mid,experiment,1
68,149,31603,76,67,1,2,21,5,7.mid,experiment,1
69,151,32190,74,82,1,2,21,5,7.mid,experiment,1
70,153,32793,72,89,1,2,21,5,7.mid,experiment,1
71,155,33405,84,84,1,2,21,5,7.mid,experiment,1
72,157,34088,84,89,1,2,21,5,7.mid,experiment,1
1,17,7805,79,57,1,2,21,6,10.mid,experiment,1
2,18,8106,78,73,1,2,21,6,10.mid,experiment,1
3,20,8391,79,70,1,2,21,6,10.mid,experiment,1
4,22,8662,76,63,1,2,21,6,10.mid,experiment,1
5,25,8978,72,54,1,2,21,6,10.mid,experiment,1
6,27,9278,67,37,1,2,21,6,10.mid,experiment,1
7,29,9581,67,33,1,2,21,6,10.mid,experiment,1
8,31,9834,67,46,1,2,21,6,10.mid,experiment,1
9,33,10125,79,53,1,2,21,6,10.mid,experiment,1
10,34,10387,78,70,1,2,21,6,10.mid,experiment,1
11,36,10685,79,71,1,2,21,6,10.mid,experiment,1
12,39,10978,76,66,1,2,21,6,10.mid,experiment,1
13,41,11278,72,78,1,2,21,6,10.mid,experiment,1
14,42,11564,76,76,1,2,21,6,10.mid,experiment,1
15,44,11843,79,81,1,2,21,6,10.mid,experiment,1
16,47,12124,84,72,1,2,21,6,10.mid,experiment,1
17,49,12423,83,55,1,2,21,6,10.mid,experiment,1
18,51,12673,81,51,1,2,21,6,10.mid,experiment,1
19,53,13249,81,65,1,2,21,6,10.mid,experiment,1
20,53,,81,,1,2,21,6,10.mid,experiment,1
21,55,13544,83,59,1,2,21,6,10.mid,experiment,1
22,57,13832,81,66,1,2,21,6,10.mid,experiment,1
23,59,14136,84,62,1,2,21,6,10.mid,experiment,1
24,61,14411,81,69,1,2,21,6,10.mid,experiment,1
25,62,14686,78,75,1,2,21,6,10.mid,experiment,1
26,64,14962,79,73,1,2,21,6,10.mid,experiment,1
27,67,15254,79,61,1,2,21,6,10.mid,experiment,1
28,69,15910,79,60,1,2,21,6,10.mid,experiment,1
29,71,17086,77,42,1,2,21,6,10.mid,experiment,1
30,73,17365,77,56,1,2,21,6,10.mid,experiment,1
31,75,17650,76,52,1,2,21,6,10.mid,experiment,1
32,77,17917,76,53,1,2,21,6,10.mid,experiment,1
33,79,18271,74,47,1,2,21,6,10.mid,experiment,1
34,81,19408,79,59,1,2,21,6,10.mid,experiment,1
35,83,19989,77,68,1,2,21,6,10.mid,experiment,1
36,85,20560,76,57,1,2,21,6,10.mid,experiment,1
37,87,20845,76,70,1,2,21,6,10.mid,experiment,1
38,89,21117,76,78,1,2,21,6,10.mid,experiment,1
39,91,21383,76,81,1,2,21,6,10.mid,experiment,1
40,93,21710,81,76,1,2,21,6,10.mid,experiment,1
41,94,22049,77,71,1,2,21,6,10.mid,experiment,1
42,96,22329,76,78,1,2,21,6,10.mid,experiment,1
43,99,22589,74,79,1,2,21,6,10.mid,experiment,1
44,100,22858,76,71,1,2,21,6,10.mid,experiment,1
45,102,23131,79,76,1,2,21,6,10.mid,experiment,1
46,104,23413,74,71,1,2,21,6,10.mid,experiment,1
47,107,23688,71,56,1,2,21,6,10.mid,experiment,1
48,109,23960,72,48,1,2,21,6,10.mid,experiment,1
49,111,24244,72,51,1,2,21,6,10.mid,experiment,1
50,113,24501,74,55,1,2,21,6,10.mid,experiment,1
51,115,24782,74,56,1,2,21,6,10.mid,experiment,1
52,117,25212,76,22,1,2,21,6,10.mid,experiment,1
53,119,26303,65,32,1,2,21,6,10.mid,experiment,1
54,121,26591,65,53,1,2,21,6,10.mid,experiment,1
55,123,27127,64,51,1,2,21,6,10.mid,experiment,1
56,123,,64,,1,2,21,6,10.mid,experiment,1
57,125,27471,62,39,1,2,21,6,10.mid,experiment,1
58,127,28520,67,56,1,2,21,6,10.mid,experiment,1
59,129,28811,67,60,1,2,21,6,10.mid,experiment,1
60,131,29088,71,64,1,2,21,6,10.mid,experiment,1
61,133,29356,71,71,1,2,21,6,10.mid,experiment,1
62,135,29618,72,77,1,2,21,6,10.mid,experiment,1
63,137,29899,72,82,1,2,21,6,10.mid,experiment,1
64,139,30149,73,85,1,2,21,6,10.mid,experiment,1
65,141,30435,73,79,1,2,21,6,10.mid,experiment,1
66,143,30744,74,78,1,2,21,6,10.mid,experiment,1
67,145,31293,77,83,1,2,21,6,10.mid,experiment,1
68,147,31860,76,82,1,2,21,6,10.mid,experiment,1
69,149,32417,74,81,1,2,21,6,10.mid,experiment,1
70,151,32988,72,80,1,2,21,6,10.mid,experiment,1
71,153,33603,84,82,1,2,21,6,10.mid,experiment,1
72,155,34257,84,77,1,2,21,6,10.mid,experiment,1
1,17,7847,79,60,1,2,21,7,16.mid,experiment,1
2,18,8148,78,68,1,2,21,7,16.mid,experiment,1
3,20,8428,79,63,1,2,21,7,16.mid,experiment,1
4,23,8685,76,57,1,2,21,7,16.mid,experiment,1
5,25,8984,72,59,1,2,21,7,16.mid,experiment,1
6,27,9274,67,41,1,2,21,7,16.mid,experiment,1
7,29,9552,67,46,1,2,21,7,16.mid,experiment,1
8,31,9851,67,46,1,2,21,7,16.mid,experiment,1
9,33,10163,79,54,1,2,21,7,16.mid,experiment,1
10,34,10445,78,66,1,2,21,7,16.mid,experiment,1
11,36,10740,79,74,1,2,21,7,16.mid,experiment,1
12,38,10997,76,63,1,2,21,7,16.mid,experiment,1
13,41,11285,72,78,1,2,21,7,16.mid,experiment,1
14,42,11551,76,75,1,2,21,7,16.mid,experiment,1
15,44,11824,79,81,1,2,21,7,16.mid,experiment,1
16,47,12100,84,65,1,2,21,7,16.mid,experiment,1
17,49,12422,83,34,1,2,21,7,16.mid,experiment,1
18,51,12661,81,58,1,2,21,7,16.mid,experiment,1
19,53,12947,81,58,1,2,21,7,16.mid,experiment,1
20,55,13221,81,62,1,2,21,7,16.mid,experiment,1
21,57,13518,83,63,1,2,21,7,16.mid,experiment,1
22,58,13792,81,70,1,2,21,7,16.mid,experiment,1
23,61,14085,84,74,1,2,21,7,16.mid,experiment,1
24,63,14342,81,80,1,2,21,7,16.mid,experiment,1
25,64,14614,78,71,1,2,21,7,16.mid,experiment,1
26,66,14876,79,70,1,2,21,7,16.mid,experiment,1
27,69,15226,79,58,1,2,21,7,16.mid,experiment,1
28,71,15852,79,64,1,2,21,7,16.mid,experiment,1
29,73,16959,77,46,1,2,21,7,16.mid,experiment,1
30,75,17248,77,49,1,2,21,7,16.mid,experiment,1
31,77,17525,76,40,1,2,21,7,16.mid,experiment,1
32,79,17797,76,41,1,2,21,7,16.mid,experiment,1
33,81,18108,74,45,1,2,21,7,16.mid,experiment,1
34,83,19174,79,57,1,2,21,7,16.mid,experiment,1
35,85,19746,77,60,1,2,21,7,16.mid,experiment,1
36,87,20312,76,63,1,2,21,7,16.mid,experiment,1
37,89,20586,76,70,1,2,21,7,16.mid,experiment,1
38,91,20860,76,78,1,2,21,7,16.mid,experiment,1
39,93,21107,76,86,1,2,21,7,16.mid,experiment,1
40,95,21442,81,87,1,2,21,7,16.mid,experiment,1
41,96,21771,77,71,1,2,21,7,16.mid,experiment,1
42,98,22045,76,72,1,2,21,7,16.mid,experiment,1
43,100,22303,74,77,1,2,21,7,16.mid,experiment,1
44,102,22575,76,81,1,2,21,7,16.mid,experiment,1
45,105,22845,79,60,1,2,21,7,16.mid,experiment,1
46,107,23105,74,61,1,2,21,7,16.mid,experiment,1
47,109,23375,71,58,1,2,21,7,16.mid,experiment,1
48,111,23623,72,60,1,2,21,7,16.mid,experiment,1
49,113,23904,72,56,1,2,21,7,16.mid,experiment,1
50,115,24177,74,51,1,2,21,7,16.mid,experiment,1
51,115,,74,,1,2,21,7,16.mid,experiment,1
52,117,24819,76,35,1,2,21,7,16.mid,experiment,1
53,119,25924,65,52,1,2,21,7,16.mid,experiment,1
54,121,26221,65,49,1,2,21,7,16.mid,experiment,1
55,123,26491,64,47,1,2,21,7,16.mid,experiment,1
56,125,26748,64,62,1,2,21,7,16.mid,experiment,1
57,127,27084,62,52,1,2,21,7,16.mid,experiment,1
58,129,28121,67,36,1,2,21,7,16.mid,experiment,1
59,131,28388,67,66,1,2,21,7,16.mid,experiment,1
60,133,28666,71,57,1,2,21,7,16.mid,experiment,1
61,135,28924,71,70,1,2,21,7,16.mid,experiment,1
62,137,29179,72,81,1,2,21,7,16.mid,experiment,1
63,139,29451,72,81,1,2,21,7,16.mid,experiment,1
64,141,29721,73,87,1,2,21,7,16.mid,experiment,1
65,143,29993,73,88,1,2,21,7,16.mid,experiment,1
66,145,30292,74,81,1,2,21,7,16.mid,experiment,1
67,147,30856,77,70,1,2,21,7,16.mid,experiment,1
68,149,31406,76,81,1,2,21,7,16.mid,experiment,1
69,151,31982,74,85,1,2,21,7,16.mid,experiment,1
70,153,32544,72,88,1,2,21,7,16.mid,experiment,1
71,155,33155,84,94,1,2,21,7,16.mid,experiment,1
72,157,33831,84,93,1,2,21,7,16.mid,experiment,1
1,17,7812,79,66,1,2,21,8,3.mid,experiment,1
2,18,8109,78,72,1,2,21,8,3.mid,experiment,1
3,20,8391,79,71,1,2,21,8,3.mid,experiment,1
4,23,8650,76,62,1,2,21,8,3.mid,experiment,1
5,25,8944,72,55,1,2,21,8,3.mid,experiment,1
6,27,9235,67,50,1,2,21,8,3.mid,experiment,1
7,29,9525,67,43,1,2,21,8,3.mid,experiment,1
8,31,9793,67,52,1,2,21,8,3.mid,experiment,1
9,33,10072,79,60,1,2,21,8,3.mid,experiment,1
10,34,10346,78,73,1,2,21,8,3.mid,experiment,1
11,36,10636,79,67,1,2,21,8,3.mid,experiment,1
12,38,10907,76,78,1,2,21,8,3.mid,experiment,1
13,41,11197,72,86,1,2,21,8,3.mid,experiment,1
14,42,11462,76,86,1,2,21,8,3.mid,experiment,1
15,44,11745,79,84,1,2,21,8,3.mid,experiment,1
16,47,12025,84,56,1,2,21,8,3.mid,experiment,1
17,49,12337,83,48,1,2,21,8,3.mid,experiment,1
18,51,12872,81,57,1,2,21,8,3.mid,experiment,1
19,53,13141,81,65,1,2,21,8,3.mid,experiment,1
20,53,,81,,1,2,21,8,3.mid,experiment,1
21,55,13451,83,52,1,2,21,8,3.mid,experiment,1
22,57,13716,81,70,1,2,21,8,3.mid,experiment,1
23,59,13997,84,64,1,2,21,8,3.mid,experiment,1
24,61,14260,81,70,1,2,21,8,3.mid,experiment,1
25,63,14549,78,68,1,2,21,8,3.mid,experiment,1
26,65,14827,79,58,1,2,21,8,3.mid,experiment,1
27,67,15136,79,53,1,2,21,8,3.mid,experiment,1
28,69,15754,79,51,1,2,21,8,3.mid,experiment,1
29,71,17144,77,53,1,2,21,8,3.mid,experiment,1
30,73,17429,77,50,1,2,21,8,3.mid,experiment,1
31,75,17713,76,37,1,2,21,8,3.mid,experiment,1
32,77,17982,76,48,1,2,21,8,3.mid,experiment,1
33,79,18282,74,50,1,2,21,8,3.mid,experiment,1
34,81,19384,79,47,1,2,21,8,3.mid,experiment,1
35,83,19920,77,56,1,2,21,8,3.mid,experiment,1
36,85,20488,76,47,1,2,21,8,3.mid,experiment,1
37,87,20760,76,65,1,2,21,8,3.mid,experiment,1
38,89,21030,76,66,1,2,21,8,3.mid,experiment,1
39,91,21289,76,79,1,2,21,8,3.mid,experiment,1
40,93,21618,81,68,1,2,21,8,3.mid,experiment,1
41,95,21934,77,73,1,2,21,8,3.mid,experiment,1
42,96,22212,76,74,1,2,21,8,3.mid,experiment,1
43,99,22470,74,73,1,2,21,8,3.mid,experiment,1
44,100,22728,76,67,1,2,21,8,3.mid,experiment,1
45,103,22992,79,68,1,2,21,8,3.mid,experiment,1
46,104,23270,74,69,1,2,21,8,3.mid,experiment,1
47,107,23555,71,54,1,2,21,8,3.mid,experiment,1
48,109,23835,72,52,1,2,21,8,3.mid,experiment,1
49,111,24104,72,62,1,2,21,8,3.mid,experiment,1
50,113,24381,74,51,1,2,21,8,3.mid,experiment,1
51,115,24655,74,53,1,2,21,8,3.mid,experiment,1
52,117,25016,76,32,1,2,21,8,3.mid,experiment,1
53,119,26014,65,55,1,2,21,8,3.mid,experiment,1
54,121,26325,65,51,1,2,21,8,3.mid,experiment,1
55,123,26635,64,35,1,2,21,8,3.mid,experiment,1
56,125,26880,64,58,1,2,21,8,3.mid,experiment,1
57,127,27197,62,53,1,2,21,8,3.mid,experiment,1
58,129,28243,67,33,1,2,21,8,3.mid,experiment,1
59,131,28523,67,59,1,2,21,8,3.mid,experiment,1
60,133,28810,71,55,1,2,21,8,3.mid,experiment,1
61,135,29069,71,76,1,2,21,8,3.mid,experiment,1
62,137,29343,72,84,1,2,21,8,3.mid,experiment,1
63,139,29613,72,85,1,2,21,8,3.mid,experiment,1
64,141,29882,73,87,1,2,21,8,3.mid,experiment,1
65,143,30158,73,91,1,2,21,8,3.mid,experiment,1
66,145,30439,74,83,1,2,21,8,3.mid,experiment,1
67,147,30998,77,77,1,2,21,8,3.mid,experiment,1
68,149,31562,76,68,1,2,21,8,3.mid,experiment,1
69,151,32129,74,81,1,2,21,8,3.mid,experiment,1
70,153,32749,72,89,1,2,21,8,3.mid,experiment,1
71,155,33353,84,74,1,2,21,8,3.mid,experiment,1
72,157,33978,84,77,1,2,21,8,3.mid,experiment,1
1,17,7825,79,71,1,2,21,9,14.mid,experiment,1
2,18,8120,78,75,1,2,21,9,14.mid,experiment,1
3,20,8421,79,62,1,2,21,9,14.mid,experiment,1
4,23,8667,76,68,1,2,21,9,14.mid,experiment,1
5,25,8986,72,58,1,2,21,9,14.mid,experiment,1
6,27,9293,67,39,1,2,21,9,14.mid,experiment,1
7,29,9581,67,38,1,2,21,9,14.mid,experiment,1
8,31,9849,67,50,1,2,21,9,14.mid,experiment,1
9,33,10121,79,58,1,2,21,9,14.mid,experiment,1
10,34,10400,78,70,1,2,21,9,14.mid,experiment,1
11,36,10687,79,68,1,2,21,9,14.mid,experiment,1
12,38,10959,76,76,1,2,21,9,14.mid,experiment,1
13,41,11253,72,85,1,2,21,9,14.mid,experiment,1
14,42,11524,76,76,1,2,21,9,14.mid,experiment,1
15,44,11809,79,81,1,2,21,9,14.mid,experiment,1
16,47,12079,84,61,1,2,21,9,14.mid,experiment,1
17,49,12399,83,56,1,2,21,9,14.mid,experiment,1
18,51,12683,81,48,1,2,21,9,14.mid,experiment,1
19,53,12954,81,54,1,2,21,9,14.mid,experiment,1
20,55,13240,81,49,1,2,21,9,14.mid,experiment,1
21,57,13525,83,71,1,2,21,9,14.mid,experiment,1
22,58,13819,81,69,1,2,21,9,14.mid,experiment,1
23,61,14093,84,59,1,2,21,9,14.mid,experiment,1
24,63,14371,81,61,1,2,21,9,14.mid,experiment,1
25,64,14643,78,73,1,2,21,9,14.mid,experiment,1
26,66,14921,79,75,1,2,21,9,14.mid,experiment,1
27,69,15220,79,71,1,2,21,9,14.mid,experiment,1
28,71,15841,79,71,1,2,21,9,14.mid,experiment,1
29,73,16958,77,48,1,2,21,9,14.mid,experiment,1
30,75,17246,77,49,1,2,21,9,14.mid,experiment,1
31,77,17515,76,46,1,2,21,9,14.mid,experiment,1
32,77,,76,,1,2,21,9,14.mid,experiment,1
33,79,18083,74,50,1,2,21,9,14.mid,experiment,1
34,81,19182,79,62,1,2,21,9,14.mid,experiment,1
35,83,19764,77,64,1,2,21,9,14.mid,experiment,1
36,85,20346,76,62,1,2,21,9,14.mid,experiment,1
37,87,20620,76,74,1,2,21,9,14.mid,experiment,1
38,89,20883,76,83,1,2,21,9,14.mid,experiment,1
39,91,21142,76,83,1,2,21,9,14.mid,experiment,1
40,93,21475,81,89,1,2,21,9,14.mid,experiment,1
41,94,21793,77,72,1,2,21,9,14.mid,experiment,1
42,96,22068,76,67,1,2,21,9,14.mid,experiment,1
43,99,22340,74,68,1,2,21,9,14.mid,experiment,1
44,100,22602,76,78,1,2,21,9,14.mid,experiment,1
45,103,22872,79,62,1,2,21,9,14.mid,experiment,1
46,104,23134,74,65,1,2,21,9,14.mid,experiment,1
47,107,23397,71,58,1,2,21,9,14.mid,experiment,1
48,109,23650,72,53,1,2,21,9,14.mid,experiment,1
49,111,23917,72,55,1,2,21,9,14.mid,experiment,1
50,113,24188,74,50,1,2,21,9,14.mid,experiment,1
51,115,24449,74,65,1,2,21,9,14.mid,experiment,1
52,117,24840,76,47,1,2,21,9,14.mid,experiment,1
53,119,25879,65,55,1,2,21,9,14.mid,experiment,1
54,119,,65,,1,2,21,9,14.mid,experiment,1
55,121,26478,64,63,1,2,21,9,14.mid,experiment,1
56,123,26765,64,46,1,2,21,9,14.mid,experiment,1
57,125,27071,62,47,1,2,21,9,14.mid,experiment,1
58,127,28069,67,59,1,2,21,9,14.mid,experiment,1
59,129,28359,67,57,1,2,21,9,14.mid,experiment,1
60,131,28645,71,46,1,2,21,9,14.mid,experiment,1
61,133,28920,71,67,1,2,21,9,14.mid,experiment,1
62,135,29168,72,76,1,2,21,9,14.mid,experiment,1
63,137,29446,72,81,1,2,21,9,14.mid,experiment,1
64,139,29694,73,83,1,2,21,9,14.mid,experiment,1
65,141,29969,73,83,1,2,21,9,14.mid,experiment,1
66,143,30265,74,77,1,2,21,9,14.mid,experiment,1
67,145,30804,77,75,1,2,21,9,14.mid,experiment,1
68,147,31325,76,81,1,2,21,9,14.mid,experiment,1
69,149,31894,74,79,1,2,21,9,14.mid,experiment,1
70,151,32431,72,75,1,2,21,9,14.mid,experiment,1
71,153,33043,84,85,1,2,21,9,14.mid,experiment,1
72,155,33768,84,81,1,2,21,9,14.mid,experiment,1
1,17,7818,79,70,1,2,21,10,9.mid,experiment,1
2,18,8126,78,75,1,2,21,10,9.mid,experiment,1
3,20,8420,79,65,1,2,21,10,9.mid,experiment,1
4,23,8688,76,62,1,2,21,10,9.mid,experiment,1
5,24,8994,72,63,1,2,21,10,9.mid,experiment,1
6,27,9258,67,49,1,2,21,10,9.mid,experiment,1
7,29,9559,67,45,1,2,21,10,9.mid,experiment,1
8,31,9843,67,36,1,2,21,10,9.mid,experiment,1
9,33,10158,79,24,1,2,21,10,9.mid,experiment,1
10,34,10389,78,53,1,2,21,10,9.mid,experiment,1
11,36,10690,79,63,1,2,21,10,9.mid,experiment,1
12,38,10963,76,73,1,2,21,10,9.mid,experiment,1
13,41,11261,72,78,1,2,21,10,9.mid,experiment,1
14,42,11533,76,80,1,2,21,10,9.mid,experiment,1
15,44,11807,79,80,1,2,21,10,9.mid,experiment,1
16,47,12077,84,63,1,2,21,10,9.mid,experiment,1
17,49,12378,83,52,1,2,21,10,9.mid,experiment,1
18,51,12662,81,48,1,2,21,10,9.mid,experiment,1
19,53,12944,81,47,1,2,21,10,9.mid,experiment,1
20,55,13218,81,55,1,2,21,10,9.mid,experiment,1
21,57,13513,83,71,1,2,21,10,9.mid,experiment,1
22,58,13793,81,79,1,2,21,10,9.mid,experiment,1
23,61,14073,84,72,1,2,21,10,9.mid,experiment,1
24,63,14342,81,75,1,2,21,10,9.mid,experiment,1
25,64,14615,78,75,1,2,21,10,9.mid,experiment,1
26,66,14881,79,70,1,2,21,10,9.mid,experiment,1
27,69,15184,79,72,1,2,21,10,9.mid,experiment,1
28,71,15844,79,56,1,2,21,10,9.mid,experiment,1
29,73,16950,77,49,1,2,21,10,9.mid,experiment,1
30,75,17234,77,46,1,2,21,10,9.mid,experiment,1
31,77,17766,76,54,1,2,21,10,9.mid,experiment,1
32,77,,76,,1,2,21,10,9.mid,experiment,1
33,79,18099,74,54,1,2,21,10,9.mid,experiment,1
34,81,19230,79,57,1,2,21,10,9.mid,experiment,1
35,83,19791,77,69,1,2,21,10,9.mid,experiment,1
36,85,20367,76,63,1,2,21,10,9.mid,experiment,1
37,87,20652,76,72,1,2,21,10,9.mid,experiment,1
38,89,20915,76,78,1,2,21,10,9.mid,experiment,1
39,91,21193,76,79,1,2,21,10,9.mid,experiment,1
40,93,21481,81,81,1,2,21,10,9.mid,experiment,1
41,94,21798,77,71,1,2,21,10,9.mid,experiment,1
42,97,22071,76,67,1,2,21,10,9.mid,experiment,1
43,98,22320,74,75,1,2,21,10,9.mid,experiment,1
44,100,22597,76,75,1,2,21,10,9.mid,experiment,1
45,103,22875,79,55,1,2,21,10,9.mid,experiment,1
46,105,23140,74,54,1,2,21,10,9.mid,experiment,1
47,107,23419,71,48,1,2,21,10,9.mid,experiment,1
48,109,23669,72,43,1,2,21,10,9.mid,experiment,1
49,111,23940,72,47,1,2,21,10,9.mid,experiment,1
50,113,24226,74,42,1,2,21,10,9.mid,experiment,1
51,115,24502,74,39,1,2,21,10,9.mid,experiment,1
52,117,24864,76,27,1,2,21,10,9.mid,experiment,1
53,119,25937,65,51,1,2,21,10,9.mid,experiment,1
54,121,26218,65,57,1,2,21,10,9.mid,experiment,1
55,123,26499,64,42,1,2,21,10,9.mid,experiment,1
56,125,26776,64,52,1,2,21,10,9.mid,experiment,1
57,127,27102,62,47,1,2,21,10,9.mid,experiment,1
58,129,28150,67,48,1,2,21,10,9.mid,experiment,1
59,131,28424,67,56,1,2,21,10,9.mid,experiment,1
60,133,28961,71,65,1,2,21,10,9.mid,experiment,1
61,133,,71,,1,2,21,10,9.mid,experiment,1
62,135,29225,72,70,1,2,21,10,9.mid,experiment,1
63,137,29504,72,87,1,2,21,10,9.mid,experiment,1
64,139,29780,73,86,1,2,21,10,9.mid,experiment,1
65,141,30057,73,85,1,2,21,10,9.mid,experiment,1
66,143,30343,74,81,1,2,21,10,9.mid,experiment,1
67,145,30884,77,75,1,2,21,10,9.mid,experiment,1
68,147,31478,76,79,1,2,21,10,9.mid,experiment,1
69,149,32048,74,87,1,2,21,10,9.mid,experiment,1
70,151,32634,72,75,1,2,21,10,9.mid,experiment,1
71,153,33190,84,76,1,2,21,10,9.mid,experiment,1
72,155,33860,84,79,1,2,21,10,9.mid,experiment,1
1,17,7814,79,67,1,2,21,11,12.mid,experiment,1
2,18,8116,78,76,1,2,21,11,12.mid,experiment,1
3,20,8398,79,74,1,2,21,11,12.mid,experiment,1
4,23,8662,76,72,1,2,21,11,12.mid,experiment,1
5,25,8975,72,63,1,2,21,11,12.mid,experiment,1
6,27,9251,67,49,1,2,21,11,12.mid,experiment,1
7,29,9552,67,42,1,2,21,11,12.mid,experiment,1
8,29,,67,,1,2,21,11,12.mid,experiment,1
9,31,10091,79,56,1,2,21,11,12.mid,experiment,1
10,32,10377,78,68,1,2,21,11,12.mid,experiment,1
11,34,10664,79,70,1,2,21,11,12.mid,experiment,1
12,37,10945,76,74,1,2,21,11,12.mid,experiment,1
13,39,11236,72,81,1,2,21,11,12.mid,experiment,1
14,40,11509,76,72,1,2,21,11,12.mid,experiment,1
15,42,11797,79,76,1,2,21,11,12.mid,experiment,1
16,45,12066,84,71,1,2,21,11,12.mid,experiment,1
17,46,12356,83,57,1,2,21,11,12.mid,experiment,1
18,49,12646,81,53,1,2,21,11,12.mid,experiment,1
19,51,12934,81,48,1,2,21,11,12.mid,experiment,1
20,53,13205,81,62,1,2,21,11,12.mid,experiment,1
21,55,13503,83,71,1,2,21,11,12.mid,experiment,1
22,56,13782,81,79,1,2,21,11,12.mid,experiment,1
23,58,14072,84,70,1,2,21,11,12.mid,experiment,1
24,61,14340,81,80,1,2,21,11,12.mid,experiment,1
25,62,14619,78,80,1,2,21,11,12.mid,experiment,1
26,64,14894,79,76,1,2,21,11,12.mid,experiment,1
27,67,15194,79,74,1,2,21,11,12.mid,experiment,1
28,69,15847,79,68,1,2,21,11,12.mid,experiment,1
29,71,17054,77,49,1,2,21,11,12.mid,experiment,1
30,73,17334,77,51,1,2,21,11,12.mid,experiment,1
31,75,17913,76,39,1,2,21,11,12.mid,experiment,1
32,75,,76,,1,2,21,11,12.mid,experiment,1
33,77,18245,74,41,1,2,21,11,12.mid,experiment,1
34,79,19351,79,57,1,2,21,11,12.mid,experiment,1
35,81,19937,77,66,1,2,21,11,12.mid,experiment,1
36,83,20516,76,56,1,2,21,11,12.mid,experiment,1
37,85,20789,76,72,1,2,21,11,12.mid,experiment,1
38,87,21051,76,81,1,2,21,11,12.mid,experiment,1
39,89,21334,76,80,1,2,21,11,12.mid,experiment,1
40,91,21661,81,73,1,2,21,11,12.mid,experiment,1
41,92,21983,77,74,1,2,21,11,12.mid,experiment,1
42,94,22277,76,72,1,2,21,11,12.mid,experiment,1
43,96,22535,74,81,1,2,21,11,12.mid,experiment,1
44,98,22817,76,79,1,2,21,11,12.mid,experiment,1
45,101,23075,79,67,1,2,21,11,12.mid,experiment,1
46,102,23341,74,60,1,2,21,11,12.mid,experiment,1
47,105,23613,71,57,1,2,21,11,12.mid,experiment,1
48,107,23875,72,61,1,2,21,11,12.mid,experiment,1
49,109,24148,72,61,1,2,21,11,12.mid,experiment,1
50,111,24416,74,52,1,2,21,11,12.mid,experiment,1
51,113,24693,74,55,1,2,21,11,12.mid,experiment,1
52,115,25079,76,32,1,2,21,11,12.mid,experiment,1
53,117,26122,65,55,1,2,21,11,12.mid,experiment,1
54,119,26412,65,50,1,2,21,11,12.mid,experiment,1
55,121,26947,64,59,1,2,21,11,12.mid,experiment,1
56,121,,64,,1,2,21,11,12.mid,experiment,1
57,123,27290,62,47,1,2,21,11,12.mid,experiment,1
58,125,28375,67,47,1,2,21,11,12.mid,experiment,1
59,127,28658,67,63,1,2,21,11,12.mid,experiment,1
60,129,28952,71,42,1,2,21,11,12.mid,experiment,1
61,131,29214,71,72,1,2,21,11,12.mid,experiment,1
62,133,29469,72,79,1,2,21,11,12.mid,experiment,1
63,135,29742,72,90,1,2,21,11,12.mid,experiment,1
64,137,30006,73,91,1,2,21,11,12.mid,experiment,1
65,139,30283,73,90,1,2,21,11,12.mid,experiment,1
66,141,30587,74,85,1,2,21,11,12.mid,experiment,1
67,143,31145,77,81,1,2,21,11,12.mid,experiment,1
68,145,31715,76,80,1,2,21,11,12.mid,experiment,1
69,147,32290,74,82,1,2,21,11,12.mid,experiment,1
70,149,32868,72,78,1,2,21,11,12.mid,experiment,1
71,151,33467,84,80,1,2,21,11,12.mid,experiment,1
72,153,34134,84,75,1,2,21,11,12.mid,experiment,1
1,17,7824,79,61,1,2,21,13,13.mid,experiment,1
2,18,8116,78,75,1,2,21,13,13.mid,experiment,1
3,20,8404,79,68,1,2,21,13,13.mid,experiment,1
4,23,8672,76,66,1,2,21,13,13.mid,experiment,1
5,25,8976,72,58,1,2,21,13,13.mid,experiment,1
6,27,9250,67,46,1,2,21,13,13.mid,experiment,1
7,29,9563,67,41,1,2,21,13,13.mid,experiment,1
8,31,9827,67,51,1,2,21,13,13.mid,experiment,1
9,33,10118,79,48,1,2,21,13,13.mid,experiment,1
10,34,10393,78,69,1,2,21,13,13.mid,experiment,1
11,36,10690,79,66,1,2,21,13,13.mid,experiment,1
12,38,10955,76,63,1,2,21,13,13.mid,experiment,1
13,41,11241,72,76,1,2,21,13,13.mid,experiment,1
14,42,11517,76,70,1,2,21,13,13.mid,experiment,1
15,44,11802,79,81,1,2,21,13,13.mid,experiment,1
16,47,12079,84,67,1,2,21,13,13.mid,experiment,1
17,48,12360,83,60,1,2,21,13,13.mid,experiment,1
18,51,12638,81,51,1,2,21,13,13.mid,experiment,1
19,53,12918,81,54,1,2,21,13,13.mid,experiment,1
20,55,13193,81,54,1,2,21,13,13.mid,experiment,1
21,57,13489,83,63,1,2,21,13,13.mid,experiment,1
22,58,13763,81,72,1,2,21,13,13.mid,experiment,1
23,61,14052,84,75,1,2,21,13,13.mid,experiment,1
24,62,14321,81,74,1,2,21,13,13.mid,experiment,1
25,64,14601,78,71,1,2,21,13,13.mid,experiment,1
26,67,14879,79,67,1,2,21,13,13.mid,experiment,1
27,69,15200,79,57,1,2,21,13,13.mid,experiment,1
28,71,15811,79,63,1,2,21,13,13.mid,experiment,1
29,73,16923,77,40,1,2,21,13,13.mid,experiment,1
30,75,17191,77,52,1,2,21,13,13.mid,experiment,1
31,77,17775,76,47,1,2,21,13,13.mid,experiment,1
32,77,,76,,1,2,21,13,13.mid,experiment,1
33,79,18094,74,49,1,2,21,13,13.mid,experiment,1
34,81,19213,79,50,1,2,21,13,13.mid,experiment,1
35,83,19813,77,58,1,2,21,13,13.mid,experiment,1
36,85,20383,76,66,1,2,21,13,13.mid,experiment,1
37,87,20661,76,76,1,2,21,13,13.mid,experiment,1
38,89,20938,76,65,1,2,21,13,13.mid,experiment,1
39,91,21214,76,79,1,2,21,13,13.mid,experiment,1
40,93,21536,81,74,1,2,21,13,13.mid,experiment,1
41,95,21867,77,78,1,2,21,13,13.mid,experiment,1
42,97,22153,76,61,1,2,21,13,13.mid,experiment,1
43,99,22412,74,69,1,2,21,13,13.mid,experiment,1
44,100,22684,76,72,1,2,21,13,13.mid,experiment,1
45,103,22980,79,54,1,2,21,13,13.mid,experiment,1
46,105,23242,74,59,1,2,21,13,13.mid,experiment,1
47,107,23524,71,56,1,2,21,13,13.mid,experiment,1
48,109,23772,72,49,1,2,21,13,13.mid,experiment,1
49,111,24046,72,54,1,2,21,13,13.mid,experiment,1
50,113,24302,74,51,1,2,21,13,13.mid,experiment,1
51,115,24583,74,55,1,2,21,13,13.mid,experiment,1
52,117,24965,76,34,1,2,21,13,13.mid,experiment,1
53,119,25989,65,48,1,2,21,13,13.mid,experiment,1
54,121,26266,65,57,1,2,21,13,13.mid,experiment,1
55,123,26541,64,57,1,2,21,13,13.mid,experiment,1
56,125,26840,64,42,1,2,21,13,13.mid,experiment,1
57,127,27140,62,49,1,2,21,13,13.mid,experiment,1
58,129,28233,67,45,1,2,21,13,13.mid,experiment,1
59,131,28513,67,57,1,2,21,13,13.mid,experiment,1
60,133,28800,71,63,1,2,21,13,13.mid,experiment,1
61,135,29066,71,79,1,2,21,13,13.mid,experiment,1
62,137,29353,72,78,1,2,21,13,13.mid,experiment,1
63,139,29636,72,88,1,2,21,13,13.mid,experiment,1
64,141,29904,73,86,1,2,21,13,13.mid,experiment,1
65,143,30176,73,86,1,2,21,13,13.mid,experiment,1
66,145,30474,74,73,1,2,21,13,13.mid,experiment,1
67,147,31043,77,74,1,2,21,13,13.mid,experiment,1
68,149,31599,76,75,1,2,21,13,13.mid,experiment,1
69,151,32152,74,78,1,2,21,13,13.mid,experiment,1
70,153,32741,72,78,1,2,21,13,13.mid,experiment,1
71,155,33341,84,84,1,2,21,13,13.mid,experiment,1
72,157,34029,84,83,1,2,21,13,13.mid,experiment,1
1,17,7806,79,68,1,2,21,15,2.mid,experiment,1
2,18,8092,78,70,1,2,21,15,2.mid,experiment,1
3,20,8388,79,59,1,2,21,15,2.mid,experiment,1
4,23,8662,76,55,1,2,21,15,2.mid,experiment,1
5,25,9000,72,39,1,2,21,15,2.mid,experiment,1
6,27,9285,67,54,1,2,21,15,2.mid,experiment,1
7,29,9586,67,46,1,2,21,15,2.mid,experiment,1
8,31,9869,67,55,1,2,21,15,2.mid,experiment,1
9,33,10134,79,57,1,2,21,15,2.mid,experiment,1
10,34,10406,78,70,1,2,21,15,2.mid,experiment,1
11,36,10699,79,72,1,2,21,15,2.mid,experiment,1
12,39,10975,76,66,1,2,21,15,2.mid,experiment,1
13,41,11255,72,78,1,2,21,15,2.mid,experiment,1
14,42,11518,76,78,1,2,21,15,2.mid,experiment,1
15,44,11810,79,78,1,2,21,15,2.mid,experiment,1
16,47,12076,84,65,1,2,21,15,2.mid,experiment,1
17,48,12350,83,70,1,2,21,15,2.mid,experiment,1
18,51,12642,81,51,1,2,21,15,2.mid,experiment,1
19,53,12931,81,44,1,2,21,15,2.mid,experiment,1
20,55,13194,81,59,1,2,21,15,2.mid,experiment,1
21,57,13472,83,73,1,2,21,15,2.mid,experiment,1
22,58,13760,81,67,1,2,21,15,2.mid,experiment,1
23,61,14041,84,55,1,2,21,15,2.mid,experiment,1
24,63,14318,81,53,1,2,21,15,2.mid,experiment,1
25,65,14596,78,49,1,2,21,15,2.mid,experiment,1
26,67,14888,79,28,1,2,21,15,2.mid,experiment,1
27,69,15160,79,55,1,2,21,15,2.mid,experiment,1
28,71,15738,79,56,1,2,21,15,2.mid,experiment,1
29,73,16858,77,41,1,2,21,15,2.mid,experiment,1
30,75,17131,77,58,1,2,21,15,2.mid,experiment,1
31,77,17425,76,49,1,2,21,15,2.mid,experiment,1
32,79,17703,76,43,1,2,21,15,2.mid,experiment,1
33,81,18012,74,46,1,2,21,15,2.mid,experiment,1
34,83,19120,79,45,1,2,21,15,2.mid,experiment,1
35,85,19696,77,49,1,2,21,15,2.mid,experiment,1
36,87,20243,76,57,1,2,21,15,2.mid,experiment,1
37,89,20522,76,72,1,2,21,15,2.mid,experiment,1
38,91,20786,76,71,1,2,21,15,2.mid,experiment,1
39,93,21055,76,79,1,2,21,15,2.mid,experiment,1
40,95,21379,81,76,1,2,21,15,2.mid,experiment,1
41,96,21669,77,70,1,2,21,15,2.mid,experiment,1
42,98,21945,76,57,1,2,21,15,2.mid,experiment,1
43,100,22211,74,63,1,2,21,15,2.mid,experiment,1
44,102,22474,76,62,1,2,21,15,2.mid,experiment,1
45,105,22756,79,50,1,2,21,15,2.mid,experiment,1
46,107,23015,74,57,1,2,21,15,2.mid,experiment,1
47,109,23294,71,54,1,2,21,15,2.mid,experiment,1
48,111,23843,72,54,1,2,21,15,2.mid,experiment,1
49,111,,72,,1,2,21,15,2.mid,experiment,1
50,113,24111,74,57,1,2,21,15,2.mid,experiment,1
51,115,24402,74,45,1,2,21,15,2.mid,experiment,1
52,117,24740,76,36,1,2,21,15,2.mid,experiment,1
53,119,25812,65,38,1,2,21,15,2.mid,experiment,1
54,121,26093,65,52,1,2,21,15,2.mid,experiment,1
55,123,26622,64,64,1,2,21,15,2.mid,experiment,1
56,123,,64,,1,2,21,15,2.mid,experiment,1
57,125,26938,62,55,1,2,21,15,2.mid,experiment,1
58,127,28055,67,56,1,2,21,15,2.mid,experiment,1
59,129,28332,67,63,1,2,21,15,2.mid,experiment,1
60,131,28651,71,55,1,2,21,15,2.mid,experiment,1
61,133,28913,71,72,1,2,21,15,2.mid,experiment,1
62,135,29177,72,79,1,2,21,15,2.mid,experiment,1
63,137,29449,72,85,1,2,21,15,2.mid,experiment,1
64,139,29723,73,89,1,2,21,15,2.mid,experiment,1
65,141,29995,73,79,1,2,21,15,2.mid,experiment,1
66,143,30268,74,70,1,2,21,15,2.mid,experiment,1
67,145,30824,77,81,1,2,21,15,2.mid,experiment,1
68,147,31384,76,70,1,2,21,15,2.mid,experiment,1
69,149,31961,74,80,1,2,21,15,2.mid,experiment,1
70,151,32576,72,62,1,2,21,15,2.mid,experiment,1
71,153,33105,84,77,1,2,21,15,2.mid,experiment,1
72,155,33751,84,76,1,2,21,15,2.mid,experiment,1
