RowNr,NoteNr,TimeStamp,Pitch,Velocity,Key_OnOff,Device,SubNr,TrialNr,Stimuli,Session,Error
1,17,7808,79,49,1,2,12,13,11.mid,experiment,1
2,18,8074,78,76,1,2,12,13,11.mid,experiment,1
3,20,8329,79,82,1,2,12,13,11.mid,experiment,1
4,22,8576,76,79,1,2,12,13,11.mid,experiment,1
5,24,8816,72,67,1,2,12,13,11.mid,experiment,1
6,27,9056,67,60,1,2,12,13,11.mid,experiment,1
7,29,9318,67,62,1,2,12,13,11.mid,experiment,1
8,31,9566,67,58,1,2,12,13,11.mid,experiment,1
9,33,9826,79,56,1,2,12,13,11.mid,experiment,1
10,34,10056,78,79,1,2,12,13,11.mid,experiment,1
11,36,10293,79,84,1,2,12,13,11.mid,experiment,1
12,38,10528,76,79,1,2,12,13,11.mid,experiment,1
13,40,10758,72,79,1,2,12,13,11.mid,experiment,1
14,42,11011,76,73,1,2,12,13,11.mid,experiment,1
15,46,11243,79,96,1,2,12,13,11.mid,experiment,1
16,48,11488,84,93,1,2,12,13,11.mid,experiment,1
17,50,11714,83,88,1,2,12,13,11.mid,experiment,1
18,52,11985,81,66,1,2,12,13,11.mid,experiment,1
19,55,12225,81,70,1,2,12,13,11.mid,experiment,1
20,57,12469,81,71,1,2,12,13,11.mid,experiment,1
21,59,12715,83,80,1,2,12,13,11.mid,experiment,1
22,60,12950,81,91,1,2,12,13,11.mid,experiment,1
23,62,13187,84,94,1,2,12,13,11.mid,experiment,1
24,64,13421,81,87,1,2,12,13,11.mid,experiment,1
25,66,13659,78,79,1,2,12,13,11.mid,experiment,1
26,68,13885,79,89,1,2,12,13,11.mid,experiment,1
27,71,14163,79,85,1,2,12,13,11.mid,experiment,1
28,73,14690,79,81,1,2,12,13,11.mid,experiment,1
29,75,15693,77,59,1,2,12,13,11.mid,experiment,1
30,77,15939,77,63,1,2,12,13,11.mid,experiment,1
31,79,16167,76,58,1,2,12,13,11.mid,experiment,1
32,81,16402,76,50,1,2,12,13,11.mid,experiment,1
33,83,16689,74,49,1,2,12,13,11.mid,experiment,1
34,85,17704,79,58,1,2,12,13,11.mid,experiment,1
35,87,18219,77,66,1,2,12,13,11.mid,experiment,1
36,89,18719,76,66,1,2,12,13,11.mid,experiment,1
37,91,18961,76,58,1,2,12,13,11.mid,experiment,1
38,93,19198,76,63,1,2,12,13,11.mid,experiment,1
39,95,19436,76,68,1,2,12,13,11.mid,experiment,1
40,97,19681,81,70,1,2,12,13,11.mid,experiment,1
41,98,19925,77,75,1,2,12,13,11.mid,experiment,1
42,100,20163,76,74,1,2,12,13,11.mid,experiment,1
43,102,20397,74,86,1,2,12,13,11.mid,experiment,1
44,104,20647,76,84,1,2,12,13,11.mid,experiment,1
45,106,20881,79,93,1,2,12,13,11.mid,experiment,1
46,108,21118,74,87,1,2,12,13,11.mid,experiment,1
47,110,21343,71,79,1,2,12,13,11.mid,experiment,1
48,113,21582,72,68,1,2,12,13,11.mid,experiment,1
49,115,21818,72,63,1,2,12,13,11.mid,experiment,1
50,117,22067,74,56,1,2,12,13,11.mid,experiment,1
51,119,22306,74,55,1,2,12,13,11.mid,experiment,1
52,121,22604,76,43,1,2,12,13,11.mid,experiment,1
53,123,23592,65,57,1,2,12,13,11.mid,experiment,1
54,125,23843,65,62,1,2,12,13,11.mid,experiment,1
55,127,24094,64,51,1,2,12,13,11.mid,experiment,1
56,129,24353,64,48,1,2,12,13,11.mid,experiment,1
57,131,24667,62,42,1,2,12,13,11.mid,experiment,1
58,133,25649,67,56,1,2,12,13,11.mid,experiment,1
59,135,25895,67,64,1,2,12,13,11.mid,experiment,1
60,137,26122,71,76,1,2,12,13,11.mid,experiment,1
61,139,26362,71,80,1,2,12,13,11.mid,experiment,1
62,141,26602,72,85,1,2,12,13,11.mid,experiment,1
63,143,26846,72,90,1,2,12,13,11.mid,experiment,1
64,145,,73,,1,2,12,13,11.mid,experiment,1
65,147,27311,73,91,1,2,12,13,11.mid,experiment,1
66,149,27604,74,88,1,2,12,13,11.mid,experiment,1
67,151,28149,77,97,1,2,12,13,11.mid,experiment,1
68,153,28688,76,86,1,2,12,13,11.mid,experiment,1
69,155,29207,74,86,1,2,12,13,11.mid,experiment,1
70,157,29727,72,81,1,2,12,13,11.mid,experiment,1
71,159,30263,84,88,1,2,12,13,11.mid,experiment,1
72,161,30823,84,91,1,2,12,13,11.mid,experiment,1
1,19,8383,79,64,0,2,17,7,7.mid,experiment,1
2,21,8600,78,64,0,2,17,7,7.mid,experiment,1
3,23,9029,79,64,0,2,17,7,7.mid,experiment,1
4,25,9184,76,64,0,2,17,7,7.mid,experiment,1
5,26,9374,72,64,0,2,17,7,7.mid,experiment,1
6,28,9470,67,64,0,2,17,7,7.mid,experiment,1
7,30,9772,67,64,0,2,17,7,7.mid,experiment,1
8,32,10110,67,64,0,2,17,7,7.mid,experiment,1
9,35,10795,79,64,0,2,17,7,7.mid,experiment,1
10,37,11093,78,64,0,2,17,7,7.mid,experiment,1
11,39,11292,79,64,0,2,17,7,7.mid,experiment,1
12,41,11632,76,64,0,2,17,7,7.mid,experiment,1
13,43,12037,72,64,0,2,17,7,7.mid,experiment,1
14,45,12266,76,64,0,2,17,7,7.mid,experiment,1
15,47,12440,79,64,0,2,17,7,7.mid,experiment,1
16,49,12798,84,64,0,2,17,7,7.mid,experiment,1
17,50,12966,83,64,0,2,17,7,7.mid,experiment,1
18,52,13077,81,64,0,2,17,7,7.mid,experiment,1
19,54,13371,81,64,0,2,17,7,7.mid,experiment,1
20,56,13682,81,64,0,2,17,7,7.mid,experiment,1
21,59,14341,83,64,0,2,17,7,7.mid,experiment,1
22,61,14597,81,64,0,2,17,7,7.mid,experiment,1
23,64,,84,,0,2,17,7,7.mid,experiment,1
24,65,,81,,0,2,17,7,7.mid,experiment,1
25,67,15481,78,64,0,2,17,7,7.mid,experiment,1
26,68,15686,79,64,0,2,17,7,7.mid,experiment,1
27,70,16279,79,64,0,2,17,7,7.mid,experiment,1
28,72,16952,79,64,0,2,17,7,7.mid,experiment,1
29,74,17630,77,64,0,2,17,7,7.mid,experiment,1
30,76,17899,77,64,0,2,17,7,7.mid,experiment,1
31,78,18190,76,64,0,2,17,7,7.mid,experiment,1
32,80,18463,76,64,0,2,17,7,7.mid,experiment,1
33,82,19306,74,64,0,2,17,7,7.mid,experiment,1
34,84,20454,79,64,0,2,17,7,7.mid,experiment,1
35,86,20967,77,64,0,2,17,7,7.mid,experiment,1
36,88,21233,76,64,0,2,17,7,7.mid,experiment,1
37,90,21503,76,64,0,2,17,7,7.mid,experiment,1
38,92,21797,76,64,0,2,17,7,7.mid,experiment,1
39,94,22083,76,64,0,2,17,7,7.mid,experiment,1
41,100,22937,81,64,0,2,17,7,7.mid,experiment,1
42,101,23017,77,64,0,2,17,7,7.mid,experiment,1
43,103,23273,76,64,0,2,17,7,7.mid,experiment,1
44,105,23500,74,64,0,2,17,7,7.mid,experiment,1
45,107,23790,76,64,0,2,17,7,7.mid,experiment,1
46,109,24129,79,64,0,2,17,7,7.mid,experiment,1
47,111,24280,74,64,0,2,17,7,7.mid,experiment,1
48,112,24550,71,64,0,2,17,7,7.mid,experiment,1
49,114,24600,72,64,0,2,17,7,7.mid,experiment,1
50,116,24883,72,64,0,2,17,7,7.mid,experiment,1
51,118,25162,74,64,0,2,17,7,7.mid,experiment,1
52,120,25434,74,64,0,2,17,7,7.mid,experiment,1
53,122,26256,76,64,0,2,17,7,7.mid,experiment,1
54,124,26903,65,64,0,2,17,7,7.mid,experiment,1
55,126,27192,65,64,0,2,17,7,7.mid,experiment,1
56,128,27482,64,64,0,2,17,7,7.mid,experiment,1
57,130,27770,64,64,0,2,17,7,7.mid,experiment,1
58,132,28574,62,64,0,2,17,7,7.mid,experiment,1
59,134,29234,67,64,0,2,17,7,7.mid,experiment,1
60,136,29491,67,64,0,2,17,7,7.mid,experiment,1
61,138,29769,71,64,0,2,17,7,7.mid,experiment,1
62,140,30057,71,64,0,2,17,7,7.mid,experiment,1
63,142,30318,72,64,0,2,17,7,7.mid,experiment,1
64,144,30592,72,64,0,2,17,7,7.mid,experiment,1
65,146,30875,73,64,0,2,17,7,7.mid,experiment,1
66,148,31142,73,64,0,2,17,7,7.mid,experiment,1
67,151,32023,74,64,0,2,17,7,7.mid,experiment,1
68,153,32606,77,64,0,2,17,7,7.mid,experiment,1
69,155,33194,76,64,0,2,17,7,7.mid,experiment,1
70,157,33729,74,64,0,2,17,7,7.mid,experiment,1
71,159,34321,72,64,0,2,17,7,7.mid,experiment,1
72,160,34881,84,64,0,2,17,7,7.mid,experiment,1
73,162,35682,84,64,0,2,17,7,7.mid,experiment,1
1,19,8178,79,64,0,2,4,4,5.mid,experiment,1
2,21,8438,78,64,0,2,4,4,5.mid,experiment,1
3,23,8727,79,64,0,2,4,4,5.mid,experiment,1
4,25,,76,,0,2,4,4,5.mid,experiment,1
5,26,,72,,0,2,4,4,5.mid,experiment,1
6,28,9281,67,64,0,2,4,4,5.mid,experiment,1
7,30,9523,67,64,0,2,4,4,5.mid,experiment,1
8,32,9805,67,64,0,2,4,4,5.mid,experiment,1
9,35,10414,79,64,0,2,4,4,5.mid,experiment,1
10,37,10698,78,64,0,2,4,4,5.mid,experiment,1
11,39,10906,79,64,0,2,4,4,5.mid,experiment,1
12,41,11190,76,64,0,2,4,4,5.mid,experiment,1
13,43,11617,72,64,0,2,4,4,5.mid,experiment,1
14,45,11726,76,64,0,2,4,4,5.mid,experiment,1
15,47,11934,79,64,0,2,4,4,5.mid,experiment,1
16,49,12275,84,64,0,2,4,4,5.mid,experiment,1
17,50,12356,83,64,0,2,4,4,5.mid,experiment,1
18,52,12533,81,64,0,2,4,4,5.mid,experiment,1
19,54,12781,81,64,0,2,4,4,5.mid,experiment,1
20,57,,81,,0,2,4,4,5.mid,experiment,1
21,57,13616,83,64,0,2,4,4,5.mid,experiment,1
22,59,13869,81,64,0,2,4,4,5.mid,experiment,1
23,61,14313,84,64,0,2,4,4,5.mid,experiment,1
24,63,14458,81,64,0,2,4,4,5.mid,experiment,1
25,65,,78,,0,2,4,4,5.mid,experiment,1
26,66,,79,,0,2,4,4,5.mid,experiment,1
27,68,14978,79,64,0,2,4,4,5.mid,experiment,1
28,70,15991,79,64,0,2,4,4,5.mid,experiment,1
29,72,16545,77,64,0,2,4,4,5.mid,experiment,1
30,74,16815,77,64,0,2,4,4,5.mid,experiment,1
31,76,17071,76,64,0,2,4,4,5.mid,experiment,1
32,78,17295,76,64,0,2,4,4,5.mid,experiment,1
33,80,18128,74,64,0,2,4,4,5.mid,experiment,1
34,82,18975,79,64,0,2,4,4,5.mid,experiment,1
35,84,19476,77,64,0,2,4,4,5.mid,experiment,1
36,86,19861,76,64,0,2,4,4,5.mid,experiment,1
37,88,20122,76,64,0,2,4,4,5.mid,experiment,1
38,90,20378,76,64,0,2,4,4,5.mid,experiment,1
39,92,20644,76,64,0,2,4,4,5.mid,experiment,1
40,95,21375,81,64,0,2,4,4,5.mid,experiment,1
41,97,21550,77,64,0,2,4,4,5.mid,experiment,1
42,99,21745,76,64,0,2,4,4,5.mid,experiment,1
43,101,22069,74,64,0,2,4,4,5.mid,experiment,1
44,103,22326,76,64,0,2,4,4,5.mid,experiment,1
45,105,22717,79,64,0,2,4,4,5.mid,experiment,1
46,107,22816,74,64,0,2,4,4,5.mid,experiment,1
47,108,22859,71,64,0,2,4,4,5.mid,experiment,1
48,110,23120,72,64,0,2,4,4,5.mid,experiment,1
49,112,23366,72,64,0,2,4,4,5.mid,experiment,1
50,114,23655,74,64,0,2,4,4,5.mid,experiment,1
51,116,23929,74,64,0,2,4,4,5.mid,experiment,1
52,118,24739,76,64,0,2,4,4,5.mid,experiment,1
53,120,25257,65,64,0,2,4,4,5.mid,experiment,1
54,122,25519,65,64,0,2,4,4,5.mid,experiment,1
55,124,26047,64,64,0,2,4,4,5.mid,experiment,1
56,124,,64,,0,2,4,4,5.mid,experiment,1
57,126,26923,62,64,0,2,4,4,5.mid,experiment,1
58,128,27414,67,64,0,2,4,4,5.mid,experiment,1
59,130,27687,67,64,0,2,4,4,5.mid,experiment,1
60,132,27968,71,64,0,2,4,4,5.mid,experiment,1
61,134,28226,71,64,0,2,4,4,5.mid,experiment,1
62,136,28478,72,64,0,2,4,4,5.mid,experiment,1
63,138,28746,72,64,0,2,4,4,5.mid,experiment,1
64,140,29002,73,64,0,2,4,4,5.mid,experiment,1
65,142,29258,73,64,0,2,4,4,5.mid,experiment,1
66,145,30313,74,64,0,2,4,4,5.mid,experiment,1
67,147,30758,77,64,0,2,4,4,5.mid,experiment,1
68,149,31296,76,64,0,2,4,4,5.mid,experiment,1
69,151,31823,74,64,0,2,4,4,5.mid,experiment,1
70,153,32559,72,64,0,2,4,4,5.mid,experiment,1
71,154,32681,84,64,0,2,4,4,5.mid,experiment,1
72,156,33990,84,64,0,2,4,4,5.mid,experiment,1
1,19,8162,79,64,0,2,4,15,14.mid,experiment,1
2,21,8425,78,64,0,2,4,15,14.mid,experiment,1
3,23,8734,79,64,0,2,4,15,14.mid,experiment,1
4,25,9076,76,64,0,2,4,15,14.mid,experiment,1
5,27,9309,72,64,0,2,4,15,14.mid,experiment,1
6,28,9360,67,64,0,2,4,15,14.mid,experiment,1
7,30,9613,67,64,0,2,4,15,14.mid,experiment,1
8,32,9881,67,64,0,2,4,15,14.mid,experiment,1
9,35,10440,79,64,0,2,4,15,14.mid,experiment,1
10,37,10732,78,64,0,2,4,15,14.mid,experiment,1
11,39,10998,79,64,0,2,4,15,14.mid,experiment,1
12,41,11262,76,64,0,2,4,15,14.mid,experiment,1
13,43,11627,72,64,0,2,4,15,14.mid,experiment,1
14,45,11804,76,64,0,2,4,15,14.mid,experiment,1
15,47,12034,79,64,0,2,4,15,14.mid,experiment,1
16,49,12443,84,64,0,2,4,15,14.mid,experiment,1
17,50,12570,83,64,0,2,4,15,14.mid,experiment,1
18,52,12709,81,64,0,2,4,15,14.mid,experiment,1
19,54,12939,81,64,0,2,4,15,14.mid,experiment,1
20,56,13209,81,64,0,2,4,15,14.mid,experiment,1
21,59,13787,83,64,0,2,4,15,14.mid,experiment,1
22,61,14015,81,64,0,2,4,15,14.mid,experiment,1
23,64,,84,,0,2,4,15,14.mid,experiment,1
24,65,,81,,0,2,4,15,14.mid,experiment,1
25,67,14864,78,64,0,2,4,15,14.mid,experiment,1
26,68,14904,79,64,0,2,4,15,14.mid,experiment,1
27,70,15194,79,64,0,2,4,15,14.mid,experiment,1
28,72,16093,79,64,0,2,4,15,14.mid,experiment,1
29,74,16747,77,64,0,2,4,15,14.mid,experiment,1
30,76,17038,77,64,0,2,4,15,14.mid,experiment,1
31,78,17310,76,64,0,2,4,15,14.mid,experiment,1
32,80,17591,76,64,0,2,4,15,14.mid,experiment,1
33,82,18444,74,64,0,2,4,15,14.mid,experiment,1
34,84,19244,79,64,0,2,4,15,14.mid,experiment,1
35,86,19769,77,64,0,2,4,15,14.mid,experiment,1
36,88,20152,76,64,0,2,4,15,14.mid,experiment,1
37,90,20425,76,64,0,2,4,15,14.mid,experiment,1
38,92,20690,76,64,0,2,4,15,14.mid,experiment,1
39,92,,76,,0,2,4,15,14.mid,experiment,1
40,95,21611,81,64,0,2,4,15,14.mid,experiment,1
41,97,21853,77,64,0,2,4,15,14.mid,experiment,1
42,99,22057,76,64,0,2,4,15,14.mid,experiment,1
43,101,22402,74,64,0,2,4,15,14.mid,experiment,1
44,103,22683,76,64,0,2,4,15,14.mid,experiment,1
45,105,23020,79,64,0,2,4,15,14.mid,experiment,1
46,107,23173,74,64,0,2,4,15,14.mid,experiment,1
47,108,23209,71,64,0,2,4,15,14.mid,experiment,1
48,110,23467,72,64,0,2,4,15,14.mid,experiment,1
49,112,23714,72,64,0,2,4,15,14.mid,experiment,1
50,114,23993,74,64,0,2,4,15,14.mid,experiment,1
51,116,24264,74,64,0,2,4,15,14.mid,experiment,1
52,118,25042,76,64,0,2,4,15,14.mid,experiment,1
53,120,25580,65,64,0,2,4,15,14.mid,experiment,1
54,122,25862,65,64,0,2,4,15,14.mid,experiment,1
55,124,26121,64,64,0,2,4,15,14.mid,experiment,1
56,126,26401,64,64,0,2,4,15,14.mid,experiment,1
57,128,27303,62,64,0,2,4,15,14.mid,experiment,1
58,130,27820,67,64,0,2,4,15,14.mid,experiment,1
59,132,28101,67,64,0,2,4,15,14.mid,experiment,1
60,134,28356,71,64,0,2,4,15,14.mid,experiment,1
61,136,28625,71,64,0,2,4,15,14.mid,experiment,1
62,138,28920,72,64,0,2,4,15,14.mid,experiment,1
63,140,29205,72,64,0,2,4,15,14.mid,experiment,1
64,142,29505,73,64,0,2,4,15,14.mid,experiment,1
65,144,29731,73,64,0,2,4,15,14.mid,experiment,1
66,147,30708,74,64,0,2,4,15,14.mid,experiment,1
67,149,31207,77,64,0,2,4,15,14.mid,experiment,1
68,151,31746,76,64,0,2,4,15,14.mid,experiment,1
69,153,32282,74,64,0,2,4,15,14.mid,experiment,1
70,155,32913,72,64,0,2,4,15,14.mid,experiment,1
71,156,33151,84,64,0,2,4,15,14.mid,experiment,1
72,158,34439,84,64,0,2,4,15,14.mid,experiment,1
1,19,8290,79,64,0,2,7,11,15.mid,experiment,1
2,22,,78,,0,2,7,11,15.mid,experiment,1
3,23,,79,,0,2,7,11,15.mid,experiment,1
4,25,9173,76,64,0,2,7,11,15.mid,experiment,1
5,26,9240,72,64,0,2,7,11,15.mid,experiment,1
6,28,9716,67,64,0,2,7,11,15.mid,experiment,1
7,30,9988,67,64,0,2,7,11,15.mid,experiment,1
8,30,,67,,0,2,7,11,15.mid,experiment,1
9,33,10570,79,64,0,2,7,11,15.mid,experiment,1
10,35,10849,78,64,0,2,7,11,15.mid,experiment,1
11,37,11085,79,64,0,2,7,11,15.mid,experiment,1
12,38,11344,76,64,0,2,7,11,15.mid,experiment,1
13,41,11700,72,64,0,2,7,11,15.mid,experiment,1
14,43,11982,76,64,0,2,7,11,15.mid,experiment,1
15,45,12192,79,64,0,2,7,11,15.mid,experiment,1
16,47,12507,84,64,0,2,7,11,15.mid,experiment,1
17,48,12622,83,64,0,2,7,11,15.mid,experiment,1
18,50,12805,81,64,0,2,7,11,15.mid,experiment,1
19,52,13071,81,64,0,2,7,11,15.mid,experiment,1
20,54,13347,81,64,0,2,7,11,15.mid,experiment,1
21,57,13906,83,64,0,2,7,11,15.mid,experiment,1
22,59,14165,81,64,0,2,7,11,15.mid,experiment,1
23,60,14396,84,64,0,2,7,11,15.mid,experiment,1
24,62,14653,81,64,0,2,7,11,15.mid,experiment,1
25,64,14824,78,64,0,2,7,11,15.mid,experiment,1
26,66,15014,79,64,0,2,7,11,15.mid,experiment,1
27,68,15465,79,64,0,2,7,11,15.mid,experiment,1
28,70,16328,79,64,0,2,7,11,15.mid,experiment,1
29,72,17095,77,64,0,2,7,11,15.mid,experiment,1
30,74,17373,77,64,0,2,7,11,15.mid,experiment,1
31,76,17652,76,64,0,2,7,11,15.mid,experiment,1
32,78,17953,76,64,0,2,7,11,15.mid,experiment,1
33,80,18755,74,64,0,2,7,11,15.mid,experiment,1
34,82,19860,79,64,0,2,7,11,15.mid,experiment,1
35,84,20352,77,64,0,2,7,11,15.mid,experiment,1
36,86,20602,76,64,0,2,7,11,15.mid,experiment,1
37,88,20886,76,64,0,2,7,11,15.mid,experiment,1
38,90,21165,76,64,0,2,7,11,15.mid,experiment,1
39,92,21442,76,64,0,2,7,11,15.mid,experiment,1
40,95,22065,81,64,0,2,7,11,15.mid,experiment,1
41,97,22321,77,64,0,2,7,11,15.mid,experiment,1
42,99,22549,76,64,0,2,7,11,15.mid,experiment,1
43,101,22886,74,64,0,2,7,11,15.mid,experiment,1
44,103,23153,76,64,0,2,7,11,15.mid,experiment,1
45,105,23485,79,64,0,2,7,11,15.mid,experiment,1
46,106,23663,74,64,0,2,7,11,15.mid,experiment,1
47,108,23774,71,64,0,2,7,11,15.mid,experiment,1
48,110,24016,72,64,0,2,7,11,15.mid,experiment,1
49,112,24302,72,64,0,2,7,11,15.mid,experiment,1
50,114,24578,74,64,0,2,7,11,15.mid,experiment,1
51,116,24868,74,64,0,2,7,11,15.mid,experiment,1
52,118,25714,76,64,0,2,7,11,15.mid,experiment,1
53,120,26324,65,64,0,2,7,11,15.mid,experiment,1
54,122,26584,65,64,0,2,7,11,15.mid,experiment,1
55,124,26875,64,64,0,2,7,11,15.mid,experiment,1
56,126,27161,64,64,0,2,7,11,15.mid,experiment,1
57,128,28083,62,64,0,2,7,11,15.mid,experiment,1
58,130,28629,67,64,0,2,7,11,15.mid,experiment,1
59,132,28890,67,64,0,2,7,11,15.mid,experiment,1
60,134,29204,71,64,0,2,7,11,15.mid,experiment,1
61,136,29475,71,64,0,2,7,11,15.mid,experiment,1
62,138,29772,72,64,0,2,7,11,15.mid,experiment,1
63,140,30048,72,64,0,2,7,11,15.mid,experiment,1
64,142,30361,73,64,0,2,7,11,15.mid,experiment,1
65,144,30641,73,64,0,2,7,11,15.mid,experiment,1
66,147,31507,74,64,0,2,7,11,15.mid,experiment,1
67,149,32094,77,64,0,2,7,11,15.mid,experiment,1
68,150,32618,76,64,0,2,7,11,15.mid,experiment,1
69,152,33132,74,64,0,2,7,11,15.mid,experiment,1
70,154,33778,72,64,0,2,7,11,15.mid,experiment,1
71,156,34087,84,64,0,2,7,11,15.mid,experiment,1
72,158,35203,84,64,0,2,7,11,15.mid,experiment,1
1,19,8181,79,64,0,2,10,10,6.mid,experiment,1
2,21,8433,78,64,0,2,10,10,6.mid,experiment,1
3,23,8717,79,64,0,2,10,10,6.mid,experiment,1
4,25,9015,76,64,0,2,10,10,6.mid,experiment,1
5,26,9045,72,64,0,2,10,10,6.mid,experiment,1
6,28,9301,67,64,0,2,10,10,6.mid,experiment,1
7,30,9571,67,64,0,2,10,10,6.mid,experiment,1
8,32,9830,67,64,0,2,10,10,6.mid,experiment,1
9,35,10381,79,64,0,2,10,10,6.mid,experiment,1
10,37,10657,78,64,0,2,10,10,6.mid,experiment,1
11,39,10912,79,64,0,2,10,10,6.mid,experiment,1
12,41,11172,76,64,0,2,10,10,6.mid,experiment,1
13,43,11489,72,64,0,2,10,10,6.mid,experiment,1
14,45,11775,76,64,0,2,10,10,6.mid,experiment,1
15,47,11999,79,64,0,2,10,10,6.mid,experiment,1
16,49,12285,84,64,0,2,10,10,6.mid,experiment,1
17,50,12332,83,64,0,2,10,10,6.mid,experiment,1
18,52,12801,81,64,0,2,10,10,6.mid,experiment,1
19,54,13077,81,64,0,2,10,10,6.mid,experiment,1
20,54,,81,,0,2,10,10,6.mid,experiment,1
21,57,13657,83,64,0,2,10,10,6.mid,experiment,1
22,59,13878,81,64,0,2,10,10,6.mid,experiment,1
23,61,14163,84,64,0,2,10,10,6.mid,experiment,1
24,63,14421,81,64,0,2,10,10,6.mid,experiment,1
25,65,14709,78,64,0,2,10,10,6.mid,experiment,1
26,66,14710,79,64,0,2,10,10,6.mid,experiment,1
27,68,15081,79,64,0,2,10,10,6.mid,experiment,1
28,70,16181,79,64,0,2,10,10,6.mid,experiment,1
29,72,16831,77,64,0,2,10,10,6.mid,experiment,1
30,74,17099,77,64,0,2,10,10,6.mid,experiment,1
31,76,17383,76,64,0,2,10,10,6.mid,experiment,1
32,78,17665,76,64,0,2,10,10,6.mid,experiment,1
33,80,18309,74,64,0,2,10,10,6.mid,experiment,1
34,82,19157,79,64,0,2,10,10,6.mid,experiment,1
35,84,19699,77,64,0,2,10,10,6.mid,experiment,1
36,86,20237,76,64,0,2,10,10,6.mid,experiment,1
37,88,20547,76,64,0,2,10,10,6.mid,experiment,1
38,90,20801,76,64,0,2,10,10,6.mid,experiment,1
39,92,21055,76,64,0,2,10,10,6.mid,experiment,1
40,95,21662,81,64,0,2,10,10,6.mid,experiment,1
41,97,21880,77,64,0,2,10,10,6.mid,experiment,1
42,99,22117,76,64,0,2,10,10,6.mid,experiment,1
43,101,22409,74,64,0,2,10,10,6.mid,experiment,1
44,103,22658,76,64,0,2,10,10,6.mid,experiment,1
45,105,22958,79,64,0,2,10,10,6.mid,experiment,1
46,107,23201,74,64,0,2,10,10,6.mid,experiment,1
47,108,23247,71,64,0,2,10,10,6.mid,experiment,1
48,110,23494,72,64,0,2,10,10,6.mid,experiment,1
49,112,23773,72,64,0,2,10,10,6.mid,experiment,1
50,114,24051,74,64,0,2,10,10,6.mid,experiment,1
51,116,24313,74,64,0,2,10,10,6.mid,experiment,1
52,118,25091,76,64,0,2,10,10,6.mid,experiment,1
53,120,25763,65,64,0,2,10,10,6.mid,experiment,1
54,122,26041,65,64,0,2,10,10,6.mid,experiment,1
55,124,26586,64,64,0,2,10,10,6.mid,experiment,1
56,126,,64,,0,2,10,10,6.mid,experiment,1
57,126,27349,62,64,0,2,10,10,6.mid,experiment,1
58,128,28030,67,64,0,2,10,10,6.mid,experiment,1
59,130,28311,67,64,0,2,10,10,6.mid,experiment,1
60,132,28562,71,64,0,2,10,10,6.mid,experiment,1
61,134,28843,71,64,0,2,10,10,6.mid,experiment,1
62,136,29115,72,64,0,2,10,10,6.mid,experiment,1
63,138,29389,72,64,0,2,10,10,6.mid,experiment,1
64,140,29655,73,64,0,2,10,10,6.mid,experiment,1
65,142,29932,73,64,0,2,10,10,6.mid,experiment,1
66,144,30569,74,64,0,2,10,10,6.mid,experiment,1
67,146,31277,77,64,0,2,10,10,6.mid,experiment,1
68,148,31801,76,64,0,2,10,10,6.mid,experiment,1
69,152,32375,74,64,0,2,10,10,6.mid,experiment,1
70,154,32913,72,64,0,2,10,10,6.mid,experiment,1
71,156,33547,84,64,0,2,10,10,6.mid,experiment,1
72,158,34693,84,64,0,2,10,10,6.mid,experiment,1
1,19,8322,79,64,0,2,17,1,4.mid,experiment,1
2,21,8620,78,64,0,2,17,1,4.mid,experiment,1
3,23,8889,79,64,0,2,17,1,4.mid,experiment,1
4,25,9082,76,64,0,2,17,1,4.mid,experiment,1
5,26,9113,72,64,0,2,17,1,4.mid,experiment,1
6,28,9401,67,64,0,2,17,1,4.mid,experiment,1
7,30,9722,67,64,0,2,17,1,4.mid,experiment,1
8,32,10003,67,64,0,2,17,1,4.mid,experiment,1
9,35,10696,79,64,0,2,17,1,4.mid,experiment,1
10,37,10932,78,64,0,2,17,1,4.mid,experiment,1
11,39,11183,79,64,0,2,17,1,4.mid,experiment,1
12,41,11539,76,64,0,2,17,1,4.mid,experiment,1
13,43,11825,72,64,0,2,17,1,4.mid,experiment,1
14,45,12102,76,64,0,2,17,1,4.mid,experiment,1
15,47,12314,79,64,0,2,17,1,4.mid,experiment,1
16,49,12688,84,64,0,2,17,1,4.mid,experiment,1
17,50,12857,83,64,0,2,17,1,4.mid,experiment,1
18,52,13242,81,64,0,2,17,1,4.mid,experiment,1
19,54,13520,81,64,0,2,17,1,4.mid,experiment,1
20,54,,81,,0,2,17,1,4.mid,experiment,1
21,57,14170,83,64,0,2,17,1,4.mid,experiment,1
22,59,14427,81,64,0,2,17,1,4.mid,experiment,1
23,62,,84,,0,2,17,1,4.mid,experiment,1
24,63,,81,,0,2,17,1,4.mid,experiment,1
25,65,15264,78,64,0,2,17,1,4.mid,experiment,1
26,66,15432,79,64,0,2,17,1,4.mid,experiment,1
27,68,15847,79,64,0,2,17,1,4.mid,experiment,1
28,70,16708,79,64,0,2,17,1,4.mid,experiment,1
29,72,17334,77,64,0,2,17,1,4.mid,experiment,1
30,74,17617,77,64,0,2,17,1,4.mid,experiment,1
31,76,17891,76,64,0,2,17,1,4.mid,experiment,1
32,78,18150,76,64,0,2,17,1,4.mid,experiment,1
33,80,18938,74,64,0,2,17,1,4.mid,experiment,1
34,82,20084,79,64,0,2,17,1,4.mid,experiment,1
35,84,20550,77,64,0,2,17,1,4.mid,experiment,1
36,86,20783,76,64,0,2,17,1,4.mid,experiment,1
37,88,21100,76,64,0,2,17,1,4.mid,experiment,1
38,90,21336,76,64,0,2,17,1,4.mid,experiment,1
39,92,21629,76,64,0,2,17,1,4.mid,experiment,1
40,96,22499,81,64,0,2,17,1,4.mid,experiment,1
41,97,22556,77,64,0,2,17,1,4.mid,experiment,1
42,99,22770,76,64,0,2,17,1,4.mid,experiment,1
43,101,23058,74,64,0,2,17,1,4.mid,experiment,1
44,103,23347,76,64,0,2,17,1,4.mid,experiment,1
45,106,,79,,0,2,17,1,4.mid,experiment,1
46,107,,74,,0,2,17,1,4.mid,experiment,1
47,108,23922,71,64,0,2,17,1,4.mid,experiment,1
48,110,24175,72,64,0,2,17,1,4.mid,experiment,1
49,112,24448,72,64,0,2,17,1,4.mid,experiment,1
50,114,24722,74,64,0,2,17,1,4.mid,experiment,1
51,116,25001,74,64,0,2,17,1,4.mid,experiment,1
52,118,25801,76,64,0,2,17,1,4.mid,experiment,1
53,120,26434,65,64,0,2,17,1,4.mid,experiment,1
54,122,26693,65,64,0,2,17,1,4.mid,experiment,1
55,124,26999,64,64,0,2,17,1,4.mid,experiment,1
56,126,27257,64,64,0,2,17,1,4.mid,experiment,1
57,128,28065,62,64,0,2,17,1,4.mid,experiment,1
58,130,28686,67,64,0,2,17,1,4.mid,experiment,1
59,132,28957,67,64,0,2,17,1,4.mid,experiment,1
60,134,29218,71,64,0,2,17,1,4.mid,experiment,1
61,136,29482,71,64,0,2,17,1,4.mid,experiment,1
62,138,29763,72,64,0,2,17,1,4.mid,experiment,1
63,140,30004,72,64,0,2,17,1,4.mid,experiment,1
64,142,30312,73,64,0,2,17,1,4.mid,experiment,1
65,144,30561,73,64,0,2,17,1,4.mid,experiment,1
66,147,31392,74,64,0,2,17,1,4.mid,experiment,1
67,149,32005,77,64,0,2,17,1,4.mid,experiment,1
68,151,32616,76,64,0,2,17,1,4.mid,experiment,1
69,152,33056,74,64,0,2,17,1,4.mid,experiment,1
70,154,33586,72,64,0,2,17,1,4.mid,experiment,1
71,156,34003,84,64,0,2,17,1,4.mid,experiment,1
72,158,34948,84,64,0,2,17,1,4.mid,experiment,1
1,19,8335,79,64,0,2,17,6,3.mid,experiment,1
2,21,8553,78,64,0,2,17,6,3.mid,experiment,1
3,23,9005,79,64,0,2,17,6,3.mid,experiment,1
4,25,9149,76,64,0,2,17,6,3.mid,experiment,1
5,26,9299,72,64,0,2,17,6,3.mid,experiment,1
6,28,9418,67,64,0,2,17,6,3.mid,experiment,1
7,30,9707,67,64,0,2,17,6,3.mid,experiment,1
8,32,9987,67,64,0,2,17,6,3.mid,experiment,1
9,35,10663,79,64,0,2,17,6,3.mid,experiment,1
10,37,10915,78,64,0,2,17,6,3.mid,experiment,1
11,39,11179,79,64,0,2,17,6,3.mid,experiment,1
12,41,11513,76,64,0,2,17,6,3.mid,experiment,1
13,43,11827,72,64,0,2,17,6,3.mid,experiment,1
14,45,12137,76,64,0,2,17,6,3.mid,experiment,1
15,47,12323,79,64,0,2,17,6,3.mid,experiment,1
16,49,12721,84,64,0,2,17,6,3.mid,experiment,1
17,50,12883,83,64,0,2,17,6,3.mid,experiment,1
18,52,12947,81,64,0,2,17,6,3.mid,experiment,1
19,54,13253,81,64,0,2,17,6,3.mid,experiment,1
20,56,13528,81,64,0,2,17,6,3.mid,experiment,1
21,59,14265,83,64,0,2,17,6,3.mid,experiment,1
22,61,14513,81,64,0,2,17,6,3.mid,experiment,1
23,64,15037,84,64,0,2,17,6,3.mid,experiment,1
24,65,15044,81,64,0,2,17,6,3.mid,experiment,1
25,67,15313,78,64,0,2,17,6,3.mid,experiment,1
26,68,15527,79,64,0,2,17,6,3.mid,experiment,1
27,70,16121,79,64,0,2,17,6,3.mid,experiment,1
28,72,16913,79,64,0,2,17,6,3.mid,experiment,1
29,74,17577,77,64,0,2,17,6,3.mid,experiment,1
30,76,17869,77,64,0,2,17,6,3.mid,experiment,1
31,78,18173,76,64,0,2,17,6,3.mid,experiment,1
32,80,18453,76,64,0,2,17,6,3.mid,experiment,1
33,82,19246,74,64,0,2,17,6,3.mid,experiment,1
34,84,20385,79,64,0,2,17,6,3.mid,experiment,1
35,86,20819,77,64,0,2,17,6,3.mid,experiment,1
36,88,21129,76,64,0,2,17,6,3.mid,experiment,1
37,90,21447,76,64,0,2,17,6,3.mid,experiment,1
38,92,21725,76,64,0,2,17,6,3.mid,experiment,1
39,94,21989,76,64,0,2,17,6,3.mid,experiment,1
40,98,22957,81,64,0,2,17,6,3.mid,experiment,1
41,99,23052,77,64,0,2,17,6,3.mid,experiment,1
42,101,23254,76,64,0,2,17,6,3.mid,experiment,1
43,103,23517,74,64,0,2,17,6,3.mid,experiment,1
44,105,23808,76,64,0,2,17,6,3.mid,experiment,1
45,108,,79,,0,2,17,6,3.mid,experiment,1
46,109,,74,,0,2,17,6,3.mid,experiment,1
47,110,24480,71,64,0,2,17,6,3.mid,experiment,1
48,112,24591,72,64,0,2,17,6,3.mid,experiment,1
49,114,24873,72,64,0,2,17,6,3.mid,experiment,1
50,116,25157,74,64,0,2,17,6,3.mid,experiment,1
51,116,,74,,0,2,17,6,3.mid,experiment,1
52,118,26270,76,64,0,2,17,6,3.mid,experiment,1
53,120,26946,65,64,0,2,17,6,3.mid,experiment,1
54,122,27219,65,64,0,2,17,6,3.mid,experiment,1
55,124,27521,64,64,0,2,17,6,3.mid,experiment,1
56,126,27791,64,64,0,2,17,6,3.mid,experiment,1
57,128,28611,62,64,0,2,17,6,3.mid,experiment,1
58,130,29586,67,64,0,2,17,6,3.mid,experiment,1
59,132,30167,67,64,0,2,17,6,3.mid,experiment,1
60,134,30406,71,64,0,2,17,6,3.mid,experiment,1
61,136,30665,71,64,0,2,17,6,3.mid,experiment,1
62,138,30941,72,64,0,2,17,6,3.mid,experiment,1
63,140,31215,72,64,0,2,17,6,3.mid,experiment,1
64,142,31531,73,64,0,2,17,6,3.mid,experiment,1
65,144,31787,73,64,0,2,17,6,3.mid,experiment,1
66,147,32683,74,64,0,2,17,6,3.mid,experiment,1
67,149,33311,77,64,0,2,17,6,3.mid,experiment,1
68,151,33891,76,64,0,2,17,6,3.mid,experiment,1
69,153,34428,74,64,0,2,17,6,3.mid,experiment,1
70,155,35059,72,64,0,2,17,6,3.mid,experiment,1
71,156,35591,84,64,0,2,17,6,3.mid,experiment,1
72,158,36493,84,64,0,2,17,6,3.mid,experiment,1
1,19,8307,79,64,0,2,17,14,16.mid,experiment,1
2,21,8565,78,64,0,2,17,14,16.mid,experiment,1
3,23,8851,79,64,0,2,17,14,16.mid,experiment,1
4,25,9084,76,64,0,2,17,14,16.mid,experiment,1
5,26,9333,72,64,0,2,17,14,16.mid,experiment,1
6,28,9397,67,64,0,2,17,14,16.mid,experiment,1
7,30,9686,67,64,0,2,17,14,16.mid,experiment,1
8,32,9979,67,64,0,2,17,14,16.mid,experiment,1
9,35,10644,79,64,0,2,17,14,16.mid,experiment,1
10,37,10892,78,64,0,2,17,14,16.mid,experiment,1
11,39,11173,79,64,0,2,17,14,16.mid,experiment,1
12,41,11493,76,64,0,2,17,14,16.mid,experiment,1
13,43,11810,72,64,0,2,17,14,16.mid,experiment,1
14,45,12139,76,64,0,2,17,14,16.mid,experiment,1
15,47,12286,79,64,0,2,17,14,16.mid,experiment,1
16,49,12639,84,64,0,2,17,14,16.mid,experiment,1
17,50,12815,83,64,0,2,17,14,16.mid,experiment,1
18,52,12905,81,64,0,2,17,14,16.mid,experiment,1
19,54,13199,81,64,0,2,17,14,16.mid,experiment,1
20,56,13492,81,64,0,2,17,14,16.mid,experiment,1
21,59,14126,83,64,0,2,17,14,16.mid,experiment,1
22,61,14409,81,64,0,2,17,14,16.mid,experiment,1
23,64,,84,,0,2,17,14,16.mid,experiment,1
24,65,,81,,0,2,17,14,16.mid,experiment,1
25,67,15254,78,64,0,2,17,14,16.mid,experiment,1
26,68,15433,79,64,0,2,17,14,16.mid,experiment,1
27,70,16008,79,64,0,2,17,14,16.mid,experiment,1
28,72,16727,79,64,0,2,17,14,16.mid,experiment,1
29,74,17353,77,64,0,2,17,14,16.mid,experiment,1
30,76,17648,77,64,0,2,17,14,16.mid,experiment,1
31,78,17942,76,64,0,2,17,14,16.mid,experiment,1
32,78,,76,,0,2,17,14,16.mid,experiment,1
33,80,19072,74,64,0,2,17,14,16.mid,experiment,1
34,82,20191,79,64,0,2,17,14,16.mid,experiment,1
35,84,20695,77,64,0,2,17,14,16.mid,experiment,1
36,86,21021,76,64,0,2,17,14,16.mid,experiment,1
37,88,21283,76,64,0,2,17,14,16.mid,experiment,1
38,90,21569,76,64,0,2,17,14,16.mid,experiment,1
39,92,21862,76,64,0,2,17,14,16.mid,experiment,1
40,95,22619,81,64,0,2,17,14,16.mid,experiment,1
41,98,22958,77,64,0,2,17,14,16.mid,experiment,1
42,99,23048,76,64,0,2,17,14,16.mid,experiment,1
43,101,23331,74,64,0,2,17,14,16.mid,experiment,1
44,103,23606,76,64,0,2,17,14,16.mid,experiment,1
45,105,24067,79,64,0,2,17,14,16.mid,experiment,1
46,107,24150,74,64,0,2,17,14,16.mid,experiment,1
47,108,24412,71,64,0,2,17,14,16.mid,experiment,1
48,110,24480,72,64,0,2,17,14,16.mid,experiment,1
49,112,24749,72,64,0,2,17,14,16.mid,experiment,1
50,114,25031,74,64,0,2,17,14,16.mid,experiment,1
51,116,25312,74,64,0,2,17,14,16.mid,experiment,1
52,118,26166,76,64,0,2,17,14,16.mid,experiment,1
53,120,26838,65,64,0,2,17,14,16.mid,experiment,1
54,122,27126,65,64,0,2,17,14,16.mid,experiment,1
55,124,27425,64,64,0,2,17,14,16.mid,experiment,1
56,126,27711,64,64,0,2,17,14,16.mid,experiment,1
57,128,28576,62,64,0,2,17,14,16.mid,experiment,1
58,130,29495,67,64,0,2,17,14,16.mid,experiment,1
59,132,29762,67,64,0,2,17,14,16.mid,experiment,1
60,134,30053,71,64,0,2,17,14,16.mid,experiment,1
61,136,30335,71,64,0,2,17,14,16.mid,experiment,1
62,138,30613,72,64,0,2,17,14,16.mid,experiment,1
63,140,30905,72,64,0,2,17,14,16.mid,experiment,1
64,142,31173,73,64,0,2,17,14,16.mid,experiment,1
65,144,31451,73,64,0,2,17,14,16.mid,experiment,1
66,147,32337,74,64,0,2,17,14,16.mid,experiment,1
67,149,32892,77,64,0,2,17,14,16.mid,experiment,1
68,151,33440,76,64,0,2,17,14,16.mid,experiment,1
69,153,34000,74,64,0,2,17,14,16.mid,experiment,1
70,155,34682,72,64,0,2,17,14,16.mid,experiment,1
71,156,35082,84,64,0,2,17,14,16.mid,experiment,1
72,158,35928,84,64,0,2,17,14,16.mid,experiment,1
1,19,10159,79,64,0,2,20,1,7.mid,experiment,1
2,21,10416,78,64,0,2,20,1,7.mid,experiment,1
3,23,10830,79,64,0,2,20,1,7.mid,experiment,1
4,25,11106,76,64,0,2,20,1,7.mid,experiment,1
5,27,11407,72,64,0,2,20,1,7.mid,experiment,1
6,28,11484,67,64,0,2,20,1,7.mid,experiment,1
7,30,11779,67,64,0,2,20,1,7.mid,experiment,1
8,32,12109,67,64,0,2,20,1,7.mid,experiment,1
9,35,12844,79,64,0,2,20,1,7.mid,experiment,1
10,36,13122,78,64,0,2,20,1,7.mid,experiment,1
11,39,13451,79,64,0,2,20,1,7.mid,experiment,1
12,41,13767,76,64,0,2,20,1,7.mid,experiment,1
13,43,14123,72,64,0,2,20,1,7.mid,experiment,1
14,45,14464,76,64,0,2,20,1,7.mid,experiment,1
15,47,14698,79,64,0,2,20,1,7.mid,experiment,1
16,49,15173,84,64,0,2,20,1,7.mid,experiment,1
17,51,15358,83,64,0,2,20,1,7.mid,experiment,1
18,52,15381,81,64,0,2,20,1,7.mid,experiment,1
19,54,15687,81,64,0,2,20,1,7.mid,experiment,1
20,56,16011,81,64,0,2,20,1,7.mid,experiment,1
21,59,16701,83,64,0,2,20,1,7.mid,experiment,1
22,60,16967,81,64,0,2,20,1,7.mid,experiment,1
23,63,17456,84,64,0,2,20,1,7.mid,experiment,1
24,65,17649,81,64,0,2,20,1,7.mid,experiment,1
25,67,17916,78,64,0,2,20,1,7.mid,experiment,1
26,68,18072,79,64,0,2,20,1,7.mid,experiment,1
27,70,18579,79,64,0,2,20,1,7.mid,experiment,1
28,72,19597,79,64,0,2,20,1,7.mid,experiment,1
29,74,20409,77,64,0,2,20,1,7.mid,experiment,1
30,76,20734,77,64,0,2,20,1,7.mid,experiment,1
31,78,21078,76,64,0,2,20,1,7.mid,experiment,1
32,80,21388,76,64,0,2,20,1,7.mid,experiment,1
33,82,22050,74,64,0,2,20,1,7.mid,experiment,1
34,85,23837,79,64,0,2,20,1,7.mid,experiment,1
35,87,24437,77,64,0,2,20,1,7.mid,experiment,1
36,88,24534,76,64,0,2,20,1,7.mid,experiment,1
37,90,24822,76,64,0,2,20,1,7.mid,experiment,1
38,92,25142,76,64,0,2,20,1,7.mid,experiment,1
39,94,25445,76,64,0,2,20,1,7.mid,experiment,1
40,97,26263,81,64,0,2,20,1,7.mid,experiment,1
41,99,26510,77,64,0,2,20,1,7.mid,experiment,1
42,101,26750,76,64,0,2,20,1,7.mid,experiment,1
43,103,27099,74,64,0,2,20,1,7.mid,experiment,1
44,105,27389,76,64,0,2,20,1,7.mid,experiment,1
45,107,27811,79,64,0,2,20,1,7.mid,experiment,1
46,109,28005,74,64,0,2,20,1,7.mid,experiment,1
47,111,,71,,0,2,20,1,7.mid,experiment,1
48,112,,72,,0,2,20,1,7.mid,experiment,1
49,114,28678,72,64,0,2,20,1,7.mid,experiment,1
50,116,28988,74,64,0,2,20,1,7.mid,experiment,1
51,118,29317,74,64,0,2,20,1,7.mid,experiment,1
52,120,29901,76,64,0,2,20,1,7.mid,experiment,1
53,122,31018,65,64,0,2,20,1,7.mid,experiment,1
54,124,31326,65,64,0,2,20,1,7.mid,experiment,1
55,126,31950,64,64,0,2,20,1,7.mid,experiment,1
56,126,,64,,0,2,20,1,7.mid,experiment,1
57,128,32660,62,64,0,2,20,1,7.mid,experiment,1
58,130,33648,67,64,0,2,20,1,7.mid,experiment,1
59,132,33965,67,64,0,2,20,1,7.mid,experiment,1
60,134,34252,71,64,0,2,20,1,7.mid,experiment,1
61,136,34597,71,64,0,2,20,1,7.mid,experiment,1
62,138,34878,72,64,0,2,20,1,7.mid,experiment,1
63,140,35141,72,64,0,2,20,1,7.mid,experiment,1
64,142,35474,73,64,0,2,20,1,7.mid,experiment,1
65,144,35737,73,64,0,2,20,1,7.mid,experiment,1
66,147,36781,74,64,0,2,20,1,7.mid,experiment,1
67,149,37358,77,64,0,2,20,1,7.mid,experiment,1
68,151,37942,76,64,0,2,20,1,7.mid,experiment,1
69,152,38478,74,64,0,2,20,1,7.mid,experiment,1
70,154,39057,72,64,0,2,20,1,7.mid,experiment,1
71,156,39308,84,64,0,2,20,1,7.mid,experiment,1
72,158,40193,84,64,0,2,20,1,7.mid,experiment,1
1,19,8086,79,64,0,2,6,2,12.mid,experiment,1
2,21,8389,78,64,0,2,6,2,12.mid,experiment,1
3,23,8612,79,64,0,2,6,2,12.mid,experiment,1
4,25,8912,76,64,0,2,6,2,12.mid,experiment,1
5,26,8981,72,64,0,2,6,2,12.mid,experiment,1
6,28,9230,67,64,0,2,6,2,12.mid,experiment,1
7,30,9496,67,64,0,2,6,2,12.mid,experiment,1
8,32,9756,67,64,0,2,6,2,12.mid,experiment,1
9,37,10287,79,64,0,2,6,2,12.mid,experiment,1
10,39,10647,78,64,0,2,6,2,12.mid,experiment,1
11,41,10857,79,64,0,2,6,2,12.mid,experiment,1
12,43,11112,76,64,0,2,6,2,12.mid,experiment,1
13,45,11449,72,64,0,2,6,2,12.mid,experiment,1
14,47,11698,76,64,0,2,6,2,12.mid,experiment,1
15,49,11911,79,64,0,2,6,2,12.mid,experiment,1
16,51,12281,84,64,0,2,6,2,12.mid,experiment,1
17,52,12303,83,64,0,2,6,2,12.mid,experiment,1
18,54,12512,81,64,0,2,6,2,12.mid,experiment,1
19,56,12790,81,64,0,2,6,2,12.mid,experiment,1
20,58,13047,81,64,0,2,6,2,12.mid,experiment,1
21,61,13604,83,64,0,2,6,2,12.mid,experiment,1
22,63,13829,81,64,0,2,6,2,12.mid,experiment,1
23,65,14145,84,64,0,2,6,2,12.mid,experiment,1
24,67,14342,81,64,0,2,6,2,12.mid,experiment,1
25,68,14476,78,64,0,2,6,2,12.mid,experiment,1
26,70,14651,79,64,0,2,6,2,12.mid,experiment,1
27,72,15228,79,64,0,2,6,2,12.mid,experiment,1
28,74,16205,79,64,0,2,6,2,12.mid,experiment,1
29,76,16671,77,64,0,2,6,2,12.mid,experiment,1
30,78,16950,77,64,0,2,6,2,12.mid,experiment,1
31,80,17255,76,64,0,2,6,2,12.mid,experiment,1
32,82,17509,76,64,0,2,6,2,12.mid,experiment,1
33,84,18408,74,64,0,2,6,2,12.mid,experiment,1
34,86,19289,79,64,0,2,6,2,12.mid,experiment,1
35,88,19867,77,64,0,2,6,2,12.mid,experiment,1
36,90,20119,76,64,0,2,6,2,12.mid,experiment,1
37,92,20386,76,64,0,2,6,2,12.mid,experiment,1
38,94,20636,76,64,0,2,6,2,12.mid,experiment,1
39,96,20890,76,64,0,2,6,2,12.mid,experiment,1
40,99,21495,81,64,0,2,6,2,12.mid,experiment,1
41,101,21736,77,64,0,2,6,2,12.mid,experiment,1
42,103,21969,76,64,0,2,6,2,12.mid,experiment,1
43,105,22259,74,64,0,2,6,2,12.mid,experiment,1
44,107,22515,76,64,0,2,6,2,12.mid,experiment,1
45,109,22782,79,64,0,2,6,2,12.mid,experiment,1
46,111,23029,74,64,0,2,6,2,12.mid,experiment,1
47,112,23116,71,64,0,2,6,2,12.mid,experiment,1
48,114,23328,72,64,0,2,6,2,12.mid,experiment,1
49,116,23627,72,64,0,2,6,2,12.mid,experiment,1
50,118,23882,74,64,0,2,6,2,12.mid,experiment,1
51,120,24139,74,64,0,2,6,2,12.mid,experiment,1
52,122,25074,76,64,0,2,6,2,12.mid,experiment,1
53,124,25584,65,64,0,2,6,2,12.mid,experiment,1
54,126,25869,65,64,0,2,6,2,12.mid,experiment,1
55,128,26167,64,64,0,2,6,2,12.mid,experiment,1
56,130,26438,64,64,0,2,6,2,12.mid,experiment,1
57,132,27391,62,64,0,2,6,2,12.mid,experiment,1
58,134,27897,67,64,0,2,6,2,12.mid,experiment,1
59,136,28163,67,64,0,2,6,2,12.mid,experiment,1
60,138,28448,71,64,0,2,6,2,12.mid,experiment,1
61,140,28711,71,64,0,2,6,2,12.mid,experiment,1
62,142,29232,72,64,0,2,6,2,12.mid,experiment,1
63,142,,72,,0,2,6,2,12.mid,experiment,1
64,144,29482,73,64,0,2,6,2,12.mid,experiment,1
65,146,29754,73,64,0,2,6,2,12.mid,experiment,1
66,149,30615,74,64,0,2,6,2,12.mid,experiment,1
67,150,31052,77,64,0,2,6,2,12.mid,experiment,1
68,152,31636,76,64,0,2,6,2,12.mid,experiment,1
69,154,32177,74,64,0,2,6,2,12.mid,experiment,1
70,156,32679,72,64,0,2,6,2,12.mid,experiment,1
71,158,33213,84,64,0,2,6,2,12.mid,experiment,1
72,160,33941,84,64,0,2,6,2,12.mid,experiment,1
1,19,8081,79,64,0,2,6,12,10.mid,experiment,1
2,21,8373,78,64,0,2,6,12,10.mid,experiment,1
3,23,8608,79,64,0,2,6,12,10.mid,experiment,1
4,25,8939,76,64,0,2,6,12,10.mid,experiment,1
5,26,8997,72,64,0,2,6,12,10.mid,experiment,1
6,28,9178,67,64,0,2,6,12,10.mid,experiment,1
7,30,9723,67,64,0,2,6,12,10.mid,experiment,1
8,33,,67,,0,2,6,12,10.mid,experiment,1
9,33,10271,79,64,0,2,6,12,10.mid,experiment,1
10,35,10574,78,64,0,2,6,12,10.mid,experiment,1
11,37,10784,79,64,0,2,6,12,10.mid,experiment,1
12,39,11028,76,64,0,2,6,12,10.mid,experiment,1
13,41,11334,72,64,0,2,6,12,10.mid,experiment,1
14,43,11596,76,64,0,2,6,12,10.mid,experiment,1
15,45,11827,79,64,0,2,6,12,10.mid,experiment,1
16,47,12143,84,64,0,2,6,12,10.mid,experiment,1
17,48,12252,83,64,0,2,6,12,10.mid,experiment,1
18,50,12398,81,64,0,2,6,12,10.mid,experiment,1
19,52,12694,81,64,0,2,6,12,10.mid,experiment,1
20,54,12963,81,64,0,2,6,12,10.mid,experiment,1
21,57,13488,83,64,0,2,6,12,10.mid,experiment,1
22,59,13702,81,64,0,2,6,12,10.mid,experiment,1
23,61,13966,84,64,0,2,6,12,10.mid,experiment,1
24,63,14222,81,64,0,2,6,12,10.mid,experiment,1
25,64,14371,78,64,0,2,6,12,10.mid,experiment,1
26,66,14582,79,64,0,2,6,12,10.mid,experiment,1
27,68,15109,79,64,0,2,6,12,10.mid,experiment,1
28,70,16038,79,64,0,2,6,12,10.mid,experiment,1
29,72,16458,77,64,0,2,6,12,10.mid,experiment,1
30,74,16727,77,64,0,2,6,12,10.mid,experiment,1
31,76,16997,76,64,0,2,6,12,10.mid,experiment,1
32,78,17267,76,64,0,2,6,12,10.mid,experiment,1
33,80,18188,74,64,0,2,6,12,10.mid,experiment,1
34,82,19058,79,64,0,2,6,12,10.mid,experiment,1
35,84,19608,77,64,0,2,6,12,10.mid,experiment,1
36,86,19801,76,64,0,2,6,12,10.mid,experiment,1
37,88,20075,76,64,0,2,6,12,10.mid,experiment,1
38,90,20337,76,64,0,2,6,12,10.mid,experiment,1
39,92,20579,76,64,0,2,6,12,10.mid,experiment,1
40,95,21159,81,64,0,2,6,12,10.mid,experiment,1
41,97,21396,77,64,0,2,6,12,10.mid,experiment,1
42,99,21628,76,64,0,2,6,12,10.mid,experiment,1
43,102,21913,74,64,0,2,6,12,10.mid,experiment,1
44,105,22136,76,64,0,2,6,12,10.mid,experiment,1
45,107,22455,79,64,0,2,6,12,10.mid,experiment,1
46,109,22674,74,64,0,2,6,12,10.mid,experiment,1
47,110,22771,71,64,0,2,6,12,10.mid,experiment,1
48,112,22969,72,64,0,2,6,12,10.mid,experiment,1
49,114,23224,72,64,0,2,6,12,10.mid,experiment,1
50,116,23469,74,64,0,2,6,12,10.mid,experiment,1
51,118,23749,74,64,0,2,6,12,10.mid,experiment,1
52,120,24622,76,64,0,2,6,12,10.mid,experiment,1
53,122,25098,65,64,0,2,6,12,10.mid,experiment,1
54,124,25370,65,64,0,2,6,12,10.mid,experiment,1
55,126,25686,64,64,0,2,6,12,10.mid,experiment,1
56,128,25950,64,64,0,2,6,12,10.mid,experiment,1
57,130,26912,62,64,0,2,6,12,10.mid,experiment,1
58,132,27295,67,64,0,2,6,12,10.mid,experiment,1
59,134,27564,67,64,0,2,6,12,10.mid,experiment,1
60,136,27829,71,64,0,2,6,12,10.mid,experiment,1
61,138,28106,71,64,0,2,6,12,10.mid,experiment,1
62,140,28364,72,64,0,2,6,12,10.mid,experiment,1
63,142,28631,72,64,0,2,6,12,10.mid,experiment,1
64,144,28872,73,64,0,2,6,12,10.mid,experiment,1
65,146,29146,73,64,0,2,6,12,10.mid,experiment,1
66,148,29864,74,64,0,2,6,12,10.mid,experiment,1
67,150,30397,77,64,0,2,6,12,10.mid,experiment,1
68,152,30939,76,64,0,2,6,12,10.mid,experiment,1
69,154,31460,74,64,0,2,6,12,10.mid,experiment,1
70,156,32022,72,64,0,2,6,12,10.mid,experiment,1
71,158,32576,84,64,0,2,6,12,10.mid,experiment,1
72,160,33470,84,64,0,2,6,12,10.mid,experiment,1
1,19,8146,79,64,0,2,8,6,9.mid,experiment,1
2,21,8474,78,64,0,2,8,6,9.mid,experiment,1
3,23,8685,79,64,0,2,8,6,9.mid,experiment,1
4,25,9000,76,64,0,2,8,6,9.mid,experiment,1
5,26,9159,72,64,0,2,8,6,9.mid,experiment,1
6,28,9346,67,64,0,2,8,6,9.mid,experiment,1
7,30,9548,67,64,0,2,8,6,9.mid,experiment,1
8,32,9891,67,64,0,2,8,6,9.mid,experiment,1
9,35,10436,79,64,0,2,8,6,9.mid,experiment,1
10,37,10729,78,64,0,2,8,6,9.mid,experiment,1
11,39,10990,79,64,0,2,8,6,9.mid,experiment,1
12,40,11221,76,64,0,2,8,6,9.mid,experiment,1
13,43,11550,72,64,0,2,8,6,9.mid,experiment,1
14,45,11839,76,64,0,2,8,6,9.mid,experiment,1
15,47,12062,79,64,0,2,8,6,9.mid,experiment,1
16,49,12451,84,64,0,2,8,6,9.mid,experiment,1
17,50,12570,83,64,0,2,8,6,9.mid,experiment,1
18,52,12702,81,64,0,2,8,6,9.mid,experiment,1
19,54,12983,81,64,0,2,8,6,9.mid,experiment,1
20,56,13261,81,64,0,2,8,6,9.mid,experiment,1
21,59,13818,83,64,0,2,8,6,9.mid,experiment,1
22,61,14058,81,64,0,2,8,6,9.mid,experiment,1
23,63,14383,84,64,0,2,8,6,9.mid,experiment,1
24,64,14601,81,64,0,2,8,6,9.mid,experiment,1
25,67,14913,78,64,0,2,8,6,9.mid,experiment,1
26,68,15057,79,64,0,2,8,6,9.mid,experiment,1
27,70,15559,79,64,0,2,8,6,9.mid,experiment,1
28,72,16408,79,64,0,2,8,6,9.mid,experiment,1
29,74,16955,77,64,0,2,8,6,9.mid,experiment,1
30,76,17245,77,64,0,2,8,6,9.mid,experiment,1
31,78,17513,76,64,0,2,8,6,9.mid,experiment,1
32,80,17788,76,64,0,2,8,6,9.mid,experiment,1
33,82,18629,74,64,0,2,8,6,9.mid,experiment,1
34,84,19788,79,64,0,2,8,6,9.mid,experiment,1
35,86,20371,77,64,0,2,8,6,9.mid,experiment,1
36,88,20491,76,64,0,2,8,6,9.mid,experiment,1
37,90,20767,76,64,0,2,8,6,9.mid,experiment,1
38,92,21038,76,64,0,2,8,6,9.mid,experiment,1
39,94,21275,76,64,0,2,8,6,9.mid,experiment,1
40,97,21839,81,64,0,2,8,6,9.mid,experiment,1
41,99,22123,77,64,0,2,8,6,9.mid,experiment,1
42,101,22364,76,64,0,2,8,6,9.mid,experiment,1
43,103,22684,74,64,0,2,8,6,9.mid,experiment,1
44,105,22931,76,64,0,2,8,6,9.mid,experiment,1
45,107,23285,79,64,0,2,8,6,9.mid,experiment,1
46,108,23489,74,64,0,2,8,6,9.mid,experiment,1
47,112,23754,71,64,0,2,8,6,9.mid,experiment,1
48,114,23812,72,64,0,2,8,6,9.mid,experiment,1
49,116,24095,72,64,0,2,8,6,9.mid,experiment,1
50,118,24387,74,64,0,2,8,6,9.mid,experiment,1
51,120,24678,74,64,0,2,8,6,9.mid,experiment,1
52,122,25479,76,64,0,2,8,6,9.mid,experiment,1
53,124,26119,65,64,0,2,8,6,9.mid,experiment,1
54,126,26388,65,64,0,2,8,6,9.mid,experiment,1
55,128,26662,64,64,0,2,8,6,9.mid,experiment,1
56,130,26939,64,64,0,2,8,6,9.mid,experiment,1
57,132,27906,62,64,0,2,8,6,9.mid,experiment,1
58,134,28412,67,64,0,2,8,6,9.mid,experiment,1
59,136,28685,67,64,0,2,8,6,9.mid,experiment,1
60,138,29239,71,64,0,2,8,6,9.mid,experiment,1
61,138,,71,,0,2,8,6,9.mid,experiment,1
62,140,29520,72,64,0,2,8,6,9.mid,experiment,1
63,142,29767,72,64,0,2,8,6,9.mid,experiment,1
64,144,30098,73,64,0,2,8,6,9.mid,experiment,1
65,146,30310,73,64,0,2,8,6,9.mid,experiment,1
66,149,31184,74,64,0,2,8,6,9.mid,experiment,1
67,151,31767,77,64,0,2,8,6,9.mid,experiment,1
68,153,32327,76,64,0,2,8,6,9.mid,experiment,1
69,155,32851,74,64,0,2,8,6,9.mid,experiment,1
70,156,33412,72,64,0,2,8,6,9.mid,experiment,1
71,158,33858,84,64,0,2,8,6,9.mid,experiment,1
72,160,34765,84,64,0,2,8,6,9.mid,experiment,1
1,19,8154,79,64,0,2,8,10,12.mid,experiment,1
2,21,8578,78,64,0,2,8,10,12.mid,experiment,1
3,24,8692,79,64,0,2,8,10,12.mid,experiment,1
4,27,9003,76,64,0,2,8,10,12.mid,experiment,1
5,28,9179,72,64,0,2,8,10,12.mid,experiment,1
6,30,9303,67,64,0,2,8,10,12.mid,experiment,1
7,32,9596,67,64,0,2,8,10,12.mid,experiment,1
8,34,9868,67,64,0,2,8,10,12.mid,experiment,1
9,37,10498,79,64,0,2,8,10,12.mid,experiment,1
10,39,10798,78,64,0,2,8,10,12.mid,experiment,1
11,41,11074,79,64,0,2,8,10,12.mid,experiment,1
12,42,11296,76,64,0,2,8,10,12.mid,experiment,1
13,45,11622,72,64,0,2,8,10,12.mid,experiment,1
14,47,11920,76,64,0,2,8,10,12.mid,experiment,1
15,49,12132,79,64,0,2,8,10,12.mid,experiment,1
16,51,12564,84,64,0,2,8,10,12.mid,experiment,1
17,52,12661,83,64,0,2,8,10,12.mid,experiment,1
18,54,12779,81,64,0,2,8,10,12.mid,experiment,1
19,56,13071,81,64,0,2,8,10,12.mid,experiment,1
20,58,13339,81,64,0,2,8,10,12.mid,experiment,1
21,61,13977,83,64,0,2,8,10,12.mid,experiment,1
22,63,14204,81,64,0,2,8,10,12.mid,experiment,1
23,65,14546,84,64,0,2,8,10,12.mid,experiment,1
24,66,14755,81,64,0,2,8,10,12.mid,experiment,1
25,69,15091,78,64,0,2,8,10,12.mid,experiment,1
26,70,15199,79,64,0,2,8,10,12.mid,experiment,1
27,72,15831,79,64,0,2,8,10,12.mid,experiment,1
28,74,16591,79,64,0,2,8,10,12.mid,experiment,1
29,76,17250,77,64,0,2,8,10,12.mid,experiment,1
30,78,17518,77,64,0,2,8,10,12.mid,experiment,1
31,80,17808,76,64,0,2,8,10,12.mid,experiment,1
32,82,18095,76,64,0,2,8,10,12.mid,experiment,1
33,84,19042,74,64,0,2,8,10,12.mid,experiment,1
34,87,20210,79,64,0,2,8,10,12.mid,experiment,1
35,88,20794,77,64,0,2,8,10,12.mid,experiment,1
36,90,20873,76,64,0,2,8,10,12.mid,experiment,1
37,92,21162,76,64,0,2,8,10,12.mid,experiment,1
38,94,21449,76,64,0,2,8,10,12.mid,experiment,1
39,96,21721,76,64,0,2,8,10,12.mid,experiment,1
40,99,22330,81,64,0,2,8,10,12.mid,experiment,1
41,101,22608,77,64,0,2,8,10,12.mid,experiment,1
42,103,22859,76,64,0,2,8,10,12.mid,experiment,1
43,105,23170,74,64,0,2,8,10,12.mid,experiment,1
44,107,23454,76,64,0,2,8,10,12.mid,experiment,1
45,109,23772,79,64,0,2,8,10,12.mid,experiment,1
46,110,23933,74,64,0,2,8,10,12.mid,experiment,1
47,113,24257,71,64,0,2,8,10,12.mid,experiment,1
48,114,24291,72,64,0,2,8,10,12.mid,experiment,1
49,116,24591,72,64,0,2,8,10,12.mid,experiment,1
50,118,24867,74,64,0,2,8,10,12.mid,experiment,1
51,120,25155,74,64,0,2,8,10,12.mid,experiment,1
52,122,26035,76,64,0,2,8,10,12.mid,experiment,1
53,124,26701,65,64,0,2,8,10,12.mid,experiment,1
54,126,26972,65,64,0,2,8,10,12.mid,experiment,1
55,128,27268,64,64,0,2,8,10,12.mid,experiment,1
56,130,27537,64,64,0,2,8,10,12.mid,experiment,1
57,132,28466,62,64,0,2,8,10,12.mid,experiment,1
58,134,29089,67,64,0,2,8,10,12.mid,experiment,1
59,136,29367,67,64,0,2,8,10,12.mid,experiment,1
60,138,29944,71,64,0,2,8,10,12.mid,experiment,1
61,138,,71,,0,2,8,10,12.mid,experiment,1
62,140,30210,72,64,0,2,8,10,12.mid,experiment,1
63,142,30484,72,64,0,2,8,10,12.mid,experiment,1
64,144,30783,73,64,0,2,8,10,12.mid,experiment,1
65,146,31055,73,64,0,2,8,10,12.mid,experiment,1
66,149,31965,74,64,0,2,8,10,12.mid,experiment,1
67,151,32562,77,64,0,2,8,10,12.mid,experiment,1
68,153,33116,76,64,0,2,8,10,12.mid,experiment,1
69,155,33664,74,64,0,2,8,10,12.mid,experiment,1
70,157,34265,72,64,0,2,8,10,12.mid,experiment,1
71,158,34697,84,64,0,2,8,10,12.mid,experiment,1
72,160,35895,84,64,0,2,8,10,12.mid,experiment,1
1,19,8198,79,64,0,2,13,1,4.mid,experiment,1
2,21,8470,78,64,0,2,13,1,4.mid,experiment,1
3,23,8742,79,64,0,2,13,1,4.mid,experiment,1
4,25,8970,76,64,0,2,13,1,4.mid,experiment,1
5,26,8996,72,64,0,2,13,1,4.mid,experiment,1
6,28,9544,67,64,0,2,13,1,4.mid,experiment,1
7,30,9802,67,64,0,2,13,1,4.mid,experiment,1
8,33,,67,,0,2,13,1,4.mid,experiment,1
9,33,10381,79,64,0,2,13,1,4.mid,experiment,1
10,35,10592,78,64,0,2,13,1,4.mid,experiment,1
11,37,10859,79,64,0,2,13,1,4.mid,experiment,1
12,39,11156,76,64,0,2,13,1,4.mid,experiment,1
13,41,11430,72,64,0,2,13,1,4.mid,experiment,1
14,43,11706,76,64,0,2,13,1,4.mid,experiment,1
15,45,11909,79,64,0,2,13,1,4.mid,experiment,1
16,47,12184,84,64,0,2,13,1,4.mid,experiment,1
17,48,12210,83,64,0,2,13,1,4.mid,experiment,1
18,50,12460,81,64,0,2,13,1,4.mid,experiment,1
19,52,12724,81,64,0,2,13,1,4.mid,experiment,1
20,54,12959,81,64,0,2,13,1,4.mid,experiment,1
21,57,13492,83,64,0,2,13,1,4.mid,experiment,1
22,59,13768,81,64,0,2,13,1,4.mid,experiment,1
23,61,14028,84,64,0,2,13,1,4.mid,experiment,1
24,62,14068,81,64,0,2,13,1,4.mid,experiment,1
25,66,14422,78,64,0,2,13,1,4.mid,experiment,1
26,68,14542,79,64,0,2,13,1,4.mid,experiment,1
27,70,14946,79,64,0,2,13,1,4.mid,experiment,1
28,72,15579,79,64,0,2,13,1,4.mid,experiment,1
29,74,16668,77,64,0,2,13,1,4.mid,experiment,1
30,76,16920,77,64,0,2,13,1,4.mid,experiment,1
31,78,17190,76,64,0,2,13,1,4.mid,experiment,1
32,80,17458,76,64,0,2,13,1,4.mid,experiment,1
33,82,17988,74,64,0,2,13,1,4.mid,experiment,1
34,84,18973,79,64,0,2,13,1,4.mid,experiment,1
35,86,19525,77,64,0,2,13,1,4.mid,experiment,1
36,88,20077,76,64,0,2,13,1,4.mid,experiment,1
37,90,20326,76,64,0,2,13,1,4.mid,experiment,1
38,92,20586,76,64,0,2,13,1,4.mid,experiment,1
39,94,20835,76,64,0,2,13,1,4.mid,experiment,1
40,97,21408,81,64,0,2,13,1,4.mid,experiment,1
41,99,21632,77,64,0,2,13,1,4.mid,experiment,1
42,101,21869,76,64,0,2,13,1,4.mid,experiment,1
43,103,22133,74,64,0,2,13,1,4.mid,experiment,1
44,104,22358,76,64,0,2,13,1,4.mid,experiment,1
45,107,22626,79,64,0,2,13,1,4.mid,experiment,1
46,108,22885,74,64,0,2,13,1,4.mid,experiment,1
47,110,22921,71,64,0,2,13,1,4.mid,experiment,1
48,112,23181,72,64,0,2,13,1,4.mid,experiment,1
49,114,23444,72,64,0,2,13,1,4.mid,experiment,1
50,116,23680,74,64,0,2,13,1,4.mid,experiment,1
51,118,23932,74,64,0,2,13,1,4.mid,experiment,1
52,120,24455,76,64,0,2,13,1,4.mid,experiment,1
53,122,25348,65,64,0,2,13,1,4.mid,experiment,1
54,124,25591,65,64,0,2,13,1,4.mid,experiment,1
55,126,25862,64,64,0,2,13,1,4.mid,experiment,1
56,128,26106,64,64,0,2,13,1,4.mid,experiment,1
57,130,26648,62,64,0,2,13,1,4.mid,experiment,1
58,132,27598,67,64,0,2,13,1,4.mid,experiment,1
59,134,27866,67,64,0,2,13,1,4.mid,experiment,1
60,136,28098,71,64,0,2,13,1,4.mid,experiment,1
61,138,28356,71,64,0,2,13,1,4.mid,experiment,1
62,140,28594,72,64,0,2,13,1,4.mid,experiment,1
63,142,28836,72,64,0,2,13,1,4.mid,experiment,1
64,144,29090,73,64,0,2,13,1,4.mid,experiment,1
65,146,29326,73,64,0,2,13,1,4.mid,experiment,1
66,148,29700,74,64,0,2,13,1,4.mid,experiment,1
67,150,30214,77,64,0,2,13,1,4.mid,experiment,1
68,152,30708,76,64,0,2,13,1,4.mid,experiment,1
69,154,31224,74,64,0,2,13,1,4.mid,experiment,1
70,156,31746,72,64,0,2,13,1,4.mid,experiment,1
71,158,32280,84,64,0,2,13,1,4.mid,experiment,1
72,160,32898,84,64,0,2,13,1,4.mid,experiment,1
