RowNr,NoteNr,TimeStamp,Pitch,Velocity,Key_OnOff,Device,SubNr,TrialNr,Stimuli,Session,Error
1,17,7923,79,88,1,2,3,2,14.mid,experiment,1
2,18,8236,78,96,1,2,3,2,14.mid,experiment,1
3,20,8507,79,81,1,2,3,2,14.mid,experiment,1
4,22,8790,76,85,1,2,3,2,14.mid,experiment,1
5,24,9103,72,79,1,2,3,2,14.mid,experiment,1
6,27,9404,67,67,1,2,3,2,14.mid,experiment,1
7,29,9664,67,62,1,2,3,2,14.mid,experiment,1
8,31,9907,67,74,1,2,3,2,14.mid,experiment,1
9,33,10259,79,78,1,2,3,2,14.mid,experiment,1
10,34,10565,78,83,1,2,3,2,14.mid,experiment,1
11,36,10847,79,81,1,2,3,2,14.mid,experiment,1
12,38,11113,76,76,1,2,3,2,14.mid,experiment,1
13,40,11397,72,76,1,2,3,2,14.mid,experiment,1
14,42,11663,76,81,1,2,3,2,14.mid,experiment,1
15,44,11937,79,91,1,2,3,2,14.mid,experiment,1
16,46,12219,84,95,1,2,3,2,14.mid,experiment,1
17,48,12545,83,83,1,2,3,2,14.mid,experiment,1
18,51,12865,81,69,1,2,3,2,14.mid,experiment,1
19,53,13117,81,67,1,2,3,2,14.mid,experiment,1
20,55,13371,81,66,1,2,3,2,14.mid,experiment,1
21,57,13655,83,84,1,2,3,2,14.mid,experiment,1
22,58,13927,81,82,1,2,3,2,14.mid,experiment,1
23,60,14209,84,85,1,2,3,2,14.mid,experiment,1
24,62,14479,81,91,1,2,3,2,14.mid,experiment,1
25,64,14774,78,89,1,2,3,2,14.mid,experiment,1
26,66,15045,79,84,1,2,3,2,14.mid,experiment,1
27,69,15364,79,74,1,2,3,2,14.mid,experiment,1
28,71,15957,79,70,1,2,3,2,14.mid,experiment,1
29,73,17361,77,60,1,2,3,2,14.mid,experiment,1
30,75,17627,77,58,1,2,3,2,14.mid,experiment,1
31,77,17901,76,55,1,2,3,2,14.mid,experiment,1
32,79,18160,76,52,1,2,3,2,14.mid,experiment,1
33,81,18447,74,55,1,2,3,2,14.mid,experiment,1
34,83,19657,79,73,1,2,3,2,14.mid,experiment,1
35,85,20201,77,61,1,2,3,2,14.mid,experiment,1
36,87,20763,76,62,1,2,3,2,14.mid,experiment,1
37,89,21039,76,63,1,2,3,2,14.mid,experiment,1
38,91,21301,76,64,1,2,3,2,14.mid,experiment,1
39,93,21575,76,65,1,2,3,2,14.mid,experiment,1
40,95,21925,81,72,1,2,3,2,14.mid,experiment,1
41,96,22217,77,83,1,2,3,2,14.mid,experiment,1
42,98,22478,76,84,1,2,3,2,14.mid,experiment,1
43,101,22740,74,83,1,2,3,2,14.mid,experiment,1
44,102,22995,76,94,1,2,3,2,14.mid,experiment,1
45,104,23255,79,88,1,2,3,2,14.mid,experiment,1
46,106,23517,74,91,1,2,3,2,14.mid,experiment,1
47,108,23784,71,76,1,2,3,2,14.mid,experiment,1
48,111,24069,72,70,1,2,3,2,14.mid,experiment,1
49,113,24328,72,63,1,2,3,2,14.mid,experiment,1
50,115,24573,74,57,1,2,3,2,14.mid,experiment,1
51,117,24825,74,62,1,2,3,2,14.mid,experiment,1
52,119,25129,76,58,1,2,3,2,14.mid,experiment,1
53,121,26497,65,60,1,2,3,2,14.mid,experiment,1
54,123,26761,65,57,1,2,3,2,14.mid,experiment,1
56,129,28405,64,55,1,2,3,2,14.mid,experiment,1
57,131,28673,64,54,1,2,3,2,14.mid,experiment,1
58,133,28984,62,51,1,2,3,2,14.mid,experiment,1
59,135,30105,67,57,1,2,3,2,14.mid,experiment,1
60,137,30365,67,67,1,2,3,2,14.mid,experiment,1
61,139,30641,71,68,1,2,3,2,14.mid,experiment,1
62,141,30893,71,63,1,2,3,2,14.mid,experiment,1
63,143,31151,72,76,1,2,3,2,14.mid,experiment,1
64,145,31409,72,83,1,2,3,2,14.mid,experiment,1
65,147,31669,73,95,1,2,3,2,14.mid,experiment,1
66,149,31935,73,93,1,2,3,2,14.mid,experiment,1
67,151,32225,74,99,1,2,3,2,14.mid,experiment,1
68,153,32759,77,91,1,2,3,2,14.mid,experiment,1
69,155,33291,76,91,1,2,3,2,14.mid,experiment,1
70,157,33805,74,90,1,2,3,2,14.mid,experiment,1
71,159,34341,72,98,1,2,3,2,14.mid,experiment,1
72,161,34895,84,101,1,2,3,2,14.mid,experiment,1
73,163,35507,84,101,1,2,3,2,14.mid,experiment,1
1,17,7850,79,70,1,2,4,9,8.mid,experiment,1
2,18,8123,78,82,1,2,4,9,8.mid,experiment,1
3,20,8421,79,94,1,2,4,9,8.mid,experiment,1
4,22,8686,76,88,1,2,4,9,8.mid,experiment,1
5,24,8967,72,89,1,2,4,9,8.mid,experiment,1
6,27,9249,67,65,1,2,4,9,8.mid,experiment,1
7,29,9528,67,58,1,2,4,9,8.mid,experiment,1
8,31,9813,67,57,1,2,4,9,8.mid,experiment,1
9,33,10130,79,57,1,2,4,9,8.mid,experiment,1
11,36,10366,78,46,1,2,4,9,8.mid,experiment,1
12,38,10685,79,84,1,2,4,9,8.mid,experiment,1
13,40,10949,76,81,1,2,4,9,8.mid,experiment,1
14,43,11242,72,93,1,2,4,9,8.mid,experiment,1
15,44,11514,76,93,1,2,4,9,8.mid,experiment,1
16,46,11775,79,96,1,2,4,9,8.mid,experiment,1
17,48,12033,84,97,1,2,4,9,8.mid,experiment,1
18,50,12323,83,88,1,2,4,9,8.mid,experiment,1
19,53,12597,81,68,1,2,4,9,8.mid,experiment,1
20,55,12874,81,57,1,2,4,9,8.mid,experiment,1
21,57,13142,81,58,1,2,4,9,8.mid,experiment,1
22,59,13432,83,81,1,2,4,9,8.mid,experiment,1
23,60,13706,81,94,1,2,4,9,8.mid,experiment,1
24,62,13979,84,97,1,2,4,9,8.mid,experiment,1
25,64,14250,81,86,1,2,4,9,8.mid,experiment,1
26,66,14531,78,94,1,2,4,9,8.mid,experiment,1
27,68,14810,79,85,1,2,4,9,8.mid,experiment,1
28,71,15091,79,85,1,2,4,9,8.mid,experiment,1
29,73,15658,79,65,1,2,4,9,8.mid,experiment,1
30,75,16762,77,67,1,2,4,9,8.mid,experiment,1
31,77,17026,77,68,1,2,4,9,8.mid,experiment,1
32,79,17316,76,56,1,2,4,9,8.mid,experiment,1
33,81,17606,76,43,1,2,4,9,8.mid,experiment,1
34,83,17911,74,49,1,2,4,9,8.mid,experiment,1
35,85,18988,79,53,1,2,4,9,8.mid,experiment,1
36,87,19555,77,56,1,2,4,9,8.mid,experiment,1
37,89,20117,76,61,1,2,4,9,8.mid,experiment,1
38,91,20374,76,60,1,2,4,9,8.mid,experiment,1
39,93,20643,76,59,1,2,4,9,8.mid,experiment,1
40,95,20933,76,53,1,2,4,9,8.mid,experiment,1
41,97,21260,81,71,1,2,4,9,8.mid,experiment,1
42,98,21551,77,84,1,2,4,9,8.mid,experiment,1
43,100,21828,76,84,1,2,4,9,8.mid,experiment,1
44,102,22116,74,89,1,2,4,9,8.mid,experiment,1
45,104,22407,76,95,1,2,4,9,8.mid,experiment,1
46,106,22680,79,96,1,2,4,9,8.mid,experiment,1
47,108,22961,74,96,1,2,4,9,8.mid,experiment,1
48,110,23216,71,84,1,2,4,9,8.mid,experiment,1
49,113,23528,72,65,1,2,4,9,8.mid,experiment,1
50,115,23789,72,62,1,2,4,9,8.mid,experiment,1
51,117,24054,74,60,1,2,4,9,8.mid,experiment,1
52,119,24336,74,52,1,2,4,9,8.mid,experiment,1
53,121,24688,76,39,1,2,4,9,8.mid,experiment,1
54,123,25673,65,68,1,2,4,9,8.mid,experiment,1
55,125,25950,65,67,1,2,4,9,8.mid,experiment,1
56,127,26242,64,51,1,2,4,9,8.mid,experiment,1
57,129,26518,64,56,1,2,4,9,8.mid,experiment,1
58,131,26857,62,47,1,2,4,9,8.mid,experiment,1
59,133,27935,67,52,1,2,4,9,8.mid,experiment,1
60,135,28210,67,63,1,2,4,9,8.mid,experiment,1
61,137,28508,71,51,1,2,4,9,8.mid,experiment,1
62,139,28772,71,58,1,2,4,9,8.mid,experiment,1
63,141,29053,72,70,1,2,4,9,8.mid,experiment,1
64,143,29325,72,60,1,2,4,9,8.mid,experiment,1
65,145,29582,73,70,1,2,4,9,8.mid,experiment,1
66,147,29856,73,64,1,2,4,9,8.mid,experiment,1
67,149,30176,74,79,1,2,4,9,8.mid,experiment,1
68,151,30756,77,89,1,2,4,9,8.mid,experiment,1
69,153,31299,76,99,1,2,4,9,8.mid,experiment,1
70,155,31884,74,107,1,2,4,9,8.mid,experiment,1
71,157,32478,72,105,1,2,4,9,8.mid,experiment,1
72,159,33089,84,100,1,2,4,9,8.mid,experiment,1
73,161,33749,84,107,1,2,4,9,8.mid,experiment,1
1,17,7807,79,88,1,2,4,11,2.mid,experiment,1
2,18,8098,78,94,1,2,4,11,2.mid,experiment,1
3,20,8390,79,98,1,2,4,11,2.mid,experiment,1
4,22,8669,76,87,1,2,4,11,2.mid,experiment,1
5,24,8949,72,86,1,2,4,11,2.mid,experiment,1
6,27,9242,67,56,1,2,4,11,2.mid,experiment,1
7,29,9507,67,60,1,2,4,11,2.mid,experiment,1
8,31,9793,67,53,1,2,4,11,2.mid,experiment,1
9,33,10077,79,80,1,2,4,11,2.mid,experiment,1
10,34,10333,78,87,1,2,4,11,2.mid,experiment,1
11,36,10612,79,90,1,2,4,11,2.mid,experiment,1
12,38,10883,76,81,1,2,4,11,2.mid,experiment,1
13,40,11169,72,94,1,2,4,11,2.mid,experiment,1
14,42,11441,76,99,1,2,4,11,2.mid,experiment,1
15,44,11701,79,101,1,2,4,11,2.mid,experiment,1
16,46,11974,84,103,1,2,4,11,2.mid,experiment,1
17,48,12271,83,97,1,2,4,11,2.mid,experiment,1
18,51,12571,81,68,1,2,4,11,2.mid,experiment,1
19,53,12823,81,63,1,2,4,11,2.mid,experiment,1
20,55,13097,81,67,1,2,4,11,2.mid,experiment,1
21,57,13399,83,86,1,2,4,11,2.mid,experiment,1
22,58,13681,81,96,1,2,4,11,2.mid,experiment,1
23,60,13951,84,103,1,2,4,11,2.mid,experiment,1
24,62,14223,81,96,1,2,4,11,2.mid,experiment,1
25,64,14508,78,99,1,2,4,11,2.mid,experiment,1
26,66,14771,79,95,1,2,4,11,2.mid,experiment,1
27,69,15070,79,94,1,2,4,11,2.mid,experiment,1
28,71,15621,79,72,1,2,4,11,2.mid,experiment,1
29,73,16748,77,56,1,2,4,11,2.mid,experiment,1
30,75,17017,77,54,1,2,4,11,2.mid,experiment,1
31,77,17305,76,46,1,2,4,11,2.mid,experiment,1
32,79,17591,76,35,1,2,4,11,2.mid,experiment,1
33,81,17879,74,48,1,2,4,11,2.mid,experiment,1
34,83,18958,79,50,1,2,4,11,2.mid,experiment,1
35,85,19545,77,51,1,2,4,11,2.mid,experiment,1
36,87,20091,76,62,1,2,4,11,2.mid,experiment,1
37,89,20366,76,56,1,2,4,11,2.mid,experiment,1
38,91,20679,76,34,1,2,4,11,2.mid,experiment,1
39,93,20940,76,57,1,2,4,11,2.mid,experiment,1
40,95,21248,81,77,1,2,4,11,2.mid,experiment,1
41,96,21519,77,81,1,2,4,11,2.mid,experiment,1
42,98,21805,76,88,1,2,4,11,2.mid,experiment,1
43,100,22066,74,88,1,2,4,11,2.mid,experiment,1
44,102,22351,76,94,1,2,4,11,2.mid,experiment,1
45,104,22625,79,89,1,2,4,11,2.mid,experiment,1
46,106,22913,74,93,1,2,4,11,2.mid,experiment,1
47,108,23173,71,79,1,2,4,11,2.mid,experiment,1
48,111,23479,72,61,1,2,4,11,2.mid,experiment,1
49,113,23742,72,62,1,2,4,11,2.mid,experiment,1
50,115,24032,74,51,1,2,4,11,2.mid,experiment,1
51,117,24299,74,50,1,2,4,11,2.mid,experiment,1
52,119,24650,76,40,1,2,4,11,2.mid,experiment,1
53,121,25732,65,55,1,2,4,11,2.mid,experiment,1
54,123,25995,65,60,1,2,4,11,2.mid,experiment,1
55,125,26261,64,60,1,2,4,11,2.mid,experiment,1
56,127,26551,64,47,1,2,4,11,2.mid,experiment,1
57,129,26872,62,43,1,2,4,11,2.mid,experiment,1
58,131,28167,67,78,1,2,4,11,2.mid,experiment,1
59,133,28416,67,59,1,2,4,11,2.mid,experiment,1
60,135,28724,71,58,1,2,4,11,2.mid,experiment,1
61,137,28994,71,47,1,2,4,11,2.mid,experiment,1
62,139,29248,72,72,1,2,4,11,2.mid,experiment,1
63,141,29515,72,62,1,2,4,11,2.mid,experiment,1
64,143,29774,73,72,1,2,4,11,2.mid,experiment,1
65,145,30027,73,65,1,2,4,11,2.mid,experiment,1
66,147,30340,74,82,1,2,4,11,2.mid,experiment,1
67,149,30933,77,97,1,2,4,11,2.mid,experiment,1
68,151,31501,76,104,1,2,4,11,2.mid,experiment,1
69,153,32085,74,109,1,2,4,11,2.mid,experiment,1
71,157,32693,72,98,1,2,4,11,2.mid,experiment,1
72,159,33346,84,110,1,2,4,11,2.mid,experiment,1
73,161,34069,84,101,1,2,4,11,2.mid,experiment,1
1,17,7835,79,91,1,2,8,13,5.mid,experiment,1
2,18,8102,78,90,1,2,8,13,5.mid,experiment,1
3,20,8413,79,93,1,2,8,13,5.mid,experiment,1
4,22,8694,76,91,1,2,8,13,5.mid,experiment,1
5,24,8986,72,93,1,2,8,13,5.mid,experiment,1
6,27,9294,67,58,1,2,8,13,5.mid,experiment,1
7,29,9562,67,67,1,2,8,13,5.mid,experiment,1
8,31,9832,67,75,1,2,8,13,5.mid,experiment,1
9,33,10136,79,91,1,2,8,13,5.mid,experiment,1
10,34,10420,78,90,1,2,8,13,5.mid,experiment,1
11,36,10710,79,93,1,2,8,13,5.mid,experiment,1
12,38,11000,76,89,1,2,8,13,5.mid,experiment,1
13,41,11286,72,88,1,2,8,13,5.mid,experiment,1
14,42,11570,76,89,1,2,8,13,5.mid,experiment,1
15,44,11852,79,98,1,2,8,13,5.mid,experiment,1
16,46,12136,84,100,1,2,8,13,5.mid,experiment,1
17,48,12427,83,97,1,2,8,13,5.mid,experiment,1
18,51,12713,81,72,1,2,8,13,5.mid,experiment,1
19,53,12997,81,72,1,2,8,13,5.mid,experiment,1
20,55,13275,81,67,1,2,8,13,5.mid,experiment,1
21,57,13553,83,89,1,2,8,13,5.mid,experiment,1
22,59,13857,81,83,1,2,8,13,5.mid,experiment,1
23,60,14143,84,98,1,2,8,13,5.mid,experiment,1
24,62,14438,81,91,1,2,8,13,5.mid,experiment,1
25,64,14732,78,99,1,2,8,13,5.mid,experiment,1
26,66,15021,79,87,1,2,8,13,5.mid,experiment,1
27,69,15329,79,93,1,2,8,13,5.mid,experiment,1
28,71,15925,79,93,1,2,8,13,5.mid,experiment,1
29,73,17049,77,80,1,2,8,13,5.mid,experiment,1
30,75,17321,77,78,1,2,8,13,5.mid,experiment,1
31,77,17604,76,63,1,2,8,13,5.mid,experiment,1
32,79,17887,76,67,1,2,8,13,5.mid,experiment,1
33,81,18202,74,63,1,2,8,13,5.mid,experiment,1
34,83,19362,79,74,1,2,8,13,5.mid,experiment,1
35,85,19948,77,68,1,2,8,13,5.mid,experiment,1
36,87,20524,76,58,1,2,8,13,5.mid,experiment,1
37,89,20810,76,58,1,2,8,13,5.mid,experiment,1
38,91,21084,76,65,1,2,8,13,5.mid,experiment,1
39,93,21363,76,83,1,2,8,13,5.mid,experiment,1
41,96,21688,81,79,1,2,8,13,5.mid,experiment,1
42,99,21908,77,76,1,2,8,13,5.mid,experiment,1
43,100,22228,76,95,1,2,8,13,5.mid,experiment,1
44,102,22505,74,96,1,2,8,13,5.mid,experiment,1
45,104,22801,76,93,1,2,8,13,5.mid,experiment,1
46,106,23076,79,98,1,2,8,13,5.mid,experiment,1
47,108,23372,74,98,1,2,8,13,5.mid,experiment,1
48,111,23653,71,87,1,2,8,13,5.mid,experiment,1
49,113,23940,72,70,1,2,8,13,5.mid,experiment,1
50,115,24213,72,55,1,2,8,13,5.mid,experiment,1
51,117,24504,74,62,1,2,8,13,5.mid,experiment,1
52,119,24788,74,55,1,2,8,13,5.mid,experiment,1
53,121,25102,76,58,1,2,8,13,5.mid,experiment,1
54,123,26258,65,66,1,2,8,13,5.mid,experiment,1
55,125,26552,65,65,1,2,8,13,5.mid,experiment,1
56,127,26851,64,56,1,2,8,13,5.mid,experiment,1
57,129,27130,64,60,1,2,8,13,5.mid,experiment,1
58,131,27450,62,56,1,2,8,13,5.mid,experiment,1
59,133,28600,67,62,1,2,8,13,5.mid,experiment,1
60,135,28875,67,69,1,2,8,13,5.mid,experiment,1
61,137,29157,71,76,1,2,8,13,5.mid,experiment,1
62,139,29426,71,73,1,2,8,13,5.mid,experiment,1
63,141,29709,72,52,1,2,8,13,5.mid,experiment,1
64,143,29979,72,66,1,2,8,13,5.mid,experiment,1
65,145,30252,73,79,1,2,8,13,5.mid,experiment,1
66,147,30533,73,74,1,2,8,13,5.mid,experiment,1
67,149,30843,74,95,1,2,8,13,5.mid,experiment,1
68,150,31471,77,98,1,2,8,13,5.mid,experiment,1
69,152,32045,76,105,1,2,8,13,5.mid,experiment,1
70,154,32628,74,99,1,2,8,13,5.mid,experiment,1
71,157,33219,72,95,1,2,8,13,5.mid,experiment,1
72,159,33807,84,101,1,2,8,13,5.mid,experiment,1
73,161,34420,84,105,1,2,8,13,5.mid,experiment,1
1,17,7857,79,90,1,2,8,15,11.mid,experiment,1
2,18,8137,78,97,1,2,8,15,11.mid,experiment,1
3,20,8432,79,97,1,2,8,15,11.mid,experiment,1
4,22,8703,76,94,1,2,8,15,11.mid,experiment,1
6,26,9011,72,91,1,2,8,15,11.mid,experiment,1
7,29,9317,67,41,1,2,8,15,11.mid,experiment,1
8,31,9596,67,47,1,2,8,15,11.mid,experiment,1
9,33,9876,67,54,1,2,8,15,11.mid,experiment,1
10,35,10181,79,99,1,2,8,15,11.mid,experiment,1
11,36,10459,78,97,1,2,8,15,11.mid,experiment,1
12,38,10761,79,95,1,2,8,15,11.mid,experiment,1
13,40,11026,76,91,1,2,8,15,11.mid,experiment,1
14,43,11340,72,81,1,2,8,15,11.mid,experiment,1
15,44,11612,76,87,1,2,8,15,11.mid,experiment,1
16,46,11893,79,91,1,2,8,15,11.mid,experiment,1
17,48,12161,84,99,1,2,8,15,11.mid,experiment,1
18,50,12453,83,91,1,2,8,15,11.mid,experiment,1
19,53,12737,81,55,1,2,8,15,11.mid,experiment,1
20,55,13025,81,52,1,2,8,15,11.mid,experiment,1
21,57,13299,81,53,1,2,8,15,11.mid,experiment,1
22,59,13592,83,88,1,2,8,15,11.mid,experiment,1
23,60,13871,81,87,1,2,8,15,11.mid,experiment,1
24,62,14159,84,97,1,2,8,15,11.mid,experiment,1
25,64,14437,81,85,1,2,8,15,11.mid,experiment,1
26,67,14733,78,88,1,2,8,15,11.mid,experiment,1
27,68,15015,79,82,1,2,8,15,11.mid,experiment,1
28,71,15347,79,91,1,2,8,15,11.mid,experiment,1
29,73,15928,79,81,1,2,8,15,11.mid,experiment,1
30,75,17134,77,50,1,2,8,15,11.mid,experiment,1
31,77,17405,77,57,1,2,8,15,11.mid,experiment,1
32,79,17683,76,53,1,2,8,15,11.mid,experiment,1
33,81,17955,76,60,1,2,8,15,11.mid,experiment,1
34,83,18282,74,58,1,2,8,15,11.mid,experiment,1
35,85,19469,79,65,1,2,8,15,11.mid,experiment,1
36,87,20067,77,61,1,2,8,15,11.mid,experiment,1
37,89,20647,76,56,1,2,8,15,11.mid,experiment,1
38,91,20933,76,58,1,2,8,15,11.mid,experiment,1
39,93,21221,76,57,1,2,8,15,11.mid,experiment,1
40,95,21495,76,69,1,2,8,15,11.mid,experiment,1
41,97,21813,81,94,1,2,8,15,11.mid,experiment,1
42,98,22099,77,90,1,2,8,15,11.mid,experiment,1
43,100,22388,76,91,1,2,8,15,11.mid,experiment,1
44,102,22663,74,81,1,2,8,15,11.mid,experiment,1
45,104,22963,76,87,1,2,8,15,11.mid,experiment,1
46,106,23244,79,91,1,2,8,15,11.mid,experiment,1
47,108,23533,74,91,1,2,8,15,11.mid,experiment,1
48,111,23801,71,67,1,2,8,15,11.mid,experiment,1
49,112,24091,72,65,1,2,8,15,11.mid,experiment,1
50,115,24379,72,58,1,2,8,15,11.mid,experiment,1
51,117,24650,74,50,1,2,8,15,11.mid,experiment,1
52,119,24941,74,50,1,2,8,15,11.mid,experiment,1
53,121,25285,76,46,1,2,8,15,11.mid,experiment,1
54,123,26435,65,52,1,2,8,15,11.mid,experiment,1
55,125,26712,65,57,1,2,8,15,11.mid,experiment,1
56,127,27010,64,61,1,2,8,15,11.mid,experiment,1
57,129,27297,64,57,1,2,8,15,11.mid,experiment,1
58,131,27651,62,57,1,2,8,15,11.mid,experiment,1
59,133,28828,67,57,1,2,8,15,11.mid,experiment,1
60,135,29106,67,62,1,2,8,15,11.mid,experiment,1
61,137,29412,71,37,1,2,8,15,11.mid,experiment,1
62,139,29670,71,63,1,2,8,15,11.mid,experiment,1
63,141,29966,72,53,1,2,8,15,11.mid,experiment,1
64,143,30240,72,64,1,2,8,15,11.mid,experiment,1
65,145,30520,73,72,1,2,8,15,11.mid,experiment,1
66,147,30799,73,75,1,2,8,15,11.mid,experiment,1
67,149,31120,74,87,1,2,8,15,11.mid,experiment,1
68,150,31712,77,90,1,2,8,15,11.mid,experiment,1
69,153,32292,76,85,1,2,8,15,11.mid,experiment,1
70,155,32871,74,91,1,2,8,15,11.mid,experiment,1
71,157,33476,72,83,1,2,8,15,11.mid,experiment,1
72,159,34080,84,87,1,2,8,15,11.mid,experiment,1
73,161,34730,84,94,1,2,8,15,11.mid,experiment,1
1,17,7824,79,66,1,2,9,5,11.mid,experiment,1
2,18,8090,78,82,1,2,9,5,11.mid,experiment,1
3,20,8351,79,83,1,2,9,5,11.mid,experiment,1
4,22,8622,76,74,1,2,9,5,11.mid,experiment,1
5,24,8911,72,65,1,2,9,5,11.mid,experiment,1
6,27,9172,67,64,1,2,9,5,11.mid,experiment,1
7,29,9438,67,53,1,2,9,5,11.mid,experiment,1
8,31,9701,67,60,1,2,9,5,11.mid,experiment,1
9,33,9972,79,68,1,2,9,5,11.mid,experiment,1
10,34,10237,78,85,1,2,9,5,11.mid,experiment,1
11,36,10501,79,85,1,2,9,5,11.mid,experiment,1
12,38,10755,76,78,1,2,9,5,11.mid,experiment,1
13,40,11033,72,79,1,2,9,5,11.mid,experiment,1
14,42,11285,76,76,1,2,9,5,11.mid,experiment,1
15,44,11551,79,90,1,2,9,5,11.mid,experiment,1
16,46,11808,84,90,1,2,9,5,11.mid,experiment,1
17,48,12079,83,78,1,2,9,5,11.mid,experiment,1
18,51,12331,81,56,1,2,9,5,11.mid,experiment,1
19,53,12576,81,56,1,2,9,5,11.mid,experiment,1
20,55,12837,81,62,1,2,9,5,11.mid,experiment,1
21,57,13117,83,59,1,2,9,5,11.mid,experiment,1
23,60,13355,81,79,1,2,9,5,11.mid,experiment,1
24,62,13625,84,87,1,2,9,5,11.mid,experiment,1
25,64,13872,81,91,1,2,9,5,11.mid,experiment,1
26,66,14137,78,91,1,2,9,5,11.mid,experiment,1
27,68,14398,79,90,1,2,9,5,11.mid,experiment,1
28,71,14693,79,76,1,2,9,5,11.mid,experiment,1
29,73,15201,79,82,1,2,9,5,11.mid,experiment,1
30,75,16265,77,55,1,2,9,5,11.mid,experiment,1
31,77,16521,77,57,1,2,9,5,11.mid,experiment,1
32,79,16767,76,51,1,2,9,5,11.mid,experiment,1
33,81,17026,76,45,1,2,9,5,11.mid,experiment,1
34,83,17336,74,41,1,2,9,5,11.mid,experiment,1
35,85,18407,79,54,1,2,9,5,11.mid,experiment,1
36,87,18941,77,68,1,2,9,5,11.mid,experiment,1
37,89,19456,76,59,1,2,9,5,11.mid,experiment,1
38,91,19714,76,58,1,2,9,5,11.mid,experiment,1
39,93,19972,76,58,1,2,9,5,11.mid,experiment,1
40,95,20211,76,63,1,2,9,5,11.mid,experiment,1
41,97,20474,81,65,1,2,9,5,11.mid,experiment,1
42,98,20721,77,79,1,2,9,5,11.mid,experiment,1
43,100,20969,76,87,1,2,9,5,11.mid,experiment,1
44,102,21207,74,91,1,2,9,5,11.mid,experiment,1
45,104,21453,76,90,1,2,9,5,11.mid,experiment,1
46,106,21686,79,91,1,2,9,5,11.mid,experiment,1
47,108,21931,74,82,1,2,9,5,11.mid,experiment,1
48,110,22186,71,71,1,2,9,5,11.mid,experiment,1
49,113,22443,72,62,1,2,9,5,11.mid,experiment,1
50,115,22712,72,44,1,2,9,5,11.mid,experiment,1
51,117,22949,74,59,1,2,9,5,11.mid,experiment,1
52,119,23216,74,52,1,2,9,5,11.mid,experiment,1
53,121,23556,76,42,1,2,9,5,11.mid,experiment,1
54,123,24589,65,55,1,2,9,5,11.mid,experiment,1
55,125,24838,65,54,1,2,9,5,11.mid,experiment,1
56,127,25098,64,46,1,2,9,5,11.mid,experiment,1
57,129,25346,64,50,1,2,9,5,11.mid,experiment,1
58,131,25651,62,39,1,2,9,5,11.mid,experiment,1
59,133,26654,67,52,1,2,9,5,11.mid,experiment,1
60,135,26892,67,59,1,2,9,5,11.mid,experiment,1
61,137,27158,71,60,1,2,9,5,11.mid,experiment,1
62,139,27408,71,63,1,2,9,5,11.mid,experiment,1
63,141,27670,72,55,1,2,9,5,11.mid,experiment,1
64,143,27926,72,60,1,2,9,5,11.mid,experiment,1
65,145,28176,73,63,1,2,9,5,11.mid,experiment,1
66,147,28420,73,72,1,2,9,5,11.mid,experiment,1
67,149,28695,74,97,1,2,9,5,11.mid,experiment,1
68,151,29190,77,91,1,2,9,5,11.mid,experiment,1
69,153,29658,76,97,1,2,9,5,11.mid,experiment,1
70,155,30146,74,100,1,2,9,5,11.mid,experiment,1
71,157,30660,72,96,1,2,9,5,11.mid,experiment,1
72,159,31156,84,95,1,2,9,5,11.mid,experiment,1
73,161,31728,84,106,1,2,9,5,11.mid,experiment,1
1,17,7820,79,81,1,2,10,2,10.mid,experiment,1
2,18,8128,78,90,1,2,10,2,10.mid,experiment,1
3,20,8413,79,93,1,2,10,2,10.mid,experiment,1
4,22,8690,76,84,1,2,10,2,10.mid,experiment,1
5,24,8972,72,87,1,2,10,2,10.mid,experiment,1
6,27,9256,67,60,1,2,10,2,10.mid,experiment,1
7,29,9546,67,42,1,2,10,2,10.mid,experiment,1
8,31,9829,67,40,1,2,10,2,10.mid,experiment,1
9,33,10092,79,83,1,2,10,2,10.mid,experiment,1
10,34,10373,78,85,1,2,10,2,10.mid,experiment,1
11,36,10642,79,90,1,2,10,2,10.mid,experiment,1
12,38,10921,76,82,1,2,10,2,10.mid,experiment,1
13,40,11216,72,90,1,2,10,2,10.mid,experiment,1
14,42,11484,76,83,1,2,10,2,10.mid,experiment,1
15,44,11764,79,93,1,2,10,2,10.mid,experiment,1
16,46,12042,84,90,1,2,10,2,10.mid,experiment,1
17,48,12322,83,78,1,2,10,2,10.mid,experiment,1
18,51,12594,81,61,1,2,10,2,10.mid,experiment,1
19,53,12861,81,54,1,2,10,2,10.mid,experiment,1
20,55,13141,81,55,1,2,10,2,10.mid,experiment,1
21,57,13420,83,83,1,2,10,2,10.mid,experiment,1
22,58,13690,81,88,1,2,10,2,10.mid,experiment,1
23,60,13951,84,91,1,2,10,2,10.mid,experiment,1
24,62,14229,81,86,1,2,10,2,10.mid,experiment,1
25,64,14527,78,80,1,2,10,2,10.mid,experiment,1
26,69,14837,79,38,1,2,10,2,10.mid,experiment,1
27,71,15051,79,70,1,2,10,2,10.mid,experiment,1
28,73,15335,79,61,1,2,10,2,10.mid,experiment,1
30,77,16917,77,49,1,2,10,2,10.mid,experiment,1
31,79,17199,77,49,1,2,10,2,10.mid,experiment,1
32,81,17466,76,48,1,2,10,2,10.mid,experiment,1
33,83,17732,76,48,1,2,10,2,10.mid,experiment,1
34,85,18046,74,47,1,2,10,2,10.mid,experiment,1
35,87,19135,79,60,1,2,10,2,10.mid,experiment,1
36,89,19696,77,58,1,2,10,2,10.mid,experiment,1
37,91,20241,76,54,1,2,10,2,10.mid,experiment,1
38,93,20522,76,49,1,2,10,2,10.mid,experiment,1
39,95,20783,76,50,1,2,10,2,10.mid,experiment,1
40,97,21063,76,53,1,2,10,2,10.mid,experiment,1
41,99,21342,81,86,1,2,10,2,10.mid,experiment,1
42,100,21603,77,89,1,2,10,2,10.mid,experiment,1
43,102,21867,76,93,1,2,10,2,10.mid,experiment,1
44,104,22130,74,89,1,2,10,2,10.mid,experiment,1
45,106,22401,76,93,1,2,10,2,10.mid,experiment,1
46,108,22676,79,95,1,2,10,2,10.mid,experiment,1
47,110,22946,74,88,1,2,10,2,10.mid,experiment,1
48,112,23218,71,63,1,2,10,2,10.mid,experiment,1
49,115,23480,72,60,1,2,10,2,10.mid,experiment,1
50,117,23759,72,50,1,2,10,2,10.mid,experiment,1
51,119,24016,74,58,1,2,10,2,10.mid,experiment,1
52,121,24280,74,59,1,2,10,2,10.mid,experiment,1
53,123,24600,76,47,1,2,10,2,10.mid,experiment,1
54,125,25753,65,43,1,2,10,2,10.mid,experiment,1
55,127,26003,65,55,1,2,10,2,10.mid,experiment,1
56,129,26303,64,39,1,2,10,2,10.mid,experiment,1
57,131,26550,64,53,1,2,10,2,10.mid,experiment,1
58,133,26894,62,32,1,2,10,2,10.mid,experiment,1
59,135,28014,67,52,1,2,10,2,10.mid,experiment,1
60,137,28264,67,58,1,2,10,2,10.mid,experiment,1
61,139,28568,71,34,1,2,10,2,10.mid,experiment,1
62,141,28801,71,55,1,2,10,2,10.mid,experiment,1
63,143,29071,72,57,1,2,10,2,10.mid,experiment,1
64,145,29322,72,65,1,2,10,2,10.mid,experiment,1
65,147,29591,73,72,1,2,10,2,10.mid,experiment,1
66,149,29844,73,65,1,2,10,2,10.mid,experiment,1
67,151,30146,74,100,1,2,10,2,10.mid,experiment,1
68,153,30717,77,93,1,2,10,2,10.mid,experiment,1
69,155,31314,76,91,1,2,10,2,10.mid,experiment,1
70,157,31887,74,94,1,2,10,2,10.mid,experiment,1
71,159,32472,72,91,1,2,10,2,10.mid,experiment,1
72,161,33091,84,91,1,2,10,2,10.mid,experiment,1
73,163,33697,84,97,1,2,10,2,10.mid,experiment,1
1,17,7802,79,95,1,2,11,8,16.mid,experiment,1
2,18,8106,78,88,1,2,11,8,16.mid,experiment,1
3,20,8381,79,96,1,2,11,8,16.mid,experiment,1
4,22,8636,76,95,1,2,11,8,16.mid,experiment,1
5,24,8921,72,91,1,2,11,8,16.mid,experiment,1
6,27,9226,67,52,1,2,11,8,16.mid,experiment,1
7,29,9488,67,65,1,2,11,8,16.mid,experiment,1
8,31,9759,67,57,1,2,11,8,16.mid,experiment,1
9,33,10048,79,84,1,2,11,8,16.mid,experiment,1
10,34,10326,78,82,1,2,11,8,16.mid,experiment,1
11,36,10584,79,74,1,2,11,8,16.mid,experiment,1
12,38,10839,76,84,1,2,11,8,16.mid,experiment,1
13,40,11133,72,86,1,2,11,8,16.mid,experiment,1
14,42,11395,76,84,1,2,11,8,16.mid,experiment,1
15,44,11665,79,97,1,2,11,8,16.mid,experiment,1
16,46,11930,84,94,1,2,11,8,16.mid,experiment,1
17,48,12208,83,76,1,2,11,8,16.mid,experiment,1
18,51,12540,81,54,1,2,11,8,16.mid,experiment,1
19,53,12772,81,56,1,2,11,8,16.mid,experiment,1
20,55,13007,81,72,1,2,11,8,16.mid,experiment,1
21,57,13321,83,91,1,2,11,8,16.mid,experiment,1
22,58,13586,81,103,1,2,11,8,16.mid,experiment,1
23,60,13846,84,101,1,2,11,8,16.mid,experiment,1
24,62,14100,81,96,1,2,11,8,16.mid,experiment,1
25,64,14388,78,91,1,2,11,8,16.mid,experiment,1
27,69,14653,79,98,1,2,11,8,16.mid,experiment,1
28,71,14938,79,106,1,2,11,8,16.mid,experiment,1
29,73,15497,79,93,1,2,11,8,16.mid,experiment,1
30,75,16738,77,55,1,2,11,8,16.mid,experiment,1
31,77,17008,77,62,1,2,11,8,16.mid,experiment,1
32,79,17263,76,60,1,2,11,8,16.mid,experiment,1
33,81,17519,76,57,1,2,11,8,16.mid,experiment,1
34,83,17801,74,50,1,2,11,8,16.mid,experiment,1
35,85,18986,79,48,1,2,11,8,16.mid,experiment,1
36,87,19544,77,58,1,2,11,8,16.mid,experiment,1
37,89,20112,76,47,1,2,11,8,16.mid,experiment,1
38,91,20385,76,55,1,2,11,8,16.mid,experiment,1
39,93,20633,76,62,1,2,11,8,16.mid,experiment,1
40,95,20885,76,66,1,2,11,8,16.mid,experiment,1
41,97,21215,81,90,1,2,11,8,16.mid,experiment,1
42,98,21492,77,99,1,2,11,8,16.mid,experiment,1
43,100,21752,76,104,1,2,11,8,16.mid,experiment,1
44,102,22019,74,98,1,2,11,8,16.mid,experiment,1
45,104,22307,76,99,1,2,11,8,16.mid,experiment,1
46,106,22558,79,94,1,2,11,8,16.mid,experiment,1
47,108,22826,74,96,1,2,11,8,16.mid,experiment,1
48,110,23081,71,65,1,2,11,8,16.mid,experiment,1
49,113,23353,72,68,1,2,11,8,16.mid,experiment,1
50,115,23623,72,68,1,2,11,8,16.mid,experiment,1
51,117,23889,74,56,1,2,11,8,16.mid,experiment,1
52,119,24148,74,69,1,2,11,8,16.mid,experiment,1
53,121,24449,76,46,1,2,11,8,16.mid,experiment,1
54,123,25646,65,61,1,2,11,8,16.mid,experiment,1
55,125,25902,65,67,1,2,11,8,16.mid,experiment,1
56,127,26145,64,67,1,2,11,8,16.mid,experiment,1
57,129,26409,64,62,1,2,11,8,16.mid,experiment,1
58,131,26708,62,52,1,2,11,8,16.mid,experiment,1
59,133,27859,67,66,1,2,11,8,16.mid,experiment,1
60,135,28143,67,58,1,2,11,8,16.mid,experiment,1
61,137,28405,71,69,1,2,11,8,16.mid,experiment,1
62,139,28643,71,75,1,2,11,8,16.mid,experiment,1
63,141,28899,72,71,1,2,11,8,16.mid,experiment,1
64,143,29151,72,79,1,2,11,8,16.mid,experiment,1
65,145,29406,73,94,1,2,11,8,16.mid,experiment,1
66,147,29649,73,101,1,2,11,8,16.mid,experiment,1
67,149,29929,74,116,1,2,11,8,16.mid,experiment,1
68,151,30472,77,109,1,2,11,8,16.mid,experiment,1
69,153,31033,76,106,1,2,11,8,16.mid,experiment,1
70,155,31573,74,106,1,2,11,8,16.mid,experiment,1
71,157,32157,72,99,1,2,11,8,16.mid,experiment,1
72,159,32739,84,100,1,2,11,8,16.mid,experiment,1
73,161,33375,84,105,1,2,11,8,16.mid,experiment,1
1,17,7919,79,63,1,2,12,7,13.mid,experiment,1
2,18,8230,78,78,1,2,12,7,13.mid,experiment,1
3,20,8514,79,85,1,2,12,7,13.mid,experiment,1
4,22,8803,76,85,1,2,12,7,13.mid,experiment,1
5,24,9112,72,75,1,2,12,7,13.mid,experiment,1
6,27,9458,67,46,1,2,12,7,13.mid,experiment,1
7,29,9765,67,54,1,2,12,7,13.mid,experiment,1
8,31,10054,67,68,1,2,12,7,13.mid,experiment,1
9,33,10365,79,70,1,2,12,7,13.mid,experiment,1
10,34,10636,78,88,1,2,12,7,13.mid,experiment,1
11,36,10925,79,90,1,2,12,7,13.mid,experiment,1
12,38,11220,76,87,1,2,12,7,13.mid,experiment,1
13,40,11505,72,94,1,2,12,7,13.mid,experiment,1
14,42,11779,76,94,1,2,12,7,13.mid,experiment,1
15,44,12061,79,104,1,2,12,7,13.mid,experiment,1
16,46,12349,84,100,1,2,12,7,13.mid,experiment,1
17,48,12645,83,100,1,2,12,7,13.mid,experiment,1
18,51,13042,81,63,1,2,12,7,13.mid,experiment,1
19,53,13317,81,67,1,2,12,7,13.mid,experiment,1
20,55,13596,81,68,1,2,12,7,13.mid,experiment,1
21,57,13888,83,65,1,2,12,7,13.mid,experiment,1
22,58,14157,81,78,1,2,12,7,13.mid,experiment,1
23,60,14443,84,93,1,2,12,7,13.mid,experiment,1
24,62,14728,81,82,1,2,12,7,13.mid,experiment,1
25,64,14991,78,78,1,2,12,7,13.mid,experiment,1
26,66,15256,79,80,1,2,12,7,13.mid,experiment,1
27,69,15571,79,79,1,2,12,7,13.mid,experiment,1
28,71,16158,79,75,1,2,12,7,13.mid,experiment,1
29,73,17336,77,66,1,2,12,7,13.mid,experiment,1
30,75,17636,77,74,1,2,12,7,13.mid,experiment,1
31,77,17915,76,67,1,2,12,7,13.mid,experiment,1
32,79,18178,76,70,1,2,12,7,13.mid,experiment,1
33,81,18507,74,61,1,2,12,7,13.mid,experiment,1
34,83,19714,79,45,1,2,12,7,13.mid,experiment,1
35,85,20308,77,56,1,2,12,7,13.mid,experiment,1
36,87,20874,76,76,1,2,12,7,13.mid,experiment,1
37,89,21158,76,84,1,2,12,7,13.mid,experiment,1
38,91,21434,76,83,1,2,12,7,13.mid,experiment,1
39,93,21738,76,84,1,2,12,7,13.mid,experiment,1
40,95,22070,81,83,1,2,12,7,13.mid,experiment,1
41,96,22350,77,82,1,2,12,7,13.mid,experiment,1
42,98,22626,76,78,1,2,12,7,13.mid,experiment,1
43,101,22904,74,81,1,2,12,7,13.mid,experiment,1
44,102,23188,76,81,1,2,12,7,13.mid,experiment,1
45,104,23463,79,82,1,2,12,7,13.mid,experiment,1
46,106,23744,74,77,1,2,12,7,13.mid,experiment,1
47,109,24021,71,76,1,2,12,7,13.mid,experiment,1
48,111,24312,72,86,1,2,12,7,13.mid,experiment,1
49,113,24590,72,94,1,2,12,7,13.mid,experiment,1
50,115,24871,74,85,1,2,12,7,13.mid,experiment,1
51,117,25163,74,87,1,2,12,7,13.mid,experiment,1
52,119,25509,76,67,1,2,12,7,13.mid,experiment,1
53,121,26716,65,81,1,2,12,7,13.mid,experiment,1
54,123,27015,65,91,1,2,12,7,13.mid,experiment,1
55,125,27294,64,89,1,2,12,7,13.mid,experiment,1
56,127,27580,64,93,1,2,12,7,13.mid,experiment,1
57,129,27954,62,54,1,2,12,7,13.mid,experiment,1
58,131,29132,67,72,1,2,12,7,13.mid,experiment,1
59,133,29434,67,76,1,2,12,7,13.mid,experiment,1
60,135,29718,71,85,1,2,12,7,13.mid,experiment,1
61,137,30003,71,79,1,2,12,7,13.mid,experiment,1
62,139,30289,72,86,1,2,12,7,13.mid,experiment,1
63,141,30572,72,82,1,2,12,7,13.mid,experiment,1
64,143,30863,73,93,1,2,12,7,13.mid,experiment,1
65,145,31164,73,87,1,2,12,7,13.mid,experiment,1
66,147,31515,74,88,1,2,12,7,13.mid,experiment,1
67,149,32178,77,69,1,2,12,7,13.mid,experiment,1
68,150,32185,76,68,1,2,12,7,13.mid,experiment,1
70,155,33443,74,81,1,2,12,7,13.mid,experiment,1
71,157,34068,72,81,1,2,12,7,13.mid,experiment,1
72,159,34719,84,74,1,2,12,7,13.mid,experiment,1
73,161,35367,84,77,1,2,12,7,13.mid,experiment,1
1,17,7825,79,69,1,2,14,6,16.mid,experiment,1
2,18,8130,78,82,1,2,14,6,16.mid,experiment,1
3,20,8413,79,81,1,2,14,6,16.mid,experiment,1
4,22,8703,76,83,1,2,14,6,16.mid,experiment,1
5,24,8975,72,77,1,2,14,6,16.mid,experiment,1
6,27,9306,67,53,1,2,14,6,16.mid,experiment,1
7,29,9587,67,50,1,2,14,6,16.mid,experiment,1
8,31,9875,67,52,1,2,14,6,16.mid,experiment,1
9,33,10168,79,71,1,2,14,6,16.mid,experiment,1
10,34,10456,78,80,1,2,14,6,16.mid,experiment,1
11,36,10740,79,78,1,2,14,6,16.mid,experiment,1
12,38,11020,76,67,1,2,14,6,16.mid,experiment,1
13,40,11313,72,69,1,2,14,6,16.mid,experiment,1
14,42,11602,76,75,1,2,14,6,16.mid,experiment,1
15,44,11872,79,85,1,2,14,6,16.mid,experiment,1
16,46,12141,84,81,1,2,14,6,16.mid,experiment,1
17,48,12441,83,69,1,2,14,6,16.mid,experiment,1
18,51,12722,81,65,1,2,14,6,16.mid,experiment,1
19,53,13001,81,53,1,2,14,6,16.mid,experiment,1
20,55,13302,81,43,1,2,14,6,16.mid,experiment,1
21,57,13588,83,68,1,2,14,6,16.mid,experiment,1
22,58,13871,81,78,1,2,14,6,16.mid,experiment,1
23,60,14155,84,81,1,2,14,6,16.mid,experiment,1
24,62,14451,81,83,1,2,14,6,16.mid,experiment,1
25,64,14731,78,83,1,2,14,6,16.mid,experiment,1
26,66,15025,79,83,1,2,14,6,16.mid,experiment,1
27,69,15303,79,88,1,2,14,6,16.mid,experiment,1
28,71,15874,79,104,1,2,14,6,16.mid,experiment,1
30,75,21254,77,70,1,2,14,6,16.mid,experiment,1
31,77,21548,77,63,1,2,14,6,16.mid,experiment,1
32,79,21835,76,51,1,2,14,6,16.mid,experiment,1
33,81,22099,76,50,1,2,14,6,16.mid,experiment,1
34,83,22402,74,51,1,2,14,6,16.mid,experiment,1
35,85,23601,79,66,1,2,14,6,16.mid,experiment,1
36,86,24172,77,72,1,2,14,6,16.mid,experiment,1
37,89,24737,76,55,1,2,14,6,16.mid,experiment,1
38,91,25037,76,56,1,2,14,6,16.mid,experiment,1
39,93,25299,76,50,1,2,14,6,16.mid,experiment,1
40,95,25576,76,56,1,2,14,6,16.mid,experiment,1
41,97,25873,81,76,1,2,14,6,16.mid,experiment,1
42,98,26167,77,79,1,2,14,6,16.mid,experiment,1
43,100,26436,76,70,1,2,14,6,16.mid,experiment,1
44,102,26712,74,76,1,2,14,6,16.mid,experiment,1
45,104,27011,76,87,1,2,14,6,16.mid,experiment,1
46,106,27293,79,90,1,2,14,6,16.mid,experiment,1
47,108,27575,74,91,1,2,14,6,16.mid,experiment,1
48,111,27857,71,81,1,2,14,6,16.mid,experiment,1
49,113,28127,72,70,1,2,14,6,16.mid,experiment,1
50,115,28390,72,62,1,2,14,6,16.mid,experiment,1
51,117,28683,74,62,1,2,14,6,16.mid,experiment,1
52,119,28962,74,51,1,2,14,6,16.mid,experiment,1
53,121,29271,76,48,1,2,14,6,16.mid,experiment,1
54,123,30460,65,70,1,2,14,6,16.mid,experiment,1
55,125,30739,65,63,1,2,14,6,16.mid,experiment,1
56,127,31011,64,57,1,2,14,6,16.mid,experiment,1
57,129,31285,64,51,1,2,14,6,16.mid,experiment,1
58,131,31598,62,57,1,2,14,6,16.mid,experiment,1
59,133,32789,67,63,1,2,14,6,16.mid,experiment,1
60,135,33060,67,60,1,2,14,6,16.mid,experiment,1
61,137,33348,71,57,1,2,14,6,16.mid,experiment,1
62,139,33623,71,58,1,2,14,6,16.mid,experiment,1
63,141,33896,72,76,1,2,14,6,16.mid,experiment,1
64,143,34187,72,72,1,2,14,6,16.mid,experiment,1
65,145,34461,73,83,1,2,14,6,16.mid,experiment,1
66,147,34744,73,81,1,2,14,6,16.mid,experiment,1
67,149,35047,74,88,1,2,14,6,16.mid,experiment,1
68,150,35619,77,93,1,2,14,6,16.mid,experiment,1
69,152,36211,76,88,1,2,14,6,16.mid,experiment,1
70,154,36819,74,91,1,2,14,6,16.mid,experiment,1
71,156,37427,72,91,1,2,14,6,16.mid,experiment,1
72,159,37987,84,104,1,2,14,6,16.mid,experiment,1
73,161,38597,84,99,1,2,14,6,16.mid,experiment,1
1,17,7838,79,77,1,2,14,11,12.mid,experiment,1
2,18,8133,78,81,1,2,14,11,12.mid,experiment,1
3,20,8434,79,77,1,2,14,11,12.mid,experiment,1
4,22,8722,76,72,1,2,14,11,12.mid,experiment,1
5,24,9020,72,65,1,2,14,11,12.mid,experiment,1
6,27,9320,67,53,1,2,14,11,12.mid,experiment,1
7,29,9597,67,57,1,2,14,11,12.mid,experiment,1
8,31,9888,67,62,1,2,14,11,12.mid,experiment,1
9,33,10187,79,74,1,2,14,11,12.mid,experiment,1
10,34,10467,78,85,1,2,14,11,12.mid,experiment,1
11,36,10769,79,82,1,2,14,11,12.mid,experiment,1
12,38,11047,76,74,1,2,14,11,12.mid,experiment,1
13,40,11345,72,78,1,2,14,11,12.mid,experiment,1
14,42,11630,76,89,1,2,14,11,12.mid,experiment,1
15,44,11910,79,96,1,2,14,11,12.mid,experiment,1
16,46,12197,84,99,1,2,14,11,12.mid,experiment,1
17,48,12490,83,103,1,2,14,11,12.mid,experiment,1
18,50,12782,81,93,1,2,14,11,12.mid,experiment,1
19,53,13074,81,70,1,2,14,11,12.mid,experiment,1
20,55,13363,81,69,1,2,14,11,12.mid,experiment,1
21,57,13666,83,76,1,2,14,11,12.mid,experiment,1
22,58,13966,81,90,1,2,14,11,12.mid,experiment,1
23,60,14258,84,95,1,2,14,11,12.mid,experiment,1
24,62,14547,81,93,1,2,14,11,12.mid,experiment,1
25,64,14841,78,87,1,2,14,11,12.mid,experiment,1
26,66,15145,79,75,1,2,14,11,12.mid,experiment,1
27,69,15438,79,66,1,2,14,11,12.mid,experiment,1
28,71,16001,79,63,1,2,14,11,12.mid,experiment,1
29,73,17199,77,56,1,2,14,11,12.mid,experiment,1
30,75,17471,77,58,1,2,14,11,12.mid,experiment,1
31,77,17750,76,52,1,2,14,11,12.mid,experiment,1
32,79,18028,76,41,1,2,14,11,12.mid,experiment,1
33,81,18335,74,48,1,2,14,11,12.mid,experiment,1
34,83,19562,79,65,1,2,14,11,12.mid,experiment,1
35,84,20147,77,73,1,2,14,11,12.mid,experiment,1
36,86,20703,76,67,1,2,14,11,12.mid,experiment,1
37,89,20989,76,70,1,2,14,11,12.mid,experiment,1
38,91,21265,76,73,1,2,14,11,12.mid,experiment,1
39,93,21532,76,81,1,2,14,11,12.mid,experiment,1
40,95,21851,81,82,1,2,14,11,12.mid,experiment,1
41,96,22159,77,85,1,2,14,11,12.mid,experiment,1
42,98,22425,76,85,1,2,14,11,12.mid,experiment,1
43,100,22704,74,86,1,2,14,11,12.mid,experiment,1
44,102,22991,76,96,1,2,14,11,12.mid,experiment,1
45,104,23271,79,98,1,2,14,11,12.mid,experiment,1
46,106,23548,74,98,1,2,14,11,12.mid,experiment,1
47,108,23827,71,81,1,2,14,11,12.mid,experiment,1
48,111,24095,72,74,1,2,14,11,12.mid,experiment,1
49,113,24385,72,61,1,2,14,11,12.mid,experiment,1
50,115,24665,74,70,1,2,14,11,12.mid,experiment,1
51,117,24951,74,63,1,2,14,11,12.mid,experiment,1
52,119,25265,76,66,1,2,14,11,12.mid,experiment,1
53,121,26486,65,63,1,2,14,11,12.mid,experiment,1
54,123,26770,65,62,1,2,14,11,12.mid,experiment,1
55,125,27042,64,61,1,2,14,11,12.mid,experiment,1
56,127,27330,64,57,1,2,14,11,12.mid,experiment,1
57,129,27619,62,60,1,2,14,11,12.mid,experiment,1
58,131,28844,67,63,1,2,14,11,12.mid,experiment,1
59,133,29128,67,57,1,2,14,11,12.mid,experiment,1
60,135,29405,71,66,1,2,14,11,12.mid,experiment,1
61,137,29685,71,68,1,2,14,11,12.mid,experiment,1
62,139,29957,72,81,1,2,14,11,12.mid,experiment,1
63,141,30247,72,79,1,2,14,11,12.mid,experiment,1
64,143,30518,73,97,1,2,14,11,12.mid,experiment,1
65,145,30798,73,99,1,2,14,11,12.mid,experiment,1
66,147,31134,74,103,1,2,14,11,12.mid,experiment,1
67,148,31718,77,96,1,2,14,11,12.mid,experiment,1
68,150,32274,76,91,1,2,14,11,12.mid,experiment,1
69,152,32865,74,91,1,2,14,11,12.mid,experiment,1
70,154,33461,72,81,1,2,14,11,12.mid,experiment,1
71,157,34049,84,76,1,2,14,11,12.mid,experiment,1
73,161,34637,84,99,1,2,14,11,12.mid,experiment,1
1,17,7843,79,70,1,2,14,15,8.mid,experiment,1
2,18,8147,78,79,1,2,14,15,8.mid,experiment,1
3,20,8423,79,81,1,2,14,15,8.mid,experiment,1
4,22,8703,76,81,1,2,14,15,8.mid,experiment,1
5,24,9001,72,72,1,2,14,15,8.mid,experiment,1
6,27,9303,67,53,1,2,14,15,8.mid,experiment,1
7,29,9611,67,49,1,2,14,15,8.mid,experiment,1
8,31,9893,67,45,1,2,14,15,8.mid,experiment,1
9,33,10189,79,57,1,2,14,15,8.mid,experiment,1
10,34,10485,78,74,1,2,14,15,8.mid,experiment,1
11,36,10780,79,72,1,2,14,15,8.mid,experiment,1
12,38,11068,76,70,1,2,14,15,8.mid,experiment,1
13,40,11366,72,72,1,2,14,15,8.mid,experiment,1
14,42,11653,76,78,1,2,14,15,8.mid,experiment,1
15,44,11951,79,89,1,2,14,15,8.mid,experiment,1
16,46,12233,84,95,1,2,14,15,8.mid,experiment,1
17,48,12522,83,91,1,2,14,15,8.mid,experiment,1
18,50,12815,81,76,1,2,14,15,8.mid,experiment,1
19,53,13102,81,56,1,2,14,15,8.mid,experiment,1
20,55,13379,81,53,1,2,14,15,8.mid,experiment,1
21,57,13667,83,71,1,2,14,15,8.mid,experiment,1
22,58,13974,81,87,1,2,14,15,8.mid,experiment,1
23,60,14261,84,94,1,2,14,15,8.mid,experiment,1
24,62,14531,81,91,1,2,14,15,8.mid,experiment,1
25,64,14813,78,87,1,2,14,15,8.mid,experiment,1
26,66,15111,79,88,1,2,14,15,8.mid,experiment,1
27,69,15417,79,95,1,2,14,15,8.mid,experiment,1
28,71,15993,79,100,1,2,14,15,8.mid,experiment,1
29,73,17151,77,54,1,2,14,15,8.mid,experiment,1
30,75,17427,77,62,1,2,14,15,8.mid,experiment,1
31,77,17702,76,57,1,2,14,15,8.mid,experiment,1
32,79,17979,76,50,1,2,14,15,8.mid,experiment,1
33,81,18271,74,57,1,2,14,15,8.mid,experiment,1
34,83,19441,79,68,1,2,14,15,8.mid,experiment,1
35,84,20009,77,76,1,2,14,15,8.mid,experiment,1
36,86,20583,76,57,1,2,14,15,8.mid,experiment,1
37,89,20859,76,62,1,2,14,15,8.mid,experiment,1
38,91,21135,76,57,1,2,14,15,8.mid,experiment,1
39,93,21398,76,58,1,2,14,15,8.mid,experiment,1
40,95,21706,81,71,1,2,14,15,8.mid,experiment,1
41,96,22019,77,80,1,2,14,15,8.mid,experiment,1
42,98,22301,76,82,1,2,14,15,8.mid,experiment,1
43,100,22587,74,78,1,2,14,15,8.mid,experiment,1
44,102,22867,76,89,1,2,14,15,8.mid,experiment,1
45,104,23151,79,93,1,2,14,15,8.mid,experiment,1
46,106,23430,74,82,1,2,14,15,8.mid,experiment,1
47,108,23717,71,74,1,2,14,15,8.mid,experiment,1
48,111,23990,72,76,1,2,14,15,8.mid,experiment,1
49,113,24275,72,71,1,2,14,15,8.mid,experiment,1
50,115,24553,74,71,1,2,14,15,8.mid,experiment,1
51,117,24838,74,68,1,2,14,15,8.mid,experiment,1
52,119,25147,76,62,1,2,14,15,8.mid,experiment,1
53,121,26355,65,61,1,2,14,15,8.mid,experiment,1
54,123,26628,65,64,1,2,14,15,8.mid,experiment,1
55,125,26915,64,61,1,2,14,15,8.mid,experiment,1
56,127,27191,64,51,1,2,14,15,8.mid,experiment,1
57,129,27486,62,60,1,2,14,15,8.mid,experiment,1
58,131,28711,67,36,1,2,14,15,8.mid,experiment,1
59,133,28993,67,55,1,2,14,15,8.mid,experiment,1
60,135,29259,71,69,1,2,14,15,8.mid,experiment,1
61,137,29539,71,78,1,2,14,15,8.mid,experiment,1
62,139,29825,72,86,1,2,14,15,8.mid,experiment,1
63,141,30109,72,88,1,2,14,15,8.mid,experiment,1
64,143,30392,73,103,1,2,14,15,8.mid,experiment,1
65,145,30673,73,106,1,2,14,15,8.mid,experiment,1
66,147,30987,74,90,1,2,14,15,8.mid,experiment,1
68,150,31565,77,104,1,2,14,15,8.mid,experiment,1
69,152,32132,76,90,1,2,14,15,8.mid,experiment,1
70,154,32725,74,91,1,2,14,15,8.mid,experiment,1
71,156,33343,72,80,1,2,14,15,8.mid,experiment,1
72,159,33911,84,104,1,2,14,15,8.mid,experiment,1
73,161,34547,84,97,1,2,14,15,8.mid,experiment,1
1,17,7894,79,68,1,2,17,7,7.mid,experiment,1
2,18,8229,78,77,1,2,17,7,7.mid,experiment,1
3,20,8508,79,78,1,2,17,7,7.mid,experiment,1
4,22,8809,76,84,1,2,17,7,7.mid,experiment,1
5,24,9117,72,89,1,2,17,7,7.mid,experiment,1
6,27,9428,67,70,1,2,17,7,7.mid,experiment,1
7,29,9729,67,68,1,2,17,7,7.mid,experiment,1
8,31,10061,67,45,1,2,17,7,7.mid,experiment,1
9,33,10352,79,88,1,2,17,7,7.mid,experiment,1
10,34,10655,78,89,1,2,17,7,7.mid,experiment,1
11,36,10942,79,89,1,2,17,7,7.mid,experiment,1
12,38,11230,76,83,1,2,17,7,7.mid,experiment,1
13,40,11524,72,89,1,2,17,7,7.mid,experiment,1
14,42,11827,76,94,1,2,17,7,7.mid,experiment,1
15,44,12114,79,94,1,2,17,7,7.mid,experiment,1
16,46,12400,84,99,1,2,17,7,7.mid,experiment,1
17,48,12722,83,82,1,2,17,7,7.mid,experiment,1
18,51,13043,81,73,1,2,17,7,7.mid,experiment,1
19,53,13331,81,68,1,2,17,7,7.mid,experiment,1
20,55,13608,81,66,1,2,17,7,7.mid,experiment,1
21,57,13941,83,96,1,2,17,7,7.mid,experiment,1
22,58,14225,81,91,1,2,17,7,7.mid,experiment,1
23,60,14513,84,91,1,2,17,7,7.mid,experiment,1
24,62,14797,81,90,1,2,17,7,7.mid,experiment,1
25,63,15107,78,88,1,2,17,7,7.mid,experiment,1
26,66,15403,79,89,1,2,17,7,7.mid,experiment,1
27,69,15746,79,91,1,2,17,7,7.mid,experiment,1
28,71,16345,79,83,1,2,17,7,7.mid,experiment,1
29,73,17596,77,66,1,2,17,7,7.mid,experiment,1
30,75,17863,77,70,1,2,17,7,7.mid,experiment,1
31,77,18144,76,53,1,2,17,7,7.mid,experiment,1
32,79,18409,76,58,1,2,17,7,7.mid,experiment,1
33,81,18721,74,55,1,2,17,7,7.mid,experiment,1
34,83,19940,79,63,1,2,17,7,7.mid,experiment,1
35,85,20593,77,59,1,2,17,7,7.mid,experiment,1
36,87,21192,76,60,1,2,17,7,7.mid,experiment,1
37,89,21460,76,72,1,2,17,7,7.mid,experiment,1
38,91,21742,76,62,1,2,17,7,7.mid,experiment,1
39,93,22009,76,53,1,2,17,7,7.mid,experiment,1
40,95,22318,81,91,1,2,17,7,7.mid,experiment,1
41,96,22587,77,69,1,2,17,7,7.mid,experiment,1
43,99,22873,76,91,1,2,17,7,7.mid,experiment,1
44,102,23158,74,91,1,2,17,7,7.mid,experiment,1
45,104,23449,76,95,1,2,17,7,7.mid,experiment,1
46,106,23724,79,89,1,2,17,7,7.mid,experiment,1
47,108,24005,74,89,1,2,17,7,7.mid,experiment,1
48,110,24278,71,85,1,2,17,7,7.mid,experiment,1
49,113,24566,72,78,1,2,17,7,7.mid,experiment,1
50,115,24840,72,70,1,2,17,7,7.mid,experiment,1
51,117,25121,74,68,1,2,17,7,7.mid,experiment,1
52,119,25387,74,65,1,2,17,7,7.mid,experiment,1
53,121,25711,76,54,1,2,17,7,7.mid,experiment,1
54,123,26859,65,58,1,2,17,7,7.mid,experiment,1
55,125,27132,65,63,1,2,17,7,7.mid,experiment,1
56,127,27432,64,48,1,2,17,7,7.mid,experiment,1
57,129,27711,64,47,1,2,17,7,7.mid,experiment,1
58,131,28047,62,45,1,2,17,7,7.mid,experiment,1
59,133,29183,67,57,1,2,17,7,7.mid,experiment,1
60,135,29453,67,67,1,2,17,7,7.mid,experiment,1
61,137,29734,71,60,1,2,17,7,7.mid,experiment,1
62,139,30017,71,54,1,2,17,7,7.mid,experiment,1
63,141,30278,72,65,1,2,17,7,7.mid,experiment,1
64,143,30555,72,66,1,2,17,7,7.mid,experiment,1
65,145,30836,73,63,1,2,17,7,7.mid,experiment,1
66,147,31108,73,73,1,2,17,7,7.mid,experiment,1
67,149,31398,74,97,1,2,17,7,7.mid,experiment,1
68,150,31975,77,96,1,2,17,7,7.mid,experiment,1
69,152,32549,76,99,1,2,17,7,7.mid,experiment,1
70,154,33140,74,97,1,2,17,7,7.mid,experiment,1
71,156,33717,72,99,1,2,17,7,7.mid,experiment,1
72,158,34319,84,99,1,2,17,7,7.mid,experiment,1
73,161,34965,84,90,1,2,17,7,7.mid,experiment,1
1,17,8424,79,80,1,2,19,2,2.mid,experiment,1
2,18,8726,78,99,1,2,19,2,2.mid,experiment,1
3,20,9013,79,93,1,2,19,2,2.mid,experiment,1
4,22,9306,76,71,1,2,19,2,2.mid,experiment,1
6,26,9567,72,90,1,2,19,2,2.mid,experiment,1
7,29,9867,67,70,1,2,19,2,2.mid,experiment,1
8,31,10141,67,72,1,2,19,2,2.mid,experiment,1
9,33,10420,67,59,1,2,19,2,2.mid,experiment,1
10,35,10700,79,89,1,2,19,2,2.mid,experiment,1
11,36,10967,78,104,1,2,19,2,2.mid,experiment,1
12,38,11249,79,105,1,2,19,2,2.mid,experiment,1
13,40,11518,76,103,1,2,19,2,2.mid,experiment,1
14,42,11784,72,99,1,2,19,2,2.mid,experiment,1
15,44,12056,76,96,1,2,19,2,2.mid,experiment,1
16,46,12331,79,97,1,2,19,2,2.mid,experiment,1
17,48,12587,84,100,1,2,19,2,2.mid,experiment,1
18,50,12860,83,88,1,2,19,2,2.mid,experiment,1
19,53,13145,81,35,1,2,19,2,2.mid,experiment,1
20,55,13424,81,53,1,2,19,2,2.mid,experiment,1
21,57,13655,81,58,1,2,19,2,2.mid,experiment,1
22,59,13949,83,104,1,2,19,2,2.mid,experiment,1
23,60,14211,81,105,1,2,19,2,2.mid,experiment,1
24,62,14474,84,103,1,2,19,2,2.mid,experiment,1
25,64,14744,81,104,1,2,19,2,2.mid,experiment,1
26,66,15032,78,106,1,2,19,2,2.mid,experiment,1
27,68,15291,79,103,1,2,19,2,2.mid,experiment,1
28,71,15602,79,103,1,2,19,2,2.mid,experiment,1
29,73,16148,79,99,1,2,19,2,2.mid,experiment,1
30,75,17242,77,65,1,2,19,2,2.mid,experiment,1
31,77,17514,77,67,1,2,19,2,2.mid,experiment,1
32,79,17771,76,68,1,2,19,2,2.mid,experiment,1
33,81,18032,76,56,1,2,19,2,2.mid,experiment,1
34,83,18409,74,47,1,2,19,2,2.mid,experiment,1
35,85,19520,79,63,1,2,19,2,2.mid,experiment,1
36,87,20078,77,48,1,2,19,2,2.mid,experiment,1
37,89,20642,76,61,1,2,19,2,2.mid,experiment,1
38,91,20927,76,50,1,2,19,2,2.mid,experiment,1
39,93,21179,76,48,1,2,19,2,2.mid,experiment,1
40,95,21481,76,29,1,2,19,2,2.mid,experiment,1
41,97,21749,81,94,1,2,19,2,2.mid,experiment,1
42,98,22004,77,103,1,2,19,2,2.mid,experiment,1
43,100,22263,76,104,1,2,19,2,2.mid,experiment,1
44,102,22525,74,99,1,2,19,2,2.mid,experiment,1
45,104,22800,76,105,1,2,19,2,2.mid,experiment,1
46,106,23046,79,96,1,2,19,2,2.mid,experiment,1
47,108,23313,74,94,1,2,19,2,2.mid,experiment,1
48,111,23579,71,73,1,2,19,2,2.mid,experiment,1
49,113,23853,72,62,1,2,19,2,2.mid,experiment,1
50,115,24137,72,55,1,2,19,2,2.mid,experiment,1
51,117,24402,74,55,1,2,19,2,2.mid,experiment,1
52,119,24656,74,63,1,2,19,2,2.mid,experiment,1
53,121,24968,76,52,1,2,19,2,2.mid,experiment,1
54,123,26105,65,63,1,2,19,2,2.mid,experiment,1
55,125,26362,65,63,1,2,19,2,2.mid,experiment,1
56,127,26643,64,52,1,2,19,2,2.mid,experiment,1
57,129,26901,64,53,1,2,19,2,2.mid,experiment,1
58,131,27278,62,46,1,2,19,2,2.mid,experiment,1
59,133,28363,67,60,1,2,19,2,2.mid,experiment,1
60,135,28631,67,57,1,2,19,2,2.mid,experiment,1
61,137,28889,71,62,1,2,19,2,2.mid,experiment,1
62,139,29166,71,57,1,2,19,2,2.mid,experiment,1
63,141,29429,72,55,1,2,19,2,2.mid,experiment,1
64,143,29689,72,60,1,2,19,2,2.mid,experiment,1
65,145,29954,73,59,1,2,19,2,2.mid,experiment,1
66,147,30210,73,67,1,2,19,2,2.mid,experiment,1
67,149,30521,74,116,1,2,19,2,2.mid,experiment,1
68,150,31061,77,96,1,2,19,2,2.mid,experiment,1
69,152,31596,76,103,1,2,19,2,2.mid,experiment,1
70,154,32140,74,114,1,2,19,2,2.mid,experiment,1
71,156,32684,72,114,1,2,19,2,2.mid,experiment,1
72,158,33223,84,107,1,2,19,2,2.mid,experiment,1
73,161,33778,84,112,1,2,19,2,2.mid,experiment,1
1,17,8526,79,65,1,2,19,4,1.mid,experiment,1
2,18,8800,78,95,1,2,19,4,1.mid,experiment,1
3,20,9054,79,96,1,2,19,4,1.mid,experiment,1
4,22,9315,76,85,1,2,19,4,1.mid,experiment,1
5,26,9578,72,97,1,2,19,4,1.mid,experiment,1
6,29,9864,67,57,1,2,19,4,1.mid,experiment,1
7,31,10126,67,54,1,2,19,4,1.mid,experiment,1
8,33,10392,67,55,1,2,19,4,1.mid,experiment,1
9,35,10634,79,91,1,2,19,4,1.mid,experiment,1
10,36,10882,78,107,1,2,19,4,1.mid,experiment,1
11,38,11139,79,109,1,2,19,4,1.mid,experiment,1
12,40,11394,76,98,1,2,19,4,1.mid,experiment,1
13,42,11652,72,100,1,2,19,4,1.mid,experiment,1
14,44,11899,76,106,1,2,19,4,1.mid,experiment,1
15,46,12153,79,100,1,2,19,4,1.mid,experiment,1
16,48,12398,84,101,1,2,19,4,1.mid,experiment,1
17,50,12658,83,101,1,2,19,4,1.mid,experiment,1
18,53,12936,81,65,1,2,19,4,1.mid,experiment,1
19,55,13198,81,56,1,2,19,4,1.mid,experiment,1
20,57,13466,81,67,1,2,19,4,1.mid,experiment,1
21,59,13718,83,101,1,2,19,4,1.mid,experiment,1
22,60,13968,81,109,1,2,19,4,1.mid,experiment,1
23,62,14228,84,104,1,2,19,4,1.mid,experiment,1
24,64,14476,81,100,1,2,19,4,1.mid,experiment,1
25,66,14738,78,99,1,2,19,4,1.mid,experiment,1
26,68,14990,79,89,1,2,19,4,1.mid,experiment,1
27,71,15284,79,96,1,2,19,4,1.mid,experiment,1
28,73,15840,79,97,1,2,19,4,1.mid,experiment,1
29,75,16962,77,60,1,2,19,4,1.mid,experiment,1
30,77,17224,77,61,1,2,19,4,1.mid,experiment,1
31,79,17458,76,71,1,2,19,4,1.mid,experiment,1
32,81,17712,76,71,1,2,19,4,1.mid,experiment,1
33,83,18004,74,66,1,2,19,4,1.mid,experiment,1
34,85,19088,79,63,1,2,19,4,1.mid,experiment,1
35,87,19624,77,73,1,2,19,4,1.mid,experiment,1
36,89,20168,76,53,1,2,19,4,1.mid,experiment,1
37,91,20426,76,65,1,2,19,4,1.mid,experiment,1
38,93,20675,76,60,1,2,19,4,1.mid,experiment,1
39,95,20930,76,56,1,2,19,4,1.mid,experiment,1
40,97,21178,81,81,1,2,19,4,1.mid,experiment,1
41,98,21430,77,82,1,2,19,4,1.mid,experiment,1
42,102,21668,76,93,1,2,19,4,1.mid,experiment,1
43,104,21937,74,98,1,2,19,4,1.mid,experiment,1
44,106,22186,76,99,1,2,19,4,1.mid,experiment,1
45,108,22440,79,91,1,2,19,4,1.mid,experiment,1
46,110,22690,74,94,1,2,19,4,1.mid,experiment,1
47,112,22935,71,89,1,2,19,4,1.mid,experiment,1
48,114,23187,72,83,1,2,19,4,1.mid,experiment,1
49,117,23432,72,70,1,2,19,4,1.mid,experiment,1
50,119,23686,74,61,1,2,19,4,1.mid,experiment,1
51,121,23950,74,54,1,2,19,4,1.mid,experiment,1
52,123,24234,76,61,1,2,19,4,1.mid,experiment,1
53,125,25327,65,50,1,2,19,4,1.mid,experiment,1
54,127,25557,65,61,1,2,19,4,1.mid,experiment,1
55,129,25832,64,56,1,2,19,4,1.mid,experiment,1
56,131,26079,64,62,1,2,19,4,1.mid,experiment,1
57,133,26396,62,50,1,2,19,4,1.mid,experiment,1
58,135,27414,67,53,1,2,19,4,1.mid,experiment,1
59,137,27677,67,51,1,2,19,4,1.mid,experiment,1
60,139,27925,71,57,1,2,19,4,1.mid,experiment,1
61,141,28172,71,63,1,2,19,4,1.mid,experiment,1
62,143,28430,72,62,1,2,19,4,1.mid,experiment,1
63,145,28682,72,66,1,2,19,4,1.mid,experiment,1
64,147,28926,73,81,1,2,19,4,1.mid,experiment,1
65,149,29189,73,81,1,2,19,4,1.mid,experiment,1
66,151,29464,74,106,1,2,19,4,1.mid,experiment,1
68,154,29988,77,101,1,2,19,4,1.mid,experiment,1
69,156,30490,76,88,1,2,19,4,1.mid,experiment,1
70,158,31006,74,103,1,2,19,4,1.mid,experiment,1
71,160,31552,72,101,1,2,19,4,1.mid,experiment,1
72,162,32088,84,104,1,2,19,4,1.mid,experiment,1
73,165,32646,84,115,1,2,19,4,1.mid,experiment,1
1,17,8589,79,83,1,2,19,6,4.mid,experiment,1
2,18,8856,78,97,1,2,19,6,4.mid,experiment,1
3,20,9115,79,95,1,2,19,6,4.mid,experiment,1
4,22,9382,76,90,1,2,19,6,4.mid,experiment,1
5,24,9654,72,91,1,2,19,6,4.mid,experiment,1
6,27,9956,67,65,1,2,19,6,4.mid,experiment,1
7,29,10248,67,60,1,2,19,6,4.mid,experiment,1
8,31,10512,67,62,1,2,19,6,4.mid,experiment,1
9,33,10785,79,94,1,2,19,6,4.mid,experiment,1
10,34,11051,78,103,1,2,19,6,4.mid,experiment,1
11,36,11299,79,98,1,2,19,6,4.mid,experiment,1
12,38,11564,76,100,1,2,19,6,4.mid,experiment,1
13,40,11815,72,106,1,2,19,6,4.mid,experiment,1
14,42,12070,76,103,1,2,19,6,4.mid,experiment,1
15,44,12336,79,101,1,2,19,6,4.mid,experiment,1
16,46,12574,84,99,1,2,19,6,4.mid,experiment,1
17,48,12846,83,93,1,2,19,6,4.mid,experiment,1
18,51,13128,81,51,1,2,19,6,4.mid,experiment,1
19,53,13387,81,55,1,2,19,6,4.mid,experiment,1
20,55,13636,81,69,1,2,19,6,4.mid,experiment,1
21,57,13897,83,94,1,2,19,6,4.mid,experiment,1
23,60,14164,81,106,1,2,19,6,4.mid,experiment,1
24,62,14410,84,107,1,2,19,6,4.mid,experiment,1
25,64,14679,81,103,1,2,19,6,4.mid,experiment,1
26,66,14939,78,105,1,2,19,6,4.mid,experiment,1
27,68,15185,79,100,1,2,19,6,4.mid,experiment,1
28,71,15490,79,104,1,2,19,6,4.mid,experiment,1
29,73,16046,79,86,1,2,19,6,4.mid,experiment,1
30,75,17163,77,73,1,2,19,6,4.mid,experiment,1
31,77,17421,77,62,1,2,19,6,4.mid,experiment,1
32,79,17687,76,53,1,2,19,6,4.mid,experiment,1
33,81,17939,76,54,1,2,19,6,4.mid,experiment,1
34,83,18207,74,61,1,2,19,6,4.mid,experiment,1
35,85,19353,79,74,1,2,19,6,4.mid,experiment,1
36,87,19906,77,70,1,2,19,6,4.mid,experiment,1
37,89,20442,76,55,1,2,19,6,4.mid,experiment,1
38,91,20713,76,57,1,2,19,6,4.mid,experiment,1
39,93,20977,76,52,1,2,19,6,4.mid,experiment,1
40,95,21228,76,57,1,2,19,6,4.mid,experiment,1
41,97,21495,81,79,1,2,19,6,4.mid,experiment,1
42,98,21749,77,89,1,2,19,6,4.mid,experiment,1
43,100,21996,76,101,1,2,19,6,4.mid,experiment,1
44,102,22255,74,94,1,2,19,6,4.mid,experiment,1
45,104,22501,76,97,1,2,19,6,4.mid,experiment,1
46,106,22745,79,95,1,2,19,6,4.mid,experiment,1
47,108,22999,74,101,1,2,19,6,4.mid,experiment,1
48,110,23263,71,86,1,2,19,6,4.mid,experiment,1
49,113,23523,72,73,1,2,19,6,4.mid,experiment,1
50,115,23779,72,71,1,2,19,6,4.mid,experiment,1
51,117,24040,74,62,1,2,19,6,4.mid,experiment,1
52,119,24302,74,63,1,2,19,6,4.mid,experiment,1
53,121,24580,76,57,1,2,19,6,4.mid,experiment,1
54,123,25648,65,64,1,2,19,6,4.mid,experiment,1
55,125,25904,65,63,1,2,19,6,4.mid,experiment,1
56,127,26145,64,62,1,2,19,6,4.mid,experiment,1
57,129,26413,64,57,1,2,19,6,4.mid,experiment,1
58,131,26715,62,46,1,2,19,6,4.mid,experiment,1
59,133,27705,67,54,1,2,19,6,4.mid,experiment,1
60,135,27960,67,54,1,2,19,6,4.mid,experiment,1
61,137,28219,71,56,1,2,19,6,4.mid,experiment,1
62,139,28480,71,56,1,2,19,6,4.mid,experiment,1
63,141,28732,72,58,1,2,19,6,4.mid,experiment,1
64,143,28995,72,53,1,2,19,6,4.mid,experiment,1
65,145,29239,73,63,1,2,19,6,4.mid,experiment,1
66,147,29504,73,70,1,2,19,6,4.mid,experiment,1
67,149,29769,74,115,1,2,19,6,4.mid,experiment,1
68,150,30315,77,103,1,2,19,6,4.mid,experiment,1
69,152,30838,76,106,1,2,19,6,4.mid,experiment,1
70,154,31371,74,110,1,2,19,6,4.mid,experiment,1
71,156,31899,72,100,1,2,19,6,4.mid,experiment,1
72,158,32432,84,106,1,2,19,6,4.mid,experiment,1
73,161,32992,84,103,1,2,19,6,4.mid,experiment,1
1,17,8439,79,77,1,2,19,13,16.mid,experiment,1
2,18,8744,78,95,1,2,19,13,16.mid,experiment,1
3,20,9027,79,93,1,2,19,13,16.mid,experiment,1
4,22,9299,76,91,1,2,19,13,16.mid,experiment,1
5,24,9584,72,93,1,2,19,13,16.mid,experiment,1
6,27,9902,67,59,1,2,19,13,16.mid,experiment,1
7,29,10203,67,51,1,2,19,13,16.mid,experiment,1
8,31,10494,67,61,1,2,19,13,16.mid,experiment,1
9,33,10811,79,98,1,2,19,13,16.mid,experiment,1
10,34,11085,78,106,1,2,19,13,16.mid,experiment,1
11,36,11364,79,105,1,2,19,13,16.mid,experiment,1
12,38,11658,76,105,1,2,19,13,16.mid,experiment,1
13,40,11929,72,105,1,2,19,13,16.mid,experiment,1
14,42,12211,76,104,1,2,19,13,16.mid,experiment,1
15,44,12487,79,100,1,2,19,13,16.mid,experiment,1
16,46,12759,84,101,1,2,19,13,16.mid,experiment,1
17,48,13030,83,107,1,2,19,13,16.mid,experiment,1
18,51,13608,81,67,1,2,19,13,16.mid,experiment,1
19,53,13892,81,63,1,2,19,13,16.mid,experiment,1
20,55,14165,81,69,1,2,19,13,16.mid,experiment,1
21,57,14430,83,105,1,2,19,13,16.mid,experiment,1
22,58,14714,81,106,1,2,19,13,16.mid,experiment,1
23,60,15015,84,89,1,2,19,13,16.mid,experiment,1
25,64,15272,81,96,1,2,19,13,16.mid,experiment,1
26,66,15587,78,106,1,2,19,13,16.mid,experiment,1
27,68,15870,79,89,1,2,19,13,16.mid,experiment,1
28,71,16191,79,96,1,2,19,13,16.mid,experiment,1
29,73,16796,79,94,1,2,19,13,16.mid,experiment,1
30,75,18060,77,75,1,2,19,13,16.mid,experiment,1
31,77,18335,77,67,1,2,19,13,16.mid,experiment,1
32,79,18605,76,63,1,2,19,13,16.mid,experiment,1
33,81,18871,76,65,1,2,19,13,16.mid,experiment,1
34,83,19163,74,65,1,2,19,13,16.mid,experiment,1
35,85,20398,79,61,1,2,19,13,16.mid,experiment,1
36,87,20978,77,53,1,2,19,13,16.mid,experiment,1
37,89,21536,76,61,1,2,19,13,16.mid,experiment,1
38,91,21816,76,64,1,2,19,13,16.mid,experiment,1
39,93,22084,76,63,1,2,19,13,16.mid,experiment,1
40,95,22351,76,58,1,2,19,13,16.mid,experiment,1
41,97,22709,81,99,1,2,19,13,16.mid,experiment,1
42,98,23001,77,103,1,2,19,13,16.mid,experiment,1
43,100,23261,76,98,1,2,19,13,16.mid,experiment,1
44,102,23523,74,101,1,2,19,13,16.mid,experiment,1
45,105,23797,76,103,1,2,19,13,16.mid,experiment,1
46,106,24056,79,91,1,2,19,13,16.mid,experiment,1
47,108,24318,74,95,1,2,19,13,16.mid,experiment,1
48,110,24595,71,86,1,2,19,13,16.mid,experiment,1
49,113,24872,72,71,1,2,19,13,16.mid,experiment,1
50,115,25134,72,68,1,2,19,13,16.mid,experiment,1
51,117,25420,74,63,1,2,19,13,16.mid,experiment,1
52,119,25694,74,62,1,2,19,13,16.mid,experiment,1
53,121,26003,76,55,1,2,19,13,16.mid,experiment,1
54,123,27131,65,69,1,2,19,13,16.mid,experiment,1
55,125,27401,65,68,1,2,19,13,16.mid,experiment,1
56,127,27667,64,61,1,2,19,13,16.mid,experiment,1
57,129,27922,64,65,1,2,19,13,16.mid,experiment,1
58,131,28250,62,50,1,2,19,13,16.mid,experiment,1
59,133,29311,67,65,1,2,19,13,16.mid,experiment,1
60,135,29583,67,66,1,2,19,13,16.mid,experiment,1
61,137,29851,71,65,1,2,19,13,16.mid,experiment,1
62,139,30110,71,68,1,2,19,13,16.mid,experiment,1
63,141,30364,72,65,1,2,19,13,16.mid,experiment,1
64,143,30619,72,67,1,2,19,13,16.mid,experiment,1
65,145,30878,73,71,1,2,19,13,16.mid,experiment,1
66,147,31157,73,70,1,2,19,13,16.mid,experiment,1
67,149,31591,74,118,1,2,19,13,16.mid,experiment,1
68,150,32155,77,109,1,2,19,13,16.mid,experiment,1
69,153,32707,76,99,1,2,19,13,16.mid,experiment,1
70,154,33247,74,105,1,2,19,13,16.mid,experiment,1
71,156,33818,72,106,1,2,19,13,16.mid,experiment,1
72,159,34405,84,107,1,2,19,13,16.mid,experiment,1
73,161,34994,84,114,1,2,19,13,16.mid,experiment,1
1,17,7797,79,60,1,2,21,2,5.mid,experiment,1
2,19,8074,78,78,1,2,21,2,5.mid,experiment,1
3,21,8364,79,68,1,2,21,2,5.mid,experiment,1
4,23,8623,76,67,1,2,21,2,5.mid,experiment,1
5,25,8899,72,70,1,2,21,2,5.mid,experiment,1
6,27,9179,67,58,1,2,21,2,5.mid,experiment,1
7,29,9468,67,62,1,2,21,2,5.mid,experiment,1
8,31,9736,67,56,1,2,21,2,5.mid,experiment,1
9,33,9997,79,67,1,2,21,2,5.mid,experiment,1
10,35,10265,78,57,1,2,21,2,5.mid,experiment,1
11,37,10530,79,63,1,2,21,2,5.mid,experiment,1
12,39,10789,76,76,1,2,21,2,5.mid,experiment,1
13,41,11074,72,77,1,2,21,2,5.mid,experiment,1
14,43,11330,76,84,1,2,21,2,5.mid,experiment,1
15,45,11604,79,83,1,2,21,2,5.mid,experiment,1
16,47,11867,84,74,1,2,21,2,5.mid,experiment,1
17,49,12127,83,75,1,2,21,2,5.mid,experiment,1
18,51,12415,81,65,1,2,21,2,5.mid,experiment,1
19,53,12696,81,65,1,2,21,2,5.mid,experiment,1
20,55,12952,81,56,1,2,21,2,5.mid,experiment,1
21,57,13233,83,53,1,2,21,2,5.mid,experiment,1
22,59,13490,81,59,1,2,21,2,5.mid,experiment,1
23,61,13790,84,61,1,2,21,2,5.mid,experiment,1
24,63,14054,81,64,1,2,21,2,5.mid,experiment,1
25,65,14308,78,68,1,2,21,2,5.mid,experiment,1
26,67,14572,79,67,1,2,21,2,5.mid,experiment,1
27,69,14872,79,58,1,2,21,2,5.mid,experiment,1
28,71,15450,79,61,1,2,21,2,5.mid,experiment,1
29,73,16523,77,55,1,2,21,2,5.mid,experiment,1
30,75,16804,77,58,1,2,21,2,5.mid,experiment,1
31,77,17079,76,64,1,2,21,2,5.mid,experiment,1
32,79,17348,76,38,1,2,21,2,5.mid,experiment,1
33,81,17670,74,47,1,2,21,2,5.mid,experiment,1
34,83,18757,79,54,1,2,21,2,5.mid,experiment,1
35,85,19314,77,63,1,2,21,2,5.mid,experiment,1
36,87,19852,76,62,1,2,21,2,5.mid,experiment,1
37,89,20112,76,60,1,2,21,2,5.mid,experiment,1
38,91,20391,76,67,1,2,21,2,5.mid,experiment,1
39,93,20688,76,50,1,2,21,2,5.mid,experiment,1
41,97,20941,81,66,1,2,21,2,5.mid,experiment,1
42,99,21207,77,72,1,2,21,2,5.mid,experiment,1
43,101,21489,76,67,1,2,21,2,5.mid,experiment,1
44,103,21743,74,72,1,2,21,2,5.mid,experiment,1
45,105,22008,76,69,1,2,21,2,5.mid,experiment,1
46,107,22272,79,69,1,2,21,2,5.mid,experiment,1
47,109,22533,74,79,1,2,21,2,5.mid,experiment,1
48,111,22800,71,64,1,2,21,2,5.mid,experiment,1
49,113,23076,72,68,1,2,21,2,5.mid,experiment,1
50,115,23329,72,55,1,2,21,2,5.mid,experiment,1
51,117,23595,74,71,1,2,21,2,5.mid,experiment,1
52,119,23879,74,72,1,2,21,2,5.mid,experiment,1
53,121,24225,76,51,1,2,21,2,5.mid,experiment,1
54,123,25233,65,67,1,2,21,2,5.mid,experiment,1
55,125,25496,65,66,1,2,21,2,5.mid,experiment,1
56,127,25796,64,72,1,2,21,2,5.mid,experiment,1
57,129,26055,64,75,1,2,21,2,5.mid,experiment,1
58,131,26345,62,72,1,2,21,2,5.mid,experiment,1
59,133,27393,67,61,1,2,21,2,5.mid,experiment,1
60,135,27672,67,58,1,2,21,2,5.mid,experiment,1
61,137,27949,71,63,1,2,21,2,5.mid,experiment,1
62,139,28193,71,70,1,2,21,2,5.mid,experiment,1
63,141,28454,72,82,1,2,21,2,5.mid,experiment,1
64,143,28707,72,90,1,2,21,2,5.mid,experiment,1
65,144,28983,73,85,1,2,21,2,5.mid,experiment,1
66,147,29225,73,79,1,2,21,2,5.mid,experiment,1
67,149,29497,74,81,1,2,21,2,5.mid,experiment,1
68,151,29993,77,81,1,2,21,2,5.mid,experiment,1
69,153,30543,76,79,1,2,21,2,5.mid,experiment,1
70,155,31057,74,76,1,2,21,2,5.mid,experiment,1
71,157,31557,72,76,1,2,21,2,5.mid,experiment,1
72,159,32120,84,80,1,2,21,2,5.mid,experiment,1
73,161,32749,84,74,1,2,21,2,5.mid,experiment,1
