RowNr,NoteNr,TimeStamp,Pitch,Velocity,Key_OnOff,Device,SubNr,TrialNr,Stimuli,Session,Error
1,19,8150,79,64,0,2,4,1,7.mid,experiment,1
2,21,8414,78,64,0,2,4,1,7.mid,experiment,1
3,23,8732,79,64,0,2,4,1,7.mid,experiment,1
4,25,8992,76,64,0,2,4,1,7.mid,experiment,1
5,26,8998,72,64,0,2,4,1,7.mid,experiment,1
6,28,9306,67,64,0,2,4,1,7.mid,experiment,1
7,30,9564,67,64,0,2,4,1,7.mid,experiment,1
8,32,9850,67,64,0,2,4,1,7.mid,experiment,1
9,35,10486,79,64,0,2,4,1,7.mid,experiment,1
10,37,10815,78,64,0,2,4,1,7.mid,experiment,1
11,39,11256,79,64,0,2,4,1,7.mid,experiment,1
12,41,11372,76,64,0,2,4,1,7.mid,experiment,1
13,44,11910,72,64,0,2,4,1,7.mid,experiment,1
14,45,11942,76,64,0,2,4,1,7.mid,experiment,1
15,47,12173,79,64,0,2,4,1,7.mid,experiment,1
16,49,12594,84,64,0,2,4,1,7.mid,experiment,1
17,50,12684,83,64,0,2,4,1,7.mid,experiment,1
18,52,12815,81,64,0,2,4,1,7.mid,experiment,1
19,54,13107,81,64,0,2,4,1,7.mid,experiment,1
20,56,13392,81,64,0,2,4,1,7.mid,experiment,1
21,59,13996,83,64,0,2,4,1,7.mid,experiment,1
22,61,14332,81,64,0,2,4,1,7.mid,experiment,1
23,63,14596,84,64,0,2,4,1,7.mid,experiment,1
24,65,14960,81,64,0,2,4,1,7.mid,experiment,1
25,67,15174,78,64,0,2,4,1,7.mid,experiment,1
26,68,15234,79,64,0,2,4,1,7.mid,experiment,1
27,70,15540,79,64,0,2,4,1,7.mid,experiment,1
28,72,16308,79,64,0,2,4,1,7.mid,experiment,1
29,74,17172,77,64,0,2,4,1,7.mid,experiment,1
30,76,17452,77,64,0,2,4,1,7.mid,experiment,1
31,78,17738,76,64,0,2,4,1,7.mid,experiment,1
32,80,17988,76,64,0,2,4,1,7.mid,experiment,1
33,82,18602,74,64,0,2,4,1,7.mid,experiment,1
34,84,19742,79,64,0,2,4,1,7.mid,experiment,1
35,86,20248,77,64,0,2,4,1,7.mid,experiment,1
36,88,20600,76,64,0,2,4,1,7.mid,experiment,1
37,90,20862,76,64,0,2,4,1,7.mid,experiment,1
38,92,21142,76,64,0,2,4,1,7.mid,experiment,1
39,94,21408,76,64,0,2,4,1,7.mid,experiment,1
40,98,22440,81,64,0,2,4,1,7.mid,experiment,1
41,99,22446,77,64,0,2,4,1,7.mid,experiment,1
42,101,22612,76,64,0,2,4,1,7.mid,experiment,1
43,103,22934,74,64,0,2,4,1,7.mid,experiment,1
44,105,23228,76,64,0,2,4,1,7.mid,experiment,1
45,107,23601,79,64,0,2,4,1,7.mid,experiment,1
46,109,23669,74,64,0,2,4,1,7.mid,experiment,1
47,110,23704,71,64,0,2,4,1,7.mid,experiment,1
48,112,23971,72,64,0,2,4,1,7.mid,experiment,1
49,114,24229,72,64,0,2,4,1,7.mid,experiment,1
50,116,24516,74,64,0,2,4,1,7.mid,experiment,1
51,118,24799,74,64,0,2,4,1,7.mid,experiment,1
52,120,25629,76,64,0,2,4,1,7.mid,experiment,1
53,122,26154,65,64,0,2,4,1,7.mid,experiment,1
54,124,26416,65,64,0,2,4,1,7.mid,experiment,1
55,126,26710,64,64,0,2,4,1,7.mid,experiment,1
56,128,26964,64,64,0,2,4,1,7.mid,experiment,1
57,130,27676,62,64,0,2,4,1,7.mid,experiment,1
58,132,28378,67,64,0,2,4,1,7.mid,experiment,1
59,134,28632,67,64,0,2,4,1,7.mid,experiment,1
60,136,29178,71,64,0,2,4,1,7.mid,experiment,1
61,136,,71,,0,2,4,1,7.mid,experiment,1
62,138,29439,72,64,0,2,4,1,7.mid,experiment,1
63,140,29718,72,64,0,2,4,1,7.mid,experiment,1
64,142,29988,73,64,0,2,4,1,7.mid,experiment,1
65,144,30250,73,64,0,2,4,1,7.mid,experiment,1
66,147,31264,74,64,0,2,4,1,7.mid,experiment,1
67,149,31766,77,64,0,2,4,1,7.mid,experiment,1
68,151,32314,76,64,0,2,4,1,7.mid,experiment,1
69,153,32828,74,64,0,2,4,1,7.mid,experiment,1
70,155,33530,72,64,0,2,4,1,7.mid,experiment,1
71,156,33686,84,64,0,2,4,1,7.mid,experiment,1
72,158,34750,84,64,0,2,4,1,7.mid,experiment,1
1,19,8150,79,64,0,2,4,5,3.mid,experiment,1
2,21,8420,78,64,0,2,4,5,3.mid,experiment,1
3,23,8703,79,64,0,2,4,5,3.mid,experiment,1
4,25,9069,76,64,0,2,4,5,3.mid,experiment,1
5,27,9263,72,64,0,2,4,5,3.mid,experiment,1
6,28,9282,67,64,0,2,4,5,3.mid,experiment,1
7,30,9548,67,64,0,2,4,5,3.mid,experiment,1
8,32,9845,67,64,0,2,4,5,3.mid,experiment,1
9,35,10451,79,64,0,2,4,5,3.mid,experiment,1
10,37,10736,78,64,0,2,4,5,3.mid,experiment,1
11,39,10990,79,64,0,2,4,5,3.mid,experiment,1
12,41,11286,76,64,0,2,4,5,3.mid,experiment,1
13,43,11609,72,64,0,2,4,5,3.mid,experiment,1
14,45,11817,76,64,0,2,4,5,3.mid,experiment,1
15,47,12042,79,64,0,2,4,5,3.mid,experiment,1
16,49,12520,84,64,0,2,4,5,3.mid,experiment,1
17,50,12602,83,64,0,2,4,5,3.mid,experiment,1
18,52,12672,81,64,0,2,4,5,3.mid,experiment,1
19,54,12923,81,64,0,2,4,5,3.mid,experiment,1
20,56,13181,81,64,0,2,4,5,3.mid,experiment,1
21,59,13766,83,64,0,2,4,5,3.mid,experiment,1
22,61,14055,81,64,0,2,4,5,3.mid,experiment,1
23,63,14377,84,64,0,2,4,5,3.mid,experiment,1
24,65,14665,81,64,0,2,4,5,3.mid,experiment,1
25,67,14910,78,64,0,2,4,5,3.mid,experiment,1
26,68,14949,79,64,0,2,4,5,3.mid,experiment,1
27,70,15615,79,64,0,2,4,5,3.mid,experiment,1
28,72,16320,79,64,0,2,4,5,3.mid,experiment,1
29,74,16898,77,64,0,2,4,5,3.mid,experiment,1
30,76,17153,77,64,0,2,4,5,3.mid,experiment,1
31,78,17444,76,64,0,2,4,5,3.mid,experiment,1
32,80,17683,76,64,0,2,4,5,3.mid,experiment,1
33,82,18572,74,64,0,2,4,5,3.mid,experiment,1
34,84,19385,79,64,0,2,4,5,3.mid,experiment,1
35,86,19984,77,64,0,2,4,5,3.mid,experiment,1
36,88,20289,76,64,0,2,4,5,3.mid,experiment,1
37,90,20548,76,64,0,2,4,5,3.mid,experiment,1
38,92,20824,76,64,0,2,4,5,3.mid,experiment,1
39,94,21102,76,64,0,2,4,5,3.mid,experiment,1
40,98,22003,81,64,0,2,4,5,3.mid,experiment,1
41,99,22075,77,64,0,2,4,5,3.mid,experiment,1
42,101,22257,76,64,0,2,4,5,3.mid,experiment,1
43,103,22592,74,64,0,2,4,5,3.mid,experiment,1
44,105,22846,76,64,0,2,4,5,3.mid,experiment,1
45,107,23198,79,64,0,2,4,5,3.mid,experiment,1
46,109,23358,74,64,0,2,4,5,3.mid,experiment,1
47,110,23377,71,64,0,2,4,5,3.mid,experiment,1
48,112,23660,72,64,0,2,4,5,3.mid,experiment,1
49,114,23917,72,64,0,2,4,5,3.mid,experiment,1
50,116,24206,74,64,0,2,4,5,3.mid,experiment,1
51,118,24470,74,64,0,2,4,5,3.mid,experiment,1
52,120,25424,76,64,0,2,4,5,3.mid,experiment,1
53,122,25932,65,64,0,2,4,5,3.mid,experiment,1
54,124,26185,65,64,0,2,4,5,3.mid,experiment,1
55,126,26473,64,64,0,2,4,5,3.mid,experiment,1
56,128,26737,64,64,0,2,4,5,3.mid,experiment,1
57,130,27669,62,64,0,2,4,5,3.mid,experiment,1
58,132,28207,67,64,0,2,4,5,3.mid,experiment,1
59,134,28499,67,64,0,2,4,5,3.mid,experiment,1
60,136,29064,71,64,0,2,4,5,3.mid,experiment,1
61,136,,71,,0,2,4,5,3.mid,experiment,1
62,138,29311,72,64,0,2,4,5,3.mid,experiment,1
63,140,29588,72,64,0,2,4,5,3.mid,experiment,1
64,142,29906,73,64,0,2,4,5,3.mid,experiment,1
65,144,30135,73,64,0,2,4,5,3.mid,experiment,1
66,147,31089,74,64,0,2,4,5,3.mid,experiment,1
67,149,31634,77,64,0,2,4,5,3.mid,experiment,1
68,151,32178,76,64,0,2,4,5,3.mid,experiment,1
69,153,32743,74,64,0,2,4,5,3.mid,experiment,1
70,155,33479,72,64,0,2,4,5,3.mid,experiment,1
71,156,33649,84,64,0,2,4,5,3.mid,experiment,1
72,158,34782,84,64,0,2,4,5,3.mid,experiment,1
1,19,8136,79,64,0,2,4,13,12.mid,experiment,1
2,21,8415,78,64,0,2,4,13,12.mid,experiment,1
3,23,8657,79,64,0,2,4,13,12.mid,experiment,1
4,25,8995,76,64,0,2,4,13,12.mid,experiment,1
5,27,9272,72,64,0,2,4,13,12.mid,experiment,1
6,28,9279,67,64,0,2,4,13,12.mid,experiment,1
7,30,9576,67,64,0,2,4,13,12.mid,experiment,1
8,32,9828,67,64,0,2,4,13,12.mid,experiment,1
9,35,10380,79,64,0,2,4,13,12.mid,experiment,1
10,37,10664,78,64,0,2,4,13,12.mid,experiment,1
11,39,10970,79,64,0,2,4,13,12.mid,experiment,1
12,41,11177,76,64,0,2,4,13,12.mid,experiment,1
13,43,11518,72,64,0,2,4,13,12.mid,experiment,1
14,45,11699,76,64,0,2,4,13,12.mid,experiment,1
15,47,11955,79,64,0,2,4,13,12.mid,experiment,1
16,49,12308,84,64,0,2,4,13,12.mid,experiment,1
17,51,12521,83,64,0,2,4,13,12.mid,experiment,1
18,52,12558,81,64,0,2,4,13,12.mid,experiment,1
19,54,12830,81,64,0,2,4,13,12.mid,experiment,1
20,56,13084,81,64,0,2,4,13,12.mid,experiment,1
21,59,13658,83,64,0,2,4,13,12.mid,experiment,1
22,61,13928,81,64,0,2,4,13,12.mid,experiment,1
23,63,14248,84,64,0,2,4,13,12.mid,experiment,1
24,65,14504,81,64,0,2,4,13,12.mid,experiment,1
25,67,14807,78,64,0,2,4,13,12.mid,experiment,1
26,68,14832,79,64,0,2,4,13,12.mid,experiment,1
27,70,15183,79,64,0,2,4,13,12.mid,experiment,1
28,72,16182,79,64,0,2,4,13,12.mid,experiment,1
29,74,16742,77,64,0,2,4,13,12.mid,experiment,1
30,76,17028,77,64,0,2,4,13,12.mid,experiment,1
31,78,17332,76,64,0,2,4,13,12.mid,experiment,1
32,80,17594,76,64,0,2,4,13,12.mid,experiment,1
33,82,18372,74,64,0,2,4,13,12.mid,experiment,1
34,85,19580,79,64,0,2,4,13,12.mid,experiment,1
35,86,19986,77,64,0,2,4,13,12.mid,experiment,1
36,88,20132,76,64,0,2,4,13,12.mid,experiment,1
37,90,20407,76,64,0,2,4,13,12.mid,experiment,1
38,92,20688,76,64,0,2,4,13,12.mid,experiment,1
39,92,,76,,0,2,4,13,12.mid,experiment,1
40,95,21656,81,64,0,2,4,13,12.mid,experiment,1
41,97,21864,77,64,0,2,4,13,12.mid,experiment,1
42,99,22066,76,64,0,2,4,13,12.mid,experiment,1
43,101,22416,74,64,0,2,4,13,12.mid,experiment,1
44,103,22666,76,64,0,2,4,13,12.mid,experiment,1
45,105,22988,79,64,0,2,4,13,12.mid,experiment,1
46,107,23168,74,64,0,2,4,13,12.mid,experiment,1
47,108,23256,71,64,0,2,4,13,12.mid,experiment,1
48,110,23481,72,64,0,2,4,13,12.mid,experiment,1
49,112,23730,72,64,0,2,4,13,12.mid,experiment,1
50,114,24018,74,64,0,2,4,13,12.mid,experiment,1
51,116,24272,74,64,0,2,4,13,12.mid,experiment,1
52,118,25097,76,64,0,2,4,13,12.mid,experiment,1
53,120,25672,65,64,0,2,4,13,12.mid,experiment,1
54,122,25962,65,64,0,2,4,13,12.mid,experiment,1
55,124,26269,64,64,0,2,4,13,12.mid,experiment,1
56,126,26560,64,64,0,2,4,13,12.mid,experiment,1
57,128,27302,62,64,0,2,4,13,12.mid,experiment,1
58,130,27880,67,64,0,2,4,13,12.mid,experiment,1
59,132,28166,67,64,0,2,4,13,12.mid,experiment,1
60,134,28450,71,64,0,2,4,13,12.mid,experiment,1
61,136,28720,71,64,0,2,4,13,12.mid,experiment,1
62,138,28986,72,64,0,2,4,13,12.mid,experiment,1
63,140,29242,72,64,0,2,4,13,12.mid,experiment,1
64,142,29524,73,64,0,2,4,13,12.mid,experiment,1
65,144,29780,73,64,0,2,4,13,12.mid,experiment,1
66,147,30782,74,64,0,2,4,13,12.mid,experiment,1
67,149,31308,77,64,0,2,4,13,12.mid,experiment,1
68,151,31782,76,64,0,2,4,13,12.mid,experiment,1
69,153,32330,74,64,0,2,4,13,12.mid,experiment,1
70,155,32970,72,64,0,2,4,13,12.mid,experiment,1
71,156,33138,84,64,0,2,4,13,12.mid,experiment,1
72,158,34232,84,64,0,2,4,13,12.mid,experiment,1
1,19,8232,79,64,0,2,5,1,11.mid,experiment,1
2,21,8530,78,64,0,2,5,1,11.mid,experiment,1
3,23,8810,79,64,0,2,5,1,11.mid,experiment,1
4,25,9138,76,64,0,2,5,1,11.mid,experiment,1
5,26,9334,72,64,0,2,5,1,11.mid,experiment,1
6,28,9462,67,64,0,2,5,1,11.mid,experiment,1
7,30,9717,67,64,0,2,5,1,11.mid,experiment,1
8,32,10004,67,64,0,2,5,1,11.mid,experiment,1
9,35,10596,79,64,0,2,5,1,11.mid,experiment,1
10,37,10901,78,64,0,2,5,1,11.mid,experiment,1
11,39,11202,79,64,0,2,5,1,11.mid,experiment,1
12,41,11460,76,64,0,2,5,1,11.mid,experiment,1
13,43,11731,72,64,0,2,5,1,11.mid,experiment,1
14,45,12006,76,64,0,2,5,1,11.mid,experiment,1
15,47,12244,79,64,0,2,5,1,11.mid,experiment,1
16,49,12602,84,64,0,2,5,1,11.mid,experiment,1
17,50,12804,83,64,0,2,5,1,11.mid,experiment,1
18,52,12929,81,64,0,2,5,1,11.mid,experiment,1
19,54,13198,81,64,0,2,5,1,11.mid,experiment,1
20,56,13473,81,64,0,2,5,1,11.mid,experiment,1
21,59,14117,83,64,0,2,5,1,11.mid,experiment,1
22,61,14315,81,64,0,2,5,1,11.mid,experiment,1
23,63,14639,84,64,0,2,5,1,11.mid,experiment,1
24,65,14934,81,64,0,2,5,1,11.mid,experiment,1
25,67,15184,78,64,0,2,5,1,11.mid,experiment,1
26,68,15246,79,64,0,2,5,1,11.mid,experiment,1
27,70,15689,79,64,0,2,5,1,11.mid,experiment,1
28,72,16734,79,64,0,2,5,1,11.mid,experiment,1
29,74,17398,77,64,0,2,5,1,11.mid,experiment,1
30,76,17657,77,64,0,2,5,1,11.mid,experiment,1
31,78,17957,76,64,0,2,5,1,11.mid,experiment,1
32,80,18233,76,64,0,2,5,1,11.mid,experiment,1
33,82,19118,74,64,0,2,5,1,11.mid,experiment,1
34,85,20416,79,64,0,2,5,1,11.mid,experiment,1
35,86,20921,77,64,0,2,5,1,11.mid,experiment,1
36,88,20988,76,64,0,2,5,1,11.mid,experiment,1
37,90,21280,76,64,0,2,5,1,11.mid,experiment,1
38,92,21567,76,64,0,2,5,1,11.mid,experiment,1
39,94,21841,76,64,0,2,5,1,11.mid,experiment,1
40,97,22471,81,64,0,2,5,1,11.mid,experiment,1
41,99,22782,77,64,0,2,5,1,11.mid,experiment,1
42,101,22997,76,64,0,2,5,1,11.mid,experiment,1
43,103,23316,74,64,0,2,5,1,11.mid,experiment,1
44,105,23642,76,64,0,2,5,1,11.mid,experiment,1
45,107,23901,79,64,0,2,5,1,11.mid,experiment,1
46,109,24135,74,64,0,2,5,1,11.mid,experiment,1
47,111,24457,71,64,0,2,5,1,11.mid,experiment,1
48,112,24494,72,64,0,2,5,1,11.mid,experiment,1
49,114,24763,72,64,0,2,5,1,11.mid,experiment,1
50,116,25052,74,64,0,2,5,1,11.mid,experiment,1
51,118,25341,74,64,0,2,5,1,11.mid,experiment,1
52,120,26198,76,64,0,2,5,1,11.mid,experiment,1
53,122,26955,65,64,0,2,5,1,11.mid,experiment,1
54,124,27220,65,64,0,2,5,1,11.mid,experiment,1
55,126,27793,64,64,0,2,5,1,11.mid,experiment,1
56,126,,64,,0,2,5,1,11.mid,experiment,1
57,128,28683,62,64,0,2,5,1,11.mid,experiment,1
58,130,29276,67,64,0,2,5,1,11.mid,experiment,1
59,132,29546,67,64,0,2,5,1,11.mid,experiment,1
60,134,29819,71,64,0,2,5,1,11.mid,experiment,1
61,136,30090,71,64,0,2,5,1,11.mid,experiment,1
62,138,30374,72,64,0,2,5,1,11.mid,experiment,1
63,140,30663,72,64,0,2,5,1,11.mid,experiment,1
64,142,30957,73,64,0,2,5,1,11.mid,experiment,1
65,144,31237,73,64,0,2,5,1,11.mid,experiment,1
66,147,32165,74,64,0,2,5,1,11.mid,experiment,1
67,149,32708,77,64,0,2,5,1,11.mid,experiment,1
68,151,33297,76,64,0,2,5,1,11.mid,experiment,1
69,153,33870,74,64,0,2,5,1,11.mid,experiment,1
70,154,34231,72,64,0,2,5,1,11.mid,experiment,1
71,156,34646,84,64,0,2,5,1,11.mid,experiment,1
72,158,35879,84,64,0,2,5,1,11.mid,experiment,1
1,19,8205,79,64,0,2,5,2,13.mid,experiment,1
2,21,8489,78,64,0,2,5,2,13.mid,experiment,1
3,23,8792,79,64,0,2,5,2,13.mid,experiment,1
4,25,9113,76,64,0,2,5,2,13.mid,experiment,1
5,26,9319,72,64,0,2,5,2,13.mid,experiment,1
6,28,9407,67,64,0,2,5,2,13.mid,experiment,1
7,30,9716,67,64,0,2,5,2,13.mid,experiment,1
8,32,10003,67,64,0,2,5,2,13.mid,experiment,1
9,35,10583,79,64,0,2,5,2,13.mid,experiment,1
10,37,10907,78,64,0,2,5,2,13.mid,experiment,1
11,39,11213,79,64,0,2,5,2,13.mid,experiment,1
12,41,11478,76,64,0,2,5,2,13.mid,experiment,1
13,43,11773,72,64,0,2,5,2,13.mid,experiment,1
14,45,12046,76,64,0,2,5,2,13.mid,experiment,1
15,47,12319,79,64,0,2,5,2,13.mid,experiment,1
16,49,12707,84,64,0,2,5,2,13.mid,experiment,1
17,50,12943,83,64,0,2,5,2,13.mid,experiment,1
18,52,13013,81,64,0,2,5,2,13.mid,experiment,1
19,54,13286,81,64,0,2,5,2,13.mid,experiment,1
20,56,13572,81,64,0,2,5,2,13.mid,experiment,1
21,59,14205,83,64,0,2,5,2,13.mid,experiment,1
22,61,14430,81,64,0,2,5,2,13.mid,experiment,1
23,63,14760,84,64,0,2,5,2,13.mid,experiment,1
24,65,15057,81,64,0,2,5,2,13.mid,experiment,1
25,67,15307,78,64,0,2,5,2,13.mid,experiment,1
26,68,15382,79,64,0,2,5,2,13.mid,experiment,1
27,70,15795,79,64,0,2,5,2,13.mid,experiment,1
28,72,16871,79,64,0,2,5,2,13.mid,experiment,1
29,74,17513,77,64,0,2,5,2,13.mid,experiment,1
30,76,17809,77,64,0,2,5,2,13.mid,experiment,1
31,78,18102,76,64,0,2,5,2,13.mid,experiment,1
32,80,18407,76,64,0,2,5,2,13.mid,experiment,1
33,82,19416,74,64,0,2,5,2,13.mid,experiment,1
34,85,20692,79,64,0,2,5,2,13.mid,experiment,1
35,87,21215,77,64,0,2,5,2,13.mid,experiment,1
36,88,21261,76,64,0,2,5,2,13.mid,experiment,1
37,90,21517,76,64,0,2,5,2,13.mid,experiment,1
38,92,21805,76,64,0,2,5,2,13.mid,experiment,1
39,94,22117,76,64,0,2,5,2,13.mid,experiment,1
40,97,22759,81,64,0,2,5,2,13.mid,experiment,1
41,99,23031,77,64,0,2,5,2,13.mid,experiment,1
42,101,23253,76,64,0,2,5,2,13.mid,experiment,1
43,103,23567,74,64,0,2,5,2,13.mid,experiment,1
44,105,23901,76,64,0,2,5,2,13.mid,experiment,1
45,107,24115,79,64,0,2,5,2,13.mid,experiment,1
46,109,24387,74,64,0,2,5,2,13.mid,experiment,1
47,110,24455,71,64,0,2,5,2,13.mid,experiment,1
48,112,24717,72,64,0,2,5,2,13.mid,experiment,1
49,114,24981,72,64,0,2,5,2,13.mid,experiment,1
50,116,25281,74,64,0,2,5,2,13.mid,experiment,1
51,118,25573,74,64,0,2,5,2,13.mid,experiment,1
52,120,26459,76,64,0,2,5,2,13.mid,experiment,1
53,122,27227,65,64,0,2,5,2,13.mid,experiment,1
54,124,27503,65,64,0,2,5,2,13.mid,experiment,1
55,126,28089,64,64,0,2,5,2,13.mid,experiment,1
56,126,,64,,0,2,5,2,13.mid,experiment,1
57,128,28931,62,64,0,2,5,2,13.mid,experiment,1
58,130,29638,67,64,0,2,5,2,13.mid,experiment,1
59,132,29927,67,64,0,2,5,2,13.mid,experiment,1
60,134,30211,71,64,0,2,5,2,13.mid,experiment,1
61,136,30469,71,64,0,2,5,2,13.mid,experiment,1
62,138,30749,72,64,0,2,5,2,13.mid,experiment,1
63,140,31035,72,64,0,2,5,2,13.mid,experiment,1
64,142,31342,73,64,0,2,5,2,13.mid,experiment,1
65,144,31601,73,64,0,2,5,2,13.mid,experiment,1
66,147,32491,74,64,0,2,5,2,13.mid,experiment,1
67,149,33111,77,64,0,2,5,2,13.mid,experiment,1
68,151,33697,76,64,0,2,5,2,13.mid,experiment,1
69,152,34253,74,64,0,2,5,2,13.mid,experiment,1
70,155,34897,72,64,0,2,5,2,13.mid,experiment,1
71,156,35011,84,64,0,2,5,2,13.mid,experiment,1
72,158,36375,84,64,0,2,5,2,13.mid,experiment,1
1,19,8282,79,64,0,2,5,7,16.mid,experiment,1
2,21,8547,78,64,0,2,5,7,16.mid,experiment,1
3,23,8800,79,64,0,2,5,7,16.mid,experiment,1
4,25,9128,76,64,0,2,5,7,16.mid,experiment,1
5,26,9276,72,64,0,2,5,7,16.mid,experiment,1
6,28,9469,67,64,0,2,5,7,16.mid,experiment,1
7,30,9753,67,64,0,2,5,7,16.mid,experiment,1
8,32,10005,67,64,0,2,5,7,16.mid,experiment,1
9,35,10574,79,64,0,2,5,7,16.mid,experiment,1
10,37,10890,78,64,0,2,5,7,16.mid,experiment,1
11,39,11167,79,64,0,2,5,7,16.mid,experiment,1
12,41,11431,76,64,0,2,5,7,16.mid,experiment,1
13,43,11698,72,64,0,2,5,7,16.mid,experiment,1
14,45,11978,76,64,0,2,5,7,16.mid,experiment,1
15,47,12229,79,64,0,2,5,7,16.mid,experiment,1
16,49,12579,84,64,0,2,5,7,16.mid,experiment,1
17,50,12737,83,64,0,2,5,7,16.mid,experiment,1
18,52,12911,81,64,0,2,5,7,16.mid,experiment,1
19,54,13194,81,64,0,2,5,7,16.mid,experiment,1
20,56,13461,81,64,0,2,5,7,16.mid,experiment,1
21,59,14058,83,64,0,2,5,7,16.mid,experiment,1
22,61,14269,81,64,0,2,5,7,16.mid,experiment,1
23,63,14603,84,64,0,2,5,7,16.mid,experiment,1
24,65,14866,81,64,0,2,5,7,16.mid,experiment,1
25,67,15111,78,64,0,2,5,7,16.mid,experiment,1
26,68,15177,79,64,0,2,5,7,16.mid,experiment,1
27,70,15584,79,64,0,2,5,7,16.mid,experiment,1
28,72,16730,79,64,0,2,5,7,16.mid,experiment,1
29,74,17306,77,64,0,2,5,7,16.mid,experiment,1
30,76,17590,77,64,0,2,5,7,16.mid,experiment,1
31,78,17873,76,64,0,2,5,7,16.mid,experiment,1
32,80,18161,76,64,0,2,5,7,16.mid,experiment,1
33,82,19066,74,64,0,2,5,7,16.mid,experiment,1
34,85,20371,79,64,0,2,5,7,16.mid,experiment,1
35,86,20882,77,64,0,2,5,7,16.mid,experiment,1
36,88,20963,76,64,0,2,5,7,16.mid,experiment,1
37,90,21272,76,64,0,2,5,7,16.mid,experiment,1
38,92,21536,76,64,0,2,5,7,16.mid,experiment,1
39,94,21814,76,64,0,2,5,7,16.mid,experiment,1
40,97,22433,81,64,0,2,5,7,16.mid,experiment,1
41,99,22712,77,64,0,2,5,7,16.mid,experiment,1
42,101,22965,76,64,0,2,5,7,16.mid,experiment,1
43,103,23260,74,64,0,2,5,7,16.mid,experiment,1
44,105,23585,76,64,0,2,5,7,16.mid,experiment,1
45,107,23758,79,64,0,2,5,7,16.mid,experiment,1
46,108,24001,74,64,0,2,5,7,16.mid,experiment,1
47,110,24228,71,64,0,2,5,7,16.mid,experiment,1
48,112,24321,72,64,0,2,5,7,16.mid,experiment,1
49,114,24601,72,64,0,2,5,7,16.mid,experiment,1
50,116,24869,74,64,0,2,5,7,16.mid,experiment,1
51,118,25144,74,64,0,2,5,7,16.mid,experiment,1
52,120,26083,76,64,0,2,5,7,16.mid,experiment,1
53,122,26782,65,64,0,2,5,7,16.mid,experiment,1
54,124,27062,65,64,0,2,5,7,16.mid,experiment,1
55,124,,64,,0,2,5,7,16.mid,experiment,1
56,124,,64,,0,2,5,7,16.mid,experiment,1
57,126,28436,62,64,0,2,5,7,16.mid,experiment,1
58,128,29107,67,64,0,2,5,7,16.mid,experiment,1
59,130,29396,67,64,0,2,5,7,16.mid,experiment,1
60,132,29691,71,64,0,2,5,7,16.mid,experiment,1
61,134,29947,71,64,0,2,5,7,16.mid,experiment,1
62,136,30203,72,64,0,2,5,7,16.mid,experiment,1
63,138,30495,72,64,0,2,5,7,16.mid,experiment,1
64,140,30792,73,64,0,2,5,7,16.mid,experiment,1
65,142,31076,73,64,0,2,5,7,16.mid,experiment,1
66,145,31985,74,64,0,2,5,7,16.mid,experiment,1
67,147,32615,77,64,0,2,5,7,16.mid,experiment,1
68,149,33182,76,64,0,2,5,7,16.mid,experiment,1
69,151,33754,74,64,0,2,5,7,16.mid,experiment,1
70,153,34418,72,64,0,2,5,7,16.mid,experiment,1
71,154,34539,84,64,0,2,5,7,16.mid,experiment,1
72,156,36093,84,64,0,2,5,7,16.mid,experiment,1
1,19,8145,79,64,0,2,5,9,8.mid,experiment,1
2,21,8423,78,64,0,2,5,9,8.mid,experiment,1
3,22,8672,79,64,0,2,5,9,8.mid,experiment,1
4,25,9012,76,64,0,2,5,9,8.mid,experiment,1
5,26,9118,72,64,0,2,5,9,8.mid,experiment,1
6,28,9313,67,64,0,2,5,9,8.mid,experiment,1
7,30,9567,67,64,0,2,5,9,8.mid,experiment,1
8,32,9854,67,64,0,2,5,9,8.mid,experiment,1
9,35,10422,79,64,0,2,5,9,8.mid,experiment,1
10,37,10726,78,64,0,2,5,9,8.mid,experiment,1
11,39,11023,79,64,0,2,5,9,8.mid,experiment,1
12,41,11259,76,64,0,2,5,9,8.mid,experiment,1
13,43,11574,72,64,0,2,5,9,8.mid,experiment,1
14,45,11857,76,64,0,2,5,9,8.mid,experiment,1
15,47,12076,79,64,0,2,5,9,8.mid,experiment,1
16,49,12389,84,64,0,2,5,9,8.mid,experiment,1
17,50,12581,83,64,0,2,5,9,8.mid,experiment,1
18,52,12673,81,64,0,2,5,9,8.mid,experiment,1
19,54,12951,81,64,0,2,5,9,8.mid,experiment,1
20,56,13211,81,64,0,2,5,9,8.mid,experiment,1
21,59,13812,83,64,0,2,5,9,8.mid,experiment,1
22,61,14055,81,64,0,2,5,9,8.mid,experiment,1
23,63,14364,84,64,0,2,5,9,8.mid,experiment,1
24,65,14635,81,64,0,2,5,9,8.mid,experiment,1
25,67,14898,78,64,0,2,5,9,8.mid,experiment,1
26,68,14991,79,64,0,2,5,9,8.mid,experiment,1
27,70,15422,79,64,0,2,5,9,8.mid,experiment,1
28,72,16469,79,64,0,2,5,9,8.mid,experiment,1
29,74,17112,77,64,0,2,5,9,8.mid,experiment,1
30,76,17393,77,64,0,2,5,9,8.mid,experiment,1
31,78,17679,76,64,0,2,5,9,8.mid,experiment,1
32,80,17949,76,64,0,2,5,9,8.mid,experiment,1
33,82,18822,74,64,0,2,5,9,8.mid,experiment,1
34,85,20123,79,64,0,2,5,9,8.mid,experiment,1
35,86,20705,77,64,0,2,5,9,8.mid,experiment,1
36,88,20768,76,64,0,2,5,9,8.mid,experiment,1
37,90,21034,76,64,0,2,5,9,8.mid,experiment,1
38,92,21329,76,64,0,2,5,9,8.mid,experiment,1
39,94,21574,76,64,0,2,5,9,8.mid,experiment,1
40,97,22236,81,64,0,2,5,9,8.mid,experiment,1
41,99,22491,77,64,0,2,5,9,8.mid,experiment,1
42,101,22731,76,64,0,2,5,9,8.mid,experiment,1
43,103,23060,74,64,0,2,5,9,8.mid,experiment,1
44,105,23450,76,64,0,2,5,9,8.mid,experiment,1
45,107,23594,79,64,0,2,5,9,8.mid,experiment,1
46,108,23835,74,64,0,2,5,9,8.mid,experiment,1
47,110,24132,71,64,0,2,5,9,8.mid,experiment,1
48,112,24174,72,64,0,2,5,9,8.mid,experiment,1
49,114,24446,72,64,0,2,5,9,8.mid,experiment,1
50,116,24747,74,64,0,2,5,9,8.mid,experiment,1
51,118,25007,74,64,0,2,5,9,8.mid,experiment,1
52,120,25925,76,64,0,2,5,9,8.mid,experiment,1
53,122,26643,65,64,0,2,5,9,8.mid,experiment,1
54,124,26924,65,64,0,2,5,9,8.mid,experiment,1
55,126,27512,64,64,0,2,5,9,8.mid,experiment,1
56,126,,64,,0,2,5,9,8.mid,experiment,1
57,128,28385,62,64,0,2,5,9,8.mid,experiment,1
58,130,29041,67,64,0,2,5,9,8.mid,experiment,1
59,132,29305,67,64,0,2,5,9,8.mid,experiment,1
60,134,29598,71,64,0,2,5,9,8.mid,experiment,1
61,136,29846,71,64,0,2,5,9,8.mid,experiment,1
62,138,30121,72,64,0,2,5,9,8.mid,experiment,1
63,140,30390,72,64,0,2,5,9,8.mid,experiment,1
64,142,30683,73,64,0,2,5,9,8.mid,experiment,1
65,144,30943,73,64,0,2,5,9,8.mid,experiment,1
66,147,31861,74,64,0,2,5,9,8.mid,experiment,1
67,149,32489,77,64,0,2,5,9,8.mid,experiment,1
68,151,33033,76,64,0,2,5,9,8.mid,experiment,1
69,152,33608,74,64,0,2,5,9,8.mid,experiment,1
70,155,34248,72,64,0,2,5,9,8.mid,experiment,1
71,156,34349,84,64,0,2,5,9,8.mid,experiment,1
72,158,35839,84,64,0,2,5,9,8.mid,experiment,1
1,19,8159,79,64,0,2,5,15,14.mid,experiment,1
2,21,8421,78,64,0,2,5,15,14.mid,experiment,1
3,23,8705,79,64,0,2,5,15,14.mid,experiment,1
4,25,9041,76,64,0,2,5,15,14.mid,experiment,1
5,26,9260,72,64,0,2,5,15,14.mid,experiment,1
6,28,9345,67,64,0,2,5,15,14.mid,experiment,1
7,30,9610,67,64,0,2,5,15,14.mid,experiment,1
8,32,9902,67,64,0,2,5,15,14.mid,experiment,1
9,35,10468,79,64,0,2,5,15,14.mid,experiment,1
10,37,10765,78,64,0,2,5,15,14.mid,experiment,1
11,39,11100,79,64,0,2,5,15,14.mid,experiment,1
12,41,11310,76,64,0,2,5,15,14.mid,experiment,1
13,43,11600,72,64,0,2,5,15,14.mid,experiment,1
14,45,11880,76,64,0,2,5,15,14.mid,experiment,1
15,46,12112,79,64,0,2,5,15,14.mid,experiment,1
16,49,12475,84,64,0,2,5,15,14.mid,experiment,1
17,50,12702,83,64,0,2,5,15,14.mid,experiment,1
18,52,12742,81,64,0,2,5,15,14.mid,experiment,1
19,54,13019,81,64,0,2,5,15,14.mid,experiment,1
20,54,,81,,0,2,5,15,14.mid,experiment,1
21,57,13898,83,64,0,2,5,15,14.mid,experiment,1
22,59,14136,81,64,0,2,5,15,14.mid,experiment,1
23,61,14420,84,64,0,2,5,15,14.mid,experiment,1
24,63,14705,81,64,0,2,5,15,14.mid,experiment,1
25,65,14959,78,64,0,2,5,15,14.mid,experiment,1
26,66,15024,79,64,0,2,5,15,14.mid,experiment,1
27,68,15385,79,64,0,2,5,15,14.mid,experiment,1
28,70,16463,79,64,0,2,5,15,14.mid,experiment,1
29,72,17115,77,64,0,2,5,15,14.mid,experiment,1
30,74,17391,77,64,0,2,5,15,14.mid,experiment,1
31,76,17680,76,64,0,2,5,15,14.mid,experiment,1
32,78,17969,76,64,0,2,5,15,14.mid,experiment,1
33,80,18865,74,64,0,2,5,15,14.mid,experiment,1
34,83,20048,79,64,0,2,5,15,14.mid,experiment,1
35,84,20612,77,64,0,2,5,15,14.mid,experiment,1
36,86,20664,76,64,0,2,5,15,14.mid,experiment,1
37,88,20940,76,64,0,2,5,15,14.mid,experiment,1
38,90,21211,76,64,0,2,5,15,14.mid,experiment,1
39,92,21461,76,64,0,2,5,15,14.mid,experiment,1
40,95,22068,81,64,0,2,5,15,14.mid,experiment,1
41,97,22320,77,64,0,2,5,15,14.mid,experiment,1
42,99,22553,76,64,0,2,5,15,14.mid,experiment,1
43,101,22899,74,64,0,2,5,15,14.mid,experiment,1
44,103,23173,76,64,0,2,5,15,14.mid,experiment,1
45,105,23424,79,64,0,2,5,15,14.mid,experiment,1
46,106,23682,74,64,0,2,5,15,14.mid,experiment,1
47,108,23769,71,64,0,2,5,15,14.mid,experiment,1
48,110,23992,72,64,0,2,5,15,14.mid,experiment,1
49,112,24259,72,64,0,2,5,15,14.mid,experiment,1
50,114,24525,74,64,0,2,5,15,14.mid,experiment,1
51,116,24812,74,64,0,2,5,15,14.mid,experiment,1
52,118,25650,76,64,0,2,5,15,14.mid,experiment,1
53,120,26322,65,64,0,2,5,15,14.mid,experiment,1
54,122,26590,65,64,0,2,5,15,14.mid,experiment,1
55,124,26880,64,64,0,2,5,15,14.mid,experiment,1
56,126,27184,64,64,0,2,5,15,14.mid,experiment,1
57,128,28021,62,64,0,2,5,15,14.mid,experiment,1
58,130,28629,67,64,0,2,5,15,14.mid,experiment,1
59,132,28897,67,64,0,2,5,15,14.mid,experiment,1
60,134,29166,71,64,0,2,5,15,14.mid,experiment,1
61,136,29429,71,64,0,2,5,15,14.mid,experiment,1
62,138,29688,72,64,0,2,5,15,14.mid,experiment,1
63,140,29990,72,64,0,2,5,15,14.mid,experiment,1
64,142,30268,73,64,0,2,5,15,14.mid,experiment,1
65,144,30490,73,64,0,2,5,15,14.mid,experiment,1
66,147,31333,74,64,0,2,5,15,14.mid,experiment,1
67,149,31936,77,64,0,2,5,15,14.mid,experiment,1
68,151,32495,76,64,0,2,5,15,14.mid,experiment,1
69,153,33076,74,64,0,2,5,15,14.mid,experiment,1
70,155,33693,72,64,0,2,5,15,14.mid,experiment,1
71,156,33815,84,64,0,2,5,15,14.mid,experiment,1
72,158,35221,84,64,0,2,5,15,14.mid,experiment,1
1,19,8158,79,64,0,2,5,16,3.mid,experiment,1
2,21,8407,78,64,0,2,5,16,3.mid,experiment,1
3,23,8673,79,64,0,2,5,16,3.mid,experiment,1
4,25,9020,76,64,0,2,5,16,3.mid,experiment,1
5,26,9230,72,64,0,2,5,16,3.mid,experiment,1
6,28,9300,67,64,0,2,5,16,3.mid,experiment,1
7,30,9582,67,64,0,2,5,16,3.mid,experiment,1
8,32,9841,67,64,0,2,5,16,3.mid,experiment,1
9,35,10402,79,64,0,2,5,16,3.mid,experiment,1
10,37,10739,78,64,0,2,5,16,3.mid,experiment,1
11,39,11115,79,64,0,2,5,16,3.mid,experiment,1
12,41,11270,76,64,0,2,5,16,3.mid,experiment,1
13,43,11596,72,64,0,2,5,16,3.mid,experiment,1
14,45,11870,76,64,0,2,5,16,3.mid,experiment,1
15,47,12094,79,64,0,2,5,16,3.mid,experiment,1
16,49,12466,84,64,0,2,5,16,3.mid,experiment,1
17,51,12736,83,64,0,2,5,16,3.mid,experiment,1
18,52,12764,81,64,0,2,5,16,3.mid,experiment,1
19,54,13070,81,64,0,2,5,16,3.mid,experiment,1
20,56,13336,81,64,0,2,5,16,3.mid,experiment,1
21,59,13908,83,64,0,2,5,16,3.mid,experiment,1
22,61,14142,81,64,0,2,5,16,3.mid,experiment,1
23,63,14458,84,64,0,2,5,16,3.mid,experiment,1
24,65,14775,81,64,0,2,5,16,3.mid,experiment,1
25,67,15044,78,64,0,2,5,16,3.mid,experiment,1
26,68,15071,79,64,0,2,5,16,3.mid,experiment,1
27,70,15430,79,64,0,2,5,16,3.mid,experiment,1
28,72,16524,79,64,0,2,5,16,3.mid,experiment,1
29,74,17164,77,64,0,2,5,16,3.mid,experiment,1
30,76,17447,77,64,0,2,5,16,3.mid,experiment,1
31,78,17737,76,64,0,2,5,16,3.mid,experiment,1
32,80,18016,76,64,0,2,5,16,3.mid,experiment,1
33,82,18901,74,64,0,2,5,16,3.mid,experiment,1
34,85,20176,79,64,0,2,5,16,3.mid,experiment,1
35,86,20735,77,64,0,2,5,16,3.mid,experiment,1
36,88,20794,76,64,0,2,5,16,3.mid,experiment,1
37,90,21070,76,64,0,2,5,16,3.mid,experiment,1
38,92,21351,76,64,0,2,5,16,3.mid,experiment,1
39,94,21622,76,64,0,2,5,16,3.mid,experiment,1
40,97,22249,81,64,0,2,5,16,3.mid,experiment,1
41,99,22503,77,64,0,2,5,16,3.mid,experiment,1
42,101,22756,76,64,0,2,5,16,3.mid,experiment,1
43,103,23079,74,64,0,2,5,16,3.mid,experiment,1
44,105,23448,76,64,0,2,5,16,3.mid,experiment,1
45,107,23601,79,64,0,2,5,16,3.mid,experiment,1
46,108,23853,74,64,0,2,5,16,3.mid,experiment,1
47,110,24152,71,64,0,2,5,16,3.mid,experiment,1
48,112,24198,72,64,0,2,5,16,3.mid,experiment,1
49,112,,72,,0,2,5,16,3.mid,experiment,1
50,114,24763,74,64,0,2,5,16,3.mid,experiment,1
51,116,25049,74,64,0,2,5,16,3.mid,experiment,1
52,118,25909,76,64,0,2,5,16,3.mid,experiment,1
53,120,26607,65,64,0,2,5,16,3.mid,experiment,1
54,122,26885,65,64,0,2,5,16,3.mid,experiment,1
55,124,27171,64,64,0,2,5,16,3.mid,experiment,1
56,126,27445,64,64,0,2,5,16,3.mid,experiment,1
57,128,28303,62,64,0,2,5,16,3.mid,experiment,1
58,130,28960,67,64,0,2,5,16,3.mid,experiment,1
59,132,29254,67,64,0,2,5,16,3.mid,experiment,1
60,134,29534,71,64,0,2,5,16,3.mid,experiment,1
61,136,29799,71,64,0,2,5,16,3.mid,experiment,1
62,138,30090,72,64,0,2,5,16,3.mid,experiment,1
63,140,30334,72,64,0,2,5,16,3.mid,experiment,1
64,142,30650,73,64,0,2,5,16,3.mid,experiment,1
65,144,30920,73,64,0,2,5,16,3.mid,experiment,1
66,147,31769,74,64,0,2,5,16,3.mid,experiment,1
67,149,32387,77,64,0,2,5,16,3.mid,experiment,1
68,151,32974,76,64,0,2,5,16,3.mid,experiment,1
69,153,33492,74,64,0,2,5,16,3.mid,experiment,1
70,155,34134,72,64,0,2,5,16,3.mid,experiment,1
71,156,34265,84,64,0,2,5,16,3.mid,experiment,1
72,158,35870,84,64,0,2,5,16,3.mid,experiment,1
1,19,8110,79,64,0,2,6,1,3.mid,experiment,1
2,21,8419,78,64,0,2,6,1,3.mid,experiment,1
3,23,8676,79,64,0,2,6,1,3.mid,experiment,1
4,25,8967,76,64,0,2,6,1,3.mid,experiment,1
5,26,9030,72,64,0,2,6,1,3.mid,experiment,1
6,28,9284,67,64,0,2,6,1,3.mid,experiment,1
7,30,9578,67,64,0,2,6,1,3.mid,experiment,1
8,30,,67,,0,2,6,1,3.mid,experiment,1
9,33,10416,79,64,0,2,6,1,3.mid,experiment,1
10,35,10728,78,64,0,2,6,1,3.mid,experiment,1
11,37,10961,79,64,0,2,6,1,3.mid,experiment,1
12,39,11226,76,64,0,2,6,1,3.mid,experiment,1
13,41,11593,72,64,0,2,6,1,3.mid,experiment,1
14,43,11846,76,64,0,2,6,1,3.mid,experiment,1
15,45,12079,79,64,0,2,6,1,3.mid,experiment,1
16,47,12401,84,64,0,2,6,1,3.mid,experiment,1
17,48,12489,83,64,0,2,6,1,3.mid,experiment,1
18,50,12711,81,64,0,2,6,1,3.mid,experiment,1
19,52,13022,81,64,0,2,6,1,3.mid,experiment,1
20,54,13278,81,64,0,2,6,1,3.mid,experiment,1
21,57,13821,83,64,0,2,6,1,3.mid,experiment,1
22,59,14069,81,64,0,2,6,1,3.mid,experiment,1
23,61,14357,84,64,0,2,6,1,3.mid,experiment,1
24,63,14607,81,64,0,2,6,1,3.mid,experiment,1
25,64,14732,78,64,0,2,6,1,3.mid,experiment,1
26,66,14912,79,64,0,2,6,1,3.mid,experiment,1
27,68,15206,79,64,0,2,6,1,3.mid,experiment,1
28,70,16506,79,64,0,2,6,1,3.mid,experiment,1
29,72,16945,77,64,0,2,6,1,3.mid,experiment,1
30,74,17208,77,64,0,2,6,1,3.mid,experiment,1
31,76,17480,76,64,0,2,6,1,3.mid,experiment,1
32,78,17761,76,64,0,2,6,1,3.mid,experiment,1
33,80,18766,74,64,0,2,6,1,3.mid,experiment,1
34,82,19636,79,64,0,2,6,1,3.mid,experiment,1
35,84,20285,77,64,0,2,6,1,3.mid,experiment,1
36,86,20526,76,64,0,2,6,1,3.mid,experiment,1
37,88,20816,76,64,0,2,6,1,3.mid,experiment,1
38,90,21079,76,64,0,2,6,1,3.mid,experiment,1
39,92,21323,76,64,0,2,6,1,3.mid,experiment,1
40,95,21935,81,64,0,2,6,1,3.mid,experiment,1
41,97,22155,77,64,0,2,6,1,3.mid,experiment,1
42,99,22419,76,64,0,2,6,1,3.mid,experiment,1
43,101,22699,74,64,0,2,6,1,3.mid,experiment,1
44,103,22956,76,64,0,2,6,1,3.mid,experiment,1
45,105,23235,79,64,0,2,6,1,3.mid,experiment,1
46,106,23455,74,64,0,2,6,1,3.mid,experiment,1
47,109,23729,71,64,0,2,6,1,3.mid,experiment,1
48,110,23769,72,64,0,2,6,1,3.mid,experiment,1
49,112,24045,72,64,0,2,6,1,3.mid,experiment,1
50,114,24306,74,64,0,2,6,1,3.mid,experiment,1
51,116,24579,74,64,0,2,6,1,3.mid,experiment,1
52,118,25524,76,64,0,2,6,1,3.mid,experiment,1
53,120,26087,65,64,0,2,6,1,3.mid,experiment,1
54,122,26392,65,64,0,2,6,1,3.mid,experiment,1
55,124,26661,64,64,0,2,6,1,3.mid,experiment,1
56,126,26967,64,64,0,2,6,1,3.mid,experiment,1
57,128,28008,62,64,0,2,6,1,3.mid,experiment,1
58,130,28502,67,64,0,2,6,1,3.mid,experiment,1
59,132,28791,67,64,0,2,6,1,3.mid,experiment,1
60,134,29065,71,64,0,2,6,1,3.mid,experiment,1
61,136,29333,71,64,0,2,6,1,3.mid,experiment,1
62,138,29594,72,64,0,2,6,1,3.mid,experiment,1
63,140,29872,72,64,0,2,6,1,3.mid,experiment,1
64,142,30136,73,64,0,2,6,1,3.mid,experiment,1
65,144,30396,73,64,0,2,6,1,3.mid,experiment,1
66,147,31271,74,64,0,2,6,1,3.mid,experiment,1
67,149,31845,77,64,0,2,6,1,3.mid,experiment,1
68,151,32437,76,64,0,2,6,1,3.mid,experiment,1
69,153,32933,74,64,0,2,6,1,3.mid,experiment,1
70,155,33549,72,64,0,2,6,1,3.mid,experiment,1
71,156,33932,84,64,0,2,6,1,3.mid,experiment,1
72,158,34690,84,64,0,2,6,1,3.mid,experiment,1
1,19,8175,79,64,0,2,6,3,6.mid,experiment,1
2,21,8456,78,64,0,2,6,3,6.mid,experiment,1
3,23,8664,79,64,0,2,6,3,6.mid,experiment,1
4,25,8977,76,64,0,2,6,3,6.mid,experiment,1
5,26,9039,72,64,0,2,6,3,6.mid,experiment,1
6,28,9254,67,64,0,2,6,3,6.mid,experiment,1
7,30,9576,67,64,0,2,6,3,6.mid,experiment,1
8,32,9818,67,64,0,2,6,3,6.mid,experiment,1
9,35,10374,79,64,0,2,6,3,6.mid,experiment,1
10,37,10666,78,64,0,2,6,3,6.mid,experiment,1
11,39,10883,79,64,0,2,6,3,6.mid,experiment,1
12,41,11138,76,64,0,2,6,3,6.mid,experiment,1
13,43,11474,72,64,0,2,6,3,6.mid,experiment,1
14,45,11731,76,64,0,2,6,3,6.mid,experiment,1
15,47,11970,79,64,0,2,6,3,6.mid,experiment,1
16,49,12294,84,64,0,2,6,3,6.mid,experiment,1
17,50,12390,83,64,0,2,6,3,6.mid,experiment,1
18,52,12562,81,64,0,2,6,3,6.mid,experiment,1
19,54,12872,81,64,0,2,6,3,6.mid,experiment,1
20,56,13136,81,64,0,2,6,3,6.mid,experiment,1
21,59,13672,83,64,0,2,6,3,6.mid,experiment,1
22,61,13898,81,64,0,2,6,3,6.mid,experiment,1
23,63,14179,84,64,0,2,6,3,6.mid,experiment,1
24,65,14428,81,64,0,2,6,3,6.mid,experiment,1
25,66,14588,78,64,0,2,6,3,6.mid,experiment,1
26,68,14741,79,64,0,2,6,3,6.mid,experiment,1
27,70,15366,79,64,0,2,6,3,6.mid,experiment,1
28,72,16350,79,64,0,2,6,3,6.mid,experiment,1
29,74,16799,77,64,0,2,6,3,6.mid,experiment,1
30,76,17066,77,64,0,2,6,3,6.mid,experiment,1
31,78,17360,76,64,0,2,6,3,6.mid,experiment,1
32,80,17626,76,64,0,2,6,3,6.mid,experiment,1
33,82,18588,74,64,0,2,6,3,6.mid,experiment,1
34,84,19546,79,64,0,2,6,3,6.mid,experiment,1
35,86,20095,77,64,0,2,6,3,6.mid,experiment,1
36,88,20290,76,64,0,2,6,3,6.mid,experiment,1
37,90,20567,76,64,0,2,6,3,6.mid,experiment,1
38,92,20797,76,64,0,2,6,3,6.mid,experiment,1
39,94,21045,76,64,0,2,6,3,6.mid,experiment,1
40,97,21630,81,64,0,2,6,3,6.mid,experiment,1
41,99,21863,77,64,0,2,6,3,6.mid,experiment,1
42,101,22111,76,64,0,2,6,3,6.mid,experiment,1
43,103,22400,74,64,0,2,6,3,6.mid,experiment,1
44,105,22638,76,64,0,2,6,3,6.mid,experiment,1
45,107,22930,79,64,0,2,6,3,6.mid,experiment,1
46,109,23184,74,64,0,2,6,3,6.mid,experiment,1
47,110,23312,71,64,0,2,6,3,6.mid,experiment,1
48,112,23476,72,64,0,2,6,3,6.mid,experiment,1
49,114,23734,72,64,0,2,6,3,6.mid,experiment,1
50,116,23984,74,64,0,2,6,3,6.mid,experiment,1
51,118,24240,74,64,0,2,6,3,6.mid,experiment,1
52,120,25115,76,64,0,2,6,3,6.mid,experiment,1
53,122,25611,65,64,0,2,6,3,6.mid,experiment,1
54,122,,65,,0,2,6,3,6.mid,experiment,1
55,124,26150,64,64,0,2,6,3,6.mid,experiment,1
56,126,26430,64,64,0,2,6,3,6.mid,experiment,1
57,128,27384,62,64,0,2,6,3,6.mid,experiment,1
58,130,27867,67,64,0,2,6,3,6.mid,experiment,1
59,132,28162,67,64,0,2,6,3,6.mid,experiment,1
60,134,28409,71,64,0,2,6,3,6.mid,experiment,1
61,136,28692,71,64,0,2,6,3,6.mid,experiment,1
62,138,28940,72,64,0,2,6,3,6.mid,experiment,1
63,140,29198,72,64,0,2,6,3,6.mid,experiment,1
64,142,29448,73,64,0,2,6,3,6.mid,experiment,1
65,144,29698,73,64,0,2,6,3,6.mid,experiment,1
66,147,30596,74,64,0,2,6,3,6.mid,experiment,1
67,149,31158,77,64,0,2,6,3,6.mid,experiment,1
68,151,31686,76,64,0,2,6,3,6.mid,experiment,1
69,153,32182,74,64,0,2,6,3,6.mid,experiment,1
70,155,32774,72,64,0,2,6,3,6.mid,experiment,1
71,156,33167,84,64,0,2,6,3,6.mid,experiment,1
72,158,33954,84,64,0,2,6,3,6.mid,experiment,1
1,19,8079,79,64,0,2,6,4,11.mid,experiment,1
2,21,8388,78,64,0,2,6,4,11.mid,experiment,1
3,23,8591,79,64,0,2,6,4,11.mid,experiment,1
4,25,8905,76,64,0,2,6,4,11.mid,experiment,1
5,26,8974,72,64,0,2,6,4,11.mid,experiment,1
6,28,9235,67,64,0,2,6,4,11.mid,experiment,1
7,30,9505,67,64,0,2,6,4,11.mid,experiment,1
8,32,9766,67,64,0,2,6,4,11.mid,experiment,1
9,35,10284,79,64,0,2,6,4,11.mid,experiment,1
10,37,10593,78,64,0,2,6,4,11.mid,experiment,1
11,39,10819,79,64,0,2,6,4,11.mid,experiment,1
12,41,11086,76,64,0,2,6,4,11.mid,experiment,1
13,43,11411,72,64,0,2,6,4,11.mid,experiment,1
14,45,11671,76,64,0,2,6,4,11.mid,experiment,1
15,47,11910,79,64,0,2,6,4,11.mid,experiment,1
16,49,12207,84,64,0,2,6,4,11.mid,experiment,1
17,50,12357,83,64,0,2,6,4,11.mid,experiment,1
18,52,12488,81,64,0,2,6,4,11.mid,experiment,1
19,54,12777,81,64,0,2,6,4,11.mid,experiment,1
20,56,13030,81,64,0,2,6,4,11.mid,experiment,1
21,59,13580,83,64,0,2,6,4,11.mid,experiment,1
22,61,13818,81,64,0,2,6,4,11.mid,experiment,1
23,63,14096,84,64,0,2,6,4,11.mid,experiment,1
24,65,14340,81,64,0,2,6,4,11.mid,experiment,1
25,66,14529,78,64,0,2,6,4,11.mid,experiment,1
26,68,14699,79,64,0,2,6,4,11.mid,experiment,1
27,70,15268,79,64,0,2,6,4,11.mid,experiment,1
28,72,16317,79,64,0,2,6,4,11.mid,experiment,1
29,74,16679,77,64,0,2,6,4,11.mid,experiment,1
30,76,16984,77,64,0,2,6,4,11.mid,experiment,1
31,78,17237,76,64,0,2,6,4,11.mid,experiment,1
32,80,17504,76,64,0,2,6,4,11.mid,experiment,1
33,82,18481,74,64,0,2,6,4,11.mid,experiment,1
34,84,19324,79,64,0,2,6,4,11.mid,experiment,1
35,86,19927,77,64,0,2,6,4,11.mid,experiment,1
36,88,20184,76,64,0,2,6,4,11.mid,experiment,1
37,90,20683,76,64,0,2,6,4,11.mid,experiment,1
38,92,20935,76,64,0,2,6,4,11.mid,experiment,1
39,92,,76,,0,2,6,4,11.mid,experiment,1
40,95,21517,81,64,0,2,6,4,11.mid,experiment,1
41,97,21767,77,64,0,2,6,4,11.mid,experiment,1
42,99,22001,76,64,0,2,6,4,11.mid,experiment,1
43,101,22283,74,64,0,2,6,4,11.mid,experiment,1
44,103,22539,76,64,0,2,6,4,11.mid,experiment,1
45,105,22835,79,64,0,2,6,4,11.mid,experiment,1
46,107,23091,74,64,0,2,6,4,11.mid,experiment,1
47,108,23196,71,64,0,2,6,4,11.mid,experiment,1
48,110,23396,72,64,0,2,6,4,11.mid,experiment,1
49,112,23668,72,64,0,2,6,4,11.mid,experiment,1
50,114,23926,74,64,0,2,6,4,11.mid,experiment,1
51,116,24202,74,64,0,2,6,4,11.mid,experiment,1
52,118,25152,76,64,0,2,6,4,11.mid,experiment,1
53,120,25663,65,64,0,2,6,4,11.mid,experiment,1
54,122,26007,65,64,0,2,6,4,11.mid,experiment,1
55,124,26258,64,64,0,2,6,4,11.mid,experiment,1
56,126,26533,64,64,0,2,6,4,11.mid,experiment,1
57,128,27634,62,64,0,2,6,4,11.mid,experiment,1
58,130,27975,67,64,0,2,6,4,11.mid,experiment,1
59,132,28262,67,64,0,2,6,4,11.mid,experiment,1
60,134,28574,71,64,0,2,6,4,11.mid,experiment,1
61,136,28823,71,64,0,2,6,4,11.mid,experiment,1
62,138,29083,72,64,0,2,6,4,11.mid,experiment,1
63,140,29347,72,64,0,2,6,4,11.mid,experiment,1
64,142,29627,73,64,0,2,6,4,11.mid,experiment,1
65,144,29893,73,64,0,2,6,4,11.mid,experiment,1
66,146,30627,74,64,0,2,6,4,11.mid,experiment,1
67,148,31182,77,64,0,2,6,4,11.mid,experiment,1
68,150,31752,76,64,0,2,6,4,11.mid,experiment,1
69,152,32327,74,64,0,2,6,4,11.mid,experiment,1
70,154,32878,72,64,0,2,6,4,11.mid,experiment,1
71,156,33535,84,64,0,2,6,4,11.mid,experiment,1
72,158,34345,84,64,0,2,6,4,11.mid,experiment,1
1,19,8089,79,64,0,2,6,5,5.mid,experiment,1
2,21,8393,78,64,0,2,6,5,5.mid,experiment,1
3,23,8632,79,64,0,2,6,5,5.mid,experiment,1
4,25,8934,76,64,0,2,6,5,5.mid,experiment,1
5,26,9008,72,64,0,2,6,5,5.mid,experiment,1
6,28,9210,67,64,0,2,6,5,5.mid,experiment,1
7,30,9513,67,64,0,2,6,5,5.mid,experiment,1
8,32,9793,67,64,0,2,6,5,5.mid,experiment,1
9,35,10328,79,64,0,2,6,5,5.mid,experiment,1
10,37,10674,78,64,0,2,6,5,5.mid,experiment,1
11,39,10859,79,64,0,2,6,5,5.mid,experiment,1
12,41,11118,76,64,0,2,6,5,5.mid,experiment,1
13,43,11440,72,64,0,2,6,5,5.mid,experiment,1
14,45,11720,76,64,0,2,6,5,5.mid,experiment,1
15,47,11940,79,64,0,2,6,5,5.mid,experiment,1
16,49,12270,84,64,0,2,6,5,5.mid,experiment,1
17,50,12375,83,64,0,2,6,5,5.mid,experiment,1
18,52,12507,81,64,0,2,6,5,5.mid,experiment,1
19,54,12792,81,64,0,2,6,5,5.mid,experiment,1
20,56,13052,81,64,0,2,6,5,5.mid,experiment,1
21,59,13591,83,64,0,2,6,5,5.mid,experiment,1
22,61,13813,81,64,0,2,6,5,5.mid,experiment,1
23,63,14089,84,64,0,2,6,5,5.mid,experiment,1
24,65,14343,81,64,0,2,6,5,5.mid,experiment,1
25,66,14459,78,64,0,2,6,5,5.mid,experiment,1
26,68,14745,79,64,0,2,6,5,5.mid,experiment,1
27,70,15245,79,64,0,2,6,5,5.mid,experiment,1
28,72,16231,79,64,0,2,6,5,5.mid,experiment,1
29,74,16634,77,64,0,2,6,5,5.mid,experiment,1
30,76,16909,77,64,0,2,6,5,5.mid,experiment,1
31,78,17181,76,64,0,2,6,5,5.mid,experiment,1
32,80,17440,76,64,0,2,6,5,5.mid,experiment,1
33,82,18363,74,64,0,2,6,5,5.mid,experiment,1
34,84,19195,79,64,0,2,6,5,5.mid,experiment,1
35,86,19752,77,64,0,2,6,5,5.mid,experiment,1
36,88,19990,76,64,0,2,6,5,5.mid,experiment,1
37,90,20270,76,64,0,2,6,5,5.mid,experiment,1
38,92,20526,76,64,0,2,6,5,5.mid,experiment,1
39,94,20764,76,64,0,2,6,5,5.mid,experiment,1
40,97,21376,81,64,0,2,6,5,5.mid,experiment,1
41,99,21574,77,64,0,2,6,5,5.mid,experiment,1
42,101,21836,76,64,0,2,6,5,5.mid,experiment,1
43,103,22097,74,64,0,2,6,5,5.mid,experiment,1
44,105,22354,76,64,0,2,6,5,5.mid,experiment,1
45,107,22671,79,64,0,2,6,5,5.mid,experiment,1
46,109,22875,74,64,0,2,6,5,5.mid,experiment,1
47,110,23017,71,64,0,2,6,5,5.mid,experiment,1
48,112,23193,72,64,0,2,6,5,5.mid,experiment,1
49,114,23447,72,64,0,2,6,5,5.mid,experiment,1
50,116,23691,74,64,0,2,6,5,5.mid,experiment,1
51,118,23961,74,64,0,2,6,5,5.mid,experiment,1
52,120,24910,76,64,0,2,6,5,5.mid,experiment,1
53,122,25389,65,64,0,2,6,5,5.mid,experiment,1
54,124,25669,65,64,0,2,6,5,5.mid,experiment,1
55,126,25932,64,64,0,2,6,5,5.mid,experiment,1
56,128,26202,64,64,0,2,6,5,5.mid,experiment,1
57,130,27241,62,64,0,2,6,5,5.mid,experiment,1
58,132,27722,67,64,0,2,6,5,5.mid,experiment,1
59,132,,67,,0,2,6,5,5.mid,experiment,1
60,134,28259,71,64,0,2,6,5,5.mid,experiment,1
61,136,28517,71,64,0,2,6,5,5.mid,experiment,1
62,138,28777,72,64,0,2,6,5,5.mid,experiment,1
63,140,29038,72,64,0,2,6,5,5.mid,experiment,1
64,142,29302,73,64,0,2,6,5,5.mid,experiment,1
65,144,29557,73,64,0,2,6,5,5.mid,experiment,1
66,146,30278,74,64,0,2,6,5,5.mid,experiment,1
67,148,30826,77,64,0,2,6,5,5.mid,experiment,1
68,150,31385,76,64,0,2,6,5,5.mid,experiment,1
69,152,31931,74,64,0,2,6,5,5.mid,experiment,1
70,154,32421,72,64,0,2,6,5,5.mid,experiment,1
71,156,33086,84,64,0,2,6,5,5.mid,experiment,1
72,158,33870,84,64,0,2,6,5,5.mid,experiment,1
1,19,8105,79,64,0,2,6,7,7.mid,experiment,1
2,21,8387,78,64,0,2,6,7,7.mid,experiment,1
3,23,8626,79,64,0,2,6,7,7.mid,experiment,1
4,25,8927,76,64,0,2,6,7,7.mid,experiment,1
5,26,8994,72,64,0,2,6,7,7.mid,experiment,1
6,28,9206,67,64,0,2,6,7,7.mid,experiment,1
7,30,9489,67,64,0,2,6,7,7.mid,experiment,1
8,32,9733,67,64,0,2,6,7,7.mid,experiment,1
9,35,10299,79,64,0,2,6,7,7.mid,experiment,1
10,37,10608,78,64,0,2,6,7,7.mid,experiment,1
11,39,10837,79,64,0,2,6,7,7.mid,experiment,1
12,41,11073,76,64,0,2,6,7,7.mid,experiment,1
13,43,11391,72,64,0,2,6,7,7.mid,experiment,1
14,45,11651,76,64,0,2,6,7,7.mid,experiment,1
15,47,11878,79,64,0,2,6,7,7.mid,experiment,1
16,49,12178,84,64,0,2,6,7,7.mid,experiment,1
17,50,12269,83,64,0,2,6,7,7.mid,experiment,1
18,52,12431,81,64,0,2,6,7,7.mid,experiment,1
19,54,12718,81,64,0,2,6,7,7.mid,experiment,1
20,56,12990,81,64,0,2,6,7,7.mid,experiment,1
21,59,13545,83,64,0,2,6,7,7.mid,experiment,1
22,61,13765,81,64,0,2,6,7,7.mid,experiment,1
23,63,14023,84,64,0,2,6,7,7.mid,experiment,1
24,65,14297,81,64,0,2,6,7,7.mid,experiment,1
25,66,14438,78,64,0,2,6,7,7.mid,experiment,1
26,68,14649,79,64,0,2,6,7,7.mid,experiment,1
27,70,15217,79,64,0,2,6,7,7.mid,experiment,1
28,72,16148,79,64,0,2,6,7,7.mid,experiment,1
29,74,16590,77,64,0,2,6,7,7.mid,experiment,1
30,76,16881,77,64,0,2,6,7,7.mid,experiment,1
31,78,17140,76,64,0,2,6,7,7.mid,experiment,1
32,80,17406,76,64,0,2,6,7,7.mid,experiment,1
33,82,18315,74,64,0,2,6,7,7.mid,experiment,1
34,84,19271,79,64,0,2,6,7,7.mid,experiment,1
35,86,19828,77,64,0,2,6,7,7.mid,experiment,1
36,88,20049,76,64,0,2,6,7,7.mid,experiment,1
37,90,20308,76,64,0,2,6,7,7.mid,experiment,1
38,92,20566,76,64,0,2,6,7,7.mid,experiment,1
39,94,20802,76,64,0,2,6,7,7.mid,experiment,1
40,97,21388,81,64,0,2,6,7,7.mid,experiment,1
41,99,21615,77,64,0,2,6,7,7.mid,experiment,1
42,101,21850,76,64,0,2,6,7,7.mid,experiment,1
43,103,22129,74,64,0,2,6,7,7.mid,experiment,1
44,105,22384,76,64,0,2,6,7,7.mid,experiment,1
45,107,22658,79,64,0,2,6,7,7.mid,experiment,1
46,109,22916,74,64,0,2,6,7,7.mid,experiment,1
47,110,23022,71,64,0,2,6,7,7.mid,experiment,1
48,112,23213,72,64,0,2,6,7,7.mid,experiment,1
49,114,23481,72,64,0,2,6,7,7.mid,experiment,1
50,116,23733,74,64,0,2,6,7,7.mid,experiment,1
51,118,23989,74,64,0,2,6,7,7.mid,experiment,1
52,120,24906,76,64,0,2,6,7,7.mid,experiment,1
53,122,25376,65,64,0,2,6,7,7.mid,experiment,1
54,122,,65,,0,2,6,7,7.mid,experiment,1
55,124,25921,64,64,0,2,6,7,7.mid,experiment,1
56,126,26196,64,64,0,2,6,7,7.mid,experiment,1
57,128,27078,62,64,0,2,6,7,7.mid,experiment,1
58,130,27530,67,64,0,2,6,7,7.mid,experiment,1
59,132,27848,67,64,0,2,6,7,7.mid,experiment,1
60,134,28356,71,64,0,2,6,7,7.mid,experiment,1
61,134,,71,,0,2,6,7,7.mid,experiment,1
62,136,28615,72,64,0,2,6,7,7.mid,experiment,1
63,138,28887,72,64,0,2,6,7,7.mid,experiment,1
64,140,29134,73,64,0,2,6,7,7.mid,experiment,1
65,142,29377,73,64,0,2,6,7,7.mid,experiment,1
66,144,30090,74,64,0,2,6,7,7.mid,experiment,1
67,146,30630,77,64,0,2,6,7,7.mid,experiment,1
68,148,31148,76,64,0,2,6,7,7.mid,experiment,1
69,150,31705,74,64,0,2,6,7,7.mid,experiment,1
70,152,32245,72,64,0,2,6,7,7.mid,experiment,1
71,154,32803,84,64,0,2,6,7,7.mid,experiment,1
72,156,33688,84,64,0,2,6,7,7.mid,experiment,1
1,19,8083,79,64,0,2,6,9,14.mid,experiment,1
2,21,8413,78,64,0,2,6,9,14.mid,experiment,1
3,23,8621,79,64,0,2,6,9,14.mid,experiment,1
4,25,8938,76,64,0,2,6,9,14.mid,experiment,1
5,26,8992,72,64,0,2,6,9,14.mid,experiment,1
6,28,9194,67,64,0,2,6,9,14.mid,experiment,1
7,30,9489,67,64,0,2,6,9,14.mid,experiment,1
8,32,9738,67,64,0,2,6,9,14.mid,experiment,1
9,35,10304,79,64,0,2,6,9,14.mid,experiment,1
10,37,10598,78,64,0,2,6,9,14.mid,experiment,1
11,39,10828,79,64,0,2,6,9,14.mid,experiment,1
12,41,11057,76,64,0,2,6,9,14.mid,experiment,1
13,43,11393,72,64,0,2,6,9,14.mid,experiment,1
14,45,11645,76,64,0,2,6,9,14.mid,experiment,1
15,47,11874,79,64,0,2,6,9,14.mid,experiment,1
16,49,12181,84,64,0,2,6,9,14.mid,experiment,1
17,50,12277,83,64,0,2,6,9,14.mid,experiment,1
18,52,12715,81,64,0,2,6,9,14.mid,experiment,1
19,54,12969,81,64,0,2,6,9,14.mid,experiment,1
20,54,,81,,0,2,6,9,14.mid,experiment,1
21,57,13517,83,64,0,2,6,9,14.mid,experiment,1
22,59,13743,81,64,0,2,6,9,14.mid,experiment,1
23,61,14010,84,64,0,2,6,9,14.mid,experiment,1
24,63,14256,81,64,0,2,6,9,14.mid,experiment,1
25,64,14396,78,64,0,2,6,9,14.mid,experiment,1
26,66,14525,79,64,0,2,6,9,14.mid,experiment,1
27,68,15139,79,64,0,2,6,9,14.mid,experiment,1
28,70,16099,79,64,0,2,6,9,14.mid,experiment,1
29,72,16527,77,64,0,2,6,9,14.mid,experiment,1
30,72,,77,,0,2,6,9,14.mid,experiment,1
31,74,17075,76,64,0,2,6,9,14.mid,experiment,1
32,76,17323,76,64,0,2,6,9,14.mid,experiment,1
33,78,18268,74,64,0,2,6,9,14.mid,experiment,1
34,80,19072,79,64,0,2,6,9,14.mid,experiment,1
35,82,19574,77,64,0,2,6,9,14.mid,experiment,1
36,84,19788,76,64,0,2,6,9,14.mid,experiment,1
37,86,20084,76,64,0,2,6,9,14.mid,experiment,1
38,88,20584,76,64,0,2,6,9,14.mid,experiment,1
39,88,,76,,0,2,6,9,14.mid,experiment,1
40,91,21168,81,64,0,2,6,9,14.mid,experiment,1
41,93,21377,77,64,0,2,6,9,14.mid,experiment,1
42,95,21616,76,64,0,2,6,9,14.mid,experiment,1
43,97,21866,74,64,0,2,6,9,14.mid,experiment,1
44,99,22118,76,64,0,2,6,9,14.mid,experiment,1
45,101,22404,79,64,0,2,6,9,14.mid,experiment,1
46,103,22620,74,64,0,2,6,9,14.mid,experiment,1
47,104,22718,71,64,0,2,6,9,14.mid,experiment,1
48,106,22914,72,64,0,2,6,9,14.mid,experiment,1
49,108,23176,72,64,0,2,6,9,14.mid,experiment,1
50,110,23432,74,64,0,2,6,9,14.mid,experiment,1
51,112,23689,74,64,0,2,6,9,14.mid,experiment,1
52,114,24608,76,64,0,2,6,9,14.mid,experiment,1
53,116,25077,65,64,0,2,6,9,14.mid,experiment,1
54,118,25364,65,64,0,2,6,9,14.mid,experiment,1
55,120,25653,64,64,0,2,6,9,14.mid,experiment,1
56,122,25906,64,64,0,2,6,9,14.mid,experiment,1
57,124,26919,62,64,0,2,6,9,14.mid,experiment,1
58,126,27375,67,64,0,2,6,9,14.mid,experiment,1
59,128,27636,67,64,0,2,6,9,14.mid,experiment,1
60,130,27934,71,64,0,2,6,9,14.mid,experiment,1
61,132,28177,71,64,0,2,6,9,14.mid,experiment,1
62,134,28436,72,64,0,2,6,9,14.mid,experiment,1
63,136,28710,72,64,0,2,6,9,14.mid,experiment,1
64,138,28965,73,64,0,2,6,9,14.mid,experiment,1
65,140,29212,73,64,0,2,6,9,14.mid,experiment,1
66,142,29938,74,64,0,2,6,9,14.mid,experiment,1
67,144,30499,77,64,0,2,6,9,14.mid,experiment,1
68,146,31025,76,64,0,2,6,9,14.mid,experiment,1
69,148,31572,74,64,0,2,6,9,14.mid,experiment,1
70,150,32045,72,64,0,2,6,9,14.mid,experiment,1
71,152,32675,84,64,0,2,6,9,14.mid,experiment,1
72,154,33528,84,64,0,2,6,9,14.mid,experiment,1
1,19,8076,79,64,0,2,6,13,13.mid,experiment,1
2,21,8387,78,64,0,2,6,13,13.mid,experiment,1
3,23,8592,79,64,0,2,6,13,13.mid,experiment,1
4,25,8897,76,64,0,2,6,13,13.mid,experiment,1
5,26,8941,72,64,0,2,6,13,13.mid,experiment,1
6,28,9168,67,64,0,2,6,13,13.mid,experiment,1
7,30,9449,67,64,0,2,6,13,13.mid,experiment,1
8,32,9686,67,64,0,2,6,13,13.mid,experiment,1
9,35,10239,79,64,0,2,6,13,13.mid,experiment,1
10,37,10558,78,64,0,2,6,13,13.mid,experiment,1
11,39,10779,79,64,0,2,6,13,13.mid,experiment,1
12,41,11010,76,64,0,2,6,13,13.mid,experiment,1
13,43,11322,72,64,0,2,6,13,13.mid,experiment,1
14,45,11597,76,64,0,2,6,13,13.mid,experiment,1
15,47,11816,79,64,0,2,6,13,13.mid,experiment,1
16,49,12134,84,64,0,2,6,13,13.mid,experiment,1
17,50,12250,83,64,0,2,6,13,13.mid,experiment,1
18,52,12381,81,64,0,2,6,13,13.mid,experiment,1
19,54,12645,81,64,0,2,6,13,13.mid,experiment,1
20,56,12903,81,64,0,2,6,13,13.mid,experiment,1
21,59,13480,83,64,0,2,6,13,13.mid,experiment,1
22,61,13705,81,64,0,2,6,13,13.mid,experiment,1
23,63,13976,84,64,0,2,6,13,13.mid,experiment,1
24,65,14217,81,64,0,2,6,13,13.mid,experiment,1
25,66,14363,78,64,0,2,6,13,13.mid,experiment,1
26,68,14558,79,64,0,2,6,13,13.mid,experiment,1
27,70,15099,79,64,0,2,6,13,13.mid,experiment,1
28,72,15965,79,64,0,2,6,13,13.mid,experiment,1
29,74,16415,77,64,0,2,6,13,13.mid,experiment,1
30,76,16707,77,64,0,2,6,13,13.mid,experiment,1
31,78,17001,76,64,0,2,6,13,13.mid,experiment,1
32,80,17239,76,64,0,2,6,13,13.mid,experiment,1
33,82,18119,74,64,0,2,6,13,13.mid,experiment,1
34,84,19023,79,64,0,2,6,13,13.mid,experiment,1
35,86,19640,77,64,0,2,6,13,13.mid,experiment,1
36,88,20108,76,64,0,2,6,13,13.mid,experiment,1
37,90,20365,76,64,0,2,6,13,13.mid,experiment,1
38,92,20637,76,64,0,2,6,13,13.mid,experiment,1
39,92,,76,,0,2,6,13,13.mid,experiment,1
40,95,21161,81,64,0,2,6,13,13.mid,experiment,1
41,97,21381,77,64,0,2,6,13,13.mid,experiment,1
42,99,21613,76,64,0,2,6,13,13.mid,experiment,1
43,101,21875,74,64,0,2,6,13,13.mid,experiment,1
44,103,22132,76,64,0,2,6,13,13.mid,experiment,1
45,105,22399,79,64,0,2,6,13,13.mid,experiment,1
46,107,22686,74,64,0,2,6,13,13.mid,experiment,1
47,108,22789,71,64,0,2,6,13,13.mid,experiment,1
48,110,22966,72,64,0,2,6,13,13.mid,experiment,1
49,112,23233,72,64,0,2,6,13,13.mid,experiment,1
50,114,23484,74,64,0,2,6,13,13.mid,experiment,1
51,116,23751,74,64,0,2,6,13,13.mid,experiment,1
52,118,24657,76,64,0,2,6,13,13.mid,experiment,1
53,120,25163,65,64,0,2,6,13,13.mid,experiment,1
54,122,25465,65,64,0,2,6,13,13.mid,experiment,1
55,124,25734,64,64,0,2,6,13,13.mid,experiment,1
56,126,25994,64,64,0,2,6,13,13.mid,experiment,1
57,128,26882,62,64,0,2,6,13,13.mid,experiment,1
58,130,27452,67,64,0,2,6,13,13.mid,experiment,1
59,132,27747,67,64,0,2,6,13,13.mid,experiment,1
60,134,28005,71,64,0,2,6,13,13.mid,experiment,1
61,136,28294,71,64,0,2,6,13,13.mid,experiment,1
62,138,28532,72,64,0,2,6,13,13.mid,experiment,1
63,140,28802,72,64,0,2,6,13,13.mid,experiment,1
64,142,29080,73,64,0,2,6,13,13.mid,experiment,1
65,144,29332,73,64,0,2,6,13,13.mid,experiment,1
66,146,30049,74,64,0,2,6,13,13.mid,experiment,1
67,148,30627,77,64,0,2,6,13,13.mid,experiment,1
68,150,31177,76,64,0,2,6,13,13.mid,experiment,1
69,152,31691,74,64,0,2,6,13,13.mid,experiment,1
70,154,32208,72,64,0,2,6,13,13.mid,experiment,1
71,156,32885,84,64,0,2,6,13,13.mid,experiment,1
72,158,33730,84,64,0,2,6,13,13.mid,experiment,1
1,19,8094,79,64,0,2,6,16,4.mid,experiment,1
2,21,8349,78,64,0,2,6,16,4.mid,experiment,1
3,23,8605,79,64,0,2,6,16,4.mid,experiment,1
4,25,8908,76,64,0,2,6,16,4.mid,experiment,1
5,26,8961,72,64,0,2,6,16,4.mid,experiment,1
6,28,9167,67,64,0,2,6,16,4.mid,experiment,1
7,30,9458,67,64,0,2,6,16,4.mid,experiment,1
8,32,9703,67,64,0,2,6,16,4.mid,experiment,1
9,35,10246,79,64,0,2,6,16,4.mid,experiment,1
10,37,10539,78,64,0,2,6,16,4.mid,experiment,1
11,39,10749,79,64,0,2,6,16,4.mid,experiment,1
12,41,10996,76,64,0,2,6,16,4.mid,experiment,1
13,43,11333,72,64,0,2,6,16,4.mid,experiment,1
14,45,11577,76,64,0,2,6,16,4.mid,experiment,1
15,47,11806,79,64,0,2,6,16,4.mid,experiment,1
16,49,12132,84,64,0,2,6,16,4.mid,experiment,1
17,50,12224,83,64,0,2,6,16,4.mid,experiment,1
18,52,12384,81,64,0,2,6,16,4.mid,experiment,1
19,54,12634,81,64,0,2,6,16,4.mid,experiment,1
20,56,12908,81,64,0,2,6,16,4.mid,experiment,1
21,59,13463,83,64,0,2,6,16,4.mid,experiment,1
22,61,13676,81,64,0,2,6,16,4.mid,experiment,1
23,63,13959,84,64,0,2,6,16,4.mid,experiment,1
24,65,14211,81,64,0,2,6,16,4.mid,experiment,1
25,66,14356,78,64,0,2,6,16,4.mid,experiment,1
26,68,14584,79,64,0,2,6,16,4.mid,experiment,1
27,70,15136,79,64,0,2,6,16,4.mid,experiment,1
28,72,16025,79,64,0,2,6,16,4.mid,experiment,1
29,74,16476,77,64,0,2,6,16,4.mid,experiment,1
30,76,16793,77,64,0,2,6,16,4.mid,experiment,1
31,78,17066,76,64,0,2,6,16,4.mid,experiment,1
32,80,17336,76,64,0,2,6,16,4.mid,experiment,1
33,82,18211,74,64,0,2,6,16,4.mid,experiment,1
34,84,19093,79,64,0,2,6,16,4.mid,experiment,1
35,86,19667,77,64,0,2,6,16,4.mid,experiment,1
36,88,19870,76,64,0,2,6,16,4.mid,experiment,1
37,90,20141,76,64,0,2,6,16,4.mid,experiment,1
38,92,20380,76,64,0,2,6,16,4.mid,experiment,1
39,94,20627,76,64,0,2,6,16,4.mid,experiment,1
40,97,21227,81,64,0,2,6,16,4.mid,experiment,1
41,99,21473,77,64,0,2,6,16,4.mid,experiment,1
42,101,21698,76,64,0,2,6,16,4.mid,experiment,1
43,103,21981,74,64,0,2,6,16,4.mid,experiment,1
44,105,22214,76,64,0,2,6,16,4.mid,experiment,1
45,107,22488,79,64,0,2,6,16,4.mid,experiment,1
46,109,22761,74,64,0,2,6,16,4.mid,experiment,1
47,110,22871,71,64,0,2,6,16,4.mid,experiment,1
48,112,23034,72,64,0,2,6,16,4.mid,experiment,1
49,114,23296,72,64,0,2,6,16,4.mid,experiment,1
50,116,23548,74,64,0,2,6,16,4.mid,experiment,1
51,118,23802,74,64,0,2,6,16,4.mid,experiment,1
52,120,24682,76,64,0,2,6,16,4.mid,experiment,1
53,122,25180,65,64,0,2,6,16,4.mid,experiment,1
54,122,,65,,0,2,6,16,4.mid,experiment,1
55,124,25727,64,64,0,2,6,16,4.mid,experiment,1
56,126,25991,64,64,0,2,6,16,4.mid,experiment,1
57,128,27030,62,64,0,2,6,16,4.mid,experiment,1
58,130,27386,67,64,0,2,6,16,4.mid,experiment,1
59,132,27685,67,64,0,2,6,16,4.mid,experiment,1
60,134,27928,71,64,0,2,6,16,4.mid,experiment,1
61,136,28186,71,64,0,2,6,16,4.mid,experiment,1
62,138,28433,72,64,0,2,6,16,4.mid,experiment,1
63,140,28699,72,64,0,2,6,16,4.mid,experiment,1
64,142,28947,73,64,0,2,6,16,4.mid,experiment,1
65,144,29190,73,64,0,2,6,16,4.mid,experiment,1
66,146,29941,74,64,0,2,6,16,4.mid,experiment,1
67,148,30451,77,64,0,2,6,16,4.mid,experiment,1
68,150,30994,76,64,0,2,6,16,4.mid,experiment,1
69,152,31542,74,64,0,2,6,16,4.mid,experiment,1
70,154,32110,72,64,0,2,6,16,4.mid,experiment,1
71,156,32634,84,64,0,2,6,16,4.mid,experiment,1
72,158,33513,84,64,0,2,6,16,4.mid,experiment,1
1,19,8299,79,64,0,2,7,1,16.mid,experiment,1
2,21,8689,78,64,0,2,7,1,16.mid,experiment,1
3,23,8939,79,64,0,2,7,1,16.mid,experiment,1
4,25,9262,76,64,0,2,7,1,16.mid,experiment,1
5,26,9348,72,64,0,2,7,1,16.mid,experiment,1
6,28,9582,67,64,0,2,7,1,16.mid,experiment,1
7,30,9865,67,64,0,2,7,1,16.mid,experiment,1
8,32,10178,67,64,0,2,7,1,16.mid,experiment,1
9,35,10847,79,64,0,2,7,1,16.mid,experiment,1
10,37,11189,78,64,0,2,7,1,16.mid,experiment,1
11,39,11451,79,64,0,2,7,1,16.mid,experiment,1
12,40,11706,76,64,0,2,7,1,16.mid,experiment,1
13,43,12079,72,64,0,2,7,1,16.mid,experiment,1
14,45,12428,76,64,0,2,7,1,16.mid,experiment,1
15,47,12691,79,64,0,2,7,1,16.mid,experiment,1
16,49,13068,84,64,0,2,7,1,16.mid,experiment,1
17,50,13178,83,64,0,2,7,1,16.mid,experiment,1
18,52,13689,81,64,0,2,7,1,16.mid,experiment,1
19,52,,81,,0,2,7,1,16.mid,experiment,1
20,52,,81,,0,2,7,1,16.mid,experiment,1
21,55,14648,83,64,0,2,7,1,16.mid,experiment,1
22,57,14893,81,64,0,2,7,1,16.mid,experiment,1
23,59,15158,84,64,0,2,7,1,16.mid,experiment,1
24,60,15325,81,64,0,2,7,1,16.mid,experiment,1
25,62,15702,78,64,0,2,7,1,16.mid,experiment,1
26,64,15866,79,64,0,2,7,1,16.mid,experiment,1
27,66,16339,79,64,0,2,7,1,16.mid,experiment,1
28,68,17371,79,64,0,2,7,1,16.mid,experiment,1
29,70,18034,77,64,0,2,7,1,16.mid,experiment,1
30,72,18322,77,64,0,2,7,1,16.mid,experiment,1
31,74,18630,76,64,0,2,7,1,16.mid,experiment,1
32,76,18920,76,64,0,2,7,1,16.mid,experiment,1
33,78,20045,74,64,0,2,7,1,16.mid,experiment,1
34,80,20950,79,64,0,2,7,1,16.mid,experiment,1
35,82,21372,77,64,0,2,7,1,16.mid,experiment,1
36,84,21771,76,64,0,2,7,1,16.mid,experiment,1
37,86,22060,76,64,0,2,7,1,16.mid,experiment,1
38,88,22356,76,64,0,2,7,1,16.mid,experiment,1
39,90,22671,76,64,0,2,7,1,16.mid,experiment,1
40,93,23447,81,64,0,2,7,1,16.mid,experiment,1
41,95,23675,77,64,0,2,7,1,16.mid,experiment,1
42,97,23948,76,64,0,2,7,1,16.mid,experiment,1
43,99,24267,74,64,0,2,7,1,16.mid,experiment,1
44,101,24569,76,64,0,2,7,1,16.mid,experiment,1
45,103,24893,79,64,0,2,7,1,16.mid,experiment,1
46,104,25105,74,64,0,2,7,1,16.mid,experiment,1
47,106,25182,71,64,0,2,7,1,16.mid,experiment,1
48,108,25466,72,64,0,2,7,1,16.mid,experiment,1
49,110,25772,72,64,0,2,7,1,16.mid,experiment,1
50,112,26060,74,64,0,2,7,1,16.mid,experiment,1
51,114,26382,74,64,0,2,7,1,16.mid,experiment,1
52,116,27250,76,64,0,2,7,1,16.mid,experiment,1
53,118,27946,65,64,0,2,7,1,16.mid,experiment,1
54,120,28245,65,64,0,2,7,1,16.mid,experiment,1
55,122,28557,64,64,0,2,7,1,16.mid,experiment,1
56,124,28863,64,64,0,2,7,1,16.mid,experiment,1
57,126,29820,62,64,0,2,7,1,16.mid,experiment,1
58,128,30380,67,64,0,2,7,1,16.mid,experiment,1
59,130,30677,67,64,0,2,7,1,16.mid,experiment,1
60,132,31264,71,64,0,2,7,1,16.mid,experiment,1
61,132,,71,,0,2,7,1,16.mid,experiment,1
62,134,31547,72,64,0,2,7,1,16.mid,experiment,1
63,136,31829,72,64,0,2,7,1,16.mid,experiment,1
64,138,32169,73,64,0,2,7,1,16.mid,experiment,1
65,140,32457,73,64,0,2,7,1,16.mid,experiment,1
66,143,33322,74,64,0,2,7,1,16.mid,experiment,1
67,144,33857,77,64,0,2,7,1,16.mid,experiment,1
68,146,34473,76,64,0,2,7,1,16.mid,experiment,1
69,148,35008,74,64,0,2,7,1,16.mid,experiment,1
70,150,35567,72,64,0,2,7,1,16.mid,experiment,1
71,152,36111,84,64,0,2,7,1,16.mid,experiment,1
72,154,37131,84,64,0,2,7,1,16.mid,experiment,1
1,19,8303,79,64,0,2,7,3,7.mid,experiment,1
2,21,8693,78,64,0,2,7,3,7.mid,experiment,1
3,23,8878,79,64,0,2,7,3,7.mid,experiment,1
4,25,9191,76,64,0,2,7,3,7.mid,experiment,1
5,26,9247,72,64,0,2,7,3,7.mid,experiment,1
6,28,9476,67,64,0,2,7,3,7.mid,experiment,1
7,30,9770,67,64,0,2,7,3,7.mid,experiment,1
8,32,10071,67,64,0,2,7,3,7.mid,experiment,1
9,35,10743,79,64,0,2,7,3,7.mid,experiment,1
10,37,11025,78,64,0,2,7,3,7.mid,experiment,1
11,39,11302,79,64,0,2,7,3,7.mid,experiment,1
12,40,11552,76,64,0,2,7,3,7.mid,experiment,1
13,43,11928,72,64,0,2,7,3,7.mid,experiment,1
14,45,12225,76,64,0,2,7,3,7.mid,experiment,1
15,47,12467,79,64,0,2,7,3,7.mid,experiment,1
16,49,12792,84,64,0,2,7,3,7.mid,experiment,1
17,50,12922,83,64,0,2,7,3,7.mid,experiment,1
18,52,13127,81,64,0,2,7,3,7.mid,experiment,1
19,54,13422,81,64,0,2,7,3,7.mid,experiment,1
20,56,13714,81,64,0,2,7,3,7.mid,experiment,1
21,59,14346,83,64,0,2,7,3,7.mid,experiment,1
22,61,14594,81,64,0,2,7,3,7.mid,experiment,1
23,62,14872,84,64,0,2,7,3,7.mid,experiment,1
24,65,15167,81,64,0,2,7,3,7.mid,experiment,1
25,66,15322,78,64,0,2,7,3,7.mid,experiment,1
26,68,15501,79,64,0,2,7,3,7.mid,experiment,1
27,70,15979,79,64,0,2,7,3,7.mid,experiment,1
28,72,16980,79,64,0,2,7,3,7.mid,experiment,1
29,74,17610,77,64,0,2,7,3,7.mid,experiment,1
30,76,17914,77,64,0,2,7,3,7.mid,experiment,1
31,78,18203,76,64,0,2,7,3,7.mid,experiment,1
32,80,18497,76,64,0,2,7,3,7.mid,experiment,1
33,82,19426,74,64,0,2,7,3,7.mid,experiment,1
34,84,20490,79,64,0,2,7,3,7.mid,experiment,1
35,86,20934,77,64,0,2,7,3,7.mid,experiment,1
36,88,21293,76,64,0,2,7,3,7.mid,experiment,1
37,90,21579,76,64,0,2,7,3,7.mid,experiment,1
38,92,21866,76,64,0,2,7,3,7.mid,experiment,1
39,94,22167,76,64,0,2,7,3,7.mid,experiment,1
40,97,22891,81,64,0,2,7,3,7.mid,experiment,1
41,99,23108,77,64,0,2,7,3,7.mid,experiment,1
42,101,23356,76,64,0,2,7,3,7.mid,experiment,1
43,103,23702,74,64,0,2,7,3,7.mid,experiment,1
44,105,23970,76,64,0,2,7,3,7.mid,experiment,1
45,107,24313,79,64,0,2,7,3,7.mid,experiment,1
46,108,24522,74,64,0,2,7,3,7.mid,experiment,1
47,110,24596,71,64,0,2,7,3,7.mid,experiment,1
48,112,24900,72,64,0,2,7,3,7.mid,experiment,1
49,114,25182,72,64,0,2,7,3,7.mid,experiment,1
50,116,25474,74,64,0,2,7,3,7.mid,experiment,1
51,118,25770,74,64,0,2,7,3,7.mid,experiment,1
52,120,26687,76,64,0,2,7,3,7.mid,experiment,1
53,122,27304,65,64,0,2,7,3,7.mid,experiment,1
54,124,27606,65,64,0,2,7,3,7.mid,experiment,1
55,126,27929,64,64,0,2,7,3,7.mid,experiment,1
56,128,28231,64,64,0,2,7,3,7.mid,experiment,1
57,130,29226,62,64,0,2,7,3,7.mid,experiment,1
58,132,29776,67,64,0,2,7,3,7.mid,experiment,1
59,134,30053,67,64,0,2,7,3,7.mid,experiment,1
60,134,,71,,0,2,7,3,7.mid,experiment,1
61,134,,71,,0,2,7,3,7.mid,experiment,1
62,136,30929,72,64,0,2,7,3,7.mid,experiment,1
63,138,31196,72,64,0,2,7,3,7.mid,experiment,1
64,140,31484,73,64,0,2,7,3,7.mid,experiment,1
65,142,31782,73,64,0,2,7,3,7.mid,experiment,1
66,145,32669,74,64,0,2,7,3,7.mid,experiment,1
67,146,33240,77,64,0,2,7,3,7.mid,experiment,1
68,148,33820,76,64,0,2,7,3,7.mid,experiment,1
69,150,34380,74,64,0,2,7,3,7.mid,experiment,1
70,152,34913,72,64,0,2,7,3,7.mid,experiment,1
71,154,35350,84,64,0,2,7,3,7.mid,experiment,1
72,156,36396,84,64,0,2,7,3,7.mid,experiment,1
1,19,8236,79,64,0,2,7,8,4.mid,experiment,1
2,21,8534,78,64,0,2,7,8,4.mid,experiment,1
3,23,8756,79,64,0,2,7,8,4.mid,experiment,1
4,25,9078,76,64,0,2,7,8,4.mid,experiment,1
5,26,9148,72,64,0,2,7,8,4.mid,experiment,1
6,28,9340,67,64,0,2,7,8,4.mid,experiment,1
7,30,9638,67,64,0,2,7,8,4.mid,experiment,1
8,32,9912,67,64,0,2,7,8,4.mid,experiment,1
9,35,10480,79,64,0,2,7,8,4.mid,experiment,1
10,37,10780,78,64,0,2,7,8,4.mid,experiment,1
11,39,11028,79,64,0,2,7,8,4.mid,experiment,1
12,40,11244,76,64,0,2,7,8,4.mid,experiment,1
13,43,11602,72,64,0,2,7,8,4.mid,experiment,1
14,45,11856,76,64,0,2,7,8,4.mid,experiment,1
15,47,12078,79,64,0,2,7,8,4.mid,experiment,1
16,49,12400,84,64,0,2,7,8,4.mid,experiment,1
17,50,12494,83,64,0,2,7,8,4.mid,experiment,1
18,52,12679,81,64,0,2,7,8,4.mid,experiment,1
19,54,12953,81,64,0,2,7,8,4.mid,experiment,1
20,56,13228,81,64,0,2,7,8,4.mid,experiment,1
21,59,13779,83,64,0,2,7,8,4.mid,experiment,1
22,61,14048,81,64,0,2,7,8,4.mid,experiment,1
23,62,14294,84,64,0,2,7,8,4.mid,experiment,1
24,65,14615,81,64,0,2,7,8,4.mid,experiment,1
25,66,14740,78,64,0,2,7,8,4.mid,experiment,1
26,68,14934,79,64,0,2,7,8,4.mid,experiment,1
27,70,15369,79,64,0,2,7,8,4.mid,experiment,1
28,72,16236,79,64,0,2,7,8,4.mid,experiment,1
29,74,17016,77,64,0,2,7,8,4.mid,experiment,1
30,76,17288,77,64,0,2,7,8,4.mid,experiment,1
31,78,17580,76,64,0,2,7,8,4.mid,experiment,1
32,80,17866,76,64,0,2,7,8,4.mid,experiment,1
33,82,18710,74,64,0,2,7,8,4.mid,experiment,1
34,84,19772,79,64,0,2,7,8,4.mid,experiment,1
35,86,20186,77,64,0,2,7,8,4.mid,experiment,1
36,88,20491,76,64,0,2,7,8,4.mid,experiment,1
37,90,20762,76,64,0,2,7,8,4.mid,experiment,1
38,92,21051,76,64,0,2,7,8,4.mid,experiment,1
39,94,21321,76,64,0,2,7,8,4.mid,experiment,1
40,97,22072,81,64,0,2,7,8,4.mid,experiment,1
41,99,22216,77,64,0,2,7,8,4.mid,experiment,1
42,101,22436,76,64,0,2,7,8,4.mid,experiment,1
43,103,22756,74,64,0,2,7,8,4.mid,experiment,1
44,105,23060,76,64,0,2,7,8,4.mid,experiment,1
45,107,23379,79,64,0,2,7,8,4.mid,experiment,1
46,108,23540,74,64,0,2,7,8,4.mid,experiment,1
47,110,23594,71,64,0,2,7,8,4.mid,experiment,1
48,112,23956,72,64,0,2,7,8,4.mid,experiment,1
49,114,24200,72,64,0,2,7,8,4.mid,experiment,1
50,116,24490,74,64,0,2,7,8,4.mid,experiment,1
51,118,24768,74,64,0,2,7,8,4.mid,experiment,1
52,120,25540,76,64,0,2,7,8,4.mid,experiment,1
53,122,26240,65,64,0,2,7,8,4.mid,experiment,1
54,124,26522,65,64,0,2,7,8,4.mid,experiment,1
55,126,27060,64,64,0,2,7,8,4.mid,experiment,1
56,126,,64,,0,2,7,8,4.mid,experiment,1
57,128,27830,62,64,0,2,7,8,4.mid,experiment,1
58,130,28534,67,64,0,2,7,8,4.mid,experiment,1
59,132,28794,67,64,0,2,7,8,4.mid,experiment,1
60,134,29112,71,64,0,2,7,8,4.mid,experiment,1
61,136,29362,71,64,0,2,7,8,4.mid,experiment,1
62,138,29637,72,64,0,2,7,8,4.mid,experiment,1
63,140,29908,72,64,0,2,7,8,4.mid,experiment,1
64,142,30224,73,64,0,2,7,8,4.mid,experiment,1
65,144,30484,73,64,0,2,7,8,4.mid,experiment,1
66,147,31365,74,64,0,2,7,8,4.mid,experiment,1
67,149,31909,77,64,0,2,7,8,4.mid,experiment,1
68,151,32526,76,64,0,2,7,8,4.mid,experiment,1
69,152,33050,74,64,0,2,7,8,4.mid,experiment,1
70,154,33587,72,64,0,2,7,8,4.mid,experiment,1
71,156,33940,84,64,0,2,7,8,4.mid,experiment,1
72,158,34972,84,64,0,2,7,8,4.mid,experiment,1
1,19,8190,79,64,0,2,7,9,5.mid,experiment,1
2,21,8616,78,64,0,2,7,9,5.mid,experiment,1
3,23,8747,79,64,0,2,7,9,5.mid,experiment,1
4,25,9067,76,64,0,2,7,9,5.mid,experiment,1
5,26,9102,72,64,0,2,7,9,5.mid,experiment,1
6,28,9344,67,64,0,2,7,9,5.mid,experiment,1
7,30,9609,67,64,0,2,7,9,5.mid,experiment,1
8,32,9886,67,64,0,2,7,9,5.mid,experiment,1
9,35,10504,79,64,0,2,7,9,5.mid,experiment,1
10,37,10801,78,64,0,2,7,9,5.mid,experiment,1
11,39,11038,79,64,0,2,7,9,5.mid,experiment,1
12,40,11283,76,64,0,2,7,9,5.mid,experiment,1
13,43,11637,72,64,0,2,7,9,5.mid,experiment,1
14,45,11930,76,64,0,2,7,9,5.mid,experiment,1
15,47,12145,79,64,0,2,7,9,5.mid,experiment,1
16,49,12453,84,64,0,2,7,9,5.mid,experiment,1
17,50,12526,83,64,0,2,7,9,5.mid,experiment,1
18,52,12754,81,64,0,2,7,9,5.mid,experiment,1
19,54,13019,81,64,0,2,7,9,5.mid,experiment,1
20,56,13318,81,64,0,2,7,9,5.mid,experiment,1
21,59,13909,83,64,0,2,7,9,5.mid,experiment,1
22,61,14136,81,64,0,2,7,9,5.mid,experiment,1
23,63,14403,84,64,0,2,7,9,5.mid,experiment,1
24,65,14709,81,64,0,2,7,9,5.mid,experiment,1
25,66,14849,78,64,0,2,7,9,5.mid,experiment,1
26,68,15041,79,64,0,2,7,9,5.mid,experiment,1
27,70,15441,79,64,0,2,7,9,5.mid,experiment,1
28,72,16416,79,64,0,2,7,9,5.mid,experiment,1
29,74,17033,77,64,0,2,7,9,5.mid,experiment,1
30,76,17300,77,64,0,2,7,9,5.mid,experiment,1
31,78,17592,76,64,0,2,7,9,5.mid,experiment,1
32,80,17878,76,64,0,2,7,9,5.mid,experiment,1
33,82,18655,74,64,0,2,7,9,5.mid,experiment,1
34,84,19846,79,64,0,2,7,9,5.mid,experiment,1
35,86,20178,77,64,0,2,7,9,5.mid,experiment,1
36,88,20527,76,64,0,2,7,9,5.mid,experiment,1
37,90,20800,76,64,0,2,7,9,5.mid,experiment,1
38,92,21086,76,64,0,2,7,9,5.mid,experiment,1
39,94,21349,76,64,0,2,7,9,5.mid,experiment,1
40,97,22033,81,64,0,2,7,9,5.mid,experiment,1
41,99,22236,77,64,0,2,7,9,5.mid,experiment,1
42,101,22461,76,64,0,2,7,9,5.mid,experiment,1
43,103,22798,74,64,0,2,7,9,5.mid,experiment,1
44,105,23067,76,64,0,2,7,9,5.mid,experiment,1
45,107,23402,79,64,0,2,7,9,5.mid,experiment,1
46,108,23564,74,64,0,2,7,9,5.mid,experiment,1
47,110,23621,71,64,0,2,7,9,5.mid,experiment,1
48,112,23918,72,64,0,2,7,9,5.mid,experiment,1
49,114,24192,72,64,0,2,7,9,5.mid,experiment,1
50,116,24463,74,64,0,2,7,9,5.mid,experiment,1
51,118,24752,74,64,0,2,7,9,5.mid,experiment,1
52,120,25544,76,64,0,2,7,9,5.mid,experiment,1
53,122,26293,65,64,0,2,7,9,5.mid,experiment,1
54,124,26551,65,64,0,2,7,9,5.mid,experiment,1
55,126,27082,64,64,0,2,7,9,5.mid,experiment,1
56,126,,64,,0,2,7,9,5.mid,experiment,1
57,128,27872,62,64,0,2,7,9,5.mid,experiment,1
58,130,28512,67,64,0,2,7,9,5.mid,experiment,1
59,132,28762,67,64,0,2,7,9,5.mid,experiment,1
60,134,29056,71,64,0,2,7,9,5.mid,experiment,1
61,136,29326,71,64,0,2,7,9,5.mid,experiment,1
62,138,29604,72,64,0,2,7,9,5.mid,experiment,1
63,140,29870,72,64,0,2,7,9,5.mid,experiment,1
64,142,30163,73,64,0,2,7,9,5.mid,experiment,1
65,144,30420,73,64,0,2,7,9,5.mid,experiment,1
66,147,31241,74,64,0,2,7,9,5.mid,experiment,1
67,148,31744,77,64,0,2,7,9,5.mid,experiment,1
68,151,32417,76,64,0,2,7,9,5.mid,experiment,1
69,152,32869,74,64,0,2,7,9,5.mid,experiment,1
70,154,33433,72,64,0,2,7,9,5.mid,experiment,1
71,156,33870,84,64,0,2,7,9,5.mid,experiment,1
72,158,34932,84,64,0,2,7,9,5.mid,experiment,1
1,19,8261,79,64,0,2,7,16,12.mid,experiment,1
2,21,8708,78,64,0,2,7,16,12.mid,experiment,1
3,23,8805,79,64,0,2,7,16,12.mid,experiment,1
4,25,9129,76,64,0,2,7,16,12.mid,experiment,1
5,26,9169,72,64,0,2,7,16,12.mid,experiment,1
6,28,9411,67,64,0,2,7,16,12.mid,experiment,1
7,30,9684,67,64,0,2,7,16,12.mid,experiment,1
8,32,9952,67,64,0,2,7,16,12.mid,experiment,1
9,35,10580,79,64,0,2,7,16,12.mid,experiment,1
10,37,10871,78,64,0,2,7,16,12.mid,experiment,1
11,39,11124,79,64,0,2,7,16,12.mid,experiment,1
12,40,11347,76,64,0,2,7,16,12.mid,experiment,1
13,43,11701,72,64,0,2,7,16,12.mid,experiment,1
14,45,12006,76,64,0,2,7,16,12.mid,experiment,1
15,47,12210,79,64,0,2,7,16,12.mid,experiment,1
16,49,12531,84,64,0,2,7,16,12.mid,experiment,1
17,50,12620,83,64,0,2,7,16,12.mid,experiment,1
18,52,13074,81,64,0,2,7,16,12.mid,experiment,1
19,54,13344,81,64,0,2,7,16,12.mid,experiment,1
20,54,,81,,0,2,7,16,12.mid,experiment,1
21,57,13915,83,64,0,2,7,16,12.mid,experiment,1
22,59,14160,81,64,0,2,7,16,12.mid,experiment,1
23,61,14419,84,64,0,2,7,16,12.mid,experiment,1
24,62,14632,81,64,0,2,7,16,12.mid,experiment,1
25,64,14798,78,64,0,2,7,16,12.mid,experiment,1
26,66,15015,79,64,0,2,7,16,12.mid,experiment,1
27,68,15462,79,64,0,2,7,16,12.mid,experiment,1
28,70,16410,79,64,0,2,7,16,12.mid,experiment,1
29,72,17035,77,64,0,2,7,16,12.mid,experiment,1
30,74,17304,77,64,0,2,7,16,12.mid,experiment,1
31,76,17590,76,64,0,2,7,16,12.mid,experiment,1
32,78,17873,76,64,0,2,7,16,12.mid,experiment,1
33,80,18731,74,64,0,2,7,16,12.mid,experiment,1
34,82,19811,79,64,0,2,7,16,12.mid,experiment,1
35,84,20241,77,64,0,2,7,16,12.mid,experiment,1
36,86,20540,76,64,0,2,7,16,12.mid,experiment,1
37,88,20824,76,64,0,2,7,16,12.mid,experiment,1
38,90,21101,76,64,0,2,7,16,12.mid,experiment,1
39,92,21373,76,64,0,2,7,16,12.mid,experiment,1
40,95,22040,81,64,0,2,7,16,12.mid,experiment,1
41,97,22303,77,64,0,2,7,16,12.mid,experiment,1
42,99,22513,76,64,0,2,7,16,12.mid,experiment,1
43,100,22753,74,64,0,2,7,16,12.mid,experiment,1
44,104,23413,76,64,0,2,7,16,12.mid,experiment,1
45,105,23518,79,64,0,2,7,16,12.mid,experiment,1
46,106,23654,74,64,0,2,7,16,12.mid,experiment,1
47,108,23742,71,64,0,2,7,16,12.mid,experiment,1
48,110,23987,72,64,0,2,7,16,12.mid,experiment,1
49,112,24260,72,64,0,2,7,16,12.mid,experiment,1
50,114,24542,74,64,0,2,7,16,12.mid,experiment,1
51,116,24840,74,64,0,2,7,16,12.mid,experiment,1
52,118,25627,76,64,0,2,7,16,12.mid,experiment,1
53,120,26264,65,64,0,2,7,16,12.mid,experiment,1
54,122,26542,65,64,0,2,7,16,12.mid,experiment,1
55,124,26825,64,64,0,2,7,16,12.mid,experiment,1
56,126,27095,64,64,0,2,7,16,12.mid,experiment,1
57,128,27919,62,64,0,2,7,16,12.mid,experiment,1
58,130,28578,67,64,0,2,7,16,12.mid,experiment,1
59,132,28864,67,64,0,2,7,16,12.mid,experiment,1
60,134,29141,71,64,0,2,7,16,12.mid,experiment,1
61,136,29441,71,64,0,2,7,16,12.mid,experiment,1
62,138,29703,72,64,0,2,7,16,12.mid,experiment,1
63,140,29963,72,64,0,2,7,16,12.mid,experiment,1
64,142,30261,73,64,0,2,7,16,12.mid,experiment,1
65,144,30560,73,64,0,2,7,16,12.mid,experiment,1
66,146,31369,74,64,0,2,7,16,12.mid,experiment,1
67,149,31969,77,64,0,2,7,16,12.mid,experiment,1
68,150,32517,76,64,0,2,7,16,12.mid,experiment,1
69,152,33080,74,64,0,2,7,16,12.mid,experiment,1
70,154,33616,72,64,0,2,7,16,12.mid,experiment,1
71,156,33981,84,64,0,2,7,16,12.mid,experiment,1
72,158,35039,84,64,0,2,7,16,12.mid,experiment,1
1,19,8159,79,64,0,2,8,3,8.mid,experiment,1
2,21,8489,78,64,0,2,8,3,8.mid,experiment,1
3,23,8724,79,64,0,2,8,3,8.mid,experiment,1
4,25,9033,76,64,0,2,8,3,8.mid,experiment,1
5,26,9117,72,64,0,2,8,3,8.mid,experiment,1
6,28,9849,67,64,0,2,8,3,8.mid,experiment,1
7,28,,67,,0,2,8,3,8.mid,experiment,1
8,28,,67,,0,2,8,3,8.mid,experiment,1
9,31,10443,79,64,0,2,8,3,8.mid,experiment,1
10,33,10753,78,64,0,2,8,3,8.mid,experiment,1
11,35,11008,79,64,0,2,8,3,8.mid,experiment,1
12,36,11227,76,64,0,2,8,3,8.mid,experiment,1
13,39,11553,72,64,0,2,8,3,8.mid,experiment,1
14,41,11860,76,64,0,2,8,3,8.mid,experiment,1
15,43,12078,79,64,0,2,8,3,8.mid,experiment,1
16,45,12455,84,64,0,2,8,3,8.mid,experiment,1
17,46,12577,83,64,0,2,8,3,8.mid,experiment,1
18,48,12675,81,64,0,2,8,3,8.mid,experiment,1
19,50,12953,81,64,0,2,8,3,8.mid,experiment,1
20,52,13239,81,64,0,2,8,3,8.mid,experiment,1
21,55,13799,83,64,0,2,8,3,8.mid,experiment,1
22,57,14049,81,64,0,2,8,3,8.mid,experiment,1
23,59,14379,84,64,0,2,8,3,8.mid,experiment,1
24,61,14599,81,64,0,2,8,3,8.mid,experiment,1
25,63,14923,78,64,0,2,8,3,8.mid,experiment,1
26,64,14983,79,64,0,2,8,3,8.mid,experiment,1
27,66,15461,79,64,0,2,8,3,8.mid,experiment,1
28,68,16321,79,64,0,2,8,3,8.mid,experiment,1
29,70,16913,77,64,0,2,8,3,8.mid,experiment,1
30,72,17187,77,64,0,2,8,3,8.mid,experiment,1
31,74,17475,76,64,0,2,8,3,8.mid,experiment,1
32,76,17757,76,64,0,2,8,3,8.mid,experiment,1
33,78,18592,74,64,0,2,8,3,8.mid,experiment,1
34,80,19647,79,64,0,2,8,3,8.mid,experiment,1
35,82,20249,77,64,0,2,8,3,8.mid,experiment,1
36,84,20387,76,64,0,2,8,3,8.mid,experiment,1
37,86,20627,76,64,0,2,8,3,8.mid,experiment,1
38,88,20899,76,64,0,2,8,3,8.mid,experiment,1
39,90,21173,76,64,0,2,8,3,8.mid,experiment,1
40,93,21747,81,64,0,2,8,3,8.mid,experiment,1
41,95,22008,77,64,0,2,8,3,8.mid,experiment,1
42,97,22261,76,64,0,2,8,3,8.mid,experiment,1
43,99,22567,74,64,0,2,8,3,8.mid,experiment,1
44,101,22837,76,64,0,2,8,3,8.mid,experiment,1
45,103,23181,79,64,0,2,8,3,8.mid,experiment,1
46,104,23361,74,64,0,2,8,3,8.mid,experiment,1
47,107,23660,71,64,0,2,8,3,8.mid,experiment,1
48,108,23689,72,64,0,2,8,3,8.mid,experiment,1
49,110,23975,72,64,0,2,8,3,8.mid,experiment,1
50,112,24237,74,64,0,2,8,3,8.mid,experiment,1
51,114,24498,74,64,0,2,8,3,8.mid,experiment,1
52,116,25357,76,64,0,2,8,3,8.mid,experiment,1
53,118,25883,65,64,0,2,8,3,8.mid,experiment,1
54,120,26156,65,64,0,2,8,3,8.mid,experiment,1
55,122,26463,64,64,0,2,8,3,8.mid,experiment,1
56,124,26711,64,64,0,2,8,3,8.mid,experiment,1
57,126,27619,62,64,0,2,8,3,8.mid,experiment,1
58,128,28383,67,64,0,2,8,3,8.mid,experiment,1
59,128,,67,,0,2,8,3,8.mid,experiment,1
60,130,28659,71,64,0,2,8,3,8.mid,experiment,1
61,132,28917,71,64,0,2,8,3,8.mid,experiment,1
62,134,29199,72,64,0,2,8,3,8.mid,experiment,1
63,136,29451,72,64,0,2,8,3,8.mid,experiment,1
64,138,29726,73,64,0,2,8,3,8.mid,experiment,1
65,140,30004,73,64,0,2,8,3,8.mid,experiment,1
66,143,30888,74,64,0,2,8,3,8.mid,experiment,1
67,145,31446,77,64,0,2,8,3,8.mid,experiment,1
68,147,31979,76,64,0,2,8,3,8.mid,experiment,1
69,149,32518,74,64,0,2,8,3,8.mid,experiment,1
70,150,33055,72,64,0,2,8,3,8.mid,experiment,1
71,152,33434,84,64,0,2,8,3,8.mid,experiment,1
72,154,34527,84,64,0,2,8,3,8.mid,experiment,1
1,19,8196,79,64,0,2,8,4,14.mid,experiment,1
2,21,8533,78,64,0,2,8,4,14.mid,experiment,1
3,23,8757,79,64,0,2,8,4,14.mid,experiment,1
4,25,9035,76,64,0,2,8,4,14.mid,experiment,1
5,26,9229,72,64,0,2,8,4,14.mid,experiment,1
6,28,9343,67,64,0,2,8,4,14.mid,experiment,1
7,30,9611,67,64,0,2,8,4,14.mid,experiment,1
8,32,9896,67,64,0,2,8,4,14.mid,experiment,1
9,35,10511,79,64,0,2,8,4,14.mid,experiment,1
10,37,10838,78,64,0,2,8,4,14.mid,experiment,1
11,39,11101,79,64,0,2,8,4,14.mid,experiment,1
12,40,11305,76,64,0,2,8,4,14.mid,experiment,1
13,43,11638,72,64,0,2,8,4,14.mid,experiment,1
14,45,11924,76,64,0,2,8,4,14.mid,experiment,1
15,47,12170,79,64,0,2,8,4,14.mid,experiment,1
16,49,12611,84,64,0,2,8,4,14.mid,experiment,1
17,50,12723,83,64,0,2,8,4,14.mid,experiment,1
18,52,12783,81,64,0,2,8,4,14.mid,experiment,1
19,54,13101,81,64,0,2,8,4,14.mid,experiment,1
20,56,13375,81,64,0,2,8,4,14.mid,experiment,1
21,59,13976,83,64,0,2,8,4,14.mid,experiment,1
22,61,14205,81,64,0,2,8,4,14.mid,experiment,1
23,63,14588,84,64,0,2,8,4,14.mid,experiment,1
24,64,14755,81,64,0,2,8,4,14.mid,experiment,1
25,67,15103,78,64,0,2,8,4,14.mid,experiment,1
26,68,15199,79,64,0,2,8,4,14.mid,experiment,1
27,70,15751,79,64,0,2,8,4,14.mid,experiment,1
28,72,16538,79,64,0,2,8,4,14.mid,experiment,1
29,74,17215,77,64,0,2,8,4,14.mid,experiment,1
30,76,17519,77,64,0,2,8,4,14.mid,experiment,1
31,78,17816,76,64,0,2,8,4,14.mid,experiment,1
32,80,18093,76,64,0,2,8,4,14.mid,experiment,1
33,80,,74,,0,2,8,4,14.mid,experiment,1
34,83,20002,79,64,0,2,8,4,14.mid,experiment,1
35,84,20547,77,64,0,2,8,4,14.mid,experiment,1
36,86,20619,76,64,0,2,8,4,14.mid,experiment,1
37,88,20882,76,64,0,2,8,4,14.mid,experiment,1
38,90,21162,76,64,0,2,8,4,14.mid,experiment,1
39,92,21427,76,64,0,2,8,4,14.mid,experiment,1
40,95,22080,81,64,0,2,8,4,14.mid,experiment,1
41,97,22319,77,64,0,2,8,4,14.mid,experiment,1
42,99,22559,76,64,0,2,8,4,14.mid,experiment,1
43,101,22885,74,64,0,2,8,4,14.mid,experiment,1
44,103,23129,76,64,0,2,8,4,14.mid,experiment,1
45,105,23477,79,64,0,2,8,4,14.mid,experiment,1
46,106,23666,74,64,0,2,8,4,14.mid,experiment,1
47,109,24004,71,64,0,2,8,4,14.mid,experiment,1
48,110,24034,72,64,0,2,8,4,14.mid,experiment,1
49,112,24313,72,64,0,2,8,4,14.mid,experiment,1
50,114,24609,74,64,0,2,8,4,14.mid,experiment,1
51,116,24920,74,64,0,2,8,4,14.mid,experiment,1
52,118,25757,76,64,0,2,8,4,14.mid,experiment,1
53,120,26345,65,64,0,2,8,4,14.mid,experiment,1
54,122,26631,65,64,0,2,8,4,14.mid,experiment,1
55,124,26911,64,64,0,2,8,4,14.mid,experiment,1
56,126,27187,64,64,0,2,8,4,14.mid,experiment,1
57,128,28070,62,64,0,2,8,4,14.mid,experiment,1
58,130,28716,67,64,0,2,8,4,14.mid,experiment,1
59,132,28995,67,64,0,2,8,4,14.mid,experiment,1
60,134,29545,71,64,0,2,8,4,14.mid,experiment,1
61,134,,71,,0,2,8,4,14.mid,experiment,1
62,136,29819,72,64,0,2,8,4,14.mid,experiment,1
63,138,30093,72,64,0,2,8,4,14.mid,experiment,1
64,140,30369,73,64,0,2,8,4,14.mid,experiment,1
65,142,30629,73,64,0,2,8,4,14.mid,experiment,1
66,144,31343,74,64,0,2,8,4,14.mid,experiment,1
67,146,31949,77,64,0,2,8,4,14.mid,experiment,1
68,148,32524,76,64,0,2,8,4,14.mid,experiment,1
69,150,33085,74,64,0,2,8,4,14.mid,experiment,1
70,152,33683,72,64,0,2,8,4,14.mid,experiment,1
71,154,34280,84,64,0,2,8,4,14.mid,experiment,1
72,156,35121,84,64,0,2,8,4,14.mid,experiment,1
1,19,8230,79,64,0,2,8,9,3.mid,experiment,1
2,21,8542,78,64,0,2,8,9,3.mid,experiment,1
3,23,8793,79,64,0,2,8,9,3.mid,experiment,1
4,25,9087,76,64,0,2,8,9,3.mid,experiment,1
5,26,9227,72,64,0,2,8,9,3.mid,experiment,1
6,28,9458,67,64,0,2,8,9,3.mid,experiment,1
7,30,9727,67,64,0,2,8,9,3.mid,experiment,1
8,32,9997,67,64,0,2,8,9,3.mid,experiment,1
9,35,10637,79,64,0,2,8,9,3.mid,experiment,1
10,37,10945,78,64,0,2,8,9,3.mid,experiment,1
11,39,11211,79,64,0,2,8,9,3.mid,experiment,1
12,40,11408,76,64,0,2,8,9,3.mid,experiment,1
13,43,11755,72,64,0,2,8,9,3.mid,experiment,1
14,45,12051,76,64,0,2,8,9,3.mid,experiment,1
15,47,12277,79,64,0,2,8,9,3.mid,experiment,1
16,49,12687,84,64,0,2,8,9,3.mid,experiment,1
17,50,12758,83,64,0,2,8,9,3.mid,experiment,1
18,52,13219,81,64,0,2,8,9,3.mid,experiment,1
19,54,13485,81,64,0,2,8,9,3.mid,experiment,1
20,54,,81,,0,2,8,9,3.mid,experiment,1
21,57,14079,83,64,0,2,8,9,3.mid,experiment,1
22,59,14335,81,64,0,2,8,9,3.mid,experiment,1
23,61,14709,84,64,0,2,8,9,3.mid,experiment,1
24,62,14895,81,64,0,2,8,9,3.mid,experiment,1
25,65,15233,78,64,0,2,8,9,3.mid,experiment,1
26,66,15339,79,64,0,2,8,9,3.mid,experiment,1
27,68,15909,79,64,0,2,8,9,3.mid,experiment,1
28,70,16665,79,64,0,2,8,9,3.mid,experiment,1
29,72,17345,77,64,0,2,8,9,3.mid,experiment,1
30,74,17591,77,64,0,2,8,9,3.mid,experiment,1
31,76,17891,76,64,0,2,8,9,3.mid,experiment,1
32,78,18175,76,64,0,2,8,9,3.mid,experiment,1
33,80,19117,74,64,0,2,8,9,3.mid,experiment,1
34,82,20239,79,64,0,2,8,9,3.mid,experiment,1
35,84,20831,77,64,0,2,8,9,3.mid,experiment,1
36,86,20909,76,64,0,2,8,9,3.mid,experiment,1
37,88,21177,76,64,0,2,8,9,3.mid,experiment,1
38,90,21488,76,64,0,2,8,9,3.mid,experiment,1
39,92,21775,76,64,0,2,8,9,3.mid,experiment,1
40,95,22367,81,64,0,2,8,9,3.mid,experiment,1
41,97,22669,77,64,0,2,8,9,3.mid,experiment,1
42,99,22909,76,64,0,2,8,9,3.mid,experiment,1
43,101,23253,74,64,0,2,8,9,3.mid,experiment,1
44,103,23493,76,64,0,2,8,9,3.mid,experiment,1
45,105,23861,79,64,0,2,8,9,3.mid,experiment,1
46,106,24034,74,64,0,2,8,9,3.mid,experiment,1
47,109,24344,71,64,0,2,8,9,3.mid,experiment,1
48,110,24384,72,64,0,2,8,9,3.mid,experiment,1
49,112,24671,72,64,0,2,8,9,3.mid,experiment,1
50,114,24968,74,64,0,2,8,9,3.mid,experiment,1
51,116,25265,74,64,0,2,8,9,3.mid,experiment,1
52,118,26205,76,64,0,2,8,9,3.mid,experiment,1
53,120,26795,65,64,0,2,8,9,3.mid,experiment,1
54,122,27073,65,64,0,2,8,9,3.mid,experiment,1
55,124,27367,64,64,0,2,8,9,3.mid,experiment,1
56,126,27675,64,64,0,2,8,9,3.mid,experiment,1
57,128,28651,62,64,0,2,8,9,3.mid,experiment,1
58,130,29225,67,64,0,2,8,9,3.mid,experiment,1
59,132,29531,67,64,0,2,8,9,3.mid,experiment,1
60,134,30077,71,64,0,2,8,9,3.mid,experiment,1
61,134,,71,,0,2,8,9,3.mid,experiment,1
62,136,30349,72,64,0,2,8,9,3.mid,experiment,1
63,138,30627,72,64,0,2,8,9,3.mid,experiment,1
64,140,30937,73,64,0,2,8,9,3.mid,experiment,1
65,142,31199,73,64,0,2,8,9,3.mid,experiment,1
66,145,32081,74,64,0,2,8,9,3.mid,experiment,1
67,147,32687,77,64,0,2,8,9,3.mid,experiment,1
68,149,33315,76,64,0,2,8,9,3.mid,experiment,1
69,151,33840,74,64,0,2,8,9,3.mid,experiment,1
70,153,34425,72,64,0,2,8,9,3.mid,experiment,1
71,154,34889,84,64,0,2,8,9,3.mid,experiment,1
72,156,35775,84,64,0,2,8,9,3.mid,experiment,1
1,19,8208,79,64,0,2,8,11,15.mid,experiment,1
2,21,8614,78,64,0,2,8,11,15.mid,experiment,1
3,23,8764,79,64,0,2,8,11,15.mid,experiment,1
4,25,9075,76,64,0,2,8,11,15.mid,experiment,1
5,26,9290,72,64,0,2,8,11,15.mid,experiment,1
6,28,9366,67,64,0,2,8,11,15.mid,experiment,1
7,30,9643,67,64,0,2,8,11,15.mid,experiment,1
8,30,,67,,0,2,8,11,15.mid,experiment,1
9,33,10541,79,64,0,2,8,11,15.mid,experiment,1
10,35,10847,78,64,0,2,8,11,15.mid,experiment,1
11,37,11139,79,64,0,2,8,11,15.mid,experiment,1
12,38,11332,76,64,0,2,8,11,15.mid,experiment,1
13,41,11664,72,64,0,2,8,11,15.mid,experiment,1
14,43,11957,76,64,0,2,8,11,15.mid,experiment,1
15,44,12177,79,64,0,2,8,11,15.mid,experiment,1
16,47,12625,84,64,0,2,8,11,15.mid,experiment,1
17,48,12784,83,64,0,2,8,11,15.mid,experiment,1
18,50,12844,81,64,0,2,8,11,15.mid,experiment,1
19,52,13145,81,64,0,2,8,11,15.mid,experiment,1
20,54,13422,81,64,0,2,8,11,15.mid,experiment,1
21,57,14053,83,64,0,2,8,11,15.mid,experiment,1
22,59,14264,81,64,0,2,8,11,15.mid,experiment,1
23,61,14620,84,64,0,2,8,11,15.mid,experiment,1
24,63,14832,81,64,0,2,8,11,15.mid,experiment,1
25,65,15160,78,64,0,2,8,11,15.mid,experiment,1
26,66,15294,79,64,0,2,8,11,15.mid,experiment,1
27,68,15845,79,64,0,2,8,11,15.mid,experiment,1
28,70,16648,79,64,0,2,8,11,15.mid,experiment,1
29,72,17322,77,64,0,2,8,11,15.mid,experiment,1
30,74,17599,77,64,0,2,8,11,15.mid,experiment,1
31,76,17879,76,64,0,2,8,11,15.mid,experiment,1
32,78,18160,76,64,0,2,8,11,15.mid,experiment,1
33,80,18979,74,64,0,2,8,11,15.mid,experiment,1
34,82,20253,79,64,0,2,8,11,15.mid,experiment,1
35,84,20815,77,64,0,2,8,11,15.mid,experiment,1
36,86,20927,76,64,0,2,8,11,15.mid,experiment,1
37,88,21201,76,64,0,2,8,11,15.mid,experiment,1
38,90,21490,76,64,0,2,8,11,15.mid,experiment,1
39,92,21754,76,64,0,2,8,11,15.mid,experiment,1
40,95,22345,81,64,0,2,8,11,15.mid,experiment,1
41,97,22682,77,64,0,2,8,11,15.mid,experiment,1
42,99,22913,76,64,0,2,8,11,15.mid,experiment,1
43,101,23261,74,64,0,2,8,11,15.mid,experiment,1
44,103,23496,76,64,0,2,8,11,15.mid,experiment,1
45,105,23850,79,64,0,2,8,11,15.mid,experiment,1
46,107,24059,74,64,0,2,8,11,15.mid,experiment,1
47,108,24349,71,64,0,2,8,11,15.mid,experiment,1
48,110,24392,72,64,0,2,8,11,15.mid,experiment,1
49,112,24692,72,64,0,2,8,11,15.mid,experiment,1
50,114,24973,74,64,0,2,8,11,15.mid,experiment,1
51,116,25276,74,64,0,2,8,11,15.mid,experiment,1
52,118,26231,76,64,0,2,8,11,15.mid,experiment,1
53,120,26826,65,64,0,2,8,11,15.mid,experiment,1
54,122,27110,65,64,0,2,8,11,15.mid,experiment,1
55,124,27394,64,64,0,2,8,11,15.mid,experiment,1
56,126,27675,64,64,0,2,8,11,15.mid,experiment,1
57,128,28576,62,64,0,2,8,11,15.mid,experiment,1
58,130,29232,67,64,0,2,8,11,15.mid,experiment,1
59,132,29481,67,64,0,2,8,11,15.mid,experiment,1
60,134,29774,71,64,0,2,8,11,15.mid,experiment,1
61,136,30067,71,64,0,2,8,11,15.mid,experiment,1
62,138,30355,72,64,0,2,8,11,15.mid,experiment,1
63,140,30639,72,64,0,2,8,11,15.mid,experiment,1
64,142,30946,73,64,0,2,8,11,15.mid,experiment,1
65,144,31234,73,64,0,2,8,11,15.mid,experiment,1
66,147,32129,74,64,0,2,8,11,15.mid,experiment,1
67,148,32606,77,64,0,2,8,11,15.mid,experiment,1
68,150,33198,76,64,0,2,8,11,15.mid,experiment,1
69,152,33763,74,64,0,2,8,11,15.mid,experiment,1
70,154,34433,72,64,0,2,8,11,15.mid,experiment,1
71,156,35024,84,64,0,2,8,11,15.mid,experiment,1
72,158,36088,84,64,0,2,8,11,15.mid,experiment,1
1,19,8209,79,64,0,2,8,12,2.mid,experiment,1
2,21,8511,78,64,0,2,8,12,2.mid,experiment,1
3,23,8773,79,64,0,2,8,12,2.mid,experiment,1
4,25,9102,76,64,0,2,8,12,2.mid,experiment,1
5,26,9254,72,64,0,2,8,12,2.mid,experiment,1
6,28,9385,67,64,0,2,8,12,2.mid,experiment,1
7,30,9664,67,64,0,2,8,12,2.mid,experiment,1
8,32,9943,67,64,0,2,8,12,2.mid,experiment,1
9,35,10584,79,64,0,2,8,12,2.mid,experiment,1
10,37,10999,78,64,0,2,8,12,2.mid,experiment,1
11,39,11152,79,64,0,2,8,12,2.mid,experiment,1
12,40,11372,76,64,0,2,8,12,2.mid,experiment,1
13,43,11693,72,64,0,2,8,12,2.mid,experiment,1
14,45,12006,76,64,0,2,8,12,2.mid,experiment,1
15,47,12231,79,64,0,2,8,12,2.mid,experiment,1
16,49,12600,84,64,0,2,8,12,2.mid,experiment,1
17,50,12754,83,64,0,2,8,12,2.mid,experiment,1
18,52,12869,81,64,0,2,8,12,2.mid,experiment,1
19,54,13180,81,64,0,2,8,12,2.mid,experiment,1
20,56,13497,81,64,0,2,8,12,2.mid,experiment,1
21,59,14081,83,64,0,2,8,12,2.mid,experiment,1
22,61,14313,81,64,0,2,8,12,2.mid,experiment,1
23,63,14697,84,64,0,2,8,12,2.mid,experiment,1
24,65,14895,81,64,0,2,8,12,2.mid,experiment,1
25,67,15246,78,64,0,2,8,12,2.mid,experiment,1
26,68,15330,79,64,0,2,8,12,2.mid,experiment,1
27,70,15998,79,64,0,2,8,12,2.mid,experiment,1
28,72,16771,79,64,0,2,8,12,2.mid,experiment,1
29,74,17713,77,64,0,2,8,12,2.mid,experiment,1
30,74,,77,,0,2,8,12,2.mid,experiment,1
31,76,17972,76,64,0,2,8,12,2.mid,experiment,1
32,78,18200,76,64,0,2,8,12,2.mid,experiment,1
33,80,19100,74,64,0,2,8,12,2.mid,experiment,1
34,82,20104,79,64,0,2,8,12,2.mid,experiment,1
35,84,20678,77,64,0,2,8,12,2.mid,experiment,1
36,86,20872,76,64,0,2,8,12,2.mid,experiment,1
37,88,21143,76,64,0,2,8,12,2.mid,experiment,1
38,90,21423,76,64,0,2,8,12,2.mid,experiment,1
39,92,21705,76,64,0,2,8,12,2.mid,experiment,1
40,95,22339,81,64,0,2,8,12,2.mid,experiment,1
41,97,22613,77,64,0,2,8,12,2.mid,experiment,1
42,99,22864,76,64,0,2,8,12,2.mid,experiment,1
43,101,23189,74,64,0,2,8,12,2.mid,experiment,1
44,103,23444,76,64,0,2,8,12,2.mid,experiment,1
45,105,23807,79,64,0,2,8,12,2.mid,experiment,1
46,106,23992,74,64,0,2,8,12,2.mid,experiment,1
47,109,24320,71,64,0,2,8,12,2.mid,experiment,1
48,110,24342,72,64,0,2,8,12,2.mid,experiment,1
49,112,24620,72,64,0,2,8,12,2.mid,experiment,1
50,114,24910,74,64,0,2,8,12,2.mid,experiment,1
51,116,25196,74,64,0,2,8,12,2.mid,experiment,1
52,118,26052,76,64,0,2,8,12,2.mid,experiment,1
53,120,26639,65,64,0,2,8,12,2.mid,experiment,1
54,122,26917,65,64,0,2,8,12,2.mid,experiment,1
55,124,27499,64,64,0,2,8,12,2.mid,experiment,1
56,124,,64,,0,2,8,12,2.mid,experiment,1
57,126,28400,62,64,0,2,8,12,2.mid,experiment,1
58,128,29031,67,64,0,2,8,12,2.mid,experiment,1
59,130,29259,67,64,0,2,8,12,2.mid,experiment,1
60,132,29550,71,64,0,2,8,12,2.mid,experiment,1
61,134,29861,71,64,0,2,8,12,2.mid,experiment,1
62,136,30124,72,64,0,2,8,12,2.mid,experiment,1
63,138,30402,72,64,0,2,8,12,2.mid,experiment,1
64,140,30694,73,64,0,2,8,12,2.mid,experiment,1
65,142,30972,73,64,0,2,8,12,2.mid,experiment,1
66,145,31903,74,64,0,2,8,12,2.mid,experiment,1
67,146,32339,77,64,0,2,8,12,2.mid,experiment,1
68,148,32891,76,64,0,2,8,12,2.mid,experiment,1
69,150,33434,74,64,0,2,8,12,2.mid,experiment,1
70,152,34105,72,64,0,2,8,12,2.mid,experiment,1
71,154,34620,84,64,0,2,8,12,2.mid,experiment,1
72,156,35606,84,64,0,2,8,12,2.mid,experiment,1
1,19,8162,79,64,0,2,8,16,1.mid,experiment,1
2,21,8499,78,64,0,2,8,16,1.mid,experiment,1
3,23,8706,79,64,0,2,8,16,1.mid,experiment,1
4,25,9027,76,64,0,2,8,16,1.mid,experiment,1
5,26,9166,72,64,0,2,8,16,1.mid,experiment,1
6,28,9332,67,64,0,2,8,16,1.mid,experiment,1
7,30,9650,67,64,0,2,8,16,1.mid,experiment,1
8,32,9915,67,64,0,2,8,16,1.mid,experiment,1
9,35,10496,79,64,0,2,8,16,1.mid,experiment,1
10,37,10862,78,64,0,2,8,16,1.mid,experiment,1
11,39,11061,79,64,0,2,8,16,1.mid,experiment,1
12,40,11311,76,64,0,2,8,16,1.mid,experiment,1
13,43,11625,72,64,0,2,8,16,1.mid,experiment,1
14,45,11959,76,64,0,2,8,16,1.mid,experiment,1
15,47,12183,79,64,0,2,8,16,1.mid,experiment,1
16,49,12532,84,64,0,2,8,16,1.mid,experiment,1
17,50,12678,83,64,0,2,8,16,1.mid,experiment,1
18,52,12826,81,64,0,2,8,16,1.mid,experiment,1
19,54,13104,81,64,0,2,8,16,1.mid,experiment,1
20,56,13394,81,64,0,2,8,16,1.mid,experiment,1
21,59,13980,83,64,0,2,8,16,1.mid,experiment,1
22,61,14253,81,64,0,2,8,16,1.mid,experiment,1
23,63,14572,84,64,0,2,8,16,1.mid,experiment,1
24,65,14855,81,64,0,2,8,16,1.mid,experiment,1
25,67,15141,78,64,0,2,8,16,1.mid,experiment,1
26,68,15305,79,64,0,2,8,16,1.mid,experiment,1
27,70,15944,79,64,0,2,8,16,1.mid,experiment,1
28,72,16769,79,64,0,2,8,16,1.mid,experiment,1
29,74,17352,77,64,0,2,8,16,1.mid,experiment,1
30,76,17627,77,64,0,2,8,16,1.mid,experiment,1
31,78,18168,76,64,0,2,8,16,1.mid,experiment,1
32,78,,76,,0,2,8,16,1.mid,experiment,1
33,80,19122,74,64,0,2,8,16,1.mid,experiment,1
34,82,20071,79,64,0,2,8,16,1.mid,experiment,1
35,84,20656,77,64,0,2,8,16,1.mid,experiment,1
36,86,20823,76,64,0,2,8,16,1.mid,experiment,1
37,88,21110,76,64,0,2,8,16,1.mid,experiment,1
38,90,21396,76,64,0,2,8,16,1.mid,experiment,1
39,92,21687,76,64,0,2,8,16,1.mid,experiment,1
40,95,22296,81,64,0,2,8,16,1.mid,experiment,1
41,97,22589,77,64,0,2,8,16,1.mid,experiment,1
42,99,22828,76,64,0,2,8,16,1.mid,experiment,1
43,101,23156,74,64,0,2,8,16,1.mid,experiment,1
44,103,23422,76,64,0,2,8,16,1.mid,experiment,1
45,105,23778,79,64,0,2,8,16,1.mid,experiment,1
46,106,23951,74,64,0,2,8,16,1.mid,experiment,1
47,109,24272,71,64,0,2,8,16,1.mid,experiment,1
48,110,24288,72,64,0,2,8,16,1.mid,experiment,1
49,112,24562,72,64,0,2,8,16,1.mid,experiment,1
50,114,24840,74,64,0,2,8,16,1.mid,experiment,1
51,116,25143,74,64,0,2,8,16,1.mid,experiment,1
52,118,26065,76,64,0,2,8,16,1.mid,experiment,1
53,120,26635,65,64,0,2,8,16,1.mid,experiment,1
54,122,26920,65,64,0,2,8,16,1.mid,experiment,1
55,124,27194,64,64,0,2,8,16,1.mid,experiment,1
56,126,27469,64,64,0,2,8,16,1.mid,experiment,1
57,128,28441,62,64,0,2,8,16,1.mid,experiment,1
58,130,29078,67,64,0,2,8,16,1.mid,experiment,1
59,132,29348,67,64,0,2,8,16,1.mid,experiment,1
60,134,29657,71,64,0,2,8,16,1.mid,experiment,1
61,136,29926,71,64,0,2,8,16,1.mid,experiment,1
62,138,30218,72,64,0,2,8,16,1.mid,experiment,1
63,140,30498,72,64,0,2,8,16,1.mid,experiment,1
64,142,30790,73,64,0,2,8,16,1.mid,experiment,1
65,144,31064,73,64,0,2,8,16,1.mid,experiment,1
66,146,31922,74,64,0,2,8,16,1.mid,experiment,1
67,148,32501,77,64,0,2,8,16,1.mid,experiment,1
68,150,33080,76,64,0,2,8,16,1.mid,experiment,1
69,152,33654,74,64,0,2,8,16,1.mid,experiment,1
70,154,34182,72,64,0,2,8,16,1.mid,experiment,1
71,156,34771,84,64,0,2,8,16,1.mid,experiment,1
72,158,35897,84,64,0,2,8,16,1.mid,experiment,1
1,19,8178,79,64,0,2,9,2,9.mid,experiment,1
2,21,8442,78,64,0,2,9,2,9.mid,experiment,1
3,23,8731,79,64,0,2,9,2,9.mid,experiment,1
4,25,8973,76,64,0,2,9,2,9.mid,experiment,1
5,26,9051,72,64,0,2,9,2,9.mid,experiment,1
6,28,9285,67,64,0,2,9,2,9.mid,experiment,1
7,30,9566,67,64,0,2,9,2,9.mid,experiment,1
8,32,9836,67,64,0,2,9,2,9.mid,experiment,1
9,35,10452,79,64,0,2,9,2,9.mid,experiment,1
10,37,10697,78,64,0,2,9,2,9.mid,experiment,1
11,39,10975,79,64,0,2,9,2,9.mid,experiment,1
12,41,11257,76,64,0,2,9,2,9.mid,experiment,1
13,43,11460,72,64,0,2,9,2,9.mid,experiment,1
14,45,11756,76,64,0,2,9,2,9.mid,experiment,1
15,47,12020,79,64,0,2,9,2,9.mid,experiment,1
16,49,12286,84,64,0,2,9,2,9.mid,experiment,1
17,50,12349,83,64,0,2,9,2,9.mid,experiment,1
18,52,12606,81,64,0,2,9,2,9.mid,experiment,1
19,54,12871,81,64,0,2,9,2,9.mid,experiment,1
20,56,13122,81,64,0,2,9,2,9.mid,experiment,1
21,59,13687,83,64,0,2,9,2,9.mid,experiment,1
22,61,13917,81,64,0,2,9,2,9.mid,experiment,1
23,63,14195,84,64,0,2,9,2,9.mid,experiment,1
24,65,14476,81,64,0,2,9,2,9.mid,experiment,1
25,67,14704,78,64,0,2,9,2,9.mid,experiment,1
26,68,14766,79,64,0,2,9,2,9.mid,experiment,1
27,70,15128,79,64,0,2,9,2,9.mid,experiment,1
28,72,15733,79,64,0,2,9,2,9.mid,experiment,1
29,74,16758,77,64,0,2,9,2,9.mid,experiment,1
30,76,17029,77,64,0,2,9,2,9.mid,experiment,1
31,78,17256,76,64,0,2,9,2,9.mid,experiment,1
32,80,17520,76,64,0,2,9,2,9.mid,experiment,1
33,82,18101,74,64,0,2,9,2,9.mid,experiment,1
34,84,19104,79,64,0,2,9,2,9.mid,experiment,1
35,86,19634,77,64,0,2,9,2,9.mid,experiment,1
36,88,20032,76,64,0,2,9,2,9.mid,experiment,1
37,90,20304,76,64,0,2,9,2,9.mid,experiment,1
38,92,20546,76,64,0,2,9,2,9.mid,experiment,1
39,94,20813,76,64,0,2,9,2,9.mid,experiment,1
40,97,21319,81,64,0,2,9,2,9.mid,experiment,1
41,99,21625,77,64,0,2,9,2,9.mid,experiment,1
42,101,21831,76,64,0,2,9,2,9.mid,experiment,1
43,103,22123,74,64,0,2,9,2,9.mid,experiment,1
44,105,22319,76,64,0,2,9,2,9.mid,experiment,1
45,107,22581,79,64,0,2,9,2,9.mid,experiment,1
46,109,22812,74,64,0,2,9,2,9.mid,experiment,1
47,110,22863,71,64,0,2,9,2,9.mid,experiment,1
48,112,23125,72,64,0,2,9,2,9.mid,experiment,1
49,114,23365,72,64,0,2,9,2,9.mid,experiment,1
50,116,23595,74,64,0,2,9,2,9.mid,experiment,1
51,118,23853,74,64,0,2,9,2,9.mid,experiment,1
52,120,24181,76,64,0,2,9,2,9.mid,experiment,1
53,122,25155,65,64,0,2,9,2,9.mid,experiment,1
54,124,25436,65,64,0,2,9,2,9.mid,experiment,1
55,126,25710,64,64,0,2,9,2,9.mid,experiment,1
56,126,,64,,0,2,9,2,9.mid,experiment,1
57,128,26292,62,64,0,2,9,2,9.mid,experiment,1
58,130,27246,67,64,0,2,9,2,9.mid,experiment,1
59,132,27508,67,64,0,2,9,2,9.mid,experiment,1
60,134,28009,71,64,0,2,9,2,9.mid,experiment,1
61,134,,71,,0,2,9,2,9.mid,experiment,1
62,136,28267,72,64,0,2,9,2,9.mid,experiment,1
63,138,28501,72,64,0,2,9,2,9.mid,experiment,1
64,140,28767,73,64,0,2,9,2,9.mid,experiment,1
65,142,29014,73,64,0,2,9,2,9.mid,experiment,1
66,144,29484,74,64,0,2,9,2,9.mid,experiment,1
67,146,29970,77,64,0,2,9,2,9.mid,experiment,1
68,148,30421,76,64,0,2,9,2,9.mid,experiment,1
69,150,30924,74,64,0,2,9,2,9.mid,experiment,1
70,152,31474,72,64,0,2,9,2,9.mid,experiment,1
71,154,31989,84,64,0,2,9,2,9.mid,experiment,1
72,156,32759,84,64,0,2,9,2,9.mid,experiment,1
1,19,8142,79,64,0,2,9,7,5.mid,experiment,1
2,21,8396,78,64,0,2,9,7,5.mid,experiment,1
3,23,8656,79,64,0,2,9,7,5.mid,experiment,1
4,25,8908,76,64,0,2,9,7,5.mid,experiment,1
5,26,8964,72,64,0,2,9,7,5.mid,experiment,1
6,28,9195,67,64,0,2,9,7,5.mid,experiment,1
7,30,9457,67,64,0,2,9,7,5.mid,experiment,1
8,32,9697,67,64,0,2,9,7,5.mid,experiment,1
9,35,10250,79,64,0,2,9,7,5.mid,experiment,1
10,37,10489,78,64,0,2,9,7,5.mid,experiment,1
11,39,10741,79,64,0,2,9,7,5.mid,experiment,1
12,41,11007,76,64,0,2,9,7,5.mid,experiment,1
13,43,11211,72,64,0,2,9,7,5.mid,experiment,1
14,45,11514,76,64,0,2,9,7,5.mid,experiment,1
15,47,11764,79,64,0,2,9,7,5.mid,experiment,1
16,49,12031,84,64,0,2,9,7,5.mid,experiment,1
17,50,12109,83,64,0,2,9,7,5.mid,experiment,1
18,52,12299,81,64,0,2,9,7,5.mid,experiment,1
19,54,12537,81,64,0,2,9,7,5.mid,experiment,1
20,56,12766,81,64,0,2,9,7,5.mid,experiment,1
21,59,13280,83,64,0,2,9,7,5.mid,experiment,1
22,61,13521,81,64,0,2,9,7,5.mid,experiment,1
23,63,13771,84,64,0,2,9,7,5.mid,experiment,1
24,65,14059,81,64,0,2,9,7,5.mid,experiment,1
25,67,14270,78,64,0,2,9,7,5.mid,experiment,1
26,68,14326,79,64,0,2,9,7,5.mid,experiment,1
27,70,14616,79,64,0,2,9,7,5.mid,experiment,1
28,72,15238,79,64,0,2,9,7,5.mid,experiment,1
29,74,16143,77,64,0,2,9,7,5.mid,experiment,1
30,76,16395,77,64,0,2,9,7,5.mid,experiment,1
31,78,16625,76,64,0,2,9,7,5.mid,experiment,1
32,80,16888,76,64,0,2,9,7,5.mid,experiment,1
33,82,17492,74,64,0,2,9,7,5.mid,experiment,1
34,84,18373,79,64,0,2,9,7,5.mid,experiment,1
35,86,18882,77,64,0,2,9,7,5.mid,experiment,1
36,88,19276,76,64,0,2,9,7,5.mid,experiment,1
37,90,19546,76,64,0,2,9,7,5.mid,experiment,1
38,92,19773,76,64,0,2,9,7,5.mid,experiment,1
39,94,20041,76,64,0,2,9,7,5.mid,experiment,1
40,97,20520,81,64,0,2,9,7,5.mid,experiment,1
41,99,20796,77,64,0,2,9,7,5.mid,experiment,1
42,101,21001,76,64,0,2,9,7,5.mid,experiment,1
43,103,21284,74,64,0,2,9,7,5.mid,experiment,1
44,105,21482,76,64,0,2,9,7,5.mid,experiment,1
45,107,21746,79,64,0,2,9,7,5.mid,experiment,1
46,109,21971,74,64,0,2,9,7,5.mid,experiment,1
47,110,22109,71,64,0,2,9,7,5.mid,experiment,1
48,112,22338,72,64,0,2,9,7,5.mid,experiment,1
49,114,22601,72,64,0,2,9,7,5.mid,experiment,1
50,116,22823,74,64,0,2,9,7,5.mid,experiment,1
51,118,23101,74,64,0,2,9,7,5.mid,experiment,1
52,120,23490,76,64,0,2,9,7,5.mid,experiment,1
53,122,24400,65,64,0,2,9,7,5.mid,experiment,1
54,124,24673,65,64,0,2,9,7,5.mid,experiment,1
55,126,25168,64,64,0,2,9,7,5.mid,experiment,1
56,126,,64,,0,2,9,7,5.mid,experiment,1
57,128,25786,62,64,0,2,9,7,5.mid,experiment,1
58,130,26471,67,64,0,2,9,7,5.mid,experiment,1
59,132,26727,67,64,0,2,9,7,5.mid,experiment,1
60,134,27223,71,64,0,2,9,7,5.mid,experiment,1
61,134,,71,,0,2,9,7,5.mid,experiment,1
62,136,27472,72,64,0,2,9,7,5.mid,experiment,1
63,138,27698,72,64,0,2,9,7,5.mid,experiment,1
64,140,27945,73,64,0,2,9,7,5.mid,experiment,1
65,142,28194,73,64,0,2,9,7,5.mid,experiment,1
66,144,28691,74,64,0,2,9,7,5.mid,experiment,1
67,146,29182,77,64,0,2,9,7,5.mid,experiment,1
68,148,29694,76,64,0,2,9,7,5.mid,experiment,1
69,150,30170,74,64,0,2,9,7,5.mid,experiment,1
70,152,30682,72,64,0,2,9,7,5.mid,experiment,1
71,154,31170,84,64,0,2,9,7,5.mid,experiment,1
72,156,31789,84,64,0,2,9,7,5.mid,experiment,1
1,19,8147,79,64,0,2,9,8,1.mid,experiment,1
2,21,8389,78,64,0,2,9,8,1.mid,experiment,1
3,23,8673,79,64,0,2,9,8,1.mid,experiment,1
4,25,8903,76,64,0,2,9,8,1.mid,experiment,1
5,26,8977,72,64,0,2,9,8,1.mid,experiment,1
6,28,9198,67,64,0,2,9,8,1.mid,experiment,1
7,30,9459,67,64,0,2,9,8,1.mid,experiment,1
8,32,9711,67,64,0,2,9,8,1.mid,experiment,1
9,35,10240,79,64,0,2,9,8,1.mid,experiment,1
10,37,10491,78,64,0,2,9,8,1.mid,experiment,1
11,39,10752,79,64,0,2,9,8,1.mid,experiment,1
12,41,11011,76,64,0,2,9,8,1.mid,experiment,1
13,43,11208,72,64,0,2,9,8,1.mid,experiment,1
14,45,11530,76,64,0,2,9,8,1.mid,experiment,1
15,47,11764,79,64,0,2,9,8,1.mid,experiment,1
16,49,12036,84,64,0,2,9,8,1.mid,experiment,1
17,50,12124,83,64,0,2,9,8,1.mid,experiment,1
18,52,12310,81,64,0,2,9,8,1.mid,experiment,1
19,54,12543,81,64,0,2,9,8,1.mid,experiment,1
20,56,12794,81,64,0,2,9,8,1.mid,experiment,1
21,59,13302,83,64,0,2,9,8,1.mid,experiment,1
22,61,13541,81,64,0,2,9,8,1.mid,experiment,1
23,63,13781,84,64,0,2,9,8,1.mid,experiment,1
24,65,14088,81,64,0,2,9,8,1.mid,experiment,1
25,67,14314,78,64,0,2,9,8,1.mid,experiment,1
26,68,14386,79,64,0,2,9,8,1.mid,experiment,1
27,70,14650,79,64,0,2,9,8,1.mid,experiment,1
28,72,15356,79,64,0,2,9,8,1.mid,experiment,1
29,74,16477,77,64,0,2,9,8,1.mid,experiment,1
30,74,,77,,0,2,9,8,1.mid,experiment,1
31,76,16719,76,64,0,2,9,8,1.mid,experiment,1
32,78,16975,76,64,0,2,9,8,1.mid,experiment,1
33,80,17523,74,64,0,2,9,8,1.mid,experiment,1
34,82,18408,79,64,0,2,9,8,1.mid,experiment,1
35,84,18905,77,64,0,2,9,8,1.mid,experiment,1
36,86,19326,76,64,0,2,9,8,1.mid,experiment,1
37,88,19568,76,64,0,2,9,8,1.mid,experiment,1
38,90,19810,76,64,0,2,9,8,1.mid,experiment,1
39,92,20058,76,64,0,2,9,8,1.mid,experiment,1
40,95,20542,81,64,0,2,9,8,1.mid,experiment,1
41,97,20832,77,64,0,2,9,8,1.mid,experiment,1
42,99,21030,76,64,0,2,9,8,1.mid,experiment,1
43,101,21341,74,64,0,2,9,8,1.mid,experiment,1
44,103,21531,76,64,0,2,9,8,1.mid,experiment,1
45,105,21805,79,64,0,2,9,8,1.mid,experiment,1
46,107,22047,74,64,0,2,9,8,1.mid,experiment,1
47,108,22151,71,64,0,2,9,8,1.mid,experiment,1
48,110,22357,72,64,0,2,9,8,1.mid,experiment,1
49,112,22595,72,64,0,2,9,8,1.mid,experiment,1
50,114,22818,74,64,0,2,9,8,1.mid,experiment,1
51,116,23068,74,64,0,2,9,8,1.mid,experiment,1
52,118,23646,76,64,0,2,9,8,1.mid,experiment,1
53,120,24402,65,64,0,2,9,8,1.mid,experiment,1
54,122,24650,65,64,0,2,9,8,1.mid,experiment,1
55,124,24896,64,64,0,2,9,8,1.mid,experiment,1
56,126,25143,64,64,0,2,9,8,1.mid,experiment,1
57,128,25752,62,64,0,2,9,8,1.mid,experiment,1
58,130,26428,67,64,0,2,9,8,1.mid,experiment,1
59,132,26684,67,64,0,2,9,8,1.mid,experiment,1
60,134,27181,71,64,0,2,9,8,1.mid,experiment,1
61,134,,71,,0,2,9,8,1.mid,experiment,1
62,136,27438,72,64,0,2,9,8,1.mid,experiment,1
63,138,27670,72,64,0,2,9,8,1.mid,experiment,1
64,140,27934,73,64,0,2,9,8,1.mid,experiment,1
65,142,28200,73,64,0,2,9,8,1.mid,experiment,1
66,144,28675,74,64,0,2,9,8,1.mid,experiment,1
67,146,29194,77,64,0,2,9,8,1.mid,experiment,1
68,148,29661,76,64,0,2,9,8,1.mid,experiment,1
69,150,30180,74,64,0,2,9,8,1.mid,experiment,1
70,152,30756,72,64,0,2,9,8,1.mid,experiment,1
71,154,31220,84,64,0,2,9,8,1.mid,experiment,1
72,156,31965,84,64,0,2,9,8,1.mid,experiment,1
1,19,8171,79,64,0,2,9,16,6.mid,experiment,1
2,21,8421,78,64,0,2,9,16,6.mid,experiment,1
3,23,8675,79,64,0,2,9,16,6.mid,experiment,1
4,25,8925,76,64,0,2,9,16,6.mid,experiment,1
5,26,8986,72,64,0,2,9,16,6.mid,experiment,1
6,28,9223,67,64,0,2,9,16,6.mid,experiment,1
7,30,9480,67,64,0,2,9,16,6.mid,experiment,1
8,32,9735,67,64,0,2,9,16,6.mid,experiment,1
9,35,10271,79,64,0,2,9,16,6.mid,experiment,1
10,37,10532,78,64,0,2,9,16,6.mid,experiment,1
11,39,10791,79,64,0,2,9,16,6.mid,experiment,1
12,41,11058,76,64,0,2,9,16,6.mid,experiment,1
13,43,11262,72,64,0,2,9,16,6.mid,experiment,1
14,45,11563,76,64,0,2,9,16,6.mid,experiment,1
15,47,11814,79,64,0,2,9,16,6.mid,experiment,1
16,49,12079,84,64,0,2,9,16,6.mid,experiment,1
17,50,12154,83,64,0,2,9,16,6.mid,experiment,1
18,52,12349,81,64,0,2,9,16,6.mid,experiment,1
19,54,12589,81,64,0,2,9,16,6.mid,experiment,1
20,56,12824,81,64,0,2,9,16,6.mid,experiment,1
21,59,13340,83,64,0,2,9,16,6.mid,experiment,1
22,61,13580,81,64,0,2,9,16,6.mid,experiment,1
23,63,13815,84,64,0,2,9,16,6.mid,experiment,1
24,65,14128,81,64,0,2,9,16,6.mid,experiment,1
25,67,14348,78,64,0,2,9,16,6.mid,experiment,1
26,68,14427,79,64,0,2,9,16,6.mid,experiment,1
27,70,14776,79,64,0,2,9,16,6.mid,experiment,1
28,72,15338,79,64,0,2,9,16,6.mid,experiment,1
29,74,16176,77,64,0,2,9,16,6.mid,experiment,1
30,76,16419,77,64,0,2,9,16,6.mid,experiment,1
31,78,16658,76,64,0,2,9,16,6.mid,experiment,1
32,80,16914,76,64,0,2,9,16,6.mid,experiment,1
33,82,17444,74,64,0,2,9,16,6.mid,experiment,1
34,84,18399,79,64,0,2,9,16,6.mid,experiment,1
35,86,18909,77,64,0,2,9,16,6.mid,experiment,1
36,88,19313,76,64,0,2,9,16,6.mid,experiment,1
37,90,19558,76,64,0,2,9,16,6.mid,experiment,1
38,92,19773,76,64,0,2,9,16,6.mid,experiment,1
39,94,20027,76,64,0,2,9,16,6.mid,experiment,1
40,97,20512,81,64,0,2,9,16,6.mid,experiment,1
41,99,20805,77,64,0,2,9,16,6.mid,experiment,1
42,101,21005,76,64,0,2,9,16,6.mid,experiment,1
43,103,21289,74,64,0,2,9,16,6.mid,experiment,1
44,105,21499,76,64,0,2,9,16,6.mid,experiment,1
45,107,21771,79,64,0,2,9,16,6.mid,experiment,1
46,109,22000,74,64,0,2,9,16,6.mid,experiment,1
47,110,22070,71,64,0,2,9,16,6.mid,experiment,1
48,112,22267,72,64,0,2,9,16,6.mid,experiment,1
49,114,22502,72,64,0,2,9,16,6.mid,experiment,1
50,116,22750,74,64,0,2,9,16,6.mid,experiment,1
51,118,22991,74,64,0,2,9,16,6.mid,experiment,1
52,120,23521,76,64,0,2,9,16,6.mid,experiment,1
53,122,24333,65,64,0,2,9,16,6.mid,experiment,1
54,124,24582,65,64,0,2,9,16,6.mid,experiment,1
55,126,25072,64,64,0,2,9,16,6.mid,experiment,1
56,126,,64,,0,2,9,16,6.mid,experiment,1
57,128,25669,62,64,0,2,9,16,6.mid,experiment,1
58,130,26411,67,64,0,2,9,16,6.mid,experiment,1
59,132,26649,67,64,0,2,9,16,6.mid,experiment,1
60,134,26885,71,64,0,2,9,16,6.mid,experiment,1
61,136,27125,71,64,0,2,9,16,6.mid,experiment,1
62,138,27398,72,64,0,2,9,16,6.mid,experiment,1
63,140,27635,72,64,0,2,9,16,6.mid,experiment,1
64,142,27892,73,64,0,2,9,16,6.mid,experiment,1
65,144,28160,73,64,0,2,9,16,6.mid,experiment,1
66,146,28592,74,64,0,2,9,16,6.mid,experiment,1
67,148,29157,77,64,0,2,9,16,6.mid,experiment,1
68,150,29637,76,64,0,2,9,16,6.mid,experiment,1
69,152,30131,74,64,0,2,9,16,6.mid,experiment,1
70,154,30682,72,64,0,2,9,16,6.mid,experiment,1
71,156,31148,84,64,0,2,9,16,6.mid,experiment,1
72,158,31823,84,64,0,2,9,16,6.mid,experiment,1
1,19,8177,79,64,0,2,10,1,9.mid,experiment,1
2,21,8463,78,64,0,2,10,1,9.mid,experiment,1
3,23,8755,79,64,0,2,10,1,9.mid,experiment,1
4,25,9067,76,64,0,2,10,1,9.mid,experiment,1
5,26,9112,72,64,0,2,10,1,9.mid,experiment,1
6,28,9357,67,64,0,2,10,1,9.mid,experiment,1
7,30,9649,67,64,0,2,10,1,9.mid,experiment,1
8,32,9924,67,64,0,2,10,1,9.mid,experiment,1
9,35,10488,79,64,0,2,10,1,9.mid,experiment,1
10,37,10725,78,64,0,2,10,1,9.mid,experiment,1
11,39,11007,79,64,0,2,10,1,9.mid,experiment,1
12,41,11301,76,64,0,2,10,1,9.mid,experiment,1
13,43,11638,72,64,0,2,10,1,9.mid,experiment,1
14,45,11886,76,64,0,2,10,1,9.mid,experiment,1
15,47,12113,79,64,0,2,10,1,9.mid,experiment,1
16,49,12416,84,64,0,2,10,1,9.mid,experiment,1
17,50,12423,83,64,0,2,10,1,9.mid,experiment,1
18,52,12700,81,64,0,2,10,1,9.mid,experiment,1
19,54,12973,81,64,0,2,10,1,9.mid,experiment,1
20,56,13255,81,64,0,2,10,1,9.mid,experiment,1
21,59,13821,83,64,0,2,10,1,9.mid,experiment,1
22,61,14055,81,64,0,2,10,1,9.mid,experiment,1
23,63,14380,84,64,0,2,10,1,9.mid,experiment,1
24,65,14624,81,64,0,2,10,1,9.mid,experiment,1
25,67,14910,78,64,0,2,10,1,9.mid,experiment,1
26,68,14938,79,64,0,2,10,1,9.mid,experiment,1
27,70,15300,79,64,0,2,10,1,9.mid,experiment,1
28,72,16404,79,64,0,2,10,1,9.mid,experiment,1
29,74,16955,77,64,0,2,10,1,9.mid,experiment,1
30,76,17222,77,64,0,2,10,1,9.mid,experiment,1
31,78,17498,76,64,0,2,10,1,9.mid,experiment,1
32,80,17751,76,64,0,2,10,1,9.mid,experiment,1
33,82,18294,74,64,0,2,10,1,9.mid,experiment,1
34,84,19222,79,64,0,2,10,1,9.mid,experiment,1
35,86,19742,77,64,0,2,10,1,9.mid,experiment,1
36,88,20300,76,64,0,2,10,1,9.mid,experiment,1
37,90,20573,76,64,0,2,10,1,9.mid,experiment,1
38,92,20842,76,64,0,2,10,1,9.mid,experiment,1
39,94,21109,76,64,0,2,10,1,9.mid,experiment,1
40,97,21669,81,64,0,2,10,1,9.mid,experiment,1
41,99,21903,77,64,0,2,10,1,9.mid,experiment,1
42,101,22169,76,64,0,2,10,1,9.mid,experiment,1
43,103,22454,74,64,0,2,10,1,9.mid,experiment,1
44,105,22710,76,64,0,2,10,1,9.mid,experiment,1
45,107,22997,79,64,0,2,10,1,9.mid,experiment,1
46,109,23253,74,64,0,2,10,1,9.mid,experiment,1
47,110,23306,71,64,0,2,10,1,9.mid,experiment,1
48,112,23538,72,64,0,2,10,1,9.mid,experiment,1
49,114,23828,72,64,0,2,10,1,9.mid,experiment,1
50,116,24107,74,64,0,2,10,1,9.mid,experiment,1
51,118,24379,74,64,0,2,10,1,9.mid,experiment,1
52,120,25081,76,64,0,2,10,1,9.mid,experiment,1
53,122,25842,65,64,0,2,10,1,9.mid,experiment,1
54,124,26096,65,64,0,2,10,1,9.mid,experiment,1
55,126,26646,64,64,0,2,10,1,9.mid,experiment,1
56,126,,64,,0,2,10,1,9.mid,experiment,1
57,128,27475,62,64,0,2,10,1,9.mid,experiment,1
58,130,28117,67,64,0,2,10,1,9.mid,experiment,1
59,132,28406,67,64,0,2,10,1,9.mid,experiment,1
60,134,28953,71,64,0,2,10,1,9.mid,experiment,1
61,134,,71,,0,2,10,1,9.mid,experiment,1
62,136,29200,72,64,0,2,10,1,9.mid,experiment,1
63,138,29470,72,64,0,2,10,1,9.mid,experiment,1
64,140,29773,73,64,0,2,10,1,9.mid,experiment,1
65,142,30023,73,64,0,2,10,1,9.mid,experiment,1
66,144,30532,74,64,0,2,10,1,9.mid,experiment,1
67,146,31268,77,64,0,2,10,1,9.mid,experiment,1
68,148,31821,76,64,0,2,10,1,9.mid,experiment,1
69,150,32357,74,64,0,2,10,1,9.mid,experiment,1
70,152,32947,72,64,0,2,10,1,9.mid,experiment,1
71,154,33542,84,64,0,2,10,1,9.mid,experiment,1
72,156,34515,84,64,0,2,10,1,9.mid,experiment,1
1,19,8190,79,64,0,2,10,3,2.mid,experiment,1
2,21,8476,78,64,0,2,10,3,2.mid,experiment,1
3,23,8756,79,64,0,2,10,3,2.mid,experiment,1
4,25,9066,76,64,0,2,10,3,2.mid,experiment,1
5,26,9095,72,64,0,2,10,3,2.mid,experiment,1
6,28,9356,67,64,0,2,10,3,2.mid,experiment,1
7,30,9612,67,64,0,2,10,3,2.mid,experiment,1
8,32,9884,67,64,0,2,10,3,2.mid,experiment,1
9,35,10446,79,64,0,2,10,3,2.mid,experiment,1
10,37,10691,78,64,0,2,10,3,2.mid,experiment,1
11,39,10950,79,64,0,2,10,3,2.mid,experiment,1
12,41,11242,76,64,0,2,10,3,2.mid,experiment,1
13,43,11566,72,64,0,2,10,3,2.mid,experiment,1
14,45,11831,76,64,0,2,10,3,2.mid,experiment,1
15,47,12062,79,64,0,2,10,3,2.mid,experiment,1
16,49,12340,84,64,0,2,10,3,2.mid,experiment,1
17,50,12424,83,64,0,2,10,3,2.mid,experiment,1
18,52,12637,81,64,0,2,10,3,2.mid,experiment,1
19,54,12910,81,64,0,2,10,3,2.mid,experiment,1
20,56,13176,81,64,0,2,10,3,2.mid,experiment,1
21,59,13757,83,64,0,2,10,3,2.mid,experiment,1
22,61,13974,81,64,0,2,10,3,2.mid,experiment,1
23,63,14275,84,64,0,2,10,3,2.mid,experiment,1
24,65,14533,81,64,0,2,10,3,2.mid,experiment,1
25,67,14797,78,64,0,2,10,3,2.mid,experiment,1
26,68,14800,79,64,0,2,10,3,2.mid,experiment,1
27,70,15121,79,64,0,2,10,3,2.mid,experiment,1
28,72,16122,79,64,0,2,10,3,2.mid,experiment,1
29,74,16764,77,64,0,2,10,3,2.mid,experiment,1
30,76,17027,77,64,0,2,10,3,2.mid,experiment,1
31,78,17302,76,64,0,2,10,3,2.mid,experiment,1
32,80,17551,76,64,0,2,10,3,2.mid,experiment,1
33,82,18167,74,64,0,2,10,3,2.mid,experiment,1
34,84,19059,79,64,0,2,10,3,2.mid,experiment,1
35,86,19596,77,64,0,2,10,3,2.mid,experiment,1
36,88,20115,76,64,0,2,10,3,2.mid,experiment,1
37,90,20399,76,64,0,2,10,3,2.mid,experiment,1
38,92,20674,76,64,0,2,10,3,2.mid,experiment,1
39,94,20961,76,64,0,2,10,3,2.mid,experiment,1
40,97,21507,81,64,0,2,10,3,2.mid,experiment,1
41,99,21725,77,64,0,2,10,3,2.mid,experiment,1
42,101,21974,76,64,0,2,10,3,2.mid,experiment,1
43,103,22284,74,64,0,2,10,3,2.mid,experiment,1
44,105,22530,76,64,0,2,10,3,2.mid,experiment,1
45,107,22797,79,64,0,2,10,3,2.mid,experiment,1
46,109,23059,74,64,0,2,10,3,2.mid,experiment,1
47,110,23120,71,64,0,2,10,3,2.mid,experiment,1
48,112,23355,72,64,0,2,10,3,2.mid,experiment,1
49,114,23651,72,64,0,2,10,3,2.mid,experiment,1
50,116,23907,74,64,0,2,10,3,2.mid,experiment,1
51,118,24171,74,64,0,2,10,3,2.mid,experiment,1
52,120,24847,76,64,0,2,10,3,2.mid,experiment,1
53,122,25602,65,64,0,2,10,3,2.mid,experiment,1
54,124,25883,65,64,0,2,10,3,2.mid,experiment,1
55,126,26159,64,64,0,2,10,3,2.mid,experiment,1
56,128,26418,64,64,0,2,10,3,2.mid,experiment,1
57,130,27170,62,64,0,2,10,3,2.mid,experiment,1
58,132,27809,67,64,0,2,10,3,2.mid,experiment,1
59,134,28079,67,64,0,2,10,3,2.mid,experiment,1
60,136,28603,71,64,0,2,10,3,2.mid,experiment,1
61,136,,71,,0,2,10,3,2.mid,experiment,1
62,138,28875,72,64,0,2,10,3,2.mid,experiment,1
63,140,29137,72,64,0,2,10,3,2.mid,experiment,1
64,142,29397,73,64,0,2,10,3,2.mid,experiment,1
65,144,29653,73,64,0,2,10,3,2.mid,experiment,1
66,146,30280,74,64,0,2,10,3,2.mid,experiment,1
67,148,30888,77,64,0,2,10,3,2.mid,experiment,1
68,150,31458,76,64,0,2,10,3,2.mid,experiment,1
69,152,32010,74,64,0,2,10,3,2.mid,experiment,1
70,154,32593,72,64,0,2,10,3,2.mid,experiment,1
71,156,33184,84,64,0,2,10,3,2.mid,experiment,1
72,158,34250,84,64,0,2,10,3,2.mid,experiment,1
1,19,8199,79,64,0,2,10,7,7.mid,experiment,1
2,21,8466,78,64,0,2,10,7,7.mid,experiment,1
3,23,8789,79,64,0,2,10,7,7.mid,experiment,1
4,25,9050,76,64,0,2,10,7,7.mid,experiment,1
5,26,9076,72,64,0,2,10,7,7.mid,experiment,1
6,28,9336,67,64,0,2,10,7,7.mid,experiment,1
7,30,9880,67,64,0,2,10,7,7.mid,experiment,1
8,30,,67,,0,2,10,7,7.mid,experiment,1
9,33,10471,79,64,0,2,10,7,7.mid,experiment,1
10,35,10705,78,64,0,2,10,7,7.mid,experiment,1
11,37,10967,79,64,0,2,10,7,7.mid,experiment,1
12,39,11274,76,64,0,2,10,7,7.mid,experiment,1
13,41,11594,72,64,0,2,10,7,7.mid,experiment,1
14,43,11849,76,64,0,2,10,7,7.mid,experiment,1
15,45,12061,79,64,0,2,10,7,7.mid,experiment,1
16,47,12369,84,64,0,2,10,7,7.mid,experiment,1
17,48,12421,83,64,0,2,10,7,7.mid,experiment,1
18,50,12661,81,64,0,2,10,7,7.mid,experiment,1
19,52,12921,81,64,0,2,10,7,7.mid,experiment,1
20,54,13201,81,64,0,2,10,7,7.mid,experiment,1
21,57,13750,83,64,0,2,10,7,7.mid,experiment,1
22,59,13984,81,64,0,2,10,7,7.mid,experiment,1
23,61,14317,84,64,0,2,10,7,7.mid,experiment,1
24,63,14579,81,64,0,2,10,7,7.mid,experiment,1
25,64,14695,78,64,0,2,10,7,7.mid,experiment,1
26,66,14902,79,64,0,2,10,7,7.mid,experiment,1
27,68,15280,79,64,0,2,10,7,7.mid,experiment,1
28,70,16316,79,64,0,2,10,7,7.mid,experiment,1
29,72,16877,77,64,0,2,10,7,7.mid,experiment,1
30,74,17147,77,64,0,2,10,7,7.mid,experiment,1
31,76,17426,76,64,0,2,10,7,7.mid,experiment,1
32,78,17704,76,64,0,2,10,7,7.mid,experiment,1
33,80,18340,74,64,0,2,10,7,7.mid,experiment,1
34,82,19228,79,64,0,2,10,7,7.mid,experiment,1
35,84,19890,77,64,0,2,10,7,7.mid,experiment,1
36,86,20293,76,64,0,2,10,7,7.mid,experiment,1
37,88,20560,76,64,0,2,10,7,7.mid,experiment,1
38,90,20828,76,64,0,2,10,7,7.mid,experiment,1
39,92,21118,76,64,0,2,10,7,7.mid,experiment,1
40,95,21726,81,64,0,2,10,7,7.mid,experiment,1
41,97,21948,77,64,0,2,10,7,7.mid,experiment,1
42,99,22183,76,64,0,2,10,7,7.mid,experiment,1
43,101,22476,74,64,0,2,10,7,7.mid,experiment,1
44,103,22727,76,64,0,2,10,7,7.mid,experiment,1
45,105,23054,79,64,0,2,10,7,7.mid,experiment,1
46,107,23273,74,64,0,2,10,7,7.mid,experiment,1
47,108,23319,71,64,0,2,10,7,7.mid,experiment,1
48,110,23564,72,64,0,2,10,7,7.mid,experiment,1
49,112,23840,72,64,0,2,10,7,7.mid,experiment,1
50,114,24130,74,64,0,2,10,7,7.mid,experiment,1
51,116,24385,74,64,0,2,10,7,7.mid,experiment,1
52,118,25220,76,64,0,2,10,7,7.mid,experiment,1
53,120,25844,65,64,0,2,10,7,7.mid,experiment,1
54,122,26117,65,64,0,2,10,7,7.mid,experiment,1
55,124,26373,64,64,0,2,10,7,7.mid,experiment,1
56,126,26649,64,64,0,2,10,7,7.mid,experiment,1
57,128,27550,62,64,0,2,10,7,7.mid,experiment,1
58,130,28116,67,64,0,2,10,7,7.mid,experiment,1
59,132,28379,67,64,0,2,10,7,7.mid,experiment,1
60,134,28669,71,64,0,2,10,7,7.mid,experiment,1
61,136,28938,71,64,0,2,10,7,7.mid,experiment,1
62,138,29195,72,64,0,2,10,7,7.mid,experiment,1
63,140,29485,72,64,0,2,10,7,7.mid,experiment,1
64,142,29748,73,64,0,2,10,7,7.mid,experiment,1
65,144,30021,73,64,0,2,10,7,7.mid,experiment,1
66,146,30716,74,64,0,2,10,7,7.mid,experiment,1
67,148,31401,77,64,0,2,10,7,7.mid,experiment,1
68,150,31929,76,64,0,2,10,7,7.mid,experiment,1
69,152,32488,74,64,0,2,10,7,7.mid,experiment,1
70,154,33087,72,64,0,2,10,7,7.mid,experiment,1
71,156,33710,84,64,0,2,10,7,7.mid,experiment,1
72,158,34740,84,64,0,2,10,7,7.mid,experiment,1
1,19,8136,79,64,0,2,10,8,3.mid,experiment,1
2,21,8388,78,64,0,2,10,8,3.mid,experiment,1
3,23,8673,79,64,0,2,10,8,3.mid,experiment,1
4,25,8977,76,64,0,2,10,8,3.mid,experiment,1
5,26,9029,72,64,0,2,10,8,3.mid,experiment,1
6,28,9285,67,64,0,2,10,8,3.mid,experiment,1
7,30,9571,67,64,0,2,10,8,3.mid,experiment,1
8,32,9858,67,64,0,2,10,8,3.mid,experiment,1
9,35,10402,79,64,0,2,10,8,3.mid,experiment,1
10,37,10679,78,64,0,2,10,8,3.mid,experiment,1
11,39,10914,79,64,0,2,10,8,3.mid,experiment,1
12,41,11186,76,64,0,2,10,8,3.mid,experiment,1
13,43,11516,72,64,0,2,10,8,3.mid,experiment,1
14,45,11781,76,64,0,2,10,8,3.mid,experiment,1
15,47,12012,79,64,0,2,10,8,3.mid,experiment,1
16,49,12319,84,64,0,2,10,8,3.mid,experiment,1
17,50,12357,83,64,0,2,10,8,3.mid,experiment,1
18,52,12620,81,64,0,2,10,8,3.mid,experiment,1
19,54,12890,81,64,0,2,10,8,3.mid,experiment,1
20,56,13160,81,64,0,2,10,8,3.mid,experiment,1
21,59,13736,83,64,0,2,10,8,3.mid,experiment,1
22,61,13964,81,64,0,2,10,8,3.mid,experiment,1
23,63,14314,84,64,0,2,10,8,3.mid,experiment,1
24,65,14559,81,64,0,2,10,8,3.mid,experiment,1
25,66,14789,78,64,0,2,10,8,3.mid,experiment,1
26,68,14840,79,64,0,2,10,8,3.mid,experiment,1
27,70,15140,79,64,0,2,10,8,3.mid,experiment,1
28,72,16291,79,64,0,2,10,8,3.mid,experiment,1
29,74,16897,77,64,0,2,10,8,3.mid,experiment,1
30,76,17159,77,64,0,2,10,8,3.mid,experiment,1
31,78,17438,76,64,0,2,10,8,3.mid,experiment,1
32,80,17700,76,64,0,2,10,8,3.mid,experiment,1
33,82,18412,74,64,0,2,10,8,3.mid,experiment,1
34,84,19335,79,64,0,2,10,8,3.mid,experiment,1
35,86,19878,77,64,0,2,10,8,3.mid,experiment,1
36,88,20402,76,64,0,2,10,8,3.mid,experiment,1
37,90,20690,76,64,0,2,10,8,3.mid,experiment,1
38,92,20942,76,64,0,2,10,8,3.mid,experiment,1
39,94,21216,76,64,0,2,10,8,3.mid,experiment,1
40,97,21848,81,64,0,2,10,8,3.mid,experiment,1
41,99,22102,77,64,0,2,10,8,3.mid,experiment,1
42,101,22315,76,64,0,2,10,8,3.mid,experiment,1
43,103,22612,74,64,0,2,10,8,3.mid,experiment,1
44,105,22863,76,64,0,2,10,8,3.mid,experiment,1
45,107,23185,79,64,0,2,10,8,3.mid,experiment,1
46,109,23417,74,64,0,2,10,8,3.mid,experiment,1
47,110,23454,71,64,0,2,10,8,3.mid,experiment,1
48,112,23710,72,64,0,2,10,8,3.mid,experiment,1
49,114,23984,72,64,0,2,10,8,3.mid,experiment,1
50,116,24250,74,64,0,2,10,8,3.mid,experiment,1
51,118,24521,74,64,0,2,10,8,3.mid,experiment,1
52,120,25348,76,64,0,2,10,8,3.mid,experiment,1
53,122,26020,65,64,0,2,10,8,3.mid,experiment,1
54,124,26297,65,64,0,2,10,8,3.mid,experiment,1
55,126,26837,64,64,0,2,10,8,3.mid,experiment,1
56,126,,64,,0,2,10,8,3.mid,experiment,1
57,128,27708,62,64,0,2,10,8,3.mid,experiment,1
58,130,28277,67,64,0,2,10,8,3.mid,experiment,1
59,132,28572,67,64,0,2,10,8,3.mid,experiment,1
60,134,28817,71,64,0,2,10,8,3.mid,experiment,1
61,136,29110,71,64,0,2,10,8,3.mid,experiment,1
62,138,29388,72,64,0,2,10,8,3.mid,experiment,1
63,140,29656,72,64,0,2,10,8,3.mid,experiment,1
64,142,29931,73,64,0,2,10,8,3.mid,experiment,1
65,144,30197,73,64,0,2,10,8,3.mid,experiment,1
66,146,30839,74,64,0,2,10,8,3.mid,experiment,1
67,148,31545,77,64,0,2,10,8,3.mid,experiment,1
68,150,32062,76,64,0,2,10,8,3.mid,experiment,1
69,152,32659,74,64,0,2,10,8,3.mid,experiment,1
70,154,33207,72,64,0,2,10,8,3.mid,experiment,1
71,156,33805,84,64,0,2,10,8,3.mid,experiment,1
72,158,34794,84,64,0,2,10,8,3.mid,experiment,1
1,19,8179,79,64,0,2,10,11,13.mid,experiment,1
2,21,8437,78,64,0,2,10,11,13.mid,experiment,1
3,23,8714,79,64,0,2,10,11,13.mid,experiment,1
4,25,9013,76,64,0,2,10,11,13.mid,experiment,1
5,26,9067,72,64,0,2,10,11,13.mid,experiment,1
6,28,9284,67,64,0,2,10,11,13.mid,experiment,1
7,30,9563,67,64,0,2,10,11,13.mid,experiment,1
8,30,,67,,0,2,10,11,13.mid,experiment,1
9,33,10387,79,64,0,2,10,11,13.mid,experiment,1
10,35,10660,78,64,0,2,10,11,13.mid,experiment,1
11,37,10898,79,64,0,2,10,11,13.mid,experiment,1
12,38,11164,76,64,0,2,10,11,13.mid,experiment,1
13,41,11508,72,64,0,2,10,11,13.mid,experiment,1
14,43,11771,76,64,0,2,10,11,13.mid,experiment,1
15,45,11985,79,64,0,2,10,11,13.mid,experiment,1
16,47,12291,84,64,0,2,10,11,13.mid,experiment,1
17,48,12345,83,64,0,2,10,11,13.mid,experiment,1
18,50,12590,81,64,0,2,10,11,13.mid,experiment,1
19,52,12842,81,64,0,2,10,11,13.mid,experiment,1
20,54,13108,81,64,0,2,10,11,13.mid,experiment,1
21,57,13675,83,64,0,2,10,11,13.mid,experiment,1
22,59,13940,81,64,0,2,10,11,13.mid,experiment,1
23,61,14236,84,64,0,2,10,11,13.mid,experiment,1
24,63,14479,81,64,0,2,10,11,13.mid,experiment,1
25,65,14759,78,64,0,2,10,11,13.mid,experiment,1
26,66,14818,79,64,0,2,10,11,13.mid,experiment,1
27,68,15111,79,64,0,2,10,11,13.mid,experiment,1
28,70,16206,79,64,0,2,10,11,13.mid,experiment,1
29,72,16822,77,64,0,2,10,11,13.mid,experiment,1
30,74,17077,77,64,0,2,10,11,13.mid,experiment,1
31,76,17335,76,64,0,2,10,11,13.mid,experiment,1
32,78,17612,76,64,0,2,10,11,13.mid,experiment,1
33,80,18367,74,64,0,2,10,11,13.mid,experiment,1
34,82,19251,79,64,0,2,10,11,13.mid,experiment,1
35,84,19855,77,64,0,2,10,11,13.mid,experiment,1
36,86,20161,76,64,0,2,10,11,13.mid,experiment,1
37,88,20439,76,64,0,2,10,11,13.mid,experiment,1
38,90,20704,76,64,0,2,10,11,13.mid,experiment,1
39,92,20978,76,64,0,2,10,11,13.mid,experiment,1
40,95,21568,81,64,0,2,10,11,13.mid,experiment,1
41,97,21812,77,64,0,2,10,11,13.mid,experiment,1
42,99,22045,76,64,0,2,10,11,13.mid,experiment,1
43,101,22323,74,64,0,2,10,11,13.mid,experiment,1
44,103,22578,76,64,0,2,10,11,13.mid,experiment,1
45,105,22912,79,64,0,2,10,11,13.mid,experiment,1
46,107,23126,74,64,0,2,10,11,13.mid,experiment,1
47,108,23137,71,64,0,2,10,11,13.mid,experiment,1
48,110,23435,72,64,0,2,10,11,13.mid,experiment,1
49,112,23702,72,64,0,2,10,11,13.mid,experiment,1
50,114,23965,74,64,0,2,10,11,13.mid,experiment,1
51,116,24226,74,64,0,2,10,11,13.mid,experiment,1
52,118,25017,76,64,0,2,10,11,13.mid,experiment,1
53,120,25675,65,64,0,2,10,11,13.mid,experiment,1
54,122,25949,65,64,0,2,10,11,13.mid,experiment,1
55,124,26229,64,64,0,2,10,11,13.mid,experiment,1
56,126,26510,64,64,0,2,10,11,13.mid,experiment,1
57,128,27262,62,64,0,2,10,11,13.mid,experiment,1
58,130,27949,67,64,0,2,10,11,13.mid,experiment,1
59,132,28224,67,64,0,2,10,11,13.mid,experiment,1
60,134,28461,71,64,0,2,10,11,13.mid,experiment,1
61,136,28737,71,64,0,2,10,11,13.mid,experiment,1
62,138,29035,72,64,0,2,10,11,13.mid,experiment,1
63,140,29290,72,64,0,2,10,11,13.mid,experiment,1
64,142,29546,73,64,0,2,10,11,13.mid,experiment,1
65,144,29816,73,64,0,2,10,11,13.mid,experiment,1
66,146,30484,74,64,0,2,10,11,13.mid,experiment,1
67,148,31121,77,64,0,2,10,11,13.mid,experiment,1
68,150,31712,76,64,0,2,10,11,13.mid,experiment,1
69,152,32240,74,64,0,2,10,11,13.mid,experiment,1
70,154,32869,72,64,0,2,10,11,13.mid,experiment,1
71,156,33474,84,64,0,2,10,11,13.mid,experiment,1
72,158,34531,84,64,0,2,10,11,13.mid,experiment,1
1,19,8280,79,64,0,2,11,4,1.mid,experiment,1
2,21,8571,78,64,0,2,11,4,1.mid,experiment,1
3,23,8782,79,64,0,2,11,4,1.mid,experiment,1
4,25,8998,76,64,0,2,11,4,1.mid,experiment,1
5,26,9018,72,64,0,2,11,4,1.mid,experiment,1
6,28,9341,67,64,0,2,11,4,1.mid,experiment,1
7,30,9583,67,64,0,2,11,4,1.mid,experiment,1
8,32,9872,67,64,0,2,11,4,1.mid,experiment,1
9,35,10491,79,64,0,2,11,4,1.mid,experiment,1
10,37,10704,78,64,0,2,11,4,1.mid,experiment,1
11,39,10957,79,64,0,2,11,4,1.mid,experiment,1
12,41,11169,76,64,0,2,11,4,1.mid,experiment,1
13,43,11490,72,64,0,2,11,4,1.mid,experiment,1
14,45,11749,76,64,0,2,11,4,1.mid,experiment,1
15,47,11944,79,64,0,2,11,4,1.mid,experiment,1
16,49,12235,84,64,0,2,11,4,1.mid,experiment,1
17,50,12270,83,64,0,2,11,4,1.mid,experiment,1
18,52,12551,81,64,0,2,11,4,1.mid,experiment,1
19,54,12813,81,64,0,2,11,4,1.mid,experiment,1
20,56,13042,81,64,0,2,11,4,1.mid,experiment,1
21,59,13581,83,64,0,2,11,4,1.mid,experiment,1
22,61,13822,81,64,0,2,11,4,1.mid,experiment,1
23,63,14110,84,64,0,2,11,4,1.mid,experiment,1
24,65,14336,81,64,0,2,11,4,1.mid,experiment,1
25,67,14601,78,64,0,2,11,4,1.mid,experiment,1
26,68,14635,79,64,0,2,11,4,1.mid,experiment,1
27,70,14888,79,64,0,2,11,4,1.mid,experiment,1
28,72,15465,79,64,0,2,11,4,1.mid,experiment,1
29,74,16570,77,64,0,2,11,4,1.mid,experiment,1
30,76,16832,77,64,0,2,11,4,1.mid,experiment,1
31,78,17091,76,64,0,2,11,4,1.mid,experiment,1
32,80,17337,76,64,0,2,11,4,1.mid,experiment,1
33,82,17995,74,64,0,2,11,4,1.mid,experiment,1
34,84,18954,79,64,0,2,11,4,1.mid,experiment,1
35,86,19446,77,64,0,2,11,4,1.mid,experiment,1
36,88,19856,76,64,0,2,11,4,1.mid,experiment,1
37,90,20101,76,64,0,2,11,4,1.mid,experiment,1
38,92,20364,76,64,0,2,11,4,1.mid,experiment,1
39,94,20638,76,64,0,2,11,4,1.mid,experiment,1
40,97,21236,81,64,0,2,11,4,1.mid,experiment,1
41,99,21486,77,64,0,2,11,4,1.mid,experiment,1
42,101,21666,76,64,0,2,11,4,1.mid,experiment,1
43,103,21932,74,64,0,2,11,4,1.mid,experiment,1
44,105,22166,76,64,0,2,11,4,1.mid,experiment,1
45,107,22460,79,64,0,2,11,4,1.mid,experiment,1
46,109,22636,74,64,0,2,11,4,1.mid,experiment,1
47,110,22684,71,64,0,2,11,4,1.mid,experiment,1
48,112,22999,72,64,0,2,11,4,1.mid,experiment,1
49,114,23270,72,64,0,2,11,4,1.mid,experiment,1
50,116,23517,74,64,0,2,11,4,1.mid,experiment,1
51,118,23785,74,64,0,2,11,4,1.mid,experiment,1
52,120,24493,76,64,0,2,11,4,1.mid,experiment,1
53,122,25179,65,64,0,2,11,4,1.mid,experiment,1
54,124,25455,65,64,0,2,11,4,1.mid,experiment,1
55,126,25688,64,64,0,2,11,4,1.mid,experiment,1
56,128,25951,64,64,0,2,11,4,1.mid,experiment,1
57,130,26731,62,64,0,2,11,4,1.mid,experiment,1
58,132,27398,67,64,0,2,11,4,1.mid,experiment,1
59,134,27656,67,64,0,2,11,4,1.mid,experiment,1
60,136,28156,71,64,0,2,11,4,1.mid,experiment,1
61,136,,71,,0,2,11,4,1.mid,experiment,1
62,138,28456,72,64,0,2,11,4,1.mid,experiment,1
63,140,28682,72,64,0,2,11,4,1.mid,experiment,1
64,142,28958,73,64,0,2,11,4,1.mid,experiment,1
65,144,29187,73,64,0,2,11,4,1.mid,experiment,1
66,146,29455,74,64,0,2,11,4,1.mid,experiment,1
67,148,29995,77,64,0,2,11,4,1.mid,experiment,1
68,150,30539,76,64,0,2,11,4,1.mid,experiment,1
69,152,31088,74,64,0,2,11,4,1.mid,experiment,1
70,154,31609,72,64,0,2,11,4,1.mid,experiment,1
71,156,32171,84,64,0,2,11,4,1.mid,experiment,1
72,158,32801,84,64,0,2,11,4,1.mid,experiment,1
1,19,8240,79,64,0,2,11,11,6.mid,experiment,1
2,21,8500,78,64,0,2,11,11,6.mid,experiment,1
3,23,8738,79,64,0,2,11,11,6.mid,experiment,1
4,25,8980,76,64,0,2,11,11,6.mid,experiment,1
5,26,9017,72,64,0,2,11,11,6.mid,experiment,1
6,28,9566,67,64,0,2,11,11,6.mid,experiment,1
7,30,9838,67,64,0,2,11,11,6.mid,experiment,1
8,30,,67,,0,2,11,11,6.mid,experiment,1
9,33,10440,79,64,0,2,11,11,6.mid,experiment,1
10,35,10682,78,64,0,2,11,11,6.mid,experiment,1
11,37,10936,79,64,0,2,11,11,6.mid,experiment,1
12,39,11178,76,64,0,2,11,11,6.mid,experiment,1
13,41,11471,72,64,0,2,11,11,6.mid,experiment,1
14,43,11759,76,64,0,2,11,11,6.mid,experiment,1
15,45,11937,79,64,0,2,11,11,6.mid,experiment,1
16,47,12226,84,64,0,2,11,11,6.mid,experiment,1
17,48,12264,83,64,0,2,11,11,6.mid,experiment,1
18,50,12530,81,64,0,2,11,11,6.mid,experiment,1
19,52,12786,81,64,0,2,11,11,6.mid,experiment,1
20,54,13048,81,64,0,2,11,11,6.mid,experiment,1
21,57,13622,83,64,0,2,11,11,6.mid,experiment,1
22,59,13860,81,64,0,2,11,11,6.mid,experiment,1
23,61,14154,84,64,0,2,11,11,6.mid,experiment,1
24,63,14400,81,64,0,2,11,11,6.mid,experiment,1
25,65,14670,78,64,0,2,11,11,6.mid,experiment,1
26,66,14702,79,64,0,2,11,11,6.mid,experiment,1
27,68,14976,79,64,0,2,11,11,6.mid,experiment,1
28,70,15740,79,64,0,2,11,11,6.mid,experiment,1
29,72,16824,77,64,0,2,11,11,6.mid,experiment,1
30,74,17079,77,64,0,2,11,11,6.mid,experiment,1
31,76,17330,76,64,0,2,11,11,6.mid,experiment,1
32,78,17582,76,64,0,2,11,11,6.mid,experiment,1
33,80,18414,74,64,0,2,11,11,6.mid,experiment,1
34,82,19306,79,64,0,2,11,11,6.mid,experiment,1
35,84,19789,77,64,0,2,11,11,6.mid,experiment,1
36,86,20161,76,64,0,2,11,11,6.mid,experiment,1
37,88,20414,76,64,0,2,11,11,6.mid,experiment,1
38,90,20676,76,64,0,2,11,11,6.mid,experiment,1
39,92,20937,76,64,0,2,11,11,6.mid,experiment,1
40,95,21568,81,64,0,2,11,11,6.mid,experiment,1
41,97,21806,77,64,0,2,11,11,6.mid,experiment,1
42,99,22028,76,64,0,2,11,11,6.mid,experiment,1
43,101,22315,74,64,0,2,11,11,6.mid,experiment,1
44,103,22546,76,64,0,2,11,11,6.mid,experiment,1
45,105,22854,79,64,0,2,11,11,6.mid,experiment,1
46,107,23032,74,64,0,2,11,11,6.mid,experiment,1
47,108,23072,71,64,0,2,11,11,6.mid,experiment,1
48,110,23348,72,64,0,2,11,11,6.mid,experiment,1
49,112,23600,72,64,0,2,11,11,6.mid,experiment,1
50,114,23855,74,64,0,2,11,11,6.mid,experiment,1
51,116,24122,74,64,0,2,11,11,6.mid,experiment,1
52,118,24858,76,64,0,2,11,11,6.mid,experiment,1
53,120,25602,65,64,0,2,11,11,6.mid,experiment,1
54,122,25854,65,64,0,2,11,11,6.mid,experiment,1
55,124,26133,64,64,0,2,11,11,6.mid,experiment,1
56,126,26370,64,64,0,2,11,11,6.mid,experiment,1
57,128,27162,62,64,0,2,11,11,6.mid,experiment,1
58,130,27794,67,64,0,2,11,11,6.mid,experiment,1
59,132,28096,67,64,0,2,11,11,6.mid,experiment,1
60,134,28312,71,64,0,2,11,11,6.mid,experiment,1
61,136,28578,71,64,0,2,11,11,6.mid,experiment,1
62,138,28856,72,64,0,2,11,11,6.mid,experiment,1
63,140,29112,72,64,0,2,11,11,6.mid,experiment,1
64,142,29395,73,64,0,2,11,11,6.mid,experiment,1
65,144,29656,73,64,0,2,11,11,6.mid,experiment,1
66,146,30208,74,64,0,2,11,11,6.mid,experiment,1
67,148,30706,77,64,0,2,11,11,6.mid,experiment,1
68,150,31250,76,64,0,2,11,11,6.mid,experiment,1
69,152,31718,74,64,0,2,11,11,6.mid,experiment,1
70,154,32394,72,64,0,2,11,11,6.mid,experiment,1
71,156,32890,84,64,0,2,11,11,6.mid,experiment,1
72,158,33704,84,64,0,2,11,11,6.mid,experiment,1
1,19,8315,79,64,0,2,11,15,5.mid,experiment,1
2,21,8543,78,64,0,2,11,15,5.mid,experiment,1
3,23,8804,79,64,0,2,11,15,5.mid,experiment,1
4,25,9025,76,64,0,2,11,15,5.mid,experiment,1
5,26,9031,72,64,0,2,11,15,5.mid,experiment,1
6,28,9337,67,64,0,2,11,15,5.mid,experiment,1
7,30,9590,67,64,0,2,11,15,5.mid,experiment,1
8,30,,67,,0,2,11,15,5.mid,experiment,1
9,33,10556,79,64,0,2,11,15,5.mid,experiment,1
10,35,10744,78,64,0,2,11,15,5.mid,experiment,1
11,37,11034,79,64,0,2,11,15,5.mid,experiment,1
12,39,11224,76,64,0,2,11,15,5.mid,experiment,1
13,41,11564,72,64,0,2,11,15,5.mid,experiment,1
14,43,11840,76,64,0,2,11,15,5.mid,experiment,1
15,45,11981,79,64,0,2,11,15,5.mid,experiment,1
16,47,12284,84,64,0,2,11,15,5.mid,experiment,1
17,48,12305,83,64,0,2,11,15,5.mid,experiment,1
18,50,12559,81,64,0,2,11,15,5.mid,experiment,1
19,52,12815,81,64,0,2,11,15,5.mid,experiment,1
20,54,13046,81,64,0,2,11,15,5.mid,experiment,1
21,57,13696,83,64,0,2,11,15,5.mid,experiment,1
22,59,13896,81,64,0,2,11,15,5.mid,experiment,1
23,61,14188,84,64,0,2,11,15,5.mid,experiment,1
24,63,14434,81,64,0,2,11,15,5.mid,experiment,1
25,65,14732,78,64,0,2,11,15,5.mid,experiment,1
26,66,14760,79,64,0,2,11,15,5.mid,experiment,1
27,68,15038,79,64,0,2,11,15,5.mid,experiment,1
28,70,15897,79,64,0,2,11,15,5.mid,experiment,1
29,72,16755,77,64,0,2,11,15,5.mid,experiment,1
30,74,17025,77,64,0,2,11,15,5.mid,experiment,1
31,76,17263,76,64,0,2,11,15,5.mid,experiment,1
32,78,17525,76,64,0,2,11,15,5.mid,experiment,1
33,80,18447,74,64,0,2,11,15,5.mid,experiment,1
34,82,19307,79,64,0,2,11,15,5.mid,experiment,1
35,84,19807,77,64,0,2,11,15,5.mid,experiment,1
36,86,20138,76,64,0,2,11,15,5.mid,experiment,1
37,88,20393,76,64,0,2,11,15,5.mid,experiment,1
38,90,20643,76,64,0,2,11,15,5.mid,experiment,1
39,92,20897,76,64,0,2,11,15,5.mid,experiment,1
40,95,21583,81,64,0,2,11,15,5.mid,experiment,1
41,97,21803,77,64,0,2,11,15,5.mid,experiment,1
42,99,22027,76,64,0,2,11,15,5.mid,experiment,1
43,101,22302,74,64,0,2,11,15,5.mid,experiment,1
44,103,22562,76,64,0,2,11,15,5.mid,experiment,1
45,105,22896,79,64,0,2,11,15,5.mid,experiment,1
46,107,23041,74,64,0,2,11,15,5.mid,experiment,1
47,108,23098,71,64,0,2,11,15,5.mid,experiment,1
48,110,23328,72,64,0,2,11,15,5.mid,experiment,1
49,112,23581,72,64,0,2,11,15,5.mid,experiment,1
50,114,23841,74,64,0,2,11,15,5.mid,experiment,1
51,116,24111,74,64,0,2,11,15,5.mid,experiment,1
52,118,24909,76,64,0,2,11,15,5.mid,experiment,1
53,120,25593,65,64,0,2,11,15,5.mid,experiment,1
54,122,25856,65,64,0,2,11,15,5.mid,experiment,1
55,124,26141,64,64,0,2,11,15,5.mid,experiment,1
56,126,26391,64,64,0,2,11,15,5.mid,experiment,1
57,128,27238,62,64,0,2,11,15,5.mid,experiment,1
58,130,27932,67,64,0,2,11,15,5.mid,experiment,1
59,132,28273,67,64,0,2,11,15,5.mid,experiment,1
60,134,28436,71,64,0,2,11,15,5.mid,experiment,1
61,136,28705,71,64,0,2,11,15,5.mid,experiment,1
62,138,29001,72,64,0,2,11,15,5.mid,experiment,1
63,140,29252,72,64,0,2,11,15,5.mid,experiment,1
64,142,29517,73,64,0,2,11,15,5.mid,experiment,1
65,144,29776,73,64,0,2,11,15,5.mid,experiment,1
66,146,30416,74,64,0,2,11,15,5.mid,experiment,1
67,148,30962,77,64,0,2,11,15,5.mid,experiment,1
68,150,31516,76,64,0,2,11,15,5.mid,experiment,1
69,152,31983,74,64,0,2,11,15,5.mid,experiment,1
70,154,32605,72,64,0,2,11,15,5.mid,experiment,1
71,156,32982,84,64,0,2,11,15,5.mid,experiment,1
72,158,33994,84,64,0,2,11,15,5.mid,experiment,1
1,19,8259,79,64,0,2,12,1,16.mid,experiment,1
2,21,8587,78,64,0,2,12,1,16.mid,experiment,1
3,23,8895,79,64,0,2,12,1,16.mid,experiment,1
4,25,9235,76,64,0,2,12,1,16.mid,experiment,1
5,26,9325,72,64,0,2,12,1,16.mid,experiment,1
6,28,9825,67,64,0,2,12,1,16.mid,experiment,1
7,30,10109,67,64,0,2,12,1,16.mid,experiment,1
8,30,,67,,0,2,12,1,16.mid,experiment,1
9,33,10815,79,64,0,2,12,1,16.mid,experiment,1
10,35,11079,78,64,0,2,12,1,16.mid,experiment,1
11,37,11416,79,64,0,2,12,1,16.mid,experiment,1
12,39,11707,76,64,0,2,12,1,16.mid,experiment,1
13,41,12091,72,64,0,2,12,1,16.mid,experiment,1
14,43,12334,76,64,0,2,12,1,16.mid,experiment,1
15,45,12564,79,64,0,2,12,1,16.mid,experiment,1
16,47,12936,84,64,0,2,12,1,16.mid,experiment,1
17,48,13166,83,64,0,2,12,1,16.mid,experiment,1
18,50,13224,81,64,0,2,12,1,16.mid,experiment,1
19,52,13523,81,64,0,2,12,1,16.mid,experiment,1
20,54,13832,81,64,0,2,12,1,16.mid,experiment,1
21,57,14515,83,64,0,2,12,1,16.mid,experiment,1
22,59,14831,81,64,0,2,12,1,16.mid,experiment,1
23,61,15129,84,64,0,2,12,1,16.mid,experiment,1
24,63,15415,81,64,0,2,12,1,16.mid,experiment,1
25,65,15761,78,64,0,2,12,1,16.mid,experiment,1
26,66,15882,79,64,0,2,12,1,16.mid,experiment,1
27,68,16439,79,64,0,2,12,1,16.mid,experiment,1
28,70,17572,79,64,0,2,12,1,16.mid,experiment,1
29,72,18053,77,64,0,2,12,1,16.mid,experiment,1
30,74,18363,77,64,0,2,12,1,16.mid,experiment,1
31,76,18678,76,64,0,2,12,1,16.mid,experiment,1
32,78,18983,76,64,0,2,12,1,16.mid,experiment,1
33,80,19971,74,64,0,2,12,1,16.mid,experiment,1
34,82,21172,79,64,0,2,12,1,16.mid,experiment,1
35,84,21793,77,64,0,2,12,1,16.mid,experiment,1
36,86,22040,76,64,0,2,12,1,16.mid,experiment,1
37,88,22360,76,64,0,2,12,1,16.mid,experiment,1
38,90,22654,76,64,0,2,12,1,16.mid,experiment,1
39,92,22954,76,64,0,2,12,1,16.mid,experiment,1
40,95,23736,81,64,0,2,12,1,16.mid,experiment,1
41,97,23995,77,64,0,2,12,1,16.mid,experiment,1
42,99,24255,76,64,0,2,12,1,16.mid,experiment,1
43,101,24642,74,64,0,2,12,1,16.mid,experiment,1
44,103,24902,76,64,0,2,12,1,16.mid,experiment,1
45,105,25263,79,64,0,2,12,1,16.mid,experiment,1
46,107,25469,74,64,0,2,12,1,16.mid,experiment,1
47,108,25737,71,64,0,2,12,1,16.mid,experiment,1
48,110,25793,72,64,0,2,12,1,16.mid,experiment,1
49,112,26085,72,64,0,2,12,1,16.mid,experiment,1
50,114,26408,74,64,0,2,12,1,16.mid,experiment,1
51,116,26717,74,64,0,2,12,1,16.mid,experiment,1
52,118,27396,76,64,0,2,12,1,16.mid,experiment,1
53,120,28360,65,64,0,2,12,1,16.mid,experiment,1
54,122,28665,65,64,0,2,12,1,16.mid,experiment,1
55,124,28988,64,64,0,2,12,1,16.mid,experiment,1
56,126,29307,64,64,0,2,12,1,16.mid,experiment,1
57,128,30314,62,64,0,2,12,1,16.mid,experiment,1
58,130,30877,67,64,0,2,12,1,16.mid,experiment,1
59,132,31196,67,64,0,2,12,1,16.mid,experiment,1
60,134,31526,71,64,0,2,12,1,16.mid,experiment,1
61,136,31798,71,64,0,2,12,1,16.mid,experiment,1
62,138,32106,72,64,0,2,12,1,16.mid,experiment,1
63,140,32440,72,64,0,2,12,1,16.mid,experiment,1
64,142,32718,73,64,0,2,12,1,16.mid,experiment,1
65,144,33073,73,64,0,2,12,1,16.mid,experiment,1
66,146,33658,74,64,0,2,12,1,16.mid,experiment,1
67,148,34363,77,64,0,2,12,1,16.mid,experiment,1
68,150,35083,76,64,0,2,12,1,16.mid,experiment,1
69,152,35690,74,64,0,2,12,1,16.mid,experiment,1
70,154,36388,72,64,0,2,12,1,16.mid,experiment,1
71,156,37091,84,64,0,2,12,1,16.mid,experiment,1
72,158,38067,84,64,0,2,12,1,16.mid,experiment,1
1,19,8204,79,64,0,2,12,5,10.mid,experiment,1
2,21,8463,78,64,0,2,12,5,10.mid,experiment,1
3,23,8778,79,64,0,2,12,5,10.mid,experiment,1
4,25,9038,76,64,0,2,12,5,10.mid,experiment,1
5,26,9178,72,64,0,2,12,5,10.mid,experiment,1
6,28,9340,67,64,0,2,12,5,10.mid,experiment,1
7,30,9602,67,64,0,2,12,5,10.mid,experiment,1
8,32,9882,67,64,0,2,12,5,10.mid,experiment,1
9,35,10432,79,64,0,2,12,5,10.mid,experiment,1
10,37,10684,78,64,0,2,12,5,10.mid,experiment,1
11,39,10964,79,64,0,2,12,5,10.mid,experiment,1
12,41,11210,76,64,0,2,12,5,10.mid,experiment,1
13,43,11526,72,64,0,2,12,5,10.mid,experiment,1
14,45,11750,76,64,0,2,12,5,10.mid,experiment,1
15,47,11982,79,64,0,2,12,5,10.mid,experiment,1
16,49,12322,84,64,0,2,12,5,10.mid,experiment,1
17,50,12424,83,64,0,2,12,5,10.mid,experiment,1
18,52,12672,81,64,0,2,12,5,10.mid,experiment,1
19,54,12963,81,64,0,2,12,5,10.mid,experiment,1
20,56,13214,81,64,0,2,12,5,10.mid,experiment,1
21,59,13792,83,64,0,2,12,5,10.mid,experiment,1
22,61,14014,81,64,0,2,12,5,10.mid,experiment,1
23,63,14308,84,64,0,2,12,5,10.mid,experiment,1
24,65,14545,81,64,0,2,12,5,10.mid,experiment,1
25,67,14821,78,64,0,2,12,5,10.mid,experiment,1
26,68,14924,79,64,0,2,12,5,10.mid,experiment,1
27,70,15242,79,64,0,2,12,5,10.mid,experiment,1
28,72,16166,79,64,0,2,12,5,10.mid,experiment,1
29,74,16914,77,64,0,2,12,5,10.mid,experiment,1
30,76,17163,77,64,0,2,12,5,10.mid,experiment,1
31,78,17459,76,64,0,2,12,5,10.mid,experiment,1
32,80,17714,76,64,0,2,12,5,10.mid,experiment,1
33,82,18564,74,64,0,2,12,5,10.mid,experiment,1
34,84,19428,79,64,0,2,12,5,10.mid,experiment,1
35,86,20066,77,64,0,2,12,5,10.mid,experiment,1
36,88,20332,76,64,0,2,12,5,10.mid,experiment,1
37,90,20604,76,64,0,2,12,5,10.mid,experiment,1
38,92,20858,76,64,0,2,12,5,10.mid,experiment,1
39,94,21121,76,64,0,2,12,5,10.mid,experiment,1
40,97,21705,81,64,0,2,12,5,10.mid,experiment,1
41,99,21977,77,64,0,2,12,5,10.mid,experiment,1
42,101,22154,76,64,0,2,12,5,10.mid,experiment,1
43,103,22450,74,64,0,2,12,5,10.mid,experiment,1
44,105,22697,76,64,0,2,12,5,10.mid,experiment,1
45,107,22988,79,64,0,2,12,5,10.mid,experiment,1
46,109,23198,74,64,0,2,12,5,10.mid,experiment,1
47,110,23354,71,64,0,2,12,5,10.mid,experiment,1
48,112,23548,72,64,0,2,12,5,10.mid,experiment,1
49,114,23802,72,64,0,2,12,5,10.mid,experiment,1
50,116,24054,74,64,0,2,12,5,10.mid,experiment,1
51,118,24320,74,64,0,2,12,5,10.mid,experiment,1
52,120,25160,76,64,0,2,12,5,10.mid,experiment,1
53,122,25850,65,64,0,2,12,5,10.mid,experiment,1
54,124,26132,65,64,0,2,12,5,10.mid,experiment,1
55,126,26692,64,64,0,2,12,5,10.mid,experiment,1
56,126,,64,,0,2,12,5,10.mid,experiment,1
57,128,27570,62,64,0,2,12,5,10.mid,experiment,1
58,130,28208,67,64,0,2,12,5,10.mid,experiment,1
59,132,28496,67,64,0,2,12,5,10.mid,experiment,1
60,134,28741,71,64,0,2,12,5,10.mid,experiment,1
61,136,28997,71,64,0,2,12,5,10.mid,experiment,1
62,138,29270,72,64,0,2,12,5,10.mid,experiment,1
63,140,29528,72,64,0,2,12,5,10.mid,experiment,1
64,142,29804,73,64,0,2,12,5,10.mid,experiment,1
65,144,30064,73,64,0,2,12,5,10.mid,experiment,1
66,146,30704,74,64,0,2,12,5,10.mid,experiment,1
67,148,31317,77,64,0,2,12,5,10.mid,experiment,1
68,150,31835,76,64,0,2,12,5,10.mid,experiment,1
69,152,32406,74,64,0,2,12,5,10.mid,experiment,1
70,154,32926,72,64,0,2,12,5,10.mid,experiment,1
71,156,33465,84,64,0,2,12,5,10.mid,experiment,1
72,158,34317,84,64,0,2,12,5,10.mid,experiment,1
1,19,8189,79,64,0,2,12,6,4.mid,experiment,1
2,21,8466,78,64,0,2,12,6,4.mid,experiment,1
3,23,8762,79,64,0,2,12,6,4.mid,experiment,1
4,25,9054,76,64,0,2,12,6,4.mid,experiment,1
5,26,9221,72,64,0,2,12,6,4.mid,experiment,1
6,28,9884,67,64,0,2,12,6,4.mid,experiment,1
7,30,10210,67,64,0,2,12,6,4.mid,experiment,1
8,32,10529,67,64,0,2,12,6,4.mid,experiment,1
9,35,11126,79,64,0,2,12,6,4.mid,experiment,1
10,37,11400,78,64,0,2,12,6,4.mid,experiment,1
11,39,11640,79,64,0,2,12,6,4.mid,experiment,1
12,41,11912,76,64,0,2,12,6,4.mid,experiment,1
13,43,12177,72,64,0,2,12,6,4.mid,experiment,1
14,45,12432,76,64,0,2,12,6,4.mid,experiment,1
15,47,12652,79,64,0,2,12,6,4.mid,experiment,1
16,49,13024,84,64,0,2,12,6,4.mid,experiment,1
17,50,13188,83,64,0,2,12,6,4.mid,experiment,1
18,52,13534,81,64,0,2,12,6,4.mid,experiment,1
19,54,13866,81,64,0,2,12,6,4.mid,experiment,1
20,56,14146,81,64,0,2,12,6,4.mid,experiment,1
21,59,14687,83,64,0,2,12,6,4.mid,experiment,1
22,61,14937,81,64,0,2,12,6,4.mid,experiment,1
23,63,15239,84,64,0,2,12,6,4.mid,experiment,1
24,65,15481,81,64,0,2,12,6,4.mid,experiment,1
25,67,15755,78,64,0,2,12,6,4.mid,experiment,1
26,68,15875,79,64,0,2,12,6,4.mid,experiment,1
27,70,16197,79,64,0,2,12,6,4.mid,experiment,1
28,72,17198,79,64,0,2,12,6,4.mid,experiment,1
29,74,17944,77,64,0,2,12,6,4.mid,experiment,1
30,76,18229,77,64,0,2,12,6,4.mid,experiment,1
31,78,18518,76,64,0,2,12,6,4.mid,experiment,1
32,80,18841,76,64,0,2,12,6,4.mid,experiment,1
33,82,19629,74,64,0,2,12,6,4.mid,experiment,1
34,84,20609,79,64,0,2,12,6,4.mid,experiment,1
35,86,21290,77,64,0,2,12,6,4.mid,experiment,1
36,88,21647,76,64,0,2,12,6,4.mid,experiment,1
37,90,21934,76,64,0,2,12,6,4.mid,experiment,1
38,92,22216,76,64,0,2,12,6,4.mid,experiment,1
39,94,22457,76,64,0,2,12,6,4.mid,experiment,1
40,97,23035,81,64,0,2,12,6,4.mid,experiment,1
41,99,23282,77,64,0,2,12,6,4.mid,experiment,1
42,100,23514,76,64,0,2,12,6,4.mid,experiment,1
43,103,23814,74,64,0,2,12,6,4.mid,experiment,1
44,105,24074,76,64,0,2,12,6,4.mid,experiment,1
45,107,24363,79,64,0,2,12,6,4.mid,experiment,1
46,108,24587,74,64,0,2,12,6,4.mid,experiment,1
47,110,24745,71,64,0,2,12,6,4.mid,experiment,1
48,112,25064,72,64,0,2,12,6,4.mid,experiment,1
49,114,25335,72,64,0,2,12,6,4.mid,experiment,1
50,116,25604,74,64,0,2,12,6,4.mid,experiment,1
51,118,25859,74,64,0,2,12,6,4.mid,experiment,1
52,120,26408,76,64,0,2,12,6,4.mid,experiment,1
53,122,27573,65,64,0,2,12,6,4.mid,experiment,1
54,124,27833,65,64,0,2,12,6,4.mid,experiment,1
55,126,28144,64,64,0,2,12,6,4.mid,experiment,1
56,128,28443,64,64,0,2,12,6,4.mid,experiment,1
57,130,28933,62,64,0,2,12,6,4.mid,experiment,1
58,132,29955,67,64,0,2,12,6,4.mid,experiment,1
59,134,30269,67,64,0,2,12,6,4.mid,experiment,1
60,136,30770,71,64,0,2,12,6,4.mid,experiment,1
61,136,,71,,0,2,12,6,4.mid,experiment,1
62,138,31045,72,64,0,2,12,6,4.mid,experiment,1
63,140,31320,72,64,0,2,12,6,4.mid,experiment,1
64,142,31605,73,64,0,2,12,6,4.mid,experiment,1
65,144,31890,73,64,0,2,12,6,4.mid,experiment,1
66,146,32473,74,64,0,2,12,6,4.mid,experiment,1
67,148,33096,77,64,0,2,12,6,4.mid,experiment,1
68,150,33674,76,64,0,2,12,6,4.mid,experiment,1
69,152,34221,74,64,0,2,12,6,4.mid,experiment,1
70,154,34738,72,64,0,2,12,6,4.mid,experiment,1
71,156,35279,84,64,0,2,12,6,4.mid,experiment,1
72,158,36082,84,64,0,2,12,6,4.mid,experiment,1
1,19,8511,79,64,0,2,12,15,14.mid,experiment,1
2,21,8886,78,64,0,2,12,15,14.mid,experiment,1
3,23,9354,79,64,0,2,12,15,14.mid,experiment,1
4,25,9822,76,64,0,2,12,15,14.mid,experiment,1
5,26,9964,72,64,0,2,12,15,14.mid,experiment,1
6,28,10208,67,64,0,2,12,15,14.mid,experiment,1
7,30,10535,67,64,0,2,12,15,14.mid,experiment,1
8,32,10852,67,64,0,2,12,15,14.mid,experiment,1
9,35,11710,79,64,0,2,12,15,14.mid,experiment,1
10,37,12020,78,64,0,2,12,15,14.mid,experiment,1
11,39,12452,79,64,0,2,12,15,14.mid,experiment,1
12,41,12689,76,64,0,2,12,15,14.mid,experiment,1
13,43,13098,72,64,0,2,12,15,14.mid,experiment,1
14,45,13384,76,64,0,2,12,15,14.mid,experiment,1
15,47,13681,79,64,0,2,12,15,14.mid,experiment,1
16,49,14104,84,64,0,2,12,15,14.mid,experiment,1
17,50,14302,83,64,0,2,12,15,14.mid,experiment,1
18,52,14402,81,64,0,2,12,15,14.mid,experiment,1
19,54,14670,81,64,0,2,12,15,14.mid,experiment,1
20,56,14963,81,64,0,2,12,15,14.mid,experiment,1
21,59,15743,83,64,0,2,12,15,14.mid,experiment,1
22,61,16053,81,64,0,2,12,15,14.mid,experiment,1
23,63,16403,84,64,0,2,12,15,14.mid,experiment,1
24,65,16668,81,64,0,2,12,15,14.mid,experiment,1
25,66,16973,78,64,0,2,12,15,14.mid,experiment,1
26,68,17015,79,64,0,2,12,15,14.mid,experiment,1
27,70,17482,79,64,0,2,12,15,14.mid,experiment,1
28,72,18621,79,64,0,2,12,15,14.mid,experiment,1
29,74,19144,77,64,0,2,12,15,14.mid,experiment,1
30,76,19437,77,64,0,2,12,15,14.mid,experiment,1
31,78,19706,76,64,0,2,12,15,14.mid,experiment,1
32,80,19993,76,64,0,2,12,15,14.mid,experiment,1
33,82,21033,74,64,0,2,12,15,14.mid,experiment,1
34,84,21776,79,64,0,2,12,15,14.mid,experiment,1
35,86,22384,77,64,0,2,12,15,14.mid,experiment,1
36,88,22735,76,64,0,2,12,15,14.mid,experiment,1
37,90,22998,76,64,0,2,12,15,14.mid,experiment,1
38,92,23267,76,64,0,2,12,15,14.mid,experiment,1
39,94,23519,76,64,0,2,12,15,14.mid,experiment,1
40,97,24269,81,64,0,2,12,15,14.mid,experiment,1
41,99,24575,77,64,0,2,12,15,14.mid,experiment,1
42,101,24823,76,64,0,2,12,15,14.mid,experiment,1
43,103,25163,74,64,0,2,12,15,14.mid,experiment,1
44,105,25477,76,64,0,2,12,15,14.mid,experiment,1
45,107,25784,79,64,0,2,12,15,14.mid,experiment,1
46,109,26058,74,64,0,2,12,15,14.mid,experiment,1
47,110,26336,71,64,0,2,12,15,14.mid,experiment,1
48,112,26401,72,64,0,2,12,15,14.mid,experiment,1
49,114,26685,72,64,0,2,12,15,14.mid,experiment,1
50,116,26947,74,64,0,2,12,15,14.mid,experiment,1
51,118,27213,74,64,0,2,12,15,14.mid,experiment,1
52,120,28071,76,64,0,2,12,15,14.mid,experiment,1
53,122,28551,65,64,0,2,12,15,14.mid,experiment,1
54,124,28794,65,64,0,2,12,15,14.mid,experiment,1
55,126,29382,64,64,0,2,12,15,14.mid,experiment,1
56,126,,64,,0,2,12,15,14.mid,experiment,1
57,128,30267,62,64,0,2,12,15,14.mid,experiment,1
58,130,30713,67,64,0,2,12,15,14.mid,experiment,1
59,132,30960,67,64,0,2,12,15,14.mid,experiment,1
60,134,31205,71,64,0,2,12,15,14.mid,experiment,1
61,136,31464,71,64,0,2,12,15,14.mid,experiment,1
62,138,31761,72,64,0,2,12,15,14.mid,experiment,1
63,140,31987,72,64,0,2,12,15,14.mid,experiment,1
64,142,32292,73,64,0,2,12,15,14.mid,experiment,1
65,144,32544,73,64,0,2,12,15,14.mid,experiment,1
66,146,33059,74,64,0,2,12,15,14.mid,experiment,1
67,148,33624,77,64,0,2,12,15,14.mid,experiment,1
68,150,34156,76,64,0,2,12,15,14.mid,experiment,1
69,152,34671,74,64,0,2,12,15,14.mid,experiment,1
70,154,35203,72,64,0,2,12,15,14.mid,experiment,1
71,156,35748,84,64,0,2,12,15,14.mid,experiment,1
72,158,36489,84,64,0,2,12,15,14.mid,experiment,1
1,19,8211,79,64,0,2,13,8,15.mid,experiment,1
2,21,8484,78,64,0,2,13,8,15.mid,experiment,1
3,23,8739,79,64,0,2,13,8,15.mid,experiment,1
4,25,9008,76,64,0,2,13,8,15.mid,experiment,1
5,26,9060,72,64,0,2,13,8,15.mid,experiment,1
6,28,9311,67,64,0,2,13,8,15.mid,experiment,1
7,30,9562,67,64,0,2,13,8,15.mid,experiment,1
8,32,9811,67,64,0,2,13,8,15.mid,experiment,1
9,35,10425,79,64,0,2,13,8,15.mid,experiment,1
10,37,10679,78,64,0,2,13,8,15.mid,experiment,1
11,39,10931,79,64,0,2,13,8,15.mid,experiment,1
12,41,11313,76,64,0,2,13,8,15.mid,experiment,1
13,43,11531,72,64,0,2,13,8,15.mid,experiment,1
14,45,11807,76,64,0,2,13,8,15.mid,experiment,1
15,47,12002,79,64,0,2,13,8,15.mid,experiment,1
16,49,12277,84,64,0,2,13,8,15.mid,experiment,1
17,50,12321,83,64,0,2,13,8,15.mid,experiment,1
18,52,12556,81,64,0,2,13,8,15.mid,experiment,1
19,54,12787,81,64,0,2,13,8,15.mid,experiment,1
20,56,13037,81,64,0,2,13,8,15.mid,experiment,1
21,59,13584,83,64,0,2,13,8,15.mid,experiment,1
22,61,13851,81,64,0,2,13,8,15.mid,experiment,1
23,63,14099,84,64,0,2,13,8,15.mid,experiment,1
24,64,14162,81,64,0,2,13,8,15.mid,experiment,1
25,67,14612,78,64,0,2,13,8,15.mid,experiment,1
26,68,14648,79,64,0,2,13,8,15.mid,experiment,1
27,70,15088,79,64,0,2,13,8,15.mid,experiment,1
28,72,15728,79,64,0,2,13,8,15.mid,experiment,1
29,74,16744,77,64,0,2,13,8,15.mid,experiment,1
30,76,17014,77,64,0,2,13,8,15.mid,experiment,1
31,78,17559,76,64,0,2,13,8,15.mid,experiment,1
32,78,,76,,0,2,13,8,15.mid,experiment,1
33,80,18265,74,64,0,2,13,8,15.mid,experiment,1
34,82,19107,79,64,0,2,13,8,15.mid,experiment,1
35,84,19686,77,64,0,2,13,8,15.mid,experiment,1
36,86,20066,76,64,0,2,13,8,15.mid,experiment,1
37,88,20345,76,64,0,2,13,8,15.mid,experiment,1
38,90,20607,76,64,0,2,13,8,15.mid,experiment,1
39,92,20877,76,64,0,2,13,8,15.mid,experiment,1
40,95,21422,81,64,0,2,13,8,15.mid,experiment,1
41,97,21661,77,64,0,2,13,8,15.mid,experiment,1
42,99,21904,76,64,0,2,13,8,15.mid,experiment,1
43,101,22179,74,64,0,2,13,8,15.mid,experiment,1
44,103,22404,76,64,0,2,13,8,15.mid,experiment,1
45,105,22699,79,64,0,2,13,8,15.mid,experiment,1
46,107,22930,74,64,0,2,13,8,15.mid,experiment,1
47,108,22983,71,64,0,2,13,8,15.mid,experiment,1
48,110,23197,72,64,0,2,13,8,15.mid,experiment,1
49,112,23449,72,64,0,2,13,8,15.mid,experiment,1
50,114,23688,74,64,0,2,13,8,15.mid,experiment,1
51,116,23939,74,64,0,2,13,8,15.mid,experiment,1
52,118,24612,76,64,0,2,13,8,15.mid,experiment,1
53,120,25436,65,64,0,2,13,8,15.mid,experiment,1
54,122,25703,65,64,0,2,13,8,15.mid,experiment,1
55,124,25951,64,64,0,2,13,8,15.mid,experiment,1
56,126,26232,64,64,0,2,13,8,15.mid,experiment,1
57,128,26877,62,64,0,2,13,8,15.mid,experiment,1
58,130,27696,67,64,0,2,13,8,15.mid,experiment,1
59,132,27960,67,64,0,2,13,8,15.mid,experiment,1
60,134,28211,71,64,0,2,13,8,15.mid,experiment,1
61,136,28456,71,64,0,2,13,8,15.mid,experiment,1
62,138,28706,72,64,0,2,13,8,15.mid,experiment,1
63,140,28967,72,64,0,2,13,8,15.mid,experiment,1
64,142,29215,73,64,0,2,13,8,15.mid,experiment,1
65,144,29479,73,64,0,2,13,8,15.mid,experiment,1
66,146,29956,74,64,0,2,13,8,15.mid,experiment,1
67,148,30483,77,64,0,2,13,8,15.mid,experiment,1
68,150,30976,76,64,0,2,13,8,15.mid,experiment,1
69,152,31456,74,64,0,2,13,8,15.mid,experiment,1
70,154,31949,72,64,0,2,13,8,15.mid,experiment,1
71,156,32514,84,64,0,2,13,8,15.mid,experiment,1
72,158,33360,84,64,0,2,13,8,15.mid,experiment,1
1,19,8855,79,64,0,2,15,1,5.mid,experiment,1
2,21,9173,78,64,0,2,15,1,5.mid,experiment,1
3,23,9410,79,64,0,2,15,1,5.mid,experiment,1
4,25,9717,76,64,0,2,15,1,5.mid,experiment,1
5,26,9782,72,64,0,2,15,1,5.mid,experiment,1
6,28,9999,67,64,0,2,15,1,5.mid,experiment,1
7,30,10278,67,64,0,2,15,1,5.mid,experiment,1
8,32,10525,67,64,0,2,15,1,5.mid,experiment,1
9,35,11086,79,64,0,2,15,1,5.mid,experiment,1
10,37,11396,78,64,0,2,15,1,5.mid,experiment,1
11,39,11644,79,64,0,2,15,1,5.mid,experiment,1
12,41,11880,76,64,0,2,15,1,5.mid,experiment,1
13,43,12206,72,64,0,2,15,1,5.mid,experiment,1
14,45,12511,76,64,0,2,15,1,5.mid,experiment,1
15,47,12712,79,64,0,2,15,1,5.mid,experiment,1
16,49,13038,84,64,0,2,15,1,5.mid,experiment,1
17,51,13272,83,64,0,2,15,1,5.mid,experiment,1
18,52,13307,81,64,0,2,15,1,5.mid,experiment,1
19,54,13593,81,64,0,2,15,1,5.mid,experiment,1
20,56,13832,81,64,0,2,15,1,5.mid,experiment,1
21,59,14391,83,64,0,2,15,1,5.mid,experiment,1
22,61,14693,81,64,0,2,15,1,5.mid,experiment,1
23,63,14906,84,64,0,2,15,1,5.mid,experiment,1
24,65,15207,81,64,0,2,15,1,5.mid,experiment,1
25,67,15481,78,64,0,2,15,1,5.mid,experiment,1
26,68,15530,79,64,0,2,15,1,5.mid,experiment,1
27,70,15952,79,64,0,2,15,1,5.mid,experiment,1
28,72,16865,79,64,0,2,15,1,5.mid,experiment,1
29,74,17458,77,64,0,2,15,1,5.mid,experiment,1
30,76,17724,77,64,0,2,15,1,5.mid,experiment,1
31,78,18014,76,64,0,2,15,1,5.mid,experiment,1
32,80,18280,76,64,0,2,15,1,5.mid,experiment,1
33,82,18984,74,64,0,2,15,1,5.mid,experiment,1
34,84,20015,79,64,0,2,15,1,5.mid,experiment,1
35,86,20547,77,64,0,2,15,1,5.mid,experiment,1
36,88,20787,76,64,0,2,15,1,5.mid,experiment,1
37,90,21049,76,64,0,2,15,1,5.mid,experiment,1
38,92,21313,76,64,0,2,15,1,5.mid,experiment,1
39,94,21539,76,64,0,2,15,1,5.mid,experiment,1
40,97,22137,81,64,0,2,15,1,5.mid,experiment,1
41,99,22402,77,64,0,2,15,1,5.mid,experiment,1
42,101,22597,76,64,0,2,15,1,5.mid,experiment,1
43,103,22894,74,64,0,2,15,1,5.mid,experiment,1
44,105,23152,76,64,0,2,15,1,5.mid,experiment,1
45,107,23430,79,64,0,2,15,1,5.mid,experiment,1
46,109,23632,74,64,0,2,15,1,5.mid,experiment,1
47,110,23693,71,64,0,2,15,1,5.mid,experiment,1
48,112,23954,72,64,0,2,15,1,5.mid,experiment,1
49,114,24206,72,64,0,2,15,1,5.mid,experiment,1
50,116,24456,74,64,0,2,15,1,5.mid,experiment,1
51,118,24731,74,64,0,2,15,1,5.mid,experiment,1
52,120,25444,76,64,0,2,15,1,5.mid,experiment,1
53,122,26089,65,64,0,2,15,1,5.mid,experiment,1
54,124,26340,65,64,0,2,15,1,5.mid,experiment,1
55,126,26881,64,64,0,2,15,1,5.mid,experiment,1
56,126,,64,,0,2,15,1,5.mid,experiment,1
57,128,27613,62,64,0,2,15,1,5.mid,experiment,1
58,130,28335,67,64,0,2,15,1,5.mid,experiment,1
59,132,28584,67,64,0,2,15,1,5.mid,experiment,1
60,134,28824,71,64,0,2,15,1,5.mid,experiment,1
61,136,29083,71,64,0,2,15,1,5.mid,experiment,1
62,138,29374,72,64,0,2,15,1,5.mid,experiment,1
63,140,29638,72,64,0,2,15,1,5.mid,experiment,1
64,142,29910,73,64,0,2,15,1,5.mid,experiment,1
65,144,30156,73,64,0,2,15,1,5.mid,experiment,1
66,147,31027,74,64,0,2,15,1,5.mid,experiment,1
67,149,31572,77,64,0,2,15,1,5.mid,experiment,1
68,151,32138,76,64,0,2,15,1,5.mid,experiment,1
69,153,32669,74,64,0,2,15,1,5.mid,experiment,1
70,155,33243,72,64,0,2,15,1,5.mid,experiment,1
71,156,33552,84,64,0,2,15,1,5.mid,experiment,1
72,158,34418,84,64,0,2,15,1,5.mid,experiment,1
1,19,8128,79,64,0,2,16,13,3.mid,experiment,1
2,21,8425,78,64,0,2,16,13,3.mid,experiment,1
3,23,8678,79,64,0,2,16,13,3.mid,experiment,1
4,25,8959,76,64,0,2,16,13,3.mid,experiment,1
5,26,9205,72,64,0,2,16,13,3.mid,experiment,1
6,28,9319,67,64,0,2,16,13,3.mid,experiment,1
7,30,9581,67,64,0,2,16,13,3.mid,experiment,1
8,32,9848,67,64,0,2,16,13,3.mid,experiment,1
9,35,10459,79,64,0,2,16,13,3.mid,experiment,1
10,37,10673,78,64,0,2,16,13,3.mid,experiment,1
11,39,11015,79,64,0,2,16,13,3.mid,experiment,1
12,40,11225,76,64,0,2,16,13,3.mid,experiment,1
13,43,11620,72,64,0,2,16,13,3.mid,experiment,1
14,45,11913,76,64,0,2,16,13,3.mid,experiment,1
15,46,12111,79,64,0,2,16,13,3.mid,experiment,1
16,49,12455,84,64,0,2,16,13,3.mid,experiment,1
17,50,12727,83,64,0,2,16,13,3.mid,experiment,1
18,52,12791,81,64,0,2,16,13,3.mid,experiment,1
19,54,13085,81,64,0,2,16,13,3.mid,experiment,1
20,56,13361,81,64,0,2,16,13,3.mid,experiment,1
21,59,13938,83,64,0,2,16,13,3.mid,experiment,1
22,61,14222,81,64,0,2,16,13,3.mid,experiment,1
23,62,14505,84,64,0,2,16,13,3.mid,experiment,1
24,65,14853,81,64,0,2,16,13,3.mid,experiment,1
25,66,15079,78,64,0,2,16,13,3.mid,experiment,1
26,68,15165,79,64,0,2,16,13,3.mid,experiment,1
27,70,15681,79,64,0,2,16,13,3.mid,experiment,1
28,72,16521,79,64,0,2,16,13,3.mid,experiment,1
29,74,17207,77,64,0,2,16,13,3.mid,experiment,1
30,76,17497,77,64,0,2,16,13,3.mid,experiment,1
31,78,17793,76,64,0,2,16,13,3.mid,experiment,1
32,80,18059,76,64,0,2,16,13,3.mid,experiment,1
33,82,18860,74,64,0,2,16,13,3.mid,experiment,1
34,85,20123,79,64,0,2,16,13,3.mid,experiment,1
35,87,20707,77,64,0,2,16,13,3.mid,experiment,1
36,88,20752,76,64,0,2,16,13,3.mid,experiment,1
37,90,21039,76,64,0,2,16,13,3.mid,experiment,1
38,92,21321,76,64,0,2,16,13,3.mid,experiment,1
39,94,21607,76,64,0,2,16,13,3.mid,experiment,1
40,97,22234,81,64,0,2,16,13,3.mid,experiment,1
41,99,22466,77,64,0,2,16,13,3.mid,experiment,1
42,100,22751,76,64,0,2,16,13,3.mid,experiment,1
43,103,23079,74,64,0,2,16,13,3.mid,experiment,1
44,104,23341,76,64,0,2,16,13,3.mid,experiment,1
45,107,23690,79,64,0,2,16,13,3.mid,experiment,1
46,108,23917,74,64,0,2,16,13,3.mid,experiment,1
47,110,24215,71,64,0,2,16,13,3.mid,experiment,1
48,112,24269,72,64,0,2,16,13,3.mid,experiment,1
49,114,24557,72,64,0,2,16,13,3.mid,experiment,1
50,116,24848,74,64,0,2,16,13,3.mid,experiment,1
51,118,25119,74,64,0,2,16,13,3.mid,experiment,1
52,120,25888,76,64,0,2,16,13,3.mid,experiment,1
53,122,26594,65,64,0,2,16,13,3.mid,experiment,1
54,124,26883,65,64,0,2,16,13,3.mid,experiment,1
55,126,27179,64,64,0,2,16,13,3.mid,experiment,1
56,128,27453,64,64,0,2,16,13,3.mid,experiment,1
57,130,28226,62,64,0,2,16,13,3.mid,experiment,1
58,132,28979,67,64,0,2,16,13,3.mid,experiment,1
59,134,29281,67,64,0,2,16,13,3.mid,experiment,1
60,136,29541,71,64,0,2,16,13,3.mid,experiment,1
61,136,,71,,0,2,16,13,3.mid,experiment,1
62,138,30109,72,64,0,2,16,13,3.mid,experiment,1
63,140,30429,72,64,0,2,16,13,3.mid,experiment,1
64,142,30699,73,64,0,2,16,13,3.mid,experiment,1
65,144,30967,73,64,0,2,16,13,3.mid,experiment,1
66,147,31842,74,64,0,2,16,13,3.mid,experiment,1
67,149,32453,77,64,0,2,16,13,3.mid,experiment,1
68,150,32949,76,64,0,2,16,13,3.mid,experiment,1
69,152,33527,74,64,0,2,16,13,3.mid,experiment,1
70,154,33975,72,64,0,2,16,13,3.mid,experiment,1
71,156,34511,84,64,0,2,16,13,3.mid,experiment,1
72,158,35391,84,64,0,2,16,13,3.mid,experiment,1
1,19,8399,79,64,0,2,17,2,1.mid,experiment,1
2,21,8713,78,64,0,2,17,2,1.mid,experiment,1
3,23,9065,79,64,0,2,17,2,1.mid,experiment,1
4,25,9183,76,64,0,2,17,2,1.mid,experiment,1
5,26,9278,72,64,0,2,17,2,1.mid,experiment,1
6,28,9500,67,64,0,2,17,2,1.mid,experiment,1
7,30,9794,67,64,0,2,17,2,1.mid,experiment,1
8,32,10085,67,64,0,2,17,2,1.mid,experiment,1
9,35,10813,79,64,0,2,17,2,1.mid,experiment,1
10,37,11074,78,64,0,2,17,2,1.mid,experiment,1
11,39,11310,79,64,0,2,17,2,1.mid,experiment,1
12,41,11672,76,64,0,2,17,2,1.mid,experiment,1
13,43,11948,72,64,0,2,17,2,1.mid,experiment,1
14,45,12275,76,64,0,2,17,2,1.mid,experiment,1
15,47,12483,79,64,0,2,17,2,1.mid,experiment,1
16,49,12813,84,64,0,2,17,2,1.mid,experiment,1
17,50,12955,83,64,0,2,17,2,1.mid,experiment,1
18,52,13466,81,64,0,2,17,2,1.mid,experiment,1
19,54,13755,81,64,0,2,17,2,1.mid,experiment,1
20,54,,81,,0,2,17,2,1.mid,experiment,1
21,57,14407,83,64,0,2,17,2,1.mid,experiment,1
22,59,14679,81,64,0,2,17,2,1.mid,experiment,1
23,62,15267,84,64,0,2,17,2,1.mid,experiment,1
24,63,15277,81,64,0,2,17,2,1.mid,experiment,1
25,65,15572,78,64,0,2,17,2,1.mid,experiment,1
26,66,15740,79,64,0,2,17,2,1.mid,experiment,1
27,68,16327,79,64,0,2,17,2,1.mid,experiment,1
28,70,17110,79,64,0,2,17,2,1.mid,experiment,1
29,72,17758,77,64,0,2,17,2,1.mid,experiment,1
30,74,18060,77,64,0,2,17,2,1.mid,experiment,1
31,76,18372,76,64,0,2,17,2,1.mid,experiment,1
32,78,18653,76,64,0,2,17,2,1.mid,experiment,1
33,80,19458,74,64,0,2,17,2,1.mid,experiment,1
34,82,20601,79,64,0,2,17,2,1.mid,experiment,1
35,84,21158,77,64,0,2,17,2,1.mid,experiment,1
36,86,21432,76,64,0,2,17,2,1.mid,experiment,1
37,88,21722,76,64,0,2,17,2,1.mid,experiment,1
38,90,21990,76,64,0,2,17,2,1.mid,experiment,1
39,90,,76,,0,2,17,2,1.mid,experiment,1
40,94,23149,81,64,0,2,17,2,1.mid,experiment,1
41,95,23212,77,64,0,2,17,2,1.mid,experiment,1
42,97,23448,76,64,0,2,17,2,1.mid,experiment,1
43,99,23738,74,64,0,2,17,2,1.mid,experiment,1
44,101,24034,76,64,0,2,17,2,1.mid,experiment,1
45,103,24415,79,64,0,2,17,2,1.mid,experiment,1
46,105,24563,74,64,0,2,17,2,1.mid,experiment,1
47,106,24617,71,64,0,2,17,2,1.mid,experiment,1
48,108,24889,72,64,0,2,17,2,1.mid,experiment,1
49,110,25179,72,64,0,2,17,2,1.mid,experiment,1
50,112,25466,74,64,0,2,17,2,1.mid,experiment,1
51,114,25763,74,64,0,2,17,2,1.mid,experiment,1
52,116,26604,76,64,0,2,17,2,1.mid,experiment,1
53,118,27290,65,64,0,2,17,2,1.mid,experiment,1
54,120,27574,65,64,0,2,17,2,1.mid,experiment,1
55,122,27850,64,64,0,2,17,2,1.mid,experiment,1
56,124,28131,64,64,0,2,17,2,1.mid,experiment,1
57,126,28978,62,64,0,2,17,2,1.mid,experiment,1
58,128,29619,67,64,0,2,17,2,1.mid,experiment,1
59,130,29885,67,64,0,2,17,2,1.mid,experiment,1
60,132,30180,71,64,0,2,17,2,1.mid,experiment,1
61,134,30467,71,64,0,2,17,2,1.mid,experiment,1
62,136,30771,72,64,0,2,17,2,1.mid,experiment,1
63,138,31015,72,64,0,2,17,2,1.mid,experiment,1
64,140,31310,73,64,0,2,17,2,1.mid,experiment,1
65,142,31594,73,64,0,2,17,2,1.mid,experiment,1
66,145,32431,74,64,0,2,17,2,1.mid,experiment,1
67,147,33046,77,64,0,2,17,2,1.mid,experiment,1
68,149,33619,76,64,0,2,17,2,1.mid,experiment,1
69,151,34165,74,64,0,2,17,2,1.mid,experiment,1
70,153,34831,72,64,0,2,17,2,1.mid,experiment,1
71,154,35352,84,64,0,2,17,2,1.mid,experiment,1
72,156,36324,84,64,0,2,17,2,1.mid,experiment,1
1,19,8352,79,64,0,2,17,10,10.mid,experiment,1
2,21,8591,78,64,0,2,17,10,10.mid,experiment,1
3,23,8905,79,64,0,2,17,10,10.mid,experiment,1
4,25,9128,76,64,0,2,17,10,10.mid,experiment,1
5,26,9259,72,64,0,2,17,10,10.mid,experiment,1
6,28,9456,67,64,0,2,17,10,10.mid,experiment,1
7,30,9767,67,64,0,2,17,10,10.mid,experiment,1
8,32,10067,67,64,0,2,17,10,10.mid,experiment,1
9,35,10731,79,64,0,2,17,10,10.mid,experiment,1
10,37,10991,78,64,0,2,17,10,10.mid,experiment,1
11,39,11284,79,64,0,2,17,10,10.mid,experiment,1
12,41,11575,76,64,0,2,17,10,10.mid,experiment,1
13,43,11929,72,64,0,2,17,10,10.mid,experiment,1
14,45,12227,76,64,0,2,17,10,10.mid,experiment,1
15,47,12378,79,64,0,2,17,10,10.mid,experiment,1
16,49,12724,84,64,0,2,17,10,10.mid,experiment,1
17,50,12955,83,64,0,2,17,10,10.mid,experiment,1
18,52,13006,81,64,0,2,17,10,10.mid,experiment,1
19,54,13297,81,64,0,2,17,10,10.mid,experiment,1
20,54,,81,,0,2,17,10,10.mid,experiment,1
21,57,14361,83,64,0,2,17,10,10.mid,experiment,1
22,59,14627,81,64,0,2,17,10,10.mid,experiment,1
23,62,15151,84,64,0,2,17,10,10.mid,experiment,1
24,63,15152,81,64,0,2,17,10,10.mid,experiment,1
25,65,15431,78,64,0,2,17,10,10.mid,experiment,1
26,66,15650,79,64,0,2,17,10,10.mid,experiment,1
27,68,16250,79,64,0,2,17,10,10.mid,experiment,1
28,70,16981,79,64,0,2,17,10,10.mid,experiment,1
29,72,17591,77,64,0,2,17,10,10.mid,experiment,1
30,74,17895,77,64,0,2,17,10,10.mid,experiment,1
31,76,18174,76,64,0,2,17,10,10.mid,experiment,1
32,78,18450,76,64,0,2,17,10,10.mid,experiment,1
33,80,19275,74,64,0,2,17,10,10.mid,experiment,1
34,82,20422,79,64,0,2,17,10,10.mid,experiment,1
35,84,20869,77,64,0,2,17,10,10.mid,experiment,1
36,86,21164,76,64,0,2,17,10,10.mid,experiment,1
37,88,21465,76,64,0,2,17,10,10.mid,experiment,1
38,90,21712,76,64,0,2,17,10,10.mid,experiment,1
39,92,21996,76,64,0,2,17,10,10.mid,experiment,1
40,95,22685,81,64,0,2,17,10,10.mid,experiment,1
41,97,23023,77,64,0,2,17,10,10.mid,experiment,1
42,99,23168,76,64,0,2,17,10,10.mid,experiment,1
43,101,23459,74,64,0,2,17,10,10.mid,experiment,1
44,103,23737,76,64,0,2,17,10,10.mid,experiment,1
45,105,24089,79,64,0,2,17,10,10.mid,experiment,1
46,107,24236,74,64,0,2,17,10,10.mid,experiment,1
47,108,24433,71,64,0,2,17,10,10.mid,experiment,1
48,110,24580,72,64,0,2,17,10,10.mid,experiment,1
49,112,24842,72,64,0,2,17,10,10.mid,experiment,1
50,114,25119,74,64,0,2,17,10,10.mid,experiment,1
51,116,25410,74,64,0,2,17,10,10.mid,experiment,1
52,118,26264,76,64,0,2,17,10,10.mid,experiment,1
53,120,26940,65,64,0,2,17,10,10.mid,experiment,1
54,122,27228,65,64,0,2,17,10,10.mid,experiment,1
55,124,27529,64,64,0,2,17,10,10.mid,experiment,1
56,126,27791,64,64,0,2,17,10,10.mid,experiment,1
57,128,28639,62,64,0,2,17,10,10.mid,experiment,1
58,130,29293,67,64,0,2,17,10,10.mid,experiment,1
59,132,29571,67,64,0,2,17,10,10.mid,experiment,1
60,134,29849,71,64,0,2,17,10,10.mid,experiment,1
61,136,30129,71,64,0,2,17,10,10.mid,experiment,1
62,138,30432,72,64,0,2,17,10,10.mid,experiment,1
63,140,30701,72,64,0,2,17,10,10.mid,experiment,1
64,142,31278,73,64,0,2,17,10,10.mid,experiment,1
65,142,,73,,0,2,17,10,10.mid,experiment,1
66,145,32092,74,64,0,2,17,10,10.mid,experiment,1
67,147,32694,77,64,0,2,17,10,10.mid,experiment,1
68,149,33274,76,64,0,2,17,10,10.mid,experiment,1
69,151,33829,74,64,0,2,17,10,10.mid,experiment,1
70,153,34430,72,64,0,2,17,10,10.mid,experiment,1
71,154,34939,84,64,0,2,17,10,10.mid,experiment,1
72,156,35755,84,64,0,2,17,10,10.mid,experiment,1
1,19,8359,79,64,0,2,17,11,6.mid,experiment,1
2,21,8621,78,64,0,2,17,11,6.mid,experiment,1
3,23,8932,79,64,0,2,17,11,6.mid,experiment,1
4,25,9136,76,64,0,2,17,11,6.mid,experiment,1
5,26,9289,72,64,0,2,17,11,6.mid,experiment,1
6,28,9389,67,64,0,2,17,11,6.mid,experiment,1
7,30,9675,67,64,0,2,17,11,6.mid,experiment,1
8,32,9963,67,64,0,2,17,11,6.mid,experiment,1
9,35,10645,79,64,0,2,17,11,6.mid,experiment,1
10,37,10921,78,64,0,2,17,11,6.mid,experiment,1
11,39,11267,79,64,0,2,17,11,6.mid,experiment,1
12,41,11481,76,64,0,2,17,11,6.mid,experiment,1
13,43,11829,72,64,0,2,17,11,6.mid,experiment,1
14,45,12109,76,64,0,2,17,11,6.mid,experiment,1
15,47,12265,79,64,0,2,17,11,6.mid,experiment,1
16,49,12647,84,64,0,2,17,11,6.mid,experiment,1
17,50,12805,83,64,0,2,17,11,6.mid,experiment,1
18,52,12867,81,64,0,2,17,11,6.mid,experiment,1
19,54,13161,81,64,0,2,17,11,6.mid,experiment,1
20,56,13460,81,64,0,2,17,11,6.mid,experiment,1
21,59,14097,83,64,0,2,17,11,6.mid,experiment,1
22,61,14366,81,64,0,2,17,11,6.mid,experiment,1
23,63,14758,84,64,0,2,17,11,6.mid,experiment,1
24,65,14910,81,64,0,2,17,11,6.mid,experiment,1
25,67,15176,78,64,0,2,17,11,6.mid,experiment,1
26,68,15364,79,64,0,2,17,11,6.mid,experiment,1
27,70,15933,79,64,0,2,17,11,6.mid,experiment,1
28,72,16609,79,64,0,2,17,11,6.mid,experiment,1
29,74,17281,77,64,0,2,17,11,6.mid,experiment,1
30,76,17569,77,64,0,2,17,11,6.mid,experiment,1
31,78,17847,76,64,0,2,17,11,6.mid,experiment,1
32,80,18125,76,64,0,2,17,11,6.mid,experiment,1
33,82,18927,74,64,0,2,17,11,6.mid,experiment,1
34,84,20103,79,64,0,2,17,11,6.mid,experiment,1
35,86,20497,77,64,0,2,17,11,6.mid,experiment,1
36,88,20785,76,64,0,2,17,11,6.mid,experiment,1
37,90,21061,76,64,0,2,17,11,6.mid,experiment,1
38,92,21340,76,64,0,2,17,11,6.mid,experiment,1
39,94,21629,76,64,0,2,17,11,6.mid,experiment,1
40,97,22345,81,64,0,2,17,11,6.mid,experiment,1
41,99,22593,77,64,0,2,17,11,6.mid,experiment,1
42,101,22821,76,64,0,2,17,11,6.mid,experiment,1
43,103,23093,74,64,0,2,17,11,6.mid,experiment,1
44,105,23369,76,64,0,2,17,11,6.mid,experiment,1
45,107,23661,79,64,0,2,17,11,6.mid,experiment,1
46,108,23865,74,64,0,2,17,11,6.mid,experiment,1
47,110,23903,71,64,0,2,17,11,6.mid,experiment,1
48,112,24181,72,64,0,2,17,11,6.mid,experiment,1
49,114,24467,72,64,0,2,17,11,6.mid,experiment,1
50,116,24743,74,64,0,2,17,11,6.mid,experiment,1
51,118,25023,74,64,0,2,17,11,6.mid,experiment,1
52,120,25880,76,64,0,2,17,11,6.mid,experiment,1
53,122,26535,65,64,0,2,17,11,6.mid,experiment,1
54,124,26813,65,64,0,2,17,11,6.mid,experiment,1
55,126,27091,64,64,0,2,17,11,6.mid,experiment,1
56,128,27389,64,64,0,2,17,11,6.mid,experiment,1
57,130,28307,62,64,0,2,17,11,6.mid,experiment,1
58,132,28918,67,64,0,2,17,11,6.mid,experiment,1
59,134,29191,67,64,0,2,17,11,6.mid,experiment,1
60,136,29465,71,64,0,2,17,11,6.mid,experiment,1
61,138,29741,71,64,0,2,17,11,6.mid,experiment,1
62,140,30017,72,64,0,2,17,11,6.mid,experiment,1
63,142,30287,72,64,0,2,17,11,6.mid,experiment,1
64,144,30591,73,64,0,2,17,11,6.mid,experiment,1
65,144,,73,,0,2,17,11,6.mid,experiment,1
66,147,31763,74,64,0,2,17,11,6.mid,experiment,1
67,149,32333,77,64,0,2,17,11,6.mid,experiment,1
68,151,32916,76,64,0,2,17,11,6.mid,experiment,1
69,153,33486,74,64,0,2,17,11,6.mid,experiment,1
70,155,34123,72,64,0,2,17,11,6.mid,experiment,1
71,156,34654,84,64,0,2,17,11,6.mid,experiment,1
72,158,35533,84,64,0,2,17,11,6.mid,experiment,1
1,19,8365,79,64,0,2,17,12,2.mid,experiment,1
2,21,8626,78,64,0,2,17,12,2.mid,experiment,1
3,23,8864,79,64,0,2,17,12,2.mid,experiment,1
4,25,9134,76,64,0,2,17,12,2.mid,experiment,1
5,26,9266,72,64,0,2,17,12,2.mid,experiment,1
6,28,9454,67,64,0,2,17,12,2.mid,experiment,1
7,30,9773,67,64,0,2,17,12,2.mid,experiment,1
8,32,10045,67,64,0,2,17,12,2.mid,experiment,1
9,35,10716,79,64,0,2,17,12,2.mid,experiment,1
10,37,10976,78,64,0,2,17,12,2.mid,experiment,1
11,39,11267,79,64,0,2,17,12,2.mid,experiment,1
12,41,11544,76,64,0,2,17,12,2.mid,experiment,1
13,43,11832,72,64,0,2,17,12,2.mid,experiment,1
14,45,12207,76,64,0,2,17,12,2.mid,experiment,1
15,47,12327,79,64,0,2,17,12,2.mid,experiment,1
16,49,12652,84,64,0,2,17,12,2.mid,experiment,1
17,50,12847,83,64,0,2,17,12,2.mid,experiment,1
18,52,12936,81,64,0,2,17,12,2.mid,experiment,1
19,54,13230,81,64,0,2,17,12,2.mid,experiment,1
20,56,13540,81,64,0,2,17,12,2.mid,experiment,1
21,59,14224,83,64,0,2,17,12,2.mid,experiment,1
22,61,14472,81,64,0,2,17,12,2.mid,experiment,1
23,64,15016,84,64,0,2,17,12,2.mid,experiment,1
24,65,15018,81,64,0,2,17,12,2.mid,experiment,1
25,67,15294,78,64,0,2,17,12,2.mid,experiment,1
26,68,15492,79,64,0,2,17,12,2.mid,experiment,1
27,70,16098,79,64,0,2,17,12,2.mid,experiment,1
28,72,16802,79,64,0,2,17,12,2.mid,experiment,1
29,74,17502,77,64,0,2,17,12,2.mid,experiment,1
30,76,17781,77,64,0,2,17,12,2.mid,experiment,1
31,78,18058,76,64,0,2,17,12,2.mid,experiment,1
32,80,18368,76,64,0,2,17,12,2.mid,experiment,1
33,82,19144,74,64,0,2,17,12,2.mid,experiment,1
34,84,20332,79,64,0,2,17,12,2.mid,experiment,1
35,86,20748,77,64,0,2,17,12,2.mid,experiment,1
36,88,21037,76,64,0,2,17,12,2.mid,experiment,1
37,90,21322,76,64,0,2,17,12,2.mid,experiment,1
38,92,21616,76,64,0,2,17,12,2.mid,experiment,1
39,94,21882,76,64,0,2,17,12,2.mid,experiment,1
40,98,22753,81,64,0,2,17,12,2.mid,experiment,1
41,99,22894,77,64,0,2,17,12,2.mid,experiment,1
42,101,23044,76,64,0,2,17,12,2.mid,experiment,1
43,103,23348,74,64,0,2,17,12,2.mid,experiment,1
44,105,23597,76,64,0,2,17,12,2.mid,experiment,1
45,107,23910,79,64,0,2,17,12,2.mid,experiment,1
46,109,24121,74,64,0,2,17,12,2.mid,experiment,1
47,110,24207,71,64,0,2,17,12,2.mid,experiment,1
48,112,24473,72,64,0,2,17,12,2.mid,experiment,1
49,114,24746,72,64,0,2,17,12,2.mid,experiment,1
50,116,25010,74,64,0,2,17,12,2.mid,experiment,1
51,118,25283,74,64,0,2,17,12,2.mid,experiment,1
52,120,26094,76,64,0,2,17,12,2.mid,experiment,1
53,122,26782,65,64,0,2,17,12,2.mid,experiment,1
54,124,27063,65,64,0,2,17,12,2.mid,experiment,1
55,126,27375,64,64,0,2,17,12,2.mid,experiment,1
56,128,27644,64,64,0,2,17,12,2.mid,experiment,1
57,130,28503,62,64,0,2,17,12,2.mid,experiment,1
58,132,29124,67,64,0,2,17,12,2.mid,experiment,1
59,134,29389,67,64,0,2,17,12,2.mid,experiment,1
60,136,29944,71,64,0,2,17,12,2.mid,experiment,1
61,136,,71,,0,2,17,12,2.mid,experiment,1
62,138,30207,72,64,0,2,17,12,2.mid,experiment,1
63,140,30491,72,64,0,2,17,12,2.mid,experiment,1
64,142,30771,73,64,0,2,17,12,2.mid,experiment,1
65,144,31063,73,64,0,2,17,12,2.mid,experiment,1
66,147,31843,74,64,0,2,17,12,2.mid,experiment,1
67,149,32425,77,64,0,2,17,12,2.mid,experiment,1
68,151,32973,76,64,0,2,17,12,2.mid,experiment,1
69,153,33547,74,64,0,2,17,12,2.mid,experiment,1
70,155,34125,72,64,0,2,17,12,2.mid,experiment,1
71,156,34662,84,64,0,2,17,12,2.mid,experiment,1
72,158,35483,84,64,0,2,17,12,2.mid,experiment,1
1,19,8226,79,64,0,2,18,1,15.mid,experiment,1
2,21,8510,78,64,0,2,18,1,15.mid,experiment,1
3,23,8801,79,64,0,2,18,1,15.mid,experiment,1
4,25,9070,76,64,0,2,18,1,15.mid,experiment,1
5,26,9133,72,64,0,2,18,1,15.mid,experiment,1
6,28,9427,67,64,0,2,18,1,15.mid,experiment,1
7,30,9713,67,64,0,2,18,1,15.mid,experiment,1
8,32,10044,67,64,0,2,18,1,15.mid,experiment,1
9,35,10616,79,64,0,2,18,1,15.mid,experiment,1
10,37,10880,78,64,0,2,18,1,15.mid,experiment,1
11,39,11207,79,64,0,2,18,1,15.mid,experiment,1
12,41,11430,76,64,0,2,18,1,15.mid,experiment,1
13,43,11822,72,64,0,2,18,1,15.mid,experiment,1
14,45,12082,76,64,0,2,18,1,15.mid,experiment,1
15,47,12308,79,64,0,2,18,1,15.mid,experiment,1
16,49,12631,84,64,0,2,18,1,15.mid,experiment,1
17,50,12673,83,64,0,2,18,1,15.mid,experiment,1
18,52,12908,81,64,0,2,18,1,15.mid,experiment,1
19,54,13182,81,64,0,2,18,1,15.mid,experiment,1
20,56,13439,81,64,0,2,18,1,15.mid,experiment,1
21,59,14005,83,64,0,2,18,1,15.mid,experiment,1
22,61,14294,81,64,0,2,18,1,15.mid,experiment,1
23,63,14538,84,64,0,2,18,1,15.mid,experiment,1
24,65,14885,81,64,0,2,18,1,15.mid,experiment,1
25,67,15151,78,64,0,2,18,1,15.mid,experiment,1
26,68,15212,79,64,0,2,18,1,15.mid,experiment,1
27,70,15815,79,64,0,2,18,1,15.mid,experiment,1
28,72,16667,79,64,0,2,18,1,15.mid,experiment,1
29,74,17134,77,64,0,2,18,1,15.mid,experiment,1
30,76,17416,77,64,0,2,18,1,15.mid,experiment,1
31,78,17730,76,64,0,2,18,1,15.mid,experiment,1
32,80,18010,76,64,0,2,18,1,15.mid,experiment,1
33,82,18822,74,64,0,2,18,1,15.mid,experiment,1
34,84,19813,79,64,0,2,18,1,15.mid,experiment,1
35,86,20320,77,64,0,2,18,1,15.mid,experiment,1
36,88,20661,76,64,0,2,18,1,15.mid,experiment,1
37,90,20922,76,64,0,2,18,1,15.mid,experiment,1
38,92,21197,76,64,0,2,18,1,15.mid,experiment,1
39,94,21475,76,64,0,2,18,1,15.mid,experiment,1
40,97,22068,81,64,0,2,18,1,15.mid,experiment,1
41,99,22328,77,64,0,2,18,1,15.mid,experiment,1
42,101,22582,76,64,0,2,18,1,15.mid,experiment,1
43,103,22920,74,64,0,2,18,1,15.mid,experiment,1
44,105,23139,76,64,0,2,18,1,15.mid,experiment,1
45,107,23440,79,64,0,2,18,1,15.mid,experiment,1
46,109,23640,74,64,0,2,18,1,15.mid,experiment,1
47,110,23890,71,64,0,2,18,1,15.mid,experiment,1
48,112,23962,72,64,0,2,18,1,15.mid,experiment,1
49,112,,72,,0,2,18,1,15.mid,experiment,1
50,114,24509,74,64,0,2,18,1,15.mid,experiment,1
51,116,24797,74,64,0,2,18,1,15.mid,experiment,1
52,118,25572,76,64,0,2,18,1,15.mid,experiment,1
53,120,26128,65,64,0,2,18,1,15.mid,experiment,1
54,122,26444,65,64,0,2,18,1,15.mid,experiment,1
55,124,26680,64,64,0,2,18,1,15.mid,experiment,1
56,126,26962,64,64,0,2,18,1,15.mid,experiment,1
57,128,27580,62,64,0,2,18,1,15.mid,experiment,1
58,130,28404,67,64,0,2,18,1,15.mid,experiment,1
59,132,28653,67,64,0,2,18,1,15.mid,experiment,1
60,134,28941,71,64,0,2,18,1,15.mid,experiment,1
61,136,29196,71,64,0,2,18,1,15.mid,experiment,1
62,138,29456,72,64,0,2,18,1,15.mid,experiment,1
63,140,29747,72,64,0,2,18,1,15.mid,experiment,1
64,142,30001,73,64,0,2,18,1,15.mid,experiment,1
65,144,30251,73,64,0,2,18,1,15.mid,experiment,1
66,146,30970,74,64,0,2,18,1,15.mid,experiment,1
67,148,31558,77,64,0,2,18,1,15.mid,experiment,1
68,150,32122,76,64,0,2,18,1,15.mid,experiment,1
69,152,32639,74,64,0,2,18,1,15.mid,experiment,1
70,154,33264,72,64,0,2,18,1,15.mid,experiment,1
71,156,33915,84,64,0,2,18,1,15.mid,experiment,1
72,158,34781,84,64,0,2,18,1,15.mid,experiment,1
1,19,8151,79,64,0,2,18,5,14.mid,experiment,1
2,21,8422,78,64,0,2,18,5,14.mid,experiment,1
3,23,8665,79,64,0,2,18,5,14.mid,experiment,1
4,25,8937,76,64,0,2,18,5,14.mid,experiment,1
5,26,9008,72,64,0,2,18,5,14.mid,experiment,1
6,28,9242,67,64,0,2,18,5,14.mid,experiment,1
7,30,9524,67,64,0,2,18,5,14.mid,experiment,1
8,32,9775,67,64,0,2,18,5,14.mid,experiment,1
9,35,10328,79,64,0,2,18,5,14.mid,experiment,1
10,37,10600,78,64,0,2,18,5,14.mid,experiment,1
11,39,10894,79,64,0,2,18,5,14.mid,experiment,1
12,40,11072,76,64,0,2,18,5,14.mid,experiment,1
13,43,11445,72,64,0,2,18,5,14.mid,experiment,1
14,45,11678,76,64,0,2,18,5,14.mid,experiment,1
15,47,11901,79,64,0,2,18,5,14.mid,experiment,1
16,49,12232,84,64,0,2,18,5,14.mid,experiment,1
17,50,12356,83,64,0,2,18,5,14.mid,experiment,1
18,52,12455,81,64,0,2,18,5,14.mid,experiment,1
19,54,12748,81,64,0,2,18,5,14.mid,experiment,1
20,56,12995,81,64,0,2,18,5,14.mid,experiment,1
21,59,13504,83,64,0,2,18,5,14.mid,experiment,1
22,61,13786,81,64,0,2,18,5,14.mid,experiment,1
23,62,14003,84,64,0,2,18,5,14.mid,experiment,1
24,65,14361,81,64,0,2,18,5,14.mid,experiment,1
25,67,14630,78,64,0,2,18,5,14.mid,experiment,1
26,68,14714,79,64,0,2,18,5,14.mid,experiment,1
27,70,15254,79,64,0,2,18,5,14.mid,experiment,1
28,72,16048,79,64,0,2,18,5,14.mid,experiment,1
29,74,16504,77,64,0,2,18,5,14.mid,experiment,1
30,76,16766,77,64,0,2,18,5,14.mid,experiment,1
31,78,17031,76,64,0,2,18,5,14.mid,experiment,1
32,80,17304,76,64,0,2,18,5,14.mid,experiment,1
33,82,18139,74,64,0,2,18,5,14.mid,experiment,1
34,84,19068,79,64,0,2,18,5,14.mid,experiment,1
35,86,19551,77,64,0,2,18,5,14.mid,experiment,1
36,88,19844,76,64,0,2,18,5,14.mid,experiment,1
37,90,20094,76,64,0,2,18,5,14.mid,experiment,1
38,92,20355,76,64,0,2,18,5,14.mid,experiment,1
39,94,20631,76,64,0,2,18,5,14.mid,experiment,1
40,97,21155,81,64,0,2,18,5,14.mid,experiment,1
41,99,21390,77,64,0,2,18,5,14.mid,experiment,1
42,101,21619,76,64,0,2,18,5,14.mid,experiment,1
43,103,21931,74,64,0,2,18,5,14.mid,experiment,1
44,105,22181,76,64,0,2,18,5,14.mid,experiment,1
45,107,22455,79,64,0,2,18,5,14.mid,experiment,1
46,109,22641,74,64,0,2,18,5,14.mid,experiment,1
47,110,22897,71,64,0,2,18,5,14.mid,experiment,1
48,112,22992,72,64,0,2,18,5,14.mid,experiment,1
49,114,23217,72,64,0,2,18,5,14.mid,experiment,1
50,116,23481,74,64,0,2,18,5,14.mid,experiment,1
51,118,23755,74,64,0,2,18,5,14.mid,experiment,1
52,120,24535,76,64,0,2,18,5,14.mid,experiment,1
53,122,25157,65,64,0,2,18,5,14.mid,experiment,1
54,124,25395,65,64,0,2,18,5,14.mid,experiment,1
55,126,25915,64,64,0,2,18,5,14.mid,experiment,1
56,126,,64,,0,2,18,5,14.mid,experiment,1
57,128,26749,62,64,0,2,18,5,14.mid,experiment,1
58,130,27280,67,64,0,2,18,5,14.mid,experiment,1
59,132,27538,67,64,0,2,18,5,14.mid,experiment,1
60,134,27792,71,64,0,2,18,5,14.mid,experiment,1
61,136,28091,71,64,0,2,18,5,14.mid,experiment,1
62,138,28312,72,64,0,2,18,5,14.mid,experiment,1
63,140,28603,72,64,0,2,18,5,14.mid,experiment,1
64,142,28836,73,64,0,2,18,5,14.mid,experiment,1
65,144,29097,73,64,0,2,18,5,14.mid,experiment,1
66,146,29835,74,64,0,2,18,5,14.mid,experiment,1
67,148,30402,77,64,0,2,18,5,14.mid,experiment,1
68,150,30926,76,64,0,2,18,5,14.mid,experiment,1
69,152,31424,74,64,0,2,18,5,14.mid,experiment,1
70,154,31930,72,64,0,2,18,5,14.mid,experiment,1
71,156,32519,84,64,0,2,18,5,14.mid,experiment,1
72,158,33386,84,64,0,2,18,5,14.mid,experiment,1
1,19,8192,79,64,0,2,18,9,11.mid,experiment,1
2,21,8478,78,64,0,2,18,9,11.mid,experiment,1
3,23,8746,79,64,0,2,18,9,11.mid,experiment,1
4,25,9013,76,64,0,2,18,9,11.mid,experiment,1
5,26,9067,72,64,0,2,18,9,11.mid,experiment,1
6,28,9306,67,64,0,2,18,9,11.mid,experiment,1
7,30,9584,67,64,0,2,18,9,11.mid,experiment,1
8,32,9829,67,64,0,2,18,9,11.mid,experiment,1
9,35,10408,79,64,0,2,18,9,11.mid,experiment,1
10,37,10688,78,64,0,2,18,9,11.mid,experiment,1
11,39,10974,79,64,0,2,18,9,11.mid,experiment,1
12,41,11202,76,64,0,2,18,9,11.mid,experiment,1
13,43,11544,72,64,0,2,18,9,11.mid,experiment,1
14,45,11816,76,64,0,2,18,9,11.mid,experiment,1
15,47,12040,79,64,0,2,18,9,11.mid,experiment,1
16,49,12374,84,64,0,2,18,9,11.mid,experiment,1
17,50,12433,83,64,0,2,18,9,11.mid,experiment,1
18,52,12634,81,64,0,2,18,9,11.mid,experiment,1
19,54,12902,81,64,0,2,18,9,11.mid,experiment,1
20,56,13140,81,64,0,2,18,9,11.mid,experiment,1
21,59,13695,83,64,0,2,18,9,11.mid,experiment,1
22,61,13975,81,64,0,2,18,9,11.mid,experiment,1
23,63,14207,84,64,0,2,18,9,11.mid,experiment,1
24,64,14404,81,64,0,2,18,9,11.mid,experiment,1
25,66,14670,78,64,0,2,18,9,11.mid,experiment,1
26,68,14803,79,64,0,2,18,9,11.mid,experiment,1
27,70,15387,79,64,0,2,18,9,11.mid,experiment,1
28,72,16201,79,64,0,2,18,9,11.mid,experiment,1
29,74,16723,77,64,0,2,18,9,11.mid,experiment,1
30,76,16988,77,64,0,2,18,9,11.mid,experiment,1
31,78,17539,76,64,0,2,18,9,11.mid,experiment,1
32,78,,76,,0,2,18,9,11.mid,experiment,1
33,80,18372,74,64,0,2,18,9,11.mid,experiment,1
34,82,19321,79,64,0,2,18,9,11.mid,experiment,1
35,84,19743,77,64,0,2,18,9,11.mid,experiment,1
36,86,20104,76,64,0,2,18,9,11.mid,experiment,1
37,88,20386,76,64,0,2,18,9,11.mid,experiment,1
38,90,20631,76,64,0,2,18,9,11.mid,experiment,1
39,92,20900,76,64,0,2,18,9,11.mid,experiment,1
40,95,21411,81,64,0,2,18,9,11.mid,experiment,1
41,97,21671,77,64,0,2,18,9,11.mid,experiment,1
42,99,21922,76,64,0,2,18,9,11.mid,experiment,1
43,101,22228,74,64,0,2,18,9,11.mid,experiment,1
44,103,22448,76,64,0,2,18,9,11.mid,experiment,1
45,105,22729,79,64,0,2,18,9,11.mid,experiment,1
46,107,22929,74,64,0,2,18,9,11.mid,experiment,1
47,109,23190,71,64,0,2,18,9,11.mid,experiment,1
48,110,23229,72,64,0,2,18,9,11.mid,experiment,1
49,112,23483,72,64,0,2,18,9,11.mid,experiment,1
50,114,23736,74,64,0,2,18,9,11.mid,experiment,1
51,116,24014,74,64,0,2,18,9,11.mid,experiment,1
52,118,24892,76,64,0,2,18,9,11.mid,experiment,1
53,120,25347,65,64,0,2,18,9,11.mid,experiment,1
54,122,25610,65,64,0,2,18,9,11.mid,experiment,1
55,124,25897,64,64,0,2,18,9,11.mid,experiment,1
56,124,,64,,0,2,18,9,11.mid,experiment,1
57,126,26989,62,64,0,2,18,9,11.mid,experiment,1
58,128,27483,67,64,0,2,18,9,11.mid,experiment,1
59,130,27810,67,64,0,2,18,9,11.mid,experiment,1
60,132,28018,71,64,0,2,18,9,11.mid,experiment,1
61,134,28291,71,64,0,2,18,9,11.mid,experiment,1
62,136,28546,72,64,0,2,18,9,11.mid,experiment,1
63,138,28800,72,64,0,2,18,9,11.mid,experiment,1
64,140,29060,73,64,0,2,18,9,11.mid,experiment,1
65,142,29344,73,64,0,2,18,9,11.mid,experiment,1
66,144,30063,74,64,0,2,18,9,11.mid,experiment,1
67,146,30629,77,64,0,2,18,9,11.mid,experiment,1
68,149,31230,76,64,0,2,18,9,11.mid,experiment,1
69,150,31674,74,64,0,2,18,9,11.mid,experiment,1
70,152,32217,72,64,0,2,18,9,11.mid,experiment,1
71,154,32750,84,64,0,2,18,9,11.mid,experiment,1
72,156,33440,84,64,0,2,18,9,11.mid,experiment,1
1,19,8171,79,64,0,2,18,11,5.mid,experiment,1
2,21,8440,78,64,0,2,18,11,5.mid,experiment,1
3,23,8709,79,64,0,2,18,11,5.mid,experiment,1
4,25,9020,76,64,0,2,18,11,5.mid,experiment,1
5,26,9055,72,64,0,2,18,11,5.mid,experiment,1
6,28,9290,67,64,0,2,18,11,5.mid,experiment,1
7,30,9564,67,64,0,2,18,11,5.mid,experiment,1
8,32,9816,67,64,0,2,18,11,5.mid,experiment,1
9,35,10377,79,64,0,2,18,11,5.mid,experiment,1
10,37,10664,78,64,0,2,18,11,5.mid,experiment,1
11,39,10956,79,64,0,2,18,11,5.mid,experiment,1
12,41,11184,76,64,0,2,18,11,5.mid,experiment,1
13,43,11516,72,64,0,2,18,11,5.mid,experiment,1
14,45,11765,76,64,0,2,18,11,5.mid,experiment,1
15,47,11971,79,64,0,2,18,11,5.mid,experiment,1
16,49,12296,84,64,0,2,18,11,5.mid,experiment,1
17,50,12321,83,64,0,2,18,11,5.mid,experiment,1
18,52,12549,81,64,0,2,18,11,5.mid,experiment,1
19,54,12803,81,64,0,2,18,11,5.mid,experiment,1
20,56,13087,81,64,0,2,18,11,5.mid,experiment,1
21,59,13621,83,64,0,2,18,11,5.mid,experiment,1
22,61,13871,81,64,0,2,18,11,5.mid,experiment,1
23,63,14110,84,64,0,2,18,11,5.mid,experiment,1
24,64,14348,81,64,0,2,18,11,5.mid,experiment,1
25,67,14642,78,64,0,2,18,11,5.mid,experiment,1
26,68,14720,79,64,0,2,18,11,5.mid,experiment,1
27,70,15283,79,64,0,2,18,11,5.mid,experiment,1
28,72,16133,79,64,0,2,18,11,5.mid,experiment,1
29,74,16577,77,64,0,2,18,11,5.mid,experiment,1
30,76,16856,77,64,0,2,18,11,5.mid,experiment,1
31,78,17123,76,64,0,2,18,11,5.mid,experiment,1
32,78,,76,,0,2,18,11,5.mid,experiment,1
33,80,18212,74,64,0,2,18,11,5.mid,experiment,1
34,82,19066,79,64,0,2,18,11,5.mid,experiment,1
35,84,19519,77,64,0,2,18,11,5.mid,experiment,1
36,86,19821,76,64,0,2,18,11,5.mid,experiment,1
37,88,20097,76,64,0,2,18,11,5.mid,experiment,1
38,90,20323,76,64,0,2,18,11,5.mid,experiment,1
39,92,20601,76,64,0,2,18,11,5.mid,experiment,1
40,95,21118,81,64,0,2,18,11,5.mid,experiment,1
41,97,21337,77,64,0,2,18,11,5.mid,experiment,1
42,99,21596,76,64,0,2,18,11,5.mid,experiment,1
43,101,21863,74,64,0,2,18,11,5.mid,experiment,1
44,103,22091,76,64,0,2,18,11,5.mid,experiment,1
45,105,22403,79,64,0,2,18,11,5.mid,experiment,1
46,107,22588,74,64,0,2,18,11,5.mid,experiment,1
47,108,22848,71,64,0,2,18,11,5.mid,experiment,1
48,110,22907,72,64,0,2,18,11,5.mid,experiment,1
49,112,23155,72,64,0,2,18,11,5.mid,experiment,1
50,114,23424,74,64,0,2,18,11,5.mid,experiment,1
51,116,23699,74,64,0,2,18,11,5.mid,experiment,1
52,118,24491,76,64,0,2,18,11,5.mid,experiment,1
53,120,25010,65,64,0,2,18,11,5.mid,experiment,1
54,122,25299,65,64,0,2,18,11,5.mid,experiment,1
55,124,25547,64,64,0,2,18,11,5.mid,experiment,1
56,126,25819,64,64,0,2,18,11,5.mid,experiment,1
57,128,26646,62,64,0,2,18,11,5.mid,experiment,1
58,130,27175,67,64,0,2,18,11,5.mid,experiment,1
59,132,27448,67,64,0,2,18,11,5.mid,experiment,1
60,134,27692,71,64,0,2,18,11,5.mid,experiment,1
61,136,27974,71,64,0,2,18,11,5.mid,experiment,1
62,138,28199,72,64,0,2,18,11,5.mid,experiment,1
63,140,28484,72,64,0,2,18,11,5.mid,experiment,1
64,142,28752,73,64,0,2,18,11,5.mid,experiment,1
65,144,29013,73,64,0,2,18,11,5.mid,experiment,1
66,147,29852,74,64,0,2,18,11,5.mid,experiment,1
67,148,30264,77,64,0,2,18,11,5.mid,experiment,1
68,150,30810,76,64,0,2,18,11,5.mid,experiment,1
69,152,31358,74,64,0,2,18,11,5.mid,experiment,1
70,154,31922,72,64,0,2,18,11,5.mid,experiment,1
71,156,32390,84,64,0,2,18,11,5.mid,experiment,1
72,158,33259,84,64,0,2,18,11,5.mid,experiment,1
1,19,8156,79,64,0,2,18,12,7.mid,experiment,1
2,21,8418,78,64,0,2,18,12,7.mid,experiment,1
3,23,8694,79,64,0,2,18,12,7.mid,experiment,1
4,25,8944,76,64,0,2,18,12,7.mid,experiment,1
5,26,8992,72,64,0,2,18,12,7.mid,experiment,1
6,28,9224,67,64,0,2,18,12,7.mid,experiment,1
7,30,9484,67,64,0,2,18,12,7.mid,experiment,1
8,32,9768,67,64,0,2,18,12,7.mid,experiment,1
9,35,10324,79,64,0,2,18,12,7.mid,experiment,1
10,37,10596,78,64,0,2,18,12,7.mid,experiment,1
11,39,10937,79,64,0,2,18,12,7.mid,experiment,1
12,41,11124,76,64,0,2,18,12,7.mid,experiment,1
13,43,11452,72,64,0,2,18,12,7.mid,experiment,1
14,45,11712,76,64,0,2,18,12,7.mid,experiment,1
15,47,11960,79,64,0,2,18,12,7.mid,experiment,1
16,49,12240,84,64,0,2,18,12,7.mid,experiment,1
17,50,12291,83,64,0,2,18,12,7.mid,experiment,1
18,52,12514,81,64,0,2,18,12,7.mid,experiment,1
19,54,12784,81,64,0,2,18,12,7.mid,experiment,1
20,56,13070,81,64,0,2,18,12,7.mid,experiment,1
21,59,13601,83,64,0,2,18,12,7.mid,experiment,1
22,61,13851,81,64,0,2,18,12,7.mid,experiment,1
23,63,14079,84,64,0,2,18,12,7.mid,experiment,1
24,64,14292,81,64,0,2,18,12,7.mid,experiment,1
25,67,14630,78,64,0,2,18,12,7.mid,experiment,1
26,68,14682,79,64,0,2,18,12,7.mid,experiment,1
27,70,15314,79,64,0,2,18,12,7.mid,experiment,1
28,72,16218,79,64,0,2,18,12,7.mid,experiment,1
29,74,16606,77,64,0,2,18,12,7.mid,experiment,1
30,76,16872,77,64,0,2,18,12,7.mid,experiment,1
31,78,17151,76,64,0,2,18,12,7.mid,experiment,1
32,80,17402,76,64,0,2,18,12,7.mid,experiment,1
33,82,18272,74,64,0,2,18,12,7.mid,experiment,1
34,84,19242,79,64,0,2,18,12,7.mid,experiment,1
35,86,19682,77,64,0,2,18,12,7.mid,experiment,1
36,88,19974,76,64,0,2,18,12,7.mid,experiment,1
37,90,20232,76,64,0,2,18,12,7.mid,experiment,1
38,92,20512,76,64,0,2,18,12,7.mid,experiment,1
39,94,20751,76,64,0,2,18,12,7.mid,experiment,1
40,97,21358,81,64,0,2,18,12,7.mid,experiment,1
41,99,21588,77,64,0,2,18,12,7.mid,experiment,1
42,101,21810,76,64,0,2,18,12,7.mid,experiment,1
43,103,22136,74,64,0,2,18,12,7.mid,experiment,1
44,105,22366,76,64,0,2,18,12,7.mid,experiment,1
45,107,22658,79,64,0,2,18,12,7.mid,experiment,1
46,109,22860,74,64,0,2,18,12,7.mid,experiment,1
47,111,23111,71,64,0,2,18,12,7.mid,experiment,1
48,112,23142,72,64,0,2,18,12,7.mid,experiment,1
49,114,23392,72,64,0,2,18,12,7.mid,experiment,1
50,116,23670,74,64,0,2,18,12,7.mid,experiment,1
51,118,23938,74,64,0,2,18,12,7.mid,experiment,1
52,120,24770,76,64,0,2,18,12,7.mid,experiment,1
53,122,25258,65,64,0,2,18,12,7.mid,experiment,1
54,124,25514,65,64,0,2,18,12,7.mid,experiment,1
55,126,26016,64,64,0,2,18,12,7.mid,experiment,1
56,126,,64,,0,2,18,12,7.mid,experiment,1
57,128,26830,62,64,0,2,18,12,7.mid,experiment,1
58,130,27352,67,64,0,2,18,12,7.mid,experiment,1
59,132,27634,67,64,0,2,18,12,7.mid,experiment,1
60,134,27896,71,64,0,2,18,12,7.mid,experiment,1
61,136,28172,71,64,0,2,18,12,7.mid,experiment,1
62,138,28406,72,64,0,2,18,12,7.mid,experiment,1
63,140,28666,72,64,0,2,18,12,7.mid,experiment,1
64,142,28922,73,64,0,2,18,12,7.mid,experiment,1
65,144,29166,73,64,0,2,18,12,7.mid,experiment,1
66,147,29943,74,64,0,2,18,12,7.mid,experiment,1
67,149,30468,77,64,0,2,18,12,7.mid,experiment,1
68,150,30972,76,64,0,2,18,12,7.mid,experiment,1
69,152,31542,74,64,0,2,18,12,7.mid,experiment,1
70,155,32176,72,64,0,2,18,12,7.mid,experiment,1
71,156,32576,84,64,0,2,18,12,7.mid,experiment,1
72,158,33616,84,64,0,2,18,12,7.mid,experiment,1
1,19,8169,79,64,0,2,18,15,12.mid,experiment,1
2,21,8431,78,64,0,2,18,15,12.mid,experiment,1
3,23,8682,79,64,0,2,18,15,12.mid,experiment,1
4,25,8920,76,64,0,2,18,15,12.mid,experiment,1
5,26,8977,72,64,0,2,18,15,12.mid,experiment,1
6,28,9199,67,64,0,2,18,15,12.mid,experiment,1
7,30,9494,67,64,0,2,18,15,12.mid,experiment,1
8,32,9740,67,64,0,2,18,15,12.mid,experiment,1
9,35,10301,79,64,0,2,18,15,12.mid,experiment,1
10,37,10544,78,64,0,2,18,15,12.mid,experiment,1
11,39,10848,79,64,0,2,18,15,12.mid,experiment,1
12,41,11062,76,64,0,2,18,15,12.mid,experiment,1
13,43,11411,72,64,0,2,18,15,12.mid,experiment,1
14,45,11666,76,64,0,2,18,15,12.mid,experiment,1
15,47,11885,79,64,0,2,18,15,12.mid,experiment,1
16,49,12168,84,64,0,2,18,15,12.mid,experiment,1
17,50,12225,83,64,0,2,18,15,12.mid,experiment,1
18,52,12450,81,64,0,2,18,15,12.mid,experiment,1
19,54,12690,81,64,0,2,18,15,12.mid,experiment,1
20,56,12971,81,64,0,2,18,15,12.mid,experiment,1
21,59,13564,83,64,0,2,18,15,12.mid,experiment,1
22,61,13792,81,64,0,2,18,15,12.mid,experiment,1
23,63,14020,84,64,0,2,18,15,12.mid,experiment,1
24,64,14235,81,64,0,2,18,15,12.mid,experiment,1
25,66,14429,78,64,0,2,18,15,12.mid,experiment,1
26,68,14649,79,64,0,2,18,15,12.mid,experiment,1
27,70,15283,79,64,0,2,18,15,12.mid,experiment,1
28,72,16117,79,64,0,2,18,15,12.mid,experiment,1
29,74,16550,77,64,0,2,18,15,12.mid,experiment,1
30,76,16821,77,64,0,2,18,15,12.mid,experiment,1
31,78,17123,76,64,0,2,18,15,12.mid,experiment,1
32,78,,76,,0,2,18,15,12.mid,experiment,1
33,80,18200,74,64,0,2,18,15,12.mid,experiment,1
34,82,19038,79,64,0,2,18,15,12.mid,experiment,1
35,84,19556,77,64,0,2,18,15,12.mid,experiment,1
36,86,19825,76,64,0,2,18,15,12.mid,experiment,1
37,88,20085,76,64,0,2,18,15,12.mid,experiment,1
38,90,20337,76,64,0,2,18,15,12.mid,experiment,1
39,92,20597,76,64,0,2,18,15,12.mid,experiment,1
40,95,21095,81,64,0,2,18,15,12.mid,experiment,1
41,97,21362,77,64,0,2,18,15,12.mid,experiment,1
42,99,21598,76,64,0,2,18,15,12.mid,experiment,1
43,101,21886,74,64,0,2,18,15,12.mid,experiment,1
44,103,22141,76,64,0,2,18,15,12.mid,experiment,1
45,105,22401,79,64,0,2,18,15,12.mid,experiment,1
46,107,22613,74,64,0,2,18,15,12.mid,experiment,1
47,108,22832,71,64,0,2,18,15,12.mid,experiment,1
48,110,22907,72,64,0,2,18,15,12.mid,experiment,1
49,112,23170,72,64,0,2,18,15,12.mid,experiment,1
50,114,23432,74,64,0,2,18,15,12.mid,experiment,1
51,116,23678,74,64,0,2,18,15,12.mid,experiment,1
52,118,24515,76,64,0,2,18,15,12.mid,experiment,1
53,120,25027,65,64,0,2,18,15,12.mid,experiment,1
54,122,25272,65,64,0,2,18,15,12.mid,experiment,1
55,124,25534,64,64,0,2,18,15,12.mid,experiment,1
56,126,25812,64,64,0,2,18,15,12.mid,experiment,1
57,128,26671,62,64,0,2,18,15,12.mid,experiment,1
58,130,27164,67,64,0,2,18,15,12.mid,experiment,1
59,132,27425,67,64,0,2,18,15,12.mid,experiment,1
60,134,27670,71,64,0,2,18,15,12.mid,experiment,1
61,136,27962,71,64,0,2,18,15,12.mid,experiment,1
62,138,28195,72,64,0,2,18,15,12.mid,experiment,1
63,140,28453,72,64,0,2,18,15,12.mid,experiment,1
64,142,28717,73,64,0,2,18,15,12.mid,experiment,1
65,144,28953,73,64,0,2,18,15,12.mid,experiment,1
66,146,29722,74,64,0,2,18,15,12.mid,experiment,1
67,148,30246,77,64,0,2,18,15,12.mid,experiment,1
68,150,30783,76,64,0,2,18,15,12.mid,experiment,1
69,152,31363,74,64,0,2,18,15,12.mid,experiment,1
70,154,31897,72,64,0,2,18,15,12.mid,experiment,1
71,156,32494,84,64,0,2,18,15,12.mid,experiment,1
72,158,33465,84,64,0,2,18,15,12.mid,experiment,1
1,19,8136,79,64,0,2,18,16,8.mid,experiment,1
2,21,8402,78,64,0,2,18,16,8.mid,experiment,1
3,23,8657,79,64,0,2,18,16,8.mid,experiment,1
4,25,8914,76,64,0,2,18,16,8.mid,experiment,1
5,26,8966,72,64,0,2,18,16,8.mid,experiment,1
6,28,9231,67,64,0,2,18,16,8.mid,experiment,1
7,30,9501,67,64,0,2,18,16,8.mid,experiment,1
8,32,9726,67,64,0,2,18,16,8.mid,experiment,1
9,35,10272,79,64,0,2,18,16,8.mid,experiment,1
10,37,10532,78,64,0,2,18,16,8.mid,experiment,1
11,39,10803,79,64,0,2,18,16,8.mid,experiment,1
12,41,11021,76,64,0,2,18,16,8.mid,experiment,1
13,43,11358,72,64,0,2,18,16,8.mid,experiment,1
14,45,11592,76,64,0,2,18,16,8.mid,experiment,1
15,47,11826,79,64,0,2,18,16,8.mid,experiment,1
16,49,12116,84,64,0,2,18,16,8.mid,experiment,1
17,50,12176,83,64,0,2,18,16,8.mid,experiment,1
18,52,12386,81,64,0,2,18,16,8.mid,experiment,1
19,54,12654,81,64,0,2,18,16,8.mid,experiment,1
20,56,12898,81,64,0,2,18,16,8.mid,experiment,1
21,59,13434,83,64,0,2,18,16,8.mid,experiment,1
22,61,13688,81,64,0,2,18,16,8.mid,experiment,1
23,63,13922,84,64,0,2,18,16,8.mid,experiment,1
24,64,14154,81,64,0,2,18,16,8.mid,experiment,1
25,66,14303,78,64,0,2,18,16,8.mid,experiment,1
26,68,14507,79,64,0,2,18,16,8.mid,experiment,1
27,70,15114,79,64,0,2,18,16,8.mid,experiment,1
28,72,15950,79,64,0,2,18,16,8.mid,experiment,1
29,74,16402,77,64,0,2,18,16,8.mid,experiment,1
30,76,16660,77,64,0,2,18,16,8.mid,experiment,1
31,78,16944,76,64,0,2,18,16,8.mid,experiment,1
32,80,17205,76,64,0,2,18,16,8.mid,experiment,1
33,82,18020,74,64,0,2,18,16,8.mid,experiment,1
34,84,18956,79,64,0,2,18,16,8.mid,experiment,1
35,86,19384,77,64,0,2,18,16,8.mid,experiment,1
36,88,19718,76,64,0,2,18,16,8.mid,experiment,1
37,90,19971,76,64,0,2,18,16,8.mid,experiment,1
38,92,20217,76,64,0,2,18,16,8.mid,experiment,1
39,94,20492,76,64,0,2,18,16,8.mid,experiment,1
40,97,21022,81,64,0,2,18,16,8.mid,experiment,1
41,99,21262,77,64,0,2,18,16,8.mid,experiment,1
42,101,21502,76,64,0,2,18,16,8.mid,experiment,1
43,103,21820,74,64,0,2,18,16,8.mid,experiment,1
44,105,22050,76,64,0,2,18,16,8.mid,experiment,1
45,107,22322,79,64,0,2,18,16,8.mid,experiment,1
46,109,22502,74,64,0,2,18,16,8.mid,experiment,1
47,110,22732,71,64,0,2,18,16,8.mid,experiment,1
48,112,22802,72,64,0,2,18,16,8.mid,experiment,1
49,114,23054,72,64,0,2,18,16,8.mid,experiment,1
50,116,23314,74,64,0,2,18,16,8.mid,experiment,1
51,118,23565,74,64,0,2,18,16,8.mid,experiment,1
52,120,24394,76,64,0,2,18,16,8.mid,experiment,1
53,122,24914,65,64,0,2,18,16,8.mid,experiment,1
54,124,25176,65,64,0,2,18,16,8.mid,experiment,1
55,126,25430,64,64,0,2,18,16,8.mid,experiment,1
56,128,25691,64,64,0,2,18,16,8.mid,experiment,1
57,130,26522,62,64,0,2,18,16,8.mid,experiment,1
58,132,27338,67,64,0,2,18,16,8.mid,experiment,1
59,132,,67,,0,2,18,16,8.mid,experiment,1
60,134,27626,71,64,0,2,18,16,8.mid,experiment,1
61,136,27898,71,64,0,2,18,16,8.mid,experiment,1
62,138,28147,72,64,0,2,18,16,8.mid,experiment,1
63,140,28414,72,64,0,2,18,16,8.mid,experiment,1
64,142,28648,73,64,0,2,18,16,8.mid,experiment,1
65,144,28893,73,64,0,2,18,16,8.mid,experiment,1
66,147,29735,74,64,0,2,18,16,8.mid,experiment,1
67,149,30343,77,64,0,2,18,16,8.mid,experiment,1
68,151,30898,76,64,0,2,18,16,8.mid,experiment,1
69,153,31476,74,64,0,2,18,16,8.mid,experiment,1
70,154,31888,72,64,0,2,18,16,8.mid,experiment,1
71,156,32380,84,64,0,2,18,16,8.mid,experiment,1
72,158,33516,84,64,0,2,18,16,8.mid,experiment,1
1,19,10157,79,64,0,2,19,9,8.mid,experiment,1
2,21,10440,78,64,0,2,19,9,8.mid,experiment,1
3,23,10685,79,64,0,2,19,9,8.mid,experiment,1
4,25,10958,76,64,0,2,19,9,8.mid,experiment,1
5,26,11132,72,64,0,2,19,9,8.mid,experiment,1
6,28,11277,67,64,0,2,19,9,8.mid,experiment,1
7,30,11561,67,64,0,2,19,9,8.mid,experiment,1
8,32,11917,67,64,0,2,19,9,8.mid,experiment,1
9,35,12406,79,64,0,2,19,9,8.mid,experiment,1
10,37,12688,78,64,0,2,19,9,8.mid,experiment,1
11,39,12920,79,64,0,2,19,9,8.mid,experiment,1
12,41,13199,76,64,0,2,19,9,8.mid,experiment,1
13,43,13466,72,64,0,2,19,9,8.mid,experiment,1
14,45,13748,76,64,0,2,19,9,8.mid,experiment,1
15,47,13960,79,64,0,2,19,9,8.mid,experiment,1
16,49,14261,84,64,0,2,19,9,8.mid,experiment,1
17,50,14398,83,64,0,2,19,9,8.mid,experiment,1
18,52,14550,81,64,0,2,19,9,8.mid,experiment,1
19,54,14829,81,64,0,2,19,9,8.mid,experiment,1
20,56,15114,81,64,0,2,19,9,8.mid,experiment,1
21,59,15658,83,64,0,2,19,9,8.mid,experiment,1
22,61,15889,81,64,0,2,19,9,8.mid,experiment,1
23,63,16170,84,64,0,2,19,9,8.mid,experiment,1
24,65,16475,81,64,0,2,19,9,8.mid,experiment,1
25,67,16720,78,64,0,2,19,9,8.mid,experiment,1
26,68,16792,79,64,0,2,19,9,8.mid,experiment,1
27,70,17440,79,64,0,2,19,9,8.mid,experiment,1
28,72,18263,79,64,0,2,19,9,8.mid,experiment,1
29,74,18954,77,64,0,2,19,9,8.mid,experiment,1
30,76,19219,77,64,0,2,19,9,8.mid,experiment,1
31,78,19517,76,64,0,2,19,9,8.mid,experiment,1
32,80,19790,76,64,0,2,19,9,8.mid,experiment,1
33,82,20361,74,64,0,2,19,9,8.mid,experiment,1
34,84,21620,79,64,0,2,19,9,8.mid,experiment,1
35,86,22165,77,64,0,2,19,9,8.mid,experiment,1
36,88,22473,76,64,0,2,19,9,8.mid,experiment,1
37,90,22724,76,64,0,2,19,9,8.mid,experiment,1
38,92,22994,76,64,0,2,19,9,8.mid,experiment,1
39,94,23299,76,64,0,2,19,9,8.mid,experiment,1
40,97,23746,81,64,0,2,19,9,8.mid,experiment,1
41,99,24008,77,64,0,2,19,9,8.mid,experiment,1
42,101,24232,76,64,0,2,19,9,8.mid,experiment,1
43,103,24508,74,64,0,2,19,9,8.mid,experiment,1
44,105,24783,76,64,0,2,19,9,8.mid,experiment,1
45,107,25063,79,64,0,2,19,9,8.mid,experiment,1
46,109,25268,74,64,0,2,19,9,8.mid,experiment,1
47,110,25389,71,64,0,2,19,9,8.mid,experiment,1
48,112,25580,72,64,0,2,19,9,8.mid,experiment,1
49,114,25849,72,64,0,2,19,9,8.mid,experiment,1
50,116,26113,74,64,0,2,19,9,8.mid,experiment,1
51,118,26385,74,64,0,2,19,9,8.mid,experiment,1
52,120,27140,76,64,0,2,19,9,8.mid,experiment,1
53,122,27892,65,64,0,2,19,9,8.mid,experiment,1
54,124,28150,65,64,0,2,19,9,8.mid,experiment,1
55,126,28672,64,64,0,2,19,9,8.mid,experiment,1
56,126,,64,,0,2,19,9,8.mid,experiment,1
57,128,29418,62,64,0,2,19,9,8.mid,experiment,1
58,130,30082,67,64,0,2,19,9,8.mid,experiment,1
59,132,30344,67,64,0,2,19,9,8.mid,experiment,1
60,134,30587,71,64,0,2,19,9,8.mid,experiment,1
61,136,30865,71,64,0,2,19,9,8.mid,experiment,1
62,138,31156,72,64,0,2,19,9,8.mid,experiment,1
63,140,31386,72,64,0,2,19,9,8.mid,experiment,1
64,142,31638,73,64,0,2,19,9,8.mid,experiment,1
65,144,31953,73,64,0,2,19,9,8.mid,experiment,1
66,147,32680,74,64,0,2,19,9,8.mid,experiment,1
67,148,33117,77,64,0,2,19,9,8.mid,experiment,1
68,150,33703,76,64,0,2,19,9,8.mid,experiment,1
69,152,34280,74,64,0,2,19,9,8.mid,experiment,1
70,154,34849,72,64,0,2,19,9,8.mid,experiment,1
71,156,35396,84,64,0,2,19,9,8.mid,experiment,1
72,158,36163,84,64,0,2,19,9,8.mid,experiment,1
1,19,10244,79,64,0,2,20,5,16.mid,experiment,1
2,20,10473,78,64,0,2,20,5,16.mid,experiment,1
3,23,10911,79,64,0,2,20,5,16.mid,experiment,1
4,25,11170,76,64,0,2,20,5,16.mid,experiment,1
5,27,11432,72,64,0,2,20,5,16.mid,experiment,1
6,28,11503,67,64,0,2,20,5,16.mid,experiment,1
7,30,11772,67,64,0,2,20,5,16.mid,experiment,1
8,32,12052,67,64,0,2,20,5,16.mid,experiment,1
9,35,12760,79,64,0,2,20,5,16.mid,experiment,1
10,37,13014,78,64,0,2,20,5,16.mid,experiment,1
11,39,13343,79,64,0,2,20,5,16.mid,experiment,1
12,41,13587,76,64,0,2,20,5,16.mid,experiment,1
13,43,13942,72,64,0,2,20,5,16.mid,experiment,1
14,45,14256,76,64,0,2,20,5,16.mid,experiment,1
15,47,14449,79,64,0,2,20,5,16.mid,experiment,1
16,49,14890,84,64,0,2,20,5,16.mid,experiment,1
17,51,15083,83,64,0,2,20,5,16.mid,experiment,1
18,52,15100,81,64,0,2,20,5,16.mid,experiment,1
19,54,15378,81,64,0,2,20,5,16.mid,experiment,1
20,56,15670,81,64,0,2,20,5,16.mid,experiment,1
21,59,16290,83,64,0,2,20,5,16.mid,experiment,1
22,61,16532,81,64,0,2,20,5,16.mid,experiment,1
23,63,16899,84,64,0,2,20,5,16.mid,experiment,1
24,65,17147,81,64,0,2,20,5,16.mid,experiment,1
25,67,17411,78,64,0,2,20,5,16.mid,experiment,1
26,68,17523,79,64,0,2,20,5,16.mid,experiment,1
27,70,17996,79,64,0,2,20,5,16.mid,experiment,1
28,72,18841,79,64,0,2,20,5,16.mid,experiment,1
29,74,19734,77,64,0,2,20,5,16.mid,experiment,1
30,76,20045,77,64,0,2,20,5,16.mid,experiment,1
31,78,20357,76,64,0,2,20,5,16.mid,experiment,1
32,80,20642,76,64,0,2,20,5,16.mid,experiment,1
33,82,21256,74,64,0,2,20,5,16.mid,experiment,1
34,84,22774,79,64,0,2,20,5,16.mid,experiment,1
35,87,23413,77,64,0,2,20,5,16.mid,experiment,1
36,88,23448,76,64,0,2,20,5,16.mid,experiment,1
37,90,23770,76,64,0,2,20,5,16.mid,experiment,1
38,92,24059,76,64,0,2,20,5,16.mid,experiment,1
39,94,24336,76,64,0,2,20,5,16.mid,experiment,1
40,97,25079,81,64,0,2,20,5,16.mid,experiment,1
41,99,25294,77,64,0,2,20,5,16.mid,experiment,1
42,101,25513,76,64,0,2,20,5,16.mid,experiment,1
43,103,25870,74,64,0,2,20,5,16.mid,experiment,1
44,105,26122,76,64,0,2,20,5,16.mid,experiment,1
45,107,26511,79,64,0,2,20,5,16.mid,experiment,1
46,109,26660,74,64,0,2,20,5,16.mid,experiment,1
47,111,26988,71,64,0,2,20,5,16.mid,experiment,1
48,112,27006,72,64,0,2,20,5,16.mid,experiment,1
49,114,27290,72,64,0,2,20,5,16.mid,experiment,1
50,116,27585,74,64,0,2,20,5,16.mid,experiment,1
51,118,27879,74,64,0,2,20,5,16.mid,experiment,1
52,120,28487,76,64,0,2,20,5,16.mid,experiment,1
53,122,29504,65,64,0,2,20,5,16.mid,experiment,1
54,124,29797,65,64,0,2,20,5,16.mid,experiment,1
55,126,30103,64,64,0,2,20,5,16.mid,experiment,1
56,128,30397,64,64,0,2,20,5,16.mid,experiment,1
57,130,31091,62,64,0,2,20,5,16.mid,experiment,1
58,132,32036,67,64,0,2,20,5,16.mid,experiment,1
59,134,32348,67,64,0,2,20,5,16.mid,experiment,1
60,136,32900,71,64,0,2,20,5,16.mid,experiment,1
61,136,,71,,0,2,20,5,16.mid,experiment,1
62,138,33242,72,64,0,2,20,5,16.mid,experiment,1
63,140,33480,72,64,0,2,20,5,16.mid,experiment,1
64,142,33728,73,64,0,2,20,5,16.mid,experiment,1
65,144,34033,73,64,0,2,20,5,16.mid,experiment,1
66,147,35003,74,64,0,2,20,5,16.mid,experiment,1
67,149,35556,77,64,0,2,20,5,16.mid,experiment,1
68,151,36148,76,64,0,2,20,5,16.mid,experiment,1
69,152,36662,74,64,0,2,20,5,16.mid,experiment,1
70,155,37302,72,64,0,2,20,5,16.mid,experiment,1
71,156,37461,84,64,0,2,20,5,16.mid,experiment,1
72,158,38323,84,64,0,2,20,5,16.mid,experiment,1
1,19,8139,79,64,0,2,21,3,8.mid,experiment,1
2,21,8405,78,64,0,2,21,3,8.mid,experiment,1
3,22,8607,79,64,0,2,21,3,8.mid,experiment,1
4,24,8923,76,64,0,2,21,3,8.mid,experiment,1
5,26,9125,72,64,0,2,21,3,8.mid,experiment,1
6,28,9311,67,64,0,2,21,3,8.mid,experiment,1
7,30,9577,67,64,0,2,21,3,8.mid,experiment,1
8,32,9873,67,64,0,2,21,3,8.mid,experiment,1
9,35,10409,79,64,0,2,21,3,8.mid,experiment,1
10,37,10678,78,64,0,2,21,3,8.mid,experiment,1
11,39,10914,79,64,0,2,21,3,8.mid,experiment,1
12,40,11199,76,64,0,2,21,3,8.mid,experiment,1
13,43,11501,72,64,0,2,21,3,8.mid,experiment,1
14,45,11773,76,64,0,2,21,3,8.mid,experiment,1
15,46,11971,79,64,0,2,21,3,8.mid,experiment,1
16,49,12321,84,64,0,2,21,3,8.mid,experiment,1
17,50,12537,83,64,0,2,21,3,8.mid,experiment,1
18,52,12614,81,64,0,2,21,3,8.mid,experiment,1
19,54,12889,81,64,0,2,21,3,8.mid,experiment,1
20,56,13179,81,64,0,2,21,3,8.mid,experiment,1
21,59,13710,83,64,0,2,21,3,8.mid,experiment,1
22,60,13959,81,64,0,2,21,3,8.mid,experiment,1
23,63,14241,84,64,0,2,21,3,8.mid,experiment,1
24,65,14535,81,64,0,2,21,3,8.mid,experiment,1
25,67,14796,78,64,0,2,21,3,8.mid,experiment,1
26,68,14889,79,64,0,2,21,3,8.mid,experiment,1
27,70,15375,79,64,0,2,21,3,8.mid,experiment,1
28,72,16257,79,64,0,2,21,3,8.mid,experiment,1
29,74,16895,77,64,0,2,21,3,8.mid,experiment,1
30,76,17347,77,64,0,2,21,3,8.mid,experiment,1
31,78,17437,76,64,0,2,21,3,8.mid,experiment,1
32,80,17725,76,64,0,2,21,3,8.mid,experiment,1
33,82,18551,74,64,0,2,21,3,8.mid,experiment,1
34,84,19343,79,64,0,2,21,3,8.mid,experiment,1
35,86,19963,77,64,0,2,21,3,8.mid,experiment,1
36,88,20277,76,64,0,2,21,3,8.mid,experiment,1
37,90,20525,76,64,0,2,21,3,8.mid,experiment,1
38,92,20782,76,64,0,2,21,3,8.mid,experiment,1
39,94,21049,76,64,0,2,21,3,8.mid,experiment,1
40,97,21558,81,64,0,2,21,3,8.mid,experiment,1
41,98,21816,77,64,0,2,21,3,8.mid,experiment,1
42,100,22067,76,64,0,2,21,3,8.mid,experiment,1
43,103,22368,74,64,0,2,21,3,8.mid,experiment,1
44,105,22647,76,64,0,2,21,3,8.mid,experiment,1
45,107,22926,79,64,0,2,21,3,8.mid,experiment,1
46,108,23147,74,64,0,2,21,3,8.mid,experiment,1
47,110,23419,71,64,0,2,21,3,8.mid,experiment,1
48,112,23474,72,64,0,2,21,3,8.mid,experiment,1
49,114,23955,72,64,0,2,21,3,8.mid,experiment,1
50,116,24305,74,64,0,2,21,3,8.mid,experiment,1
51,116,,74,,0,2,21,3,8.mid,experiment,1
52,118,25157,76,64,0,2,21,3,8.mid,experiment,1
53,120,25979,65,64,0,2,21,3,8.mid,experiment,1
54,122,26421,65,64,0,2,21,3,8.mid,experiment,1
55,124,26537,64,64,0,2,21,3,8.mid,experiment,1
56,126,26811,64,64,0,2,21,3,8.mid,experiment,1
57,128,27604,62,64,0,2,21,3,8.mid,experiment,1
58,130,28157,67,64,0,2,21,3,8.mid,experiment,1
59,132,28627,67,64,0,2,21,3,8.mid,experiment,1
60,134,28697,71,64,0,2,21,3,8.mid,experiment,1
61,136,29027,71,64,0,2,21,3,8.mid,experiment,1
62,138,29241,72,64,0,2,21,3,8.mid,experiment,1
63,140,29599,72,64,0,2,21,3,8.mid,experiment,1
64,142,29803,73,64,0,2,21,3,8.mid,experiment,1
65,144,30087,73,64,0,2,21,3,8.mid,experiment,1
66,146,30637,74,64,0,2,21,3,8.mid,experiment,1
67,148,31205,77,64,0,2,21,3,8.mid,experiment,1
68,150,31769,76,64,0,2,21,3,8.mid,experiment,1
69,152,32291,74,64,0,2,21,3,8.mid,experiment,1
70,154,32897,72,64,0,2,21,3,8.mid,experiment,1
71,156,33431,84,64,0,2,21,3,8.mid,experiment,1
72,158,34699,84,64,0,2,21,3,8.mid,experiment,1
1,19,8157,79,64,0,2,21,5,7.mid,experiment,1
2,21,8430,78,64,0,2,21,5,7.mid,experiment,1
3,22,8681,79,64,0,2,21,5,7.mid,experiment,1
4,24,8981,76,64,0,2,21,5,7.mid,experiment,1
5,26,9095,72,64,0,2,21,5,7.mid,experiment,1
6,28,9323,67,64,0,2,21,5,7.mid,experiment,1
7,30,9612,67,64,0,2,21,5,7.mid,experiment,1
8,32,9866,67,64,0,2,21,5,7.mid,experiment,1
9,35,10480,79,64,0,2,21,5,7.mid,experiment,1
10,37,10743,78,64,0,2,21,5,7.mid,experiment,1
11,39,11007,79,64,0,2,21,5,7.mid,experiment,1
12,40,11282,76,64,0,2,21,5,7.mid,experiment,1
13,43,11629,72,64,0,2,21,5,7.mid,experiment,1
14,45,11895,76,64,0,2,21,5,7.mid,experiment,1
15,46,12121,79,64,0,2,21,5,7.mid,experiment,1
16,48,12418,84,64,0,2,21,5,7.mid,experiment,1
17,50,12579,83,64,0,2,21,5,7.mid,experiment,1
18,52,13005,81,64,0,2,21,5,7.mid,experiment,1
19,54,13284,81,64,0,2,21,5,7.mid,experiment,1
20,54,,81,,0,2,21,5,7.mid,experiment,1
21,57,13837,83,64,0,2,21,5,7.mid,experiment,1
22,58,14097,81,64,0,2,21,5,7.mid,experiment,1
23,60,14368,84,64,0,2,21,5,7.mid,experiment,1
24,62,14662,81,64,0,2,21,5,7.mid,experiment,1
25,64,14903,78,64,0,2,21,5,7.mid,experiment,1
26,66,14984,79,64,0,2,21,5,7.mid,experiment,1
27,68,15600,79,64,0,2,21,5,7.mid,experiment,1
28,70,16479,79,64,0,2,21,5,7.mid,experiment,1
29,72,17069,77,64,0,2,21,5,7.mid,experiment,1
30,74,17369,77,64,0,2,21,5,7.mid,experiment,1
31,76,17670,76,64,0,2,21,5,7.mid,experiment,1
32,78,17947,76,64,0,2,21,5,7.mid,experiment,1
33,80,18799,74,64,0,2,21,5,7.mid,experiment,1
34,82,19726,79,64,0,2,21,5,7.mid,experiment,1
35,84,20204,77,64,0,2,21,5,7.mid,experiment,1
36,86,20483,76,64,0,2,21,5,7.mid,experiment,1
37,88,20776,76,64,0,2,21,5,7.mid,experiment,1
38,90,21042,76,64,0,2,21,5,7.mid,experiment,1
39,92,21314,76,64,0,2,21,5,7.mid,experiment,1
40,95,21829,81,64,0,2,21,5,7.mid,experiment,1
41,96,22048,77,64,0,2,21,5,7.mid,experiment,1
42,99,22339,76,64,0,2,21,5,7.mid,experiment,1
43,101,22651,74,64,0,2,21,5,7.mid,experiment,1
44,102,22879,76,64,0,2,21,5,7.mid,experiment,1
45,104,23190,79,64,0,2,21,5,7.mid,experiment,1
46,106,23420,74,64,0,2,21,5,7.mid,experiment,1
47,108,23560,71,64,0,2,21,5,7.mid,experiment,1
48,110,23778,72,64,0,2,21,5,7.mid,experiment,1
49,112,24057,72,64,0,2,21,5,7.mid,experiment,1
50,114,24343,74,64,0,2,21,5,7.mid,experiment,1
51,116,24598,74,64,0,2,21,5,7.mid,experiment,1
52,118,25466,76,64,0,2,21,5,7.mid,experiment,1
53,120,26103,65,64,0,2,21,5,7.mid,experiment,1
54,122,26413,65,64,0,2,21,5,7.mid,experiment,1
55,124,26716,64,64,0,2,21,5,7.mid,experiment,1
56,126,26979,64,64,0,2,21,5,7.mid,experiment,1
57,128,27799,62,64,0,2,21,5,7.mid,experiment,1
58,130,28354,67,64,0,2,21,5,7.mid,experiment,1
59,132,28648,67,64,0,2,21,5,7.mid,experiment,1
60,134,28926,71,64,0,2,21,5,7.mid,experiment,1
61,136,29236,71,64,0,2,21,5,7.mid,experiment,1
62,138,29510,72,64,0,2,21,5,7.mid,experiment,1
63,140,29796,72,64,0,2,21,5,7.mid,experiment,1
64,142,30095,73,64,0,2,21,5,7.mid,experiment,1
65,144,30397,73,64,0,2,21,5,7.mid,experiment,1
66,146,30959,74,64,0,2,21,5,7.mid,experiment,1
67,148,31511,77,64,0,2,21,5,7.mid,experiment,1
68,150,32075,76,64,0,2,21,5,7.mid,experiment,1
69,152,32636,74,64,0,2,21,5,7.mid,experiment,1
70,154,33178,72,64,0,2,21,5,7.mid,experiment,1
71,156,33766,84,64,0,2,21,5,7.mid,experiment,1
72,158,35007,84,64,0,2,21,5,7.mid,experiment,1
1,19,8156,79,64,0,2,21,6,10.mid,experiment,1
2,21,8438,78,64,0,2,21,6,10.mid,experiment,1
3,23,8664,79,64,0,2,21,6,10.mid,experiment,1
4,24,8967,76,64,0,2,21,6,10.mid,experiment,1
5,26,9084,72,64,0,2,21,6,10.mid,experiment,1
6,28,9333,67,64,0,2,21,6,10.mid,experiment,1
7,30,9631,67,64,0,2,21,6,10.mid,experiment,1
8,32,9883,67,64,0,2,21,6,10.mid,experiment,1
9,35,10405,79,64,0,2,21,6,10.mid,experiment,1
10,37,10713,78,64,0,2,21,6,10.mid,experiment,1
11,38,10948,79,64,0,2,21,6,10.mid,experiment,1
12,40,11262,76,64,0,2,21,6,10.mid,experiment,1
13,43,11612,72,64,0,2,21,6,10.mid,experiment,1
14,45,11890,76,64,0,2,21,6,10.mid,experiment,1
15,46,12117,79,64,0,2,21,6,10.mid,experiment,1
16,48,12411,84,64,0,2,21,6,10.mid,experiment,1
17,50,12542,83,64,0,2,21,6,10.mid,experiment,1
18,52,12731,81,64,0,2,21,6,10.mid,experiment,1
19,54,13288,81,64,0,2,21,6,10.mid,experiment,1
20,54,,81,,0,2,21,6,10.mid,experiment,1
21,56,13830,83,64,0,2,21,6,10.mid,experiment,1
22,58,14110,81,64,0,2,21,6,10.mid,experiment,1
23,60,14392,84,64,0,2,21,6,10.mid,experiment,1
24,63,14694,81,64,0,2,21,6,10.mid,experiment,1
25,65,14992,78,64,0,2,21,6,10.mid,experiment,1
26,66,15135,79,64,0,2,21,6,10.mid,experiment,1
27,68,15655,79,64,0,2,21,6,10.mid,experiment,1
28,70,16540,79,64,0,2,21,6,10.mid,experiment,1
29,72,17139,77,64,0,2,21,6,10.mid,experiment,1
30,74,17410,77,64,0,2,21,6,10.mid,experiment,1
31,76,17711,76,64,0,2,21,6,10.mid,experiment,1
32,78,17971,76,64,0,2,21,6,10.mid,experiment,1
33,80,18904,74,64,0,2,21,6,10.mid,experiment,1
34,82,19801,79,64,0,2,21,6,10.mid,experiment,1
35,84,20331,77,64,0,2,21,6,10.mid,experiment,1
36,86,20665,76,64,0,2,21,6,10.mid,experiment,1
37,88,20936,76,64,0,2,21,6,10.mid,experiment,1
38,90,21206,76,64,0,2,21,6,10.mid,experiment,1
39,92,21481,76,64,0,2,21,6,10.mid,experiment,1
40,95,22071,81,64,0,2,21,6,10.mid,experiment,1
41,97,22341,77,64,0,2,21,6,10.mid,experiment,1
42,98,22586,76,64,0,2,21,6,10.mid,experiment,1
43,101,22878,74,64,0,2,21,6,10.mid,experiment,1
44,103,23132,76,64,0,2,21,6,10.mid,experiment,1
45,105,23434,79,64,0,2,21,6,10.mid,experiment,1
46,106,23658,74,64,0,2,21,6,10.mid,experiment,1
47,108,23942,71,64,0,2,21,6,10.mid,experiment,1
48,110,24006,72,64,0,2,21,6,10.mid,experiment,1
49,112,24294,72,64,0,2,21,6,10.mid,experiment,1
50,114,24548,74,64,0,2,21,6,10.mid,experiment,1
51,116,24821,74,64,0,2,21,6,10.mid,experiment,1
52,118,25741,76,64,0,2,21,6,10.mid,experiment,1
53,120,26345,65,64,0,2,21,6,10.mid,experiment,1
54,122,26639,65,64,0,2,21,6,10.mid,experiment,1
55,124,27172,64,64,0,2,21,6,10.mid,experiment,1
56,124,,64,,0,2,21,6,10.mid,experiment,1
57,126,28029,62,64,0,2,21,6,10.mid,experiment,1
58,128,28565,67,64,0,2,21,6,10.mid,experiment,1
59,130,28872,67,64,0,2,21,6,10.mid,experiment,1
60,132,29130,71,64,0,2,21,6,10.mid,experiment,1
61,134,29403,71,64,0,2,21,6,10.mid,experiment,1
62,136,29724,72,64,0,2,21,6,10.mid,experiment,1
63,138,30023,72,64,0,2,21,6,10.mid,experiment,1
64,140,30316,73,64,0,2,21,6,10.mid,experiment,1
65,142,30590,73,64,0,2,21,6,10.mid,experiment,1
66,144,31133,74,64,0,2,21,6,10.mid,experiment,1
67,146,31684,77,64,0,2,21,6,10.mid,experiment,1
68,148,32200,76,64,0,2,21,6,10.mid,experiment,1
69,150,32773,74,64,0,2,21,6,10.mid,experiment,1
70,152,33333,72,64,0,2,21,6,10.mid,experiment,1
71,154,33976,84,64,0,2,21,6,10.mid,experiment,1
72,156,35003,84,64,0,2,21,6,10.mid,experiment,1
1,19,8202,79,64,0,2,21,7,16.mid,experiment,1
2,21,8430,78,64,0,2,21,7,16.mid,experiment,1
3,22,8673,79,64,0,2,21,7,16.mid,experiment,1
4,24,8966,76,64,0,2,21,7,16.mid,experiment,1
5,26,9118,72,64,0,2,21,7,16.mid,experiment,1
6,28,9333,67,64,0,2,21,7,16.mid,experiment,1
7,30,9599,67,64,0,2,21,7,16.mid,experiment,1
8,32,9902,67,64,0,2,21,7,16.mid,experiment,1
9,35,10489,79,64,0,2,21,7,16.mid,experiment,1
10,37,10756,78,64,0,2,21,7,16.mid,experiment,1
11,39,10999,79,64,0,2,21,7,16.mid,experiment,1
12,40,11264,76,64,0,2,21,7,16.mid,experiment,1
13,43,11585,72,64,0,2,21,7,16.mid,experiment,1
14,45,11857,76,64,0,2,21,7,16.mid,experiment,1
15,46,12074,79,64,0,2,21,7,16.mid,experiment,1
16,48,12376,84,64,0,2,21,7,16.mid,experiment,1
17,50,12604,83,64,0,2,21,7,16.mid,experiment,1
18,52,12717,81,64,0,2,21,7,16.mid,experiment,1
19,54,12988,81,64,0,2,21,7,16.mid,experiment,1
20,56,13264,81,64,0,2,21,7,16.mid,experiment,1
21,59,13844,83,64,0,2,21,7,16.mid,experiment,1
22,60,14082,81,64,0,2,21,7,16.mid,experiment,1
23,62,14336,84,64,0,2,21,7,16.mid,experiment,1
24,65,14620,81,64,0,2,21,7,16.mid,experiment,1
25,67,14880,78,64,0,2,21,7,16.mid,experiment,1
26,68,15017,79,64,0,2,21,7,16.mid,experiment,1
27,70,15605,79,64,0,2,21,7,16.mid,experiment,1
28,72,16448,79,64,0,2,21,7,16.mid,experiment,1
29,74,17006,77,64,0,2,21,7,16.mid,experiment,1
30,76,17300,77,64,0,2,21,7,16.mid,experiment,1
31,78,17585,76,64,0,2,21,7,16.mid,experiment,1
32,80,17855,76,64,0,2,21,7,16.mid,experiment,1
33,82,18649,74,64,0,2,21,7,16.mid,experiment,1
34,84,19614,79,64,0,2,21,7,16.mid,experiment,1
35,86,20124,77,64,0,2,21,7,16.mid,experiment,1
36,88,20418,76,64,0,2,21,7,16.mid,experiment,1
37,90,20674,76,64,0,2,21,7,16.mid,experiment,1
38,92,20953,76,64,0,2,21,7,16.mid,experiment,1
39,94,21197,76,64,0,2,21,7,16.mid,experiment,1
40,97,21803,81,64,0,2,21,7,16.mid,experiment,1
41,99,22054,77,64,0,2,21,7,16.mid,experiment,1
42,101,22305,76,64,0,2,21,7,16.mid,experiment,1
43,103,22596,74,64,0,2,21,7,16.mid,experiment,1
44,104,22829,76,64,0,2,21,7,16.mid,experiment,1
45,106,23091,79,64,0,2,21,7,16.mid,experiment,1
46,108,23335,74,64,0,2,21,7,16.mid,experiment,1
47,110,23490,71,64,0,2,21,7,16.mid,experiment,1
48,112,23663,72,64,0,2,21,7,16.mid,experiment,1
49,114,23947,72,64,0,2,21,7,16.mid,experiment,1
50,116,24229,74,64,0,2,21,7,16.mid,experiment,1
51,116,,74,,0,2,21,7,16.mid,experiment,1
52,118,25356,76,64,0,2,21,7,16.mid,experiment,1
53,120,25970,65,64,0,2,21,7,16.mid,experiment,1
54,122,26275,65,64,0,2,21,7,16.mid,experiment,1
55,124,26545,64,64,0,2,21,7,16.mid,experiment,1
56,126,26787,64,64,0,2,21,7,16.mid,experiment,1
57,128,27606,62,64,0,2,21,7,16.mid,experiment,1
58,130,28178,67,64,0,2,21,7,16.mid,experiment,1
59,132,28456,67,64,0,2,21,7,16.mid,experiment,1
60,134,28713,71,64,0,2,21,7,16.mid,experiment,1
61,136,29000,71,64,0,2,21,7,16.mid,experiment,1
62,138,29278,72,64,0,2,21,7,16.mid,experiment,1
63,140,29564,72,64,0,2,21,7,16.mid,experiment,1
64,142,29846,73,64,0,2,21,7,16.mid,experiment,1
65,144,30117,73,64,0,2,21,7,16.mid,experiment,1
66,146,30738,74,64,0,2,21,7,16.mid,experiment,1
67,148,31259,77,64,0,2,21,7,16.mid,experiment,1
68,150,31835,76,64,0,2,21,7,16.mid,experiment,1
69,152,32353,74,64,0,2,21,7,16.mid,experiment,1
70,154,32936,72,64,0,2,21,7,16.mid,experiment,1
71,156,33526,84,64,0,2,21,7,16.mid,experiment,1
72,158,34824,84,64,0,2,21,7,16.mid,experiment,1
1,19,8152,79,64,0,2,21,8,3.mid,experiment,1
2,21,8416,78,64,0,2,21,8,3.mid,experiment,1
3,22,8623,79,64,0,2,21,8,3.mid,experiment,1
4,24,8918,76,64,0,2,21,8,3.mid,experiment,1
5,26,9048,72,64,0,2,21,8,3.mid,experiment,1
6,28,9285,67,64,0,2,21,8,3.mid,experiment,1
7,30,9576,67,64,0,2,21,8,3.mid,experiment,1
8,32,9834,67,64,0,2,21,8,3.mid,experiment,1
9,35,10382,79,64,0,2,21,8,3.mid,experiment,1
10,37,10653,78,64,0,2,21,8,3.mid,experiment,1
11,39,10942,79,64,0,2,21,8,3.mid,experiment,1
12,40,11185,76,64,0,2,21,8,3.mid,experiment,1
13,43,11496,72,64,0,2,21,8,3.mid,experiment,1
14,45,11767,76,64,0,2,21,8,3.mid,experiment,1
15,46,11999,79,64,0,2,21,8,3.mid,experiment,1
16,48,12282,84,64,0,2,21,8,3.mid,experiment,1
17,50,12550,83,64,0,2,21,8,3.mid,experiment,1
18,52,12914,81,64,0,2,21,8,3.mid,experiment,1
19,54,13178,81,64,0,2,21,8,3.mid,experiment,1
20,54,,81,,0,2,21,8,3.mid,experiment,1
21,56,13708,83,64,0,2,21,8,3.mid,experiment,1
22,58,13983,81,64,0,2,21,8,3.mid,experiment,1
23,60,14230,84,64,0,2,21,8,3.mid,experiment,1
24,62,14547,81,64,0,2,21,8,3.mid,experiment,1
25,64,14812,78,64,0,2,21,8,3.mid,experiment,1
26,66,14891,79,64,0,2,21,8,3.mid,experiment,1
27,68,15501,79,64,0,2,21,8,3.mid,experiment,1
28,70,16322,79,64,0,2,21,8,3.mid,experiment,1
29,72,17191,77,64,0,2,21,8,3.mid,experiment,1
30,74,17494,77,64,0,2,21,8,3.mid,experiment,1
31,76,17774,76,64,0,2,21,8,3.mid,experiment,1
32,78,18031,76,64,0,2,21,8,3.mid,experiment,1
33,80,18869,74,64,0,2,21,8,3.mid,experiment,1
34,82,19694,79,64,0,2,21,8,3.mid,experiment,1
35,84,20258,77,64,0,2,21,8,3.mid,experiment,1
36,86,20555,76,64,0,2,21,8,3.mid,experiment,1
37,88,20840,76,64,0,2,21,8,3.mid,experiment,1
38,90,21133,76,64,0,2,21,8,3.mid,experiment,1
39,92,21394,76,64,0,2,21,8,3.mid,experiment,1
40,94,21920,81,64,0,2,21,8,3.mid,experiment,1
41,97,22214,77,64,0,2,21,8,3.mid,experiment,1
42,98,22464,76,64,0,2,21,8,3.mid,experiment,1
43,101,22730,74,64,0,2,21,8,3.mid,experiment,1
44,102,22979,76,64,0,2,21,8,3.mid,experiment,1
45,105,23274,79,64,0,2,21,8,3.mid,experiment,1
46,106,23515,74,64,0,2,21,8,3.mid,experiment,1
47,108,23823,71,64,0,2,21,8,3.mid,experiment,1
48,110,23878,72,64,0,2,21,8,3.mid,experiment,1
49,112,24150,72,64,0,2,21,8,3.mid,experiment,1
50,114,24424,74,64,0,2,21,8,3.mid,experiment,1
51,116,24698,74,64,0,2,21,8,3.mid,experiment,1
52,118,25480,76,64,0,2,21,8,3.mid,experiment,1
53,120,26064,65,64,0,2,21,8,3.mid,experiment,1
54,122,26373,65,64,0,2,21,8,3.mid,experiment,1
55,124,26688,64,64,0,2,21,8,3.mid,experiment,1
56,126,26930,64,64,0,2,21,8,3.mid,experiment,1
57,128,27735,62,64,0,2,21,8,3.mid,experiment,1
58,130,28292,67,64,0,2,21,8,3.mid,experiment,1
59,132,28576,67,64,0,2,21,8,3.mid,experiment,1
60,134,28887,71,64,0,2,21,8,3.mid,experiment,1
61,136,29180,71,64,0,2,21,8,3.mid,experiment,1
62,138,29439,72,64,0,2,21,8,3.mid,experiment,1
63,140,29740,72,64,0,2,21,8,3.mid,experiment,1
64,142,30010,73,64,0,2,21,8,3.mid,experiment,1
65,144,30274,73,64,0,2,21,8,3.mid,experiment,1
66,146,30884,74,64,0,2,21,8,3.mid,experiment,1
67,148,31392,77,64,0,2,21,8,3.mid,experiment,1
68,150,31973,76,64,0,2,21,8,3.mid,experiment,1
69,152,32515,74,64,0,2,21,8,3.mid,experiment,1
70,154,33059,72,64,0,2,21,8,3.mid,experiment,1
71,156,33715,84,64,0,2,21,8,3.mid,experiment,1
72,158,35091,84,64,0,2,21,8,3.mid,experiment,1
1,19,8169,79,64,0,2,21,9,14.mid,experiment,1
2,21,8437,78,64,0,2,21,9,14.mid,experiment,1
3,22,8660,79,64,0,2,21,9,14.mid,experiment,1
4,24,8970,76,64,0,2,21,9,14.mid,experiment,1
5,26,9045,72,64,0,2,21,9,14.mid,experiment,1
6,28,9343,67,64,0,2,21,9,14.mid,experiment,1
7,30,9627,67,64,0,2,21,9,14.mid,experiment,1
8,32,9893,67,64,0,2,21,9,14.mid,experiment,1
9,35,10441,79,64,0,2,21,9,14.mid,experiment,1
10,37,10710,78,64,0,2,21,9,14.mid,experiment,1
11,39,10977,79,64,0,2,21,9,14.mid,experiment,1
12,40,11249,76,64,0,2,21,9,14.mid,experiment,1
13,43,11544,72,64,0,2,21,9,14.mid,experiment,1
14,45,11827,76,64,0,2,21,9,14.mid,experiment,1
15,46,12053,79,64,0,2,21,9,14.mid,experiment,1
16,48,12390,84,64,0,2,21,9,14.mid,experiment,1
17,50,12639,83,64,0,2,21,9,14.mid,experiment,1
18,52,12731,81,64,0,2,21,9,14.mid,experiment,1
19,54,12999,81,64,0,2,21,9,14.mid,experiment,1
20,56,13289,81,64,0,2,21,9,14.mid,experiment,1
21,59,13853,83,64,0,2,21,9,14.mid,experiment,1
22,60,14064,81,64,0,2,21,9,14.mid,experiment,1
23,62,14298,84,64,0,2,21,9,14.mid,experiment,1
24,65,14651,81,64,0,2,21,9,14.mid,experiment,1
25,67,14958,78,64,0,2,21,9,14.mid,experiment,1
26,68,15015,79,64,0,2,21,9,14.mid,experiment,1
27,70,15607,79,64,0,2,21,9,14.mid,experiment,1
28,72,16441,79,64,0,2,21,9,14.mid,experiment,1
29,74,17008,77,64,0,2,21,9,14.mid,experiment,1
30,76,17296,77,64,0,2,21,9,14.mid,experiment,1
31,78,17577,76,64,0,2,21,9,14.mid,experiment,1
32,78,,76,,0,2,21,9,14.mid,experiment,1
33,80,18725,74,64,0,2,21,9,14.mid,experiment,1
34,82,19623,79,64,0,2,21,9,14.mid,experiment,1
35,84,20170,77,64,0,2,21,9,14.mid,experiment,1
36,86,20447,76,64,0,2,21,9,14.mid,experiment,1
37,88,20707,76,64,0,2,21,9,14.mid,experiment,1
38,90,20968,76,64,0,2,21,9,14.mid,experiment,1
39,92,21229,76,64,0,2,21,9,14.mid,experiment,1
40,95,21807,81,64,0,2,21,9,14.mid,experiment,1
41,97,22101,77,64,0,2,21,9,14.mid,experiment,1
42,98,22333,76,64,0,2,21,9,14.mid,experiment,1
43,101,22631,74,64,0,2,21,9,14.mid,experiment,1
44,102,22857,76,64,0,2,21,9,14.mid,experiment,1
45,105,23145,79,64,0,2,21,9,14.mid,experiment,1
46,106,23348,74,64,0,2,21,9,14.mid,experiment,1
47,108,23578,71,64,0,2,21,9,14.mid,experiment,1
48,110,23693,72,64,0,2,21,9,14.mid,experiment,1
49,112,23960,72,64,0,2,21,9,14.mid,experiment,1
50,114,24235,74,64,0,2,21,9,14.mid,experiment,1
51,116,24494,74,64,0,2,21,9,14.mid,experiment,1
52,118,25369,76,64,0,2,21,9,14.mid,experiment,1
53,120,25933,65,64,0,2,21,9,14.mid,experiment,1
54,120,,65,,0,2,21,9,14.mid,experiment,1
55,122,26549,64,64,0,2,21,9,14.mid,experiment,1
56,124,26815,64,64,0,2,21,9,14.mid,experiment,1
57,126,27592,62,64,0,2,21,9,14.mid,experiment,1
58,128,28121,67,64,0,2,21,9,14.mid,experiment,1
59,130,28421,67,64,0,2,21,9,14.mid,experiment,1
60,132,28701,71,64,0,2,21,9,14.mid,experiment,1
61,134,28963,71,64,0,2,21,9,14.mid,experiment,1
62,136,29258,72,64,0,2,21,9,14.mid,experiment,1
63,138,29539,72,64,0,2,21,9,14.mid,experiment,1
64,140,29804,73,64,0,2,21,9,14.mid,experiment,1
65,142,30077,73,64,0,2,21,9,14.mid,experiment,1
66,144,30718,74,64,0,2,21,9,14.mid,experiment,1
67,146,31229,77,64,0,2,21,9,14.mid,experiment,1
68,148,31704,76,64,0,2,21,9,14.mid,experiment,1
69,150,32241,74,64,0,2,21,9,14.mid,experiment,1
70,152,32772,72,64,0,2,21,9,14.mid,experiment,1
71,154,33424,84,64,0,2,21,9,14.mid,experiment,1
72,156,34924,84,64,0,2,21,9,14.mid,experiment,1
1,19,8162,79,64,0,2,21,10,9.mid,experiment,1
2,21,8465,78,64,0,2,21,10,9.mid,experiment,1
3,22,8677,79,64,0,2,21,10,9.mid,experiment,1
4,25,9000,76,64,0,2,21,10,9.mid,experiment,1
5,26,9168,72,64,0,2,21,10,9.mid,experiment,1
6,28,9314,67,64,0,2,21,10,9.mid,experiment,1
7,30,9608,67,64,0,2,21,10,9.mid,experiment,1
8,32,9885,67,64,0,2,21,10,9.mid,experiment,1
9,35,10434,79,64,0,2,21,10,9.mid,experiment,1
10,37,10752,78,64,0,2,21,10,9.mid,experiment,1
11,39,10971,79,64,0,2,21,10,9.mid,experiment,1
12,40,11256,76,64,0,2,21,10,9.mid,experiment,1
13,43,11552,72,64,0,2,21,10,9.mid,experiment,1
14,45,11834,76,64,0,2,21,10,9.mid,experiment,1
15,46,12049,79,64,0,2,21,10,9.mid,experiment,1
16,48,12369,84,64,0,2,21,10,9.mid,experiment,1
17,50,12604,83,64,0,2,21,10,9.mid,experiment,1
18,52,12742,81,64,0,2,21,10,9.mid,experiment,1
19,54,12997,81,64,0,2,21,10,9.mid,experiment,1
20,56,13262,81,64,0,2,21,10,9.mid,experiment,1
21,59,13850,83,64,0,2,21,10,9.mid,experiment,1
22,60,14068,81,64,0,2,21,10,9.mid,experiment,1
23,62,14336,84,64,0,2,21,10,9.mid,experiment,1
24,65,14631,81,64,0,2,21,10,9.mid,experiment,1
25,67,14908,78,64,0,2,21,10,9.mid,experiment,1
26,68,14946,79,64,0,2,21,10,9.mid,experiment,1
27,70,15607,79,64,0,2,21,10,9.mid,experiment,1
28,72,16488,79,64,0,2,21,10,9.mid,experiment,1
29,74,17000,77,64,0,2,21,10,9.mid,experiment,1
30,76,17287,77,64,0,2,21,10,9.mid,experiment,1
31,78,17817,76,64,0,2,21,10,9.mid,experiment,1
32,78,,76,,0,2,21,10,9.mid,experiment,1
33,80,18695,74,64,0,2,21,10,9.mid,experiment,1
34,82,19638,79,64,0,2,21,10,9.mid,experiment,1
35,84,20179,77,64,0,2,21,10,9.mid,experiment,1
36,86,20447,76,64,0,2,21,10,9.mid,experiment,1
37,88,20717,76,64,0,2,21,10,9.mid,experiment,1
38,90,20978,76,64,0,2,21,10,9.mid,experiment,1
39,92,21250,76,64,0,2,21,10,9.mid,experiment,1
40,95,21816,81,64,0,2,21,10,9.mid,experiment,1
41,96,22051,77,64,0,2,21,10,9.mid,experiment,1
42,99,22333,76,64,0,2,21,10,9.mid,experiment,1
43,101,22615,74,64,0,2,21,10,9.mid,experiment,1
44,102,22834,76,64,0,2,21,10,9.mid,experiment,1
45,104,23137,79,64,0,2,21,10,9.mid,experiment,1
46,106,23355,74,64,0,2,21,10,9.mid,experiment,1
47,108,23516,71,64,0,2,21,10,9.mid,experiment,1
48,110,23719,72,64,0,2,21,10,9.mid,experiment,1
49,112,23990,72,64,0,2,21,10,9.mid,experiment,1
50,114,24285,74,64,0,2,21,10,9.mid,experiment,1
51,116,24556,74,64,0,2,21,10,9.mid,experiment,1
52,118,25406,76,64,0,2,21,10,9.mid,experiment,1
53,120,25982,65,64,0,2,21,10,9.mid,experiment,1
54,122,26267,65,64,0,2,21,10,9.mid,experiment,1
55,124,26556,64,64,0,2,21,10,9.mid,experiment,1
56,126,26823,64,64,0,2,21,10,9.mid,experiment,1
57,128,27636,62,64,0,2,21,10,9.mid,experiment,1
58,130,28199,67,64,0,2,21,10,9.mid,experiment,1
59,132,28489,67,64,0,2,21,10,9.mid,experiment,1
60,134,29012,71,64,0,2,21,10,9.mid,experiment,1
61,134,,71,,0,2,21,10,9.mid,experiment,1
62,136,29289,72,64,0,2,21,10,9.mid,experiment,1
63,138,29610,72,64,0,2,21,10,9.mid,experiment,1
64,140,29910,73,64,0,2,21,10,9.mid,experiment,1
65,142,30195,73,64,0,2,21,10,9.mid,experiment,1
66,144,30722,74,64,0,2,21,10,9.mid,experiment,1
67,146,31300,77,64,0,2,21,10,9.mid,experiment,1
68,148,31864,76,64,0,2,21,10,9.mid,experiment,1
69,150,32422,74,64,0,2,21,10,9.mid,experiment,1
70,152,33009,72,64,0,2,21,10,9.mid,experiment,1
71,154,33558,84,64,0,2,21,10,9.mid,experiment,1
72,156,34900,84,64,0,2,21,10,9.mid,experiment,1
1,19,8170,79,64,0,2,21,11,12.mid,experiment,1
2,21,8426,78,64,0,2,21,11,12.mid,experiment,1
3,22,8655,79,64,0,2,21,11,12.mid,experiment,1
4,24,8968,76,64,0,2,21,11,12.mid,experiment,1
5,26,9072,72,64,0,2,21,11,12.mid,experiment,1
6,28,9299,67,64,0,2,21,11,12.mid,experiment,1
7,30,9604,67,64,0,2,21,11,12.mid,experiment,1
8,30,,67,,0,2,21,11,12.mid,experiment,1
9,33,10380,79,64,0,2,21,11,12.mid,experiment,1
10,35,10699,78,64,0,2,21,11,12.mid,experiment,1
11,36,10915,79,64,0,2,21,11,12.mid,experiment,1
12,38,11225,76,64,0,2,21,11,12.mid,experiment,1
13,41,11545,72,64,0,2,21,11,12.mid,experiment,1
14,43,11849,76,64,0,2,21,11,12.mid,experiment,1
15,44,12056,79,64,0,2,21,11,12.mid,experiment,1
16,47,12408,84,64,0,2,21,11,12.mid,experiment,1
17,48,12594,83,64,0,2,21,11,12.mid,experiment,1
18,50,12732,81,64,0,2,21,11,12.mid,experiment,1
19,52,12984,81,64,0,2,21,11,12.mid,experiment,1
20,54,13253,81,64,0,2,21,11,12.mid,experiment,1
21,57,13831,83,64,0,2,21,11,12.mid,experiment,1
22,59,14075,81,64,0,2,21,11,12.mid,experiment,1
23,60,14333,84,64,0,2,21,11,12.mid,experiment,1
24,63,14635,81,64,0,2,21,11,12.mid,experiment,1
25,65,14899,78,64,0,2,21,11,12.mid,experiment,1
26,66,14973,79,64,0,2,21,11,12.mid,experiment,1
27,68,15655,79,64,0,2,21,11,12.mid,experiment,1
28,70,16542,79,64,0,2,21,11,12.mid,experiment,1
29,72,17098,77,64,0,2,21,11,12.mid,experiment,1
30,74,17386,77,64,0,2,21,11,12.mid,experiment,1
31,76,17966,76,64,0,2,21,11,12.mid,experiment,1
32,76,,76,,0,2,21,11,12.mid,experiment,1
33,78,18846,74,64,0,2,21,11,12.mid,experiment,1
34,80,19809,79,64,0,2,21,11,12.mid,experiment,1
35,82,20321,77,64,0,2,21,11,12.mid,experiment,1
36,84,20598,76,64,0,2,21,11,12.mid,experiment,1
37,86,20877,76,64,0,2,21,11,12.mid,experiment,1
38,88,21149,76,64,0,2,21,11,12.mid,experiment,1
39,90,21424,76,64,0,2,21,11,12.mid,experiment,1
40,93,22038,81,64,0,2,21,11,12.mid,experiment,1
41,95,22282,77,64,0,2,21,11,12.mid,experiment,1
42,97,22546,76,64,0,2,21,11,12.mid,experiment,1
43,99,22847,74,64,0,2,21,11,12.mid,experiment,1
44,100,23064,76,64,0,2,21,11,12.mid,experiment,1
45,103,23373,79,64,0,2,21,11,12.mid,experiment,1
46,104,23593,74,64,0,2,21,11,12.mid,experiment,1
47,106,23682,71,64,0,2,21,11,12.mid,experiment,1
48,108,23914,72,64,0,2,21,11,12.mid,experiment,1
49,110,24187,72,64,0,2,21,11,12.mid,experiment,1
50,112,24470,74,64,0,2,21,11,12.mid,experiment,1
51,114,24742,74,64,0,2,21,11,12.mid,experiment,1
52,116,25575,76,64,0,2,21,11,12.mid,experiment,1
53,118,26174,65,64,0,2,21,11,12.mid,experiment,1
54,120,26470,65,64,0,2,21,11,12.mid,experiment,1
55,122,26999,64,64,0,2,21,11,12.mid,experiment,1
56,122,,64,,0,2,21,11,12.mid,experiment,1
57,124,27845,62,64,0,2,21,11,12.mid,experiment,1
58,126,28423,67,64,0,2,21,11,12.mid,experiment,1
59,128,28720,67,64,0,2,21,11,12.mid,experiment,1
60,130,29012,71,64,0,2,21,11,12.mid,experiment,1
61,132,29289,71,64,0,2,21,11,12.mid,experiment,1
62,134,29551,72,64,0,2,21,11,12.mid,experiment,1
63,136,29832,72,64,0,2,21,11,12.mid,experiment,1
64,138,30136,73,64,0,2,21,11,12.mid,experiment,1
65,140,30405,73,64,0,2,21,11,12.mid,experiment,1
66,142,30976,74,64,0,2,21,11,12.mid,experiment,1
67,144,31575,77,64,0,2,21,11,12.mid,experiment,1
68,146,32081,76,64,0,2,21,11,12.mid,experiment,1
69,148,32612,74,64,0,2,21,11,12.mid,experiment,1
70,150,33225,72,64,0,2,21,11,12.mid,experiment,1
71,152,33870,84,64,0,2,21,11,12.mid,experiment,1
72,154,35415,84,64,0,2,21,11,12.mid,experiment,1
1,19,8165,79,64,0,2,21,13,13.mid,experiment,1
2,21,8432,78,64,0,2,21,13,13.mid,experiment,1
3,22,8663,79,64,0,2,21,13,13.mid,experiment,1
4,24,8964,76,64,0,2,21,13,13.mid,experiment,1
5,26,9050,72,64,0,2,21,13,13.mid,experiment,1
6,28,9308,67,64,0,2,21,13,13.mid,experiment,1
7,30,9612,67,64,0,2,21,13,13.mid,experiment,1
8,32,9870,67,64,0,2,21,13,13.mid,experiment,1
9,35,10407,79,64,0,2,21,13,13.mid,experiment,1
10,37,10729,78,64,0,2,21,13,13.mid,experiment,1
11,39,10958,79,64,0,2,21,13,13.mid,experiment,1
12,40,11216,76,64,0,2,21,13,13.mid,experiment,1
13,43,11574,72,64,0,2,21,13,13.mid,experiment,1
14,45,11846,76,64,0,2,21,13,13.mid,experiment,1
15,46,12055,79,64,0,2,21,13,13.mid,experiment,1
16,49,12382,84,64,0,2,21,13,13.mid,experiment,1
17,50,12584,83,64,0,2,21,13,13.mid,experiment,1
18,52,12686,81,64,0,2,21,13,13.mid,experiment,1
19,54,12961,81,64,0,2,21,13,13.mid,experiment,1
20,56,13237,81,64,0,2,21,13,13.mid,experiment,1
21,59,13798,83,64,0,2,21,13,13.mid,experiment,1
22,60,14050,81,64,0,2,21,13,13.mid,experiment,1
23,63,14354,84,64,0,2,21,13,13.mid,experiment,1
24,65,14632,81,64,0,2,21,13,13.mid,experiment,1
25,66,14873,78,64,0,2,21,13,13.mid,experiment,1
26,68,14934,79,64,0,2,21,13,13.mid,experiment,1
27,70,15533,79,64,0,2,21,13,13.mid,experiment,1
28,72,16439,79,64,0,2,21,13,13.mid,experiment,1
29,74,16977,77,64,0,2,21,13,13.mid,experiment,1
30,76,17243,77,64,0,2,21,13,13.mid,experiment,1
31,78,17824,76,64,0,2,21,13,13.mid,experiment,1
32,78,,76,,0,2,21,13,13.mid,experiment,1
33,80,18690,74,64,0,2,21,13,13.mid,experiment,1
34,82,19600,79,64,0,2,21,13,13.mid,experiment,1
35,84,20185,77,64,0,2,21,13,13.mid,experiment,1
36,86,20496,76,64,0,2,21,13,13.mid,experiment,1
37,88,20749,76,64,0,2,21,13,13.mid,experiment,1
38,90,21032,76,64,0,2,21,13,13.mid,experiment,1
39,92,21315,76,64,0,2,21,13,13.mid,experiment,1
40,94,21850,81,64,0,2,21,13,13.mid,experiment,1
41,96,22142,77,64,0,2,21,13,13.mid,experiment,1
42,98,22409,76,64,0,2,21,13,13.mid,experiment,1
43,101,22696,74,64,0,2,21,13,13.mid,experiment,1
44,102,22948,76,64,0,2,21,13,13.mid,experiment,1
45,104,23240,79,64,0,2,21,13,13.mid,experiment,1
46,106,23488,74,64,0,2,21,13,13.mid,experiment,1
47,108,23663,71,64,0,2,21,13,13.mid,experiment,1
48,110,23820,72,64,0,2,21,13,13.mid,experiment,1
49,112,24093,72,64,0,2,21,13,13.mid,experiment,1
50,114,24352,74,64,0,2,21,13,13.mid,experiment,1
51,116,24626,74,64,0,2,21,13,13.mid,experiment,1
52,118,25490,76,64,0,2,21,13,13.mid,experiment,1
53,120,26044,65,64,0,2,21,13,13.mid,experiment,1
54,122,26324,65,64,0,2,21,13,13.mid,experiment,1
55,124,26588,64,64,0,2,21,13,13.mid,experiment,1
56,126,26901,64,64,0,2,21,13,13.mid,experiment,1
57,128,27768,62,64,0,2,21,13,13.mid,experiment,1
58,130,28286,67,64,0,2,21,13,13.mid,experiment,1
59,132,28630,67,64,0,2,21,13,13.mid,experiment,1
60,134,28914,71,64,0,2,21,13,13.mid,experiment,1
61,136,29167,71,64,0,2,21,13,13.mid,experiment,1
62,138,29448,72,64,0,2,21,13,13.mid,experiment,1
63,140,29727,72,64,0,2,21,13,13.mid,experiment,1
64,142,30010,73,64,0,2,21,13,13.mid,experiment,1
65,144,30390,73,64,0,2,21,13,13.mid,experiment,1
66,146,30831,74,64,0,2,21,13,13.mid,experiment,1
67,148,31498,77,64,0,2,21,13,13.mid,experiment,1
68,150,31996,76,64,0,2,21,13,13.mid,experiment,1
69,152,32552,74,64,0,2,21,13,13.mid,experiment,1
70,154,33104,72,64,0,2,21,13,13.mid,experiment,1
71,156,33703,84,64,0,2,21,13,13.mid,experiment,1
72,158,34678,84,64,0,2,21,13,13.mid,experiment,1
1,19,8133,79,64,0,2,21,15,2.mid,experiment,1
2,21,8418,78,64,0,2,21,15,2.mid,experiment,1
3,22,8643,79,64,0,2,21,15,2.mid,experiment,1
4,24,8984,76,64,0,2,21,15,2.mid,experiment,1
5,26,9171,72,64,0,2,21,15,2.mid,experiment,1
6,28,9381,67,64,0,2,21,15,2.mid,experiment,1
7,30,9642,67,64,0,2,21,15,2.mid,experiment,1
8,32,9910,67,64,0,2,21,15,2.mid,experiment,1
9,35,10414,79,64,0,2,21,15,2.mid,experiment,1
10,37,10707,78,64,0,2,21,15,2.mid,experiment,1
11,38,10924,79,64,0,2,21,15,2.mid,experiment,1
12,40,11241,76,64,0,2,21,15,2.mid,experiment,1
13,43,11566,72,64,0,2,21,15,2.mid,experiment,1
14,45,11851,76,64,0,2,21,15,2.mid,experiment,1
15,46,12054,79,64,0,2,21,15,2.mid,experiment,1
16,49,12433,84,64,0,2,21,15,2.mid,experiment,1
17,50,12595,83,64,0,2,21,15,2.mid,experiment,1
18,52,12698,81,64,0,2,21,15,2.mid,experiment,1
19,54,12981,81,64,0,2,21,15,2.mid,experiment,1
20,56,13230,81,64,0,2,21,15,2.mid,experiment,1
21,59,13793,83,64,0,2,21,15,2.mid,experiment,1
22,60,14022,81,64,0,2,21,15,2.mid,experiment,1
23,62,14255,84,64,0,2,21,15,2.mid,experiment,1
24,64,14558,81,64,0,2,21,15,2.mid,experiment,1
25,66,14832,78,64,0,2,21,15,2.mid,experiment,1
26,68,14931,79,64,0,2,21,15,2.mid,experiment,1
27,70,15454,79,64,0,2,21,15,2.mid,experiment,1
28,72,16298,79,64,0,2,21,15,2.mid,experiment,1
29,74,16906,77,64,0,2,21,15,2.mid,experiment,1
30,76,17183,77,64,0,2,21,15,2.mid,experiment,1
31,78,17476,76,64,0,2,21,15,2.mid,experiment,1
32,80,17766,76,64,0,2,21,15,2.mid,experiment,1
33,82,18623,74,64,0,2,21,15,2.mid,experiment,1
34,84,19457,79,64,0,2,21,15,2.mid,experiment,1
35,86,20050,77,64,0,2,21,15,2.mid,experiment,1
36,88,20347,76,64,0,2,21,15,2.mid,experiment,1
37,90,20611,76,64,0,2,21,15,2.mid,experiment,1
38,92,20871,76,64,0,2,21,15,2.mid,experiment,1
39,94,21146,76,64,0,2,21,15,2.mid,experiment,1
40,97,21671,81,64,0,2,21,15,2.mid,experiment,1
41,99,21954,77,64,0,2,21,15,2.mid,experiment,1
42,101,22214,76,64,0,2,21,15,2.mid,experiment,1
43,103,22476,74,64,0,2,21,15,2.mid,experiment,1
44,104,22714,76,64,0,2,21,15,2.mid,experiment,1
45,106,22992,79,64,0,2,21,15,2.mid,experiment,1
46,108,23230,74,64,0,2,21,15,2.mid,experiment,1
47,110,23524,71,64,0,2,21,15,2.mid,experiment,1
48,112,23890,72,64,0,2,21,15,2.mid,experiment,1
49,112,,72,,0,2,21,15,2.mid,experiment,1
50,114,24154,74,64,0,2,21,15,2.mid,experiment,1
51,116,24447,74,64,0,2,21,15,2.mid,experiment,1
52,118,25260,76,64,0,2,21,15,2.mid,experiment,1
53,120,25865,65,64,0,2,21,15,2.mid,experiment,1
54,122,26144,65,64,0,2,21,15,2.mid,experiment,1
55,124,26663,64,64,0,2,21,15,2.mid,experiment,1
56,124,,64,,0,2,21,15,2.mid,experiment,1
57,126,27509,62,64,0,2,21,15,2.mid,experiment,1
58,128,28119,67,64,0,2,21,15,2.mid,experiment,1
59,130,28419,67,64,0,2,21,15,2.mid,experiment,1
60,132,28745,71,64,0,2,21,15,2.mid,experiment,1
61,134,28989,71,64,0,2,21,15,2.mid,experiment,1
62,136,29283,72,64,0,2,21,15,2.mid,experiment,1
63,138,29559,72,64,0,2,21,15,2.mid,experiment,1
64,140,29815,73,64,0,2,21,15,2.mid,experiment,1
65,142,30114,73,64,0,2,21,15,2.mid,experiment,1
66,144,30644,74,64,0,2,21,15,2.mid,experiment,1
67,146,31251,77,64,0,2,21,15,2.mid,experiment,1
68,148,31738,76,64,0,2,21,15,2.mid,experiment,1
69,150,32316,74,64,0,2,21,15,2.mid,experiment,1
70,152,32888,72,64,0,2,21,15,2.mid,experiment,1
71,154,33461,84,64,0,2,21,15,2.mid,experiment,1
72,156,34566,84,64,0,2,21,15,2.mid,experiment,1
