RowNr,NoteNr,TimeStamp,Pitch,Velocity,Key_OnOff,Device,SubNr,TrialNr,Stimuli,Session,Error
1,19,8265,79,64,0,2,2,1,s,pre,0
2,21,8573,78,64,0,2,2,1,s,pre,0
3,23,8788,79,64,0,2,2,1,s,pre,0
4,25,9117,76,64,0,2,2,1,s,pre,0
5,26,9208,72,64,0,2,2,1,s,pre,0
6,28,9454,67,64,0,2,2,1,s,pre,0
7,30,9744,67,64,0,2,2,1,s,pre,0
8,32,10047,67,64,0,2,2,1,s,pre,0
9,35,10646,79,64,0,2,2,1,s,pre,0
10,37,10920,78,64,0,2,2,1,s,pre,0
11,39,11199,79,64,0,2,2,1,s,pre,0
12,41,11518,76,64,0,2,2,1,s,pre,0
13,43,11819,72,64,0,2,2,1,s,pre,0
14,45,12116,76,64,0,2,2,1,s,pre,0
15,47,12354,79,64,0,2,2,1,s,pre,0
16,49,12651,84,64,0,2,2,1,s,pre,0
17,50,12742,83,64,0,2,2,1,s,pre,0
18,52,12994,81,64,0,2,2,1,s,pre,0
19,54,13281,81,64,0,2,2,1,s,pre,0
20,56,13549,81,64,0,2,2,1,s,pre,0
21,59,14135,83,64,0,2,2,1,s,pre,0
22,61,14430,81,64,0,2,2,1,s,pre,0
23,63,14685,84,64,0,2,2,1,s,pre,0
24,65,15029,81,64,0,2,2,1,s,pre,0
25,67,15295,78,64,0,2,2,1,s,pre,0
26,68,15300,79,64,0,2,2,1,s,pre,0
27,70,16152,79,64,0,2,2,1,s,pre,0
28,72,16932,79,64,0,2,2,1,s,pre,0
29,74,17698,77,64,0,2,2,1,s,pre,0
30,76,17988,77,64,0,2,2,1,s,pre,0
31,78,18305,76,64,0,2,2,1,s,pre,0
32,80,18593,76,64,0,2,2,1,s,pre,0
33,82,19473,74,64,0,2,2,1,s,pre,0
34,85,20897,79,64,0,2,2,1,s,pre,0
35,87,21413,77,64,0,2,2,1,s,pre,0
36,88,21450,76,64,0,2,2,1,s,pre,0
37,90,21751,76,64,0,2,2,1,s,pre,0
38,92,22035,76,64,0,2,2,1,s,pre,0
39,94,22327,76,64,0,2,2,1,s,pre,0
40,97,23050,81,64,0,2,2,1,s,pre,0
41,99,23278,77,64,0,2,2,1,s,pre,0
42,101,23515,76,64,0,2,2,1,s,pre,0
43,103,23802,74,64,0,2,2,1,s,pre,0
44,105,24063,76,64,0,2,2,1,s,pre,0
45,107,24389,79,64,0,2,2,1,s,pre,0
46,109,24634,74,64,0,2,2,1,s,pre,0
47,110,24697,71,64,0,2,2,1,s,pre,0
48,112,24970,72,64,0,2,2,1,s,pre,0
49,114,25263,72,64,0,2,2,1,s,pre,0
50,116,25557,74,64,0,2,2,1,s,pre,0
51,118,25829,74,64,0,2,2,1,s,pre,0
52,120,26721,76,64,0,2,2,1,s,pre,0
53,122,27585,65,64,0,2,2,1,s,pre,0
54,124,27856,65,64,0,2,2,1,s,pre,0
55,126,28130,64,64,0,2,2,1,s,pre,0
56,128,28395,64,64,0,2,2,1,s,pre,0
57,130,29343,62,64,0,2,2,1,s,pre,0
58,132,30152,67,64,0,2,2,1,s,pre,0
59,134,30410,67,64,0,2,2,1,s,pre,0
60,136,30703,71,64,0,2,2,1,s,pre,0
61,138,30987,71,64,0,2,2,1,s,pre,0
62,140,31302,72,64,0,2,2,1,s,pre,0
63,142,31555,72,64,0,2,2,1,s,pre,0
64,144,31877,73,64,0,2,2,1,s,pre,0
65,146,32152,73,64,0,2,2,1,s,pre,0
66,149,33132,74,64,0,2,2,1,s,pre,0
67,151,33723,77,64,0,2,2,1,s,pre,0
68,153,34274,76,64,0,2,2,1,s,pre,0
69,155,34845,74,64,0,2,2,1,s,pre,0
70,157,35432,72,64,0,2,2,1,s,pre,0
71,158,35946,84,64,0,2,2,1,s,pre,0
72,160,36671,84,64,0,2,2,1,s,pre,0
1,19,8218,79,64,0,2,2,2,s,pre,0
2,21,8500,78,64,0,2,2,2,s,pre,0
3,23,8767,79,64,0,2,2,2,s,pre,0
4,25,9060,76,64,0,2,2,2,s,pre,0
5,26,9146,72,64,0,2,2,2,s,pre,0
6,28,9387,67,64,0,2,2,2,s,pre,0
7,30,9664,67,64,0,2,2,2,s,pre,0
8,32,9939,67,64,0,2,2,2,s,pre,0
9,35,10529,79,64,0,2,2,2,s,pre,0
10,37,10807,78,64,0,2,2,2,s,pre,0
11,39,11069,79,64,0,2,2,2,s,pre,0
12,41,11354,76,64,0,2,2,2,s,pre,0
13,43,11664,72,64,0,2,2,2,s,pre,0
14,45,11954,76,64,0,2,2,2,s,pre,0
15,47,12182,79,64,0,2,2,2,s,pre,0
16,49,12459,84,64,0,2,2,2,s,pre,0
17,50,12571,83,64,0,2,2,2,s,pre,0
18,52,12813,81,64,0,2,2,2,s,pre,0
19,54,13089,81,64,0,2,2,2,s,pre,0
20,56,13341,81,64,0,2,2,2,s,pre,0
21,59,13948,83,64,0,2,2,2,s,pre,0
22,61,14227,81,64,0,2,2,2,s,pre,0
23,63,14468,84,64,0,2,2,2,s,pre,0
24,65,14771,81,64,0,2,2,2,s,pre,0
25,67,15020,78,64,0,2,2,2,s,pre,0
26,68,15074,79,64,0,2,2,2,s,pre,0
27,70,15683,79,64,0,2,2,2,s,pre,0
28,72,16464,79,64,0,2,2,2,s,pre,0
29,74,17230,77,64,0,2,2,2,s,pre,0
30,76,17517,77,64,0,2,2,2,s,pre,0
31,78,17802,76,64,0,2,2,2,s,pre,0
32,80,18092,76,64,0,2,2,2,s,pre,0
33,82,18916,74,64,0,2,2,2,s,pre,0
34,85,20262,79,64,0,2,2,2,s,pre,0
35,87,20806,77,64,0,2,2,2,s,pre,0
36,88,20858,76,64,0,2,2,2,s,pre,0
37,90,21145,76,64,0,2,2,2,s,pre,0
38,92,21403,76,64,0,2,2,2,s,pre,0
39,94,21688,76,64,0,2,2,2,s,pre,0
40,97,22346,81,64,0,2,2,2,s,pre,0
41,99,22558,77,64,0,2,2,2,s,pre,0
42,101,22806,76,64,0,2,2,2,s,pre,0
43,103,23119,74,64,0,2,2,2,s,pre,0
44,105,23356,76,64,0,2,2,2,s,pre,0
45,107,23680,79,64,0,2,2,2,s,pre,0
46,109,23920,74,64,0,2,2,2,s,pre,0
47,110,23959,71,64,0,2,2,2,s,pre,0
48,112,24258,72,64,0,2,2,2,s,pre,0
49,114,24550,72,64,0,2,2,2,s,pre,0
50,116,24825,74,64,0,2,2,2,s,pre,0
51,118,25084,74,64,0,2,2,2,s,pre,0
52,120,25998,76,64,0,2,2,2,s,pre,0
53,122,26722,65,64,0,2,2,2,s,pre,0
54,124,26992,65,64,0,2,2,2,s,pre,0
55,126,27305,64,64,0,2,2,2,s,pre,0
56,128,27586,64,64,0,2,2,2,s,pre,0
57,130,28489,62,64,0,2,2,2,s,pre,0
58,132,29160,67,64,0,2,2,2,s,pre,0
59,134,29438,67,64,0,2,2,2,s,pre,0
60,136,29746,71,64,0,2,2,2,s,pre,0
61,138,30016,71,64,0,2,2,2,s,pre,0
62,140,30311,72,64,0,2,2,2,s,pre,0
63,142,30581,72,64,0,2,2,2,s,pre,0
64,144,30893,73,64,0,2,2,2,s,pre,0
65,146,31151,73,64,0,2,2,2,s,pre,0
66,149,32130,74,64,0,2,2,2,s,pre,0
67,151,32688,77,64,0,2,2,2,s,pre,0
68,153,33264,76,64,0,2,2,2,s,pre,0
69,154,33717,74,64,0,2,2,2,s,pre,0
70,156,34286,72,64,0,2,2,2,s,pre,0
71,158,34897,84,64,0,2,2,2,s,pre,0
72,160,35611,84,64,0,2,2,2,s,pre,0
1,19,8344,79,64,0,2,3,1,s,pre,0
2,21,8624,78,64,0,2,3,1,s,pre,0
3,23,8879,79,64,0,2,3,1,s,pre,0
4,25,9172,76,64,0,2,3,1,s,pre,0
5,26,9368,72,64,0,2,3,1,s,pre,0
6,28,9452,67,64,0,2,3,1,s,pre,0
7,30,9722,67,64,0,2,3,1,s,pre,0
8,32,9965,67,64,0,2,3,1,s,pre,0
9,35,10594,79,64,0,2,3,1,s,pre,0
10,37,10868,78,64,0,2,3,1,s,pre,0
11,39,11106,79,64,0,2,3,1,s,pre,0
12,41,11333,76,64,0,2,3,1,s,pre,0
13,43,11626,72,64,0,2,3,1,s,pre,0
14,45,11874,76,64,0,2,3,1,s,pre,0
15,47,12087,79,64,0,2,3,1,s,pre,0
16,49,12430,84,64,0,2,3,1,s,pre,0
17,51,12639,83,64,0,2,3,1,s,pre,0
18,52,12730,81,64,0,2,3,1,s,pre,0
19,54,12946,81,64,0,2,3,1,s,pre,0
20,56,13192,81,64,0,2,3,1,s,pre,0
21,59,13658,83,64,0,2,3,1,s,pre,0
22,61,13921,81,64,0,2,3,1,s,pre,0
23,63,14212,84,64,0,2,3,1,s,pre,0
24,65,14425,81,64,0,2,3,1,s,pre,0
25,67,14700,78,64,0,2,3,1,s,pre,0
26,68,14800,79,64,0,2,3,1,s,pre,0
27,70,15161,79,64,0,2,3,1,s,pre,0
28,72,15934,79,64,0,2,3,1,s,pre,0
29,74,16870,77,64,0,2,3,1,s,pre,0
30,76,17102,77,64,0,2,3,1,s,pre,0
31,78,17344,76,64,0,2,3,1,s,pre,0
32,80,17640,76,64,0,2,3,1,s,pre,0
33,82,17986,74,64,0,2,3,1,s,pre,0
34,84,19146,79,64,0,2,3,1,s,pre,0
35,86,19676,77,64,0,2,3,1,s,pre,0
36,88,20182,76,64,0,2,3,1,s,pre,0
37,90,20524,76,64,0,2,3,1,s,pre,0
38,92,20798,76,64,0,2,3,1,s,pre,0
39,94,21046,76,64,0,2,3,1,s,pre,0
40,97,21598,81,64,0,2,3,1,s,pre,0
41,99,21824,77,64,0,2,3,1,s,pre,0
42,101,22018,76,64,0,2,3,1,s,pre,0
43,103,22294,74,64,0,2,3,1,s,pre,0
44,105,22552,76,64,0,2,3,1,s,pre,0
45,107,22836,79,64,0,2,3,1,s,pre,0
46,109,22986,74,64,0,2,3,1,s,pre,0
47,111,23205,71,64,0,2,3,1,s,pre,0
48,112,23254,72,64,0,2,3,1,s,pre,0
49,114,23528,72,64,0,2,3,1,s,pre,0
50,116,23743,74,64,0,2,3,1,s,pre,0
51,118,23978,74,64,0,2,3,1,s,pre,0
52,120,24406,76,64,0,2,3,1,s,pre,0
53,122,25410,65,64,0,2,3,1,s,pre,0
54,124,25626,65,64,0,2,3,1,s,pre,0
55,126,25878,64,64,0,2,3,1,s,pre,0
56,128,26146,64,64,0,2,3,1,s,pre,0
57,130,26546,62,64,0,2,3,1,s,pre,0
58,132,27572,67,64,0,2,3,1,s,pre,0
59,134,27842,67,64,0,2,3,1,s,pre,0
60,136,28078,71,64,0,2,3,1,s,pre,0
61,138,28352,71,64,0,2,3,1,s,pre,0
62,140,28582,72,64,0,2,3,1,s,pre,0
63,142,28842,72,64,0,2,3,1,s,pre,0
64,144,29086,73,64,0,2,3,1,s,pre,0
65,146,29338,73,64,0,2,3,1,s,pre,0
66,148,29682,74,64,0,2,3,1,s,pre,0
67,150,30153,77,64,0,2,3,1,s,pre,0
68,152,30626,76,64,0,2,3,1,s,pre,0
69,154,31091,74,64,0,2,3,1,s,pre,0
70,156,31606,72,64,0,2,3,1,s,pre,0
71,158,32084,84,64,0,2,3,1,s,pre,0
72,160,32759,84,64,0,2,3,1,s,pre,0
1,19,8337,79,64,0,2,3,2,s,pre,0
2,21,8592,78,64,0,2,3,2,s,pre,0
3,23,8857,79,64,0,2,3,2,s,pre,0
4,25,9132,76,64,0,2,3,2,s,pre,0
5,26,9396,72,64,0,2,3,2,s,pre,0
6,28,9547,67,64,0,2,3,2,s,pre,0
7,30,9735,67,64,0,2,3,2,s,pre,0
8,32,9990,67,64,0,2,3,2,s,pre,0
9,35,10547,79,64,0,2,3,2,s,pre,0
10,37,10799,78,64,0,2,3,2,s,pre,0
11,39,11000,79,64,0,2,3,2,s,pre,0
12,41,11246,76,64,0,2,3,2,s,pre,0
13,43,11681,72,64,0,2,3,2,s,pre,0
14,45,11808,76,64,0,2,3,2,s,pre,0
15,47,12043,79,64,0,2,3,2,s,pre,0
16,49,12413,84,64,0,2,3,2,s,pre,0
17,51,12655,83,64,0,2,3,2,s,pre,0
18,52,12733,81,64,0,2,3,2,s,pre,0
19,54,12947,81,64,0,2,3,2,s,pre,0
20,56,13181,81,64,0,2,3,2,s,pre,0
21,59,13673,83,64,0,2,3,2,s,pre,0
22,61,13906,81,64,0,2,3,2,s,pre,0
23,63,14211,84,64,0,2,3,2,s,pre,0
24,65,14435,81,64,0,2,3,2,s,pre,0
25,67,14673,78,64,0,2,3,2,s,pre,0
26,68,14767,79,64,0,2,3,2,s,pre,0
27,70,15083,79,64,0,2,3,2,s,pre,0
28,72,15853,79,64,0,2,3,2,s,pre,0
29,74,16821,77,64,0,2,3,2,s,pre,0
30,76,17053,77,64,0,2,3,2,s,pre,0
31,78,17281,76,64,0,2,3,2,s,pre,0
32,80,17569,76,64,0,2,3,2,s,pre,0
33,82,17889,74,64,0,2,3,2,s,pre,0
34,84,19197,79,64,0,2,3,2,s,pre,0
35,86,19771,77,64,0,2,3,2,s,pre,0
36,88,20144,76,64,0,2,3,2,s,pre,0
37,90,20403,76,64,0,2,3,2,s,pre,0
38,92,20633,76,64,0,2,3,2,s,pre,0
39,94,20933,76,64,0,2,3,2,s,pre,0
40,97,21579,81,64,0,2,3,2,s,pre,0
41,99,21779,77,64,0,2,3,2,s,pre,0
42,100,21972,76,64,0,2,3,2,s,pre,0
43,102,22200,74,64,0,2,3,2,s,pre,0
44,105,22489,76,64,0,2,3,2,s,pre,0
45,107,22745,79,64,0,2,3,2,s,pre,0
46,109,22906,74,64,0,2,3,2,s,pre,0
47,110,23105,71,64,0,2,3,2,s,pre,0
48,112,23197,72,64,0,2,3,2,s,pre,0
49,114,23433,72,64,0,2,3,2,s,pre,0
50,116,23665,74,64,0,2,3,2,s,pre,0
51,118,23893,74,64,0,2,3,2,s,pre,0
52,120,24295,76,64,0,2,3,2,s,pre,0
53,122,25333,65,64,0,2,3,2,s,pre,0
54,124,25563,65,64,0,2,3,2,s,pre,0
55,126,25791,64,64,0,2,3,2,s,pre,0
56,128,26058,64,64,0,2,3,2,s,pre,0
57,130,26395,62,64,0,2,3,2,s,pre,0
58,132,27483,67,64,0,2,3,2,s,pre,0
59,134,27745,67,64,0,2,3,2,s,pre,0
60,136,27990,71,64,0,2,3,2,s,pre,0
61,138,28244,71,64,0,2,3,2,s,pre,0
62,140,28468,72,64,0,2,3,2,s,pre,0
63,142,28714,72,64,0,2,3,2,s,pre,0
64,144,28955,73,64,0,2,3,2,s,pre,0
65,146,29195,73,64,0,2,3,2,s,pre,0
66,148,29485,74,64,0,2,3,2,s,pre,0
67,150,30013,77,64,0,2,3,2,s,pre,0
68,152,30491,76,64,0,2,3,2,s,pre,0
69,154,30948,74,64,0,2,3,2,s,pre,0
70,156,31469,72,64,0,2,3,2,s,pre,0
71,158,31985,84,64,0,2,3,2,s,pre,0
72,160,32686,84,64,0,2,3,2,s,pre,0
1,19,8159,79,64,0,2,4,2,s,pre,0
2,21,8414,78,64,0,2,4,2,s,pre,0
3,23,8700,79,64,0,2,4,2,s,pre,0
4,25,9003,76,64,0,2,4,2,s,pre,0
5,27,9222,72,64,0,2,4,2,s,pre,0
6,28,9257,67,64,0,2,4,2,s,pre,0
7,30,9517,67,64,0,2,4,2,s,pre,0
8,32,9809,67,64,0,2,4,2,s,pre,0
9,35,10386,79,64,0,2,4,2,s,pre,0
10,37,10695,78,64,0,2,4,2,s,pre,0
11,39,10933,79,64,0,2,4,2,s,pre,0
12,41,11198,76,64,0,2,4,2,s,pre,0
13,43,11550,72,64,0,2,4,2,s,pre,0
14,45,11792,76,64,0,2,4,2,s,pre,0
15,47,12022,79,64,0,2,4,2,s,pre,0
16,49,12378,84,64,0,2,4,2,s,pre,0
17,51,12593,83,64,0,2,4,2,s,pre,0
18,52,12618,81,64,0,2,4,2,s,pre,0
19,54,12903,81,64,0,2,4,2,s,pre,0
20,56,13147,81,64,0,2,4,2,s,pre,0
21,59,13719,83,64,0,2,4,2,s,pre,0
22,61,13974,81,64,0,2,4,2,s,pre,0
23,63,14312,84,64,0,2,4,2,s,pre,0
24,65,14566,81,64,0,2,4,2,s,pre,0
25,67,14849,78,64,0,2,4,2,s,pre,0
26,68,14874,79,64,0,2,4,2,s,pre,0
27,70,15215,79,64,0,2,4,2,s,pre,0
28,72,16052,79,64,0,2,4,2,s,pre,0
29,74,16752,77,64,0,2,4,2,s,pre,0
30,76,17021,77,64,0,2,4,2,s,pre,0
31,78,17296,76,64,0,2,4,2,s,pre,0
32,80,17564,76,64,0,2,4,2,s,pre,0
33,82,18489,74,64,0,2,4,2,s,pre,0
34,84,19289,79,64,0,2,4,2,s,pre,0
35,86,19803,77,64,0,2,4,2,s,pre,0
36,88,20166,76,64,0,2,4,2,s,pre,0
37,90,20426,76,64,0,2,4,2,s,pre,0
38,92,20708,76,64,0,2,4,2,s,pre,0
39,94,20975,76,64,0,2,4,2,s,pre,0
40,97,21791,81,64,0,2,4,2,s,pre,0
41,99,21917,77,64,0,2,4,2,s,pre,0
42,101,22128,76,64,0,2,4,2,s,pre,0
43,103,22458,74,64,0,2,4,2,s,pre,0
44,105,22693,76,64,0,2,4,2,s,pre,0
45,107,23041,79,64,0,2,4,2,s,pre,0
46,109,23215,74,64,0,2,4,2,s,pre,0
47,110,23293,71,64,0,2,4,2,s,pre,0
48,112,23523,72,64,0,2,4,2,s,pre,0
49,114,23775,72,64,0,2,4,2,s,pre,0
50,116,24064,74,64,0,2,4,2,s,pre,0
51,118,24355,74,64,0,2,4,2,s,pre,0
52,120,25188,76,64,0,2,4,2,s,pre,0
53,122,25711,65,64,0,2,4,2,s,pre,0
54,124,25968,65,64,0,2,4,2,s,pre,0
55,126,26260,64,64,0,2,4,2,s,pre,0
56,128,26515,64,64,0,2,4,2,s,pre,0
57,130,27463,62,64,0,2,4,2,s,pre,0
58,132,27945,67,64,0,2,4,2,s,pre,0
59,134,28191,67,64,0,2,4,2,s,pre,0
60,136,28486,71,64,0,2,4,2,s,pre,0
61,138,28748,71,64,0,2,4,2,s,pre,0
62,140,29017,72,64,0,2,4,2,s,pre,0
63,142,29277,72,64,0,2,4,2,s,pre,0
64,144,29559,73,64,0,2,4,2,s,pre,0
65,146,29809,73,64,0,2,4,2,s,pre,0
66,148,30626,74,64,0,2,4,2,s,pre,0
67,150,31180,77,64,0,2,4,2,s,pre,0
68,152,31782,76,64,0,2,4,2,s,pre,0
69,155,32399,74,64,0,2,4,2,s,pre,0
70,157,32993,72,64,0,2,4,2,s,pre,0
71,158,33386,84,64,0,2,4,2,s,pre,0
72,160,34216,84,64,0,2,4,2,s,pre,0
1,19,9513,79,64,0,2,7,1,s,pre,0
2,21,9877,78,64,0,2,7,1,s,pre,0
3,23,10166,79,64,0,2,7,1,s,pre,0
4,24,10492,76,64,0,2,7,1,s,pre,0
5,26,10655,72,64,0,2,7,1,s,pre,0
6,28,10889,67,64,0,2,7,1,s,pre,0
7,30,11220,67,64,0,2,7,1,s,pre,0
8,32,11586,67,64,0,2,7,1,s,pre,0
9,35,12235,79,64,0,2,7,1,s,pre,0
10,37,12556,78,64,0,2,7,1,s,pre,0
11,39,12893,79,64,0,2,7,1,s,pre,0
12,40,13173,76,64,0,2,7,1,s,pre,0
13,43,13566,72,64,0,2,7,1,s,pre,0
14,45,13914,76,64,0,2,7,1,s,pre,0
15,47,14219,79,64,0,2,7,1,s,pre,0
16,49,14606,84,64,0,2,7,1,s,pre,0
17,50,14781,83,64,0,2,7,1,s,pre,0
18,52,15000,81,64,0,2,7,1,s,pre,0
19,54,15312,81,64,0,2,7,1,s,pre,0
20,56,15646,81,64,0,2,7,1,s,pre,0
21,59,16306,83,64,0,2,7,1,s,pre,0
22,61,16623,81,64,0,2,7,1,s,pre,0
23,63,16953,84,64,0,2,7,1,s,pre,0
24,65,17340,81,64,0,2,7,1,s,pre,0
25,67,17653,78,64,0,2,7,1,s,pre,0
26,68,17710,79,64,0,2,7,1,s,pre,0
27,70,18284,79,64,0,2,7,1,s,pre,0
28,72,19405,79,64,0,2,7,1,s,pre,0
29,74,20436,77,64,0,2,7,1,s,pre,0
30,76,20761,77,64,0,2,7,1,s,pre,0
31,78,21094,76,64,0,2,7,1,s,pre,0
32,80,21458,76,64,0,2,7,1,s,pre,0
33,82,22303,74,64,0,2,7,1,s,pre,0
34,84,23747,79,64,0,2,7,1,s,pre,0
35,86,24249,77,64,0,2,7,1,s,pre,0
36,88,24611,76,64,0,2,7,1,s,pre,0
37,90,24955,76,64,0,2,7,1,s,pre,0
38,92,25284,76,64,0,2,7,1,s,pre,0
39,94,25623,76,64,0,2,7,1,s,pre,0
40,97,26392,81,64,0,2,7,1,s,pre,0
41,99,26701,77,64,0,2,7,1,s,pre,0
42,101,27005,76,64,0,2,7,1,s,pre,0
43,103,27383,74,64,0,2,7,1,s,pre,0
44,105,27774,76,64,0,2,7,1,s,pre,0
45,107,28121,79,64,0,2,7,1,s,pre,0
46,108,28383,74,64,0,2,7,1,s,pre,0
47,110,28515,71,64,0,2,7,1,s,pre,0
48,112,28770,72,64,0,2,7,1,s,pre,0
49,114,29115,72,64,0,2,7,1,s,pre,0
50,116,29464,74,64,0,2,7,1,s,pre,0
51,118,29804,74,64,0,2,7,1,s,pre,0
52,120,30812,76,64,0,2,7,1,s,pre,0
53,122,31565,65,64,0,2,7,1,s,pre,0
54,124,31913,65,64,0,2,7,1,s,pre,0
55,126,32279,64,64,0,2,7,1,s,pre,0
56,128,32636,64,64,0,2,7,1,s,pre,0
57,130,33700,62,64,0,2,7,1,s,pre,0
58,132,34361,67,64,0,2,7,1,s,pre,0
59,134,34694,67,64,0,2,7,1,s,pre,0
60,136,35031,71,64,0,2,7,1,s,pre,0
61,138,35376,71,64,0,2,7,1,s,pre,0
62,140,35712,72,64,0,2,7,1,s,pre,0
63,142,36047,72,64,0,2,7,1,s,pre,0
64,144,36389,73,64,0,2,7,1,s,pre,0
65,146,36712,73,64,0,2,7,1,s,pre,0
66,148,37746,74,64,0,2,7,1,s,pre,0
67,151,38542,77,64,0,2,7,1,s,pre,0
68,153,39304,76,64,0,2,7,1,s,pre,0
69,154,39956,74,64,0,2,7,1,s,pre,0
70,156,40594,72,64,0,2,7,1,s,pre,0
71,158,41210,84,64,0,2,7,1,s,pre,0
72,160,42272,84,64,0,2,7,1,s,pre,0
1,19,8238,79,64,0,2,8,2,s,pre,0
2,21,8559,78,64,0,2,8,2,s,pre,0
3,23,8810,79,64,0,2,8,2,s,pre,0
4,25,9078,76,64,0,2,8,2,s,pre,0
5,26,9324,72,64,0,2,8,2,s,pre,0
6,28,9454,67,64,0,2,8,2,s,pre,0
7,30,9722,67,64,0,2,8,2,s,pre,0
8,32,10076,67,64,0,2,8,2,s,pre,0
9,35,10634,79,64,0,2,8,2,s,pre,0
10,37,10966,78,64,0,2,8,2,s,pre,0
11,39,11198,79,64,0,2,8,2,s,pre,0
12,40,11446,76,64,0,2,8,2,s,pre,0
13,43,11792,72,64,0,2,8,2,s,pre,0
14,45,12084,76,64,0,2,8,2,s,pre,0
15,47,12322,79,64,0,2,8,2,s,pre,0
16,49,12735,84,64,0,2,8,2,s,pre,0
17,50,12894,83,64,0,2,8,2,s,pre,0
18,52,12972,81,64,0,2,8,2,s,pre,0
19,54,13294,81,64,0,2,8,2,s,pre,0
20,56,13615,81,64,0,2,8,2,s,pre,0
21,59,14172,83,64,0,2,8,2,s,pre,0
22,61,14452,81,64,0,2,8,2,s,pre,0
23,63,14950,84,64,0,2,8,2,s,pre,0
24,64,15029,81,64,0,2,8,2,s,pre,0
25,67,15353,78,64,0,2,8,2,s,pre,0
26,68,15464,79,64,0,2,8,2,s,pre,0
27,70,15968,79,64,0,2,8,2,s,pre,0
28,72,16886,79,64,0,2,8,2,s,pre,0
29,74,17548,77,64,0,2,8,2,s,pre,0
30,76,17840,77,64,0,2,8,2,s,pre,0
31,78,18134,76,64,0,2,8,2,s,pre,0
32,80,18416,76,64,0,2,8,2,s,pre,0
33,82,19210,74,64,0,2,8,2,s,pre,0
34,85,20624,79,64,0,2,8,2,s,pre,0
35,86,21115,77,64,0,2,8,2,s,pre,0
36,88,21264,76,64,0,2,8,2,s,pre,0
37,90,21564,76,64,0,2,8,2,s,pre,0
38,92,21830,76,64,0,2,8,2,s,pre,0
39,94,22087,76,64,0,2,8,2,s,pre,0
40,97,22924,81,64,0,2,8,2,s,pre,0
41,99,23101,77,64,0,2,8,2,s,pre,0
42,101,23292,76,64,0,2,8,2,s,pre,0
43,103,23650,74,64,0,2,8,2,s,pre,0
44,105,23912,76,64,0,2,8,2,s,pre,0
45,107,24306,79,64,0,2,8,2,s,pre,0
46,109,24488,74,64,0,2,8,2,s,pre,0
47,111,24812,71,64,0,2,8,2,s,pre,0
48,112,24816,72,64,0,2,8,2,s,pre,0
49,114,25116,72,64,0,2,8,2,s,pre,0
50,116,25409,74,64,0,2,8,2,s,pre,0
51,118,25738,74,64,0,2,8,2,s,pre,0
52,120,26532,76,64,0,2,8,2,s,pre,0
53,122,27268,65,64,0,2,8,2,s,pre,0
54,124,27536,65,64,0,2,8,2,s,pre,0
55,126,27828,64,64,0,2,8,2,s,pre,0
56,128,28122,64,64,0,2,8,2,s,pre,0
57,130,28964,62,64,0,2,8,2,s,pre,0
58,132,29668,67,64,0,2,8,2,s,pre,0
59,134,29936,67,64,0,2,8,2,s,pre,0
60,136,30222,71,64,0,2,8,2,s,pre,0
61,138,30495,71,64,0,2,8,2,s,pre,0
62,140,30860,72,64,0,2,8,2,s,pre,0
63,142,31136,72,64,0,2,8,2,s,pre,0
64,144,31466,73,64,0,2,8,2,s,pre,0
65,146,31745,73,64,0,2,8,2,s,pre,0
66,149,32572,74,64,0,2,8,2,s,pre,0
67,151,33199,77,64,0,2,8,2,s,pre,0
68,153,33686,76,64,0,2,8,2,s,pre,0
69,154,34246,74,64,0,2,8,2,s,pre,0
70,157,34848,72,64,0,2,8,2,s,pre,0
71,158,35140,84,64,0,2,8,2,s,pre,0
72,160,36148,84,64,0,2,8,2,s,pre,0
1,19,8143,79,64,0,2,10,2,s,pre,0
2,21,8421,78,64,0,2,10,2,s,pre,0
3,23,8700,79,64,0,2,10,2,s,pre,0
4,25,8995,76,64,0,2,10,2,s,pre,0
5,26,9063,72,64,0,2,10,2,s,pre,0
6,28,9315,67,64,0,2,10,2,s,pre,0
7,30,9597,67,64,0,2,10,2,s,pre,0
8,32,9863,67,64,0,2,10,2,s,pre,0
9,35,10380,79,64,0,2,10,2,s,pre,0
10,37,10661,78,64,0,2,10,2,s,pre,0
11,39,10905,79,64,0,2,10,2,s,pre,0
12,40,11165,76,64,0,2,10,2,s,pre,0
13,43,11499,72,64,0,2,10,2,s,pre,0
14,45,11773,76,64,0,2,10,2,s,pre,0
15,47,12000,79,64,0,2,10,2,s,pre,0
16,49,12279,84,64,0,2,10,2,s,pre,0
17,50,12345,83,64,0,2,10,2,s,pre,0
18,52,12579,81,64,0,2,10,2,s,pre,0
19,54,12861,81,64,0,2,10,2,s,pre,0
20,56,13123,81,64,0,2,10,2,s,pre,0
21,59,13651,83,64,0,2,10,2,s,pre,0
22,61,13873,81,64,0,2,10,2,s,pre,0
23,63,14179,84,64,0,2,10,2,s,pre,0
24,65,14414,81,64,0,2,10,2,s,pre,0
25,67,14689,78,64,0,2,10,2,s,pre,0
26,68,14700,79,64,0,2,10,2,s,pre,0
27,70,15085,79,64,0,2,10,2,s,pre,0
28,72,16025,79,64,0,2,10,2,s,pre,0
29,74,16604,77,64,0,2,10,2,s,pre,0
30,76,16853,77,64,0,2,10,2,s,pre,0
31,78,17127,76,64,0,2,10,2,s,pre,0
32,80,17373,76,64,0,2,10,2,s,pre,0
33,82,17828,74,64,0,2,10,2,s,pre,0
34,84,18830,79,64,0,2,10,2,s,pre,0
35,86,19355,77,64,0,2,10,2,s,pre,0
36,88,19903,76,64,0,2,10,2,s,pre,0
37,90,20173,76,64,0,2,10,2,s,pre,0
38,92,20435,76,64,0,2,10,2,s,pre,0
39,94,20678,76,64,0,2,10,2,s,pre,0
40,97,21237,81,64,0,2,10,2,s,pre,0
41,99,21445,77,64,0,2,10,2,s,pre,0
42,101,21692,76,64,0,2,10,2,s,pre,0
43,103,21985,74,64,0,2,10,2,s,pre,0
44,105,22212,76,64,0,2,10,2,s,pre,0
45,107,22486,79,64,0,2,10,2,s,pre,0
46,109,22723,74,64,0,2,10,2,s,pre,0
47,110,22765,71,64,0,2,10,2,s,pre,0
48,112,23019,72,64,0,2,10,2,s,pre,0
49,114,23283,72,64,0,2,10,2,s,pre,0
50,116,23547,74,64,0,2,10,2,s,pre,0
51,118,23813,74,64,0,2,10,2,s,pre,0
52,120,24409,76,64,0,2,10,2,s,pre,0
53,122,25273,65,64,0,2,10,2,s,pre,0
54,124,25535,65,64,0,2,10,2,s,pre,0
55,126,25821,64,64,0,2,10,2,s,pre,0
56,128,26065,64,64,0,2,10,2,s,pre,0
57,130,26565,62,64,0,2,10,2,s,pre,0
58,132,27419,67,64,0,2,10,2,s,pre,0
59,134,27691,67,64,0,2,10,2,s,pre,0
60,136,27925,71,64,0,2,10,2,s,pre,0
61,138,28173,71,64,0,2,10,2,s,pre,0
62,140,28457,72,64,0,2,10,2,s,pre,0
63,142,28695,72,64,0,2,10,2,s,pre,0
64,144,28969,73,64,0,2,10,2,s,pre,0
65,146,29211,73,64,0,2,10,2,s,pre,0
66,148,29769,74,64,0,2,10,2,s,pre,0
67,150,30341,77,64,0,2,10,2,s,pre,0
68,152,30873,76,64,0,2,10,2,s,pre,0
69,154,31419,74,64,0,2,10,2,s,pre,0
70,156,31925,72,64,0,2,10,2,s,pre,0
71,158,32537,84,64,0,2,10,2,s,pre,0
72,160,33321,84,64,0,2,10,2,s,pre,0
1,19,8117,79,64,0,2,12,2,s,pre,0
2,21,8392,78,64,0,2,12,2,s,pre,0
3,23,8589,79,64,0,2,12,2,s,pre,0
4,25,8816,76,64,0,2,12,2,s,pre,0
5,26,8957,72,64,0,2,12,2,s,pre,0
6,28,9037,67,64,0,2,12,2,s,pre,0
7,30,9266,67,64,0,2,12,2,s,pre,0
8,32,9479,67,64,0,2,12,2,s,pre,0
9,35,9906,79,64,0,2,12,2,s,pre,0
10,37,10145,78,64,0,2,12,2,s,pre,0
11,39,10388,79,64,0,2,12,2,s,pre,0
12,41,10550,76,64,0,2,12,2,s,pre,0
13,43,10807,72,64,0,2,12,2,s,pre,0
14,45,11011,76,64,0,2,12,2,s,pre,0
15,47,11168,79,64,0,2,12,2,s,pre,0
16,49,11434,84,64,0,2,12,2,s,pre,0
17,50,11600,83,64,0,2,12,2,s,pre,0
18,52,11653,81,64,0,2,12,2,s,pre,0
19,54,11866,81,64,0,2,12,2,s,pre,0
20,56,12089,81,64,0,2,12,2,s,pre,0
21,59,12553,83,64,0,2,12,2,s,pre,0
22,61,12740,81,64,0,2,12,2,s,pre,0
23,63,12973,84,64,0,2,12,2,s,pre,0
24,65,13184,81,64,0,2,12,2,s,pre,0
25,67,13391,78,64,0,2,12,2,s,pre,0
26,68,13468,79,64,0,2,12,2,s,pre,0
27,70,13913,79,64,0,2,12,2,s,pre,0
28,72,14582,79,64,0,2,12,2,s,pre,0
29,74,14980,77,64,0,2,12,2,s,pre,0
30,76,15191,77,64,0,2,12,2,s,pre,0
31,78,15409,76,64,0,2,12,2,s,pre,0
32,80,15622,76,64,0,2,12,2,s,pre,0
33,82,16153,74,64,0,2,12,2,s,pre,0
34,84,16827,79,64,0,2,12,2,s,pre,0
35,86,17327,77,64,0,2,12,2,s,pre,0
36,88,17675,76,64,0,2,12,2,s,pre,0
37,90,17885,76,64,0,2,12,2,s,pre,0
38,92,18112,76,64,0,2,12,2,s,pre,0
39,94,18319,76,64,0,2,12,2,s,pre,0
40,97,18773,81,64,0,2,12,2,s,pre,0
41,99,18971,77,64,0,2,12,2,s,pre,0
42,101,19131,76,64,0,2,12,2,s,pre,0
43,103,19392,74,64,0,2,12,2,s,pre,0
44,105,19606,76,64,0,2,12,2,s,pre,0
45,107,19819,79,64,0,2,12,2,s,pre,0
46,109,19971,74,64,0,2,12,2,s,pre,0
47,110,20152,71,64,0,2,12,2,s,pre,0
48,112,20195,72,64,0,2,12,2,s,pre,0
49,114,20413,72,64,0,2,12,2,s,pre,0
50,116,20619,74,64,0,2,12,2,s,pre,0
51,118,20826,74,64,0,2,12,2,s,pre,0
52,120,21467,76,64,0,2,12,2,s,pre,0
53,122,22016,65,64,0,2,12,2,s,pre,0
54,124,22233,65,64,0,2,12,2,s,pre,0
55,126,22403,64,64,0,2,12,2,s,pre,0
56,128,22623,64,64,0,2,12,2,s,pre,0
57,130,23326,62,64,0,2,12,2,s,pre,0
58,132,23729,67,64,0,2,12,2,s,pre,0
59,134,23973,67,64,0,2,12,2,s,pre,0
60,136,24191,71,64,0,2,12,2,s,pre,0
61,138,24382,71,64,0,2,12,2,s,pre,0
62,140,24616,72,64,0,2,12,2,s,pre,0
63,142,24807,72,64,0,2,12,2,s,pre,0
64,144,25011,73,64,0,2,12,2,s,pre,0
65,146,25274,73,64,0,2,12,2,s,pre,0
66,148,25762,74,64,0,2,12,2,s,pre,0
67,150,26194,77,64,0,2,12,2,s,pre,0
68,152,26651,76,64,0,2,12,2,s,pre,0
69,154,27092,74,64,0,2,12,2,s,pre,0
70,156,27551,72,64,0,2,12,2,s,pre,0
71,158,27991,84,64,0,2,12,2,s,pre,0
72,160,28643,84,64,0,2,12,2,s,pre,0
1,19,8125,79,64,0,2,13,2,s,pre,0
2,21,8376,78,64,0,2,13,2,s,pre,0
3,23,8616,79,64,0,2,13,2,s,pre,0
4,25,8893,76,64,0,2,13,2,s,pre,0
5,26,8922,72,64,0,2,13,2,s,pre,0
6,28,9165,67,64,0,2,13,2,s,pre,0
7,30,9398,67,64,0,2,13,2,s,pre,0
8,32,9639,67,64,0,2,13,2,s,pre,0
9,35,10145,79,64,0,2,13,2,s,pre,0
10,37,10362,78,64,0,2,13,2,s,pre,0
11,39,10612,79,64,0,2,13,2,s,pre,0
12,41,10889,76,64,0,2,13,2,s,pre,0
13,43,11127,72,64,0,2,13,2,s,pre,0
14,45,11380,76,64,0,2,13,2,s,pre,0
15,47,11589,79,64,0,2,13,2,s,pre,0
16,49,11863,84,64,0,2,13,2,s,pre,0
17,50,11888,83,64,0,2,13,2,s,pre,0
18,52,12105,81,64,0,2,13,2,s,pre,0
19,54,12333,81,64,0,2,13,2,s,pre,0
20,56,12556,81,64,0,2,13,2,s,pre,0
21,59,13017,83,64,0,2,13,2,s,pre,0
22,61,13274,81,64,0,2,13,2,s,pre,0
23,63,13523,84,64,0,2,13,2,s,pre,0
24,64,13545,81,64,0,2,13,2,s,pre,0
25,66,13951,78,64,0,2,13,2,s,pre,0
26,68,14001,79,64,0,2,13,2,s,pre,0
27,70,14340,79,64,0,2,13,2,s,pre,0
28,72,14932,79,64,0,2,13,2,s,pre,0
29,74,15799,77,64,0,2,13,2,s,pre,0
30,76,16037,77,64,0,2,13,2,s,pre,0
31,78,16319,76,64,0,2,13,2,s,pre,0
32,80,16559,76,64,0,2,13,2,s,pre,0
33,82,17010,74,64,0,2,13,2,s,pre,0
34,84,17841,79,64,0,2,13,2,s,pre,0
35,86,18362,77,64,0,2,13,2,s,pre,0
36,88,18901,76,64,0,2,13,2,s,pre,0
37,90,19140,76,64,0,2,13,2,s,pre,0
38,92,19398,76,64,0,2,13,2,s,pre,0
39,94,19622,76,64,0,2,13,2,s,pre,0
40,97,20153,81,64,0,2,13,2,s,pre,0
41,99,20348,77,64,0,2,13,2,s,pre,0
42,101,20595,76,64,0,2,13,2,s,pre,0
43,103,20851,74,64,0,2,13,2,s,pre,0
44,104,21050,76,64,0,2,13,2,s,pre,0
45,107,21331,79,64,0,2,13,2,s,pre,0
46,109,21563,74,64,0,2,13,2,s,pre,0
47,110,21590,71,64,0,2,13,2,s,pre,0
48,112,21846,72,64,0,2,13,2,s,pre,0
49,114,22078,72,64,0,2,13,2,s,pre,0
50,116,22293,74,64,0,2,13,2,s,pre,0
51,118,22519,74,64,0,2,13,2,s,pre,0
52,120,23018,76,64,0,2,13,2,s,pre,0
53,122,23842,65,64,0,2,13,2,s,pre,0
54,124,24082,65,64,0,2,13,2,s,pre,0
55,126,24337,64,64,0,2,13,2,s,pre,0
56,128,24584,64,64,0,2,13,2,s,pre,0
57,130,25097,62,64,0,2,13,2,s,pre,0
58,132,25947,67,64,0,2,13,2,s,pre,0
59,134,26191,67,64,0,2,13,2,s,pre,0
60,136,26425,71,64,0,2,13,2,s,pre,0
61,138,26663,71,64,0,2,13,2,s,pre,0
62,140,26906,72,64,0,2,13,2,s,pre,0
63,142,27136,72,64,0,2,13,2,s,pre,0
64,144,27376,73,64,0,2,13,2,s,pre,0
65,146,27613,73,64,0,2,13,2,s,pre,0
66,149,28378,74,64,0,2,13,2,s,pre,0
67,151,28839,77,64,0,2,13,2,s,pre,0
68,153,29306,76,64,0,2,13,2,s,pre,0
69,155,29801,74,64,0,2,13,2,s,pre,0
70,156,29905,72,64,0,2,13,2,s,pre,0
71,158,30384,84,64,0,2,13,2,s,pre,0
72,160,31018,84,64,0,2,13,2,s,pre,0
1,19,8246,79,64,0,2,14,1,s,pre,0
2,21,8567,78,64,0,2,14,1,s,pre,0
3,23,8781,79,64,0,2,14,1,s,pre,0
4,25,9096,76,64,0,2,14,1,s,pre,0
5,26,9346,72,64,0,2,14,1,s,pre,0
6,28,9471,67,64,0,2,14,1,s,pre,0
7,30,9754,67,64,0,2,14,1,s,pre,0
8,32,10054,67,64,0,2,14,1,s,pre,0
9,35,10661,79,64,0,2,14,1,s,pre,0
10,37,10957,78,64,0,2,14,1,s,pre,0
11,39,11231,79,64,0,2,14,1,s,pre,0
12,41,11544,76,64,0,2,14,1,s,pre,0
13,43,11852,72,64,0,2,14,1,s,pre,0
14,45,12167,76,64,0,2,14,1,s,pre,0
15,46,12435,79,64,0,2,14,1,s,pre,0
16,49,12813,84,64,0,2,14,1,s,pre,0
17,51,13061,83,64,0,2,14,1,s,pre,0
18,52,13097,81,64,0,2,14,1,s,pre,0
19,54,13407,81,64,0,2,14,1,s,pre,0
20,56,13705,81,64,0,2,14,1,s,pre,0
21,59,14325,83,64,0,2,14,1,s,pre,0
22,61,14580,81,64,0,2,14,1,s,pre,0
23,63,14894,84,64,0,2,14,1,s,pre,0
24,65,15174,81,64,0,2,14,1,s,pre,0
25,67,15505,78,64,0,2,14,1,s,pre,0
26,68,15541,79,64,0,2,14,1,s,pre,0
27,70,15849,79,64,0,2,14,1,s,pre,0
28,72,17070,79,64,0,2,14,1,s,pre,0
29,74,17711,77,64,0,2,14,1,s,pre,0
30,76,18016,77,64,0,2,14,1,s,pre,0
31,78,18312,76,64,0,2,14,1,s,pre,0
32,80,18616,76,64,0,2,14,1,s,pre,0
33,82,19399,74,64,0,2,14,1,s,pre,0
34,84,20658,79,64,0,2,14,1,s,pre,0
35,86,21182,77,64,0,2,14,1,s,pre,0
36,88,21346,76,64,0,2,14,1,s,pre,0
37,90,21639,76,64,0,2,14,1,s,pre,0
38,92,21929,76,64,0,2,14,1,s,pre,0
39,94,22218,76,64,0,2,14,1,s,pre,0
40,97,22812,81,64,0,2,14,1,s,pre,0
41,99,23100,77,64,0,2,14,1,s,pre,0
42,100,23357,76,64,0,2,14,1,s,pre,0
43,103,23685,74,64,0,2,14,1,s,pre,0
44,105,23975,76,64,0,2,14,1,s,pre,0
45,107,24283,79,64,0,2,14,1,s,pre,0
46,108,24542,74,64,0,2,14,1,s,pre,0
47,110,24824,71,64,0,2,14,1,s,pre,0
48,112,24932,72,64,0,2,14,1,s,pre,0
49,114,25234,72,64,0,2,14,1,s,pre,0
50,116,25530,74,64,0,2,14,1,s,pre,0
51,118,25812,74,64,0,2,14,1,s,pre,0
52,120,26725,76,64,0,2,14,1,s,pre,0
53,122,27323,65,64,0,2,14,1,s,pre,0
54,124,27619,65,64,0,2,14,1,s,pre,0
55,126,27902,64,64,0,2,14,1,s,pre,0
56,128,28195,64,64,0,2,14,1,s,pre,0
57,130,29115,62,64,0,2,14,1,s,pre,0
58,132,29683,67,64,0,2,14,1,s,pre,0
59,134,29985,67,64,0,2,14,1,s,pre,0
60,136,30292,71,64,0,2,14,1,s,pre,0
61,138,30578,71,64,0,2,14,1,s,pre,0
62,140,30874,72,64,0,2,14,1,s,pre,0
63,142,31174,72,64,0,2,14,1,s,pre,0
64,144,31465,73,64,0,2,14,1,s,pre,0
65,146,31763,73,64,0,2,14,1,s,pre,0
66,149,32641,74,64,0,2,14,1,s,pre,0
67,151,33223,77,64,0,2,14,1,s,pre,0
68,153,33788,76,64,0,2,14,1,s,pre,0
69,155,34384,74,64,0,2,14,1,s,pre,0
70,156,34921,72,64,0,2,14,1,s,pre,0
71,158,35227,84,64,0,2,14,1,s,pre,0
72,160,36176,84,64,0,2,14,1,s,pre,0
1,19,8210,79,64,0,2,14,2,s,pre,0
2,21,8549,78,64,0,2,14,2,s,pre,0
3,23,8781,79,64,0,2,14,2,s,pre,0
4,25,9092,76,64,0,2,14,2,s,pre,0
5,26,9303,72,64,0,2,14,2,s,pre,0
6,28,9434,67,64,0,2,14,2,s,pre,0
7,30,9743,67,64,0,2,14,2,s,pre,0
8,32,10071,67,64,0,2,14,2,s,pre,0
9,35,10683,79,64,0,2,14,2,s,pre,0
10,37,10979,78,64,0,2,14,2,s,pre,0
11,39,11264,79,64,0,2,14,2,s,pre,0
12,40,11568,76,64,0,2,14,2,s,pre,0
13,43,11912,72,64,0,2,14,2,s,pre,0
14,45,12208,76,64,0,2,14,2,s,pre,0
15,47,12516,79,64,0,2,14,2,s,pre,0
16,49,12891,84,64,0,2,14,2,s,pre,0
17,50,13133,83,64,0,2,14,2,s,pre,0
18,52,13199,81,64,0,2,14,2,s,pre,0
19,54,13510,81,64,0,2,14,2,s,pre,0
20,56,13802,81,64,0,2,14,2,s,pre,0
21,59,14403,83,64,0,2,14,2,s,pre,0
22,61,14695,81,64,0,2,14,2,s,pre,0
23,63,15024,84,64,0,2,14,2,s,pre,0
24,64,15296,81,64,0,2,14,2,s,pre,0
25,67,15627,78,64,0,2,14,2,s,pre,0
26,68,15740,79,64,0,2,14,2,s,pre,0
27,70,16029,79,64,0,2,14,2,s,pre,0
28,72,17207,79,64,0,2,14,2,s,pre,0
29,74,17890,77,64,0,2,14,2,s,pre,0
30,76,18189,77,64,0,2,14,2,s,pre,0
31,78,18487,76,64,0,2,14,2,s,pre,0
32,80,18787,76,64,0,2,14,2,s,pre,0
33,82,19729,74,64,0,2,14,2,s,pre,0
34,85,20851,79,64,0,2,14,2,s,pre,0
35,86,21436,77,64,0,2,14,2,s,pre,0
36,88,21554,76,64,0,2,14,2,s,pre,0
37,90,21856,76,64,0,2,14,2,s,pre,0
38,92,22153,76,64,0,2,14,2,s,pre,0
39,94,22454,76,64,0,2,14,2,s,pre,0
40,97,23053,81,64,0,2,14,2,s,pre,0
41,99,23310,77,64,0,2,14,2,s,pre,0
42,100,23599,76,64,0,2,14,2,s,pre,0
43,103,23913,74,64,0,2,14,2,s,pre,0
44,105,24244,76,64,0,2,14,2,s,pre,0
45,107,24537,79,64,0,2,14,2,s,pre,0
46,108,24798,74,64,0,2,14,2,s,pre,0
47,110,25079,71,64,0,2,14,2,s,pre,0
48,112,25189,72,64,0,2,14,2,s,pre,0
49,114,25480,72,64,0,2,14,2,s,pre,0
50,116,25777,74,64,0,2,14,2,s,pre,0
51,118,26073,74,64,0,2,14,2,s,pre,0
52,120,27000,76,64,0,2,14,2,s,pre,0
53,122,27663,65,64,0,2,14,2,s,pre,0
54,124,27952,65,64,0,2,14,2,s,pre,0
55,126,28232,64,64,0,2,14,2,s,pre,0
56,128,28563,64,64,0,2,14,2,s,pre,0
57,130,29501,62,64,0,2,14,2,s,pre,0
58,132,30102,67,64,0,2,14,2,s,pre,0
59,134,30413,67,64,0,2,14,2,s,pre,0
60,136,30749,71,64,0,2,14,2,s,pre,0
61,138,31026,71,64,0,2,14,2,s,pre,0
62,140,31328,72,64,0,2,14,2,s,pre,0
63,142,31622,72,64,0,2,14,2,s,pre,0
64,144,31902,73,64,0,2,14,2,s,pre,0
65,146,32199,73,64,0,2,14,2,s,pre,0
66,149,33065,74,64,0,2,14,2,s,pre,0
67,151,33669,77,64,0,2,14,2,s,pre,0
68,153,34270,76,64,0,2,14,2,s,pre,0
69,155,34815,74,64,0,2,14,2,s,pre,0
70,156,35348,72,64,0,2,14,2,s,pre,0
71,158,35617,84,64,0,2,14,2,s,pre,0
72,160,36668,84,64,0,2,14,2,s,pre,0
1,19,10040,79,64,0,2,15,1,s,pre,0
2,21,10388,78,64,0,2,15,1,s,pre,0
3,23,10618,79,64,0,2,15,1,s,pre,0
4,25,10892,76,64,0,2,15,1,s,pre,0
5,26,11151,72,64,0,2,15,1,s,pre,0
6,28,11211,67,64,0,2,15,1,s,pre,0
7,30,11503,67,64,0,2,15,1,s,pre,0
8,32,11774,67,64,0,2,15,1,s,pre,0
9,35,12267,79,64,0,2,15,1,s,pre,0
10,37,12640,78,64,0,2,15,1,s,pre,0
11,39,12861,79,64,0,2,15,1,s,pre,0
12,40,13093,76,64,0,2,15,1,s,pre,0
13,43,13411,72,64,0,2,15,1,s,pre,0
14,45,13704,76,64,0,2,15,1,s,pre,0
15,47,13913,79,64,0,2,15,1,s,pre,0
16,49,14238,84,64,0,2,15,1,s,pre,0
17,51,14483,83,64,0,2,15,1,s,pre,0
18,52,14521,81,64,0,2,15,1,s,pre,0
19,54,14812,81,64,0,2,15,1,s,pre,0
20,56,15063,81,64,0,2,15,1,s,pre,0
21,59,15573,83,64,0,2,15,1,s,pre,0
22,61,15867,81,64,0,2,15,1,s,pre,0
23,63,16079,84,64,0,2,15,1,s,pre,0
24,65,16374,81,64,0,2,15,1,s,pre,0
25,67,16664,78,64,0,2,15,1,s,pre,0
26,68,16683,79,64,0,2,15,1,s,pre,0
27,70,17144,79,64,0,2,15,1,s,pre,0
28,72,18110,79,64,0,2,15,1,s,pre,0
29,74,18727,77,64,0,2,15,1,s,pre,0
30,76,19013,77,64,0,2,15,1,s,pre,0
31,78,19297,76,64,0,2,15,1,s,pre,0
32,80,19566,76,64,0,2,15,1,s,pre,0
33,82,20360,74,64,0,2,15,1,s,pre,0
34,85,21491,79,64,0,2,15,1,s,pre,0
35,86,21895,77,64,0,2,15,1,s,pre,0
36,88,22146,76,64,0,2,15,1,s,pre,0
37,90,22425,76,64,0,2,15,1,s,pre,0
38,92,22713,76,64,0,2,15,1,s,pre,0
39,94,22945,76,64,0,2,15,1,s,pre,0
40,97,23542,81,64,0,2,15,1,s,pre,0
41,99,23831,77,64,0,2,15,1,s,pre,0
42,101,24042,76,64,0,2,15,1,s,pre,0
43,103,24333,74,64,0,2,15,1,s,pre,0
44,105,24629,76,64,0,2,15,1,s,pre,0
45,107,24869,79,64,0,2,15,1,s,pre,0
46,109,25100,74,64,0,2,15,1,s,pre,0
47,110,25162,71,64,0,2,15,1,s,pre,0
48,112,25422,72,64,0,2,15,1,s,pre,0
49,114,25709,72,64,0,2,15,1,s,pre,0
50,116,25985,74,64,0,2,15,1,s,pre,0
51,118,26261,74,64,0,2,15,1,s,pre,0
52,120,26966,76,64,0,2,15,1,s,pre,0
53,122,27596,65,64,0,2,15,1,s,pre,0
54,124,27880,65,64,0,2,15,1,s,pre,0
55,126,28168,64,64,0,2,15,1,s,pre,0
56,128,28444,64,64,0,2,15,1,s,pre,0
57,130,29154,62,64,0,2,15,1,s,pre,0
58,132,29872,67,64,0,2,15,1,s,pre,0
59,134,30138,67,64,0,2,15,1,s,pre,0
60,136,30405,71,64,0,2,15,1,s,pre,0
61,138,30659,71,64,0,2,15,1,s,pre,0
62,140,30954,72,64,0,2,15,1,s,pre,0
63,142,31196,72,64,0,2,15,1,s,pre,0
64,144,31493,73,64,0,2,15,1,s,pre,0
65,146,31754,73,64,0,2,15,1,s,pre,0
66,149,32594,74,64,0,2,15,1,s,pre,0
67,151,33145,77,64,0,2,15,1,s,pre,0
68,153,33719,76,64,0,2,15,1,s,pre,0
69,155,34243,74,64,0,2,15,1,s,pre,0
70,157,34826,72,64,0,2,15,1,s,pre,0
71,158,34922,84,64,0,2,15,1,s,pre,0
72,160,35968,84,64,0,2,15,1,s,pre,0
1,19,8228,79,64,0,2,15,2,s,pre,0
2,21,8548,78,64,0,2,15,2,s,pre,0
3,23,8801,79,64,0,2,15,2,s,pre,0
4,25,9090,76,64,0,2,15,2,s,pre,0
5,27,9346,72,64,0,2,15,2,s,pre,0
6,28,9402,67,64,0,2,15,2,s,pre,0
7,30,9682,67,64,0,2,15,2,s,pre,0
8,32,9944,67,64,0,2,15,2,s,pre,0
9,35,10458,79,64,0,2,15,2,s,pre,0
10,37,10766,78,64,0,2,15,2,s,pre,0
11,39,10990,79,64,0,2,15,2,s,pre,0
12,40,11223,76,64,0,2,15,2,s,pre,0
13,43,11549,72,64,0,2,15,2,s,pre,0
14,45,11837,76,64,0,2,15,2,s,pre,0
15,47,12051,79,64,0,2,15,2,s,pre,0
16,49,12366,84,64,0,2,15,2,s,pre,0
17,51,12601,83,64,0,2,15,2,s,pre,0
18,52,12625,81,64,0,2,15,2,s,pre,0
19,54,12934,81,64,0,2,15,2,s,pre,0
20,56,13189,81,64,0,2,15,2,s,pre,0
21,59,13655,83,64,0,2,15,2,s,pre,0
22,61,13959,81,64,0,2,15,2,s,pre,0
23,63,14188,84,64,0,2,15,2,s,pre,0
24,65,14452,81,64,0,2,15,2,s,pre,0
25,67,14739,78,64,0,2,15,2,s,pre,0
26,68,14774,79,64,0,2,15,2,s,pre,0
27,70,15149,79,64,0,2,15,2,s,pre,0
28,72,16123,79,64,0,2,15,2,s,pre,0
29,74,16708,77,64,0,2,15,2,s,pre,0
30,76,16997,77,64,0,2,15,2,s,pre,0
31,78,17276,76,64,0,2,15,2,s,pre,0
32,80,17532,76,64,0,2,15,2,s,pre,0
33,82,18259,74,64,0,2,15,2,s,pre,0
34,84,19387,79,64,0,2,15,2,s,pre,0
35,86,19780,77,64,0,2,15,2,s,pre,0
36,88,20042,76,64,0,2,15,2,s,pre,0
37,90,20306,76,64,0,2,15,2,s,pre,0
38,92,20574,76,64,0,2,15,2,s,pre,0
39,94,20846,76,64,0,2,15,2,s,pre,0
40,97,21388,81,64,0,2,15,2,s,pre,0
41,99,21669,77,64,0,2,15,2,s,pre,0
42,101,21877,76,64,0,2,15,2,s,pre,0
43,103,22174,74,64,0,2,15,2,s,pre,0
44,105,22478,76,64,0,2,15,2,s,pre,0
45,107,22731,79,64,0,2,15,2,s,pre,0
46,109,22932,74,64,0,2,15,2,s,pre,0
47,110,23012,71,64,0,2,15,2,s,pre,0
48,112,23251,72,64,0,2,15,2,s,pre,0
49,114,23516,72,64,0,2,15,2,s,pre,0
50,116,23772,74,64,0,2,15,2,s,pre,0
51,118,24039,74,64,0,2,15,2,s,pre,0
52,120,24743,76,64,0,2,15,2,s,pre,0
53,122,25399,65,64,0,2,15,2,s,pre,0
54,124,25664,65,64,0,2,15,2,s,pre,0
55,126,25949,64,64,0,2,15,2,s,pre,0
56,128,26215,64,64,0,2,15,2,s,pre,0
57,130,26844,62,64,0,2,15,2,s,pre,0
58,132,27637,67,64,0,2,15,2,s,pre,0
59,134,27888,67,64,0,2,15,2,s,pre,0
60,136,28156,71,64,0,2,15,2,s,pre,0
61,138,28391,71,64,0,2,15,2,s,pre,0
62,140,28690,72,64,0,2,15,2,s,pre,0
63,142,28959,72,64,0,2,15,2,s,pre,0
64,144,29212,73,64,0,2,15,2,s,pre,0
65,146,29466,73,64,0,2,15,2,s,pre,0
66,149,30278,74,64,0,2,15,2,s,pre,0
67,151,30842,77,64,0,2,15,2,s,pre,0
68,153,31410,76,64,0,2,15,2,s,pre,0
69,155,31912,74,64,0,2,15,2,s,pre,0
70,157,32499,72,64,0,2,15,2,s,pre,0
71,158,32673,84,64,0,2,15,2,s,pre,0
72,160,33615,84,64,0,2,15,2,s,pre,0
1,19,9264,79,64,0,2,16,2,s,pre,0
2,21,9565,78,64,0,2,16,2,s,pre,0
3,23,9876,79,64,0,2,16,2,s,pre,0
4,24,10156,76,64,0,2,16,2,s,pre,0
5,26,10227,72,64,0,2,16,2,s,pre,0
6,28,10534,67,64,0,2,16,2,s,pre,0
7,30,10867,67,64,0,2,16,2,s,pre,0
8,32,11160,67,64,0,2,16,2,s,pre,0
9,35,11794,79,64,0,2,16,2,s,pre,0
10,36,12084,78,64,0,2,16,2,s,pre,0
11,39,12412,79,64,0,2,16,2,s,pre,0
12,41,12724,76,64,0,2,16,2,s,pre,0
13,43,13111,72,64,0,2,16,2,s,pre,0
14,45,13418,76,64,0,2,16,2,s,pre,0
15,47,13677,79,64,0,2,16,2,s,pre,0
16,49,14028,84,64,0,2,16,2,s,pre,0
17,50,14300,83,64,0,2,16,2,s,pre,0
18,52,14419,81,64,0,2,16,2,s,pre,0
19,54,14726,81,64,0,2,16,2,s,pre,0
20,56,15015,81,64,0,2,16,2,s,pre,0
21,59,15655,83,64,0,2,16,2,s,pre,0
22,61,15996,81,64,0,2,16,2,s,pre,0
23,63,16304,84,64,0,2,16,2,s,pre,0
24,65,16663,81,64,0,2,16,2,s,pre,0
25,67,16974,78,64,0,2,16,2,s,pre,0
26,68,17067,79,64,0,2,16,2,s,pre,0
27,70,17614,79,64,0,2,16,2,s,pre,0
28,72,18434,79,64,0,2,16,2,s,pre,0
29,74,19392,77,64,0,2,16,2,s,pre,0
30,76,19720,77,64,0,2,16,2,s,pre,0
31,78,20072,76,64,0,2,16,2,s,pre,0
32,80,20377,76,64,0,2,16,2,s,pre,0
33,82,21124,74,64,0,2,16,2,s,pre,0
34,85,22722,79,64,0,2,16,2,s,pre,0
35,87,23376,77,64,0,2,16,2,s,pre,0
36,88,23400,76,64,0,2,16,2,s,pre,0
37,90,23720,76,64,0,2,16,2,s,pre,0
38,92,24074,76,64,0,2,16,2,s,pre,0
39,94,24350,76,64,0,2,16,2,s,pre,0
40,97,25036,81,64,0,2,16,2,s,pre,0
41,99,25300,77,64,0,2,16,2,s,pre,0
42,101,25620,76,64,0,2,16,2,s,pre,0
43,103,25988,74,64,0,2,16,2,s,pre,0
44,105,26259,76,64,0,2,16,2,s,pre,0
45,107,26628,79,64,0,2,16,2,s,pre,0
46,109,26923,74,64,0,2,16,2,s,pre,0
47,110,27258,71,64,0,2,16,2,s,pre,0
48,112,27302,72,64,0,2,16,2,s,pre,0
49,114,27642,72,64,0,2,16,2,s,pre,0
50,116,27961,74,64,0,2,16,2,s,pre,0
51,118,28274,74,64,0,2,16,2,s,pre,0
52,120,29113,76,64,0,2,16,2,s,pre,0
53,122,29944,65,64,0,2,16,2,s,pre,0
54,124,30264,65,64,0,2,16,2,s,pre,0
55,126,30602,64,64,0,2,16,2,s,pre,0
56,128,30908,64,64,0,2,16,2,s,pre,0
57,130,31635,62,64,0,2,16,2,s,pre,0
58,132,32560,67,64,0,2,16,2,s,pre,0
59,134,32843,67,64,0,2,16,2,s,pre,0
60,136,33186,71,64,0,2,16,2,s,pre,0
61,138,33493,71,64,0,2,16,2,s,pre,0
62,140,33856,72,64,0,2,16,2,s,pre,0
63,142,34156,72,64,0,2,16,2,s,pre,0
64,144,34508,73,64,0,2,16,2,s,pre,0
65,146,34784,73,64,0,2,16,2,s,pre,0
66,149,35724,74,64,0,2,16,2,s,pre,0
67,151,36374,77,64,0,2,16,2,s,pre,0
68,153,36976,76,64,0,2,16,2,s,pre,0
69,154,37620,74,64,0,2,16,2,s,pre,0
70,156,38172,72,64,0,2,16,2,s,pre,0
71,158,38645,84,64,0,2,16,2,s,pre,0
72,160,39446,84,64,0,2,16,2,s,pre,0
1,19,8940,79,64,0,2,17,1,s,pre,0
2,21,9204,78,64,0,2,17,1,s,pre,0
3,23,9510,79,64,0,2,17,1,s,pre,0
4,25,9769,76,64,0,2,17,1,s,pre,0
5,26,9833,72,64,0,2,17,1,s,pre,0
6,28,10093,67,64,0,2,17,1,s,pre,0
7,30,10430,67,64,0,2,17,1,s,pre,0
8,32,10700,67,64,0,2,17,1,s,pre,0
9,35,11435,79,64,0,2,17,1,s,pre,0
10,37,11672,78,64,0,2,17,1,s,pre,0
11,39,11933,79,64,0,2,17,1,s,pre,0
12,41,12278,76,64,0,2,17,1,s,pre,0
13,43,12569,72,64,0,2,17,1,s,pre,0
14,45,12878,76,64,0,2,17,1,s,pre,0
15,47,13115,79,64,0,2,17,1,s,pre,0
16,49,13499,84,64,0,2,17,1,s,pre,0
17,50,13548,83,64,0,2,17,1,s,pre,0
18,52,13794,81,64,0,2,17,1,s,pre,0
19,54,14072,81,64,0,2,17,1,s,pre,0
20,56,14393,81,64,0,2,17,1,s,pre,0
21,59,15030,83,64,0,2,17,1,s,pre,0
22,61,15308,81,64,0,2,17,1,s,pre,0
23,63,15695,84,64,0,2,17,1,s,pre,0
24,65,15858,81,64,0,2,17,1,s,pre,0
25,67,16185,78,64,0,2,17,1,s,pre,0
26,68,16334,79,64,0,2,17,1,s,pre,0
27,70,16817,79,64,0,2,17,1,s,pre,0
28,72,17618,79,64,0,2,17,1,s,pre,0
29,74,18350,77,64,0,2,17,1,s,pre,0
30,76,18640,77,64,0,2,17,1,s,pre,0
31,78,18956,76,64,0,2,17,1,s,pre,0
32,80,19232,76,64,0,2,17,1,s,pre,0
33,82,20057,74,64,0,2,17,1,s,pre,0
34,84,21272,79,64,0,2,17,1,s,pre,0
35,86,21747,77,64,0,2,17,1,s,pre,0
36,88,22087,76,64,0,2,17,1,s,pre,0
37,90,22407,76,64,0,2,17,1,s,pre,0
38,92,22685,76,64,0,2,17,1,s,pre,0
39,94,22961,76,64,0,2,17,1,s,pre,0
40,98,23831,81,64,0,2,17,1,s,pre,0
41,99,23942,77,64,0,2,17,1,s,pre,0
42,101,24124,76,64,0,2,17,1,s,pre,0
43,103,24422,74,64,0,2,17,1,s,pre,0
44,105,24724,76,64,0,2,17,1,s,pre,0
45,107,25066,79,64,0,2,17,1,s,pre,0
46,108,25253,74,64,0,2,17,1,s,pre,0
47,110,25516,71,64,0,2,17,1,s,pre,0
48,112,25588,72,64,0,2,17,1,s,pre,0
49,114,25879,72,64,0,2,17,1,s,pre,0
50,116,26155,74,64,0,2,17,1,s,pre,0
51,118,26460,74,64,0,2,17,1,s,pre,0
52,120,27244,76,64,0,2,17,1,s,pre,0
53,122,28063,65,64,0,2,17,1,s,pre,0
54,124,28363,65,64,0,2,17,1,s,pre,0
55,126,28655,64,64,0,2,17,1,s,pre,0
56,128,28966,64,64,0,2,17,1,s,pre,0
57,130,29650,62,64,0,2,17,1,s,pre,0
58,132,30521,67,64,0,2,17,1,s,pre,0
59,134,30805,67,64,0,2,17,1,s,pre,0
60,136,31116,71,64,0,2,17,1,s,pre,0
61,138,31403,71,64,0,2,17,1,s,pre,0
62,140,31709,72,64,0,2,17,1,s,pre,0
63,142,31979,72,64,0,2,17,1,s,pre,0
64,144,32297,73,64,0,2,17,1,s,pre,0
65,146,32592,73,64,0,2,17,1,s,pre,0
66,148,33450,74,64,0,2,17,1,s,pre,0
67,151,34089,77,64,0,2,17,1,s,pre,0
68,153,34694,76,64,0,2,17,1,s,pre,0
69,154,35239,74,64,0,2,17,1,s,pre,0
70,156,35815,72,64,0,2,17,1,s,pre,0
71,158,36132,84,64,0,2,17,1,s,pre,0
72,160,37125,84,64,0,2,17,1,s,pre,0
1,19,8350,79,64,0,2,17,2,s,pre,0
2,21,8588,78,64,0,2,17,2,s,pre,0
3,23,8880,79,64,0,2,17,2,s,pre,0
4,25,9132,76,64,0,2,17,2,s,pre,0
5,26,9152,72,64,0,2,17,2,s,pre,0
6,28,9440,67,64,0,2,17,2,s,pre,0
7,30,9776,67,64,0,2,17,2,s,pre,0
8,32,10049,67,64,0,2,17,2,s,pre,0
9,35,10748,79,64,0,2,17,2,s,pre,0
10,37,11004,78,64,0,2,17,2,s,pre,0
11,39,11264,79,64,0,2,17,2,s,pre,0
12,41,11608,76,64,0,2,17,2,s,pre,0
13,43,11931,72,64,0,2,17,2,s,pre,0
14,45,12234,76,64,0,2,17,2,s,pre,0
15,47,12452,79,64,0,2,17,2,s,pre,0
16,49,12783,84,64,0,2,17,2,s,pre,0
17,50,12973,83,64,0,2,17,2,s,pre,0
18,52,13082,81,64,0,2,17,2,s,pre,0
19,54,13398,81,64,0,2,17,2,s,pre,0
20,56,13692,81,64,0,2,17,2,s,pre,0
21,59,14354,83,64,0,2,17,2,s,pre,0
22,61,14638,81,64,0,2,17,2,s,pre,0
23,63,15012,84,64,0,2,17,2,s,pre,0
24,65,15200,81,64,0,2,17,2,s,pre,0
25,67,15472,78,64,0,2,17,2,s,pre,0
26,68,15662,79,64,0,2,17,2,s,pre,0
27,70,16116,79,64,0,2,17,2,s,pre,0
28,72,16972,79,64,0,2,17,2,s,pre,0
29,74,17688,77,64,0,2,17,2,s,pre,0
30,76,17968,77,64,0,2,17,2,s,pre,0
31,78,18282,76,64,0,2,17,2,s,pre,0
32,80,18569,76,64,0,2,17,2,s,pre,0
33,82,19358,74,64,0,2,17,2,s,pre,0
34,84,20612,79,64,0,2,17,2,s,pre,0
35,86,21174,77,64,0,2,17,2,s,pre,0
36,88,21354,76,64,0,2,17,2,s,pre,0
37,90,21650,76,64,0,2,17,2,s,pre,0
38,92,21941,76,64,0,2,17,2,s,pre,0
39,94,22238,76,64,0,2,17,2,s,pre,0
40,97,23110,81,64,0,2,17,2,s,pre,0
41,99,23238,77,64,0,2,17,2,s,pre,0
42,101,23434,76,64,0,2,17,2,s,pre,0
43,103,23778,74,64,0,2,17,2,s,pre,0
44,105,24066,76,64,0,2,17,2,s,pre,0
45,107,24468,79,64,0,2,17,2,s,pre,0
46,109,24577,74,64,0,2,17,2,s,pre,0
47,111,24880,71,64,0,2,17,2,s,pre,0
48,112,24913,72,64,0,2,17,2,s,pre,0
49,114,25210,72,64,0,2,17,2,s,pre,0
50,116,25508,74,64,0,2,17,2,s,pre,0
51,118,25788,74,64,0,2,17,2,s,pre,0
52,120,26630,76,64,0,2,17,2,s,pre,0
53,122,27308,65,64,0,2,17,2,s,pre,0
54,124,27608,65,64,0,2,17,2,s,pre,0
55,126,27923,64,64,0,2,17,2,s,pre,0
56,128,28184,64,64,0,2,17,2,s,pre,0
57,130,29053,62,64,0,2,17,2,s,pre,0
58,132,29738,67,64,0,2,17,2,s,pre,0
59,134,30020,67,64,0,2,17,2,s,pre,0
60,136,30327,71,64,0,2,17,2,s,pre,0
61,138,30604,71,64,0,2,17,2,s,pre,0
62,140,30914,72,64,0,2,17,2,s,pre,0
63,142,31168,72,64,0,2,17,2,s,pre,0
64,144,31470,73,64,0,2,17,2,s,pre,0
65,146,31744,73,64,0,2,17,2,s,pre,0
66,148,32604,74,64,0,2,17,2,s,pre,0
67,151,33233,77,64,0,2,17,2,s,pre,0
68,153,33860,76,64,0,2,17,2,s,pre,0
69,154,34388,74,64,0,2,17,2,s,pre,0
70,156,35024,72,64,0,2,17,2,s,pre,0
71,158,35624,84,64,0,2,17,2,s,pre,0
72,160,36527,84,64,0,2,17,2,s,pre,0
1,19,9170,79,64,0,2,19,1,s,pre,0
2,21,9424,78,64,0,2,19,1,s,pre,0
3,23,9681,79,64,0,2,19,1,s,pre,0
4,25,9968,76,64,0,2,19,1,s,pre,0
5,26,10112,72,64,0,2,19,1,s,pre,0
6,28,10234,67,64,0,2,19,1,s,pre,0
7,30,10541,67,64,0,2,19,1,s,pre,0
8,32,10802,67,64,0,2,19,1,s,pre,0
9,35,11281,79,64,0,2,19,1,s,pre,0
10,37,11498,78,64,0,2,19,1,s,pre,0
11,39,11745,79,64,0,2,19,1,s,pre,0
12,41,12002,76,64,0,2,19,1,s,pre,0
13,43,12267,72,64,0,2,19,1,s,pre,0
14,45,12575,76,64,0,2,19,1,s,pre,0
15,47,12718,79,64,0,2,19,1,s,pre,0
16,49,13007,84,64,0,2,19,1,s,pre,0
17,50,13152,83,64,0,2,19,1,s,pre,0
18,52,13264,81,64,0,2,19,1,s,pre,0
19,54,13529,81,64,0,2,19,1,s,pre,0
20,56,13824,81,64,0,2,19,1,s,pre,0
21,59,14244,83,64,0,2,19,1,s,pre,0
22,61,14507,81,64,0,2,19,1,s,pre,0
23,63,14707,84,64,0,2,19,1,s,pre,0
24,65,14941,81,64,0,2,19,1,s,pre,0
25,67,15244,78,64,0,2,19,1,s,pre,0
26,68,15336,79,64,0,2,19,1,s,pre,0
27,70,15850,79,64,0,2,19,1,s,pre,0
28,72,16578,79,64,0,2,19,1,s,pre,0
29,74,17135,77,64,0,2,19,1,s,pre,0
30,76,17399,77,64,0,2,19,1,s,pre,0
31,78,17667,76,64,0,2,19,1,s,pre,0
32,80,17886,76,64,0,2,19,1,s,pre,0
33,82,18375,74,64,0,2,19,1,s,pre,0
34,85,19778,79,64,0,2,19,1,s,pre,0
35,86,20242,77,64,0,2,19,1,s,pre,0
36,88,20326,76,64,0,2,19,1,s,pre,0
37,90,20568,76,64,0,2,19,1,s,pre,0
38,92,20821,76,64,0,2,19,1,s,pre,0
39,94,21071,76,64,0,2,19,1,s,pre,0
40,97,21532,81,64,0,2,19,1,s,pre,0
41,99,21763,77,64,0,2,19,1,s,pre,0
42,101,21980,76,64,0,2,19,1,s,pre,0
43,103,22245,74,64,0,2,19,1,s,pre,0
44,105,22491,76,64,0,2,19,1,s,pre,0
45,107,22749,79,64,0,2,19,1,s,pre,0
46,108,22929,74,64,0,2,19,1,s,pre,0
47,110,23181,71,64,0,2,19,1,s,pre,0
48,112,23229,72,64,0,2,19,1,s,pre,0
49,114,23469,72,64,0,2,19,1,s,pre,0
50,116,23713,74,64,0,2,19,1,s,pre,0
51,118,23967,74,64,0,2,19,1,s,pre,0
52,120,24533,76,64,0,2,19,1,s,pre,0
53,122,25288,65,64,0,2,19,1,s,pre,0
54,124,25555,65,64,0,2,19,1,s,pre,0
55,126,25764,64,64,0,2,19,1,s,pre,0
56,128,26027,64,64,0,2,19,1,s,pre,0
57,130,26620,62,64,0,2,19,1,s,pre,0
58,132,27306,67,64,0,2,19,1,s,pre,0
59,134,27595,67,64,0,2,19,1,s,pre,0
60,136,27820,71,64,0,2,19,1,s,pre,0
61,138,28092,71,64,0,2,19,1,s,pre,0
62,140,28338,72,64,0,2,19,1,s,pre,0
63,142,28582,72,64,0,2,19,1,s,pre,0
64,144,28831,73,64,0,2,19,1,s,pre,0
65,146,29091,73,64,0,2,19,1,s,pre,0
66,149,29799,74,64,0,2,19,1,s,pre,0
67,151,30284,77,64,0,2,19,1,s,pre,0
68,153,30756,76,64,0,2,19,1,s,pre,0
69,155,31257,74,64,0,2,19,1,s,pre,0
70,156,31645,72,64,0,2,19,1,s,pre,0
71,158,32145,84,64,0,2,19,1,s,pre,0
72,160,32654,84,64,0,2,19,1,s,pre,0
1,19,8780,79,64,0,2,19,2,s,pre,0
2,21,9020,78,64,0,2,19,2,s,pre,0
3,23,9283,79,64,0,2,19,2,s,pre,0
4,25,9543,76,64,0,2,19,2,s,pre,0
5,26,9724,72,64,0,2,19,2,s,pre,0
6,28,9796,67,64,0,2,19,2,s,pre,0
7,30,10060,67,64,0,2,19,2,s,pre,0
8,32,10329,67,64,0,2,19,2,s,pre,0
9,35,10799,79,64,0,2,19,2,s,pre,0
10,37,11012,78,64,0,2,19,2,s,pre,0
11,39,11260,79,64,0,2,19,2,s,pre,0
12,41,11528,76,64,0,2,19,2,s,pre,0
13,43,11776,72,64,0,2,19,2,s,pre,0
14,45,12060,76,64,0,2,19,2,s,pre,0
15,47,12229,79,64,0,2,19,2,s,pre,0
16,49,12488,84,64,0,2,19,2,s,pre,0
17,50,12670,83,64,0,2,19,2,s,pre,0
18,52,12756,81,64,0,2,19,2,s,pre,0
19,54,13027,81,64,0,2,19,2,s,pre,0
20,56,13246,81,64,0,2,19,2,s,pre,0
21,59,13713,83,64,0,2,19,2,s,pre,0
22,61,13925,81,64,0,2,19,2,s,pre,0
23,63,14184,84,64,0,2,19,2,s,pre,0
24,65,14420,81,64,0,2,19,2,s,pre,0
25,67,14664,78,64,0,2,19,2,s,pre,0
26,68,14739,79,64,0,2,19,2,s,pre,0
27,70,15190,79,64,0,2,19,2,s,pre,0
28,72,15779,79,64,0,2,19,2,s,pre,0
29,74,16523,77,64,0,2,19,2,s,pre,0
30,76,16774,77,64,0,2,19,2,s,pre,0
31,78,17023,76,64,0,2,19,2,s,pre,0
32,80,17270,76,64,0,2,19,2,s,pre,0
33,82,17756,74,64,0,2,19,2,s,pre,0
34,84,19032,79,64,0,2,19,2,s,pre,0
35,86,19264,77,64,0,2,19,2,s,pre,0
36,88,19572,76,64,0,2,19,2,s,pre,0
37,90,19824,76,64,0,2,19,2,s,pre,0
38,92,20072,76,64,0,2,19,2,s,pre,0
39,94,20331,76,64,0,2,19,2,s,pre,0
40,97,20773,81,64,0,2,19,2,s,pre,0
41,99,21023,77,64,0,2,19,2,s,pre,0
42,101,21229,76,64,0,2,19,2,s,pre,0
43,102,21440,74,64,0,2,19,2,s,pre,0
44,105,21726,76,64,0,2,19,2,s,pre,0
45,107,21962,79,64,0,2,19,2,s,pre,0
46,109,22160,74,64,0,2,19,2,s,pre,0
47,110,22282,71,64,0,2,19,2,s,pre,0
48,112,22479,72,64,0,2,19,2,s,pre,0
49,114,22691,72,64,0,2,19,2,s,pre,0
50,116,22905,74,64,0,2,19,2,s,pre,0
51,118,23161,74,64,0,2,19,2,s,pre,0
52,120,23736,76,64,0,2,19,2,s,pre,0
53,122,24419,65,64,0,2,19,2,s,pre,0
54,124,24657,65,64,0,2,19,2,s,pre,0
55,126,24896,64,64,0,2,19,2,s,pre,0
56,128,25115,64,64,0,2,19,2,s,pre,0
57,130,25701,62,64,0,2,19,2,s,pre,0
58,132,26357,67,64,0,2,19,2,s,pre,0
59,134,26589,67,64,0,2,19,2,s,pre,0
60,136,26823,71,64,0,2,19,2,s,pre,0
61,138,27080,71,64,0,2,19,2,s,pre,0
62,140,27314,72,64,0,2,19,2,s,pre,0
63,142,27564,72,64,0,2,19,2,s,pre,0
64,144,27818,73,64,0,2,19,2,s,pre,0
65,146,28063,73,64,0,2,19,2,s,pre,0
66,149,28780,74,64,0,2,19,2,s,pre,0
67,151,29263,77,64,0,2,19,2,s,pre,0
68,153,29753,76,64,0,2,19,2,s,pre,0
69,155,30231,74,64,0,2,19,2,s,pre,0
70,156,30659,72,64,0,2,19,2,s,pre,0
71,158,31000,84,64,0,2,19,2,s,pre,0
72,160,31509,84,64,0,2,19,2,s,pre,0
