RowNr,NoteNr,TimeStamp,Pitch,Velocity,Key_OnOff,Device,SubNr,TrialNr,Stimuli,Session,Error
1,17,7882,79,60,1,2,2,1,s,pre,0
2,18,8196,78,81,1,2,2,1,s,pre,0
3,20,8488,79,81,1,2,2,1,s,pre,0
4,22,8763,76,84,1,2,2,1,s,pre,0
5,24,9064,72,82,1,2,2,1,s,pre,0
6,27,9387,67,54,1,2,2,1,s,pre,0
7,29,9688,67,52,1,2,2,1,s,pre,0
8,31,9996,67,52,1,2,2,1,s,pre,0
9,33,10299,79,70,1,2,2,1,s,pre,0
10,34,10577,78,78,1,2,2,1,s,pre,0
11,36,10890,79,88,1,2,2,1,s,pre,0
12,38,11171,76,86,1,2,2,1,s,pre,0
13,40,11462,72,78,1,2,2,1,s,pre,0
14,42,11746,76,88,1,2,2,1,s,pre,0
15,44,12032,79,87,1,2,2,1,s,pre,0
16,46,12318,84,95,1,2,2,1,s,pre,0
17,48,12600,83,86,1,2,2,1,s,pre,0
18,51,12920,81,55,1,2,2,1,s,pre,0
19,53,13216,81,57,1,2,2,1,s,pre,0
20,55,13496,81,65,1,2,2,1,s,pre,0
21,57,13805,83,66,1,2,2,1,s,pre,0
22,58,14089,81,85,1,2,2,1,s,pre,0
23,60,14394,84,82,1,2,2,1,s,pre,0
24,62,14666,81,88,1,2,2,1,s,pre,0
25,64,14975,78,87,1,2,2,1,s,pre,0
26,66,15267,79,76,1,2,2,1,s,pre,0
27,69,15591,79,91,1,2,2,1,s,pre,0
28,71,16228,79,91,1,2,2,1,s,pre,0
29,73,17650,77,63,1,2,2,1,s,pre,0
30,75,17945,77,59,1,2,2,1,s,pre,0
31,77,18235,76,57,1,2,2,1,s,pre,0
32,79,18530,76,53,1,2,2,1,s,pre,0
33,81,18878,74,52,1,2,2,1,s,pre,0
34,83,20153,79,59,1,2,2,1,s,pre,0
35,84,20777,77,65,1,2,2,1,s,pre,0
36,86,21373,76,56,1,2,2,1,s,pre,0
37,89,21679,76,50,1,2,2,1,s,pre,0
38,91,21959,76,55,1,2,2,1,s,pre,0
39,93,22255,76,56,1,2,2,1,s,pre,0
40,95,22595,81,70,1,2,2,1,s,pre,0
41,96,22886,77,71,1,2,2,1,s,pre,0
42,98,23195,76,76,1,2,2,1,s,pre,0
43,100,23475,74,81,1,2,2,1,s,pre,0
44,102,23769,76,78,1,2,2,1,s,pre,0
45,104,24044,79,82,1,2,2,1,s,pre,0
46,106,24328,74,84,1,2,2,1,s,pre,0
47,108,24615,71,73,1,2,2,1,s,pre,0
48,111,24915,72,53,1,2,2,1,s,pre,0
49,113,25196,72,58,1,2,2,1,s,pre,0
50,115,25499,74,50,1,2,2,1,s,pre,0
51,117,25771,74,58,1,2,2,1,s,pre,0
52,119,26128,76,43,1,2,2,1,s,pre,0
53,121,27473,65,56,1,2,2,1,s,pre,0
54,123,27747,65,62,1,2,2,1,s,pre,0
55,125,28072,64,60,1,2,2,1,s,pre,0
56,127,28341,64,61,1,2,2,1,s,pre,0
57,129,28714,62,45,1,2,2,1,s,pre,0
58,131,30075,67,50,1,2,2,1,s,pre,0
59,133,30365,67,58,1,2,2,1,s,pre,0
60,135,30657,71,59,1,2,2,1,s,pre,0
61,137,30940,71,73,1,2,2,1,s,pre,0
62,139,31238,72,77,1,2,2,1,s,pre,0
63,141,31517,72,79,1,2,2,1,s,pre,0
64,143,31797,73,81,1,2,2,1,s,pre,0
65,145,32080,73,96,1,2,2,1,s,pre,0
66,147,32423,74,93,1,2,2,1,s,pre,0
67,148,33046,77,93,1,2,2,1,s,pre,0
68,150,33650,76,91,1,2,2,1,s,pre,0
69,152,34213,74,91,1,2,2,1,s,pre,0
70,154,34822,72,95,1,2,2,1,s,pre,0
71,156,35427,84,94,1,2,2,1,s,pre,0
72,159,36076,84,94,1,2,2,1,s,pre,0
1,17,7849,79,76,1,2,2,2,s,pre,0
2,18,8150,78,81,1,2,2,2,s,pre,0
3,20,8434,79,84,1,2,2,2,s,pre,0
4,22,8717,76,87,1,2,2,2,s,pre,0
5,24,9013,72,83,1,2,2,2,s,pre,0
6,27,9307,67,52,1,2,2,2,s,pre,0
7,29,9593,67,47,1,2,2,2,s,pre,0
8,31,9890,67,64,1,2,2,2,s,pre,0
9,33,10175,79,73,1,2,2,2,s,pre,0
10,34,10467,78,81,1,2,2,2,s,pre,0
11,36,10759,79,87,1,2,2,2,s,pre,0
12,38,11038,76,78,1,2,2,2,s,pre,0
13,40,11317,72,82,1,2,2,2,s,pre,0
14,42,11588,76,87,1,2,2,2,s,pre,0
15,44,11866,79,91,1,2,2,2,s,pre,0
16,46,12145,84,95,1,2,2,2,s,pre,0
17,48,12423,83,87,1,2,2,2,s,pre,0
18,51,12740,81,59,1,2,2,2,s,pre,0
19,53,13022,81,50,1,2,2,2,s,pre,0
20,55,13298,81,65,1,2,2,2,s,pre,0
21,57,13587,83,71,1,2,2,2,s,pre,0
22,58,13873,81,82,1,2,2,2,s,pre,0
23,60,14163,84,89,1,2,2,2,s,pre,0
24,62,14426,81,87,1,2,2,2,s,pre,0
25,64,14710,78,83,1,2,2,2,s,pre,0
26,66,14992,79,84,1,2,2,2,s,pre,0
27,69,15303,79,76,1,2,2,2,s,pre,0
28,71,15914,79,73,1,2,2,2,s,pre,0
29,73,17176,77,59,1,2,2,2,s,pre,0
30,75,17470,77,61,1,2,2,2,s,pre,0
31,77,17749,76,54,1,2,2,2,s,pre,0
32,79,18026,76,54,1,2,2,2,s,pre,0
33,81,18365,74,53,1,2,2,2,s,pre,0
34,83,19598,79,53,1,2,2,2,s,pre,0
35,84,20175,77,61,1,2,2,2,s,pre,0
36,86,20771,76,58,1,2,2,2,s,pre,0
37,89,21056,76,57,1,2,2,2,s,pre,0
38,91,21335,76,59,1,2,2,2,s,pre,0
39,93,21618,76,56,1,2,2,2,s,pre,0
40,95,21934,81,81,1,2,2,2,s,pre,0
41,96,22237,77,81,1,2,2,2,s,pre,0
42,98,22512,76,82,1,2,2,2,s,pre,0
43,100,22783,74,89,1,2,2,2,s,pre,0
44,102,23072,76,83,1,2,2,2,s,pre,0
45,104,23341,79,83,1,2,2,2,s,pre,0
46,106,23634,74,79,1,2,2,2,s,pre,0
47,108,23902,71,72,1,2,2,2,s,pre,0
48,111,24203,72,58,1,2,2,2,s,pre,0
49,113,24465,72,57,1,2,2,2,s,pre,0
50,115,24753,74,59,1,2,2,2,s,pre,0
51,117,25033,74,51,1,2,2,2,s,pre,0
52,119,25375,76,37,1,2,2,2,s,pre,0
53,121,26670,65,62,1,2,2,2,s,pre,0
54,123,26949,65,68,1,2,2,2,s,pre,0
55,125,27249,64,55,1,2,2,2,s,pre,0
56,127,27530,64,61,1,2,2,2,s,pre,0
57,129,27871,62,49,1,2,2,2,s,pre,0
58,131,29115,67,53,1,2,2,2,s,pre,0
59,133,29397,67,56,1,2,2,2,s,pre,0
60,135,29689,71,52,1,2,2,2,s,pre,0
61,137,29978,71,70,1,2,2,2,s,pre,0
62,139,30269,72,74,1,2,2,2,s,pre,0
63,141,30544,72,77,1,2,2,2,s,pre,0
64,143,30830,73,76,1,2,2,2,s,pre,0
65,145,31113,73,79,1,2,2,2,s,pre,0
66,147,31449,74,76,1,2,2,2,s,pre,0
67,148,32044,77,90,1,2,2,2,s,pre,0
68,150,32613,76,88,1,2,2,2,s,pre,0
69,152,33195,74,90,1,2,2,2,s,pre,0
70,155,33783,72,81,1,2,2,2,s,pre,0
71,157,34352,84,90,1,2,2,2,s,pre,0
72,159,34994,84,84,1,2,2,2,s,pre,0
1,17,7962,79,74,1,2,3,1,s,pre,0
2,18,8286,78,83,1,2,3,1,s,pre,0
3,20,8550,79,79,1,2,3,1,s,pre,0
4,22,8816,76,74,1,2,3,1,s,pre,0
5,24,9106,72,70,1,2,3,1,s,pre,0
6,27,9396,67,51,1,2,3,1,s,pre,0
7,29,9652,67,52,1,2,3,1,s,pre,0
8,31,9910,67,59,1,2,3,1,s,pre,0
9,33,10300,79,67,1,2,3,1,s,pre,0
10,34,10568,78,75,1,2,3,1,s,pre,0
11,36,10830,79,78,1,2,3,1,s,pre,0
12,38,11083,76,76,1,2,3,1,s,pre,0
13,40,11322,72,85,1,2,3,1,s,pre,0
14,42,11570,76,90,1,2,3,1,s,pre,0
15,44,11817,79,89,1,2,3,1,s,pre,0
16,46,12058,84,88,1,2,3,1,s,pre,0
17,48,12344,83,84,1,2,3,1,s,pre,0
18,50,12636,81,71,1,2,3,1,s,pre,0
19,53,12885,81,62,1,2,3,1,s,pre,0
20,55,13120,81,68,1,2,3,1,s,pre,0
21,57,13386,83,62,1,2,3,1,s,pre,0
22,58,13644,81,75,1,2,3,1,s,pre,0
23,60,13894,84,75,1,2,3,1,s,pre,0
24,62,14153,81,79,1,2,3,1,s,pre,0
25,64,14396,78,88,1,2,3,1,s,pre,0
26,66,14645,79,86,1,2,3,1,s,pre,0
27,69,14922,79,73,1,2,3,1,s,pre,0
28,71,15502,79,64,1,2,3,1,s,pre,0
29,73,16770,77,67,1,2,3,1,s,pre,0
30,75,17022,77,62,1,2,3,1,s,pre,0
31,77,17282,76,58,1,2,3,1,s,pre,0
32,79,17538,76,56,1,2,3,1,s,pre,0
33,81,17812,74,58,1,2,3,1,s,pre,0
34,83,18993,79,65,1,2,3,1,s,pre,0
35,85,19516,77,57,1,2,3,1,s,pre,0
36,87,20102,76,33,1,2,3,1,s,pre,0
37,89,20449,76,48,1,2,3,1,s,pre,0
38,91,20706,76,55,1,2,3,1,s,pre,0
39,93,20962,76,63,1,2,3,1,s,pre,0
40,95,21262,81,57,1,2,3,1,s,pre,0
41,96,21538,77,62,1,2,3,1,s,pre,0
42,98,21780,76,68,1,2,3,1,s,pre,0
43,100,22016,74,75,1,2,3,1,s,pre,0
44,102,22264,76,87,1,2,3,1,s,pre,0
45,104,22492,79,90,1,2,3,1,s,pre,0
46,106,22723,74,78,1,2,3,1,s,pre,0
47,108,22964,71,75,1,2,3,1,s,pre,0
48,110,23204,72,77,1,2,3,1,s,pre,0
49,113,23436,72,69,1,2,3,1,s,pre,0
50,115,23664,74,64,1,2,3,1,s,pre,0
51,117,23906,74,70,1,2,3,1,s,pre,0
52,119,24190,76,60,1,2,3,1,s,pre,0
53,121,25316,65,66,1,2,3,1,s,pre,0
54,123,25558,65,70,1,2,3,1,s,pre,0
55,125,25832,64,53,1,2,3,1,s,pre,0
56,127,26079,64,58,1,2,3,1,s,pre,0
57,129,26366,62,51,1,2,3,1,s,pre,0
58,131,27516,67,46,1,2,3,1,s,pre,0
59,133,27772,67,54,1,2,3,1,s,pre,0
60,135,28023,71,66,1,2,3,1,s,pre,0
61,137,28252,71,70,1,2,3,1,s,pre,0
62,139,28506,72,85,1,2,3,1,s,pre,0
63,141,28746,72,74,1,2,3,1,s,pre,0
64,143,28992,73,93,1,2,3,1,s,pre,0
65,145,29238,73,96,1,2,3,1,s,pre,0
66,147,29510,74,91,1,2,3,1,s,pre,0
67,149,29982,77,93,1,2,3,1,s,pre,0
68,151,30472,76,95,1,2,3,1,s,pre,0
69,153,30968,74,97,1,2,3,1,s,pre,0
70,155,31454,72,101,1,2,3,1,s,pre,0
71,157,31968,84,99,1,2,3,1,s,pre,0
72,159,32502,84,103,1,2,3,1,s,pre,0
1,17,7969,79,79,1,2,3,2,s,pre,0
2,18,8285,78,98,1,2,3,2,s,pre,0
3,20,8545,79,84,1,2,3,2,s,pre,0
4,22,8800,76,90,1,2,3,2,s,pre,0
5,24,9075,72,95,1,2,3,2,s,pre,0
6,27,9398,67,74,1,2,3,2,s,pre,0
7,29,9658,67,69,1,2,3,2,s,pre,0
8,31,9903,67,78,1,2,3,2,s,pre,0
9,33,10229,79,89,1,2,3,2,s,pre,0
10,34,10495,78,103,1,2,3,2,s,pre,0
11,36,10741,79,95,1,2,3,2,s,pre,0
12,38,10981,76,81,1,2,3,2,s,pre,0
13,40,11243,72,79,1,2,3,2,s,pre,0
14,42,11489,76,87,1,2,3,2,s,pre,0
15,44,11739,79,99,1,2,3,2,s,pre,0
16,46,11995,84,91,1,2,3,2,s,pre,0
17,48,12343,83,81,1,2,3,2,s,pre,0
18,50,12635,81,78,1,2,3,2,s,pre,0
19,53,12869,81,70,1,2,3,2,s,pre,0
20,55,13113,81,66,1,2,3,2,s,pre,0
21,57,13363,83,86,1,2,3,2,s,pre,0
22,58,13619,81,93,1,2,3,2,s,pre,0
23,60,13877,84,87,1,2,3,2,s,pre,0
24,62,14121,81,94,1,2,3,2,s,pre,0
25,64,14387,78,86,1,2,3,2,s,pre,0
26,66,14629,79,84,1,2,3,2,s,pre,0
27,69,14899,79,68,1,2,3,2,s,pre,0
28,71,15483,79,74,1,2,3,2,s,pre,0
29,73,16721,77,68,1,2,3,2,s,pre,0
30,75,16975,77,68,1,2,3,2,s,pre,0
31,77,17227,76,59,1,2,3,2,s,pre,0
32,79,17475,76,55,1,2,3,2,s,pre,0
33,81,17745,74,54,1,2,3,2,s,pre,0
34,83,18905,79,76,1,2,3,2,s,pre,0
35,85,19431,77,72,1,2,3,2,s,pre,0
36,87,20037,76,60,1,2,3,2,s,pre,0
37,89,20311,76,63,1,2,3,2,s,pre,0
38,91,20545,76,71,1,2,3,2,s,pre,0
39,93,20786,76,78,1,2,3,2,s,pre,0
40,95,21132,81,85,1,2,3,2,s,pre,0
41,96,21471,77,85,1,2,3,2,s,pre,0
42,98,21729,76,91,1,2,3,2,s,pre,0
43,101,21973,74,91,1,2,3,2,s,pre,0
44,103,22206,76,95,1,2,3,2,s,pre,0
45,104,22434,79,90,1,2,3,2,s,pre,0
46,106,22671,74,85,1,2,3,2,s,pre,0
47,108,22905,71,74,1,2,3,2,s,pre,0
48,111,23141,72,78,1,2,3,2,s,pre,0
49,113,23365,72,75,1,2,3,2,s,pre,0
50,115,23599,74,72,1,2,3,2,s,pre,0
51,117,23841,74,63,1,2,3,2,s,pre,0
52,119,24113,76,53,1,2,3,2,s,pre,0
53,121,25247,65,68,1,2,3,2,s,pre,0
54,123,25491,65,57,1,2,3,2,s,pre,0
55,125,25743,64,61,1,2,3,2,s,pre,0
56,127,25988,64,57,1,2,3,2,s,pre,0
57,129,26261,62,52,1,2,3,2,s,pre,0
58,131,27427,67,58,1,2,3,2,s,pre,0
59,133,27671,67,63,1,2,3,2,s,pre,0
60,135,27920,71,75,1,2,3,2,s,pre,0
61,137,28151,71,78,1,2,3,2,s,pre,0
62,139,28384,72,90,1,2,3,2,s,pre,0
63,141,28620,72,95,1,2,3,2,s,pre,0
64,143,28861,73,104,1,2,3,2,s,pre,0
65,145,29093,73,105,1,2,3,2,s,pre,0
66,147,29351,74,110,1,2,3,2,s,pre,0
67,149,29853,77,100,1,2,3,2,s,pre,0
68,151,30315,76,91,1,2,3,2,s,pre,0
69,153,30795,74,97,1,2,3,2,s,pre,0
70,155,31293,72,98,1,2,3,2,s,pre,0
71,157,31809,84,101,1,2,3,2,s,pre,0
72,159,32394,84,100,1,2,3,2,s,pre,0
1,17,7822,79,93,1,2,4,2,s,pre,0
2,18,8100,78,98,1,2,4,2,s,pre,0
3,20,8392,79,97,1,2,4,2,s,pre,0
4,22,8651,76,90,1,2,4,2,s,pre,0
5,24,8935,72,105,1,2,4,2,s,pre,0
6,26,9195,67,76,1,2,4,2,s,pre,0
7,29,9477,67,58,1,2,4,2,s,pre,0
8,31,9749,67,62,1,2,4,2,s,pre,0
9,33,10082,79,67,1,2,4,2,s,pre,0
10,34,10351,78,82,1,2,4,2,s,pre,0
11,36,10629,79,81,1,2,4,2,s,pre,0
12,38,10901,76,78,1,2,4,2,s,pre,0
13,40,11190,72,87,1,2,4,2,s,pre,0
14,42,11472,76,88,1,2,4,2,s,pre,0
15,44,11745,79,99,1,2,4,2,s,pre,0
16,46,12011,84,97,1,2,4,2,s,pre,0
17,48,12293,83,95,1,2,4,2,s,pre,0
18,50,12583,81,70,1,2,4,2,s,pre,0
19,53,12856,81,63,1,2,4,2,s,pre,0
20,55,13107,81,66,1,2,4,2,s,pre,0
21,57,13403,83,76,1,2,4,2,s,pre,0
22,58,13664,81,88,1,2,4,2,s,pre,0
23,60,13953,84,91,1,2,4,2,s,pre,0
24,62,14221,81,79,1,2,4,2,s,pre,0
25,64,14504,78,86,1,2,4,2,s,pre,0
26,66,14786,79,79,1,2,4,2,s,pre,0
27,69,15066,79,78,1,2,4,2,s,pre,0
28,71,15633,79,63,1,2,4,2,s,pre,0
29,73,16718,77,64,1,2,4,2,s,pre,0
30,75,16985,77,67,1,2,4,2,s,pre,0
31,77,17259,76,68,1,2,4,2,s,pre,0
32,79,17526,76,67,1,2,4,2,s,pre,0
33,81,17874,74,55,1,2,4,2,s,pre,0
34,83,18991,79,55,1,2,4,2,s,pre,0
35,85,19568,77,56,1,2,4,2,s,pre,0
36,87,20131,76,66,1,2,4,2,s,pre,0
37,89,20390,76,70,1,2,4,2,s,pre,0
38,91,20672,76,65,1,2,4,2,s,pre,0
39,93,20939,76,63,1,2,4,2,s,pre,0
40,95,21265,81,75,1,2,4,2,s,pre,0
41,96,21567,77,81,1,2,4,2,s,pre,0
42,98,21840,76,90,1,2,4,2,s,pre,0
43,100,22095,74,95,1,2,4,2,s,pre,0
44,102,22385,76,91,1,2,4,2,s,pre,0
45,104,22657,79,101,1,2,4,2,s,pre,0
46,106,22929,74,99,1,2,4,2,s,pre,0
47,108,23184,71,89,1,2,4,2,s,pre,0
48,111,23491,72,72,1,2,4,2,s,pre,0
49,113,23743,72,68,1,2,4,2,s,pre,0
50,115,24026,74,66,1,2,4,2,s,pre,0
51,117,24305,74,50,1,2,4,2,s,pre,0
52,119,24626,76,45,1,2,4,2,s,pre,0
53,121,25679,65,79,1,2,4,2,s,pre,0
54,123,25936,65,78,1,2,4,2,s,pre,0
55,125,26221,64,62,1,2,4,2,s,pre,0
56,127,26480,64,66,1,2,4,2,s,pre,0
57,129,26853,62,34,1,2,4,2,s,pre,0
58,131,27904,67,65,1,2,4,2,s,pre,0
59,133,28153,67,70,1,2,4,2,s,pre,0
60,135,28442,71,62,1,2,4,2,s,pre,0
61,137,28710,71,65,1,2,4,2,s,pre,0
62,139,28975,72,76,1,2,4,2,s,pre,0
63,141,29243,72,71,1,2,4,2,s,pre,0
64,143,29505,73,78,1,2,4,2,s,pre,0
65,145,29774,73,76,1,2,4,2,s,pre,0
66,147,30116,74,70,1,2,4,2,s,pre,0
67,149,30674,77,89,1,2,4,2,s,pre,0
68,151,31239,76,95,1,2,4,2,s,pre,0
69,153,31819,74,106,1,2,4,2,s,pre,0
70,154,32395,72,104,1,2,4,2,s,pre,0
71,156,32960,84,105,1,2,4,2,s,pre,0
72,159,33612,84,101,1,2,4,2,s,pre,0
1,17,9190,79,58,1,2,7,1,s,pre,0
2,18,9495,78,83,1,2,7,1,s,pre,0
3,20,9820,79,81,1,2,7,1,s,pre,0
4,22,10148,76,71,1,2,7,1,s,pre,0
5,25,10502,72,64,1,2,7,1,s,pre,0
6,27,10846,67,51,1,2,7,1,s,pre,0
7,29,11172,67,44,1,2,7,1,s,pre,0
8,31,11538,67,45,1,2,7,1,s,pre,0
9,33,11876,79,60,1,2,7,1,s,pre,0
10,34,12198,78,79,1,2,7,1,s,pre,0
11,36,12529,79,81,1,2,7,1,s,pre,0
12,38,12862,76,61,1,2,7,1,s,pre,0
13,41,13210,72,59,1,2,7,1,s,pre,0
14,42,13553,76,76,1,2,7,1,s,pre,0
15,44,13879,79,83,1,2,7,1,s,pre,0
16,46,14216,84,88,1,2,7,1,s,pre,0
17,48,14602,83,72,1,2,7,1,s,pre,0
18,51,14963,81,57,1,2,7,1,s,pre,0
19,53,15272,81,62,1,2,7,1,s,pre,0
20,55,15606,81,56,1,2,7,1,s,pre,0
21,57,15952,83,65,1,2,7,1,s,pre,0
22,58,16266,81,72,1,2,7,1,s,pre,0
23,60,16618,84,81,1,2,7,1,s,pre,0
24,62,16948,81,79,1,2,7,1,s,pre,0
25,64,17308,78,74,1,2,7,1,s,pre,0
26,66,17650,79,62,1,2,7,1,s,pre,0
27,69,18042,79,62,1,2,7,1,s,pre,0
28,71,18735,79,57,1,2,7,1,s,pre,0
29,73,20402,77,63,1,2,7,1,s,pre,0
30,75,20726,77,66,1,2,7,1,s,pre,0
31,77,21054,76,59,1,2,7,1,s,pre,0
32,79,21410,76,52,1,2,7,1,s,pre,0
33,81,21773,74,53,1,2,7,1,s,pre,0
34,83,23181,79,57,1,2,7,1,s,pre,0
35,85,23889,77,57,1,2,7,1,s,pre,0
36,87,24572,76,58,1,2,7,1,s,pre,0
37,89,24906,76,55,1,2,7,1,s,pre,0
38,91,25247,76,60,1,2,7,1,s,pre,0
39,93,25582,76,62,1,2,7,1,s,pre,0
40,95,25969,81,76,1,2,7,1,s,pre,0
41,96,26309,77,87,1,2,7,1,s,pre,0
42,98,26656,76,72,1,2,7,1,s,pre,0
43,100,26988,74,74,1,2,7,1,s,pre,0
44,102,27346,76,74,1,2,7,1,s,pre,0
45,104,27701,79,74,1,2,7,1,s,pre,0
46,106,28054,74,65,1,2,7,1,s,pre,0
47,109,28409,71,60,1,2,7,1,s,pre,0
48,111,28739,72,67,1,2,7,1,s,pre,0
49,113,29078,72,58,1,2,7,1,s,pre,0
50,115,29425,74,64,1,2,7,1,s,pre,0
51,117,29773,74,66,1,2,7,1,s,pre,0
52,119,30180,76,48,1,2,7,1,s,pre,0
53,121,31530,65,61,1,2,7,1,s,pre,0
54,123,31878,65,63,1,2,7,1,s,pre,0
55,125,32238,64,54,1,2,7,1,s,pre,0
56,127,32595,64,52,1,2,7,1,s,pre,0
57,129,32985,62,52,1,2,7,1,s,pre,0
58,131,34322,67,56,1,2,7,1,s,pre,0
59,133,34656,67,66,1,2,7,1,s,pre,0
60,135,34994,71,60,1,2,7,1,s,pre,0
61,137,35337,71,59,1,2,7,1,s,pre,0
62,139,35674,72,71,1,2,7,1,s,pre,0
63,141,36012,72,68,1,2,7,1,s,pre,0
64,143,36349,73,70,1,2,7,1,s,pre,0
65,145,36673,73,72,1,2,7,1,s,pre,0
66,147,37054,74,90,1,2,7,1,s,pre,0
67,149,37794,77,90,1,2,7,1,s,pre,0
68,150,38535,76,80,1,2,7,1,s,pre,0
69,152,39251,74,75,1,2,7,1,s,pre,0
70,155,39977,72,72,1,2,7,1,s,pre,0
71,157,40694,84,83,1,2,7,1,s,pre,0
72,159,41479,84,81,1,2,7,1,s,pre,0
1,17,7888,79,83,1,2,8,2,s,pre,0
2,18,8164,78,91,1,2,8,2,s,pre,0
3,20,8478,79,88,1,2,8,2,s,pre,0
4,22,8763,76,86,1,2,8,2,s,pre,0
5,24,9072,72,87,1,2,8,2,s,pre,0
6,27,9370,67,49,1,2,8,2,s,pre,0
7,29,9640,67,56,1,2,8,2,s,pre,0
8,31,9943,67,61,1,2,8,2,s,pre,0
9,33,10267,79,79,1,2,8,2,s,pre,0
10,34,10557,78,88,1,2,8,2,s,pre,0
11,36,10858,79,91,1,2,8,2,s,pre,0
12,38,11142,76,83,1,2,8,2,s,pre,0
13,41,11455,72,76,1,2,8,2,s,pre,0
14,42,11738,76,84,1,2,8,2,s,pre,0
15,44,12027,79,91,1,2,8,2,s,pre,0
16,46,12312,84,98,1,2,8,2,s,pre,0
17,48,12631,83,91,1,2,8,2,s,pre,0
18,51,12935,81,70,1,2,8,2,s,pre,0
19,53,13248,81,45,1,2,8,2,s,pre,0
20,55,13532,81,58,1,2,8,2,s,pre,0
21,57,13850,83,77,1,2,8,2,s,pre,0
22,58,14139,81,88,1,2,8,2,s,pre,0
23,60,14442,84,95,1,2,8,2,s,pre,0
24,62,14728,81,85,1,2,8,2,s,pre,0
25,65,15031,78,86,1,2,8,2,s,pre,0
26,66,15320,79,87,1,2,8,2,s,pre,0
27,69,15668,79,90,1,2,8,2,s,pre,0
28,71,16254,79,79,1,2,8,2,s,pre,0
29,73,17496,77,54,1,2,8,2,s,pre,0
30,75,17798,77,58,1,2,8,2,s,pre,0
31,77,18089,76,52,1,2,8,2,s,pre,0
32,79,18370,76,56,1,2,8,2,s,pre,0
33,81,18696,74,51,1,2,8,2,s,pre,0
34,83,19956,79,60,1,2,8,2,s,pre,0
35,84,20571,77,57,1,2,8,2,s,pre,0
36,87,21168,76,44,1,2,8,2,s,pre,0
37,89,21472,76,44,1,2,8,2,s,pre,0
38,91,21764,76,50,1,2,8,2,s,pre,0
39,93,22038,76,53,1,2,8,2,s,pre,0
40,95,22396,81,69,1,2,8,2,s,pre,0
41,96,22707,77,83,1,2,8,2,s,pre,0
42,98,22999,76,85,1,2,8,2,s,pre,0
43,100,23282,74,91,1,2,8,2,s,pre,0
44,102,23609,76,91,1,2,8,2,s,pre,0
45,104,23887,79,94,1,2,8,2,s,pre,0
46,106,24185,74,94,1,2,8,2,s,pre,0
47,108,24478,71,80,1,2,8,2,s,pre,0
48,110,24778,72,68,1,2,8,2,s,pre,0
49,113,25067,72,60,1,2,8,2,s,pre,0
50,115,25350,74,55,1,2,8,2,s,pre,0
51,117,25652,74,53,1,2,8,2,s,pre,0
52,119,25991,76,38,1,2,8,2,s,pre,0
53,121,27218,65,42,1,2,8,2,s,pre,0
54,123,27496,65,59,1,2,8,2,s,pre,0
55,125,27787,64,56,1,2,8,2,s,pre,0
56,127,28080,64,58,1,2,8,2,s,pre,0
57,129,28438,62,43,1,2,8,2,s,pre,0
58,131,29609,67,50,1,2,8,2,s,pre,0
59,133,29886,67,56,1,2,8,2,s,pre,0
60,135,30176,71,56,1,2,8,2,s,pre,0
61,137,30452,71,69,1,2,8,2,s,pre,0
62,139,30754,72,75,1,2,8,2,s,pre,0
63,141,31027,72,78,1,2,8,2,s,pre,0
64,143,31336,73,88,1,2,8,2,s,pre,0
65,145,31620,73,88,1,2,8,2,s,pre,0
66,147,31940,74,89,1,2,8,2,s,pre,0
67,148,32526,77,98,1,2,8,2,s,pre,0
68,150,33126,76,93,1,2,8,2,s,pre,0
69,152,33680,74,89,1,2,8,2,s,pre,0
70,155,34252,72,93,1,2,8,2,s,pre,0
71,156,34834,84,100,1,2,8,2,s,pre,0
72,159,35458,84,105,1,2,8,2,s,pre,0
1,17,7803,79,85,1,2,10,2,s,pre,0
2,18,8115,78,84,1,2,10,2,s,pre,0
3,20,8409,79,88,1,2,10,2,s,pre,0
4,22,8693,76,93,1,2,10,2,s,pre,0
5,24,8963,72,95,1,2,10,2,s,pre,0
6,27,9267,67,51,1,2,10,2,s,pre,0
7,29,9541,67,46,1,2,10,2,s,pre,0
8,31,9823,67,53,1,2,10,2,s,pre,0
9,33,10091,79,91,1,2,10,2,s,pre,0
10,34,10369,78,85,1,2,10,2,s,pre,0
11,36,10635,79,89,1,2,10,2,s,pre,0
12,38,10903,76,87,1,2,10,2,s,pre,0
13,41,11183,72,96,1,2,10,2,s,pre,0
14,42,11447,76,85,1,2,10,2,s,pre,0
15,44,11730,79,93,1,2,10,2,s,pre,0
16,46,11996,84,91,1,2,10,2,s,pre,0
17,48,12259,83,91,1,2,10,2,s,pre,0
18,51,12537,81,63,1,2,10,2,s,pre,0
19,53,12819,81,51,1,2,10,2,s,pre,0
20,55,13089,81,58,1,2,10,2,s,pre,0
21,57,13357,83,91,1,2,10,2,s,pre,0
22,58,13621,81,90,1,2,10,2,s,pre,0
23,60,13869,84,95,1,2,10,2,s,pre,0
24,62,14123,81,86,1,2,10,2,s,pre,0
25,64,14403,78,96,1,2,10,2,s,pre,0
26,66,14659,79,83,1,2,10,2,s,pre,0
27,69,14965,79,78,1,2,10,2,s,pre,0
28,71,15483,79,82,1,2,10,2,s,pre,0
29,73,16557,77,52,1,2,10,2,s,pre,0
30,75,16805,77,55,1,2,10,2,s,pre,0
31,77,17075,76,54,1,2,10,2,s,pre,0
32,79,17325,76,52,1,2,10,2,s,pre,0
33,81,17643,74,50,1,2,10,2,s,pre,0
34,83,18764,79,60,1,2,10,2,s,pre,0
35,85,19301,77,57,1,2,10,2,s,pre,0
36,87,19849,76,50,1,2,10,2,s,pre,0
37,89,20113,76,55,1,2,10,2,s,pre,0
38,91,20383,76,54,1,2,10,2,s,pre,0
39,93,20639,76,59,1,2,10,2,s,pre,0
40,95,20907,81,91,1,2,10,2,s,pre,0
41,96,21182,77,85,1,2,10,2,s,pre,0
42,98,21425,76,87,1,2,10,2,s,pre,0
43,100,21683,74,90,1,2,10,2,s,pre,0
44,102,21949,76,91,1,2,10,2,s,pre,0
45,104,22204,79,87,1,2,10,2,s,pre,0
46,106,22465,74,87,1,2,10,2,s,pre,0
47,108,22709,71,75,1,2,10,2,s,pre,0
48,111,22975,72,65,1,2,10,2,s,pre,0
49,113,23243,72,60,1,2,10,2,s,pre,0
50,115,23511,74,64,1,2,10,2,s,pre,0
51,117,23773,74,58,1,2,10,2,s,pre,0
52,119,24089,76,46,1,2,10,2,s,pre,0
53,121,25229,65,55,1,2,10,2,s,pre,0
54,123,25484,65,51,1,2,10,2,s,pre,0
55,125,25771,64,45,1,2,10,2,s,pre,0
56,127,26013,64,53,1,2,10,2,s,pre,0
57,129,26299,62,52,1,2,10,2,s,pre,0
58,131,27363,67,51,1,2,10,2,s,pre,0
59,133,27626,67,52,1,2,10,2,s,pre,0
60,135,27883,71,63,1,2,10,2,s,pre,0
61,137,28139,71,70,1,2,10,2,s,pre,0
62,139,28405,72,66,1,2,10,2,s,pre,0
63,141,28657,72,64,1,2,10,2,s,pre,0
64,143,28917,73,68,1,2,10,2,s,pre,0
65,145,29165,73,70,1,2,10,2,s,pre,0
66,147,29459,74,106,1,2,10,2,s,pre,0
67,149,29999,77,99,1,2,10,2,s,pre,0
68,151,30537,76,88,1,2,10,2,s,pre,0
69,153,31079,74,94,1,2,10,2,s,pre,0
70,155,31627,72,98,1,2,10,2,s,pre,0
71,157,32187,84,104,1,2,10,2,s,pre,0
72,159,32765,84,100,1,2,10,2,s,pre,0
1,17,7837,79,61,1,2,12,2,s,pre,0
2,18,8095,78,77,1,2,12,2,s,pre,0
3,20,8341,79,81,1,2,12,2,s,pre,0
4,22,8546,76,78,1,2,12,2,s,pre,0
5,24,8788,72,67,1,2,12,2,s,pre,0
6,27,9001,67,61,1,2,12,2,s,pre,0
7,29,9227,67,57,1,2,12,2,s,pre,0
8,31,9439,67,70,1,2,12,2,s,pre,0
9,33,9664,79,67,1,2,12,2,s,pre,0
10,34,9881,78,67,1,2,12,2,s,pre,0
11,36,10111,79,74,1,2,12,2,s,pre,0
12,38,10321,76,81,1,2,12,2,s,pre,0
13,40,10532,72,81,1,2,12,2,s,pre,0
14,42,10745,76,86,1,2,12,2,s,pre,0
15,44,10942,79,96,1,2,12,2,s,pre,0
16,46,11153,84,91,1,2,12,2,s,pre,0
17,48,11392,83,59,1,2,12,2,s,pre,0
18,51,11615,81,55,1,2,12,2,s,pre,0
19,53,11834,81,69,1,2,12,2,s,pre,0
20,55,12050,81,69,1,2,12,2,s,pre,0
21,57,12271,83,72,1,2,12,2,s,pre,0
22,58,12489,81,87,1,2,12,2,s,pre,0
23,60,12709,84,86,1,2,12,2,s,pre,0
24,62,12919,81,91,1,2,12,2,s,pre,0
25,64,13133,78,78,1,2,12,2,s,pre,0
26,66,13344,79,88,1,2,12,2,s,pre,0
27,69,13586,79,74,1,2,12,2,s,pre,0
28,71,14093,79,68,1,2,12,2,s,pre,0
29,73,14929,77,54,1,2,12,2,s,pre,0
30,75,15135,77,58,1,2,12,2,s,pre,0
31,77,15367,76,60,1,2,12,2,s,pre,0
32,79,15578,76,60,1,2,12,2,s,pre,0
33,81,15867,74,48,1,2,12,2,s,pre,0
34,83,16756,79,52,1,2,12,2,s,pre,0
35,85,17205,77,54,1,2,12,2,s,pre,0
36,87,17636,76,66,1,2,12,2,s,pre,0
37,89,17852,76,68,1,2,12,2,s,pre,0
38,91,18057,76,80,1,2,12,2,s,pre,0
39,93,18268,76,77,1,2,12,2,s,pre,0
40,95,18488,81,78,1,2,12,2,s,pre,0
41,96,18704,77,81,1,2,12,2,s,pre,0
42,98,18914,76,83,1,2,12,2,s,pre,0
43,100,19113,74,95,1,2,12,2,s,pre,0
44,102,19342,76,91,1,2,12,2,s,pre,0
45,104,19546,79,94,1,2,12,2,s,pre,0
46,106,19752,74,87,1,2,12,2,s,pre,0
47,108,19962,71,76,1,2,12,2,s,pre,0
48,111,20161,72,72,1,2,12,2,s,pre,0
49,113,20376,72,65,1,2,12,2,s,pre,0
50,115,20582,74,62,1,2,12,2,s,pre,0
51,117,20790,74,62,1,2,12,2,s,pre,0
52,119,21080,76,46,1,2,12,2,s,pre,0
53,121,21966,65,48,1,2,12,2,s,pre,0
54,123,22137,65,50,1,2,12,2,s,pre,0
55,125,22361,64,60,1,2,12,2,s,pre,0
56,127,22581,64,62,1,2,12,2,s,pre,0
57,129,22877,62,36,1,2,12,2,s,pre,0
58,131,23690,67,54,1,2,12,2,s,pre,0
59,133,23920,67,47,1,2,12,2,s,pre,0
60,135,24146,71,38,1,2,12,2,s,pre,0
61,137,24349,71,70,1,2,12,2,s,pre,0
62,139,24561,72,79,1,2,12,2,s,pre,0
63,141,24773,72,81,1,2,12,2,s,pre,0
64,143,24975,73,81,1,2,12,2,s,pre,0
65,145,25184,73,98,1,2,12,2,s,pre,0
66,147,25432,74,94,1,2,12,2,s,pre,0
67,149,25895,77,99,1,2,12,2,s,pre,0
68,151,26350,76,86,1,2,12,2,s,pre,0
69,153,26812,74,100,1,2,12,2,s,pre,0
70,155,27273,72,99,1,2,12,2,s,pre,0
71,157,27741,84,97,1,2,12,2,s,pre,0
72,159,28253,84,94,1,2,12,2,s,pre,0
1,17,7798,79,88,1,2,13,2,s,pre,0
2,18,8087,78,96,1,2,13,2,s,pre,0
3,20,8347,79,89,1,2,13,2,s,pre,0
4,22,8607,76,79,1,2,13,2,s,pre,0
5,24,8888,72,70,1,2,13,2,s,pre,0
6,27,9126,67,66,1,2,13,2,s,pre,0
7,29,9364,67,71,1,2,13,2,s,pre,0
8,31,9603,67,78,1,2,13,2,s,pre,0
9,33,9862,79,83,1,2,13,2,s,pre,0
10,34,10109,78,88,1,2,13,2,s,pre,0
11,36,10354,79,89,1,2,13,2,s,pre,0
12,38,10600,76,79,1,2,13,2,s,pre,0
13,40,10855,72,78,1,2,13,2,s,pre,0
14,42,11094,76,81,1,2,13,2,s,pre,0
15,44,11345,79,93,1,2,13,2,s,pre,0
16,46,11584,84,91,1,2,13,2,s,pre,0
17,48,11839,83,83,1,2,13,2,s,pre,0
18,51,12064,81,72,1,2,13,2,s,pre,0
19,53,12301,81,62,1,2,13,2,s,pre,0
20,55,12525,81,71,1,2,13,2,s,pre,0
21,57,12774,83,82,1,2,13,2,s,pre,0
22,58,13008,81,88,1,2,13,2,s,pre,0
23,60,13259,84,91,1,2,13,2,s,pre,0
24,62,13498,81,77,1,2,13,2,s,pre,0
25,65,13727,78,85,1,2,13,2,s,pre,0
26,67,13954,79,80,1,2,13,2,s,pre,0
27,69,14222,79,91,1,2,13,2,s,pre,0
28,71,14729,79,94,1,2,13,2,s,pre,0
29,73,15764,77,65,1,2,13,2,s,pre,0
30,75,16000,77,67,1,2,13,2,s,pre,0
31,77,16262,76,42,1,2,13,2,s,pre,0
32,79,16491,76,45,1,2,13,2,s,pre,0
33,81,16788,74,44,1,2,13,2,s,pre,0
34,83,17783,79,62,1,2,13,2,s,pre,0
35,85,18320,77,56,1,2,13,2,s,pre,0
36,87,18850,76,40,1,2,13,2,s,pre,0
37,89,19086,76,49,1,2,13,2,s,pre,0
38,91,19344,76,47,1,2,13,2,s,pre,0
39,93,19576,76,54,1,2,13,2,s,pre,0
40,95,19851,81,81,1,2,13,2,s,pre,0
41,96,20081,77,88,1,2,13,2,s,pre,0
42,98,20334,76,81,1,2,13,2,s,pre,0
43,100,20588,74,89,1,2,13,2,s,pre,0
44,102,20829,76,90,1,2,13,2,s,pre,0
45,105,21062,79,91,1,2,13,2,s,pre,0
46,106,21312,74,91,1,2,13,2,s,pre,0
47,108,21553,71,76,1,2,13,2,s,pre,0
48,111,21811,72,60,1,2,13,2,s,pre,0
49,113,22040,72,55,1,2,13,2,s,pre,0
50,115,22259,74,66,1,2,13,2,s,pre,0
51,117,22480,74,68,1,2,13,2,s,pre,0
52,119,22762,76,51,1,2,13,2,s,pre,0
53,121,23807,65,63,1,2,13,2,s,pre,0
54,123,24046,65,66,1,2,13,2,s,pre,0
55,125,24293,64,49,1,2,13,2,s,pre,0
56,127,24539,64,37,1,2,13,2,s,pre,0
57,129,24829,62,42,1,2,13,2,s,pre,0
58,131,25907,67,67,1,2,13,2,s,pre,0
59,133,26153,67,69,1,2,13,2,s,pre,0
60,135,26391,71,70,1,2,13,2,s,pre,0
61,137,26621,71,71,1,2,13,2,s,pre,0
62,139,26871,72,75,1,2,13,2,s,pre,0
63,141,27095,72,83,1,2,13,2,s,pre,0
64,143,27341,73,83,1,2,13,2,s,pre,0
65,145,27566,73,86,1,2,13,2,s,pre,0
66,147,27833,74,100,1,2,13,2,s,pre,0
67,148,28337,77,91,1,2,13,2,s,pre,0
68,150,28798,76,85,1,2,13,2,s,pre,0
69,152,29289,74,94,1,2,13,2,s,pre,0
70,154,29781,72,100,1,2,13,2,s,pre,0
71,157,30283,84,105,1,2,13,2,s,pre,0
72,159,30880,84,99,1,2,13,2,s,pre,0
1,17,7864,79,95,1,2,14,1,s,pre,0
2,18,8177,78,84,1,2,14,1,s,pre,0
3,20,8482,79,88,1,2,14,1,s,pre,0
4,22,8779,76,80,1,2,14,1,s,pre,0
5,24,9093,72,76,1,2,14,1,s,pre,0
6,27,9427,67,48,1,2,14,1,s,pre,0
7,29,9710,67,50,1,2,14,1,s,pre,0
8,31,10006,67,56,1,2,14,1,s,pre,0
9,33,10318,79,100,1,2,14,1,s,pre,0
10,34,10623,78,87,1,2,14,1,s,pre,0
11,36,10927,79,82,1,2,14,1,s,pre,0
12,38,11220,76,83,1,2,14,1,s,pre,0
13,40,11543,72,91,1,2,14,1,s,pre,0
14,42,11848,76,91,1,2,14,1,s,pre,0
15,44,12142,79,93,1,2,14,1,s,pre,0
16,47,12437,84,88,1,2,14,1,s,pre,0
17,48,12745,83,96,1,2,14,1,s,pre,0
18,50,13058,81,68,1,2,14,1,s,pre,0
19,53,13349,81,46,1,2,14,1,s,pre,0
20,55,13657,81,53,1,2,14,1,s,pre,0
21,57,13947,83,101,1,2,14,1,s,pre,0
22,58,14266,81,104,1,2,14,1,s,pre,0
23,60,14567,84,101,1,2,14,1,s,pre,0
24,62,14860,81,94,1,2,14,1,s,pre,0
25,64,15165,78,91,1,2,14,1,s,pre,0
26,66,15503,79,58,1,2,14,1,s,pre,0
27,69,15793,79,58,1,2,14,1,s,pre,0
28,71,16405,79,65,1,2,14,1,s,pre,0
29,73,17663,77,65,1,2,14,1,s,pre,0
30,75,17958,77,62,1,2,14,1,s,pre,0
31,77,18257,76,56,1,2,14,1,s,pre,0
32,79,18541,76,52,1,2,14,1,s,pre,0
33,81,18857,74,62,1,2,14,1,s,pre,0
34,83,20079,79,72,1,2,14,1,s,pre,0
35,85,20661,77,66,1,2,14,1,s,pre,0
36,87,21291,76,42,1,2,14,1,s,pre,0
37,89,21579,76,48,1,2,14,1,s,pre,0
38,91,21872,76,53,1,2,14,1,s,pre,0
39,93,22165,76,58,1,2,14,1,s,pre,0
40,95,22467,81,101,1,2,14,1,s,pre,0
41,96,22763,77,93,1,2,14,1,s,pre,0
42,98,23064,76,90,1,2,14,1,s,pre,0
43,101,23361,74,88,1,2,14,1,s,pre,0
44,102,23665,76,96,1,2,14,1,s,pre,0
45,104,23959,79,94,1,2,14,1,s,pre,0
46,106,24252,74,87,1,2,14,1,s,pre,0
47,109,24561,71,75,1,2,14,1,s,pre,0
48,111,24866,72,66,1,2,14,1,s,pre,0
49,113,25171,72,67,1,2,14,1,s,pre,0
50,115,25462,74,67,1,2,14,1,s,pre,0
51,117,25756,74,54,1,2,14,1,s,pre,0
52,119,26074,76,51,1,2,14,1,s,pre,0
53,121,27245,65,66,1,2,14,1,s,pre,0
54,123,27535,65,67,1,2,14,1,s,pre,0
55,125,27837,64,66,1,2,14,1,s,pre,0
56,127,28121,64,57,1,2,14,1,s,pre,0
57,129,28459,62,49,1,2,14,1,s,pre,0
58,131,29636,67,63,1,2,14,1,s,pre,0
59,133,29931,67,55,1,2,14,1,s,pre,0
60,135,30222,71,63,1,2,14,1,s,pre,0
61,137,30505,71,63,1,2,14,1,s,pre,0
62,139,30783,72,80,1,2,14,1,s,pre,0
63,141,31076,72,78,1,2,14,1,s,pre,0
64,143,31376,73,84,1,2,14,1,s,pre,0
65,145,31671,73,75,1,2,14,1,s,pre,0
66,147,31981,74,91,1,2,14,1,s,pre,0
67,148,32578,77,101,1,2,14,1,s,pre,0
68,150,33160,76,100,1,2,14,1,s,pre,0
69,152,33769,74,94,1,2,14,1,s,pre,0
70,154,34377,72,104,1,2,14,1,s,pre,0
71,157,34951,84,109,1,2,14,1,s,pre,0
72,159,35565,84,93,1,2,14,1,s,pre,0
1,17,7850,79,91,1,2,14,2,s,pre,0
2,18,8167,78,83,1,2,14,2,s,pre,0
3,20,8469,79,83,1,2,14,2,s,pre,0
4,22,8766,76,80,1,2,14,2,s,pre,0
5,24,9082,72,74,1,2,14,2,s,pre,0
6,27,9386,67,58,1,2,14,2,s,pre,0
7,29,9698,67,52,1,2,14,2,s,pre,0
8,31,10022,67,55,1,2,14,2,s,pre,0
9,33,10320,79,90,1,2,14,2,s,pre,0
10,34,10640,78,87,1,2,14,2,s,pre,0
11,36,10941,79,79,1,2,14,2,s,pre,0
12,38,11257,76,77,1,2,14,2,s,pre,0
13,41,11574,72,81,1,2,14,2,s,pre,0
14,42,11881,76,76,1,2,14,2,s,pre,0
15,44,12192,79,83,1,2,14,2,s,pre,0
16,46,12493,84,77,1,2,14,2,s,pre,0
17,48,12811,83,89,1,2,14,2,s,pre,0
18,51,13138,81,48,1,2,14,2,s,pre,0
19,53,13446,81,53,1,2,14,2,s,pre,0
20,55,13747,81,49,1,2,14,2,s,pre,0
21,57,14047,83,96,1,2,14,2,s,pre,0
22,58,14370,81,95,1,2,14,2,s,pre,0
23,60,14680,84,93,1,2,14,2,s,pre,0
24,62,14994,81,88,1,2,14,2,s,pre,0
25,65,15299,78,82,1,2,14,2,s,pre,0
26,66,15608,79,74,1,2,14,2,s,pre,0
27,69,15931,79,65,1,2,14,2,s,pre,0
28,71,16532,79,63,1,2,14,2,s,pre,0
29,73,17817,77,63,1,2,14,2,s,pre,0
30,75,18114,77,56,1,2,14,2,s,pre,0
31,77,18421,76,51,1,2,14,2,s,pre,0
32,79,18710,76,43,1,2,14,2,s,pre,0
33,81,19029,74,57,1,2,14,2,s,pre,0
34,83,20222,79,74,1,2,14,2,s,pre,0
35,84,20825,77,70,1,2,14,2,s,pre,0
36,87,21462,76,52,1,2,14,2,s,pre,0
37,89,21770,76,53,1,2,14,2,s,pre,0
38,91,22067,76,61,1,2,14,2,s,pre,0
39,93,22368,76,79,1,2,14,2,s,pre,0
40,95,22686,81,88,1,2,14,2,s,pre,0
41,96,23004,77,91,1,2,14,2,s,pre,0
42,98,23298,76,88,1,2,14,2,s,pre,0
43,101,23606,74,83,1,2,14,2,s,pre,0
44,102,23900,76,89,1,2,14,2,s,pre,0
45,104,24206,79,86,1,2,14,2,s,pre,0
46,106,24506,74,88,1,2,14,2,s,pre,0
47,109,24806,71,77,1,2,14,2,s,pre,0
48,111,25098,72,72,1,2,14,2,s,pre,0
49,113,25396,72,63,1,2,14,2,s,pre,0
50,115,25695,74,57,1,2,14,2,s,pre,0
51,117,26001,74,60,1,2,14,2,s,pre,0
52,119,26318,76,57,1,2,14,2,s,pre,0
53,121,27573,65,65,1,2,14,2,s,pre,0
54,123,27858,65,58,1,2,14,2,s,pre,0
55,125,28161,64,59,1,2,14,2,s,pre,0
56,127,28459,64,61,1,2,14,2,s,pre,0
57,129,28803,62,56,1,2,14,2,s,pre,0
58,131,30053,67,58,1,2,14,2,s,pre,0
59,133,30353,67,57,1,2,14,2,s,pre,0
60,135,30653,71,67,1,2,14,2,s,pre,0
61,137,30937,71,63,1,2,14,2,s,pre,0
62,139,31229,72,70,1,2,14,2,s,pre,0
63,141,31519,72,67,1,2,14,2,s,pre,0
64,143,31814,73,76,1,2,14,2,s,pre,0
65,145,32095,73,78,1,2,14,2,s,pre,0
66,147,32404,74,79,1,2,14,2,s,pre,0
67,148,33008,77,85,1,2,14,2,s,pre,0
68,150,33612,76,91,1,2,14,2,s,pre,0
69,152,34220,74,94,1,2,14,2,s,pre,0
70,154,34812,72,94,1,2,14,2,s,pre,0
71,157,35417,84,104,1,2,14,2,s,pre,0
72,159,36019,84,98,1,2,14,2,s,pre,0
1,17,9710,79,74,1,2,15,1,s,pre,0
2,18,10013,78,72,1,2,15,1,s,pre,0
3,20,10306,79,72,1,2,15,1,s,pre,0
4,22,10580,76,64,1,2,15,1,s,pre,0
5,24,10880,72,69,1,2,15,1,s,pre,0
6,27,11164,67,50,1,2,15,1,s,pre,0
7,29,11434,67,61,1,2,15,1,s,pre,0
8,31,11701,67,72,1,2,15,1,s,pre,0
9,33,11984,79,81,1,2,15,1,s,pre,0
10,34,12248,78,83,1,2,15,1,s,pre,0
11,36,12550,79,75,1,2,15,1,s,pre,0
12,38,12819,76,71,1,2,15,1,s,pre,0
13,41,13096,72,78,1,2,15,1,s,pre,0
14,42,13362,76,79,1,2,15,1,s,pre,0
15,44,13645,79,78,1,2,15,1,s,pre,0
16,46,13909,84,72,1,2,15,1,s,pre,0
17,48,14205,83,76,1,2,15,1,s,pre,0
18,50,14475,81,68,1,2,15,1,s,pre,0
19,53,14748,81,68,1,2,15,1,s,pre,0
20,55,15007,81,78,1,2,15,1,s,pre,0
21,57,15298,83,84,1,2,15,1,s,pre,0
22,58,15554,81,91,1,2,15,1,s,pre,0
23,60,15825,84,88,1,2,15,1,s,pre,0
24,62,16067,81,83,1,2,15,1,s,pre,0
25,64,16352,78,76,1,2,15,1,s,pre,0
26,66,16636,79,74,1,2,15,1,s,pre,0
27,69,16933,79,63,1,2,15,1,s,pre,0
28,71,17520,79,58,1,2,15,1,s,pre,0
29,73,18668,77,70,1,2,15,1,s,pre,0
30,75,18929,77,74,1,2,15,1,s,pre,0
31,77,19212,76,62,1,2,15,1,s,pre,0
32,79,19479,76,62,1,2,15,1,s,pre,0
33,81,19781,74,56,1,2,15,1,s,pre,0
34,83,20909,79,70,1,2,15,1,s,pre,0
35,84,21489,77,59,1,2,15,1,s,pre,0
36,87,22082,76,46,1,2,15,1,s,pre,0
37,89,22353,76,48,1,2,15,1,s,pre,0
38,91,22626,76,63,1,2,15,1,s,pre,0
39,93,22900,76,68,1,2,15,1,s,pre,0
40,95,23189,81,79,1,2,15,1,s,pre,0
41,96,23464,77,72,1,2,15,1,s,pre,0
42,98,23741,76,77,1,2,15,1,s,pre,0
43,100,24005,74,88,1,2,15,1,s,pre,0
44,102,24277,76,79,1,2,15,1,s,pre,0
45,104,24552,79,73,1,2,15,1,s,pre,0
46,106,24826,74,78,1,2,15,1,s,pre,0
47,108,25086,71,70,1,2,15,1,s,pre,0
48,111,25368,72,72,1,2,15,1,s,pre,0
49,113,25629,72,74,1,2,15,1,s,pre,0
50,115,25903,74,70,1,2,15,1,s,pre,0
51,117,26172,74,63,1,2,15,1,s,pre,0
52,119,26463,76,56,1,2,15,1,s,pre,0
53,121,27545,65,67,1,2,15,1,s,pre,0
54,123,27819,65,63,1,2,15,1,s,pre,0
55,125,28104,64,48,1,2,15,1,s,pre,0
56,127,28371,64,49,1,2,15,1,s,pre,0
57,129,28673,62,46,1,2,15,1,s,pre,0
58,131,29814,67,51,1,2,15,1,s,pre,0
59,133,30078,67,55,1,2,15,1,s,pre,0
60,135,30344,71,58,1,2,15,1,s,pre,0
61,137,30600,71,60,1,2,15,1,s,pre,0
62,139,30868,72,74,1,2,15,1,s,pre,0
63,141,31142,72,75,1,2,15,1,s,pre,0
64,143,31408,73,77,1,2,15,1,s,pre,0
65,145,31668,73,72,1,2,15,1,s,pre,0
66,147,31972,74,84,1,2,15,1,s,pre,0
67,148,32549,77,86,1,2,15,1,s,pre,0
68,150,33093,76,83,1,2,15,1,s,pre,0
69,152,33662,74,87,1,2,15,1,s,pre,0
70,154,34231,72,82,1,2,15,1,s,pre,0
71,156,34800,84,94,1,2,15,1,s,pre,0
72,159,35379,84,89,1,2,15,1,s,pre,0
1,17,7877,79,73,1,2,15,2,s,pre,0
2,18,8170,78,82,1,2,15,2,s,pre,0
3,20,8462,79,81,1,2,15,2,s,pre,0
4,22,8760,76,74,1,2,15,2,s,pre,0
5,24,9054,72,74,1,2,15,2,s,pre,0
6,26,9334,67,54,1,2,15,2,s,pre,0
7,29,9603,67,58,1,2,15,2,s,pre,0
8,31,9873,67,70,1,2,15,2,s,pre,0
9,33,10137,79,82,1,2,15,2,s,pre,0
10,34,10401,78,81,1,2,15,2,s,pre,0
11,36,10670,79,81,1,2,15,2,s,pre,0
12,38,10944,76,83,1,2,15,2,s,pre,0
13,41,11229,72,84,1,2,15,2,s,pre,0
14,42,11493,76,85,1,2,15,2,s,pre,0
15,44,11775,79,85,1,2,15,2,s,pre,0
16,46,12034,84,82,1,2,15,2,s,pre,0
17,48,12314,83,85,1,2,15,2,s,pre,0
18,50,12583,81,67,1,2,15,2,s,pre,0
19,53,12859,81,71,1,2,15,2,s,pre,0
20,55,13108,81,83,1,2,15,2,s,pre,0
21,57,13392,83,79,1,2,15,2,s,pre,0
22,58,13633,81,89,1,2,15,2,s,pre,0
23,60,13918,84,89,1,2,15,2,s,pre,0
24,62,14172,81,81,1,2,15,2,s,pre,0
25,64,14446,78,80,1,2,15,2,s,pre,0
26,66,14707,79,74,1,2,15,2,s,pre,0
27,69,14981,79,67,1,2,15,2,s,pre,0
28,71,15558,79,68,1,2,15,2,s,pre,0
29,73,16657,77,70,1,2,15,2,s,pre,0
30,75,16921,77,70,1,2,15,2,s,pre,0
31,77,17198,76,62,1,2,15,2,s,pre,0
32,79,17447,76,58,1,2,15,2,s,pre,0
33,81,17737,74,56,1,2,15,2,s,pre,0
34,83,18846,79,63,1,2,15,2,s,pre,0
35,85,19402,77,58,1,2,15,2,s,pre,0
36,87,19986,76,44,1,2,15,2,s,pre,0
37,89,20245,76,47,1,2,15,2,s,pre,0
38,91,20511,76,58,1,2,15,2,s,pre,0
39,93,20771,76,63,1,2,15,2,s,pre,0
40,95,21045,81,78,1,2,15,2,s,pre,0
41,96,21307,77,74,1,2,15,2,s,pre,0
42,98,21584,76,78,1,2,15,2,s,pre,0
43,100,21847,74,79,1,2,15,2,s,pre,0
44,102,22119,76,80,1,2,15,2,s,pre,0
45,104,22386,79,75,1,2,15,2,s,pre,0
46,106,22657,74,74,1,2,15,2,s,pre,0
47,108,22914,71,68,1,2,15,2,s,pre,0
48,111,23181,72,70,1,2,15,2,s,pre,0
49,113,23427,72,69,1,2,15,2,s,pre,0
50,115,23688,74,70,1,2,15,2,s,pre,0
51,117,23947,74,62,1,2,15,2,s,pre,0
52,119,24240,76,53,1,2,15,2,s,pre,0
53,121,25352,65,67,1,2,15,2,s,pre,0
54,123,25613,65,63,1,2,15,2,s,pre,0
55,125,25886,64,54,1,2,15,2,s,pre,0
56,127,26140,64,60,1,2,15,2,s,pre,0
57,129,26436,62,49,1,2,15,2,s,pre,0
58,131,27559,67,57,1,2,15,2,s,pre,0
59,133,27819,67,58,1,2,15,2,s,pre,0
60,135,28094,71,58,1,2,15,2,s,pre,0
61,137,28344,71,64,1,2,15,2,s,pre,0
62,139,28618,72,70,1,2,15,2,s,pre,0
63,141,28869,72,72,1,2,15,2,s,pre,0
64,143,29126,73,78,1,2,15,2,s,pre,0
65,145,29382,73,80,1,2,15,2,s,pre,0
66,147,29681,74,86,1,2,15,2,s,pre,0
67,148,30246,77,86,1,2,15,2,s,pre,0
68,150,30791,76,77,1,2,15,2,s,pre,0
69,152,31346,74,84,1,2,15,2,s,pre,0
70,154,31899,72,81,1,2,15,2,s,pre,0
71,156,32464,84,90,1,2,15,2,s,pre,0
72,159,33034,84,84,1,2,15,2,s,pre,0
1,17,8892,79,74,1,2,16,2,s,pre,0
2,18,9214,78,76,1,2,16,2,s,pre,0
3,20,9542,79,78,1,2,16,2,s,pre,0
4,22,9844,76,74,1,2,16,2,s,pre,0
5,25,10169,72,50,1,2,16,2,s,pre,0
6,27,10489,67,62,1,2,16,2,s,pre,0
7,29,10806,67,58,1,2,16,2,s,pre,0
8,31,11118,67,52,1,2,16,2,s,pre,0
9,33,11440,79,81,1,2,16,2,s,pre,0
10,34,11760,78,81,1,2,16,2,s,pre,0
11,37,12088,79,72,1,2,16,2,s,pre,0
12,38,12396,76,76,1,2,16,2,s,pre,0
13,40,12719,72,78,1,2,16,2,s,pre,0
14,42,13048,76,81,1,2,16,2,s,pre,0
15,44,13362,79,89,1,2,16,2,s,pre,0
16,46,13675,84,82,1,2,16,2,s,pre,0
17,48,14022,83,55,1,2,16,2,s,pre,0
18,51,14354,81,53,1,2,16,2,s,pre,0
19,53,14671,81,57,1,2,16,2,s,pre,0
20,55,14979,81,61,1,2,16,2,s,pre,0
21,57,15332,83,93,1,2,16,2,s,pre,0
22,58,15652,81,88,1,2,16,2,s,pre,0
23,60,15974,84,93,1,2,16,2,s,pre,0
24,62,16294,81,90,1,2,16,2,s,pre,0
25,64,16634,78,98,1,2,16,2,s,pre,0
26,66,16958,79,85,1,2,16,2,s,pre,0
27,69,17298,79,87,1,2,16,2,s,pre,0
28,71,17968,79,88,1,2,16,2,s,pre,0
29,73,19338,77,63,1,2,16,2,s,pre,0
30,75,19667,77,62,1,2,16,2,s,pre,0
31,77,20006,76,52,1,2,16,2,s,pre,0
32,79,20314,76,54,1,2,16,2,s,pre,0
33,81,20671,74,53,1,2,16,2,s,pre,0
34,83,22040,79,68,1,2,16,2,s,pre,0
35,84,22671,77,60,1,2,16,2,s,pre,0
36,86,23348,76,55,1,2,16,2,s,pre,0
37,89,23669,76,65,1,2,16,2,s,pre,0
38,91,23990,76,65,1,2,16,2,s,pre,0
39,93,24302,76,72,1,2,16,2,s,pre,0
40,95,24646,81,86,1,2,16,2,s,pre,0
41,96,24986,77,88,1,2,16,2,s,pre,0
42,98,25296,76,81,1,2,16,2,s,pre,0
43,100,25618,74,86,1,2,16,2,s,pre,0
44,102,25948,76,88,1,2,16,2,s,pre,0
45,104,26258,79,91,1,2,16,2,s,pre,0
46,106,26588,74,86,1,2,16,2,s,pre,0
47,108,26921,71,80,1,2,16,2,s,pre,0
48,111,27259,72,67,1,2,16,2,s,pre,0
49,113,27596,72,59,1,2,16,2,s,pre,0
50,115,27908,74,61,1,2,16,2,s,pre,0
51,117,28216,74,60,1,2,16,2,s,pre,0
52,119,28586,76,49,1,2,16,2,s,pre,0
53,121,29897,65,49,1,2,16,2,s,pre,0
54,123,30206,65,62,1,2,16,2,s,pre,0
55,125,30542,64,50,1,2,16,2,s,pre,0
56,127,30856,64,57,1,2,16,2,s,pre,0
57,129,31218,62,49,1,2,16,2,s,pre,0
58,131,32490,67,51,1,2,16,2,s,pre,0
59,133,32802,67,57,1,2,16,2,s,pre,0
60,135,33138,71,58,1,2,16,2,s,pre,0
61,137,33447,71,65,1,2,16,2,s,pre,0
62,139,33780,72,65,1,2,16,2,s,pre,0
63,141,34090,72,69,1,2,16,2,s,pre,0
64,143,34418,73,67,1,2,16,2,s,pre,0
65,145,34730,73,72,1,2,16,2,s,pre,0
66,147,35067,74,89,1,2,16,2,s,pre,0
67,148,35699,77,88,1,2,16,2,s,pre,0
68,150,36344,76,83,1,2,16,2,s,pre,0
69,152,36974,74,85,1,2,16,2,s,pre,0
70,155,37632,72,86,1,2,16,2,s,pre,0
71,157,38260,84,91,1,2,16,2,s,pre,0
72,159,38894,84,89,1,2,16,2,s,pre,0
1,17,8499,79,76,1,2,17,1,s,pre,0
2,18,8838,78,85,1,2,17,1,s,pre,0
3,20,9129,79,95,1,2,17,1,s,pre,0
4,22,9423,76,95,1,2,17,1,s,pre,0
5,24,9741,72,85,1,2,17,1,s,pre,0
6,27,10058,67,60,1,2,17,1,s,pre,0
7,29,10365,67,62,1,2,17,1,s,pre,0
8,31,10661,67,65,1,2,17,1,s,pre,0
9,33,11011,79,84,1,2,17,1,s,pre,0
10,34,11315,78,96,1,2,17,1,s,pre,0
11,36,11611,79,101,1,2,17,1,s,pre,0
12,38,11907,76,87,1,2,17,1,s,pre,0
13,40,12191,72,91,1,2,17,1,s,pre,0
14,42,12497,76,103,1,2,17,1,s,pre,0
15,44,12793,79,96,1,2,17,1,s,pre,0
16,46,13084,84,96,1,2,17,1,s,pre,0
17,48,13413,83,81,1,2,17,1,s,pre,0
18,51,13747,81,44,1,2,17,1,s,pre,0
19,53,14024,81,58,1,2,17,1,s,pre,0
20,55,14294,81,61,1,2,17,1,s,pre,0
21,57,14599,83,85,1,2,17,1,s,pre,0
22,58,14902,81,103,1,2,17,1,s,pre,0
23,60,15211,84,99,1,2,17,1,s,pre,0
24,62,15501,81,89,1,2,17,1,s,pre,0
25,64,15809,78,81,1,2,17,1,s,pre,0
26,66,16102,79,87,1,2,17,1,s,pre,0
27,69,16403,79,101,1,2,17,1,s,pre,0
28,71,17035,79,74,1,2,17,1,s,pre,0
29,73,18310,77,51,1,2,17,1,s,pre,0
30,75,18586,77,63,1,2,17,1,s,pre,0
31,77,18884,76,51,1,2,17,1,s,pre,0
32,79,19163,76,54,1,2,17,1,s,pre,0
33,81,19509,74,42,1,2,17,1,s,pre,0
34,83,20723,79,65,1,2,17,1,s,pre,0
35,85,21348,77,63,1,2,17,1,s,pre,0
36,87,22028,76,37,1,2,17,1,s,pre,0
37,89,22317,76,53,1,2,17,1,s,pre,0
38,91,22609,76,64,1,2,17,1,s,pre,0
39,93,22900,76,51,1,2,17,1,s,pre,0
40,95,23232,81,74,1,2,17,1,s,pre,0
41,96,23520,77,87,1,2,17,1,s,pre,0
42,97,23800,76,91,1,2,17,1,s,pre,0
43,100,24084,74,93,1,2,17,1,s,pre,0
44,102,24389,76,89,1,2,17,1,s,pre,0
45,104,24674,79,83,1,2,17,1,s,pre,0
46,106,24969,74,89,1,2,17,1,s,pre,0
47,109,25264,71,70,1,2,17,1,s,pre,0
48,111,25553,72,68,1,2,17,1,s,pre,0
49,113,25827,72,62,1,2,17,1,s,pre,0
50,115,26117,74,65,1,2,17,1,s,pre,0
51,117,26415,74,55,1,2,17,1,s,pre,0
52,119,26757,76,48,1,2,17,1,s,pre,0
53,121,28007,65,53,1,2,17,1,s,pre,0
54,123,28290,65,62,1,2,17,1,s,pre,0
55,125,28585,64,49,1,2,17,1,s,pre,0
56,127,28879,64,57,1,2,17,1,s,pre,0
57,129,29230,62,47,1,2,17,1,s,pre,0
58,131,30466,67,55,1,2,17,1,s,pre,0
59,133,30765,67,58,1,2,17,1,s,pre,0
60,135,31079,71,54,1,2,17,1,s,pre,0
61,137,31358,71,58,1,2,17,1,s,pre,0
62,139,31664,72,57,1,2,17,1,s,pre,0
63,141,31941,72,63,1,2,17,1,s,pre,0
64,143,32236,73,60,1,2,17,1,s,pre,0
65,145,32524,73,56,1,2,17,1,s,pre,0
66,147,32826,74,103,1,2,17,1,s,pre,0
67,149,33481,77,95,1,2,17,1,s,pre,0
68,150,34056,76,96,1,2,17,1,s,pre,0
69,152,34660,74,98,1,2,17,1,s,pre,0
70,155,35258,72,100,1,2,17,1,s,pre,0
71,157,35857,84,103,1,2,17,1,s,pre,0
72,159,36450,84,101,1,2,17,1,s,pre,0
1,17,7896,79,84,1,2,17,2,s,pre,0
2,18,8236,78,83,1,2,17,2,s,pre,0
3,20,8520,79,91,1,2,17,2,s,pre,0
4,22,8818,76,94,1,2,17,2,s,pre,0
5,24,9120,72,70,1,2,17,2,s,pre,0
6,27,9400,67,68,1,2,17,2,s,pre,0
7,29,9714,67,64,1,2,17,2,s,pre,0
8,31,10014,67,63,1,2,17,2,s,pre,0
9,33,10344,79,82,1,2,17,2,s,pre,0
10,34,10633,78,87,1,2,17,2,s,pre,0
11,36,10923,79,93,1,2,17,2,s,pre,0
12,38,11232,76,81,1,2,17,2,s,pre,0
13,40,11536,72,79,1,2,17,2,s,pre,0
14,42,11824,76,91,1,2,17,2,s,pre,0
15,44,12126,79,98,1,2,17,2,s,pre,0
16,46,12422,84,100,1,2,17,2,s,pre,0
17,48,12740,83,89,1,2,17,2,s,pre,0
18,51,13044,81,56,1,2,17,2,s,pre,0
19,53,13354,81,63,1,2,17,2,s,pre,0
20,55,13644,81,68,1,2,17,2,s,pre,0
21,57,13959,83,89,1,2,17,2,s,pre,0
22,58,14260,81,97,1,2,17,2,s,pre,0
23,60,14566,84,94,1,2,17,2,s,pre,0
24,62,14846,81,89,1,2,17,2,s,pre,0
25,64,15142,78,81,1,2,17,2,s,pre,0
26,66,15428,79,81,1,2,17,2,s,pre,0
27,69,15753,79,74,1,2,17,2,s,pre,0
28,71,16374,79,65,1,2,17,2,s,pre,0
29,73,17630,77,54,1,2,17,2,s,pre,0
30,75,17907,77,58,1,2,17,2,s,pre,0
31,77,18208,76,46,1,2,17,2,s,pre,0
32,79,18480,76,51,1,2,17,2,s,pre,0
33,81,18829,74,46,1,2,17,2,s,pre,0
34,83,20050,79,67,1,2,17,2,s,pre,0
35,85,20686,77,62,1,2,17,2,s,pre,0
36,87,21309,76,68,1,2,17,2,s,pre,0
37,89,21609,76,58,1,2,17,2,s,pre,0
38,91,21898,76,55,1,2,17,2,s,pre,0
39,93,22184,76,57,1,2,17,2,s,pre,0
40,95,22494,81,79,1,2,17,2,s,pre,0
41,96,22812,77,81,1,2,17,2,s,pre,0
42,98,23117,76,81,1,2,17,2,s,pre,0
43,100,23384,74,88,1,2,17,2,s,pre,0
44,102,23706,76,88,1,2,17,2,s,pre,0
45,104,23980,79,82,1,2,17,2,s,pre,0
46,106,24282,74,95,1,2,17,2,s,pre,0
47,108,24574,71,88,1,2,17,2,s,pre,0
48,110,24878,72,72,1,2,17,2,s,pre,0
49,113,25170,72,63,1,2,17,2,s,pre,0
50,115,25464,74,51,1,2,17,2,s,pre,0
51,117,25752,74,58,1,2,17,2,s,pre,0
52,119,26072,76,50,1,2,17,2,s,pre,0
53,121,27258,65,56,1,2,17,2,s,pre,0
54,123,27548,65,65,1,2,17,2,s,pre,0
55,125,27836,64,57,1,2,17,2,s,pre,0
56,127,28135,64,53,1,2,17,2,s,pre,0
57,129,28478,62,47,1,2,17,2,s,pre,0
58,131,29696,67,57,1,2,17,2,s,pre,0
59,133,29984,67,57,1,2,17,2,s,pre,0
60,135,30280,71,66,1,2,17,2,s,pre,0
61,137,30568,71,61,1,2,17,2,s,pre,0
62,139,30852,72,64,1,2,17,2,s,pre,0
63,141,31134,72,68,1,2,17,2,s,pre,0
64,143,31432,73,63,1,2,17,2,s,pre,0
65,145,31708,73,72,1,2,17,2,s,pre,0
66,147,32012,74,89,1,2,17,2,s,pre,0
67,149,32623,77,94,1,2,17,2,s,pre,0
68,150,33208,76,93,1,2,17,2,s,pre,0
69,152,33809,74,97,1,2,17,2,s,pre,0
70,155,34397,72,97,1,2,17,2,s,pre,0
71,157,35046,84,106,1,2,17,2,s,pre,0
72,159,35702,84,96,1,2,17,2,s,pre,0
1,17,8879,79,75,1,2,19,1,s,pre,0
2,18,9129,78,83,1,2,19,1,s,pre,0
3,20,9402,79,86,1,2,19,1,s,pre,0
4,22,9651,76,83,1,2,19,1,s,pre,0
5,24,9910,72,89,1,2,19,1,s,pre,0
6,27,10191,67,58,1,2,19,1,s,pre,0
7,29,10485,67,38,1,2,19,1,s,pre,0
8,31,10722,67,53,1,2,19,1,s,pre,0
9,33,10971,79,84,1,2,19,1,s,pre,0
10,34,11228,78,98,1,2,19,1,s,pre,0
11,36,11491,79,91,1,2,19,1,s,pre,0
12,38,11731,76,89,1,2,19,1,s,pre,0
13,40,11972,72,95,1,2,19,1,s,pre,0
14,42,12227,76,96,1,2,19,1,s,pre,0
15,44,12457,79,99,1,2,19,1,s,pre,0
16,46,12701,84,97,1,2,19,1,s,pre,0
17,48,12950,83,85,1,2,19,1,s,pre,0
18,51,13225,81,65,1,2,19,1,s,pre,0
19,53,13480,81,61,1,2,19,1,s,pre,0
20,55,13722,81,71,1,2,19,1,s,pre,0
21,57,13967,83,106,1,2,19,1,s,pre,0
22,58,14205,81,106,1,2,19,1,s,pre,0
23,60,14456,84,106,1,2,19,1,s,pre,0
24,62,14689,81,91,1,2,19,1,s,pre,0
25,64,14938,78,104,1,2,19,1,s,pre,0
26,66,15209,79,87,1,2,19,1,s,pre,0
27,69,15467,79,99,1,2,19,1,s,pre,0
28,71,16012,79,93,1,2,19,1,s,pre,0
29,73,17103,77,67,1,2,19,1,s,pre,0
30,75,17344,77,68,1,2,19,1,s,pre,0
31,77,17609,76,50,1,2,19,1,s,pre,0
32,79,17832,76,67,1,2,19,1,s,pre,0
33,81,18121,74,66,1,2,19,1,s,pre,0
34,83,19219,79,58,1,2,19,1,s,pre,0
35,84,19730,77,60,1,2,19,1,s,pre,0
36,87,20245,76,70,1,2,19,1,s,pre,0
37,89,20505,76,67,1,2,19,1,s,pre,0
38,91,20740,76,59,1,2,19,1,s,pre,0
39,93,21000,76,52,1,2,19,1,s,pre,0
40,95,21239,81,87,1,2,19,1,s,pre,0
41,96,21475,77,96,1,2,19,1,s,pre,0
42,98,21716,76,98,1,2,19,1,s,pre,0
43,100,21953,74,95,1,2,19,1,s,pre,0
44,102,22206,76,106,1,2,19,1,s,pre,0
45,104,22442,79,91,1,2,19,1,s,pre,0
46,106,22685,74,96,1,2,19,1,s,pre,0
47,109,22932,71,76,1,2,19,1,s,pre,0
48,111,23192,72,71,1,2,19,1,s,pre,0
49,113,23421,72,62,1,2,19,1,s,pre,0
50,115,23668,74,62,1,2,19,1,s,pre,0
51,117,23922,74,57,1,2,19,1,s,pre,0
52,119,24209,76,46,1,2,19,1,s,pre,0
53,121,25236,65,57,1,2,19,1,s,pre,0
54,123,25474,65,59,1,2,19,1,s,pre,0
55,125,25723,64,65,1,2,19,1,s,pre,0
56,127,25971,64,57,1,2,19,1,s,pre,0
57,129,26262,62,56,1,2,19,1,s,pre,0
58,131,27250,67,67,1,2,19,1,s,pre,0
59,133,27492,67,58,1,2,19,1,s,pre,0
60,135,27738,71,70,1,2,19,1,s,pre,0
61,137,27986,71,63,1,2,19,1,s,pre,0
62,139,28231,72,72,1,2,19,1,s,pre,0
63,141,28468,72,70,1,2,19,1,s,pre,0
64,143,28726,73,80,1,2,19,1,s,pre,0
65,145,28968,73,82,1,2,19,1,s,pre,0
66,147,29235,74,106,1,2,19,1,s,pre,0
67,148,29728,77,97,1,2,19,1,s,pre,0
68,150,30236,76,101,1,2,19,1,s,pre,0
69,152,30741,74,96,1,2,19,1,s,pre,0
70,154,31252,72,101,1,2,19,1,s,pre,0
71,157,31756,84,97,1,2,19,1,s,pre,0
72,159,32280,84,107,1,2,19,1,s,pre,0
1,17,8502,79,85,1,2,19,2,s,pre,0
2,18,8749,78,93,1,2,19,2,s,pre,0
3,20,9003,79,90,1,2,19,2,s,pre,0
4,22,9248,76,81,1,2,19,2,s,pre,0
5,24,9499,72,86,1,2,19,2,s,pre,0
6,27,9752,67,61,1,2,19,2,s,pre,0
7,29,10003,67,54,1,2,19,2,s,pre,0
8,31,10259,67,58,1,2,19,2,s,pre,0
9,33,10496,79,80,1,2,19,2,s,pre,0
10,34,10751,78,91,1,2,19,2,s,pre,0
11,36,10999,79,96,1,2,19,2,s,pre,0
12,38,11248,76,91,1,2,19,2,s,pre,0
13,40,11499,72,96,1,2,19,2,s,pre,0
14,42,11743,76,94,1,2,19,2,s,pre,0
15,44,11986,79,91,1,2,19,2,s,pre,0
16,46,12214,84,95,1,2,19,2,s,pre,0
17,48,12446,83,91,1,2,19,2,s,pre,0
18,51,12719,81,69,1,2,19,2,s,pre,0
19,53,12976,81,54,1,2,19,2,s,pre,0
20,55,13192,81,67,1,2,19,2,s,pre,0
21,57,13424,83,103,1,2,19,2,s,pre,0
22,58,13669,81,104,1,2,19,2,s,pre,0
23,60,13909,84,103,1,2,19,2,s,pre,0
24,62,14148,81,99,1,2,19,2,s,pre,0
25,64,14402,78,98,1,2,19,2,s,pre,0
26,66,14639,79,98,1,2,19,2,s,pre,0
27,69,14923,79,93,1,2,19,2,s,pre,0
28,71,15456,79,88,1,2,19,2,s,pre,0
29,73,16480,77,54,1,2,19,2,s,pre,0
30,75,16723,77,60,1,2,19,2,s,pre,0
31,77,16966,76,52,1,2,19,2,s,pre,0
32,79,17196,76,52,1,2,19,2,s,pre,0
33,81,17504,74,51,1,2,19,2,s,pre,0
34,83,18520,79,50,1,2,19,2,s,pre,0
35,85,19042,77,45,1,2,19,2,s,pre,0
36,87,19518,76,54,1,2,19,2,s,pre,0
37,89,19760,76,66,1,2,19,2,s,pre,0
38,91,19999,76,60,1,2,19,2,s,pre,0
39,93,20236,76,62,1,2,19,2,s,pre,0
40,95,20487,81,91,1,2,19,2,s,pre,0
41,96,20733,77,103,1,2,19,2,s,pre,0
42,98,20980,76,103,1,2,19,2,s,pre,0
43,100,21206,74,98,1,2,19,2,s,pre,0
44,103,21445,76,104,1,2,19,2,s,pre,0
45,104,21681,79,87,1,2,19,2,s,pre,0
46,106,21916,74,96,1,2,19,2,s,pre,0
47,108,22146,71,84,1,2,19,2,s,pre,0
48,111,22408,72,62,1,2,19,2,s,pre,0
49,113,22646,72,66,1,2,19,2,s,pre,0
50,115,22859,74,68,1,2,19,2,s,pre,0
51,117,23109,74,68,1,2,19,2,s,pre,0
52,119,23372,76,60,1,2,19,2,s,pre,0
53,121,24378,65,58,1,2,19,2,s,pre,0
54,123,24597,65,63,1,2,19,2,s,pre,0
55,125,24851,64,56,1,2,19,2,s,pre,0
56,127,25071,64,66,1,2,19,2,s,pre,0
57,129,25373,62,49,1,2,19,2,s,pre,0
58,131,26315,67,64,1,2,19,2,s,pre,0
59,133,26548,67,63,1,2,19,2,s,pre,0
60,135,26782,71,74,1,2,19,2,s,pre,0
61,137,27013,71,71,1,2,19,2,s,pre,0
62,139,27247,72,67,1,2,19,2,s,pre,0
63,141,27503,72,67,1,2,19,2,s,pre,0
64,143,27731,73,70,1,2,19,2,s,pre,0
65,145,27969,73,70,1,2,19,2,s,pre,0
66,147,28232,74,105,1,2,19,2,s,pre,0
67,148,28744,77,97,1,2,19,2,s,pre,0
68,150,29235,76,105,1,2,19,2,s,pre,0
69,152,29716,74,103,1,2,19,2,s,pre,0
70,154,30210,72,99,1,2,19,2,s,pre,0
71,157,30699,84,110,1,2,19,2,s,pre,0
72,159,31223,84,110,1,2,19,2,s,pre,0
1,17,9605,79,55,1,2,20,3,s,pre,0
2,18,9971,78,58,1,2,20,3,s,pre,0
3,21,10277,79,58,1,2,20,3,s,pre,0
4,22,10595,76,63,1,2,20,3,s,pre,0
5,25,10944,72,58,1,2,20,3,s,pre,0
6,27,11311,67,61,1,2,20,3,s,pre,0
7,29,11626,67,57,1,2,20,3,s,pre,0
8,31,11937,67,67,1,2,20,3,s,pre,0
9,33,12337,79,53,1,2,20,3,s,pre,0
10,34,12684,78,59,1,2,20,3,s,pre,0
11,37,12992,79,56,1,2,20,3,s,pre,0
12,38,13288,76,56,1,2,20,3,s,pre,0
13,41,13583,72,61,1,2,20,3,s,pre,0
14,42,13900,76,71,1,2,20,3,s,pre,0
15,44,14219,79,78,1,2,20,3,s,pre,0
16,46,14511,84,81,1,2,20,3,s,pre,0
17,48,14833,83,79,1,2,20,3,s,pre,0
18,50,15172,81,65,1,2,20,3,s,pre,0
19,53,15497,81,56,1,2,20,3,s,pre,0
20,55,15802,81,56,1,2,20,3,s,pre,0
21,57,16177,83,64,1,2,20,3,s,pre,0
22,58,16492,81,74,1,2,20,3,s,pre,0
23,61,16790,84,78,1,2,20,3,s,pre,0
24,62,17086,81,78,1,2,20,3,s,pre,0
25,64,17403,78,75,1,2,20,3,s,pre,0
26,66,17711,79,75,1,2,20,3,s,pre,0
27,69,18080,79,75,1,2,20,3,s,pre,0
28,71,18768,79,77,1,2,20,3,s,pre,0
29,73,20206,77,56,1,2,20,3,s,pre,0
30,75,20545,77,58,1,2,20,3,s,pre,0
31,77,20849,76,62,1,2,20,3,s,pre,0
32,79,21176,76,57,1,2,20,3,s,pre,0
33,81,21535,74,52,1,2,20,3,s,pre,0
34,83,23008,79,53,1,2,20,3,s,pre,0
35,84,23687,77,57,1,2,20,3,s,pre,0
36,86,24347,76,52,1,2,20,3,s,pre,0
37,89,24667,76,52,1,2,20,3,s,pre,0
38,91,24987,76,53,1,2,20,3,s,pre,0
39,93,25305,76,68,1,2,20,3,s,pre,0
40,95,25731,81,59,1,2,20,3,s,pre,0
41,96,26070,77,73,1,2,20,3,s,pre,0
42,98,26379,76,78,1,2,20,3,s,pre,0
43,100,26655,74,80,1,2,20,3,s,pre,0
44,102,26995,76,68,1,2,20,3,s,pre,0
45,104,27301,79,70,1,2,20,3,s,pre,0
46,106,27618,74,73,1,2,20,3,s,pre,0
47,108,27929,71,71,1,2,20,3,s,pre,0
48,110,28291,72,63,1,2,20,3,s,pre,0
49,113,28604,72,64,1,2,20,3,s,pre,0
50,115,28915,74,57,1,2,20,3,s,pre,0
51,117,29233,74,59,1,2,20,3,s,pre,0
52,119,29659,76,35,1,2,20,3,s,pre,0
53,121,30985,65,38,1,2,20,3,s,pre,0
54,123,31298,65,63,1,2,20,3,s,pre,0
55,125,31625,64,50,1,2,20,3,s,pre,0
56,127,31933,64,52,1,2,20,3,s,pre,0
57,129,32266,62,49,1,2,20,3,s,pre,0
58,131,33695,67,57,1,2,20,3,s,pre,0
59,133,34035,67,62,1,2,20,3,s,pre,0
60,135,34343,71,57,1,2,20,3,s,pre,0
61,137,34647,71,65,1,2,20,3,s,pre,0
62,139,34953,72,67,1,2,20,3,s,pre,0
63,141,35259,72,70,1,2,20,3,s,pre,0
64,143,35565,73,63,1,2,20,3,s,pre,0
65,145,35862,73,74,1,2,20,3,s,pre,0
66,147,36254,74,72,1,2,20,3,s,pre,0
67,148,36929,77,86,1,2,20,3,s,pre,0
68,150,37563,76,71,1,2,20,3,s,pre,0
69,152,38169,74,75,1,2,20,3,s,pre,0
70,154,38815,72,76,1,2,20,3,s,pre,0
71,157,39492,84,81,1,2,20,3,s,pre,0
72,159,40181,84,84,1,2,20,3,s,pre,0
