RowNr,NoteNr,TimeStamp,Pitch,Velocity,Key_OnOff,Device,SubNr,TrialNr,Stimuli,Session,Error
1,19,8265,79,64,0,2,2,1,s,pre,0
2,21,8573,78,64,0,2,2,1,s,pre,0
3,23,8788,79,64,0,2,2,1,s,pre,0
4,25,9117,76,64,0,2,2,1,s,pre,0
5,26,9208,72,64,0,2,2,1,s,pre,0
6,28,9454,67,64,0,2,2,1,s,pre,0
7,30,9744,67,64,0,2,2,1,s,pre,0
8,32,10047,67,64,0,2,2,1,s,pre,0
9,35,10646,79,64,0,2,2,1,s,pre,0
10,37,10920,78,64,0,2,2,1,s,pre,0
11,39,11199,79,64,0,2,2,1,s,pre,0
12,41,11518,76,64,0,2,2,1,s,pre,0
13,43,11819,72,64,0,2,2,1,s,pre,0
14,45,12116,76,64,0,2,2,1,s,pre,0
15,47,12354,79,64,0,2,2,1,s,pre,0
16,49,12651,84,64,0,2,2,1,s,pre,0
17,50,12742,83,64,0,2,2,1,s,pre,0
18,52,12994,81,64,0,2,2,1,s,pre,0
19,54,13281,81,64,0,2,2,1,s,pre,0
20,56,13549,81,64,0,2,2,1,s,pre,0
21,59,14135,83,64,0,2,2,1,s,pre,0
22,61,14430,81,64,0,2,2,1,s,pre,0
23,63,14685,84,64,0,2,2,1,s,pre,0
24,65,15029,81,64,0,2,2,1,s,pre,0
25,67,15295,78,64,0,2,2,1,s,pre,0
26,68,15300,79,64,0,2,2,1,s,pre,0
27,70,16152,79,64,0,2,2,1,s,pre,0
28,72,16932,79,64,0,2,2,1,s,pre,0
29,74,17698,77,64,0,2,2,1,s,pre,0
30,76,17988,77,64,0,2,2,1,s,pre,0
31,78,18305,76,64,0,2,2,1,s,pre,0
32,80,18593,76,64,0,2,2,1,s,pre,0
33,82,19473,74,64,0,2,2,1,s,pre,0
34,85,20897,79,64,0,2,2,1,s,pre,0
35,87,21413,77,64,0,2,2,1,s,pre,0
36,88,21450,76,64,0,2,2,1,s,pre,0
37,90,21751,76,64,0,2,2,1,s,pre,0
38,92,22035,76,64,0,2,2,1,s,pre,0
39,94,22327,76,64,0,2,2,1,s,pre,0
40,97,23050,81,64,0,2,2,1,s,pre,0
41,99,23278,77,64,0,2,2,1,s,pre,0
42,101,23515,76,64,0,2,2,1,s,pre,0
43,103,23802,74,64,0,2,2,1,s,pre,0
44,105,24063,76,64,0,2,2,1,s,pre,0
45,107,24389,79,64,0,2,2,1,s,pre,0
46,109,24634,74,64,0,2,2,1,s,pre,0
47,110,24697,71,64,0,2,2,1,s,pre,0
48,112,24970,72,64,0,2,2,1,s,pre,0
49,114,25263,72,64,0,2,2,1,s,pre,0
50,116,25557,74,64,0,2,2,1,s,pre,0
51,118,25829,74,64,0,2,2,1,s,pre,0
52,120,26721,76,64,0,2,2,1,s,pre,0
53,122,27585,65,64,0,2,2,1,s,pre,0
54,124,27856,65,64,0,2,2,1,s,pre,0
55,126,28130,64,64,0,2,2,1,s,pre,0
56,128,28395,64,64,0,2,2,1,s,pre,0
57,130,29343,62,64,0,2,2,1,s,pre,0
58,132,30152,67,64,0,2,2,1,s,pre,0
59,134,30410,67,64,0,2,2,1,s,pre,0
60,136,30703,71,64,0,2,2,1,s,pre,0
61,138,30987,71,64,0,2,2,1,s,pre,0
62,140,31302,72,64,0,2,2,1,s,pre,0
63,142,31555,72,64,0,2,2,1,s,pre,0
64,144,31877,73,64,0,2,2,1,s,pre,0
65,146,32152,73,64,0,2,2,1,s,pre,0
66,149,33132,74,64,0,2,2,1,s,pre,0
67,151,33723,77,64,0,2,2,1,s,pre,0
68,153,34274,76,64,0,2,2,1,s,pre,0
69,155,34845,74,64,0,2,2,1,s,pre,0
70,157,35432,72,64,0,2,2,1,s,pre,0
71,158,35946,84,64,0,2,2,1,s,pre,0
72,160,36671,84,64,0,2,2,1,s,pre,0
1,19,8218,79,64,0,2,2,2,s,pre,0
2,21,8500,78,64,0,2,2,2,s,pre,0
3,23,8767,79,64,0,2,2,2,s,pre,0
4,25,9060,76,64,0,2,2,2,s,pre,0
5,26,9146,72,64,0,2,2,2,s,pre,0
6,28,9387,67,64,0,2,2,2,s,pre,0
7,30,9664,67,64,0,2,2,2,s,pre,0
8,32,9939,67,64,0,2,2,2,s,pre,0
9,35,10529,79,64,0,2,2,2,s,pre,0
10,37,10807,78,64,0,2,2,2,s,pre,0
11,39,11069,79,64,0,2,2,2,s,pre,0
12,41,11354,76,64,0,2,2,2,s,pre,0
13,43,11664,72,64,0,2,2,2,s,pre,0
14,45,11954,76,64,0,2,2,2,s,pre,0
15,47,12182,79,64,0,2,2,2,s,pre,0
16,49,12459,84,64,0,2,2,2,s,pre,0
17,50,12571,83,64,0,2,2,2,s,pre,0
18,52,12813,81,64,0,2,2,2,s,pre,0
19,54,13089,81,64,0,2,2,2,s,pre,0
20,56,13341,81,64,0,2,2,2,s,pre,0
21,59,13948,83,64,0,2,2,2,s,pre,0
22,61,14227,81,64,0,2,2,2,s,pre,0
23,63,14468,84,64,0,2,2,2,s,pre,0
24,65,14771,81,64,0,2,2,2,s,pre,0
25,67,15020,78,64,0,2,2,2,s,pre,0
26,68,15074,79,64,0,2,2,2,s,pre,0
27,70,15683,79,64,0,2,2,2,s,pre,0
28,72,16464,79,64,0,2,2,2,s,pre,0
29,74,17230,77,64,0,2,2,2,s,pre,0
30,76,17517,77,64,0,2,2,2,s,pre,0
31,78,17802,76,64,0,2,2,2,s,pre,0
32,80,18092,76,64,0,2,2,2,s,pre,0
33,82,18916,74,64,0,2,2,2,s,pre,0
34,85,20262,79,64,0,2,2,2,s,pre,0
35,87,20806,77,64,0,2,2,2,s,pre,0
36,88,20858,76,64,0,2,2,2,s,pre,0
37,90,21145,76,64,0,2,2,2,s,pre,0
38,92,21403,76,64,0,2,2,2,s,pre,0
39,94,21688,76,64,0,2,2,2,s,pre,0
40,97,22346,81,64,0,2,2,2,s,pre,0
41,99,22558,77,64,0,2,2,2,s,pre,0
42,101,22806,76,64,0,2,2,2,s,pre,0
43,103,23119,74,64,0,2,2,2,s,pre,0
44,105,23356,76,64,0,2,2,2,s,pre,0
45,107,23680,79,64,0,2,2,2,s,pre,0
46,109,23920,74,64,0,2,2,2,s,pre,0
47,110,23959,71,64,0,2,2,2,s,pre,0
48,112,24258,72,64,0,2,2,2,s,pre,0
49,114,24550,72,64,0,2,2,2,s,pre,0
50,116,24825,74,64,0,2,2,2,s,pre,0
51,118,25084,74,64,0,2,2,2,s,pre,0
52,120,25998,76,64,0,2,2,2,s,pre,0
53,122,26722,65,64,0,2,2,2,s,pre,0
54,124,26992,65,64,0,2,2,2,s,pre,0
55,126,27305,64,64,0,2,2,2,s,pre,0
56,128,27586,64,64,0,2,2,2,s,pre,0
57,130,28489,62,64,0,2,2,2,s,pre,0
58,132,29160,67,64,0,2,2,2,s,pre,0
59,134,29438,67,64,0,2,2,2,s,pre,0
60,136,29746,71,64,0,2,2,2,s,pre,0
61,138,30016,71,64,0,2,2,2,s,pre,0
62,140,30311,72,64,0,2,2,2,s,pre,0
63,142,30581,72,64,0,2,2,2,s,pre,0
64,144,30893,73,64,0,2,2,2,s,pre,0
65,146,31151,73,64,0,2,2,2,s,pre,0
66,149,32130,74,64,0,2,2,2,s,pre,0
67,151,32688,77,64,0,2,2,2,s,pre,0
68,153,33264,76,64,0,2,2,2,s,pre,0
69,154,33717,74,64,0,2,2,2,s,pre,0
70,156,34286,72,64,0,2,2,2,s,pre,0
71,158,34897,84,64,0,2,2,2,s,pre,0
72,160,35611,84,64,0,2,2,2,s,pre,0
1,19,8344,79,64,0,2,3,1,s,pre,0
2,21,8624,78,64,0,2,3,1,s,pre,0
3,23,8879,79,64,0,2,3,1,s,pre,0
4,25,9172,76,64,0,2,3,1,s,pre,0
5,26,9368,72,64,0,2,3,1,s,pre,0
6,28,9452,67,64,0,2,3,1,s,pre,0
7,30,9722,67,64,0,2,3,1,s,pre,0
8,32,9965,67,64,0,2,3,1,s,pre,0
9,35,10594,79,64,0,2,3,1,s,pre,0
10,37,10868,78,64,0,2,3,1,s,pre,0
11,39,11106,79,64,0,2,3,1,s,pre,0
12,41,11333,76,64,0,2,3,1,s,pre,0
13,43,11626,72,64,0,2,3,1,s,pre,0
14,45,11874,76,64,0,2,3,1,s,pre,0
15,47,12087,79,64,0,2,3,1,s,pre,0
16,49,12430,84,64,0,2,3,1,s,pre,0
17,51,12639,83,64,0,2,3,1,s,pre,0
18,52,12730,81,64,0,2,3,1,s,pre,0
19,54,12946,81,64,0,2,3,1,s,pre,0
20,56,13192,81,64,0,2,3,1,s,pre,0
21,59,13658,83,64,0,2,3,1,s,pre,0
22,61,13921,81,64,0,2,3,1,s,pre,0
23,63,14212,84,64,0,2,3,1,s,pre,0
24,65,14425,81,64,0,2,3,1,s,pre,0
25,67,14700,78,64,0,2,3,1,s,pre,0
26,68,14800,79,64,0,2,3,1,s,pre,0
27,70,15161,79,64,0,2,3,1,s,pre,0
28,72,15934,79,64,0,2,3,1,s,pre,0
29,74,16870,77,64,0,2,3,1,s,pre,0
30,76,17102,77,64,0,2,3,1,s,pre,0
31,78,17344,76,64,0,2,3,1,s,pre,0
32,80,17640,76,64,0,2,3,1,s,pre,0
33,82,17986,74,64,0,2,3,1,s,pre,0
34,84,19146,79,64,0,2,3,1,s,pre,0
35,86,19676,77,64,0,2,3,1,s,pre,0
36,88,20182,76,64,0,2,3,1,s,pre,0
37,90,20524,76,64,0,2,3,1,s,pre,0
38,92,20798,76,64,0,2,3,1,s,pre,0
39,94,21046,76,64,0,2,3,1,s,pre,0
40,97,21598,81,64,0,2,3,1,s,pre,0
41,99,21824,77,64,0,2,3,1,s,pre,0
42,101,22018,76,64,0,2,3,1,s,pre,0
43,103,22294,74,64,0,2,3,1,s,pre,0
44,105,22552,76,64,0,2,3,1,s,pre,0
45,107,22836,79,64,0,2,3,1,s,pre,0
46,109,22986,74,64,0,2,3,1,s,pre,0
47,111,23205,71,64,0,2,3,1,s,pre,0
48,112,23254,72,64,0,2,3,1,s,pre,0
49,114,23528,72,64,0,2,3,1,s,pre,0
50,116,23743,74,64,0,2,3,1,s,pre,0
51,118,23978,74,64,0,2,3,1,s,pre,0
52,120,24406,76,64,0,2,3,1,s,pre,0
53,122,25410,65,64,0,2,3,1,s,pre,0
54,124,25626,65,64,0,2,3,1,s,pre,0
55,126,25878,64,64,0,2,3,1,s,pre,0
56,128,26146,64,64,0,2,3,1,s,pre,0
57,130,26546,62,64,0,2,3,1,s,pre,0
58,132,27572,67,64,0,2,3,1,s,pre,0
59,134,27842,67,64,0,2,3,1,s,pre,0
60,136,28078,71,64,0,2,3,1,s,pre,0
61,138,28352,71,64,0,2,3,1,s,pre,0
62,140,28582,72,64,0,2,3,1,s,pre,0
63,142,28842,72,64,0,2,3,1,s,pre,0
64,144,29086,73,64,0,2,3,1,s,pre,0
65,146,29338,73,64,0,2,3,1,s,pre,0
66,148,29682,74,64,0,2,3,1,s,pre,0
67,150,30153,77,64,0,2,3,1,s,pre,0
68,152,30626,76,64,0,2,3,1,s,pre,0
69,154,31091,74,64,0,2,3,1,s,pre,0
70,156,31606,72,64,0,2,3,1,s,pre,0
71,158,32084,84,64,0,2,3,1,s,pre,0
72,160,32759,84,64,0,2,3,1,s,pre,0
1,19,8337,79,64,0,2,3,2,s,pre,0
2,21,8592,78,64,0,2,3,2,s,pre,0
3,23,8857,79,64,0,2,3,2,s,pre,0
4,25,9132,76,64,0,2,3,2,s,pre,0
5,26,9396,72,64,0,2,3,2,s,pre,0
6,28,9547,67,64,0,2,3,2,s,pre,0
7,30,9735,67,64,0,2,3,2,s,pre,0
8,32,9990,67,64,0,2,3,2,s,pre,0
9,35,10547,79,64,0,2,3,2,s,pre,0
10,37,10799,78,64,0,2,3,2,s,pre,0
11,39,11000,79,64,0,2,3,2,s,pre,0
12,41,11246,76,64,0,2,3,2,s,pre,0
13,43,11681,72,64,0,2,3,2,s,pre,0
14,45,11808,76,64,0,2,3,2,s,pre,0
15,47,12043,79,64,0,2,3,2,s,pre,0
16,49,12413,84,64,0,2,3,2,s,pre,0
17,51,12655,83,64,0,2,3,2,s,pre,0
18,52,12733,81,64,0,2,3,2,s,pre,0
19,54,12947,81,64,0,2,3,2,s,pre,0
20,56,13181,81,64,0,2,3,2,s,pre,0
21,59,13673,83,64,0,2,3,2,s,pre,0
22,61,13906,81,64,0,2,3,2,s,pre,0
23,63,14211,84,64,0,2,3,2,s,pre,0
24,65,14435,81,64,0,2,3,2,s,pre,0
25,67,14673,78,64,0,2,3,2,s,pre,0
26,68,14767,79,64,0,2,3,2,s,pre,0
27,70,15083,79,64,0,2,3,2,s,pre,0
28,72,15853,79,64,0,2,3,2,s,pre,0
29,74,16821,77,64,0,2,3,2,s,pre,0
30,76,17053,77,64,0,2,3,2,s,pre,0
31,78,17281,76,64,0,2,3,2,s,pre,0
32,80,17569,76,64,0,2,3,2,s,pre,0
33,82,17889,74,64,0,2,3,2,s,pre,0
34,84,19197,79,64,0,2,3,2,s,pre,0
35,86,19771,77,64,0,2,3,2,s,pre,0
36,88,20144,76,64,0,2,3,2,s,pre,0
37,90,20403,76,64,0,2,3,2,s,pre,0
38,92,20633,76,64,0,2,3,2,s,pre,0
39,94,20933,76,64,0,2,3,2,s,pre,0
40,97,21579,81,64,0,2,3,2,s,pre,0
41,99,21779,77,64,0,2,3,2,s,pre,0
42,100,21972,76,64,0,2,3,2,s,pre,0
43,102,22200,74,64,0,2,3,2,s,pre,0
44,105,22489,76,64,0,2,3,2,s,pre,0
45,107,22745,79,64,0,2,3,2,s,pre,0
46,109,22906,74,64,0,2,3,2,s,pre,0
47,110,23105,71,64,0,2,3,2,s,pre,0
48,112,23197,72,64,0,2,3,2,s,pre,0
49,114,23433,72,64,0,2,3,2,s,pre,0
50,116,23665,74,64,0,2,3,2,s,pre,0
51,118,23893,74,64,0,2,3,2,s,pre,0
52,120,24295,76,64,0,2,3,2,s,pre,0
53,122,25333,65,64,0,2,3,2,s,pre,0
54,124,25563,65,64,0,2,3,2,s,pre,0
55,126,25791,64,64,0,2,3,2,s,pre,0
56,128,26058,64,64,0,2,3,2,s,pre,0
57,130,26395,62,64,0,2,3,2,s,pre,0
58,132,27483,67,64,0,2,3,2,s,pre,0
59,134,27745,67,64,0,2,3,2,s,pre,0
60,136,27990,71,64,0,2,3,2,s,pre,0
61,138,28244,71,64,0,2,3,2,s,pre,0
62,140,28468,72,64,0,2,3,2,s,pre,0
63,142,28714,72,64,0,2,3,2,s,pre,0
64,144,28955,73,64,0,2,3,2,s,pre,0
65,146,29195,73,64,0,2,3,2,s,pre,0
66,148,29485,74,64,0,2,3,2,s,pre,0
67,150,30013,77,64,0,2,3,2,s,pre,0
68,152,30491,76,64,0,2,3,2,s,pre,0
69,154,30948,74,64,0,2,3,2,s,pre,0
70,156,31469,72,64,0,2,3,2,s,pre,0
71,158,31985,84,64,0,2,3,2,s,pre,0
72,160,32686,84,64,0,2,3,2,s,pre,0
1,19,8159,79,64,0,2,4,2,s,pre,0
2,21,8414,78,64,0,2,4,2,s,pre,0
3,23,8700,79,64,0,2,4,2,s,pre,0
4,25,9003,76,64,0,2,4,2,s,pre,0
5,27,9222,72,64,0,2,4,2,s,pre,0
6,28,9257,67,64,0,2,4,2,s,pre,0
7,30,9517,67,64,0,2,4,2,s,pre,0
8,32,9809,67,64,0,2,4,2,s,pre,0
9,35,10386,79,64,0,2,4,2,s,pre,0
10,37,10695,78,64,0,2,4,2,s,pre,0
11,39,10933,79,64,0,2,4,2,s,pre,0
12,41,11198,76,64,0,2,4,2,s,pre,0
13,43,11550,72,64,0,2,4,2,s,pre,0
14,45,11792,76,64,0,2,4,2,s,pre,0
15,47,12022,79,64,0,2,4,2,s,pre,0
16,49,12378,84,64,0,2,4,2,s,pre,0
17,51,12593,83,64,0,2,4,2,s,pre,0
18,52,12618,81,64,0,2,4,2,s,pre,0
19,54,12903,81,64,0,2,4,2,s,pre,0
20,56,13147,81,64,0,2,4,2,s,pre,0
21,59,13719,83,64,0,2,4,2,s,pre,0
22,61,13974,81,64,0,2,4,2,s,pre,0
23,63,14312,84,64,0,2,4,2,s,pre,0
24,65,14566,81,64,0,2,4,2,s,pre,0
25,67,14849,78,64,0,2,4,2,s,pre,0
26,68,14874,79,64,0,2,4,2,s,pre,0
27,70,15215,79,64,0,2,4,2,s,pre,0
28,72,16052,79,64,0,2,4,2,s,pre,0
29,74,16752,77,64,0,2,4,2,s,pre,0
30,76,17021,77,64,0,2,4,2,s,pre,0
31,78,17296,76,64,0,2,4,2,s,pre,0
32,80,17564,76,64,0,2,4,2,s,pre,0
33,82,18489,74,64,0,2,4,2,s,pre,0
34,84,19289,79,64,0,2,4,2,s,pre,0
35,86,19803,77,64,0,2,4,2,s,pre,0
36,88,20166,76,64,0,2,4,2,s,pre,0
37,90,20426,76,64,0,2,4,2,s,pre,0
38,92,20708,76,64,0,2,4,2,s,pre,0
39,94,20975,76,64,0,2,4,2,s,pre,0
40,97,21791,81,64,0,2,4,2,s,pre,0
41,99,21917,77,64,0,2,4,2,s,pre,0
42,101,22128,76,64,0,2,4,2,s,pre,0
43,103,22458,74,64,0,2,4,2,s,pre,0
44,105,22693,76,64,0,2,4,2,s,pre,0
45,107,23041,79,64,0,2,4,2,s,pre,0
46,109,23215,74,64,0,2,4,2,s,pre,0
47,110,23293,71,64,0,2,4,2,s,pre,0
48,112,23523,72,64,0,2,4,2,s,pre,0
49,114,23775,72,64,0,2,4,2,s,pre,0
50,116,24064,74,64,0,2,4,2,s,pre,0
51,118,24355,74,64,0,2,4,2,s,pre,0
52,120,25188,76,64,0,2,4,2,s,pre,0
53,122,25711,65,64,0,2,4,2,s,pre,0
54,124,25968,65,64,0,2,4,2,s,pre,0
55,126,26260,64,64,0,2,4,2,s,pre,0
56,128,26515,64,64,0,2,4,2,s,pre,0
57,130,27463,62,64,0,2,4,2,s,pre,0
58,132,27945,67,64,0,2,4,2,s,pre,0
59,134,28191,67,64,0,2,4,2,s,pre,0
60,136,28486,71,64,0,2,4,2,s,pre,0
61,138,28748,71,64,0,2,4,2,s,pre,0
62,140,29017,72,64,0,2,4,2,s,pre,0
63,142,29277,72,64,0,2,4,2,s,pre,0
64,144,29559,73,64,0,2,4,2,s,pre,0
65,146,29809,73,64,0,2,4,2,s,pre,0
66,148,30626,74,64,0,2,4,2,s,pre,0
67,150,31180,77,64,0,2,4,2,s,pre,0
68,152,31782,76,64,0,2,4,2,s,pre,0
69,155,32399,74,64,0,2,4,2,s,pre,0
70,157,32993,72,64,0,2,4,2,s,pre,0
71,158,33386,84,64,0,2,4,2,s,pre,0
72,160,34216,84,64,0,2,4,2,s,pre,0
1,19,9513,79,64,0,2,7,1,s,pre,0
2,21,9877,78,64,0,2,7,1,s,pre,0
3,23,10166,79,64,0,2,7,1,s,pre,0
4,24,10492,76,64,0,2,7,1,s,pre,0
5,26,10655,72,64,0,2,7,1,s,pre,0
6,28,10889,67,64,0,2,7,1,s,pre,0
7,30,11220,67,64,0,2,7,1,s,pre,0
8,32,11586,67,64,0,2,7,1,s,pre,0
9,35,12235,79,64,0,2,7,1,s,pre,0
10,37,12556,78,64,0,2,7,1,s,pre,0
11,39,12893,79,64,0,2,7,1,s,pre,0
12,40,13173,76,64,0,2,7,1,s,pre,0
13,43,13566,72,64,0,2,7,1,s,pre,0
14,45,13914,76,64,0,2,7,1,s,pre,0
15,47,14219,79,64,0,2,7,1,s,pre,0
16,49,14606,84,64,0,2,7,1,s,pre,0
17,50,14781,83,64,0,2,7,1,s,pre,0
18,52,15000,81,64,0,2,7,1,s,pre,0
19,54,15312,81,64,0,2,7,1,s,pre,0
20,56,15646,81,64,0,2,7,1,s,pre,0
21,59,16306,83,64,0,2,7,1,s,pre,0
22,61,16623,81,64,0,2,7,1,s,pre,0
23,63,16953,84,64,0,2,7,1,s,pre,0
24,65,17340,81,64,0,2,7,1,s,pre,0
25,67,17653,78,64,0,2,7,1,s,pre,0
26,68,17710,79,64,0,2,7,1,s,pre,0
27,70,18284,79,64,0,2,7,1,s,pre,0
28,72,19405,79,64,0,2,7,1,s,pre,0
29,74,20436,77,64,0,2,7,1,s,pre,0
30,76,20761,77,64,0,2,7,1,s,pre,0
31,78,21094,76,64,0,2,7,1,s,pre,0
32,80,21458,76,64,0,2,7,1,s,pre,0
33,82,22303,74,64,0,2,7,1,s,pre,0
34,84,23747,79,64,0,2,7,1,s,pre,0
35,86,24249,77,64,0,2,7,1,s,pre,0
36,88,24611,76,64,0,2,7,1,s,pre,0
37,90,24955,76,64,0,2,7,1,s,pre,0
38,92,25284,76,64,0,2,7,1,s,pre,0
39,94,25623,76,64,0,2,7,1,s,pre,0
40,97,26392,81,64,0,2,7,1,s,pre,0
41,99,26701,77,64,0,2,7,1,s,pre,0
42,101,27005,76,64,0,2,7,1,s,pre,0
43,103,27383,74,64,0,2,7,1,s,pre,0
44,105,27774,76,64,0,2,7,1,s,pre,0
45,107,28121,79,64,0,2,7,1,s,pre,0
46,108,28383,74,64,0,2,7,1,s,pre,0
47,110,28515,71,64,0,2,7,1,s,pre,0
48,112,28770,72,64,0,2,7,1,s,pre,0
49,114,29115,72,64,0,2,7,1,s,pre,0
50,116,29464,74,64,0,2,7,1,s,pre,0
51,118,29804,74,64,0,2,7,1,s,pre,0
52,120,30812,76,64,0,2,7,1,s,pre,0
53,122,31565,65,64,0,2,7,1,s,pre,0
54,124,31913,65,64,0,2,7,1,s,pre,0
55,126,32279,64,64,0,2,7,1,s,pre,0
56,128,32636,64,64,0,2,7,1,s,pre,0
57,130,33700,62,64,0,2,7,1,s,pre,0
58,132,34361,67,64,0,2,7,1,s,pre,0
59,134,34694,67,64,0,2,7,1,s,pre,0
60,136,35031,71,64,0,2,7,1,s,pre,0
61,138,35376,71,64,0,2,7,1,s,pre,0
62,140,35712,72,64,0,2,7,1,s,pre,0
63,142,36047,72,64,0,2,7,1,s,pre,0
64,144,36389,73,64,0,2,7,1,s,pre,0
65,146,36712,73,64,0,2,7,1,s,pre,0
66,148,37746,74,64,0,2,7,1,s,pre,0
67,151,38542,77,64,0,2,7,1,s,pre,0
68,153,39304,76,64,0,2,7,1,s,pre,0
69,154,39956,74,64,0,2,7,1,s,pre,0
70,156,40594,72,64,0,2,7,1,s,pre,0
71,158,41210,84,64,0,2,7,1,s,pre,0
72,160,42272,84,64,0,2,7,1,s,pre,0
1,19,8238,79,64,0,2,8,2,s,pre,0
2,21,8559,78,64,0,2,8,2,s,pre,0
3,23,8810,79,64,0,2,8,2,s,pre,0
4,25,9078,76,64,0,2,8,2,s,pre,0
5,26,9324,72,64,0,2,8,2,s,pre,0
6,28,9454,67,64,0,2,8,2,s,pre,0
7,30,9722,67,64,0,2,8,2,s,pre,0
8,32,10076,67,64,0,2,8,2,s,pre,0
9,35,10634,79,64,0,2,8,2,s,pre,0
10,37,10966,78,64,0,2,8,2,s,pre,0
11,39,11198,79,64,0,2,8,2,s,pre,0
12,40,11446,76,64,0,2,8,2,s,pre,0
13,43,11792,72,64,0,2,8,2,s,pre,0
14,45,12084,76,64,0,2,8,2,s,pre,0
15,47,12322,79,64,0,2,8,2,s,pre,0
16,49,12735,84,64,0,2,8,2,s,pre,0
17,50,12894,83,64,0,2,8,2,s,pre,0
18,52,12972,81,64,0,2,8,2,s,pre,0
19,54,13294,81,64,0,2,8,2,s,pre,0
20,56,13615,81,64,0,2,8,2,s,pre,0
21,59,14172,83,64,0,2,8,2,s,pre,0
22,61,14452,81,64,0,2,8,2,s,pre,0
23,63,14950,84,64,0,2,8,2,s,pre,0
24,64,15029,81,64,0,2,8,2,s,pre,0
25,67,15353,78,64,0,2,8,2,s,pre,0
26,68,15464,79,64,0,2,8,2,s,pre,0
27,70,15968,79,64,0,2,8,2,s,pre,0
28,72,16886,79,64,0,2,8,2,s,pre,0
29,74,17548,77,64,0,2,8,2,s,pre,0
30,76,17840,77,64,0,2,8,2,s,pre,0
31,78,18134,76,64,0,2,8,2,s,pre,0
32,80,18416,76,64,0,2,8,2,s,pre,0
33,82,19210,74,64,0,2,8,2,s,pre,0
34,85,20624,79,64,0,2,8,2,s,pre,0
35,86,21115,77,64,0,2,8,2,s,pre,0
36,88,21264,76,64,0,2,8,2,s,pre,0
37,90,21564,76,64,0,2,8,2,s,pre,0
38,92,21830,76,64,0,2,8,2,s,pre,0
39,94,22087,76,64,0,2,8,2,s,pre,0
40,97,22924,81,64,0,2,8,2,s,pre,0
41,99,23101,77,64,0,2,8,2,s,pre,0
42,101,23292,76,64,0,2,8,2,s,pre,0
43,103,23650,74,64,0,2,8,2,s,pre,0
44,105,23912,76,64,0,2,8,2,s,pre,0
45,107,24306,79,64,0,2,8,2,s,pre,0
46,109,24488,74,64,0,2,8,2,s,pre,0
47,111,24812,71,64,0,2,8,2,s,pre,0
48,112,24816,72,64,0,2,8,2,s,pre,0
49,114,25116,72,64,0,2,8,2,s,pre,0
50,116,25409,74,64,0,2,8,2,s,pre,0
51,118,25738,74,64,0,2,8,2,s,pre,0
52,120,26532,76,64,0,2,8,2,s,pre,0
53,122,27268,65,64,0,2,8,2,s,pre,0
54,124,27536,65,64,0,2,8,2,s,pre,0
55,126,27828,64,64,0,2,8,2,s,pre,0
56,128,28122,64,64,0,2,8,2,s,pre,0
57,130,28964,62,64,0,2,8,2,s,pre,0
58,132,29668,67,64,0,2,8,2,s,pre,0
59,134,29936,67,64,0,2,8,2,s,pre,0
60,136,30222,71,64,0,2,8,2,s,pre,0
61,138,30495,71,64,0,2,8,2,s,pre,0
62,140,30860,72,64,0,2,8,2,s,pre,0
63,142,31136,72,64,0,2,8,2,s,pre,0
64,144,31466,73,64,0,2,8,2,s,pre,0
65,146,31745,73,64,0,2,8,2,s,pre,0
66,149,32572,74,64,0,2,8,2,s,pre,0
67,151,33199,77,64,0,2,8,2,s,pre,0
68,153,33686,76,64,0,2,8,2,s,pre,0
69,154,34246,74,64,0,2,8,2,s,pre,0
70,157,34848,72,64,0,2,8,2,s,pre,0
71,158,35140,84,64,0,2,8,2,s,pre,0
72,160,36148,84,64,0,2,8,2,s,pre,0
1,19,8143,79,64,0,2,10,2,s,pre,0
2,21,8421,78,64,0,2,10,2,s,pre,0
3,23,8700,79,64,0,2,10,2,s,pre,0
4,25,8995,76,64,0,2,10,2,s,pre,0
5,26,9063,72,64,0,2,10,2,s,pre,0
6,28,9315,67,64,0,2,10,2,s,pre,0
7,30,9597,67,64,0,2,10,2,s,pre,0
8,32,9863,67,64,0,2,10,2,s,pre,0
9,35,10380,79,64,0,2,10,2,s,pre,0
10,37,10661,78,64,0,2,10,2,s,pre,0
11,39,10905,79,64,0,2,10,2,s,pre,0
12,40,11165,76,64,0,2,10,2,s,pre,0
13,43,11499,72,64,0,2,10,2,s,pre,0
14,45,11773,76,64,0,2,10,2,s,pre,0
15,47,12000,79,64,0,2,10,2,s,pre,0
16,49,12279,84,64,0,2,10,2,s,pre,0
17,50,12345,83,64,0,2,10,2,s,pre,0
18,52,12579,81,64,0,2,10,2,s,pre,0
19,54,12861,81,64,0,2,10,2,s,pre,0
20,56,13123,81,64,0,2,10,2,s,pre,0
21,59,13651,83,64,0,2,10,2,s,pre,0
22,61,13873,81,64,0,2,10,2,s,pre,0
23,63,14179,84,64,0,2,10,2,s,pre,0
24,65,14414,81,64,0,2,10,2,s,pre,0
25,67,14689,78,64,0,2,10,2,s,pre,0
26,68,14700,79,64,0,2,10,2,s,pre,0
27,70,15085,79,64,0,2,10,2,s,pre,0
28,72,16025,79,64,0,2,10,2,s,pre,0
29,74,16604,77,64,0,2,10,2,s,pre,0
30,76,16853,77,64,0,2,10,2,s,pre,0
31,78,17127,76,64,0,2,10,2,s,pre,0
32,80,17373,76,64,0,2,10,2,s,pre,0
33,82,17828,74,64,0,2,10,2,s,pre,0
34,84,18830,79,64,0,2,10,2,s,pre,0
35,86,19355,77,64,0,2,10,2,s,pre,0
36,88,19903,76,64,0,2,10,2,s,pre,0
37,90,20173,76,64,0,2,10,2,s,pre,0
38,92,20435,76,64,0,2,10,2,s,pre,0
39,94,20678,76,64,0,2,10,2,s,pre,0
40,97,21237,81,64,0,2,10,2,s,pre,0
41,99,21445,77,64,0,2,10,2,s,pre,0
42,101,21692,76,64,0,2,10,2,s,pre,0
43,103,21985,74,64,0,2,10,2,s,pre,0
44,105,22212,76,64,0,2,10,2,s,pre,0
45,107,22486,79,64,0,2,10,2,s,pre,0
46,109,22723,74,64,0,2,10,2,s,pre,0
47,110,22765,71,64,0,2,10,2,s,pre,0
48,112,23019,72,64,0,2,10,2,s,pre,0
49,114,23283,72,64,0,2,10,2,s,pre,0
50,116,23547,74,64,0,2,10,2,s,pre,0
51,118,23813,74,64,0,2,10,2,s,pre,0
52,120,24409,76,64,0,2,10,2,s,pre,0
53,122,25273,65,64,0,2,10,2,s,pre,0
54,124,25535,65,64,0,2,10,2,s,pre,0
55,126,25821,64,64,0,2,10,2,s,pre,0
56,128,26065,64,64,0,2,10,2,s,pre,0
57,130,26565,62,64,0,2,10,2,s,pre,0
58,132,27419,67,64,0,2,10,2,s,pre,0
59,134,27691,67,64,0,2,10,2,s,pre,0
60,136,27925,71,64,0,2,10,2,s,pre,0
61,138,28173,71,64,0,2,10,2,s,pre,0
62,140,28457,72,64,0,2,10,2,s,pre,0
63,142,28695,72,64,0,2,10,2,s,pre,0
64,144,28969,73,64,0,2,10,2,s,pre,0
65,146,29211,73,64,0,2,10,2,s,pre,0
66,148,29769,74,64,0,2,10,2,s,pre,0
67,150,30341,77,64,0,2,10,2,s,pre,0
68,152,30873,76,64,0,2,10,2,s,pre,0
69,154,31419,74,64,0,2,10,2,s,pre,0
70,156,31925,72,64,0,2,10,2,s,pre,0
71,158,32537,84,64,0,2,10,2,s,pre,0
72,160,33321,84,64,0,2,10,2,s,pre,0
1,19,8117,79,64,0,2,12,2,s,pre,0
2,21,8392,78,64,0,2,12,2,s,pre,0
3,23,8589,79,64,0,2,12,2,s,pre,0
4,25,8816,76,64,0,2,12,2,s,pre,0
5,26,8957,72,64,0,2,12,2,s,pre,0
6,28,9037,67,64,0,2,12,2,s,pre,0
7,30,9266,67,64,0,2,12,2,s,pre,0
8,32,9479,67,64,0,2,12,2,s,pre,0
9,35,9906,79,64,0,2,12,2,s,pre,0
10,37,10145,78,64,0,2,12,2,s,pre,0
11,39,10388,79,64,0,2,12,2,s,pre,0
12,41,10550,76,64,0,2,12,2,s,pre,0
13,43,10807,72,64,0,2,12,2,s,pre,0
14,45,11011,76,64,0,2,12,2,s,pre,0
15,47,11168,79,64,0,2,12,2,s,pre,0
16,49,11434,84,64,0,2,12,2,s,pre,0
17,50,11600,83,64,0,2,12,2,s,pre,0
18,52,11653,81,64,0,2,12,2,s,pre,0
19,54,11866,81,64,0,2,12,2,s,pre,0
20,56,12089,81,64,0,2,12,2,s,pre,0
21,59,12553,83,64,0,2,12,2,s,pre,0
22,61,12740,81,64,0,2,12,2,s,pre,0
23,63,12973,84,64,0,2,12,2,s,pre,0
24,65,13184,81,64,0,2,12,2,s,pre,0
25,67,13391,78,64,0,2,12,2,s,pre,0
26,68,13468,79,64,0,2,12,2,s,pre,0
27,70,13913,79,64,0,2,12,2,s,pre,0
28,72,14582,79,64,0,2,12,2,s,pre,0
29,74,14980,77,64,0,2,12,2,s,pre,0
30,76,15191,77,64,0,2,12,2,s,pre,0
31,78,15409,76,64,0,2,12,2,s,pre,0
32,80,15622,76,64,0,2,12,2,s,pre,0
33,82,16153,74,64,0,2,12,2,s,pre,0
34,84,16827,79,64,0,2,12,2,s,pre,0
35,86,17327,77,64,0,2,12,2,s,pre,0
36,88,17675,76,64,0,2,12,2,s,pre,0
37,90,17885,76,64,0,2,12,2,s,pre,0
38,92,18112,76,64,0,2,12,2,s,pre,0
39,94,18319,76,64,0,2,12,2,s,pre,0
40,97,18773,81,64,0,2,12,2,s,pre,0
41,99,18971,77,64,0,2,12,2,s,pre,0
42,101,19131,76,64,0,2,12,2,s,pre,0
43,103,19392,74,64,0,2,12,2,s,pre,0
44,105,19606,76,64,0,2,12,2,s,pre,0
45,107,19819,79,64,0,2,12,2,s,pre,0
46,109,19971,74,64,0,2,12,2,s,pre,0
47,110,20152,71,64,0,2,12,2,s,pre,0
48,112,20195,72,64,0,2,12,2,s,pre,0
49,114,20413,72,64,0,2,12,2,s,pre,0
50,116,20619,74,64,0,2,12,2,s,pre,0
51,118,20826,74,64,0,2,12,2,s,pre,0
52,120,21467,76,64,0,2,12,2,s,pre,0
53,122,22016,65,64,0,2,12,2,s,pre,0
54,124,22233,65,64,0,2,12,2,s,pre,0
55,126,22403,64,64,0,2,12,2,s,pre,0
56,128,22623,64,64,0,2,12,2,s,pre,0
57,130,23326,62,64,0,2,12,2,s,pre,0
58,132,23729,67,64,0,2,12,2,s,pre,0
59,134,23973,67,64,0,2,12,2,s,pre,0
60,136,24191,71,64,0,2,12,2,s,pre,0
61,138,24382,71,64,0,2,12,2,s,pre,0
62,140,24616,72,64,0,2,12,2,s,pre,0
63,142,24807,72,64,0,2,12,2,s,pre,0
64,144,25011,73,64,0,2,12,2,s,pre,0
65,146,25274,73,64,0,2,12,2,s,pre,0
66,148,25762,74,64,0,2,12,2,s,pre,0
67,150,26194,77,64,0,2,12,2,s,pre,0
68,152,26651,76,64,0,2,12,2,s,pre,0
69,154,27092,74,64,0,2,12,2,s,pre,0
70,156,27551,72,64,0,2,12,2,s,pre,0
71,158,27991,84,64,0,2,12,2,s,pre,0
72,160,28643,84,64,0,2,12,2,s,pre,0
1,19,8125,79,64,0,2,13,2,s,pre,0
2,21,8376,78,64,0,2,13,2,s,pre,0
3,23,8616,79,64,0,2,13,2,s,pre,0
4,25,8893,76,64,0,2,13,2,s,pre,0
5,26,8922,72,64,0,2,13,2,s,pre,0
6,28,9165,67,64,0,2,13,2,s,pre,0
7,30,9398,67,64,0,2,13,2,s,pre,0
8,32,9639,67,64,0,2,13,2,s,pre,0
9,35,10145,79,64,0,2,13,2,s,pre,0
10,37,10362,78,64,0,2,13,2,s,pre,0
11,39,10612,79,64,0,2,13,2,s,pre,0
12,41,10889,76,64,0,2,13,2,s,pre,0
13,43,11127,72,64,0,2,13,2,s,pre,0
14,45,11380,76,64,0,2,13,2,s,pre,0
15,47,11589,79,64,0,2,13,2,s,pre,0
16,49,11863,84,64,0,2,13,2,s,pre,0
17,50,11888,83,64,0,2,13,2,s,pre,0
18,52,12105,81,64,0,2,13,2,s,pre,0
19,54,12333,81,64,0,2,13,2,s,pre,0
20,56,12556,81,64,0,2,13,2,s,pre,0
21,59,13017,83,64,0,2,13,2,s,pre,0
22,61,13274,81,64,0,2,13,2,s,pre,0
23,63,13523,84,64,0,2,13,2,s,pre,0
24,64,13545,81,64,0,2,13,2,s,pre,0
25,66,13951,78,64,0,2,13,2,s,pre,0
26,68,14001,79,64,0,2,13,2,s,pre,0
27,70,14340,79,64,0,2,13,2,s,pre,0
28,72,14932,79,64,0,2,13,2,s,pre,0
29,74,15799,77,64,0,2,13,2,s,pre,0
30,76,16037,77,64,0,2,13,2,s,pre,0
31,78,16319,76,64,0,2,13,2,s,pre,0
32,80,16559,76,64,0,2,13,2,s,pre,0
33,82,17010,74,64,0,2,13,2,s,pre,0
34,84,17841,79,64,0,2,13,2,s,pre,0
35,86,18362,77,64,0,2,13,2,s,pre,0
36,88,18901,76,64,0,2,13,2,s,pre,0
37,90,19140,76,64,0,2,13,2,s,pre,0
38,92,19398,76,64,0,2,13,2,s,pre,0
39,94,19622,76,64,0,2,13,2,s,pre,0
40,97,20153,81,64,0,2,13,2,s,pre,0
41,99,20348,77,64,0,2,13,2,s,pre,0
42,101,20595,76,64,0,2,13,2,s,pre,0
43,103,20851,74,64,0,2,13,2,s,pre,0
44,104,21050,76,64,0,2,13,2,s,pre,0
45,107,21331,79,64,0,2,13,2,s,pre,0
46,109,21563,74,64,0,2,13,2,s,pre,0
47,110,21590,71,64,0,2,13,2,s,pre,0
48,112,21846,72,64,0,2,13,2,s,pre,0
49,114,22078,72,64,0,2,13,2,s,pre,0
50,116,22293,74,64,0,2,13,2,s,pre,0
51,118,22519,74,64,0,2,13,2,s,pre,0
52,120,23018,76,64,0,2,13,2,s,pre,0
53,122,23842,65,64,0,2,13,2,s,pre,0
54,124,24082,65,64,0,2,13,2,s,pre,0
55,126,24337,64,64,0,2,13,2,s,pre,0
56,128,24584,64,64,0,2,13,2,s,pre,0
57,130,25097,62,64,0,2,13,2,s,pre,0
58,132,25947,67,64,0,2,13,2,s,pre,0
59,134,26191,67,64,0,2,13,2,s,pre,0
60,136,26425,71,64,0,2,13,2,s,pre,0
61,138,26663,71,64,0,2,13,2,s,pre,0
62,140,26906,72,64,0,2,13,2,s,pre,0
63,142,27136,72,64,0,2,13,2,s,pre,0
64,144,27376,73,64,0,2,13,2,s,pre,0
65,146,27613,73,64,0,2,13,2,s,pre,0
66,149,28378,74,64,0,2,13,2,s,pre,0
67,151,28839,77,64,0,2,13,2,s,pre,0
68,153,29306,76,64,0,2,13,2,s,pre,0
69,155,29801,74,64,0,2,13,2,s,pre,0
70,156,29905,72,64,0,2,13,2,s,pre,0
71,158,30384,84,64,0,2,13,2,s,pre,0
72,160,31018,84,64,0,2,13,2,s,pre,0
1,19,8246,79,64,0,2,14,1,s,pre,0
2,21,8567,78,64,0,2,14,1,s,pre,0
3,23,8781,79,64,0,2,14,1,s,pre,0
4,25,9096,76,64,0,2,14,1,s,pre,0
5,26,9346,72,64,0,2,14,1,s,pre,0
6,28,9471,67,64,0,2,14,1,s,pre,0
7,30,9754,67,64,0,2,14,1,s,pre,0
8,32,10054,67,64,0,2,14,1,s,pre,0
9,35,10661,79,64,0,2,14,1,s,pre,0
10,37,10957,78,64,0,2,14,1,s,pre,0
11,39,11231,79,64,0,2,14,1,s,pre,0
12,41,11544,76,64,0,2,14,1,s,pre,0
13,43,11852,72,64,0,2,14,1,s,pre,0
14,45,12167,76,64,0,2,14,1,s,pre,0
15,46,12435,79,64,0,2,14,1,s,pre,0
16,49,12813,84,64,0,2,14,1,s,pre,0
17,51,13061,83,64,0,2,14,1,s,pre,0
18,52,13097,81,64,0,2,14,1,s,pre,0
19,54,13407,81,64,0,2,14,1,s,pre,0
20,56,13705,81,64,0,2,14,1,s,pre,0
21,59,14325,83,64,0,2,14,1,s,pre,0
22,61,14580,81,64,0,2,14,1,s,pre,0
23,63,14894,84,64,0,2,14,1,s,pre,0
24,65,15174,81,64,0,2,14,1,s,pre,0
25,67,15505,78,64,0,2,14,1,s,pre,0
26,68,15541,79,64,0,2,14,1,s,pre,0
27,70,15849,79,64,0,2,14,1,s,pre,0
28,72,17070,79,64,0,2,14,1,s,pre,0
29,74,17711,77,64,0,2,14,1,s,pre,0
30,76,18016,77,64,0,2,14,1,s,pre,0
31,78,18312,76,64,0,2,14,1,s,pre,0
32,80,18616,76,64,0,2,14,1,s,pre,0
33,82,19399,74,64,0,2,14,1,s,pre,0
34,84,20658,79,64,0,2,14,1,s,pre,0
35,86,21182,77,64,0,2,14,1,s,pre,0
36,88,21346,76,64,0,2,14,1,s,pre,0
37,90,21639,76,64,0,2,14,1,s,pre,0
38,92,21929,76,64,0,2,14,1,s,pre,0
39,94,22218,76,64,0,2,14,1,s,pre,0
40,97,22812,81,64,0,2,14,1,s,pre,0
41,99,23100,77,64,0,2,14,1,s,pre,0
42,100,23357,76,64,0,2,14,1,s,pre,0
43,103,23685,74,64,0,2,14,1,s,pre,0
44,105,23975,76,64,0,2,14,1,s,pre,0
45,107,24283,79,64,0,2,14,1,s,pre,0
46,108,24542,74,64,0,2,14,1,s,pre,0
47,110,24824,71,64,0,2,14,1,s,pre,0
48,112,24932,72,64,0,2,14,1,s,pre,0
49,114,25234,72,64,0,2,14,1,s,pre,0
50,116,25530,74,64,0,2,14,1,s,pre,0
51,118,25812,74,64,0,2,14,1,s,pre,0
52,120,26725,76,64,0,2,14,1,s,pre,0
53,122,27323,65,64,0,2,14,1,s,pre,0
54,124,27619,65,64,0,2,14,1,s,pre,0
55,126,27902,64,64,0,2,14,1,s,pre,0
56,128,28195,64,64,0,2,14,1,s,pre,0
57,130,29115,62,64,0,2,14,1,s,pre,0
58,132,29683,67,64,0,2,14,1,s,pre,0
59,134,29985,67,64,0,2,14,1,s,pre,0
60,136,30292,71,64,0,2,14,1,s,pre,0
61,138,30578,71,64,0,2,14,1,s,pre,0
62,140,30874,72,64,0,2,14,1,s,pre,0
63,142,31174,72,64,0,2,14,1,s,pre,0
64,144,31465,73,64,0,2,14,1,s,pre,0
65,146,31763,73,64,0,2,14,1,s,pre,0
66,149,32641,74,64,0,2,14,1,s,pre,0
67,151,33223,77,64,0,2,14,1,s,pre,0
68,153,33788,76,64,0,2,14,1,s,pre,0
69,155,34384,74,64,0,2,14,1,s,pre,0
70,156,34921,72,64,0,2,14,1,s,pre,0
71,158,35227,84,64,0,2,14,1,s,pre,0
72,160,36176,84,64,0,2,14,1,s,pre,0
1,19,8210,79,64,0,2,14,2,s,pre,0
2,21,8549,78,64,0,2,14,2,s,pre,0
3,23,8781,79,64,0,2,14,2,s,pre,0
4,25,9092,76,64,0,2,14,2,s,pre,0
5,26,9303,72,64,0,2,14,2,s,pre,0
6,28,9434,67,64,0,2,14,2,s,pre,0
7,30,9743,67,64,0,2,14,2,s,pre,0
8,32,10071,67,64,0,2,14,2,s,pre,0
9,35,10683,79,64,0,2,14,2,s,pre,0
10,37,10979,78,64,0,2,14,2,s,pre,0
11,39,11264,79,64,0,2,14,2,s,pre,0
12,40,11568,76,64,0,2,14,2,s,pre,0
13,43,11912,72,64,0,2,14,2,s,pre,0
14,45,12208,76,64,0,2,14,2,s,pre,0
15,47,12516,79,64,0,2,14,2,s,pre,0
16,49,12891,84,64,0,2,14,2,s,pre,0
17,50,13133,83,64,0,2,14,2,s,pre,0
18,52,13199,81,64,0,2,14,2,s,pre,0
19,54,13510,81,64,0,2,14,2,s,pre,0
20,56,13802,81,64,0,2,14,2,s,pre,0
21,59,14403,83,64,0,2,14,2,s,pre,0
22,61,14695,81,64,0,2,14,2,s,pre,0
23,63,15024,84,64,0,2,14,2,s,pre,0
24,64,15296,81,64,0,2,14,2,s,pre,0
25,67,15627,78,64,0,2,14,2,s,pre,0
26,68,15740,79,64,0,2,14,2,s,pre,0
27,70,16029,79,64,0,2,14,2,s,pre,0
28,72,17207,79,64,0,2,14,2,s,pre,0
29,74,17890,77,64,0,2,14,2,s,pre,0
30,76,18189,77,64,0,2,14,2,s,pre,0
31,78,18487,76,64,0,2,14,2,s,pre,0
32,80,18787,76,64,0,2,14,2,s,pre,0
33,82,19729,74,64,0,2,14,2,s,pre,0
34,85,20851,79,64,0,2,14,2,s,pre,0
35,86,21436,77,64,0,2,14,2,s,pre,0
36,88,21554,76,64,0,2,14,2,s,pre,0
37,90,21856,76,64,0,2,14,2,s,pre,0
38,92,22153,76,64,0,2,14,2,s,pre,0
39,94,22454,76,64,0,2,14,2,s,pre,0
40,97,23053,81,64,0,2,14,2,s,pre,0
41,99,23310,77,64,0,2,14,2,s,pre,0
42,100,23599,76,64,0,2,14,2,s,pre,0
43,103,23913,74,64,0,2,14,2,s,pre,0
44,105,24244,76,64,0,2,14,2,s,pre,0
45,107,24537,79,64,0,2,14,2,s,pre,0
46,108,24798,74,64,0,2,14,2,s,pre,0
47,110,25079,71,64,0,2,14,2,s,pre,0
48,112,25189,72,64,0,2,14,2,s,pre,0
49,114,25480,72,64,0,2,14,2,s,pre,0
50,116,25777,74,64,0,2,14,2,s,pre,0
51,118,26073,74,64,0,2,14,2,s,pre,0
52,120,27000,76,64,0,2,14,2,s,pre,0
53,122,27663,65,64,0,2,14,2,s,pre,0
54,124,27952,65,64,0,2,14,2,s,pre,0
55,126,28232,64,64,0,2,14,2,s,pre,0
56,128,28563,64,64,0,2,14,2,s,pre,0
57,130,29501,62,64,0,2,14,2,s,pre,0
58,132,30102,67,64,0,2,14,2,s,pre,0
59,134,30413,67,64,0,2,14,2,s,pre,0
60,136,30749,71,64,0,2,14,2,s,pre,0
61,138,31026,71,64,0,2,14,2,s,pre,0
62,140,31328,72,64,0,2,14,2,s,pre,0
63,142,31622,72,64,0,2,14,2,s,pre,0
64,144,31902,73,64,0,2,14,2,s,pre,0
65,146,32199,73,64,0,2,14,2,s,pre,0
66,149,33065,74,64,0,2,14,2,s,pre,0
67,151,33669,77,64,0,2,14,2,s,pre,0
68,153,34270,76,64,0,2,14,2,s,pre,0
69,155,34815,74,64,0,2,14,2,s,pre,0
70,156,35348,72,64,0,2,14,2,s,pre,0
71,158,35617,84,64,0,2,14,2,s,pre,0
72,160,36668,84,64,0,2,14,2,s,pre,0
1,19,10040,79,64,0,2,15,1,s,pre,0
2,21,10388,78,64,0,2,15,1,s,pre,0
3,23,10618,79,64,0,2,15,1,s,pre,0
4,25,10892,76,64,0,2,15,1,s,pre,0
5,26,11151,72,64,0,2,15,1,s,pre,0
6,28,11211,67,64,0,2,15,1,s,pre,0
7,30,11503,67,64,0,2,15,1,s,pre,0
8,32,11774,67,64,0,2,15,1,s,pre,0
9,35,12267,79,64,0,2,15,1,s,pre,0
10,37,12640,78,64,0,2,15,1,s,pre,0
11,39,12861,79,64,0,2,15,1,s,pre,0
12,40,13093,76,64,0,2,15,1,s,pre,0
13,43,13411,72,64,0,2,15,1,s,pre,0
14,45,13704,76,64,0,2,15,1,s,pre,0
15,47,13913,79,64,0,2,15,1,s,pre,0
16,49,14238,84,64,0,2,15,1,s,pre,0
17,51,14483,83,64,0,2,15,1,s,pre,0
18,52,14521,81,64,0,2,15,1,s,pre,0
19,54,14812,81,64,0,2,15,1,s,pre,0
20,56,15063,81,64,0,2,15,1,s,pre,0
21,59,15573,83,64,0,2,15,1,s,pre,0
22,61,15867,81,64,0,2,15,1,s,pre,0
23,63,16079,84,64,0,2,15,1,s,pre,0
24,65,16374,81,64,0,2,15,1,s,pre,0
25,67,16664,78,64,0,2,15,1,s,pre,0
26,68,16683,79,64,0,2,15,1,s,pre,0
27,70,17144,79,64,0,2,15,1,s,pre,0
28,72,18110,79,64,0,2,15,1,s,pre,0
29,74,18727,77,64,0,2,15,1,s,pre,0
30,76,19013,77,64,0,2,15,1,s,pre,0
31,78,19297,76,64,0,2,15,1,s,pre,0
32,80,19566,76,64,0,2,15,1,s,pre,0
33,82,20360,74,64,0,2,15,1,s,pre,0
34,85,21491,79,64,0,2,15,1,s,pre,0
35,86,21895,77,64,0,2,15,1,s,pre,0
36,88,22146,76,64,0,2,15,1,s,pre,0
37,90,22425,76,64,0,2,15,1,s,pre,0
38,92,22713,76,64,0,2,15,1,s,pre,0
39,94,22945,76,64,0,2,15,1,s,pre,0
40,97,23542,81,64,0,2,15,1,s,pre,0
41,99,23831,77,64,0,2,15,1,s,pre,0
42,101,24042,76,64,0,2,15,1,s,pre,0
43,103,24333,74,64,0,2,15,1,s,pre,0
44,105,24629,76,64,0,2,15,1,s,pre,0
45,107,24869,79,64,0,2,15,1,s,pre,0
46,109,25100,74,64,0,2,15,1,s,pre,0
47,110,25162,71,64,0,2,15,1,s,pre,0
48,112,25422,72,64,0,2,15,1,s,pre,0
49,114,25709,72,64,0,2,15,1,s,pre,0
50,116,25985,74,64,0,2,15,1,s,pre,0
51,118,26261,74,64,0,2,15,1,s,pre,0
52,120,26966,76,64,0,2,15,1,s,pre,0
53,122,27596,65,64,0,2,15,1,s,pre,0
54,124,27880,65,64,0,2,15,1,s,pre,0
55,126,28168,64,64,0,2,15,1,s,pre,0
56,128,28444,64,64,0,2,15,1,s,pre,0
57,130,29154,62,64,0,2,15,1,s,pre,0
58,132,29872,67,64,0,2,15,1,s,pre,0
59,134,30138,67,64,0,2,15,1,s,pre,0
60,136,30405,71,64,0,2,15,1,s,pre,0
61,138,30659,71,64,0,2,15,1,s,pre,0
62,140,30954,72,64,0,2,15,1,s,pre,0
63,142,31196,72,64,0,2,15,1,s,pre,0
64,144,31493,73,64,0,2,15,1,s,pre,0
65,146,31754,73,64,0,2,15,1,s,pre,0
66,149,32594,74,64,0,2,15,1,s,pre,0
67,151,33145,77,64,0,2,15,1,s,pre,0
68,153,33719,76,64,0,2,15,1,s,pre,0
69,155,34243,74,64,0,2,15,1,s,pre,0
70,157,34826,72,64,0,2,15,1,s,pre,0
71,158,34922,84,64,0,2,15,1,s,pre,0
72,160,35968,84,64,0,2,15,1,s,pre,0
1,19,8228,79,64,0,2,15,2,s,pre,0
2,21,8548,78,64,0,2,15,2,s,pre,0
3,23,8801,79,64,0,2,15,2,s,pre,0
4,25,9090,76,64,0,2,15,2,s,pre,0
5,27,9346,72,64,0,2,15,2,s,pre,0
6,28,9402,67,64,0,2,15,2,s,pre,0
7,30,9682,67,64,0,2,15,2,s,pre,0
8,32,9944,67,64,0,2,15,2,s,pre,0
9,35,10458,79,64,0,2,15,2,s,pre,0
10,37,10766,78,64,0,2,15,2,s,pre,0
11,39,10990,79,64,0,2,15,2,s,pre,0
12,40,11223,76,64,0,2,15,2,s,pre,0
13,43,11549,72,64,0,2,15,2,s,pre,0
14,45,11837,76,64,0,2,15,2,s,pre,0
15,47,12051,79,64,0,2,15,2,s,pre,0
16,49,12366,84,64,0,2,15,2,s,pre,0
17,51,12601,83,64,0,2,15,2,s,pre,0
18,52,12625,81,64,0,2,15,2,s,pre,0
19,54,12934,81,64,0,2,15,2,s,pre,0
20,56,13189,81,64,0,2,15,2,s,pre,0
21,59,13655,83,64,0,2,15,2,s,pre,0
22,61,13959,81,64,0,2,15,2,s,pre,0
23,63,14188,84,64,0,2,15,2,s,pre,0
24,65,14452,81,64,0,2,15,2,s,pre,0
25,67,14739,78,64,0,2,15,2,s,pre,0
26,68,14774,79,64,0,2,15,2,s,pre,0
27,70,15149,79,64,0,2,15,2,s,pre,0
28,72,16123,79,64,0,2,15,2,s,pre,0
29,74,16708,77,64,0,2,15,2,s,pre,0
30,76,16997,77,64,0,2,15,2,s,pre,0
31,78,17276,76,64,0,2,15,2,s,pre,0
32,80,17532,76,64,0,2,15,2,s,pre,0
33,82,18259,74,64,0,2,15,2,s,pre,0
34,84,19387,79,64,0,2,15,2,s,pre,0
35,86,19780,77,64,0,2,15,2,s,pre,0
36,88,20042,76,64,0,2,15,2,s,pre,0
37,90,20306,76,64,0,2,15,2,s,pre,0
38,92,20574,76,64,0,2,15,2,s,pre,0
39,94,20846,76,64,0,2,15,2,s,pre,0
40,97,21388,81,64,0,2,15,2,s,pre,0
41,99,21669,77,64,0,2,15,2,s,pre,0
42,101,21877,76,64,0,2,15,2,s,pre,0
43,103,22174,74,64,0,2,15,2,s,pre,0
44,105,22478,76,64,0,2,15,2,s,pre,0
45,107,22731,79,64,0,2,15,2,s,pre,0
46,109,22932,74,64,0,2,15,2,s,pre,0
47,110,23012,71,64,0,2,15,2,s,pre,0
48,112,23251,72,64,0,2,15,2,s,pre,0
49,114,23516,72,64,0,2,15,2,s,pre,0
50,116,23772,74,64,0,2,15,2,s,pre,0
51,118,24039,74,64,0,2,15,2,s,pre,0
52,120,24743,76,64,0,2,15,2,s,pre,0
53,122,25399,65,64,0,2,15,2,s,pre,0
54,124,25664,65,64,0,2,15,2,s,pre,0
55,126,25949,64,64,0,2,15,2,s,pre,0
56,128,26215,64,64,0,2,15,2,s,pre,0
57,130,26844,62,64,0,2,15,2,s,pre,0
58,132,27637,67,64,0,2,15,2,s,pre,0
59,134,27888,67,64,0,2,15,2,s,pre,0
60,136,28156,71,64,0,2,15,2,s,pre,0
61,138,28391,71,64,0,2,15,2,s,pre,0
62,140,28690,72,64,0,2,15,2,s,pre,0
63,142,28959,72,64,0,2,15,2,s,pre,0
64,144,29212,73,64,0,2,15,2,s,pre,0
65,146,29466,73,64,0,2,15,2,s,pre,0
66,149,30278,74,64,0,2,15,2,s,pre,0
67,151,30842,77,64,0,2,15,2,s,pre,0
68,153,31410,76,64,0,2,15,2,s,pre,0
69,155,31912,74,64,0,2,15,2,s,pre,0
70,157,32499,72,64,0,2,15,2,s,pre,0
71,158,32673,84,64,0,2,15,2,s,pre,0
72,160,33615,84,64,0,2,15,2,s,pre,0
1,19,9264,79,64,0,2,16,2,s,pre,0
2,21,9565,78,64,0,2,16,2,s,pre,0
3,23,9876,79,64,0,2,16,2,s,pre,0
4,24,10156,76,64,0,2,16,2,s,pre,0
5,26,10227,72,64,0,2,16,2,s,pre,0
6,28,10534,67,64,0,2,16,2,s,pre,0
7,30,10867,67,64,0,2,16,2,s,pre,0
8,32,11160,67,64,0,2,16,2,s,pre,0
9,35,11794,79,64,0,2,16,2,s,pre,0
10,36,12084,78,64,0,2,16,2,s,pre,0
11,39,12412,79,64,0,2,16,2,s,pre,0
12,41,12724,76,64,0,2,16,2,s,pre,0
13,43,13111,72,64,0,2,16,2,s,pre,0
14,45,13418,76,64,0,2,16,2,s,pre,0
15,47,13677,79,64,0,2,16,2,s,pre,0
16,49,14028,84,64,0,2,16,2,s,pre,0
17,50,14300,83,64,0,2,16,2,s,pre,0
18,52,14419,81,64,0,2,16,2,s,pre,0
19,54,14726,81,64,0,2,16,2,s,pre,0
20,56,15015,81,64,0,2,16,2,s,pre,0
21,59,15655,83,64,0,2,16,2,s,pre,0
22,61,15996,81,64,0,2,16,2,s,pre,0
23,63,16304,84,64,0,2,16,2,s,pre,0
24,65,16663,81,64,0,2,16,2,s,pre,0
25,67,16974,78,64,0,2,16,2,s,pre,0
26,68,17067,79,64,0,2,16,2,s,pre,0
27,70,17614,79,64,0,2,16,2,s,pre,0
28,72,18434,79,64,0,2,16,2,s,pre,0
29,74,19392,77,64,0,2,16,2,s,pre,0
30,76,19720,77,64,0,2,16,2,s,pre,0
31,78,20072,76,64,0,2,16,2,s,pre,0
32,80,20377,76,64,0,2,16,2,s,pre,0
33,82,21124,74,64,0,2,16,2,s,pre,0
34,85,22722,79,64,0,2,16,2,s,pre,0
35,87,23376,77,64,0,2,16,2,s,pre,0
36,88,23400,76,64,0,2,16,2,s,pre,0
37,90,23720,76,64,0,2,16,2,s,pre,0
38,92,24074,76,64,0,2,16,2,s,pre,0
39,94,24350,76,64,0,2,16,2,s,pre,0
40,97,25036,81,64,0,2,16,2,s,pre,0
41,99,25300,77,64,0,2,16,2,s,pre,0
42,101,25620,76,64,0,2,16,2,s,pre,0
43,103,25988,74,64,0,2,16,2,s,pre,0
44,105,26259,76,64,0,2,16,2,s,pre,0
45,107,26628,79,64,0,2,16,2,s,pre,0
46,109,26923,74,64,0,2,16,2,s,pre,0
47,110,27258,71,64,0,2,16,2,s,pre,0
48,112,27302,72,64,0,2,16,2,s,pre,0
49,114,27642,72,64,0,2,16,2,s,pre,0
50,116,27961,74,64,0,2,16,2,s,pre,0
51,118,28274,74,64,0,2,16,2,s,pre,0
52,120,29113,76,64,0,2,16,2,s,pre,0
53,122,29944,65,64,0,2,16,2,s,pre,0
54,124,30264,65,64,0,2,16,2,s,pre,0
55,126,30602,64,64,0,2,16,2,s,pre,0
56,128,30908,64,64,0,2,16,2,s,pre,0
57,130,31635,62,64,0,2,16,2,s,pre,0
58,132,32560,67,64,0,2,16,2,s,pre,0
59,134,32843,67,64,0,2,16,2,s,pre,0
60,136,33186,71,64,0,2,16,2,s,pre,0
61,138,33493,71,64,0,2,16,2,s,pre,0
62,140,33856,72,64,0,2,16,2,s,pre,0
63,142,34156,72,64,0,2,16,2,s,pre,0
64,144,34508,73,64,0,2,16,2,s,pre,0
65,146,34784,73,64,0,2,16,2,s,pre,0
66,149,35724,74,64,0,2,16,2,s,pre,0
67,151,36374,77,64,0,2,16,2,s,pre,0
68,153,36976,76,64,0,2,16,2,s,pre,0
69,154,37620,74,64,0,2,16,2,s,pre,0
70,156,38172,72,64,0,2,16,2,s,pre,0
71,158,38645,84,64,0,2,16,2,s,pre,0
72,160,39446,84,64,0,2,16,2,s,pre,0
1,19,8940,79,64,0,2,17,1,s,pre,0
2,21,9204,78,64,0,2,17,1,s,pre,0
3,23,9510,79,64,0,2,17,1,s,pre,0
4,25,9769,76,64,0,2,17,1,s,pre,0
5,26,9833,72,64,0,2,17,1,s,pre,0
6,28,10093,67,64,0,2,17,1,s,pre,0
7,30,10430,67,64,0,2,17,1,s,pre,0
8,32,10700,67,64,0,2,17,1,s,pre,0
9,35,11435,79,64,0,2,17,1,s,pre,0
10,37,11672,78,64,0,2,17,1,s,pre,0
11,39,11933,79,64,0,2,17,1,s,pre,0
12,41,12278,76,64,0,2,17,1,s,pre,0
13,43,12569,72,64,0,2,17,1,s,pre,0
14,45,12878,76,64,0,2,17,1,s,pre,0
15,47,13115,79,64,0,2,17,1,s,pre,0
16,49,13499,84,64,0,2,17,1,s,pre,0
17,50,13548,83,64,0,2,17,1,s,pre,0
18,52,13794,81,64,0,2,17,1,s,pre,0
19,54,14072,81,64,0,2,17,1,s,pre,0
20,56,14393,81,64,0,2,17,1,s,pre,0
21,59,15030,83,64,0,2,17,1,s,pre,0
22,61,15308,81,64,0,2,17,1,s,pre,0
23,63,15695,84,64,0,2,17,1,s,pre,0
24,65,15858,81,64,0,2,17,1,s,pre,0
25,67,16185,78,64,0,2,17,1,s,pre,0
26,68,16334,79,64,0,2,17,1,s,pre,0
27,70,16817,79,64,0,2,17,1,s,pre,0
28,72,17618,79,64,0,2,17,1,s,pre,0
29,74,18350,77,64,0,2,17,1,s,pre,0
30,76,18640,77,64,0,2,17,1,s,pre,0
31,78,18956,76,64,0,2,17,1,s,pre,0
32,80,19232,76,64,0,2,17,1,s,pre,0
33,82,20057,74,64,0,2,17,1,s,pre,0
34,84,21272,79,64,0,2,17,1,s,pre,0
35,86,21747,77,64,0,2,17,1,s,pre,0
36,88,22087,76,64,0,2,17,1,s,pre,0
37,90,22407,76,64,0,2,17,1,s,pre,0
38,92,22685,76,64,0,2,17,1,s,pre,0
39,94,22961,76,64,0,2,17,1,s,pre,0
40,98,23831,81,64,0,2,17,1,s,pre,0
41,99,23942,77,64,0,2,17,1,s,pre,0
42,101,24124,76,64,0,2,17,1,s,pre,0
43,103,24422,74,64,0,2,17,1,s,pre,0
44,105,24724,76,64,0,2,17,1,s,pre,0
45,107,25066,79,64,0,2,17,1,s,pre,0
46,108,25253,74,64,0,2,17,1,s,pre,0
47,110,25516,71,64,0,2,17,1,s,pre,0
48,112,25588,72,64,0,2,17,1,s,pre,0
49,114,25879,72,64,0,2,17,1,s,pre,0
50,116,26155,74,64,0,2,17,1,s,pre,0
51,118,26460,74,64,0,2,17,1,s,pre,0
52,120,27244,76,64,0,2,17,1,s,pre,0
53,122,28063,65,64,0,2,17,1,s,pre,0
54,124,28363,65,64,0,2,17,1,s,pre,0
55,126,28655,64,64,0,2,17,1,s,pre,0
56,128,28966,64,64,0,2,17,1,s,pre,0
57,130,29650,62,64,0,2,17,1,s,pre,0
58,132,30521,67,64,0,2,17,1,s,pre,0
59,134,30805,67,64,0,2,17,1,s,pre,0
60,136,31116,71,64,0,2,17,1,s,pre,0
61,138,31403,71,64,0,2,17,1,s,pre,0
62,140,31709,72,64,0,2,17,1,s,pre,0
63,142,31979,72,64,0,2,17,1,s,pre,0
64,144,32297,73,64,0,2,17,1,s,pre,0
65,146,32592,73,64,0,2,17,1,s,pre,0
66,148,33450,74,64,0,2,17,1,s,pre,0
67,151,34089,77,64,0,2,17,1,s,pre,0
68,153,34694,76,64,0,2,17,1,s,pre,0
69,154,35239,74,64,0,2,17,1,s,pre,0
70,156,35815,72,64,0,2,17,1,s,pre,0
71,158,36132,84,64,0,2,17,1,s,pre,0
72,160,37125,84,64,0,2,17,1,s,pre,0
1,19,8350,79,64,0,2,17,2,s,pre,0
2,21,8588,78,64,0,2,17,2,s,pre,0
3,23,8880,79,64,0,2,17,2,s,pre,0
4,25,9132,76,64,0,2,17,2,s,pre,0
5,26,9152,72,64,0,2,17,2,s,pre,0
6,28,9440,67,64,0,2,17,2,s,pre,0
7,30,9776,67,64,0,2,17,2,s,pre,0
8,32,10049,67,64,0,2,17,2,s,pre,0
9,35,10748,79,64,0,2,17,2,s,pre,0
10,37,11004,78,64,0,2,17,2,s,pre,0
11,39,11264,79,64,0,2,17,2,s,pre,0
12,41,11608,76,64,0,2,17,2,s,pre,0
13,43,11931,72,64,0,2,17,2,s,pre,0
14,45,12234,76,64,0,2,17,2,s,pre,0
15,47,12452,79,64,0,2,17,2,s,pre,0
16,49,12783,84,64,0,2,17,2,s,pre,0
17,50,12973,83,64,0,2,17,2,s,pre,0
18,52,13082,81,64,0,2,17,2,s,pre,0
19,54,13398,81,64,0,2,17,2,s,pre,0
20,56,13692,81,64,0,2,17,2,s,pre,0
21,59,14354,83,64,0,2,17,2,s,pre,0
22,61,14638,81,64,0,2,17,2,s,pre,0
23,63,15012,84,64,0,2,17,2,s,pre,0
24,65,15200,81,64,0,2,17,2,s,pre,0
25,67,15472,78,64,0,2,17,2,s,pre,0
26,68,15662,79,64,0,2,17,2,s,pre,0
27,70,16116,79,64,0,2,17,2,s,pre,0
28,72,16972,79,64,0,2,17,2,s,pre,0
29,74,17688,77,64,0,2,17,2,s,pre,0
30,76,17968,77,64,0,2,17,2,s,pre,0
31,78,18282,76,64,0,2,17,2,s,pre,0
32,80,18569,76,64,0,2,17,2,s,pre,0
33,82,19358,74,64,0,2,17,2,s,pre,0
34,84,20612,79,64,0,2,17,2,s,pre,0
35,86,21174,77,64,0,2,17,2,s,pre,0
36,88,21354,76,64,0,2,17,2,s,pre,0
37,90,21650,76,64,0,2,17,2,s,pre,0
38,92,21941,76,64,0,2,17,2,s,pre,0
39,94,22238,76,64,0,2,17,2,s,pre,0
40,97,23110,81,64,0,2,17,2,s,pre,0
41,99,23238,77,64,0,2,17,2,s,pre,0
42,101,23434,76,64,0,2,17,2,s,pre,0
43,103,23778,74,64,0,2,17,2,s,pre,0
44,105,24066,76,64,0,2,17,2,s,pre,0
45,107,24468,79,64,0,2,17,2,s,pre,0
46,109,24577,74,64,0,2,17,2,s,pre,0
47,111,24880,71,64,0,2,17,2,s,pre,0
48,112,24913,72,64,0,2,17,2,s,pre,0
49,114,25210,72,64,0,2,17,2,s,pre,0
50,116,25508,74,64,0,2,17,2,s,pre,0
51,118,25788,74,64,0,2,17,2,s,pre,0
52,120,26630,76,64,0,2,17,2,s,pre,0
53,122,27308,65,64,0,2,17,2,s,pre,0
54,124,27608,65,64,0,2,17,2,s,pre,0
55,126,27923,64,64,0,2,17,2,s,pre,0
56,128,28184,64,64,0,2,17,2,s,pre,0
57,130,29053,62,64,0,2,17,2,s,pre,0
58,132,29738,67,64,0,2,17,2,s,pre,0
59,134,30020,67,64,0,2,17,2,s,pre,0
60,136,30327,71,64,0,2,17,2,s,pre,0
61,138,30604,71,64,0,2,17,2,s,pre,0
62,140,30914,72,64,0,2,17,2,s,pre,0
63,142,31168,72,64,0,2,17,2,s,pre,0
64,144,31470,73,64,0,2,17,2,s,pre,0
65,146,31744,73,64,0,2,17,2,s,pre,0
66,148,32604,74,64,0,2,17,2,s,pre,0
67,151,33233,77,64,0,2,17,2,s,pre,0
68,153,33860,76,64,0,2,17,2,s,pre,0
69,154,34388,74,64,0,2,17,2,s,pre,0
70,156,35024,72,64,0,2,17,2,s,pre,0
71,158,35624,84,64,0,2,17,2,s,pre,0
72,160,36527,84,64,0,2,17,2,s,pre,0
1,19,9170,79,64,0,2,19,1,s,pre,0
2,21,9424,78,64,0,2,19,1,s,pre,0
3,23,9681,79,64,0,2,19,1,s,pre,0
4,25,9968,76,64,0,2,19,1,s,pre,0
5,26,10112,72,64,0,2,19,1,s,pre,0
6,28,10234,67,64,0,2,19,1,s,pre,0
7,30,10541,67,64,0,2,19,1,s,pre,0
8,32,10802,67,64,0,2,19,1,s,pre,0
9,35,11281,79,64,0,2,19,1,s,pre,0
10,37,11498,78,64,0,2,19,1,s,pre,0
11,39,11745,79,64,0,2,19,1,s,pre,0
12,41,12002,76,64,0,2,19,1,s,pre,0
13,43,12267,72,64,0,2,19,1,s,pre,0
14,45,12575,76,64,0,2,19,1,s,pre,0
15,47,12718,79,64,0,2,19,1,s,pre,0
16,49,13007,84,64,0,2,19,1,s,pre,0
17,50,13152,83,64,0,2,19,1,s,pre,0
18,52,13264,81,64,0,2,19,1,s,pre,0
19,54,13529,81,64,0,2,19,1,s,pre,0
20,56,13824,81,64,0,2,19,1,s,pre,0
21,59,14244,83,64,0,2,19,1,s,pre,0
22,61,14507,81,64,0,2,19,1,s,pre,0
23,63,14707,84,64,0,2,19,1,s,pre,0
24,65,14941,81,64,0,2,19,1,s,pre,0
25,67,15244,78,64,0,2,19,1,s,pre,0
26,68,15336,79,64,0,2,19,1,s,pre,0
27,70,15850,79,64,0,2,19,1,s,pre,0
28,72,16578,79,64,0,2,19,1,s,pre,0
29,74,17135,77,64,0,2,19,1,s,pre,0
30,76,17399,77,64,0,2,19,1,s,pre,0
31,78,17667,76,64,0,2,19,1,s,pre,0
32,80,17886,76,64,0,2,19,1,s,pre,0
33,82,18375,74,64,0,2,19,1,s,pre,0
34,85,19778,79,64,0,2,19,1,s,pre,0
35,86,20242,77,64,0,2,19,1,s,pre,0
36,88,20326,76,64,0,2,19,1,s,pre,0
37,90,20568,76,64,0,2,19,1,s,pre,0
38,92,20821,76,64,0,2,19,1,s,pre,0
39,94,21071,76,64,0,2,19,1,s,pre,0
40,97,21532,81,64,0,2,19,1,s,pre,0
41,99,21763,77,64,0,2,19,1,s,pre,0
42,101,21980,76,64,0,2,19,1,s,pre,0
43,103,22245,74,64,0,2,19,1,s,pre,0
44,105,22491,76,64,0,2,19,1,s,pre,0
45,107,22749,79,64,0,2,19,1,s,pre,0
46,108,22929,74,64,0,2,19,1,s,pre,0
47,110,23181,71,64,0,2,19,1,s,pre,0
48,112,23229,72,64,0,2,19,1,s,pre,0
49,114,23469,72,64,0,2,19,1,s,pre,0
50,116,23713,74,64,0,2,19,1,s,pre,0
51,118,23967,74,64,0,2,19,1,s,pre,0
52,120,24533,76,64,0,2,19,1,s,pre,0
53,122,25288,65,64,0,2,19,1,s,pre,0
54,124,25555,65,64,0,2,19,1,s,pre,0
55,126,25764,64,64,0,2,19,1,s,pre,0
56,128,26027,64,64,0,2,19,1,s,pre,0
57,130,26620,62,64,0,2,19,1,s,pre,0
58,132,27306,67,64,0,2,19,1,s,pre,0
59,134,27595,67,64,0,2,19,1,s,pre,0
60,136,27820,71,64,0,2,19,1,s,pre,0
61,138,28092,71,64,0,2,19,1,s,pre,0
62,140,28338,72,64,0,2,19,1,s,pre,0
63,142,28582,72,64,0,2,19,1,s,pre,0
64,144,28831,73,64,0,2,19,1,s,pre,0
65,146,29091,73,64,0,2,19,1,s,pre,0
66,149,29799,74,64,0,2,19,1,s,pre,0
67,151,30284,77,64,0,2,19,1,s,pre,0
68,153,30756,76,64,0,2,19,1,s,pre,0
69,155,31257,74,64,0,2,19,1,s,pre,0
70,156,31645,72,64,0,2,19,1,s,pre,0
71,158,32145,84,64,0,2,19,1,s,pre,0
72,160,32654,84,64,0,2,19,1,s,pre,0
1,19,8780,79,64,0,2,19,2,s,pre,0
2,21,9020,78,64,0,2,19,2,s,pre,0
3,23,9283,79,64,0,2,19,2,s,pre,0
4,25,9543,76,64,0,2,19,2,s,pre,0
5,26,9724,72,64,0,2,19,2,s,pre,0
6,28,9796,67,64,0,2,19,2,s,pre,0
7,30,10060,67,64,0,2,19,2,s,pre,0
8,32,10329,67,64,0,2,19,2,s,pre,0
9,35,10799,79,64,0,2,19,2,s,pre,0
10,37,11012,78,64,0,2,19,2,s,pre,0
11,39,11260,79,64,0,2,19,2,s,pre,0
12,41,11528,76,64,0,2,19,2,s,pre,0
13,43,11776,72,64,0,2,19,2,s,pre,0
14,45,12060,76,64,0,2,19,2,s,pre,0
15,47,12229,79,64,0,2,19,2,s,pre,0
16,49,12488,84,64,0,2,19,2,s,pre,0
17,50,12670,83,64,0,2,19,2,s,pre,0
18,52,12756,81,64,0,2,19,2,s,pre,0
19,54,13027,81,64,0,2,19,2,s,pre,0
20,56,13246,81,64,0,2,19,2,s,pre,0
21,59,13713,83,64,0,2,19,2,s,pre,0
22,61,13925,81,64,0,2,19,2,s,pre,0
23,63,14184,84,64,0,2,19,2,s,pre,0
24,65,14420,81,64,0,2,19,2,s,pre,0
25,67,14664,78,64,0,2,19,2,s,pre,0
26,68,14739,79,64,0,2,19,2,s,pre,0
27,70,15190,79,64,0,2,19,2,s,pre,0
28,72,15779,79,64,0,2,19,2,s,pre,0
29,74,16523,77,64,0,2,19,2,s,pre,0
30,76,16774,77,64,0,2,19,2,s,pre,0
31,78,17023,76,64,0,2,19,2,s,pre,0
32,80,17270,76,64,0,2,19,2,s,pre,0
33,82,17756,74,64,0,2,19,2,s,pre,0
34,84,19032,79,64,0,2,19,2,s,pre,0
35,86,19264,77,64,0,2,19,2,s,pre,0
36,88,19572,76,64,0,2,19,2,s,pre,0
37,90,19824,76,64,0,2,19,2,s,pre,0
38,92,20072,76,64,0,2,19,2,s,pre,0
39,94,20331,76,64,0,2,19,2,s,pre,0
40,97,20773,81,64,0,2,19,2,s,pre,0
41,99,21023,77,64,0,2,19,2,s,pre,0
42,101,21229,76,64,0,2,19,2,s,pre,0
43,102,21440,74,64,0,2,19,2,s,pre,0
44,105,21726,76,64,0,2,19,2,s,pre,0
45,107,21962,79,64,0,2,19,2,s,pre,0
46,109,22160,74,64,0,2,19,2,s,pre,0
47,110,22282,71,64,0,2,19,2,s,pre,0
48,112,22479,72,64,0,2,19,2,s,pre,0
49,114,22691,72,64,0,2,19,2,s,pre,0
50,116,22905,74,64,0,2,19,2,s,pre,0
51,118,23161,74,64,0,2,19,2,s,pre,0
52,120,23736,76,64,0,2,19,2,s,pre,0
53,122,24419,65,64,0,2,19,2,s,pre,0
54,124,24657,65,64,0,2,19,2,s,pre,0
55,126,24896,64,64,0,2,19,2,s,pre,0
56,128,25115,64,64,0,2,19,2,s,pre,0
57,130,25701,62,64,0,2,19,2,s,pre,0
58,132,26357,67,64,0,2,19,2,s,pre,0
59,134,26589,67,64,0,2,19,2,s,pre,0
60,136,26823,71,64,0,2,19,2,s,pre,0
61,138,27080,71,64,0,2,19,2,s,pre,0
62,140,27314,72,64,0,2,19,2,s,pre,0
63,142,27564,72,64,0,2,19,2,s,pre,0
64,144,27818,73,64,0,2,19,2,s,pre,0
65,146,28063,73,64,0,2,19,2,s,pre,0
66,149,28780,74,64,0,2,19,2,s,pre,0
67,151,29263,77,64,0,2,19,2,s,pre,0
68,153,29753,76,64,0,2,19,2,s,pre,0
69,155,30231,74,64,0,2,19,2,s,pre,0
70,156,30659,72,64,0,2,19,2,s,pre,0
71,158,31000,84,64,0,2,19,2,s,pre,0
72,160,31509,84,64,0,2,19,2,s,pre,0
1,19,8195,79,64,0,2,6,2,s,pre,1
2,21,8609,78,64,0,2,6,2,s,pre,1
3,23,8867,79,64,0,2,6,2,s,pre,1
4,25,9209,76,64,0,2,6,2,s,pre,1
5,26,9347,72,64,0,2,6,2,s,pre,1
6,28,9618,67,64,0,2,6,2,s,pre,1
7,30,9966,67,64,0,2,6,2,s,pre,1
8,32,10275,67,64,0,2,6,2,s,pre,1
9,35,10943,79,64,0,2,6,2,s,pre,1
10,37,11281,78,64,0,2,6,2,s,pre,1
11,39,11617,79,64,0,2,6,2,s,pre,1
12,41,11896,76,64,0,2,6,2,s,pre,1
13,43,12277,72,64,0,2,6,2,s,pre,1
14,45,12611,76,64,0,2,6,2,s,pre,1
15,47,12899,79,64,0,2,6,2,s,pre,1
16,49,13298,84,64,0,2,6,2,s,pre,1
17,50,13437,83,64,0,2,6,2,s,pre,1
18,52,13593,81,64,0,2,6,2,s,pre,1
19,54,13937,81,64,0,2,6,2,s,pre,1
20,56,14283,81,64,0,2,6,2,s,pre,1
21,59,14973,83,64,0,2,6,2,s,pre,1
22,61,15258,81,64,0,2,6,2,s,pre,1
23,63,15558,84,64,0,2,6,2,s,pre,1
24,65,15896,81,64,0,2,6,2,s,pre,1
25,67,16294,78,64,0,2,6,2,s,pre,1
26,68,16370,79,64,0,2,6,2,s,pre,1
27,70,17042,79,64,0,2,6,2,s,pre,1
28,72,17977,79,64,0,2,6,2,s,pre,1
29,74,18698,77,64,0,2,6,2,s,pre,1
30,76,19022,77,64,0,2,6,2,s,pre,1
31,78,19383,76,64,0,2,6,2,s,pre,1
32,80,19702,76,64,0,2,6,2,s,pre,1
33,82,20747,74,64,0,2,6,2,s,pre,1
34,85,22153,79,64,0,2,6,2,s,pre,1
35,87,22847,77,64,0,2,6,2,s,pre,1
36,88,22888,76,64,0,2,6,2,s,pre,1
37,90,23213,76,64,0,2,6,2,s,pre,1
38,92,23534,76,64,0,2,6,2,s,pre,1
39,94,23858,76,64,0,2,6,2,s,pre,1
40,97,24597,81,64,0,2,6,2,s,pre,1
41,99,24918,77,64,0,2,6,2,s,pre,1
43,103,25177,76,64,0,2,6,2,s,pre,1
44,105,25521,74,64,0,2,6,2,s,pre,1
45,107,25803,76,64,0,2,6,2,s,pre,1
46,109,26138,79,64,0,2,6,2,s,pre,1
47,111,26420,74,64,0,2,6,2,s,pre,1
48,113,26766,71,64,0,2,6,2,s,pre,1
49,114,26809,72,64,0,2,6,2,s,pre,1
50,116,27158,72,64,0,2,6,2,s,pre,1
51,118,27466,74,64,0,2,6,2,s,pre,1
52,120,27819,74,64,0,2,6,2,s,pre,1
53,122,28849,76,64,0,2,6,2,s,pre,1
54,124,29523,65,64,0,2,6,2,s,pre,1
55,126,29857,65,64,0,2,6,2,s,pre,1
56,128,30185,64,64,0,2,6,2,s,pre,1
57,130,30514,64,64,0,2,6,2,s,pre,1
58,132,31604,62,64,0,2,6,2,s,pre,1
59,134,32298,67,64,0,2,6,2,s,pre,1
60,136,32648,67,64,0,2,6,2,s,pre,1
61,138,32967,71,64,0,2,6,2,s,pre,1
62,140,33312,71,64,0,2,6,2,s,pre,1
63,142,33625,72,64,0,2,6,2,s,pre,1
64,144,33948,72,64,0,2,6,2,s,pre,1
65,146,34257,73,64,0,2,6,2,s,pre,1
66,148,34590,73,64,0,2,6,2,s,pre,1
67,151,35569,74,64,0,2,6,2,s,pre,1
68,153,36294,77,64,0,2,6,2,s,pre,1
69,155,36925,76,64,0,2,6,2,s,pre,1
70,157,37485,74,64,0,2,6,2,s,pre,1
71,159,38156,72,64,0,2,6,2,s,pre,1
72,160,38615,84,64,0,2,6,2,s,pre,1
73,162,39425,84,64,0,2,6,2,s,pre,1
1,19,8234,79,64,0,2,7,2,s,pre,1
2,21,8553,78,64,0,2,7,2,s,pre,1
3,22,8801,79,64,0,2,7,2,s,pre,1
4,25,9162,76,64,0,2,7,2,s,pre,1
5,26,9286,72,64,0,2,7,2,s,pre,1
6,28,9491,67,64,0,2,7,2,s,pre,1
7,30,9817,67,64,0,2,7,2,s,pre,1
8,32,10112,67,64,0,2,7,2,s,pre,1
9,35,10720,79,64,0,2,7,2,s,pre,1
10,37,11032,78,64,0,2,7,2,s,pre,1
11,39,11323,79,64,0,2,7,2,s,pre,1
12,40,11578,76,64,0,2,7,2,s,pre,1
13,43,11917,72,64,0,2,7,2,s,pre,1
14,45,12235,76,64,0,2,7,2,s,pre,1
15,46,12514,79,64,0,2,7,2,s,pre,1
16,48,12840,84,64,0,2,7,2,s,pre,1
17,50,13017,83,64,0,2,7,2,s,pre,1
18,52,13205,81,64,0,2,7,2,s,pre,1
19,54,13497,81,64,0,2,7,2,s,pre,1
20,56,13841,81,64,0,2,7,2,s,pre,1
21,59,14419,83,64,0,2,7,2,s,pre,1
22,61,14712,81,64,0,2,7,2,s,pre,1
23,62,14995,84,64,0,2,7,2,s,pre,1
24,64,15316,81,64,0,2,7,2,s,pre,1
25,66,15584,78,64,0,2,7,2,s,pre,1
26,68,15745,79,64,0,2,7,2,s,pre,1
27,70,16221,79,64,0,2,7,2,s,pre,1
28,72,17198,79,64,0,2,7,2,s,pre,1
29,74,17870,77,64,0,2,7,2,s,pre,1
30,76,18177,77,64,0,2,7,2,s,pre,1
31,78,18480,76,64,0,2,7,2,s,pre,1
32,80,18787,76,64,0,2,7,2,s,pre,1
33,82,19629,74,64,0,2,7,2,s,pre,1
34,84,20870,79,64,0,2,7,2,s,pre,1
35,86,21273,77,64,0,2,7,2,s,pre,1
36,88,21682,76,64,0,2,7,2,s,pre,1
37,90,21961,76,64,0,2,7,2,s,pre,1
38,92,22270,76,64,0,2,7,2,s,pre,1
39,94,22586,76,64,0,2,7,2,s,pre,1
40,97,23267,81,64,0,2,7,2,s,pre,1
41,99,23573,77,64,0,2,7,2,s,pre,1
42,101,23838,76,64,0,2,7,2,s,pre,1
43,103,24160,74,64,0,2,7,2,s,pre,1
44,105,24480,76,64,0,2,7,2,s,pre,1
45,107,24809,79,64,0,2,7,2,s,pre,1
46,108,25071,74,64,0,2,7,2,s,pre,1
47,110,25140,71,64,0,2,7,2,s,pre,1
48,112,25441,72,64,0,2,7,2,s,pre,1
49,114,25745,72,64,0,2,7,2,s,pre,1
50,116,26072,74,64,0,2,7,2,s,pre,1
51,118,26379,74,64,0,2,7,2,s,pre,1
52,120,27273,76,64,0,2,7,2,s,pre,1
53,122,27983,65,64,0,2,7,2,s,pre,1
54,124,28287,65,64,0,2,7,2,s,pre,1
55,126,28615,64,64,0,2,7,2,s,pre,1
56,128,28948,64,64,0,2,7,2,s,pre,1
57,130,29897,62,64,0,2,7,2,s,pre,1
58,132,30554,67,64,0,2,7,2,s,pre,1
59,134,30846,67,64,0,2,7,2,s,pre,1
60,136,31177,71,64,0,2,7,2,s,pre,1
61,138,31469,71,64,0,2,7,2,s,pre,1
62,140,31785,72,64,0,2,7,2,s,pre,1
63,142,32105,72,64,0,2,7,2,s,pre,1
64,144,32419,73,64,0,2,7,2,s,pre,1
65,146,32724,73,64,0,2,7,2,s,pre,1
66,148,33628,74,64,0,2,7,2,s,pre,1
67,151,34325,77,64,0,2,7,2,s,pre,1
68,153,35027,76,64,0,2,7,2,s,pre,1
69,154,35573,74,64,0,2,7,2,s,pre,1
70,156,36023,72,64,0,2,7,2,s,pre,1
71,158,36656,84,64,0,2,7,2,s,pre,1
72,160,37033,84,64,0,2,7,2,s,pre,1
1,19,8123,79,64,0,2,9,2,s,pre,1
2,21,8371,78,64,0,2,9,2,s,pre,1
3,23,8636,79,64,0,2,9,2,s,pre,1
4,25,8862,76,64,0,2,9,2,s,pre,1
5,26,8914,72,64,0,2,9,2,s,pre,1
6,28,9153,67,64,0,2,9,2,s,pre,1
7,30,9401,67,64,0,2,9,2,s,pre,1
8,32,9642,67,64,0,2,9,2,s,pre,1
9,35,10157,79,64,0,2,9,2,s,pre,1
10,37,10398,78,64,0,2,9,2,s,pre,1
11,39,10636,79,64,0,2,9,2,s,pre,1
12,41,10877,76,64,0,2,9,2,s,pre,1
13,42,11056,72,64,0,2,9,2,s,pre,1
14,45,11354,76,64,0,2,9,2,s,pre,1
15,48,11610,79,64,0,2,9,2,s,pre,1
17,51,11871,84,64,0,2,9,2,s,pre,1
18,52,11928,83,64,0,2,9,2,s,pre,1
19,54,12140,81,64,0,2,9,2,s,pre,1
20,56,12377,81,64,0,2,9,2,s,pre,1
21,58,12608,81,64,0,2,9,2,s,pre,1
22,61,13092,83,64,0,2,9,2,s,pre,1
23,63,13292,81,64,0,2,9,2,s,pre,1
24,65,13558,84,64,0,2,9,2,s,pre,1
25,67,13794,81,64,0,2,9,2,s,pre,1
26,69,13991,78,64,0,2,9,2,s,pre,1
27,70,14028,79,64,0,2,9,2,s,pre,1
28,72,14290,79,64,0,2,9,2,s,pre,1
29,74,14743,79,64,0,2,9,2,s,pre,1
30,76,15644,77,64,0,2,9,2,s,pre,1
31,78,15881,77,64,0,2,9,2,s,pre,1
32,80,16092,76,64,0,2,9,2,s,pre,1
33,82,16313,76,64,0,2,9,2,s,pre,1
34,84,16560,74,64,0,2,9,2,s,pre,1
35,86,17395,79,64,0,2,9,2,s,pre,1
36,88,17864,77,64,0,2,9,2,s,pre,1
37,90,18367,76,64,0,2,9,2,s,pre,1
38,92,18600,76,64,0,2,9,2,s,pre,1
39,94,18821,76,64,0,2,9,2,s,pre,1
40,96,19047,76,64,0,2,9,2,s,pre,1
41,99,19506,81,64,0,2,9,2,s,pre,1
42,101,19807,77,64,0,2,9,2,s,pre,1
43,103,19955,76,64,0,2,9,2,s,pre,1
44,105,20219,74,64,0,2,9,2,s,pre,1
45,107,20393,76,64,0,2,9,2,s,pre,1
46,109,20646,79,64,0,2,9,2,s,pre,1
47,111,20846,74,64,0,2,9,2,s,pre,1
48,112,20915,71,64,0,2,9,2,s,pre,1
49,114,21077,72,64,0,2,9,2,s,pre,1
50,116,21305,72,64,0,2,9,2,s,pre,1
51,118,21521,74,64,0,2,9,2,s,pre,1
52,120,21758,74,64,0,2,9,2,s,pre,1
53,122,22010,76,64,0,2,9,2,s,pre,1
54,124,22850,65,64,0,2,9,2,s,pre,1
55,126,23071,65,64,0,2,9,2,s,pre,1
56,128,23287,64,64,0,2,9,2,s,pre,1
57,130,23514,64,64,0,2,9,2,s,pre,1
58,132,23771,62,64,0,2,9,2,s,pre,1
59,134,24643,67,64,0,2,9,2,s,pre,1
60,136,24837,67,64,0,2,9,2,s,pre,1
61,138,25066,71,64,0,2,9,2,s,pre,1
62,140,25293,71,64,0,2,9,2,s,pre,1
63,142,25510,72,64,0,2,9,2,s,pre,1
64,144,25703,72,64,0,2,9,2,s,pre,1
65,146,25912,73,64,0,2,9,2,s,pre,1
66,148,26123,73,64,0,2,9,2,s,pre,1
67,150,26380,74,64,0,2,9,2,s,pre,1
68,152,26819,77,64,0,2,9,2,s,pre,1
69,154,27221,76,64,0,2,9,2,s,pre,1
70,156,27623,74,64,0,2,9,2,s,pre,1
71,158,28077,72,64,0,2,9,2,s,pre,1
72,160,28495,84,64,0,2,9,2,s,pre,1
73,162,29018,84,64,0,2,9,2,s,pre,1
1,19,8149,79,64,0,2,4,1,s,pre,1
2,21,8421,78,64,0,2,4,1,s,pre,1
3,23,8697,79,64,0,2,4,1,s,pre,1
4,25,9022,76,64,0,2,4,1,s,pre,1
5,27,9260,72,64,0,2,4,1,s,pre,1
6,28,9272,67,64,0,2,4,1,s,pre,1
7,30,9575,67,64,0,2,4,1,s,pre,1
8,32,9864,67,64,0,2,4,1,s,pre,1
9,35,10429,79,64,0,2,4,1,s,pre,1
10,37,10734,78,64,0,2,4,1,s,pre,1
11,39,10945,79,64,0,2,4,1,s,pre,1
12,41,11208,76,64,0,2,4,1,s,pre,1
13,43,11513,72,64,0,2,4,1,s,pre,1
14,45,11780,76,64,0,2,4,1,s,pre,1
15,47,12006,79,64,0,2,4,1,s,pre,1
16,49,12388,84,64,0,2,4,1,s,pre,1
17,51,12576,83,64,0,2,4,1,s,pre,1
18,52,12598,81,64,0,2,4,1,s,pre,1
19,54,12860,81,64,0,2,4,1,s,pre,1
20,56,13111,81,64,0,2,4,1,s,pre,1
21,59,13696,83,64,0,2,4,1,s,pre,1
22,61,13944,81,64,0,2,4,1,s,pre,1
23,63,14342,84,64,0,2,4,1,s,pre,1
24,65,14537,81,64,0,2,4,1,s,pre,1
25,67,14783,78,64,0,2,4,1,s,pre,1
26,68,14827,79,64,0,2,4,1,s,pre,1
27,70,15274,79,64,0,2,4,1,s,pre,1
28,72,16190,79,64,0,2,4,1,s,pre,1
29,74,16701,77,64,0,2,4,1,s,pre,1
30,76,16981,77,64,0,2,4,1,s,pre,1
31,78,17245,76,64,0,2,4,1,s,pre,1
32,80,17533,76,64,0,2,4,1,s,pre,1
33,82,18104,74,64,0,2,4,1,s,pre,1
34,84,19122,79,64,0,2,4,1,s,pre,1
35,86,19662,77,64,0,2,4,1,s,pre,1
36,88,20030,76,64,0,2,4,1,s,pre,1
37,90,20305,76,64,0,2,4,1,s,pre,1
38,92,20580,76,64,0,2,4,1,s,pre,1
39,94,20850,76,64,0,2,4,1,s,pre,1
40,97,21642,81,64,0,2,4,1,s,pre,1
41,99,21752,77,64,0,2,4,1,s,pre,1
42,101,21964,76,64,0,2,4,1,s,pre,1
43,103,22303,74,64,0,2,4,1,s,pre,1
44,105,22550,76,64,0,2,4,1,s,pre,1
45,107,22826,79,64,0,2,4,1,s,pre,1
46,109,23019,74,64,0,2,4,1,s,pre,1
47,111,23314,71,64,0,2,4,1,s,pre,1
48,112,23323,72,64,0,2,4,1,s,pre,1
49,114,23567,72,64,0,2,4,1,s,pre,1
50,116,23876,74,64,0,2,4,1,s,pre,1
51,118,24131,74,64,0,2,4,1,s,pre,1
52,120,24835,76,64,0,2,4,1,s,pre,1
53,122,25484,65,64,0,2,4,1,s,pre,1
54,124,25753,65,64,0,2,4,1,s,pre,1
55,126,26346,64,64,0,2,4,1,s,pre,1
56,126,,64,,0,2,4,1,s,pre,1
57,128,27138,62,64,0,2,4,1,s,pre,1
58,130,27660,67,64,0,2,4,1,s,pre,1
59,132,27916,67,64,0,2,4,1,s,pre,1
60,134,28208,71,64,0,2,4,1,s,pre,1
61,136,28473,71,64,0,2,4,1,s,pre,1
62,138,28753,72,64,0,2,4,1,s,pre,1
63,140,29008,72,64,0,2,4,1,s,pre,1
64,142,29283,73,64,0,2,4,1,s,pre,1
65,144,29552,73,64,0,2,4,1,s,pre,1
66,147,30488,74,64,0,2,4,1,s,pre,1
67,149,30980,77,64,0,2,4,1,s,pre,1
68,151,31551,76,64,0,2,4,1,s,pre,1
69,153,32071,74,64,0,2,4,1,s,pre,1
70,155,32697,72,64,0,2,4,1,s,pre,1
71,156,33079,84,64,0,2,4,1,s,pre,1
72,158,34087,84,64,0,2,4,1,s,pre,1
1,19,9604,79,64,0,2,5,1,s,pre,1
2,21,9870,78,64,0,2,5,1,s,pre,1
3,23,10181,79,64,0,2,5,1,s,pre,1
4,25,10548,76,64,0,2,5,1,s,pre,1
5,26,10658,72,64,0,2,5,1,s,pre,1
6,28,11114,67,64,0,2,5,1,s,pre,1
7,30,11384,67,64,0,2,5,1,s,pre,1
8,30,,67,,0,2,5,1,s,pre,1
9,33,11984,79,64,0,2,5,1,s,pre,1
10,35,12256,78,64,0,2,5,1,s,pre,1
11,37,12600,79,64,0,2,5,1,s,pre,1
12,39,12887,76,64,0,2,5,1,s,pre,1
13,41,13168,72,64,0,2,5,1,s,pre,1
14,43,13435,76,64,0,2,5,1,s,pre,1
15,45,13666,79,64,0,2,5,1,s,pre,1
16,47,14008,84,64,0,2,5,1,s,pre,1
17,48,14221,83,64,0,2,5,1,s,pre,1
18,50,14598,81,64,0,2,5,1,s,pre,1
19,52,14864,81,64,0,2,5,1,s,pre,1
20,52,,81,,0,2,5,1,s,pre,1
21,55,15469,83,64,0,2,5,1,s,pre,1
22,57,15717,81,64,0,2,5,1,s,pre,1
23,59,16065,84,64,0,2,5,1,s,pre,1
24,61,16319,81,64,0,2,5,1,s,pre,1
25,63,16571,78,64,0,2,5,1,s,pre,1
26,64,16591,79,64,0,2,5,1,s,pre,1
27,66,16896,79,64,0,2,5,1,s,pre,1
28,68,18022,79,64,0,2,5,1,s,pre,1
29,70,19060,77,64,0,2,5,1,s,pre,1
30,72,19351,77,64,0,2,5,1,s,pre,1
31,74,19641,76,64,0,2,5,1,s,pre,1
32,76,19903,76,64,0,2,5,1,s,pre,1
33,78,20816,74,64,0,2,5,1,s,pre,1
34,81,22038,79,64,0,2,5,1,s,pre,1
35,82,22593,77,64,0,2,5,1,s,pre,1
36,84,22658,76,64,0,2,5,1,s,pre,1
37,86,22945,76,64,0,2,5,1,s,pre,1
38,88,23206,76,64,0,2,5,1,s,pre,1
39,90,23470,76,64,0,2,5,1,s,pre,1
40,93,24096,81,64,0,2,5,1,s,pre,1
41,95,24378,77,64,0,2,5,1,s,pre,1
42,97,24625,76,64,0,2,5,1,s,pre,1
43,99,24945,74,64,0,2,5,1,s,pre,1
44,101,25424,76,64,0,2,5,1,s,pre,1
45,103,25448,79,64,0,2,5,1,s,pre,1
46,105,25743,74,64,0,2,5,1,s,pre,1
47,107,26015,71,64,0,2,5,1,s,pre,1
48,108,26022,72,64,0,2,5,1,s,pre,1
49,110,26313,72,64,0,2,5,1,s,pre,1
50,112,26582,74,64,0,2,5,1,s,pre,1
51,114,26860,74,64,0,2,5,1,s,pre,1
52,116,27737,76,64,0,2,5,1,s,pre,1
53,118,28788,65,64,0,2,5,1,s,pre,1
54,120,29057,65,64,0,2,5,1,s,pre,1
55,122,29367,64,64,0,2,5,1,s,pre,1
56,124,29620,64,64,0,2,5,1,s,pre,1
57,126,30488,62,64,0,2,5,1,s,pre,1
58,128,31126,67,64,0,2,5,1,s,pre,1
59,130,31409,67,64,0,2,5,1,s,pre,1
60,132,31686,71,64,0,2,5,1,s,pre,1
61,134,31954,71,64,0,2,5,1,s,pre,1
62,136,32221,72,64,0,2,5,1,s,pre,1
63,138,32480,72,64,0,2,5,1,s,pre,1
64,140,32786,73,64,0,2,5,1,s,pre,1
65,142,33045,73,64,0,2,5,1,s,pre,1
66,145,33952,74,64,0,2,5,1,s,pre,1
67,147,34499,77,64,0,2,5,1,s,pre,1
68,149,35075,76,64,0,2,5,1,s,pre,1
69,151,35591,74,64,0,2,5,1,s,pre,1
70,153,36192,72,64,0,2,5,1,s,pre,1
71,154,36294,84,64,0,2,5,1,s,pre,1
72,156,37661,84,64,0,2,5,1,s,pre,1
1,19,8211,79,64,0,2,5,2,s,pre,1
2,21,8521,78,64,0,2,5,2,s,pre,1
3,23,8768,79,64,0,2,5,2,s,pre,1
4,25,9154,76,64,0,2,5,2,s,pre,1
5,27,9409,72,64,0,2,5,2,s,pre,1
6,28,9424,67,64,0,2,5,2,s,pre,1
7,30,9691,67,64,0,2,5,2,s,pre,1
8,30,,67,,0,2,5,2,s,pre,1
9,33,10541,79,64,0,2,5,2,s,pre,1
10,35,10869,78,64,0,2,5,2,s,pre,1
11,37,11204,79,64,0,2,5,2,s,pre,1
12,39,11442,76,64,0,2,5,2,s,pre,1
13,41,11755,72,64,0,2,5,2,s,pre,1
14,43,12029,76,64,0,2,5,2,s,pre,1
15,45,12261,79,64,0,2,5,2,s,pre,1
16,47,12613,84,64,0,2,5,2,s,pre,1
17,49,12820,83,64,0,2,5,2,s,pre,1
18,50,12851,81,64,0,2,5,2,s,pre,1
19,52,13135,81,64,0,2,5,2,s,pre,1
20,54,13424,81,64,0,2,5,2,s,pre,1
21,57,14004,83,64,0,2,5,2,s,pre,1
22,59,14249,81,64,0,2,5,2,s,pre,1
23,61,14574,84,64,0,2,5,2,s,pre,1
24,63,14877,81,64,0,2,5,2,s,pre,1
25,64,15113,78,64,0,2,5,2,s,pre,1
26,66,15438,79,64,0,2,5,2,s,pre,1
27,68,16700,79,64,0,2,5,2,s,pre,1
28,68,,79,,0,2,5,2,s,pre,1
29,70,17190,77,64,0,2,5,2,s,pre,1
30,72,17449,77,64,0,2,5,2,s,pre,1
31,74,17733,76,64,0,2,5,2,s,pre,1
32,76,18000,76,64,0,2,5,2,s,pre,1
33,78,18931,74,64,0,2,5,2,s,pre,1
34,81,20111,79,64,0,2,5,2,s,pre,1
35,83,20661,77,64,0,2,5,2,s,pre,1
36,84,20699,76,64,0,2,5,2,s,pre,1
37,86,20947,76,64,0,2,5,2,s,pre,1
38,88,21210,76,64,0,2,5,2,s,pre,1
39,90,21481,76,64,0,2,5,2,s,pre,1
40,93,22112,81,64,0,2,5,2,s,pre,1
41,95,22382,77,64,0,2,5,2,s,pre,1
42,97,22613,76,64,0,2,5,2,s,pre,1
43,99,22937,74,64,0,2,5,2,s,pre,1
44,101,23239,76,64,0,2,5,2,s,pre,1
45,103,23446,79,64,0,2,5,2,s,pre,1
46,104,23677,74,64,0,2,5,2,s,pre,1
47,107,23981,71,64,0,2,5,2,s,pre,1
48,108,23997,72,64,0,2,5,2,s,pre,1
49,110,24258,72,64,0,2,5,2,s,pre,1
50,112,24530,74,64,0,2,5,2,s,pre,1
51,114,24802,74,64,0,2,5,2,s,pre,1
52,116,25651,76,64,0,2,5,2,s,pre,1
53,118,26296,65,64,0,2,5,2,s,pre,1
54,120,26570,65,64,0,2,5,2,s,pre,1
55,122,27132,64,64,0,2,5,2,s,pre,1
56,122,,64,,0,2,5,2,s,pre,1
57,124,27975,62,64,0,2,5,2,s,pre,1
58,126,28603,67,64,0,2,5,2,s,pre,1
59,128,28887,67,64,0,2,5,2,s,pre,1
60,130,29152,71,64,0,2,5,2,s,pre,1
61,132,29421,71,64,0,2,5,2,s,pre,1
62,134,29692,72,64,0,2,5,2,s,pre,1
63,136,29969,72,64,0,2,5,2,s,pre,1
64,138,30289,73,64,0,2,5,2,s,pre,1
65,140,30568,73,64,0,2,5,2,s,pre,1
66,143,31427,74,64,0,2,5,2,s,pre,1
67,145,32051,77,64,0,2,5,2,s,pre,1
68,147,32610,76,64,0,2,5,2,s,pre,1
69,148,33109,74,64,0,2,5,2,s,pre,1
70,151,33703,72,64,0,2,5,2,s,pre,1
71,152,33775,84,64,0,2,5,2,s,pre,1
72,154,35356,84,64,0,2,5,2,s,pre,1
1,19,9650,79,64,0,2,6,1,s,pre,1
2,21,10150,78,64,0,2,6,1,s,pre,1
3,23,10692,79,64,0,2,6,1,s,pre,1
4,25,11166,76,64,0,2,6,1,s,pre,1
5,26,11364,72,64,0,2,6,1,s,pre,1
6,28,11618,67,64,0,2,6,1,s,pre,1
7,30,12060,67,64,0,2,6,1,s,pre,1
8,32,12469,67,64,0,2,6,1,s,pre,1
9,35,13343,79,64,0,2,6,1,s,pre,1
10,37,13787,78,64,0,2,6,1,s,pre,1
11,39,14244,79,64,0,2,6,1,s,pre,1
12,41,14628,76,64,0,2,6,1,s,pre,1
13,43,15133,72,64,0,2,6,1,s,pre,1
14,45,15556,76,64,0,2,6,1,s,pre,1
15,47,15950,79,64,0,2,6,1,s,pre,1
16,49,16404,84,64,0,2,6,1,s,pre,1
17,50,16658,83,64,0,2,6,1,s,pre,1
18,52,16814,81,64,0,2,6,1,s,pre,1
19,54,17237,81,64,0,2,6,1,s,pre,1
20,56,17646,81,64,0,2,6,1,s,pre,1
21,59,18540,83,64,0,2,6,1,s,pre,1
22,61,18876,81,64,0,2,6,1,s,pre,1
23,63,19294,84,64,0,2,6,1,s,pre,1
24,65,19690,81,64,0,2,6,1,s,pre,1
25,67,20122,78,64,0,2,6,1,s,pre,1
26,68,20218,79,64,0,2,6,1,s,pre,1
27,70,21006,79,64,0,2,6,1,s,pre,1
28,72,22297,79,64,0,2,6,1,s,pre,1
29,74,23162,77,64,0,2,6,1,s,pre,1
30,76,23564,77,64,0,2,6,1,s,pre,1
31,78,24317,76,64,0,2,6,1,s,pre,1
32,78,,76,,0,2,6,1,s,pre,1
33,80,25554,74,64,0,2,6,1,s,pre,1
34,82,26958,79,64,0,2,6,1,s,pre,1
35,85,27802,77,64,0,2,6,1,s,pre,1
36,86,27848,76,64,0,2,6,1,s,pre,1
37,88,28194,76,64,0,2,6,1,s,pre,1
38,90,28560,76,64,0,2,6,1,s,pre,1
39,92,28920,76,64,0,2,6,1,s,pre,1
40,95,29745,81,64,0,2,6,1,s,pre,1
41,97,30124,77,64,0,2,6,1,s,pre,1
42,99,30460,76,64,0,2,6,1,s,pre,1
43,101,30872,74,64,0,2,6,1,s,pre,1
44,103,31238,76,64,0,2,6,1,s,pre,1
45,105,31632,79,64,0,2,6,1,s,pre,1
46,106,31956,74,64,0,2,6,1,s,pre,1
47,109,32362,71,64,0,2,6,1,s,pre,1
48,110,32396,72,64,0,2,6,1,s,pre,1
49,112,32760,72,64,0,2,6,1,s,pre,1
50,114,33145,74,64,0,2,6,1,s,pre,1
51,116,33502,74,64,0,2,6,1,s,pre,1
52,118,34666,76,64,0,2,6,1,s,pre,1
53,120,35336,65,64,0,2,6,1,s,pre,1
54,122,35688,65,64,0,2,6,1,s,pre,1
55,124,36079,64,64,0,2,6,1,s,pre,1
56,126,36435,64,64,0,2,6,1,s,pre,1
57,128,37693,62,64,0,2,6,1,s,pre,1
58,130,38394,67,64,0,2,6,1,s,pre,1
59,132,38762,67,64,0,2,6,1,s,pre,1
60,134,39126,71,64,0,2,6,1,s,pre,1
61,136,39469,71,64,0,2,6,1,s,pre,1
62,138,39827,72,64,0,2,6,1,s,pre,1
63,140,40174,72,64,0,2,6,1,s,pre,1
64,142,40517,73,64,0,2,6,1,s,pre,1
65,144,40896,73,64,0,2,6,1,s,pre,1
66,147,42028,74,64,0,2,6,1,s,pre,1
67,149,42780,77,64,0,2,6,1,s,pre,1
68,151,43495,76,64,0,2,6,1,s,pre,1
69,153,44098,74,64,0,2,6,1,s,pre,1
70,155,44862,72,64,0,2,6,1,s,pre,1
71,156,45370,84,64,0,2,6,1,s,pre,1
72,158,46222,84,64,0,2,6,1,s,pre,1
1,19,8233,79,64,0,2,8,1,s,pre,1
2,21,8548,78,64,0,2,8,1,s,pre,1
3,23,8827,79,64,0,2,8,1,s,pre,1
4,25,9067,76,64,0,2,8,1,s,pre,1
5,26,9307,72,64,0,2,8,1,s,pre,1
6,28,9377,67,64,0,2,8,1,s,pre,1
7,30,9689,67,64,0,2,8,1,s,pre,1
8,32,10037,67,64,0,2,8,1,s,pre,1
9,35,10617,79,64,0,2,8,1,s,pre,1
10,37,11036,78,64,0,2,8,1,s,pre,1
11,39,11189,79,64,0,2,8,1,s,pre,1
12,40,11387,76,64,0,2,8,1,s,pre,1
13,43,11724,72,64,0,2,8,1,s,pre,1
14,45,12008,76,64,0,2,8,1,s,pre,1
15,47,12241,79,64,0,2,8,1,s,pre,1
16,49,12649,84,64,0,2,8,1,s,pre,1
17,50,12773,83,64,0,2,8,1,s,pre,1
18,52,12861,81,64,0,2,8,1,s,pre,1
19,54,13176,81,64,0,2,8,1,s,pre,1
20,56,13489,81,64,0,2,8,1,s,pre,1
21,59,14056,83,64,0,2,8,1,s,pre,1
22,61,14289,81,64,0,2,8,1,s,pre,1
23,63,14639,84,64,0,2,8,1,s,pre,1
24,65,14843,81,64,0,2,8,1,s,pre,1
25,67,15148,78,64,0,2,8,1,s,pre,1
26,68,15244,79,64,0,2,8,1,s,pre,1
27,70,15703,79,64,0,2,8,1,s,pre,1
28,72,16679,79,64,0,2,8,1,s,pre,1
29,74,17283,77,64,0,2,8,1,s,pre,1
30,76,17570,77,64,0,2,8,1,s,pre,1
31,78,17876,76,64,0,2,8,1,s,pre,1
32,80,18148,76,64,0,2,8,1,s,pre,1
33,82,18858,74,64,0,2,8,1,s,pre,1
34,85,20250,79,64,0,2,8,1,s,pre,1
35,87,20843,77,64,0,2,8,1,s,pre,1
36,88,20902,76,64,0,2,8,1,s,pre,1
37,90,21200,76,64,0,2,8,1,s,pre,1
38,92,21446,76,64,0,2,8,1,s,pre,1
39,92,,76,,0,2,8,1,s,pre,1
40,95,22324,81,64,0,2,8,1,s,pre,1
41,97,22563,77,64,0,2,8,1,s,pre,1
42,99,22784,76,64,0,2,8,1,s,pre,1
43,101,23115,74,64,0,2,8,1,s,pre,1
44,103,23391,76,64,0,2,8,1,s,pre,1
45,105,23772,79,64,0,2,8,1,s,pre,1
46,107,23929,74,64,0,2,8,1,s,pre,1
47,109,24234,71,64,0,2,8,1,s,pre,1
48,110,24255,72,64,0,2,8,1,s,pre,1
49,112,24550,72,64,0,2,8,1,s,pre,1
50,114,24832,74,64,0,2,8,1,s,pre,1
51,116,25148,74,64,0,2,8,1,s,pre,1
52,118,25984,76,64,0,2,8,1,s,pre,1
53,120,26644,65,64,0,2,8,1,s,pre,1
54,122,26903,65,64,0,2,8,1,s,pre,1
55,124,27175,64,64,0,2,8,1,s,pre,1
56,126,27455,64,64,0,2,8,1,s,pre,1
57,128,28301,62,64,0,2,8,1,s,pre,1
58,130,28971,67,64,0,2,8,1,s,pre,1
59,132,29235,67,64,0,2,8,1,s,pre,1
60,134,29508,71,64,0,2,8,1,s,pre,1
61,136,29790,71,64,0,2,8,1,s,pre,1
62,138,30082,72,64,0,2,8,1,s,pre,1
63,140,30393,72,64,0,2,8,1,s,pre,1
64,142,30695,73,64,0,2,8,1,s,pre,1
65,144,30975,73,64,0,2,8,1,s,pre,1
66,147,31867,74,64,0,2,8,1,s,pre,1
67,149,32487,77,64,0,2,8,1,s,pre,1
68,151,32974,76,64,0,2,8,1,s,pre,1
69,153,33523,74,64,0,2,8,1,s,pre,1
70,155,34142,72,64,0,2,8,1,s,pre,1
71,156,34415,84,64,0,2,8,1,s,pre,1
72,158,35554,84,64,0,2,8,1,s,pre,1
1,19,9097,79,64,0,2,9,1,s,pre,1
2,21,9330,78,64,0,2,9,1,s,pre,1
3,23,9580,79,64,0,2,9,1,s,pre,1
4,25,9771,76,64,0,2,9,1,s,pre,1
5,26,9796,72,64,0,2,9,1,s,pre,1
6,28,10010,67,64,0,2,9,1,s,pre,1
7,30,10217,67,64,0,2,9,1,s,pre,1
8,32,10428,67,64,0,2,9,1,s,pre,1
9,35,10861,79,64,0,2,9,1,s,pre,1
10,37,11069,78,64,0,2,9,1,s,pre,1
11,39,11281,79,64,0,2,9,1,s,pre,1
12,41,11482,76,64,0,2,9,1,s,pre,1
13,42,11632,72,64,0,2,9,1,s,pre,1
14,45,11877,76,64,0,2,9,1,s,pre,1
15,47,12072,79,64,0,2,9,1,s,pre,1
16,49,12297,84,64,0,2,9,1,s,pre,1
17,50,12376,83,64,0,2,9,1,s,pre,1
18,52,12503,81,64,0,2,9,1,s,pre,1
19,54,12697,81,64,0,2,9,1,s,pre,1
20,56,12905,81,64,0,2,9,1,s,pre,1
21,59,13312,83,64,0,2,9,1,s,pre,1
22,61,13480,81,64,0,2,9,1,s,pre,1
23,63,13707,84,64,0,2,9,1,s,pre,1
24,65,13916,81,64,0,2,9,1,s,pre,1
25,67,14077,78,64,0,2,9,1,s,pre,1
26,68,14110,79,64,0,2,9,1,s,pre,1
27,70,14314,79,64,0,2,9,1,s,pre,1
28,72,14731,79,64,0,2,9,1,s,pre,1
29,74,15570,77,64,0,2,9,1,s,pre,1
30,76,15764,77,64,0,2,9,1,s,pre,1
31,78,15962,76,64,0,2,9,1,s,pre,1
32,80,16162,76,64,0,2,9,1,s,pre,1
33,82,16395,74,64,0,2,9,1,s,pre,1
34,82,,79,,0,2,9,1,s,pre,1
35,84,17610,77,64,0,2,9,1,s,pre,1
36,86,18016,76,64,0,2,9,1,s,pre,1
37,88,18213,76,64,0,2,9,1,s,pre,1
38,90,18400,76,64,0,2,9,1,s,pre,1
39,92,18599,76,64,0,2,9,1,s,pre,1
40,95,18997,81,64,0,2,9,1,s,pre,1
41,97,19287,77,64,0,2,9,1,s,pre,1
42,99,19405,76,64,0,2,9,1,s,pre,1
43,101,19655,74,64,0,2,9,1,s,pre,1
44,103,19799,76,64,0,2,9,1,s,pre,1
45,105,20025,79,64,0,2,9,1,s,pre,1
46,107,20203,74,64,0,2,9,1,s,pre,1
47,108,20300,71,64,0,2,9,1,s,pre,1
48,110,20384,72,64,0,2,9,1,s,pre,1
49,112,20602,72,64,0,2,9,1,s,pre,1
50,114,20812,74,64,0,2,9,1,s,pre,1
51,116,20999,74,64,0,2,9,1,s,pre,1
52,118,21215,76,64,0,2,9,1,s,pre,1
53,120,22014,65,64,0,2,9,1,s,pre,1
54,122,22200,65,64,0,2,9,1,s,pre,1
55,124,22410,64,64,0,2,9,1,s,pre,1
56,126,22590,64,64,0,2,9,1,s,pre,1
57,128,22833,62,64,0,2,9,1,s,pre,1
58,130,23613,67,64,0,2,9,1,s,pre,1
59,132,23806,67,64,0,2,9,1,s,pre,1
60,134,24035,71,64,0,2,9,1,s,pre,1
61,136,24220,71,64,0,2,9,1,s,pre,1
62,138,24425,72,64,0,2,9,1,s,pre,1
63,140,24611,72,64,0,2,9,1,s,pre,1
64,142,24795,73,64,0,2,9,1,s,pre,1
65,144,24995,73,64,0,2,9,1,s,pre,1
66,146,25230,74,64,0,2,9,1,s,pre,1
67,148,25622,77,64,0,2,9,1,s,pre,1
68,150,26002,76,64,0,2,9,1,s,pre,1
69,152,26373,74,64,0,2,9,1,s,pre,1
70,154,26766,72,64,0,2,9,1,s,pre,1
71,156,27147,84,64,0,2,9,1,s,pre,1
72,158,27593,84,64,0,2,9,1,s,pre,1
1,19,8114,79,64,0,2,10,1,s,pre,1
2,21,8421,78,64,0,2,10,1,s,pre,1
3,23,8693,79,64,0,2,10,1,s,pre,1
4,25,9010,76,64,0,2,10,1,s,pre,1
5,26,9078,72,64,0,2,10,1,s,pre,1
6,28,9328,67,64,0,2,10,1,s,pre,1
7,30,9899,67,64,0,2,10,1,s,pre,1
8,30,,67,,0,2,10,1,s,pre,1
9,33,10406,79,64,0,2,10,1,s,pre,1
10,35,10708,78,64,0,2,10,1,s,pre,1
11,36,10943,79,64,0,2,10,1,s,pre,1
12,38,11202,76,64,0,2,10,1,s,pre,1
13,41,11570,72,64,0,2,10,1,s,pre,1
14,43,11817,76,64,0,2,10,1,s,pre,1
15,45,12044,79,64,0,2,10,1,s,pre,1
16,47,12347,84,64,0,2,10,1,s,pre,1
17,48,12351,83,64,0,2,10,1,s,pre,1
18,50,12641,81,64,0,2,10,1,s,pre,1
19,52,12910,81,64,0,2,10,1,s,pre,1
20,54,13157,81,64,0,2,10,1,s,pre,1
21,57,13703,83,64,0,2,10,1,s,pre,1
22,59,13952,81,64,0,2,10,1,s,pre,1
23,61,14241,84,64,0,2,10,1,s,pre,1
24,63,14543,81,64,0,2,10,1,s,pre,1
25,65,14777,78,64,0,2,10,1,s,pre,1
26,66,14813,79,64,0,2,10,1,s,pre,1
27,68,15147,79,64,0,2,10,1,s,pre,1
28,70,16266,79,64,0,2,10,1,s,pre,1
29,72,16824,77,64,0,2,10,1,s,pre,1
30,74,17075,77,64,0,2,10,1,s,pre,1
31,76,17351,76,64,0,2,10,1,s,pre,1
32,78,17590,76,64,0,2,10,1,s,pre,1
33,80,18234,74,64,0,2,10,1,s,pre,1
34,82,19104,79,64,0,2,10,1,s,pre,1
35,84,19602,77,64,0,2,10,1,s,pre,1
36,86,20129,76,64,0,2,10,1,s,pre,1
37,88,20396,76,64,0,2,10,1,s,pre,1
38,90,20664,76,64,0,2,10,1,s,pre,1
39,92,20915,76,64,0,2,10,1,s,pre,1
40,95,21450,81,64,0,2,10,1,s,pre,1
41,97,21664,77,64,0,2,10,1,s,pre,1
42,99,21929,76,64,0,2,10,1,s,pre,1
43,101,22206,74,64,0,2,10,1,s,pre,1
44,103,22450,76,64,0,2,10,1,s,pre,1
45,105,22731,79,64,0,2,10,1,s,pre,1
46,106,22983,74,64,0,2,10,1,s,pre,1
47,108,23188,71,64,0,2,10,1,s,pre,1
48,110,23308,72,64,0,2,10,1,s,pre,1
49,112,23560,72,64,0,2,10,1,s,pre,1
50,114,23813,74,64,0,2,10,1,s,pre,1
51,116,24072,74,64,0,2,10,1,s,pre,1
52,118,24724,76,64,0,2,10,1,s,pre,1
53,120,25553,65,64,0,2,10,1,s,pre,1
54,122,25806,65,64,0,2,10,1,s,pre,1
55,124,26358,64,64,0,2,10,1,s,pre,1
56,124,,64,,0,2,10,1,s,pre,1
57,126,27112,62,64,0,2,10,1,s,pre,1
58,128,27764,67,64,0,2,10,1,s,pre,1
59,130,28025,67,64,0,2,10,1,s,pre,1
60,132,28284,71,64,0,2,10,1,s,pre,1
61,134,28541,71,64,0,2,10,1,s,pre,1
62,136,28807,72,64,0,2,10,1,s,pre,1
63,138,29072,72,64,0,2,10,1,s,pre,1
64,140,29332,73,64,0,2,10,1,s,pre,1
65,142,29583,73,64,0,2,10,1,s,pre,1
66,144,30173,74,64,0,2,10,1,s,pre,1
67,146,30849,77,64,0,2,10,1,s,pre,1
68,148,31388,76,64,0,2,10,1,s,pre,1
69,150,31964,74,64,0,2,10,1,s,pre,1
70,152,32528,72,64,0,2,10,1,s,pre,1
71,154,33079,84,64,0,2,10,1,s,pre,1
72,156,33972,84,64,0,2,10,1,s,pre,1
1,19,8249,79,64,0,2,11,2,s,pre,1
2,21,8537,78,64,0,2,11,2,s,pre,1
3,23,8735,79,64,0,2,11,2,s,pre,1
4,25,8985,76,64,0,2,11,2,s,pre,1
5,26,8989,72,64,0,2,11,2,s,pre,1
6,28,9293,67,64,0,2,11,2,s,pre,1
7,30,9597,67,64,0,2,11,2,s,pre,1
8,32,9841,67,64,0,2,11,2,s,pre,1
9,35,10461,79,64,0,2,11,2,s,pre,1
10,37,10723,78,64,0,2,11,2,s,pre,1
11,39,10957,79,64,0,2,11,2,s,pre,1
12,41,11151,76,64,0,2,11,2,s,pre,1
13,43,11538,72,64,0,2,11,2,s,pre,1
14,45,11745,76,64,0,2,11,2,s,pre,1
15,47,11931,79,64,0,2,11,2,s,pre,1
16,49,12252,84,64,0,2,11,2,s,pre,1
17,50,12301,83,64,0,2,11,2,s,pre,1
18,52,12546,81,64,0,2,11,2,s,pre,1
19,54,12831,81,64,0,2,11,2,s,pre,1
20,56,13081,81,64,0,2,11,2,s,pre,1
21,59,13577,83,64,0,2,11,2,s,pre,1
22,61,13829,81,64,0,2,11,2,s,pre,1
23,63,14111,84,64,0,2,11,2,s,pre,1
24,65,14335,81,64,0,2,11,2,s,pre,1
25,67,14619,78,64,0,2,11,2,s,pre,1
26,68,14643,79,64,0,2,11,2,s,pre,1
27,70,14886,79,64,0,2,11,2,s,pre,1
28,72,15411,79,64,0,2,11,2,s,pre,1
29,74,16500,77,64,0,2,11,2,s,pre,1
30,76,16763,77,64,0,2,11,2,s,pre,1
31,78,17029,76,64,0,2,11,2,s,pre,1
32,80,17289,76,64,0,2,11,2,s,pre,1
33,82,17885,74,64,0,2,11,2,s,pre,1
34,84,18903,79,64,0,2,11,2,s,pre,1
35,86,19401,77,64,0,2,11,2,s,pre,1
36,88,19835,76,64,0,2,11,2,s,pre,1
37,90,20133,76,64,0,2,11,2,s,pre,1
38,92,20379,76,64,0,2,11,2,s,pre,1
39,94,20607,76,64,0,2,11,2,s,pre,1
40,97,21193,81,64,0,2,11,2,s,pre,1
41,99,21397,77,64,0,2,11,2,s,pre,1
42,101,21563,76,64,0,2,11,2,s,pre,1
43,103,21813,74,64,0,2,11,2,s,pre,1
44,105,22083,76,64,0,2,11,2,s,pre,1
45,107,22385,79,64,0,2,11,2,s,pre,1
46,109,22581,74,64,0,2,11,2,s,pre,1
47,110,22807,71,64,0,2,11,2,s,pre,1
48,112,22865,72,64,0,2,11,2,s,pre,1
49,114,23139,72,64,0,2,11,2,s,pre,1
50,116,23391,74,64,0,2,11,2,s,pre,1
51,118,23667,74,64,0,2,11,2,s,pre,1
52,120,24337,76,64,0,2,11,2,s,pre,1
53,122,25071,65,64,0,2,11,2,s,pre,1
54,124,25338,65,64,0,2,11,2,s,pre,1
55,126,25597,64,64,0,2,11,2,s,pre,1
56,128,25861,64,64,0,2,11,2,s,pre,1
57,130,26590,62,64,0,2,11,2,s,pre,1
58,132,27211,67,64,0,2,11,2,s,pre,1
59,132,,67,,0,2,11,2,s,pre,1
60,134,27730,71,64,0,2,11,2,s,pre,1
61,136,27982,71,64,0,2,11,2,s,pre,1
62,138,28223,72,64,0,2,11,2,s,pre,1
63,140,28483,72,64,0,2,11,2,s,pre,1
64,142,28729,73,64,0,2,11,2,s,pre,1
65,144,28962,73,64,0,2,11,2,s,pre,1
66,146,29233,74,64,0,2,11,2,s,pre,1
67,148,29783,77,64,0,2,11,2,s,pre,1
68,150,30305,76,64,0,2,11,2,s,pre,1
69,152,30859,74,64,0,2,11,2,s,pre,1
70,154,31363,72,64,0,2,11,2,s,pre,1
71,156,31909,84,64,0,2,11,2,s,pre,1
72,158,32481,84,64,0,2,11,2,s,pre,1
1,19,8173,79,64,0,2,12,1,s,pre,1
2,21,8438,78,64,0,2,12,1,s,pre,1
3,23,8720,79,64,0,2,12,1,s,pre,1
4,25,9013,76,64,0,2,12,1,s,pre,1
5,26,9208,72,64,0,2,12,1,s,pre,1
6,28,9270,67,64,0,2,12,1,s,pre,1
7,30,9838,67,64,0,2,12,1,s,pre,1
8,30,,67,,0,2,12,1,s,pre,1
9,33,10445,79,64,0,2,12,1,s,pre,1
10,35,10694,78,64,0,2,12,1,s,pre,1
11,37,11008,79,64,0,2,12,1,s,pre,1
12,39,11253,76,64,0,2,12,1,s,pre,1
13,41,11577,72,64,0,2,12,1,s,pre,1
14,43,11845,76,64,0,2,12,1,s,pre,1
15,45,12044,79,64,0,2,12,1,s,pre,1
16,47,12402,84,64,0,2,12,1,s,pre,1
17,49,12596,83,64,0,2,12,1,s,pre,1
18,50,12627,81,64,0,2,12,1,s,pre,1
19,52,12898,81,64,0,2,12,1,s,pre,1
20,54,13158,81,64,0,2,12,1,s,pre,1
21,57,13739,83,64,0,2,12,1,s,pre,1
22,59,13966,81,64,0,2,12,1,s,pre,1
23,61,14264,84,64,0,2,12,1,s,pre,1
24,63,14524,81,64,0,2,12,1,s,pre,1
25,65,14819,78,64,0,2,12,1,s,pre,1
26,66,14915,79,64,0,2,12,1,s,pre,1
27,68,15257,79,64,0,2,12,1,s,pre,1
28,70,16324,79,64,0,2,12,1,s,pre,1
29,72,16842,77,64,0,2,12,1,s,pre,1
30,74,17095,77,64,0,2,12,1,s,pre,1
31,76,17358,76,64,0,2,12,1,s,pre,1
32,78,17630,76,64,0,2,12,1,s,pre,1
33,80,18266,74,64,0,2,12,1,s,pre,1
34,82,19399,79,64,0,2,12,1,s,pre,1
35,84,20007,77,64,0,2,12,1,s,pre,1
36,86,20246,76,64,0,2,12,1,s,pre,1
37,88,20529,76,64,0,2,12,1,s,pre,1
38,90,20818,76,64,0,2,12,1,s,pre,1
39,92,21079,76,64,0,2,12,1,s,pre,1
40,95,21669,81,64,0,2,12,1,s,pre,1
41,97,21873,77,64,0,2,12,1,s,pre,1
42,99,22125,76,64,0,2,12,1,s,pre,1
43,101,22432,74,64,0,2,12,1,s,pre,1
44,103,22693,76,64,0,2,12,1,s,pre,1
45,105,22966,79,64,0,2,12,1,s,pre,1
46,107,23166,74,64,0,2,12,1,s,pre,1
47,108,23390,71,64,0,2,12,1,s,pre,1
48,110,23465,72,64,0,2,12,1,s,pre,1
49,112,23726,72,64,0,2,12,1,s,pre,1
50,114,23999,74,64,0,2,12,1,s,pre,1
51,116,24256,74,64,0,2,12,1,s,pre,1
52,118,25033,76,64,0,2,12,1,s,pre,1
53,120,25656,65,64,0,2,12,1,s,pre,1
54,122,25926,65,64,0,2,12,1,s,pre,1
55,124,26213,64,64,0,2,12,1,s,pre,1
56,126,26475,64,64,0,2,12,1,s,pre,1
57,128,27272,62,64,0,2,12,1,s,pre,1
58,130,27886,67,64,0,2,12,1,s,pre,1
59,132,28140,67,64,0,2,12,1,s,pre,1
60,134,28406,71,64,0,2,12,1,s,pre,1
61,136,28696,71,64,0,2,12,1,s,pre,1
62,138,28982,72,64,0,2,12,1,s,pre,1
63,140,29233,72,64,0,2,12,1,s,pre,1
64,142,29525,73,64,0,2,12,1,s,pre,1
65,144,29786,73,64,0,2,12,1,s,pre,1
66,146,30386,74,64,0,2,12,1,s,pre,1
67,148,30973,77,64,0,2,12,1,s,pre,1
68,150,31602,76,64,0,2,12,1,s,pre,1
69,152,32127,74,64,0,2,12,1,s,pre,1
70,154,32692,72,64,0,2,12,1,s,pre,1
71,156,33191,84,64,0,2,12,1,s,pre,1
72,158,33840,84,64,0,2,12,1,s,pre,1
1,19,8148,79,64,0,2,13,1,s,pre,1
2,21,8448,78,64,0,2,13,1,s,pre,1
3,23,8690,79,64,0,2,13,1,s,pre,1
4,25,8940,76,64,0,2,13,1,s,pre,1
5,26,8974,72,64,0,2,13,1,s,pre,1
6,28,9210,67,64,0,2,13,1,s,pre,1
7,30,9468,67,64,0,2,13,1,s,pre,1
8,32,9706,67,64,0,2,13,1,s,pre,1
9,35,10230,79,64,0,2,13,1,s,pre,1
10,37,10452,78,64,0,2,13,1,s,pre,1
11,39,10700,79,64,0,2,13,1,s,pre,1
12,41,11000,76,64,0,2,13,1,s,pre,1
13,43,11270,72,64,0,2,13,1,s,pre,1
14,45,11508,76,64,0,2,13,1,s,pre,1
15,47,11719,79,64,0,2,13,1,s,pre,1
16,49,11968,84,64,0,2,13,1,s,pre,1
17,50,11995,83,64,0,2,13,1,s,pre,1
18,52,12229,81,64,0,2,13,1,s,pre,1
19,54,12690,81,64,0,2,13,1,s,pre,1
20,54,,81,,0,2,13,1,s,pre,1
21,57,13177,83,64,0,2,13,1,s,pre,1
22,59,13431,81,64,0,2,13,1,s,pre,1
23,61,13673,84,64,0,2,13,1,s,pre,1
24,62,13724,81,64,0,2,13,1,s,pre,1
25,64,14082,78,64,0,2,13,1,s,pre,1
26,66,14155,79,64,0,2,13,1,s,pre,1
27,68,14498,79,64,0,2,13,1,s,pre,1
28,70,15152,79,64,0,2,13,1,s,pre,1
29,72,15992,77,64,0,2,13,1,s,pre,1
30,74,16246,77,64,0,2,13,1,s,pre,1
31,76,16518,76,64,0,2,13,1,s,pre,1
32,78,16762,76,64,0,2,13,1,s,pre,1
33,80,17232,74,64,0,2,13,1,s,pre,1
34,82,18167,79,64,0,2,13,1,s,pre,1
35,84,18719,77,64,0,2,13,1,s,pre,1
36,86,19284,76,64,0,2,13,1,s,pre,1
37,88,19534,76,64,0,2,13,1,s,pre,1
38,90,19764,76,64,0,2,13,1,s,pre,1
39,92,20006,76,64,0,2,13,1,s,pre,1
40,95,20536,81,64,0,2,13,1,s,pre,1
41,97,20723,77,64,0,2,13,1,s,pre,1
42,99,20951,76,64,0,2,13,1,s,pre,1
43,100,21172,74,64,0,2,13,1,s,pre,1
44,102,21421,76,64,0,2,13,1,s,pre,1
45,105,21680,79,64,0,2,13,1,s,pre,1
46,106,21897,74,64,0,2,13,1,s,pre,1
47,108,21934,71,64,0,2,13,1,s,pre,1
48,110,22200,72,64,0,2,13,1,s,pre,1
49,112,22420,72,64,0,2,13,1,s,pre,1
50,114,22666,74,64,0,2,13,1,s,pre,1
51,116,22889,74,64,0,2,13,1,s,pre,1
52,118,23381,76,64,0,2,13,1,s,pre,1
53,120,24244,65,64,0,2,13,1,s,pre,1
54,122,24490,65,64,0,2,13,1,s,pre,1
55,124,24728,64,64,0,2,13,1,s,pre,1
56,126,24994,64,64,0,2,13,1,s,pre,1
57,128,25540,62,64,0,2,13,1,s,pre,1
58,130,26346,67,64,0,2,13,1,s,pre,1
59,132,26589,67,64,0,2,13,1,s,pre,1
60,134,26829,71,64,0,2,13,1,s,pre,1
61,136,27052,71,64,0,2,13,1,s,pre,1
62,138,27294,72,64,0,2,13,1,s,pre,1
63,140,27518,72,64,0,2,13,1,s,pre,1
64,142,27756,73,64,0,2,13,1,s,pre,1
65,144,27976,73,64,0,2,13,1,s,pre,1
66,146,28338,74,64,0,2,13,1,s,pre,1
67,148,28830,77,64,0,2,13,1,s,pre,1
68,150,29312,76,64,0,2,13,1,s,pre,1
69,152,29784,74,64,0,2,13,1,s,pre,1
70,154,30318,72,64,0,2,13,1,s,pre,1
71,156,30792,84,64,0,2,13,1,s,pre,1
72,158,31434,84,64,0,2,13,1,s,pre,1
1,19,11045,79,64,0,2,16,1,s,pre,1
2,21,11386,78,64,0,2,16,1,s,pre,1
3,23,11679,79,64,0,2,16,1,s,pre,1
4,24,11978,76,64,0,2,16,1,s,pre,1
5,26,12104,72,64,0,2,16,1,s,pre,1
6,28,12399,67,64,0,2,16,1,s,pre,1
7,30,12726,67,64,0,2,16,1,s,pre,1
8,32,13021,67,64,0,2,16,1,s,pre,1
9,35,14168,79,64,0,2,16,1,s,pre,1
10,36,14454,78,64,0,2,16,1,s,pre,1
11,39,14788,79,64,0,2,16,1,s,pre,1
12,40,15104,76,64,0,2,16,1,s,pre,1
13,43,15497,72,64,0,2,16,1,s,pre,1
14,45,15815,76,64,0,2,16,1,s,pre,1
15,46,16058,79,64,0,2,16,1,s,pre,1
16,49,16467,84,64,0,2,16,1,s,pre,1
17,50,16770,83,64,0,2,16,1,s,pre,1
18,52,16841,81,64,0,2,16,1,s,pre,1
19,54,17180,81,64,0,2,16,1,s,pre,1
20,56,17453,81,64,0,2,16,1,s,pre,1
21,59,18081,83,64,0,2,16,1,s,pre,1
22,61,18423,81,64,0,2,16,1,s,pre,1
23,63,18718,84,64,0,2,16,1,s,pre,1
24,65,19043,81,64,0,2,16,1,s,pre,1
25,67,19357,78,64,0,2,16,1,s,pre,1
26,68,19452,79,64,0,2,16,1,s,pre,1
27,70,19955,79,64,0,2,16,1,s,pre,1
28,72,20807,79,64,0,2,16,1,s,pre,1
29,74,21597,77,64,0,2,16,1,s,pre,1
30,76,21918,77,64,0,2,16,1,s,pre,1
31,78,22271,76,64,0,2,16,1,s,pre,1
32,80,22569,76,64,0,2,16,1,s,pre,1
33,82,23307,74,64,0,2,16,1,s,pre,1
34,85,24906,79,64,0,2,16,1,s,pre,1
35,86,25534,77,64,0,2,16,1,s,pre,1
36,88,25604,76,64,0,2,16,1,s,pre,1
37,90,25945,76,64,0,2,16,1,s,pre,1
38,92,26251,76,64,0,2,16,1,s,pre,1
39,94,26536,76,64,0,2,16,1,s,pre,1
40,97,27236,81,64,0,2,16,1,s,pre,1
41,99,27507,77,64,0,2,16,1,s,pre,1
42,100,27808,76,64,0,2,16,1,s,pre,1
43,103,28182,74,64,0,2,16,1,s,pre,1
44,105,28471,76,64,0,2,16,1,s,pre,1
45,107,28813,79,64,0,2,16,1,s,pre,1
46,108,29098,74,64,0,2,16,1,s,pre,1
47,110,29427,71,64,0,2,16,1,s,pre,1
48,112,29485,72,64,0,2,16,1,s,pre,1
49,114,29825,72,64,0,2,16,1,s,pre,1
50,116,30149,74,64,0,2,16,1,s,pre,1
51,118,30467,74,64,0,2,16,1,s,pre,1
52,120,31245,76,64,0,2,16,1,s,pre,1
53,122,32098,65,64,0,2,16,1,s,pre,1
54,124,32438,65,64,0,2,16,1,s,pre,1
55,126,33073,64,64,0,2,16,1,s,pre,1
56,126,,64,,0,2,16,1,s,pre,1
57,128,33776,62,64,0,2,16,1,s,pre,1
58,130,35013,67,64,0,2,16,1,s,pre,1
59,132,35303,67,64,0,2,16,1,s,pre,1
60,134,35636,71,64,0,2,16,1,s,pre,1
61,136,35948,71,64,0,2,16,1,s,pre,1
62,138,36293,72,64,0,2,16,1,s,pre,1
63,140,36607,72,64,0,2,16,1,s,pre,1
64,142,36963,73,64,0,2,16,1,s,pre,1
65,144,37247,73,64,0,2,16,1,s,pre,1
66,147,38239,74,64,0,2,16,1,s,pre,1
67,149,38841,77,64,0,2,16,1,s,pre,1
68,151,39497,76,64,0,2,16,1,s,pre,1
69,152,40101,74,64,0,2,16,1,s,pre,1
70,154,40574,72,64,0,2,16,1,s,pre,1
71,156,41146,84,64,0,2,16,1,s,pre,1
72,158,42273,84,64,0,2,16,1,s,pre,1
1,19,8193,79,64,0,2,18,1,s,pre,1
2,21,8449,78,64,0,2,18,1,s,pre,1
3,23,8777,79,64,0,2,18,1,s,pre,1
4,25,9053,76,64,0,2,18,1,s,pre,1
5,26,9231,72,64,0,2,18,1,s,pre,1
6,28,9409,67,64,0,2,18,1,s,pre,1
7,30,9683,67,64,0,2,18,1,s,pre,1
8,30,,67,,0,2,18,1,s,pre,1
9,33,10586,79,64,0,2,18,1,s,pre,1
10,35,10838,78,64,0,2,18,1,s,pre,1
11,37,11160,79,64,0,2,18,1,s,pre,1
12,39,11385,76,64,0,2,18,1,s,pre,1
13,41,11741,72,64,0,2,18,1,s,pre,1
14,43,11978,76,64,0,2,18,1,s,pre,1
15,45,12206,79,64,0,2,18,1,s,pre,1
16,47,12570,84,64,0,2,18,1,s,pre,1
17,48,12754,83,64,0,2,18,1,s,pre,1
18,50,12799,81,64,0,2,18,1,s,pre,1
19,52,13068,81,64,0,2,18,1,s,pre,1
20,54,13359,81,64,0,2,18,1,s,pre,1
21,57,13845,83,64,0,2,18,1,s,pre,1
22,59,14135,81,64,0,2,18,1,s,pre,1
23,60,14340,84,64,0,2,18,1,s,pre,1
24,63,14701,81,64,0,2,18,1,s,pre,1
25,65,14992,78,64,0,2,18,1,s,pre,1
26,66,15046,79,64,0,2,18,1,s,pre,1
27,68,15655,79,64,0,2,18,1,s,pre,1
28,70,16475,79,64,0,2,18,1,s,pre,1
29,72,16883,77,64,0,2,18,1,s,pre,1
30,74,17209,77,64,0,2,18,1,s,pre,1
31,76,17435,76,64,0,2,18,1,s,pre,1
32,78,17723,76,64,0,2,18,1,s,pre,1
33,80,18604,74,64,0,2,18,1,s,pre,1
34,82,19412,79,64,0,2,18,1,s,pre,1
35,84,19888,77,64,0,2,18,1,s,pre,1
36,86,20250,76,64,0,2,18,1,s,pre,1
37,88,20517,76,64,0,2,18,1,s,pre,1
38,90,20784,76,64,0,2,18,1,s,pre,1
39,92,21073,76,64,0,2,18,1,s,pre,1
40,95,21580,81,64,0,2,18,1,s,pre,1
41,97,21810,77,64,0,2,18,1,s,pre,1
42,99,22043,76,64,0,2,18,1,s,pre,1
43,101,22358,74,64,0,2,18,1,s,pre,1
44,103,22573,76,64,0,2,18,1,s,pre,1
45,105,22874,79,64,0,2,18,1,s,pre,1
46,107,23065,74,64,0,2,18,1,s,pre,1
47,109,23367,71,64,0,2,18,1,s,pre,1
48,110,23409,72,64,0,2,18,1,s,pre,1
49,112,23635,72,64,0,2,18,1,s,pre,1
50,114,23923,74,64,0,2,18,1,s,pre,1
51,116,24211,74,64,0,2,18,1,s,pre,1
52,118,24964,76,64,0,2,18,1,s,pre,1
53,120,25466,65,64,0,2,18,1,s,pre,1
54,122,25758,65,64,0,2,18,1,s,pre,1
55,124,26045,64,64,0,2,18,1,s,pre,1
56,126,26325,64,64,0,2,18,1,s,pre,1
57,128,27103,62,64,0,2,18,1,s,pre,1
58,130,27648,67,64,0,2,18,1,s,pre,1
59,132,27943,67,64,0,2,18,1,s,pre,1
60,134,28179,71,64,0,2,18,1,s,pre,1
61,136,28432,71,64,0,2,18,1,s,pre,1
62,138,28696,72,64,0,2,18,1,s,pre,1
63,140,28926,72,64,0,2,18,1,s,pre,1
64,142,29161,73,64,0,2,18,1,s,pre,1
65,144,29440,73,64,0,2,18,1,s,pre,1
66,147,30329,74,64,0,2,18,1,s,pre,1
67,149,30847,77,64,0,2,18,1,s,pre,1
68,151,31429,76,64,0,2,18,1,s,pre,1
69,153,31890,74,64,0,2,18,1,s,pre,1
70,154,32058,72,64,0,2,18,1,s,pre,1
71,156,32853,84,64,0,2,18,1,s,pre,1
72,158,33710,84,64,0,2,18,1,s,pre,1
1,19,8183,79,64,0,2,18,2,s,pre,1
2,21,8456,78,64,0,2,18,2,s,pre,1
3,23,8735,79,64,0,2,18,2,s,pre,1
4,25,8990,76,64,0,2,18,2,s,pre,1
5,26,9081,72,64,0,2,18,2,s,pre,1
6,28,9341,67,64,0,2,18,2,s,pre,1
7,30,9617,67,64,0,2,18,2,s,pre,1
8,32,9858,67,64,0,2,18,2,s,pre,1
9,35,10436,79,64,0,2,18,2,s,pre,1
10,37,10697,78,64,0,2,18,2,s,pre,1
11,39,11008,79,64,0,2,18,2,s,pre,1
12,40,11190,76,64,0,2,18,2,s,pre,1
13,43,11539,72,64,0,2,18,2,s,pre,1
14,45,11793,76,64,0,2,18,2,s,pre,1
15,47,12043,79,64,0,2,18,2,s,pre,1
16,49,12380,84,64,0,2,18,2,s,pre,1
17,50,12436,83,64,0,2,18,2,s,pre,1
18,52,12624,81,64,0,2,18,2,s,pre,1
19,54,12919,81,64,0,2,18,2,s,pre,1
20,56,13175,81,64,0,2,18,2,s,pre,1
21,59,13689,83,64,0,2,18,2,s,pre,1
22,61,13978,81,64,0,2,18,2,s,pre,1
23,62,14150,84,64,0,2,18,2,s,pre,1
24,65,14544,81,64,0,2,18,2,s,pre,1
25,67,14830,78,64,0,2,18,2,s,pre,1
26,68,14895,79,64,0,2,18,2,s,pre,1
27,70,15468,79,64,0,2,18,2,s,pre,1
28,72,16315,79,64,0,2,18,2,s,pre,1
29,74,16729,77,64,0,2,18,2,s,pre,1
30,76,16994,77,64,0,2,18,2,s,pre,1
31,78,17277,76,64,0,2,18,2,s,pre,1
32,80,17544,76,64,0,2,18,2,s,pre,1
33,82,18333,74,64,0,2,18,2,s,pre,1
34,84,19240,79,64,0,2,18,2,s,pre,1
35,86,19674,77,64,0,2,18,2,s,pre,1
36,88,20039,76,64,0,2,18,2,s,pre,1
37,90,20293,76,64,0,2,18,2,s,pre,1
38,92,20573,76,64,0,2,18,2,s,pre,1
39,92,,76,,0,2,18,2,s,pre,1
40,95,21391,81,64,0,2,18,2,s,pre,1
41,97,21612,77,64,0,2,18,2,s,pre,1
42,99,21862,76,64,0,2,18,2,s,pre,1
43,101,22160,74,64,0,2,18,2,s,pre,1
44,103,22402,76,64,0,2,18,2,s,pre,1
45,105,22694,79,64,0,2,18,2,s,pre,1
46,107,22863,74,64,0,2,18,2,s,pre,1
47,109,23147,71,64,0,2,18,2,s,pre,1
48,110,23199,72,64,0,2,18,2,s,pre,1
49,112,23427,72,64,0,2,18,2,s,pre,1
50,114,23692,74,64,0,2,18,2,s,pre,1
51,116,23971,74,64,0,2,18,2,s,pre,1
52,118,24689,76,64,0,2,18,2,s,pre,1
53,120,25237,65,64,0,2,18,2,s,pre,1
54,122,25465,65,64,0,2,18,2,s,pre,1
55,124,25766,64,64,0,2,18,2,s,pre,1
56,126,26026,64,64,0,2,18,2,s,pre,1
57,128,26858,62,64,0,2,18,2,s,pre,1
58,130,27416,67,64,0,2,18,2,s,pre,1
59,132,27699,67,64,0,2,18,2,s,pre,1
60,134,27930,71,64,0,2,18,2,s,pre,1
61,136,28213,71,64,0,2,18,2,s,pre,1
62,138,28444,72,64,0,2,18,2,s,pre,1
63,140,28703,72,64,0,2,18,2,s,pre,1
64,142,28941,73,64,0,2,18,2,s,pre,1
65,144,29145,73,64,0,2,18,2,s,pre,1
66,147,30075,74,64,0,2,18,2,s,pre,1
67,149,30523,77,64,0,2,18,2,s,pre,1
68,151,31037,76,64,0,2,18,2,s,pre,1
69,153,31580,74,64,0,2,18,2,s,pre,1
70,154,31838,72,64,0,2,18,2,s,pre,1
71,156,32423,84,64,0,2,18,2,s,pre,1
72,158,33432,84,64,0,2,18,2,s,pre,1
1,19,8108,79,64,0,2,21,1,s,pre,1
2,20,8394,78,64,0,2,21,1,s,pre,1
3,22,8619,79,64,0,2,21,1,s,pre,1
4,24,8904,76,64,0,2,21,1,s,pre,1
5,26,9123,72,64,0,2,21,1,s,pre,1
6,28,9304,67,64,0,2,21,1,s,pre,1
7,30,9619,67,64,0,2,21,1,s,pre,1
8,32,9867,67,64,0,2,21,1,s,pre,1
9,35,10421,79,64,0,2,21,1,s,pre,1
10,37,10710,78,64,0,2,21,1,s,pre,1
11,38,10939,79,64,0,2,21,1,s,pre,1
12,40,11208,76,64,0,2,21,1,s,pre,1
13,43,11525,72,64,0,2,21,1,s,pre,1
14,45,11781,76,64,0,2,21,1,s,pre,1
15,46,11987,79,64,0,2,21,1,s,pre,1
16,49,12341,84,64,0,2,21,1,s,pre,1
17,50,12569,83,64,0,2,21,1,s,pre,1
18,52,12669,81,64,0,2,21,1,s,pre,1
19,54,12928,81,64,0,2,21,1,s,pre,1
20,56,13203,81,64,0,2,21,1,s,pre,1
21,59,13761,83,64,0,2,21,1,s,pre,1
22,61,13976,81,64,0,2,21,1,s,pre,1
23,63,14255,84,64,0,2,21,1,s,pre,1
24,65,14524,81,64,0,2,21,1,s,pre,1
25,66,14767,78,64,0,2,21,1,s,pre,1
26,68,14814,79,64,0,2,21,1,s,pre,1
27,70,15351,79,64,0,2,21,1,s,pre,1
28,72,16218,79,64,0,2,21,1,s,pre,1
29,74,16791,77,64,0,2,21,1,s,pre,1
30,76,17264,77,64,0,2,21,1,s,pre,1
31,78,17373,76,64,0,2,21,1,s,pre,1
32,80,17617,76,64,0,2,21,1,s,pre,1
33,82,18451,74,64,0,2,21,1,s,pre,1
34,84,19337,79,64,0,2,21,1,s,pre,1
35,86,19902,77,64,0,2,21,1,s,pre,1
36,88,20189,76,64,0,2,21,1,s,pre,1
37,90,20488,76,64,0,2,21,1,s,pre,1
38,92,20752,76,64,0,2,21,1,s,pre,1
39,94,20982,76,64,0,2,21,1,s,pre,1
40,96,21487,81,64,0,2,21,1,s,pre,1
41,98,21744,77,64,0,2,21,1,s,pre,1
42,100,22011,76,64,0,2,21,1,s,pre,1
43,103,22291,74,64,0,2,21,1,s,pre,1
44,104,22530,76,64,0,2,21,1,s,pre,1
45,106,22797,79,64,0,2,21,1,s,pre,1
46,108,23069,74,64,0,2,21,1,s,pre,1
47,110,23353,71,64,0,2,21,1,s,pre,1
48,112,23397,72,64,0,2,21,1,s,pre,1
49,114,23880,72,64,0,2,21,1,s,pre,1
50,116,24197,74,64,0,2,21,1,s,pre,1
51,116,,74,,0,2,21,1,s,pre,1
52,118,25080,76,64,0,2,21,1,s,pre,1
53,120,25659,65,64,0,2,21,1,s,pre,1
54,122,26137,65,64,0,2,21,1,s,pre,1
55,124,26240,64,64,0,2,21,1,s,pre,1
56,126,26472,64,64,0,2,21,1,s,pre,1
57,128,27326,62,64,0,2,21,1,s,pre,1
58,130,27845,67,64,0,2,21,1,s,pre,1
59,133,28344,67,64,0,2,21,1,s,pre,1
60,134,28368,71,64,0,2,21,1,s,pre,1
61,137,28862,71,64,0,2,21,1,s,pre,1
62,138,28915,72,64,0,2,21,1,s,pre,1
63,141,29365,72,64,0,2,21,1,s,pre,1
64,142,29422,73,64,0,2,21,1,s,pre,1
65,144,29686,73,64,0,2,21,1,s,pre,1
66,146,30296,74,64,0,2,21,1,s,pre,1
67,148,30783,77,64,0,2,21,1,s,pre,1
68,150,31280,76,64,0,2,21,1,s,pre,1
69,152,31813,74,64,0,2,21,1,s,pre,1
70,154,32319,72,64,0,2,21,1,s,pre,1
71,156,32892,84,64,0,2,21,1,s,pre,1
72,158,34058,84,64,0,2,21,1,s,pre,1
1,19,8162,79,64,0,2,21,2,s,pre,1
2,21,8448,78,64,0,2,21,2,s,pre,1
3,23,8692,79,64,0,2,21,2,s,pre,1
4,25,8986,76,64,0,2,21,2,s,pre,1
5,26,9208,72,64,0,2,21,2,s,pre,1
6,28,9324,67,64,0,2,21,2,s,pre,1
7,30,9923,67,64,0,2,21,2,s,pre,1
8,30,,67,,0,2,21,2,s,pre,1
9,33,10469,79,64,0,2,21,2,s,pre,1
10,35,10756,78,64,0,2,21,2,s,pre,1
11,36,11004,79,64,0,2,21,2,s,pre,1
12,38,11287,76,64,0,2,21,2,s,pre,1
13,41,11626,72,64,0,2,21,2,s,pre,1
14,43,11902,76,64,0,2,21,2,s,pre,1
15,44,12138,79,64,0,2,21,2,s,pre,1
16,47,12514,84,64,0,2,21,2,s,pre,1
17,48,12708,83,64,0,2,21,2,s,pre,1
18,50,12773,81,64,0,2,21,2,s,pre,1
19,52,13044,81,64,0,2,21,2,s,pre,1
20,54,13318,81,64,0,2,21,2,s,pre,1
21,57,13867,83,64,0,2,21,2,s,pre,1
22,59,14116,81,64,0,2,21,2,s,pre,1
23,61,14411,84,64,0,2,21,2,s,pre,1
24,62,14663,81,64,0,2,21,2,s,pre,1
25,65,14953,78,64,0,2,21,2,s,pre,1
26,66,14992,79,64,0,2,21,2,s,pre,1
27,68,15596,79,64,0,2,21,2,s,pre,1
28,70,16493,79,64,0,2,21,2,s,pre,1
29,72,17089,77,64,0,2,21,2,s,pre,1
30,75,17636,77,64,0,2,21,2,s,pre,1
31,76,17681,76,64,0,2,21,2,s,pre,1
32,78,17968,76,64,0,2,21,2,s,pre,1
33,80,18787,74,64,0,2,21,2,s,pre,1
34,82,19719,79,64,0,2,21,2,s,pre,1
35,84,20238,77,64,0,2,21,2,s,pre,1
36,86,20572,76,64,0,2,21,2,s,pre,1
37,88,20857,76,64,0,2,21,2,s,pre,1
38,90,21133,76,64,0,2,21,2,s,pre,1
39,92,21386,76,64,0,2,21,2,s,pre,1
40,95,22003,81,64,0,2,21,2,s,pre,1
41,97,22229,77,64,0,2,21,2,s,pre,1
42,98,22476,76,64,0,2,21,2,s,pre,1
43,101,22774,74,64,0,2,21,2,s,pre,1
44,102,23017,76,64,0,2,21,2,s,pre,1
45,104,23303,79,64,0,2,21,2,s,pre,1
46,106,23526,74,64,0,2,21,2,s,pre,1
47,108,23829,71,64,0,2,21,2,s,pre,1
48,110,24180,72,64,0,2,21,2,s,pre,1
49,110,,72,,0,2,21,2,s,pre,1
50,112,24472,74,64,0,2,21,2,s,pre,1
51,114,24761,74,64,0,2,21,2,s,pre,1
52,116,25702,76,64,0,2,21,2,s,pre,1
53,118,26203,65,64,0,2,21,2,s,pre,1
54,120,26700,65,64,0,2,21,2,s,pre,1
55,122,26766,64,64,0,2,21,2,s,pre,1
56,124,27055,64,64,0,2,21,2,s,pre,1
57,126,27970,62,64,0,2,21,2,s,pre,1
58,128,28498,67,64,0,2,21,2,s,pre,1
59,131,29037,67,64,0,2,21,2,s,pre,1
60,132,29071,71,64,0,2,21,2,s,pre,1
61,135,29536,71,64,0,2,21,2,s,pre,1
62,136,29598,72,64,0,2,21,2,s,pre,1
63,139,30042,72,64,0,2,21,2,s,pre,1
64,140,30115,73,64,0,2,21,2,s,pre,1
65,142,30411,73,64,0,2,21,2,s,pre,1
66,144,31023,74,64,0,2,21,2,s,pre,1
67,146,31549,77,64,0,2,21,2,s,pre,1
68,148,32061,76,64,0,2,21,2,s,pre,1
69,150,32619,74,64,0,2,21,2,s,pre,1
70,152,33140,72,64,0,2,21,2,s,pre,1
71,154,33739,84,64,0,2,21,2,s,pre,1
72,156,34807,84,64,0,2,21,2,s,pre,1
1,19,10034,79,64,0,2,20,3,s,pre,1
2,20,10249,78,64,0,2,20,3,s,pre,1
3,23,,79,64,0,2,20,3,s,pre,1
4,24,,76,,0,2,20,3,s,pre,1
5,26,11129,72,64,0,2,20,3,s,pre,1
6,28,11362,67,64,0,2,20,3,s,pre,1
7,30,11697,67,64,0,2,20,3,s,pre,1
8,32,11972,67,64,0,2,20,3,s,pre,1
9,35,12714,79,64,0,2,20,3,s,pre,1
10,36,12971,78,64,0,2,20,3,s,pre,1
11,39,13321,79,64,0,2,20,3,s,pre,1
12,40,13557,76,64,0,2,20,3,s,pre,1
13,43,13957,72,64,0,2,20,3,s,pre,1
14,45,14292,76,64,0,2,20,3,s,pre,1
15,47,14520,79,64,0,2,20,3,s,pre,1
16,49,14989,84,64,0,2,20,3,s,pre,1
17,51,15201,83,64,0,2,20,3,s,pre,1
18,52,15214,81,64,0,2,20,3,s,pre,1
19,54,15561,81,64,0,2,20,3,s,pre,1
20,56,15837,81,64,0,2,20,3,s,pre,1
21,59,16513,83,64,0,2,20,3,s,pre,1
22,60,16772,81,64,0,2,20,3,s,pre,1
23,63,17193,84,64,0,2,20,3,s,pre,1
24,65,17462,81,64,0,2,20,3,s,pre,1
25,67,17721,78,64,0,2,20,3,s,pre,1
26,68,17823,79,64,0,2,20,3,s,pre,1
27,70,18269,79,64,0,2,20,3,s,pre,1
28,72,19326,79,64,0,2,20,3,s,pre,1
29,74,20263,77,64,0,2,20,3,s,pre,1
30,76,20587,77,64,0,2,20,3,s,pre,1
31,78,20899,76,64,0,2,20,3,s,pre,1
32,80,21224,76,64,0,2,20,3,s,pre,1
33,82,21991,74,64,0,2,20,3,s,pre,1
34,85,23731,79,64,0,2,20,3,s,pre,1
35,87,24368,77,64,0,2,20,3,s,pre,1
36,88,24419,76,64,0,2,20,3,s,pre,1
37,90,24721,76,64,0,2,20,3,s,pre,1
38,92,25037,76,64,0,2,20,3,s,pre,1
39,94,25340,76,64,0,2,20,3,s,pre,1
40,97,26169,81,64,0,2,20,3,s,pre,1
41,99,26433,77,64,0,2,20,3,s,pre,1
42,101,26673,76,64,0,2,20,3,s,pre,1
43,103,27019,74,64,0,2,20,3,s,pre,1
44,105,27317,76,64,0,2,20,3,s,pre,1
45,107,27826,79,64,0,2,20,3,s,pre,1
46,109,27967,74,64,0,2,20,3,s,pre,1
47,111,28323,71,64,0,2,20,3,s,pre,1
48,112,28325,72,64,0,2,20,3,s,pre,1
49,114,28647,72,64,0,2,20,3,s,pre,1
50,116,28966,74,64,0,2,20,3,s,pre,1
51,118,29290,74,64,0,2,20,3,s,pre,1
52,120,30083,76,64,0,2,20,3,s,pre,1
53,122,31035,65,64,0,2,20,3,s,pre,1
54,124,31346,65,64,0,2,20,3,s,pre,1
55,126,31669,64,64,0,2,20,3,s,pre,1
56,128,31986,64,64,0,2,20,3,s,pre,1
57,130,32705,62,64,0,2,20,3,s,pre,1
58,132,33790,67,64,0,2,20,3,s,pre,1
59,134,34077,67,64,0,2,20,3,s,pre,1
60,136,34400,71,64,0,2,20,3,s,pre,1
61,138,34710,71,64,0,2,20,3,s,pre,1
62,140,35011,72,64,0,2,20,3,s,pre,1
63,142,35320,72,64,0,2,20,3,s,pre,1
64,144,35606,73,64,0,2,20,3,s,pre,1
65,146,35902,73,64,0,2,20,3,s,pre,1
66,149,36989,74,64,0,2,20,3,s,pre,1
67,151,37620,77,64,0,2,20,3,s,pre,1
68,153,38273,76,64,0,2,20,3,s,pre,1
69,155,38820,74,64,0,2,20,3,s,pre,1
70,156,39422,72,64,0,2,20,3,s,pre,1
71,158,39647,84,64,0,2,20,3,s,pre,1
72,160,40561,84,64,0,2,20,3,s,pre,1
1,19,10509,79,64,0,2,11,1,s,pre,1
2,21,10816,78,64,0,2,11,1,s,pre,1
3,23,11025,79,64,0,2,11,1,s,pre,1
4,25,11280,76,64,0,2,11,1,s,pre,1
5,26,11297,72,64,0,2,11,1,s,pre,1
6,28,11577,67,64,0,2,11,1,s,pre,1
7,30,11842,67,64,0,2,11,1,s,pre,1
8,32,12094,67,64,0,2,11,1,s,pre,1
9,35,12756,79,64,0,2,11,1,s,pre,1
10,37,12969,78,64,0,2,11,1,s,pre,1
11,39,13213,79,64,0,2,11,1,s,pre,1
12,40,13410,76,64,0,2,11,1,s,pre,1
13,43,13786,72,64,0,2,11,1,s,pre,1
14,45,14010,76,64,0,2,11,1,s,pre,1
15,47,14196,79,64,0,2,11,1,s,pre,1
16,49,,84,,0,2,11,1,s,pre,1
17,50,,83,,0,2,11,1,s,pre,1
18,52,14773,81,64,0,2,11,1,s,pre,1
19,54,15023,81,64,0,2,11,1,s,pre,1
20,56,15273,81,64,0,2,11,1,s,pre,1
21,59,15858,83,64,0,2,11,1,s,pre,1
22,61,16054,81,64,0,2,11,1,s,pre,1
23,65,16316,84,64,0,2,11,1,s,pre,1
24,67,16548,81,64,0,2,11,1,s,pre,1
25,69,16818,78,64,0,2,11,1,s,pre,1
26,70,16859,79,64,0,2,11,1,s,pre,1
27,72,17087,79,64,0,2,11,1,s,pre,1
28,74,17613,79,64,0,2,11,1,s,pre,1
29,76,18611,77,64,0,2,11,1,s,pre,1
30,78,18883,77,64,0,2,11,1,s,pre,1
31,80,19159,76,64,0,2,11,1,s,pre,1
32,82,19393,76,64,0,2,11,1,s,pre,1
33,84,20092,74,64,0,2,11,1,s,pre,1
34,86,20925,79,64,0,2,11,1,s,pre,1
35,88,21406,77,64,0,2,11,1,s,pre,1
36,90,21888,76,64,0,2,11,1,s,pre,1
37,92,22152,76,64,0,2,11,1,s,pre,1
38,94,22374,76,64,0,2,11,1,s,pre,1
39,96,22677,76,64,0,2,11,1,s,pre,1
40,99,23260,81,64,0,2,11,1,s,pre,1
41,101,23542,77,64,0,2,11,1,s,pre,1
42,103,23639,76,64,0,2,11,1,s,pre,1
43,105,23894,74,64,0,2,11,1,s,pre,1
44,107,24300,76,64,0,2,11,1,s,pre,1
45,109,24427,79,64,0,2,11,1,s,pre,1
46,111,24598,74,64,0,2,11,1,s,pre,1
47,113,24864,71,64,0,2,11,1,s,pre,1
48,114,24890,72,64,0,2,11,1,s,pre,1
49,116,25130,72,64,0,2,11,1,s,pre,1
50,118,25365,74,64,0,2,11,1,s,pre,1
51,120,25633,74,64,0,2,11,1,s,pre,1
52,122,26273,76,64,0,2,11,1,s,pre,1
53,124,26984,65,64,0,2,11,1,s,pre,1
54,126,27225,65,64,0,2,11,1,s,pre,1
55,128,27475,64,64,0,2,11,1,s,pre,1
56,130,27714,64,64,0,2,11,1,s,pre,1
57,132,28300,62,64,0,2,11,1,s,pre,1
58,134,29024,67,64,0,2,11,1,s,pre,1
59,136,29257,67,64,0,2,11,1,s,pre,1
60,138,29517,71,64,0,2,11,1,s,pre,1
61,140,29740,71,64,0,2,11,1,s,pre,1
62,142,30011,72,64,0,2,11,1,s,pre,1
63,144,30239,72,64,0,2,11,1,s,pre,1
64,146,30487,73,64,0,2,11,1,s,pre,1
65,148,30742,73,64,0,2,11,1,s,pre,1
66,150,31003,74,64,0,2,11,1,s,pre,1
67,152,31509,77,64,0,2,11,1,s,pre,1
68,154,32019,76,64,0,2,11,1,s,pre,1
70,158,32546,74,64,0,2,11,1,s,pre,1
71,160,33035,72,64,0,2,11,1,s,pre,1
72,162,33554,84,64,0,2,11,1,s,pre,1
73,164,34103,84,64,0,2,11,1,s,pre,1
1,19,10245,79,64,0,2,20,2,s,pre,1
2,20,10453,78,64,0,2,20,2,s,pre,1
3,23,10891,79,64,0,2,20,2,s,pre,1
4,25,11134,76,64,0,2,20,2,s,pre,1
5,27,11389,72,64,0,2,20,2,s,pre,1
6,28,11456,67,64,0,2,20,2,s,pre,1
7,30,11747,67,64,0,2,20,2,s,pre,1
8,32,12080,67,64,0,2,20,2,s,pre,1
9,35,12722,79,64,0,2,20,2,s,pre,1
10,36,13011,78,64,0,2,20,2,s,pre,1
11,39,13309,79,64,0,2,20,2,s,pre,1
12,40,13594,76,64,0,2,20,2,s,pre,1
13,43,13929,72,64,0,2,20,2,s,pre,1
14,45,14271,76,64,0,2,20,2,s,pre,1
15,47,14487,79,64,0,2,20,2,s,pre,1
16,49,14898,84,64,0,2,20,2,s,pre,1
17,50,15060,83,64,0,2,20,2,s,pre,1
18,52,15135,81,64,0,2,20,2,s,pre,1
19,54,15447,81,64,0,2,20,2,s,pre,1
20,56,15757,81,64,0,2,20,2,s,pre,1
21,58,16310,83,64,0,2,20,2,s,pre,1
22,60,16619,81,64,0,2,20,2,s,pre,1
23,63,17022,84,64,0,2,20,2,s,pre,1
24,65,17319,81,64,0,2,20,2,s,pre,1
25,67,17608,78,64,0,2,20,2,s,pre,1
26,68,17680,79,64,0,2,20,2,s,pre,1
27,70,18146,79,64,0,2,20,2,s,pre,1
28,72,19112,79,64,0,2,20,2,s,pre,1
29,74,20048,77,64,0,2,20,2,s,pre,1
30,76,20364,77,64,0,2,20,2,s,pre,1
31,78,20705,76,64,0,2,20,2,s,pre,1
32,80,21001,76,64,0,2,20,2,s,pre,1
33,82,21801,74,64,0,2,20,2,s,pre,1
34,85,23375,79,64,0,2,20,2,s,pre,1
35,87,23999,77,64,0,2,20,2,s,pre,1
36,88,24042,76,64,0,2,20,2,s,pre,1
37,90,24383,76,64,0,2,20,2,s,pre,1
38,92,24664,76,64,0,2,20,2,s,pre,1
39,94,24970,76,64,0,2,20,2,s,pre,1
40,97,25851,81,64,0,2,20,2,s,pre,1
41,99,26061,77,64,0,2,20,2,s,pre,1
42,101,26314,76,64,0,2,20,2,s,pre,1
43,104,27030,74,64,0,2,20,2,s,pre,1
44,106,27589,76,64,0,2,20,2,s,pre,1
45,108,27903,79,64,0,2,20,2,s,pre,1
46,112,28373,74,64,0,2,20,2,s,pre,1
47,115,,71,,0,2,20,2,s,pre,1
48,116,,72,,0,2,20,2,s,pre,1
49,118,29266,72,64,0,2,20,2,s,pre,1
50,120,29549,74,64,0,2,20,2,s,pre,1
51,122,29851,74,64,0,2,20,2,s,pre,1
52,124,30566,76,64,0,2,20,2,s,pre,1
53,126,31500,65,64,0,2,20,2,s,pre,1
54,128,31788,65,64,0,2,20,2,s,pre,1
55,130,32113,64,64,0,2,20,2,s,pre,1
56,132,32414,64,64,0,2,20,2,s,pre,1
57,134,33213,62,64,0,2,20,2,s,pre,1
58,136,34231,67,64,0,2,20,2,s,pre,1
59,138,34530,67,64,0,2,20,2,s,pre,1
60,140,34852,71,64,0,2,20,2,s,pre,1
61,142,35175,71,64,0,2,20,2,s,pre,1
62,144,35477,72,64,0,2,20,2,s,pre,1
63,146,35765,72,64,0,2,20,2,s,pre,1
64,148,36071,73,64,0,2,20,2,s,pre,1
65,150,36344,73,64,0,2,20,2,s,pre,1
66,153,37324,74,64,0,2,20,2,s,pre,1
67,155,37901,77,64,0,2,20,2,s,pre,1
68,157,38477,76,64,0,2,20,2,s,pre,1
69,158,39098,74,64,0,2,20,2,s,pre,1
70,160,39651,72,64,0,2,20,2,s,pre,1
71,162,39896,84,64,0,2,20,2,s,pre,1
72,164,41141,84,64,0,2,20,2,s,pre,1
