RowNr,NoteNr,TimeStamp,Pitch,Velocity,Key_OnOff,Device,SubNr,TrialNr,Stimuli,Session,Error
1,19,8149,79,64,0,2,4,1,s,pre,1
2,21,8421,78,64,0,2,4,1,s,pre,1
3,23,8697,79,64,0,2,4,1,s,pre,1
4,25,9022,76,64,0,2,4,1,s,pre,1
5,27,9260,72,64,0,2,4,1,s,pre,1
6,28,9272,67,64,0,2,4,1,s,pre,1
7,30,9575,67,64,0,2,4,1,s,pre,1
8,32,9864,67,64,0,2,4,1,s,pre,1
9,35,10429,79,64,0,2,4,1,s,pre,1
10,37,10734,78,64,0,2,4,1,s,pre,1
11,39,10945,79,64,0,2,4,1,s,pre,1
12,41,11208,76,64,0,2,4,1,s,pre,1
13,43,11513,72,64,0,2,4,1,s,pre,1
14,45,11780,76,64,0,2,4,1,s,pre,1
15,47,12006,79,64,0,2,4,1,s,pre,1
16,49,12388,84,64,0,2,4,1,s,pre,1
17,51,12576,83,64,0,2,4,1,s,pre,1
18,52,12598,81,64,0,2,4,1,s,pre,1
19,54,12860,81,64,0,2,4,1,s,pre,1
20,56,13111,81,64,0,2,4,1,s,pre,1
21,59,13696,83,64,0,2,4,1,s,pre,1
22,61,13944,81,64,0,2,4,1,s,pre,1
23,63,14342,84,64,0,2,4,1,s,pre,1
24,65,14537,81,64,0,2,4,1,s,pre,1
25,67,14783,78,64,0,2,4,1,s,pre,1
26,68,14827,79,64,0,2,4,1,s,pre,1
27,70,15274,79,64,0,2,4,1,s,pre,1
28,72,16190,79,64,0,2,4,1,s,pre,1
29,74,16701,77,64,0,2,4,1,s,pre,1
30,76,16981,77,64,0,2,4,1,s,pre,1
31,78,17245,76,64,0,2,4,1,s,pre,1
32,80,17533,76,64,0,2,4,1,s,pre,1
33,82,18104,74,64,0,2,4,1,s,pre,1
34,84,19122,79,64,0,2,4,1,s,pre,1
35,86,19662,77,64,0,2,4,1,s,pre,1
36,88,20030,76,64,0,2,4,1,s,pre,1
37,90,20305,76,64,0,2,4,1,s,pre,1
38,92,20580,76,64,0,2,4,1,s,pre,1
39,94,20850,76,64,0,2,4,1,s,pre,1
40,97,21642,81,64,0,2,4,1,s,pre,1
41,99,21752,77,64,0,2,4,1,s,pre,1
42,101,21964,76,64,0,2,4,1,s,pre,1
43,103,22303,74,64,0,2,4,1,s,pre,1
44,105,22550,76,64,0,2,4,1,s,pre,1
45,107,22826,79,64,0,2,4,1,s,pre,1
46,109,23019,74,64,0,2,4,1,s,pre,1
47,111,23314,71,64,0,2,4,1,s,pre,1
48,112,23323,72,64,0,2,4,1,s,pre,1
49,114,23567,72,64,0,2,4,1,s,pre,1
50,116,23876,74,64,0,2,4,1,s,pre,1
51,118,24131,74,64,0,2,4,1,s,pre,1
52,120,24835,76,64,0,2,4,1,s,pre,1
53,122,25484,65,64,0,2,4,1,s,pre,1
54,124,25753,65,64,0,2,4,1,s,pre,1
55,126,26346,64,64,0,2,4,1,s,pre,1
56,126,,64,,0,2,4,1,s,pre,1
57,128,27138,62,64,0,2,4,1,s,pre,1
58,130,27660,67,64,0,2,4,1,s,pre,1
59,132,27916,67,64,0,2,4,1,s,pre,1
60,134,28208,71,64,0,2,4,1,s,pre,1
61,136,28473,71,64,0,2,4,1,s,pre,1
62,138,28753,72,64,0,2,4,1,s,pre,1
63,140,29008,72,64,0,2,4,1,s,pre,1
64,142,29283,73,64,0,2,4,1,s,pre,1
65,144,29552,73,64,0,2,4,1,s,pre,1
66,147,30488,74,64,0,2,4,1,s,pre,1
67,149,30980,77,64,0,2,4,1,s,pre,1
68,151,31551,76,64,0,2,4,1,s,pre,1
69,153,32071,74,64,0,2,4,1,s,pre,1
70,155,32697,72,64,0,2,4,1,s,pre,1
71,156,33079,84,64,0,2,4,1,s,pre,1
72,158,34087,84,64,0,2,4,1,s,pre,1
1,19,9604,79,64,0,2,5,1,s,pre,1
2,21,9870,78,64,0,2,5,1,s,pre,1
3,23,10181,79,64,0,2,5,1,s,pre,1
4,25,10548,76,64,0,2,5,1,s,pre,1
5,26,10658,72,64,0,2,5,1,s,pre,1
6,28,11114,67,64,0,2,5,1,s,pre,1
7,30,11384,67,64,0,2,5,1,s,pre,1
8,30,,67,,0,2,5,1,s,pre,1
9,33,11984,79,64,0,2,5,1,s,pre,1
10,35,12256,78,64,0,2,5,1,s,pre,1
11,37,12600,79,64,0,2,5,1,s,pre,1
12,39,12887,76,64,0,2,5,1,s,pre,1
13,41,13168,72,64,0,2,5,1,s,pre,1
14,43,13435,76,64,0,2,5,1,s,pre,1
15,45,13666,79,64,0,2,5,1,s,pre,1
16,47,14008,84,64,0,2,5,1,s,pre,1
17,48,14221,83,64,0,2,5,1,s,pre,1
18,50,14598,81,64,0,2,5,1,s,pre,1
19,52,14864,81,64,0,2,5,1,s,pre,1
20,52,,81,,0,2,5,1,s,pre,1
21,55,15469,83,64,0,2,5,1,s,pre,1
22,57,15717,81,64,0,2,5,1,s,pre,1
23,59,16065,84,64,0,2,5,1,s,pre,1
24,61,16319,81,64,0,2,5,1,s,pre,1
25,63,16571,78,64,0,2,5,1,s,pre,1
26,64,16591,79,64,0,2,5,1,s,pre,1
27,66,16896,79,64,0,2,5,1,s,pre,1
28,68,18022,79,64,0,2,5,1,s,pre,1
29,70,19060,77,64,0,2,5,1,s,pre,1
30,72,19351,77,64,0,2,5,1,s,pre,1
31,74,19641,76,64,0,2,5,1,s,pre,1
32,76,19903,76,64,0,2,5,1,s,pre,1
33,78,20816,74,64,0,2,5,1,s,pre,1
34,81,22038,79,64,0,2,5,1,s,pre,1
35,82,22593,77,64,0,2,5,1,s,pre,1
36,84,22658,76,64,0,2,5,1,s,pre,1
37,86,22945,76,64,0,2,5,1,s,pre,1
38,88,23206,76,64,0,2,5,1,s,pre,1
39,90,23470,76,64,0,2,5,1,s,pre,1
40,93,24096,81,64,0,2,5,1,s,pre,1
41,95,24378,77,64,0,2,5,1,s,pre,1
42,97,24625,76,64,0,2,5,1,s,pre,1
43,99,24945,74,64,0,2,5,1,s,pre,1
44,101,25424,76,64,0,2,5,1,s,pre,1
45,103,25448,79,64,0,2,5,1,s,pre,1
46,105,25743,74,64,0,2,5,1,s,pre,1
47,107,26015,71,64,0,2,5,1,s,pre,1
48,108,26022,72,64,0,2,5,1,s,pre,1
49,110,26313,72,64,0,2,5,1,s,pre,1
50,112,26582,74,64,0,2,5,1,s,pre,1
51,114,26860,74,64,0,2,5,1,s,pre,1
52,116,27737,76,64,0,2,5,1,s,pre,1
53,118,28788,65,64,0,2,5,1,s,pre,1
54,120,29057,65,64,0,2,5,1,s,pre,1
55,122,29367,64,64,0,2,5,1,s,pre,1
56,124,29620,64,64,0,2,5,1,s,pre,1
57,126,30488,62,64,0,2,5,1,s,pre,1
58,128,31126,67,64,0,2,5,1,s,pre,1
59,130,31409,67,64,0,2,5,1,s,pre,1
60,132,31686,71,64,0,2,5,1,s,pre,1
61,134,31954,71,64,0,2,5,1,s,pre,1
62,136,32221,72,64,0,2,5,1,s,pre,1
63,138,32480,72,64,0,2,5,1,s,pre,1
64,140,32786,73,64,0,2,5,1,s,pre,1
65,142,33045,73,64,0,2,5,1,s,pre,1
66,145,33952,74,64,0,2,5,1,s,pre,1
67,147,34499,77,64,0,2,5,1,s,pre,1
68,149,35075,76,64,0,2,5,1,s,pre,1
69,151,35591,74,64,0,2,5,1,s,pre,1
70,153,36192,72,64,0,2,5,1,s,pre,1
71,154,36294,84,64,0,2,5,1,s,pre,1
72,156,37661,84,64,0,2,5,1,s,pre,1
1,19,8211,79,64,0,2,5,2,s,pre,1
2,21,8521,78,64,0,2,5,2,s,pre,1
3,23,8768,79,64,0,2,5,2,s,pre,1
4,25,9154,76,64,0,2,5,2,s,pre,1
5,27,9409,72,64,0,2,5,2,s,pre,1
6,28,9424,67,64,0,2,5,2,s,pre,1
7,30,9691,67,64,0,2,5,2,s,pre,1
8,30,,67,,0,2,5,2,s,pre,1
9,33,10541,79,64,0,2,5,2,s,pre,1
10,35,10869,78,64,0,2,5,2,s,pre,1
11,37,11204,79,64,0,2,5,2,s,pre,1
12,39,11442,76,64,0,2,5,2,s,pre,1
13,41,11755,72,64,0,2,5,2,s,pre,1
14,43,12029,76,64,0,2,5,2,s,pre,1
15,45,12261,79,64,0,2,5,2,s,pre,1
16,47,12613,84,64,0,2,5,2,s,pre,1
17,49,12820,83,64,0,2,5,2,s,pre,1
18,50,12851,81,64,0,2,5,2,s,pre,1
19,52,13135,81,64,0,2,5,2,s,pre,1
20,54,13424,81,64,0,2,5,2,s,pre,1
21,57,14004,83,64,0,2,5,2,s,pre,1
22,59,14249,81,64,0,2,5,2,s,pre,1
23,61,14574,84,64,0,2,5,2,s,pre,1
24,63,14877,81,64,0,2,5,2,s,pre,1
25,64,15113,78,64,0,2,5,2,s,pre,1
26,66,15438,79,64,0,2,5,2,s,pre,1
27,68,16700,79,64,0,2,5,2,s,pre,1
28,68,,79,,0,2,5,2,s,pre,1
29,70,17190,77,64,0,2,5,2,s,pre,1
30,72,17449,77,64,0,2,5,2,s,pre,1
31,74,17733,76,64,0,2,5,2,s,pre,1
32,76,18000,76,64,0,2,5,2,s,pre,1
33,78,18931,74,64,0,2,5,2,s,pre,1
34,81,20111,79,64,0,2,5,2,s,pre,1
35,83,20661,77,64,0,2,5,2,s,pre,1
36,84,20699,76,64,0,2,5,2,s,pre,1
37,86,20947,76,64,0,2,5,2,s,pre,1
38,88,21210,76,64,0,2,5,2,s,pre,1
39,90,21481,76,64,0,2,5,2,s,pre,1
40,93,22112,81,64,0,2,5,2,s,pre,1
41,95,22382,77,64,0,2,5,2,s,pre,1
42,97,22613,76,64,0,2,5,2,s,pre,1
43,99,22937,74,64,0,2,5,2,s,pre,1
44,101,23239,76,64,0,2,5,2,s,pre,1
45,103,23446,79,64,0,2,5,2,s,pre,1
46,104,23677,74,64,0,2,5,2,s,pre,1
47,107,23981,71,64,0,2,5,2,s,pre,1
48,108,23997,72,64,0,2,5,2,s,pre,1
49,110,24258,72,64,0,2,5,2,s,pre,1
50,112,24530,74,64,0,2,5,2,s,pre,1
51,114,24802,74,64,0,2,5,2,s,pre,1
52,116,25651,76,64,0,2,5,2,s,pre,1
53,118,26296,65,64,0,2,5,2,s,pre,1
54,120,26570,65,64,0,2,5,2,s,pre,1
55,122,27132,64,64,0,2,5,2,s,pre,1
56,122,,64,,0,2,5,2,s,pre,1
57,124,27975,62,64,0,2,5,2,s,pre,1
58,126,28603,67,64,0,2,5,2,s,pre,1
59,128,28887,67,64,0,2,5,2,s,pre,1
60,130,29152,71,64,0,2,5,2,s,pre,1
61,132,29421,71,64,0,2,5,2,s,pre,1
62,134,29692,72,64,0,2,5,2,s,pre,1
63,136,29969,72,64,0,2,5,2,s,pre,1
64,138,30289,73,64,0,2,5,2,s,pre,1
65,140,30568,73,64,0,2,5,2,s,pre,1
66,143,31427,74,64,0,2,5,2,s,pre,1
67,145,32051,77,64,0,2,5,2,s,pre,1
68,147,32610,76,64,0,2,5,2,s,pre,1
69,148,33109,74,64,0,2,5,2,s,pre,1
70,151,33703,72,64,0,2,5,2,s,pre,1
71,152,33775,84,64,0,2,5,2,s,pre,1
72,154,35356,84,64,0,2,5,2,s,pre,1
1,19,9650,79,64,0,2,6,1,s,pre,1
2,21,10150,78,64,0,2,6,1,s,pre,1
3,23,10692,79,64,0,2,6,1,s,pre,1
4,25,11166,76,64,0,2,6,1,s,pre,1
5,26,11364,72,64,0,2,6,1,s,pre,1
6,28,11618,67,64,0,2,6,1,s,pre,1
7,30,12060,67,64,0,2,6,1,s,pre,1
8,32,12469,67,64,0,2,6,1,s,pre,1
9,35,13343,79,64,0,2,6,1,s,pre,1
10,37,13787,78,64,0,2,6,1,s,pre,1
11,39,14244,79,64,0,2,6,1,s,pre,1
12,41,14628,76,64,0,2,6,1,s,pre,1
13,43,15133,72,64,0,2,6,1,s,pre,1
14,45,15556,76,64,0,2,6,1,s,pre,1
15,47,15950,79,64,0,2,6,1,s,pre,1
16,49,16404,84,64,0,2,6,1,s,pre,1
17,50,16658,83,64,0,2,6,1,s,pre,1
18,52,16814,81,64,0,2,6,1,s,pre,1
19,54,17237,81,64,0,2,6,1,s,pre,1
20,56,17646,81,64,0,2,6,1,s,pre,1
21,59,18540,83,64,0,2,6,1,s,pre,1
22,61,18876,81,64,0,2,6,1,s,pre,1
23,63,19294,84,64,0,2,6,1,s,pre,1
24,65,19690,81,64,0,2,6,1,s,pre,1
25,67,20122,78,64,0,2,6,1,s,pre,1
26,68,20218,79,64,0,2,6,1,s,pre,1
27,70,21006,79,64,0,2,6,1,s,pre,1
28,72,22297,79,64,0,2,6,1,s,pre,1
29,74,23162,77,64,0,2,6,1,s,pre,1
30,76,23564,77,64,0,2,6,1,s,pre,1
31,78,24317,76,64,0,2,6,1,s,pre,1
32,78,,76,,0,2,6,1,s,pre,1
33,80,25554,74,64,0,2,6,1,s,pre,1
34,82,26958,79,64,0,2,6,1,s,pre,1
35,85,27802,77,64,0,2,6,1,s,pre,1
36,86,27848,76,64,0,2,6,1,s,pre,1
37,88,28194,76,64,0,2,6,1,s,pre,1
38,90,28560,76,64,0,2,6,1,s,pre,1
39,92,28920,76,64,0,2,6,1,s,pre,1
40,95,29745,81,64,0,2,6,1,s,pre,1
41,97,30124,77,64,0,2,6,1,s,pre,1
42,99,30460,76,64,0,2,6,1,s,pre,1
43,101,30872,74,64,0,2,6,1,s,pre,1
44,103,31238,76,64,0,2,6,1,s,pre,1
45,105,31632,79,64,0,2,6,1,s,pre,1
46,106,31956,74,64,0,2,6,1,s,pre,1
47,109,32362,71,64,0,2,6,1,s,pre,1
48,110,32396,72,64,0,2,6,1,s,pre,1
49,112,32760,72,64,0,2,6,1,s,pre,1
50,114,33145,74,64,0,2,6,1,s,pre,1
51,116,33502,74,64,0,2,6,1,s,pre,1
52,118,34666,76,64,0,2,6,1,s,pre,1
53,120,35336,65,64,0,2,6,1,s,pre,1
54,122,35688,65,64,0,2,6,1,s,pre,1
55,124,36079,64,64,0,2,6,1,s,pre,1
56,126,36435,64,64,0,2,6,1,s,pre,1
57,128,37693,62,64,0,2,6,1,s,pre,1
58,130,38394,67,64,0,2,6,1,s,pre,1
59,132,38762,67,64,0,2,6,1,s,pre,1
60,134,39126,71,64,0,2,6,1,s,pre,1
61,136,39469,71,64,0,2,6,1,s,pre,1
62,138,39827,72,64,0,2,6,1,s,pre,1
63,140,40174,72,64,0,2,6,1,s,pre,1
64,142,40517,73,64,0,2,6,1,s,pre,1
65,144,40896,73,64,0,2,6,1,s,pre,1
66,147,42028,74,64,0,2,6,1,s,pre,1
67,149,42780,77,64,0,2,6,1,s,pre,1
68,151,43495,76,64,0,2,6,1,s,pre,1
69,153,44098,74,64,0,2,6,1,s,pre,1
70,155,44862,72,64,0,2,6,1,s,pre,1
71,156,45370,84,64,0,2,6,1,s,pre,1
72,158,46222,84,64,0,2,6,1,s,pre,1
1,19,8233,79,64,0,2,8,1,s,pre,1
2,21,8548,78,64,0,2,8,1,s,pre,1
3,23,8827,79,64,0,2,8,1,s,pre,1
4,25,9067,76,64,0,2,8,1,s,pre,1
5,26,9307,72,64,0,2,8,1,s,pre,1
6,28,9377,67,64,0,2,8,1,s,pre,1
7,30,9689,67,64,0,2,8,1,s,pre,1
8,32,10037,67,64,0,2,8,1,s,pre,1
9,35,10617,79,64,0,2,8,1,s,pre,1
10,37,11036,78,64,0,2,8,1,s,pre,1
11,39,11189,79,64,0,2,8,1,s,pre,1
12,40,11387,76,64,0,2,8,1,s,pre,1
13,43,11724,72,64,0,2,8,1,s,pre,1
14,45,12008,76,64,0,2,8,1,s,pre,1
15,47,12241,79,64,0,2,8,1,s,pre,1
16,49,12649,84,64,0,2,8,1,s,pre,1
17,50,12773,83,64,0,2,8,1,s,pre,1
18,52,12861,81,64,0,2,8,1,s,pre,1
19,54,13176,81,64,0,2,8,1,s,pre,1
20,56,13489,81,64,0,2,8,1,s,pre,1
21,59,14056,83,64,0,2,8,1,s,pre,1
22,61,14289,81,64,0,2,8,1,s,pre,1
23,63,14639,84,64,0,2,8,1,s,pre,1
24,65,14843,81,64,0,2,8,1,s,pre,1
25,67,15148,78,64,0,2,8,1,s,pre,1
26,68,15244,79,64,0,2,8,1,s,pre,1
27,70,15703,79,64,0,2,8,1,s,pre,1
28,72,16679,79,64,0,2,8,1,s,pre,1
29,74,17283,77,64,0,2,8,1,s,pre,1
30,76,17570,77,64,0,2,8,1,s,pre,1
31,78,17876,76,64,0,2,8,1,s,pre,1
32,80,18148,76,64,0,2,8,1,s,pre,1
33,82,18858,74,64,0,2,8,1,s,pre,1
34,85,20250,79,64,0,2,8,1,s,pre,1
35,87,20843,77,64,0,2,8,1,s,pre,1
36,88,20902,76,64,0,2,8,1,s,pre,1
37,90,21200,76,64,0,2,8,1,s,pre,1
38,92,21446,76,64,0,2,8,1,s,pre,1
39,92,,76,,0,2,8,1,s,pre,1
40,95,22324,81,64,0,2,8,1,s,pre,1
41,97,22563,77,64,0,2,8,1,s,pre,1
42,99,22784,76,64,0,2,8,1,s,pre,1
43,101,23115,74,64,0,2,8,1,s,pre,1
44,103,23391,76,64,0,2,8,1,s,pre,1
45,105,23772,79,64,0,2,8,1,s,pre,1
46,107,23929,74,64,0,2,8,1,s,pre,1
47,109,24234,71,64,0,2,8,1,s,pre,1
48,110,24255,72,64,0,2,8,1,s,pre,1
49,112,24550,72,64,0,2,8,1,s,pre,1
50,114,24832,74,64,0,2,8,1,s,pre,1
51,116,25148,74,64,0,2,8,1,s,pre,1
52,118,25984,76,64,0,2,8,1,s,pre,1
53,120,26644,65,64,0,2,8,1,s,pre,1
54,122,26903,65,64,0,2,8,1,s,pre,1
55,124,27175,64,64,0,2,8,1,s,pre,1
56,126,27455,64,64,0,2,8,1,s,pre,1
57,128,28301,62,64,0,2,8,1,s,pre,1
58,130,28971,67,64,0,2,8,1,s,pre,1
59,132,29235,67,64,0,2,8,1,s,pre,1
60,134,29508,71,64,0,2,8,1,s,pre,1
61,136,29790,71,64,0,2,8,1,s,pre,1
62,138,30082,72,64,0,2,8,1,s,pre,1
63,140,30393,72,64,0,2,8,1,s,pre,1
64,142,30695,73,64,0,2,8,1,s,pre,1
65,144,30975,73,64,0,2,8,1,s,pre,1
66,147,31867,74,64,0,2,8,1,s,pre,1
67,149,32487,77,64,0,2,8,1,s,pre,1
68,151,32974,76,64,0,2,8,1,s,pre,1
69,153,33523,74,64,0,2,8,1,s,pre,1
70,155,34142,72,64,0,2,8,1,s,pre,1
71,156,34415,84,64,0,2,8,1,s,pre,1
72,158,35554,84,64,0,2,8,1,s,pre,1
1,19,9097,79,64,0,2,9,1,s,pre,1
2,21,9330,78,64,0,2,9,1,s,pre,1
3,23,9580,79,64,0,2,9,1,s,pre,1
4,25,9771,76,64,0,2,9,1,s,pre,1
5,26,9796,72,64,0,2,9,1,s,pre,1
6,28,10010,67,64,0,2,9,1,s,pre,1
7,30,10217,67,64,0,2,9,1,s,pre,1
8,32,10428,67,64,0,2,9,1,s,pre,1
9,35,10861,79,64,0,2,9,1,s,pre,1
10,37,11069,78,64,0,2,9,1,s,pre,1
11,39,11281,79,64,0,2,9,1,s,pre,1
12,41,11482,76,64,0,2,9,1,s,pre,1
13,42,11632,72,64,0,2,9,1,s,pre,1
14,45,11877,76,64,0,2,9,1,s,pre,1
15,47,12072,79,64,0,2,9,1,s,pre,1
16,49,12297,84,64,0,2,9,1,s,pre,1
17,50,12376,83,64,0,2,9,1,s,pre,1
18,52,12503,81,64,0,2,9,1,s,pre,1
19,54,12697,81,64,0,2,9,1,s,pre,1
20,56,12905,81,64,0,2,9,1,s,pre,1
21,59,13312,83,64,0,2,9,1,s,pre,1
22,61,13480,81,64,0,2,9,1,s,pre,1
23,63,13707,84,64,0,2,9,1,s,pre,1
24,65,13916,81,64,0,2,9,1,s,pre,1
25,67,14077,78,64,0,2,9,1,s,pre,1
26,68,14110,79,64,0,2,9,1,s,pre,1
27,70,14314,79,64,0,2,9,1,s,pre,1
28,72,14731,79,64,0,2,9,1,s,pre,1
29,74,15570,77,64,0,2,9,1,s,pre,1
30,76,15764,77,64,0,2,9,1,s,pre,1
31,78,15962,76,64,0,2,9,1,s,pre,1
32,80,16162,76,64,0,2,9,1,s,pre,1
33,82,16395,74,64,0,2,9,1,s,pre,1
34,82,,79,,0,2,9,1,s,pre,1
35,84,17610,77,64,0,2,9,1,s,pre,1
36,86,18016,76,64,0,2,9,1,s,pre,1
37,88,18213,76,64,0,2,9,1,s,pre,1
38,90,18400,76,64,0,2,9,1,s,pre,1
39,92,18599,76,64,0,2,9,1,s,pre,1
40,95,18997,81,64,0,2,9,1,s,pre,1
41,97,19287,77,64,0,2,9,1,s,pre,1
42,99,19405,76,64,0,2,9,1,s,pre,1
43,101,19655,74,64,0,2,9,1,s,pre,1
44,103,19799,76,64,0,2,9,1,s,pre,1
45,105,20025,79,64,0,2,9,1,s,pre,1
46,107,20203,74,64,0,2,9,1,s,pre,1
47,108,20300,71,64,0,2,9,1,s,pre,1
48,110,20384,72,64,0,2,9,1,s,pre,1
49,112,20602,72,64,0,2,9,1,s,pre,1
50,114,20812,74,64,0,2,9,1,s,pre,1
51,116,20999,74,64,0,2,9,1,s,pre,1
52,118,21215,76,64,0,2,9,1,s,pre,1
53,120,22014,65,64,0,2,9,1,s,pre,1
54,122,22200,65,64,0,2,9,1,s,pre,1
55,124,22410,64,64,0,2,9,1,s,pre,1
56,126,22590,64,64,0,2,9,1,s,pre,1
57,128,22833,62,64,0,2,9,1,s,pre,1
58,130,23613,67,64,0,2,9,1,s,pre,1
59,132,23806,67,64,0,2,9,1,s,pre,1
60,134,24035,71,64,0,2,9,1,s,pre,1
61,136,24220,71,64,0,2,9,1,s,pre,1
62,138,24425,72,64,0,2,9,1,s,pre,1
63,140,24611,72,64,0,2,9,1,s,pre,1
64,142,24795,73,64,0,2,9,1,s,pre,1
65,144,24995,73,64,0,2,9,1,s,pre,1
66,146,25230,74,64,0,2,9,1,s,pre,1
67,148,25622,77,64,0,2,9,1,s,pre,1
68,150,26002,76,64,0,2,9,1,s,pre,1
69,152,26373,74,64,0,2,9,1,s,pre,1
70,154,26766,72,64,0,2,9,1,s,pre,1
71,156,27147,84,64,0,2,9,1,s,pre,1
72,158,27593,84,64,0,2,9,1,s,pre,1
1,19,8114,79,64,0,2,10,1,s,pre,1
2,21,8421,78,64,0,2,10,1,s,pre,1
3,23,8693,79,64,0,2,10,1,s,pre,1
4,25,9010,76,64,0,2,10,1,s,pre,1
5,26,9078,72,64,0,2,10,1,s,pre,1
6,28,9328,67,64,0,2,10,1,s,pre,1
7,30,9899,67,64,0,2,10,1,s,pre,1
8,30,,67,,0,2,10,1,s,pre,1
9,33,10406,79,64,0,2,10,1,s,pre,1
10,35,10708,78,64,0,2,10,1,s,pre,1
11,36,10943,79,64,0,2,10,1,s,pre,1
12,38,11202,76,64,0,2,10,1,s,pre,1
13,41,11570,72,64,0,2,10,1,s,pre,1
14,43,11817,76,64,0,2,10,1,s,pre,1
15,45,12044,79,64,0,2,10,1,s,pre,1
16,47,12347,84,64,0,2,10,1,s,pre,1
17,48,12351,83,64,0,2,10,1,s,pre,1
18,50,12641,81,64,0,2,10,1,s,pre,1
19,52,12910,81,64,0,2,10,1,s,pre,1
20,54,13157,81,64,0,2,10,1,s,pre,1
21,57,13703,83,64,0,2,10,1,s,pre,1
22,59,13952,81,64,0,2,10,1,s,pre,1
23,61,14241,84,64,0,2,10,1,s,pre,1
24,63,14543,81,64,0,2,10,1,s,pre,1
25,65,14777,78,64,0,2,10,1,s,pre,1
26,66,14813,79,64,0,2,10,1,s,pre,1
27,68,15147,79,64,0,2,10,1,s,pre,1
28,70,16266,79,64,0,2,10,1,s,pre,1
29,72,16824,77,64,0,2,10,1,s,pre,1
30,74,17075,77,64,0,2,10,1,s,pre,1
31,76,17351,76,64,0,2,10,1,s,pre,1
32,78,17590,76,64,0,2,10,1,s,pre,1
33,80,18234,74,64,0,2,10,1,s,pre,1
34,82,19104,79,64,0,2,10,1,s,pre,1
35,84,19602,77,64,0,2,10,1,s,pre,1
36,86,20129,76,64,0,2,10,1,s,pre,1
37,88,20396,76,64,0,2,10,1,s,pre,1
38,90,20664,76,64,0,2,10,1,s,pre,1
39,92,20915,76,64,0,2,10,1,s,pre,1
40,95,21450,81,64,0,2,10,1,s,pre,1
41,97,21664,77,64,0,2,10,1,s,pre,1
42,99,21929,76,64,0,2,10,1,s,pre,1
43,101,22206,74,64,0,2,10,1,s,pre,1
44,103,22450,76,64,0,2,10,1,s,pre,1
45,105,22731,79,64,0,2,10,1,s,pre,1
46,106,22983,74,64,0,2,10,1,s,pre,1
47,108,23188,71,64,0,2,10,1,s,pre,1
48,110,23308,72,64,0,2,10,1,s,pre,1
49,112,23560,72,64,0,2,10,1,s,pre,1
50,114,23813,74,64,0,2,10,1,s,pre,1
51,116,24072,74,64,0,2,10,1,s,pre,1
52,118,24724,76,64,0,2,10,1,s,pre,1
53,120,25553,65,64,0,2,10,1,s,pre,1
54,122,25806,65,64,0,2,10,1,s,pre,1
55,124,26358,64,64,0,2,10,1,s,pre,1
56,124,,64,,0,2,10,1,s,pre,1
57,126,27112,62,64,0,2,10,1,s,pre,1
58,128,27764,67,64,0,2,10,1,s,pre,1
59,130,28025,67,64,0,2,10,1,s,pre,1
60,132,28284,71,64,0,2,10,1,s,pre,1
61,134,28541,71,64,0,2,10,1,s,pre,1
62,136,28807,72,64,0,2,10,1,s,pre,1
63,138,29072,72,64,0,2,10,1,s,pre,1
64,140,29332,73,64,0,2,10,1,s,pre,1
65,142,29583,73,64,0,2,10,1,s,pre,1
66,144,30173,74,64,0,2,10,1,s,pre,1
67,146,30849,77,64,0,2,10,1,s,pre,1
68,148,31388,76,64,0,2,10,1,s,pre,1
69,150,31964,74,64,0,2,10,1,s,pre,1
70,152,32528,72,64,0,2,10,1,s,pre,1
71,154,33079,84,64,0,2,10,1,s,pre,1
72,156,33972,84,64,0,2,10,1,s,pre,1
1,19,8249,79,64,0,2,11,2,s,pre,1
2,21,8537,78,64,0,2,11,2,s,pre,1
3,23,8735,79,64,0,2,11,2,s,pre,1
4,25,8985,76,64,0,2,11,2,s,pre,1
5,26,8989,72,64,0,2,11,2,s,pre,1
6,28,9293,67,64,0,2,11,2,s,pre,1
7,30,9597,67,64,0,2,11,2,s,pre,1
8,32,9841,67,64,0,2,11,2,s,pre,1
9,35,10461,79,64,0,2,11,2,s,pre,1
10,37,10723,78,64,0,2,11,2,s,pre,1
11,39,10957,79,64,0,2,11,2,s,pre,1
12,41,11151,76,64,0,2,11,2,s,pre,1
13,43,11538,72,64,0,2,11,2,s,pre,1
14,45,11745,76,64,0,2,11,2,s,pre,1
15,47,11931,79,64,0,2,11,2,s,pre,1
16,49,12252,84,64,0,2,11,2,s,pre,1
17,50,12301,83,64,0,2,11,2,s,pre,1
18,52,12546,81,64,0,2,11,2,s,pre,1
19,54,12831,81,64,0,2,11,2,s,pre,1
20,56,13081,81,64,0,2,11,2,s,pre,1
21,59,13577,83,64,0,2,11,2,s,pre,1
22,61,13829,81,64,0,2,11,2,s,pre,1
23,63,14111,84,64,0,2,11,2,s,pre,1
24,65,14335,81,64,0,2,11,2,s,pre,1
25,67,14619,78,64,0,2,11,2,s,pre,1
26,68,14643,79,64,0,2,11,2,s,pre,1
27,70,14886,79,64,0,2,11,2,s,pre,1
28,72,15411,79,64,0,2,11,2,s,pre,1
29,74,16500,77,64,0,2,11,2,s,pre,1
30,76,16763,77,64,0,2,11,2,s,pre,1
31,78,17029,76,64,0,2,11,2,s,pre,1
32,80,17289,76,64,0,2,11,2,s,pre,1
33,82,17885,74,64,0,2,11,2,s,pre,1
34,84,18903,79,64,0,2,11,2,s,pre,1
35,86,19401,77,64,0,2,11,2,s,pre,1
36,88,19835,76,64,0,2,11,2,s,pre,1
37,90,20133,76,64,0,2,11,2,s,pre,1
38,92,20379,76,64,0,2,11,2,s,pre,1
39,94,20607,76,64,0,2,11,2,s,pre,1
40,97,21193,81,64,0,2,11,2,s,pre,1
41,99,21397,77,64,0,2,11,2,s,pre,1
42,101,21563,76,64,0,2,11,2,s,pre,1
43,103,21813,74,64,0,2,11,2,s,pre,1
44,105,22083,76,64,0,2,11,2,s,pre,1
45,107,22385,79,64,0,2,11,2,s,pre,1
46,109,22581,74,64,0,2,11,2,s,pre,1
47,110,22807,71,64,0,2,11,2,s,pre,1
48,112,22865,72,64,0,2,11,2,s,pre,1
49,114,23139,72,64,0,2,11,2,s,pre,1
50,116,23391,74,64,0,2,11,2,s,pre,1
51,118,23667,74,64,0,2,11,2,s,pre,1
52,120,24337,76,64,0,2,11,2,s,pre,1
53,122,25071,65,64,0,2,11,2,s,pre,1
54,124,25338,65,64,0,2,11,2,s,pre,1
55,126,25597,64,64,0,2,11,2,s,pre,1
56,128,25861,64,64,0,2,11,2,s,pre,1
57,130,26590,62,64,0,2,11,2,s,pre,1
58,132,27211,67,64,0,2,11,2,s,pre,1
59,132,,67,,0,2,11,2,s,pre,1
60,134,27730,71,64,0,2,11,2,s,pre,1
61,136,27982,71,64,0,2,11,2,s,pre,1
62,138,28223,72,64,0,2,11,2,s,pre,1
63,140,28483,72,64,0,2,11,2,s,pre,1
64,142,28729,73,64,0,2,11,2,s,pre,1
65,144,28962,73,64,0,2,11,2,s,pre,1
66,146,29233,74,64,0,2,11,2,s,pre,1
67,148,29783,77,64,0,2,11,2,s,pre,1
68,150,30305,76,64,0,2,11,2,s,pre,1
69,152,30859,74,64,0,2,11,2,s,pre,1
70,154,31363,72,64,0,2,11,2,s,pre,1
71,156,31909,84,64,0,2,11,2,s,pre,1
72,158,32481,84,64,0,2,11,2,s,pre,1
1,19,8173,79,64,0,2,12,1,s,pre,1
2,21,8438,78,64,0,2,12,1,s,pre,1
3,23,8720,79,64,0,2,12,1,s,pre,1
4,25,9013,76,64,0,2,12,1,s,pre,1
5,26,9208,72,64,0,2,12,1,s,pre,1
6,28,9270,67,64,0,2,12,1,s,pre,1
7,30,9838,67,64,0,2,12,1,s,pre,1
8,30,,67,,0,2,12,1,s,pre,1
9,33,10445,79,64,0,2,12,1,s,pre,1
10,35,10694,78,64,0,2,12,1,s,pre,1
11,37,11008,79,64,0,2,12,1,s,pre,1
12,39,11253,76,64,0,2,12,1,s,pre,1
13,41,11577,72,64,0,2,12,1,s,pre,1
14,43,11845,76,64,0,2,12,1,s,pre,1
15,45,12044,79,64,0,2,12,1,s,pre,1
16,47,12402,84,64,0,2,12,1,s,pre,1
17,49,12596,83,64,0,2,12,1,s,pre,1
18,50,12627,81,64,0,2,12,1,s,pre,1
19,52,12898,81,64,0,2,12,1,s,pre,1
20,54,13158,81,64,0,2,12,1,s,pre,1
21,57,13739,83,64,0,2,12,1,s,pre,1
22,59,13966,81,64,0,2,12,1,s,pre,1
23,61,14264,84,64,0,2,12,1,s,pre,1
24,63,14524,81,64,0,2,12,1,s,pre,1
25,65,14819,78,64,0,2,12,1,s,pre,1
26,66,14915,79,64,0,2,12,1,s,pre,1
27,68,15257,79,64,0,2,12,1,s,pre,1
28,70,16324,79,64,0,2,12,1,s,pre,1
29,72,16842,77,64,0,2,12,1,s,pre,1
30,74,17095,77,64,0,2,12,1,s,pre,1
31,76,17358,76,64,0,2,12,1,s,pre,1
32,78,17630,76,64,0,2,12,1,s,pre,1
33,80,18266,74,64,0,2,12,1,s,pre,1
34,82,19399,79,64,0,2,12,1,s,pre,1
35,84,20007,77,64,0,2,12,1,s,pre,1
36,86,20246,76,64,0,2,12,1,s,pre,1
37,88,20529,76,64,0,2,12,1,s,pre,1
38,90,20818,76,64,0,2,12,1,s,pre,1
39,92,21079,76,64,0,2,12,1,s,pre,1
40,95,21669,81,64,0,2,12,1,s,pre,1
41,97,21873,77,64,0,2,12,1,s,pre,1
42,99,22125,76,64,0,2,12,1,s,pre,1
43,101,22432,74,64,0,2,12,1,s,pre,1
44,103,22693,76,64,0,2,12,1,s,pre,1
45,105,22966,79,64,0,2,12,1,s,pre,1
46,107,23166,74,64,0,2,12,1,s,pre,1
47,108,23390,71,64,0,2,12,1,s,pre,1
48,110,23465,72,64,0,2,12,1,s,pre,1
49,112,23726,72,64,0,2,12,1,s,pre,1
50,114,23999,74,64,0,2,12,1,s,pre,1
51,116,24256,74,64,0,2,12,1,s,pre,1
52,118,25033,76,64,0,2,12,1,s,pre,1
53,120,25656,65,64,0,2,12,1,s,pre,1
54,122,25926,65,64,0,2,12,1,s,pre,1
55,124,26213,64,64,0,2,12,1,s,pre,1
56,126,26475,64,64,0,2,12,1,s,pre,1
57,128,27272,62,64,0,2,12,1,s,pre,1
58,130,27886,67,64,0,2,12,1,s,pre,1
59,132,28140,67,64,0,2,12,1,s,pre,1
60,134,28406,71,64,0,2,12,1,s,pre,1
61,136,28696,71,64,0,2,12,1,s,pre,1
62,138,28982,72,64,0,2,12,1,s,pre,1
63,140,29233,72,64,0,2,12,1,s,pre,1
64,142,29525,73,64,0,2,12,1,s,pre,1
65,144,29786,73,64,0,2,12,1,s,pre,1
66,146,30386,74,64,0,2,12,1,s,pre,1
67,148,30973,77,64,0,2,12,1,s,pre,1
68,150,31602,76,64,0,2,12,1,s,pre,1
69,152,32127,74,64,0,2,12,1,s,pre,1
70,154,32692,72,64,0,2,12,1,s,pre,1
71,156,33191,84,64,0,2,12,1,s,pre,1
72,158,33840,84,64,0,2,12,1,s,pre,1
1,19,8148,79,64,0,2,13,1,s,pre,1
2,21,8448,78,64,0,2,13,1,s,pre,1
3,23,8690,79,64,0,2,13,1,s,pre,1
4,25,8940,76,64,0,2,13,1,s,pre,1
5,26,8974,72,64,0,2,13,1,s,pre,1
6,28,9210,67,64,0,2,13,1,s,pre,1
7,30,9468,67,64,0,2,13,1,s,pre,1
8,32,9706,67,64,0,2,13,1,s,pre,1
9,35,10230,79,64,0,2,13,1,s,pre,1
10,37,10452,78,64,0,2,13,1,s,pre,1
11,39,10700,79,64,0,2,13,1,s,pre,1
12,41,11000,76,64,0,2,13,1,s,pre,1
13,43,11270,72,64,0,2,13,1,s,pre,1
14,45,11508,76,64,0,2,13,1,s,pre,1
15,47,11719,79,64,0,2,13,1,s,pre,1
16,49,11968,84,64,0,2,13,1,s,pre,1
17,50,11995,83,64,0,2,13,1,s,pre,1
18,52,12229,81,64,0,2,13,1,s,pre,1
19,54,12690,81,64,0,2,13,1,s,pre,1
20,54,,81,,0,2,13,1,s,pre,1
21,57,13177,83,64,0,2,13,1,s,pre,1
22,59,13431,81,64,0,2,13,1,s,pre,1
23,61,13673,84,64,0,2,13,1,s,pre,1
24,62,13724,81,64,0,2,13,1,s,pre,1
25,64,14082,78,64,0,2,13,1,s,pre,1
26,66,14155,79,64,0,2,13,1,s,pre,1
27,68,14498,79,64,0,2,13,1,s,pre,1
28,70,15152,79,64,0,2,13,1,s,pre,1
29,72,15992,77,64,0,2,13,1,s,pre,1
30,74,16246,77,64,0,2,13,1,s,pre,1
31,76,16518,76,64,0,2,13,1,s,pre,1
32,78,16762,76,64,0,2,13,1,s,pre,1
33,80,17232,74,64,0,2,13,1,s,pre,1
34,82,18167,79,64,0,2,13,1,s,pre,1
35,84,18719,77,64,0,2,13,1,s,pre,1
36,86,19284,76,64,0,2,13,1,s,pre,1
37,88,19534,76,64,0,2,13,1,s,pre,1
38,90,19764,76,64,0,2,13,1,s,pre,1
39,92,20006,76,64,0,2,13,1,s,pre,1
40,95,20536,81,64,0,2,13,1,s,pre,1
41,97,20723,77,64,0,2,13,1,s,pre,1
42,99,20951,76,64,0,2,13,1,s,pre,1
43,100,21172,74,64,0,2,13,1,s,pre,1
44,102,21421,76,64,0,2,13,1,s,pre,1
45,105,21680,79,64,0,2,13,1,s,pre,1
46,106,21897,74,64,0,2,13,1,s,pre,1
47,108,21934,71,64,0,2,13,1,s,pre,1
48,110,22200,72,64,0,2,13,1,s,pre,1
49,112,22420,72,64,0,2,13,1,s,pre,1
50,114,22666,74,64,0,2,13,1,s,pre,1
51,116,22889,74,64,0,2,13,1,s,pre,1
52,118,23381,76,64,0,2,13,1,s,pre,1
53,120,24244,65,64,0,2,13,1,s,pre,1
54,122,24490,65,64,0,2,13,1,s,pre,1
55,124,24728,64,64,0,2,13,1,s,pre,1
56,126,24994,64,64,0,2,13,1,s,pre,1
57,128,25540,62,64,0,2,13,1,s,pre,1
58,130,26346,67,64,0,2,13,1,s,pre,1
59,132,26589,67,64,0,2,13,1,s,pre,1
60,134,26829,71,64,0,2,13,1,s,pre,1
61,136,27052,71,64,0,2,13,1,s,pre,1
62,138,27294,72,64,0,2,13,1,s,pre,1
63,140,27518,72,64,0,2,13,1,s,pre,1
64,142,27756,73,64,0,2,13,1,s,pre,1
65,144,27976,73,64,0,2,13,1,s,pre,1
66,146,28338,74,64,0,2,13,1,s,pre,1
67,148,28830,77,64,0,2,13,1,s,pre,1
68,150,29312,76,64,0,2,13,1,s,pre,1
69,152,29784,74,64,0,2,13,1,s,pre,1
70,154,30318,72,64,0,2,13,1,s,pre,1
71,156,30792,84,64,0,2,13,1,s,pre,1
72,158,31434,84,64,0,2,13,1,s,pre,1
1,19,11045,79,64,0,2,16,1,s,pre,1
2,21,11386,78,64,0,2,16,1,s,pre,1
3,23,11679,79,64,0,2,16,1,s,pre,1
4,24,11978,76,64,0,2,16,1,s,pre,1
5,26,12104,72,64,0,2,16,1,s,pre,1
6,28,12399,67,64,0,2,16,1,s,pre,1
7,30,12726,67,64,0,2,16,1,s,pre,1
8,32,13021,67,64,0,2,16,1,s,pre,1
9,35,14168,79,64,0,2,16,1,s,pre,1
10,36,14454,78,64,0,2,16,1,s,pre,1
11,39,14788,79,64,0,2,16,1,s,pre,1
12,40,15104,76,64,0,2,16,1,s,pre,1
13,43,15497,72,64,0,2,16,1,s,pre,1
14,45,15815,76,64,0,2,16,1,s,pre,1
15,46,16058,79,64,0,2,16,1,s,pre,1
16,49,16467,84,64,0,2,16,1,s,pre,1
17,50,16770,83,64,0,2,16,1,s,pre,1
18,52,16841,81,64,0,2,16,1,s,pre,1
19,54,17180,81,64,0,2,16,1,s,pre,1
20,56,17453,81,64,0,2,16,1,s,pre,1
21,59,18081,83,64,0,2,16,1,s,pre,1
22,61,18423,81,64,0,2,16,1,s,pre,1
23,63,18718,84,64,0,2,16,1,s,pre,1
24,65,19043,81,64,0,2,16,1,s,pre,1
25,67,19357,78,64,0,2,16,1,s,pre,1
26,68,19452,79,64,0,2,16,1,s,pre,1
27,70,19955,79,64,0,2,16,1,s,pre,1
28,72,20807,79,64,0,2,16,1,s,pre,1
29,74,21597,77,64,0,2,16,1,s,pre,1
30,76,21918,77,64,0,2,16,1,s,pre,1
31,78,22271,76,64,0,2,16,1,s,pre,1
32,80,22569,76,64,0,2,16,1,s,pre,1
33,82,23307,74,64,0,2,16,1,s,pre,1
34,85,24906,79,64,0,2,16,1,s,pre,1
35,86,25534,77,64,0,2,16,1,s,pre,1
36,88,25604,76,64,0,2,16,1,s,pre,1
37,90,25945,76,64,0,2,16,1,s,pre,1
38,92,26251,76,64,0,2,16,1,s,pre,1
39,94,26536,76,64,0,2,16,1,s,pre,1
40,97,27236,81,64,0,2,16,1,s,pre,1
41,99,27507,77,64,0,2,16,1,s,pre,1
42,100,27808,76,64,0,2,16,1,s,pre,1
43,103,28182,74,64,0,2,16,1,s,pre,1
44,105,28471,76,64,0,2,16,1,s,pre,1
45,107,28813,79,64,0,2,16,1,s,pre,1
46,108,29098,74,64,0,2,16,1,s,pre,1
47,110,29427,71,64,0,2,16,1,s,pre,1
48,112,29485,72,64,0,2,16,1,s,pre,1
49,114,29825,72,64,0,2,16,1,s,pre,1
50,116,30149,74,64,0,2,16,1,s,pre,1
51,118,30467,74,64,0,2,16,1,s,pre,1
52,120,31245,76,64,0,2,16,1,s,pre,1
53,122,32098,65,64,0,2,16,1,s,pre,1
54,124,32438,65,64,0,2,16,1,s,pre,1
55,126,33073,64,64,0,2,16,1,s,pre,1
56,126,,64,,0,2,16,1,s,pre,1
57,128,33776,62,64,0,2,16,1,s,pre,1
58,130,35013,67,64,0,2,16,1,s,pre,1
59,132,35303,67,64,0,2,16,1,s,pre,1
60,134,35636,71,64,0,2,16,1,s,pre,1
61,136,35948,71,64,0,2,16,1,s,pre,1
62,138,36293,72,64,0,2,16,1,s,pre,1
63,140,36607,72,64,0,2,16,1,s,pre,1
64,142,36963,73,64,0,2,16,1,s,pre,1
65,144,37247,73,64,0,2,16,1,s,pre,1
66,147,38239,74,64,0,2,16,1,s,pre,1
67,149,38841,77,64,0,2,16,1,s,pre,1
68,151,39497,76,64,0,2,16,1,s,pre,1
69,152,40101,74,64,0,2,16,1,s,pre,1
70,154,40574,72,64,0,2,16,1,s,pre,1
71,156,41146,84,64,0,2,16,1,s,pre,1
72,158,42273,84,64,0,2,16,1,s,pre,1
1,19,8193,79,64,0,2,18,1,s,pre,1
2,21,8449,78,64,0,2,18,1,s,pre,1
3,23,8777,79,64,0,2,18,1,s,pre,1
4,25,9053,76,64,0,2,18,1,s,pre,1
5,26,9231,72,64,0,2,18,1,s,pre,1
6,28,9409,67,64,0,2,18,1,s,pre,1
7,30,9683,67,64,0,2,18,1,s,pre,1
8,30,,67,,0,2,18,1,s,pre,1
9,33,10586,79,64,0,2,18,1,s,pre,1
10,35,10838,78,64,0,2,18,1,s,pre,1
11,37,11160,79,64,0,2,18,1,s,pre,1
12,39,11385,76,64,0,2,18,1,s,pre,1
13,41,11741,72,64,0,2,18,1,s,pre,1
14,43,11978,76,64,0,2,18,1,s,pre,1
15,45,12206,79,64,0,2,18,1,s,pre,1
16,47,12570,84,64,0,2,18,1,s,pre,1
17,48,12754,83,64,0,2,18,1,s,pre,1
18,50,12799,81,64,0,2,18,1,s,pre,1
19,52,13068,81,64,0,2,18,1,s,pre,1
20,54,13359,81,64,0,2,18,1,s,pre,1
21,57,13845,83,64,0,2,18,1,s,pre,1
22,59,14135,81,64,0,2,18,1,s,pre,1
23,60,14340,84,64,0,2,18,1,s,pre,1
24,63,14701,81,64,0,2,18,1,s,pre,1
25,65,14992,78,64,0,2,18,1,s,pre,1
26,66,15046,79,64,0,2,18,1,s,pre,1
27,68,15655,79,64,0,2,18,1,s,pre,1
28,70,16475,79,64,0,2,18,1,s,pre,1
29,72,16883,77,64,0,2,18,1,s,pre,1
30,74,17209,77,64,0,2,18,1,s,pre,1
31,76,17435,76,64,0,2,18,1,s,pre,1
32,78,17723,76,64,0,2,18,1,s,pre,1
33,80,18604,74,64,0,2,18,1,s,pre,1
34,82,19412,79,64,0,2,18,1,s,pre,1
35,84,19888,77,64,0,2,18,1,s,pre,1
36,86,20250,76,64,0,2,18,1,s,pre,1
37,88,20517,76,64,0,2,18,1,s,pre,1
38,90,20784,76,64,0,2,18,1,s,pre,1
39,92,21073,76,64,0,2,18,1,s,pre,1
40,95,21580,81,64,0,2,18,1,s,pre,1
41,97,21810,77,64,0,2,18,1,s,pre,1
42,99,22043,76,64,0,2,18,1,s,pre,1
43,101,22358,74,64,0,2,18,1,s,pre,1
44,103,22573,76,64,0,2,18,1,s,pre,1
45,105,22874,79,64,0,2,18,1,s,pre,1
46,107,23065,74,64,0,2,18,1,s,pre,1
47,109,23367,71,64,0,2,18,1,s,pre,1
48,110,23409,72,64,0,2,18,1,s,pre,1
49,112,23635,72,64,0,2,18,1,s,pre,1
50,114,23923,74,64,0,2,18,1,s,pre,1
51,116,24211,74,64,0,2,18,1,s,pre,1
52,118,24964,76,64,0,2,18,1,s,pre,1
53,120,25466,65,64,0,2,18,1,s,pre,1
54,122,25758,65,64,0,2,18,1,s,pre,1
55,124,26045,64,64,0,2,18,1,s,pre,1
56,126,26325,64,64,0,2,18,1,s,pre,1
57,128,27103,62,64,0,2,18,1,s,pre,1
58,130,27648,67,64,0,2,18,1,s,pre,1
59,132,27943,67,64,0,2,18,1,s,pre,1
60,134,28179,71,64,0,2,18,1,s,pre,1
61,136,28432,71,64,0,2,18,1,s,pre,1
62,138,28696,72,64,0,2,18,1,s,pre,1
63,140,28926,72,64,0,2,18,1,s,pre,1
64,142,29161,73,64,0,2,18,1,s,pre,1
65,144,29440,73,64,0,2,18,1,s,pre,1
66,147,30329,74,64,0,2,18,1,s,pre,1
67,149,30847,77,64,0,2,18,1,s,pre,1
68,151,31429,76,64,0,2,18,1,s,pre,1
69,153,31890,74,64,0,2,18,1,s,pre,1
70,154,32058,72,64,0,2,18,1,s,pre,1
71,156,32853,84,64,0,2,18,1,s,pre,1
72,158,33710,84,64,0,2,18,1,s,pre,1
1,19,8183,79,64,0,2,18,2,s,pre,1
2,21,8456,78,64,0,2,18,2,s,pre,1
3,23,8735,79,64,0,2,18,2,s,pre,1
4,25,8990,76,64,0,2,18,2,s,pre,1
5,26,9081,72,64,0,2,18,2,s,pre,1
6,28,9341,67,64,0,2,18,2,s,pre,1
7,30,9617,67,64,0,2,18,2,s,pre,1
8,32,9858,67,64,0,2,18,2,s,pre,1
9,35,10436,79,64,0,2,18,2,s,pre,1
10,37,10697,78,64,0,2,18,2,s,pre,1
11,39,11008,79,64,0,2,18,2,s,pre,1
12,40,11190,76,64,0,2,18,2,s,pre,1
13,43,11539,72,64,0,2,18,2,s,pre,1
14,45,11793,76,64,0,2,18,2,s,pre,1
15,47,12043,79,64,0,2,18,2,s,pre,1
16,49,12380,84,64,0,2,18,2,s,pre,1
17,50,12436,83,64,0,2,18,2,s,pre,1
18,52,12624,81,64,0,2,18,2,s,pre,1
19,54,12919,81,64,0,2,18,2,s,pre,1
20,56,13175,81,64,0,2,18,2,s,pre,1
21,59,13689,83,64,0,2,18,2,s,pre,1
22,61,13978,81,64,0,2,18,2,s,pre,1
23,62,14150,84,64,0,2,18,2,s,pre,1
24,65,14544,81,64,0,2,18,2,s,pre,1
25,67,14830,78,64,0,2,18,2,s,pre,1
26,68,14895,79,64,0,2,18,2,s,pre,1
27,70,15468,79,64,0,2,18,2,s,pre,1
28,72,16315,79,64,0,2,18,2,s,pre,1
29,74,16729,77,64,0,2,18,2,s,pre,1
30,76,16994,77,64,0,2,18,2,s,pre,1
31,78,17277,76,64,0,2,18,2,s,pre,1
32,80,17544,76,64,0,2,18,2,s,pre,1
33,82,18333,74,64,0,2,18,2,s,pre,1
34,84,19240,79,64,0,2,18,2,s,pre,1
35,86,19674,77,64,0,2,18,2,s,pre,1
36,88,20039,76,64,0,2,18,2,s,pre,1
37,90,20293,76,64,0,2,18,2,s,pre,1
38,92,20573,76,64,0,2,18,2,s,pre,1
39,92,,76,,0,2,18,2,s,pre,1
40,95,21391,81,64,0,2,18,2,s,pre,1
41,97,21612,77,64,0,2,18,2,s,pre,1
42,99,21862,76,64,0,2,18,2,s,pre,1
43,101,22160,74,64,0,2,18,2,s,pre,1
44,103,22402,76,64,0,2,18,2,s,pre,1
45,105,22694,79,64,0,2,18,2,s,pre,1
46,107,22863,74,64,0,2,18,2,s,pre,1
47,109,23147,71,64,0,2,18,2,s,pre,1
48,110,23199,72,64,0,2,18,2,s,pre,1
49,112,23427,72,64,0,2,18,2,s,pre,1
50,114,23692,74,64,0,2,18,2,s,pre,1
51,116,23971,74,64,0,2,18,2,s,pre,1
52,118,24689,76,64,0,2,18,2,s,pre,1
53,120,25237,65,64,0,2,18,2,s,pre,1
54,122,25465,65,64,0,2,18,2,s,pre,1
55,124,25766,64,64,0,2,18,2,s,pre,1
56,126,26026,64,64,0,2,18,2,s,pre,1
57,128,26858,62,64,0,2,18,2,s,pre,1
58,130,27416,67,64,0,2,18,2,s,pre,1
59,132,27699,67,64,0,2,18,2,s,pre,1
60,134,27930,71,64,0,2,18,2,s,pre,1
61,136,28213,71,64,0,2,18,2,s,pre,1
62,138,28444,72,64,0,2,18,2,s,pre,1
63,140,28703,72,64,0,2,18,2,s,pre,1
64,142,28941,73,64,0,2,18,2,s,pre,1
65,144,29145,73,64,0,2,18,2,s,pre,1
66,147,30075,74,64,0,2,18,2,s,pre,1
67,149,30523,77,64,0,2,18,2,s,pre,1
68,151,31037,76,64,0,2,18,2,s,pre,1
69,153,31580,74,64,0,2,18,2,s,pre,1
70,154,31838,72,64,0,2,18,2,s,pre,1
71,156,32423,84,64,0,2,18,2,s,pre,1
72,158,33432,84,64,0,2,18,2,s,pre,1
1,19,8108,79,64,0,2,21,1,s,pre,1
2,20,8394,78,64,0,2,21,1,s,pre,1
3,22,8619,79,64,0,2,21,1,s,pre,1
4,24,8904,76,64,0,2,21,1,s,pre,1
5,26,9123,72,64,0,2,21,1,s,pre,1
6,28,9304,67,64,0,2,21,1,s,pre,1
7,30,9619,67,64,0,2,21,1,s,pre,1
8,32,9867,67,64,0,2,21,1,s,pre,1
9,35,10421,79,64,0,2,21,1,s,pre,1
10,37,10710,78,64,0,2,21,1,s,pre,1
11,38,10939,79,64,0,2,21,1,s,pre,1
12,40,11208,76,64,0,2,21,1,s,pre,1
13,43,11525,72,64,0,2,21,1,s,pre,1
14,45,11781,76,64,0,2,21,1,s,pre,1
15,46,11987,79,64,0,2,21,1,s,pre,1
16,49,12341,84,64,0,2,21,1,s,pre,1
17,50,12569,83,64,0,2,21,1,s,pre,1
18,52,12669,81,64,0,2,21,1,s,pre,1
19,54,12928,81,64,0,2,21,1,s,pre,1
20,56,13203,81,64,0,2,21,1,s,pre,1
21,59,13761,83,64,0,2,21,1,s,pre,1
22,61,13976,81,64,0,2,21,1,s,pre,1
23,63,14255,84,64,0,2,21,1,s,pre,1
24,65,14524,81,64,0,2,21,1,s,pre,1
25,66,14767,78,64,0,2,21,1,s,pre,1
26,68,14814,79,64,0,2,21,1,s,pre,1
27,70,15351,79,64,0,2,21,1,s,pre,1
28,72,16218,79,64,0,2,21,1,s,pre,1
29,74,16791,77,64,0,2,21,1,s,pre,1
30,76,17264,77,64,0,2,21,1,s,pre,1
31,78,17373,76,64,0,2,21,1,s,pre,1
32,80,17617,76,64,0,2,21,1,s,pre,1
33,82,18451,74,64,0,2,21,1,s,pre,1
34,84,19337,79,64,0,2,21,1,s,pre,1
35,86,19902,77,64,0,2,21,1,s,pre,1
36,88,20189,76,64,0,2,21,1,s,pre,1
37,90,20488,76,64,0,2,21,1,s,pre,1
38,92,20752,76,64,0,2,21,1,s,pre,1
39,94,20982,76,64,0,2,21,1,s,pre,1
40,96,21487,81,64,0,2,21,1,s,pre,1
41,98,21744,77,64,0,2,21,1,s,pre,1
42,100,22011,76,64,0,2,21,1,s,pre,1
43,103,22291,74,64,0,2,21,1,s,pre,1
44,104,22530,76,64,0,2,21,1,s,pre,1
45,106,22797,79,64,0,2,21,1,s,pre,1
46,108,23069,74,64,0,2,21,1,s,pre,1
47,110,23353,71,64,0,2,21,1,s,pre,1
48,112,23397,72,64,0,2,21,1,s,pre,1
49,114,23880,72,64,0,2,21,1,s,pre,1
50,116,24197,74,64,0,2,21,1,s,pre,1
51,116,,74,,0,2,21,1,s,pre,1
52,118,25080,76,64,0,2,21,1,s,pre,1
53,120,25659,65,64,0,2,21,1,s,pre,1
54,122,26137,65,64,0,2,21,1,s,pre,1
55,124,26240,64,64,0,2,21,1,s,pre,1
56,126,26472,64,64,0,2,21,1,s,pre,1
57,128,27326,62,64,0,2,21,1,s,pre,1
58,130,27845,67,64,0,2,21,1,s,pre,1
59,133,28344,67,64,0,2,21,1,s,pre,1
60,134,28368,71,64,0,2,21,1,s,pre,1
61,137,28862,71,64,0,2,21,1,s,pre,1
62,138,28915,72,64,0,2,21,1,s,pre,1
63,141,29365,72,64,0,2,21,1,s,pre,1
64,142,29422,73,64,0,2,21,1,s,pre,1
65,144,29686,73,64,0,2,21,1,s,pre,1
66,146,30296,74,64,0,2,21,1,s,pre,1
67,148,30783,77,64,0,2,21,1,s,pre,1
68,150,31280,76,64,0,2,21,1,s,pre,1
69,152,31813,74,64,0,2,21,1,s,pre,1
70,154,32319,72,64,0,2,21,1,s,pre,1
71,156,32892,84,64,0,2,21,1,s,pre,1
72,158,34058,84,64,0,2,21,1,s,pre,1
1,19,8162,79,64,0,2,21,2,s,pre,1
2,21,8448,78,64,0,2,21,2,s,pre,1
3,23,8692,79,64,0,2,21,2,s,pre,1
4,25,8986,76,64,0,2,21,2,s,pre,1
5,26,9208,72,64,0,2,21,2,s,pre,1
6,28,9324,67,64,0,2,21,2,s,pre,1
7,30,9923,67,64,0,2,21,2,s,pre,1
8,30,,67,,0,2,21,2,s,pre,1
9,33,10469,79,64,0,2,21,2,s,pre,1
10,35,10756,78,64,0,2,21,2,s,pre,1
11,36,11004,79,64,0,2,21,2,s,pre,1
12,38,11287,76,64,0,2,21,2,s,pre,1
13,41,11626,72,64,0,2,21,2,s,pre,1
14,43,11902,76,64,0,2,21,2,s,pre,1
15,44,12138,79,64,0,2,21,2,s,pre,1
16,47,12514,84,64,0,2,21,2,s,pre,1
17,48,12708,83,64,0,2,21,2,s,pre,1
18,50,12773,81,64,0,2,21,2,s,pre,1
19,52,13044,81,64,0,2,21,2,s,pre,1
20,54,13318,81,64,0,2,21,2,s,pre,1
21,57,13867,83,64,0,2,21,2,s,pre,1
22,59,14116,81,64,0,2,21,2,s,pre,1
23,61,14411,84,64,0,2,21,2,s,pre,1
24,62,14663,81,64,0,2,21,2,s,pre,1
25,65,14953,78,64,0,2,21,2,s,pre,1
26,66,14992,79,64,0,2,21,2,s,pre,1
27,68,15596,79,64,0,2,21,2,s,pre,1
28,70,16493,79,64,0,2,21,2,s,pre,1
29,72,17089,77,64,0,2,21,2,s,pre,1
30,75,17636,77,64,0,2,21,2,s,pre,1
31,76,17681,76,64,0,2,21,2,s,pre,1
32,78,17968,76,64,0,2,21,2,s,pre,1
33,80,18787,74,64,0,2,21,2,s,pre,1
34,82,19719,79,64,0,2,21,2,s,pre,1
35,84,20238,77,64,0,2,21,2,s,pre,1
36,86,20572,76,64,0,2,21,2,s,pre,1
37,88,20857,76,64,0,2,21,2,s,pre,1
38,90,21133,76,64,0,2,21,2,s,pre,1
39,92,21386,76,64,0,2,21,2,s,pre,1
40,95,22003,81,64,0,2,21,2,s,pre,1
41,97,22229,77,64,0,2,21,2,s,pre,1
42,98,22476,76,64,0,2,21,2,s,pre,1
43,101,22774,74,64,0,2,21,2,s,pre,1
44,102,23017,76,64,0,2,21,2,s,pre,1
45,104,23303,79,64,0,2,21,2,s,pre,1
46,106,23526,74,64,0,2,21,2,s,pre,1
47,108,23829,71,64,0,2,21,2,s,pre,1
48,110,24180,72,64,0,2,21,2,s,pre,1
49,110,,72,,0,2,21,2,s,pre,1
50,112,24472,74,64,0,2,21,2,s,pre,1
51,114,24761,74,64,0,2,21,2,s,pre,1
52,116,25702,76,64,0,2,21,2,s,pre,1
53,118,26203,65,64,0,2,21,2,s,pre,1
54,120,26700,65,64,0,2,21,2,s,pre,1
55,122,26766,64,64,0,2,21,2,s,pre,1
56,124,27055,64,64,0,2,21,2,s,pre,1
57,126,27970,62,64,0,2,21,2,s,pre,1
58,128,28498,67,64,0,2,21,2,s,pre,1
59,131,29037,67,64,0,2,21,2,s,pre,1
60,132,29071,71,64,0,2,21,2,s,pre,1
61,135,29536,71,64,0,2,21,2,s,pre,1
62,136,29598,72,64,0,2,21,2,s,pre,1
63,139,30042,72,64,0,2,21,2,s,pre,1
64,140,30115,73,64,0,2,21,2,s,pre,1
65,142,30411,73,64,0,2,21,2,s,pre,1
66,144,31023,74,64,0,2,21,2,s,pre,1
67,146,31549,77,64,0,2,21,2,s,pre,1
68,148,32061,76,64,0,2,21,2,s,pre,1
69,150,32619,74,64,0,2,21,2,s,pre,1
70,152,33140,72,64,0,2,21,2,s,pre,1
71,154,33739,84,64,0,2,21,2,s,pre,1
72,156,34807,84,64,0,2,21,2,s,pre,1
