RowNr,NoteNr,TimeStamp,Pitch,Velocity,Key_OnOff,Device,SubNr,TrialNr,Stimuli,Session,Error
1,17,7841,79,63,1,2,2,1,16.mid,experiment,0
2,18,8112,78,76,1,2,2,1,16.mid,experiment,0
3,20,8406,79,85,1,2,2,1,16.mid,experiment,0
4,22,8657,76,84,1,2,2,1,16.mid,experiment,0
5,24,8955,72,79,1,2,2,1,16.mid,experiment,0
6,27,9240,67,57,1,2,2,1,16.mid,experiment,0
7,29,9533,67,46,1,2,2,1,16.mid,experiment,0
8,31,9805,67,56,1,2,2,1,16.mid,experiment,0
9,33,10077,79,67,1,2,2,1,16.mid,experiment,0
10,34,10345,78,77,1,2,2,1,16.mid,experiment,0
11,36,10629,79,80,1,2,2,1,16.mid,experiment,0
12,38,10902,76,79,1,2,2,1,16.mid,experiment,0
13,40,11172,72,81,1,2,2,1,16.mid,experiment,0
14,42,11448,76,85,1,2,2,1,16.mid,experiment,0
15,44,11705,79,81,1,2,2,1,16.mid,experiment,0
16,46,11977,84,89,1,2,2,1,16.mid,experiment,0
17,48,12241,83,81,1,2,2,1,16.mid,experiment,0
18,51,12545,81,58,1,2,2,1,16.mid,experiment,0
19,53,12825,81,55,1,2,2,1,16.mid,experiment,0
20,55,13115,81,53,1,2,2,1,16.mid,experiment,0
21,57,13404,83,73,1,2,2,1,16.mid,experiment,0
22,58,13679,81,79,1,2,2,1,16.mid,experiment,0
23,60,13948,84,78,1,2,2,1,16.mid,experiment,0
24,62,14209,81,86,1,2,2,1,16.mid,experiment,0
25,64,14493,78,78,1,2,2,1,16.mid,experiment,0
26,67,14780,79,65,1,2,2,1,16.mid,experiment,0
27,69,15073,79,68,1,2,2,1,16.mid,experiment,0
28,71,15685,79,66,1,2,2,1,16.mid,experiment,0
29,73,16870,77,50,1,2,2,1,16.mid,experiment,0
30,75,17157,77,55,1,2,2,1,16.mid,experiment,0
31,77,17442,76,51,1,2,2,1,16.mid,experiment,0
32,79,17711,76,55,1,2,2,1,16.mid,experiment,0
33,81,18039,74,46,1,2,2,1,16.mid,experiment,0
34,83,19222,79,59,1,2,2,1,16.mid,experiment,0
35,84,19799,77,62,1,2,2,1,16.mid,experiment,0
36,86,20377,76,51,1,2,2,1,16.mid,experiment,0
37,89,20658,76,56,1,2,2,1,16.mid,experiment,0
38,91,20930,76,55,1,2,2,1,16.mid,experiment,0
39,93,21197,76,57,1,2,2,1,16.mid,experiment,0
40,95,21513,81,70,1,2,2,1,16.mid,experiment,0
41,96,21798,77,76,1,2,2,1,16.mid,experiment,0
42,98,22094,76,81,1,2,2,1,16.mid,experiment,0
43,100,22366,74,83,1,2,2,1,16.mid,experiment,0
44,102,22643,76,79,1,2,2,1,16.mid,experiment,0
45,104,22911,79,82,1,2,2,1,16.mid,experiment,0
46,106,23193,74,81,1,2,2,1,16.mid,experiment,0
47,108,23479,71,76,1,2,2,1,16.mid,experiment,0
48,111,23782,72,63,1,2,2,1,16.mid,experiment,0
49,113,24062,72,56,1,2,2,1,16.mid,experiment,0
50,115,24334,74,53,1,2,2,1,16.mid,experiment,0
51,117,24600,74,52,1,2,2,1,16.mid,experiment,0
52,119,24928,76,40,1,2,2,1,16.mid,experiment,0
53,121,26118,65,53,1,2,2,1,16.mid,experiment,0
54,123,26398,65,58,1,2,2,1,16.mid,experiment,0
55,125,26972,64,57,1,2,2,1,16.mid,experiment,0
56,127,27232,64,57,1,2,2,1,16.mid,experiment,0
57,129,27551,62,53,1,2,2,1,16.mid,experiment,0
58,131,28693,67,54,1,2,2,1,16.mid,experiment,0
59,133,28973,67,58,1,2,2,1,16.mid,experiment,0
60,135,29255,71,60,1,2,2,1,16.mid,experiment,0
61,137,29531,71,70,1,2,2,1,16.mid,experiment,0
62,139,29811,72,71,1,2,2,1,16.mid,experiment,0
63,141,30086,72,70,1,2,2,1,16.mid,experiment,0
64,143,30360,73,74,1,2,2,1,16.mid,experiment,0
65,145,30635,73,73,1,2,2,1,16.mid,experiment,0
66,147,30955,74,81,1,2,2,1,16.mid,experiment,0
67,148,31528,77,86,1,2,2,1,16.mid,experiment,0
68,150,32071,76,85,1,2,2,1,16.mid,experiment,0
69,152,32616,74,91,1,2,2,1,16.mid,experiment,0
70,155,33187,72,85,1,2,2,1,16.mid,experiment,0
71,156,33721,84,87,1,2,2,1,16.mid,experiment,0
72,159,34321,84,93,1,2,2,1,16.mid,experiment,0
1,17,7842,79,68,1,2,2,2,15.mid,experiment,0
2,18,8126,78,72,1,2,2,2,15.mid,experiment,0
3,20,8410,79,81,1,2,2,2,15.mid,experiment,0
4,22,8670,76,80,1,2,2,2,15.mid,experiment,0
5,24,8960,72,87,1,2,2,2,15.mid,experiment,0
6,27,9248,67,61,1,2,2,2,15.mid,experiment,0
7,29,9527,67,54,1,2,2,2,15.mid,experiment,0
8,31,9820,67,65,1,2,2,2,15.mid,experiment,0
9,33,10090,79,74,1,2,2,2,15.mid,experiment,0
10,34,10370,78,82,1,2,2,2,15.mid,experiment,0
11,36,10652,79,87,1,2,2,2,15.mid,experiment,0
12,38,10926,76,83,1,2,2,2,15.mid,experiment,0
13,40,11205,72,80,1,2,2,2,15.mid,experiment,0
14,42,11468,76,88,1,2,2,2,15.mid,experiment,0
15,44,11731,79,81,1,2,2,2,15.mid,experiment,0
16,46,12000,84,91,1,2,2,2,15.mid,experiment,0
17,48,12273,83,89,1,2,2,2,15.mid,experiment,0
18,51,12579,81,53,1,2,2,2,15.mid,experiment,0
19,53,12845,81,57,1,2,2,2,15.mid,experiment,0
20,55,13140,81,56,1,2,2,2,15.mid,experiment,0
21,57,13433,83,79,1,2,2,2,15.mid,experiment,0
22,58,13710,81,83,1,2,2,2,15.mid,experiment,0
23,60,13990,84,80,1,2,2,2,15.mid,experiment,0
24,62,14254,81,82,1,2,2,2,15.mid,experiment,0
25,64,14527,78,79,1,2,2,2,15.mid,experiment,0
26,66,14818,79,84,1,2,2,2,15.mid,experiment,0
27,69,15103,79,83,1,2,2,2,15.mid,experiment,0
28,71,15716,79,80,1,2,2,2,15.mid,experiment,0
29,73,16984,77,57,1,2,2,2,15.mid,experiment,0
30,75,17264,77,61,1,2,2,2,15.mid,experiment,0
31,77,17539,76,54,1,2,2,2,15.mid,experiment,0
32,79,17809,76,55,1,2,2,2,15.mid,experiment,0
33,81,18134,74,57,1,2,2,2,15.mid,experiment,0
34,83,19348,79,55,1,2,2,2,15.mid,experiment,0
35,84,19914,77,62,1,2,2,2,15.mid,experiment,0
36,86,20537,76,53,1,2,2,2,15.mid,experiment,0
37,89,20803,76,56,1,2,2,2,15.mid,experiment,0
38,91,21088,76,60,1,2,2,2,15.mid,experiment,0
39,93,21362,76,60,1,2,2,2,15.mid,experiment,0
40,95,21678,81,70,1,2,2,2,15.mid,experiment,0
41,96,21954,77,83,1,2,2,2,15.mid,experiment,0
42,98,22252,76,81,1,2,2,2,15.mid,experiment,0
43,100,22516,74,81,1,2,2,2,15.mid,experiment,0
44,102,22806,76,79,1,2,2,2,15.mid,experiment,0
45,104,23074,79,81,1,2,2,2,15.mid,experiment,0
46,106,23359,74,81,1,2,2,2,15.mid,experiment,0
47,108,23631,71,75,1,2,2,2,15.mid,experiment,0
48,111,23927,72,59,1,2,2,2,15.mid,experiment,0
49,113,24206,72,55,1,2,2,2,15.mid,experiment,0
50,115,24475,74,59,1,2,2,2,15.mid,experiment,0
51,117,24748,74,63,1,2,2,2,15.mid,experiment,0
52,119,25070,76,44,1,2,2,2,15.mid,experiment,0
53,121,26278,65,60,1,2,2,2,15.mid,experiment,0
54,123,26562,65,59,1,2,2,2,15.mid,experiment,0
55,125,26844,64,53,1,2,2,2,15.mid,experiment,0
56,127,27122,64,57,1,2,2,2,15.mid,experiment,0
57,129,27455,62,47,1,2,2,2,15.mid,experiment,0
58,131,28634,67,54,1,2,2,2,15.mid,experiment,0
59,133,28912,67,51,1,2,2,2,15.mid,experiment,0
60,135,29200,71,53,1,2,2,2,15.mid,experiment,0
61,137,29465,71,68,1,2,2,2,15.mid,experiment,0
62,139,29750,72,77,1,2,2,2,15.mid,experiment,0
63,141,30023,72,70,1,2,2,2,15.mid,experiment,0
64,143,30309,73,75,1,2,2,2,15.mid,experiment,0
65,145,30586,73,80,1,2,2,2,15.mid,experiment,0
66,147,30893,74,91,1,2,2,2,15.mid,experiment,0
67,148,31510,77,91,1,2,2,2,15.mid,experiment,0
68,150,32081,76,89,1,2,2,2,15.mid,experiment,0
69,152,32641,74,89,1,2,2,2,15.mid,experiment,0
70,155,33228,72,83,1,2,2,2,15.mid,experiment,0
71,157,33788,84,90,1,2,2,2,15.mid,experiment,0
72,159,34420,84,96,1,2,2,2,15.mid,experiment,0
1,17,7868,79,62,1,2,2,3,2.mid,experiment,0
2,18,8152,78,74,1,2,2,3,2.mid,experiment,0
3,20,8440,79,75,1,2,2,3,2.mid,experiment,0
4,22,8721,76,77,1,2,2,3,2.mid,experiment,0
5,24,9002,72,78,1,2,2,3,2.mid,experiment,0
6,27,9301,67,50,1,2,2,3,2.mid,experiment,0
7,29,9572,67,62,1,2,2,3,2.mid,experiment,0
8,31,9863,67,58,1,2,2,3,2.mid,experiment,0
9,33,10146,79,72,1,2,2,3,2.mid,experiment,0
10,34,10424,78,70,1,2,2,3,2.mid,experiment,0
11,36,10696,79,71,1,2,2,3,2.mid,experiment,0
12,38,10982,76,79,1,2,2,3,2.mid,experiment,0
13,40,11251,72,81,1,2,2,3,2.mid,experiment,0
14,42,11526,76,87,1,2,2,3,2.mid,experiment,0
15,44,11798,79,82,1,2,2,3,2.mid,experiment,0
16,46,12066,84,85,1,2,2,3,2.mid,experiment,0
17,48,12332,83,80,1,2,2,3,2.mid,experiment,0
18,51,12638,81,62,1,2,2,3,2.mid,experiment,0
19,53,12922,81,45,1,2,2,3,2.mid,experiment,0
20,55,13211,81,53,1,2,2,3,2.mid,experiment,0
21,57,13472,83,74,1,2,2,3,2.mid,experiment,0
22,58,13750,81,80,1,2,2,3,2.mid,experiment,0
23,60,14035,84,81,1,2,2,3,2.mid,experiment,0
24,62,14301,81,79,1,2,2,3,2.mid,experiment,0
25,64,14585,78,71,1,2,2,3,2.mid,experiment,0
26,67,14884,79,74,1,2,2,3,2.mid,experiment,0
27,69,15183,79,75,1,2,2,3,2.mid,experiment,0
28,71,15776,79,79,1,2,2,3,2.mid,experiment,0
29,73,17030,77,58,1,2,2,3,2.mid,experiment,0
30,75,17314,77,58,1,2,2,3,2.mid,experiment,0
31,77,17601,76,52,1,2,2,3,2.mid,experiment,0
32,79,17876,76,51,1,2,2,3,2.mid,experiment,0
33,81,18209,74,51,1,2,2,3,2.mid,experiment,0
34,83,19380,79,54,1,2,2,3,2.mid,experiment,0
35,84,19980,77,61,1,2,2,3,2.mid,experiment,0
36,86,20607,76,50,1,2,2,3,2.mid,experiment,0
37,89,20869,76,55,1,2,2,3,2.mid,experiment,0
38,91,21152,76,55,1,2,2,3,2.mid,experiment,0
39,93,21426,76,56,1,2,2,3,2.mid,experiment,0
40,95,21733,81,72,1,2,2,3,2.mid,experiment,0
41,96,22024,77,75,1,2,2,3,2.mid,experiment,0
42,98,22302,76,76,1,2,2,3,2.mid,experiment,0
43,100,22570,74,81,1,2,2,3,2.mid,experiment,0
44,102,22855,76,77,1,2,2,3,2.mid,experiment,0
45,104,23123,79,80,1,2,2,3,2.mid,experiment,0
46,106,23404,74,81,1,2,2,3,2.mid,experiment,0
47,108,23669,71,75,1,2,2,3,2.mid,experiment,0
48,111,23964,72,60,1,2,2,3,2.mid,experiment,0
49,113,24249,72,55,1,2,2,3,2.mid,experiment,0
50,115,24527,74,55,1,2,2,3,2.mid,experiment,0
51,117,24797,74,53,1,2,2,3,2.mid,experiment,0
52,119,25123,76,41,1,2,2,3,2.mid,experiment,0
53,121,26352,65,57,1,2,2,3,2.mid,experiment,0
54,123,26630,65,58,1,2,2,3,2.mid,experiment,0
55,125,26928,64,56,1,2,2,3,2.mid,experiment,0
56,127,27215,64,55,1,2,2,3,2.mid,experiment,0
57,129,27516,62,48,1,2,2,3,2.mid,experiment,0
58,131,28742,67,53,1,2,2,3,2.mid,experiment,0
59,133,29028,67,56,1,2,2,3,2.mid,experiment,0
60,135,29308,71,61,1,2,2,3,2.mid,experiment,0
61,137,29600,71,68,1,2,2,3,2.mid,experiment,0
62,139,29886,72,75,1,2,2,3,2.mid,experiment,0
63,141,30156,72,74,1,2,2,3,2.mid,experiment,0
64,143,30438,73,72,1,2,2,3,2.mid,experiment,0
65,145,30720,73,75,1,2,2,3,2.mid,experiment,0
66,147,31066,74,76,1,2,2,3,2.mid,experiment,0
67,148,31664,77,89,1,2,2,3,2.mid,experiment,0
68,151,32248,76,87,1,2,2,3,2.mid,experiment,0
69,153,32831,74,88,1,2,2,3,2.mid,experiment,0
70,155,33426,72,84,1,2,2,3,2.mid,experiment,0
71,157,34034,84,87,1,2,2,3,2.mid,experiment,0
72,159,34663,84,88,1,2,2,3,2.mid,experiment,0
1,17,7862,79,67,1,2,2,4,4.mid,experiment,0
2,18,8144,78,74,1,2,2,4,4.mid,experiment,0
3,20,8424,79,78,1,2,2,4,4.mid,experiment,0
4,22,8688,76,72,1,2,2,4,4.mid,experiment,0
5,24,8972,72,79,1,2,2,4,4.mid,experiment,0
6,27,9265,67,57,1,2,2,4,4.mid,experiment,0
7,29,9545,67,42,1,2,2,4,4.mid,experiment,0
8,31,9825,67,54,1,2,2,4,4.mid,experiment,0
9,33,10094,79,63,1,2,2,4,4.mid,experiment,0
10,34,10344,78,81,1,2,2,4,4.mid,experiment,0
11,36,10631,79,85,1,2,2,4,4.mid,experiment,0
12,38,10902,76,77,1,2,2,4,4.mid,experiment,0
13,40,11179,72,78,1,2,2,4,4.mid,experiment,0
14,42,11451,76,85,1,2,2,4,4.mid,experiment,0
15,44,11718,79,84,1,2,2,4,4.mid,experiment,0
16,46,11982,84,90,1,2,2,4,4.mid,experiment,0
17,48,12246,83,82,1,2,2,4,4.mid,experiment,0
18,51,12555,81,56,1,2,2,4,4.mid,experiment,0
19,53,12804,81,59,1,2,2,4,4.mid,experiment,0
20,55,13100,81,63,1,2,2,4,4.mid,experiment,0
21,57,13393,83,78,1,2,2,4,4.mid,experiment,0
22,58,13664,81,79,1,2,2,4,4.mid,experiment,0
23,60,13952,84,82,1,2,2,4,4.mid,experiment,0
24,62,14214,81,82,1,2,2,4,4.mid,experiment,0
25,64,14478,78,79,1,2,2,4,4.mid,experiment,0
26,67,14759,79,81,1,2,2,4,4.mid,experiment,0
27,69,15051,79,74,1,2,2,4,4.mid,experiment,0
28,71,15601,79,76,1,2,2,4,4.mid,experiment,0
29,73,16847,77,56,1,2,2,4,4.mid,experiment,0
30,75,17125,77,55,1,2,2,4,4.mid,experiment,0
31,77,17409,76,50,1,2,2,4,4.mid,experiment,0
32,79,17674,76,54,1,2,2,4,4.mid,experiment,0
33,81,17994,74,51,1,2,2,4,4.mid,experiment,0
34,83,19183,79,59,1,2,2,4,4.mid,experiment,0
35,84,19790,77,65,1,2,2,4,4.mid,experiment,0
36,86,20375,76,56,1,2,2,4,4.mid,experiment,0
37,89,20647,76,56,1,2,2,4,4.mid,experiment,0
38,91,20914,76,61,1,2,2,4,4.mid,experiment,0
39,93,21198,76,58,1,2,2,4,4.mid,experiment,0
40,95,21509,81,75,1,2,2,4,4.mid,experiment,0
41,96,21787,77,77,1,2,2,4,4.mid,experiment,0
42,98,22050,76,80,1,2,2,4,4.mid,experiment,0
43,100,22316,74,86,1,2,2,4,4.mid,experiment,0
44,102,22583,76,80,1,2,2,4,4.mid,experiment,0
45,104,22852,79,81,1,2,2,4,4.mid,experiment,0
46,106,23119,74,79,1,2,2,4,4.mid,experiment,0
47,108,23394,71,72,1,2,2,4,4.mid,experiment,0
48,111,23680,72,65,1,2,2,4,4.mid,experiment,0
49,113,23956,72,51,1,2,2,4,4.mid,experiment,0
50,115,24213,74,57,1,2,2,4,4.mid,experiment,0
51,117,24485,74,54,1,2,2,4,4.mid,experiment,0
52,119,24823,76,44,1,2,2,4,4.mid,experiment,0
53,121,26022,65,62,1,2,2,4,4.mid,experiment,0
54,123,26298,65,60,1,2,2,4,4.mid,experiment,0
55,125,26599,64,55,1,2,2,4,4.mid,experiment,0
56,127,26867,64,58,1,2,2,4,4.mid,experiment,0
57,129,27198,62,45,1,2,2,4,4.mid,experiment,0
58,131,28389,67,53,1,2,2,4,4.mid,experiment,0
59,133,28657,67,58,1,2,2,4,4.mid,experiment,0
60,135,28944,71,62,1,2,2,4,4.mid,experiment,0
61,137,29223,71,71,1,2,2,4,4.mid,experiment,0
62,139,29497,72,67,1,2,2,4,4.mid,experiment,0
63,141,29774,72,68,1,2,2,4,4.mid,experiment,0
64,143,30048,73,70,1,2,2,4,4.mid,experiment,0
65,145,30328,73,69,1,2,2,4,4.mid,experiment,0
66,147,30678,74,74,1,2,2,4,4.mid,experiment,0
67,148,31259,77,86,1,2,2,4,4.mid,experiment,0
68,150,31821,76,88,1,2,2,4,4.mid,experiment,0
69,152,32392,74,88,1,2,2,4,4.mid,experiment,0
70,155,32993,72,89,1,2,2,4,4.mid,experiment,0
71,157,33613,84,87,1,2,2,4,4.mid,experiment,0
72,159,34249,84,82,1,2,2,4,4.mid,experiment,0
1,17,7848,79,68,1,2,2,5,12.mid,experiment,0
2,18,8141,78,76,1,2,2,5,12.mid,experiment,0
3,20,8428,79,80,1,2,2,5,12.mid,experiment,0
4,22,8701,76,78,1,2,2,5,12.mid,experiment,0
5,24,8977,72,79,1,2,2,5,12.mid,experiment,0
6,27,9268,67,54,1,2,2,5,12.mid,experiment,0
7,29,9546,67,50,1,2,2,5,12.mid,experiment,0
8,31,9830,67,58,1,2,2,5,12.mid,experiment,0
9,33,10105,79,68,1,2,2,5,12.mid,experiment,0
10,34,10381,78,75,1,2,2,5,12.mid,experiment,0
11,36,10664,79,78,1,2,2,5,12.mid,experiment,0
12,38,10935,76,76,1,2,2,5,12.mid,experiment,0
13,40,11194,72,78,1,2,2,5,12.mid,experiment,0
14,42,11469,76,87,1,2,2,5,12.mid,experiment,0
15,44,11742,79,84,1,2,2,5,12.mid,experiment,0
16,46,12005,84,91,1,2,2,5,12.mid,experiment,0
17,48,12285,83,81,1,2,2,5,12.mid,experiment,0
18,51,12596,81,67,1,2,2,5,12.mid,experiment,0
19,53,12866,81,61,1,2,2,5,12.mid,experiment,0
20,55,13152,81,64,1,2,2,5,12.mid,experiment,0
21,57,13436,83,75,1,2,2,5,12.mid,experiment,0
22,58,13704,81,84,1,2,2,5,12.mid,experiment,0
23,60,13997,84,79,1,2,2,5,12.mid,experiment,0
24,62,14251,81,83,1,2,2,5,12.mid,experiment,0
25,64,14539,78,78,1,2,2,5,12.mid,experiment,0
26,66,14812,79,76,1,2,2,5,12.mid,experiment,0
27,69,15110,79,63,1,2,2,5,12.mid,experiment,0
28,71,15668,79,79,1,2,2,5,12.mid,experiment,0
29,73,16933,77,55,1,2,2,5,12.mid,experiment,0
30,75,17207,77,56,1,2,2,5,12.mid,experiment,0
31,77,17494,76,48,1,2,2,5,12.mid,experiment,0
32,79,17755,76,50,1,2,2,5,12.mid,experiment,0
33,81,18087,74,48,1,2,2,5,12.mid,experiment,0
34,83,19250,79,61,1,2,2,5,12.mid,experiment,0
35,84,19826,77,57,1,2,2,5,12.mid,experiment,0
36,86,20395,76,51,1,2,2,5,12.mid,experiment,0
37,89,20670,76,54,1,2,2,5,12.mid,experiment,0
38,91,20951,76,56,1,2,2,5,12.mid,experiment,0
39,93,21215,76,55,1,2,2,5,12.mid,experiment,0
40,95,21537,81,66,1,2,2,5,12.mid,experiment,0
41,96,21819,77,74,1,2,2,5,12.mid,experiment,0
42,98,22104,76,78,1,2,2,5,12.mid,experiment,0
43,100,22372,74,77,1,2,2,5,12.mid,experiment,0
44,102,22655,76,79,1,2,2,5,12.mid,experiment,0
45,104,22916,79,76,1,2,2,5,12.mid,experiment,0
46,106,23196,74,74,1,2,2,5,12.mid,experiment,0
47,108,23477,71,67,1,2,2,5,12.mid,experiment,0
48,111,23784,72,65,1,2,2,5,12.mid,experiment,0
49,113,24054,72,57,1,2,2,5,12.mid,experiment,0
50,115,24321,74,56,1,2,2,5,12.mid,experiment,0
51,117,24588,74,53,1,2,2,5,12.mid,experiment,0
52,119,24900,76,46,1,2,2,5,12.mid,experiment,0
53,121,26025,65,58,1,2,2,5,12.mid,experiment,0
54,123,26293,65,58,1,2,2,5,12.mid,experiment,0
55,125,26591,64,55,1,2,2,5,12.mid,experiment,0
56,127,26857,64,54,1,2,2,5,12.mid,experiment,0
57,129,27179,62,50,1,2,2,5,12.mid,experiment,0
58,131,28320,67,45,1,2,2,5,12.mid,experiment,0
59,133,28596,67,52,1,2,2,5,12.mid,experiment,0
60,135,28885,71,50,1,2,2,5,12.mid,experiment,0
61,137,29156,71,66,1,2,2,5,12.mid,experiment,0
62,139,29441,72,66,1,2,2,5,12.mid,experiment,0
63,141,29725,72,63,1,2,2,5,12.mid,experiment,0
64,143,29998,73,70,1,2,2,5,12.mid,experiment,0
65,145,30265,73,68,1,2,2,5,12.mid,experiment,0
66,147,30634,74,73,1,2,2,5,12.mid,experiment,0
67,148,31225,77,80,1,2,2,5,12.mid,experiment,0
68,150,31790,76,86,1,2,2,5,12.mid,experiment,0
69,152,32380,74,87,1,2,2,5,12.mid,experiment,0
70,154,32964,72,81,1,2,2,5,12.mid,experiment,0
71,157,33565,84,87,1,2,2,5,12.mid,experiment,0
72,159,34171,84,84,1,2,2,5,12.mid,experiment,0
1,17,7855,79,65,1,2,2,6,3.mid,experiment,0
2,18,8137,78,72,1,2,2,6,3.mid,experiment,0
3,20,8420,79,79,1,2,2,6,3.mid,experiment,0
4,22,8697,76,81,1,2,2,6,3.mid,experiment,0
5,24,8976,72,76,1,2,2,6,3.mid,experiment,0
6,27,9265,67,48,1,2,2,6,3.mid,experiment,0
7,29,9544,67,53,1,2,2,6,3.mid,experiment,0
8,31,9838,67,52,1,2,2,6,3.mid,experiment,0
9,33,10119,79,62,1,2,2,6,3.mid,experiment,0
10,34,10392,78,78,1,2,2,6,3.mid,experiment,0
11,36,10677,79,77,1,2,2,6,3.mid,experiment,0
12,38,10952,76,77,1,2,2,6,3.mid,experiment,0
13,40,11226,72,78,1,2,2,6,3.mid,experiment,0
14,42,11503,76,80,1,2,2,6,3.mid,experiment,0
15,44,11774,79,79,1,2,2,6,3.mid,experiment,0
16,46,12041,84,86,1,2,2,6,3.mid,experiment,0
17,48,12325,83,80,1,2,2,6,3.mid,experiment,0
18,51,12621,81,57,1,2,2,6,3.mid,experiment,0
19,53,12882,81,56,1,2,2,6,3.mid,experiment,0
20,55,13178,81,60,1,2,2,6,3.mid,experiment,0
21,57,13470,83,74,1,2,2,6,3.mid,experiment,0
22,58,13740,81,85,1,2,2,6,3.mid,experiment,0
23,60,14036,84,85,1,2,2,6,3.mid,experiment,0
24,62,14298,81,85,1,2,2,6,3.mid,experiment,0
25,64,14566,78,79,1,2,2,6,3.mid,experiment,0
26,67,14861,79,79,1,2,2,6,3.mid,experiment,0
27,69,15146,79,79,1,2,2,6,3.mid,experiment,0
28,71,15729,79,75,1,2,2,6,3.mid,experiment,0
29,73,16991,77,57,1,2,2,6,3.mid,experiment,0
30,75,17274,77,55,1,2,2,6,3.mid,experiment,0
31,77,17546,76,53,1,2,2,6,3.mid,experiment,0
32,79,17823,76,50,1,2,2,6,3.mid,experiment,0
33,81,18156,74,52,1,2,2,6,3.mid,experiment,0
34,83,19404,79,51,1,2,2,6,3.mid,experiment,0
35,84,19987,77,62,1,2,2,6,3.mid,experiment,0
36,86,20591,76,49,1,2,2,6,3.mid,experiment,0
37,89,20866,76,54,1,2,2,6,3.mid,experiment,0
38,91,21136,76,56,1,2,2,6,3.mid,experiment,0
39,93,21420,76,58,1,2,2,6,3.mid,experiment,0
40,95,21728,81,71,1,2,2,6,3.mid,experiment,0
41,96,22017,77,77,1,2,2,6,3.mid,experiment,0
42,98,22301,76,77,1,2,2,6,3.mid,experiment,0
43,100,22564,74,85,1,2,2,6,3.mid,experiment,0
44,102,22835,76,81,1,2,2,6,3.mid,experiment,0
45,104,23099,79,81,1,2,2,6,3.mid,experiment,0
46,106,23378,74,79,1,2,2,6,3.mid,experiment,0
47,108,23659,71,71,1,2,2,6,3.mid,experiment,0
48,111,23943,72,61,1,2,2,6,3.mid,experiment,0
49,113,24229,72,55,1,2,2,6,3.mid,experiment,0
50,115,24493,74,54,1,2,2,6,3.mid,experiment,0
51,117,24765,74,62,1,2,2,6,3.mid,experiment,0
52,119,25086,76,47,1,2,2,6,3.mid,experiment,0
53,121,26278,65,57,1,2,2,6,3.mid,experiment,0
54,123,26547,65,63,1,2,2,6,3.mid,experiment,0
55,125,26848,64,50,1,2,2,6,3.mid,experiment,0
56,127,27127,64,55,1,2,2,6,3.mid,experiment,0
57,129,27466,62,44,1,2,2,6,3.mid,experiment,0
58,131,28663,67,48,1,2,2,6,3.mid,experiment,0
59,133,28948,67,58,1,2,2,6,3.mid,experiment,0
60,135,29251,71,46,1,2,2,6,3.mid,experiment,0
61,137,29507,71,63,1,2,2,6,3.mid,experiment,0
62,139,29785,72,71,1,2,2,6,3.mid,experiment,0
63,141,30058,72,69,1,2,2,6,3.mid,experiment,0
64,143,30348,73,72,1,2,2,6,3.mid,experiment,0
65,145,30628,73,69,1,2,2,6,3.mid,experiment,0
66,147,30967,74,74,1,2,2,6,3.mid,experiment,0
67,148,31558,77,86,1,2,2,6,3.mid,experiment,0
68,150,32132,76,83,1,2,2,6,3.mid,experiment,0
69,152,32712,74,87,1,2,2,6,3.mid,experiment,0
70,154,33308,72,85,1,2,2,6,3.mid,experiment,0
71,157,33890,84,91,1,2,2,6,3.mid,experiment,0
72,159,34517,84,91,1,2,2,6,3.mid,experiment,0
1,17,7843,79,70,1,2,2,7,10.mid,experiment,0
2,18,8143,78,76,1,2,2,7,10.mid,experiment,0
3,20,8409,79,79,1,2,2,7,10.mid,experiment,0
4,22,8691,76,79,1,2,2,7,10.mid,experiment,0
5,24,8981,72,78,1,2,2,7,10.mid,experiment,0
6,27,9259,67,55,1,2,2,7,10.mid,experiment,0
7,29,9541,67,46,1,2,2,7,10.mid,experiment,0
8,31,9831,67,51,1,2,2,7,10.mid,experiment,0
9,33,10109,79,68,1,2,2,7,10.mid,experiment,0
10,34,10385,78,70,1,2,2,7,10.mid,experiment,0
11,36,10673,79,75,1,2,2,7,10.mid,experiment,0
12,38,10937,76,76,1,2,2,7,10.mid,experiment,0
13,40,11216,72,79,1,2,2,7,10.mid,experiment,0
14,42,11485,76,81,1,2,2,7,10.mid,experiment,0
15,44,11741,79,83,1,2,2,7,10.mid,experiment,0
16,46,12013,84,88,1,2,2,7,10.mid,experiment,0
17,48,12281,83,81,1,2,2,7,10.mid,experiment,0
18,51,12555,81,63,1,2,2,7,10.mid,experiment,0
19,53,12840,81,58,1,2,2,7,10.mid,experiment,0
20,55,13131,81,47,1,2,2,7,10.mid,experiment,0
21,57,13407,83,70,1,2,2,7,10.mid,experiment,0
22,58,13681,81,82,1,2,2,7,10.mid,experiment,0
23,60,13963,84,81,1,2,2,7,10.mid,experiment,0
24,62,14221,81,82,1,2,2,7,10.mid,experiment,0
25,64,14507,78,75,1,2,2,7,10.mid,experiment,0
26,67,14803,79,81,1,2,2,7,10.mid,experiment,0
27,69,15076,79,70,1,2,2,7,10.mid,experiment,0
28,71,15659,79,80,1,2,2,7,10.mid,experiment,0
29,73,16973,77,56,1,2,2,7,10.mid,experiment,0
30,75,17243,77,62,1,2,2,7,10.mid,experiment,0
31,77,17527,76,55,1,2,2,7,10.mid,experiment,0
32,79,17794,76,54,1,2,2,7,10.mid,experiment,0
33,81,18135,74,48,1,2,2,7,10.mid,experiment,0
34,83,19297,79,57,1,2,2,7,10.mid,experiment,0
35,85,19903,77,55,1,2,2,7,10.mid,experiment,0
36,87,20503,76,51,1,2,2,7,10.mid,experiment,0
37,89,20772,76,55,1,2,2,7,10.mid,experiment,0
38,91,21041,76,55,1,2,2,7,10.mid,experiment,0
39,93,21320,76,56,1,2,2,7,10.mid,experiment,0
40,95,21628,81,76,1,2,2,7,10.mid,experiment,0
41,96,21909,77,75,1,2,2,7,10.mid,experiment,0
42,98,22175,76,80,1,2,2,7,10.mid,experiment,0
43,100,22445,74,84,1,2,2,7,10.mid,experiment,0
44,102,22717,76,81,1,2,2,7,10.mid,experiment,0
45,104,22985,79,81,1,2,2,7,10.mid,experiment,0
46,106,23253,74,79,1,2,2,7,10.mid,experiment,0
47,108,23533,71,73,1,2,2,7,10.mid,experiment,0
48,111,23807,72,62,1,2,2,7,10.mid,experiment,0
49,113,24087,72,57,1,2,2,7,10.mid,experiment,0
50,115,24357,74,56,1,2,2,7,10.mid,experiment,0
51,117,24617,74,59,1,2,2,7,10.mid,experiment,0
52,119,24935,76,46,1,2,2,7,10.mid,experiment,0
53,121,26151,65,58,1,2,2,7,10.mid,experiment,0
54,123,26429,65,58,1,2,2,7,10.mid,experiment,0
55,125,26979,64,60,1,2,2,7,10.mid,experiment,0
56,127,27253,64,60,1,2,2,7,10.mid,experiment,0
57,129,27557,62,51,1,2,2,7,10.mid,experiment,0
58,131,28729,67,47,1,2,2,7,10.mid,experiment,0
59,133,29003,67,52,1,2,2,7,10.mid,experiment,0
60,135,29279,71,60,1,2,2,7,10.mid,experiment,0
61,137,29568,71,68,1,2,2,7,10.mid,experiment,0
62,139,29834,72,70,1,2,2,7,10.mid,experiment,0
63,141,30123,72,75,1,2,2,7,10.mid,experiment,0
64,143,30388,73,74,1,2,2,7,10.mid,experiment,0
65,145,30674,73,76,1,2,2,7,10.mid,experiment,0
66,147,30989,74,83,1,2,2,7,10.mid,experiment,0
67,149,31595,77,86,1,2,2,7,10.mid,experiment,0
68,151,32171,76,90,1,2,2,7,10.mid,experiment,0
69,153,32751,74,90,1,2,2,7,10.mid,experiment,0
70,155,33359,72,81,1,2,2,7,10.mid,experiment,0
71,157,33957,84,91,1,2,2,7,10.mid,experiment,0
72,159,34605,84,94,1,2,2,7,10.mid,experiment,0
1,17,7819,79,70,1,2,2,8,8.mid,experiment,0
2,18,8105,78,75,1,2,2,8,8.mid,experiment,0
3,20,8380,79,81,1,2,2,8,8.mid,experiment,0
4,22,8649,76,80,1,2,2,8,8.mid,experiment,0
5,24,8938,72,73,1,2,2,8,8.mid,experiment,0
6,27,9225,67,44,1,2,2,8,8.mid,experiment,0
7,29,9497,67,52,1,2,2,8,8.mid,experiment,0
8,31,9791,67,53,1,2,2,8,8.mid,experiment,0
9,33,10051,79,63,1,2,2,8,8.mid,experiment,0
10,34,10321,78,72,1,2,2,8,8.mid,experiment,0
11,36,10608,79,75,1,2,2,8,8.mid,experiment,0
12,38,10881,76,74,1,2,2,8,8.mid,experiment,0
13,40,11150,72,73,1,2,2,8,8.mid,experiment,0
14,42,11430,76,81,1,2,2,8,8.mid,experiment,0
15,44,11699,79,83,1,2,2,8,8.mid,experiment,0
16,46,11967,84,87,1,2,2,8,8.mid,experiment,0
17,48,12240,83,82,1,2,2,8,8.mid,experiment,0
18,51,12546,81,55,1,2,2,8,8.mid,experiment,0
19,53,12790,81,56,1,2,2,8,8.mid,experiment,0
20,55,13077,81,57,1,2,2,8,8.mid,experiment,0
21,57,13364,83,79,1,2,2,8,8.mid,experiment,0
22,58,13634,81,80,1,2,2,8,8.mid,experiment,0
23,60,13912,84,81,1,2,2,8,8.mid,experiment,0
24,62,14178,81,79,1,2,2,8,8.mid,experiment,0
25,64,14449,78,73,1,2,2,8,8.mid,experiment,0
26,67,14721,79,78,1,2,2,8,8.mid,experiment,0
27,69,15013,79,72,1,2,2,8,8.mid,experiment,0
28,71,15581,79,76,1,2,2,8,8.mid,experiment,0
29,73,16808,77,55,1,2,2,8,8.mid,experiment,0
30,75,17079,77,63,1,2,2,8,8.mid,experiment,0
31,77,17353,76,52,1,2,2,8,8.mid,experiment,0
32,79,17631,76,52,1,2,2,8,8.mid,experiment,0
33,81,17944,74,56,1,2,2,8,8.mid,experiment,0
34,83,19151,79,58,1,2,2,8,8.mid,experiment,0
35,84,19712,77,63,1,2,2,8,8.mid,experiment,0
36,86,20310,76,48,1,2,2,8,8.mid,experiment,0
37,89,20588,76,54,1,2,2,8,8.mid,experiment,0
38,91,20863,76,57,1,2,2,8,8.mid,experiment,0
39,93,21152,76,56,1,2,2,8,8.mid,experiment,0
40,95,21443,81,72,1,2,2,8,8.mid,experiment,0
41,96,21718,77,75,1,2,2,8,8.mid,experiment,0
42,98,21988,76,75,1,2,2,8,8.mid,experiment,0
43,100,22256,74,82,1,2,2,8,8.mid,experiment,0
44,102,22531,76,80,1,2,2,8,8.mid,experiment,0
45,104,22790,79,81,1,2,2,8,8.mid,experiment,0
46,106,23072,74,81,1,2,2,8,8.mid,experiment,0
47,108,23340,71,73,1,2,2,8,8.mid,experiment,0
48,111,23630,72,59,1,2,2,8,8.mid,experiment,0
49,113,23911,72,50,1,2,2,8,8.mid,experiment,0
50,115,24173,74,56,1,2,2,8,8.mid,experiment,0
51,117,24438,74,55,1,2,2,8,8.mid,experiment,0
52,119,24754,76,46,1,2,2,8,8.mid,experiment,0
53,121,25965,65,61,1,2,2,8,8.mid,experiment,0
54,123,26239,65,65,1,2,2,8,8.mid,experiment,0
55,125,26541,64,52,1,2,2,8,8.mid,experiment,0
56,127,26819,64,57,1,2,2,8,8.mid,experiment,0
57,129,27136,62,50,1,2,2,8,8.mid,experiment,0
58,131,28309,67,53,1,2,2,8,8.mid,experiment,0
59,133,28576,67,58,1,2,2,8,8.mid,experiment,0
60,135,28865,71,60,1,2,2,8,8.mid,experiment,0
61,137,29145,71,70,1,2,2,8,8.mid,experiment,0
62,139,29407,72,72,1,2,2,8,8.mid,experiment,0
63,141,29687,72,68,1,2,2,8,8.mid,experiment,0
64,143,29959,73,68,1,2,2,8,8.mid,experiment,0
65,145,30243,73,74,1,2,2,8,8.mid,experiment,0
66,147,30600,74,79,1,2,2,8,8.mid,experiment,0
67,149,31187,77,86,1,2,2,8,8.mid,experiment,0
68,151,31760,76,87,1,2,2,8,8.mid,experiment,0
69,153,32316,74,91,1,2,2,8,8.mid,experiment,0
70,155,32889,72,91,1,2,2,8,8.mid,experiment,0
71,157,33504,84,93,1,2,2,8,8.mid,experiment,0
72,159,34128,84,89,1,2,2,8,8.mid,experiment,0
1,17,7820,79,67,1,2,2,9,5.mid,experiment,0
2,18,8112,78,71,1,2,2,9,5.mid,experiment,0
3,20,8388,79,83,1,2,2,9,5.mid,experiment,0
4,22,8656,76,79,1,2,2,9,5.mid,experiment,0
5,24,8932,72,80,1,2,2,9,5.mid,experiment,0
6,27,9234,67,55,1,2,2,9,5.mid,experiment,0
7,29,9514,67,50,1,2,2,9,5.mid,experiment,0
8,31,9800,67,57,1,2,2,9,5.mid,experiment,0
9,33,10084,79,70,1,2,2,9,5.mid,experiment,0
10,34,10363,78,78,1,2,2,9,5.mid,experiment,0
11,36,10638,79,81,1,2,2,9,5.mid,experiment,0
12,38,10916,76,79,1,2,2,9,5.mid,experiment,0
13,40,11186,72,78,1,2,2,9,5.mid,experiment,0
14,42,11460,76,81,1,2,2,9,5.mid,experiment,0
15,44,11734,79,82,1,2,2,9,5.mid,experiment,0
16,46,11993,84,89,1,2,2,9,5.mid,experiment,0
17,48,12272,83,83,1,2,2,9,5.mid,experiment,0
18,51,12570,81,58,1,2,2,9,5.mid,experiment,0
19,53,12836,81,54,1,2,2,9,5.mid,experiment,0
20,55,13138,81,59,1,2,2,9,5.mid,experiment,0
21,57,13408,83,72,1,2,2,9,5.mid,experiment,0
22,58,13685,81,79,1,2,2,9,5.mid,experiment,0
23,60,13963,84,83,1,2,2,9,5.mid,experiment,0
24,62,14230,81,81,1,2,2,9,5.mid,experiment,0
25,64,14519,78,73,1,2,2,9,5.mid,experiment,0
26,67,14796,79,78,1,2,2,9,5.mid,experiment,0
27,69,15104,79,76,1,2,2,9,5.mid,experiment,0
28,71,15638,79,78,1,2,2,9,5.mid,experiment,0
29,73,16874,77,57,1,2,2,9,5.mid,experiment,0
30,75,17140,77,55,1,2,2,9,5.mid,experiment,0
31,77,17423,76,53,1,2,2,9,5.mid,experiment,0
32,79,17694,76,52,1,2,2,9,5.mid,experiment,0
33,81,18038,74,49,1,2,2,9,5.mid,experiment,0
34,83,19220,79,57,1,2,2,9,5.mid,experiment,0
35,85,19810,77,61,1,2,2,9,5.mid,experiment,0
36,87,20425,76,49,1,2,2,9,5.mid,experiment,0
37,89,20688,76,55,1,2,2,9,5.mid,experiment,0
38,91,20964,76,56,1,2,2,9,5.mid,experiment,0
39,93,21250,76,56,1,2,2,9,5.mid,experiment,0
40,95,21553,81,72,1,2,2,9,5.mid,experiment,0
41,96,21833,77,81,1,2,2,9,5.mid,experiment,0
42,98,22104,76,78,1,2,2,9,5.mid,experiment,0
43,100,22374,74,84,1,2,2,9,5.mid,experiment,0
44,102,22646,76,80,1,2,2,9,5.mid,experiment,0
45,104,22912,79,82,1,2,2,9,5.mid,experiment,0
46,106,23198,74,80,1,2,2,9,5.mid,experiment,0
47,108,23468,71,73,1,2,2,9,5.mid,experiment,0
48,111,23746,72,66,1,2,2,9,5.mid,experiment,0
49,113,24026,72,60,1,2,2,9,5.mid,experiment,0
50,115,24293,74,57,1,2,2,9,5.mid,experiment,0
51,117,24568,74,56,1,2,2,9,5.mid,experiment,0
52,119,24878,76,48,1,2,2,9,5.mid,experiment,0
53,121,26132,65,58,1,2,2,9,5.mid,experiment,0
54,123,26412,65,58,1,2,2,9,5.mid,experiment,0
55,125,26706,64,48,1,2,2,9,5.mid,experiment,0
56,127,26974,64,60,1,2,2,9,5.mid,experiment,0
57,129,27322,62,46,1,2,2,9,5.mid,experiment,0
58,131,28492,67,52,1,2,2,9,5.mid,experiment,0
59,133,28772,67,58,1,2,2,9,5.mid,experiment,0
60,135,29046,71,57,1,2,2,9,5.mid,experiment,0
61,137,29322,71,65,1,2,2,9,5.mid,experiment,0
62,139,29598,72,71,1,2,2,9,5.mid,experiment,0
63,141,29872,72,67,1,2,2,9,5.mid,experiment,0
64,143,30148,73,70,1,2,2,9,5.mid,experiment,0
65,145,30424,73,73,1,2,2,9,5.mid,experiment,0
66,147,30778,74,79,1,2,2,9,5.mid,experiment,0
67,149,31341,77,86,1,2,2,9,5.mid,experiment,0
68,151,31926,76,85,1,2,2,9,5.mid,experiment,0
69,153,32494,74,88,1,2,2,9,5.mid,experiment,0
70,155,33088,72,85,1,2,2,9,5.mid,experiment,0
71,157,33682,84,84,1,2,2,9,5.mid,experiment,0
72,159,34334,84,93,1,2,2,9,5.mid,experiment,0
1,17,7835,79,71,1,2,2,10,11.mid,experiment,0
2,18,8121,78,80,1,2,2,10,11.mid,experiment,0
3,20,8424,79,82,1,2,2,10,11.mid,experiment,0
4,22,8694,76,79,1,2,2,10,11.mid,experiment,0
5,24,8992,72,79,1,2,2,10,11.mid,experiment,0
6,27,9295,67,52,1,2,2,10,11.mid,experiment,0
7,29,9583,67,44,1,2,2,10,11.mid,experiment,0
8,31,9869,67,50,1,2,2,10,11.mid,experiment,0
9,33,10159,79,68,1,2,2,10,11.mid,experiment,0
10,34,10433,78,75,1,2,2,10,11.mid,experiment,0
11,36,10722,79,85,1,2,2,10,11.mid,experiment,0
12,38,11004,76,79,1,2,2,10,11.mid,experiment,0
13,40,11271,72,75,1,2,2,10,11.mid,experiment,0
14,42,11563,76,79,1,2,2,10,11.mid,experiment,0
15,44,11836,79,88,1,2,2,10,11.mid,experiment,0
16,46,12105,84,93,1,2,2,10,11.mid,experiment,0
17,48,12394,83,86,1,2,2,10,11.mid,experiment,0
18,51,12681,81,67,1,2,2,10,11.mid,experiment,0
19,53,12961,81,53,1,2,2,10,11.mid,experiment,0
20,55,13247,81,56,1,2,2,10,11.mid,experiment,0
21,57,13521,83,80,1,2,2,10,11.mid,experiment,0
22,58,13795,81,81,1,2,2,10,11.mid,experiment,0
23,60,14091,84,88,1,2,2,10,11.mid,experiment,0
24,62,14359,81,75,1,2,2,10,11.mid,experiment,0
25,64,14644,78,79,1,2,2,10,11.mid,experiment,0
26,67,14927,79,82,1,2,2,10,11.mid,experiment,0
27,69,15229,79,83,1,2,2,10,11.mid,experiment,0
28,71,15822,79,75,1,2,2,10,11.mid,experiment,0
29,73,17061,77,54,1,2,2,10,11.mid,experiment,0
30,75,17339,77,55,1,2,2,10,11.mid,experiment,0
31,77,17617,76,53,1,2,2,10,11.mid,experiment,0
32,79,17885,76,55,1,2,2,10,11.mid,experiment,0
33,81,18208,74,57,1,2,2,10,11.mid,experiment,0
34,83,19394,79,55,1,2,2,10,11.mid,experiment,0
35,84,19975,77,60,1,2,2,10,11.mid,experiment,0
36,86,20547,76,57,1,2,2,10,11.mid,experiment,0
37,89,20838,76,54,1,2,2,10,11.mid,experiment,0
38,91,21110,76,53,1,2,2,10,11.mid,experiment,0
39,93,21389,76,52,1,2,2,10,11.mid,experiment,0
40,95,21691,81,71,1,2,2,10,11.mid,experiment,0
41,96,21967,77,79,1,2,2,10,11.mid,experiment,0
42,98,22246,76,75,1,2,2,10,11.mid,experiment,0
43,100,22507,74,81,1,2,2,10,11.mid,experiment,0
44,102,22791,76,81,1,2,2,10,11.mid,experiment,0
45,104,23051,79,81,1,2,2,10,11.mid,experiment,0
46,106,23331,74,80,1,2,2,10,11.mid,experiment,0
47,108,23606,71,74,1,2,2,10,11.mid,experiment,0
48,111,23898,72,57,1,2,2,10,11.mid,experiment,0
49,113,24167,72,57,1,2,2,10,11.mid,experiment,0
50,115,24440,74,58,1,2,2,10,11.mid,experiment,0
51,117,24716,74,54,1,2,2,10,11.mid,experiment,0
52,119,25053,76,40,1,2,2,10,11.mid,experiment,0
53,121,26239,65,57,1,2,2,10,11.mid,experiment,0
54,123,26507,65,62,1,2,2,10,11.mid,experiment,0
55,125,26799,64,55,1,2,2,10,11.mid,experiment,0
56,127,27074,64,55,1,2,2,10,11.mid,experiment,0
57,129,27392,62,51,1,2,2,10,11.mid,experiment,0
58,131,28590,67,44,1,2,2,10,11.mid,experiment,0
59,133,28859,67,62,1,2,2,10,11.mid,experiment,0
60,135,29141,71,62,1,2,2,10,11.mid,experiment,0
61,137,29430,71,70,1,2,2,10,11.mid,experiment,0
62,139,29702,72,70,1,2,2,10,11.mid,experiment,0
63,141,29989,72,70,1,2,2,10,11.mid,experiment,0
64,143,30261,73,75,1,2,2,10,11.mid,experiment,0
65,145,30536,73,79,1,2,2,10,11.mid,experiment,0
66,147,30883,74,84,1,2,2,10,11.mid,experiment,0
67,148,31479,77,95,1,2,2,10,11.mid,experiment,0
68,151,32047,76,88,1,2,2,10,11.mid,experiment,0
69,153,32613,74,91,1,2,2,10,11.mid,experiment,0
70,155,33194,72,81,1,2,2,10,11.mid,experiment,0
71,157,33812,84,90,1,2,2,10,11.mid,experiment,0
72,159,34399,84,79,1,2,2,10,11.mid,experiment,0
1,17,7856,79,71,1,2,2,11,9.mid,experiment,0
2,18,8131,78,76,1,2,2,11,9.mid,experiment,0
3,20,8422,79,82,1,2,2,11,9.mid,experiment,0
4,22,8688,76,81,1,2,2,11,9.mid,experiment,0
5,24,8982,72,78,1,2,2,11,9.mid,experiment,0
6,27,9268,67,53,1,2,2,11,9.mid,experiment,0
7,29,9553,67,45,1,2,2,11,9.mid,experiment,0
8,31,9839,67,57,1,2,2,11,9.mid,experiment,0
9,33,10119,79,70,1,2,2,11,9.mid,experiment,0
10,34,10395,78,79,1,2,2,11,9.mid,experiment,0
11,36,10676,79,80,1,2,2,11,9.mid,experiment,0
12,38,10953,76,76,1,2,2,11,9.mid,experiment,0
13,40,11231,72,78,1,2,2,11,9.mid,experiment,0
14,42,11499,76,84,1,2,2,11,9.mid,experiment,0
15,44,11771,79,83,1,2,2,11,9.mid,experiment,0
16,46,12035,84,89,1,2,2,11,9.mid,experiment,0
17,48,12316,83,80,1,2,2,11,9.mid,experiment,0
18,51,12618,81,54,1,2,2,11,9.mid,experiment,0
19,53,12889,81,51,1,2,2,11,9.mid,experiment,0
20,55,13174,81,51,1,2,2,11,9.mid,experiment,0
21,57,13458,83,73,1,2,2,11,9.mid,experiment,0
22,58,13735,81,81,1,2,2,11,9.mid,experiment,0
23,60,14007,84,82,1,2,2,11,9.mid,experiment,0
24,62,14280,81,83,1,2,2,11,9.mid,experiment,0
25,64,14557,78,74,1,2,2,11,9.mid,experiment,0
26,67,14832,79,77,1,2,2,11,9.mid,experiment,0
27,69,15140,79,75,1,2,2,11,9.mid,experiment,0
28,71,15723,79,85,1,2,2,11,9.mid,experiment,0
29,73,17033,77,53,1,2,2,11,9.mid,experiment,0
30,75,17315,77,54,1,2,2,11,9.mid,experiment,0
31,77,17582,76,55,1,2,2,11,9.mid,experiment,0
32,79,17863,76,49,1,2,2,11,9.mid,experiment,0
33,81,18174,74,51,1,2,2,11,9.mid,experiment,0
34,83,19356,79,65,1,2,2,11,9.mid,experiment,0
35,84,19949,77,63,1,2,2,11,9.mid,experiment,0
36,86,20548,76,54,1,2,2,11,9.mid,experiment,0
37,89,20840,76,44,1,2,2,11,9.mid,experiment,0
38,91,21103,76,47,1,2,2,11,9.mid,experiment,0
39,93,21383,76,51,1,2,2,11,9.mid,experiment,0
40,95,21698,81,68,1,2,2,11,9.mid,experiment,0
41,96,21980,77,77,1,2,2,11,9.mid,experiment,0
42,98,22254,76,81,1,2,2,11,9.mid,experiment,0
43,100,22519,74,83,1,2,2,11,9.mid,experiment,0
44,102,22788,76,81,1,2,2,11,9.mid,experiment,0
45,104,23062,79,83,1,2,2,11,9.mid,experiment,0
46,106,23333,74,83,1,2,2,11,9.mid,experiment,0
47,108,23611,71,72,1,2,2,11,9.mid,experiment,0
48,111,23910,72,53,1,2,2,11,9.mid,experiment,0
49,113,24177,72,53,1,2,2,11,9.mid,experiment,0
50,115,24450,74,53,1,2,2,11,9.mid,experiment,0
51,117,24724,74,49,1,2,2,11,9.mid,experiment,0
52,119,25056,76,46,1,2,2,11,9.mid,experiment,0
53,121,26277,65,56,1,2,2,11,9.mid,experiment,0
54,123,26557,65,58,1,2,2,11,9.mid,experiment,0
55,125,26858,64,50,1,2,2,11,9.mid,experiment,0
56,127,27132,64,53,1,2,2,11,9.mid,experiment,0
57,129,27486,62,45,1,2,2,11,9.mid,experiment,0
58,131,28658,67,52,1,2,2,11,9.mid,experiment,0
59,133,28942,67,45,1,2,2,11,9.mid,experiment,0
60,135,29221,71,57,1,2,2,11,9.mid,experiment,0
61,137,29504,71,63,1,2,2,11,9.mid,experiment,0
62,139,29763,72,71,1,2,2,11,9.mid,experiment,0
63,141,30046,72,66,1,2,2,11,9.mid,experiment,0
64,143,30332,73,70,1,2,2,11,9.mid,experiment,0
65,145,30609,73,76,1,2,2,11,9.mid,experiment,0
66,147,30967,74,83,1,2,2,11,9.mid,experiment,0
67,149,31529,77,89,1,2,2,11,9.mid,experiment,0
68,151,32083,76,85,1,2,2,11,9.mid,experiment,0
69,153,32653,74,91,1,2,2,11,9.mid,experiment,0
70,155,33252,72,90,1,2,2,11,9.mid,experiment,0
71,157,33850,84,86,1,2,2,11,9.mid,experiment,0
72,159,34488,84,94,1,2,2,11,9.mid,experiment,0
1,17,7853,79,67,1,2,2,12,1.mid,experiment,0
2,18,8144,78,77,1,2,2,12,1.mid,experiment,0
3,20,8428,79,81,1,2,2,12,1.mid,experiment,0
4,22,8691,76,81,1,2,2,12,1.mid,experiment,0
5,24,8987,72,79,1,2,2,12,1.mid,experiment,0
6,27,9291,67,52,1,2,2,12,1.mid,experiment,0
7,29,9569,67,42,1,2,2,12,1.mid,experiment,0
8,31,9849,67,62,1,2,2,12,1.mid,experiment,0
9,33,10124,79,68,1,2,2,12,1.mid,experiment,0
10,34,10394,78,78,1,2,2,12,1.mid,experiment,0
11,36,10679,79,77,1,2,2,12,1.mid,experiment,0
12,38,10958,76,73,1,2,2,12,1.mid,experiment,0
13,40,11237,72,77,1,2,2,12,1.mid,experiment,0
14,42,11507,76,83,1,2,2,12,1.mid,experiment,0
15,44,11776,79,83,1,2,2,12,1.mid,experiment,0
16,46,12056,84,90,1,2,2,12,1.mid,experiment,0
17,48,12326,83,83,1,2,2,12,1.mid,experiment,0
18,51,12628,81,63,1,2,2,12,1.mid,experiment,0
19,53,12902,81,60,1,2,2,12,1.mid,experiment,0
20,55,13189,81,61,1,2,2,12,1.mid,experiment,0
21,57,13473,83,71,1,2,2,12,1.mid,experiment,0
22,58,13745,81,81,1,2,2,12,1.mid,experiment,0
23,60,14024,84,83,1,2,2,12,1.mid,experiment,0
24,62,14287,81,80,1,2,2,12,1.mid,experiment,0
25,64,14561,78,75,1,2,2,12,1.mid,experiment,0
26,67,14848,79,82,1,2,2,12,1.mid,experiment,0
27,69,15149,79,76,1,2,2,12,1.mid,experiment,0
28,71,15750,79,84,1,2,2,12,1.mid,experiment,0
29,73,16981,77,55,1,2,2,12,1.mid,experiment,0
30,75,17257,77,57,1,2,2,12,1.mid,experiment,0
31,77,17520,76,56,1,2,2,12,1.mid,experiment,0
32,79,17795,76,54,1,2,2,12,1.mid,experiment,0
33,81,18119,74,51,1,2,2,12,1.mid,experiment,0
34,83,19288,79,55,1,2,2,12,1.mid,experiment,0
35,84,19867,77,65,1,2,2,12,1.mid,experiment,0
36,86,20444,76,58,1,2,2,12,1.mid,experiment,0
37,89,20733,76,51,1,2,2,12,1.mid,experiment,0
38,91,21009,76,56,1,2,2,12,1.mid,experiment,0
39,93,21287,76,53,1,2,2,12,1.mid,experiment,0
40,95,21587,81,70,1,2,2,12,1.mid,experiment,0
41,96,21862,77,79,1,2,2,12,1.mid,experiment,0
42,98,22129,76,79,1,2,2,12,1.mid,experiment,0
43,100,22396,74,82,1,2,2,12,1.mid,experiment,0
44,102,22674,76,81,1,2,2,12,1.mid,experiment,0
45,104,22932,79,81,1,2,2,12,1.mid,experiment,0
46,106,23218,74,81,1,2,2,12,1.mid,experiment,0
47,108,23494,71,78,1,2,2,12,1.mid,experiment,0
48,111,23778,72,58,1,2,2,12,1.mid,experiment,0
49,113,24044,72,54,1,2,2,12,1.mid,experiment,0
50,115,24312,74,60,1,2,2,12,1.mid,experiment,0
51,117,24574,74,57,1,2,2,12,1.mid,experiment,0
52,119,24898,76,48,1,2,2,12,1.mid,experiment,0
53,121,26158,65,58,1,2,2,12,1.mid,experiment,0
54,123,26437,65,58,1,2,2,12,1.mid,experiment,0
55,125,26725,64,51,1,2,2,12,1.mid,experiment,0
56,127,27002,64,49,1,2,2,12,1.mid,experiment,0
57,129,27342,62,41,1,2,2,12,1.mid,experiment,0
58,131,28496,67,54,1,2,2,12,1.mid,experiment,0
59,133,28759,67,59,1,2,2,12,1.mid,experiment,0
60,135,29051,71,60,1,2,2,12,1.mid,experiment,0
61,137,29327,71,64,1,2,2,12,1.mid,experiment,0
62,139,29606,72,67,1,2,2,12,1.mid,experiment,0
63,141,29882,72,62,1,2,2,12,1.mid,experiment,0
64,143,30149,73,66,1,2,2,12,1.mid,experiment,0
65,145,30421,73,68,1,2,2,12,1.mid,experiment,0
66,147,30780,74,75,1,2,2,12,1.mid,experiment,0
67,149,31346,77,86,1,2,2,12,1.mid,experiment,0
68,151,31927,76,89,1,2,2,12,1.mid,experiment,0
69,153,32495,74,88,1,2,2,12,1.mid,experiment,0
70,155,33098,72,80,1,2,2,12,1.mid,experiment,0
71,157,33704,84,90,1,2,2,12,1.mid,experiment,0
72,159,34338,84,90,1,2,2,12,1.mid,experiment,0
1,17,7823,79,66,1,2,2,13,6.mid,experiment,0
2,18,8097,78,74,1,2,2,13,6.mid,experiment,0
3,20,8388,79,77,1,2,2,13,6.mid,experiment,0
4,22,8661,76,74,1,2,2,13,6.mid,experiment,0
5,24,8939,72,75,1,2,2,13,6.mid,experiment,0
6,27,9227,67,56,1,2,2,13,6.mid,experiment,0
7,29,9519,67,50,1,2,2,13,6.mid,experiment,0
8,31,9799,67,45,1,2,2,13,6.mid,experiment,0
9,33,10085,79,67,1,2,2,13,6.mid,experiment,0
10,34,10348,78,77,1,2,2,13,6.mid,experiment,0
11,36,10625,79,77,1,2,2,13,6.mid,experiment,0
12,38,10897,76,76,1,2,2,13,6.mid,experiment,0
13,40,11178,72,79,1,2,2,13,6.mid,experiment,0
14,42,11452,76,81,1,2,2,13,6.mid,experiment,0
15,44,11720,79,85,1,2,2,13,6.mid,experiment,0
16,46,11990,84,87,1,2,2,13,6.mid,experiment,0
17,48,12263,83,79,1,2,2,13,6.mid,experiment,0
18,51,12583,81,48,1,2,2,13,6.mid,experiment,0
19,53,12827,81,62,1,2,2,13,6.mid,experiment,0
20,55,13127,81,54,1,2,2,13,6.mid,experiment,0
21,57,13421,83,76,1,2,2,13,6.mid,experiment,0
22,58,13682,81,81,1,2,2,13,6.mid,experiment,0
23,60,13965,84,84,1,2,2,13,6.mid,experiment,0
24,62,14254,81,72,1,2,2,13,6.mid,experiment,0
25,64,14509,78,76,1,2,2,13,6.mid,experiment,0
26,67,14797,79,72,1,2,2,13,6.mid,experiment,0
27,69,15109,79,77,1,2,2,13,6.mid,experiment,0
28,71,15691,79,82,1,2,2,13,6.mid,experiment,0
29,73,16959,77,55,1,2,2,13,6.mid,experiment,0
30,75,17241,77,55,1,2,2,13,6.mid,experiment,0
31,77,17521,76,47,1,2,2,13,6.mid,experiment,0
32,79,17777,76,50,1,2,2,13,6.mid,experiment,0
33,81,18096,74,53,1,2,2,13,6.mid,experiment,0
34,83,19301,79,59,1,2,2,13,6.mid,experiment,0
35,84,19885,77,65,1,2,2,13,6.mid,experiment,0
36,86,20451,76,55,1,2,2,13,6.mid,experiment,0
37,89,20733,76,51,1,2,2,13,6.mid,experiment,0
38,91,21005,76,54,1,2,2,13,6.mid,experiment,0
39,93,21277,76,54,1,2,2,13,6.mid,experiment,0
40,95,21587,81,66,1,2,2,13,6.mid,experiment,0
41,96,21859,77,82,1,2,2,13,6.mid,experiment,0
42,98,22145,76,75,1,2,2,13,6.mid,experiment,0
43,100,22409,74,84,1,2,2,13,6.mid,experiment,0
44,102,22690,76,86,1,2,2,13,6.mid,experiment,0
45,104,22946,79,84,1,2,2,13,6.mid,experiment,0
46,106,23221,74,81,1,2,2,13,6.mid,experiment,0
47,108,23495,71,76,1,2,2,13,6.mid,experiment,0
48,111,23775,72,58,1,2,2,13,6.mid,experiment,0
49,113,24051,72,51,1,2,2,13,6.mid,experiment,0
50,115,24339,74,43,1,2,2,13,6.mid,experiment,0
51,117,24597,74,51,1,2,2,13,6.mid,experiment,0
52,119,24928,76,47,1,2,2,13,6.mid,experiment,0
53,121,26103,65,63,1,2,2,13,6.mid,experiment,0
54,123,26392,65,57,1,2,2,13,6.mid,experiment,0
55,125,26679,64,53,1,2,2,13,6.mid,experiment,0
56,127,26961,64,49,1,2,2,13,6.mid,experiment,0
57,129,27283,62,45,1,2,2,13,6.mid,experiment,0
58,131,28495,67,47,1,2,2,13,6.mid,experiment,0
59,133,28767,67,55,1,2,2,13,6.mid,experiment,0
60,135,29035,71,60,1,2,2,13,6.mid,experiment,0
61,137,29326,71,68,1,2,2,13,6.mid,experiment,0
62,139,29598,72,71,1,2,2,13,6.mid,experiment,0
63,141,29881,72,66,1,2,2,13,6.mid,experiment,0
64,143,30145,73,73,1,2,2,13,6.mid,experiment,0
65,145,30415,73,72,1,2,2,13,6.mid,experiment,0
66,147,30763,74,79,1,2,2,13,6.mid,experiment,0
67,148,31335,77,90,1,2,2,13,6.mid,experiment,0
68,151,31906,76,89,1,2,2,13,6.mid,experiment,0
69,153,32469,74,91,1,2,2,13,6.mid,experiment,0
70,155,33057,72,88,1,2,2,13,6.mid,experiment,0
71,157,33651,84,87,1,2,2,13,6.mid,experiment,0
72,159,34313,84,91,1,2,2,13,6.mid,experiment,0
1,17,7839,79,68,1,2,2,14,7.mid,experiment,0
2,18,8135,78,78,1,2,2,14,7.mid,experiment,0
3,20,8413,79,81,1,2,2,14,7.mid,experiment,0
4,22,8679,76,76,1,2,2,14,7.mid,experiment,0
5,24,8976,72,75,1,2,2,14,7.mid,experiment,0
6,27,9260,67,57,1,2,2,14,7.mid,experiment,0
7,29,9548,67,49,1,2,2,14,7.mid,experiment,0
8,31,9842,67,51,1,2,2,14,7.mid,experiment,0
9,33,10111,79,70,1,2,2,14,7.mid,experiment,0
10,34,10394,78,77,1,2,2,14,7.mid,experiment,0
11,36,10672,79,81,1,2,2,14,7.mid,experiment,0
12,38,10945,76,81,1,2,2,14,7.mid,experiment,0
13,40,11215,72,80,1,2,2,14,7.mid,experiment,0
14,42,11506,76,82,1,2,2,14,7.mid,experiment,0
15,44,11772,79,83,1,2,2,14,7.mid,experiment,0
16,46,12051,84,88,1,2,2,14,7.mid,experiment,0
17,48,12331,83,81,1,2,2,14,7.mid,experiment,0
18,51,12642,81,50,1,2,2,14,7.mid,experiment,0
19,53,12903,81,61,1,2,2,14,7.mid,experiment,0
20,55,13186,81,57,1,2,2,14,7.mid,experiment,0
21,57,13481,83,74,1,2,2,14,7.mid,experiment,0
22,58,13749,81,83,1,2,2,14,7.mid,experiment,0
23,60,14035,84,82,1,2,2,14,7.mid,experiment,0
24,62,14306,81,85,1,2,2,14,7.mid,experiment,0
25,64,14579,78,75,1,2,2,14,7.mid,experiment,0
26,67,14868,79,76,1,2,2,14,7.mid,experiment,0
27,69,15147,79,68,1,2,2,14,7.mid,experiment,0
28,71,15742,79,75,1,2,2,14,7.mid,experiment,0
29,73,16982,77,54,1,2,2,14,7.mid,experiment,0
30,75,17246,77,55,1,2,2,14,7.mid,experiment,0
31,77,17545,76,49,1,2,2,14,7.mid,experiment,0
32,79,17810,76,51,1,2,2,14,7.mid,experiment,0
33,81,18142,74,45,1,2,2,14,7.mid,experiment,0
34,83,19316,79,57,1,2,2,14,7.mid,experiment,0
35,84,19897,77,67,1,2,2,14,7.mid,experiment,0
36,87,20503,76,54,1,2,2,14,7.mid,experiment,0
37,89,20773,76,53,1,2,2,14,7.mid,experiment,0
38,91,21063,76,54,1,2,2,14,7.mid,experiment,0
39,93,21340,76,54,1,2,2,14,7.mid,experiment,0
40,95,21657,81,75,1,2,2,14,7.mid,experiment,0
41,96,21923,77,84,1,2,2,14,7.mid,experiment,0
42,98,22208,76,81,1,2,2,14,7.mid,experiment,0
43,100,22483,74,84,1,2,2,14,7.mid,experiment,0
44,102,22760,76,80,1,2,2,14,7.mid,experiment,0
45,104,23022,79,80,1,2,2,14,7.mid,experiment,0
46,106,23295,74,78,1,2,2,14,7.mid,experiment,0
47,108,23576,71,72,1,2,2,14,7.mid,experiment,0
48,111,23857,72,60,1,2,2,14,7.mid,experiment,0
49,113,24140,72,55,1,2,2,14,7.mid,experiment,0
50,115,24406,74,59,1,2,2,14,7.mid,experiment,0
51,117,24665,74,55,1,2,2,14,7.mid,experiment,0
52,119,24990,76,48,1,2,2,14,7.mid,experiment,0
53,121,26238,65,55,1,2,2,14,7.mid,experiment,0
54,123,26513,65,62,1,2,2,14,7.mid,experiment,0
55,125,26829,64,40,1,2,2,14,7.mid,experiment,0
56,127,27093,64,52,1,2,2,14,7.mid,experiment,0
57,129,27409,62,50,1,2,2,14,7.mid,experiment,0
58,131,28600,67,50,1,2,2,14,7.mid,experiment,0
59,133,28886,67,58,1,2,2,14,7.mid,experiment,0
60,135,29159,71,60,1,2,2,14,7.mid,experiment,0
61,137,29450,71,66,1,2,2,14,7.mid,experiment,0
62,139,29725,72,69,1,2,2,14,7.mid,experiment,0
63,141,30013,72,62,1,2,2,14,7.mid,experiment,0
64,143,30279,73,74,1,2,2,14,7.mid,experiment,0
65,145,30566,73,68,1,2,2,14,7.mid,experiment,0
66,147,30918,74,78,1,2,2,14,7.mid,experiment,0
67,148,31480,77,87,1,2,2,14,7.mid,experiment,0
68,151,32072,76,86,1,2,2,14,7.mid,experiment,0
69,153,32633,74,91,1,2,2,14,7.mid,experiment,0
70,155,33238,72,89,1,2,2,14,7.mid,experiment,0
71,157,33838,84,84,1,2,2,14,7.mid,experiment,0
72,159,34453,84,79,1,2,2,14,7.mid,experiment,0
1,17,7851,79,70,1,2,2,15,13.mid,experiment,0
2,18,8131,78,75,1,2,2,15,13.mid,experiment,0
3,20,8427,79,77,1,2,2,15,13.mid,experiment,0
4,22,8697,76,78,1,2,2,15,13.mid,experiment,0
5,24,8986,72,77,1,2,2,15,13.mid,experiment,0
6,27,9278,67,54,1,2,2,15,13.mid,experiment,0
7,29,9559,67,56,1,2,2,15,13.mid,experiment,0
8,31,9869,67,50,1,2,2,15,13.mid,experiment,0
9,33,10141,79,68,1,2,2,15,13.mid,experiment,0
10,34,10407,78,78,1,2,2,15,13.mid,experiment,0
11,36,10696,79,73,1,2,2,15,13.mid,experiment,0
12,38,10971,76,74,1,2,2,15,13.mid,experiment,0
13,40,11255,72,82,1,2,2,15,13.mid,experiment,0
14,42,11519,76,83,1,2,2,15,13.mid,experiment,0
15,44,11797,79,82,1,2,2,15,13.mid,experiment,0
16,46,12068,84,89,1,2,2,15,13.mid,experiment,0
17,48,12335,83,86,1,2,2,15,13.mid,experiment,0
18,51,12637,81,68,1,2,2,15,13.mid,experiment,0
19,53,12921,81,62,1,2,2,15,13.mid,experiment,0
20,55,13203,81,63,1,2,2,15,13.mid,experiment,0
21,57,13483,83,78,1,2,2,15,13.mid,experiment,0
22,58,13763,81,79,1,2,2,15,13.mid,experiment,0
23,60,14031,84,80,1,2,2,15,13.mid,experiment,0
24,62,14305,81,88,1,2,2,15,13.mid,experiment,0
25,64,14585,78,81,1,2,2,15,13.mid,experiment,0
26,67,14864,79,76,1,2,2,15,13.mid,experiment,0
27,69,15145,79,78,1,2,2,15,13.mid,experiment,0
28,71,15744,79,74,1,2,2,15,13.mid,experiment,0
29,73,16987,77,56,1,2,2,15,13.mid,experiment,0
30,75,17271,77,59,1,2,2,15,13.mid,experiment,0
31,77,17541,76,53,1,2,2,15,13.mid,experiment,0
32,79,17813,76,52,1,2,2,15,13.mid,experiment,0
33,81,18137,74,55,1,2,2,15,13.mid,experiment,0
34,83,19375,79,56,1,2,2,15,13.mid,experiment,0
35,84,19943,77,63,1,2,2,15,13.mid,experiment,0
36,86,20515,76,53,1,2,2,15,13.mid,experiment,0
37,89,20797,76,55,1,2,2,15,13.mid,experiment,0
38,91,21071,76,59,1,2,2,15,13.mid,experiment,0
39,93,21350,76,58,1,2,2,15,13.mid,experiment,0
40,95,21673,81,70,1,2,2,15,13.mid,experiment,0
41,96,21953,77,81,1,2,2,15,13.mid,experiment,0
42,98,22235,76,82,1,2,2,15,13.mid,experiment,0
43,100,22503,74,85,1,2,2,15,13.mid,experiment,0
44,102,22775,76,84,1,2,2,15,13.mid,experiment,0
45,104,23045,79,82,1,2,2,15,13.mid,experiment,0
46,106,23313,74,79,1,2,2,15,13.mid,experiment,0
47,108,23581,71,81,1,2,2,15,13.mid,experiment,0
48,111,23855,72,64,1,2,2,15,13.mid,experiment,0
49,113,24135,72,59,1,2,2,15,13.mid,experiment,0
50,115,24409,74,56,1,2,2,15,13.mid,experiment,0
51,117,24675,74,57,1,2,2,15,13.mid,experiment,0
52,119,24973,76,48,1,2,2,15,13.mid,experiment,0
53,121,26244,65,49,1,2,2,15,13.mid,experiment,0
54,123,26525,65,65,1,2,2,15,13.mid,experiment,0
55,125,26817,64,53,1,2,2,15,13.mid,experiment,0
56,127,27077,64,60,1,2,2,15,13.mid,experiment,0
57,129,27405,62,53,1,2,2,15,13.mid,experiment,0
58,131,28624,67,48,1,2,2,15,13.mid,experiment,0
59,133,28897,67,62,1,2,2,15,13.mid,experiment,0
60,135,29171,71,68,1,2,2,15,13.mid,experiment,0
61,137,29459,71,70,1,2,2,15,13.mid,experiment,0
62,139,29727,72,72,1,2,2,15,13.mid,experiment,0
63,141,30025,72,68,1,2,2,15,13.mid,experiment,0
64,143,30293,73,73,1,2,2,15,13.mid,experiment,0
65,145,30557,73,68,1,2,2,15,13.mid,experiment,0
66,147,30911,74,78,1,2,2,15,13.mid,experiment,0
67,148,31481,77,88,1,2,2,15,13.mid,experiment,0
68,151,32025,76,91,1,2,2,15,13.mid,experiment,0
69,153,32588,74,89,1,2,2,15,13.mid,experiment,0
70,155,33183,72,88,1,2,2,15,13.mid,experiment,0
71,157,33759,84,88,1,2,2,15,13.mid,experiment,0
72,159,34387,84,88,1,2,2,15,13.mid,experiment,0
1,17,7841,79,66,1,2,2,16,14.mid,experiment,0
2,18,8104,78,76,1,2,2,16,14.mid,experiment,0
3,20,8400,79,81,1,2,2,16,14.mid,experiment,0
4,22,8664,76,79,1,2,2,16,14.mid,experiment,0
5,24,8956,72,76,1,2,2,16,14.mid,experiment,0
6,27,9266,67,46,1,2,2,16,14.mid,experiment,0
7,29,9528,67,52,1,2,2,16,14.mid,experiment,0
8,31,9830,67,56,1,2,2,16,14.mid,experiment,0
9,33,10112,79,58,1,2,2,16,14.mid,experiment,0
10,34,10377,78,71,1,2,2,16,14.mid,experiment,0
11,36,10657,79,76,1,2,2,16,14.mid,experiment,0
12,38,10945,76,76,1,2,2,16,14.mid,experiment,0
13,40,11225,72,79,1,2,2,16,14.mid,experiment,0
14,42,11494,76,80,1,2,2,16,14.mid,experiment,0
15,44,11762,79,85,1,2,2,16,14.mid,experiment,0
16,46,12031,84,89,1,2,2,16,14.mid,experiment,0
17,48,12299,83,81,1,2,2,16,14.mid,experiment,0
18,51,12604,81,59,1,2,2,16,14.mid,experiment,0
19,53,12876,81,58,1,2,2,16,14.mid,experiment,0
20,55,13164,81,52,1,2,2,16,14.mid,experiment,0
21,57,13472,83,67,1,2,2,16,14.mid,experiment,0
22,58,13743,81,80,1,2,2,16,14.mid,experiment,0
23,60,14016,84,87,1,2,2,16,14.mid,experiment,0
24,62,14293,81,85,1,2,2,16,14.mid,experiment,0
25,64,14558,78,75,1,2,2,16,14.mid,experiment,0
26,67,14845,79,70,1,2,2,16,14.mid,experiment,0
27,69,15151,79,79,1,2,2,16,14.mid,experiment,0
28,71,15729,79,76,1,2,2,16,14.mid,experiment,0
29,73,17017,77,55,1,2,2,16,14.mid,experiment,0
30,75,17301,77,57,1,2,2,16,14.mid,experiment,0
31,77,17581,76,51,1,2,2,16,14.mid,experiment,0
32,79,17864,76,45,1,2,2,16,14.mid,experiment,0
33,81,18166,74,51,1,2,2,16,14.mid,experiment,0
34,83,19369,79,57,1,2,2,16,14.mid,experiment,0
35,84,19951,77,63,1,2,2,16,14.mid,experiment,0
36,86,20541,76,56,1,2,2,16,14.mid,experiment,0
37,89,20818,76,60,1,2,2,16,14.mid,experiment,0
38,91,21098,76,50,1,2,2,16,14.mid,experiment,0
39,93,21369,76,58,1,2,2,16,14.mid,experiment,0
40,95,21683,81,70,1,2,2,16,14.mid,experiment,0
41,96,21976,77,81,1,2,2,16,14.mid,experiment,0
42,98,22239,76,79,1,2,2,16,14.mid,experiment,0
43,100,22519,74,89,1,2,2,16,14.mid,experiment,0
44,102,22795,76,81,1,2,2,16,14.mid,experiment,0
45,104,23056,79,81,1,2,2,16,14.mid,experiment,0
46,106,23328,74,81,1,2,2,16,14.mid,experiment,0
47,108,23604,71,72,1,2,2,16,14.mid,experiment,0
48,111,23890,72,60,1,2,2,16,14.mid,experiment,0
49,113,24168,72,52,1,2,2,16,14.mid,experiment,0
50,115,24434,74,56,1,2,2,16,14.mid,experiment,0
51,117,24710,74,53,1,2,2,16,14.mid,experiment,0
52,119,25025,76,46,1,2,2,16,14.mid,experiment,0
53,121,26247,65,57,1,2,2,16,14.mid,experiment,0
54,123,26552,65,55,1,2,2,16,14.mid,experiment,0
55,125,26832,64,57,1,2,2,16,14.mid,experiment,0
56,127,27106,64,55,1,2,2,16,14.mid,experiment,0
57,129,27442,62,49,1,2,2,16,14.mid,experiment,0
58,131,28603,67,56,1,2,2,16,14.mid,experiment,0
59,133,28890,67,62,1,2,2,16,14.mid,experiment,0
60,135,29161,71,71,1,2,2,16,14.mid,experiment,0
61,137,29448,71,63,1,2,2,16,14.mid,experiment,0
62,139,29711,72,74,1,2,2,16,14.mid,experiment,0
63,141,29998,72,65,1,2,2,16,14.mid,experiment,0
64,143,30274,73,70,1,2,2,16,14.mid,experiment,0
65,145,30552,73,71,1,2,2,16,14.mid,experiment,0
66,147,30898,74,84,1,2,2,16,14.mid,experiment,0
67,149,31462,77,87,1,2,2,16,14.mid,experiment,0
68,151,32023,76,82,1,2,2,16,14.mid,experiment,0
69,153,32593,74,90,1,2,2,16,14.mid,experiment,0
70,155,33175,72,88,1,2,2,16,14.mid,experiment,0
71,157,33797,84,90,1,2,2,16,14.mid,experiment,0
72,159,34419,84,94,1,2,2,16,14.mid,experiment,0
1,17,7965,79,86,1,2,3,1,11.mid,experiment,0
2,18,8318,78,94,1,2,3,1,11.mid,experiment,0
3,20,8593,79,75,1,2,3,1,11.mid,experiment,0
4,22,8873,76,77,1,2,3,1,11.mid,experiment,0
5,24,9167,72,77,1,2,3,1,11.mid,experiment,0
6,27,9475,67,60,1,2,3,1,11.mid,experiment,0
7,29,9742,67,53,1,2,3,1,11.mid,experiment,0
8,31,10002,67,54,1,2,3,1,11.mid,experiment,0
9,33,10394,79,78,1,2,3,1,11.mid,experiment,0
10,34,10675,78,85,1,2,3,1,11.mid,experiment,0
11,36,10948,79,87,1,2,3,1,11.mid,experiment,0
12,38,11218,76,85,1,2,3,1,11.mid,experiment,0
13,41,11505,72,84,1,2,3,1,11.mid,experiment,0
14,42,11774,76,84,1,2,3,1,11.mid,experiment,0
15,44,12052,79,96,1,2,3,1,11.mid,experiment,0
16,46,12324,84,96,1,2,3,1,11.mid,experiment,0
17,48,12662,83,91,1,2,3,1,11.mid,experiment,0
18,50,13002,81,63,1,2,3,1,11.mid,experiment,0
19,53,13258,81,74,1,2,3,1,11.mid,experiment,0
20,55,13514,81,65,1,2,3,1,11.mid,experiment,0
21,57,13782,83,74,1,2,3,1,11.mid,experiment,0
22,58,14048,81,81,1,2,3,1,11.mid,experiment,0
23,60,14312,84,82,1,2,3,1,11.mid,experiment,0
24,62,14581,81,86,1,2,3,1,11.mid,experiment,0
25,64,14866,78,81,1,2,3,1,11.mid,experiment,0
26,66,15148,79,77,1,2,3,1,11.mid,experiment,0
27,69,15453,79,57,1,2,3,1,11.mid,experiment,0
28,71,16079,79,63,1,2,3,1,11.mid,experiment,0
29,73,17495,77,68,1,2,3,1,11.mid,experiment,0
30,75,17777,77,61,1,2,3,1,11.mid,experiment,0
31,77,18064,76,53,1,2,3,1,11.mid,experiment,0
32,79,18343,76,50,1,2,3,1,11.mid,experiment,0
33,81,18655,74,49,1,2,3,1,11.mid,experiment,0
34,83,19973,79,60,1,2,3,1,11.mid,experiment,0
35,85,20565,77,58,1,2,3,1,11.mid,experiment,0
36,87,21202,76,59,1,2,3,1,11.mid,experiment,0
37,89,21481,76,62,1,2,3,1,11.mid,experiment,0
38,91,21754,76,72,1,2,3,1,11.mid,experiment,0
39,93,22027,76,81,1,2,3,1,11.mid,experiment,0
40,95,22420,81,79,1,2,3,1,11.mid,experiment,0
41,96,22753,77,82,1,2,3,1,11.mid,experiment,0
42,98,23039,76,82,1,2,3,1,11.mid,experiment,0
43,101,23319,74,84,1,2,3,1,11.mid,experiment,0
44,102,23581,76,93,1,2,3,1,11.mid,experiment,0
45,104,23839,79,90,1,2,3,1,11.mid,experiment,0
46,106,24108,74,90,1,2,3,1,11.mid,experiment,0
47,108,24388,71,76,1,2,3,1,11.mid,experiment,0
48,111,24662,72,81,1,2,3,1,11.mid,experiment,0
49,113,24931,72,75,1,2,3,1,11.mid,experiment,0
50,115,25200,74,70,1,2,3,1,11.mid,experiment,0
51,117,25462,74,69,1,2,3,1,11.mid,experiment,0
52,119,25775,76,58,1,2,3,1,11.mid,experiment,0
53,121,27192,65,58,1,2,3,1,11.mid,experiment,0
54,123,27457,65,63,1,2,3,1,11.mid,experiment,0
55,125,27733,64,61,1,2,3,1,11.mid,experiment,0
56,127,27996,64,54,1,2,3,1,11.mid,experiment,0
57,129,28308,62,53,1,2,3,1,11.mid,experiment,0
58,131,29610,67,52,1,2,3,1,11.mid,experiment,0
59,133,29872,67,62,1,2,3,1,11.mid,experiment,0
60,135,30166,71,60,1,2,3,1,11.mid,experiment,0
61,137,30436,71,72,1,2,3,1,11.mid,experiment,0
62,139,30702,72,83,1,2,3,1,11.mid,experiment,0
63,141,30970,72,91,1,2,3,1,11.mid,experiment,0
64,143,31229,73,99,1,2,3,1,11.mid,experiment,0
65,145,31510,73,101,1,2,3,1,11.mid,experiment,0
66,147,31826,74,106,1,2,3,1,11.mid,experiment,0
67,149,32378,77,99,1,2,3,1,11.mid,experiment,0
68,151,32942,76,96,1,2,3,1,11.mid,experiment,0
69,153,33508,74,98,1,2,3,1,11.mid,experiment,0
70,155,34132,72,100,1,2,3,1,11.mid,experiment,0
71,157,34745,84,107,1,2,3,1,11.mid,experiment,0
72,159,35467,84,97,1,2,3,1,11.mid,experiment,0
1,17,7885,79,85,1,2,3,3,3.mid,experiment,0
2,18,8200,78,91,1,2,3,3,3.mid,experiment,0
3,20,8470,79,80,1,2,3,3,3.mid,experiment,0
4,22,8772,76,70,1,2,3,3,3.mid,experiment,0
5,24,9096,72,66,1,2,3,3,3.mid,experiment,0
6,27,9388,67,62,1,2,3,3,3.mid,experiment,0
7,29,9670,67,56,1,2,3,3,3.mid,experiment,0
8,31,9924,67,66,1,2,3,3,3.mid,experiment,0
9,33,10230,79,81,1,2,3,3,3.mid,experiment,0
10,34,10512,78,89,1,2,3,3,3.mid,experiment,0
11,36,10792,79,91,1,2,3,3,3.mid,experiment,0
12,38,11072,76,82,1,2,3,3,3.mid,experiment,0
13,41,11378,72,79,1,2,3,3,3.mid,experiment,0
14,42,11656,76,88,1,2,3,3,3.mid,experiment,0
15,44,11932,79,95,1,2,3,3,3.mid,experiment,0
16,46,12215,84,94,1,2,3,3,3.mid,experiment,0
17,48,12551,83,84,1,2,3,3,3.mid,experiment,0
18,51,12842,81,68,1,2,3,3,3.mid,experiment,0
19,53,13105,81,66,1,2,3,3,3.mid,experiment,0
20,55,13366,81,71,1,2,3,3,3.mid,experiment,0
21,57,13636,83,88,1,2,3,3,3.mid,experiment,0
22,58,13909,81,86,1,2,3,3,3.mid,experiment,0
23,60,14182,84,83,1,2,3,3,3.mid,experiment,0
24,62,14456,81,89,1,2,3,3,3.mid,experiment,0
25,64,14739,78,81,1,2,3,3,3.mid,experiment,0
26,66,15000,79,90,1,2,3,3,3.mid,experiment,0
27,69,15313,79,78,1,2,3,3,3.mid,experiment,0
28,71,15939,79,76,1,2,3,3,3.mid,experiment,0
29,73,17269,77,58,1,2,3,3,3.mid,experiment,0
30,75,17545,77,58,1,2,3,3,3.mid,experiment,0
31,77,17829,76,49,1,2,3,3,3.mid,experiment,0
32,79,18108,76,46,1,2,3,3,3.mid,experiment,0
33,81,18411,74,52,1,2,3,3,3.mid,experiment,0
34,83,19642,79,63,1,2,3,3,3.mid,experiment,0
35,85,20232,77,67,1,2,3,3,3.mid,experiment,0
36,87,20889,76,54,1,2,3,3,3.mid,experiment,0
37,89,21175,76,62,1,2,3,3,3.mid,experiment,0
38,91,21431,76,78,1,2,3,3,3.mid,experiment,0
39,93,21692,76,78,1,2,3,3,3.mid,experiment,0
40,95,22045,81,82,1,2,3,3,3.mid,experiment,0
41,96,22349,77,86,1,2,3,3,3.mid,experiment,0
42,98,22614,76,85,1,2,3,3,3.mid,experiment,0
43,101,22884,74,88,1,2,3,3,3.mid,experiment,0
44,102,23142,76,91,1,2,3,3,3.mid,experiment,0
45,104,23412,79,91,1,2,3,3,3.mid,experiment,0
46,106,23672,74,91,1,2,3,3,3.mid,experiment,0
47,108,23945,71,88,1,2,3,3,3.mid,experiment,0
48,111,24217,72,78,1,2,3,3,3.mid,experiment,0
49,113,24489,72,68,1,2,3,3,3.mid,experiment,0
50,115,24744,74,69,1,2,3,3,3.mid,experiment,0
51,117,24995,74,68,1,2,3,3,3.mid,experiment,0
52,119,25286,76,63,1,2,3,3,3.mid,experiment,0
53,121,26484,65,70,1,2,3,3,3.mid,experiment,0
54,123,26760,65,67,1,2,3,3,3.mid,experiment,0
55,125,27048,64,53,1,2,3,3,3.mid,experiment,0
56,127,27330,64,56,1,2,3,3,3.mid,experiment,0
57,129,27639,62,49,1,2,3,3,3.mid,experiment,0
58,131,28854,67,55,1,2,3,3,3.mid,experiment,0
59,133,29114,67,59,1,2,3,3,3.mid,experiment,0
60,135,29404,71,60,1,2,3,3,3.mid,experiment,0
61,137,29679,71,59,1,2,3,3,3.mid,experiment,0
62,139,29955,72,67,1,2,3,3,3.mid,experiment,0
63,141,30220,72,72,1,2,3,3,3.mid,experiment,0
64,143,30480,73,82,1,2,3,3,3.mid,experiment,0
65,145,30750,73,89,1,2,3,3,3.mid,experiment,0
66,147,31073,74,94,1,2,3,3,3.mid,experiment,0
67,149,31635,77,91,1,2,3,3,3.mid,experiment,0
68,151,32210,76,82,1,2,3,3,3.mid,experiment,0
69,153,32782,74,91,1,2,3,3,3.mid,experiment,0
70,155,33370,72,97,1,2,3,3,3.mid,experiment,0
71,157,33985,84,103,1,2,3,3,3.mid,experiment,0
72,159,34650,84,95,1,2,3,3,3.mid,experiment,0
1,17,7934,79,79,1,2,3,4,6.mid,experiment,0
2,18,8212,78,94,1,2,3,4,6.mid,experiment,0
3,20,8481,79,89,1,2,3,4,6.mid,experiment,0
4,22,8755,76,83,1,2,3,4,6.mid,experiment,0
5,24,9047,72,80,1,2,3,4,6.mid,experiment,0
6,27,9326,67,67,1,2,3,4,6.mid,experiment,0
7,29,9606,67,63,1,2,3,4,6.mid,experiment,0
8,31,9864,67,70,1,2,3,4,6.mid,experiment,0
9,33,10229,79,87,1,2,3,4,6.mid,experiment,0
10,34,10496,78,91,1,2,3,4,6.mid,experiment,0
11,36,10769,79,90,1,2,3,4,6.mid,experiment,0
12,38,11033,76,76,1,2,3,4,6.mid,experiment,0
13,41,11314,72,71,1,2,3,4,6.mid,experiment,0
14,42,11570,76,75,1,2,3,4,6.mid,experiment,0
15,44,11855,79,84,1,2,3,4,6.mid,experiment,0
16,46,12134,84,93,1,2,3,4,6.mid,experiment,0
17,48,12456,83,91,1,2,3,4,6.mid,experiment,0
18,51,12798,81,68,1,2,3,4,6.mid,experiment,0
19,53,13043,81,62,1,2,3,4,6.mid,experiment,0
20,55,13302,81,70,1,2,3,4,6.mid,experiment,0
21,57,13552,83,82,1,2,3,4,6.mid,experiment,0
22,58,13814,81,83,1,2,3,4,6.mid,experiment,0
23,60,14074,84,78,1,2,3,4,6.mid,experiment,0
24,62,14335,81,80,1,2,3,4,6.mid,experiment,0
25,64,14629,78,74,1,2,3,4,6.mid,experiment,0
26,66,14910,79,62,1,2,3,4,6.mid,experiment,0
27,69,15204,79,57,1,2,3,4,6.mid,experiment,0
28,71,15812,79,59,1,2,3,4,6.mid,experiment,0
29,73,17060,77,68,1,2,3,4,6.mid,experiment,0
30,75,17325,77,63,1,2,3,4,6.mid,experiment,0
31,77,17580,76,57,1,2,3,4,6.mid,experiment,0
32,79,17846,76,57,1,2,3,4,6.mid,experiment,0
33,81,18134,74,58,1,2,3,4,6.mid,experiment,0
34,83,19334,79,66,1,2,3,4,6.mid,experiment,0
35,85,19873,77,63,1,2,3,4,6.mid,experiment,0
36,87,20448,76,58,1,2,3,4,6.mid,experiment,0
37,89,20718,76,61,1,2,3,4,6.mid,experiment,0
38,91,20984,76,72,1,2,3,4,6.mid,experiment,0
39,93,21248,76,81,1,2,3,4,6.mid,experiment,0
40,95,21602,81,85,1,2,3,4,6.mid,experiment,0
41,96,21880,77,88,1,2,3,4,6.mid,experiment,0
42,98,22140,76,83,1,2,3,4,6.mid,experiment,0
43,100,22406,74,88,1,2,3,4,6.mid,experiment,0
44,102,22658,76,91,1,2,3,4,6.mid,experiment,0
45,104,22913,79,87,1,2,3,4,6.mid,experiment,0
46,106,23168,74,81,1,2,3,4,6.mid,experiment,0
47,108,23426,71,72,1,2,3,4,6.mid,experiment,0
48,111,23685,72,67,1,2,3,4,6.mid,experiment,0
49,113,23932,72,66,1,2,3,4,6.mid,experiment,0
50,115,24189,74,62,1,2,3,4,6.mid,experiment,0
51,117,24432,74,62,1,2,3,4,6.mid,experiment,0
52,119,24740,76,54,1,2,3,4,6.mid,experiment,0
53,121,25930,65,58,1,2,3,4,6.mid,experiment,0
54,123,26188,65,59,1,2,3,4,6.mid,experiment,0
55,125,26477,64,55,1,2,3,4,6.mid,experiment,0
56,127,26816,64,56,1,2,3,4,6.mid,experiment,0
57,129,27140,62,39,1,2,3,4,6.mid,experiment,0
58,131,28329,67,48,1,2,3,4,6.mid,experiment,0
59,133,28586,67,57,1,2,3,4,6.mid,experiment,0
60,135,28868,71,57,1,2,3,4,6.mid,experiment,0
61,137,29113,71,63,1,2,3,4,6.mid,experiment,0
62,139,29374,72,78,1,2,3,4,6.mid,experiment,0
63,141,29626,72,81,1,2,3,4,6.mid,experiment,0
64,143,29892,73,91,1,2,3,4,6.mid,experiment,0
65,145,30142,73,91,1,2,3,4,6.mid,experiment,0
66,147,30426,74,99,1,2,3,4,6.mid,experiment,0
67,149,30970,77,98,1,2,3,4,6.mid,experiment,0
68,151,31504,76,98,1,2,3,4,6.mid,experiment,0
69,153,32047,74,100,1,2,3,4,6.mid,experiment,0
70,155,32590,72,100,1,2,3,4,6.mid,experiment,0
71,157,33163,84,104,1,2,3,4,6.mid,experiment,0
72,159,33809,84,96,1,2,3,4,6.mid,experiment,0
1,17,7866,79,85,1,2,3,5,9.mid,experiment,0
2,18,8156,78,97,1,2,3,5,9.mid,experiment,0
3,20,8441,79,81,1,2,3,5,9.mid,experiment,0
4,22,8716,76,76,1,2,3,5,9.mid,experiment,0
5,24,8997,72,83,1,2,3,5,9.mid,experiment,0
6,27,9268,67,75,1,2,3,5,9.mid,experiment,0
7,29,9545,67,65,1,2,3,5,9.mid,experiment,0
8,31,9795,67,68,1,2,3,5,9.mid,experiment,0
9,33,10081,79,88,1,2,3,5,9.mid,experiment,0
10,34,10344,78,90,1,2,3,5,9.mid,experiment,0
11,36,10612,79,91,1,2,3,5,9.mid,experiment,0
12,38,10874,76,84,1,2,3,5,9.mid,experiment,0
13,41,11144,72,91,1,2,3,5,9.mid,experiment,0
14,42,11399,76,93,1,2,3,5,9.mid,experiment,0
15,44,11667,79,100,1,2,3,5,9.mid,experiment,0
16,46,11924,84,99,1,2,3,5,9.mid,experiment,0
17,48,12213,83,94,1,2,3,5,9.mid,experiment,0
18,51,12465,81,72,1,2,3,5,9.mid,experiment,0
19,53,12714,81,74,1,2,3,5,9.mid,experiment,0
20,55,12965,81,68,1,2,3,5,9.mid,experiment,0
21,57,13224,83,83,1,2,3,5,9.mid,experiment,0
22,58,13483,81,84,1,2,3,5,9.mid,experiment,0
23,60,13745,84,86,1,2,3,5,9.mid,experiment,0
24,62,14004,81,93,1,2,3,5,9.mid,experiment,0
25,64,14279,78,86,1,2,3,5,9.mid,experiment,0
26,66,14532,79,84,1,2,3,5,9.mid,experiment,0
27,69,14816,79,85,1,2,3,5,9.mid,experiment,0
28,71,15385,79,84,1,2,3,5,9.mid,experiment,0
29,73,16570,77,70,1,2,3,5,9.mid,experiment,0
30,75,16821,77,66,1,2,3,5,9.mid,experiment,0
31,77,17083,76,58,1,2,3,5,9.mid,experiment,0
32,79,17340,76,56,1,2,3,5,9.mid,experiment,0
33,81,17621,74,56,1,2,3,5,9.mid,experiment,0
34,83,18757,79,59,1,2,3,5,9.mid,experiment,0
35,85,19295,77,62,1,2,3,5,9.mid,experiment,0
36,87,19850,76,62,1,2,3,5,9.mid,experiment,0
37,89,20125,76,60,1,2,3,5,9.mid,experiment,0
38,91,20390,76,64,1,2,3,5,9.mid,experiment,0
39,93,20660,76,68,1,2,3,5,9.mid,experiment,0
40,95,21040,81,79,1,2,3,5,9.mid,experiment,0
41,96,21311,77,85,1,2,3,5,9.mid,experiment,0
42,98,21566,76,88,1,2,3,5,9.mid,experiment,0
43,100,21825,74,89,1,2,3,5,9.mid,experiment,0
44,103,22085,76,88,1,2,3,5,9.mid,experiment,0
45,104,22331,79,88,1,2,3,5,9.mid,experiment,0
46,106,22583,74,89,1,2,3,5,9.mid,experiment,0
47,108,22850,71,75,1,2,3,5,9.mid,experiment,0
48,111,23089,72,77,1,2,3,5,9.mid,experiment,0
49,113,23353,72,67,1,2,3,5,9.mid,experiment,0
50,115,23595,74,67,1,2,3,5,9.mid,experiment,0
51,117,23842,74,60,1,2,3,5,9.mid,experiment,0
52,119,24132,76,53,1,2,3,5,9.mid,experiment,0
53,121,25253,65,72,1,2,3,5,9.mid,experiment,0
54,123,25502,65,72,1,2,3,5,9.mid,experiment,0
55,125,25758,64,55,1,2,3,5,9.mid,experiment,0
56,127,26017,64,58,1,2,3,5,9.mid,experiment,0
57,129,26318,62,50,1,2,3,5,9.mid,experiment,0
58,131,27445,67,50,1,2,3,5,9.mid,experiment,0
59,133,27704,67,57,1,2,3,5,9.mid,experiment,0
60,135,27960,71,68,1,2,3,5,9.mid,experiment,0
61,137,28206,71,75,1,2,3,5,9.mid,experiment,0
62,139,28445,72,78,1,2,3,5,9.mid,experiment,0
63,141,28693,72,75,1,2,3,5,9.mid,experiment,0
64,143,28948,73,68,1,2,3,5,9.mid,experiment,0
65,145,29200,73,69,1,2,3,5,9.mid,experiment,0
66,147,29495,74,90,1,2,3,5,9.mid,experiment,0
67,149,30041,77,95,1,2,3,5,9.mid,experiment,0
68,151,30562,76,98,1,2,3,5,9.mid,experiment,0
69,153,31072,74,97,1,2,3,5,9.mid,experiment,0
70,155,31602,72,99,1,2,3,5,9.mid,experiment,0
71,157,32134,84,101,1,2,3,5,9.mid,experiment,0
72,159,32734,84,105,1,2,3,5,9.mid,experiment,0
1,17,7833,79,75,1,2,3,6,4.mid,experiment,0
2,18,8128,78,87,1,2,3,6,4.mid,experiment,0
3,20,8413,79,81,1,2,3,6,4.mid,experiment,0
4,22,8695,76,73,1,2,3,6,4.mid,experiment,0
5,24,8986,72,70,1,2,3,6,4.mid,experiment,0
6,27,9260,67,64,1,2,3,6,4.mid,experiment,0
7,29,9534,67,55,1,2,3,6,4.mid,experiment,0
8,31,9802,67,57,1,2,3,6,4.mid,experiment,0
9,33,10113,79,86,1,2,3,6,4.mid,experiment,0
10,34,10391,78,87,1,2,3,6,4.mid,experiment,0
11,36,10666,79,91,1,2,3,6,4.mid,experiment,0
12,38,10942,76,82,1,2,3,6,4.mid,experiment,0
13,40,11222,72,86,1,2,3,6,4.mid,experiment,0
14,42,11492,76,94,1,2,3,6,4.mid,experiment,0
15,44,11755,79,100,1,2,3,6,4.mid,experiment,0
16,46,12028,84,97,1,2,3,6,4.mid,experiment,0
17,48,12356,83,82,1,2,3,6,4.mid,experiment,0
18,51,12639,81,75,1,2,3,6,4.mid,experiment,0
19,53,12910,81,61,1,2,3,6,4.mid,experiment,0
20,55,13188,81,60,1,2,3,6,4.mid,experiment,0
21,57,13479,83,79,1,2,3,6,4.mid,experiment,0
22,58,13759,81,89,1,2,3,6,4.mid,experiment,0
23,60,14032,84,81,1,2,3,6,4.mid,experiment,0
24,62,14297,81,91,1,2,3,6,4.mid,experiment,0
25,64,14582,78,81,1,2,3,6,4.mid,experiment,0
26,66,14855,79,72,1,2,3,6,4.mid,experiment,0
27,69,15149,79,68,1,2,3,6,4.mid,experiment,0
28,71,15742,79,63,1,2,3,6,4.mid,experiment,0
29,73,17061,77,68,1,2,3,6,4.mid,experiment,0
30,75,17333,77,62,1,2,3,6,4.mid,experiment,0
31,77,17594,76,58,1,2,3,6,4.mid,experiment,0
32,79,17861,76,55,1,2,3,6,4.mid,experiment,0
33,81,18152,74,56,1,2,3,6,4.mid,experiment,0
34,83,19265,79,65,1,2,3,6,4.mid,experiment,0
35,85,19808,77,67,1,2,3,6,4.mid,experiment,0
36,87,20383,76,63,1,2,3,6,4.mid,experiment,0
37,89,20659,76,62,1,2,3,6,4.mid,experiment,0
38,91,20916,76,77,1,2,3,6,4.mid,experiment,0
39,93,21174,76,81,1,2,3,6,4.mid,experiment,0
40,95,21557,81,94,1,2,3,6,4.mid,experiment,0
41,96,21849,77,88,1,2,3,6,4.mid,experiment,0
42,98,22102,76,91,1,2,3,6,4.mid,experiment,0
43,101,22359,74,84,1,2,3,6,4.mid,experiment,0
44,102,22608,76,88,1,2,3,6,4.mid,experiment,0
45,104,22871,79,87,1,2,3,6,4.mid,experiment,0
46,106,23115,74,77,1,2,3,6,4.mid,experiment,0
47,109,23385,71,71,1,2,3,6,4.mid,experiment,0
48,111,23635,72,79,1,2,3,6,4.mid,experiment,0
49,113,23890,72,70,1,2,3,6,4.mid,experiment,0
50,115,24146,74,62,1,2,3,6,4.mid,experiment,0
51,117,24393,74,63,1,2,3,6,4.mid,experiment,0
52,119,24683,76,56,1,2,3,6,4.mid,experiment,0
53,121,25848,65,68,1,2,3,6,4.mid,experiment,0
54,123,26094,65,63,1,2,3,6,4.mid,experiment,0
55,125,26370,64,55,1,2,3,6,4.mid,experiment,0
56,127,26635,64,53,1,2,3,6,4.mid,experiment,0
57,129,26957,62,50,1,2,3,6,4.mid,experiment,0
58,131,28138,67,46,1,2,3,6,4.mid,experiment,0
59,133,28394,67,56,1,2,3,6,4.mid,experiment,0
60,135,28679,71,43,1,2,3,6,4.mid,experiment,0
61,137,28922,71,56,1,2,3,6,4.mid,experiment,0
62,139,29184,72,67,1,2,3,6,4.mid,experiment,0
63,141,29434,72,67,1,2,3,6,4.mid,experiment,0
64,143,29693,73,66,1,2,3,6,4.mid,experiment,0
65,145,29946,73,64,1,2,3,6,4.mid,experiment,0
66,147,30266,74,81,1,2,3,6,4.mid,experiment,0
67,149,30810,77,90,1,2,3,6,4.mid,experiment,0
68,151,31357,76,89,1,2,3,6,4.mid,experiment,0
69,153,31882,74,103,1,2,3,6,4.mid,experiment,0
70,155,32423,72,98,1,2,3,6,4.mid,experiment,0
71,157,32979,84,103,1,2,3,6,4.mid,experiment,0
72,159,33578,84,81,1,2,3,6,4.mid,experiment,0
1,17,7874,79,82,1,2,3,7,7.mid,experiment,0
2,18,8171,78,91,1,2,3,7,7.mid,experiment,0
3,20,8448,79,76,1,2,3,7,7.mid,experiment,0
4,22,8736,76,70,1,2,3,7,7.mid,experiment,0
5,24,9038,72,67,1,2,3,7,7.mid,experiment,0
6,27,9322,67,63,1,2,3,7,7.mid,experiment,0
7,29,9593,67,60,1,2,3,7,7.mid,experiment,0
8,31,9856,67,69,1,2,3,7,7.mid,experiment,0
9,33,10154,79,82,1,2,3,7,7.mid,experiment,0
10,34,10436,78,91,1,2,3,7,7.mid,experiment,0
11,36,10727,79,85,1,2,3,7,7.mid,experiment,0
12,38,11034,76,73,1,2,3,7,7.mid,experiment,0
13,41,11337,72,79,1,2,3,7,7.mid,experiment,0
14,42,11614,76,81,1,2,3,7,7.mid,experiment,0
15,44,11890,79,90,1,2,3,7,7.mid,experiment,0
16,46,12158,84,90,1,2,3,7,7.mid,experiment,0
17,48,12444,83,84,1,2,3,7,7.mid,experiment,0
18,51,12711,81,70,1,2,3,7,7.mid,experiment,0
19,53,12992,81,63,1,2,3,7,7.mid,experiment,0
20,55,13290,81,51,1,2,3,7,7.mid,experiment,0
21,57,13577,83,81,1,2,3,7,7.mid,experiment,0
22,58,13849,81,82,1,2,3,7,7.mid,experiment,0
23,60,14128,84,84,1,2,3,7,7.mid,experiment,0
24,62,14395,81,85,1,2,3,7,7.mid,experiment,0
25,64,14674,78,81,1,2,3,7,7.mid,experiment,0
26,66,14951,79,85,1,2,3,7,7.mid,experiment,0
27,69,15241,79,84,1,2,3,7,7.mid,experiment,0
28,71,15822,79,75,1,2,3,7,7.mid,experiment,0
29,73,17052,77,68,1,2,3,7,7.mid,experiment,0
30,75,17323,77,73,1,2,3,7,7.mid,experiment,0
31,77,17588,76,68,1,2,3,7,7.mid,experiment,0
32,79,17856,76,65,1,2,3,7,7.mid,experiment,0
33,81,18151,74,56,1,2,3,7,7.mid,experiment,0
34,83,19348,79,63,1,2,3,7,7.mid,experiment,0
35,85,19894,77,63,1,2,3,7,7.mid,experiment,0
36,87,20459,76,59,1,2,3,7,7.mid,experiment,0
37,89,20738,76,59,1,2,3,7,7.mid,experiment,0
38,91,20997,76,71,1,2,3,7,7.mid,experiment,0
39,93,21253,76,72,1,2,3,7,7.mid,experiment,0
40,95,21557,81,80,1,2,3,7,7.mid,experiment,0
41,96,21831,77,84,1,2,3,7,7.mid,experiment,0
42,98,22098,76,79,1,2,3,7,7.mid,experiment,0
43,101,22371,74,79,1,2,3,7,7.mid,experiment,0
44,102,22633,76,87,1,2,3,7,7.mid,experiment,0
45,104,22907,79,83,1,2,3,7,7.mid,experiment,0
46,106,23151,74,81,1,2,3,7,7.mid,experiment,0
47,108,23416,71,76,1,2,3,7,7.mid,experiment,0
48,110,23677,72,76,1,2,3,7,7.mid,experiment,0
49,113,23936,72,63,1,2,3,7,7.mid,experiment,0
50,115,24187,74,62,1,2,3,7,7.mid,experiment,0
51,117,24432,74,62,1,2,3,7,7.mid,experiment,0
52,119,24738,76,50,1,2,3,7,7.mid,experiment,0
53,121,26010,65,70,1,2,3,7,7.mid,experiment,0
54,123,26276,65,65,1,2,3,7,7.mid,experiment,0
55,125,26535,64,60,1,2,3,7,7.mid,experiment,0
56,127,26802,64,59,1,2,3,7,7.mid,experiment,0
57,129,27098,62,54,1,2,3,7,7.mid,experiment,0
58,131,28288,67,57,1,2,3,7,7.mid,experiment,0
59,133,28551,67,60,1,2,3,7,7.mid,experiment,0
60,135,28825,71,67,1,2,3,7,7.mid,experiment,0
61,137,29088,71,71,1,2,3,7,7.mid,experiment,0
62,139,29348,72,80,1,2,3,7,7.mid,experiment,0
63,141,29610,72,80,1,2,3,7,7.mid,experiment,0
64,143,29870,73,94,1,2,3,7,7.mid,experiment,0
65,145,30132,73,91,1,2,3,7,7.mid,experiment,0
66,147,30414,74,100,1,2,3,7,7.mid,experiment,0
67,149,30973,77,98,1,2,3,7,7.mid,experiment,0
68,151,31514,76,91,1,2,3,7,7.mid,experiment,0
69,153,32066,74,94,1,2,3,7,7.mid,experiment,0
70,155,32661,72,101,1,2,3,7,7.mid,experiment,0
71,157,33238,84,103,1,2,3,7,7.mid,experiment,0
72,159,33848,84,80,1,2,3,7,7.mid,experiment,0
1,17,7916,79,87,1,2,3,8,1.mid,experiment,0
2,18,8216,78,88,1,2,3,8,1.mid,experiment,0
3,20,8510,79,84,1,2,3,8,1.mid,experiment,0
4,22,8792,76,67,1,2,3,8,1.mid,experiment,0
5,24,9072,72,77,1,2,3,8,1.mid,experiment,0
6,27,9356,67,65,1,2,3,8,1.mid,experiment,0
7,29,9628,67,58,1,2,3,8,1.mid,experiment,0
8,31,9885,67,67,1,2,3,8,1.mid,experiment,0
9,33,10216,79,81,1,2,3,8,1.mid,experiment,0
10,34,10495,78,81,1,2,3,8,1.mid,experiment,0
11,36,10781,79,78,1,2,3,8,1.mid,experiment,0
12,38,11058,76,67,1,2,3,8,1.mid,experiment,0
13,41,11356,72,67,1,2,3,8,1.mid,experiment,0
14,42,11630,76,72,1,2,3,8,1.mid,experiment,0
15,44,11908,79,90,1,2,3,8,1.mid,experiment,0
16,46,12181,84,90,1,2,3,8,1.mid,experiment,0
17,48,12492,83,86,1,2,3,8,1.mid,experiment,0
18,50,12768,81,79,1,2,3,8,1.mid,experiment,0
19,53,13040,81,72,1,2,3,8,1.mid,experiment,0
20,55,13303,81,63,1,2,3,8,1.mid,experiment,0
21,57,13577,83,74,1,2,3,8,1.mid,experiment,0
22,58,13848,81,79,1,2,3,8,1.mid,experiment,0
23,60,14134,84,78,1,2,3,8,1.mid,experiment,0
24,62,14404,81,70,1,2,3,8,1.mid,experiment,0
25,64,14696,78,74,1,2,3,8,1.mid,experiment,0
26,66,14976,79,70,1,2,3,8,1.mid,experiment,0
27,69,15275,79,62,1,2,3,8,1.mid,experiment,0
28,71,15875,79,61,1,2,3,8,1.mid,experiment,0
29,73,17117,77,58,1,2,3,8,1.mid,experiment,0
30,75,17389,77,67,1,2,3,8,1.mid,experiment,0
31,77,17659,76,59,1,2,3,8,1.mid,experiment,0
32,79,17931,76,55,1,2,3,8,1.mid,experiment,0
33,81,18241,74,51,1,2,3,8,1.mid,experiment,0
34,83,19418,79,58,1,2,3,8,1.mid,experiment,0
35,85,19975,77,63,1,2,3,8,1.mid,experiment,0
36,87,20550,76,56,1,2,3,8,1.mid,experiment,0
37,89,20837,76,61,1,2,3,8,1.mid,experiment,0
38,91,21105,76,65,1,2,3,8,1.mid,experiment,0
39,93,21378,76,66,1,2,3,8,1.mid,experiment,0
40,95,21738,81,70,1,2,3,8,1.mid,experiment,0
41,96,22010,77,80,1,2,3,8,1.mid,experiment,0
42,98,22281,76,74,1,2,3,8,1.mid,experiment,0
43,100,22546,74,81,1,2,3,8,1.mid,experiment,0
44,102,22813,76,82,1,2,3,8,1.mid,experiment,0
45,104,23066,79,81,1,2,3,8,1.mid,experiment,0
46,106,23323,74,78,1,2,3,8,1.mid,experiment,0
47,108,23593,71,73,1,2,3,8,1.mid,experiment,0
48,111,23854,72,72,1,2,3,8,1.mid,experiment,0
49,113,24115,72,65,1,2,3,8,1.mid,experiment,0
50,115,24376,74,61,1,2,3,8,1.mid,experiment,0
51,117,24631,74,61,1,2,3,8,1.mid,experiment,0
52,119,24934,76,58,1,2,3,8,1.mid,experiment,0
53,121,26254,65,58,1,2,3,8,1.mid,experiment,0
54,123,26513,65,57,1,2,3,8,1.mid,experiment,0
55,125,26792,64,51,1,2,3,8,1.mid,experiment,0
56,127,27058,64,53,1,2,3,8,1.mid,experiment,0
57,129,27356,62,52,1,2,3,8,1.mid,experiment,0
58,131,28540,67,50,1,2,3,8,1.mid,experiment,0
59,133,28797,67,58,1,2,3,8,1.mid,experiment,0
60,135,29084,71,52,1,2,3,8,1.mid,experiment,0
61,137,29358,71,57,1,2,3,8,1.mid,experiment,0
62,139,29625,72,70,1,2,3,8,1.mid,experiment,0
63,141,29894,72,67,1,2,3,8,1.mid,experiment,0
64,143,30156,73,70,1,2,3,8,1.mid,experiment,0
65,145,30418,73,69,1,2,3,8,1.mid,experiment,0
66,147,30729,74,83,1,2,3,8,1.mid,experiment,0
67,149,31296,77,96,1,2,3,8,1.mid,experiment,0
68,151,31837,76,93,1,2,3,8,1.mid,experiment,0
69,153,32375,74,94,1,2,3,8,1.mid,experiment,0
70,155,32924,72,96,1,2,3,8,1.mid,experiment,0
71,157,33482,84,101,1,2,3,8,1.mid,experiment,0
72,159,34105,84,89,1,2,3,8,1.mid,experiment,0
1,17,7842,79,88,1,2,3,9,5.mid,experiment,0
2,18,8138,78,97,1,2,3,9,5.mid,experiment,0
3,20,8425,79,91,1,2,3,9,5.mid,experiment,0
4,22,8704,76,78,1,2,3,9,5.mid,experiment,0
5,24,8997,72,76,1,2,3,9,5.mid,experiment,0
6,27,9279,67,67,1,2,3,9,5.mid,experiment,0
7,29,9561,67,64,1,2,3,9,5.mid,experiment,0
8,31,9826,67,75,1,2,3,9,5.mid,experiment,0
9,33,10113,79,89,1,2,3,9,5.mid,experiment,0
10,34,10396,78,96,1,2,3,9,5.mid,experiment,0
11,36,10672,79,93,1,2,3,9,5.mid,experiment,0
12,38,10932,76,81,1,2,3,9,5.mid,experiment,0
13,40,11213,72,80,1,2,3,9,5.mid,experiment,0
14,42,11482,76,87,1,2,3,9,5.mid,experiment,0
15,44,11754,79,97,1,2,3,9,5.mid,experiment,0
16,46,12027,84,99,1,2,3,9,5.mid,experiment,0
17,48,12357,83,98,1,2,3,9,5.mid,experiment,0
18,50,12643,81,76,1,2,3,9,5.mid,experiment,0
19,53,12920,81,78,1,2,3,9,5.mid,experiment,0
20,55,13178,81,74,1,2,3,9,5.mid,experiment,0
21,57,13452,83,89,1,2,3,9,5.mid,experiment,0
22,58,13718,81,91,1,2,3,9,5.mid,experiment,0
23,60,13991,84,89,1,2,3,9,5.mid,experiment,0
24,62,14266,81,88,1,2,3,9,5.mid,experiment,0
25,64,14567,78,79,1,2,3,9,5.mid,experiment,0
26,66,14853,79,76,1,2,3,9,5.mid,experiment,0
27,69,15153,79,72,1,2,3,9,5.mid,experiment,0
28,71,15757,79,55,1,2,3,9,5.mid,experiment,0
29,73,17029,77,62,1,2,3,9,5.mid,experiment,0
30,75,17294,77,57,1,2,3,9,5.mid,experiment,0
31,77,17572,76,51,1,2,3,9,5.mid,experiment,0
32,79,17844,76,49,1,2,3,9,5.mid,experiment,0
33,81,18146,74,56,1,2,3,9,5.mid,experiment,0
34,83,19408,79,70,1,2,3,9,5.mid,experiment,0
35,85,19933,77,69,1,2,3,9,5.mid,experiment,0
36,87,20491,76,66,1,2,3,9,5.mid,experiment,0
37,89,20775,76,66,1,2,3,9,5.mid,experiment,0
38,91,21039,76,74,1,2,3,9,5.mid,experiment,0
39,93,21301,76,81,1,2,3,9,5.mid,experiment,0
40,95,21627,81,85,1,2,3,9,5.mid,experiment,0
41,96,21910,77,88,1,2,3,9,5.mid,experiment,0
42,98,22178,76,87,1,2,3,9,5.mid,experiment,0
43,100,22456,74,83,1,2,3,9,5.mid,experiment,0
44,102,22715,76,89,1,2,3,9,5.mid,experiment,0
45,104,22990,79,85,1,2,3,9,5.mid,experiment,0
46,106,23248,74,85,1,2,3,9,5.mid,experiment,0
47,108,23526,71,74,1,2,3,9,5.mid,experiment,0
48,111,23789,72,74,1,2,3,9,5.mid,experiment,0
49,113,24046,72,60,1,2,3,9,5.mid,experiment,0
50,115,24299,74,60,1,2,3,9,5.mid,experiment,0
51,117,24563,74,57,1,2,3,9,5.mid,experiment,0
52,119,24861,76,49,1,2,3,9,5.mid,experiment,0
53,121,26125,65,67,1,2,3,9,5.mid,experiment,0
54,123,26404,65,58,1,2,3,9,5.mid,experiment,0
55,125,26681,64,51,1,2,3,9,5.mid,experiment,0
56,127,26953,64,52,1,2,3,9,5.mid,experiment,0
57,129,27275,62,49,1,2,3,9,5.mid,experiment,0
58,131,28467,67,54,1,2,3,9,5.mid,experiment,0
59,133,28732,67,66,1,2,3,9,5.mid,experiment,0
60,135,29009,71,66,1,2,3,9,5.mid,experiment,0
61,137,29266,71,74,1,2,3,9,5.mid,experiment,0
62,139,29530,72,81,1,2,3,9,5.mid,experiment,0
63,141,29786,72,79,1,2,3,9,5.mid,experiment,0
64,143,30046,73,98,1,2,3,9,5.mid,experiment,0
65,145,30319,73,98,1,2,3,9,5.mid,experiment,0
66,147,30613,74,101,1,2,3,9,5.mid,experiment,0
67,149,31179,77,103,1,2,3,9,5.mid,experiment,0
68,151,31716,76,94,1,2,3,9,5.mid,experiment,0
69,153,32254,74,95,1,2,3,9,5.mid,experiment,0
70,155,32796,72,90,1,2,3,9,5.mid,experiment,0
71,157,33366,84,106,1,2,3,9,5.mid,experiment,0
72,159,33994,84,96,1,2,3,9,5.mid,experiment,0
1,17,7898,79,81,1,2,3,10,13.mid,experiment,0
2,18,8213,78,81,1,2,3,10,13.mid,experiment,0
3,20,8498,79,81,1,2,3,10,13.mid,experiment,0
4,22,8784,76,57,1,2,3,10,13.mid,experiment,0
5,24,9080,72,63,1,2,3,10,13.mid,experiment,0
6,27,9354,67,61,1,2,3,10,13.mid,experiment,0
7,29,9636,67,49,1,2,3,10,13.mid,experiment,0
8,31,9915,67,51,1,2,3,10,13.mid,experiment,0
9,33,10242,79,85,1,2,3,10,13.mid,experiment,0
10,34,10528,78,88,1,2,3,10,13.mid,experiment,0
11,36,10804,79,90,1,2,3,10,13.mid,experiment,0
12,38,11067,76,90,1,2,3,10,13.mid,experiment,0
13,40,11333,72,88,1,2,3,10,13.mid,experiment,0
14,42,11605,76,91,1,2,3,10,13.mid,experiment,0
15,44,11873,79,96,1,2,3,10,13.mid,experiment,0
16,46,12134,84,99,1,2,3,10,13.mid,experiment,0
17,48,12434,83,87,1,2,3,10,13.mid,experiment,0
18,51,12730,81,70,1,2,3,10,13.mid,experiment,0
19,53,12989,81,65,1,2,3,10,13.mid,experiment,0
20,55,13246,81,68,1,2,3,10,13.mid,experiment,0
21,57,13509,83,78,1,2,3,10,13.mid,experiment,0
22,58,13766,81,78,1,2,3,10,13.mid,experiment,0
23,60,14042,84,68,1,2,3,10,13.mid,experiment,0
24,62,14310,81,61,1,2,3,10,13.mid,experiment,0
25,64,14592,78,63,1,2,3,10,13.mid,experiment,0
26,66,14874,79,61,1,2,3,10,13.mid,experiment,0
27,69,15155,79,56,1,2,3,10,13.mid,experiment,0
28,71,15749,79,56,1,2,3,10,13.mid,experiment,0
29,73,17034,77,63,1,2,3,10,13.mid,experiment,0
30,75,17290,77,58,1,2,3,10,13.mid,experiment,0
31,77,17562,76,47,1,2,3,10,13.mid,experiment,0
32,79,17831,76,43,1,2,3,10,13.mid,experiment,0
33,81,18132,74,44,1,2,3,10,13.mid,experiment,0
34,83,19312,79,62,1,2,3,10,13.mid,experiment,0
35,85,19860,77,65,1,2,3,10,13.mid,experiment,0
36,87,20437,76,59,1,2,3,10,13.mid,experiment,0
37,89,20712,76,54,1,2,3,10,13.mid,experiment,0
38,91,20975,76,57,1,2,3,10,13.mid,experiment,0
39,93,21251,76,62,1,2,3,10,13.mid,experiment,0
40,95,21612,81,79,1,2,3,10,13.mid,experiment,0
41,96,21883,77,83,1,2,3,10,13.mid,experiment,0
42,98,22148,76,78,1,2,3,10,13.mid,experiment,0
43,100,22414,74,80,1,2,3,10,13.mid,experiment,0
44,102,22674,76,81,1,2,3,10,13.mid,experiment,0
45,104,22942,79,76,1,2,3,10,13.mid,experiment,0
46,106,23198,74,72,1,2,3,10,13.mid,experiment,0
47,109,23466,71,63,1,2,3,10,13.mid,experiment,0
48,111,23735,72,61,1,2,3,10,13.mid,experiment,0
49,113,23996,72,60,1,2,3,10,13.mid,experiment,0
50,115,24253,74,60,1,2,3,10,13.mid,experiment,0
51,117,24495,74,60,1,2,3,10,13.mid,experiment,0
52,119,24809,76,52,1,2,3,10,13.mid,experiment,0
53,121,26076,65,60,1,2,3,10,13.mid,experiment,0
54,123,26330,65,61,1,2,3,10,13.mid,experiment,0
55,125,26596,64,52,1,2,3,10,13.mid,experiment,0
56,127,26858,64,49,1,2,3,10,13.mid,experiment,0
57,129,27164,62,48,1,2,3,10,13.mid,experiment,0
58,131,28328,67,53,1,2,3,10,13.mid,experiment,0
59,133,28590,67,57,1,2,3,10,13.mid,experiment,0
60,135,28897,71,33,1,2,3,10,13.mid,experiment,0
61,137,29144,71,49,1,2,3,10,13.mid,experiment,0
62,139,29403,72,63,1,2,3,10,13.mid,experiment,0
63,141,29657,72,67,1,2,3,10,13.mid,experiment,0
64,143,29914,73,72,1,2,3,10,13.mid,experiment,0
65,145,30172,73,66,1,2,3,10,13.mid,experiment,0
66,147,30467,74,91,1,2,3,10,13.mid,experiment,0
67,149,31015,77,96,1,2,3,10,13.mid,experiment,0
68,151,31568,76,87,1,2,3,10,13.mid,experiment,0
69,153,32104,74,94,1,2,3,10,13.mid,experiment,0
70,155,32664,72,97,1,2,3,10,13.mid,experiment,0
71,157,33238,84,99,1,2,3,10,13.mid,experiment,0
72,159,33868,84,83,1,2,3,10,13.mid,experiment,0
1,17,7874,79,81,1,2,3,11,15.mid,experiment,0
2,18,8172,78,91,1,2,3,11,15.mid,experiment,0
3,20,8457,79,81,1,2,3,11,15.mid,experiment,0
4,22,8730,76,68,1,2,3,11,15.mid,experiment,0
5,24,9020,72,67,1,2,3,11,15.mid,experiment,0
6,27,9310,67,61,1,2,3,11,15.mid,experiment,0
7,29,9580,67,57,1,2,3,11,15.mid,experiment,0
8,31,9856,67,58,1,2,3,11,15.mid,experiment,0
9,33,10169,79,78,1,2,3,11,15.mid,experiment,0
10,34,10465,78,81,1,2,3,11,15.mid,experiment,0
11,36,10760,79,83,1,2,3,11,15.mid,experiment,0
12,38,11026,76,76,1,2,3,11,15.mid,experiment,0
13,40,11320,72,81,1,2,3,11,15.mid,experiment,0
14,42,11603,76,86,1,2,3,11,15.mid,experiment,0
15,44,11880,79,91,1,2,3,11,15.mid,experiment,0
16,46,12152,84,96,1,2,3,11,15.mid,experiment,0
17,48,12442,83,91,1,2,3,11,15.mid,experiment,0
18,51,12714,81,70,1,2,3,11,15.mid,experiment,0
19,53,12976,81,69,1,2,3,11,15.mid,experiment,0
20,55,13240,81,65,1,2,3,11,15.mid,experiment,0
21,57,13503,83,87,1,2,3,11,15.mid,experiment,0
22,58,13770,81,81,1,2,3,11,15.mid,experiment,0
23,60,14043,84,86,1,2,3,11,15.mid,experiment,0
24,62,14317,81,89,1,2,3,11,15.mid,experiment,0
25,64,14597,78,88,1,2,3,11,15.mid,experiment,0
26,66,14869,79,94,1,2,3,11,15.mid,experiment,0
27,69,15166,79,91,1,2,3,11,15.mid,experiment,0
28,71,15727,79,70,1,2,3,11,15.mid,experiment,0
29,73,17037,77,68,1,2,3,11,15.mid,experiment,0
30,75,17320,77,63,1,2,3,11,15.mid,experiment,0
31,77,17598,76,51,1,2,3,11,15.mid,experiment,0
32,79,17861,76,50,1,2,3,11,15.mid,experiment,0
33,81,18166,74,52,1,2,3,11,15.mid,experiment,0
34,83,19450,79,65,1,2,3,11,15.mid,experiment,0
35,85,20031,77,59,1,2,3,11,15.mid,experiment,0
36,87,20589,76,58,1,2,3,11,15.mid,experiment,0
37,89,20873,76,58,1,2,3,11,15.mid,experiment,0
38,91,21140,76,63,1,2,3,11,15.mid,experiment,0
39,93,21410,76,69,1,2,3,11,15.mid,experiment,0
40,95,21738,81,81,1,2,3,11,15.mid,experiment,0
41,96,22024,77,82,1,2,3,11,15.mid,experiment,0
42,98,22292,76,76,1,2,3,11,15.mid,experiment,0
43,100,22565,74,76,1,2,3,11,15.mid,experiment,0
44,102,22826,76,88,1,2,3,11,15.mid,experiment,0
45,104,23093,79,90,1,2,3,11,15.mid,experiment,0
46,106,23348,74,84,1,2,3,11,15.mid,experiment,0
47,108,23604,71,77,1,2,3,11,15.mid,experiment,0
48,111,23868,72,81,1,2,3,11,15.mid,experiment,0
49,113,24124,72,67,1,2,3,11,15.mid,experiment,0
50,115,24379,74,67,1,2,3,11,15.mid,experiment,0
51,117,24641,74,63,1,2,3,11,15.mid,experiment,0
52,119,24947,76,52,1,2,3,11,15.mid,experiment,0
53,121,26262,65,70,1,2,3,11,15.mid,experiment,0
54,123,26529,65,63,1,2,3,11,15.mid,experiment,0
55,125,26812,64,46,1,2,3,11,15.mid,experiment,0
56,127,27084,64,45,1,2,3,11,15.mid,experiment,0
57,129,27391,62,45,1,2,3,11,15.mid,experiment,0
58,131,28640,67,53,1,2,3,11,15.mid,experiment,0
59,133,28912,67,57,1,2,3,11,15.mid,experiment,0
60,135,29184,71,68,1,2,3,11,15.mid,experiment,0
61,137,29440,71,68,1,2,3,11,15.mid,experiment,0
62,139,29700,72,75,1,2,3,11,15.mid,experiment,0
63,141,29955,72,77,1,2,3,11,15.mid,experiment,0
64,143,30217,73,88,1,2,3,11,15.mid,experiment,0
65,145,30475,73,81,1,2,3,11,15.mid,experiment,0
66,147,30769,74,96,1,2,3,11,15.mid,experiment,0
67,149,31341,77,89,1,2,3,11,15.mid,experiment,0
68,151,31880,76,89,1,2,3,11,15.mid,experiment,0
69,153,32433,74,93,1,2,3,11,15.mid,experiment,0
70,155,32986,72,98,1,2,3,11,15.mid,experiment,0
71,157,33561,84,105,1,2,3,11,15.mid,experiment,0
72,159,34200,84,95,1,2,3,11,15.mid,experiment,0
1,17,7883,79,78,1,2,3,12,16.mid,experiment,0
2,18,8192,78,81,1,2,3,12,16.mid,experiment,0
3,20,8488,79,80,1,2,3,12,16.mid,experiment,0
4,22,8770,76,67,1,2,3,12,16.mid,experiment,0
5,24,9050,72,69,1,2,3,12,16.mid,experiment,0
6,27,9324,67,60,1,2,3,12,16.mid,experiment,0
7,29,9594,67,48,1,2,3,12,16.mid,experiment,0
8,31,9858,67,57,1,2,3,12,16.mid,experiment,0
9,33,10158,79,76,1,2,3,12,16.mid,experiment,0
10,34,10450,78,87,1,2,3,12,16.mid,experiment,0
11,36,10734,79,84,1,2,3,12,16.mid,experiment,0
12,38,10988,76,83,1,2,3,12,16.mid,experiment,0
13,40,11257,72,86,1,2,3,12,16.mid,experiment,0
14,42,11520,76,94,1,2,3,12,16.mid,experiment,0
15,44,11784,79,97,1,2,3,12,16.mid,experiment,0
16,46,12048,84,94,1,2,3,12,16.mid,experiment,0
17,48,12328,83,91,1,2,3,12,16.mid,experiment,0
18,51,12595,81,70,1,2,3,12,16.mid,experiment,0
19,53,12858,81,60,1,2,3,12,16.mid,experiment,0
20,55,13120,81,63,1,2,3,12,16.mid,experiment,0
21,57,13377,83,81,1,2,3,12,16.mid,experiment,0
22,58,13642,81,79,1,2,3,12,16.mid,experiment,0
23,60,13912,84,84,1,2,3,12,16.mid,experiment,0
24,62,14174,81,87,1,2,3,12,16.mid,experiment,0
25,64,14452,78,81,1,2,3,12,16.mid,experiment,0
26,66,14722,79,78,1,2,3,12,16.mid,experiment,0
27,69,15010,79,75,1,2,3,12,16.mid,experiment,0
28,71,15591,79,63,1,2,3,12,16.mid,experiment,0
29,73,16896,77,70,1,2,3,12,16.mid,experiment,0
30,75,17162,77,62,1,2,3,12,16.mid,experiment,0
31,77,17430,76,53,1,2,3,12,16.mid,experiment,0
32,79,17682,76,51,1,2,3,12,16.mid,experiment,0
33,81,17966,74,53,1,2,3,12,16.mid,experiment,0
34,83,19130,79,68,1,2,3,12,16.mid,experiment,0
35,85,19677,77,63,1,2,3,12,16.mid,experiment,0
36,87,20243,76,59,1,2,3,12,16.mid,experiment,0
37,89,20514,76,60,1,2,3,12,16.mid,experiment,0
38,91,20773,76,69,1,2,3,12,16.mid,experiment,0
39,93,21045,76,71,1,2,3,12,16.mid,experiment,0
40,95,21401,81,83,1,2,3,12,16.mid,experiment,0
41,96,21679,77,85,1,2,3,12,16.mid,experiment,0
42,98,21931,76,81,1,2,3,12,16.mid,experiment,0
43,101,22203,74,76,1,2,3,12,16.mid,experiment,0
44,102,22461,76,82,1,2,3,12,16.mid,experiment,0
45,104,22724,79,83,1,2,3,12,16.mid,experiment,0
46,106,22981,74,75,1,2,3,12,16.mid,experiment,0
47,108,23249,71,71,1,2,3,12,16.mid,experiment,0
48,111,23509,72,71,1,2,3,12,16.mid,experiment,0
49,113,23760,72,66,1,2,3,12,16.mid,experiment,0
50,115,24020,74,61,1,2,3,12,16.mid,experiment,0
51,117,24271,74,59,1,2,3,12,16.mid,experiment,0
52,119,24566,76,51,1,2,3,12,16.mid,experiment,0
53,121,25840,65,68,1,2,3,12,16.mid,experiment,0
54,123,26104,65,58,1,2,3,12,16.mid,experiment,0
55,125,26368,64,56,1,2,3,12,16.mid,experiment,0
56,127,26658,64,43,1,2,3,12,16.mid,experiment,0
57,129,26980,62,48,1,2,3,12,16.mid,experiment,0
58,131,28201,67,51,1,2,3,12,16.mid,experiment,0
59,133,28456,67,59,1,2,3,12,16.mid,experiment,0
60,135,28730,71,62,1,2,3,12,16.mid,experiment,0
61,137,28995,71,62,1,2,3,12,16.mid,experiment,0
62,139,29243,72,75,1,2,3,12,16.mid,experiment,0
63,141,29492,72,81,1,2,3,12,16.mid,experiment,0
64,143,29742,73,87,1,2,3,12,16.mid,experiment,0
65,145,29994,73,91,1,2,3,12,16.mid,experiment,0
66,147,30286,74,96,1,2,3,12,16.mid,experiment,0
67,149,30841,77,93,1,2,3,12,16.mid,experiment,0
68,151,31388,76,81,1,2,3,12,16.mid,experiment,0
69,153,31938,74,87,1,2,3,12,16.mid,experiment,0
70,155,32497,72,91,1,2,3,12,16.mid,experiment,0
71,157,33064,84,98,1,2,3,12,16.mid,experiment,0
72,159,33710,84,95,1,2,3,12,16.mid,experiment,0
1,17,7862,79,82,1,2,3,13,2.mid,experiment,0
2,18,8158,78,85,1,2,3,13,2.mid,experiment,0
3,20,8443,79,83,1,2,3,13,2.mid,experiment,0
4,22,8722,76,74,1,2,3,13,2.mid,experiment,0
5,24,9003,72,73,1,2,3,13,2.mid,experiment,0
6,26,9282,67,62,1,2,3,13,2.mid,experiment,0
7,29,9560,67,59,1,2,3,13,2.mid,experiment,0
8,31,9833,67,60,1,2,3,13,2.mid,experiment,0
9,33,10158,79,71,1,2,3,13,2.mid,experiment,0
10,34,10439,78,71,1,2,3,13,2.mid,experiment,0
11,36,10758,79,55,1,2,3,13,2.mid,experiment,0
12,38,11029,76,62,1,2,3,13,2.mid,experiment,0
13,40,11325,72,66,1,2,3,13,2.mid,experiment,0
14,42,11589,76,69,1,2,3,13,2.mid,experiment,0
15,44,11877,79,79,1,2,3,13,2.mid,experiment,0
16,46,12157,84,90,1,2,3,13,2.mid,experiment,0
17,48,12501,83,87,1,2,3,13,2.mid,experiment,0
18,50,12794,81,79,1,2,3,13,2.mid,experiment,0
19,53,13060,81,68,1,2,3,13,2.mid,experiment,0
20,55,13331,81,67,1,2,3,13,2.mid,experiment,0
21,57,13618,83,79,1,2,3,13,2.mid,experiment,0
22,58,13892,81,84,1,2,3,13,2.mid,experiment,0
23,60,14176,84,83,1,2,3,13,2.mid,experiment,0
24,62,14441,81,82,1,2,3,13,2.mid,experiment,0
25,64,14733,78,78,1,2,3,13,2.mid,experiment,0
26,66,15005,79,74,1,2,3,13,2.mid,experiment,0
27,69,15305,79,72,1,2,3,13,2.mid,experiment,0
28,71,15928,79,63,1,2,3,13,2.mid,experiment,0
29,73,17202,77,63,1,2,3,13,2.mid,experiment,0
30,75,17473,77,59,1,2,3,13,2.mid,experiment,0
31,77,17740,76,52,1,2,3,13,2.mid,experiment,0
32,79,18004,76,55,1,2,3,13,2.mid,experiment,0
33,81,18302,74,49,1,2,3,13,2.mid,experiment,0
34,83,19589,79,67,1,2,3,13,2.mid,experiment,0
35,85,20159,77,62,1,2,3,13,2.mid,experiment,0
36,87,20757,76,57,1,2,3,13,2.mid,experiment,0
37,89,21046,76,53,1,2,3,13,2.mid,experiment,0
38,91,21316,76,61,1,2,3,13,2.mid,experiment,0
39,93,21595,76,63,1,2,3,13,2.mid,experiment,0
40,95,21972,81,77,1,2,3,13,2.mid,experiment,0
41,96,22261,77,79,1,2,3,13,2.mid,experiment,0
42,98,22516,76,81,1,2,3,13,2.mid,experiment,0
43,100,22791,74,83,1,2,3,13,2.mid,experiment,0
44,103,23061,76,87,1,2,3,13,2.mid,experiment,0
45,104,23325,79,84,1,2,3,13,2.mid,experiment,0
46,106,23587,74,85,1,2,3,13,2.mid,experiment,0
47,108,23862,71,76,1,2,3,13,2.mid,experiment,0
48,111,24155,72,67,1,2,3,13,2.mid,experiment,0
49,113,24405,72,60,1,2,3,13,2.mid,experiment,0
50,115,24654,74,71,1,2,3,13,2.mid,experiment,0
51,117,24907,74,67,1,2,3,13,2.mid,experiment,0
52,119,25202,76,56,1,2,3,13,2.mid,experiment,0
53,121,26527,65,74,1,2,3,13,2.mid,experiment,0
54,123,26776,65,62,1,2,3,13,2.mid,experiment,0
55,125,27051,64,58,1,2,3,13,2.mid,experiment,0
56,127,27322,64,54,1,2,3,13,2.mid,experiment,0
57,129,27639,62,45,1,2,3,13,2.mid,experiment,0
58,131,28942,67,56,1,2,3,13,2.mid,experiment,0
59,133,29212,67,61,1,2,3,13,2.mid,experiment,0
60,135,29483,71,65,1,2,3,13,2.mid,experiment,0
61,137,29747,71,66,1,2,3,13,2.mid,experiment,0
62,139,30009,72,75,1,2,3,13,2.mid,experiment,0
63,141,30268,72,74,1,2,3,13,2.mid,experiment,0
64,143,30541,73,76,1,2,3,13,2.mid,experiment,0
65,145,30799,73,78,1,2,3,13,2.mid,experiment,0
66,147,31100,74,91,1,2,3,13,2.mid,experiment,0
67,149,31677,77,91,1,2,3,13,2.mid,experiment,0
68,151,32237,76,78,1,2,3,13,2.mid,experiment,0
69,153,32814,74,75,1,2,3,13,2.mid,experiment,0
70,155,33408,72,90,1,2,3,13,2.mid,experiment,0
71,157,34031,84,95,1,2,3,13,2.mid,experiment,0
72,159,34688,84,91,1,2,3,13,2.mid,experiment,0
1,17,7830,79,85,1,2,3,14,10.mid,experiment,0
2,18,8122,78,93,1,2,3,14,10.mid,experiment,0
3,20,8414,79,80,1,2,3,14,10.mid,experiment,0
4,22,8702,76,72,1,2,3,14,10.mid,experiment,0
5,24,8992,72,70,1,2,3,14,10.mid,experiment,0
6,27,9275,67,70,1,2,3,14,10.mid,experiment,0
7,29,9563,67,62,1,2,3,14,10.mid,experiment,0
8,31,9837,67,68,1,2,3,14,10.mid,experiment,0
9,33,10134,79,86,1,2,3,14,10.mid,experiment,0
10,34,10422,78,89,1,2,3,14,10.mid,experiment,0
11,36,10710,79,85,1,2,3,14,10.mid,experiment,0
12,38,10989,76,81,1,2,3,14,10.mid,experiment,0
13,40,11278,72,81,1,2,3,14,10.mid,experiment,0
14,42,11556,76,90,1,2,3,14,10.mid,experiment,0
15,44,11836,79,93,1,2,3,14,10.mid,experiment,0
16,46,12118,84,95,1,2,3,14,10.mid,experiment,0
17,48,12410,83,81,1,2,3,14,10.mid,experiment,0
18,51,12704,81,64,1,2,3,14,10.mid,experiment,0
19,53,12976,81,55,1,2,3,14,10.mid,experiment,0
20,55,13248,81,54,1,2,3,14,10.mid,experiment,0
21,57,13524,83,81,1,2,3,14,10.mid,experiment,0
22,58,13797,81,87,1,2,3,14,10.mid,experiment,0
23,60,14080,84,85,1,2,3,14,10.mid,experiment,0
24,62,14353,81,94,1,2,3,14,10.mid,experiment,0
25,64,14622,78,86,1,2,3,14,10.mid,experiment,0
26,66,14904,79,86,1,2,3,14,10.mid,experiment,0
27,69,15187,79,77,1,2,3,14,10.mid,experiment,0
28,71,15770,79,72,1,2,3,14,10.mid,experiment,0
29,73,17005,77,65,1,2,3,14,10.mid,experiment,0
30,75,17282,77,66,1,2,3,14,10.mid,experiment,0
31,77,17549,76,60,1,2,3,14,10.mid,experiment,0
32,79,17822,76,57,1,2,3,14,10.mid,experiment,0
33,81,18125,74,60,1,2,3,14,10.mid,experiment,0
34,83,19332,79,61,1,2,3,14,10.mid,experiment,0
35,85,19898,77,62,1,2,3,14,10.mid,experiment,0
36,87,20471,76,57,1,2,3,14,10.mid,experiment,0
37,89,20757,76,60,1,2,3,14,10.mid,experiment,0
38,91,21025,76,65,1,2,3,14,10.mid,experiment,0
39,93,21290,76,68,1,2,3,14,10.mid,experiment,0
40,95,21624,81,76,1,2,3,14,10.mid,experiment,0
41,96,21914,77,81,1,2,3,14,10.mid,experiment,0
42,98,22183,76,77,1,2,3,14,10.mid,experiment,0
43,100,22461,74,78,1,2,3,14,10.mid,experiment,0
44,102,22730,76,83,1,2,3,14,10.mid,experiment,0
45,104,23010,79,86,1,2,3,14,10.mid,experiment,0
46,106,23281,74,83,1,2,3,14,10.mid,experiment,0
47,108,23559,71,79,1,2,3,14,10.mid,experiment,0
48,111,23838,72,72,1,2,3,14,10.mid,experiment,0
49,113,24106,72,63,1,2,3,14,10.mid,experiment,0
50,115,24364,74,59,1,2,3,14,10.mid,experiment,0
51,117,24628,74,64,1,2,3,14,10.mid,experiment,0
52,119,24925,76,58,1,2,3,14,10.mid,experiment,0
53,121,26123,65,75,1,2,3,14,10.mid,experiment,0
54,123,26388,65,66,1,2,3,14,10.mid,experiment,0
55,125,26663,64,57,1,2,3,14,10.mid,experiment,0
56,127,26924,64,59,1,2,3,14,10.mid,experiment,0
57,129,27224,62,56,1,2,3,14,10.mid,experiment,0
58,131,28429,67,59,1,2,3,14,10.mid,experiment,0
59,133,28704,67,63,1,2,3,14,10.mid,experiment,0
60,135,28985,71,63,1,2,3,14,10.mid,experiment,0
61,137,29255,71,61,1,2,3,14,10.mid,experiment,0
62,139,29523,72,71,1,2,3,14,10.mid,experiment,0
63,141,29788,72,76,1,2,3,14,10.mid,experiment,0
64,143,30050,73,83,1,2,3,14,10.mid,experiment,0
65,145,30314,73,85,1,2,3,14,10.mid,experiment,0
66,147,30618,74,96,1,2,3,14,10.mid,experiment,0
67,149,31190,77,93,1,2,3,14,10.mid,experiment,0
68,151,31762,76,89,1,2,3,14,10.mid,experiment,0
69,153,32318,74,93,1,2,3,14,10.mid,experiment,0
70,155,32878,72,85,1,2,3,14,10.mid,experiment,0
71,157,33469,84,93,1,2,3,14,10.mid,experiment,0
72,159,34122,84,82,1,2,3,14,10.mid,experiment,0
1,17,7884,79,74,1,2,3,15,8.mid,experiment,0
2,18,8182,78,80,1,2,3,15,8.mid,experiment,0
3,20,8475,79,80,1,2,3,15,8.mid,experiment,0
4,22,8771,76,58,1,2,3,15,8.mid,experiment,0
5,24,9076,72,67,1,2,3,15,8.mid,experiment,0
6,27,9364,67,58,1,2,3,15,8.mid,experiment,0
7,29,9648,67,51,1,2,3,15,8.mid,experiment,0
8,31,9925,67,56,1,2,3,15,8.mid,experiment,0
9,33,10219,79,78,1,2,3,15,8.mid,experiment,0
10,34,10506,78,81,1,2,3,15,8.mid,experiment,0
11,36,10795,79,81,1,2,3,15,8.mid,experiment,0
12,38,11071,76,79,1,2,3,15,8.mid,experiment,0
13,40,11360,72,78,1,2,3,15,8.mid,experiment,0
14,42,11646,76,79,1,2,3,15,8.mid,experiment,0
15,44,11924,79,94,1,2,3,15,8.mid,experiment,0
16,46,12189,84,96,1,2,3,15,8.mid,experiment,0
17,48,12497,83,87,1,2,3,15,8.mid,experiment,0
18,51,12804,81,72,1,2,3,15,8.mid,experiment,0
19,53,13072,81,65,1,2,3,15,8.mid,experiment,0
20,55,13342,81,63,1,2,3,15,8.mid,experiment,0
21,57,13602,83,81,1,2,3,15,8.mid,experiment,0
22,58,13885,81,83,1,2,3,15,8.mid,experiment,0
23,60,14155,84,82,1,2,3,15,8.mid,experiment,0
24,62,14433,81,88,1,2,3,15,8.mid,experiment,0
25,64,14703,78,88,1,2,3,15,8.mid,experiment,0
26,66,14984,79,94,1,2,3,15,8.mid,experiment,0
27,69,15283,79,85,1,2,3,15,8.mid,experiment,0
28,71,15864,79,75,1,2,3,15,8.mid,experiment,0
29,73,17115,77,70,1,2,3,15,8.mid,experiment,0
30,75,17396,77,65,1,2,3,15,8.mid,experiment,0
31,77,17665,76,53,1,2,3,15,8.mid,experiment,0
32,79,17924,76,56,1,2,3,15,8.mid,experiment,0
33,81,18223,74,57,1,2,3,15,8.mid,experiment,0
34,83,19422,79,66,1,2,3,15,8.mid,experiment,0
35,85,20001,77,59,1,2,3,15,8.mid,experiment,0
36,87,20569,76,56,1,2,3,15,8.mid,experiment,0
37,89,20849,76,59,1,2,3,15,8.mid,experiment,0
38,91,21116,76,62,1,2,3,15,8.mid,experiment,0
39,93,21383,76,67,1,2,3,15,8.mid,experiment,0
40,95,21721,81,84,1,2,3,15,8.mid,experiment,0
41,96,21997,77,83,1,2,3,15,8.mid,experiment,0
42,98,22272,76,80,1,2,3,15,8.mid,experiment,0
43,100,22539,74,81,1,2,3,15,8.mid,experiment,0
44,102,22816,76,81,1,2,3,15,8.mid,experiment,0
45,104,23073,79,83,1,2,3,15,8.mid,experiment,0
46,106,23342,74,80,1,2,3,15,8.mid,experiment,0
47,109,23625,71,64,1,2,3,15,8.mid,experiment,0
48,111,23887,72,70,1,2,3,15,8.mid,experiment,0
49,113,24157,72,58,1,2,3,15,8.mid,experiment,0
50,115,24409,74,63,1,2,3,15,8.mid,experiment,0
51,117,24653,74,65,1,2,3,15,8.mid,experiment,0
52,119,24970,76,56,1,2,3,15,8.mid,experiment,0
53,121,26186,65,63,1,2,3,15,8.mid,experiment,0
54,123,26458,65,56,1,2,3,15,8.mid,experiment,0
55,125,26736,64,50,1,2,3,15,8.mid,experiment,0
56,127,27008,64,51,1,2,3,15,8.mid,experiment,0
57,129,27320,62,49,1,2,3,15,8.mid,experiment,0
58,131,28559,67,49,1,2,3,15,8.mid,experiment,0
59,133,28826,67,57,1,2,3,15,8.mid,experiment,0
60,135,29107,71,60,1,2,3,15,8.mid,experiment,0
61,137,29384,71,57,1,2,3,15,8.mid,experiment,0
62,139,29650,72,67,1,2,3,15,8.mid,experiment,0
63,141,29925,72,66,1,2,3,15,8.mid,experiment,0
64,143,30190,73,70,1,2,3,15,8.mid,experiment,0
65,145,30454,73,78,1,2,3,15,8.mid,experiment,0
66,147,30777,74,91,1,2,3,15,8.mid,experiment,0
67,149,31358,77,93,1,2,3,15,8.mid,experiment,0
68,151,31930,76,88,1,2,3,15,8.mid,experiment,0
69,153,32512,74,91,1,2,3,15,8.mid,experiment,0
70,155,33082,72,91,1,2,3,15,8.mid,experiment,0
71,157,33674,84,95,1,2,3,15,8.mid,experiment,0
72,159,34324,84,83,1,2,3,15,8.mid,experiment,0
1,17,7846,79,77,1,2,3,16,12.mid,experiment,0
2,18,8141,78,91,1,2,3,16,12.mid,experiment,0
3,20,8437,79,86,1,2,3,16,12.mid,experiment,0
4,22,8732,76,74,1,2,3,16,12.mid,experiment,0
5,24,9020,72,74,1,2,3,16,12.mid,experiment,0
6,27,9308,67,63,1,2,3,16,12.mid,experiment,0
7,29,9586,67,62,1,2,3,16,12.mid,experiment,0
8,31,9856,67,70,1,2,3,16,12.mid,experiment,0
9,33,10153,79,86,1,2,3,16,12.mid,experiment,0
10,34,10431,78,91,1,2,3,16,12.mid,experiment,0
11,36,10712,79,79,1,2,3,16,12.mid,experiment,0
12,38,10982,76,81,1,2,3,16,12.mid,experiment,0
13,40,11268,72,81,1,2,3,16,12.mid,experiment,0
14,42,11540,76,91,1,2,3,16,12.mid,experiment,0
15,44,11805,79,101,1,2,3,16,12.mid,experiment,0
16,46,12079,84,100,1,2,3,16,12.mid,experiment,0
17,48,12380,83,99,1,2,3,16,12.mid,experiment,0
18,50,12662,81,91,1,2,3,16,12.mid,experiment,0
19,53,12932,81,87,1,2,3,16,12.mid,experiment,0
20,55,13197,81,91,1,2,3,16,12.mid,experiment,0
21,57,13465,83,91,1,2,3,16,12.mid,experiment,0
22,58,13744,81,83,1,2,3,16,12.mid,experiment,0
23,60,14007,84,79,1,2,3,16,12.mid,experiment,0
24,62,14292,81,74,1,2,3,16,12.mid,experiment,0
25,65,14567,78,76,1,2,3,16,12.mid,experiment,0
26,66,14844,79,68,1,2,3,16,12.mid,experiment,0
27,69,15117,79,63,1,2,3,16,12.mid,experiment,0
28,71,15706,79,63,1,2,3,16,12.mid,experiment,0
29,73,16960,77,71,1,2,3,16,12.mid,experiment,0
30,75,17236,77,67,1,2,3,16,12.mid,experiment,0
31,77,17504,76,58,1,2,3,16,12.mid,experiment,0
32,79,17770,76,56,1,2,3,16,12.mid,experiment,0
33,81,18088,74,54,1,2,3,16,12.mid,experiment,0
34,83,19310,79,63,1,2,3,16,12.mid,experiment,0
35,85,19873,77,67,1,2,3,16,12.mid,experiment,0
36,87,20457,76,60,1,2,3,16,12.mid,experiment,0
37,89,20741,76,67,1,2,3,16,12.mid,experiment,0
38,91,21011,76,68,1,2,3,16,12.mid,experiment,0
39,93,21273,76,75,1,2,3,16,12.mid,experiment,0
40,95,21578,81,86,1,2,3,16,12.mid,experiment,0
41,96,21860,77,89,1,2,3,16,12.mid,experiment,0
42,98,22125,76,88,1,2,3,16,12.mid,experiment,0
43,100,22396,74,87,1,2,3,16,12.mid,experiment,0
44,102,22660,76,88,1,2,3,16,12.mid,experiment,0
45,104,22932,79,87,1,2,3,16,12.mid,experiment,0
46,106,23198,74,78,1,2,3,16,12.mid,experiment,0
47,108,23466,71,70,1,2,3,16,12.mid,experiment,0
48,111,23737,72,74,1,2,3,16,12.mid,experiment,0
49,113,24011,72,64,1,2,3,16,12.mid,experiment,0
50,115,24271,74,58,1,2,3,16,12.mid,experiment,0
51,117,24521,74,57,1,2,3,16,12.mid,experiment,0
52,119,24821,76,57,1,2,3,16,12.mid,experiment,0
53,121,26215,65,67,1,2,3,16,12.mid,experiment,0
54,123,26482,65,57,1,2,3,16,12.mid,experiment,0
55,125,26748,64,59,1,2,3,16,12.mid,experiment,0
56,127,27017,64,55,1,2,3,16,12.mid,experiment,0
57,129,27333,62,52,1,2,3,16,12.mid,experiment,0
58,131,28621,67,55,1,2,3,16,12.mid,experiment,0
59,133,28883,67,59,1,2,3,16,12.mid,experiment,0
60,135,29160,71,60,1,2,3,16,12.mid,experiment,0
61,137,29435,71,67,1,2,3,16,12.mid,experiment,0
62,139,29703,72,78,1,2,3,16,12.mid,experiment,0
63,141,29963,72,81,1,2,3,16,12.mid,experiment,0
64,143,30217,73,91,1,2,3,16,12.mid,experiment,0
65,145,30486,73,91,1,2,3,16,12.mid,experiment,0
66,147,30778,74,98,1,2,3,16,12.mid,experiment,0
67,149,31336,77,94,1,2,3,16,12.mid,experiment,0
68,151,31900,76,95,1,2,3,16,12.mid,experiment,0
69,153,32461,74,94,1,2,3,16,12.mid,experiment,0
70,155,33043,72,91,1,2,3,16,12.mid,experiment,0
71,157,33636,84,96,1,2,3,16,12.mid,experiment,0
72,159,34336,84,91,1,2,3,16,12.mid,experiment,0
1,17,7841,79,98,1,2,4,2,13.mid,experiment,0
2,18,8119,78,101,1,2,4,2,13.mid,experiment,0
3,20,8402,79,98,1,2,4,2,13.mid,experiment,0
4,22,8667,76,86,1,2,4,2,13.mid,experiment,0
5,24,8939,72,91,1,2,4,2,13.mid,experiment,0
6,27,9239,67,67,1,2,4,2,13.mid,experiment,0
7,29,9525,67,46,1,2,4,2,13.mid,experiment,0
8,31,9775,67,63,1,2,4,2,13.mid,experiment,0
9,33,10063,79,88,1,2,4,2,13.mid,experiment,0
10,34,10314,78,99,1,2,4,2,13.mid,experiment,0
11,36,10592,79,96,1,2,4,2,13.mid,experiment,0
12,38,10869,76,68,1,2,4,2,13.mid,experiment,0
13,40,11146,72,68,1,2,4,2,13.mid,experiment,0
14,42,11414,76,84,1,2,4,2,13.mid,experiment,0
15,44,11689,79,100,1,2,4,2,13.mid,experiment,0
16,46,11938,84,107,1,2,4,2,13.mid,experiment,0
17,48,12212,83,103,1,2,4,2,13.mid,experiment,0
18,51,12515,81,67,1,2,4,2,13.mid,experiment,0
19,53,12772,81,58,1,2,4,2,13.mid,experiment,0
20,55,13007,81,66,1,2,4,2,13.mid,experiment,0
21,57,13303,83,75,1,2,4,2,13.mid,experiment,0
22,58,13557,81,98,1,2,4,2,13.mid,experiment,0
23,60,13831,84,100,1,2,4,2,13.mid,experiment,0
24,62,14079,81,90,1,2,4,2,13.mid,experiment,0
25,64,14362,78,99,1,2,4,2,13.mid,experiment,0
26,66,14634,79,82,1,2,4,2,13.mid,experiment,0
27,69,14910,79,73,1,2,4,2,13.mid,experiment,0
28,71,15521,79,74,1,2,4,2,13.mid,experiment,0
29,73,16820,77,53,1,2,4,2,13.mid,experiment,0
30,75,17088,77,57,1,2,4,2,13.mid,experiment,0
31,77,17386,76,47,1,2,4,2,13.mid,experiment,0
32,79,17654,76,58,1,2,4,2,13.mid,experiment,0
33,81,18032,74,43,1,2,4,2,13.mid,experiment,0
34,83,19189,79,55,1,2,4,2,13.mid,experiment,0
35,85,19751,77,54,1,2,4,2,13.mid,experiment,0
36,87,20308,76,48,1,2,4,2,13.mid,experiment,0
37,89,20579,76,51,1,2,4,2,13.mid,experiment,0
38,91,20876,76,50,1,2,4,2,13.mid,experiment,0
39,93,21140,76,54,1,2,4,2,13.mid,experiment,0
40,95,21457,81,78,1,2,4,2,13.mid,experiment,0
41,96,21724,77,89,1,2,4,2,13.mid,experiment,0
42,98,21990,76,91,1,2,4,2,13.mid,experiment,0
43,100,22266,74,91,1,2,4,2,13.mid,experiment,0
44,102,22556,76,89,1,2,4,2,13.mid,experiment,0
45,104,22818,79,93,1,2,4,2,13.mid,experiment,0
46,106,23084,74,90,1,2,4,2,13.mid,experiment,0
47,108,23334,71,74,1,2,4,2,13.mid,experiment,0
48,111,23625,72,67,1,2,4,2,13.mid,experiment,0
49,113,23872,72,66,1,2,4,2,13.mid,experiment,0
50,115,24168,74,52,1,2,4,2,13.mid,experiment,0
51,117,24408,74,51,1,2,4,2,13.mid,experiment,0
52,119,24787,76,31,1,2,4,2,13.mid,experiment,0
53,121,25774,65,70,1,2,4,2,13.mid,experiment,0
54,123,26057,65,43,1,2,4,2,13.mid,experiment,0
55,125,26363,64,37,1,2,4,2,13.mid,experiment,0
56,127,26621,64,41,1,2,4,2,13.mid,experiment,0
57,129,26969,62,40,1,2,4,2,13.mid,experiment,0
58,131,28265,67,72,1,2,4,2,13.mid,experiment,0
59,133,28541,67,55,1,2,4,2,13.mid,experiment,0
60,135,28834,71,54,1,2,4,2,13.mid,experiment,0
61,137,29103,71,53,1,2,4,2,13.mid,experiment,0
62,139,29355,72,69,1,2,4,2,13.mid,experiment,0
63,141,29622,72,70,1,2,4,2,13.mid,experiment,0
64,143,29892,73,63,1,2,4,2,13.mid,experiment,0
65,145,30177,73,60,1,2,4,2,13.mid,experiment,0
66,147,30491,74,69,1,2,4,2,13.mid,experiment,0
67,148,31061,77,96,1,2,4,2,13.mid,experiment,0
68,150,31637,76,96,1,2,4,2,13.mid,experiment,0
69,152,32191,74,105,1,2,4,2,13.mid,experiment,0
70,154,32775,72,97,1,2,4,2,13.mid,experiment,0
71,156,33389,84,100,1,2,4,2,13.mid,experiment,0
72,159,34135,84,99,1,2,4,2,13.mid,experiment,0
1,17,7858,79,82,1,2,4,3,4.mid,experiment,0
2,18,8148,78,91,1,2,4,3,4.mid,experiment,0
3,20,8426,79,94,1,2,4,3,4.mid,experiment,0
4,22,8700,76,89,1,2,4,3,4.mid,experiment,0
5,24,8971,72,100,1,2,4,3,4.mid,experiment,0
6,26,9261,67,53,1,2,4,3,4.mid,experiment,0
7,29,9536,67,55,1,2,4,3,4.mid,experiment,0
8,31,9807,67,56,1,2,4,3,4.mid,experiment,0
9,33,10153,79,52,1,2,4,3,4.mid,experiment,0
10,34,10396,78,87,1,2,4,3,4.mid,experiment,0
11,36,10671,79,93,1,2,4,3,4.mid,experiment,0
12,38,10921,76,87,1,2,4,3,4.mid,experiment,0
13,40,11226,72,91,1,2,4,3,4.mid,experiment,0
14,42,11490,76,89,1,2,4,3,4.mid,experiment,0
15,44,11754,79,95,1,2,4,3,4.mid,experiment,0
16,46,12005,84,104,1,2,4,3,4.mid,experiment,0
17,48,12270,83,103,1,2,4,3,4.mid,experiment,0
18,51,12566,81,75,1,2,4,3,4.mid,experiment,0
19,53,12819,81,68,1,2,4,3,4.mid,experiment,0
20,55,13071,81,65,1,2,4,3,4.mid,experiment,0
21,57,13328,83,77,1,2,4,3,4.mid,experiment,0
22,58,13590,81,91,1,2,4,3,4.mid,experiment,0
23,60,13854,84,97,1,2,4,3,4.mid,experiment,0
24,62,14098,81,91,1,2,4,3,4.mid,experiment,0
25,64,14372,78,82,1,2,4,3,4.mid,experiment,0
26,66,14627,79,63,1,2,4,3,4.mid,experiment,0
27,69,14894,79,67,1,2,4,3,4.mid,experiment,0
28,71,15458,79,51,1,2,4,3,4.mid,experiment,0
29,73,16460,77,65,1,2,4,3,4.mid,experiment,0
30,75,16714,77,69,1,2,4,3,4.mid,experiment,0
31,77,16982,76,65,1,2,4,3,4.mid,experiment,0
32,79,17256,76,62,1,2,4,3,4.mid,experiment,0
33,81,17568,74,61,1,2,4,3,4.mid,experiment,0
34,83,18697,79,56,1,2,4,3,4.mid,experiment,0
35,85,19255,77,58,1,2,4,3,4.mid,experiment,0
36,87,19798,76,60,1,2,4,3,4.mid,experiment,0
37,89,20064,76,67,1,2,4,3,4.mid,experiment,0
38,91,20336,76,65,1,2,4,3,4.mid,experiment,0
39,93,20599,76,62,1,2,4,3,4.mid,experiment,0
40,95,20927,81,57,1,2,4,3,4.mid,experiment,0
41,96,21207,77,75,1,2,4,3,4.mid,experiment,0
42,97,21477,76,70,1,2,4,3,4.mid,experiment,0
43,100,21746,74,81,1,2,4,3,4.mid,experiment,0
44,102,22019,76,82,1,2,4,3,4.mid,experiment,0
45,104,22271,79,84,1,2,4,3,4.mid,experiment,0
46,106,22536,74,91,1,2,4,3,4.mid,experiment,0
47,108,22791,71,73,1,2,4,3,4.mid,experiment,0
48,111,23064,72,67,1,2,4,3,4.mid,experiment,0
49,113,23309,72,70,1,2,4,3,4.mid,experiment,0
50,115,23579,74,63,1,2,4,3,4.mid,experiment,0
51,117,23839,74,61,1,2,4,3,4.mid,experiment,0
52,119,24179,76,40,1,2,4,3,4.mid,experiment,0
53,121,25293,65,70,1,2,4,3,4.mid,experiment,0
54,123,25543,65,65,1,2,4,3,4.mid,experiment,0
55,125,25824,64,49,1,2,4,3,4.mid,experiment,0
56,127,26076,64,61,1,2,4,3,4.mid,experiment,0
57,129,26407,62,45,1,2,4,3,4.mid,experiment,0
58,131,27530,67,58,1,2,4,3,4.mid,experiment,0
59,133,27792,67,63,1,2,4,3,4.mid,experiment,0
60,135,28072,71,63,1,2,4,3,4.mid,experiment,0
61,137,28322,71,58,1,2,4,3,4.mid,experiment,0
62,139,28573,72,74,1,2,4,3,4.mid,experiment,0
63,141,28834,72,71,1,2,4,3,4.mid,experiment,0
64,143,29082,73,73,1,2,4,3,4.mid,experiment,0
65,145,29338,73,70,1,2,4,3,4.mid,experiment,0
66,147,29628,74,70,1,2,4,3,4.mid,experiment,0
67,149,30164,77,85,1,2,4,3,4.mid,experiment,0
68,151,30703,76,93,1,2,4,3,4.mid,experiment,0
69,153,31256,74,104,1,2,4,3,4.mid,experiment,0
70,155,31813,72,104,1,2,4,3,4.mid,experiment,0
71,157,32363,84,107,1,2,4,3,4.mid,experiment,0
72,159,33004,84,107,1,2,4,3,4.mid,experiment,0
1,17,7804,79,81,1,2,4,6,16.mid,experiment,0
2,18,8092,78,90,1,2,4,6,16.mid,experiment,0
3,20,8394,79,88,1,2,4,6,16.mid,experiment,0
4,22,8666,76,81,1,2,4,6,16.mid,experiment,0
5,24,8962,72,90,1,2,4,6,16.mid,experiment,0
6,27,9265,67,67,1,2,4,6,16.mid,experiment,0
7,29,9516,67,65,1,2,4,6,16.mid,experiment,0
8,31,9781,67,67,1,2,4,6,16.mid,experiment,0
9,33,10082,79,75,1,2,4,6,16.mid,experiment,0
10,34,10351,78,87,1,2,4,6,16.mid,experiment,0
11,36,10613,79,91,1,2,4,6,16.mid,experiment,0
12,38,10878,76,77,1,2,4,6,16.mid,experiment,0
13,40,11189,72,71,1,2,4,6,16.mid,experiment,0
14,42,11438,76,81,1,2,4,6,16.mid,experiment,0
15,44,11706,79,90,1,2,4,6,16.mid,experiment,0
16,46,11980,84,99,1,2,4,6,16.mid,experiment,0
17,48,12259,83,95,1,2,4,6,16.mid,experiment,0
18,51,12545,81,66,1,2,4,6,16.mid,experiment,0
19,53,12806,81,63,1,2,4,6,16.mid,experiment,0
20,55,13054,81,70,1,2,4,6,16.mid,experiment,0
21,57,13362,83,83,1,2,4,6,16.mid,experiment,0
22,58,13624,81,97,1,2,4,6,16.mid,experiment,0
23,60,13892,84,96,1,2,4,6,16.mid,experiment,0
24,62,14151,81,91,1,2,4,6,16.mid,experiment,0
25,64,14426,78,98,1,2,4,6,16.mid,experiment,0
26,66,14698,79,71,1,2,4,6,16.mid,experiment,0
27,69,15005,79,78,1,2,4,6,16.mid,experiment,0
28,71,15628,79,54,1,2,4,6,16.mid,experiment,0
29,73,16734,77,65,1,2,4,6,16.mid,experiment,0
30,75,17015,77,47,1,2,4,6,16.mid,experiment,0
31,77,17268,76,58,1,2,4,6,16.mid,experiment,0
32,79,17536,76,55,1,2,4,6,16.mid,experiment,0
33,81,17840,74,54,1,2,4,6,16.mid,experiment,0
34,83,18908,79,54,1,2,4,6,16.mid,experiment,0
35,85,19478,77,55,1,2,4,6,16.mid,experiment,0
36,87,20045,76,56,1,2,4,6,16.mid,experiment,0
37,89,20310,76,65,1,2,4,6,16.mid,experiment,0
38,91,20603,76,59,1,2,4,6,16.mid,experiment,0
39,93,20873,76,50,1,2,4,6,16.mid,experiment,0
40,95,21185,81,70,1,2,4,6,16.mid,experiment,0
41,96,21478,77,78,1,2,4,6,16.mid,experiment,0
42,98,21744,76,76,1,2,4,6,16.mid,experiment,0
43,100,22019,74,88,1,2,4,6,16.mid,experiment,0
44,102,22308,76,81,1,2,4,6,16.mid,experiment,0
45,104,22575,79,89,1,2,4,6,16.mid,experiment,0
46,106,22845,74,89,1,2,4,6,16.mid,experiment,0
47,108,23096,71,88,1,2,4,6,16.mid,experiment,0
48,111,23390,72,60,1,2,4,6,16.mid,experiment,0
49,113,23655,72,65,1,2,4,6,16.mid,experiment,0
50,115,23939,74,57,1,2,4,6,16.mid,experiment,0
51,117,24197,74,55,1,2,4,6,16.mid,experiment,0
52,119,24552,76,40,1,2,4,6,16.mid,experiment,0
53,121,25658,65,65,1,2,4,6,16.mid,experiment,0
54,123,25918,65,62,1,2,4,6,16.mid,experiment,0
55,125,26201,64,60,1,2,4,6,16.mid,experiment,0
56,127,26465,64,60,1,2,4,6,16.mid,experiment,0
57,129,26804,62,50,1,2,4,6,16.mid,experiment,0
58,131,27974,67,57,1,2,4,6,16.mid,experiment,0
59,133,28245,67,59,1,2,4,6,16.mid,experiment,0
60,135,28557,71,43,1,2,4,6,16.mid,experiment,0
61,137,28802,71,54,1,2,4,6,16.mid,experiment,0
62,139,29076,72,67,1,2,4,6,16.mid,experiment,0
63,141,29352,72,62,1,2,4,6,16.mid,experiment,0
64,143,29608,73,77,1,2,4,6,16.mid,experiment,0
65,145,29858,73,75,1,2,4,6,16.mid,experiment,0
66,147,30149,74,76,1,2,4,6,16.mid,experiment,0
67,148,30699,77,83,1,2,4,6,16.mid,experiment,0
68,150,31230,76,90,1,2,4,6,16.mid,experiment,0
69,152,31796,74,91,1,2,4,6,16.mid,experiment,0
70,154,32386,72,91,1,2,4,6,16.mid,experiment,0
71,156,32936,84,96,1,2,4,6,16.mid,experiment,0
72,159,33556,84,94,1,2,4,6,16.mid,experiment,0
1,17,7784,79,90,1,2,4,7,10.mid,experiment,0
2,18,8074,78,101,1,2,4,7,10.mid,experiment,0
3,20,8369,79,98,1,2,4,7,10.mid,experiment,0
4,22,8639,76,91,1,2,4,7,10.mid,experiment,0
5,24,8941,72,93,1,2,4,7,10.mid,experiment,0
6,27,9247,67,64,1,2,4,7,10.mid,experiment,0
7,29,9509,67,63,1,2,4,7,10.mid,experiment,0
8,31,9794,67,60,1,2,4,7,10.mid,experiment,0
9,33,10085,79,74,1,2,4,7,10.mid,experiment,0
10,34,10350,78,86,1,2,4,7,10.mid,experiment,0
11,36,10625,79,88,1,2,4,7,10.mid,experiment,0
12,38,10895,76,78,1,2,4,7,10.mid,experiment,0
13,40,11190,72,89,1,2,4,7,10.mid,experiment,0
14,42,11455,76,89,1,2,4,7,10.mid,experiment,0
15,44,11730,79,99,1,2,4,7,10.mid,experiment,0
16,46,11989,84,100,1,2,4,7,10.mid,experiment,0
17,48,12273,83,96,1,2,4,7,10.mid,experiment,0
18,51,12566,81,60,1,2,4,7,10.mid,experiment,0
19,53,12816,81,64,1,2,4,7,10.mid,experiment,0
20,55,13076,81,52,1,2,4,7,10.mid,experiment,0
21,57,13371,83,79,1,2,4,7,10.mid,experiment,0
22,58,13655,81,93,1,2,4,7,10.mid,experiment,0
23,60,13913,84,96,1,2,4,7,10.mid,experiment,0
24,62,14173,81,90,1,2,4,7,10.mid,experiment,0
25,64,14444,78,82,1,2,4,7,10.mid,experiment,0
26,66,14726,79,71,1,2,4,7,10.mid,experiment,0
27,69,15031,79,57,1,2,4,7,10.mid,experiment,0
28,71,15659,79,39,1,2,4,7,10.mid,experiment,0
29,73,16750,77,58,1,2,4,7,10.mid,experiment,0
30,75,17032,77,64,1,2,4,7,10.mid,experiment,0
31,77,17310,76,55,1,2,4,7,10.mid,experiment,0
32,79,17582,76,44,1,2,4,7,10.mid,experiment,0
33,81,17912,74,44,1,2,4,7,10.mid,experiment,0
34,83,19072,79,53,1,2,4,7,10.mid,experiment,0
35,85,19660,77,56,1,2,4,7,10.mid,experiment,0
36,87,20246,76,51,1,2,4,7,10.mid,experiment,0
37,89,20514,76,58,1,2,4,7,10.mid,experiment,0
38,91,20803,76,54,1,2,4,7,10.mid,experiment,0
39,93,21074,76,54,1,2,4,7,10.mid,experiment,0
40,95,21386,81,66,1,2,4,7,10.mid,experiment,0
41,96,21686,77,71,1,2,4,7,10.mid,experiment,0
42,98,21960,76,78,1,2,4,7,10.mid,experiment,0
43,100,22217,74,86,1,2,4,7,10.mid,experiment,0
44,102,22494,76,89,1,2,4,7,10.mid,experiment,0
45,104,22774,79,85,1,2,4,7,10.mid,experiment,0
46,106,23052,74,91,1,2,4,7,10.mid,experiment,0
47,108,23311,71,78,1,2,4,7,10.mid,experiment,0
48,111,23587,72,65,1,2,4,7,10.mid,experiment,0
49,113,23854,72,57,1,2,4,7,10.mid,experiment,0
50,115,24119,74,60,1,2,4,7,10.mid,experiment,0
51,117,24401,74,54,1,2,4,7,10.mid,experiment,0
52,119,24761,76,37,1,2,4,7,10.mid,experiment,0
53,121,25861,65,59,1,2,4,7,10.mid,experiment,0
54,123,26143,65,53,1,2,4,7,10.mid,experiment,0
55,125,26430,64,36,1,2,4,7,10.mid,experiment,0
56,127,26699,64,32,1,2,4,7,10.mid,experiment,0
57,129,27039,62,27,1,2,4,7,10.mid,experiment,0
58,131,28070,67,53,1,2,4,7,10.mid,experiment,0
59,133,28360,67,47,1,2,4,7,10.mid,experiment,0
60,135,28644,71,58,1,2,4,7,10.mid,experiment,0
61,137,28924,71,51,1,2,4,7,10.mid,experiment,0
62,139,29198,72,63,1,2,4,7,10.mid,experiment,0
63,141,29458,72,76,1,2,4,7,10.mid,experiment,0
64,143,29732,73,78,1,2,4,7,10.mid,experiment,0
65,145,29983,73,84,1,2,4,7,10.mid,experiment,0
66,147,30283,74,68,1,2,4,7,10.mid,experiment,0
67,149,30813,77,83,1,2,4,7,10.mid,experiment,0
68,151,31367,76,89,1,2,4,7,10.mid,experiment,0
69,153,31909,74,101,1,2,4,7,10.mid,experiment,0
70,155,32483,72,95,1,2,4,7,10.mid,experiment,0
71,157,33046,84,103,1,2,4,7,10.mid,experiment,0
72,159,33684,84,99,1,2,4,7,10.mid,experiment,0
1,17,7825,79,78,1,2,4,8,6.mid,experiment,0
2,18,8104,78,86,1,2,4,8,6.mid,experiment,0
3,20,8416,79,88,1,2,4,8,6.mid,experiment,0
4,22,8673,76,86,1,2,4,8,6.mid,experiment,0
5,24,8972,72,89,1,2,4,8,6.mid,experiment,0
6,27,9277,67,57,1,2,4,8,6.mid,experiment,0
7,29,9540,67,65,1,2,4,8,6.mid,experiment,0
8,31,9813,67,61,1,2,4,8,6.mid,experiment,0
9,33,10148,79,67,1,2,4,8,6.mid,experiment,0
10,34,10406,78,81,1,2,4,8,6.mid,experiment,0
11,36,10696,79,83,1,2,4,8,6.mid,experiment,0
12,38,10989,76,50,1,2,4,8,6.mid,experiment,0
13,40,11286,72,63,1,2,4,8,6.mid,experiment,0
14,42,11566,76,76,1,2,4,8,6.mid,experiment,0
15,44,11846,79,91,1,2,4,8,6.mid,experiment,0
16,46,12105,84,97,1,2,4,8,6.mid,experiment,0
17,48,12391,83,94,1,2,4,8,6.mid,experiment,0
18,51,12669,81,63,1,2,4,8,6.mid,experiment,0
19,53,12929,81,67,1,2,4,8,6.mid,experiment,0
20,55,13190,81,70,1,2,4,8,6.mid,experiment,0
21,57,13481,83,77,1,2,4,8,6.mid,experiment,0
22,58,13745,81,90,1,2,4,8,6.mid,experiment,0
23,60,14038,84,93,1,2,4,8,6.mid,experiment,0
24,62,14295,81,81,1,2,4,8,6.mid,experiment,0
25,64,14573,78,81,1,2,4,8,6.mid,experiment,0
26,66,14876,79,54,1,2,4,8,6.mid,experiment,0
27,69,15124,79,67,1,2,4,8,6.mid,experiment,0
28,71,15672,79,52,1,2,4,8,6.mid,experiment,0
29,73,16742,77,64,1,2,4,8,6.mid,experiment,0
30,75,17006,77,71,1,2,4,8,6.mid,experiment,0
31,77,17280,76,68,1,2,4,8,6.mid,experiment,0
32,79,17560,76,62,1,2,4,8,6.mid,experiment,0
33,81,17899,74,50,1,2,4,8,6.mid,experiment,0
34,83,19008,79,58,1,2,4,8,6.mid,experiment,0
35,85,19582,77,64,1,2,4,8,6.mid,experiment,0
36,87,20138,76,65,1,2,4,8,6.mid,experiment,0
37,89,20424,76,70,1,2,4,8,6.mid,experiment,0
38,91,20695,76,70,1,2,4,8,6.mid,experiment,0
39,93,20960,76,68,1,2,4,8,6.mid,experiment,0
40,95,21272,81,81,1,2,4,8,6.mid,experiment,0
41,96,21591,77,76,1,2,4,8,6.mid,experiment,0
42,98,21848,76,91,1,2,4,8,6.mid,experiment,0
43,100,22116,74,98,1,2,4,8,6.mid,experiment,0
44,102,22391,76,98,1,2,4,8,6.mid,experiment,0
45,104,22656,79,104,1,2,4,8,6.mid,experiment,0
46,106,22927,74,96,1,2,4,8,6.mid,experiment,0
47,108,23181,71,89,1,2,4,8,6.mid,experiment,0
48,111,23473,72,75,1,2,4,8,6.mid,experiment,0
49,113,23740,72,72,1,2,4,8,6.mid,experiment,0
50,115,24009,74,65,1,2,4,8,6.mid,experiment,0
51,117,24271,74,62,1,2,4,8,6.mid,experiment,0
52,119,24613,76,37,1,2,4,8,6.mid,experiment,0
53,121,25643,65,76,1,2,4,8,6.mid,experiment,0
54,123,25933,65,60,1,2,4,8,6.mid,experiment,0
55,125,26194,64,69,1,2,4,8,6.mid,experiment,0
56,127,26475,64,59,1,2,4,8,6.mid,experiment,0
57,129,26791,62,47,1,2,4,8,6.mid,experiment,0
58,131,27886,67,62,1,2,4,8,6.mid,experiment,0
59,133,28150,67,71,1,2,4,8,6.mid,experiment,0
60,135,28442,71,74,1,2,4,8,6.mid,experiment,0
61,137,28723,71,49,1,2,4,8,6.mid,experiment,0
62,139,28965,72,73,1,2,4,8,6.mid,experiment,0
63,141,29245,72,65,1,2,4,8,6.mid,experiment,0
64,143,29501,73,65,1,2,4,8,6.mid,experiment,0
65,145,29769,73,62,1,2,4,8,6.mid,experiment,0
66,147,30078,74,65,1,2,4,8,6.mid,experiment,0
67,149,30639,77,78,1,2,4,8,6.mid,experiment,0
68,151,31193,76,101,1,2,4,8,6.mid,experiment,0
69,153,31763,74,104,1,2,4,8,6.mid,experiment,0
70,155,32365,72,104,1,2,4,8,6.mid,experiment,0
71,157,32932,84,112,1,2,4,8,6.mid,experiment,0
72,159,33596,84,101,1,2,4,8,6.mid,experiment,0
1,17,7801,79,86,1,2,4,10,1.mid,experiment,0
2,18,8078,78,91,1,2,4,10,1.mid,experiment,0
3,20,8370,79,94,1,2,4,10,1.mid,experiment,0
4,22,8648,76,88,1,2,4,10,1.mid,experiment,0
5,24,8932,72,91,1,2,4,10,1.mid,experiment,0
6,27,9252,67,63,1,2,4,10,1.mid,experiment,0
7,29,9508,67,53,1,2,4,10,1.mid,experiment,0
8,31,9784,67,57,1,2,4,10,1.mid,experiment,0
9,33,10082,79,74,1,2,4,10,1.mid,experiment,0
10,34,10338,78,88,1,2,4,10,1.mid,experiment,0
11,36,10618,79,83,1,2,4,10,1.mid,experiment,0
12,38,10905,76,81,1,2,4,10,1.mid,experiment,0
13,40,11182,72,90,1,2,4,10,1.mid,experiment,0
14,42,11463,76,96,1,2,4,10,1.mid,experiment,0
15,44,11728,79,104,1,2,4,10,1.mid,experiment,0
16,46,11994,84,103,1,2,4,10,1.mid,experiment,0
17,48,12307,83,101,1,2,4,10,1.mid,experiment,0
18,51,12611,81,67,1,2,4,10,1.mid,experiment,0
19,53,12866,81,58,1,2,4,10,1.mid,experiment,0
20,55,13131,81,59,1,2,4,10,1.mid,experiment,0
21,57,13408,83,86,1,2,4,10,1.mid,experiment,0
22,58,13685,81,91,1,2,4,10,1.mid,experiment,0
23,60,13969,84,100,1,2,4,10,1.mid,experiment,0
24,62,14235,81,96,1,2,4,10,1.mid,experiment,0
25,64,14528,78,100,1,2,4,10,1.mid,experiment,0
26,66,14809,79,83,1,2,4,10,1.mid,experiment,0
27,69,15127,79,81,1,2,4,10,1.mid,experiment,0
28,71,15701,79,68,1,2,4,10,1.mid,experiment,0
29,73,16936,77,51,1,2,4,10,1.mid,experiment,0
30,75,17197,77,61,1,2,4,10,1.mid,experiment,0
31,77,17484,76,56,1,2,4,10,1.mid,experiment,0
32,79,17779,76,42,1,2,4,10,1.mid,experiment,0
33,81,18078,74,47,1,2,4,10,1.mid,experiment,0
34,83,19200,79,49,1,2,4,10,1.mid,experiment,0
35,85,19777,77,54,1,2,4,10,1.mid,experiment,0
36,87,20332,76,53,1,2,4,10,1.mid,experiment,0
37,89,20601,76,57,1,2,4,10,1.mid,experiment,0
38,91,20884,76,57,1,2,4,10,1.mid,experiment,0
39,93,21164,76,52,1,2,4,10,1.mid,experiment,0
40,95,21497,81,72,1,2,4,10,1.mid,experiment,0
41,96,21778,77,77,1,2,4,10,1.mid,experiment,0
42,98,22085,76,81,1,2,4,10,1.mid,experiment,0
43,100,22358,74,90,1,2,4,10,1.mid,experiment,0
44,102,22646,76,91,1,2,4,10,1.mid,experiment,0
45,104,22909,79,100,1,2,4,10,1.mid,experiment,0
46,106,23195,74,98,1,2,4,10,1.mid,experiment,0
47,108,23468,71,83,1,2,4,10,1.mid,experiment,0
48,111,23776,72,62,1,2,4,10,1.mid,experiment,0
49,113,24030,72,63,1,2,4,10,1.mid,experiment,0
50,115,24314,74,53,1,2,4,10,1.mid,experiment,0
51,117,24574,74,62,1,2,4,10,1.mid,experiment,0
52,119,24915,76,42,1,2,4,10,1.mid,experiment,0
53,121,25936,65,65,1,2,4,10,1.mid,experiment,0
54,123,26205,65,63,1,2,4,10,1.mid,experiment,0
55,125,26494,64,54,1,2,4,10,1.mid,experiment,0
56,127,26769,64,52,1,2,4,10,1.mid,experiment,0
57,129,27124,62,35,1,2,4,10,1.mid,experiment,0
58,131,28179,67,61,1,2,4,10,1.mid,experiment,0
59,133,28459,67,62,1,2,4,10,1.mid,experiment,0
60,135,28729,71,60,1,2,4,10,1.mid,experiment,0
61,137,28994,71,68,1,2,4,10,1.mid,experiment,0
62,139,29278,72,66,1,2,4,10,1.mid,experiment,0
63,141,29560,72,60,1,2,4,10,1.mid,experiment,0
64,143,29823,73,69,1,2,4,10,1.mid,experiment,0
65,145,30086,73,64,1,2,4,10,1.mid,experiment,0
66,147,30406,74,73,1,2,4,10,1.mid,experiment,0
67,149,30989,77,95,1,2,4,10,1.mid,experiment,0
68,151,31568,76,97,1,2,4,10,1.mid,experiment,0
69,153,32157,74,99,1,2,4,10,1.mid,experiment,0
70,155,32741,72,97,1,2,4,10,1.mid,experiment,0
71,157,33346,84,100,1,2,4,10,1.mid,experiment,0
72,159,34046,84,99,1,2,4,10,1.mid,experiment,0
1,17,7777,79,87,1,2,4,12,9.mid,experiment,0
2,18,8069,78,91,1,2,4,12,9.mid,experiment,0
3,20,8353,79,101,1,2,4,12,9.mid,experiment,0
4,22,8625,76,94,1,2,4,12,9.mid,experiment,0
5,24,8908,72,88,1,2,4,12,9.mid,experiment,0
6,26,9177,67,52,1,2,4,12,9.mid,experiment,0
7,29,9449,67,66,1,2,4,12,9.mid,experiment,0
8,31,9739,67,53,1,2,4,12,9.mid,experiment,0
9,33,10025,79,63,1,2,4,12,9.mid,experiment,0
10,34,10293,78,74,1,2,4,12,9.mid,experiment,0
11,36,10572,79,71,1,2,4,12,9.mid,experiment,0
12,38,10837,76,61,1,2,4,12,9.mid,experiment,0
13,39,11145,72,76,1,2,4,12,9.mid,experiment,0
14,42,11409,76,87,1,2,4,12,9.mid,experiment,0
15,44,11678,79,97,1,2,4,12,9.mid,experiment,0
16,46,11951,84,98,1,2,4,12,9.mid,experiment,0
17,48,12237,83,91,1,2,4,12,9.mid,experiment,0
18,50,12502,81,66,1,2,4,12,9.mid,experiment,0
19,53,12783,81,50,1,2,4,12,9.mid,experiment,0
20,55,13056,81,49,1,2,4,12,9.mid,experiment,0
21,57,13327,83,62,1,2,4,12,9.mid,experiment,0
22,58,13609,81,78,1,2,4,12,9.mid,experiment,0
23,60,13871,84,93,1,2,4,12,9.mid,experiment,0
24,62,14127,81,95,1,2,4,12,9.mid,experiment,0
25,64,14408,78,97,1,2,4,12,9.mid,experiment,0
26,66,14687,79,71,1,2,4,12,9.mid,experiment,0
27,69,14982,79,63,1,2,4,12,9.mid,experiment,0
28,71,15587,79,43,1,2,4,12,9.mid,experiment,0
29,73,16694,77,71,1,2,4,12,9.mid,experiment,0
30,75,16968,77,62,1,2,4,12,9.mid,experiment,0
31,77,17246,76,60,1,2,4,12,9.mid,experiment,0
32,79,17516,76,49,1,2,4,12,9.mid,experiment,0
33,81,17866,74,41,1,2,4,12,9.mid,experiment,0
34,83,18925,79,76,1,2,4,12,9.mid,experiment,0
35,85,19517,77,66,1,2,4,12,9.mid,experiment,0
36,87,20059,76,65,1,2,4,12,9.mid,experiment,0
37,89,20322,76,54,1,2,4,12,9.mid,experiment,0
38,91,20610,76,43,1,2,4,12,9.mid,experiment,0
39,93,20879,76,47,1,2,4,12,9.mid,experiment,0
40,95,21207,81,65,1,2,4,12,9.mid,experiment,0
41,96,21487,77,77,1,2,4,12,9.mid,experiment,0
42,98,21773,76,81,1,2,4,12,9.mid,experiment,0
43,100,22045,74,91,1,2,4,12,9.mid,experiment,0
44,102,22315,76,87,1,2,4,12,9.mid,experiment,0
45,104,22584,79,95,1,2,4,12,9.mid,experiment,0
46,106,22865,74,90,1,2,4,12,9.mid,experiment,0
47,108,23121,71,77,1,2,4,12,9.mid,experiment,0
48,111,23414,72,58,1,2,4,12,9.mid,experiment,0
49,113,23669,72,58,1,2,4,12,9.mid,experiment,0
50,115,23944,74,65,1,2,4,12,9.mid,experiment,0
51,117,24241,74,44,1,2,4,12,9.mid,experiment,0
52,119,24565,76,39,1,2,4,12,9.mid,experiment,0
53,121,25590,65,57,1,2,4,12,9.mid,experiment,0
54,123,25851,65,62,1,2,4,12,9.mid,experiment,0
55,125,26136,64,55,1,2,4,12,9.mid,experiment,0
56,127,26402,64,53,1,2,4,12,9.mid,experiment,0
57,129,26764,62,37,1,2,4,12,9.mid,experiment,0
58,131,27814,67,55,1,2,4,12,9.mid,experiment,0
59,133,28084,67,53,1,2,4,12,9.mid,experiment,0
60,135,28374,71,54,1,2,4,12,9.mid,experiment,0
61,137,28651,71,41,1,2,4,12,9.mid,experiment,0
62,139,28909,72,67,1,2,4,12,9.mid,experiment,0
63,141,29183,72,58,1,2,4,12,9.mid,experiment,0
64,143,29445,73,69,1,2,4,12,9.mid,experiment,0
65,145,29725,73,65,1,2,4,12,9.mid,experiment,0
66,147,30045,74,76,1,2,4,12,9.mid,experiment,0
67,149,30656,77,90,1,2,4,12,9.mid,experiment,0
68,151,31238,76,91,1,2,4,12,9.mid,experiment,0
69,153,31824,74,99,1,2,4,12,9.mid,experiment,0
70,155,32420,72,100,1,2,4,12,9.mid,experiment,0
71,157,33009,84,107,1,2,4,12,9.mid,experiment,0
72,159,33705,84,94,1,2,4,12,9.mid,experiment,0
1,17,7844,79,78,1,2,4,14,11.mid,experiment,0
2,18,8126,78,86,1,2,4,14,11.mid,experiment,0
3,20,8428,79,90,1,2,4,14,11.mid,experiment,0
4,22,8700,76,82,1,2,4,14,11.mid,experiment,0
5,24,8997,72,79,1,2,4,14,11.mid,experiment,0
6,26,9278,67,61,1,2,4,14,11.mid,experiment,0
7,29,9560,67,60,1,2,4,14,11.mid,experiment,0
8,31,9839,67,57,1,2,4,14,11.mid,experiment,0
9,33,10146,79,65,1,2,4,14,11.mid,experiment,0
10,34,10413,78,80,1,2,4,14,11.mid,experiment,0
11,36,10696,79,87,1,2,4,14,11.mid,experiment,0
12,38,10958,76,82,1,2,4,14,11.mid,experiment,0
13,41,11256,72,91,1,2,4,14,11.mid,experiment,0
14,42,11533,76,91,1,2,4,14,11.mid,experiment,0
15,44,11787,79,98,1,2,4,14,11.mid,experiment,0
16,47,12048,84,94,1,2,4,14,11.mid,experiment,0
17,48,12327,83,94,1,2,4,14,11.mid,experiment,0
18,50,12612,81,70,1,2,4,14,11.mid,experiment,0
19,53,12875,81,65,1,2,4,14,11.mid,experiment,0
20,55,13139,81,65,1,2,4,14,11.mid,experiment,0
21,57,13434,83,76,1,2,4,14,11.mid,experiment,0
22,58,13711,81,90,1,2,4,14,11.mid,experiment,0
23,60,13968,84,95,1,2,4,14,11.mid,experiment,0
24,62,14237,81,88,1,2,4,14,11.mid,experiment,0
25,64,14524,78,89,1,2,4,14,11.mid,experiment,0
26,66,14811,79,68,1,2,4,14,11.mid,experiment,0
27,69,15098,79,59,1,2,4,14,11.mid,experiment,0
28,71,15696,79,36,1,2,4,14,11.mid,experiment,0
29,73,16740,77,52,1,2,4,14,11.mid,experiment,0
30,75,16997,77,64,1,2,4,14,11.mid,experiment,0
31,77,17288,76,45,1,2,4,14,11.mid,experiment,0
32,79,17547,76,60,1,2,4,14,11.mid,experiment,0
33,81,17889,74,42,1,2,4,14,11.mid,experiment,0
34,83,18987,79,53,1,2,4,14,11.mid,experiment,0
35,85,19589,77,51,1,2,4,14,11.mid,experiment,0
36,87,20152,76,51,1,2,4,14,11.mid,experiment,0
37,89,20434,76,52,1,2,4,14,11.mid,experiment,0
38,91,20694,76,60,1,2,4,14,11.mid,experiment,0
39,93,20973,76,51,1,2,4,14,11.mid,experiment,0
40,95,21253,81,78,1,2,4,14,11.mid,experiment,0
41,96,21517,77,88,1,2,4,14,11.mid,experiment,0
42,98,21801,76,91,1,2,4,14,11.mid,experiment,0
43,100,22063,74,90,1,2,4,14,11.mid,experiment,0
44,102,22343,76,88,1,2,4,14,11.mid,experiment,0
45,104,22619,79,91,1,2,4,14,11.mid,experiment,0
46,106,22890,74,93,1,2,4,14,11.mid,experiment,0
47,108,23147,71,94,1,2,4,14,11.mid,experiment,0
48,111,23445,72,74,1,2,4,14,11.mid,experiment,0
49,113,23701,72,66,1,2,4,14,11.mid,experiment,0
50,115,23955,74,61,1,2,4,14,11.mid,experiment,0
51,117,24209,74,54,1,2,4,14,11.mid,experiment,0
52,119,24560,76,40,1,2,4,14,11.mid,experiment,0
53,121,25597,65,51,1,2,4,14,11.mid,experiment,0
54,123,25837,65,56,1,2,4,14,11.mid,experiment,0
55,125,26136,64,49,1,2,4,14,11.mid,experiment,0
56,127,26411,64,47,1,2,4,14,11.mid,experiment,0
57,129,26729,62,49,1,2,4,14,11.mid,experiment,0
58,131,27778,67,67,1,2,4,14,11.mid,experiment,0
59,133,28046,67,55,1,2,4,14,11.mid,experiment,0
60,135,28337,71,63,1,2,4,14,11.mid,experiment,0
61,137,28609,71,60,1,2,4,14,11.mid,experiment,0
62,139,28878,72,71,1,2,4,14,11.mid,experiment,0
63,141,29153,72,63,1,2,4,14,11.mid,experiment,0
64,143,29426,73,68,1,2,4,14,11.mid,experiment,0
65,145,29704,73,60,1,2,4,14,11.mid,experiment,0
66,147,30026,74,71,1,2,4,14,11.mid,experiment,0
67,149,30613,77,89,1,2,4,14,11.mid,experiment,0
68,151,31154,76,95,1,2,4,14,11.mid,experiment,0
69,153,31732,74,103,1,2,4,14,11.mid,experiment,0
70,155,32330,72,103,1,2,4,14,11.mid,experiment,0
71,157,32902,84,97,1,2,4,14,11.mid,experiment,0
72,159,33516,84,100,1,2,4,14,11.mid,experiment,0
1,17,7908,79,54,1,2,4,16,15.mid,experiment,0
2,18,8190,78,70,1,2,4,16,15.mid,experiment,0
3,20,8502,79,81,1,2,4,16,15.mid,experiment,0
4,22,8768,76,81,1,2,4,16,15.mid,experiment,0
5,24,9074,72,87,1,2,4,16,15.mid,experiment,0
6,27,9388,67,60,1,2,4,16,15.mid,experiment,0
7,29,9646,67,62,1,2,4,16,15.mid,experiment,0
8,31,9934,67,53,1,2,4,16,15.mid,experiment,0
9,33,10204,79,68,1,2,4,16,15.mid,experiment,0
10,34,10476,78,87,1,2,4,16,15.mid,experiment,0
11,36,10766,79,79,1,2,4,16,15.mid,experiment,0
12,38,11036,76,65,1,2,4,16,15.mid,experiment,0
13,40,11338,72,79,1,2,4,16,15.mid,experiment,0
14,42,11612,76,87,1,2,4,16,15.mid,experiment,0
15,44,11870,79,98,1,2,4,16,15.mid,experiment,0
16,46,12124,84,100,1,2,4,16,15.mid,experiment,0
17,48,12400,83,98,1,2,4,16,15.mid,experiment,0
18,51,12688,81,63,1,2,4,16,15.mid,experiment,0
19,53,12964,81,58,1,2,4,16,15.mid,experiment,0
20,55,13226,81,56,1,2,4,16,15.mid,experiment,0
21,57,13504,83,81,1,2,4,16,15.mid,experiment,0
22,58,13768,81,95,1,2,4,16,15.mid,experiment,0
23,60,14072,84,100,1,2,4,16,15.mid,experiment,0
24,62,14344,81,87,1,2,4,16,15.mid,experiment,0
25,64,14624,78,81,1,2,4,16,15.mid,experiment,0
26,66,14894,79,70,1,2,4,16,15.mid,experiment,0
27,69,15180,79,64,1,2,4,16,15.mid,experiment,0
28,71,15738,79,44,1,2,4,16,15.mid,experiment,0
29,73,16840,77,58,1,2,4,16,15.mid,experiment,0
30,75,17112,77,62,1,2,4,16,15.mid,experiment,0
31,77,17398,76,62,1,2,4,16,15.mid,experiment,0
32,79,17682,76,58,1,2,4,16,15.mid,experiment,0
33,81,18015,74,37,1,2,4,16,15.mid,experiment,0
34,83,19106,79,53,1,2,4,16,15.mid,experiment,0
35,85,19686,77,53,1,2,4,16,15.mid,experiment,0
36,87,20250,76,53,1,2,4,16,15.mid,experiment,0
37,89,20518,76,51,1,2,4,16,15.mid,experiment,0
38,91,20814,76,47,1,2,4,16,15.mid,experiment,0
39,93,21092,76,48,1,2,4,16,15.mid,experiment,0
40,95,21398,81,57,1,2,4,16,15.mid,experiment,0
41,96,21684,77,74,1,2,4,16,15.mid,experiment,0
42,98,21957,76,76,1,2,4,16,15.mid,experiment,0
43,100,22233,74,87,1,2,4,16,15.mid,experiment,0
44,102,22504,76,88,1,2,4,16,15.mid,experiment,0
45,104,22775,79,95,1,2,4,16,15.mid,experiment,0
46,106,23050,74,95,1,2,4,16,15.mid,experiment,0
47,108,23314,71,79,1,2,4,16,15.mid,experiment,0
48,111,23612,72,58,1,2,4,16,15.mid,experiment,0
49,113,23867,72,63,1,2,4,16,15.mid,experiment,0
50,115,24142,74,59,1,2,4,16,15.mid,experiment,0
51,117,24435,74,45,1,2,4,16,15.mid,experiment,0
52,119,24772,76,44,1,2,4,16,15.mid,experiment,0
53,121,25818,65,65,1,2,4,16,15.mid,experiment,0
54,123,26082,65,63,1,2,4,16,15.mid,experiment,0
55,125,26380,64,58,1,2,4,16,15.mid,experiment,0
56,127,26654,64,54,1,2,4,16,15.mid,experiment,0
57,129,27018,62,42,1,2,4,16,15.mid,experiment,0
58,131,28094,67,57,1,2,4,16,15.mid,experiment,0
59,133,28376,67,56,1,2,4,16,15.mid,experiment,0
60,135,28666,71,49,1,2,4,16,15.mid,experiment,0
61,137,28915,71,66,1,2,4,16,15.mid,experiment,0
62,139,29196,72,63,1,2,4,16,15.mid,experiment,0
63,141,29474,72,60,1,2,4,16,15.mid,experiment,0
64,143,29760,73,63,1,2,4,16,15.mid,experiment,0
65,145,30028,73,66,1,2,4,16,15.mid,experiment,0
66,147,30346,74,70,1,2,4,16,15.mid,experiment,0
67,149,30922,77,89,1,2,4,16,15.mid,experiment,0
68,151,31490,76,95,1,2,4,16,15.mid,experiment,0
69,153,32064,74,101,1,2,4,16,15.mid,experiment,0
70,155,32658,72,99,1,2,4,16,15.mid,experiment,0
71,157,33228,84,109,1,2,4,16,15.mid,experiment,0
72,159,33906,84,100,1,2,4,16,15.mid,experiment,0
1,17,7887,79,55,1,2,5,3,5.mid,experiment,0
2,18,8164,78,75,1,2,5,3,5.mid,experiment,0
3,20,8460,79,79,1,2,5,3,5.mid,experiment,0
4,22,8737,76,68,1,2,5,3,5.mid,experiment,0
5,24,9035,72,79,1,2,5,3,5.mid,experiment,0
6,27,9358,67,50,1,2,5,3,5.mid,experiment,0
7,29,9606,67,55,1,2,5,3,5.mid,experiment,0
8,31,9851,67,58,1,2,5,3,5.mid,experiment,0
9,33,10164,79,60,1,2,5,3,5.mid,experiment,0
10,34,10434,78,75,1,2,5,3,5.mid,experiment,0
11,36,10711,79,79,1,2,5,3,5.mid,experiment,0
12,38,10984,76,68,1,2,5,3,5.mid,experiment,0
13,40,11270,72,76,1,2,5,3,5.mid,experiment,0
14,42,11552,76,81,1,2,5,3,5.mid,experiment,0
15,44,11817,79,87,1,2,5,3,5.mid,experiment,0
16,46,12095,84,86,1,2,5,3,5.mid,experiment,0
17,48,12401,83,82,1,2,5,3,5.mid,experiment,0
18,51,12700,81,63,1,2,5,3,5.mid,experiment,0
19,53,12978,81,65,1,2,5,3,5.mid,experiment,0
20,55,13261,81,51,1,2,5,3,5.mid,experiment,0
21,57,13549,83,68,1,2,5,3,5.mid,experiment,0
22,58,13818,81,65,1,2,5,3,5.mid,experiment,0
23,60,14115,84,71,1,2,5,3,5.mid,experiment,0
24,62,14400,81,75,1,2,5,3,5.mid,experiment,0
25,64,14684,78,63,1,2,5,3,5.mid,experiment,0
26,67,14975,79,62,1,2,5,3,5.mid,experiment,0
27,69,15272,79,62,1,2,5,3,5.mid,experiment,0
28,71,15866,79,57,1,2,5,3,5.mid,experiment,0
29,73,17085,77,57,1,2,5,3,5.mid,experiment,0
30,75,17377,77,56,1,2,5,3,5.mid,experiment,0
31,77,17658,76,53,1,2,5,3,5.mid,experiment,0
32,79,17944,76,49,1,2,5,3,5.mid,experiment,0
33,81,18287,74,52,1,2,5,3,5.mid,experiment,0
34,83,19598,79,75,1,2,5,3,5.mid,experiment,0
35,84,20195,77,70,1,2,5,3,5.mid,experiment,0
36,87,20795,76,63,1,2,5,3,5.mid,experiment,0
37,89,21082,76,68,1,2,5,3,5.mid,experiment,0
38,91,21340,76,74,1,2,5,3,5.mid,experiment,0
39,93,21613,76,67,1,2,5,3,5.mid,experiment,0
40,95,21936,81,65,1,2,5,3,5.mid,experiment,0
41,96,22224,77,74,1,2,5,3,5.mid,experiment,0
42,98,22507,76,71,1,2,5,3,5.mid,experiment,0
43,100,22792,74,76,1,2,5,3,5.mid,experiment,0
44,102,23094,76,63,1,2,5,3,5.mid,experiment,0
45,104,23366,79,75,1,2,5,3,5.mid,experiment,0
46,105,23646,74,75,1,2,5,3,5.mid,experiment,0
47,108,23927,71,70,1,2,5,3,5.mid,experiment,0
48,111,24197,72,67,1,2,5,3,5.mid,experiment,0
49,113,24488,72,72,1,2,5,3,5.mid,experiment,0
50,115,24752,74,71,1,2,5,3,5.mid,experiment,0
51,117,25027,74,70,1,2,5,3,5.mid,experiment,0
52,119,25380,76,55,1,2,5,3,5.mid,experiment,0
53,121,26617,65,67,1,2,5,3,5.mid,experiment,0
54,123,26903,65,70,1,2,5,3,5.mid,experiment,0
55,125,27203,64,50,1,2,5,3,5.mid,experiment,0
56,127,27468,64,61,1,2,5,3,5.mid,experiment,0
57,129,27812,62,58,1,2,5,3,5.mid,experiment,0
58,131,29000,67,61,1,2,5,3,5.mid,experiment,0
59,133,29323,67,34,1,2,5,3,5.mid,experiment,0
60,135,29579,71,50,1,2,5,3,5.mid,experiment,0
61,137,29846,71,71,1,2,5,3,5.mid,experiment,0
62,139,30130,72,67,1,2,5,3,5.mid,experiment,0
63,141,30394,72,74,1,2,5,3,5.mid,experiment,0
64,143,30675,73,77,1,2,5,3,5.mid,experiment,0
65,145,30954,73,79,1,2,5,3,5.mid,experiment,0
66,147,31275,74,79,1,2,5,3,5.mid,experiment,0
67,148,31861,77,82,1,2,5,3,5.mid,experiment,0
68,150,32441,76,74,1,2,5,3,5.mid,experiment,0
69,152,33046,74,80,1,2,5,3,5.mid,experiment,0
70,155,33655,72,78,1,2,5,3,5.mid,experiment,0
71,156,34271,84,83,1,2,5,3,5.mid,experiment,0
72,159,34949,84,78,1,2,5,3,5.mid,experiment,0
1,17,7862,79,61,1,2,5,4,9.mid,experiment,0
2,18,8140,78,74,1,2,5,4,9.mid,experiment,0
3,20,8428,79,78,1,2,5,4,9.mid,experiment,0
4,22,8687,76,81,1,2,5,4,9.mid,experiment,0
5,24,9008,72,72,1,2,5,4,9.mid,experiment,0
6,27,9307,67,64,1,2,5,4,9.mid,experiment,0
7,29,9582,67,63,1,2,5,4,9.mid,experiment,0
8,31,9846,67,64,1,2,5,4,9.mid,experiment,0
9,33,10170,79,55,1,2,5,4,9.mid,experiment,0
10,34,10442,78,70,1,2,5,4,9.mid,experiment,0
11,36,10722,79,78,1,2,5,4,9.mid,experiment,0
12,38,10993,76,78,1,2,5,4,9.mid,experiment,0
13,40,11280,72,82,1,2,5,4,9.mid,experiment,0
14,42,11542,76,84,1,2,5,4,9.mid,experiment,0
15,44,11828,79,84,1,2,5,4,9.mid,experiment,0
16,46,12098,84,91,1,2,5,4,9.mid,experiment,0
17,48,12440,83,85,1,2,5,4,9.mid,experiment,0
18,50,12770,81,70,1,2,5,4,9.mid,experiment,0
19,53,13050,81,46,1,2,5,4,9.mid,experiment,0
20,55,13312,81,61,1,2,5,4,9.mid,experiment,0
21,57,13599,83,72,1,2,5,4,9.mid,experiment,0
22,58,13881,81,76,1,2,5,4,9.mid,experiment,0
23,60,14168,84,76,1,2,5,4,9.mid,experiment,0
24,62,14455,81,82,1,2,5,4,9.mid,experiment,0
25,64,14762,78,78,1,2,5,4,9.mid,experiment,0
26,66,15040,79,78,1,2,5,4,9.mid,experiment,0
27,69,15338,79,78,1,2,5,4,9.mid,experiment,0
28,71,15968,79,78,1,2,5,4,9.mid,experiment,0
29,73,17236,77,58,1,2,5,4,9.mid,experiment,0
30,75,17526,77,47,1,2,5,4,9.mid,experiment,0
31,77,17798,76,50,1,2,5,4,9.mid,experiment,0
32,79,18074,76,60,1,2,5,4,9.mid,experiment,0
33,81,18403,74,56,1,2,5,4,9.mid,experiment,0
34,83,19596,79,61,1,2,5,4,9.mid,experiment,0
35,84,20210,77,61,1,2,5,4,9.mid,experiment,0
36,87,20804,76,51,1,2,5,4,9.mid,experiment,0
37,89,21100,76,48,1,2,5,4,9.mid,experiment,0
38,91,21363,76,55,1,2,5,4,9.mid,experiment,0
39,93,21648,76,62,1,2,5,4,9.mid,experiment,0
40,95,22005,81,66,1,2,5,4,9.mid,experiment,0
41,96,22290,77,78,1,2,5,4,9.mid,experiment,0
42,98,22576,76,81,1,2,5,4,9.mid,experiment,0
43,100,22842,74,82,1,2,5,4,9.mid,experiment,0
44,102,23120,76,79,1,2,5,4,9.mid,experiment,0
45,104,23400,79,85,1,2,5,4,9.mid,experiment,0
46,106,23690,74,81,1,2,5,4,9.mid,experiment,0
47,108,23992,71,70,1,2,5,4,9.mid,experiment,0
48,110,24274,72,72,1,2,5,4,9.mid,experiment,0
49,113,24550,72,59,1,2,5,4,9.mid,experiment,0
50,115,24826,74,61,1,2,5,4,9.mid,experiment,0
51,117,25108,74,54,1,2,5,4,9.mid,experiment,0
52,119,25468,76,38,1,2,5,4,9.mid,experiment,0
53,121,26680,65,53,1,2,5,4,9.mid,experiment,0
54,123,26942,65,50,1,2,5,4,9.mid,experiment,0
55,125,27232,64,58,1,2,5,4,9.mid,experiment,0
56,127,27512,64,52,1,2,5,4,9.mid,experiment,0
57,129,27854,62,48,1,2,5,4,9.mid,experiment,0
58,131,29061,67,61,1,2,5,4,9.mid,experiment,0
59,133,29392,67,60,1,2,5,4,9.mid,experiment,0
60,135,29678,71,48,1,2,5,4,9.mid,experiment,0
61,137,29942,71,46,1,2,5,4,9.mid,experiment,0
62,139,30200,72,68,1,2,5,4,9.mid,experiment,0
63,141,30463,72,74,1,2,5,4,9.mid,experiment,0
64,143,30737,73,76,1,2,5,4,9.mid,experiment,0
65,145,31014,73,78,1,2,5,4,9.mid,experiment,0
66,147,31296,74,82,1,2,5,4,9.mid,experiment,0
67,148,31892,77,87,1,2,5,4,9.mid,experiment,0
68,150,32487,76,78,1,2,5,4,9.mid,experiment,0
69,152,33094,74,78,1,2,5,4,9.mid,experiment,0
70,154,33726,72,75,1,2,5,4,9.mid,experiment,0
71,156,34334,84,81,1,2,5,4,9.mid,experiment,0
72,159,35010,84,78,1,2,5,4,9.mid,experiment,0
1,17,7839,79,68,1,2,5,5,12.mid,experiment,0
2,18,8114,78,78,1,2,5,5,12.mid,experiment,0
3,20,8397,79,85,1,2,5,5,12.mid,experiment,0
4,22,8654,76,83,1,2,5,5,12.mid,experiment,0
5,24,8968,72,79,1,2,5,5,12.mid,experiment,0
6,27,9282,67,57,1,2,5,5,12.mid,experiment,0
7,29,9548,67,54,1,2,5,5,12.mid,experiment,0
8,31,9812,67,68,1,2,5,5,12.mid,experiment,0
9,33,10126,79,72,1,2,5,5,12.mid,experiment,0
10,34,10395,78,82,1,2,5,5,12.mid,experiment,0
11,36,10670,79,84,1,2,5,5,12.mid,experiment,0
12,38,10937,76,79,1,2,5,5,12.mid,experiment,0
13,40,11223,72,77,1,2,5,5,12.mid,experiment,0
14,42,11501,76,81,1,2,5,5,12.mid,experiment,0
15,44,11776,79,84,1,2,5,5,12.mid,experiment,0
16,46,12044,84,87,1,2,5,5,12.mid,experiment,0
17,48,12368,83,85,1,2,5,5,12.mid,experiment,0
18,51,12675,81,76,1,2,5,5,12.mid,experiment,0
19,53,12929,81,70,1,2,5,5,12.mid,experiment,0
20,55,13198,81,59,1,2,5,5,12.mid,experiment,0
21,57,13477,83,84,1,2,5,5,12.mid,experiment,0
22,58,13752,81,85,1,2,5,5,12.mid,experiment,0
23,60,14038,84,81,1,2,5,5,12.mid,experiment,0
24,62,14304,81,81,1,2,5,5,12.mid,experiment,0
25,64,14588,78,78,1,2,5,5,12.mid,experiment,0
26,66,14862,79,80,1,2,5,5,12.mid,experiment,0
27,69,15166,79,76,1,2,5,5,12.mid,experiment,0
28,71,15778,79,75,1,2,5,5,12.mid,experiment,0
29,73,16956,77,56,1,2,5,5,12.mid,experiment,0
30,75,17229,77,58,1,2,5,5,12.mid,experiment,0
31,77,17521,76,50,1,2,5,5,12.mid,experiment,0
32,79,17802,76,54,1,2,5,5,12.mid,experiment,0
33,81,18109,74,58,1,2,5,5,12.mid,experiment,0
34,83,19334,79,58,1,2,5,5,12.mid,experiment,0
35,84,19923,77,64,1,2,5,5,12.mid,experiment,0
36,86,20521,76,55,1,2,5,5,12.mid,experiment,0
37,89,20806,76,59,1,2,5,5,12.mid,experiment,0
38,91,21077,76,61,1,2,5,5,12.mid,experiment,0
39,93,21341,76,63,1,2,5,5,12.mid,experiment,0
40,95,21665,81,79,1,2,5,5,12.mid,experiment,0
41,96,21959,77,78,1,2,5,5,12.mid,experiment,0
42,98,22231,76,71,1,2,5,5,12.mid,experiment,0
43,100,22489,74,78,1,2,5,5,12.mid,experiment,0
44,102,22754,76,74,1,2,5,5,12.mid,experiment,0
45,104,23035,79,78,1,2,5,5,12.mid,experiment,0
46,106,23308,74,83,1,2,5,5,12.mid,experiment,0
47,108,23575,71,71,1,2,5,5,12.mid,experiment,0
48,110,23877,72,70,1,2,5,5,12.mid,experiment,0
49,113,24129,72,63,1,2,5,5,12.mid,experiment,0
50,115,24408,74,58,1,2,5,5,12.mid,experiment,0
51,117,24676,74,58,1,2,5,5,12.mid,experiment,0
52,119,25007,76,48,1,2,5,5,12.mid,experiment,0
53,121,26210,65,53,1,2,5,5,12.mid,experiment,0
54,123,26479,65,50,1,2,5,5,12.mid,experiment,0
55,125,26760,64,46,1,2,5,5,12.mid,experiment,0
56,127,27037,64,50,1,2,5,5,12.mid,experiment,0
57,129,27389,62,49,1,2,5,5,12.mid,experiment,0
58,131,28525,67,51,1,2,5,5,12.mid,experiment,0
59,133,28812,67,48,1,2,5,5,12.mid,experiment,0
60,135,29074,71,62,1,2,5,5,12.mid,experiment,0
61,137,29351,71,57,1,2,5,5,12.mid,experiment,0
62,139,29616,72,64,1,2,5,5,12.mid,experiment,0
63,141,29883,72,73,1,2,5,5,12.mid,experiment,0
64,143,30143,73,74,1,2,5,5,12.mid,experiment,0
65,145,30407,73,77,1,2,5,5,12.mid,experiment,0
66,147,30719,74,85,1,2,5,5,12.mid,experiment,0
67,148,31291,77,84,1,2,5,5,12.mid,experiment,0
68,150,31881,76,81,1,2,5,5,12.mid,experiment,0
69,152,32455,74,87,1,2,5,5,12.mid,experiment,0
70,154,33064,72,89,1,2,5,5,12.mid,experiment,0
71,156,33666,84,87,1,2,5,5,12.mid,experiment,0
72,159,34305,84,85,1,2,5,5,12.mid,experiment,0
1,17,7881,79,63,1,2,5,6,6.mid,experiment,0
2,18,8161,78,75,1,2,5,6,6.mid,experiment,0
3,20,8456,79,76,1,2,5,6,6.mid,experiment,0
4,22,8722,76,80,1,2,5,6,6.mid,experiment,0
5,24,9063,72,76,1,2,5,6,6.mid,experiment,0
6,27,9402,67,55,1,2,5,6,6.mid,experiment,0
7,29,9667,67,65,1,2,5,6,6.mid,experiment,0
8,31,9930,67,66,1,2,5,6,6.mid,experiment,0
9,33,10248,79,67,1,2,5,6,6.mid,experiment,0
10,34,10518,78,79,1,2,5,6,6.mid,experiment,0
11,36,10794,79,80,1,2,5,6,6.mid,experiment,0
12,38,11063,76,70,1,2,5,6,6.mid,experiment,0
13,40,11353,72,73,1,2,5,6,6.mid,experiment,0
14,42,11639,76,79,1,2,5,6,6.mid,experiment,0
15,44,11927,79,90,1,2,5,6,6.mid,experiment,0
16,46,12197,84,88,1,2,5,6,6.mid,experiment,0
17,48,12521,83,80,1,2,5,6,6.mid,experiment,0
18,51,12825,81,66,1,2,5,6,6.mid,experiment,0
19,53,13101,81,67,1,2,5,6,6.mid,experiment,0
20,55,13357,81,68,1,2,5,6,6.mid,experiment,0
21,57,13641,83,69,1,2,5,6,6.mid,experiment,0
22,58,13917,81,81,1,2,5,6,6.mid,experiment,0
23,60,14198,84,80,1,2,5,6,6.mid,experiment,0
24,62,14483,81,83,1,2,5,6,6.mid,experiment,0
25,64,14758,78,78,1,2,5,6,6.mid,experiment,0
26,66,15039,79,83,1,2,5,6,6.mid,experiment,0
27,69,15329,79,78,1,2,5,6,6.mid,experiment,0
28,71,15945,79,81,1,2,5,6,6.mid,experiment,0
29,73,17129,77,66,1,2,5,6,6.mid,experiment,0
30,75,17409,77,68,1,2,5,6,6.mid,experiment,0
31,77,17669,76,66,1,2,5,6,6.mid,experiment,0
32,79,17938,76,65,1,2,5,6,6.mid,experiment,0
33,81,18255,74,63,1,2,5,6,6.mid,experiment,0
34,83,19477,79,77,1,2,5,6,6.mid,experiment,0
35,84,20089,77,79,1,2,5,6,6.mid,experiment,0
36,86,20661,76,67,1,2,5,6,6.mid,experiment,0
37,89,20951,76,63,1,2,5,6,6.mid,experiment,0
38,91,21205,76,79,1,2,5,6,6.mid,experiment,0
39,93,21472,76,87,1,2,5,6,6.mid,experiment,0
40,95,21802,81,86,1,2,5,6,6.mid,experiment,0
41,96,22084,77,85,1,2,5,6,6.mid,experiment,0
42,98,22358,76,75,1,2,5,6,6.mid,experiment,0
43,100,22616,74,79,1,2,5,6,6.mid,experiment,0
44,102,22898,76,81,1,2,5,6,6.mid,experiment,0
45,104,23167,79,81,1,2,5,6,6.mid,experiment,0
46,106,23445,74,82,1,2,5,6,6.mid,experiment,0
47,109,23732,71,66,1,2,5,6,6.mid,experiment,0
48,110,24012,72,68,1,2,5,6,6.mid,experiment,0
49,113,24310,72,66,1,2,5,6,6.mid,experiment,0
50,115,24568,74,59,1,2,5,6,6.mid,experiment,0
51,117,24840,74,63,1,2,5,6,6.mid,experiment,0
52,119,25217,76,51,1,2,5,6,6.mid,experiment,0
53,121,26410,65,67,1,2,5,6,6.mid,experiment,0
54,123,26699,65,70,1,2,5,6,6.mid,experiment,0
55,125,26957,64,54,1,2,5,6,6.mid,experiment,0
56,127,27226,64,59,1,2,5,6,6.mid,experiment,0
57,129,27550,62,58,1,2,5,6,6.mid,experiment,0
58,131,28703,67,52,1,2,5,6,6.mid,experiment,0
59,133,28968,67,67,1,2,5,6,6.mid,experiment,0
60,135,29229,71,68,1,2,5,6,6.mid,experiment,0
61,137,29500,71,76,1,2,5,6,6.mid,experiment,0
62,139,29781,72,47,1,2,5,6,6.mid,experiment,0
63,141,30037,72,81,1,2,5,6,6.mid,experiment,0
64,143,30308,73,81,1,2,5,6,6.mid,experiment,0
65,145,30574,73,91,1,2,5,6,6.mid,experiment,0
66,147,30895,74,93,1,2,5,6,6.mid,experiment,0
67,148,31477,77,91,1,2,5,6,6.mid,experiment,0
68,150,32058,76,81,1,2,5,6,6.mid,experiment,0
69,152,32647,74,84,1,2,5,6,6.mid,experiment,0
70,154,33257,72,82,1,2,5,6,6.mid,experiment,0
71,156,33856,84,86,1,2,5,6,6.mid,experiment,0
72,159,34500,84,81,1,2,5,6,6.mid,experiment,0
1,17,7906,79,69,1,2,5,8,1.mid,experiment,0
2,18,8187,78,78,1,2,5,8,1.mid,experiment,0
3,20,8475,79,78,1,2,5,8,1.mid,experiment,0
4,22,8749,76,80,1,2,5,8,1.mid,experiment,0
5,24,9053,72,70,1,2,5,8,1.mid,experiment,0
6,27,9347,67,52,1,2,5,8,1.mid,experiment,0
7,29,9627,67,44,1,2,5,8,1.mid,experiment,0
8,31,9905,67,61,1,2,5,8,1.mid,experiment,0
9,33,10236,79,72,1,2,5,8,1.mid,experiment,0
10,34,10502,78,76,1,2,5,8,1.mid,experiment,0
11,36,10786,79,81,1,2,5,8,1.mid,experiment,0
12,38,11050,76,79,1,2,5,8,1.mid,experiment,0
13,40,11336,72,80,1,2,5,8,1.mid,experiment,0
14,42,11618,76,81,1,2,5,8,1.mid,experiment,0
15,44,11883,79,87,1,2,5,8,1.mid,experiment,0
16,46,12169,84,90,1,2,5,8,1.mid,experiment,0
17,48,12475,83,81,1,2,5,8,1.mid,experiment,0
18,51,12792,81,52,1,2,5,8,1.mid,experiment,0
19,53,13046,81,67,1,2,5,8,1.mid,experiment,0
20,55,13332,81,44,1,2,5,8,1.mid,experiment,0
21,57,13628,83,85,1,2,5,8,1.mid,experiment,0
22,58,13894,81,90,1,2,5,8,1.mid,experiment,0
23,60,14183,84,85,1,2,5,8,1.mid,experiment,0
24,62,14458,81,91,1,2,5,8,1.mid,experiment,0
25,64,14745,78,79,1,2,5,8,1.mid,experiment,0
26,67,15024,79,82,1,2,5,8,1.mid,experiment,0
27,69,15328,79,87,1,2,5,8,1.mid,experiment,0
28,71,15941,79,81,1,2,5,8,1.mid,experiment,0
29,73,17172,77,54,1,2,5,8,1.mid,experiment,0
30,75,17445,77,57,1,2,5,8,1.mid,experiment,0
31,77,17749,76,54,1,2,5,8,1.mid,experiment,0
32,79,18027,76,58,1,2,5,8,1.mid,experiment,0
33,81,18352,74,54,1,2,5,8,1.mid,experiment,0
34,83,19601,79,62,1,2,5,8,1.mid,experiment,0
35,84,20219,77,57,1,2,5,8,1.mid,experiment,0
36,86,20775,76,58,1,2,5,8,1.mid,experiment,0
37,89,21057,76,51,1,2,5,8,1.mid,experiment,0
38,91,21320,76,63,1,2,5,8,1.mid,experiment,0
39,93,21588,76,60,1,2,5,8,1.mid,experiment,0
40,95,21918,81,77,1,2,5,8,1.mid,experiment,0
41,96,22196,77,86,1,2,5,8,1.mid,experiment,0
42,98,22469,76,78,1,2,5,8,1.mid,experiment,0
43,100,22745,74,84,1,2,5,8,1.mid,experiment,0
44,102,23017,76,82,1,2,5,8,1.mid,experiment,0
45,104,23295,79,88,1,2,5,8,1.mid,experiment,0
46,106,23569,74,84,1,2,5,8,1.mid,experiment,0
47,109,23845,71,81,1,2,5,8,1.mid,experiment,0
48,110,24152,72,61,1,2,5,8,1.mid,experiment,0
49,113,24421,72,62,1,2,5,8,1.mid,experiment,0
50,115,24695,74,60,1,2,5,8,1.mid,experiment,0
51,117,24966,74,59,1,2,5,8,1.mid,experiment,0
52,119,25321,76,48,1,2,5,8,1.mid,experiment,0
53,121,26534,65,59,1,2,5,8,1.mid,experiment,0
54,123,26825,65,36,1,2,5,8,1.mid,experiment,0
55,125,27106,64,50,1,2,5,8,1.mid,experiment,0
56,127,27391,64,49,1,2,5,8,1.mid,experiment,0
57,129,27736,62,47,1,2,5,8,1.mid,experiment,0
58,131,28916,67,55,1,2,5,8,1.mid,experiment,0
59,133,29190,67,57,1,2,5,8,1.mid,experiment,0
60,135,29477,71,53,1,2,5,8,1.mid,experiment,0
61,137,29741,71,70,1,2,5,8,1.mid,experiment,0
62,139,30024,72,68,1,2,5,8,1.mid,experiment,0
63,141,30290,72,76,1,2,5,8,1.mid,experiment,0
64,143,30568,73,76,1,2,5,8,1.mid,experiment,0
65,145,30846,73,79,1,2,5,8,1.mid,experiment,0
66,147,31167,74,91,1,2,5,8,1.mid,experiment,0
67,148,31720,77,91,1,2,5,8,1.mid,experiment,0
68,150,32311,76,83,1,2,5,8,1.mid,experiment,0
69,152,32899,74,86,1,2,5,8,1.mid,experiment,0
70,154,33474,72,83,1,2,5,8,1.mid,experiment,0
71,156,34053,84,86,1,2,5,8,1.mid,experiment,0
72,159,34712,84,84,1,2,5,8,1.mid,experiment,0
1,17,7854,79,63,1,2,5,10,10.mid,experiment,0
2,18,8134,78,76,1,2,5,10,10.mid,experiment,0
3,20,8404,79,79,1,2,5,10,10.mid,experiment,0
4,22,8672,76,80,1,2,5,10,10.mid,experiment,0
5,24,8968,72,71,1,2,5,10,10.mid,experiment,0
6,27,9253,67,58,1,2,5,10,10.mid,experiment,0
7,29,9522,67,63,1,2,5,10,10.mid,experiment,0
8,31,9810,67,51,1,2,5,10,10.mid,experiment,0
9,33,10100,79,68,1,2,5,10,10.mid,experiment,0
10,34,10372,78,77,1,2,5,10,10.mid,experiment,0
11,36,10654,79,81,1,2,5,10,10.mid,experiment,0
12,38,10918,76,75,1,2,5,10,10.mid,experiment,0
13,40,11192,72,73,1,2,5,10,10.mid,experiment,0
14,42,11470,76,79,1,2,5,10,10.mid,experiment,0
15,44,11744,79,85,1,2,5,10,10.mid,experiment,0
16,46,12019,84,87,1,2,5,10,10.mid,experiment,0
17,48,12311,83,85,1,2,5,10,10.mid,experiment,0
18,50,12584,81,72,1,2,5,10,10.mid,experiment,0
19,53,12866,81,68,1,2,5,10,10.mid,experiment,0
20,55,13138,81,68,1,2,5,10,10.mid,experiment,0
21,57,13445,83,74,1,2,5,10,10.mid,experiment,0
22,58,13726,81,80,1,2,5,10,10.mid,experiment,0
23,60,14011,84,82,1,2,5,10,10.mid,experiment,0
24,62,14282,81,85,1,2,5,10,10.mid,experiment,0
25,64,14566,78,81,1,2,5,10,10.mid,experiment,0
26,66,14838,79,79,1,2,5,10,10.mid,experiment,0
27,69,15120,79,70,1,2,5,10,10.mid,experiment,0
28,71,15710,79,70,1,2,5,10,10.mid,experiment,0
29,73,16902,77,68,1,2,5,10,10.mid,experiment,0
30,75,17184,77,68,1,2,5,10,10.mid,experiment,0
31,77,17458,76,63,1,2,5,10,10.mid,experiment,0
32,79,17752,76,46,1,2,5,10,10.mid,experiment,0
33,81,18074,74,51,1,2,5,10,10.mid,experiment,0
34,83,19254,79,62,1,2,5,10,10.mid,experiment,0
35,84,19840,77,64,1,2,5,10,10.mid,experiment,0
36,86,20426,76,60,1,2,5,10,10.mid,experiment,0
37,89,20696,76,56,1,2,5,10,10.mid,experiment,0
38,91,20968,76,63,1,2,5,10,10.mid,experiment,0
39,93,21230,76,72,1,2,5,10,10.mid,experiment,0
40,95,21546,81,70,1,2,5,10,10.mid,experiment,0
41,96,21822,77,78,1,2,5,10,10.mid,experiment,0
42,98,22094,76,79,1,2,5,10,10.mid,experiment,0
43,100,22362,74,81,1,2,5,10,10.mid,experiment,0
44,102,22636,76,76,1,2,5,10,10.mid,experiment,0
45,104,22910,79,78,1,2,5,10,10.mid,experiment,0
46,106,23192,74,81,1,2,5,10,10.mid,experiment,0
47,108,23474,71,76,1,2,5,10,10.mid,experiment,0
48,110,23775,72,67,1,2,5,10,10.mid,experiment,0
49,113,24050,72,52,1,2,5,10,10.mid,experiment,0
50,115,24322,74,54,1,2,5,10,10.mid,experiment,0
51,117,24591,74,56,1,2,5,10,10.mid,experiment,0
52,119,24944,76,48,1,2,5,10,10.mid,experiment,0
53,121,26184,65,54,1,2,5,10,10.mid,experiment,0
54,123,26470,65,58,1,2,5,10,10.mid,experiment,0
55,125,26742,64,59,1,2,5,10,10.mid,experiment,0
56,127,27035,64,42,1,2,5,10,10.mid,experiment,0
57,129,27391,62,47,1,2,5,10,10.mid,experiment,0
58,131,28536,67,56,1,2,5,10,10.mid,experiment,0
59,133,28804,67,66,1,2,5,10,10.mid,experiment,0
60,135,29082,71,72,1,2,5,10,10.mid,experiment,0
61,137,29362,71,70,1,2,5,10,10.mid,experiment,0
62,139,29652,72,62,1,2,5,10,10.mid,experiment,0
63,141,29912,72,72,1,2,5,10,10.mid,experiment,0
64,143,30184,73,72,1,2,5,10,10.mid,experiment,0
65,145,30455,73,76,1,2,5,10,10.mid,experiment,0
66,147,30758,74,81,1,2,5,10,10.mid,experiment,0
67,148,31332,77,82,1,2,5,10,10.mid,experiment,0
68,150,31931,76,81,1,2,5,10,10.mid,experiment,0
69,152,32512,74,88,1,2,5,10,10.mid,experiment,0
70,155,33135,72,81,1,2,5,10,10.mid,experiment,0
71,156,33730,84,79,1,2,5,10,10.mid,experiment,0
72,159,34414,84,68,1,2,5,10,10.mid,experiment,0
1,17,7871,79,65,1,2,5,11,15.mid,experiment,0
2,18,8152,78,81,1,2,5,11,15.mid,experiment,0
3,20,8431,79,79,1,2,5,11,15.mid,experiment,0
4,22,8704,76,85,1,2,5,11,15.mid,experiment,0
5,24,9021,72,86,1,2,5,11,15.mid,experiment,0
6,27,9348,67,66,1,2,5,11,15.mid,experiment,0
7,29,9660,67,38,1,2,5,11,15.mid,experiment,0
8,31,9902,67,60,1,2,5,11,15.mid,experiment,0
9,33,10202,79,68,1,2,5,11,15.mid,experiment,0
10,34,10465,78,79,1,2,5,11,15.mid,experiment,0
11,36,10747,79,84,1,2,5,11,15.mid,experiment,0
12,38,11020,76,81,1,2,5,11,15.mid,experiment,0
13,40,11304,72,82,1,2,5,11,15.mid,experiment,0
14,42,11568,76,82,1,2,5,11,15.mid,experiment,0
15,44,11850,79,81,1,2,5,11,15.mid,experiment,0
16,46,12126,84,89,1,2,5,11,15.mid,experiment,0
17,48,12467,83,86,1,2,5,11,15.mid,experiment,0
18,50,12800,81,69,1,2,5,11,15.mid,experiment,0
19,53,13064,81,66,1,2,5,11,15.mid,experiment,0
20,55,13342,81,56,1,2,5,11,15.mid,experiment,0
21,57,13625,83,80,1,2,5,11,15.mid,experiment,0
22,58,13918,81,83,1,2,5,11,15.mid,experiment,0
23,60,14201,84,81,1,2,5,11,15.mid,experiment,0
24,62,14482,81,86,1,2,5,11,15.mid,experiment,0
25,64,14769,78,79,1,2,5,11,15.mid,experiment,0
26,66,15038,79,81,1,2,5,11,15.mid,experiment,0
27,69,15330,79,79,1,2,5,11,15.mid,experiment,0
28,71,15914,79,80,1,2,5,11,15.mid,experiment,0
29,73,17211,77,62,1,2,5,11,15.mid,experiment,0
30,75,17482,77,57,1,2,5,11,15.mid,experiment,0
31,77,17768,76,63,1,2,5,11,15.mid,experiment,0
32,79,18050,76,53,1,2,5,11,15.mid,experiment,0
33,81,18368,74,53,1,2,5,11,15.mid,experiment,0
34,83,19583,79,58,1,2,5,11,15.mid,experiment,0
35,84,20165,77,61,1,2,5,11,15.mid,experiment,0
36,87,20757,76,58,1,2,5,11,15.mid,experiment,0
37,89,21047,76,65,1,2,5,11,15.mid,experiment,0
38,91,21309,76,70,1,2,5,11,15.mid,experiment,0
39,93,21581,76,79,1,2,5,11,15.mid,experiment,0
40,95,21921,81,81,1,2,5,11,15.mid,experiment,0
41,96,22213,77,78,1,2,5,11,15.mid,experiment,0
42,98,22490,76,79,1,2,5,11,15.mid,experiment,0
43,100,22757,74,81,1,2,5,11,15.mid,experiment,0
44,102,23022,76,76,1,2,5,11,15.mid,experiment,0
45,104,23295,79,81,1,2,5,11,15.mid,experiment,0
46,106,23573,74,81,1,2,5,11,15.mid,experiment,0
47,109,23860,71,71,1,2,5,11,15.mid,experiment,0
48,111,24135,72,68,1,2,5,11,15.mid,experiment,0
49,113,24429,72,53,1,2,5,11,15.mid,experiment,0
50,115,24692,74,61,1,2,5,11,15.mid,experiment,0
51,117,24982,74,57,1,2,5,11,15.mid,experiment,0
52,119,25341,76,52,1,2,5,11,15.mid,experiment,0
53,121,26571,65,55,1,2,5,11,15.mid,experiment,0
54,123,26853,65,59,1,2,5,11,15.mid,experiment,0
55,125,27159,64,38,1,2,5,11,15.mid,experiment,0
56,127,27425,64,53,1,2,5,11,15.mid,experiment,0
57,129,27757,62,46,1,2,5,11,15.mid,experiment,0
58,131,28932,67,62,1,2,5,11,15.mid,experiment,0
59,133,29207,67,56,1,2,5,11,15.mid,experiment,0
60,135,29497,71,53,1,2,5,11,15.mid,experiment,0
61,137,29757,71,67,1,2,5,11,15.mid,experiment,0
62,139,30029,72,63,1,2,5,11,15.mid,experiment,0
63,141,30302,72,70,1,2,5,11,15.mid,experiment,0
64,143,30568,73,72,1,2,5,11,15.mid,experiment,0
65,145,30837,73,78,1,2,5,11,15.mid,experiment,0
66,147,31140,74,81,1,2,5,11,15.mid,experiment,0
67,148,31724,77,83,1,2,5,11,15.mid,experiment,0
68,150,32308,76,84,1,2,5,11,15.mid,experiment,0
69,152,32900,74,86,1,2,5,11,15.mid,experiment,0
70,154,33505,72,78,1,2,5,11,15.mid,experiment,0
71,156,34092,84,79,1,2,5,11,15.mid,experiment,0
72,159,34708,84,79,1,2,5,11,15.mid,experiment,0
1,17,7935,79,71,1,2,5,12,7.mid,experiment,0
2,18,8227,78,79,1,2,5,12,7.mid,experiment,0
3,20,8516,79,78,1,2,5,12,7.mid,experiment,0
4,22,8785,76,83,1,2,5,12,7.mid,experiment,0
5,24,9113,72,78,1,2,5,12,7.mid,experiment,0
6,27,9430,67,65,1,2,5,12,7.mid,experiment,0
7,29,9708,67,63,1,2,5,12,7.mid,experiment,0
8,31,9980,67,72,1,2,5,12,7.mid,experiment,0
9,33,10281,79,74,1,2,5,12,7.mid,experiment,0
10,34,10566,78,82,1,2,5,12,7.mid,experiment,0
11,36,10850,79,86,1,2,5,12,7.mid,experiment,0
12,38,11126,76,81,1,2,5,12,7.mid,experiment,0
13,40,11421,72,81,1,2,5,12,7.mid,experiment,0
14,42,11704,76,81,1,2,5,12,7.mid,experiment,0
15,44,11984,79,84,1,2,5,12,7.mid,experiment,0
16,46,12267,84,88,1,2,5,12,7.mid,experiment,0
17,48,12582,83,83,1,2,5,12,7.mid,experiment,0
18,51,12875,81,71,1,2,5,12,7.mid,experiment,0
19,53,13158,81,72,1,2,5,12,7.mid,experiment,0
20,55,13436,81,70,1,2,5,12,7.mid,experiment,0
21,57,13730,83,77,1,2,5,12,7.mid,experiment,0
22,58,14016,81,81,1,2,5,12,7.mid,experiment,0
23,60,14305,84,89,1,2,5,12,7.mid,experiment,0
24,62,14594,81,91,1,2,5,12,7.mid,experiment,0
25,64,14874,78,82,1,2,5,12,7.mid,experiment,0
26,66,15159,79,81,1,2,5,12,7.mid,experiment,0
27,69,15473,79,83,1,2,5,12,7.mid,experiment,0
28,71,16103,79,84,1,2,5,12,7.mid,experiment,0
29,73,17360,77,63,1,2,5,12,7.mid,experiment,0
30,75,17648,77,70,1,2,5,12,7.mid,experiment,0
31,77,17929,76,65,1,2,5,12,7.mid,experiment,0
32,79,18201,76,73,1,2,5,12,7.mid,experiment,0
33,81,18543,74,62,1,2,5,12,7.mid,experiment,0
34,83,19845,79,81,1,2,5,12,7.mid,experiment,0
35,84,20476,77,80,1,2,5,12,7.mid,experiment,0
36,86,21054,76,69,1,2,5,12,7.mid,experiment,0
37,89,21328,76,68,1,2,5,12,7.mid,experiment,0
38,91,21601,76,71,1,2,5,12,7.mid,experiment,0
39,93,21859,76,75,1,2,5,12,7.mid,experiment,0
40,95,22175,81,91,1,2,5,12,7.mid,experiment,0
41,96,22456,77,78,1,2,5,12,7.mid,experiment,0
42,98,22743,76,79,1,2,5,12,7.mid,experiment,0
43,101,23025,74,77,1,2,5,12,7.mid,experiment,0
44,102,23305,76,83,1,2,5,12,7.mid,experiment,0
45,104,23583,79,85,1,2,5,12,7.mid,experiment,0
46,106,23864,74,81,1,2,5,12,7.mid,experiment,0
47,109,24150,71,76,1,2,5,12,7.mid,experiment,0
48,111,24460,72,65,1,2,5,12,7.mid,experiment,0
49,113,24733,72,68,1,2,5,12,7.mid,experiment,0
50,115,25015,74,65,1,2,5,12,7.mid,experiment,0
51,117,25301,74,65,1,2,5,12,7.mid,experiment,0
52,119,25633,76,55,1,2,5,12,7.mid,experiment,0
53,121,26795,65,62,1,2,5,12,7.mid,experiment,0
54,123,27079,65,70,1,2,5,12,7.mid,experiment,0
55,125,27358,64,57,1,2,5,12,7.mid,experiment,0
56,127,27624,64,71,1,2,5,12,7.mid,experiment,0
57,129,27949,62,57,1,2,5,12,7.mid,experiment,0
58,131,29113,67,57,1,2,5,12,7.mid,experiment,0
59,133,29386,67,74,1,2,5,12,7.mid,experiment,0
60,135,29656,71,81,1,2,5,12,7.mid,experiment,0
61,137,29930,71,83,1,2,5,12,7.mid,experiment,0
62,139,30203,72,85,1,2,5,12,7.mid,experiment,0
63,141,30473,72,89,1,2,5,12,7.mid,experiment,0
64,143,30756,73,84,1,2,5,12,7.mid,experiment,0
65,145,31037,73,97,1,2,5,12,7.mid,experiment,0
66,147,31382,74,97,1,2,5,12,7.mid,experiment,0
67,148,31949,77,90,1,2,5,12,7.mid,experiment,0
68,150,32529,76,81,1,2,5,12,7.mid,experiment,0
69,152,33092,74,85,1,2,5,12,7.mid,experiment,0
70,154,33703,72,80,1,2,5,12,7.mid,experiment,0
71,156,34303,84,74,1,2,5,12,7.mid,experiment,0
72,159,34931,84,79,1,2,5,12,7.mid,experiment,0
1,17,7863,79,70,1,2,5,13,4.mid,experiment,0
2,18,8142,78,78,1,2,5,13,4.mid,experiment,0
3,20,8403,79,79,1,2,5,13,4.mid,experiment,0
4,22,8686,76,79,1,2,5,13,4.mid,experiment,0
5,24,8995,72,79,1,2,5,13,4.mid,experiment,0
6,27,9301,67,65,1,2,5,13,4.mid,experiment,0
7,29,9584,67,55,1,2,5,13,4.mid,experiment,0
8,31,9851,67,58,1,2,5,13,4.mid,experiment,0
9,33,10138,79,72,1,2,5,13,4.mid,experiment,0
10,34,10411,78,81,1,2,5,13,4.mid,experiment,0
11,36,10701,79,79,1,2,5,13,4.mid,experiment,0
12,38,10970,76,78,1,2,5,13,4.mid,experiment,0
13,40,11261,72,81,1,2,5,13,4.mid,experiment,0
14,42,11533,76,82,1,2,5,13,4.mid,experiment,0
15,44,11820,79,79,1,2,5,13,4.mid,experiment,0
16,46,12090,84,93,1,2,5,13,4.mid,experiment,0
17,48,12418,83,86,1,2,5,13,4.mid,experiment,0
18,51,12717,81,70,1,2,5,13,4.mid,experiment,0
19,53,12993,81,65,1,2,5,13,4.mid,experiment,0
20,55,13264,81,61,1,2,5,13,4.mid,experiment,0
21,57,13570,83,70,1,2,5,13,4.mid,experiment,0
22,58,13845,81,82,1,2,5,13,4.mid,experiment,0
23,60,14125,84,85,1,2,5,13,4.mid,experiment,0
24,62,14410,81,89,1,2,5,13,4.mid,experiment,0
25,64,14701,78,78,1,2,5,13,4.mid,experiment,0
26,66,14983,79,78,1,2,5,13,4.mid,experiment,0
27,69,15296,79,83,1,2,5,13,4.mid,experiment,0
28,71,15905,79,72,1,2,5,13,4.mid,experiment,0
29,73,17154,77,53,1,2,5,13,4.mid,experiment,0
30,75,17437,77,53,1,2,5,13,4.mid,experiment,0
31,77,17713,76,56,1,2,5,13,4.mid,experiment,0
32,79,18006,76,44,1,2,5,13,4.mid,experiment,0
33,81,18335,74,42,1,2,5,13,4.mid,experiment,0
34,83,19531,79,58,1,2,5,13,4.mid,experiment,0
35,84,20105,77,63,1,2,5,13,4.mid,experiment,0
36,86,20696,76,56,1,2,5,13,4.mid,experiment,0
37,89,20979,76,54,1,2,5,13,4.mid,experiment,0
38,91,21253,76,60,1,2,5,13,4.mid,experiment,0
39,93,21516,76,70,1,2,5,13,4.mid,experiment,0
40,95,21848,81,79,1,2,5,13,4.mid,experiment,0
41,96,22120,77,87,1,2,5,13,4.mid,experiment,0
42,98,22391,76,79,1,2,5,13,4.mid,experiment,0
43,100,22666,74,79,1,2,5,13,4.mid,experiment,0
44,102,22941,76,81,1,2,5,13,4.mid,experiment,0
45,104,23210,79,81,1,2,5,13,4.mid,experiment,0
46,106,23494,74,81,1,2,5,13,4.mid,experiment,0
47,109,23769,71,74,1,2,5,13,4.mid,experiment,0
48,111,24073,72,67,1,2,5,13,4.mid,experiment,0
49,113,24333,72,63,1,2,5,13,4.mid,experiment,0
50,115,24613,74,58,1,2,5,13,4.mid,experiment,0
51,117,24883,74,57,1,2,5,13,4.mid,experiment,0
52,119,25233,76,48,1,2,5,13,4.mid,experiment,0
53,121,26389,65,57,1,2,5,13,4.mid,experiment,0
54,123,26663,65,53,1,2,5,13,4.mid,experiment,0
55,125,26951,64,56,1,2,5,13,4.mid,experiment,0
56,127,27229,64,49,1,2,5,13,4.mid,experiment,0
57,129,27584,62,52,1,2,5,13,4.mid,experiment,0
58,131,28728,67,47,1,2,5,13,4.mid,experiment,0
59,133,29007,67,57,1,2,5,13,4.mid,experiment,0
60,135,29283,71,51,1,2,5,13,4.mid,experiment,0
61,137,29562,71,57,1,2,5,13,4.mid,experiment,0
62,139,29822,72,70,1,2,5,13,4.mid,experiment,0
63,141,30085,72,71,1,2,5,13,4.mid,experiment,0
64,143,30349,73,77,1,2,5,13,4.mid,experiment,0
65,145,30633,73,73,1,2,5,13,4.mid,experiment,0
66,147,30954,74,88,1,2,5,13,4.mid,experiment,0
67,148,31500,77,87,1,2,5,13,4.mid,experiment,0
68,151,32070,76,85,1,2,5,13,4.mid,experiment,0
69,152,32664,74,88,1,2,5,13,4.mid,experiment,0
70,155,33247,72,82,1,2,5,13,4.mid,experiment,0
71,157,33824,84,83,1,2,5,13,4.mid,experiment,0
72,159,34455,84,83,1,2,5,13,4.mid,experiment,0
1,17,7833,79,63,1,2,5,14,2.mid,experiment,0
2,18,8112,78,78,1,2,5,14,2.mid,experiment,0
3,20,8380,79,82,1,2,5,14,2.mid,experiment,0
4,22,8648,76,81,1,2,5,14,2.mid,experiment,0
5,24,8959,72,77,1,2,5,14,2.mid,experiment,0
6,27,9265,67,63,1,2,5,14,2.mid,experiment,0
7,29,9537,67,66,1,2,5,14,2.mid,experiment,0
8,31,9821,67,56,1,2,5,14,2.mid,experiment,0
9,33,10101,79,65,1,2,5,14,2.mid,experiment,0
10,34,10385,78,76,1,2,5,14,2.mid,experiment,0
11,36,10662,79,81,1,2,5,14,2.mid,experiment,0
12,38,10931,76,79,1,2,5,14,2.mid,experiment,0
13,40,11227,72,78,1,2,5,14,2.mid,experiment,0
14,42,11494,76,76,1,2,5,14,2.mid,experiment,0
15,44,11779,79,83,1,2,5,14,2.mid,experiment,0
16,46,12051,84,86,1,2,5,14,2.mid,experiment,0
17,48,12367,83,86,1,2,5,14,2.mid,experiment,0
18,51,12659,81,71,1,2,5,14,2.mid,experiment,0
19,53,12928,81,70,1,2,5,14,2.mid,experiment,0
20,55,13194,81,69,1,2,5,14,2.mid,experiment,0
21,57,13479,83,80,1,2,5,14,2.mid,experiment,0
22,58,13747,81,90,1,2,5,14,2.mid,experiment,0
23,60,14024,84,91,1,2,5,14,2.mid,experiment,0
24,62,14302,81,88,1,2,5,14,2.mid,experiment,0
25,64,14606,78,86,1,2,5,14,2.mid,experiment,0
26,66,14886,79,84,1,2,5,14,2.mid,experiment,0
27,69,15182,79,88,1,2,5,14,2.mid,experiment,0
28,71,15805,79,88,1,2,5,14,2.mid,experiment,0
29,73,17033,77,58,1,2,5,14,2.mid,experiment,0
30,75,17326,77,56,1,2,5,14,2.mid,experiment,0
31,77,17602,76,62,1,2,5,14,2.mid,experiment,0
32,79,17889,76,48,1,2,5,14,2.mid,experiment,0
33,81,18233,74,51,1,2,5,14,2.mid,experiment,0
34,83,19478,79,56,1,2,5,14,2.mid,experiment,0
35,84,20088,77,65,1,2,5,14,2.mid,experiment,0
36,87,20648,76,65,1,2,5,14,2.mid,experiment,0
37,89,20933,76,62,1,2,5,14,2.mid,experiment,0
38,91,21220,76,54,1,2,5,14,2.mid,experiment,0
39,93,21494,76,71,1,2,5,14,2.mid,experiment,0
40,95,21835,81,81,1,2,5,14,2.mid,experiment,0
41,96,22111,77,81,1,2,5,14,2.mid,experiment,0
42,98,22383,76,72,1,2,5,14,2.mid,experiment,0
43,100,22650,74,78,1,2,5,14,2.mid,experiment,0
44,102,22932,76,79,1,2,5,14,2.mid,experiment,0
45,104,23200,79,81,1,2,5,14,2.mid,experiment,0
46,106,23468,74,82,1,2,5,14,2.mid,experiment,0
47,109,23747,71,72,1,2,5,14,2.mid,experiment,0
48,111,24049,72,63,1,2,5,14,2.mid,experiment,0
49,113,24308,72,62,1,2,5,14,2.mid,experiment,0
50,115,24577,74,65,1,2,5,14,2.mid,experiment,0
51,117,24858,74,62,1,2,5,14,2.mid,experiment,0
52,119,25221,76,51,1,2,5,14,2.mid,experiment,0
53,121,26408,65,54,1,2,5,14,2.mid,experiment,0
54,123,26679,65,55,1,2,5,14,2.mid,experiment,0
55,125,26955,64,56,1,2,5,14,2.mid,experiment,0
56,127,27223,64,54,1,2,5,14,2.mid,experiment,0
57,129,27577,62,48,1,2,5,14,2.mid,experiment,0
58,131,29157,67,50,1,2,5,14,2.mid,experiment,0
59,133,29406,67,60,1,2,5,14,2.mid,experiment,0
60,135,29678,71,62,1,2,5,14,2.mid,experiment,0
61,137,29942,71,71,1,2,5,14,2.mid,experiment,0
62,139,30220,72,77,1,2,5,14,2.mid,experiment,0
63,141,30488,72,83,1,2,5,14,2.mid,experiment,0
64,143,30753,73,80,1,2,5,14,2.mid,experiment,0
65,145,31033,73,87,1,2,5,14,2.mid,experiment,0
66,147,31401,74,90,1,2,5,14,2.mid,experiment,0
67,148,31971,77,88,1,2,5,14,2.mid,experiment,0
68,150,32557,76,81,1,2,5,14,2.mid,experiment,0
69,152,33161,74,85,1,2,5,14,2.mid,experiment,0
70,154,33787,72,76,1,2,5,14,2.mid,experiment,0
71,156,34385,84,79,1,2,5,14,2.mid,experiment,0
72,159,35047,84,76,1,2,5,14,2.mid,experiment,0
1,17,7754,79,87,1,2,6,6,2.mid,experiment,0
2,18,8047,78,91,1,2,6,6,2.mid,experiment,0
3,20,8298,79,87,1,2,6,6,2.mid,experiment,0
4,22,8553,76,89,1,2,6,6,2.mid,experiment,0
5,24,8839,72,97,1,2,6,6,2.mid,experiment,0
6,27,9148,67,62,1,2,6,6,2.mid,experiment,0
7,29,9422,67,48,1,2,6,6,2.mid,experiment,0
8,31,9696,67,50,1,2,6,6,2.mid,experiment,0
9,33,9958,79,83,1,2,6,6,2.mid,experiment,0
10,34,10229,78,97,1,2,6,6,2.mid,experiment,0
11,36,10479,79,91,1,2,6,6,2.mid,experiment,0
12,38,10748,76,94,1,2,6,6,2.mid,experiment,0
13,40,11007,72,100,1,2,6,6,2.mid,experiment,0
14,42,11274,76,97,1,2,6,6,2.mid,experiment,0
15,44,11534,79,94,1,2,6,6,2.mid,experiment,0
16,46,11794,84,94,1,2,6,6,2.mid,experiment,0
17,48,12055,83,97,1,2,6,6,2.mid,experiment,0
18,51,12385,81,50,1,2,6,6,2.mid,experiment,0
19,53,12651,81,55,1,2,6,6,2.mid,experiment,0
20,55,12912,81,69,1,2,6,6,2.mid,experiment,0
21,57,13155,83,91,1,2,6,6,2.mid,experiment,0
22,58,13421,81,94,1,2,6,6,2.mid,experiment,0
23,60,13681,84,95,1,2,6,6,2.mid,experiment,0
24,62,13931,81,94,1,2,6,6,2.mid,experiment,0
25,64,14189,78,93,1,2,6,6,2.mid,experiment,0
26,67,14515,79,88,1,2,6,6,2.mid,experiment,0
27,69,14790,79,86,1,2,6,6,2.mid,experiment,0
28,71,15313,79,80,1,2,6,6,2.mid,experiment,0
29,73,16418,77,67,1,2,6,6,2.mid,experiment,0
30,75,16715,77,47,1,2,6,6,2.mid,experiment,0
31,77,16974,76,48,1,2,6,6,2.mid,experiment,0
32,79,17240,76,57,1,2,6,6,2.mid,experiment,0
33,81,17539,74,52,1,2,6,6,2.mid,experiment,0
34,83,18700,79,52,1,2,6,6,2.mid,experiment,0
35,85,19293,77,49,1,2,6,6,2.mid,experiment,0
36,87,19864,76,50,1,2,6,6,2.mid,experiment,0
37,89,20141,76,38,1,2,6,6,2.mid,experiment,0
38,91,20394,76,49,1,2,6,6,2.mid,experiment,0
39,93,20647,76,67,1,2,6,6,2.mid,experiment,0
40,95,20909,81,88,1,2,6,6,2.mid,experiment,0
41,96,21177,77,90,1,2,6,6,2.mid,experiment,0
42,98,21437,76,94,1,2,6,6,2.mid,experiment,0
43,100,21695,74,91,1,2,6,6,2.mid,experiment,0
44,102,21968,76,101,1,2,6,6,2.mid,experiment,0
45,104,22235,79,89,1,2,6,6,2.mid,experiment,0
46,106,22511,74,96,1,2,6,6,2.mid,experiment,0
47,108,22788,71,79,1,2,6,6,2.mid,experiment,0
48,111,23102,72,51,1,2,6,6,2.mid,experiment,0
49,113,23350,72,56,1,2,6,6,2.mid,experiment,0
50,115,23614,74,59,1,2,6,6,2.mid,experiment,0
51,117,23879,74,57,1,2,6,6,2.mid,experiment,0
52,119,24174,76,59,1,2,6,6,2.mid,experiment,0
53,121,25298,65,59,1,2,6,6,2.mid,experiment,0
54,123,25592,65,46,1,2,6,6,2.mid,experiment,0
55,125,25851,64,53,1,2,6,6,2.mid,experiment,0
56,127,26122,64,60,1,2,6,6,2.mid,experiment,0
57,129,26439,62,50,1,2,6,6,2.mid,experiment,0
58,131,27532,67,60,1,2,6,6,2.mid,experiment,0
59,133,27832,67,45,1,2,6,6,2.mid,experiment,0
60,135,28106,71,58,1,2,6,6,2.mid,experiment,0
61,137,28366,71,60,1,2,6,6,2.mid,experiment,0
62,139,28632,72,63,1,2,6,6,2.mid,experiment,0
63,141,28892,72,61,1,2,6,6,2.mid,experiment,0
64,143,29162,73,63,1,2,6,6,2.mid,experiment,0
65,145,29423,73,67,1,2,6,6,2.mid,experiment,0
66,147,29703,74,97,1,2,6,6,2.mid,experiment,0
67,149,30275,77,94,1,2,6,6,2.mid,experiment,0
68,151,30844,76,91,1,2,6,6,2.mid,experiment,0
69,153,31407,74,101,1,2,6,6,2.mid,experiment,0
70,155,31965,72,98,1,2,6,6,2.mid,experiment,0
71,157,32525,84,94,1,2,6,6,2.mid,experiment,0
72,159,33126,84,81,1,2,6,6,2.mid,experiment,0
1,17,7732,79,86,1,2,6,8,8.mid,experiment,0
2,18,8023,78,101,1,2,6,8,8.mid,experiment,0
3,20,8284,79,90,1,2,6,8,8.mid,experiment,0
4,22,8528,76,83,1,2,6,8,8.mid,experiment,0
5,24,8803,72,93,1,2,6,8,8.mid,experiment,0
6,27,9109,67,60,1,2,6,8,8.mid,experiment,0
7,29,9387,67,42,1,2,6,8,8.mid,experiment,0
8,31,9638,67,65,1,2,6,8,8.mid,experiment,0
9,33,9916,79,96,1,2,6,8,8.mid,experiment,0
10,34,10180,78,103,1,2,6,8,8.mid,experiment,0
11,36,10433,79,97,1,2,6,8,8.mid,experiment,0
12,38,10686,76,85,1,2,6,8,8.mid,experiment,0
13,40,10942,72,99,1,2,6,8,8.mid,experiment,0
14,42,11212,76,98,1,2,6,8,8.mid,experiment,0
15,44,11477,79,95,1,2,6,8,8.mid,experiment,0
16,46,11734,84,95,1,2,6,8,8.mid,experiment,0
17,48,11980,83,98,1,2,6,8,8.mid,experiment,0
18,51,12304,81,53,1,2,6,8,8.mid,experiment,0
19,53,12570,81,54,1,2,6,8,8.mid,experiment,0
20,55,12830,81,59,1,2,6,8,8.mid,experiment,0
21,57,13064,83,91,1,2,6,8,8.mid,experiment,0
22,58,13324,81,96,1,2,6,8,8.mid,experiment,0
23,60,13578,84,97,1,2,6,8,8.mid,experiment,0
24,62,13828,81,98,1,2,6,8,8.mid,experiment,0
25,64,14080,78,100,1,2,6,8,8.mid,experiment,0
26,67,14341,79,91,1,2,6,8,8.mid,experiment,0
27,69,14626,79,91,1,2,6,8,8.mid,experiment,0
28,71,15182,79,93,1,2,6,8,8.mid,experiment,0
29,73,16337,77,55,1,2,6,8,8.mid,experiment,0
30,75,16600,77,54,1,2,6,8,8.mid,experiment,0
31,77,16866,76,49,1,2,6,8,8.mid,experiment,0
32,79,17116,76,51,1,2,6,8,8.mid,experiment,0
33,81,17408,74,55,1,2,6,8,8.mid,experiment,0
34,83,18536,79,62,1,2,6,8,8.mid,experiment,0
35,85,19110,77,53,1,2,6,8,8.mid,experiment,0
36,87,19674,76,58,1,2,6,8,8.mid,experiment,0
37,89,19938,76,46,1,2,6,8,8.mid,experiment,0
38,91,20193,76,51,1,2,6,8,8.mid,experiment,0
39,93,20434,76,72,1,2,6,8,8.mid,experiment,0
40,95,20718,81,93,1,2,6,8,8.mid,experiment,0
41,96,20973,77,91,1,2,6,8,8.mid,experiment,0
42,98,21236,76,91,1,2,6,8,8.mid,experiment,0
43,100,21489,74,94,1,2,6,8,8.mid,experiment,0
44,102,21752,76,100,1,2,6,8,8.mid,experiment,0
45,104,22018,79,88,1,2,6,8,8.mid,experiment,0
46,106,22284,74,103,1,2,6,8,8.mid,experiment,0
47,108,22568,71,84,1,2,6,8,8.mid,experiment,0
48,111,22836,72,58,1,2,6,8,8.mid,experiment,0
49,113,23092,72,56,1,2,6,8,8.mid,experiment,0
50,115,23346,74,63,1,2,6,8,8.mid,experiment,0
51,117,23618,74,56,1,2,6,8,8.mid,experiment,0
52,119,23917,76,54,1,2,6,8,8.mid,experiment,0
53,121,25006,65,53,1,2,6,8,8.mid,experiment,0
54,123,25270,65,57,1,2,6,8,8.mid,experiment,0
55,125,25568,64,38,1,2,6,8,8.mid,experiment,0
56,127,25818,64,56,1,2,6,8,8.mid,experiment,0
57,129,26136,62,55,1,2,6,8,8.mid,experiment,0
58,131,27263,67,58,1,2,6,8,8.mid,experiment,0
59,133,27530,67,60,1,2,6,8,8.mid,experiment,0
60,135,27809,71,63,1,2,6,8,8.mid,experiment,0
61,137,28069,71,56,1,2,6,8,8.mid,experiment,0
62,139,28320,72,77,1,2,6,8,8.mid,experiment,0
63,141,28574,72,72,1,2,6,8,8.mid,experiment,0
64,143,28843,73,66,1,2,6,8,8.mid,experiment,0
65,145,29102,73,67,1,2,6,8,8.mid,experiment,0
66,147,29374,74,105,1,2,6,8,8.mid,experiment,0
67,149,29933,77,100,1,2,6,8,8.mid,experiment,0
68,151,30474,76,101,1,2,6,8,8.mid,experiment,0
69,153,31046,74,106,1,2,6,8,8.mid,experiment,0
70,155,31610,72,107,1,2,6,8,8.mid,experiment,0
71,157,32170,84,99,1,2,6,8,8.mid,experiment,0
72,159,32752,84,91,1,2,6,8,8.mid,experiment,0
1,17,7780,79,88,1,2,6,10,1.mid,experiment,0
2,18,8064,78,98,1,2,6,10,1.mid,experiment,0
3,20,8327,79,91,1,2,6,10,1.mid,experiment,0
4,22,8581,76,88,1,2,6,10,1.mid,experiment,0
5,24,8850,72,91,1,2,6,10,1.mid,experiment,0
6,27,9162,67,59,1,2,6,10,1.mid,experiment,0
7,29,9422,67,56,1,2,6,10,1.mid,experiment,0
8,31,9673,67,71,1,2,6,10,1.mid,experiment,0
9,33,9946,79,93,1,2,6,10,1.mid,experiment,0
10,34,10214,78,99,1,2,6,10,1.mid,experiment,0
11,36,10483,79,90,1,2,6,10,1.mid,experiment,0
12,38,10736,76,94,1,2,6,10,1.mid,experiment,0
13,40,10980,72,98,1,2,6,10,1.mid,experiment,0
14,42,11251,76,95,1,2,6,10,1.mid,experiment,0
15,44,11533,79,91,1,2,6,10,1.mid,experiment,0
16,46,11794,84,90,1,2,6,10,1.mid,experiment,0
17,48,12056,83,96,1,2,6,10,1.mid,experiment,0
18,51,12360,81,58,1,2,6,10,1.mid,experiment,0
19,53,12622,81,56,1,2,6,10,1.mid,experiment,0
20,55,12877,81,67,1,2,6,10,1.mid,experiment,0
21,57,13134,83,91,1,2,6,10,1.mid,experiment,0
22,58,13382,81,95,1,2,6,10,1.mid,experiment,0
23,60,13644,84,97,1,2,6,10,1.mid,experiment,0
24,62,13896,81,93,1,2,6,10,1.mid,experiment,0
25,64,14164,78,97,1,2,6,10,1.mid,experiment,0
26,67,14454,79,94,1,2,6,10,1.mid,experiment,0
27,69,14736,79,95,1,2,6,10,1.mid,experiment,0
28,71,15267,79,83,1,2,6,10,1.mid,experiment,0
29,73,16380,77,58,1,2,6,10,1.mid,experiment,0
30,75,16650,77,49,1,2,6,10,1.mid,experiment,0
31,77,16910,76,51,1,2,6,10,1.mid,experiment,0
32,79,17168,76,47,1,2,6,10,1.mid,experiment,0
33,81,17472,74,53,1,2,6,10,1.mid,experiment,0
34,83,18613,79,58,1,2,6,10,1.mid,experiment,0
35,85,19213,77,52,1,2,6,10,1.mid,experiment,0
36,87,19783,76,58,1,2,6,10,1.mid,experiment,0
37,89,20044,76,51,1,2,6,10,1.mid,experiment,0
38,91,20312,76,52,1,2,6,10,1.mid,experiment,0
39,93,20560,76,67,1,2,6,10,1.mid,experiment,0
40,95,20817,81,88,1,2,6,10,1.mid,experiment,0
41,96,21085,77,76,1,2,6,10,1.mid,experiment,0
42,98,21345,76,90,1,2,6,10,1.mid,experiment,0
43,100,21604,74,93,1,2,6,10,1.mid,experiment,0
44,102,21881,76,97,1,2,6,10,1.mid,experiment,0
45,104,22151,79,87,1,2,6,10,1.mid,experiment,0
46,106,22412,74,95,1,2,6,10,1.mid,experiment,0
47,108,22695,71,79,1,2,6,10,1.mid,experiment,0
48,111,22954,72,64,1,2,6,10,1.mid,experiment,0
49,113,23220,72,55,1,2,6,10,1.mid,experiment,0
50,115,23471,74,63,1,2,6,10,1.mid,experiment,0
51,117,23735,74,61,1,2,6,10,1.mid,experiment,0
52,119,24052,76,56,1,2,6,10,1.mid,experiment,0
53,121,25078,65,60,1,2,6,10,1.mid,experiment,0
54,123,25347,65,57,1,2,6,10,1.mid,experiment,0
55,125,25606,64,52,1,2,6,10,1.mid,experiment,0
56,127,25894,64,52,1,2,6,10,1.mid,experiment,0
57,129,26226,62,54,1,2,6,10,1.mid,experiment,0
58,131,27304,67,64,1,2,6,10,1.mid,experiment,0
59,133,27574,67,62,1,2,6,10,1.mid,experiment,0
60,135,27849,71,60,1,2,6,10,1.mid,experiment,0
61,137,28099,71,65,1,2,6,10,1.mid,experiment,0
62,139,28363,72,69,1,2,6,10,1.mid,experiment,0
63,141,28608,72,68,1,2,6,10,1.mid,experiment,0
64,143,28876,73,66,1,2,6,10,1.mid,experiment,0
65,145,29144,73,74,1,2,6,10,1.mid,experiment,0
66,147,29411,74,100,1,2,6,10,1.mid,experiment,0
67,149,29970,77,99,1,2,6,10,1.mid,experiment,0
68,151,30508,76,89,1,2,6,10,1.mid,experiment,0
69,153,31071,74,98,1,2,6,10,1.mid,experiment,0
70,155,31614,72,101,1,2,6,10,1.mid,experiment,0
71,157,32175,84,96,1,2,6,10,1.mid,experiment,0
72,159,32752,84,89,1,2,6,10,1.mid,experiment,0
1,17,7785,79,81,1,2,6,11,9.mid,experiment,0
2,18,8069,78,94,1,2,6,11,9.mid,experiment,0
3,20,8336,79,89,1,2,6,11,9.mid,experiment,0
4,22,8588,76,86,1,2,6,11,9.mid,experiment,0
5,24,8858,72,91,1,2,6,11,9.mid,experiment,0
6,27,9169,67,70,1,2,6,11,9.mid,experiment,0
7,29,9461,67,47,1,2,6,11,9.mid,experiment,0
8,31,9718,67,62,1,2,6,11,9.mid,experiment,0
9,33,9996,79,93,1,2,6,11,9.mid,experiment,0
10,34,10258,78,98,1,2,6,11,9.mid,experiment,0
11,36,10511,79,90,1,2,6,11,9.mid,experiment,0
12,38,10780,76,94,1,2,6,11,9.mid,experiment,0
13,40,11044,72,103,1,2,6,11,9.mid,experiment,0
14,42,11316,76,96,1,2,6,11,9.mid,experiment,0
15,44,11583,79,94,1,2,6,11,9.mid,experiment,0
16,46,11841,84,95,1,2,6,11,9.mid,experiment,0
17,48,12083,83,97,1,2,6,11,9.mid,experiment,0
18,51,12389,81,57,1,2,6,11,9.mid,experiment,0
19,53,12641,81,57,1,2,6,11,9.mid,experiment,0
20,55,12904,81,68,1,2,6,11,9.mid,experiment,0
21,57,13156,83,88,1,2,6,11,9.mid,experiment,0
22,58,13428,81,97,1,2,6,11,9.mid,experiment,0
23,60,13691,84,99,1,2,6,11,9.mid,experiment,0
24,62,13956,81,94,1,2,6,11,9.mid,experiment,0
25,64,14219,78,96,1,2,6,11,9.mid,experiment,0
26,67,14495,79,87,1,2,6,11,9.mid,experiment,0
27,69,14780,79,90,1,2,6,11,9.mid,experiment,0
28,71,15348,79,91,1,2,6,11,9.mid,experiment,0
29,73,16467,77,62,1,2,6,11,9.mid,experiment,0
30,75,16749,77,50,1,2,6,11,9.mid,experiment,0
31,77,16997,76,54,1,2,6,11,9.mid,experiment,0
32,79,17262,76,55,1,2,6,11,9.mid,experiment,0
33,81,17579,74,53,1,2,6,11,9.mid,experiment,0
34,83,18682,79,57,1,2,6,11,9.mid,experiment,0
35,85,19270,77,47,1,2,6,11,9.mid,experiment,0
36,87,19869,76,40,1,2,6,11,9.mid,experiment,0
37,89,20108,76,51,1,2,6,11,9.mid,experiment,0
38,91,20365,76,58,1,2,6,11,9.mid,experiment,0
39,93,20606,76,70,1,2,6,11,9.mid,experiment,0
40,95,20868,81,95,1,2,6,11,9.mid,experiment,0
41,96,21128,77,95,1,2,6,11,9.mid,experiment,0
42,98,21380,76,98,1,2,6,11,9.mid,experiment,0
43,100,21632,74,97,1,2,6,11,9.mid,experiment,0
44,102,21902,76,96,1,2,6,11,9.mid,experiment,0
45,104,22167,79,90,1,2,6,11,9.mid,experiment,0
46,106,22428,74,99,1,2,6,11,9.mid,experiment,0
47,108,22726,71,75,1,2,6,11,9.mid,experiment,0
48,111,22975,72,64,1,2,6,11,9.mid,experiment,0
49,113,23238,72,57,1,2,6,11,9.mid,experiment,0
50,115,23491,74,57,1,2,6,11,9.mid,experiment,0
51,117,23738,74,63,1,2,6,11,9.mid,experiment,0
52,119,24028,76,54,1,2,6,11,9.mid,experiment,0
53,121,25104,65,58,1,2,6,11,9.mid,experiment,0
54,123,25388,65,44,1,2,6,11,9.mid,experiment,0
55,125,25643,64,52,1,2,6,11,9.mid,experiment,0
56,127,25922,64,49,1,2,6,11,9.mid,experiment,0
57,129,26227,62,49,1,2,6,11,9.mid,experiment,0
58,131,27346,67,62,1,2,6,11,9.mid,experiment,0
59,133,27609,67,67,1,2,6,11,9.mid,experiment,0
60,135,27889,71,55,1,2,6,11,9.mid,experiment,0
61,137,28150,71,59,1,2,6,11,9.mid,experiment,0
62,139,28412,72,57,1,2,6,11,9.mid,experiment,0
63,141,28661,72,67,1,2,6,11,9.mid,experiment,0
64,143,28942,73,47,1,2,6,11,9.mid,experiment,0
65,145,29208,73,65,1,2,6,11,9.mid,experiment,0
66,147,29481,74,104,1,2,6,11,9.mid,experiment,0
67,149,30048,77,100,1,2,6,11,9.mid,experiment,0
68,151,30592,76,101,1,2,6,11,9.mid,experiment,0
69,153,31138,74,100,1,2,6,11,9.mid,experiment,0
70,155,31696,72,96,1,2,6,11,9.mid,experiment,0
71,157,32243,84,101,1,2,6,11,9.mid,experiment,0
72,159,32811,84,90,1,2,6,11,9.mid,experiment,0
1,17,7780,79,85,1,2,6,14,16.mid,experiment,0
2,18,8065,78,97,1,2,6,14,16.mid,experiment,0
3,20,8320,79,89,1,2,6,14,16.mid,experiment,0
4,22,8566,76,88,1,2,6,14,16.mid,experiment,0
5,24,8841,72,95,1,2,6,14,16.mid,experiment,0
6,27,9151,67,73,1,2,6,14,16.mid,experiment,0
7,29,9427,67,61,1,2,6,14,16.mid,experiment,0
8,31,9674,67,77,1,2,6,14,16.mid,experiment,0
9,33,9967,79,95,1,2,6,14,16.mid,experiment,0
10,34,10236,78,104,1,2,6,14,16.mid,experiment,0
11,36,10495,79,95,1,2,6,14,16.mid,experiment,0
12,38,10753,76,98,1,2,6,14,16.mid,experiment,0
13,40,11014,72,99,1,2,6,14,16.mid,experiment,0
14,42,11286,76,99,1,2,6,14,16.mid,experiment,0
15,44,11561,79,91,1,2,6,14,16.mid,experiment,0
16,46,11830,84,90,1,2,6,14,16.mid,experiment,0
17,48,12075,83,100,1,2,6,14,16.mid,experiment,0
18,51,12394,81,54,1,2,6,14,16.mid,experiment,0
19,53,12647,81,54,1,2,6,14,16.mid,experiment,0
20,55,12910,81,66,1,2,6,14,16.mid,experiment,0
21,57,13157,83,97,1,2,6,14,16.mid,experiment,0
22,58,13423,81,96,1,2,6,14,16.mid,experiment,0
23,60,13683,84,98,1,2,6,14,16.mid,experiment,0
24,62,13930,81,96,1,2,6,14,16.mid,experiment,0
25,64,14200,78,91,1,2,6,14,16.mid,experiment,0
26,67,14503,79,84,1,2,6,14,16.mid,experiment,0
27,69,14794,79,84,1,2,6,14,16.mid,experiment,0
28,71,15340,79,81,1,2,6,14,16.mid,experiment,0
29,73,16444,77,56,1,2,6,14,16.mid,experiment,0
30,75,16709,77,53,1,2,6,14,16.mid,experiment,0
31,77,16969,76,51,1,2,6,14,16.mid,experiment,0
32,79,17258,76,31,1,2,6,14,16.mid,experiment,0
33,81,17548,74,53,1,2,6,14,16.mid,experiment,0
34,83,18718,79,56,1,2,6,14,16.mid,experiment,0
35,85,19295,77,54,1,2,6,14,16.mid,experiment,0
36,87,19868,76,51,1,2,6,14,16.mid,experiment,0
37,89,20149,76,42,1,2,6,14,16.mid,experiment,0
38,91,20425,76,35,1,2,6,14,16.mid,experiment,0
39,93,20668,76,55,1,2,6,14,16.mid,experiment,0
40,95,20924,81,90,1,2,6,14,16.mid,experiment,0
41,96,21191,77,91,1,2,6,14,16.mid,experiment,0
42,98,21457,76,97,1,2,6,14,16.mid,experiment,0
43,100,21709,74,90,1,2,6,14,16.mid,experiment,0
44,102,21970,76,96,1,2,6,14,16.mid,experiment,0
45,104,22233,79,87,1,2,6,14,16.mid,experiment,0
46,106,22497,74,99,1,2,6,14,16.mid,experiment,0
47,108,22794,71,86,1,2,6,14,16.mid,experiment,0
48,111,23066,72,65,1,2,6,14,16.mid,experiment,0
49,113,23336,72,53,1,2,6,14,16.mid,experiment,0
50,115,23582,74,58,1,2,6,14,16.mid,experiment,0
51,117,23841,74,56,1,2,6,14,16.mid,experiment,0
52,119,24145,76,53,1,2,6,14,16.mid,experiment,0
53,121,25165,65,58,1,2,6,14,16.mid,experiment,0
54,123,25436,65,55,1,2,6,14,16.mid,experiment,0
55,125,25722,64,47,1,2,6,14,16.mid,experiment,0
56,127,25983,64,54,1,2,6,14,16.mid,experiment,0
57,129,26314,62,53,1,2,6,14,16.mid,experiment,0
58,131,27380,67,61,1,2,6,14,16.mid,experiment,0
59,133,27668,67,48,1,2,6,14,16.mid,experiment,0
60,135,27933,71,58,1,2,6,14,16.mid,experiment,0
61,137,28215,71,35,1,2,6,14,16.mid,experiment,0
62,139,28458,72,55,1,2,6,14,16.mid,experiment,0
63,141,28725,72,62,1,2,6,14,16.mid,experiment,0
64,143,28985,73,49,1,2,6,14,16.mid,experiment,0
65,145,29234,73,69,1,2,6,14,16.mid,experiment,0
66,147,29511,74,99,1,2,6,14,16.mid,experiment,0
67,149,30055,77,97,1,2,6,14,16.mid,experiment,0
68,151,30604,76,101,1,2,6,14,16.mid,experiment,0
69,153,31160,74,98,1,2,6,14,16.mid,experiment,0
70,155,31704,72,98,1,2,6,14,16.mid,experiment,0
71,157,32251,84,100,1,2,6,14,16.mid,experiment,0
72,159,32812,84,93,1,2,6,14,16.mid,experiment,0
1,17,7752,79,88,1,2,6,15,15.mid,experiment,0
2,18,8037,78,96,1,2,6,15,15.mid,experiment,0
3,20,8301,79,89,1,2,6,15,15.mid,experiment,0
4,22,8553,76,85,1,2,6,15,15.mid,experiment,0
5,24,8835,72,95,1,2,6,15,15.mid,experiment,0
6,27,9156,67,60,1,2,6,15,15.mid,experiment,0
7,29,9422,67,57,1,2,6,15,15.mid,experiment,0
8,31,9685,67,68,1,2,6,15,15.mid,experiment,0
9,33,9968,79,96,1,2,6,15,15.mid,experiment,0
10,34,10242,78,101,1,2,6,15,15.mid,experiment,0
11,36,10498,79,90,1,2,6,15,15.mid,experiment,0
12,38,10761,76,96,1,2,6,15,15.mid,experiment,0
13,40,11014,72,91,1,2,6,15,15.mid,experiment,0
14,42,11284,76,95,1,2,6,15,15.mid,experiment,0
15,44,11553,79,89,1,2,6,15,15.mid,experiment,0
16,46,11806,84,91,1,2,6,15,15.mid,experiment,0
17,48,12081,83,91,1,2,6,15,15.mid,experiment,0
18,51,12388,81,51,1,2,6,15,15.mid,experiment,0
19,53,12631,81,56,1,2,6,15,15.mid,experiment,0
20,55,12901,81,66,1,2,6,15,15.mid,experiment,0
21,57,13142,83,91,1,2,6,15,15.mid,experiment,0
22,58,13390,81,96,1,2,6,15,15.mid,experiment,0
23,60,13651,84,98,1,2,6,15,15.mid,experiment,0
24,62,13904,81,96,1,2,6,15,15.mid,experiment,0
25,64,14168,78,91,1,2,6,15,15.mid,experiment,0
26,67,14468,79,62,1,2,6,15,15.mid,experiment,0
27,69,14736,79,82,1,2,6,15,15.mid,experiment,0
28,71,15291,79,78,1,2,6,15,15.mid,experiment,0
29,73,16409,77,54,1,2,6,15,15.mid,experiment,0
30,75,16679,77,59,1,2,6,15,15.mid,experiment,0
31,77,16943,76,50,1,2,6,15,15.mid,experiment,0
32,79,17200,76,53,1,2,6,15,15.mid,experiment,0
33,81,17505,74,53,1,2,6,15,15.mid,experiment,0
34,83,18629,79,51,1,2,6,15,15.mid,experiment,0
35,85,19194,77,48,1,2,6,15,15.mid,experiment,0
36,87,19751,76,47,1,2,6,15,15.mid,experiment,0
37,89,20014,76,49,1,2,6,15,15.mid,experiment,0
38,91,20280,76,51,1,2,6,15,15.mid,experiment,0
39,93,20523,76,65,1,2,6,15,15.mid,experiment,0
40,95,20779,81,91,1,2,6,15,15.mid,experiment,0
41,96,21037,77,91,1,2,6,15,15.mid,experiment,0
42,98,21300,76,94,1,2,6,15,15.mid,experiment,0
43,100,21554,74,90,1,2,6,15,15.mid,experiment,0
44,102,21820,76,90,1,2,6,15,15.mid,experiment,0
45,104,22081,79,87,1,2,6,15,15.mid,experiment,0
46,106,22341,74,101,1,2,6,15,15.mid,experiment,0
47,108,22641,71,84,1,2,6,15,15.mid,experiment,0
48,111,22908,72,53,1,2,6,15,15.mid,experiment,0
49,113,23161,72,57,1,2,6,15,15.mid,experiment,0
50,115,23406,74,60,1,2,6,15,15.mid,experiment,0
51,117,23663,74,57,1,2,6,15,15.mid,experiment,0
52,119,23966,76,49,1,2,6,15,15.mid,experiment,0
53,121,25069,65,59,1,2,6,15,15.mid,experiment,0
54,123,25364,65,42,1,2,6,15,15.mid,experiment,0
55,125,25638,64,45,1,2,6,15,15.mid,experiment,0
56,127,25898,64,51,1,2,6,15,15.mid,experiment,0
57,129,26202,62,53,1,2,6,15,15.mid,experiment,0
58,131,27322,67,60,1,2,6,15,15.mid,experiment,0
59,133,27584,67,64,1,2,6,15,15.mid,experiment,0
60,135,27863,71,62,1,2,6,15,15.mid,experiment,0
61,137,28130,71,46,1,2,6,15,15.mid,experiment,0
62,139,28376,72,72,1,2,6,15,15.mid,experiment,0
63,141,28636,72,63,1,2,6,15,15.mid,experiment,0
64,143,28896,73,55,1,2,6,15,15.mid,experiment,0
65,145,29154,73,63,1,2,6,15,15.mid,experiment,0
66,147,29428,74,105,1,2,6,15,15.mid,experiment,0
67,149,29986,77,101,1,2,6,15,15.mid,experiment,0
68,151,30519,76,96,1,2,6,15,15.mid,experiment,0
69,153,31067,74,103,1,2,6,15,15.mid,experiment,0
70,155,31607,72,98,1,2,6,15,15.mid,experiment,0
71,157,32153,84,97,1,2,6,15,15.mid,experiment,0
72,159,32708,84,95,1,2,6,15,15.mid,experiment,0
1,17,7938,79,48,1,2,7,2,11.mid,experiment,0
2,18,8231,78,70,1,2,7,2,11.mid,experiment,0
3,20,8535,79,72,1,2,7,2,11.mid,experiment,0
4,21,8841,76,65,1,2,7,2,11.mid,experiment,0
5,24,9137,72,60,1,2,7,2,11.mid,experiment,0
6,27,9433,67,54,1,2,7,2,11.mid,experiment,0
7,29,9724,67,61,1,2,7,2,11.mid,experiment,0
8,31,10003,67,50,1,2,7,2,11.mid,experiment,0
9,33,10333,79,53,1,2,7,2,11.mid,experiment,0
10,34,10629,78,70,1,2,7,2,11.mid,experiment,0
11,36,10911,79,74,1,2,7,2,11.mid,experiment,0
12,38,11195,76,65,1,2,7,2,11.mid,experiment,0
13,41,11511,72,64,1,2,7,2,11.mid,experiment,0
14,42,11810,76,58,1,2,7,2,11.mid,experiment,0
15,44,12125,79,70,1,2,7,2,11.mid,experiment,0
16,46,12409,84,73,1,2,7,2,11.mid,experiment,0
17,48,12751,83,71,1,2,7,2,11.mid,experiment,0
18,51,13044,81,63,1,2,7,2,11.mid,experiment,0
19,53,13337,81,60,1,2,7,2,11.mid,experiment,0
20,55,13629,81,58,1,2,7,2,11.mid,experiment,0
21,57,13941,83,56,1,2,7,2,11.mid,experiment,0
22,58,14207,81,68,1,2,7,2,11.mid,experiment,0
23,60,14511,84,77,1,2,7,2,11.mid,experiment,0
24,62,14791,81,76,1,2,7,2,11.mid,experiment,0
25,64,15107,78,68,1,2,7,2,11.mid,experiment,0
26,67,15424,79,57,1,2,7,2,11.mid,experiment,0
27,69,15755,79,58,1,2,7,2,11.mid,experiment,0
28,71,16365,79,58,1,2,7,2,11.mid,experiment,0
29,73,17611,77,59,1,2,7,2,11.mid,experiment,0
30,75,17899,77,62,1,2,7,2,11.mid,experiment,0
31,77,18185,76,59,1,2,7,2,11.mid,experiment,0
32,79,18482,76,63,1,2,7,2,11.mid,experiment,0
33,81,18805,74,56,1,2,7,2,11.mid,experiment,0
34,83,19967,79,62,1,2,7,2,11.mid,experiment,0
35,85,20559,77,65,1,2,7,2,11.mid,experiment,0
36,87,21157,76,53,1,2,7,2,11.mid,experiment,0
37,89,21451,76,56,1,2,7,2,11.mid,experiment,0
38,91,21733,76,55,1,2,7,2,11.mid,experiment,0
39,93,22016,76,58,1,2,7,2,11.mid,experiment,0
40,95,22353,81,55,1,2,7,2,11.mid,experiment,0
41,96,22643,77,65,1,2,7,2,11.mid,experiment,0
42,98,22915,76,72,1,2,7,2,11.mid,experiment,0
43,101,23201,74,69,1,2,7,2,11.mid,experiment,0
44,102,23495,76,65,1,2,7,2,11.mid,experiment,0
45,104,23781,79,56,1,2,7,2,11.mid,experiment,0
46,106,24084,74,58,1,2,7,2,11.mid,experiment,0
47,109,24377,71,56,1,2,7,2,11.mid,experiment,0
48,111,24685,72,63,1,2,7,2,11.mid,experiment,0
49,113,24969,72,57,1,2,7,2,11.mid,experiment,0
50,115,25265,74,57,1,2,7,2,11.mid,experiment,0
51,117,25567,74,50,1,2,7,2,11.mid,experiment,0
52,119,25886,76,51,1,2,7,2,11.mid,experiment,0
53,121,27063,65,62,1,2,7,2,11.mid,experiment,0
54,123,27343,65,68,1,2,7,2,11.mid,experiment,0
55,125,27655,64,56,1,2,7,2,11.mid,experiment,0
56,127,27957,64,58,1,2,7,2,11.mid,experiment,0
57,129,28311,62,54,1,2,7,2,11.mid,experiment,0
58,131,29449,67,56,1,2,7,2,11.mid,experiment,0
59,133,29743,67,60,1,2,7,2,11.mid,experiment,0
60,135,30056,71,42,1,2,7,2,11.mid,experiment,0
61,137,30331,71,58,1,2,7,2,11.mid,experiment,0
62,139,30625,72,71,1,2,7,2,11.mid,experiment,0
63,141,30905,72,74,1,2,7,2,11.mid,experiment,0
64,143,31193,73,75,1,2,7,2,11.mid,experiment,0
65,145,31487,73,72,1,2,7,2,11.mid,experiment,0
66,147,31823,74,68,1,2,7,2,11.mid,experiment,0
67,149,32398,77,71,1,2,7,2,11.mid,experiment,0
68,151,33017,76,63,1,2,7,2,11.mid,experiment,0
69,153,33625,74,58,1,2,7,2,11.mid,experiment,0
70,155,34243,72,63,1,2,7,2,11.mid,experiment,0
71,157,34879,84,70,1,2,7,2,11.mid,experiment,0
72,159,35596,84,63,1,2,7,2,11.mid,experiment,0
1,17,7810,79,71,1,2,7,4,13.mid,experiment,0
2,18,8098,78,72,1,2,7,4,13.mid,experiment,0
3,20,8389,79,70,1,2,7,4,13.mid,experiment,0
4,23,8663,76,67,1,2,7,4,13.mid,experiment,0
5,24,8973,72,63,1,2,7,4,13.mid,experiment,0
6,27,9249,67,56,1,2,7,4,13.mid,experiment,0
7,29,9519,67,67,1,2,7,4,13.mid,experiment,0
8,31,9790,67,65,1,2,7,4,13.mid,experiment,0
9,33,10100,79,63,1,2,7,4,13.mid,experiment,0
10,34,10361,78,76,1,2,7,4,13.mid,experiment,0
11,36,10641,79,78,1,2,7,4,13.mid,experiment,0
12,38,10914,76,67,1,2,7,4,13.mid,experiment,0
13,41,11196,72,72,1,2,7,4,13.mid,experiment,0
14,42,11463,76,70,1,2,7,4,13.mid,experiment,0
15,44,11751,79,75,1,2,7,4,13.mid,experiment,0
16,46,12025,84,78,1,2,7,4,13.mid,experiment,0
17,48,12329,83,78,1,2,7,4,13.mid,experiment,0
18,51,12604,81,72,1,2,7,4,13.mid,experiment,0
19,53,12879,81,64,1,2,7,4,13.mid,experiment,0
20,55,13157,81,65,1,2,7,4,13.mid,experiment,0
21,57,13447,83,72,1,2,7,4,13.mid,experiment,0
22,58,13709,81,78,1,2,7,4,13.mid,experiment,0
23,60,13990,84,79,1,2,7,4,13.mid,experiment,0
24,63,14264,81,81,1,2,7,4,13.mid,experiment,0
25,65,14563,78,68,1,2,7,4,13.mid,experiment,0
26,66,14847,79,65,1,2,7,4,13.mid,experiment,0
27,69,15149,79,56,1,2,7,4,13.mid,experiment,0
28,71,15698,79,58,1,2,7,4,13.mid,experiment,0
29,73,16806,77,65,1,2,7,4,13.mid,experiment,0
30,75,17084,77,65,1,2,7,4,13.mid,experiment,0
31,77,17364,76,58,1,2,7,4,13.mid,experiment,0
32,79,17633,76,58,1,2,7,4,13.mid,experiment,0
33,81,17931,74,56,1,2,7,4,13.mid,experiment,0
34,83,19040,79,56,1,2,7,4,13.mid,experiment,0
35,85,19585,77,64,1,2,7,4,13.mid,experiment,0
36,87,20150,76,59,1,2,7,4,13.mid,experiment,0
37,89,20431,76,57,1,2,7,4,13.mid,experiment,0
38,91,20719,76,51,1,2,7,4,13.mid,experiment,0
39,93,20990,76,57,1,2,7,4,13.mid,experiment,0
40,95,21288,81,76,1,2,7,4,13.mid,experiment,0
41,96,21561,77,79,1,2,7,4,13.mid,experiment,0
42,98,21836,76,72,1,2,7,4,13.mid,experiment,0
43,101,22114,74,70,1,2,7,4,13.mid,experiment,0
44,102,22411,76,64,1,2,7,4,13.mid,experiment,0
45,104,22687,79,67,1,2,7,4,13.mid,experiment,0
46,106,22976,74,65,1,2,7,4,13.mid,experiment,0
47,109,23255,71,63,1,2,7,4,13.mid,experiment,0
48,111,23543,72,62,1,2,7,4,13.mid,experiment,0
49,113,23812,72,57,1,2,7,4,13.mid,experiment,0
50,115,24098,74,62,1,2,7,4,13.mid,experiment,0
51,117,24372,74,56,1,2,7,4,13.mid,experiment,0
52,119,24705,76,47,1,2,7,4,13.mid,experiment,0
53,121,25815,65,63,1,2,7,4,13.mid,experiment,0
54,123,26093,65,67,1,2,7,4,13.mid,experiment,0
55,125,26391,64,57,1,2,7,4,13.mid,experiment,0
56,127,26671,64,58,1,2,7,4,13.mid,experiment,0
57,129,26997,62,51,1,2,7,4,13.mid,experiment,0
58,131,28092,67,56,1,2,7,4,13.mid,experiment,0
59,133,28357,67,68,1,2,7,4,13.mid,experiment,0
60,135,28657,71,56,1,2,7,4,13.mid,experiment,0
61,137,28914,71,64,1,2,7,4,13.mid,experiment,0
62,139,29207,72,67,1,2,7,4,13.mid,experiment,0
63,141,29468,72,74,1,2,7,4,13.mid,experiment,0
64,143,29744,73,75,1,2,7,4,13.mid,experiment,0
65,145,30022,73,75,1,2,7,4,13.mid,experiment,0
66,147,30343,74,68,1,2,7,4,13.mid,experiment,0
67,149,30875,77,70,1,2,7,4,13.mid,experiment,0
68,151,31457,76,66,1,2,7,4,13.mid,experiment,0
69,153,32038,74,59,1,2,7,4,13.mid,experiment,0
70,155,32620,72,65,1,2,7,4,13.mid,experiment,0
71,157,33247,84,66,1,2,7,4,13.mid,experiment,0
72,159,33868,84,65,1,2,7,4,13.mid,experiment,0
1,17,7827,79,64,1,2,7,5,14.mid,experiment,0
2,18,8122,78,74,1,2,7,5,14.mid,experiment,0
3,20,8409,79,76,1,2,7,5,14.mid,experiment,0
4,22,8685,76,66,1,2,7,5,14.mid,experiment,0
5,25,8980,72,73,1,2,7,5,14.mid,experiment,0
6,27,9257,67,67,1,2,7,5,14.mid,experiment,0
7,29,9536,67,63,1,2,7,5,14.mid,experiment,0
8,31,9829,67,53,1,2,7,5,14.mid,experiment,0
9,33,10142,79,65,1,2,7,5,14.mid,experiment,0
10,34,10417,78,70,1,2,7,5,14.mid,experiment,0
11,36,10695,79,76,1,2,7,5,14.mid,experiment,0
12,38,10973,76,71,1,2,7,5,14.mid,experiment,0
13,41,11264,72,70,1,2,7,5,14.mid,experiment,0
14,42,11526,76,67,1,2,7,5,14.mid,experiment,0
15,44,11817,79,81,1,2,7,5,14.mid,experiment,0
16,46,12092,84,87,1,2,7,5,14.mid,experiment,0
17,48,12402,83,78,1,2,7,5,14.mid,experiment,0
18,51,12685,81,68,1,2,7,5,14.mid,experiment,0
19,53,12962,81,66,1,2,7,5,14.mid,experiment,0
20,55,13246,81,62,1,2,7,5,14.mid,experiment,0
21,57,13536,83,64,1,2,7,5,14.mid,experiment,0
22,58,13818,81,71,1,2,7,5,14.mid,experiment,0
23,60,14102,84,71,1,2,7,5,14.mid,experiment,0
24,62,14380,81,73,1,2,7,5,14.mid,experiment,0
25,64,14680,78,65,1,2,7,5,14.mid,experiment,0
26,67,14972,79,58,1,2,7,5,14.mid,experiment,0
27,69,15264,79,67,1,2,7,5,14.mid,experiment,0
28,71,15860,79,65,1,2,7,5,14.mid,experiment,0
29,73,17105,77,57,1,2,7,5,14.mid,experiment,0
30,75,17378,77,63,1,2,7,5,14.mid,experiment,0
31,77,17666,76,61,1,2,7,5,14.mid,experiment,0
32,79,17945,76,63,1,2,7,5,14.mid,experiment,0
33,81,18257,74,58,1,2,7,5,14.mid,experiment,0
34,83,19422,79,61,1,2,7,5,14.mid,experiment,0
35,85,19999,77,62,1,2,7,5,14.mid,experiment,0
36,87,20586,76,47,1,2,7,5,14.mid,experiment,0
37,89,20875,76,57,1,2,7,5,14.mid,experiment,0
38,91,21158,76,54,1,2,7,5,14.mid,experiment,0
39,93,21437,76,54,1,2,7,5,14.mid,experiment,0
40,95,21755,81,65,1,2,7,5,14.mid,experiment,0
41,96,22030,77,71,1,2,7,5,14.mid,experiment,0
42,98,22319,76,70,1,2,7,5,14.mid,experiment,0
43,100,22602,74,68,1,2,7,5,14.mid,experiment,0
44,102,22898,76,67,1,2,7,5,14.mid,experiment,0
45,104,23168,79,70,1,2,7,5,14.mid,experiment,0
46,106,23459,74,68,1,2,7,5,14.mid,experiment,0
47,109,23753,71,63,1,2,7,5,14.mid,experiment,0
48,111,24045,72,54,1,2,7,5,14.mid,experiment,0
49,113,24330,72,53,1,2,7,5,14.mid,experiment,0
50,115,24604,74,60,1,2,7,5,14.mid,experiment,0
51,117,24897,74,43,1,2,7,5,14.mid,experiment,0
52,119,25216,76,43,1,2,7,5,14.mid,experiment,0
53,121,26348,65,61,1,2,7,5,14.mid,experiment,0
54,123,26610,65,68,1,2,7,5,14.mid,experiment,0
55,125,26913,64,50,1,2,7,5,14.mid,experiment,0
56,127,27197,64,58,1,2,7,5,14.mid,experiment,0
57,129,27521,62,58,1,2,7,5,14.mid,experiment,0
58,131,28676,67,62,1,2,7,5,14.mid,experiment,0
59,133,28953,67,66,1,2,7,5,14.mid,experiment,0
60,135,29238,71,66,1,2,7,5,14.mid,experiment,0
61,137,29527,71,55,1,2,7,5,14.mid,experiment,0
62,139,29809,72,64,1,2,7,5,14.mid,experiment,0
63,141,30074,72,66,1,2,7,5,14.mid,experiment,0
64,143,30356,73,70,1,2,7,5,14.mid,experiment,0
65,145,30635,73,74,1,2,7,5,14.mid,experiment,0
66,147,30944,74,78,1,2,7,5,14.mid,experiment,0
67,149,31540,77,78,1,2,7,5,14.mid,experiment,0
68,150,32144,76,68,1,2,7,5,14.mid,experiment,0
69,153,32720,74,66,1,2,7,5,14.mid,experiment,0
70,155,33310,72,71,1,2,7,5,14.mid,experiment,0
71,157,33926,84,76,1,2,7,5,14.mid,experiment,0
72,159,34552,84,73,1,2,7,5,14.mid,experiment,0
1,17,7876,79,66,1,2,7,6,8.mid,experiment,0
2,18,8176,78,77,1,2,7,6,8.mid,experiment,0
3,20,8456,79,75,1,2,7,6,8.mid,experiment,0
4,22,8742,76,70,1,2,7,6,8.mid,experiment,0
5,24,9037,72,61,1,2,7,6,8.mid,experiment,0
6,27,9337,67,54,1,2,7,6,8.mid,experiment,0
7,29,9622,67,57,1,2,7,6,8.mid,experiment,0
8,31,9900,67,67,1,2,7,6,8.mid,experiment,0
9,33,10219,79,68,1,2,7,6,8.mid,experiment,0
10,34,10499,78,71,1,2,7,6,8.mid,experiment,0
11,36,10767,79,76,1,2,7,6,8.mid,experiment,0
12,38,11037,76,71,1,2,7,6,8.mid,experiment,0
13,41,11330,72,69,1,2,7,6,8.mid,experiment,0
14,42,11625,76,66,1,2,7,6,8.mid,experiment,0
15,44,11895,79,77,1,2,7,6,8.mid,experiment,0
16,46,12184,84,81,1,2,7,6,8.mid,experiment,0
17,48,12475,83,78,1,2,7,6,8.mid,experiment,0
18,51,12780,81,60,1,2,7,6,8.mid,experiment,0
19,53,13050,81,67,1,2,7,6,8.mid,experiment,0
20,55,13337,81,59,1,2,7,6,8.mid,experiment,0
21,57,13631,83,64,1,2,7,6,8.mid,experiment,0
22,58,13907,81,76,1,2,7,6,8.mid,experiment,0
23,60,14173,84,79,1,2,7,6,8.mid,experiment,0
24,62,14450,81,80,1,2,7,6,8.mid,experiment,0
25,64,14744,78,78,1,2,7,6,8.mid,experiment,0
26,67,15027,79,70,1,2,7,6,8.mid,experiment,0
27,69,15324,79,79,1,2,7,6,8.mid,experiment,0
28,71,15907,79,60,1,2,7,6,8.mid,experiment,0
29,73,17112,77,65,1,2,7,6,8.mid,experiment,0
30,75,17381,77,69,1,2,7,6,8.mid,experiment,0
31,77,17661,76,64,1,2,7,6,8.mid,experiment,0
32,79,17945,76,56,1,2,7,6,8.mid,experiment,0
33,81,18245,74,59,1,2,7,6,8.mid,experiment,0
34,83,19414,79,71,1,2,7,6,8.mid,experiment,0
35,85,20004,77,65,1,2,7,6,8.mid,experiment,0
36,87,20621,76,49,1,2,7,6,8.mid,experiment,0
37,89,20905,76,56,1,2,7,6,8.mid,experiment,0
38,91,21188,76,57,1,2,7,6,8.mid,experiment,0
39,93,21470,76,53,1,2,7,6,8.mid,experiment,0
40,95,21793,81,72,1,2,7,6,8.mid,experiment,0
41,96,22088,77,74,1,2,7,6,8.mid,experiment,0
42,98,22366,76,68,1,2,7,6,8.mid,experiment,0
43,100,22644,74,65,1,2,7,6,8.mid,experiment,0
44,102,22932,76,68,1,2,7,6,8.mid,experiment,0
45,104,23208,79,76,1,2,7,6,8.mid,experiment,0
46,106,23500,74,74,1,2,7,6,8.mid,experiment,0
47,109,23782,71,68,1,2,7,6,8.mid,experiment,0
48,111,24076,72,72,1,2,7,6,8.mid,experiment,0
49,113,24342,72,66,1,2,7,6,8.mid,experiment,0
50,115,24632,74,68,1,2,7,6,8.mid,experiment,0
51,117,24921,74,63,1,2,7,6,8.mid,experiment,0
52,119,25246,76,54,1,2,7,6,8.mid,experiment,0
53,121,26402,65,65,1,2,7,6,8.mid,experiment,0
54,123,26688,65,67,1,2,7,6,8.mid,experiment,0
55,125,26987,64,52,1,2,7,6,8.mid,experiment,0
56,127,27270,64,67,1,2,7,6,8.mid,experiment,0
57,129,27616,62,58,1,2,7,6,8.mid,experiment,0
58,131,28786,67,59,1,2,7,6,8.mid,experiment,0
59,133,29069,67,63,1,2,7,6,8.mid,experiment,0
60,135,29364,71,58,1,2,7,6,8.mid,experiment,0
61,137,29646,71,58,1,2,7,6,8.mid,experiment,0
62,139,29919,72,75,1,2,7,6,8.mid,experiment,0
63,141,30197,72,71,1,2,7,6,8.mid,experiment,0
64,143,30479,73,72,1,2,7,6,8.mid,experiment,0
65,145,30755,73,70,1,2,7,6,8.mid,experiment,0
66,147,31083,74,68,1,2,7,6,8.mid,experiment,0
67,149,31674,77,81,1,2,7,6,8.mid,experiment,0
68,151,32260,76,77,1,2,7,6,8.mid,experiment,0
69,153,32850,74,74,1,2,7,6,8.mid,experiment,0
70,155,33449,72,76,1,2,7,6,8.mid,experiment,0
71,157,34079,84,76,1,2,7,6,8.mid,experiment,0
72,159,34741,84,65,1,2,7,6,8.mid,experiment,0
1,17,7860,79,66,1,2,7,7,9.mid,experiment,0
2,18,8127,78,81,1,2,7,7,9.mid,experiment,0
3,20,8417,79,81,1,2,7,7,9.mid,experiment,0
4,22,8703,76,65,1,2,7,7,9.mid,experiment,0
5,24,8983,72,68,1,2,7,7,9.mid,experiment,0
6,27,9272,67,57,1,2,7,7,9.mid,experiment,0
7,29,9567,67,59,1,2,7,7,9.mid,experiment,0
8,31,9839,67,65,1,2,7,7,9.mid,experiment,0
9,33,10147,79,63,1,2,7,7,9.mid,experiment,0
10,34,10417,78,74,1,2,7,7,9.mid,experiment,0
11,36,10693,79,75,1,2,7,7,9.mid,experiment,0
12,38,10955,76,70,1,2,7,7,9.mid,experiment,0
13,41,11243,72,76,1,2,7,7,9.mid,experiment,0
14,42,11505,76,75,1,2,7,7,9.mid,experiment,0
15,44,11783,79,85,1,2,7,7,9.mid,experiment,0
16,46,12059,84,84,1,2,7,7,9.mid,experiment,0
17,48,12365,83,75,1,2,7,7,9.mid,experiment,0
18,51,12659,81,66,1,2,7,7,9.mid,experiment,0
19,53,12931,81,66,1,2,7,7,9.mid,experiment,0
20,55,13207,81,64,1,2,7,7,9.mid,experiment,0
21,57,13497,83,70,1,2,7,7,9.mid,experiment,0
22,58,13776,81,83,1,2,7,7,9.mid,experiment,0
23,60,14060,84,80,1,2,7,7,9.mid,experiment,0
24,62,14329,81,78,1,2,7,7,9.mid,experiment,0
25,64,14622,78,74,1,2,7,7,9.mid,experiment,0
26,67,14925,79,65,1,2,7,7,9.mid,experiment,0
27,69,15233,79,67,1,2,7,7,9.mid,experiment,0
28,71,15813,79,58,1,2,7,7,9.mid,experiment,0
29,73,16955,77,67,1,2,7,7,9.mid,experiment,0
30,75,17231,77,65,1,2,7,7,9.mid,experiment,0
31,77,17512,76,63,1,2,7,7,9.mid,experiment,0
32,79,17807,76,58,1,2,7,7,9.mid,experiment,0
33,81,18107,74,58,1,2,7,7,9.mid,experiment,0
34,83,19279,79,67,1,2,7,7,9.mid,experiment,0
35,85,19883,77,54,1,2,7,7,9.mid,experiment,0
36,87,20443,76,56,1,2,7,7,9.mid,experiment,0
37,89,20717,76,57,1,2,7,7,9.mid,experiment,0
38,91,20999,76,57,1,2,7,7,9.mid,experiment,0
39,93,21285,76,55,1,2,7,7,9.mid,experiment,0
40,95,21617,81,75,1,2,7,7,9.mid,experiment,0
41,96,21917,77,78,1,2,7,7,9.mid,experiment,0
42,98,22187,76,69,1,2,7,7,9.mid,experiment,0
43,100,22459,74,68,1,2,7,7,9.mid,experiment,0
44,102,22743,76,74,1,2,7,7,9.mid,experiment,0
45,104,23021,79,81,1,2,7,7,9.mid,experiment,0
46,106,23303,74,76,1,2,7,7,9.mid,experiment,0
47,109,23587,71,71,1,2,7,7,9.mid,experiment,0
48,111,23915,72,59,1,2,7,7,9.mid,experiment,0
49,113,24171,72,65,1,2,7,7,9.mid,experiment,0
50,115,24463,74,61,1,2,7,7,9.mid,experiment,0
51,117,24737,74,56,1,2,7,7,9.mid,experiment,0
52,119,25065,76,45,1,2,7,7,9.mid,experiment,0
53,121,26188,65,58,1,2,7,7,9.mid,experiment,0
54,123,26463,65,62,1,2,7,7,9.mid,experiment,0
55,125,26757,64,52,1,2,7,7,9.mid,experiment,0
56,127,27037,64,62,1,2,7,7,9.mid,experiment,0
57,129,27371,62,56,1,2,7,7,9.mid,experiment,0
58,131,28513,67,54,1,2,7,7,9.mid,experiment,0
59,133,28791,67,64,1,2,7,7,9.mid,experiment,0
60,135,29074,71,63,1,2,7,7,9.mid,experiment,0
61,137,29357,71,51,1,2,7,7,9.mid,experiment,0
62,139,29645,72,58,1,2,7,7,9.mid,experiment,0
63,141,29903,72,70,1,2,7,7,9.mid,experiment,0
64,143,30177,73,70,1,2,7,7,9.mid,experiment,0
65,145,30455,73,71,1,2,7,7,9.mid,experiment,0
66,147,30757,74,74,1,2,7,7,9.mid,experiment,0
67,148,31311,77,71,1,2,7,7,9.mid,experiment,0
68,150,31863,76,66,1,2,7,7,9.mid,experiment,0
69,152,32434,74,61,1,2,7,7,9.mid,experiment,0
70,155,33015,72,71,1,2,7,7,9.mid,experiment,0
71,157,33646,84,77,1,2,7,7,9.mid,experiment,0
72,159,34291,84,75,1,2,7,7,9.mid,experiment,0
1,17,7915,79,68,1,2,7,10,10.mid,experiment,0
2,18,8204,78,81,1,2,7,10,10.mid,experiment,0
3,20,8495,79,81,1,2,7,10,10.mid,experiment,0
4,22,8761,76,78,1,2,7,10,10.mid,experiment,0
5,24,9071,72,70,1,2,7,10,10.mid,experiment,0
6,27,9356,67,60,1,2,7,10,10.mid,experiment,0
7,29,9625,67,64,1,2,7,10,10.mid,experiment,0
8,31,9896,67,63,1,2,7,10,10.mid,experiment,0
9,33,10212,79,69,1,2,7,10,10.mid,experiment,0
10,34,10485,78,79,1,2,7,10,10.mid,experiment,0
11,36,10763,79,81,1,2,7,10,10.mid,experiment,0
12,38,11023,76,77,1,2,7,10,10.mid,experiment,0
13,41,11314,72,77,1,2,7,10,10.mid,experiment,0
14,42,11572,76,76,1,2,7,10,10.mid,experiment,0
15,44,11841,79,84,1,2,7,10,10.mid,experiment,0
16,46,12126,84,86,1,2,7,10,10.mid,experiment,0
17,48,12418,83,81,1,2,7,10,10.mid,experiment,0
18,51,12711,81,53,1,2,7,10,10.mid,experiment,0
19,53,12992,81,67,1,2,7,10,10.mid,experiment,0
20,55,13263,81,65,1,2,7,10,10.mid,experiment,0
21,57,13548,83,73,1,2,7,10,10.mid,experiment,0
22,58,13816,81,81,1,2,7,10,10.mid,experiment,0
23,60,14108,84,83,1,2,7,10,10.mid,experiment,0
24,62,14391,81,81,1,2,7,10,10.mid,experiment,0
25,64,14685,78,78,1,2,7,10,10.mid,experiment,0
26,67,14955,79,75,1,2,7,10,10.mid,experiment,0
27,69,15243,79,70,1,2,7,10,10.mid,experiment,0
28,71,15820,79,70,1,2,7,10,10.mid,experiment,0
29,73,16973,77,62,1,2,7,10,10.mid,experiment,0
30,75,17259,77,58,1,2,7,10,10.mid,experiment,0
31,77,17516,76,63,1,2,7,10,10.mid,experiment,0
32,79,17808,76,58,1,2,7,10,10.mid,experiment,0
33,81,18109,74,55,1,2,7,10,10.mid,experiment,0
34,83,19289,79,62,1,2,7,10,10.mid,experiment,0
35,85,19830,77,57,1,2,7,10,10.mid,experiment,0
36,87,20402,76,53,1,2,7,10,10.mid,experiment,0
37,89,20666,76,65,1,2,7,10,10.mid,experiment,0
38,91,20938,76,62,1,2,7,10,10.mid,experiment,0
39,93,21226,76,56,1,2,7,10,10.mid,experiment,0
40,95,21546,81,69,1,2,7,10,10.mid,experiment,0
41,96,21823,77,82,1,2,7,10,10.mid,experiment,0
42,98,22099,76,77,1,2,7,10,10.mid,experiment,0
43,100,22369,74,69,1,2,7,10,10.mid,experiment,0
44,102,22660,76,73,1,2,7,10,10.mid,experiment,0
45,104,22933,79,74,1,2,7,10,10.mid,experiment,0
46,106,23229,74,76,1,2,7,10,10.mid,experiment,0
47,108,23519,71,63,1,2,7,10,10.mid,experiment,0
48,111,23868,72,57,1,2,7,10,10.mid,experiment,0
49,113,24134,72,66,1,2,7,10,10.mid,experiment,0
50,115,24409,74,66,1,2,7,10,10.mid,experiment,0
51,117,24686,74,63,1,2,7,10,10.mid,experiment,0
52,119,24997,76,46,1,2,7,10,10.mid,experiment,0
53,121,26073,65,63,1,2,7,10,10.mid,experiment,0
54,123,26331,65,67,1,2,7,10,10.mid,experiment,0
55,125,26610,64,61,1,2,7,10,10.mid,experiment,0
56,127,26879,64,71,1,2,7,10,10.mid,experiment,0
57,129,27201,62,55,1,2,7,10,10.mid,experiment,0
58,131,28253,67,63,1,2,7,10,10.mid,experiment,0
59,133,28523,67,66,1,2,7,10,10.mid,experiment,0
60,135,28808,71,58,1,2,7,10,10.mid,experiment,0
61,137,29079,71,60,1,2,7,10,10.mid,experiment,0
62,139,29372,72,61,1,2,7,10,10.mid,experiment,0
63,141,29642,72,68,1,2,7,10,10.mid,experiment,0
64,143,29917,73,69,1,2,7,10,10.mid,experiment,0
65,145,30189,73,67,1,2,7,10,10.mid,experiment,0
66,147,30509,74,81,1,2,7,10,10.mid,experiment,0
67,149,31089,77,78,1,2,7,10,10.mid,experiment,0
68,151,31667,76,77,1,2,7,10,10.mid,experiment,0
69,153,32239,74,70,1,2,7,10,10.mid,experiment,0
70,155,32833,72,65,1,2,7,10,10.mid,experiment,0
71,157,33426,84,72,1,2,7,10,10.mid,experiment,0
72,159,34063,84,69,1,2,7,10,10.mid,experiment,0
1,17,7848,79,71,1,2,7,12,3.mid,experiment,0
2,18,8136,78,76,1,2,7,12,3.mid,experiment,0
3,20,8418,79,76,1,2,7,12,3.mid,experiment,0
4,22,8697,76,72,1,2,7,12,3.mid,experiment,0
5,24,8995,72,73,1,2,7,12,3.mid,experiment,0
6,27,9290,67,65,1,2,7,12,3.mid,experiment,0
7,29,9561,67,72,1,2,7,12,3.mid,experiment,0
8,31,9848,67,62,1,2,7,12,3.mid,experiment,0
9,33,10161,79,71,1,2,7,12,3.mid,experiment,0
10,34,10426,78,81,1,2,7,12,3.mid,experiment,0
11,36,10702,79,80,1,2,7,12,3.mid,experiment,0
12,38,10970,76,76,1,2,7,12,3.mid,experiment,0
13,41,11259,72,76,1,2,7,12,3.mid,experiment,0
14,42,11538,76,73,1,2,7,12,3.mid,experiment,0
15,44,11828,79,74,1,2,7,12,3.mid,experiment,0
16,46,12096,84,75,1,2,7,12,3.mid,experiment,0
17,48,12396,83,73,1,2,7,12,3.mid,experiment,0
18,51,12690,81,55,1,2,7,12,3.mid,experiment,0
19,53,12958,81,66,1,2,7,12,3.mid,experiment,0
20,55,13254,81,66,1,2,7,12,3.mid,experiment,0
21,57,13542,83,68,1,2,7,12,3.mid,experiment,0
22,58,13812,81,80,1,2,7,12,3.mid,experiment,0
23,60,14089,84,84,1,2,7,12,3.mid,experiment,0
24,62,14376,81,81,1,2,7,12,3.mid,experiment,0
25,64,14672,78,75,1,2,7,12,3.mid,experiment,0
26,67,14948,79,72,1,2,7,12,3.mid,experiment,0
27,69,15257,79,65,1,2,7,12,3.mid,experiment,0
28,71,15842,79,68,1,2,7,12,3.mid,experiment,0
29,73,17080,77,59,1,2,7,12,3.mid,experiment,0
30,75,17353,77,66,1,2,7,12,3.mid,experiment,0
31,77,17645,76,58,1,2,7,12,3.mid,experiment,0
32,79,17933,76,56,1,2,7,12,3.mid,experiment,0
33,81,18249,74,60,1,2,7,12,3.mid,experiment,0
34,83,19481,79,63,1,2,7,12,3.mid,experiment,0
35,85,20063,77,59,1,2,7,12,3.mid,experiment,0
36,87,20663,76,58,1,2,7,12,3.mid,experiment,0
37,89,20939,76,56,1,2,7,12,3.mid,experiment,0
38,91,21235,76,56,1,2,7,12,3.mid,experiment,0
39,93,21518,76,55,1,2,7,12,3.mid,experiment,0
40,95,21861,81,71,1,2,7,12,3.mid,experiment,0
41,96,22160,77,78,1,2,7,12,3.mid,experiment,0
42,98,22448,76,72,1,2,7,12,3.mid,experiment,0
43,100,22725,74,67,1,2,7,12,3.mid,experiment,0
44,102,23025,76,70,1,2,7,12,3.mid,experiment,0
45,104,23307,79,70,1,2,7,12,3.mid,experiment,0
46,106,23599,74,72,1,2,7,12,3.mid,experiment,0
47,109,23897,71,68,1,2,7,12,3.mid,experiment,0
48,111,24230,72,56,1,2,7,12,3.mid,experiment,0
49,113,24514,72,59,1,2,7,12,3.mid,experiment,0
50,115,24798,74,56,1,2,7,12,3.mid,experiment,0
51,117,25083,74,56,1,2,7,12,3.mid,experiment,0
52,119,25428,76,47,1,2,7,12,3.mid,experiment,0
53,121,26573,65,63,1,2,7,12,3.mid,experiment,0
54,123,26847,65,67,1,2,7,12,3.mid,experiment,0
55,125,27150,64,49,1,2,7,12,3.mid,experiment,0
56,127,27433,64,57,1,2,7,12,3.mid,experiment,0
57,129,27765,62,54,1,2,7,12,3.mid,experiment,0
58,131,28927,67,53,1,2,7,12,3.mid,experiment,0
59,133,29226,67,53,1,2,7,12,3.mid,experiment,0
60,135,29524,71,39,1,2,7,12,3.mid,experiment,0
61,137,29798,71,53,1,2,7,12,3.mid,experiment,0
62,139,30092,72,62,1,2,7,12,3.mid,experiment,0
63,141,30368,72,67,1,2,7,12,3.mid,experiment,0
64,143,30654,73,68,1,2,7,12,3.mid,experiment,0
65,145,30931,73,65,1,2,7,12,3.mid,experiment,0
66,147,31263,74,72,1,2,7,12,3.mid,experiment,0
67,148,31852,77,72,1,2,7,12,3.mid,experiment,0
68,150,32440,76,68,1,2,7,12,3.mid,experiment,0
69,153,33036,74,62,1,2,7,12,3.mid,experiment,0
70,155,33638,72,67,1,2,7,12,3.mid,experiment,0
71,157,34253,84,75,1,2,7,12,3.mid,experiment,0
72,159,34947,84,70,1,2,7,12,3.mid,experiment,0
1,17,7878,79,69,1,2,7,13,2.mid,experiment,0
2,18,8159,78,79,1,2,7,13,2.mid,experiment,0
3,20,8444,79,80,1,2,7,13,2.mid,experiment,0
4,22,8724,76,72,1,2,7,13,2.mid,experiment,0
5,24,9024,72,73,1,2,7,13,2.mid,experiment,0
6,27,9330,67,59,1,2,7,13,2.mid,experiment,0
7,29,9616,67,61,1,2,7,13,2.mid,experiment,0
8,31,9906,67,63,1,2,7,13,2.mid,experiment,0
9,33,10218,79,72,1,2,7,13,2.mid,experiment,0
10,34,10494,78,79,1,2,7,13,2.mid,experiment,0
11,36,10769,79,82,1,2,7,13,2.mid,experiment,0
12,38,11052,76,76,1,2,7,13,2.mid,experiment,0
13,41,11347,72,70,1,2,7,13,2.mid,experiment,0
14,42,11618,76,68,1,2,7,13,2.mid,experiment,0
15,44,11904,79,71,1,2,7,13,2.mid,experiment,0
16,46,12186,84,78,1,2,7,13,2.mid,experiment,0
17,49,12489,83,83,1,2,7,13,2.mid,experiment,0
18,51,12774,81,65,1,2,7,13,2.mid,experiment,0
19,53,13059,81,57,1,2,7,13,2.mid,experiment,0
20,55,13348,81,58,1,2,7,13,2.mid,experiment,0
21,57,13621,83,72,1,2,7,13,2.mid,experiment,0
22,58,13907,81,74,1,2,7,13,2.mid,experiment,0
23,60,14199,84,64,1,2,7,13,2.mid,experiment,0
24,62,14474,81,70,1,2,7,13,2.mid,experiment,0
25,64,14785,78,70,1,2,7,13,2.mid,experiment,0
26,67,15059,79,67,1,2,7,13,2.mid,experiment,0
27,69,15346,79,68,1,2,7,13,2.mid,experiment,0
28,71,15907,79,67,1,2,7,13,2.mid,experiment,0
29,73,17112,77,57,1,2,7,13,2.mid,experiment,0
30,75,17387,77,62,1,2,7,13,2.mid,experiment,0
31,77,17667,76,66,1,2,7,13,2.mid,experiment,0
32,79,17955,76,54,1,2,7,13,2.mid,experiment,0
33,81,18276,74,59,1,2,7,13,2.mid,experiment,0
34,83,19452,79,60,1,2,7,13,2.mid,experiment,0
35,85,20020,77,65,1,2,7,13,2.mid,experiment,0
36,87,20626,76,55,1,2,7,13,2.mid,experiment,0
37,89,20910,76,52,1,2,7,13,2.mid,experiment,0
38,91,21198,76,65,1,2,7,13,2.mid,experiment,0
39,93,21477,76,61,1,2,7,13,2.mid,experiment,0
40,95,21790,81,70,1,2,7,13,2.mid,experiment,0
41,96,22084,77,72,1,2,7,13,2.mid,experiment,0
42,98,22370,76,67,1,2,7,13,2.mid,experiment,0
43,100,22640,74,66,1,2,7,13,2.mid,experiment,0
44,102,22944,76,72,1,2,7,13,2.mid,experiment,0
45,104,23219,79,79,1,2,7,13,2.mid,experiment,0
46,106,23517,74,78,1,2,7,13,2.mid,experiment,0
47,109,23798,71,70,1,2,7,13,2.mid,experiment,0
48,111,24126,72,59,1,2,7,13,2.mid,experiment,0
49,113,24400,72,58,1,2,7,13,2.mid,experiment,0
50,115,24681,74,62,1,2,7,13,2.mid,experiment,0
51,117,24971,74,54,1,2,7,13,2.mid,experiment,0
52,119,25305,76,41,1,2,7,13,2.mid,experiment,0
53,121,26472,65,60,1,2,7,13,2.mid,experiment,0
54,123,26745,65,67,1,2,7,13,2.mid,experiment,0
55,125,27022,64,58,1,2,7,13,2.mid,experiment,0
56,127,27301,64,64,1,2,7,13,2.mid,experiment,0
57,129,27634,62,57,1,2,7,13,2.mid,experiment,0
58,131,28782,67,46,1,2,7,13,2.mid,experiment,0
59,133,29061,67,62,1,2,7,13,2.mid,experiment,0
60,135,29339,71,65,1,2,7,13,2.mid,experiment,0
61,137,29625,71,60,1,2,7,13,2.mid,experiment,0
62,139,29929,72,59,1,2,7,13,2.mid,experiment,0
63,141,30205,72,65,1,2,7,13,2.mid,experiment,0
64,143,30490,73,70,1,2,7,13,2.mid,experiment,0
65,145,30780,73,68,1,2,7,13,2.mid,experiment,0
66,147,31116,74,80,1,2,7,13,2.mid,experiment,0
67,148,31711,77,79,1,2,7,13,2.mid,experiment,0
68,150,32307,76,72,1,2,7,13,2.mid,experiment,0
69,153,32897,74,70,1,2,7,13,2.mid,experiment,0
70,155,33520,72,70,1,2,7,13,2.mid,experiment,0
71,157,34165,84,75,1,2,7,13,2.mid,experiment,0
72,159,34827,84,71,1,2,7,13,2.mid,experiment,0
1,17,7841,79,61,1,2,7,14,6.mid,experiment,0
2,18,8119,78,72,1,2,7,14,6.mid,experiment,0
3,20,8427,79,74,1,2,7,14,6.mid,experiment,0
4,22,8715,76,69,1,2,7,14,6.mid,experiment,0
5,24,9004,72,68,1,2,7,14,6.mid,experiment,0
6,27,9306,67,57,1,2,7,14,6.mid,experiment,0
7,29,9582,67,65,1,2,7,14,6.mid,experiment,0
8,31,9859,67,69,1,2,7,14,6.mid,experiment,0
9,33,10165,79,63,1,2,7,14,6.mid,experiment,0
10,34,10441,78,70,1,2,7,14,6.mid,experiment,0
11,36,10722,79,71,1,2,7,14,6.mid,experiment,0
12,38,10999,76,68,1,2,7,14,6.mid,experiment,0
13,41,11298,72,63,1,2,7,14,6.mid,experiment,0
14,42,11568,76,71,1,2,7,14,6.mid,experiment,0
15,44,11851,79,77,1,2,7,14,6.mid,experiment,0
16,47,12122,84,83,1,2,7,14,6.mid,experiment,0
17,48,12431,83,81,1,2,7,14,6.mid,experiment,0
18,51,12726,81,63,1,2,7,14,6.mid,experiment,0
19,53,13012,81,60,1,2,7,14,6.mid,experiment,0
20,55,13288,81,56,1,2,7,14,6.mid,experiment,0
21,57,13565,83,68,1,2,7,14,6.mid,experiment,0
22,58,13834,81,73,1,2,7,14,6.mid,experiment,0
23,60,14120,84,78,1,2,7,14,6.mid,experiment,0
24,62,14390,81,76,1,2,7,14,6.mid,experiment,0
25,64,14680,78,71,1,2,7,14,6.mid,experiment,0
26,67,14958,79,63,1,2,7,14,6.mid,experiment,0
27,69,15262,79,56,1,2,7,14,6.mid,experiment,0
28,71,15864,79,60,1,2,7,14,6.mid,experiment,0
29,73,17088,77,59,1,2,7,14,6.mid,experiment,0
30,75,17355,77,65,1,2,7,14,6.mid,experiment,0
31,77,17642,76,63,1,2,7,14,6.mid,experiment,0
32,79,17930,76,51,1,2,7,14,6.mid,experiment,0
33,81,18246,74,58,1,2,7,14,6.mid,experiment,0
34,83,19420,79,65,1,2,7,14,6.mid,experiment,0
35,85,20002,77,65,1,2,7,14,6.mid,experiment,0
36,87,20593,76,60,1,2,7,14,6.mid,experiment,0
37,89,20871,76,54,1,2,7,14,6.mid,experiment,0
38,91,21162,76,56,1,2,7,14,6.mid,experiment,0
39,93,21443,76,56,1,2,7,14,6.mid,experiment,0
40,95,21753,81,74,1,2,7,14,6.mid,experiment,0
41,96,22042,77,82,1,2,7,14,6.mid,experiment,0
42,98,22321,76,75,1,2,7,14,6.mid,experiment,0
43,100,22583,74,73,1,2,7,14,6.mid,experiment,0
44,102,22893,76,75,1,2,7,14,6.mid,experiment,0
45,104,23188,79,80,1,2,7,14,6.mid,experiment,0
46,106,23463,74,75,1,2,7,14,6.mid,experiment,0
47,109,23753,71,72,1,2,7,14,6.mid,experiment,0
48,111,24067,72,56,1,2,7,14,6.mid,experiment,0
49,113,24357,72,44,1,2,7,14,6.mid,experiment,0
50,115,24635,74,58,1,2,7,14,6.mid,experiment,0
51,117,24931,74,50,1,2,7,14,6.mid,experiment,0
52,119,25288,76,43,1,2,7,14,6.mid,experiment,0
53,121,26436,65,63,1,2,7,14,6.mid,experiment,0
54,123,26712,65,66,1,2,7,14,6.mid,experiment,0
55,125,27002,64,58,1,2,7,14,6.mid,experiment,0
56,127,27283,64,60,1,2,7,14,6.mid,experiment,0
57,129,27632,62,51,1,2,7,14,6.mid,experiment,0
58,131,28743,67,51,1,2,7,14,6.mid,experiment,0
59,133,29017,67,66,1,2,7,14,6.mid,experiment,0
60,135,29299,71,63,1,2,7,14,6.mid,experiment,0
61,137,29593,71,52,1,2,7,14,6.mid,experiment,0
62,139,29878,72,65,1,2,7,14,6.mid,experiment,0
63,141,30145,72,70,1,2,7,14,6.mid,experiment,0
64,143,30423,73,66,1,2,7,14,6.mid,experiment,0
65,145,30693,73,67,1,2,7,14,6.mid,experiment,0
66,147,31021,74,74,1,2,7,14,6.mid,experiment,0
67,149,31620,77,68,1,2,7,14,6.mid,experiment,0
68,151,32202,76,70,1,2,7,14,6.mid,experiment,0
69,153,32803,74,67,1,2,7,14,6.mid,experiment,0
70,155,33406,72,74,1,2,7,14,6.mid,experiment,0
71,157,34036,84,74,1,2,7,14,6.mid,experiment,0
72,159,34705,84,63,1,2,7,14,6.mid,experiment,0
1,17,7810,79,65,1,2,7,15,1.mid,experiment,0
2,18,8084,78,79,1,2,7,15,1.mid,experiment,0
3,20,8380,79,79,1,2,7,15,1.mid,experiment,0
4,22,8652,76,68,1,2,7,15,1.mid,experiment,0
5,24,8938,72,71,1,2,7,15,1.mid,experiment,0
6,27,9238,67,59,1,2,7,15,1.mid,experiment,0
7,29,9519,67,62,1,2,7,15,1.mid,experiment,0
8,31,9792,67,62,1,2,7,15,1.mid,experiment,0
9,33,10096,79,58,1,2,7,15,1.mid,experiment,0
10,34,10367,78,71,1,2,7,15,1.mid,experiment,0
11,36,10646,79,68,1,2,7,15,1.mid,experiment,0
12,38,10917,76,65,1,2,7,15,1.mid,experiment,0
13,41,11207,72,67,1,2,7,15,1.mid,experiment,0
14,42,11484,76,67,1,2,7,15,1.mid,experiment,0
15,44,11763,79,78,1,2,7,15,1.mid,experiment,0
16,46,12029,84,78,1,2,7,15,1.mid,experiment,0
17,48,12326,83,79,1,2,7,15,1.mid,experiment,0
18,51,12636,81,61,1,2,7,15,1.mid,experiment,0
19,53,12910,81,60,1,2,7,15,1.mid,experiment,0
20,55,13183,81,61,1,2,7,15,1.mid,experiment,0
21,57,13452,83,67,1,2,7,15,1.mid,experiment,0
22,58,13718,81,74,1,2,7,15,1.mid,experiment,0
23,60,13997,84,77,1,2,7,15,1.mid,experiment,0
24,62,14262,81,76,1,2,7,15,1.mid,experiment,0
25,64,14551,78,72,1,2,7,15,1.mid,experiment,0
26,67,14837,79,69,1,2,7,15,1.mid,experiment,0
27,69,15139,79,70,1,2,7,15,1.mid,experiment,0
28,71,15708,79,66,1,2,7,15,1.mid,experiment,0
29,73,16903,77,56,1,2,7,15,1.mid,experiment,0
30,75,17191,77,59,1,2,7,15,1.mid,experiment,0
31,77,17465,76,58,1,2,7,15,1.mid,experiment,0
32,79,17758,76,52,1,2,7,15,1.mid,experiment,0
33,81,18078,74,53,1,2,7,15,1.mid,experiment,0
34,83,19257,79,65,1,2,7,15,1.mid,experiment,0
35,85,19842,77,63,1,2,7,15,1.mid,experiment,0
36,87,20437,76,62,1,2,7,15,1.mid,experiment,0
37,89,20719,76,62,1,2,7,15,1.mid,experiment,0
38,91,20998,76,54,1,2,7,15,1.mid,experiment,0
39,93,21269,76,54,1,2,7,15,1.mid,experiment,0
40,95,21595,81,67,1,2,7,15,1.mid,experiment,0
41,96,21883,77,80,1,2,7,15,1.mid,experiment,0
42,98,22142,76,72,1,2,7,15,1.mid,experiment,0
43,100,22428,74,76,1,2,7,15,1.mid,experiment,0
44,102,22716,76,75,1,2,7,15,1.mid,experiment,0
45,104,22980,79,75,1,2,7,15,1.mid,experiment,0
46,106,23281,74,72,1,2,7,15,1.mid,experiment,0
47,109,23561,71,63,1,2,7,15,1.mid,experiment,0
48,111,23861,72,63,1,2,7,15,1.mid,experiment,0
49,113,24131,72,56,1,2,7,15,1.mid,experiment,0
50,115,24409,74,64,1,2,7,15,1.mid,experiment,0
51,117,24696,74,50,1,2,7,15,1.mid,experiment,0
52,119,25020,76,40,1,2,7,15,1.mid,experiment,0
53,121,26175,65,59,1,2,7,15,1.mid,experiment,0
54,123,26457,65,67,1,2,7,15,1.mid,experiment,0
55,125,26739,64,57,1,2,7,15,1.mid,experiment,0
56,127,27023,64,60,1,2,7,15,1.mid,experiment,0
57,129,27351,62,56,1,2,7,15,1.mid,experiment,0
58,131,28462,67,49,1,2,7,15,1.mid,experiment,0
59,133,28744,67,55,1,2,7,15,1.mid,experiment,0
60,135,29034,71,48,1,2,7,15,1.mid,experiment,0
61,137,29314,71,49,1,2,7,15,1.mid,experiment,0
62,139,29600,72,65,1,2,7,15,1.mid,experiment,0
63,141,29873,72,73,1,2,7,15,1.mid,experiment,0
64,143,30161,73,74,1,2,7,15,1.mid,experiment,0
65,145,30444,73,74,1,2,7,15,1.mid,experiment,0
66,147,30793,74,71,1,2,7,15,1.mid,experiment,0
67,148,31376,77,79,1,2,7,15,1.mid,experiment,0
68,150,31963,76,72,1,2,7,15,1.mid,experiment,0
69,153,32564,74,67,1,2,7,15,1.mid,experiment,0
70,155,33164,72,70,1,2,7,15,1.mid,experiment,0
71,157,33771,84,74,1,2,7,15,1.mid,experiment,0
72,159,34464,84,67,1,2,7,15,1.mid,experiment,0
1,17,7848,79,93,1,2,8,1,4.mid,experiment,0
2,18,8124,78,96,1,2,8,1,4.mid,experiment,0
3,20,8432,79,88,1,2,8,1,4.mid,experiment,0
4,22,8714,76,94,1,2,8,1,4.mid,experiment,0
5,24,9012,72,81,1,2,8,1,4.mid,experiment,0
6,27,9328,67,35,1,2,8,1,4.mid,experiment,0
7,29,9585,67,39,1,2,8,1,4.mid,experiment,0
8,31,9895,67,48,1,2,8,1,4.mid,experiment,0
9,33,10195,79,99,1,2,8,1,4.mid,experiment,0
10,34,10491,78,94,1,2,8,1,4.mid,experiment,0
11,36,10783,79,96,1,2,8,1,4.mid,experiment,0
12,38,11065,76,88,1,2,8,1,4.mid,experiment,0
13,41,11365,72,93,1,2,8,1,4.mid,experiment,0
14,42,11629,76,93,1,2,8,1,4.mid,experiment,0
15,44,11926,79,100,1,2,8,1,4.mid,experiment,0
16,46,12199,84,103,1,2,8,1,4.mid,experiment,0
17,48,12499,83,94,1,2,8,1,4.mid,experiment,0
18,51,12815,81,58,1,2,8,1,4.mid,experiment,0
19,53,13099,81,42,1,2,8,1,4.mid,experiment,0
20,55,13379,81,52,1,2,8,1,4.mid,experiment,0
21,57,13673,83,96,1,2,8,1,4.mid,experiment,0
22,58,13959,81,97,1,2,8,1,4.mid,experiment,0
23,60,14234,84,101,1,2,8,1,4.mid,experiment,0
24,62,14509,81,93,1,2,8,1,4.mid,experiment,0
25,64,14812,78,96,1,2,8,1,4.mid,experiment,0
26,66,15081,79,89,1,2,8,1,4.mid,experiment,0
27,69,15395,79,105,1,2,8,1,4.mid,experiment,0
28,71,15963,79,91,1,2,8,1,4.mid,experiment,0
29,73,17135,77,54,1,2,8,1,4.mid,experiment,0
30,75,17434,77,50,1,2,8,1,4.mid,experiment,0
31,77,17724,76,38,1,2,8,1,4.mid,experiment,0
32,79,17969,76,49,1,2,8,1,4.mid,experiment,0
33,81,18374,74,39,1,2,8,1,4.mid,experiment,0
34,83,19585,79,49,1,2,8,1,4.mid,experiment,0
35,85,20152,77,57,1,2,8,1,4.mid,experiment,0
36,87,20751,76,44,1,2,8,1,4.mid,experiment,0
37,89,21028,76,55,1,2,8,1,4.mid,experiment,0
38,91,21316,76,58,1,2,8,1,4.mid,experiment,0
39,93,21587,76,66,1,2,8,1,4.mid,experiment,0
40,95,21880,81,104,1,2,8,1,4.mid,experiment,0
41,96,22169,77,94,1,2,8,1,4.mid,experiment,0
42,98,22452,76,93,1,2,8,1,4.mid,experiment,0
43,100,22732,74,89,1,2,8,1,4.mid,experiment,0
44,102,23016,76,93,1,2,8,1,4.mid,experiment,0
45,104,23298,79,93,1,2,8,1,4.mid,experiment,0
46,106,23598,74,93,1,2,8,1,4.mid,experiment,0
47,108,23877,71,81,1,2,8,1,4.mid,experiment,0
48,110,24191,72,61,1,2,8,1,4.mid,experiment,0
49,113,24472,72,59,1,2,8,1,4.mid,experiment,0
50,115,24744,74,53,1,2,8,1,4.mid,experiment,0
51,117,25036,74,50,1,2,8,1,4.mid,experiment,0
52,119,25349,76,40,1,2,8,1,4.mid,experiment,0
53,121,26534,65,51,1,2,8,1,4.mid,experiment,0
54,123,26806,65,52,1,2,8,1,4.mid,experiment,0
55,125,27101,64,49,1,2,8,1,4.mid,experiment,0
56,127,27396,64,47,1,2,8,1,4.mid,experiment,0
57,129,27761,62,39,1,2,8,1,4.mid,experiment,0
58,131,28920,67,38,1,2,8,1,4.mid,experiment,0
59,133,29194,67,49,1,2,8,1,4.mid,experiment,0
60,135,29488,71,41,1,2,8,1,4.mid,experiment,0
61,137,29774,71,46,1,2,8,1,4.mid,experiment,0
62,139,30055,72,60,1,2,8,1,4.mid,experiment,0
63,141,30343,72,53,1,2,8,1,4.mid,experiment,0
64,143,30627,73,53,1,2,8,1,4.mid,experiment,0
65,145,30904,73,57,1,2,8,1,4.mid,experiment,0
66,147,31201,74,100,1,2,8,1,4.mid,experiment,0
67,148,31796,77,98,1,2,8,1,4.mid,experiment,0
68,150,32368,76,94,1,2,8,1,4.mid,experiment,0
69,152,32961,74,91,1,2,8,1,4.mid,experiment,0
70,154,33549,72,98,1,2,8,1,4.mid,experiment,0
71,156,34139,84,100,1,2,8,1,4.mid,experiment,0
72,159,34732,84,99,1,2,8,1,4.mid,experiment,0
1,17,7834,79,96,1,2,8,2,10.mid,experiment,0
2,18,8100,78,94,1,2,8,2,10.mid,experiment,0
3,20,8384,79,87,1,2,8,2,10.mid,experiment,0
4,22,8657,76,91,1,2,8,2,10.mid,experiment,0
5,24,8956,72,94,1,2,8,2,10.mid,experiment,0
6,27,9239,67,61,1,2,8,2,10.mid,experiment,0
7,29,9520,67,58,1,2,8,2,10.mid,experiment,0
8,31,9828,67,28,1,2,8,2,10.mid,experiment,0
9,33,10121,79,85,1,2,8,2,10.mid,experiment,0
10,34,10388,78,90,1,2,8,2,10.mid,experiment,0
11,36,10671,79,87,1,2,8,2,10.mid,experiment,0
12,38,10944,76,87,1,2,8,2,10.mid,experiment,0
13,40,11232,72,84,1,2,8,2,10.mid,experiment,0
14,42,11513,76,81,1,2,8,2,10.mid,experiment,0
15,44,11800,79,94,1,2,8,2,10.mid,experiment,0
16,46,12066,84,98,1,2,8,2,10.mid,experiment,0
17,48,12369,83,90,1,2,8,2,10.mid,experiment,0
18,51,12675,81,48,1,2,8,2,10.mid,experiment,0
19,53,12946,81,49,1,2,8,2,10.mid,experiment,0
20,55,13236,81,51,1,2,8,2,10.mid,experiment,0
21,57,13512,83,94,1,2,8,2,10.mid,experiment,0
22,58,13798,81,89,1,2,8,2,10.mid,experiment,0
23,60,14059,84,96,1,2,8,2,10.mid,experiment,0
24,62,14332,81,89,1,2,8,2,10.mid,experiment,0
25,64,14631,78,88,1,2,8,2,10.mid,experiment,0
26,66,14886,79,87,1,2,8,2,10.mid,experiment,0
27,69,15224,79,91,1,2,8,2,10.mid,experiment,0
28,71,15795,79,80,1,2,8,2,10.mid,experiment,0
29,73,16913,77,57,1,2,8,2,10.mid,experiment,0
30,75,17193,77,60,1,2,8,2,10.mid,experiment,0
31,77,17473,76,54,1,2,8,2,10.mid,experiment,0
32,79,17752,76,63,1,2,8,2,10.mid,experiment,0
33,81,18102,74,55,1,2,8,2,10.mid,experiment,0
34,83,19156,79,63,1,2,8,2,10.mid,experiment,0
35,85,19729,77,62,1,2,8,2,10.mid,experiment,0
36,87,20310,76,52,1,2,8,2,10.mid,experiment,0
37,89,20565,76,54,1,2,8,2,10.mid,experiment,0
38,91,20854,76,51,1,2,8,2,10.mid,experiment,0
39,93,21118,76,67,1,2,8,2,10.mid,experiment,0
40,95,21417,81,94,1,2,8,2,10.mid,experiment,0
41,96,21697,77,90,1,2,8,2,10.mid,experiment,0
42,98,21978,76,89,1,2,8,2,10.mid,experiment,0
43,100,22242,74,85,1,2,8,2,10.mid,experiment,0
44,102,22530,76,90,1,2,8,2,10.mid,experiment,0
45,104,22798,79,94,1,2,8,2,10.mid,experiment,0
46,106,23098,74,95,1,2,8,2,10.mid,experiment,0
47,109,23380,71,71,1,2,8,2,10.mid,experiment,0
48,111,23701,72,39,1,2,8,2,10.mid,experiment,0
49,113,23940,72,58,1,2,8,2,10.mid,experiment,0
50,115,24214,74,60,1,2,8,2,10.mid,experiment,0
51,117,24478,74,58,1,2,8,2,10.mid,experiment,0
52,119,24835,76,50,1,2,8,2,10.mid,experiment,0
53,121,25941,65,43,1,2,8,2,10.mid,experiment,0
54,123,26226,65,54,1,2,8,2,10.mid,experiment,0
55,125,26522,64,46,1,2,8,2,10.mid,experiment,0
56,127,26796,64,51,1,2,8,2,10.mid,experiment,0
57,129,27158,62,50,1,2,8,2,10.mid,experiment,0
58,131,28301,67,48,1,2,8,2,10.mid,experiment,0
59,133,28561,67,68,1,2,8,2,10.mid,experiment,0
60,135,28846,71,68,1,2,8,2,10.mid,experiment,0
61,137,29127,71,61,1,2,8,2,10.mid,experiment,0
62,139,29398,72,68,1,2,8,2,10.mid,experiment,0
63,141,29667,72,67,1,2,8,2,10.mid,experiment,0
64,143,29940,73,70,1,2,8,2,10.mid,experiment,0
65,145,30204,73,78,1,2,8,2,10.mid,experiment,0
66,147,30511,74,96,1,2,8,2,10.mid,experiment,0
67,149,31109,77,96,1,2,8,2,10.mid,experiment,0
68,151,31670,76,89,1,2,8,2,10.mid,experiment,0
69,153,32264,74,96,1,2,8,2,10.mid,experiment,0
70,155,32845,72,96,1,2,8,2,10.mid,experiment,0
71,157,33436,84,98,1,2,8,2,10.mid,experiment,0
72,159,34037,84,91,1,2,8,2,10.mid,experiment,0
1,17,7821,79,84,1,2,8,5,7.mid,experiment,0
2,18,8100,78,95,1,2,8,5,7.mid,experiment,0
3,20,8401,79,90,1,2,8,5,7.mid,experiment,0
4,22,8691,76,91,1,2,8,5,7.mid,experiment,0
5,24,8989,72,86,1,2,8,5,7.mid,experiment,0
6,27,9285,67,53,1,2,8,5,7.mid,experiment,0
7,29,9579,67,55,1,2,8,5,7.mid,experiment,0
8,31,9869,67,49,1,2,8,5,7.mid,experiment,0
9,33,10190,79,91,1,2,8,5,7.mid,experiment,0
10,34,10464,78,91,1,2,8,5,7.mid,experiment,0
11,36,10768,79,96,1,2,8,5,7.mid,experiment,0
12,38,11055,76,88,1,2,8,5,7.mid,experiment,0
13,41,11363,72,89,1,2,8,5,7.mid,experiment,0
14,42,11642,76,87,1,2,8,5,7.mid,experiment,0
15,44,11923,79,94,1,2,8,5,7.mid,experiment,0
16,46,12203,84,99,1,2,8,5,7.mid,experiment,0
17,48,12515,83,91,1,2,8,5,7.mid,experiment,0
18,51,12833,81,48,1,2,8,5,7.mid,experiment,0
19,53,13112,81,48,1,2,8,5,7.mid,experiment,0
20,55,13404,81,52,1,2,8,5,7.mid,experiment,0
21,57,13711,83,83,1,2,8,5,7.mid,experiment,0
22,58,14009,81,88,1,2,8,5,7.mid,experiment,0
23,60,14320,84,95,1,2,8,5,7.mid,experiment,0
24,62,14603,81,90,1,2,8,5,7.mid,experiment,0
25,64,14901,78,91,1,2,8,5,7.mid,experiment,0
26,66,15199,79,89,1,2,8,5,7.mid,experiment,0
27,69,15509,79,87,1,2,8,5,7.mid,experiment,0
28,71,16115,79,83,1,2,8,5,7.mid,experiment,0
29,73,17354,77,50,1,2,8,5,7.mid,experiment,0
30,75,17632,77,57,1,2,8,5,7.mid,experiment,0
31,77,17919,76,56,1,2,8,5,7.mid,experiment,0
32,79,18210,76,54,1,2,8,5,7.mid,experiment,0
33,81,18567,74,61,1,2,8,5,7.mid,experiment,0
34,83,19758,79,72,1,2,8,5,7.mid,experiment,0
35,85,20407,77,72,1,2,8,5,7.mid,experiment,0
36,86,20992,76,57,1,2,8,5,7.mid,experiment,0
37,89,21273,76,61,1,2,8,5,7.mid,experiment,0
38,91,21557,76,72,1,2,8,5,7.mid,experiment,0
39,93,21853,76,51,1,2,8,5,7.mid,experiment,0
40,95,22168,81,90,1,2,8,5,7.mid,experiment,0
41,96,22458,77,85,1,2,8,5,7.mid,experiment,0
42,98,22746,76,91,1,2,8,5,7.mid,experiment,0
43,100,23024,74,94,1,2,8,5,7.mid,experiment,0
44,102,23330,76,93,1,2,8,5,7.mid,experiment,0
45,104,23605,79,97,1,2,8,5,7.mid,experiment,0
46,106,23915,74,99,1,2,8,5,7.mid,experiment,0
47,108,24209,71,95,1,2,8,5,7.mid,experiment,0
48,110,24505,72,68,1,2,8,5,7.mid,experiment,0
49,113,24807,72,65,1,2,8,5,7.mid,experiment,0
50,115,25089,74,57,1,2,8,5,7.mid,experiment,0
51,117,25375,74,57,1,2,8,5,7.mid,experiment,0
52,119,25705,76,47,1,2,8,5,7.mid,experiment,0
53,121,26886,65,49,1,2,8,5,7.mid,experiment,0
54,123,27152,65,57,1,2,8,5,7.mid,experiment,0
55,125,27467,64,42,1,2,8,5,7.mid,experiment,0
56,127,27746,64,57,1,2,8,5,7.mid,experiment,0
57,129,28099,62,48,1,2,8,5,7.mid,experiment,0
58,131,29234,67,39,1,2,8,5,7.mid,experiment,0
59,133,29518,67,54,1,2,8,5,7.mid,experiment,0
60,135,29819,71,49,1,2,8,5,7.mid,experiment,0
61,137,30093,71,60,1,2,8,5,7.mid,experiment,0
62,139,30391,72,58,1,2,8,5,7.mid,experiment,0
63,141,30670,72,54,1,2,8,5,7.mid,experiment,0
64,143,30967,73,64,1,2,8,5,7.mid,experiment,0
65,145,31249,73,68,1,2,8,5,7.mid,experiment,0
66,147,31558,74,91,1,2,8,5,7.mid,experiment,0
67,149,32157,77,94,1,2,8,5,7.mid,experiment,0
68,151,32746,76,90,1,2,8,5,7.mid,experiment,0
69,153,33323,74,94,1,2,8,5,7.mid,experiment,0
70,155,33908,72,85,1,2,8,5,7.mid,experiment,0
71,157,34499,84,96,1,2,8,5,7.mid,experiment,0
72,159,35157,84,97,1,2,8,5,7.mid,experiment,0
1,17,7794,79,89,1,2,8,7,6.mid,experiment,0
2,18,8077,78,95,1,2,8,7,6.mid,experiment,0
3,20,8386,79,91,1,2,8,7,6.mid,experiment,0
4,22,8674,76,91,1,2,8,7,6.mid,experiment,0
5,24,8982,72,87,1,2,8,7,6.mid,experiment,0
6,27,9289,67,36,1,2,8,7,6.mid,experiment,0
7,29,9559,67,47,1,2,8,7,6.mid,experiment,0
8,31,9855,67,50,1,2,8,7,6.mid,experiment,0
9,33,10161,79,94,1,2,8,7,6.mid,experiment,0
10,34,10429,78,87,1,2,8,7,6.mid,experiment,0
11,36,10742,79,91,1,2,8,7,6.mid,experiment,0
12,38,11015,76,88,1,2,8,7,6.mid,experiment,0
13,41,11328,72,79,1,2,8,7,6.mid,experiment,0
14,42,11603,76,78,1,2,8,7,6.mid,experiment,0
15,44,11889,79,91,1,2,8,7,6.mid,experiment,0
16,46,12184,84,96,1,2,8,7,6.mid,experiment,0
17,48,12485,83,75,1,2,8,7,6.mid,experiment,0
18,51,12780,81,51,1,2,8,7,6.mid,experiment,0
19,53,13099,81,52,1,2,8,7,6.mid,experiment,0
20,55,13394,81,53,1,2,8,7,6.mid,experiment,0
21,57,13686,83,88,1,2,8,7,6.mid,experiment,0
22,58,13974,81,89,1,2,8,7,6.mid,experiment,0
23,60,14267,84,96,1,2,8,7,6.mid,experiment,0
24,62,14541,81,93,1,2,8,7,6.mid,experiment,0
25,65,14853,78,83,1,2,8,7,6.mid,experiment,0
26,66,15157,79,65,1,2,8,7,6.mid,experiment,0
27,69,15475,79,61,1,2,8,7,6.mid,experiment,0
28,71,16061,79,53,1,2,8,7,6.mid,experiment,0
29,73,17239,77,42,1,2,8,7,6.mid,experiment,0
30,75,17525,77,49,1,2,8,7,6.mid,experiment,0
31,77,17825,76,46,1,2,8,7,6.mid,experiment,0
32,79,18085,76,51,1,2,8,7,6.mid,experiment,0
33,81,18435,74,52,1,2,8,7,6.mid,experiment,0
34,83,19645,79,47,1,2,8,7,6.mid,experiment,0
35,84,20229,77,56,1,2,8,7,6.mid,experiment,0
36,87,20844,76,42,1,2,8,7,6.mid,experiment,0
37,89,21135,76,52,1,2,8,7,6.mid,experiment,0
38,91,21429,76,53,1,2,8,7,6.mid,experiment,0
39,93,21713,76,42,1,2,8,7,6.mid,experiment,0
40,95,22023,81,87,1,2,8,7,6.mid,experiment,0
41,96,22306,77,87,1,2,8,7,6.mid,experiment,0
42,98,22606,76,89,1,2,8,7,6.mid,experiment,0
43,100,22900,74,84,1,2,8,7,6.mid,experiment,0
44,102,23192,76,81,1,2,8,7,6.mid,experiment,0
45,104,23463,79,86,1,2,8,7,6.mid,experiment,0
46,106,23764,74,88,1,2,8,7,6.mid,experiment,0
47,109,24040,71,63,1,2,8,7,6.mid,experiment,0
48,111,24344,72,61,1,2,8,7,6.mid,experiment,0
49,113,24618,72,51,1,2,8,7,6.mid,experiment,0
50,115,24913,74,47,1,2,8,7,6.mid,experiment,0
51,117,25179,74,56,1,2,8,7,6.mid,experiment,0
52,119,25586,76,24,1,2,8,7,6.mid,experiment,0
53,121,26759,65,54,1,2,8,7,6.mid,experiment,0
54,123,27043,65,62,1,2,8,7,6.mid,experiment,0
55,125,27331,64,59,1,2,8,7,6.mid,experiment,0
56,127,27611,64,54,1,2,8,7,6.mid,experiment,0
57,129,27961,62,50,1,2,8,7,6.mid,experiment,0
58,131,29088,67,49,1,2,8,7,6.mid,experiment,0
59,133,29367,67,46,1,2,8,7,6.mid,experiment,0
60,135,29688,71,34,1,2,8,7,6.mid,experiment,0
61,137,29985,71,34,1,2,8,7,6.mid,experiment,0
62,139,30279,72,56,1,2,8,7,6.mid,experiment,0
63,141,30573,72,52,1,2,8,7,6.mid,experiment,0
64,143,30841,73,56,1,2,8,7,6.mid,experiment,0
65,145,31102,73,55,1,2,8,7,6.mid,experiment,0
66,147,31446,74,93,1,2,8,7,6.mid,experiment,0
67,148,32044,77,91,1,2,8,7,6.mid,experiment,0
68,151,32654,76,89,1,2,8,7,6.mid,experiment,0
69,153,33236,74,91,1,2,8,7,6.mid,experiment,0
70,154,33855,72,84,1,2,8,7,6.mid,experiment,0
71,157,34440,84,91,1,2,8,7,6.mid,experiment,0
72,159,35079,84,82,1,2,8,7,6.mid,experiment,0
1,17,7827,79,76,1,2,8,8,16.mid,experiment,0
2,18,8123,78,90,1,2,8,8,16.mid,experiment,0
3,20,8418,79,91,1,2,8,8,16.mid,experiment,0
4,22,8697,76,90,1,2,8,8,16.mid,experiment,0
5,24,9012,72,84,1,2,8,8,16.mid,experiment,0
6,27,9289,67,61,1,2,8,8,16.mid,experiment,0
7,29,9578,67,63,1,2,8,8,16.mid,experiment,0
8,31,9879,67,70,1,2,8,8,16.mid,experiment,0
9,33,10198,79,98,1,2,8,8,16.mid,experiment,0
10,34,10476,78,91,1,2,8,8,16.mid,experiment,0
11,36,10779,79,95,1,2,8,8,16.mid,experiment,0
12,38,11055,76,89,1,2,8,8,16.mid,experiment,0
13,41,11363,72,83,1,2,8,8,16.mid,experiment,0
14,42,11645,76,75,1,2,8,8,16.mid,experiment,0
15,44,11922,79,89,1,2,8,8,16.mid,experiment,0
16,46,12227,84,95,1,2,8,8,16.mid,experiment,0
17,48,12537,83,80,1,2,8,8,16.mid,experiment,0
18,51,12837,81,55,1,2,8,8,16.mid,experiment,0
19,53,13150,81,43,1,2,8,8,16.mid,experiment,0
20,55,13432,81,54,1,2,8,8,16.mid,experiment,0
21,57,13728,83,93,1,2,8,8,16.mid,experiment,0
22,58,14023,81,91,1,2,8,8,16.mid,experiment,0
23,60,14314,84,94,1,2,8,8,16.mid,experiment,0
24,62,14602,81,89,1,2,8,8,16.mid,experiment,0
25,64,14915,78,88,1,2,8,8,16.mid,experiment,0
26,66,15187,79,79,1,2,8,8,16.mid,experiment,0
27,69,15509,79,81,1,2,8,8,16.mid,experiment,0
28,71,16104,79,79,1,2,8,8,16.mid,experiment,0
29,73,17327,77,51,1,2,8,8,16.mid,experiment,0
30,75,17598,77,53,1,2,8,8,16.mid,experiment,0
31,77,17922,76,33,1,2,8,8,16.mid,experiment,0
32,79,18174,76,51,1,2,8,8,16.mid,experiment,0
33,81,18516,74,57,1,2,8,8,16.mid,experiment,0
34,83,19637,79,60,1,2,8,8,16.mid,experiment,0
35,85,20232,77,61,1,2,8,8,16.mid,experiment,0
36,87,20821,76,55,1,2,8,8,16.mid,experiment,0
37,89,21109,76,56,1,2,8,8,16.mid,experiment,0
38,91,21397,76,54,1,2,8,8,16.mid,experiment,0
39,93,21667,76,63,1,2,8,8,16.mid,experiment,0
40,95,21985,81,98,1,2,8,8,16.mid,experiment,0
41,96,22277,77,93,1,2,8,8,16.mid,experiment,0
42,98,22571,76,91,1,2,8,8,16.mid,experiment,0
43,100,22851,74,89,1,2,8,8,16.mid,experiment,0
44,102,23143,76,83,1,2,8,8,16.mid,experiment,0
45,104,23424,79,90,1,2,8,8,16.mid,experiment,0
46,106,23718,74,91,1,2,8,8,16.mid,experiment,0
47,108,23989,71,81,1,2,8,8,16.mid,experiment,0
48,111,24311,72,62,1,2,8,8,16.mid,experiment,0
49,113,24591,72,59,1,2,8,8,16.mid,experiment,0
50,115,24872,74,53,1,2,8,8,16.mid,experiment,0
51,117,25154,74,55,1,2,8,8,16.mid,experiment,0
52,119,25507,76,48,1,2,8,8,16.mid,experiment,0
53,121,26730,65,58,1,2,8,8,16.mid,experiment,0
54,123,27008,65,66,1,2,8,8,16.mid,experiment,0
55,125,27308,64,54,1,2,8,8,16.mid,experiment,0
56,127,27585,64,60,1,2,8,8,16.mid,experiment,0
57,129,27934,62,51,1,2,8,8,16.mid,experiment,0
58,131,29044,67,62,1,2,8,8,16.mid,experiment,0
59,133,29331,67,55,1,2,8,8,16.mid,experiment,0
60,135,29609,71,66,1,2,8,8,16.mid,experiment,0
61,137,29879,71,62,1,2,8,8,16.mid,experiment,0
62,139,30170,72,65,1,2,8,8,16.mid,experiment,0
63,141,30445,72,65,1,2,8,8,16.mid,experiment,0
64,143,30735,73,70,1,2,8,8,16.mid,experiment,0
65,145,31007,73,70,1,2,8,8,16.mid,experiment,0
66,147,31331,74,98,1,2,8,8,16.mid,experiment,0
67,149,31917,77,95,1,2,8,8,16.mid,experiment,0
68,151,32530,76,90,1,2,8,8,16.mid,experiment,0
69,153,33119,74,94,1,2,8,8,16.mid,experiment,0
70,155,33717,72,93,1,2,8,8,16.mid,experiment,0
71,157,34303,84,96,1,2,8,8,16.mid,experiment,0
72,159,34913,84,99,1,2,8,8,16.mid,experiment,0
1,17,7875,79,83,1,2,8,14,13.mid,experiment,0
2,18,8166,78,94,1,2,8,14,13.mid,experiment,0
3,20,8463,79,97,1,2,8,14,13.mid,experiment,0
4,22,8746,76,91,1,2,8,14,13.mid,experiment,0
5,24,9053,72,94,1,2,8,14,13.mid,experiment,0
6,27,9335,67,61,1,2,8,14,13.mid,experiment,0
7,29,9620,67,71,1,2,8,14,13.mid,experiment,0
8,31,9906,67,60,1,2,8,14,13.mid,experiment,0
9,33,10222,79,88,1,2,8,14,13.mid,experiment,0
10,34,10490,78,91,1,2,8,14,13.mid,experiment,0
11,36,10795,79,91,1,2,8,14,13.mid,experiment,0
12,38,11081,76,81,1,2,8,14,13.mid,experiment,0
13,41,11395,72,80,1,2,8,14,13.mid,experiment,0
14,42,11676,76,79,1,2,8,14,13.mid,experiment,0
15,44,11964,79,91,1,2,8,14,13.mid,experiment,0
16,46,12244,84,94,1,2,8,14,13.mid,experiment,0
17,48,12532,83,88,1,2,8,14,13.mid,experiment,0
18,51,12851,81,49,1,2,8,14,13.mid,experiment,0
19,53,13160,81,33,1,2,8,14,13.mid,experiment,0
20,55,13432,81,45,1,2,8,14,13.mid,experiment,0
21,57,13759,83,79,1,2,8,14,13.mid,experiment,0
22,58,14050,81,83,1,2,8,14,13.mid,experiment,0
23,60,14337,84,91,1,2,8,14,13.mid,experiment,0
24,62,14636,81,80,1,2,8,14,13.mid,experiment,0
25,65,14954,78,76,1,2,8,14,13.mid,experiment,0
26,66,15240,79,78,1,2,8,14,13.mid,experiment,0
27,69,15574,79,74,1,2,8,14,13.mid,experiment,0
28,71,16226,79,71,1,2,8,14,13.mid,experiment,0
29,73,17418,77,60,1,2,8,14,13.mid,experiment,0
30,75,17720,77,65,1,2,8,14,13.mid,experiment,0
31,77,18011,76,60,1,2,8,14,13.mid,experiment,0
32,79,18298,76,61,1,2,8,14,13.mid,experiment,0
33,81,18624,74,58,1,2,8,14,13.mid,experiment,0
34,83,19794,79,63,1,2,8,14,13.mid,experiment,0
35,85,20441,77,65,1,2,8,14,13.mid,experiment,0
36,87,21076,76,56,1,2,8,14,13.mid,experiment,0
37,89,21369,76,63,1,2,8,14,13.mid,experiment,0
38,91,21650,76,66,1,2,8,14,13.mid,experiment,0
39,93,21944,76,67,1,2,8,14,13.mid,experiment,0
40,95,22285,81,90,1,2,8,14,13.mid,experiment,0
41,96,22577,77,91,1,2,8,14,13.mid,experiment,0
42,98,22883,76,93,1,2,8,14,13.mid,experiment,0
43,100,23170,74,90,1,2,8,14,13.mid,experiment,0
44,102,23468,76,90,1,2,8,14,13.mid,experiment,0
45,104,23744,79,91,1,2,8,14,13.mid,experiment,0
46,106,24043,74,93,1,2,8,14,13.mid,experiment,0
47,108,24327,71,72,1,2,8,14,13.mid,experiment,0
48,111,24627,72,61,1,2,8,14,13.mid,experiment,0
49,113,24921,72,60,1,2,8,14,13.mid,experiment,0
50,115,25216,74,55,1,2,8,14,13.mid,experiment,0
51,117,25516,74,58,1,2,8,14,13.mid,experiment,0
52,119,25885,76,48,1,2,8,14,13.mid,experiment,0
53,121,27052,65,65,1,2,8,14,13.mid,experiment,0
54,123,27343,65,68,1,2,8,14,13.mid,experiment,0
55,125,27625,64,64,1,2,8,14,13.mid,experiment,0
56,127,27910,64,63,1,2,8,14,13.mid,experiment,0
57,129,28284,62,52,1,2,8,14,13.mid,experiment,0
58,131,29442,67,62,1,2,8,14,13.mid,experiment,0
59,133,29728,67,61,1,2,8,14,13.mid,experiment,0
60,135,30010,71,73,1,2,8,14,13.mid,experiment,0
61,137,30282,71,69,1,2,8,14,13.mid,experiment,0
62,139,30584,72,64,1,2,8,14,13.mid,experiment,0
63,141,30860,72,65,1,2,8,14,13.mid,experiment,0
64,143,31139,73,65,1,2,8,14,13.mid,experiment,0
65,145,31419,73,68,1,2,8,14,13.mid,experiment,0
66,147,31737,74,76,1,2,8,14,13.mid,experiment,0
67,149,32356,77,91,1,2,8,14,13.mid,experiment,0
68,151,32949,76,91,1,2,8,14,13.mid,experiment,0
69,153,33541,74,91,1,2,8,14,13.mid,experiment,0
70,155,34135,72,87,1,2,8,14,13.mid,experiment,0
71,157,34752,84,99,1,2,8,14,13.mid,experiment,0
72,159,35400,84,98,1,2,8,14,13.mid,experiment,0
1,17,7865,79,66,1,2,9,1,10.mid,experiment,0
2,18,8145,78,87,1,2,9,1,10.mid,experiment,0
3,20,8434,79,91,1,2,9,1,10.mid,experiment,0
4,22,8701,76,85,1,2,9,1,10.mid,experiment,0
5,24,8995,72,80,1,2,9,1,10.mid,experiment,0
6,27,9288,67,58,1,2,9,1,10.mid,experiment,0
7,29,9565,67,56,1,2,9,1,10.mid,experiment,0
8,31,9840,67,60,1,2,9,1,10.mid,experiment,0
9,33,10140,79,68,1,2,9,1,10.mid,experiment,0
10,34,10412,78,86,1,2,9,1,10.mid,experiment,0
11,36,10682,79,91,1,2,9,1,10.mid,experiment,0
12,38,10949,76,81,1,2,9,1,10.mid,experiment,0
13,40,11219,72,81,1,2,9,1,10.mid,experiment,0
14,42,11497,76,79,1,2,9,1,10.mid,experiment,0
15,44,11765,79,91,1,2,9,1,10.mid,experiment,0
16,46,12018,84,94,1,2,9,1,10.mid,experiment,0
17,48,12316,83,85,1,2,9,1,10.mid,experiment,0
18,51,12606,81,56,1,2,9,1,10.mid,experiment,0
19,53,12881,81,47,1,2,9,1,10.mid,experiment,0
20,55,13133,81,59,1,2,9,1,10.mid,experiment,0
21,57,13405,83,71,1,2,9,1,10.mid,experiment,0
22,58,13665,81,94,1,2,9,1,10.mid,experiment,0
23,60,13929,84,91,1,2,9,1,10.mid,experiment,0
24,62,14191,81,94,1,2,9,1,10.mid,experiment,0
25,64,14454,78,95,1,2,9,1,10.mid,experiment,0
26,66,14723,79,103,1,2,9,1,10.mid,experiment,0
27,69,15020,79,84,1,2,9,1,10.mid,experiment,0
28,71,15576,79,93,1,2,9,1,10.mid,experiment,0
29,73,16747,77,55,1,2,9,1,10.mid,experiment,0
30,75,17035,77,40,1,2,9,1,10.mid,experiment,0
31,77,17288,76,48,1,2,9,1,10.mid,experiment,0
32,79,17541,76,50,1,2,9,1,10.mid,experiment,0
33,81,17886,74,42,1,2,9,1,10.mid,experiment,0
34,83,18992,79,46,1,2,9,1,10.mid,experiment,0
35,85,19546,77,55,1,2,9,1,10.mid,experiment,0
36,87,20085,76,49,1,2,9,1,10.mid,experiment,0
37,89,20343,76,42,1,2,9,1,10.mid,experiment,0
38,91,20595,76,48,1,2,9,1,10.mid,experiment,0
39,93,20859,76,51,1,2,9,1,10.mid,experiment,0
40,95,21147,81,68,1,2,9,1,10.mid,experiment,0
41,96,21394,77,78,1,2,9,1,10.mid,experiment,0
42,98,21665,76,87,1,2,9,1,10.mid,experiment,0
43,100,21902,74,91,1,2,9,1,10.mid,experiment,0
44,102,22163,76,89,1,2,9,1,10.mid,experiment,0
45,104,22410,79,88,1,2,9,1,10.mid,experiment,0
46,106,22670,74,88,1,2,9,1,10.mid,experiment,0
47,108,22927,71,71,1,2,9,1,10.mid,experiment,0
48,111,23181,72,56,1,2,9,1,10.mid,experiment,0
49,113,23458,72,52,1,2,9,1,10.mid,experiment,0
50,115,23705,74,55,1,2,9,1,10.mid,experiment,0
51,117,23962,74,51,1,2,9,1,10.mid,experiment,0
52,119,24258,76,44,1,2,9,1,10.mid,experiment,0
53,121,25290,65,51,1,2,9,1,10.mid,experiment,0
54,123,25539,65,56,1,2,9,1,10.mid,experiment,0
55,125,25813,64,47,1,2,9,1,10.mid,experiment,0
56,127,26056,64,46,1,2,9,1,10.mid,experiment,0
57,129,26353,62,47,1,2,9,1,10.mid,experiment,0
58,131,27351,67,49,1,2,9,1,10.mid,experiment,0
59,133,27577,67,46,1,2,9,1,10.mid,experiment,0
60,135,27867,71,56,1,2,9,1,10.mid,experiment,0
61,137,28121,71,60,1,2,9,1,10.mid,experiment,0
62,139,28379,72,58,1,2,9,1,10.mid,experiment,0
63,141,28620,72,58,1,2,9,1,10.mid,experiment,0
64,143,28870,73,63,1,2,9,1,10.mid,experiment,0
65,145,29103,73,58,1,2,9,1,10.mid,experiment,0
66,147,29420,74,85,1,2,9,1,10.mid,experiment,0
67,149,29922,77,91,1,2,9,1,10.mid,experiment,0
68,151,30431,76,97,1,2,9,1,10.mid,experiment,0
69,153,30944,74,104,1,2,9,1,10.mid,experiment,0
70,155,31456,72,103,1,2,9,1,10.mid,experiment,0
71,157,31967,84,101,1,2,9,1,10.mid,experiment,0
72,159,32580,84,110,1,2,9,1,10.mid,experiment,0
1,17,7805,79,65,1,2,9,3,16.mid,experiment,0
2,18,8065,78,82,1,2,9,3,16.mid,experiment,0
3,20,8327,79,91,1,2,9,3,16.mid,experiment,0
4,22,8575,76,75,1,2,9,3,16.mid,experiment,0
5,24,8833,72,74,1,2,9,3,16.mid,experiment,0
6,27,9101,67,57,1,2,9,3,16.mid,experiment,0
7,29,9376,67,43,1,2,9,3,16.mid,experiment,0
8,31,9629,67,45,1,2,9,3,16.mid,experiment,0
9,33,9894,79,60,1,2,9,3,16.mid,experiment,0
10,34,10155,78,76,1,2,9,3,16.mid,experiment,0
11,36,10395,79,78,1,2,9,3,16.mid,experiment,0
12,38,10654,76,74,1,2,9,3,16.mid,experiment,0
13,40,10904,72,80,1,2,9,3,16.mid,experiment,0
14,42,11139,76,76,1,2,9,3,16.mid,experiment,0
15,44,11397,79,99,1,2,9,3,16.mid,experiment,0
16,46,11650,84,91,1,2,9,3,16.mid,experiment,0
17,48,11897,83,77,1,2,9,3,16.mid,experiment,0
18,51,12167,81,61,1,2,9,3,16.mid,experiment,0
19,53,12408,81,55,1,2,9,3,16.mid,experiment,0
20,55,12665,81,30,1,2,9,3,16.mid,experiment,0
21,57,12915,83,65,1,2,9,3,16.mid,experiment,0
22,58,13159,81,87,1,2,9,3,16.mid,experiment,0
23,60,13409,84,91,1,2,9,3,16.mid,experiment,0
24,62,13655,81,96,1,2,9,3,16.mid,experiment,0
25,64,13907,78,99,1,2,9,3,16.mid,experiment,0
26,66,14161,79,101,1,2,9,3,16.mid,experiment,0
27,69,14441,79,90,1,2,9,3,16.mid,experiment,0
28,71,14979,79,58,1,2,9,3,16.mid,experiment,0
29,73,16025,77,57,1,2,9,3,16.mid,experiment,0
30,75,16277,77,51,1,2,9,3,16.mid,experiment,0
31,77,16507,76,48,1,2,9,3,16.mid,experiment,0
32,79,16761,76,41,1,2,9,3,16.mid,experiment,0
33,81,17057,74,43,1,2,9,3,16.mid,experiment,0
34,83,18095,79,46,1,2,9,3,16.mid,experiment,0
35,85,18617,77,57,1,2,9,3,16.mid,experiment,0
36,87,19120,76,52,1,2,9,3,16.mid,experiment,0
37,89,19387,76,42,1,2,9,3,16.mid,experiment,0
38,91,19633,76,49,1,2,9,3,16.mid,experiment,0
39,93,19885,76,50,1,2,9,3,16.mid,experiment,0
40,95,20151,81,62,1,2,9,3,16.mid,experiment,0
41,96,20387,77,72,1,2,9,3,16.mid,experiment,0
42,98,20629,76,85,1,2,9,3,16.mid,experiment,0
43,100,20872,74,91,1,2,9,3,16.mid,experiment,0
44,102,21120,76,94,1,2,9,3,16.mid,experiment,0
45,104,21348,79,93,1,2,9,3,16.mid,experiment,0
46,106,21594,74,94,1,2,9,3,16.mid,experiment,0
47,108,21836,71,67,1,2,9,3,16.mid,experiment,0
48,111,22069,72,68,1,2,9,3,16.mid,experiment,0
49,113,22302,72,57,1,2,9,3,16.mid,experiment,0
50,115,22550,74,53,1,2,9,3,16.mid,experiment,0
51,117,22805,74,47,1,2,9,3,16.mid,experiment,0
52,119,23101,76,50,1,2,9,3,16.mid,experiment,0
53,121,24139,65,44,1,2,9,3,16.mid,experiment,0
54,123,24370,65,50,1,2,9,3,16.mid,experiment,0
55,125,24629,64,45,1,2,9,3,16.mid,experiment,0
56,127,24857,64,49,1,2,9,3,16.mid,experiment,0
57,129,25179,62,46,1,2,9,3,16.mid,experiment,0
58,131,26220,67,50,1,2,9,3,16.mid,experiment,0
59,133,26472,67,56,1,2,9,3,16.mid,experiment,0
60,135,26725,71,60,1,2,9,3,16.mid,experiment,0
61,137,26964,71,52,1,2,9,3,16.mid,experiment,0
62,139,27210,72,65,1,2,9,3,16.mid,experiment,0
63,141,27449,72,67,1,2,9,3,16.mid,experiment,0
64,143,27694,73,67,1,2,9,3,16.mid,experiment,0
65,145,27932,73,71,1,2,9,3,16.mid,experiment,0
66,147,28208,74,103,1,2,9,3,16.mid,experiment,0
67,149,28707,77,105,1,2,9,3,16.mid,experiment,0
68,151,29207,76,99,1,2,9,3,16.mid,experiment,0
69,153,29712,74,91,1,2,9,3,16.mid,experiment,0
70,155,30259,72,91,1,2,9,3,16.mid,experiment,0
71,157,30774,84,97,1,2,9,3,16.mid,experiment,0
72,159,31368,84,83,1,2,9,3,16.mid,experiment,0
1,17,7805,79,67,1,2,9,4,15.mid,experiment,0
2,18,8071,78,83,1,2,9,4,15.mid,experiment,0
3,20,8345,79,91,1,2,9,4,15.mid,experiment,0
4,22,8611,76,75,1,2,9,4,15.mid,experiment,0
5,24,8892,72,63,1,2,9,4,15.mid,experiment,0
6,27,9169,67,55,1,2,9,4,15.mid,experiment,0
7,29,9435,67,46,1,2,9,4,15.mid,experiment,0
8,31,9709,67,51,1,2,9,4,15.mid,experiment,0
9,33,9989,79,63,1,2,9,4,15.mid,experiment,0
10,34,10251,78,85,1,2,9,4,15.mid,experiment,0
11,36,10511,79,83,1,2,9,4,15.mid,experiment,0
12,38,10775,76,76,1,2,9,4,15.mid,experiment,0
13,40,11053,72,80,1,2,9,4,15.mid,experiment,0
14,42,11293,76,74,1,2,9,4,15.mid,experiment,0
15,44,11561,79,95,1,2,9,4,15.mid,experiment,0
16,46,11825,84,86,1,2,9,4,15.mid,experiment,0
17,48,12083,83,84,1,2,9,4,15.mid,experiment,0
18,51,12369,81,64,1,2,9,4,15.mid,experiment,0
19,53,12629,81,53,1,2,9,4,15.mid,experiment,0
20,55,12867,81,59,1,2,9,4,15.mid,experiment,0
21,57,13161,83,79,1,2,9,4,15.mid,experiment,0
22,58,13423,81,87,1,2,9,4,15.mid,experiment,0
23,60,13687,84,90,1,2,9,4,15.mid,experiment,0
24,62,13941,81,91,1,2,9,4,15.mid,experiment,0
25,64,14219,78,89,1,2,9,4,15.mid,experiment,0
26,66,14489,79,83,1,2,9,4,15.mid,experiment,0
27,69,14787,79,70,1,2,9,4,15.mid,experiment,0
28,71,15335,79,79,1,2,9,4,15.mid,experiment,0
29,73,16511,77,55,1,2,9,4,15.mid,experiment,0
30,75,16769,77,57,1,2,9,4,15.mid,experiment,0
31,77,17009,76,49,1,2,9,4,15.mid,experiment,0
32,79,17267,76,47,1,2,9,4,15.mid,experiment,0
33,81,17581,74,37,1,2,9,4,15.mid,experiment,0
34,83,18679,79,47,1,2,9,4,15.mid,experiment,0
35,85,19219,77,50,1,2,9,4,15.mid,experiment,0
36,87,19721,76,48,1,2,9,4,15.mid,experiment,0
37,89,19982,76,48,1,2,9,4,15.mid,experiment,0
38,91,20212,76,46,1,2,9,4,15.mid,experiment,0
39,93,20488,76,43,1,2,9,4,15.mid,experiment,0
40,95,20762,81,60,1,2,9,4,15.mid,experiment,0
41,96,21009,77,68,1,2,9,4,15.mid,experiment,0
42,98,21263,76,76,1,2,9,4,15.mid,experiment,0
43,100,21505,74,84,1,2,9,4,15.mid,experiment,0
44,102,21759,76,91,1,2,9,4,15.mid,experiment,0
45,104,22003,79,89,1,2,9,4,15.mid,experiment,0
46,106,22254,74,81,1,2,9,4,15.mid,experiment,0
47,108,22523,71,74,1,2,9,4,15.mid,experiment,0
48,110,22863,72,55,1,2,9,4,15.mid,experiment,0
49,113,23137,72,51,1,2,9,4,15.mid,experiment,0
50,115,23391,74,58,1,2,9,4,15.mid,experiment,0
51,117,23647,74,48,1,2,9,4,15.mid,experiment,0
52,119,23947,76,46,1,2,9,4,15.mid,experiment,0
53,121,24915,65,56,1,2,9,4,15.mid,experiment,0
54,123,25161,65,60,1,2,9,4,15.mid,experiment,0
55,125,25420,64,47,1,2,9,4,15.mid,experiment,0
56,127,25679,64,46,1,2,9,4,15.mid,experiment,0
57,129,25983,62,43,1,2,9,4,15.mid,experiment,0
58,131,27005,67,57,1,2,9,4,15.mid,experiment,0
59,133,27241,67,55,1,2,9,4,15.mid,experiment,0
60,135,27505,71,58,1,2,9,4,15.mid,experiment,0
61,137,27791,71,34,1,2,9,4,15.mid,experiment,0
62,139,28031,72,54,1,2,9,4,15.mid,experiment,0
63,141,28276,72,64,1,2,9,4,15.mid,experiment,0
64,143,28519,73,71,1,2,9,4,15.mid,experiment,0
65,145,28757,73,74,1,2,9,4,15.mid,experiment,0
66,147,29069,74,91,1,2,9,4,15.mid,experiment,0
67,149,29573,77,91,1,2,9,4,15.mid,experiment,0
68,151,30067,76,86,1,2,9,4,15.mid,experiment,0
69,153,30575,74,91,1,2,9,4,15.mid,experiment,0
70,155,31097,72,93,1,2,9,4,15.mid,experiment,0
71,157,31635,84,97,1,2,9,4,15.mid,experiment,0
72,159,32241,84,97,1,2,9,4,15.mid,experiment,0
1,17,7832,79,61,1,2,9,6,2.mid,experiment,0
2,18,8105,78,78,1,2,9,6,2.mid,experiment,0
3,20,8375,79,88,1,2,9,6,2.mid,experiment,0
4,22,8634,76,79,1,2,9,6,2.mid,experiment,0
5,24,8919,72,70,1,2,9,6,2.mid,experiment,0
6,27,9181,67,62,1,2,9,6,2.mid,experiment,0
7,29,9442,67,56,1,2,9,6,2.mid,experiment,0
8,31,9709,67,61,1,2,9,6,2.mid,experiment,0
9,33,9969,79,70,1,2,9,6,2.mid,experiment,0
10,34,10233,78,84,1,2,9,6,2.mid,experiment,0
11,36,10483,79,87,1,2,9,6,2.mid,experiment,0
12,38,10745,76,74,1,2,9,6,2.mid,experiment,0
13,40,10991,72,81,1,2,9,6,2.mid,experiment,0
14,42,11257,76,79,1,2,9,6,2.mid,experiment,0
15,44,11515,79,90,1,2,9,6,2.mid,experiment,0
16,46,11765,84,87,1,2,9,6,2.mid,experiment,0
17,48,12044,83,79,1,2,9,6,2.mid,experiment,0
18,51,12316,81,55,1,2,9,6,2.mid,experiment,0
19,53,12557,81,56,1,2,9,6,2.mid,experiment,0
20,55,12813,81,50,1,2,9,6,2.mid,experiment,0
21,57,13072,83,73,1,2,9,6,2.mid,experiment,0
22,58,13332,81,87,1,2,9,6,2.mid,experiment,0
23,60,13582,84,88,1,2,9,6,2.mid,experiment,0
24,62,13839,81,89,1,2,9,6,2.mid,experiment,0
25,64,14093,78,81,1,2,9,6,2.mid,experiment,0
26,66,14353,79,75,1,2,9,6,2.mid,experiment,0
27,69,14637,79,76,1,2,9,6,2.mid,experiment,0
28,71,15179,79,70,1,2,9,6,2.mid,experiment,0
29,73,16249,77,61,1,2,9,6,2.mid,experiment,0
30,75,16498,77,51,1,2,9,6,2.mid,experiment,0
31,77,16743,76,47,1,2,9,6,2.mid,experiment,0
32,79,17018,76,38,1,2,9,6,2.mid,experiment,0
33,81,17311,74,34,1,2,9,6,2.mid,experiment,0
34,83,18390,79,52,1,2,9,6,2.mid,experiment,0
35,85,18939,77,60,1,2,9,6,2.mid,experiment,0
36,87,19466,76,55,1,2,9,6,2.mid,experiment,0
37,89,19732,76,51,1,2,9,6,2.mid,experiment,0
38,91,19976,76,54,1,2,9,6,2.mid,experiment,0
39,93,20228,76,56,1,2,9,6,2.mid,experiment,0
40,95,20506,81,58,1,2,9,6,2.mid,experiment,0
41,96,20745,77,76,1,2,9,6,2.mid,experiment,0
42,98,21010,76,79,1,2,9,6,2.mid,experiment,0
43,100,21246,74,89,1,2,9,6,2.mid,experiment,0
44,102,21492,76,86,1,2,9,6,2.mid,experiment,0
45,104,21735,79,91,1,2,9,6,2.mid,experiment,0
46,106,21991,74,90,1,2,9,6,2.mid,experiment,0
47,108,22248,71,67,1,2,9,6,2.mid,experiment,0
48,111,22513,72,71,1,2,9,6,2.mid,experiment,0
49,113,22753,72,50,1,2,9,6,2.mid,experiment,0
50,115,23010,74,56,1,2,9,6,2.mid,experiment,0
51,117,23247,74,48,1,2,9,6,2.mid,experiment,0
52,119,23544,76,47,1,2,9,6,2.mid,experiment,0
53,121,24561,65,54,1,2,9,6,2.mid,experiment,0
54,123,24790,65,59,1,2,9,6,2.mid,experiment,0
55,125,25043,64,53,1,2,9,6,2.mid,experiment,0
56,127,25317,64,41,1,2,9,6,2.mid,experiment,0
57,129,25605,62,45,1,2,9,6,2.mid,experiment,0
58,131,26591,67,42,1,2,9,6,2.mid,experiment,0
59,133,26848,67,56,1,2,9,6,2.mid,experiment,0
60,135,27103,71,63,1,2,9,6,2.mid,experiment,0
61,137,27355,71,67,1,2,9,6,2.mid,experiment,0
62,139,27599,72,65,1,2,9,6,2.mid,experiment,0
63,141,27843,72,63,1,2,9,6,2.mid,experiment,0
64,143,28110,73,61,1,2,9,6,2.mid,experiment,0
65,145,28350,73,72,1,2,9,6,2.mid,experiment,0
66,147,28656,74,89,1,2,9,6,2.mid,experiment,0
67,149,29164,77,88,1,2,9,6,2.mid,experiment,0
68,151,29669,76,93,1,2,9,6,2.mid,experiment,0
69,153,30172,74,97,1,2,9,6,2.mid,experiment,0
70,155,30693,72,100,1,2,9,6,2.mid,experiment,0
71,157,31228,84,94,1,2,9,6,2.mid,experiment,0
72,159,31823,84,91,1,2,9,6,2.mid,experiment,0
1,17,7797,79,73,1,2,9,9,8.mid,experiment,0
2,18,8053,78,79,1,2,9,9,8.mid,experiment,0
3,20,8316,79,89,1,2,9,9,8.mid,experiment,0
4,22,8580,76,72,1,2,9,9,8.mid,experiment,0
5,24,8828,72,70,1,2,9,9,8.mid,experiment,0
6,27,9116,67,45,1,2,9,9,8.mid,experiment,0
7,29,9372,67,53,1,2,9,9,8.mid,experiment,0
8,31,9622,67,56,1,2,9,9,8.mid,experiment,0
9,33,9898,79,72,1,2,9,9,8.mid,experiment,0
10,34,10142,78,82,1,2,9,9,8.mid,experiment,0
11,36,10394,79,89,1,2,9,9,8.mid,experiment,0
12,38,10640,76,78,1,2,9,9,8.mid,experiment,0
13,40,10892,72,83,1,2,9,9,8.mid,experiment,0
14,42,11146,76,78,1,2,9,9,8.mid,experiment,0
15,44,11397,79,89,1,2,9,9,8.mid,experiment,0
16,46,11652,84,83,1,2,9,9,8.mid,experiment,0
17,48,11932,83,78,1,2,9,9,8.mid,experiment,0
18,51,12208,81,55,1,2,9,9,8.mid,experiment,0
19,53,12444,81,54,1,2,9,9,8.mid,experiment,0
20,55,12690,81,62,1,2,9,9,8.mid,experiment,0
21,57,12962,83,72,1,2,9,9,8.mid,experiment,0
22,58,13211,81,89,1,2,9,9,8.mid,experiment,0
23,60,13469,84,93,1,2,9,9,8.mid,experiment,0
24,62,13718,81,84,1,2,9,9,8.mid,experiment,0
25,64,13978,78,84,1,2,9,9,8.mid,experiment,0
26,66,14250,79,75,1,2,9,9,8.mid,experiment,0
27,69,14557,79,61,1,2,9,9,8.mid,experiment,0
28,71,15088,79,67,1,2,9,9,8.mid,experiment,0
29,73,16107,77,53,1,2,9,9,8.mid,experiment,0
30,75,16370,77,50,1,2,9,9,8.mid,experiment,0
31,77,16618,76,40,1,2,9,9,8.mid,experiment,0
32,79,16884,76,31,1,2,9,9,8.mid,experiment,0
33,81,17155,74,36,1,2,9,9,8.mid,experiment,0
34,83,18200,79,60,1,2,9,9,8.mid,experiment,0
35,85,18756,77,60,1,2,9,9,8.mid,experiment,0
36,87,19260,76,50,1,2,9,9,8.mid,experiment,0
37,89,19508,76,53,1,2,9,9,8.mid,experiment,0
38,91,19760,76,57,1,2,9,9,8.mid,experiment,0
39,93,20010,76,59,1,2,9,9,8.mid,experiment,0
40,95,20265,81,76,1,2,9,9,8.mid,experiment,0
41,96,20508,77,79,1,2,9,9,8.mid,experiment,0
42,98,20766,76,90,1,2,9,9,8.mid,experiment,0
43,100,21012,74,91,1,2,9,9,8.mid,experiment,0
44,102,21266,76,88,1,2,9,9,8.mid,experiment,0
45,104,21504,79,89,1,2,9,9,8.mid,experiment,0
46,106,21757,74,81,1,2,9,9,8.mid,experiment,0
47,108,21996,71,70,1,2,9,9,8.mid,experiment,0
48,111,22274,72,63,1,2,9,9,8.mid,experiment,0
49,113,22512,72,57,1,2,9,9,8.mid,experiment,0
50,115,22764,74,53,1,2,9,9,8.mid,experiment,0
51,117,23008,74,52,1,2,9,9,8.mid,experiment,0
52,119,23298,76,47,1,2,9,9,8.mid,experiment,0
53,121,24294,65,57,1,2,9,9,8.mid,experiment,0
54,123,24532,65,48,1,2,9,9,8.mid,experiment,0
55,125,24813,64,35,1,2,9,9,8.mid,experiment,0
56,127,25030,64,48,1,2,9,9,8.mid,experiment,0
57,129,25335,62,45,1,2,9,9,8.mid,experiment,0
58,131,26340,67,62,1,2,9,9,8.mid,experiment,0
59,133,26588,67,51,1,2,9,9,8.mid,experiment,0
60,135,26856,71,60,1,2,9,9,8.mid,experiment,0
61,137,27094,71,60,1,2,9,9,8.mid,experiment,0
62,139,27352,72,58,1,2,9,9,8.mid,experiment,0
63,141,27594,72,67,1,2,9,9,8.mid,experiment,0
64,143,27844,73,58,1,2,9,9,8.mid,experiment,0
65,145,28074,73,75,1,2,9,9,8.mid,experiment,0
66,147,28372,74,95,1,2,9,9,8.mid,experiment,0
67,149,28892,77,91,1,2,9,9,8.mid,experiment,0
68,151,29400,76,97,1,2,9,9,8.mid,experiment,0
69,153,29888,74,90,1,2,9,9,8.mid,experiment,0
70,155,30414,72,91,1,2,9,9,8.mid,experiment,0
71,157,30944,84,96,1,2,9,9,8.mid,experiment,0
72,159,31538,84,97,1,2,9,9,8.mid,experiment,0
1,17,7800,79,71,1,2,9,10,14.mid,experiment,0
2,18,8068,78,86,1,2,9,10,14.mid,experiment,0
3,20,8332,79,88,1,2,9,10,14.mid,experiment,0
4,22,8596,76,75,1,2,9,10,14.mid,experiment,0
5,24,8886,72,72,1,2,9,10,14.mid,experiment,0
6,27,9152,67,56,1,2,9,10,14.mid,experiment,0
7,29,9416,67,56,1,2,9,10,14.mid,experiment,0
8,31,9675,67,65,1,2,9,10,14.mid,experiment,0
9,33,9943,79,72,1,2,9,10,14.mid,experiment,0
10,34,10197,78,87,1,2,9,10,14.mid,experiment,0
11,36,10464,79,81,1,2,9,10,14.mid,experiment,0
12,38,10698,76,79,1,2,9,10,14.mid,experiment,0
13,40,10974,72,84,1,2,9,10,14.mid,experiment,0
14,42,11234,76,83,1,2,9,10,14.mid,experiment,0
15,44,11483,79,95,1,2,9,10,14.mid,experiment,0
16,46,11734,84,90,1,2,9,10,14.mid,experiment,0
17,48,11994,83,88,1,2,9,10,14.mid,experiment,0
18,51,12258,81,63,1,2,9,10,14.mid,experiment,0
19,53,12493,81,63,1,2,9,10,14.mid,experiment,0
20,55,12752,81,61,1,2,9,10,14.mid,experiment,0
21,57,13005,83,75,1,2,9,10,14.mid,experiment,0
22,58,13257,81,91,1,2,9,10,14.mid,experiment,0
23,60,13510,84,93,1,2,9,10,14.mid,experiment,0
24,62,13753,81,90,1,2,9,10,14.mid,experiment,0
25,64,14016,78,91,1,2,9,10,14.mid,experiment,0
26,66,14292,79,90,1,2,9,10,14.mid,experiment,0
27,69,14577,79,82,1,2,9,10,14.mid,experiment,0
28,71,15108,79,81,1,2,9,10,14.mid,experiment,0
29,73,16186,77,56,1,2,9,10,14.mid,experiment,0
30,75,16432,77,57,1,2,9,10,14.mid,experiment,0
31,77,16667,76,58,1,2,9,10,14.mid,experiment,0
32,79,16925,76,44,1,2,9,10,14.mid,experiment,0
33,81,17224,74,45,1,2,9,10,14.mid,experiment,0
34,83,18282,79,60,1,2,9,10,14.mid,experiment,0
35,85,18809,77,63,1,2,9,10,14.mid,experiment,0
36,87,19337,76,57,1,2,9,10,14.mid,experiment,0
37,89,19582,76,62,1,2,9,10,14.mid,experiment,0
38,91,19823,76,56,1,2,9,10,14.mid,experiment,0
39,93,20071,76,62,1,2,9,10,14.mid,experiment,0
40,95,20346,81,74,1,2,9,10,14.mid,experiment,0
41,96,20573,77,80,1,2,9,10,14.mid,experiment,0
42,98,20819,76,84,1,2,9,10,14.mid,experiment,0
43,100,21071,74,96,1,2,9,10,14.mid,experiment,0
44,102,21327,76,87,1,2,9,10,14.mid,experiment,0
45,104,21562,79,91,1,2,9,10,14.mid,experiment,0
46,106,21821,74,81,1,2,9,10,14.mid,experiment,0
47,108,22091,71,58,1,2,9,10,14.mid,experiment,0
48,111,22344,72,71,1,2,9,10,14.mid,experiment,0
49,113,22579,72,56,1,2,9,10,14.mid,experiment,0
50,115,22822,74,56,1,2,9,10,14.mid,experiment,0
51,117,23062,74,47,1,2,9,10,14.mid,experiment,0
52,119,23354,76,52,1,2,9,10,14.mid,experiment,0
53,121,24368,65,59,1,2,9,10,14.mid,experiment,0
54,123,24646,65,47,1,2,9,10,14.mid,experiment,0
55,125,24898,64,52,1,2,9,10,14.mid,experiment,0
56,127,25145,64,47,1,2,9,10,14.mid,experiment,0
57,129,25458,62,48,1,2,9,10,14.mid,experiment,0
58,131,26459,67,59,1,2,9,10,14.mid,experiment,0
59,133,26700,67,52,1,2,9,10,14.mid,experiment,0
60,135,26998,71,51,1,2,9,10,14.mid,experiment,0
61,137,27231,71,59,1,2,9,10,14.mid,experiment,0
62,139,27480,72,62,1,2,9,10,14.mid,experiment,0
63,141,27735,72,64,1,2,9,10,14.mid,experiment,0
64,143,27992,73,57,1,2,9,10,14.mid,experiment,0
65,145,28239,73,70,1,2,9,10,14.mid,experiment,0
66,147,28544,74,93,1,2,9,10,14.mid,experiment,0
67,149,29044,77,80,1,2,9,10,14.mid,experiment,0
68,151,29545,76,81,1,2,9,10,14.mid,experiment,0
69,153,30055,74,81,1,2,9,10,14.mid,experiment,0
70,155,30569,72,83,1,2,9,10,14.mid,experiment,0
71,157,31076,84,95,1,2,9,10,14.mid,experiment,0
72,159,31683,84,89,1,2,9,10,14.mid,experiment,0
1,17,7807,79,63,1,2,9,11,7.mid,experiment,0
2,18,8066,78,78,1,2,9,11,7.mid,experiment,0
3,20,8325,79,90,1,2,9,11,7.mid,experiment,0
4,22,8586,76,76,1,2,9,11,7.mid,experiment,0
5,24,8867,72,71,1,2,9,11,7.mid,experiment,0
6,27,9133,67,58,1,2,9,11,7.mid,experiment,0
7,29,9409,67,49,1,2,9,11,7.mid,experiment,0
8,31,9664,67,58,1,2,9,11,7.mid,experiment,0
9,33,9936,79,74,1,2,9,11,7.mid,experiment,0
10,34,10196,78,93,1,2,9,11,7.mid,experiment,0
11,36,10454,79,86,1,2,9,11,7.mid,experiment,0
12,38,10696,76,79,1,2,9,11,7.mid,experiment,0
13,40,10967,72,83,1,2,9,11,7.mid,experiment,0
14,42,11222,76,84,1,2,9,11,7.mid,experiment,0
15,44,11477,79,89,1,2,9,11,7.mid,experiment,0
16,46,11738,84,83,1,2,9,11,7.mid,experiment,0
17,48,12016,83,81,1,2,9,11,7.mid,experiment,0
18,51,12284,81,59,1,2,9,11,7.mid,experiment,0
19,53,12528,81,51,1,2,9,11,7.mid,experiment,0
20,55,12790,81,45,1,2,9,11,7.mid,experiment,0
21,57,13062,83,66,1,2,9,11,7.mid,experiment,0
22,58,13317,81,86,1,2,9,11,7.mid,experiment,0
23,60,13570,84,90,1,2,9,11,7.mid,experiment,0
24,62,13828,81,90,1,2,9,11,7.mid,experiment,0
25,64,14075,78,94,1,2,9,11,7.mid,experiment,0
26,66,14346,79,91,1,2,9,11,7.mid,experiment,0
27,69,14637,79,77,1,2,9,11,7.mid,experiment,0
28,71,15187,79,72,1,2,9,11,7.mid,experiment,0
29,73,16284,77,54,1,2,9,11,7.mid,experiment,0
30,75,16536,77,56,1,2,9,11,7.mid,experiment,0
31,77,16769,76,47,1,2,9,11,7.mid,experiment,0
32,79,17033,76,44,1,2,9,11,7.mid,experiment,0
33,81,17323,74,47,1,2,9,11,7.mid,experiment,0
34,83,18423,79,56,1,2,9,11,7.mid,experiment,0
35,85,18953,77,67,1,2,9,11,7.mid,experiment,0
36,87,19479,76,63,1,2,9,11,7.mid,experiment,0
37,89,19733,76,62,1,2,9,11,7.mid,experiment,0
38,91,19985,76,58,1,2,9,11,7.mid,experiment,0
39,93,20237,76,62,1,2,9,11,7.mid,experiment,0
40,95,20519,81,71,1,2,9,11,7.mid,experiment,0
41,96,20755,77,78,1,2,9,11,7.mid,experiment,0
42,98,21011,76,85,1,2,9,11,7.mid,experiment,0
43,100,21257,74,93,1,2,9,11,7.mid,experiment,0
44,102,21515,76,90,1,2,9,11,7.mid,experiment,0
45,104,21769,79,89,1,2,9,11,7.mid,experiment,0
46,106,22023,74,81,1,2,9,11,7.mid,experiment,0
47,108,22264,71,74,1,2,9,11,7.mid,experiment,0
48,111,22517,72,64,1,2,9,11,7.mid,experiment,0
49,113,22765,72,58,1,2,9,11,7.mid,experiment,0
50,115,22999,74,59,1,2,9,11,7.mid,experiment,0
51,117,23247,74,55,1,2,9,11,7.mid,experiment,0
52,119,23519,76,52,1,2,9,11,7.mid,experiment,0
53,121,24528,65,56,1,2,9,11,7.mid,experiment,0
54,123,24779,65,55,1,2,9,11,7.mid,experiment,0
55,125,25037,64,44,1,2,9,11,7.mid,experiment,0
56,127,25280,64,53,1,2,9,11,7.mid,experiment,0
57,129,25603,62,49,1,2,9,11,7.mid,experiment,0
58,131,26596,67,56,1,2,9,11,7.mid,experiment,0
59,133,26852,67,59,1,2,9,11,7.mid,experiment,0
60,135,27112,71,58,1,2,9,11,7.mid,experiment,0
61,137,27357,71,63,1,2,9,11,7.mid,experiment,0
62,139,27611,72,63,1,2,9,11,7.mid,experiment,0
63,141,27860,72,60,1,2,9,11,7.mid,experiment,0
64,143,28105,73,62,1,2,9,11,7.mid,experiment,0
65,145,28350,73,72,1,2,9,11,7.mid,experiment,0
66,147,28646,74,91,1,2,9,11,7.mid,experiment,0
67,149,29145,77,88,1,2,9,11,7.mid,experiment,0
68,151,29642,76,88,1,2,9,11,7.mid,experiment,0
69,153,30150,74,94,1,2,9,11,7.mid,experiment,0
70,155,30657,72,83,1,2,9,11,7.mid,experiment,0
71,157,31184,84,87,1,2,9,11,7.mid,experiment,0
72,159,31769,84,81,1,2,9,11,7.mid,experiment,0
1,17,7821,79,69,1,2,9,12,4.mid,experiment,0
2,18,8081,78,86,1,2,9,12,4.mid,experiment,0
3,20,8354,79,88,1,2,9,12,4.mid,experiment,0
4,22,8610,76,77,1,2,9,12,4.mid,experiment,0
5,24,8898,72,72,1,2,9,12,4.mid,experiment,0
6,27,9165,67,57,1,2,9,12,4.mid,experiment,0
7,29,9422,67,54,1,2,9,12,4.mid,experiment,0
8,31,9692,67,60,1,2,9,12,4.mid,experiment,0
9,33,9965,79,76,1,2,9,12,4.mid,experiment,0
10,34,10216,78,88,1,2,9,12,4.mid,experiment,0
11,36,10456,79,89,1,2,9,12,4.mid,experiment,0
12,38,10714,76,81,1,2,9,12,4.mid,experiment,0
13,40,10980,72,83,1,2,9,12,4.mid,experiment,0
14,42,11230,76,79,1,2,9,12,4.mid,experiment,0
15,44,11480,79,94,1,2,9,12,4.mid,experiment,0
16,46,11730,84,90,1,2,9,12,4.mid,experiment,0
17,48,12006,83,83,1,2,9,12,4.mid,experiment,0
18,51,12257,81,66,1,2,9,12,4.mid,experiment,0
19,53,12527,81,53,1,2,9,12,4.mid,experiment,0
20,55,12765,81,66,1,2,9,12,4.mid,experiment,0
21,57,13052,83,86,1,2,9,12,4.mid,experiment,0
22,58,13303,81,91,1,2,9,12,4.mid,experiment,0
23,60,13559,84,93,1,2,9,12,4.mid,experiment,0
24,62,13803,81,90,1,2,9,12,4.mid,experiment,0
25,64,14070,78,93,1,2,9,12,4.mid,experiment,0
26,66,14326,79,91,1,2,9,12,4.mid,experiment,0
27,69,14605,79,83,1,2,9,12,4.mid,experiment,0
28,71,15108,79,79,1,2,9,12,4.mid,experiment,0
29,73,16161,77,55,1,2,9,12,4.mid,experiment,0
30,75,16413,77,55,1,2,9,12,4.mid,experiment,0
31,77,16653,76,47,1,2,9,12,4.mid,experiment,0
32,79,16892,76,49,1,2,9,12,4.mid,experiment,0
33,81,17172,74,49,1,2,9,12,4.mid,experiment,0
34,83,18250,79,57,1,2,9,12,4.mid,experiment,0
35,85,18765,77,65,1,2,9,12,4.mid,experiment,0
36,87,19263,76,57,1,2,9,12,4.mid,experiment,0
37,89,19508,76,57,1,2,9,12,4.mid,experiment,0
38,91,19763,76,56,1,2,9,12,4.mid,experiment,0
39,93,20014,76,58,1,2,9,12,4.mid,experiment,0
40,95,20289,81,70,1,2,9,12,4.mid,experiment,0
41,96,20525,77,78,1,2,9,12,4.mid,experiment,0
42,98,20770,76,81,1,2,9,12,4.mid,experiment,0
43,100,21020,74,91,1,2,9,12,4.mid,experiment,0
44,102,21265,76,85,1,2,9,12,4.mid,experiment,0
45,104,21513,79,93,1,2,9,12,4.mid,experiment,0
46,106,21765,74,87,1,2,9,12,4.mid,experiment,0
47,108,22018,71,67,1,2,9,12,4.mid,experiment,0
48,111,22273,72,63,1,2,9,12,4.mid,experiment,0
49,113,22514,72,58,1,2,9,12,4.mid,experiment,0
50,115,22764,74,52,1,2,9,12,4.mid,experiment,0
51,117,23021,74,49,1,2,9,12,4.mid,experiment,0
52,119,23316,76,49,1,2,9,12,4.mid,experiment,0
53,121,24321,65,61,1,2,9,12,4.mid,experiment,0
54,123,24559,65,58,1,2,9,12,4.mid,experiment,0
55,125,24797,64,57,1,2,9,12,4.mid,experiment,0
56,127,25055,64,60,1,2,9,12,4.mid,experiment,0
57,129,25351,62,54,1,2,9,12,4.mid,experiment,0
58,131,26316,67,63,1,2,9,12,4.mid,experiment,0
59,133,26560,67,64,1,2,9,12,4.mid,experiment,0
60,135,26829,71,64,1,2,9,12,4.mid,experiment,0
61,137,27072,71,71,1,2,9,12,4.mid,experiment,0
62,139,27314,72,68,1,2,9,12,4.mid,experiment,0
63,141,27552,72,72,1,2,9,12,4.mid,experiment,0
64,143,27811,73,71,1,2,9,12,4.mid,experiment,0
65,145,28043,73,78,1,2,9,12,4.mid,experiment,0
66,147,28325,74,105,1,2,9,12,4.mid,experiment,0
67,149,28834,77,99,1,2,9,12,4.mid,experiment,0
68,151,29312,76,100,1,2,9,12,4.mid,experiment,0
69,153,29822,74,99,1,2,9,12,4.mid,experiment,0
70,155,30303,72,98,1,2,9,12,4.mid,experiment,0
71,157,30821,84,98,1,2,9,12,4.mid,experiment,0
72,159,31362,84,105,1,2,9,12,4.mid,experiment,0
1,17,7799,79,66,1,2,9,13,13.mid,experiment,0
2,18,8069,78,81,1,2,9,13,13.mid,experiment,0
3,20,8325,79,91,1,2,9,13,13.mid,experiment,0
4,22,8601,76,80,1,2,9,13,13.mid,experiment,0
5,24,8873,72,75,1,2,9,13,13.mid,experiment,0
6,27,9130,67,65,1,2,9,13,13.mid,experiment,0
7,29,9403,67,58,1,2,9,13,13.mid,experiment,0
8,31,9681,67,51,1,2,9,13,13.mid,experiment,0
9,33,9924,79,72,1,2,9,13,13.mid,experiment,0
10,34,10176,78,88,1,2,9,13,13.mid,experiment,0
11,36,10433,79,86,1,2,9,13,13.mid,experiment,0
12,38,10677,76,77,1,2,9,13,13.mid,experiment,0
13,40,10946,72,80,1,2,9,13,13.mid,experiment,0
14,42,11197,76,86,1,2,9,13,13.mid,experiment,0
15,44,11448,79,91,1,2,9,13,13.mid,experiment,0
16,46,11696,84,91,1,2,9,13,13.mid,experiment,0
17,48,11963,83,83,1,2,9,13,13.mid,experiment,0
18,51,12225,81,70,1,2,9,13,13.mid,experiment,0
19,53,12467,81,62,1,2,9,13,13.mid,experiment,0
20,55,12711,81,56,1,2,9,13,13.mid,experiment,0
21,57,12974,83,76,1,2,9,13,13.mid,experiment,0
22,58,13231,81,87,1,2,9,13,13.mid,experiment,0
23,60,13476,84,91,1,2,9,13,13.mid,experiment,0
24,62,13720,81,89,1,2,9,13,13.mid,experiment,0
25,64,13976,78,81,1,2,9,13,13.mid,experiment,0
26,66,14231,79,88,1,2,9,13,13.mid,experiment,0
27,69,14506,79,78,1,2,9,13,13.mid,experiment,0
28,71,15017,79,81,1,2,9,13,13.mid,experiment,0
29,73,16066,77,62,1,2,9,13,13.mid,experiment,0
30,75,16301,77,58,1,2,9,13,13.mid,experiment,0
31,77,16543,76,51,1,2,9,13,13.mid,experiment,0
32,79,16785,76,53,1,2,9,13,13.mid,experiment,0
33,81,17058,74,50,1,2,9,13,13.mid,experiment,0
34,83,18098,79,54,1,2,9,13,13.mid,experiment,0
35,85,18604,77,62,1,2,9,13,13.mid,experiment,0
36,87,19118,76,52,1,2,9,13,13.mid,experiment,0
37,89,19377,76,54,1,2,9,13,13.mid,experiment,0
38,91,19619,76,53,1,2,9,13,13.mid,experiment,0
39,93,19862,76,60,1,2,9,13,13.mid,experiment,0
40,95,20132,81,75,1,2,9,13,13.mid,experiment,0
41,96,20369,77,85,1,2,9,13,13.mid,experiment,0
42,98,20620,76,89,1,2,9,13,13.mid,experiment,0
43,100,20857,74,95,1,2,9,13,13.mid,experiment,0
44,102,21102,76,96,1,2,9,13,13.mid,experiment,0
45,104,21348,79,94,1,2,9,13,13.mid,experiment,0
46,106,21592,74,89,1,2,9,13,13.mid,experiment,0
47,108,21838,71,72,1,2,9,13,13.mid,experiment,0
48,111,22085,72,69,1,2,9,13,13.mid,experiment,0
49,113,22331,72,62,1,2,9,13,13.mid,experiment,0
50,115,22590,74,50,1,2,9,13,13.mid,experiment,0
51,117,22824,74,46,1,2,9,13,13.mid,experiment,0
52,119,23101,76,48,1,2,9,13,13.mid,experiment,0
53,121,24095,65,48,1,2,9,13,13.mid,experiment,0
54,123,24331,65,60,1,2,9,13,13.mid,experiment,0
55,125,24581,64,54,1,2,9,13,13.mid,experiment,0
56,127,24821,64,50,1,2,9,13,13.mid,experiment,0
57,129,25107,62,43,1,2,9,13,13.mid,experiment,0
58,131,26044,67,57,1,2,9,13,13.mid,experiment,0
59,133,26293,67,58,1,2,9,13,13.mid,experiment,0
60,135,26558,71,55,1,2,9,13,13.mid,experiment,0
61,137,26793,71,64,1,2,9,13,13.mid,experiment,0
62,139,27040,72,63,1,2,9,13,13.mid,experiment,0
63,141,27278,72,69,1,2,9,13,13.mid,experiment,0
64,143,27524,73,63,1,2,9,13,13.mid,experiment,0
65,145,27763,73,74,1,2,9,13,13.mid,experiment,0
66,147,28050,74,103,1,2,9,13,13.mid,experiment,0
67,149,28544,77,95,1,2,9,13,13.mid,experiment,0
68,151,29044,76,100,1,2,9,13,13.mid,experiment,0
69,153,29537,74,99,1,2,9,13,13.mid,experiment,0
70,155,30042,72,94,1,2,9,13,13.mid,experiment,0
71,157,30538,84,97,1,2,9,13,13.mid,experiment,0
72,159,31096,84,105,1,2,9,13,13.mid,experiment,0
1,17,7799,79,63,1,2,9,14,3.mid,experiment,0
2,18,8054,78,83,1,2,9,14,3.mid,experiment,0
3,20,8321,79,91,1,2,9,14,3.mid,experiment,0
4,22,8576,76,78,1,2,9,14,3.mid,experiment,0
5,24,8860,72,64,1,2,9,14,3.mid,experiment,0
6,27,9130,67,48,1,2,9,14,3.mid,experiment,0
7,29,9386,67,52,1,2,9,14,3.mid,experiment,0
8,31,9625,67,63,1,2,9,14,3.mid,experiment,0
9,33,9891,79,71,1,2,9,14,3.mid,experiment,0
10,34,10133,78,81,1,2,9,14,3.mid,experiment,0
11,36,10394,79,87,1,2,9,14,3.mid,experiment,0
12,38,10642,76,77,1,2,9,14,3.mid,experiment,0
13,40,10905,72,81,1,2,9,14,3.mid,experiment,0
14,42,11159,76,85,1,2,9,14,3.mid,experiment,0
15,44,11417,79,96,1,2,9,14,3.mid,experiment,0
16,46,11671,84,91,1,2,9,14,3.mid,experiment,0
17,48,11932,83,80,1,2,9,14,3.mid,experiment,0
18,51,12199,81,70,1,2,9,14,3.mid,experiment,0
19,53,12438,81,65,1,2,9,14,3.mid,experiment,0
20,55,12678,81,69,1,2,9,14,3.mid,experiment,0
21,57,12942,83,83,1,2,9,14,3.mid,experiment,0
22,58,13192,81,91,1,2,9,14,3.mid,experiment,0
23,60,13452,84,93,1,2,9,14,3.mid,experiment,0
24,62,13691,81,93,1,2,9,14,3.mid,experiment,0
25,64,13962,78,91,1,2,9,14,3.mid,experiment,0
26,66,14220,79,91,1,2,9,14,3.mid,experiment,0
27,69,14503,79,75,1,2,9,14,3.mid,experiment,0
28,71,15008,79,81,1,2,9,14,3.mid,experiment,0
29,73,16028,77,62,1,2,9,14,3.mid,experiment,0
30,75,16287,77,52,1,2,9,14,3.mid,experiment,0
31,77,16524,76,54,1,2,9,14,3.mid,experiment,0
32,79,16767,76,57,1,2,9,14,3.mid,experiment,0
33,81,17060,74,56,1,2,9,14,3.mid,experiment,0
34,83,18084,79,66,1,2,9,14,3.mid,experiment,0
35,85,18604,77,64,1,2,9,14,3.mid,experiment,0
36,87,19125,76,53,1,2,9,14,3.mid,experiment,0
37,89,19390,76,49,1,2,9,14,3.mid,experiment,0
38,91,19638,76,50,1,2,9,14,3.mid,experiment,0
39,93,19877,76,62,1,2,9,14,3.mid,experiment,0
40,95,20150,81,65,1,2,9,14,3.mid,experiment,0
41,96,20397,77,76,1,2,9,14,3.mid,experiment,0
42,98,20642,76,90,1,2,9,14,3.mid,experiment,0
43,100,20887,74,93,1,2,9,14,3.mid,experiment,0
44,102,21128,76,83,1,2,9,14,3.mid,experiment,0
45,104,21368,79,91,1,2,9,14,3.mid,experiment,0
46,106,21626,74,80,1,2,9,14,3.mid,experiment,0
47,108,21903,71,65,1,2,9,14,3.mid,experiment,0
48,111,22203,72,56,1,2,9,14,3.mid,experiment,0
49,113,22437,72,54,1,2,9,14,3.mid,experiment,0
50,115,22689,74,58,1,2,9,14,3.mid,experiment,0
51,117,22940,74,50,1,2,9,14,3.mid,experiment,0
52,119,23289,76,36,1,2,9,14,3.mid,experiment,0
53,121,24318,65,57,1,2,9,14,3.mid,experiment,0
54,123,24566,65,56,1,2,9,14,3.mid,experiment,0
55,125,24823,64,55,1,2,9,14,3.mid,experiment,0
56,127,25061,64,51,1,2,9,14,3.mid,experiment,0
57,129,25380,62,44,1,2,9,14,3.mid,experiment,0
58,131,26405,67,48,1,2,9,14,3.mid,experiment,0
59,133,26664,67,52,1,2,9,14,3.mid,experiment,0
60,135,26922,71,62,1,2,9,14,3.mid,experiment,0
61,137,27165,71,64,1,2,9,14,3.mid,experiment,0
62,139,27412,72,67,1,2,9,14,3.mid,experiment,0
63,141,27658,72,62,1,2,9,14,3.mid,experiment,0
64,143,27917,73,59,1,2,9,14,3.mid,experiment,0
65,145,28157,73,70,1,2,9,14,3.mid,experiment,0
66,147,28494,74,97,1,2,9,14,3.mid,experiment,0
67,149,29046,77,96,1,2,9,14,3.mid,experiment,0
68,151,29556,76,90,1,2,9,14,3.mid,experiment,0
69,153,30068,74,90,1,2,9,14,3.mid,experiment,0
70,155,30613,72,87,1,2,9,14,3.mid,experiment,0
71,157,31142,84,89,1,2,9,14,3.mid,experiment,0
72,159,31746,84,89,1,2,9,14,3.mid,experiment,0
1,17,7835,79,75,1,2,9,15,12.mid,experiment,0
2,18,8102,78,84,1,2,9,15,12.mid,experiment,0
3,20,8365,79,94,1,2,9,15,12.mid,experiment,0
4,22,8619,76,79,1,2,9,15,12.mid,experiment,0
5,24,8897,72,74,1,2,9,15,12.mid,experiment,0
6,27,9158,67,59,1,2,9,15,12.mid,experiment,0
7,29,9404,67,60,1,2,9,15,12.mid,experiment,0
8,31,9662,67,62,1,2,9,15,12.mid,experiment,0
9,33,9905,79,71,1,2,9,15,12.mid,experiment,0
10,34,10163,78,83,1,2,9,15,12.mid,experiment,0
11,36,10412,79,86,1,2,9,15,12.mid,experiment,0
12,38,10668,76,79,1,2,9,15,12.mid,experiment,0
13,40,10935,72,91,1,2,9,15,12.mid,experiment,0
14,42,11185,76,84,1,2,9,15,12.mid,experiment,0
15,44,11438,79,94,1,2,9,15,12.mid,experiment,0
16,46,11689,84,91,1,2,9,15,12.mid,experiment,0
17,48,11959,83,84,1,2,9,15,12.mid,experiment,0
18,51,12226,81,66,1,2,9,15,12.mid,experiment,0
19,53,12463,81,61,1,2,9,15,12.mid,experiment,0
20,55,12711,81,65,1,2,9,15,12.mid,experiment,0
21,57,12957,83,77,1,2,9,15,12.mid,experiment,0
22,58,13217,81,87,1,2,9,15,12.mid,experiment,0
23,60,13469,84,87,1,2,9,15,12.mid,experiment,0
24,62,13712,81,88,1,2,9,15,12.mid,experiment,0
25,64,13971,78,91,1,2,9,15,12.mid,experiment,0
26,66,14217,79,91,1,2,9,15,12.mid,experiment,0
27,69,14492,79,85,1,2,9,15,12.mid,experiment,0
28,71,14983,79,91,1,2,9,15,12.mid,experiment,0
29,73,16012,77,56,1,2,9,15,12.mid,experiment,0
30,75,16275,77,55,1,2,9,15,12.mid,experiment,0
31,77,16505,76,50,1,2,9,15,12.mid,experiment,0
32,79,16753,76,50,1,2,9,15,12.mid,experiment,0
33,81,17026,74,49,1,2,9,15,12.mid,experiment,0
34,83,17985,79,63,1,2,9,15,12.mid,experiment,0
35,85,18483,77,68,1,2,9,15,12.mid,experiment,0
36,87,18990,76,57,1,2,9,15,12.mid,experiment,0
37,89,19243,76,57,1,2,9,15,12.mid,experiment,0
38,91,19492,76,54,1,2,9,15,12.mid,experiment,0
39,93,19717,76,63,1,2,9,15,12.mid,experiment,0
40,95,19984,81,71,1,2,9,15,12.mid,experiment,0
41,96,20232,77,75,1,2,9,15,12.mid,experiment,0
42,98,20474,76,88,1,2,9,15,12.mid,experiment,0
43,100,20704,74,95,1,2,9,15,12.mid,experiment,0
44,102,20953,76,88,1,2,9,15,12.mid,experiment,0
45,104,21192,79,93,1,2,9,15,12.mid,experiment,0
46,106,21447,74,84,1,2,9,15,12.mid,experiment,0
47,108,21697,71,68,1,2,9,15,12.mid,experiment,0
48,111,21939,72,61,1,2,9,15,12.mid,experiment,0
49,113,22180,72,63,1,2,9,15,12.mid,experiment,0
50,115,22429,74,55,1,2,9,15,12.mid,experiment,0
51,117,22659,74,57,1,2,9,15,12.mid,experiment,0
52,119,22927,76,45,1,2,9,15,12.mid,experiment,0
53,121,23953,65,36,1,2,9,15,12.mid,experiment,0
54,123,24205,65,48,1,2,9,15,12.mid,experiment,0
55,125,24459,64,48,1,2,9,15,12.mid,experiment,0
56,127,24711,64,37,1,2,9,15,12.mid,experiment,0
57,129,24980,62,47,1,2,9,15,12.mid,experiment,0
58,131,26014,67,53,1,2,9,15,12.mid,experiment,0
59,133,26255,67,60,1,2,9,15,12.mid,experiment,0
60,135,26501,71,71,1,2,9,15,12.mid,experiment,0
61,137,26746,71,68,1,2,9,15,12.mid,experiment,0
62,139,26979,72,70,1,2,9,15,12.mid,experiment,0
63,141,27223,72,74,1,2,9,15,12.mid,experiment,0
64,143,27465,73,70,1,2,9,15,12.mid,experiment,0
65,145,27707,73,77,1,2,9,15,12.mid,experiment,0
66,147,28019,74,84,1,2,9,15,12.mid,experiment,0
67,149,28523,77,101,1,2,9,15,12.mid,experiment,0
68,151,29034,76,85,1,2,9,15,12.mid,experiment,0
69,153,29531,74,81,1,2,9,15,12.mid,experiment,0
70,155,30030,72,91,1,2,9,15,12.mid,experiment,0
71,157,30543,84,98,1,2,9,15,12.mid,experiment,0
72,159,31102,84,100,1,2,9,15,12.mid,experiment,0
1,17,7802,79,84,1,2,10,4,8.mid,experiment,0
2,18,8108,78,87,1,2,10,4,8.mid,experiment,0
3,20,8384,79,88,1,2,10,4,8.mid,experiment,0
4,22,8662,76,85,1,2,10,4,8.mid,experiment,0
5,24,8934,72,91,1,2,10,4,8.mid,experiment,0
6,27,9241,67,54,1,2,10,4,8.mid,experiment,0
7,29,9500,67,53,1,2,10,4,8.mid,experiment,0
8,31,9777,67,63,1,2,10,4,8.mid,experiment,0
9,33,10047,79,90,1,2,10,4,8.mid,experiment,0
10,34,10321,78,91,1,2,10,4,8.mid,experiment,0
11,36,10586,79,91,1,2,10,4,8.mid,experiment,0
12,38,10845,76,87,1,2,10,4,8.mid,experiment,0
13,40,11124,72,91,1,2,10,4,8.mid,experiment,0
14,42,11393,76,86,1,2,10,4,8.mid,experiment,0
15,44,11667,79,90,1,2,10,4,8.mid,experiment,0
16,46,11939,84,90,1,2,10,4,8.mid,experiment,0
17,48,12214,83,76,1,2,10,4,8.mid,experiment,0
18,51,12475,81,70,1,2,10,4,8.mid,experiment,0
19,53,12736,81,66,1,2,10,4,8.mid,experiment,0
20,55,12998,81,73,1,2,10,4,8.mid,experiment,0
21,57,13289,83,82,1,2,10,4,8.mid,experiment,0
22,58,13557,81,93,1,2,10,4,8.mid,experiment,0
23,60,13823,84,95,1,2,10,4,8.mid,experiment,0
24,62,14083,81,93,1,2,10,4,8.mid,experiment,0
25,64,14364,78,101,1,2,10,4,8.mid,experiment,0
26,66,14641,79,91,1,2,10,4,8.mid,experiment,0
27,69,14942,79,95,1,2,10,4,8.mid,experiment,0
28,71,15471,79,96,1,2,10,4,8.mid,experiment,0
29,73,16657,77,47,1,2,10,4,8.mid,experiment,0
30,75,16910,77,65,1,2,10,4,8.mid,experiment,0
31,77,17169,76,62,1,2,10,4,8.mid,experiment,0
32,79,17438,76,57,1,2,10,4,8.mid,experiment,0
33,81,17741,74,55,1,2,10,4,8.mid,experiment,0
34,83,18895,79,75,1,2,10,4,8.mid,experiment,0
35,85,19463,77,70,1,2,10,4,8.mid,experiment,0
36,87,20027,76,61,1,2,10,4,8.mid,experiment,0
37,89,20293,76,58,1,2,10,4,8.mid,experiment,0
38,91,20553,76,62,1,2,10,4,8.mid,experiment,0
39,93,20815,76,67,1,2,10,4,8.mid,experiment,0
40,95,21094,81,96,1,2,10,4,8.mid,experiment,0
41,96,21368,77,91,1,2,10,4,8.mid,experiment,0
42,98,21644,76,89,1,2,10,4,8.mid,experiment,0
43,100,21904,74,91,1,2,10,4,8.mid,experiment,0
44,102,22177,76,90,1,2,10,4,8.mid,experiment,0
45,104,22452,79,91,1,2,10,4,8.mid,experiment,0
46,106,22725,74,89,1,2,10,4,8.mid,experiment,0
47,108,22991,71,74,1,2,10,4,8.mid,experiment,0
48,111,23274,72,65,1,2,10,4,8.mid,experiment,0
49,113,23537,72,62,1,2,10,4,8.mid,experiment,0
50,115,23807,74,59,1,2,10,4,8.mid,experiment,0
51,117,24069,74,61,1,2,10,4,8.mid,experiment,0
52,119,24392,76,46,1,2,10,4,8.mid,experiment,0
53,121,25528,65,53,1,2,10,4,8.mid,experiment,0
54,123,25789,65,59,1,2,10,4,8.mid,experiment,0
55,125,26048,64,59,1,2,10,4,8.mid,experiment,0
56,127,26314,64,60,1,2,10,4,8.mid,experiment,0
57,129,26629,62,56,1,2,10,4,8.mid,experiment,0
58,131,27801,67,53,1,2,10,4,8.mid,experiment,0
59,133,28070,67,51,1,2,10,4,8.mid,experiment,0
60,135,28337,71,70,1,2,10,4,8.mid,experiment,0
61,137,28603,71,65,1,2,10,4,8.mid,experiment,0
62,139,28886,72,74,1,2,10,4,8.mid,experiment,0
63,141,29151,72,62,1,2,10,4,8.mid,experiment,0
64,143,29433,73,71,1,2,10,4,8.mid,experiment,0
65,145,29698,73,77,1,2,10,4,8.mid,experiment,0
66,147,29992,74,99,1,2,10,4,8.mid,experiment,0
67,149,30540,77,93,1,2,10,4,8.mid,experiment,0
68,151,31100,76,95,1,2,10,4,8.mid,experiment,0
69,153,31670,74,97,1,2,10,4,8.mid,experiment,0
70,155,32240,72,99,1,2,10,4,8.mid,experiment,0
71,157,32827,84,98,1,2,10,4,8.mid,experiment,0
72,159,33436,84,99,1,2,10,4,8.mid,experiment,0
1,17,7788,79,85,1,2,10,5,11.mid,experiment,0
2,18,8104,78,86,1,2,10,5,11.mid,experiment,0
3,20,8388,79,86,1,2,10,5,11.mid,experiment,0
4,22,8646,76,91,1,2,10,5,11.mid,experiment,0
5,24,8938,72,91,1,2,10,5,11.mid,experiment,0
6,27,9218,67,60,1,2,10,5,11.mid,experiment,0
7,29,9506,67,44,1,2,10,5,11.mid,experiment,0
8,31,9774,67,49,1,2,10,5,11.mid,experiment,0
9,33,10045,79,85,1,2,10,5,11.mid,experiment,0
10,34,10310,78,86,1,2,10,5,11.mid,experiment,0
11,36,10578,79,91,1,2,10,5,11.mid,experiment,0
12,39,10849,76,81,1,2,10,5,11.mid,experiment,0
13,40,11121,72,85,1,2,10,5,11.mid,experiment,0
14,42,11384,76,88,1,2,10,5,11.mid,experiment,0
15,44,11654,79,91,1,2,10,5,11.mid,experiment,0
16,46,11928,84,94,1,2,10,5,11.mid,experiment,0
17,48,12195,83,87,1,2,10,5,11.mid,experiment,0
18,51,12482,81,74,1,2,10,5,11.mid,experiment,0
19,53,12753,81,58,1,2,10,5,11.mid,experiment,0
20,55,13025,81,64,1,2,10,5,11.mid,experiment,0
21,57,13312,83,91,1,2,10,5,11.mid,experiment,0
22,58,13575,81,97,1,2,10,5,11.mid,experiment,0
23,60,13843,84,96,1,2,10,5,11.mid,experiment,0
24,62,14112,81,89,1,2,10,5,11.mid,experiment,0
25,64,14376,78,100,1,2,10,5,11.mid,experiment,0
26,66,14657,79,79,1,2,10,5,11.mid,experiment,0
27,69,14972,79,77,1,2,10,5,11.mid,experiment,0
28,71,15510,79,68,1,2,10,5,11.mid,experiment,0
29,73,16737,77,49,1,2,10,5,11.mid,experiment,0
30,75,17031,77,42,1,2,10,5,11.mid,experiment,0
31,77,17308,76,37,1,2,10,5,11.mid,experiment,0
32,79,17569,76,43,1,2,10,5,11.mid,experiment,0
33,81,17884,74,47,1,2,10,5,11.mid,experiment,0
34,83,19011,79,56,1,2,10,5,11.mid,experiment,0
35,85,19579,77,58,1,2,10,5,11.mid,experiment,0
36,87,20139,76,57,1,2,10,5,11.mid,experiment,0
37,89,20408,76,63,1,2,10,5,11.mid,experiment,0
38,91,20684,76,62,1,2,10,5,11.mid,experiment,0
39,93,20939,76,66,1,2,10,5,11.mid,experiment,0
40,95,21214,81,87,1,2,10,5,11.mid,experiment,0
41,96,21495,77,90,1,2,10,5,11.mid,experiment,0
42,98,21761,76,88,1,2,10,5,11.mid,experiment,0
43,100,22025,74,90,1,2,10,5,11.mid,experiment,0
44,102,22300,76,90,1,2,10,5,11.mid,experiment,0
45,104,22573,79,88,1,2,10,5,11.mid,experiment,0
46,106,22832,74,91,1,2,10,5,11.mid,experiment,0
47,108,23107,71,80,1,2,10,5,11.mid,experiment,0
48,111,23382,72,69,1,2,10,5,11.mid,experiment,0
49,113,23646,72,67,1,2,10,5,11.mid,experiment,0
50,115,23923,74,62,1,2,10,5,11.mid,experiment,0
51,117,24181,74,69,1,2,10,5,11.mid,experiment,0
52,119,24494,76,55,1,2,10,5,11.mid,experiment,0
53,121,25688,65,56,1,2,10,5,11.mid,experiment,0
54,123,25956,65,66,1,2,10,5,11.mid,experiment,0
55,125,26257,64,49,1,2,10,5,11.mid,experiment,0
56,127,26506,64,65,1,2,10,5,11.mid,experiment,0
57,129,26799,62,60,1,2,10,5,11.mid,experiment,0
58,131,27920,67,65,1,2,10,5,11.mid,experiment,0
59,133,28186,67,58,1,2,10,5,11.mid,experiment,0
60,135,28470,71,68,1,2,10,5,11.mid,experiment,0
61,137,28732,71,57,1,2,10,5,11.mid,experiment,0
62,139,28996,72,76,1,2,10,5,11.mid,experiment,0
63,141,29273,72,67,1,2,10,5,11.mid,experiment,0
64,143,29545,73,75,1,2,10,5,11.mid,experiment,0
65,145,29798,73,86,1,2,10,5,11.mid,experiment,0
66,147,30104,74,100,1,2,10,5,11.mid,experiment,0
67,149,30651,77,99,1,2,10,5,11.mid,experiment,0
68,151,31212,76,98,1,2,10,5,11.mid,experiment,0
69,153,31784,74,95,1,2,10,5,11.mid,experiment,0
70,155,32383,72,91,1,2,10,5,11.mid,experiment,0
71,157,33013,84,95,1,2,10,5,11.mid,experiment,0
72,159,33623,84,95,1,2,10,5,11.mid,experiment,0
1,17,7826,79,77,1,2,10,6,15.mid,experiment,0
2,18,8125,78,84,1,2,10,6,15.mid,experiment,0
3,20,8421,79,91,1,2,10,6,15.mid,experiment,0
4,22,8724,76,83,1,2,10,6,15.mid,experiment,0
5,23,9009,72,80,1,2,10,6,15.mid,experiment,0
6,27,9320,67,73,1,2,10,6,15.mid,experiment,0
7,29,9608,67,70,1,2,10,6,15.mid,experiment,0
8,31,9884,67,63,1,2,10,6,15.mid,experiment,0
9,33,10159,79,86,1,2,10,6,15.mid,experiment,0
10,34,10448,78,82,1,2,10,6,15.mid,experiment,0
11,36,10738,79,87,1,2,10,6,15.mid,experiment,0
12,38,11013,76,82,1,2,10,6,15.mid,experiment,0
13,40,11318,72,84,1,2,10,6,15.mid,experiment,0
14,42,11589,76,87,1,2,10,6,15.mid,experiment,0
15,44,11883,79,91,1,2,10,6,15.mid,experiment,0
16,46,12180,84,95,1,2,10,6,15.mid,experiment,0
17,48,12455,83,91,1,2,10,6,15.mid,experiment,0
18,51,12729,81,70,1,2,10,6,15.mid,experiment,0
19,53,13008,81,58,1,2,10,6,15.mid,experiment,0
20,55,13283,81,63,1,2,10,6,15.mid,experiment,0
21,57,13550,83,86,1,2,10,6,15.mid,experiment,0
22,58,13851,81,88,1,2,10,6,15.mid,experiment,0
23,60,14117,84,94,1,2,10,6,15.mid,experiment,0
24,62,14407,81,91,1,2,10,6,15.mid,experiment,0
25,64,14697,78,81,1,2,10,6,15.mid,experiment,0
26,67,14981,79,79,1,2,10,6,15.mid,experiment,0
27,69,15267,79,87,1,2,10,6,15.mid,experiment,0
28,71,15838,79,90,1,2,10,6,15.mid,experiment,0
29,73,17323,77,55,1,2,10,6,15.mid,experiment,0
30,75,17598,77,55,1,2,10,6,15.mid,experiment,0
31,77,17858,76,54,1,2,10,6,15.mid,experiment,0
32,79,18129,76,48,1,2,10,6,15.mid,experiment,0
33,81,18443,74,57,1,2,10,6,15.mid,experiment,0
34,83,19623,79,62,1,2,10,6,15.mid,experiment,0
35,85,20193,77,56,1,2,10,6,15.mid,experiment,0
36,87,20779,76,54,1,2,10,6,15.mid,experiment,0
37,89,21049,76,59,1,2,10,6,15.mid,experiment,0
38,91,21315,76,63,1,2,10,6,15.mid,experiment,0
39,93,21579,76,65,1,2,10,6,15.mid,experiment,0
40,95,21864,81,90,1,2,10,6,15.mid,experiment,0
41,96,22141,77,89,1,2,10,6,15.mid,experiment,0
42,98,22429,76,88,1,2,10,6,15.mid,experiment,0
43,100,22704,74,90,1,2,10,6,15.mid,experiment,0
44,102,22987,76,91,1,2,10,6,15.mid,experiment,0
45,104,23263,79,88,1,2,10,6,15.mid,experiment,0
46,106,23533,74,86,1,2,10,6,15.mid,experiment,0
47,108,23811,71,78,1,2,10,6,15.mid,experiment,0
48,111,24090,72,74,1,2,10,6,15.mid,experiment,0
49,113,24361,72,58,1,2,10,6,15.mid,experiment,0
50,115,24632,74,65,1,2,10,6,15.mid,experiment,0
51,117,24887,74,59,1,2,10,6,15.mid,experiment,0
52,119,25212,76,49,1,2,10,6,15.mid,experiment,0
53,121,26404,65,48,1,2,10,6,15.mid,experiment,0
54,123,26670,65,56,1,2,10,6,15.mid,experiment,0
55,125,26950,64,51,1,2,10,6,15.mid,experiment,0
56,127,27220,64,55,1,2,10,6,15.mid,experiment,0
57,129,27537,62,53,1,2,10,6,15.mid,experiment,0
58,131,28667,67,63,1,2,10,6,15.mid,experiment,0
59,133,28956,67,51,1,2,10,6,15.mid,experiment,0
60,135,29226,71,57,1,2,10,6,15.mid,experiment,0
61,137,29506,71,53,1,2,10,6,15.mid,experiment,0
62,139,29769,72,71,1,2,10,6,15.mid,experiment,0
63,141,30050,72,61,1,2,10,6,15.mid,experiment,0
64,143,30321,73,71,1,2,10,6,15.mid,experiment,0
65,145,30588,73,72,1,2,10,6,15.mid,experiment,0
66,147,30892,74,97,1,2,10,6,15.mid,experiment,0
67,149,31487,77,98,1,2,10,6,15.mid,experiment,0
68,151,32094,76,91,1,2,10,6,15.mid,experiment,0
69,153,32642,74,97,1,2,10,6,15.mid,experiment,0
70,155,33245,72,97,1,2,10,6,15.mid,experiment,0
71,157,33863,84,95,1,2,10,6,15.mid,experiment,0
72,159,34480,84,86,1,2,10,6,15.mid,experiment,0
1,17,7794,79,74,1,2,10,9,12.mid,experiment,0
2,18,8089,78,91,1,2,10,9,12.mid,experiment,0
3,20,8376,79,85,1,2,10,9,12.mid,experiment,0
4,22,8644,76,87,1,2,10,9,12.mid,experiment,0
5,24,8928,72,89,1,2,10,9,12.mid,experiment,0
6,27,9214,67,53,1,2,10,9,12.mid,experiment,0
7,29,9474,67,56,1,2,10,9,12.mid,experiment,0
8,31,9764,67,47,1,2,10,9,12.mid,experiment,0
9,33,10034,79,81,1,2,10,9,12.mid,experiment,0
10,34,10322,78,84,1,2,10,9,12.mid,experiment,0
11,36,10587,79,89,1,2,10,9,12.mid,experiment,0
12,38,10865,76,82,1,2,10,9,12.mid,experiment,0
13,40,11141,72,91,1,2,10,9,12.mid,experiment,0
14,42,11406,76,87,1,2,10,9,12.mid,experiment,0
15,44,11692,79,91,1,2,10,9,12.mid,experiment,0
16,46,11954,84,91,1,2,10,9,12.mid,experiment,0
17,48,12228,83,91,1,2,10,9,12.mid,experiment,0
18,51,12511,81,61,1,2,10,9,12.mid,experiment,0
19,53,12793,81,52,1,2,10,9,12.mid,experiment,0
20,55,13061,81,63,1,2,10,9,12.mid,experiment,0
21,57,13338,83,84,1,2,10,9,12.mid,experiment,0
22,58,13611,81,93,1,2,10,9,12.mid,experiment,0
23,60,13875,84,90,1,2,10,9,12.mid,experiment,0
24,62,14140,81,91,1,2,10,9,12.mid,experiment,0
25,64,14402,78,94,1,2,10,9,12.mid,experiment,0
26,66,14687,79,78,1,2,10,9,12.mid,experiment,0
27,69,14989,79,81,1,2,10,9,12.mid,experiment,0
28,71,15535,79,87,1,2,10,9,12.mid,experiment,0
29,73,16759,77,42,1,2,10,9,12.mid,experiment,0
30,75,17015,77,53,1,2,10,9,12.mid,experiment,0
31,77,17277,76,57,1,2,10,9,12.mid,experiment,0
32,79,17550,76,48,1,2,10,9,12.mid,experiment,0
33,81,17860,74,47,1,2,10,9,12.mid,experiment,0
34,83,18960,79,57,1,2,10,9,12.mid,experiment,0
35,85,19542,77,60,1,2,10,9,12.mid,experiment,0
36,87,20091,76,59,1,2,10,9,12.mid,experiment,0
37,89,20365,76,54,1,2,10,9,12.mid,experiment,0
38,91,20625,76,61,1,2,10,9,12.mid,experiment,0
39,93,20888,76,65,1,2,10,9,12.mid,experiment,0
40,95,21161,81,86,1,2,10,9,12.mid,experiment,0
41,96,21443,77,90,1,2,10,9,12.mid,experiment,0
42,98,21715,76,88,1,2,10,9,12.mid,experiment,0
43,100,21978,74,91,1,2,10,9,12.mid,experiment,0
44,102,22243,76,94,1,2,10,9,12.mid,experiment,0
45,104,22510,79,90,1,2,10,9,12.mid,experiment,0
46,106,22773,74,91,1,2,10,9,12.mid,experiment,0
47,108,23039,71,74,1,2,10,9,12.mid,experiment,0
48,111,23308,72,60,1,2,10,9,12.mid,experiment,0
49,113,23588,72,57,1,2,10,9,12.mid,experiment,0
50,115,23854,74,50,1,2,10,9,12.mid,experiment,0
51,117,24120,74,55,1,2,10,9,12.mid,experiment,0
52,119,24407,76,48,1,2,10,9,12.mid,experiment,0
53,121,25536,65,58,1,2,10,9,12.mid,experiment,0
54,123,25784,65,61,1,2,10,9,12.mid,experiment,0
55,125,26080,64,45,1,2,10,9,12.mid,experiment,0
56,127,26336,64,56,1,2,10,9,12.mid,experiment,0
57,129,26645,62,51,1,2,10,9,12.mid,experiment,0
58,131,27760,67,56,1,2,10,9,12.mid,experiment,0
59,133,28021,67,62,1,2,10,9,12.mid,experiment,0
60,135,28287,71,66,1,2,10,9,12.mid,experiment,0
61,137,28555,71,65,1,2,10,9,12.mid,experiment,0
62,139,28837,72,72,1,2,10,9,12.mid,experiment,0
63,141,29110,72,70,1,2,10,9,12.mid,experiment,0
64,143,29369,73,67,1,2,10,9,12.mid,experiment,0
65,145,29635,73,72,1,2,10,9,12.mid,experiment,0
66,147,29941,74,91,1,2,10,9,12.mid,experiment,0
67,149,30519,77,98,1,2,10,9,12.mid,experiment,0
68,151,31112,76,89,1,2,10,9,12.mid,experiment,0
69,153,31672,74,95,1,2,10,9,12.mid,experiment,0
70,155,32259,72,97,1,2,10,9,12.mid,experiment,0
71,157,32864,84,96,1,2,10,9,12.mid,experiment,0
72,159,33492,84,98,1,2,10,9,12.mid,experiment,0
1,17,7820,79,87,1,2,10,12,1.mid,experiment,0
2,18,8108,78,89,1,2,10,12,1.mid,experiment,0
3,20,8384,79,94,1,2,10,12,1.mid,experiment,0
4,22,8670,76,88,1,2,10,12,1.mid,experiment,0
5,24,8936,72,96,1,2,10,12,1.mid,experiment,0
6,27,9218,67,63,1,2,10,12,1.mid,experiment,0
7,29,9486,67,64,1,2,10,12,1.mid,experiment,0
8,31,9764,67,63,1,2,10,12,1.mid,experiment,0
9,33,10038,79,91,1,2,10,12,1.mid,experiment,0
10,34,10318,78,91,1,2,10,12,1.mid,experiment,0
11,36,10586,79,88,1,2,10,12,1.mid,experiment,0
12,38,10850,76,84,1,2,10,12,1.mid,experiment,0
13,41,11116,72,95,1,2,10,12,1.mid,experiment,0
14,42,11385,76,88,1,2,10,12,1.mid,experiment,0
15,44,11646,79,95,1,2,10,12,1.mid,experiment,0
16,46,11924,84,96,1,2,10,12,1.mid,experiment,0
17,48,12192,83,94,1,2,10,12,1.mid,experiment,0
18,51,12503,81,63,1,2,10,12,1.mid,experiment,0
19,53,12762,81,65,1,2,10,12,1.mid,experiment,0
20,55,13032,81,69,1,2,10,12,1.mid,experiment,0
21,57,13304,83,98,1,2,10,12,1.mid,experiment,0
22,58,13575,81,95,1,2,10,12,1.mid,experiment,0
23,60,13845,84,96,1,2,10,12,1.mid,experiment,0
24,62,14104,81,95,1,2,10,12,1.mid,experiment,0
25,64,14378,78,101,1,2,10,12,1.mid,experiment,0
26,66,14646,79,99,1,2,10,12,1.mid,experiment,0
27,69,14948,79,95,1,2,10,12,1.mid,experiment,0
28,71,15496,79,96,1,2,10,12,1.mid,experiment,0
29,73,16722,77,53,1,2,10,12,1.mid,experiment,0
30,75,17004,77,51,1,2,10,12,1.mid,experiment,0
31,77,17248,76,55,1,2,10,12,1.mid,experiment,0
32,79,17522,76,56,1,2,10,12,1.mid,experiment,0
33,81,17824,74,53,1,2,10,12,1.mid,experiment,0
34,83,18920,79,57,1,2,10,12,1.mid,experiment,0
35,85,19497,77,57,1,2,10,12,1.mid,experiment,0
36,87,20052,76,63,1,2,10,12,1.mid,experiment,0
37,89,20338,76,56,1,2,10,12,1.mid,experiment,0
38,91,20600,76,63,1,2,10,12,1.mid,experiment,0
39,93,20880,76,63,1,2,10,12,1.mid,experiment,0
40,95,21156,81,88,1,2,10,12,1.mid,experiment,0
41,96,21432,77,93,1,2,10,12,1.mid,experiment,0
42,98,21704,76,89,1,2,10,12,1.mid,experiment,0
43,100,21970,74,89,1,2,10,12,1.mid,experiment,0
44,102,22232,76,94,1,2,10,12,1.mid,experiment,0
45,104,22502,79,89,1,2,10,12,1.mid,experiment,0
46,106,22762,74,91,1,2,10,12,1.mid,experiment,0
47,108,23038,71,79,1,2,10,12,1.mid,experiment,0
48,111,23308,72,65,1,2,10,12,1.mid,experiment,0
49,113,23570,72,62,1,2,10,12,1.mid,experiment,0
50,115,23840,74,59,1,2,10,12,1.mid,experiment,0
51,117,24110,74,56,1,2,10,12,1.mid,experiment,0
52,119,24404,76,53,1,2,10,12,1.mid,experiment,0
53,121,25508,65,58,1,2,10,12,1.mid,experiment,0
54,123,25781,65,65,1,2,10,12,1.mid,experiment,0
55,125,26050,64,64,1,2,10,12,1.mid,experiment,0
56,127,26317,64,64,1,2,10,12,1.mid,experiment,0
57,129,26617,62,58,1,2,10,12,1.mid,experiment,0
58,131,27748,67,68,1,2,10,12,1.mid,experiment,0
59,133,28020,67,57,1,2,10,12,1.mid,experiment,0
60,135,28292,71,65,1,2,10,12,1.mid,experiment,0
61,137,28562,71,61,1,2,10,12,1.mid,experiment,0
62,139,28836,72,67,1,2,10,12,1.mid,experiment,0
63,141,29105,72,68,1,2,10,12,1.mid,experiment,0
64,143,29388,73,70,1,2,10,12,1.mid,experiment,0
65,145,29650,73,74,1,2,10,12,1.mid,experiment,0
66,147,29952,74,98,1,2,10,12,1.mid,experiment,0
67,149,30520,77,100,1,2,10,12,1.mid,experiment,0
68,151,31092,76,100,1,2,10,12,1.mid,experiment,0
69,153,31648,74,94,1,2,10,12,1.mid,experiment,0
70,155,32224,72,97,1,2,10,12,1.mid,experiment,0
71,157,32816,84,101,1,2,10,12,1.mid,experiment,0
72,159,33416,84,103,1,2,10,12,1.mid,experiment,0
1,17,7876,79,84,1,2,10,13,14.mid,experiment,0
2,18,8189,78,94,1,2,10,13,14.mid,experiment,0
3,20,8472,79,88,1,2,10,13,14.mid,experiment,0
4,22,8760,76,89,1,2,10,13,14.mid,experiment,0
5,24,9046,72,94,1,2,10,13,14.mid,experiment,0
6,27,9321,67,66,1,2,10,13,14.mid,experiment,0
7,29,9592,67,68,1,2,10,13,14.mid,experiment,0
8,31,9862,67,60,1,2,10,13,14.mid,experiment,0
9,33,10140,79,86,1,2,10,13,14.mid,experiment,0
10,34,10420,78,86,1,2,10,13,14.mid,experiment,0
11,36,10687,79,89,1,2,10,13,14.mid,experiment,0
12,38,10954,76,88,1,2,10,13,14.mid,experiment,0
13,40,11237,72,93,1,2,10,13,14.mid,experiment,0
14,42,11503,76,88,1,2,10,13,14.mid,experiment,0
15,44,11779,79,89,1,2,10,13,14.mid,experiment,0
16,46,12049,84,94,1,2,10,13,14.mid,experiment,0
17,48,12315,83,91,1,2,10,13,14.mid,experiment,0
18,51,12597,81,64,1,2,10,13,14.mid,experiment,0
19,53,12884,81,57,1,2,10,13,14.mid,experiment,0
20,55,13165,81,63,1,2,10,13,14.mid,experiment,0
21,57,13422,83,89,1,2,10,13,14.mid,experiment,0
22,58,13709,81,87,1,2,10,13,14.mid,experiment,0
23,60,13990,84,98,1,2,10,13,14.mid,experiment,0
24,62,14252,81,91,1,2,10,13,14.mid,experiment,0
25,64,14521,78,100,1,2,10,13,14.mid,experiment,0
26,66,14799,79,83,1,2,10,13,14.mid,experiment,0
27,69,15096,79,90,1,2,10,13,14.mid,experiment,0
28,71,15688,79,91,1,2,10,13,14.mid,experiment,0
29,73,16875,77,62,1,2,10,13,14.mid,experiment,0
30,75,17142,77,62,1,2,10,13,14.mid,experiment,0
31,77,17412,76,57,1,2,10,13,14.mid,experiment,0
32,79,17679,76,51,1,2,10,13,14.mid,experiment,0
33,81,17980,74,46,1,2,10,13,14.mid,experiment,0
34,83,19104,79,68,1,2,10,13,14.mid,experiment,0
35,85,19690,77,62,1,2,10,13,14.mid,experiment,0
36,87,20260,76,57,1,2,10,13,14.mid,experiment,0
37,89,20542,76,51,1,2,10,13,14.mid,experiment,0
38,91,20800,76,63,1,2,10,13,14.mid,experiment,0
39,93,21080,76,57,1,2,10,13,14.mid,experiment,0
40,95,21356,81,87,1,2,10,13,14.mid,experiment,0
41,96,21629,77,89,1,2,10,13,14.mid,experiment,0
42,98,21899,76,90,1,2,10,13,14.mid,experiment,0
43,100,22162,74,91,1,2,10,13,14.mid,experiment,0
44,102,22439,76,90,1,2,10,13,14.mid,experiment,0
45,104,22706,79,94,1,2,10,13,14.mid,experiment,0
46,106,22978,74,94,1,2,10,13,14.mid,experiment,0
47,108,23233,71,86,1,2,10,13,14.mid,experiment,0
48,111,23522,72,70,1,2,10,13,14.mid,experiment,0
49,113,23786,72,57,1,2,10,13,14.mid,experiment,0
50,115,24060,74,56,1,2,10,13,14.mid,experiment,0
51,117,24326,74,64,1,2,10,13,14.mid,experiment,0
52,119,24632,76,48,1,2,10,13,14.mid,experiment,0
53,121,25752,65,60,1,2,10,13,14.mid,experiment,0
54,123,26017,65,61,1,2,10,13,14.mid,experiment,0
55,125,26286,64,61,1,2,10,13,14.mid,experiment,0
56,127,26574,64,45,1,2,10,13,14.mid,experiment,0
57,129,26860,62,57,1,2,10,13,14.mid,experiment,0
58,131,27991,67,63,1,2,10,13,14.mid,experiment,0
59,133,28272,67,62,1,2,10,13,14.mid,experiment,0
60,135,28538,71,56,1,2,10,13,14.mid,experiment,0
61,137,28806,71,60,1,2,10,13,14.mid,experiment,0
62,139,29085,72,61,1,2,10,13,14.mid,experiment,0
63,141,29356,72,64,1,2,10,13,14.mid,experiment,0
64,143,29629,73,71,1,2,10,13,14.mid,experiment,0
65,145,29903,73,72,1,2,10,13,14.mid,experiment,0
66,147,30216,74,98,1,2,10,13,14.mid,experiment,0
67,149,30813,77,99,1,2,10,13,14.mid,experiment,0
68,151,31405,76,89,1,2,10,13,14.mid,experiment,0
69,153,31985,74,95,1,2,10,13,14.mid,experiment,0
70,155,32578,72,95,1,2,10,13,14.mid,experiment,0
71,157,33205,84,96,1,2,10,13,14.mid,experiment,0
72,159,33834,84,101,1,2,10,13,14.mid,experiment,0
1,17,7873,79,76,1,2,10,14,4.mid,experiment,0
2,18,8143,78,93,1,2,10,14,4.mid,experiment,0
3,20,8424,79,98,1,2,10,14,4.mid,experiment,0
4,22,8684,76,97,1,2,10,14,4.mid,experiment,0
5,24,8962,72,96,1,2,10,14,4.mid,experiment,0
6,27,9272,67,53,1,2,10,14,4.mid,experiment,0
7,29,9524,67,56,1,2,10,14,4.mid,experiment,0
8,31,9804,67,68,1,2,10,14,4.mid,experiment,0
9,33,10070,79,95,1,2,10,14,4.mid,experiment,0
10,34,10348,78,94,1,2,10,14,4.mid,experiment,0
11,36,10619,79,94,1,2,10,14,4.mid,experiment,0
12,38,10884,76,90,1,2,10,14,4.mid,experiment,0
13,41,11150,72,99,1,2,10,14,4.mid,experiment,0
14,42,11421,76,93,1,2,10,14,4.mid,experiment,0
15,44,11692,79,93,1,2,10,14,4.mid,experiment,0
16,46,11964,84,97,1,2,10,14,4.mid,experiment,0
17,48,12226,83,95,1,2,10,14,4.mid,experiment,0
18,51,12520,81,59,1,2,10,14,4.mid,experiment,0
19,53,12780,81,59,1,2,10,14,4.mid,experiment,0
20,55,13053,81,67,1,2,10,14,4.mid,experiment,0
21,57,13323,83,97,1,2,10,14,4.mid,experiment,0
22,58,13595,81,96,1,2,10,14,4.mid,experiment,0
23,60,13858,84,96,1,2,10,14,4.mid,experiment,0
24,62,14119,81,93,1,2,10,14,4.mid,experiment,0
25,64,14394,78,106,1,2,10,14,4.mid,experiment,0
26,66,14660,79,98,1,2,10,14,4.mid,experiment,0
27,69,14945,79,99,1,2,10,14,4.mid,experiment,0
28,71,15508,79,100,1,2,10,14,4.mid,experiment,0
29,73,16703,77,51,1,2,10,14,4.mid,experiment,0
30,75,16987,77,55,1,2,10,14,4.mid,experiment,0
31,77,17258,76,50,1,2,10,14,4.mid,experiment,0
32,79,17518,76,55,1,2,10,14,4.mid,experiment,0
33,81,17825,74,51,1,2,10,14,4.mid,experiment,0
34,83,18960,79,58,1,2,10,14,4.mid,experiment,0
35,85,19510,77,58,1,2,10,14,4.mid,experiment,0
36,87,20087,76,56,1,2,10,14,4.mid,experiment,0
37,89,20371,76,49,1,2,10,14,4.mid,experiment,0
38,91,20635,76,55,1,2,10,14,4.mid,experiment,0
39,93,20911,76,63,1,2,10,14,4.mid,experiment,0
40,95,21186,81,98,1,2,10,14,4.mid,experiment,0
41,96,21461,77,97,1,2,10,14,4.mid,experiment,0
42,98,21737,76,96,1,2,10,14,4.mid,experiment,0
43,100,21995,74,93,1,2,10,14,4.mid,experiment,0
44,102,22266,76,95,1,2,10,14,4.mid,experiment,0
45,104,22537,79,87,1,2,10,14,4.mid,experiment,0
46,106,22798,74,97,1,2,10,14,4.mid,experiment,0
47,108,23068,71,85,1,2,10,14,4.mid,experiment,0
48,111,23364,72,60,1,2,10,14,4.mid,experiment,0
49,113,23614,72,65,1,2,10,14,4.mid,experiment,0
50,115,23896,74,56,1,2,10,14,4.mid,experiment,0
51,117,24157,74,61,1,2,10,14,4.mid,experiment,0
52,119,24450,76,50,1,2,10,14,4.mid,experiment,0
53,121,25599,65,57,1,2,10,14,4.mid,experiment,0
54,123,25867,65,66,1,2,10,14,4.mid,experiment,0
55,125,26137,64,54,1,2,10,14,4.mid,experiment,0
56,127,26431,64,35,1,2,10,14,4.mid,experiment,0
57,129,26692,62,54,1,2,10,14,4.mid,experiment,0
58,131,27784,67,62,1,2,10,14,4.mid,experiment,0
59,133,28060,67,58,1,2,10,14,4.mid,experiment,0
60,135,28347,71,48,1,2,10,14,4.mid,experiment,0
61,137,28595,71,72,1,2,10,14,4.mid,experiment,0
62,139,28874,72,68,1,2,10,14,4.mid,experiment,0
63,141,29136,72,67,1,2,10,14,4.mid,experiment,0
64,143,29402,73,65,1,2,10,14,4.mid,experiment,0
65,145,29674,73,68,1,2,10,14,4.mid,experiment,0
66,147,29975,74,89,1,2,10,14,4.mid,experiment,0
67,149,30536,77,109,1,2,10,14,4.mid,experiment,0
68,151,31124,76,101,1,2,10,14,4.mid,experiment,0
69,153,31693,74,100,1,2,10,14,4.mid,experiment,0
70,155,32291,72,101,1,2,10,14,4.mid,experiment,0
71,157,32871,84,104,1,2,10,14,4.mid,experiment,0
72,159,33496,84,103,1,2,10,14,4.mid,experiment,0
1,17,7772,79,97,1,2,10,15,16.mid,experiment,0
2,18,8069,78,94,1,2,10,15,16.mid,experiment,0
3,20,8352,79,90,1,2,10,15,16.mid,experiment,0
4,22,8620,76,82,1,2,10,15,16.mid,experiment,0
5,24,8906,72,81,1,2,10,15,16.mid,experiment,0
6,27,9190,67,56,1,2,10,15,16.mid,experiment,0
7,29,9466,67,65,1,2,10,15,16.mid,experiment,0
8,31,9738,67,66,1,2,10,15,16.mid,experiment,0
9,33,10010,79,96,1,2,10,15,16.mid,experiment,0
10,34,10295,78,90,1,2,10,15,16.mid,experiment,0
11,36,10572,79,85,1,2,10,15,16.mid,experiment,0
12,38,10840,76,87,1,2,10,15,16.mid,experiment,0
13,41,11115,72,93,1,2,10,15,16.mid,experiment,0
14,42,11380,76,93,1,2,10,15,16.mid,experiment,0
15,44,11650,79,94,1,2,10,15,16.mid,experiment,0
16,46,11911,84,95,1,2,10,15,16.mid,experiment,0
17,48,12178,83,91,1,2,10,15,16.mid,experiment,0
18,51,12464,81,63,1,2,10,15,16.mid,experiment,0
19,53,12742,81,58,1,2,10,15,16.mid,experiment,0
20,55,13027,81,61,1,2,10,15,16.mid,experiment,0
21,57,13300,83,96,1,2,10,15,16.mid,experiment,0
22,58,13572,81,94,1,2,10,15,16.mid,experiment,0
23,60,13844,84,97,1,2,10,15,16.mid,experiment,0
24,62,14120,81,85,1,2,10,15,16.mid,experiment,0
25,64,14376,78,97,1,2,10,15,16.mid,experiment,0
26,66,14632,79,91,1,2,10,15,16.mid,experiment,0
27,69,14932,79,87,1,2,10,15,16.mid,experiment,0
28,71,15462,79,94,1,2,10,15,16.mid,experiment,0
29,73,16594,77,48,1,2,10,15,16.mid,experiment,0
30,75,16876,77,53,1,2,10,15,16.mid,experiment,0
31,77,17140,76,42,1,2,10,15,16.mid,experiment,0
32,79,17410,76,51,1,2,10,15,16.mid,experiment,0
33,81,17706,74,51,1,2,10,15,16.mid,experiment,0
34,83,18816,79,66,1,2,10,15,16.mid,experiment,0
35,85,19382,77,60,1,2,10,15,16.mid,experiment,0
36,87,19944,76,49,1,2,10,15,16.mid,experiment,0
37,89,20224,76,52,1,2,10,15,16.mid,experiment,0
38,91,20480,76,66,1,2,10,15,16.mid,experiment,0
39,93,20748,76,67,1,2,10,15,16.mid,experiment,0
40,95,21038,81,93,1,2,10,15,16.mid,experiment,0
41,96,21300,77,91,1,2,10,15,16.mid,experiment,0
42,98,21578,76,85,1,2,10,15,16.mid,experiment,0
43,100,21832,74,90,1,2,10,15,16.mid,experiment,0
44,102,22100,76,90,1,2,10,15,16.mid,experiment,0
45,104,22352,79,91,1,2,10,15,16.mid,experiment,0
46,106,22624,74,95,1,2,10,15,16.mid,experiment,0
47,108,22874,71,78,1,2,10,15,16.mid,experiment,0
48,111,23148,72,62,1,2,10,15,16.mid,experiment,0
49,113,23422,72,54,1,2,10,15,16.mid,experiment,0
50,115,23699,74,55,1,2,10,15,16.mid,experiment,0
51,117,23942,74,62,1,2,10,15,16.mid,experiment,0
52,119,24244,76,52,1,2,10,15,16.mid,experiment,0
53,121,25704,65,62,1,2,10,15,16.mid,experiment,0
54,123,25964,65,66,1,2,10,15,16.mid,experiment,0
55,125,26232,64,53,1,2,10,15,16.mid,experiment,0
56,127,26497,64,58,1,2,10,15,16.mid,experiment,0
57,129,26784,62,55,1,2,10,15,16.mid,experiment,0
58,131,27908,67,62,1,2,10,15,16.mid,experiment,0
59,133,28173,67,63,1,2,10,15,16.mid,experiment,0
60,135,28446,71,67,1,2,10,15,16.mid,experiment,0
61,137,28694,71,70,1,2,10,15,16.mid,experiment,0
62,139,28978,72,68,1,2,10,15,16.mid,experiment,0
63,141,29248,72,63,1,2,10,15,16.mid,experiment,0
64,143,29522,73,71,1,2,10,15,16.mid,experiment,0
65,145,29788,73,73,1,2,10,15,16.mid,experiment,0
66,147,30100,74,96,1,2,10,15,16.mid,experiment,0
67,149,30698,77,103,1,2,10,15,16.mid,experiment,0
68,151,31278,76,95,1,2,10,15,16.mid,experiment,0
69,153,31832,74,100,1,2,10,15,16.mid,experiment,0
70,155,32444,72,98,1,2,10,15,16.mid,experiment,0
71,157,33064,84,98,1,2,10,15,16.mid,experiment,0
72,159,33683,84,99,1,2,10,15,16.mid,experiment,0
1,17,7818,79,86,1,2,10,16,5.mid,experiment,0
2,18,8108,78,88,1,2,10,16,5.mid,experiment,0
3,20,8370,79,91,1,2,10,16,5.mid,experiment,0
4,22,8638,76,89,1,2,10,16,5.mid,experiment,0
5,24,8900,72,91,1,2,10,16,5.mid,experiment,0
6,27,9194,67,55,1,2,10,16,5.mid,experiment,0
7,29,9462,67,59,1,2,10,16,5.mid,experiment,0
8,31,9732,67,59,1,2,10,16,5.mid,experiment,0
9,33,10009,79,93,1,2,10,16,5.mid,experiment,0
10,34,10288,78,96,1,2,10,16,5.mid,experiment,0
11,36,10566,79,81,1,2,10,16,5.mid,experiment,0
12,38,10832,76,89,1,2,10,16,5.mid,experiment,0
13,40,11112,72,97,1,2,10,16,5.mid,experiment,0
14,42,11384,76,97,1,2,10,16,5.mid,experiment,0
15,44,11652,79,95,1,2,10,16,5.mid,experiment,0
16,46,11924,84,98,1,2,10,16,5.mid,experiment,0
17,48,12190,83,96,1,2,10,16,5.mid,experiment,0
18,51,12480,81,59,1,2,10,16,5.mid,experiment,0
19,53,12748,81,62,1,2,10,16,5.mid,experiment,0
20,55,13024,81,63,1,2,10,16,5.mid,experiment,0
21,57,13304,83,98,1,2,10,16,5.mid,experiment,0
22,58,13576,81,100,1,2,10,16,5.mid,experiment,0
23,60,13842,84,100,1,2,10,16,5.mid,experiment,0
24,62,14108,81,90,1,2,10,16,5.mid,experiment,0
25,64,14386,78,100,1,2,10,16,5.mid,experiment,0
26,66,14660,79,94,1,2,10,16,5.mid,experiment,0
27,69,14952,79,97,1,2,10,16,5.mid,experiment,0
28,71,15524,79,98,1,2,10,16,5.mid,experiment,0
29,73,16702,77,56,1,2,10,16,5.mid,experiment,0
30,75,16978,77,57,1,2,10,16,5.mid,experiment,0
31,77,17238,76,54,1,2,10,16,5.mid,experiment,0
32,79,17504,76,54,1,2,10,16,5.mid,experiment,0
33,81,17810,74,51,1,2,10,16,5.mid,experiment,0
34,83,18898,79,59,1,2,10,16,5.mid,experiment,0
35,85,19466,77,59,1,2,10,16,5.mid,experiment,0
36,87,20026,76,63,1,2,10,16,5.mid,experiment,0
37,89,20288,76,59,1,2,10,16,5.mid,experiment,0
38,91,20571,76,56,1,2,10,16,5.mid,experiment,0
39,93,20836,76,63,1,2,10,16,5.mid,experiment,0
40,95,21125,81,93,1,2,10,16,5.mid,experiment,0
41,96,21400,77,95,1,2,10,16,5.mid,experiment,0
42,98,21679,76,91,1,2,10,16,5.mid,experiment,0
43,100,21933,74,98,1,2,10,16,5.mid,experiment,0
44,102,22213,76,84,1,2,10,16,5.mid,experiment,0
45,104,22467,79,93,1,2,10,16,5.mid,experiment,0
46,106,22732,74,94,1,2,10,16,5.mid,experiment,0
47,108,23012,71,72,1,2,10,16,5.mid,experiment,0
48,111,23292,72,65,1,2,10,16,5.mid,experiment,0
49,113,23551,72,60,1,2,10,16,5.mid,experiment,0
50,115,23822,74,65,1,2,10,16,5.mid,experiment,0
51,117,24084,74,61,1,2,10,16,5.mid,experiment,0
52,119,24386,76,52,1,2,10,16,5.mid,experiment,0
53,121,25566,65,63,1,2,10,16,5.mid,experiment,0
54,123,25842,65,60,1,2,10,16,5.mid,experiment,0
55,125,26114,64,57,1,2,10,16,5.mid,experiment,0
56,127,26373,64,61,1,2,10,16,5.mid,experiment,0
57,129,26662,62,60,1,2,10,16,5.mid,experiment,0
58,131,27795,67,52,1,2,10,16,5.mid,experiment,0
59,133,28066,67,60,1,2,10,16,5.mid,experiment,0
60,135,28326,71,60,1,2,10,16,5.mid,experiment,0
61,137,28608,71,65,1,2,10,16,5.mid,experiment,0
62,139,28892,72,61,1,2,10,16,5.mid,experiment,0
63,141,29167,72,60,1,2,10,16,5.mid,experiment,0
64,143,29436,73,65,1,2,10,16,5.mid,experiment,0
65,145,29701,73,68,1,2,10,16,5.mid,experiment,0
66,147,30034,74,95,1,2,10,16,5.mid,experiment,0
67,149,30628,77,101,1,2,10,16,5.mid,experiment,0
68,151,31228,76,103,1,2,10,16,5.mid,experiment,0
69,153,31782,74,105,1,2,10,16,5.mid,experiment,0
70,155,32390,72,96,1,2,10,16,5.mid,experiment,0
71,157,33024,84,97,1,2,10,16,5.mid,experiment,0
72,159,33674,84,99,1,2,10,16,5.mid,experiment,0
1,17,7809,79,99,1,2,11,1,12.mid,experiment,0
2,18,8100,78,90,1,2,11,1,12.mid,experiment,0
3,20,8363,79,98,1,2,11,1,12.mid,experiment,0
4,22,8623,76,106,1,2,11,1,12.mid,experiment,0
5,24,8905,72,97,1,2,11,1,12.mid,experiment,0
6,27,9211,67,62,1,2,11,1,12.mid,experiment,0
7,29,9463,67,49,1,2,11,1,12.mid,experiment,0
8,31,9729,67,47,1,2,11,1,12.mid,experiment,0
9,33,9977,79,91,1,2,11,1,12.mid,experiment,0
10,34,10242,78,88,1,2,11,1,12.mid,experiment,0
11,36,10507,79,90,1,2,11,1,12.mid,experiment,0
12,38,10773,76,85,1,2,11,1,12.mid,experiment,0
13,40,11037,72,91,1,2,11,1,12.mid,experiment,0
14,42,11293,76,90,1,2,11,1,12.mid,experiment,0
15,44,11535,79,94,1,2,11,1,12.mid,experiment,0
16,46,11791,84,100,1,2,11,1,12.mid,experiment,0
17,48,12045,83,77,1,2,11,1,12.mid,experiment,0
18,51,12325,81,56,1,2,11,1,12.mid,experiment,0
19,53,12571,81,53,1,2,11,1,12.mid,experiment,0
20,55,12803,81,50,1,2,11,1,12.mid,experiment,0
21,57,13099,83,91,1,2,11,1,12.mid,experiment,0
22,58,13371,81,96,1,2,11,1,12.mid,experiment,0
23,60,13619,84,100,1,2,11,1,12.mid,experiment,0
24,62,13873,81,94,1,2,11,1,12.mid,experiment,0
25,64,14127,78,97,1,2,11,1,12.mid,experiment,0
26,66,14367,79,100,1,2,11,1,12.mid,experiment,0
27,69,14635,79,115,1,2,11,1,12.mid,experiment,0
28,71,15181,79,106,1,2,11,1,12.mid,experiment,0
29,73,16327,77,54,1,2,11,1,12.mid,experiment,0
30,75,16589,77,53,1,2,11,1,12.mid,experiment,0
31,77,16833,76,52,1,2,11,1,12.mid,experiment,0
32,79,17079,76,60,1,2,11,1,12.mid,experiment,0
33,81,17382,74,53,1,2,11,1,12.mid,experiment,0
34,83,18453,79,50,1,2,11,1,12.mid,experiment,0
35,85,18991,77,68,1,2,11,1,12.mid,experiment,0
36,87,19548,76,60,1,2,11,1,12.mid,experiment,0
37,89,19823,76,63,1,2,11,1,12.mid,experiment,0
38,91,20071,76,70,1,2,11,1,12.mid,experiment,0
39,93,20307,76,85,1,2,11,1,12.mid,experiment,0
40,95,20591,81,95,1,2,11,1,12.mid,experiment,0
41,96,20855,77,95,1,2,11,1,12.mid,experiment,0
42,98,21101,76,105,1,2,11,1,12.mid,experiment,0
43,100,21349,74,96,1,2,11,1,12.mid,experiment,0
44,102,21626,76,105,1,2,11,1,12.mid,experiment,0
45,104,21867,79,94,1,2,11,1,12.mid,experiment,0
46,106,22122,74,103,1,2,11,1,12.mid,experiment,0
47,108,22367,71,77,1,2,11,1,12.mid,experiment,0
48,111,22661,72,69,1,2,11,1,12.mid,experiment,0
49,113,22919,72,62,1,2,11,1,12.mid,experiment,0
50,115,23153,74,70,1,2,11,1,12.mid,experiment,0
51,117,23417,74,58,1,2,11,1,12.mid,experiment,0
52,119,23761,76,43,1,2,11,1,12.mid,experiment,0
53,121,24829,65,58,1,2,11,1,12.mid,experiment,0
54,123,25079,65,65,1,2,11,1,12.mid,experiment,0
55,125,25345,64,50,1,2,11,1,12.mid,experiment,0
56,127,25579,64,63,1,2,11,1,12.mid,experiment,0
57,129,25903,62,50,1,2,11,1,12.mid,experiment,0
58,131,26929,67,54,1,2,11,1,12.mid,experiment,0
59,133,27167,67,70,1,2,11,1,12.mid,experiment,0
60,135,27432,71,53,1,2,11,1,12.mid,experiment,0
61,137,27675,71,63,1,2,11,1,12.mid,experiment,0
62,139,27935,72,70,1,2,11,1,12.mid,experiment,0
63,141,28169,72,75,1,2,11,1,12.mid,experiment,0
64,143,28403,73,81,1,2,11,1,12.mid,experiment,0
65,145,28643,73,82,1,2,11,1,12.mid,experiment,0
66,147,28898,74,93,1,2,11,1,12.mid,experiment,0
67,149,29417,77,95,1,2,11,1,12.mid,experiment,0
68,151,29939,76,110,1,2,11,1,12.mid,experiment,0
69,153,30459,74,115,1,2,11,1,12.mid,experiment,0
70,155,30987,72,119,1,2,11,1,12.mid,experiment,0
71,157,31543,84,124,1,2,11,1,12.mid,experiment,0
72,159,32097,84,124,1,2,11,1,12.mid,experiment,0
1,17,7776,79,66,1,2,11,2,11.mid,experiment,0
2,18,8043,78,76,1,2,11,2,11.mid,experiment,0
3,20,8318,79,82,1,2,11,2,11.mid,experiment,0
4,22,8594,76,75,1,2,11,2,11.mid,experiment,0
5,24,8878,72,67,1,2,11,2,11.mid,experiment,0
6,27,9168,67,53,1,2,11,2,11.mid,experiment,0
7,29,9428,67,49,1,2,11,2,11.mid,experiment,0
8,31,9690,67,58,1,2,11,2,11.mid,experiment,0
9,33,10025,79,56,1,2,11,2,11.mid,experiment,0
10,34,10297,78,73,1,2,11,2,11.mid,experiment,0
11,36,10568,79,78,1,2,11,2,11.mid,experiment,0
12,38,10827,76,66,1,2,11,2,11.mid,experiment,0
13,41,11128,72,66,1,2,11,2,11.mid,experiment,0
14,42,11393,76,73,1,2,11,2,11.mid,experiment,0
15,44,11634,79,81,1,2,11,2,11.mid,experiment,0
16,46,11884,84,82,1,2,11,2,11.mid,experiment,0
17,48,12169,83,70,1,2,11,2,11.mid,experiment,0
18,51,12483,81,55,1,2,11,2,11.mid,experiment,0
19,53,12744,81,56,1,2,11,2,11.mid,experiment,0
20,55,12997,81,63,1,2,11,2,11.mid,experiment,0
21,57,13228,83,87,1,2,11,2,11.mid,experiment,0
22,58,13499,81,91,1,2,11,2,11.mid,experiment,0
23,60,13758,84,95,1,2,11,2,11.mid,experiment,0
24,62,13996,81,80,1,2,11,2,11.mid,experiment,0
25,64,14269,78,84,1,2,11,2,11.mid,experiment,0
26,66,14543,79,74,1,2,11,2,11.mid,experiment,0
27,69,14804,79,63,1,2,11,2,11.mid,experiment,0
28,71,15336,79,56,1,2,11,2,11.mid,experiment,0
29,73,16540,77,50,1,2,11,2,11.mid,experiment,0
30,75,16811,77,55,1,2,11,2,11.mid,experiment,0
31,77,17064,76,52,1,2,11,2,11.mid,experiment,0
32,79,17318,76,54,1,2,11,2,11.mid,experiment,0
33,81,17663,74,53,1,2,11,2,11.mid,experiment,0
34,83,18797,79,49,1,2,11,2,11.mid,experiment,0
35,85,19334,77,55,1,2,11,2,11.mid,experiment,0
36,87,19902,76,42,1,2,11,2,11.mid,experiment,0
37,89,20168,76,46,1,2,11,2,11.mid,experiment,0
38,91,20424,76,63,1,2,11,2,11.mid,experiment,0
39,93,20680,76,75,1,2,11,2,11.mid,experiment,0
40,95,20989,81,81,1,2,11,2,11.mid,experiment,0
41,96,21287,77,83,1,2,11,2,11.mid,experiment,0
42,98,21536,76,94,1,2,11,2,11.mid,experiment,0
43,100,21779,74,91,1,2,11,2,11.mid,experiment,0
44,102,22048,76,84,1,2,11,2,11.mid,experiment,0
45,104,22322,79,79,1,2,11,2,11.mid,experiment,0
46,106,22578,74,88,1,2,11,2,11.mid,experiment,0
47,108,22833,71,64,1,2,11,2,11.mid,experiment,0
48,111,23103,72,63,1,2,11,2,11.mid,experiment,0
49,113,23368,72,57,1,2,11,2,11.mid,experiment,0
50,115,23633,74,56,1,2,11,2,11.mid,experiment,0
51,117,23901,74,55,1,2,11,2,11.mid,experiment,0
52,119,24257,76,31,1,2,11,2,11.mid,experiment,0
53,121,25438,65,54,1,2,11,2,11.mid,experiment,0
54,123,25699,65,62,1,2,11,2,11.mid,experiment,0
55,125,25971,64,52,1,2,11,2,11.mid,experiment,0
56,127,26232,64,51,1,2,11,2,11.mid,experiment,0
57,129,26569,62,40,1,2,11,2,11.mid,experiment,0
58,131,27683,67,45,1,2,11,2,11.mid,experiment,0
59,133,27940,67,52,1,2,11,2,11.mid,experiment,0
60,135,28202,71,62,1,2,11,2,11.mid,experiment,0
61,137,28462,71,58,1,2,11,2,11.mid,experiment,0
62,139,28719,72,76,1,2,11,2,11.mid,experiment,0
63,141,28976,72,81,1,2,11,2,11.mid,experiment,0
64,143,29234,73,97,1,2,11,2,11.mid,experiment,0
65,145,29482,73,97,1,2,11,2,11.mid,experiment,0
66,147,29765,74,105,1,2,11,2,11.mid,experiment,0
67,149,30281,77,98,1,2,11,2,11.mid,experiment,0
68,151,30808,76,105,1,2,11,2,11.mid,experiment,0
69,153,31356,74,107,1,2,11,2,11.mid,experiment,0
70,155,31912,72,105,1,2,11,2,11.mid,experiment,0
71,157,32511,84,109,1,2,11,2,11.mid,experiment,0
72,159,33155,84,112,1,2,11,2,11.mid,experiment,0
1,17,7855,79,81,1,2,11,3,3.mid,experiment,0
2,18,8136,78,78,1,2,11,3,3.mid,experiment,0
3,20,8421,79,86,1,2,11,3,3.mid,experiment,0
4,22,8689,76,71,1,2,11,3,3.mid,experiment,0
5,25,8975,72,59,1,2,11,3,3.mid,experiment,0
6,27,9259,67,56,1,2,11,3,3.mid,experiment,0
7,29,9519,67,53,1,2,11,3,3.mid,experiment,0
8,31,9773,67,58,1,2,11,3,3.mid,experiment,0
9,33,10067,79,60,1,2,11,3,3.mid,experiment,0
10,34,10346,78,70,1,2,11,3,3.mid,experiment,0
11,36,10629,79,72,1,2,11,3,3.mid,experiment,0
12,38,10879,76,68,1,2,11,3,3.mid,experiment,0
13,40,11151,72,75,1,2,11,3,3.mid,experiment,0
14,42,11418,76,83,1,2,11,3,3.mid,experiment,0
15,44,11673,79,91,1,2,11,3,3.mid,experiment,0
16,46,11934,84,96,1,2,11,3,3.mid,experiment,0
17,48,12208,83,75,1,2,11,3,3.mid,experiment,0
18,51,12482,81,67,1,2,11,3,3.mid,experiment,0
19,53,12738,81,71,1,2,11,3,3.mid,experiment,0
20,55,12985,81,71,1,2,11,3,3.mid,experiment,0
21,57,13307,83,74,1,2,11,3,3.mid,experiment,0
22,58,13573,81,90,1,2,11,3,3.mid,experiment,0
23,60,13841,84,101,1,2,11,3,3.mid,experiment,0
24,62,14088,81,94,1,2,11,3,3.mid,experiment,0
25,64,14374,78,98,1,2,11,3,3.mid,experiment,0
26,66,14650,79,81,1,2,11,3,3.mid,experiment,0
27,69,14921,79,72,1,2,11,3,3.mid,experiment,0
28,71,15449,79,70,1,2,11,3,3.mid,experiment,0
29,73,16559,77,49,1,2,11,3,3.mid,experiment,0
30,75,16832,77,51,1,2,11,3,3.mid,experiment,0
31,77,17094,76,46,1,2,11,3,3.mid,experiment,0
32,79,17356,76,44,1,2,11,3,3.mid,experiment,0
33,81,17681,74,35,1,2,11,3,3.mid,experiment,0
34,83,18846,79,39,1,2,11,3,3.mid,experiment,0
35,85,19406,77,49,1,2,11,3,3.mid,experiment,0
36,87,19954,76,34,1,2,11,3,3.mid,experiment,0
37,89,20249,76,35,1,2,11,3,3.mid,experiment,0
38,91,20493,76,53,1,2,11,3,3.mid,experiment,0
39,93,20738,76,62,1,2,11,3,3.mid,experiment,0
40,95,21040,81,79,1,2,11,3,3.mid,experiment,0
41,96,21321,77,94,1,2,11,3,3.mid,experiment,0
42,98,21577,76,93,1,2,11,3,3.mid,experiment,0
43,100,21825,74,85,1,2,11,3,3.mid,experiment,0
44,102,22119,76,90,1,2,11,3,3.mid,experiment,0
45,104,22366,79,91,1,2,11,3,3.mid,experiment,0
46,106,22630,74,88,1,2,11,3,3.mid,experiment,0
47,108,22877,71,81,1,2,11,3,3.mid,experiment,0
48,111,23192,72,62,1,2,11,3,3.mid,experiment,0
49,113,23458,72,52,1,2,11,3,3.mid,experiment,0
50,115,23682,74,56,1,2,11,3,3.mid,experiment,0
51,117,23934,74,53,1,2,11,3,3.mid,experiment,0
52,119,24247,76,42,1,2,11,3,3.mid,experiment,0
53,121,25454,65,43,1,2,11,3,3.mid,experiment,0
54,123,25688,65,56,1,2,11,3,3.mid,experiment,0
55,125,25990,64,41,1,2,11,3,3.mid,experiment,0
56,127,26249,64,48,1,2,11,3,3.mid,experiment,0
57,129,26623,62,42,1,2,11,3,3.mid,experiment,0
58,131,27774,67,46,1,2,11,3,3.mid,experiment,0
59,133,28018,67,59,1,2,11,3,3.mid,experiment,0
60,135,28304,71,33,1,2,11,3,3.mid,experiment,0
61,137,28529,71,51,1,2,11,3,3.mid,experiment,0
62,139,28799,72,70,1,2,11,3,3.mid,experiment,0
63,141,29047,72,75,1,2,11,3,3.mid,experiment,0
64,143,29292,73,91,1,2,11,3,3.mid,experiment,0
65,145,29542,73,97,1,2,11,3,3.mid,experiment,0
66,147,29822,74,112,1,2,11,3,3.mid,experiment,0
67,149,30359,77,106,1,2,11,3,3.mid,experiment,0
68,151,30933,76,107,1,2,11,3,3.mid,experiment,0
69,153,31471,74,112,1,2,11,3,3.mid,experiment,0
70,155,32000,72,121,1,2,11,3,3.mid,experiment,0
71,157,32576,84,114,1,2,11,3,3.mid,experiment,0
72,159,33215,84,124,1,2,11,3,3.mid,experiment,0
1,17,7905,79,57,1,2,11,5,7.mid,experiment,0
2,18,8170,78,71,1,2,11,5,7.mid,experiment,0
3,20,8464,79,81,1,2,11,5,7.mid,experiment,0
4,22,8736,76,76,1,2,11,5,7.mid,experiment,0
5,24,9014,72,61,1,2,11,5,7.mid,experiment,0
6,27,9317,67,64,1,2,11,5,7.mid,experiment,0
7,29,9562,67,75,1,2,11,5,7.mid,experiment,0
8,31,9841,67,67,1,2,11,5,7.mid,experiment,0
9,33,10149,79,56,1,2,11,5,7.mid,experiment,0
10,34,10429,78,75,1,2,11,5,7.mid,experiment,0
11,36,10735,79,79,1,2,11,5,7.mid,experiment,0
12,38,11015,76,68,1,2,11,5,7.mid,experiment,0
13,40,11279,72,70,1,2,11,5,7.mid,experiment,0
14,42,11534,76,74,1,2,11,5,7.mid,experiment,0
15,44,11795,79,79,1,2,11,5,7.mid,experiment,0
16,46,12055,84,75,1,2,11,5,7.mid,experiment,0
17,48,12296,83,75,1,2,11,5,7.mid,experiment,0
18,51,12615,81,78,1,2,11,5,7.mid,experiment,0
19,53,12868,81,95,1,2,11,5,7.mid,experiment,0
20,55,13117,81,100,1,2,11,5,7.mid,experiment,0
21,57,13431,83,70,1,2,11,5,7.mid,experiment,0
22,58,13707,81,89,1,2,11,5,7.mid,experiment,0
23,60,13969,84,97,1,2,11,5,7.mid,experiment,0
24,62,14219,81,96,1,2,11,5,7.mid,experiment,0
25,64,14495,78,98,1,2,11,5,7.mid,experiment,0
26,66,14748,79,90,1,2,11,5,7.mid,experiment,0
27,69,15010,79,97,1,2,11,5,7.mid,experiment,0
28,71,15574,79,91,1,2,11,5,7.mid,experiment,0
29,73,16732,77,57,1,2,11,5,7.mid,experiment,0
30,75,16989,77,68,1,2,11,5,7.mid,experiment,0
31,77,17233,76,68,1,2,11,5,7.mid,experiment,0
32,79,17498,76,65,1,2,11,5,7.mid,experiment,0
33,81,17776,74,57,1,2,11,5,7.mid,experiment,0
34,83,18887,79,53,1,2,11,5,7.mid,experiment,0
35,85,19420,77,52,1,2,11,5,7.mid,experiment,0
36,87,19966,76,59,1,2,11,5,7.mid,experiment,0
37,89,20229,76,64,1,2,11,5,7.mid,experiment,0
38,91,20482,76,72,1,2,11,5,7.mid,experiment,0
39,93,20737,76,56,1,2,11,5,7.mid,experiment,0
40,95,21002,81,79,1,2,11,5,7.mid,experiment,0
41,96,21287,77,91,1,2,11,5,7.mid,experiment,0
42,98,21553,76,94,1,2,11,5,7.mid,experiment,0
43,100,21818,74,95,1,2,11,5,7.mid,experiment,0
44,102,22085,76,89,1,2,11,5,7.mid,experiment,0
45,104,22324,79,81,1,2,11,5,7.mid,experiment,0
46,106,22595,74,96,1,2,11,5,7.mid,experiment,0
47,108,22856,71,66,1,2,11,5,7.mid,experiment,0
48,111,23138,72,62,1,2,11,5,7.mid,experiment,0
49,113,23394,72,66,1,2,11,5,7.mid,experiment,0
50,115,23654,74,56,1,2,11,5,7.mid,experiment,0
51,117,23917,74,68,1,2,11,5,7.mid,experiment,0
52,119,24231,76,50,1,2,11,5,7.mid,experiment,0
53,121,25402,65,52,1,2,11,5,7.mid,experiment,0
54,123,25659,65,59,1,2,11,5,7.mid,experiment,0
55,125,25923,64,60,1,2,11,5,7.mid,experiment,0
56,127,26177,64,59,1,2,11,5,7.mid,experiment,0
57,129,26477,62,52,1,2,11,5,7.mid,experiment,0
58,131,27637,67,47,1,2,11,5,7.mid,experiment,0
59,133,27883,67,56,1,2,11,5,7.mid,experiment,0
60,135,28157,71,60,1,2,11,5,7.mid,experiment,0
61,137,28408,71,71,1,2,11,5,7.mid,experiment,0
62,139,28663,72,81,1,2,11,5,7.mid,experiment,0
63,141,28909,72,85,1,2,11,5,7.mid,experiment,0
64,143,29163,73,100,1,2,11,5,7.mid,experiment,0
65,145,29409,73,106,1,2,11,5,7.mid,experiment,0
66,147,29681,74,124,1,2,11,5,7.mid,experiment,0
67,149,30223,77,109,1,2,11,5,7.mid,experiment,0
68,151,30773,76,106,1,2,11,5,7.mid,experiment,0
69,153,31315,74,109,1,2,11,5,7.mid,experiment,0
70,155,31892,72,103,1,2,11,5,7.mid,experiment,0
71,157,32481,84,110,1,2,11,5,7.mid,experiment,0
72,159,33123,84,109,1,2,11,5,7.mid,experiment,0
1,17,7887,79,53,1,2,11,6,9.mid,experiment,0
2,18,8152,78,76,1,2,11,6,9.mid,experiment,0
3,20,8430,79,78,1,2,11,6,9.mid,experiment,0
4,22,8693,76,89,1,2,11,6,9.mid,experiment,0
5,24,8970,72,75,1,2,11,6,9.mid,experiment,0
6,27,9265,67,55,1,2,11,6,9.mid,experiment,0
7,29,9526,67,55,1,2,11,6,9.mid,experiment,0
8,31,9794,67,54,1,2,11,6,9.mid,experiment,0
9,33,10067,79,71,1,2,11,6,9.mid,experiment,0
10,34,10331,78,75,1,2,11,6,9.mid,experiment,0
11,36,10600,79,61,1,2,11,6,9.mid,experiment,0
12,38,10853,76,55,1,2,11,6,9.mid,experiment,0
13,40,11119,72,68,1,2,11,6,9.mid,experiment,0
14,42,11372,76,82,1,2,11,6,9.mid,experiment,0
15,44,11625,79,91,1,2,11,6,9.mid,experiment,0
16,46,11878,84,86,1,2,11,6,9.mid,experiment,0
17,48,12151,83,85,1,2,11,6,9.mid,experiment,0
18,51,12466,81,62,1,2,11,6,9.mid,experiment,0
19,53,12708,81,69,1,2,11,6,9.mid,experiment,0
20,55,12947,81,70,1,2,11,6,9.mid,experiment,0
21,57,13263,83,71,1,2,11,6,9.mid,experiment,0
22,58,13517,81,81,1,2,11,6,9.mid,experiment,0
23,60,13789,84,86,1,2,11,6,9.mid,experiment,0
24,62,14046,81,83,1,2,11,6,9.mid,experiment,0
25,64,14311,78,85,1,2,11,6,9.mid,experiment,0
26,66,14567,79,75,1,2,11,6,9.mid,experiment,0
27,69,14818,79,75,1,2,11,6,9.mid,experiment,0
28,71,15357,79,63,1,2,11,6,9.mid,experiment,0
29,73,16513,77,57,1,2,11,6,9.mid,experiment,0
30,75,16766,77,61,1,2,11,6,9.mid,experiment,0
31,77,17032,76,51,1,2,11,6,9.mid,experiment,0
32,79,17283,76,57,1,2,11,6,9.mid,experiment,0
33,81,17572,74,53,1,2,11,6,9.mid,experiment,0
34,83,18655,79,56,1,2,11,6,9.mid,experiment,0
35,85,19218,77,53,1,2,11,6,9.mid,experiment,0
36,87,19739,76,49,1,2,11,6,9.mid,experiment,0
37,89,20005,76,55,1,2,11,6,9.mid,experiment,0
38,91,20256,76,63,1,2,11,6,9.mid,experiment,0
39,93,20502,76,74,1,2,11,6,9.mid,experiment,0
40,95,20784,81,81,1,2,11,6,9.mid,experiment,0
41,96,21048,77,88,1,2,11,6,9.mid,experiment,0
42,98,21300,76,93,1,2,11,6,9.mid,experiment,0
43,100,21564,74,94,1,2,11,6,9.mid,experiment,0
44,102,21840,76,91,1,2,11,6,9.mid,experiment,0
45,104,22088,79,81,1,2,11,6,9.mid,experiment,0
46,106,22351,74,85,1,2,11,6,9.mid,experiment,0
47,108,22609,71,59,1,2,11,6,9.mid,experiment,0
48,111,22878,72,57,1,2,11,6,9.mid,experiment,0
49,113,23139,72,63,1,2,11,6,9.mid,experiment,0
50,115,23398,74,53,1,2,11,6,9.mid,experiment,0
51,117,23651,74,55,1,2,11,6,9.mid,experiment,0
52,119,23976,76,36,1,2,11,6,9.mid,experiment,0
53,121,25083,65,56,1,2,11,6,9.mid,experiment,0
54,123,25346,65,55,1,2,11,6,9.mid,experiment,0
55,125,25595,64,58,1,2,11,6,9.mid,experiment,0
56,127,25855,64,58,1,2,11,6,9.mid,experiment,0
57,129,26182,62,52,1,2,11,6,9.mid,experiment,0
58,131,27285,67,46,1,2,11,6,9.mid,experiment,0
59,133,27531,67,56,1,2,11,6,9.mid,experiment,0
60,135,27788,71,60,1,2,11,6,9.mid,experiment,0
61,137,28051,71,65,1,2,11,6,9.mid,experiment,0
62,139,28306,72,72,1,2,11,6,9.mid,experiment,0
63,141,28550,72,74,1,2,11,6,9.mid,experiment,0
64,143,28799,73,83,1,2,11,6,9.mid,experiment,0
65,145,29043,73,88,1,2,11,6,9.mid,experiment,0
66,147,29315,74,107,1,2,11,6,9.mid,experiment,0
67,149,29882,77,99,1,2,11,6,9.mid,experiment,0
68,151,30413,76,95,1,2,11,6,9.mid,experiment,0
69,153,30965,74,99,1,2,11,6,9.mid,experiment,0
70,155,31529,72,99,1,2,11,6,9.mid,experiment,0
71,157,32127,84,96,1,2,11,6,9.mid,experiment,0
72,159,32743,84,95,1,2,11,6,9.mid,experiment,0
1,17,7887,79,74,1,2,11,7,15.mid,experiment,0
2,18,8174,78,81,1,2,11,7,15.mid,experiment,0
3,20,8458,79,91,1,2,11,7,15.mid,experiment,0
4,22,8729,76,90,1,2,11,7,15.mid,experiment,0
5,24,9012,72,76,1,2,11,7,15.mid,experiment,0
6,27,9319,67,57,1,2,11,7,15.mid,experiment,0
7,29,9568,67,71,1,2,11,7,15.mid,experiment,0
8,31,9852,67,65,1,2,11,7,15.mid,experiment,0
9,33,10160,79,55,1,2,11,7,15.mid,experiment,0
10,34,10430,78,79,1,2,11,7,15.mid,experiment,0
11,36,10689,79,74,1,2,11,7,15.mid,experiment,0
12,38,10953,76,78,1,2,11,7,15.mid,experiment,0
13,40,11233,72,85,1,2,11,7,15.mid,experiment,0
14,42,11502,76,83,1,2,11,7,15.mid,experiment,0
15,44,11771,79,91,1,2,11,7,15.mid,experiment,0
16,46,12026,84,85,1,2,11,7,15.mid,experiment,0
17,48,12312,83,74,1,2,11,7,15.mid,experiment,0
18,51,12602,81,68,1,2,11,7,15.mid,experiment,0
19,53,12859,81,78,1,2,11,7,15.mid,experiment,0
20,55,13119,81,79,1,2,11,7,15.mid,experiment,0
21,57,13456,83,75,1,2,11,7,15.mid,experiment,0
22,58,13716,81,94,1,2,11,7,15.mid,experiment,0
23,60,13986,84,98,1,2,11,7,15.mid,experiment,0
24,62,14247,81,91,1,2,11,7,15.mid,experiment,0
25,64,14516,78,91,1,2,11,7,15.mid,experiment,0
26,66,14787,79,87,1,2,11,7,15.mid,experiment,0
27,69,15052,79,86,1,2,11,7,15.mid,experiment,0
28,71,15645,79,75,1,2,11,7,15.mid,experiment,0
29,73,16841,77,62,1,2,11,7,15.mid,experiment,0
30,75,17099,77,65,1,2,11,7,15.mid,experiment,0
31,77,17370,76,63,1,2,11,7,15.mid,experiment,0
32,79,17639,76,70,1,2,11,7,15.mid,experiment,0
33,81,17931,74,63,1,2,11,7,15.mid,experiment,0
34,83,19110,79,62,1,2,11,7,15.mid,experiment,0
35,85,19693,77,59,1,2,11,7,15.mid,experiment,0
36,87,20282,76,71,1,2,11,7,15.mid,experiment,0
37,89,20561,76,68,1,2,11,7,15.mid,experiment,0
38,91,20824,76,64,1,2,11,7,15.mid,experiment,0
39,93,21074,76,77,1,2,11,7,15.mid,experiment,0
40,95,21396,81,97,1,2,11,7,15.mid,experiment,0
41,96,21694,77,93,1,2,11,7,15.mid,experiment,0
42,98,21967,76,103,1,2,11,7,15.mid,experiment,0
43,100,22245,74,98,1,2,11,7,15.mid,experiment,0
44,102,22511,76,106,1,2,11,7,15.mid,experiment,0
45,104,22749,79,93,1,2,11,7,15.mid,experiment,0
46,106,23028,74,97,1,2,11,7,15.mid,experiment,0
47,108,23268,71,81,1,2,11,7,15.mid,experiment,0
48,111,23564,72,72,1,2,11,7,15.mid,experiment,0
49,113,23817,72,70,1,2,11,7,15.mid,experiment,0
50,115,24075,74,55,1,2,11,7,15.mid,experiment,0
51,117,24333,74,62,1,2,11,7,15.mid,experiment,0
52,119,24676,76,27,1,2,11,7,15.mid,experiment,0
53,121,25807,65,50,1,2,11,7,15.mid,experiment,0
54,123,26039,65,64,1,2,11,7,15.mid,experiment,0
55,125,26296,64,66,1,2,11,7,15.mid,experiment,0
56,127,26564,64,54,1,2,11,7,15.mid,experiment,0
57,129,26866,62,50,1,2,11,7,15.mid,experiment,0
58,131,28038,67,54,1,2,11,7,15.mid,experiment,0
59,133,28295,67,54,1,2,11,7,15.mid,experiment,0
60,135,28548,71,61,1,2,11,7,15.mid,experiment,0
61,137,28800,71,68,1,2,11,7,15.mid,experiment,0
62,139,29067,72,66,1,2,11,7,15.mid,experiment,0
63,141,29332,72,74,1,2,11,7,15.mid,experiment,0
64,143,29577,73,81,1,2,11,7,15.mid,experiment,0
65,145,29830,73,93,1,2,11,7,15.mid,experiment,0
66,147,30104,74,103,1,2,11,7,15.mid,experiment,0
67,149,30631,77,96,1,2,11,7,15.mid,experiment,0
68,151,31158,76,98,1,2,11,7,15.mid,experiment,0
69,153,31710,74,104,1,2,11,7,15.mid,experiment,0
70,155,32281,72,98,1,2,11,7,15.mid,experiment,0
71,157,32865,84,100,1,2,11,7,15.mid,experiment,0
72,159,33498,84,98,1,2,11,7,15.mid,experiment,0
1,17,7827,79,81,1,2,11,9,8.mid,experiment,0
2,18,8113,78,81,1,2,11,9,8.mid,experiment,0
3,20,8391,79,96,1,2,11,9,8.mid,experiment,0
4,22,8644,76,93,1,2,11,9,8.mid,experiment,0
5,24,8929,72,76,1,2,11,9,8.mid,experiment,0
6,27,9213,67,65,1,2,11,9,8.mid,experiment,0
7,29,9448,67,66,1,2,11,9,8.mid,experiment,0
8,31,9735,67,57,1,2,11,9,8.mid,experiment,0
9,33,10034,79,60,1,2,11,9,8.mid,experiment,0
10,34,10293,78,78,1,2,11,9,8.mid,experiment,0
11,36,10549,79,77,1,2,11,9,8.mid,experiment,0
12,38,10800,76,78,1,2,11,9,8.mid,experiment,0
13,40,11070,72,78,1,2,11,9,8.mid,experiment,0
14,42,11329,76,81,1,2,11,9,8.mid,experiment,0
15,44,11591,79,83,1,2,11,9,8.mid,experiment,0
16,46,11853,84,81,1,2,11,9,8.mid,experiment,0
17,48,12122,83,61,1,2,11,9,8.mid,experiment,0
18,51,12423,81,61,1,2,11,9,8.mid,experiment,0
19,53,12673,81,79,1,2,11,9,8.mid,experiment,0
20,55,12918,81,76,1,2,11,9,8.mid,experiment,0
21,57,13213,83,91,1,2,11,9,8.mid,experiment,0
22,58,13479,81,97,1,2,11,9,8.mid,experiment,0
23,60,13744,84,97,1,2,11,9,8.mid,experiment,0
24,62,14005,81,94,1,2,11,9,8.mid,experiment,0
25,64,14265,78,98,1,2,11,9,8.mid,experiment,0
26,66,14517,79,89,1,2,11,9,8.mid,experiment,0
27,69,14788,79,103,1,2,11,9,8.mid,experiment,0
28,71,15333,79,86,1,2,11,9,8.mid,experiment,0
29,73,16547,77,54,1,2,11,9,8.mid,experiment,0
30,75,16806,77,66,1,2,11,9,8.mid,experiment,0
31,77,17064,76,59,1,2,11,9,8.mid,experiment,0
32,79,17320,76,62,1,2,11,9,8.mid,experiment,0
33,81,17605,74,58,1,2,11,9,8.mid,experiment,0
34,83,18766,79,55,1,2,11,9,8.mid,experiment,0
35,85,19320,77,54,1,2,11,9,8.mid,experiment,0
36,87,19854,76,50,1,2,11,9,8.mid,experiment,0
37,89,20124,76,65,1,2,11,9,8.mid,experiment,0
38,91,20376,76,75,1,2,11,9,8.mid,experiment,0
39,93,20630,76,75,1,2,11,9,8.mid,experiment,0
40,95,20907,81,95,1,2,11,9,8.mid,experiment,0
41,96,21183,77,91,1,2,11,9,8.mid,experiment,0
42,98,21438,76,96,1,2,11,9,8.mid,experiment,0
43,100,21703,74,98,1,2,11,9,8.mid,experiment,0
44,102,21976,76,101,1,2,11,9,8.mid,experiment,0
45,104,22219,79,87,1,2,11,9,8.mid,experiment,0
46,106,22497,74,93,1,2,11,9,8.mid,experiment,0
47,108,22750,71,71,1,2,11,9,8.mid,experiment,0
48,111,23022,72,72,1,2,11,9,8.mid,experiment,0
49,113,23279,72,73,1,2,11,9,8.mid,experiment,0
50,115,23530,74,67,1,2,11,9,8.mid,experiment,0
51,117,23801,74,66,1,2,11,9,8.mid,experiment,0
52,119,24097,76,53,1,2,11,9,8.mid,experiment,0
53,121,25271,65,58,1,2,11,9,8.mid,experiment,0
54,123,25523,65,54,1,2,11,9,8.mid,experiment,0
55,125,25785,64,57,1,2,11,9,8.mid,experiment,0
56,127,26048,64,53,1,2,11,9,8.mid,experiment,0
57,129,26341,62,53,1,2,11,9,8.mid,experiment,0
58,131,27473,67,63,1,2,11,9,8.mid,experiment,0
59,133,27753,67,56,1,2,11,9,8.mid,experiment,0
60,135,28004,71,67,1,2,11,9,8.mid,experiment,0
61,137,28255,71,70,1,2,11,9,8.mid,experiment,0
62,139,28493,72,71,1,2,11,9,8.mid,experiment,0
63,141,28742,72,83,1,2,11,9,8.mid,experiment,0
64,143,28992,73,95,1,2,11,9,8.mid,experiment,0
65,145,29234,73,104,1,2,11,9,8.mid,experiment,0
66,147,29504,74,110,1,2,11,9,8.mid,experiment,0
67,149,30058,77,99,1,2,11,9,8.mid,experiment,0
68,151,30592,76,101,1,2,11,9,8.mid,experiment,0
69,153,31147,74,114,1,2,11,9,8.mid,experiment,0
70,155,31704,72,109,1,2,11,9,8.mid,experiment,0
71,157,32282,84,105,1,2,11,9,8.mid,experiment,0
72,159,32888,84,109,1,2,11,9,8.mid,experiment,0
1,17,7813,79,81,1,2,11,10,10.mid,experiment,0
2,18,8085,78,81,1,2,11,10,10.mid,experiment,0
3,20,8367,79,86,1,2,11,10,10.mid,experiment,0
4,22,8637,76,81,1,2,11,10,10.mid,experiment,0
5,24,8911,72,75,1,2,11,10,10.mid,experiment,0
6,27,9195,67,63,1,2,11,10,10.mid,experiment,0
7,29,9463,67,63,1,2,11,10,10.mid,experiment,0
8,31,9741,67,57,1,2,11,10,10.mid,experiment,0
9,33,10011,79,70,1,2,11,10,10.mid,experiment,0
10,34,10284,78,79,1,2,11,10,10.mid,experiment,0
11,36,10545,79,83,1,2,11,10,10.mid,experiment,0
12,38,10802,76,79,1,2,11,10,10.mid,experiment,0
13,40,11085,72,80,1,2,11,10,10.mid,experiment,0
14,42,11339,76,89,1,2,11,10,10.mid,experiment,0
15,44,11599,79,86,1,2,11,10,10.mid,experiment,0
16,46,11849,84,91,1,2,11,10,10.mid,experiment,0
17,48,12121,83,76,1,2,11,10,10.mid,experiment,0
18,51,12394,81,76,1,2,11,10,10.mid,experiment,0
19,53,12651,81,72,1,2,11,10,10.mid,experiment,0
20,55,12906,81,67,1,2,11,10,10.mid,experiment,0
21,57,13214,83,87,1,2,11,10,10.mid,experiment,0
22,58,13497,81,98,1,2,11,10,10.mid,experiment,0
23,60,13751,84,96,1,2,11,10,10.mid,experiment,0
24,62,14008,81,87,1,2,11,10,10.mid,experiment,0
25,64,14275,78,81,1,2,11,10,10.mid,experiment,0
26,66,14545,79,67,1,2,11,10,10.mid,experiment,0
27,69,14822,79,71,1,2,11,10,10.mid,experiment,0
28,71,15369,79,67,1,2,11,10,10.mid,experiment,0
29,73,16554,77,58,1,2,11,10,10.mid,experiment,0
30,75,16828,77,61,1,2,11,10,10.mid,experiment,0
31,77,17083,76,58,1,2,11,10,10.mid,experiment,0
32,79,17334,76,57,1,2,11,10,10.mid,experiment,0
33,81,17621,74,61,1,2,11,10,10.mid,experiment,0
34,83,18750,79,46,1,2,11,10,10.mid,experiment,0
35,85,19288,77,60,1,2,11,10,10.mid,experiment,0
36,87,19843,76,45,1,2,11,10,10.mid,experiment,0
37,89,20104,76,63,1,2,11,10,10.mid,experiment,0
38,91,20348,76,85,1,2,11,10,10.mid,experiment,0
39,93,20606,76,85,1,2,11,10,10.mid,experiment,0
40,95,20886,81,96,1,2,11,10,10.mid,experiment,0
41,96,21168,77,74,1,2,11,10,10.mid,experiment,0
42,98,21430,76,94,1,2,11,10,10.mid,experiment,0
43,100,21688,74,100,1,2,11,10,10.mid,experiment,0
44,102,21967,76,96,1,2,11,10,10.mid,experiment,0
45,104,22220,79,81,1,2,11,10,10.mid,experiment,0
46,106,22476,74,91,1,2,11,10,10.mid,experiment,0
47,108,22735,71,73,1,2,11,10,10.mid,experiment,0
48,111,22993,72,71,1,2,11,10,10.mid,experiment,0
49,113,23261,72,69,1,2,11,10,10.mid,experiment,0
50,115,23519,74,58,1,2,11,10,10.mid,experiment,0
51,117,23798,74,53,1,2,11,10,10.mid,experiment,0
52,119,24092,76,48,1,2,11,10,10.mid,experiment,0
53,121,25278,65,55,1,2,11,10,10.mid,experiment,0
54,123,25542,65,45,1,2,11,10,10.mid,experiment,0
55,125,25809,64,42,1,2,11,10,10.mid,experiment,0
56,127,26062,64,47,1,2,11,10,10.mid,experiment,0
57,129,26354,62,49,1,2,11,10,10.mid,experiment,0
58,131,27465,67,50,1,2,11,10,10.mid,experiment,0
59,133,27730,67,58,1,2,11,10,10.mid,experiment,0
60,135,27984,71,63,1,2,11,10,10.mid,experiment,0
61,137,28240,71,78,1,2,11,10,10.mid,experiment,0
62,139,28491,72,95,1,2,11,10,10.mid,experiment,0
63,141,28752,72,98,1,2,11,10,10.mid,experiment,0
64,143,29005,73,109,1,2,11,10,10.mid,experiment,0
65,145,29259,73,112,1,2,11,10,10.mid,experiment,0
66,147,29545,74,124,1,2,11,10,10.mid,experiment,0
67,149,30096,77,100,1,2,11,10,10.mid,experiment,0
68,151,30639,76,112,1,2,11,10,10.mid,experiment,0
69,153,31199,74,112,1,2,11,10,10.mid,experiment,0
70,155,31786,72,106,1,2,11,10,10.mid,experiment,0
71,157,32381,84,105,1,2,11,10,10.mid,experiment,0
72,159,33036,84,107,1,2,11,10,10.mid,experiment,0
1,17,7861,79,79,1,2,11,12,14.mid,experiment,0
2,18,8144,78,87,1,2,11,12,14.mid,experiment,0
3,20,8428,79,90,1,2,11,12,14.mid,experiment,0
4,22,8698,76,87,1,2,11,12,14.mid,experiment,0
5,24,8970,72,79,1,2,11,12,14.mid,experiment,0
6,27,9263,67,56,1,2,11,12,14.mid,experiment,0
7,29,9526,67,55,1,2,11,12,14.mid,experiment,0
8,31,9782,67,60,1,2,11,12,14.mid,experiment,0
9,33,10084,79,77,1,2,11,12,14.mid,experiment,0
10,34,10346,78,85,1,2,11,12,14.mid,experiment,0
11,36,10626,79,88,1,2,11,12,14.mid,experiment,0
12,38,10874,76,81,1,2,11,12,14.mid,experiment,0
13,40,11161,72,84,1,2,11,12,14.mid,experiment,0
14,42,11430,76,84,1,2,11,12,14.mid,experiment,0
15,44,11680,79,91,1,2,11,12,14.mid,experiment,0
16,46,11926,84,95,1,2,11,12,14.mid,experiment,0
17,48,12203,83,91,1,2,11,12,14.mid,experiment,0
18,51,12542,81,61,1,2,11,12,14.mid,experiment,0
19,53,12782,81,78,1,2,11,12,14.mid,experiment,0
20,55,13025,81,81,1,2,11,12,14.mid,experiment,0
21,57,13308,83,93,1,2,11,12,14.mid,experiment,0
22,58,13588,81,96,1,2,11,12,14.mid,experiment,0
23,60,13837,84,98,1,2,11,12,14.mid,experiment,0
24,62,14107,81,89,1,2,11,12,14.mid,experiment,0
25,64,14381,78,91,1,2,11,12,14.mid,experiment,0
26,66,14631,79,93,1,2,11,12,14.mid,experiment,0
27,69,14907,79,97,1,2,11,12,14.mid,experiment,0
28,71,15488,79,85,1,2,11,12,14.mid,experiment,0
29,73,16692,77,55,1,2,11,12,14.mid,experiment,0
30,75,16959,77,61,1,2,11,12,14.mid,experiment,0
31,77,17213,76,60,1,2,11,12,14.mid,experiment,0
32,79,17466,76,54,1,2,11,12,14.mid,experiment,0
33,81,17771,74,49,1,2,11,12,14.mid,experiment,0
34,83,18942,79,46,1,2,11,12,14.mid,experiment,0
35,85,19489,77,59,1,2,11,12,14.mid,experiment,0
36,87,20003,76,55,1,2,11,12,14.mid,experiment,0
37,89,20269,76,54,1,2,11,12,14.mid,experiment,0
38,91,20522,76,67,1,2,11,12,14.mid,experiment,0
39,93,20766,76,81,1,2,11,12,14.mid,experiment,0
40,95,21075,81,93,1,2,11,12,14.mid,experiment,0
41,96,21339,77,93,1,2,11,12,14.mid,experiment,0
42,98,21592,76,97,1,2,11,12,14.mid,experiment,0
43,100,21849,74,100,1,2,11,12,14.mid,experiment,0
44,102,22132,76,99,1,2,11,12,14.mid,experiment,0
45,104,22389,79,90,1,2,11,12,14.mid,experiment,0
46,106,22665,74,98,1,2,11,12,14.mid,experiment,0
47,108,22923,71,79,1,2,11,12,14.mid,experiment,0
48,111,23204,72,75,1,2,11,12,14.mid,experiment,0
49,113,23481,72,67,1,2,11,12,14.mid,experiment,0
50,115,23723,74,62,1,2,11,12,14.mid,experiment,0
51,117,23981,74,60,1,2,11,12,14.mid,experiment,0
52,119,24283,76,42,1,2,11,12,14.mid,experiment,0
53,121,25438,65,60,1,2,11,12,14.mid,experiment,0
54,123,25705,65,63,1,2,11,12,14.mid,experiment,0
55,125,25962,64,55,1,2,11,12,14.mid,experiment,0
56,127,26203,64,59,1,2,11,12,14.mid,experiment,0
57,129,26516,62,40,1,2,11,12,14.mid,experiment,0
58,131,27654,67,50,1,2,11,12,14.mid,experiment,0
59,133,27918,67,53,1,2,11,12,14.mid,experiment,0
60,135,28176,71,63,1,2,11,12,14.mid,experiment,0
61,137,28422,71,71,1,2,11,12,14.mid,experiment,0
62,139,28671,72,71,1,2,11,12,14.mid,experiment,0
63,141,28938,72,82,1,2,11,12,14.mid,experiment,0
64,143,29188,73,98,1,2,11,12,14.mid,experiment,0
65,145,29428,73,105,1,2,11,12,14.mid,experiment,0
66,147,29710,74,100,1,2,11,12,14.mid,experiment,0
67,149,30288,77,100,1,2,11,12,14.mid,experiment,0
68,151,30844,76,88,1,2,11,12,14.mid,experiment,0
69,153,31390,74,107,1,2,11,12,14.mid,experiment,0
70,155,31970,72,103,1,2,11,12,14.mid,experiment,0
71,157,32565,84,105,1,2,11,12,14.mid,experiment,0
72,159,33190,84,104,1,2,11,12,14.mid,experiment,0
1,17,7866,79,85,1,2,11,13,4.mid,experiment,0
2,18,8140,78,77,1,2,11,13,4.mid,experiment,0
3,20,8422,79,89,1,2,11,13,4.mid,experiment,0
4,22,8693,76,90,1,2,11,13,4.mid,experiment,0
5,24,8957,72,93,1,2,11,13,4.mid,experiment,0
6,27,9263,67,63,1,2,11,13,4.mid,experiment,0
7,29,9526,67,46,1,2,11,13,4.mid,experiment,0
8,31,9790,67,62,1,2,11,13,4.mid,experiment,0
9,33,10064,79,85,1,2,11,13,4.mid,experiment,0
10,34,10333,78,82,1,2,11,13,4.mid,experiment,0
11,36,10580,79,83,1,2,11,13,4.mid,experiment,0
12,38,10845,76,76,1,2,11,13,4.mid,experiment,0
13,40,11133,72,87,1,2,11,13,4.mid,experiment,0
14,42,11400,76,89,1,2,11,13,4.mid,experiment,0
15,44,11653,79,93,1,2,11,13,4.mid,experiment,0
16,46,11904,84,98,1,2,11,13,4.mid,experiment,0
17,48,12187,83,76,1,2,11,13,4.mid,experiment,0
18,51,12497,81,60,1,2,11,13,4.mid,experiment,0
19,53,12750,81,65,1,2,11,13,4.mid,experiment,0
20,55,12986,81,80,1,2,11,13,4.mid,experiment,0
21,57,13284,83,97,1,2,11,13,4.mid,experiment,0
22,58,13557,81,97,1,2,11,13,4.mid,experiment,0
23,60,13798,84,100,1,2,11,13,4.mid,experiment,0
24,62,14054,81,104,1,2,11,13,4.mid,experiment,0
25,64,14333,78,100,1,2,11,13,4.mid,experiment,0
26,66,14596,79,93,1,2,11,13,4.mid,experiment,0
27,69,14882,79,91,1,2,11,13,4.mid,experiment,0
28,71,15448,79,88,1,2,11,13,4.mid,experiment,0
29,73,16635,77,57,1,2,11,13,4.mid,experiment,0
30,75,16913,77,55,1,2,11,13,4.mid,experiment,0
31,77,17157,76,62,1,2,11,13,4.mid,experiment,0
32,79,17412,76,60,1,2,11,13,4.mid,experiment,0
33,81,17696,74,54,1,2,11,13,4.mid,experiment,0
34,83,18831,79,54,1,2,11,13,4.mid,experiment,0
35,85,19374,77,59,1,2,11,13,4.mid,experiment,0
36,87,19928,76,50,1,2,11,13,4.mid,experiment,0
37,89,20207,76,57,1,2,11,13,4.mid,experiment,0
38,91,20449,76,69,1,2,11,13,4.mid,experiment,0
39,93,20688,76,76,1,2,11,13,4.mid,experiment,0
40,95,20978,81,84,1,2,11,13,4.mid,experiment,0
41,96,21257,77,91,1,2,11,13,4.mid,experiment,0
42,98,21509,76,95,1,2,11,13,4.mid,experiment,0
43,100,21758,74,101,1,2,11,13,4.mid,experiment,0
44,102,22055,76,98,1,2,11,13,4.mid,experiment,0
45,104,22311,79,89,1,2,11,13,4.mid,experiment,0
46,106,22566,74,91,1,2,11,13,4.mid,experiment,0
47,108,22819,71,74,1,2,11,13,4.mid,experiment,0
48,111,23095,72,72,1,2,11,13,4.mid,experiment,0
49,113,23350,72,62,1,2,11,13,4.mid,experiment,0
50,115,23619,74,59,1,2,11,13,4.mid,experiment,0
51,117,23888,74,51,1,2,11,13,4.mid,experiment,0
52,119,24196,76,46,1,2,11,13,4.mid,experiment,0
53,121,25333,65,53,1,2,11,13,4.mid,experiment,0
54,123,25584,65,51,1,2,11,13,4.mid,experiment,0
55,125,25863,64,51,1,2,11,13,4.mid,experiment,0
56,127,26146,64,36,1,2,11,13,4.mid,experiment,0
57,129,26472,62,38,1,2,11,13,4.mid,experiment,0
58,131,27573,67,51,1,2,11,13,4.mid,experiment,0
59,133,27845,67,49,1,2,11,13,4.mid,experiment,0
60,135,28103,71,63,1,2,11,13,4.mid,experiment,0
61,137,28335,71,72,1,2,11,13,4.mid,experiment,0
62,139,28603,72,77,1,2,11,13,4.mid,experiment,0
63,141,28864,72,88,1,2,11,13,4.mid,experiment,0
64,143,29116,73,106,1,2,11,13,4.mid,experiment,0
65,145,29365,73,110,1,2,11,13,4.mid,experiment,0
66,147,29655,74,115,1,2,11,13,4.mid,experiment,0
67,149,30217,77,97,1,2,11,13,4.mid,experiment,0
68,151,30759,76,97,1,2,11,13,4.mid,experiment,0
69,153,31301,74,99,1,2,11,13,4.mid,experiment,0
70,155,31852,72,99,1,2,11,13,4.mid,experiment,0
71,157,32454,84,104,1,2,11,13,4.mid,experiment,0
72,159,33075,84,109,1,2,11,13,4.mid,experiment,0
1,17,7818,79,88,1,2,11,14,13.mid,experiment,0
2,18,8101,78,79,1,2,11,14,13.mid,experiment,0
3,20,8388,79,93,1,2,11,14,13.mid,experiment,0
4,22,8651,76,85,1,2,11,14,13.mid,experiment,0
5,24,8926,72,79,1,2,11,14,13.mid,experiment,0
6,27,9234,67,54,1,2,11,14,13.mid,experiment,0
7,29,9490,67,59,1,2,11,14,13.mid,experiment,0
8,31,9750,67,70,1,2,11,14,13.mid,experiment,0
9,33,10038,79,93,1,2,11,14,13.mid,experiment,0
10,34,10330,78,89,1,2,11,14,13.mid,experiment,0
11,36,10585,79,90,1,2,11,14,13.mid,experiment,0
12,38,10832,76,80,1,2,11,14,13.mid,experiment,0
13,40,11108,72,90,1,2,11,14,13.mid,experiment,0
14,42,11375,76,96,1,2,11,14,13.mid,experiment,0
15,44,11630,79,91,1,2,11,14,13.mid,experiment,0
16,46,11884,84,95,1,2,11,14,13.mid,experiment,0
17,48,12146,83,81,1,2,11,14,13.mid,experiment,0
18,51,12446,81,63,1,2,11,14,13.mid,experiment,0
19,53,12702,81,70,1,2,11,14,13.mid,experiment,0
20,55,12966,81,58,1,2,11,14,13.mid,experiment,0
21,57,13275,83,91,1,2,11,14,13.mid,experiment,0
22,58,13540,81,93,1,2,11,14,13.mid,experiment,0
23,60,13796,84,91,1,2,11,14,13.mid,experiment,0
24,62,14068,81,88,1,2,11,14,13.mid,experiment,0
25,64,14353,78,83,1,2,11,14,13.mid,experiment,0
26,66,14614,79,80,1,2,11,14,13.mid,experiment,0
27,69,14869,79,80,1,2,11,14,13.mid,experiment,0
28,71,15396,79,81,1,2,11,14,13.mid,experiment,0
29,73,16565,77,63,1,2,11,14,13.mid,experiment,0
30,75,16831,77,66,1,2,11,14,13.mid,experiment,0
31,77,17091,76,62,1,2,11,14,13.mid,experiment,0
32,79,17347,76,62,1,2,11,14,13.mid,experiment,0
33,81,17643,74,58,1,2,11,14,13.mid,experiment,0
34,83,18798,79,60,1,2,11,14,13.mid,experiment,0
35,85,19379,77,62,1,2,11,14,13.mid,experiment,0
36,87,19987,76,65,1,2,11,14,13.mid,experiment,0
37,89,20248,76,68,1,2,11,14,13.mid,experiment,0
38,91,20490,76,76,1,2,11,14,13.mid,experiment,0
39,93,20742,76,88,1,2,11,14,13.mid,experiment,0
40,95,21041,81,103,1,2,11,14,13.mid,experiment,0
41,96,21315,77,87,1,2,11,14,13.mid,experiment,0
42,98,21577,76,104,1,2,11,14,13.mid,experiment,0
43,100,21831,74,98,1,2,11,14,13.mid,experiment,0
44,102,22121,76,100,1,2,11,14,13.mid,experiment,0
45,104,22362,79,94,1,2,11,14,13.mid,experiment,0
46,106,22619,74,91,1,2,11,14,13.mid,experiment,0
47,108,22866,71,70,1,2,11,14,13.mid,experiment,0
48,111,23161,72,70,1,2,11,14,13.mid,experiment,0
49,113,23427,72,67,1,2,11,14,13.mid,experiment,0
50,115,23681,74,66,1,2,11,14,13.mid,experiment,0
51,117,23947,74,61,1,2,11,14,13.mid,experiment,0
52,119,24234,76,53,1,2,11,14,13.mid,experiment,0
53,121,25419,65,57,1,2,11,14,13.mid,experiment,0
54,123,25678,65,58,1,2,11,14,13.mid,experiment,0
55,125,25939,64,54,1,2,11,14,13.mid,experiment,0
56,127,26205,64,50,1,2,11,14,13.mid,experiment,0
57,129,26486,62,55,1,2,11,14,13.mid,experiment,0
58,131,27626,67,46,1,2,11,14,13.mid,experiment,0
59,133,27883,67,67,1,2,11,14,13.mid,experiment,0
60,135,28142,71,68,1,2,11,14,13.mid,experiment,0
61,137,28406,71,59,1,2,11,14,13.mid,experiment,0
62,139,28652,72,70,1,2,11,14,13.mid,experiment,0
63,141,28912,72,81,1,2,11,14,13.mid,experiment,0
64,143,29164,73,96,1,2,11,14,13.mid,experiment,0
65,145,29416,73,104,1,2,11,14,13.mid,experiment,0
66,147,29709,74,115,1,2,11,14,13.mid,experiment,0
67,149,30281,77,103,1,2,11,14,13.mid,experiment,0
68,151,30832,76,101,1,2,11,14,13.mid,experiment,0
69,153,31390,74,106,1,2,11,14,13.mid,experiment,0
70,155,31975,72,100,1,2,11,14,13.mid,experiment,0
71,157,32578,84,104,1,2,11,14,13.mid,experiment,0
72,159,33186,84,109,1,2,11,14,13.mid,experiment,0
1,17,7860,79,87,1,2,11,16,2.mid,experiment,0
2,18,8163,78,81,1,2,11,16,2.mid,experiment,0
3,20,8432,79,79,1,2,11,16,2.mid,experiment,0
4,22,8687,76,76,1,2,11,16,2.mid,experiment,0
5,24,8964,72,70,1,2,11,16,2.mid,experiment,0
6,27,9258,67,60,1,2,11,16,2.mid,experiment,0
7,29,9509,67,63,1,2,11,16,2.mid,experiment,0
8,31,9773,67,70,1,2,11,16,2.mid,experiment,0
9,33,10074,79,97,1,2,11,16,2.mid,experiment,0
10,34,10404,78,78,1,2,11,16,2.mid,experiment,0
11,36,10649,79,79,1,2,11,16,2.mid,experiment,0
12,38,10895,76,76,1,2,11,16,2.mid,experiment,0
13,40,11172,72,78,1,2,11,16,2.mid,experiment,0
14,42,11435,76,78,1,2,11,16,2.mid,experiment,0
15,44,11693,79,86,1,2,11,16,2.mid,experiment,0
16,46,11941,84,93,1,2,11,16,2.mid,experiment,0
17,48,12211,83,75,1,2,11,16,2.mid,experiment,0
18,51,12549,81,54,1,2,11,16,2.mid,experiment,0
19,53,12801,81,55,1,2,11,16,2.mid,experiment,0
20,55,13035,81,68,1,2,11,16,2.mid,experiment,0
21,57,13321,83,91,1,2,11,16,2.mid,experiment,0
22,58,13592,81,95,1,2,11,16,2.mid,experiment,0
23,60,13833,84,93,1,2,11,16,2.mid,experiment,0
24,62,14099,81,89,1,2,11,16,2.mid,experiment,0
25,64,14394,78,94,1,2,11,16,2.mid,experiment,0
26,66,14677,79,75,1,2,11,16,2.mid,experiment,0
27,69,14933,79,72,1,2,11,16,2.mid,experiment,0
28,71,15474,79,56,1,2,11,16,2.mid,experiment,0
29,73,16589,77,55,1,2,11,16,2.mid,experiment,0
30,75,16857,77,61,1,2,11,16,2.mid,experiment,0
31,77,17119,76,49,1,2,11,16,2.mid,experiment,0
32,79,17361,76,51,1,2,11,16,2.mid,experiment,0
33,81,17659,74,47,1,2,11,16,2.mid,experiment,0
34,83,18789,79,51,1,2,11,16,2.mid,experiment,0
35,85,19356,77,50,1,2,11,16,2.mid,experiment,0
36,87,19947,76,39,1,2,11,16,2.mid,experiment,0
37,89,20213,76,54,1,2,11,16,2.mid,experiment,0
38,91,20457,76,63,1,2,11,16,2.mid,experiment,0
39,93,20711,76,71,1,2,11,16,2.mid,experiment,0
40,95,21005,81,83,1,2,11,16,2.mid,experiment,0
41,96,21279,77,90,1,2,11,16,2.mid,experiment,0
42,98,21528,76,89,1,2,11,16,2.mid,experiment,0
43,100,21772,74,93,1,2,11,16,2.mid,experiment,0
44,102,22059,76,88,1,2,11,16,2.mid,experiment,0
45,104,22315,79,86,1,2,11,16,2.mid,experiment,0
46,106,22567,74,81,1,2,11,16,2.mid,experiment,0
47,108,22829,71,65,1,2,11,16,2.mid,experiment,0
48,111,23112,72,65,1,2,11,16,2.mid,experiment,0
49,113,23363,72,64,1,2,11,16,2.mid,experiment,0
50,115,23619,74,56,1,2,11,16,2.mid,experiment,0
51,117,23875,74,57,1,2,11,16,2.mid,experiment,0
52,119,24203,76,46,1,2,11,16,2.mid,experiment,0
53,121,25415,65,56,1,2,11,16,2.mid,experiment,0
54,123,25668,65,61,1,2,11,16,2.mid,experiment,0
55,125,25934,64,51,1,2,11,16,2.mid,experiment,0
56,127,26180,64,53,1,2,11,16,2.mid,experiment,0
57,129,26549,62,37,1,2,11,16,2.mid,experiment,0
58,131,27683,67,51,1,2,11,16,2.mid,experiment,0
59,133,27950,67,54,1,2,11,16,2.mid,experiment,0
60,135,28204,71,71,1,2,11,16,2.mid,experiment,0
61,137,28457,71,68,1,2,11,16,2.mid,experiment,0
62,139,28717,72,70,1,2,11,16,2.mid,experiment,0
63,141,28975,72,72,1,2,11,16,2.mid,experiment,0
64,143,29228,73,82,1,2,11,16,2.mid,experiment,0
65,145,29477,73,94,1,2,11,16,2.mid,experiment,0
66,147,29775,74,100,1,2,11,16,2.mid,experiment,0
67,149,30351,77,95,1,2,11,16,2.mid,experiment,0
68,151,30917,76,97,1,2,11,16,2.mid,experiment,0
69,153,31487,74,94,1,2,11,16,2.mid,experiment,0
70,155,32068,72,98,1,2,11,16,2.mid,experiment,0
71,157,32675,84,109,1,2,11,16,2.mid,experiment,0
72,159,33356,84,110,1,2,11,16,2.mid,experiment,0
1,17,7877,79,49,1,2,12,2,7.mid,experiment,0
2,18,8197,78,72,1,2,12,2,7.mid,experiment,0
3,20,8519,79,75,1,2,12,2,7.mid,experiment,0
4,22,8836,76,70,1,2,12,2,7.mid,experiment,0
5,24,9212,72,56,1,2,12,2,7.mid,experiment,0
6,27,9539,67,55,1,2,12,2,7.mid,experiment,0
7,29,9840,67,63,1,2,12,2,7.mid,experiment,0
8,31,10146,67,69,1,2,12,2,7.mid,experiment,0
9,33,10512,79,50,1,2,12,2,7.mid,experiment,0
10,34,10833,78,68,1,2,12,2,7.mid,experiment,0
11,36,11156,79,70,1,2,12,2,7.mid,experiment,0
12,38,11472,76,76,1,2,12,2,7.mid,experiment,0
13,40,11773,72,80,1,2,12,2,7.mid,experiment,0
14,42,12081,76,79,1,2,12,2,7.mid,experiment,0
15,44,12390,79,89,1,2,12,2,7.mid,experiment,0
16,46,12701,84,91,1,2,12,2,7.mid,experiment,0
17,48,13029,83,84,1,2,12,2,7.mid,experiment,0
18,51,13454,81,53,1,2,12,2,7.mid,experiment,0
19,53,13764,81,53,1,2,12,2,7.mid,experiment,0
20,55,14059,81,66,1,2,12,2,7.mid,experiment,0
21,57,14404,83,72,1,2,12,2,7.mid,experiment,0
22,58,14718,81,89,1,2,12,2,7.mid,experiment,0
23,60,15032,84,90,1,2,12,2,7.mid,experiment,0
24,62,15347,81,86,1,2,12,2,7.mid,experiment,0
25,64,15644,78,94,1,2,12,2,7.mid,experiment,0
26,66,15962,79,93,1,2,12,2,7.mid,experiment,0
27,69,16314,79,94,1,2,12,2,7.mid,experiment,0
28,71,16993,79,97,1,2,12,2,7.mid,experiment,0
29,73,18354,77,56,1,2,12,2,7.mid,experiment,0
30,75,18657,77,58,1,2,12,2,7.mid,experiment,0
31,77,18959,76,56,1,2,12,2,7.mid,experiment,0
32,79,19270,76,63,1,2,12,2,7.mid,experiment,0
33,81,19655,74,53,1,2,12,2,7.mid,experiment,0
34,83,21021,79,23,1,2,12,2,7.mid,experiment,0
35,85,21680,77,53,1,2,12,2,7.mid,experiment,0
36,87,22291,76,52,1,2,12,2,7.mid,experiment,0
37,89,22596,76,55,1,2,12,2,7.mid,experiment,0
38,91,22903,76,60,1,2,12,2,7.mid,experiment,0
39,93,23213,76,68,1,2,12,2,7.mid,experiment,0
40,95,23564,81,70,1,2,12,2,7.mid,experiment,0
41,96,23873,77,82,1,2,12,2,7.mid,experiment,0
42,98,24198,76,81,1,2,12,2,7.mid,experiment,0
43,100,24499,74,87,1,2,12,2,7.mid,experiment,0
44,102,24799,76,81,1,2,12,2,7.mid,experiment,0
45,104,25094,79,87,1,2,12,2,7.mid,experiment,0
46,106,25406,74,85,1,2,12,2,7.mid,experiment,0
47,108,25707,71,78,1,2,12,2,7.mid,experiment,0
48,111,26015,72,60,1,2,12,2,7.mid,experiment,0
49,113,26316,72,58,1,2,12,2,7.mid,experiment,0
50,115,26611,74,56,1,2,12,2,7.mid,experiment,0
51,117,26923,74,54,1,2,12,2,7.mid,experiment,0
52,119,27304,76,48,1,2,12,2,7.mid,experiment,0
53,121,28740,65,52,1,2,12,2,7.mid,experiment,0
54,123,29035,65,50,1,2,12,2,7.mid,experiment,0
55,125,29365,64,50,1,2,12,2,7.mid,experiment,0
56,127,29663,64,50,1,2,12,2,7.mid,experiment,0
57,129,30034,62,40,1,2,12,2,7.mid,experiment,0
58,131,31320,67,55,1,2,12,2,7.mid,experiment,0
59,133,31630,67,60,1,2,12,2,7.mid,experiment,0
60,135,31925,71,63,1,2,12,2,7.mid,experiment,0
61,137,32223,71,69,1,2,12,2,7.mid,experiment,0
62,139,32527,72,82,1,2,12,2,7.mid,experiment,0
63,141,32821,72,90,1,2,12,2,7.mid,experiment,0
64,143,33120,73,91,1,2,12,2,7.mid,experiment,0
65,145,33420,73,103,1,2,12,2,7.mid,experiment,0
66,147,33764,74,104,1,2,12,2,7.mid,experiment,0
67,149,34406,77,97,1,2,12,2,7.mid,experiment,0
68,151,35073,76,93,1,2,12,2,7.mid,experiment,0
69,153,35751,74,95,1,2,12,2,7.mid,experiment,0
70,155,36420,72,99,1,2,12,2,7.mid,experiment,0
71,157,37098,84,100,1,2,12,2,7.mid,experiment,0
72,159,37761,84,97,1,2,12,2,7.mid,experiment,0
1,17,7855,79,62,1,2,12,3,12.mid,experiment,0
2,18,8166,78,77,1,2,12,3,12.mid,experiment,0
3,20,8468,79,83,1,2,12,3,12.mid,experiment,0
4,22,8770,76,79,1,2,12,3,12.mid,experiment,0
5,24,9073,72,66,1,2,12,3,12.mid,experiment,0
6,27,9375,67,49,1,2,12,3,12.mid,experiment,0
7,29,9666,67,61,1,2,12,3,12.mid,experiment,0
8,31,9955,67,58,1,2,12,3,12.mid,experiment,0
9,33,10264,79,50,1,2,12,3,12.mid,experiment,0
10,34,10544,78,68,1,2,12,3,12.mid,experiment,0
11,36,10829,79,68,1,2,12,3,12.mid,experiment,0
12,38,11121,76,77,1,2,12,3,12.mid,experiment,0
13,40,11416,72,83,1,2,12,3,12.mid,experiment,0
14,42,11702,76,84,1,2,12,3,12.mid,experiment,0
15,44,11997,79,91,1,2,12,3,12.mid,experiment,0
16,46,12284,84,84,1,2,12,3,12.mid,experiment,0
17,48,12615,83,80,1,2,12,3,12.mid,experiment,0
18,51,12970,81,48,1,2,12,3,12.mid,experiment,0
19,53,13257,81,59,1,2,12,3,12.mid,experiment,0
20,55,13550,81,68,1,2,12,3,12.mid,experiment,0
21,57,13846,83,74,1,2,12,3,12.mid,experiment,0
22,58,14136,81,85,1,2,12,3,12.mid,experiment,0
23,60,14427,84,90,1,2,12,3,12.mid,experiment,0
24,62,14717,81,85,1,2,12,3,12.mid,experiment,0
25,64,15005,78,76,1,2,12,3,12.mid,experiment,0
26,66,15294,79,70,1,2,12,3,12.mid,experiment,0
27,69,15618,79,63,1,2,12,3,12.mid,experiment,0
28,71,16249,79,59,1,2,12,3,12.mid,experiment,0
29,73,17504,77,38,1,2,12,3,12.mid,experiment,0
30,75,17771,77,53,1,2,12,3,12.mid,experiment,0
31,77,18056,76,53,1,2,12,3,12.mid,experiment,0
32,79,18335,76,46,1,2,12,3,12.mid,experiment,0
33,81,18719,74,46,1,2,12,3,12.mid,experiment,0
34,83,19962,79,51,1,2,12,3,12.mid,experiment,0
35,85,20573,77,50,1,2,12,3,12.mid,experiment,0
36,87,21147,76,42,1,2,12,3,12.mid,experiment,0
37,89,21445,76,47,1,2,12,3,12.mid,experiment,0
38,91,21721,76,52,1,2,12,3,12.mid,experiment,0
39,93,22013,76,60,1,2,12,3,12.mid,experiment,0
40,95,22326,81,55,1,2,12,3,12.mid,experiment,0
41,96,22620,77,62,1,2,12,3,12.mid,experiment,0
42,98,22908,76,67,1,2,12,3,12.mid,experiment,0
43,100,23189,74,77,1,2,12,3,12.mid,experiment,0
44,102,23483,76,79,1,2,12,3,12.mid,experiment,0
45,104,23763,79,80,1,2,12,3,12.mid,experiment,0
46,106,24047,74,84,1,2,12,3,12.mid,experiment,0
47,108,24334,71,88,1,2,12,3,12.mid,experiment,0
48,111,24633,72,74,1,2,12,3,12.mid,experiment,0
49,113,24913,72,70,1,2,12,3,12.mid,experiment,0
50,115,25199,74,68,1,2,12,3,12.mid,experiment,0
51,117,25511,74,60,1,2,12,3,12.mid,experiment,0
52,119,25901,76,45,1,2,12,3,12.mid,experiment,0
53,121,27401,65,48,1,2,12,3,12.mid,experiment,0
54,123,27686,65,52,1,2,12,3,12.mid,experiment,0
55,125,28005,64,49,1,2,12,3,12.mid,experiment,0
56,127,28279,64,51,1,2,12,3,12.mid,experiment,0
57,129,28635,62,42,1,2,12,3,12.mid,experiment,0
58,131,29770,67,47,1,2,12,3,12.mid,experiment,0
59,133,30071,67,51,1,2,12,3,12.mid,experiment,0
60,135,30364,71,49,1,2,12,3,12.mid,experiment,0
61,137,30651,71,57,1,2,12,3,12.mid,experiment,0
62,139,30948,72,64,1,2,12,3,12.mid,experiment,0
63,141,31225,72,68,1,2,12,3,12.mid,experiment,0
64,143,31514,73,70,1,2,12,3,12.mid,experiment,0
65,145,31776,73,81,1,2,12,3,12.mid,experiment,0
66,147,32124,74,91,1,2,12,3,12.mid,experiment,0
67,149,32725,77,95,1,2,12,3,12.mid,experiment,0
68,151,33325,76,89,1,2,12,3,12.mid,experiment,0
69,153,33917,74,94,1,2,12,3,12.mid,experiment,0
70,155,34505,72,91,1,2,12,3,12.mid,experiment,0
71,157,35099,84,96,1,2,12,3,12.mid,experiment,0
72,159,35717,84,91,1,2,12,3,12.mid,experiment,0
1,17,7922,79,56,1,2,12,4,5.mid,experiment,0
2,18,8250,78,70,1,2,12,4,5.mid,experiment,0
3,20,8534,79,76,1,2,12,4,5.mid,experiment,0
4,22,8804,76,80,1,2,12,4,5.mid,experiment,0
5,24,9102,72,68,1,2,12,4,5.mid,experiment,0
6,27,9376,67,59,1,2,12,4,5.mid,experiment,0
7,29,9676,67,50,1,2,12,4,5.mid,experiment,0
8,31,9949,67,58,1,2,12,4,5.mid,experiment,0
9,33,10260,79,63,1,2,12,4,5.mid,experiment,0
10,34,10524,78,79,1,2,12,4,5.mid,experiment,0
11,36,10797,79,81,1,2,12,4,5.mid,experiment,0
12,38,11079,76,81,1,2,12,4,5.mid,experiment,0
13,40,11353,72,91,1,2,12,4,5.mid,experiment,0
14,42,11638,76,91,1,2,12,4,5.mid,experiment,0
15,44,11904,79,100,1,2,12,4,5.mid,experiment,0
16,46,12182,84,99,1,2,12,4,5.mid,experiment,0
17,48,12482,83,66,1,2,12,4,5.mid,experiment,0
18,51,12758,81,53,1,2,12,4,5.mid,experiment,0
19,53,13054,81,50,1,2,12,4,5.mid,experiment,0
20,55,13326,81,67,1,2,12,4,5.mid,experiment,0
21,57,13616,83,76,1,2,12,4,5.mid,experiment,0
22,58,13888,81,91,1,2,12,4,5.mid,experiment,0
23,60,14178,84,96,1,2,12,4,5.mid,experiment,0
24,62,14448,81,96,1,2,12,4,5.mid,experiment,0
25,64,14726,78,72,1,2,12,4,5.mid,experiment,0
26,66,15006,79,78,1,2,12,4,5.mid,experiment,0
27,69,15338,79,71,1,2,12,4,5.mid,experiment,0
28,71,15930,79,81,1,2,12,4,5.mid,experiment,0
29,73,17238,77,51,1,2,12,4,5.mid,experiment,0
30,75,17490,77,55,1,2,12,4,5.mid,experiment,0
31,77,17750,76,56,1,2,12,4,5.mid,experiment,0
32,79,18014,76,58,1,2,12,4,5.mid,experiment,0
33,81,18374,74,49,1,2,12,4,5.mid,experiment,0
34,83,19482,79,39,1,2,12,4,5.mid,experiment,0
35,85,20048,77,53,1,2,12,4,5.mid,experiment,0
36,87,20604,76,48,1,2,12,4,5.mid,experiment,0
37,89,20876,76,54,1,2,12,4,5.mid,experiment,0
38,91,21166,76,63,1,2,12,4,5.mid,experiment,0
39,93,21436,76,73,1,2,12,4,5.mid,experiment,0
40,95,21764,81,93,1,2,12,4,5.mid,experiment,0
41,96,22056,77,91,1,2,12,4,5.mid,experiment,0
42,98,22336,76,91,1,2,12,4,5.mid,experiment,0
43,100,22604,74,91,1,2,12,4,5.mid,experiment,0
44,102,22872,76,85,1,2,12,4,5.mid,experiment,0
45,104,23139,79,91,1,2,12,4,5.mid,experiment,0
46,106,23422,74,89,1,2,12,4,5.mid,experiment,0
47,108,23697,71,79,1,2,12,4,5.mid,experiment,0
48,111,23977,72,61,1,2,12,4,5.mid,experiment,0
49,113,24252,72,60,1,2,12,4,5.mid,experiment,0
50,115,24516,74,62,1,2,12,4,5.mid,experiment,0
51,117,24798,74,58,1,2,12,4,5.mid,experiment,0
52,119,25126,76,45,1,2,12,4,5.mid,experiment,0
53,121,26202,65,52,1,2,12,4,5.mid,experiment,0
54,123,26466,65,56,1,2,12,4,5.mid,experiment,0
55,125,26761,64,50,1,2,12,4,5.mid,experiment,0
56,127,27035,64,48,1,2,12,4,5.mid,experiment,0
57,129,27400,62,37,1,2,12,4,5.mid,experiment,0
58,131,28412,67,54,1,2,12,4,5.mid,experiment,0
59,133,28684,67,55,1,2,12,4,5.mid,experiment,0
60,135,28968,71,50,1,2,12,4,5.mid,experiment,0
61,137,29248,71,53,1,2,12,4,5.mid,experiment,0
62,139,29518,72,59,1,2,12,4,5.mid,experiment,0
63,141,29780,72,67,1,2,12,4,5.mid,experiment,0
64,143,30062,73,67,1,2,12,4,5.mid,experiment,0
65,145,30336,73,74,1,2,12,4,5.mid,experiment,0
66,147,30630,74,88,1,2,12,4,5.mid,experiment,0
67,149,31198,77,88,1,2,12,4,5.mid,experiment,0
68,151,31758,76,83,1,2,12,4,5.mid,experiment,0
69,153,32310,74,88,1,2,12,4,5.mid,experiment,0
70,155,32846,72,88,1,2,12,4,5.mid,experiment,0
71,157,33392,84,91,1,2,12,4,5.mid,experiment,0
72,159,33968,84,95,1,2,12,4,5.mid,experiment,0
1,17,7816,79,66,1,2,12,8,8.mid,experiment,0
2,18,8104,78,81,1,2,12,8,8.mid,experiment,0
3,20,8384,79,83,1,2,12,8,8.mid,experiment,0
4,22,8656,76,78,1,2,12,8,8.mid,experiment,0
5,24,8950,72,79,1,2,12,8,8.mid,experiment,0
6,27,9284,67,58,1,2,12,8,8.mid,experiment,0
7,29,9560,67,66,1,2,12,8,8.mid,experiment,0
8,31,9841,67,72,1,2,12,8,8.mid,experiment,0
9,33,10132,79,58,1,2,12,8,8.mid,experiment,0
10,34,10392,78,76,1,2,12,8,8.mid,experiment,0
11,36,10660,79,83,1,2,12,8,8.mid,experiment,0
12,38,10934,76,85,1,2,12,8,8.mid,experiment,0
13,40,11208,72,91,1,2,12,8,8.mid,experiment,0
14,42,11484,76,89,1,2,12,8,8.mid,experiment,0
15,44,11758,79,97,1,2,12,8,8.mid,experiment,0
16,46,12034,84,101,1,2,12,8,8.mid,experiment,0
17,48,12330,83,80,1,2,12,8,8.mid,experiment,0
18,51,12626,81,65,1,2,12,8,8.mid,experiment,0
19,53,12895,81,79,1,2,12,8,8.mid,experiment,0
20,55,13161,81,81,1,2,12,8,8.mid,experiment,0
21,57,13456,83,79,1,2,12,8,8.mid,experiment,0
22,58,13739,81,82,1,2,12,8,8.mid,experiment,0
23,60,14030,84,90,1,2,12,8,8.mid,experiment,0
24,62,14308,81,81,1,2,12,8,8.mid,experiment,0
25,64,14586,78,76,1,2,12,8,8.mid,experiment,0
26,66,14860,79,84,1,2,12,8,8.mid,experiment,0
27,69,15170,79,88,1,2,12,8,8.mid,experiment,0
28,71,15794,79,94,1,2,12,8,8.mid,experiment,0
29,73,17056,77,75,1,2,12,8,8.mid,experiment,0
30,75,17343,77,82,1,2,12,8,8.mid,experiment,0
31,77,17618,76,80,1,2,12,8,8.mid,experiment,0
32,79,17892,76,82,1,2,12,8,8.mid,experiment,0
33,81,18242,74,67,1,2,12,8,8.mid,experiment,0
34,83,19464,79,68,1,2,12,8,8.mid,experiment,0
35,85,20054,77,76,1,2,12,8,8.mid,experiment,0
36,87,20624,76,78,1,2,12,8,8.mid,experiment,0
37,89,20906,76,77,1,2,12,8,8.mid,experiment,0
38,91,21188,76,89,1,2,12,8,8.mid,experiment,0
39,93,21464,76,88,1,2,12,8,8.mid,experiment,0
40,95,21782,81,84,1,2,12,8,8.mid,experiment,0
41,96,22058,77,80,1,2,12,8,8.mid,experiment,0
42,98,22346,76,71,1,2,12,8,8.mid,experiment,0
43,101,22623,74,74,1,2,12,8,8.mid,experiment,0
44,102,22916,76,79,1,2,12,8,8.mid,experiment,0
45,105,23208,79,68,1,2,12,8,8.mid,experiment,0
46,106,23492,74,66,1,2,12,8,8.mid,experiment,0
47,109,23774,71,66,1,2,12,8,8.mid,experiment,0
48,111,24068,72,82,1,2,12,8,8.mid,experiment,0
49,113,24372,72,70,1,2,12,8,8.mid,experiment,0
50,115,24660,74,78,1,2,12,8,8.mid,experiment,0
51,117,24944,74,77,1,2,12,8,8.mid,experiment,0
52,119,25276,76,72,1,2,12,8,8.mid,experiment,0
53,121,26526,65,66,1,2,12,8,8.mid,experiment,0
54,123,26826,65,65,1,2,12,8,8.mid,experiment,0
55,125,27126,64,61,1,2,12,8,8.mid,experiment,0
56,127,27412,64,63,1,2,12,8,8.mid,experiment,0
57,129,27756,62,45,1,2,12,8,8.mid,experiment,0
58,131,28928,67,67,1,2,12,8,8.mid,experiment,0
59,133,29211,67,68,1,2,12,8,8.mid,experiment,0
60,135,29496,71,75,1,2,12,8,8.mid,experiment,0
61,137,29773,71,76,1,2,12,8,8.mid,experiment,0
62,139,30054,72,81,1,2,12,8,8.mid,experiment,0
63,141,30342,72,79,1,2,12,8,8.mid,experiment,0
64,143,30640,73,88,1,2,12,8,8.mid,experiment,0
65,145,30919,73,94,1,2,12,8,8.mid,experiment,0
66,147,31228,74,96,1,2,12,8,8.mid,experiment,0
67,149,31833,77,96,1,2,12,8,8.mid,experiment,0
68,151,32449,76,91,1,2,12,8,8.mid,experiment,0
69,153,33045,74,95,1,2,12,8,8.mid,experiment,0
70,155,33630,72,91,1,2,12,8,8.mid,experiment,0
71,157,34226,84,93,1,2,12,8,8.mid,experiment,0
72,159,34844,84,96,1,2,12,8,8.mid,experiment,0
1,17,7887,79,76,1,2,12,9,15.mid,experiment,0
2,18,8195,78,90,1,2,12,9,15.mid,experiment,0
3,20,8500,79,91,1,2,12,9,15.mid,experiment,0
4,22,8789,76,87,1,2,12,9,15.mid,experiment,0
5,24,9072,72,79,1,2,12,9,15.mid,experiment,0
6,27,9347,67,62,1,2,12,9,15.mid,experiment,0
7,29,9650,67,58,1,2,12,9,15.mid,experiment,0
8,31,9920,67,74,1,2,12,9,15.mid,experiment,0
9,33,10208,79,82,1,2,12,9,15.mid,experiment,0
10,34,10495,78,90,1,2,12,9,15.mid,experiment,0
11,36,10778,79,90,1,2,12,9,15.mid,experiment,0
12,38,11065,76,84,1,2,12,9,15.mid,experiment,0
13,40,11347,72,85,1,2,12,9,15.mid,experiment,0
14,42,11630,76,93,1,2,12,9,15.mid,experiment,0
15,44,11899,79,91,1,2,12,9,15.mid,experiment,0
16,46,12184,84,97,1,2,12,9,15.mid,experiment,0
17,48,12454,83,86,1,2,12,9,15.mid,experiment,0
18,51,12745,81,65,1,2,12,9,15.mid,experiment,0
19,53,13024,81,67,1,2,12,9,15.mid,experiment,0
20,55,13300,81,76,1,2,12,9,15.mid,experiment,0
21,57,13584,83,82,1,2,12,9,15.mid,experiment,0
22,58,13854,81,87,1,2,12,9,15.mid,experiment,0
23,60,14155,84,91,1,2,12,9,15.mid,experiment,0
24,62,14433,81,83,1,2,12,9,15.mid,experiment,0
25,64,14711,78,80,1,2,12,9,15.mid,experiment,0
26,66,14989,79,80,1,2,12,9,15.mid,experiment,0
27,69,15314,79,80,1,2,12,9,15.mid,experiment,0
28,71,15919,79,85,1,2,12,9,15.mid,experiment,0
29,73,17135,77,48,1,2,12,9,15.mid,experiment,0
30,75,17396,77,57,1,2,12,9,15.mid,experiment,0
31,77,17686,76,50,1,2,12,9,15.mid,experiment,0
32,79,17947,76,52,1,2,12,9,15.mid,experiment,0
33,81,18282,74,47,1,2,12,9,15.mid,experiment,0
34,83,19535,79,36,1,2,12,9,15.mid,experiment,0
35,85,20102,77,55,1,2,12,9,15.mid,experiment,0
36,87,20686,76,53,1,2,12,9,15.mid,experiment,0
37,89,20964,76,58,1,2,12,9,15.mid,experiment,0
38,91,21229,76,66,1,2,12,9,15.mid,experiment,0
39,93,21499,76,71,1,2,12,9,15.mid,experiment,0
40,95,21791,81,86,1,2,12,9,15.mid,experiment,0
41,96,22074,77,78,1,2,12,9,15.mid,experiment,0
42,98,22344,76,77,1,2,12,9,15.mid,experiment,0
43,100,22619,74,85,1,2,12,9,15.mid,experiment,0
44,102,22898,76,86,1,2,12,9,15.mid,experiment,0
45,104,23161,79,91,1,2,12,9,15.mid,experiment,0
46,106,23434,74,85,1,2,12,9,15.mid,experiment,0
47,109,23697,71,79,1,2,12,9,15.mid,experiment,0
48,111,23984,72,66,1,2,12,9,15.mid,experiment,0
49,113,24252,72,59,1,2,12,9,15.mid,experiment,0
50,115,24515,74,66,1,2,12,9,15.mid,experiment,0
51,117,24787,74,62,1,2,12,9,15.mid,experiment,0
52,119,25147,76,49,1,2,12,9,15.mid,experiment,0
53,121,26323,65,52,1,2,12,9,15.mid,experiment,0
54,123,26599,65,53,1,2,12,9,15.mid,experiment,0
55,125,26911,64,50,1,2,12,9,15.mid,experiment,0
56,127,27177,64,55,1,2,12,9,15.mid,experiment,0
57,129,27541,62,43,1,2,12,9,15.mid,experiment,0
58,131,28673,67,56,1,2,12,9,15.mid,experiment,0
59,133,28962,67,56,1,2,12,9,15.mid,experiment,0
60,135,29238,71,50,1,2,12,9,15.mid,experiment,0
61,137,29511,71,58,1,2,12,9,15.mid,experiment,0
62,139,29802,72,58,1,2,12,9,15.mid,experiment,0
63,141,30086,72,61,1,2,12,9,15.mid,experiment,0
64,143,30354,73,67,1,2,12,9,15.mid,experiment,0
65,145,30635,73,70,1,2,12,9,15.mid,experiment,0
66,147,30942,74,75,1,2,12,9,15.mid,experiment,0
67,149,31565,77,91,1,2,12,9,15.mid,experiment,0
68,151,32181,76,88,1,2,12,9,15.mid,experiment,0
69,153,32796,74,90,1,2,12,9,15.mid,experiment,0
70,155,33390,72,94,1,2,12,9,15.mid,experiment,0
71,157,33994,84,101,1,2,12,9,15.mid,experiment,0
72,159,34628,84,98,1,2,12,9,15.mid,experiment,0
1,17,7814,79,63,1,2,12,10,2.mid,experiment,0
2,18,8096,78,81,1,2,12,10,2.mid,experiment,0
3,20,8381,79,84,1,2,12,10,2.mid,experiment,0
4,22,8652,76,85,1,2,12,10,2.mid,experiment,0
5,24,8938,72,77,1,2,12,10,2.mid,experiment,0
6,27,9242,67,60,1,2,12,10,2.mid,experiment,0
7,29,9534,67,52,1,2,12,10,2.mid,experiment,0
8,31,9800,67,57,1,2,12,10,2.mid,experiment,0
9,33,10090,79,60,1,2,12,10,2.mid,experiment,0
10,34,10336,78,76,1,2,12,10,2.mid,experiment,0
11,36,10614,79,79,1,2,12,10,2.mid,experiment,0
12,38,10898,76,79,1,2,12,10,2.mid,experiment,0
13,40,11176,72,88,1,2,12,10,2.mid,experiment,0
14,42,11446,76,90,1,2,12,10,2.mid,experiment,0
15,44,11709,79,104,1,2,12,10,2.mid,experiment,0
16,46,11998,84,98,1,2,12,10,2.mid,experiment,0
17,48,12355,83,68,1,2,12,10,2.mid,experiment,0
18,51,12684,81,53,1,2,12,10,2.mid,experiment,0
19,53,12978,81,48,1,2,12,10,2.mid,experiment,0
20,55,13262,81,48,1,2,12,10,2.mid,experiment,0
21,57,13546,83,63,1,2,12,10,2.mid,experiment,0
22,58,13806,81,87,1,2,12,10,2.mid,experiment,0
23,60,14096,84,91,1,2,12,10,2.mid,experiment,0
24,62,14368,81,94,1,2,12,10,2.mid,experiment,0
25,64,14641,78,90,1,2,12,10,2.mid,experiment,0
26,66,14912,79,89,1,2,12,10,2.mid,experiment,0
27,69,15215,79,81,1,2,12,10,2.mid,experiment,0
28,71,15783,79,93,1,2,12,10,2.mid,experiment,0
29,73,17016,77,50,1,2,12,10,2.mid,experiment,0
30,75,17281,77,60,1,2,12,10,2.mid,experiment,0
31,77,17552,76,45,1,2,12,10,2.mid,experiment,0
32,79,17802,76,53,1,2,12,10,2.mid,experiment,0
33,81,18116,74,50,1,2,12,10,2.mid,experiment,0
34,83,19228,79,52,1,2,12,10,2.mid,experiment,0
35,85,19780,77,49,1,2,12,10,2.mid,experiment,0
36,87,20302,76,50,1,2,12,10,2.mid,experiment,0
37,89,20586,76,48,1,2,12,10,2.mid,experiment,0
38,91,20848,76,58,1,2,12,10,2.mid,experiment,0
39,93,21106,76,66,1,2,12,10,2.mid,experiment,0
40,95,21402,81,68,1,2,12,10,2.mid,experiment,0
41,96,21676,77,73,1,2,12,10,2.mid,experiment,0
42,98,21932,76,78,1,2,12,10,2.mid,experiment,0
43,100,22188,74,87,1,2,12,10,2.mid,experiment,0
44,102,22458,76,85,1,2,12,10,2.mid,experiment,0
45,104,22722,79,91,1,2,12,10,2.mid,experiment,0
46,106,22982,74,86,1,2,12,10,2.mid,experiment,0
47,108,23242,71,79,1,2,12,10,2.mid,experiment,0
48,111,23512,72,70,1,2,12,10,2.mid,experiment,0
49,113,23782,72,65,1,2,12,10,2.mid,experiment,0
50,115,24042,74,62,1,2,12,10,2.mid,experiment,0
51,117,24304,74,60,1,2,12,10,2.mid,experiment,0
52,119,24602,76,48,1,2,12,10,2.mid,experiment,0
53,121,25672,65,49,1,2,12,10,2.mid,experiment,0
54,123,25925,65,57,1,2,12,10,2.mid,experiment,0
55,125,26181,64,56,1,2,12,10,2.mid,experiment,0
56,127,26462,64,50,1,2,12,10,2.mid,experiment,0
57,129,26808,62,41,1,2,12,10,2.mid,experiment,0
58,131,27774,67,46,1,2,12,10,2.mid,experiment,0
59,133,28038,67,54,1,2,12,10,2.mid,experiment,0
60,135,28310,71,54,1,2,12,10,2.mid,experiment,0
61,137,28572,71,60,1,2,12,10,2.mid,experiment,0
62,139,28842,72,68,1,2,12,10,2.mid,experiment,0
63,141,29102,72,71,1,2,12,10,2.mid,experiment,0
64,143,29360,73,78,1,2,12,10,2.mid,experiment,0
65,145,29612,73,91,1,2,12,10,2.mid,experiment,0
66,147,29916,74,94,1,2,12,10,2.mid,experiment,0
67,149,30487,77,95,1,2,12,10,2.mid,experiment,0
68,151,31046,76,106,1,2,12,10,2.mid,experiment,0
69,153,31608,74,105,1,2,12,10,2.mid,experiment,0
70,155,32172,72,112,1,2,12,10,2.mid,experiment,0
71,157,32750,84,112,1,2,12,10,2.mid,experiment,0
72,159,33323,84,99,1,2,12,10,2.mid,experiment,0
1,17,7866,79,81,1,2,12,11,6.mid,experiment,0
2,18,8194,78,86,1,2,12,11,6.mid,experiment,0
3,20,8502,79,94,1,2,12,11,6.mid,experiment,0
4,22,8808,76,88,1,2,12,11,6.mid,experiment,0
5,24,9108,72,98,1,2,12,11,6.mid,experiment,0
6,27,9429,67,84,1,2,12,11,6.mid,experiment,0
7,29,9750,67,72,1,2,12,11,6.mid,experiment,0
8,31,10051,67,85,1,2,12,11,6.mid,experiment,0
9,33,10379,79,65,1,2,12,11,6.mid,experiment,0
10,34,10665,78,87,1,2,12,11,6.mid,experiment,0
11,36,10978,79,94,1,2,12,11,6.mid,experiment,0
12,38,11280,76,82,1,2,12,11,6.mid,experiment,0
13,40,11582,72,91,1,2,12,11,6.mid,experiment,0
14,42,11882,76,89,1,2,12,11,6.mid,experiment,0
15,44,12170,79,94,1,2,12,11,6.mid,experiment,0
16,46,12465,84,91,1,2,12,11,6.mid,experiment,0
17,48,12772,83,95,1,2,12,11,6.mid,experiment,0
18,51,13076,81,87,1,2,12,11,6.mid,experiment,0
19,53,13367,81,97,1,2,12,11,6.mid,experiment,0
20,55,13660,81,95,1,2,12,11,6.mid,experiment,0
21,57,13964,83,81,1,2,12,11,6.mid,experiment,0
22,58,14259,81,84,1,2,12,11,6.mid,experiment,0
23,60,14553,84,94,1,2,12,11,6.mid,experiment,0
24,62,14852,81,79,1,2,12,11,6.mid,experiment,0
25,64,15138,78,90,1,2,12,11,6.mid,experiment,0
26,66,15461,79,78,1,2,12,11,6.mid,experiment,0
27,69,15776,79,88,1,2,12,11,6.mid,experiment,0
28,71,16412,79,76,1,2,12,11,6.mid,experiment,0
29,73,17659,77,59,1,2,12,11,6.mid,experiment,0
30,75,17959,77,84,1,2,12,11,6.mid,experiment,0
31,77,18255,76,86,1,2,12,11,6.mid,experiment,0
32,79,18550,76,89,1,2,12,11,6.mid,experiment,0
33,81,18884,74,77,1,2,12,11,6.mid,experiment,0
34,83,20162,79,78,1,2,12,11,6.mid,experiment,0
35,85,20802,77,78,1,2,12,11,6.mid,experiment,0
36,87,21396,76,70,1,2,12,11,6.mid,experiment,0
37,89,21684,76,69,1,2,12,11,6.mid,experiment,0
38,91,21970,76,81,1,2,12,11,6.mid,experiment,0
39,93,22256,76,89,1,2,12,11,6.mid,experiment,0
40,95,22585,81,68,1,2,12,11,6.mid,experiment,0
41,96,22873,77,74,1,2,12,11,6.mid,experiment,0
42,98,23162,76,76,1,2,12,11,6.mid,experiment,0
43,100,23456,74,85,1,2,12,11,6.mid,experiment,0
44,102,23756,76,77,1,2,12,11,6.mid,experiment,0
45,104,24038,79,84,1,2,12,11,6.mid,experiment,0
46,106,24321,74,79,1,2,12,11,6.mid,experiment,0
47,109,24599,71,74,1,2,12,11,6.mid,experiment,0
48,110,24883,72,75,1,2,12,11,6.mid,experiment,0
49,113,25146,72,78,1,2,12,11,6.mid,experiment,0
50,115,25430,74,80,1,2,12,11,6.mid,experiment,0
51,117,25715,74,81,1,2,12,11,6.mid,experiment,0
52,119,26017,76,76,1,2,12,11,6.mid,experiment,0
53,121,27135,65,51,1,2,12,11,6.mid,experiment,0
54,123,27430,65,59,1,2,12,11,6.mid,experiment,0
55,125,27717,64,57,1,2,12,11,6.mid,experiment,0
56,127,28001,64,59,1,2,12,11,6.mid,experiment,0
57,129,28322,62,47,1,2,12,11,6.mid,experiment,0
58,131,29393,67,60,1,2,12,11,6.mid,experiment,0
59,133,29701,67,70,1,2,12,11,6.mid,experiment,0
60,135,29981,71,65,1,2,12,11,6.mid,experiment,0
61,137,30258,71,67,1,2,12,11,6.mid,experiment,0
62,139,30544,72,70,1,2,12,11,6.mid,experiment,0
63,141,30819,72,72,1,2,12,11,6.mid,experiment,0
64,143,31087,73,68,1,2,12,11,6.mid,experiment,0
65,145,31359,73,76,1,2,12,11,6.mid,experiment,0
66,147,31671,74,77,1,2,12,11,6.mid,experiment,0
67,149,32279,77,94,1,2,12,11,6.mid,experiment,0
68,151,32880,76,87,1,2,12,11,6.mid,experiment,0
69,153,33497,74,94,1,2,12,11,6.mid,experiment,0
70,155,34109,72,89,1,2,12,11,6.mid,experiment,0
71,157,34731,84,89,1,2,12,11,6.mid,experiment,0
72,159,35345,84,95,1,2,12,11,6.mid,experiment,0
1,17,7894,79,76,1,2,12,12,3.mid,experiment,0
2,18,8190,78,82,1,2,12,12,3.mid,experiment,0
3,20,8478,79,83,1,2,12,12,3.mid,experiment,0
4,22,8758,76,81,1,2,12,12,3.mid,experiment,0
5,24,9065,72,68,1,2,12,12,3.mid,experiment,0
6,27,9380,67,34,1,2,12,12,3.mid,experiment,0
7,29,9676,67,49,1,2,12,12,3.mid,experiment,0
8,31,9970,67,51,1,2,12,12,3.mid,experiment,0
9,33,10268,79,62,1,2,12,12,3.mid,experiment,0
10,34,10552,78,75,1,2,12,12,3.mid,experiment,0
11,36,10831,79,83,1,2,12,12,3.mid,experiment,0
12,38,11108,76,86,1,2,12,12,3.mid,experiment,0
13,40,11404,72,91,1,2,12,12,3.mid,experiment,0
14,42,11688,76,89,1,2,12,12,3.mid,experiment,0
15,44,11964,79,97,1,2,12,12,3.mid,experiment,0
16,46,12253,84,104,1,2,12,12,3.mid,experiment,0
17,48,12546,83,93,1,2,12,12,3.mid,experiment,0
18,51,12898,81,57,1,2,12,12,3.mid,experiment,0
19,53,13188,81,57,1,2,12,12,3.mid,experiment,0
20,55,13464,81,59,1,2,12,12,3.mid,experiment,0
21,57,13764,83,58,1,2,12,12,3.mid,experiment,0
22,58,14038,81,76,1,2,12,12,3.mid,experiment,0
23,60,14322,84,84,1,2,12,12,3.mid,experiment,0
24,62,14597,81,79,1,2,12,12,3.mid,experiment,0
25,64,14890,78,78,1,2,12,12,3.mid,experiment,0
26,66,15156,79,78,1,2,12,12,3.mid,experiment,0
27,69,15470,79,76,1,2,12,12,3.mid,experiment,0
28,71,16052,79,81,1,2,12,12,3.mid,experiment,0
29,73,17308,77,70,1,2,12,12,3.mid,experiment,0
30,75,17584,77,65,1,2,12,12,3.mid,experiment,0
31,77,17842,76,55,1,2,12,12,3.mid,experiment,0
32,79,18114,76,51,1,2,12,12,3.mid,experiment,0
33,81,18439,74,51,1,2,12,12,3.mid,experiment,0
34,83,19716,79,54,1,2,12,12,3.mid,experiment,0
35,85,20304,77,55,1,2,12,12,3.mid,experiment,0
36,87,20876,76,55,1,2,12,12,3.mid,experiment,0
37,89,21158,76,52,1,2,12,12,3.mid,experiment,0
38,91,21423,76,63,1,2,12,12,3.mid,experiment,0
39,93,21674,76,72,1,2,12,12,3.mid,experiment,0
40,95,21956,81,68,1,2,12,12,3.mid,experiment,0
41,96,22228,77,73,1,2,12,12,3.mid,experiment,0
42,98,22488,76,67,1,2,12,12,3.mid,experiment,0
43,100,22758,74,72,1,2,12,12,3.mid,experiment,0
44,102,23028,76,71,1,2,12,12,3.mid,experiment,0
45,104,23290,79,81,1,2,12,12,3.mid,experiment,0
46,106,23568,74,81,1,2,12,12,3.mid,experiment,0
47,108,23834,71,88,1,2,12,12,3.mid,experiment,0
48,111,24103,72,66,1,2,12,12,3.mid,experiment,0
49,113,24366,72,63,1,2,12,12,3.mid,experiment,0
50,115,24636,74,62,1,2,12,12,3.mid,experiment,0
51,117,24902,74,62,1,2,12,12,3.mid,experiment,0
52,119,25226,76,62,1,2,12,12,3.mid,experiment,0
53,121,26396,65,59,1,2,12,12,3.mid,experiment,0
54,123,26676,65,59,1,2,12,12,3.mid,experiment,0
55,125,26951,64,57,1,2,12,12,3.mid,experiment,0
56,127,27219,64,56,1,2,12,12,3.mid,experiment,0
57,129,27542,62,46,1,2,12,12,3.mid,experiment,0
58,131,28614,67,53,1,2,12,12,3.mid,experiment,0
59,133,28890,67,65,1,2,12,12,3.mid,experiment,0
60,135,29158,71,67,1,2,12,12,3.mid,experiment,0
61,137,29428,71,74,1,2,12,12,3.mid,experiment,0
62,139,29682,72,84,1,2,12,12,3.mid,experiment,0
63,141,29946,72,85,1,2,12,12,3.mid,experiment,0
64,143,30209,73,96,1,2,12,12,3.mid,experiment,0
65,145,30473,73,101,1,2,12,12,3.mid,experiment,0
66,147,30774,74,96,1,2,12,12,3.mid,experiment,0
67,149,31344,77,97,1,2,12,12,3.mid,experiment,0
68,151,31918,76,88,1,2,12,12,3.mid,experiment,0
69,153,32500,74,91,1,2,12,12,3.mid,experiment,0
70,155,33056,72,93,1,2,12,12,3.mid,experiment,0
71,157,33633,84,95,1,2,12,12,3.mid,experiment,0
72,159,34202,84,90,1,2,12,12,3.mid,experiment,0
1,17,7847,79,76,1,2,12,14,1.mid,experiment,0
2,18,8149,78,89,1,2,12,14,1.mid,experiment,0
3,20,8445,79,98,1,2,12,14,1.mid,experiment,0
4,22,8725,76,91,1,2,12,14,1.mid,experiment,0
5,24,9041,72,78,1,2,12,14,1.mid,experiment,0
6,27,9501,67,51,1,2,12,14,1.mid,experiment,0
7,29,9820,67,52,1,2,12,14,1.mid,experiment,0
8,31,10111,67,66,1,2,12,14,1.mid,experiment,0
9,33,10412,79,76,1,2,12,14,1.mid,experiment,0
10,34,10671,78,85,1,2,12,14,1.mid,experiment,0
11,36,10951,79,88,1,2,12,14,1.mid,experiment,0
12,38,11225,76,89,1,2,12,14,1.mid,experiment,0
13,40,11507,72,90,1,2,12,14,1.mid,experiment,0
14,42,11783,76,91,1,2,12,14,1.mid,experiment,0
15,44,12051,79,98,1,2,12,14,1.mid,experiment,0
16,46,12325,84,97,1,2,12,14,1.mid,experiment,0
17,48,12625,83,83,1,2,12,14,1.mid,experiment,0
18,51,13029,81,50,1,2,12,14,1.mid,experiment,0
19,53,13341,81,39,1,2,12,14,1.mid,experiment,0
20,55,13619,81,61,1,2,12,14,1.mid,experiment,0
21,57,13897,83,80,1,2,12,14,1.mid,experiment,0
22,58,14165,81,88,1,2,12,14,1.mid,experiment,0
23,60,14437,84,91,1,2,12,14,1.mid,experiment,0
24,62,14719,81,84,1,2,12,14,1.mid,experiment,0
25,64,14985,78,85,1,2,12,14,1.mid,experiment,0
26,66,15257,79,87,1,2,12,14,1.mid,experiment,0
27,69,15553,79,78,1,2,12,14,1.mid,experiment,0
28,71,16113,79,86,1,2,12,14,1.mid,experiment,0
29,73,17305,77,67,1,2,12,14,1.mid,experiment,0
30,75,17573,77,63,1,2,12,14,1.mid,experiment,0
31,77,17855,76,55,1,2,12,14,1.mid,experiment,0
32,79,18147,76,51,1,2,12,14,1.mid,experiment,0
33,81,18707,74,48,1,2,12,14,1.mid,experiment,0
34,83,19967,79,50,1,2,12,14,1.mid,experiment,0
35,85,20557,77,54,1,2,12,14,1.mid,experiment,0
36,87,21120,76,47,1,2,12,14,1.mid,experiment,0
37,89,21389,76,58,1,2,12,14,1.mid,experiment,0
38,91,21665,76,62,1,2,12,14,1.mid,experiment,0
39,93,21935,76,64,1,2,12,14,1.mid,experiment,0
40,95,22251,81,77,1,2,12,14,1.mid,experiment,0
41,96,22525,77,88,1,2,12,14,1.mid,experiment,0
42,98,22791,76,85,1,2,12,14,1.mid,experiment,0
43,100,23071,74,90,1,2,12,14,1.mid,experiment,0
44,102,23351,76,81,1,2,12,14,1.mid,experiment,0
45,104,23613,79,93,1,2,12,14,1.mid,experiment,0
46,106,23877,74,90,1,2,12,14,1.mid,experiment,0
47,108,24137,71,93,1,2,12,14,1.mid,experiment,0
48,111,24419,72,74,1,2,12,14,1.mid,experiment,0
49,113,24684,72,72,1,2,12,14,1.mid,experiment,0
50,115,24957,74,68,1,2,12,14,1.mid,experiment,0
51,117,25261,74,66,1,2,12,14,1.mid,experiment,0
52,119,25771,76,47,1,2,12,14,1.mid,experiment,0
53,121,27109,65,54,1,2,12,14,1.mid,experiment,0
54,123,27365,65,62,1,2,12,14,1.mid,experiment,0
55,125,27669,64,53,1,2,12,14,1.mid,experiment,0
56,127,27961,64,53,1,2,12,14,1.mid,experiment,0
57,129,28479,62,48,1,2,12,14,1.mid,experiment,0
58,131,29648,67,53,1,2,12,14,1.mid,experiment,0
59,133,29939,67,48,1,2,12,14,1.mid,experiment,0
60,135,30201,71,61,1,2,12,14,1.mid,experiment,0
61,137,30477,71,57,1,2,12,14,1.mid,experiment,0
62,139,30740,72,59,1,2,12,14,1.mid,experiment,0
63,141,31009,72,64,1,2,12,14,1.mid,experiment,0
64,143,31297,73,62,1,2,12,14,1.mid,experiment,0
65,145,31563,73,72,1,2,12,14,1.mid,experiment,0
66,147,31855,74,72,1,2,12,14,1.mid,experiment,0
67,149,32457,77,88,1,2,12,14,1.mid,experiment,0
68,151,33049,76,88,1,2,12,14,1.mid,experiment,0
69,153,33651,74,98,1,2,12,14,1.mid,experiment,0
70,155,34237,72,95,1,2,12,14,1.mid,experiment,0
71,157,34845,84,98,1,2,12,14,1.mid,experiment,0
72,159,35453,84,101,1,2,12,14,1.mid,experiment,0
1,17,7870,79,56,1,2,12,16,9.mid,experiment,0
2,18,8144,78,79,1,2,12,16,9.mid,experiment,0
3,20,8407,79,81,1,2,12,16,9.mid,experiment,0
4,22,8658,76,75,1,2,12,16,9.mid,experiment,0
5,24,8900,72,79,1,2,12,16,9.mid,experiment,0
6,27,9152,67,62,1,2,12,16,9.mid,experiment,0
7,29,9408,67,64,1,2,12,16,9.mid,experiment,0
8,31,9645,67,72,1,2,12,16,9.mid,experiment,0
9,33,9893,79,71,1,2,12,16,9.mid,experiment,0
10,34,10129,78,83,1,2,12,16,9.mid,experiment,0
11,36,10375,79,91,1,2,12,16,9.mid,experiment,0
12,38,10615,76,83,1,2,12,16,9.mid,experiment,0
13,40,10854,72,90,1,2,12,16,9.mid,experiment,0
14,42,11094,76,88,1,2,12,16,9.mid,experiment,0
15,44,11333,79,101,1,2,12,16,9.mid,experiment,0
16,46,11572,84,100,1,2,12,16,9.mid,experiment,0
17,48,11796,83,83,1,2,12,16,9.mid,experiment,0
18,51,12045,81,58,1,2,12,16,9.mid,experiment,0
19,53,12285,81,65,1,2,12,16,9.mid,experiment,0
20,55,12530,81,65,1,2,12,16,9.mid,experiment,0
21,57,12769,83,70,1,2,12,16,9.mid,experiment,0
22,58,12988,81,84,1,2,12,16,9.mid,experiment,0
23,60,13241,84,91,1,2,12,16,9.mid,experiment,0
24,62,13470,81,87,1,2,12,16,9.mid,experiment,0
25,64,13713,78,76,1,2,12,16,9.mid,experiment,0
26,66,13942,79,81,1,2,12,16,9.mid,experiment,0
27,69,14195,79,79,1,2,12,16,9.mid,experiment,0
28,71,14719,79,94,1,2,12,16,9.mid,experiment,0
29,73,15717,77,74,1,2,12,16,9.mid,experiment,0
30,75,15949,77,58,1,2,12,16,9.mid,experiment,0
31,77,16208,76,54,1,2,12,16,9.mid,experiment,0
32,79,16437,76,47,1,2,12,16,9.mid,experiment,0
33,81,16728,74,45,1,2,12,16,9.mid,experiment,0
34,83,17717,79,56,1,2,12,16,9.mid,experiment,0
35,85,18229,77,56,1,2,12,16,9.mid,experiment,0
36,87,18720,76,48,1,2,12,16,9.mid,experiment,0
37,89,18957,76,47,1,2,12,16,9.mid,experiment,0
38,91,19187,76,62,1,2,12,16,9.mid,experiment,0
39,93,19417,76,70,1,2,12,16,9.mid,experiment,0
40,95,19655,81,67,1,2,12,16,9.mid,experiment,0
41,96,19889,77,71,1,2,12,16,9.mid,experiment,0
42,98,20120,76,76,1,2,12,16,9.mid,experiment,0
43,100,20361,74,85,1,2,12,16,9.mid,experiment,0
44,102,20609,76,81,1,2,12,16,9.mid,experiment,0
45,104,20828,79,93,1,2,12,16,9.mid,experiment,0
46,106,21065,74,87,1,2,12,16,9.mid,experiment,0
47,108,21299,71,74,1,2,12,16,9.mid,experiment,0
48,111,21543,72,62,1,2,12,16,9.mid,experiment,0
49,113,21770,72,62,1,2,12,16,9.mid,experiment,0
50,115,22018,74,57,1,2,12,16,9.mid,experiment,0
51,117,22251,74,60,1,2,12,16,9.mid,experiment,0
52,119,22550,76,45,1,2,12,16,9.mid,experiment,0
53,121,23504,65,63,1,2,12,16,9.mid,experiment,0
54,123,23721,65,62,1,2,12,16,9.mid,experiment,0
55,125,23984,64,49,1,2,12,16,9.mid,experiment,0
56,127,24198,64,46,1,2,12,16,9.mid,experiment,0
57,129,24517,62,43,1,2,12,16,9.mid,experiment,0
58,131,25457,67,50,1,2,12,16,9.mid,experiment,0
59,133,25704,67,53,1,2,12,16,9.mid,experiment,0
60,135,25939,71,61,1,2,12,16,9.mid,experiment,0
61,137,26169,71,63,1,2,12,16,9.mid,experiment,0
62,139,26402,72,68,1,2,12,16,9.mid,experiment,0
63,141,26640,72,76,1,2,12,16,9.mid,experiment,0
64,143,26873,73,90,1,2,12,16,9.mid,experiment,0
65,145,27103,73,93,1,2,12,16,9.mid,experiment,0
66,147,27382,74,95,1,2,12,16,9.mid,experiment,0
67,149,27899,77,104,1,2,12,16,9.mid,experiment,0
68,151,28438,76,106,1,2,12,16,9.mid,experiment,0
69,153,28976,74,106,1,2,12,16,9.mid,experiment,0
70,155,29493,72,116,1,2,12,16,9.mid,experiment,0
71,157,30010,84,112,1,2,12,16,9.mid,experiment,0
72,159,30551,84,98,1,2,12,16,9.mid,experiment,0
1,17,7878,79,79,1,2,13,2,7.mid,experiment,0
2,18,8203,78,84,1,2,13,2,7.mid,experiment,0
3,20,8500,79,83,1,2,13,2,7.mid,experiment,0
4,22,8779,76,78,1,2,13,2,7.mid,experiment,0
5,24,9070,72,78,1,2,13,2,7.mid,experiment,0
6,27,9350,67,55,1,2,13,2,7.mid,experiment,0
7,29,9593,67,57,1,2,13,2,7.mid,experiment,0
8,31,9852,67,70,1,2,13,2,7.mid,experiment,0
9,33,10161,79,81,1,2,13,2,7.mid,experiment,0
10,34,10441,78,88,1,2,13,2,7.mid,experiment,0
11,36,10708,79,96,1,2,13,2,7.mid,experiment,0
12,38,10989,76,84,1,2,13,2,7.mid,experiment,0
13,40,11260,72,75,1,2,13,2,7.mid,experiment,0
14,42,11521,76,81,1,2,13,2,7.mid,experiment,0
15,44,11784,79,89,1,2,13,2,7.mid,experiment,0
16,46,12044,84,95,1,2,13,2,7.mid,experiment,0
17,48,12318,83,81,1,2,13,2,7.mid,experiment,0
18,51,12561,81,68,1,2,13,2,7.mid,experiment,0
19,53,12834,81,60,1,2,13,2,7.mid,experiment,0
20,55,13093,81,58,1,2,13,2,7.mid,experiment,0
21,57,13350,83,81,1,2,13,2,7.mid,experiment,0
22,58,13605,81,83,1,2,13,2,7.mid,experiment,0
23,60,13864,84,85,1,2,13,2,7.mid,experiment,0
24,62,14121,81,78,1,2,13,2,7.mid,experiment,0
25,65,14379,78,83,1,2,13,2,7.mid,experiment,0
26,66,14637,79,70,1,2,13,2,7.mid,experiment,0
27,69,14935,79,71,1,2,13,2,7.mid,experiment,0
28,71,15497,79,70,1,2,13,2,7.mid,experiment,0
29,73,16738,77,63,1,2,13,2,7.mid,experiment,0
30,75,17005,77,64,1,2,13,2,7.mid,experiment,0
31,77,17286,76,49,1,2,13,2,7.mid,experiment,0
32,79,17539,76,53,1,2,13,2,7.mid,experiment,0
33,81,17843,74,53,1,2,13,2,7.mid,experiment,0
34,83,18914,79,54,1,2,13,2,7.mid,experiment,0
35,85,19509,77,57,1,2,13,2,7.mid,experiment,0
36,87,20127,76,37,1,2,13,2,7.mid,experiment,0
37,89,20367,76,54,1,2,13,2,7.mid,experiment,0
38,91,20635,76,55,1,2,13,2,7.mid,experiment,0
39,93,20892,76,60,1,2,13,2,7.mid,experiment,0
40,95,21182,81,76,1,2,13,2,7.mid,experiment,0
41,96,21428,77,90,1,2,13,2,7.mid,experiment,0
42,98,21686,76,90,1,2,13,2,7.mid,experiment,0
43,100,21944,74,88,1,2,13,2,7.mid,experiment,0
44,102,22209,76,76,1,2,13,2,7.mid,experiment,0
45,104,22456,79,70,1,2,13,2,7.mid,experiment,0
46,106,22711,74,63,1,2,13,2,7.mid,experiment,0
47,109,22974,71,65,1,2,13,2,7.mid,experiment,0
48,111,23220,72,63,1,2,13,2,7.mid,experiment,0
49,113,23479,72,55,1,2,13,2,7.mid,experiment,0
50,115,23716,74,63,1,2,13,2,7.mid,experiment,0
51,117,23977,74,63,1,2,13,2,7.mid,experiment,0
52,119,24260,76,56,1,2,13,2,7.mid,experiment,0
53,121,25393,65,56,1,2,13,2,7.mid,experiment,0
54,123,25640,65,65,1,2,13,2,7.mid,experiment,0
55,125,25902,64,51,1,2,13,2,7.mid,experiment,0
56,127,26162,64,51,1,2,13,2,7.mid,experiment,0
57,129,26468,62,49,1,2,13,2,7.mid,experiment,0
58,131,27619,67,56,1,2,13,2,7.mid,experiment,0
59,133,27880,67,59,1,2,13,2,7.mid,experiment,0
60,135,28147,71,51,1,2,13,2,7.mid,experiment,0
61,137,28404,71,41,1,2,13,2,7.mid,experiment,0
62,139,28639,72,60,1,2,13,2,7.mid,experiment,0
63,141,28916,72,46,1,2,13,2,7.mid,experiment,0
64,143,29142,73,68,1,2,13,2,7.mid,experiment,0
65,145,29409,73,65,1,2,13,2,7.mid,experiment,0
66,147,29708,74,74,1,2,13,2,7.mid,experiment,0
67,149,30265,77,91,1,2,13,2,7.mid,experiment,0
68,151,30787,76,78,1,2,13,2,7.mid,experiment,0
69,153,31323,74,87,1,2,13,2,7.mid,experiment,0
70,155,31864,72,91,1,2,13,2,7.mid,experiment,0
71,157,32399,84,97,1,2,13,2,7.mid,experiment,0
72,159,32975,84,95,1,2,13,2,7.mid,experiment,0
1,17,7879,79,70,1,2,13,3,13.mid,experiment,0
2,18,8180,78,75,1,2,13,3,13.mid,experiment,0
3,20,8469,79,83,1,2,13,3,13.mid,experiment,0
4,22,8748,76,80,1,2,13,3,13.mid,experiment,0
5,24,9042,72,84,1,2,13,3,13.mid,experiment,0
6,27,9310,67,74,1,2,13,3,13.mid,experiment,0
7,29,9573,67,62,1,2,13,3,13.mid,experiment,0
8,31,9842,67,63,1,2,13,3,13.mid,experiment,0
9,33,10151,79,78,1,2,13,3,13.mid,experiment,0
10,34,10421,78,83,1,2,13,3,13.mid,experiment,0
11,36,10694,79,86,1,2,13,3,13.mid,experiment,0
12,38,10980,76,79,1,2,13,3,13.mid,experiment,0
13,40,11254,72,77,1,2,13,3,13.mid,experiment,0
14,42,11524,76,79,1,2,13,3,13.mid,experiment,0
15,44,11788,79,82,1,2,13,3,13.mid,experiment,0
16,46,12043,84,86,1,2,13,3,13.mid,experiment,0
17,48,12324,83,83,1,2,13,3,13.mid,experiment,0
18,51,12567,81,67,1,2,13,3,13.mid,experiment,0
19,53,12821,81,58,1,2,13,3,13.mid,experiment,0
20,55,13082,81,59,1,2,13,3,13.mid,experiment,0
21,57,13355,83,84,1,2,13,3,13.mid,experiment,0
22,58,13611,81,87,1,2,13,3,13.mid,experiment,0
23,60,13884,84,90,1,2,13,3,13.mid,experiment,0
24,62,14142,81,78,1,2,13,3,13.mid,experiment,0
25,65,14394,78,79,1,2,13,3,13.mid,experiment,0
26,66,14660,79,68,1,2,13,3,13.mid,experiment,0
27,69,14932,79,71,1,2,13,3,13.mid,experiment,0
28,71,15535,79,68,1,2,13,3,13.mid,experiment,0
29,73,16743,77,57,1,2,13,3,13.mid,experiment,0
30,75,16999,77,66,1,2,13,3,13.mid,experiment,0
31,77,17268,76,51,1,2,13,3,13.mid,experiment,0
32,79,17531,76,50,1,2,13,3,13.mid,experiment,0
33,81,17831,74,51,1,2,13,3,13.mid,experiment,0
34,83,19018,79,58,1,2,13,3,13.mid,experiment,0
35,85,19609,77,51,1,2,13,3,13.mid,experiment,0
36,87,20188,76,58,1,2,13,3,13.mid,experiment,0
37,89,20451,76,54,1,2,13,3,13.mid,experiment,0
38,91,20710,76,51,1,2,13,3,13.mid,experiment,0
39,93,20979,76,52,1,2,13,3,13.mid,experiment,0
40,95,21283,81,76,1,2,13,3,13.mid,experiment,0
41,96,21553,77,88,1,2,13,3,13.mid,experiment,0
42,98,21819,76,87,1,2,13,3,13.mid,experiment,0
43,100,22086,74,87,1,2,13,3,13.mid,experiment,0
44,102,22352,76,85,1,2,13,3,13.mid,experiment,0
45,104,22591,79,90,1,2,13,3,13.mid,experiment,0
46,106,22861,74,88,1,2,13,3,13.mid,experiment,0
47,108,23146,71,75,1,2,13,3,13.mid,experiment,0
48,111,23399,72,59,1,2,13,3,13.mid,experiment,0
49,113,23680,72,49,1,2,13,3,13.mid,experiment,0
50,115,23925,74,60,1,2,13,3,13.mid,experiment,0
51,117,24195,74,51,1,2,13,3,13.mid,experiment,0
52,119,24490,76,41,1,2,13,3,13.mid,experiment,0
53,121,25723,65,55,1,2,13,3,13.mid,experiment,0
54,123,25985,65,65,1,2,13,3,13.mid,experiment,0
55,125,26242,64,60,1,2,13,3,13.mid,experiment,0
56,127,26511,64,54,1,2,13,3,13.mid,experiment,0
57,129,26828,62,53,1,2,13,3,13.mid,experiment,0
58,131,28053,67,51,1,2,13,3,13.mid,experiment,0
59,133,28326,67,54,1,2,13,3,13.mid,experiment,0
60,135,28593,71,57,1,2,13,3,13.mid,experiment,0
61,137,28840,71,56,1,2,13,3,13.mid,experiment,0
62,139,29094,72,68,1,2,13,3,13.mid,experiment,0
63,141,29343,72,63,1,2,13,3,13.mid,experiment,0
64,143,29596,73,64,1,2,13,3,13.mid,experiment,0
65,145,29845,73,68,1,2,13,3,13.mid,experiment,0
66,147,30144,74,71,1,2,13,3,13.mid,experiment,0
67,149,30670,77,87,1,2,13,3,13.mid,experiment,0
68,151,31202,76,89,1,2,13,3,13.mid,experiment,0
69,153,31739,74,91,1,2,13,3,13.mid,experiment,0
70,155,32279,72,93,1,2,13,3,13.mid,experiment,0
71,157,32842,84,99,1,2,13,3,13.mid,experiment,0
72,159,33431,84,91,1,2,13,3,13.mid,experiment,0
1,17,7835,79,79,1,2,13,4,2.mid,experiment,0
2,18,8131,78,86,1,2,13,4,2.mid,experiment,0
3,20,8413,79,89,1,2,13,4,2.mid,experiment,0
4,22,8669,76,82,1,2,13,4,2.mid,experiment,0
5,24,8945,72,89,1,2,13,4,2.mid,experiment,0
6,27,9216,67,62,1,2,13,4,2.mid,experiment,0
7,29,9470,67,56,1,2,13,4,2.mid,experiment,0
8,31,9732,67,64,1,2,13,4,2.mid,experiment,0
9,33,10031,79,77,1,2,13,4,2.mid,experiment,0
10,34,10294,78,90,1,2,13,4,2.mid,experiment,0
11,36,10552,79,93,1,2,13,4,2.mid,experiment,0
12,38,10814,76,84,1,2,13,4,2.mid,experiment,0
13,40,11090,72,70,1,2,13,4,2.mid,experiment,0
14,42,11347,76,87,1,2,13,4,2.mid,experiment,0
15,44,11616,79,83,1,2,13,4,2.mid,experiment,0
16,46,11872,84,91,1,2,13,4,2.mid,experiment,0
17,48,12143,83,87,1,2,13,4,2.mid,experiment,0
18,51,12419,81,59,1,2,13,4,2.mid,experiment,0
19,53,12666,81,58,1,2,13,4,2.mid,experiment,0
20,55,12926,81,55,1,2,13,4,2.mid,experiment,0
21,57,13192,83,82,1,2,13,4,2.mid,experiment,0
22,58,13446,81,89,1,2,13,4,2.mid,experiment,0
23,60,13701,84,94,1,2,13,4,2.mid,experiment,0
24,62,13957,81,82,1,2,13,4,2.mid,experiment,0
25,65,14212,78,85,1,2,13,4,2.mid,experiment,0
26,66,14453,79,88,1,2,13,4,2.mid,experiment,0
27,69,14742,79,85,1,2,13,4,2.mid,experiment,0
28,71,15304,79,67,1,2,13,4,2.mid,experiment,0
29,73,16520,77,54,1,2,13,4,2.mid,experiment,0
30,75,16799,77,53,1,2,13,4,2.mid,experiment,0
31,77,17054,76,50,1,2,13,4,2.mid,experiment,0
32,79,17314,76,54,1,2,13,4,2.mid,experiment,0
33,81,17622,74,54,1,2,13,4,2.mid,experiment,0
34,83,18777,79,60,1,2,13,4,2.mid,experiment,0
35,85,19361,77,62,1,2,13,4,2.mid,experiment,0
36,87,19944,76,60,1,2,13,4,2.mid,experiment,0
37,89,20210,76,51,1,2,13,4,2.mid,experiment,0
38,91,20463,76,54,1,2,13,4,2.mid,experiment,0
39,93,20732,76,56,1,2,13,4,2.mid,experiment,0
40,95,21017,81,78,1,2,13,4,2.mid,experiment,0
41,96,21268,77,87,1,2,13,4,2.mid,experiment,0
42,98,21531,76,81,1,2,13,4,2.mid,experiment,0
43,100,21798,74,84,1,2,13,4,2.mid,experiment,0
44,102,22061,76,81,1,2,13,4,2.mid,experiment,0
45,104,22327,79,84,1,2,13,4,2.mid,experiment,0
46,106,22589,74,91,1,2,13,4,2.mid,experiment,0
47,108,22854,71,78,1,2,13,4,2.mid,experiment,0
48,111,23116,72,63,1,2,13,4,2.mid,experiment,0
49,113,23377,72,52,1,2,13,4,2.mid,experiment,0
50,115,23628,74,53,1,2,13,4,2.mid,experiment,0
51,117,23889,74,50,1,2,13,4,2.mid,experiment,0
52,119,24185,76,49,1,2,13,4,2.mid,experiment,0
53,121,25407,65,57,1,2,13,4,2.mid,experiment,0
54,123,25676,65,60,1,2,13,4,2.mid,experiment,0
55,125,25933,64,54,1,2,13,4,2.mid,experiment,0
56,127,26208,64,55,1,2,13,4,2.mid,experiment,0
57,129,26525,62,51,1,2,13,4,2.mid,experiment,0
58,131,27756,67,53,1,2,13,4,2.mid,experiment,0
59,133,28040,67,49,1,2,13,4,2.mid,experiment,0
60,135,28297,71,55,1,2,13,4,2.mid,experiment,0
61,137,28553,71,53,1,2,13,4,2.mid,experiment,0
62,139,28800,72,63,1,2,13,4,2.mid,experiment,0
63,141,29054,72,60,1,2,13,4,2.mid,experiment,0
64,143,29295,73,75,1,2,13,4,2.mid,experiment,0
65,145,29533,73,75,1,2,13,4,2.mid,experiment,0
66,147,29826,74,87,1,2,13,4,2.mid,experiment,0
67,149,30376,77,94,1,2,13,4,2.mid,experiment,0
68,151,30897,76,96,1,2,13,4,2.mid,experiment,0
69,153,31438,74,98,1,2,13,4,2.mid,experiment,0
70,155,31973,72,103,1,2,13,4,2.mid,experiment,0
71,157,32514,84,112,1,2,13,4,2.mid,experiment,0
72,159,33126,84,104,1,2,13,4,2.mid,experiment,0
1,17,7856,79,78,1,2,13,5,14.mid,experiment,0
2,18,8162,78,82,1,2,13,5,14.mid,experiment,0
3,20,8444,79,89,1,2,13,5,14.mid,experiment,0
4,22,8710,76,79,1,2,13,5,14.mid,experiment,0
5,24,8997,72,85,1,2,13,5,14.mid,experiment,0
6,27,9272,67,65,1,2,13,5,14.mid,experiment,0
7,29,9524,67,62,1,2,13,5,14.mid,experiment,0
8,31,9794,67,63,1,2,13,5,14.mid,experiment,0
9,33,10094,79,71,1,2,13,5,14.mid,experiment,0
10,34,10380,78,81,1,2,13,5,14.mid,experiment,0
11,36,10645,79,85,1,2,13,5,14.mid,experiment,0
12,38,10919,76,76,1,2,13,5,14.mid,experiment,0
13,40,11190,72,78,1,2,13,5,14.mid,experiment,0
14,42,11450,76,73,1,2,13,5,14.mid,experiment,0
15,44,11722,79,83,1,2,13,5,14.mid,experiment,0
16,46,11978,84,95,1,2,13,5,14.mid,experiment,0
17,48,12262,83,83,1,2,13,5,14.mid,experiment,0
18,51,12524,81,57,1,2,13,5,14.mid,experiment,0
19,53,12782,81,58,1,2,13,5,14.mid,experiment,0
20,55,13050,81,45,1,2,13,5,14.mid,experiment,0
21,57,13310,83,79,1,2,13,5,14.mid,experiment,0
22,58,13562,81,91,1,2,13,5,14.mid,experiment,0
23,60,13834,84,87,1,2,13,5,14.mid,experiment,0
24,62,14092,81,79,1,2,13,5,14.mid,experiment,0
25,65,14362,78,77,1,2,13,5,14.mid,experiment,0
26,66,14600,79,80,1,2,13,5,14.mid,experiment,0
27,69,14898,79,77,1,2,13,5,14.mid,experiment,0
28,71,15444,79,68,1,2,13,5,14.mid,experiment,0
29,73,16646,77,53,1,2,13,5,14.mid,experiment,0
30,75,16914,77,59,1,2,13,5,14.mid,experiment,0
31,77,17176,76,52,1,2,13,5,14.mid,experiment,0
32,79,17438,76,53,1,2,13,5,14.mid,experiment,0
33,81,17740,74,54,1,2,13,5,14.mid,experiment,0
34,83,18862,79,54,1,2,13,5,14.mid,experiment,0
35,85,19450,77,54,1,2,13,5,14.mid,experiment,0
36,87,20022,76,58,1,2,13,5,14.mid,experiment,0
37,89,20302,76,50,1,2,13,5,14.mid,experiment,0
38,91,20554,76,50,1,2,13,5,14.mid,experiment,0
39,93,20838,76,54,1,2,13,5,14.mid,experiment,0
40,95,21130,81,75,1,2,13,5,14.mid,experiment,0
41,96,21397,77,90,1,2,13,5,14.mid,experiment,0
42,98,21652,76,89,1,2,13,5,14.mid,experiment,0
43,100,21910,74,91,1,2,13,5,14.mid,experiment,0
44,102,22166,76,87,1,2,13,5,14.mid,experiment,0
45,104,22430,79,88,1,2,13,5,14.mid,experiment,0
46,106,22684,74,87,1,2,13,5,14.mid,experiment,0
47,108,22948,71,85,1,2,13,5,14.mid,experiment,0
48,111,23225,72,63,1,2,13,5,14.mid,experiment,0
49,113,23480,72,52,1,2,13,5,14.mid,experiment,0
50,115,23718,74,60,1,2,13,5,14.mid,experiment,0
51,117,23993,74,54,1,2,13,5,14.mid,experiment,0
52,119,24291,76,52,1,2,13,5,14.mid,experiment,0
53,121,25490,65,62,1,2,13,5,14.mid,experiment,0
54,123,25732,65,68,1,2,13,5,14.mid,experiment,0
55,125,26006,64,64,1,2,13,5,14.mid,experiment,0
56,127,26270,64,57,1,2,13,5,14.mid,experiment,0
57,129,26574,62,56,1,2,13,5,14.mid,experiment,0
58,131,27760,67,60,1,2,13,5,14.mid,experiment,0
59,133,28024,67,57,1,2,13,5,14.mid,experiment,0
60,135,28288,71,50,1,2,13,5,14.mid,experiment,0
61,137,28536,71,53,1,2,13,5,14.mid,experiment,0
62,139,28784,72,64,1,2,13,5,14.mid,experiment,0
63,141,29046,72,56,1,2,13,5,14.mid,experiment,0
64,143,29288,73,66,1,2,13,5,14.mid,experiment,0
65,145,29548,73,67,1,2,13,5,14.mid,experiment,0
66,147,29844,74,91,1,2,13,5,14.mid,experiment,0
67,149,30392,77,95,1,2,13,5,14.mid,experiment,0
68,151,30903,76,93,1,2,13,5,14.mid,experiment,0
69,153,31433,74,97,1,2,13,5,14.mid,experiment,0
70,155,31974,72,94,1,2,13,5,14.mid,experiment,0
71,157,32512,84,104,1,2,13,5,14.mid,experiment,0
72,159,33088,84,97,1,2,13,5,14.mid,experiment,0
1,17,7829,79,72,1,2,13,6,5.mid,experiment,0
2,18,8118,78,81,1,2,13,6,5.mid,experiment,0
3,20,8404,79,87,1,2,13,6,5.mid,experiment,0
4,22,8670,76,78,1,2,13,6,5.mid,experiment,0
5,24,8971,72,81,1,2,13,6,5.mid,experiment,0
6,27,9246,67,66,1,2,13,6,5.mid,experiment,0
7,29,9496,67,61,1,2,13,6,5.mid,experiment,0
8,31,9762,67,65,1,2,13,6,5.mid,experiment,0
9,33,10070,79,78,1,2,13,6,5.mid,experiment,0
10,34,10335,78,91,1,2,13,6,5.mid,experiment,0
11,36,10607,79,90,1,2,13,6,5.mid,experiment,0
12,38,10870,76,81,1,2,13,6,5.mid,experiment,0
13,40,11136,72,78,1,2,13,6,5.mid,experiment,0
14,42,11404,76,90,1,2,13,6,5.mid,experiment,0
15,44,11676,79,89,1,2,13,6,5.mid,experiment,0
16,46,11925,84,96,1,2,13,6,5.mid,experiment,0
17,48,12205,83,86,1,2,13,6,5.mid,experiment,0
18,51,12472,81,65,1,2,13,6,5.mid,experiment,0
19,53,12728,81,59,1,2,13,6,5.mid,experiment,0
20,55,12985,81,56,1,2,13,6,5.mid,experiment,0
21,57,13268,83,78,1,2,13,6,5.mid,experiment,0
22,58,13523,81,85,1,2,13,6,5.mid,experiment,0
23,60,13802,84,87,1,2,13,6,5.mid,experiment,0
24,62,14056,81,84,1,2,13,6,5.mid,experiment,0
25,65,14317,78,85,1,2,13,6,5.mid,experiment,0
26,66,14565,79,79,1,2,13,6,5.mid,experiment,0
27,69,14853,79,78,1,2,13,6,5.mid,experiment,0
28,71,15422,79,66,1,2,13,6,5.mid,experiment,0
29,73,16649,77,58,1,2,13,6,5.mid,experiment,0
30,75,16923,77,59,1,2,13,6,5.mid,experiment,0
31,77,17176,76,55,1,2,13,6,5.mid,experiment,0
32,79,17438,76,52,1,2,13,6,5.mid,experiment,0
33,81,17741,74,56,1,2,13,6,5.mid,experiment,0
34,83,18857,79,58,1,2,13,6,5.mid,experiment,0
35,85,19441,77,53,1,2,13,6,5.mid,experiment,0
36,87,20018,76,59,1,2,13,6,5.mid,experiment,0
37,89,20285,76,54,1,2,13,6,5.mid,experiment,0
38,91,20549,76,48,1,2,13,6,5.mid,experiment,0
39,93,20808,76,60,1,2,13,6,5.mid,experiment,0
40,95,21095,81,80,1,2,13,6,5.mid,experiment,0
41,96,21356,77,85,1,2,13,6,5.mid,experiment,0
42,98,21613,76,85,1,2,13,6,5.mid,experiment,0
43,100,21879,74,91,1,2,13,6,5.mid,experiment,0
44,102,22145,76,74,1,2,13,6,5.mid,experiment,0
45,104,22402,79,76,1,2,13,6,5.mid,experiment,0
46,106,22653,74,81,1,2,13,6,5.mid,experiment,0
47,108,22932,71,70,1,2,13,6,5.mid,experiment,0
48,111,23179,72,66,1,2,13,6,5.mid,experiment,0
49,113,23461,72,42,1,2,13,6,5.mid,experiment,0
50,115,23696,74,60,1,2,13,6,5.mid,experiment,0
51,117,23948,74,63,1,2,13,6,5.mid,experiment,0
52,119,24240,76,53,1,2,13,6,5.mid,experiment,0
53,121,25435,65,64,1,2,13,6,5.mid,experiment,0
54,123,25672,65,63,1,2,13,6,5.mid,experiment,0
55,125,25942,64,60,1,2,13,6,5.mid,experiment,0
56,127,26201,64,59,1,2,13,6,5.mid,experiment,0
57,129,26523,62,59,1,2,13,6,5.mid,experiment,0
58,131,27734,67,50,1,2,13,6,5.mid,experiment,0
59,133,27992,67,52,1,2,13,6,5.mid,experiment,0
60,135,28249,71,56,1,2,13,6,5.mid,experiment,0
61,137,28501,71,57,1,2,13,6,5.mid,experiment,0
62,139,28752,72,62,1,2,13,6,5.mid,experiment,0
63,141,29032,72,47,1,2,13,6,5.mid,experiment,0
64,143,29261,73,62,1,2,13,6,5.mid,experiment,0
65,145,29520,73,59,1,2,13,6,5.mid,experiment,0
66,147,29813,74,85,1,2,13,6,5.mid,experiment,0
67,149,30356,77,91,1,2,13,6,5.mid,experiment,0
68,151,30874,76,90,1,2,13,6,5.mid,experiment,0
69,153,31413,74,98,1,2,13,6,5.mid,experiment,0
70,155,31938,72,98,1,2,13,6,5.mid,experiment,0
71,157,32477,84,107,1,2,13,6,5.mid,experiment,0
72,159,33058,84,107,1,2,13,6,5.mid,experiment,0
1,17,7880,79,77,1,2,13,7,11.mid,experiment,0
2,18,8188,78,82,1,2,13,7,11.mid,experiment,0
3,20,8480,79,86,1,2,13,7,11.mid,experiment,0
4,22,8754,76,81,1,2,13,7,11.mid,experiment,0
5,24,9044,72,85,1,2,13,7,11.mid,experiment,0
6,27,9338,67,49,1,2,13,7,11.mid,experiment,0
7,29,9574,67,65,1,2,13,7,11.mid,experiment,0
8,31,9859,67,54,1,2,13,7,11.mid,experiment,0
9,33,10151,79,79,1,2,13,7,11.mid,experiment,0
10,34,10426,78,94,1,2,13,7,11.mid,experiment,0
11,36,10696,79,91,1,2,13,7,11.mid,experiment,0
12,38,10971,76,82,1,2,13,7,11.mid,experiment,0
13,40,11257,72,82,1,2,13,7,11.mid,experiment,0
14,42,11520,76,91,1,2,13,7,11.mid,experiment,0
15,44,11780,79,99,1,2,13,7,11.mid,experiment,0
16,46,12044,84,97,1,2,13,7,11.mid,experiment,0
17,48,12323,83,82,1,2,13,7,11.mid,experiment,0
18,51,12585,81,56,1,2,13,7,11.mid,experiment,0
19,53,12838,81,61,1,2,13,7,11.mid,experiment,0
20,55,13101,81,58,1,2,13,7,11.mid,experiment,0
21,57,13368,83,85,1,2,13,7,11.mid,experiment,0
22,58,13627,81,96,1,2,13,7,11.mid,experiment,0
23,60,13894,84,98,1,2,13,7,11.mid,experiment,0
24,62,14154,81,88,1,2,13,7,11.mid,experiment,0
25,65,14410,78,94,1,2,13,7,11.mid,experiment,0
26,66,14668,79,80,1,2,13,7,11.mid,experiment,0
27,69,14969,79,81,1,2,13,7,11.mid,experiment,0
28,71,15538,79,80,1,2,13,7,11.mid,experiment,0
29,73,16769,77,60,1,2,13,7,11.mid,experiment,0
30,75,17047,77,58,1,2,13,7,11.mid,experiment,0
31,77,17318,76,53,1,2,13,7,11.mid,experiment,0
32,79,17576,76,55,1,2,13,7,11.mid,experiment,0
33,81,17888,74,49,1,2,13,7,11.mid,experiment,0
34,83,19101,79,34,1,2,13,7,11.mid,experiment,0
35,85,19664,77,50,1,2,13,7,11.mid,experiment,0
36,87,20247,76,37,1,2,13,7,11.mid,experiment,0
37,89,20510,76,47,1,2,13,7,11.mid,experiment,0
38,91,20782,76,51,1,2,13,7,11.mid,experiment,0
39,93,21044,76,47,1,2,13,7,11.mid,experiment,0
40,95,21344,81,75,1,2,13,7,11.mid,experiment,0
41,96,21609,77,90,1,2,13,7,11.mid,experiment,0
42,98,21869,76,88,1,2,13,7,11.mid,experiment,0
43,100,22130,74,93,1,2,13,7,11.mid,experiment,0
44,102,22394,76,89,1,2,13,7,11.mid,experiment,0
45,104,22640,79,91,1,2,13,7,11.mid,experiment,0
46,106,22902,74,93,1,2,13,7,11.mid,experiment,0
47,108,23172,71,81,1,2,13,7,11.mid,experiment,0
48,111,23424,72,65,1,2,13,7,11.mid,experiment,0
49,113,23671,72,60,1,2,13,7,11.mid,experiment,0
50,115,23935,74,60,1,2,13,7,11.mid,experiment,0
51,117,24192,74,52,1,2,13,7,11.mid,experiment,0
52,119,24489,76,49,1,2,13,7,11.mid,experiment,0
53,121,25729,65,57,1,2,13,7,11.mid,experiment,0
54,123,25990,65,65,1,2,13,7,11.mid,experiment,0
55,125,26249,64,62,1,2,13,7,11.mid,experiment,0
56,127,26520,64,58,1,2,13,7,11.mid,experiment,0
57,129,26836,62,60,1,2,13,7,11.mid,experiment,0
58,131,28007,67,62,1,2,13,7,11.mid,experiment,0
59,133,28279,67,58,1,2,13,7,11.mid,experiment,0
60,135,28543,71,56,1,2,13,7,11.mid,experiment,0
61,137,28785,71,56,1,2,13,7,11.mid,experiment,0
62,139,29044,72,68,1,2,13,7,11.mid,experiment,0
63,141,29297,72,65,1,2,13,7,11.mid,experiment,0
64,143,29550,73,74,1,2,13,7,11.mid,experiment,0
65,145,29804,73,72,1,2,13,7,11.mid,experiment,0
66,147,30087,74,97,1,2,13,7,11.mid,experiment,0
67,149,30624,77,91,1,2,13,7,11.mid,experiment,0
68,151,31138,76,87,1,2,13,7,11.mid,experiment,0
69,153,31652,74,96,1,2,13,7,11.mid,experiment,0
70,155,32180,72,100,1,2,13,7,11.mid,experiment,0
71,157,32714,84,97,1,2,13,7,11.mid,experiment,0
72,159,33319,84,105,1,2,13,7,11.mid,experiment,0
1,17,7820,79,83,1,2,13,9,8.mid,experiment,0
2,18,8114,78,91,1,2,13,9,8.mid,experiment,0
3,20,8395,79,91,1,2,13,9,8.mid,experiment,0
4,22,8664,76,80,1,2,13,9,8.mid,experiment,0
5,24,8950,72,78,1,2,13,9,8.mid,experiment,0
6,27,9218,67,66,1,2,13,9,8.mid,experiment,0
7,29,9464,67,66,1,2,13,9,8.mid,experiment,0
8,31,9735,67,70,1,2,13,9,8.mid,experiment,0
9,33,10043,79,75,1,2,13,9,8.mid,experiment,0
10,34,10324,78,95,1,2,13,9,8.mid,experiment,0
11,36,10591,79,88,1,2,13,9,8.mid,experiment,0
12,38,10856,76,78,1,2,13,9,8.mid,experiment,0
13,40,11133,72,75,1,2,13,9,8.mid,experiment,0
14,42,11402,76,76,1,2,13,9,8.mid,experiment,0
15,44,11671,79,91,1,2,13,9,8.mid,experiment,0
16,46,11936,84,98,1,2,13,9,8.mid,experiment,0
17,48,12226,83,87,1,2,13,9,8.mid,experiment,0
18,51,12499,81,68,1,2,13,9,8.mid,experiment,0
19,53,12748,81,67,1,2,13,9,8.mid,experiment,0
20,55,13009,81,66,1,2,13,9,8.mid,experiment,0
21,57,13294,83,81,1,2,13,9,8.mid,experiment,0
22,58,13557,81,93,1,2,13,9,8.mid,experiment,0
23,60,13827,84,97,1,2,13,9,8.mid,experiment,0
24,62,14096,81,89,1,2,13,9,8.mid,experiment,0
25,65,14339,78,78,1,2,13,9,8.mid,experiment,0
26,66,14602,79,76,1,2,13,9,8.mid,experiment,0
27,69,14877,79,81,1,2,13,9,8.mid,experiment,0
28,71,15438,79,71,1,2,13,9,8.mid,experiment,0
29,73,16716,77,62,1,2,13,9,8.mid,experiment,0
30,75,16978,77,65,1,2,13,9,8.mid,experiment,0
31,77,17245,76,50,1,2,13,9,8.mid,experiment,0
32,79,17514,76,51,1,2,13,9,8.mid,experiment,0
33,81,17830,74,52,1,2,13,9,8.mid,experiment,0
34,83,19020,79,58,1,2,13,9,8.mid,experiment,0
35,85,19599,77,58,1,2,13,9,8.mid,experiment,0
36,87,20175,76,55,1,2,13,9,8.mid,experiment,0
37,89,20449,76,50,1,2,13,9,8.mid,experiment,0
38,91,20743,76,51,1,2,13,9,8.mid,experiment,0
39,93,21002,76,54,1,2,13,9,8.mid,experiment,0
40,95,21301,81,77,1,2,13,9,8.mid,experiment,0
41,96,21570,77,89,1,2,13,9,8.mid,experiment,0
42,98,21827,76,93,1,2,13,9,8.mid,experiment,0
43,100,22086,74,87,1,2,13,9,8.mid,experiment,0
44,102,22361,76,85,1,2,13,9,8.mid,experiment,0
45,104,22621,79,90,1,2,13,9,8.mid,experiment,0
46,106,22885,74,85,1,2,13,9,8.mid,experiment,0
47,108,23156,71,76,1,2,13,9,8.mid,experiment,0
48,111,23424,72,63,1,2,13,9,8.mid,experiment,0
49,113,23677,72,58,1,2,13,9,8.mid,experiment,0
50,115,23938,74,59,1,2,13,9,8.mid,experiment,0
51,117,24200,74,53,1,2,13,9,8.mid,experiment,0
52,119,24499,76,39,1,2,13,9,8.mid,experiment,0
53,121,25742,65,55,1,2,13,9,8.mid,experiment,0
54,123,26004,65,67,1,2,13,9,8.mid,experiment,0
55,125,26281,64,60,1,2,13,9,8.mid,experiment,0
56,127,26545,64,58,1,2,13,9,8.mid,experiment,0
57,129,26837,62,56,1,2,13,9,8.mid,experiment,0
58,131,28077,67,60,1,2,13,9,8.mid,experiment,0
59,133,28357,67,56,1,2,13,9,8.mid,experiment,0
60,135,28620,71,49,1,2,13,9,8.mid,experiment,0
61,137,28884,71,44,1,2,13,9,8.mid,experiment,0
62,139,29138,72,63,1,2,13,9,8.mid,experiment,0
63,141,29386,72,68,1,2,13,9,8.mid,experiment,0
64,143,29641,73,78,1,2,13,9,8.mid,experiment,0
65,145,29896,73,84,1,2,13,9,8.mid,experiment,0
66,147,30198,74,91,1,2,13,9,8.mid,experiment,0
67,149,30762,77,94,1,2,13,9,8.mid,experiment,0
68,151,31290,76,88,1,2,13,9,8.mid,experiment,0
69,153,31819,74,97,1,2,13,9,8.mid,experiment,0
70,155,32374,72,97,1,2,13,9,8.mid,experiment,0
71,157,32902,84,112,1,2,13,9,8.mid,experiment,0
72,159,33490,84,109,1,2,13,9,8.mid,experiment,0
1,17,7870,79,76,1,2,13,10,12.mid,experiment,0
2,18,8170,78,87,1,2,13,10,12.mid,experiment,0
3,20,8453,79,90,1,2,13,10,12.mid,experiment,0
4,22,8720,76,88,1,2,13,10,12.mid,experiment,0
5,24,9006,72,80,1,2,13,10,12.mid,experiment,0
6,27,9286,67,50,1,2,13,10,12.mid,experiment,0
7,29,9534,67,63,1,2,13,10,12.mid,experiment,0
8,31,9793,67,70,1,2,13,10,12.mid,experiment,0
9,33,10090,79,80,1,2,13,10,12.mid,experiment,0
10,34,10371,78,94,1,2,13,10,12.mid,experiment,0
11,36,10631,79,88,1,2,13,10,12.mid,experiment,0
12,38,10899,76,79,1,2,13,10,12.mid,experiment,0
13,40,11173,72,79,1,2,13,10,12.mid,experiment,0
14,42,11446,76,66,1,2,13,10,12.mid,experiment,0
15,44,11709,79,84,1,2,13,10,12.mid,experiment,0
16,46,11973,84,95,1,2,13,10,12.mid,experiment,0
17,48,12247,83,83,1,2,13,10,12.mid,experiment,0
18,51,12499,81,68,1,2,13,10,12.mid,experiment,0
19,53,12757,81,65,1,2,13,10,12.mid,experiment,0
20,55,13005,81,66,1,2,13,10,12.mid,experiment,0
21,57,13280,83,85,1,2,13,10,12.mid,experiment,0
22,58,13534,81,93,1,2,13,10,12.mid,experiment,0
23,60,13791,84,91,1,2,13,10,12.mid,experiment,0
24,62,14053,81,88,1,2,13,10,12.mid,experiment,0
25,65,14321,78,86,1,2,13,10,12.mid,experiment,0
26,66,14574,79,81,1,2,13,10,12.mid,experiment,0
27,69,14864,79,77,1,2,13,10,12.mid,experiment,0
28,71,15412,79,68,1,2,13,10,12.mid,experiment,0
29,73,16749,77,70,1,2,13,10,12.mid,experiment,0
30,75,17006,77,68,1,2,13,10,12.mid,experiment,0
31,77,17267,76,57,1,2,13,10,12.mid,experiment,0
32,79,17525,76,60,1,2,13,10,12.mid,experiment,0
33,81,17848,74,54,1,2,13,10,12.mid,experiment,0
34,83,18989,79,58,1,2,13,10,12.mid,experiment,0
35,85,19588,77,55,1,2,13,10,12.mid,experiment,0
36,87,20167,76,63,1,2,13,10,12.mid,experiment,0
37,89,20430,76,56,1,2,13,10,12.mid,experiment,0
38,91,20699,76,49,1,2,13,10,12.mid,experiment,0
39,93,20965,76,48,1,2,13,10,12.mid,experiment,0
40,95,21266,81,81,1,2,13,10,12.mid,experiment,0
41,96,21538,77,91,1,2,13,10,12.mid,experiment,0
42,98,21788,76,89,1,2,13,10,12.mid,experiment,0
43,100,22053,74,90,1,2,13,10,12.mid,experiment,0
44,102,22320,76,77,1,2,13,10,12.mid,experiment,0
45,104,22580,79,84,1,2,13,10,12.mid,experiment,0
46,106,22838,74,88,1,2,13,10,12.mid,experiment,0
47,108,23106,71,82,1,2,13,10,12.mid,experiment,0
48,111,23367,72,68,1,2,13,10,12.mid,experiment,0
49,113,23634,72,52,1,2,13,10,12.mid,experiment,0
50,115,23883,74,62,1,2,13,10,12.mid,experiment,0
51,117,24134,74,63,1,2,13,10,12.mid,experiment,0
52,119,24434,76,51,1,2,13,10,12.mid,experiment,0
53,121,25614,65,65,1,2,13,10,12.mid,experiment,0
54,123,25866,65,59,1,2,13,10,12.mid,experiment,0
55,125,26127,64,55,1,2,13,10,12.mid,experiment,0
56,127,26396,64,58,1,2,13,10,12.mid,experiment,0
57,129,26709,62,52,1,2,13,10,12.mid,experiment,0
58,131,27932,67,53,1,2,13,10,12.mid,experiment,0
59,133,28193,67,60,1,2,13,10,12.mid,experiment,0
60,135,28473,71,47,1,2,13,10,12.mid,experiment,0
61,137,28714,71,51,1,2,13,10,12.mid,experiment,0
62,139,28974,72,62,1,2,13,10,12.mid,experiment,0
63,141,29231,72,63,1,2,13,10,12.mid,experiment,0
64,143,29485,73,67,1,2,13,10,12.mid,experiment,0
65,145,29735,73,70,1,2,13,10,12.mid,experiment,0
66,147,30032,74,83,1,2,13,10,12.mid,experiment,0
67,149,30554,77,89,1,2,13,10,12.mid,experiment,0
68,151,31067,76,87,1,2,13,10,12.mid,experiment,0
69,153,31592,74,95,1,2,13,10,12.mid,experiment,0
70,155,32133,72,94,1,2,13,10,12.mid,experiment,0
71,157,32673,84,105,1,2,13,10,12.mid,experiment,0
72,159,33255,84,101,1,2,13,10,12.mid,experiment,0
1,17,7915,79,78,1,2,13,11,9.mid,experiment,0
2,18,8227,78,88,1,2,13,11,9.mid,experiment,0
3,20,8505,79,93,1,2,13,11,9.mid,experiment,0
4,22,8778,76,84,1,2,13,11,9.mid,experiment,0
5,24,9067,72,83,1,2,13,11,9.mid,experiment,0
6,27,9358,67,52,1,2,13,11,9.mid,experiment,0
7,29,9604,67,62,1,2,13,11,9.mid,experiment,0
8,31,9864,67,60,1,2,13,11,9.mid,experiment,0
9,33,10150,79,81,1,2,13,11,9.mid,experiment,0
10,34,10432,78,91,1,2,13,11,9.mid,experiment,0
11,36,10693,79,87,1,2,13,11,9.mid,experiment,0
12,38,10969,76,72,1,2,13,11,9.mid,experiment,0
13,40,11233,72,81,1,2,13,11,9.mid,experiment,0
14,42,11494,76,85,1,2,13,11,9.mid,experiment,0
15,44,11773,79,90,1,2,13,11,9.mid,experiment,0
16,46,12012,84,90,1,2,13,11,9.mid,experiment,0
17,48,12280,83,79,1,2,13,11,9.mid,experiment,0
18,51,12542,81,63,1,2,13,11,9.mid,experiment,0
19,53,12792,81,66,1,2,13,11,9.mid,experiment,0
20,55,13038,81,71,1,2,13,11,9.mid,experiment,0
21,57,13318,83,83,1,2,13,11,9.mid,experiment,0
22,58,13574,81,90,1,2,13,11,9.mid,experiment,0
23,60,13841,84,98,1,2,13,11,9.mid,experiment,0
24,62,14093,81,91,1,2,13,11,9.mid,experiment,0
25,65,14359,78,86,1,2,13,11,9.mid,experiment,0
26,66,14615,79,80,1,2,13,11,9.mid,experiment,0
27,69,14908,79,81,1,2,13,11,9.mid,experiment,0
28,71,15472,79,77,1,2,13,11,9.mid,experiment,0
29,73,16783,77,66,1,2,13,11,9.mid,experiment,0
30,75,17048,77,65,1,2,13,11,9.mid,experiment,0
31,77,17315,76,54,1,2,13,11,9.mid,experiment,0
32,79,17577,76,58,1,2,13,11,9.mid,experiment,0
33,81,17887,74,54,1,2,13,11,9.mid,experiment,0
34,83,19062,79,61,1,2,13,11,9.mid,experiment,0
35,85,19644,77,56,1,2,13,11,9.mid,experiment,0
36,87,20230,76,50,1,2,13,11,9.mid,experiment,0
37,89,20499,76,56,1,2,13,11,9.mid,experiment,0
38,91,20763,76,58,1,2,13,11,9.mid,experiment,0
39,93,21026,76,65,1,2,13,11,9.mid,experiment,0
40,95,21318,81,77,1,2,13,11,9.mid,experiment,0
41,96,21594,77,89,1,2,13,11,9.mid,experiment,0
42,98,21855,76,81,1,2,13,11,9.mid,experiment,0
43,100,22127,74,86,1,2,13,11,9.mid,experiment,0
44,102,22393,76,85,1,2,13,11,9.mid,experiment,0
45,104,22643,79,84,1,2,13,11,9.mid,experiment,0
46,106,22896,74,84,1,2,13,11,9.mid,experiment,0
47,108,23175,71,73,1,2,13,11,9.mid,experiment,0
48,111,23429,72,67,1,2,13,11,9.mid,experiment,0
49,113,23691,72,55,1,2,13,11,9.mid,experiment,0
50,115,23943,74,65,1,2,13,11,9.mid,experiment,0
51,117,24193,74,63,1,2,13,11,9.mid,experiment,0
52,119,24481,76,53,1,2,13,11,9.mid,experiment,0
53,121,25704,65,58,1,2,13,11,9.mid,experiment,0
54,123,25956,65,68,1,2,13,11,9.mid,experiment,0
55,125,26207,64,54,1,2,13,11,9.mid,experiment,0
56,127,26469,64,51,1,2,13,11,9.mid,experiment,0
57,129,26778,62,53,1,2,13,11,9.mid,experiment,0
58,131,28009,67,60,1,2,13,11,9.mid,experiment,0
59,133,28262,67,70,1,2,13,11,9.mid,experiment,0
60,135,28529,71,63,1,2,13,11,9.mid,experiment,0
61,137,28767,71,70,1,2,13,11,9.mid,experiment,0
62,139,29017,72,76,1,2,13,11,9.mid,experiment,0
63,141,29273,72,81,1,2,13,11,9.mid,experiment,0
64,143,29511,73,93,1,2,13,11,9.mid,experiment,0
65,145,29757,73,95,1,2,13,11,9.mid,experiment,0
66,147,30041,74,109,1,2,13,11,9.mid,experiment,0
67,149,30570,77,96,1,2,13,11,9.mid,experiment,0
68,151,31084,76,94,1,2,13,11,9.mid,experiment,0
69,153,31601,74,99,1,2,13,11,9.mid,experiment,0
70,155,32118,72,101,1,2,13,11,9.mid,experiment,0
71,157,32650,84,109,1,2,13,11,9.mid,experiment,0
72,159,33209,84,103,1,2,13,11,9.mid,experiment,0
1,17,7887,79,76,1,2,13,12,3.mid,experiment,0
2,18,8191,78,81,1,2,13,12,3.mid,experiment,0
3,20,8483,79,88,1,2,13,12,3.mid,experiment,0
4,22,8763,76,82,1,2,13,12,3.mid,experiment,0
5,24,9051,72,82,1,2,13,12,3.mid,experiment,0
6,27,9350,67,57,1,2,13,12,3.mid,experiment,0
7,29,9597,67,63,1,2,13,12,3.mid,experiment,0
8,31,9860,67,66,1,2,13,12,3.mid,experiment,0
9,33,10161,79,80,1,2,13,12,3.mid,experiment,0
10,34,10437,78,91,1,2,13,12,3.mid,experiment,0
11,36,10715,79,89,1,2,13,12,3.mid,experiment,0
12,38,10971,76,81,1,2,13,12,3.mid,experiment,0
13,40,11255,72,79,1,2,13,12,3.mid,experiment,0
14,42,11531,76,85,1,2,13,12,3.mid,experiment,0
15,44,11795,79,98,1,2,13,12,3.mid,experiment,0
16,46,12067,84,93,1,2,13,12,3.mid,experiment,0
17,48,12343,83,94,1,2,13,12,3.mid,experiment,0
18,51,12622,81,53,1,2,13,12,3.mid,experiment,0
19,53,12867,81,61,1,2,13,12,3.mid,experiment,0
20,55,13131,81,64,1,2,13,12,3.mid,experiment,0
21,57,13411,83,81,1,2,13,12,3.mid,experiment,0
22,58,13675,81,89,1,2,13,12,3.mid,experiment,0
23,60,13942,84,94,1,2,13,12,3.mid,experiment,0
24,62,14207,81,85,1,2,13,12,3.mid,experiment,0
25,65,14481,78,76,1,2,13,12,3.mid,experiment,0
26,66,14732,79,81,1,2,13,12,3.mid,experiment,0
27,69,15037,79,81,1,2,13,12,3.mid,experiment,0
28,71,15605,79,80,1,2,13,12,3.mid,experiment,0
29,73,16875,77,58,1,2,13,12,3.mid,experiment,0
30,75,17139,77,58,1,2,13,12,3.mid,experiment,0
31,77,17427,76,50,1,2,13,12,3.mid,experiment,0
32,79,17695,76,52,1,2,13,12,3.mid,experiment,0
33,81,18002,74,53,1,2,13,12,3.mid,experiment,0
34,83,19193,79,58,1,2,13,12,3.mid,experiment,0
35,85,19779,77,55,1,2,13,12,3.mid,experiment,0
36,87,20401,76,48,1,2,13,12,3.mid,experiment,0
37,89,20671,76,50,1,2,13,12,3.mid,experiment,0
38,91,20939,76,51,1,2,13,12,3.mid,experiment,0
39,93,21203,76,60,1,2,13,12,3.mid,experiment,0
40,95,21516,81,76,1,2,13,12,3.mid,experiment,0
41,96,21789,77,88,1,2,13,12,3.mid,experiment,0
42,98,22057,76,90,1,2,13,12,3.mid,experiment,0
43,100,22331,74,88,1,2,13,12,3.mid,experiment,0
44,102,22599,76,81,1,2,13,12,3.mid,experiment,0
45,104,22853,79,87,1,2,13,12,3.mid,experiment,0
46,106,23120,74,90,1,2,13,12,3.mid,experiment,0
47,108,23393,71,86,1,2,13,12,3.mid,experiment,0
48,111,23659,72,65,1,2,13,12,3.mid,experiment,0
49,113,23920,72,55,1,2,13,12,3.mid,experiment,0
50,115,24187,74,51,1,2,13,12,3.mid,experiment,0
51,117,24451,74,55,1,2,13,12,3.mid,experiment,0
52,119,24737,76,47,1,2,13,12,3.mid,experiment,0
53,121,25933,65,57,1,2,13,12,3.mid,experiment,0
54,123,26195,65,59,1,2,13,12,3.mid,experiment,0
55,125,26457,64,55,1,2,13,12,3.mid,experiment,0
56,127,26731,64,55,1,2,13,12,3.mid,experiment,0
57,129,27032,62,55,1,2,13,12,3.mid,experiment,0
58,131,28250,67,52,1,2,13,12,3.mid,experiment,0
59,133,28534,67,55,1,2,13,12,3.mid,experiment,0
60,135,28797,71,57,1,2,13,12,3.mid,experiment,0
61,137,29061,71,53,1,2,13,12,3.mid,experiment,0
62,139,29321,72,62,1,2,13,12,3.mid,experiment,0
63,141,29585,72,58,1,2,13,12,3.mid,experiment,0
64,143,29851,73,61,1,2,13,12,3.mid,experiment,0
65,145,30115,73,61,1,2,13,12,3.mid,experiment,0
66,147,30411,74,81,1,2,13,12,3.mid,experiment,0
67,149,30949,77,90,1,2,13,12,3.mid,experiment,0
68,151,31475,76,93,1,2,13,12,3.mid,experiment,0
69,153,32015,74,96,1,2,13,12,3.mid,experiment,0
70,155,32558,72,99,1,2,13,12,3.mid,experiment,0
71,157,33089,84,106,1,2,13,12,3.mid,experiment,0
72,159,33653,84,104,1,2,13,12,3.mid,experiment,0
1,17,7859,79,78,1,2,13,13,16.mid,experiment,0
2,18,8163,78,93,1,2,13,13,16.mid,experiment,0
3,20,8457,79,93,1,2,13,13,16.mid,experiment,0
4,22,8734,76,89,1,2,13,13,16.mid,experiment,0
5,24,9030,72,83,1,2,13,13,16.mid,experiment,0
6,27,9295,67,74,1,2,13,13,16.mid,experiment,0
7,29,9564,67,63,1,2,13,13,16.mid,experiment,0
8,31,9825,67,65,1,2,13,13,16.mid,experiment,0
9,33,10132,79,77,1,2,13,13,16.mid,experiment,0
10,34,10411,78,93,1,2,13,13,16.mid,experiment,0
11,36,10677,79,91,1,2,13,13,16.mid,experiment,0
12,38,10945,76,78,1,2,13,13,16.mid,experiment,0
13,40,11222,72,70,1,2,13,13,16.mid,experiment,0
14,42,11493,76,81,1,2,13,13,16.mid,experiment,0
15,44,11755,79,95,1,2,13,13,16.mid,experiment,0
16,46,12010,84,95,1,2,13,13,16.mid,experiment,0
17,48,12287,83,86,1,2,13,13,16.mid,experiment,0
18,51,12549,81,65,1,2,13,13,16.mid,experiment,0
19,53,12812,81,61,1,2,13,13,16.mid,experiment,0
20,55,13059,81,65,1,2,13,13,16.mid,experiment,0
21,57,13329,83,84,1,2,13,13,16.mid,experiment,0
22,58,13589,81,91,1,2,13,13,16.mid,experiment,0
23,60,13855,84,90,1,2,13,13,16.mid,experiment,0
24,62,14119,81,82,1,2,13,13,16.mid,experiment,0
25,65,14379,78,78,1,2,13,13,16.mid,experiment,0
26,66,14637,79,79,1,2,13,13,16.mid,experiment,0
27,69,14929,79,85,1,2,13,13,16.mid,experiment,0
28,71,15485,79,79,1,2,13,13,16.mid,experiment,0
29,73,16763,77,60,1,2,13,13,16.mid,experiment,0
30,75,17034,77,60,1,2,13,13,16.mid,experiment,0
31,77,17318,76,46,1,2,13,13,16.mid,experiment,0
32,79,17580,76,49,1,2,13,13,16.mid,experiment,0
33,81,17893,74,50,1,2,13,13,16.mid,experiment,0
34,83,19077,79,54,1,2,13,13,16.mid,experiment,0
35,85,19665,77,56,1,2,13,13,16.mid,experiment,0
36,87,20237,76,61,1,2,13,13,16.mid,experiment,0
37,89,20503,76,51,1,2,13,13,16.mid,experiment,0
38,91,20771,76,55,1,2,13,13,16.mid,experiment,0
39,93,21045,76,55,1,2,13,13,16.mid,experiment,0
40,95,21335,81,77,1,2,13,13,16.mid,experiment,0
41,96,21603,77,89,1,2,13,13,16.mid,experiment,0
42,98,21854,76,91,1,2,13,13,16.mid,experiment,0
43,100,22116,74,86,1,2,13,13,16.mid,experiment,0
44,102,22387,76,81,1,2,13,13,16.mid,experiment,0
45,104,22638,79,86,1,2,13,13,16.mid,experiment,0
46,106,22898,74,84,1,2,13,13,16.mid,experiment,0
47,108,23159,71,82,1,2,13,13,16.mid,experiment,0
48,111,23434,72,61,1,2,13,13,16.mid,experiment,0
49,113,23684,72,56,1,2,13,13,16.mid,experiment,0
50,115,23943,74,57,1,2,13,13,16.mid,experiment,0
51,117,24187,74,55,1,2,13,13,16.mid,experiment,0
52,119,24484,76,50,1,2,13,13,16.mid,experiment,0
53,121,25657,65,62,1,2,13,13,16.mid,experiment,0
54,123,25914,65,63,1,2,13,13,16.mid,experiment,0
55,125,26194,64,49,1,2,13,13,16.mid,experiment,0
56,127,26446,64,54,1,2,13,13,16.mid,experiment,0
57,129,26755,62,49,1,2,13,13,16.mid,experiment,0
58,131,27972,67,50,1,2,13,13,16.mid,experiment,0
59,133,28260,67,37,1,2,13,13,16.mid,experiment,0
60,135,28525,71,50,1,2,13,13,16.mid,experiment,0
61,137,28776,71,61,1,2,13,13,16.mid,experiment,0
62,139,29028,72,72,1,2,13,13,16.mid,experiment,0
63,141,29282,72,67,1,2,13,13,16.mid,experiment,0
64,143,29540,73,73,1,2,13,13,16.mid,experiment,0
65,145,29796,73,76,1,2,13,13,16.mid,experiment,0
66,147,30090,74,94,1,2,13,13,16.mid,experiment,0
67,149,30614,77,98,1,2,13,13,16.mid,experiment,0
68,151,31131,76,91,1,2,13,13,16.mid,experiment,0
69,153,31665,74,99,1,2,13,13,16.mid,experiment,0
70,155,32201,72,98,1,2,13,13,16.mid,experiment,0
71,157,32738,84,112,1,2,13,13,16.mid,experiment,0
72,159,33298,84,106,1,2,13,13,16.mid,experiment,0
1,17,7861,79,81,1,2,13,14,1.mid,experiment,0
2,18,8162,78,98,1,2,13,14,1.mid,experiment,0
3,20,8438,79,90,1,2,13,14,1.mid,experiment,0
4,22,8699,76,85,1,2,13,14,1.mid,experiment,0
5,24,9005,72,74,1,2,13,14,1.mid,experiment,0
6,27,9281,67,66,1,2,13,14,1.mid,experiment,0
7,29,9539,67,55,1,2,13,14,1.mid,experiment,0
8,31,9801,67,70,1,2,13,14,1.mid,experiment,0
9,33,10112,79,71,1,2,13,14,1.mid,experiment,0
10,34,10385,78,91,1,2,13,14,1.mid,experiment,0
11,36,10655,79,91,1,2,13,14,1.mid,experiment,0
12,38,10917,76,88,1,2,13,14,1.mid,experiment,0
13,40,11201,72,78,1,2,13,14,1.mid,experiment,0
14,42,11464,76,95,1,2,13,14,1.mid,experiment,0
15,44,11738,79,99,1,2,13,14,1.mid,experiment,0
16,46,11989,84,97,1,2,13,14,1.mid,experiment,0
17,48,12265,83,91,1,2,13,14,1.mid,experiment,0
18,51,12522,81,66,1,2,13,14,1.mid,experiment,0
19,53,12772,81,62,1,2,13,14,1.mid,experiment,0
20,55,13028,81,63,1,2,13,14,1.mid,experiment,0
21,57,13320,83,84,1,2,13,14,1.mid,experiment,0
22,58,13588,81,95,1,2,13,14,1.mid,experiment,0
23,60,13857,84,96,1,2,13,14,1.mid,experiment,0
24,62,14112,81,82,1,2,13,14,1.mid,experiment,0
25,65,14385,78,84,1,2,13,14,1.mid,experiment,0
26,66,14634,79,86,1,2,13,14,1.mid,experiment,0
27,69,14933,79,81,1,2,13,14,1.mid,experiment,0
28,71,15485,79,79,1,2,13,14,1.mid,experiment,0
29,73,16853,77,54,1,2,13,14,1.mid,experiment,0
30,75,17127,77,58,1,2,13,14,1.mid,experiment,0
31,77,17386,76,51,1,2,13,14,1.mid,experiment,0
32,79,17644,76,54,1,2,13,14,1.mid,experiment,0
33,81,17953,74,49,1,2,13,14,1.mid,experiment,0
34,83,19111,79,57,1,2,13,14,1.mid,experiment,0
35,85,19682,77,58,1,2,13,14,1.mid,experiment,0
36,87,20253,76,57,1,2,13,14,1.mid,experiment,0
37,89,20529,76,51,1,2,13,14,1.mid,experiment,0
38,91,20793,76,57,1,2,13,14,1.mid,experiment,0
39,93,21065,76,56,1,2,13,14,1.mid,experiment,0
40,95,21373,81,84,1,2,13,14,1.mid,experiment,0
41,96,21649,77,100,1,2,13,14,1.mid,experiment,0
42,98,21907,76,98,1,2,13,14,1.mid,experiment,0
43,100,22173,74,88,1,2,13,14,1.mid,experiment,0
44,102,22442,76,80,1,2,13,14,1.mid,experiment,0
45,104,22717,79,70,1,2,13,14,1.mid,experiment,0
46,106,22969,74,72,1,2,13,14,1.mid,experiment,0
47,108,23243,71,67,1,2,13,14,1.mid,experiment,0
48,111,23507,72,63,1,2,13,14,1.mid,experiment,0
49,113,23775,72,43,1,2,13,14,1.mid,experiment,0
50,115,24021,74,55,1,2,13,14,1.mid,experiment,0
51,117,24302,74,47,1,2,13,14,1.mid,experiment,0
52,119,24589,76,41,1,2,13,14,1.mid,experiment,0
53,121,25831,65,56,1,2,13,14,1.mid,experiment,0
54,123,26098,65,60,1,2,13,14,1.mid,experiment,0
55,125,26382,64,47,1,2,13,14,1.mid,experiment,0
56,127,26637,64,51,1,2,13,14,1.mid,experiment,0
57,129,26943,62,48,1,2,13,14,1.mid,experiment,0
58,131,28155,67,53,1,2,13,14,1.mid,experiment,0
59,133,28406,67,65,1,2,13,14,1.mid,experiment,0
60,135,28673,71,65,1,2,13,14,1.mid,experiment,0
61,137,28934,71,62,1,2,13,14,1.mid,experiment,0
62,139,29199,72,69,1,2,13,14,1.mid,experiment,0
63,141,29461,72,65,1,2,13,14,1.mid,experiment,0
64,143,29720,73,72,1,2,13,14,1.mid,experiment,0
65,145,29980,73,75,1,2,13,14,1.mid,experiment,0
66,147,30280,74,88,1,2,13,14,1.mid,experiment,0
67,149,30805,77,97,1,2,13,14,1.mid,experiment,0
68,151,31325,76,94,1,2,13,14,1.mid,experiment,0
69,153,31859,74,96,1,2,13,14,1.mid,experiment,0
70,155,32377,72,100,1,2,13,14,1.mid,experiment,0
71,157,32909,84,112,1,2,13,14,1.mid,experiment,0
72,159,33503,84,106,1,2,13,14,1.mid,experiment,0
1,17,7855,79,74,1,2,13,15,6.mid,experiment,0
2,18,8137,78,86,1,2,13,15,6.mid,experiment,0
3,20,8416,79,90,1,2,13,15,6.mid,experiment,0
4,22,8686,76,84,1,2,13,15,6.mid,experiment,0
5,24,8974,72,87,1,2,13,15,6.mid,experiment,0
6,27,9261,67,58,1,2,13,15,6.mid,experiment,0
7,29,9504,67,57,1,2,13,15,6.mid,experiment,0
8,31,9767,67,58,1,2,13,15,6.mid,experiment,0
9,33,10057,79,81,1,2,13,15,6.mid,experiment,0
10,34,10328,78,93,1,2,13,15,6.mid,experiment,0
11,36,10588,79,85,1,2,13,15,6.mid,experiment,0
12,38,10864,76,72,1,2,13,15,6.mid,experiment,0
13,40,11144,72,70,1,2,13,15,6.mid,experiment,0
14,42,11409,76,78,1,2,13,15,6.mid,experiment,0
15,44,11682,79,89,1,2,13,15,6.mid,experiment,0
16,46,11937,84,91,1,2,13,15,6.mid,experiment,0
17,48,12207,83,97,1,2,13,15,6.mid,experiment,0
18,51,12475,81,67,1,2,13,15,6.mid,experiment,0
19,53,12736,81,61,1,2,13,15,6.mid,experiment,0
20,55,12986,81,66,1,2,13,15,6.mid,experiment,0
21,57,13266,83,84,1,2,13,15,6.mid,experiment,0
22,58,13523,81,88,1,2,13,15,6.mid,experiment,0
23,60,13783,84,96,1,2,13,15,6.mid,experiment,0
24,62,14038,81,91,1,2,13,15,6.mid,experiment,0
25,65,14316,78,94,1,2,13,15,6.mid,experiment,0
26,66,14570,79,88,1,2,13,15,6.mid,experiment,0
27,69,14854,79,89,1,2,13,15,6.mid,experiment,0
28,71,15406,79,84,1,2,13,15,6.mid,experiment,0
29,73,16693,77,57,1,2,13,15,6.mid,experiment,0
30,75,16954,77,66,1,2,13,15,6.mid,experiment,0
31,77,17207,76,61,1,2,13,15,6.mid,experiment,0
32,79,17471,76,56,1,2,13,15,6.mid,experiment,0
33,81,17805,74,49,1,2,13,15,6.mid,experiment,0
34,83,19008,79,55,1,2,13,15,6.mid,experiment,0
35,85,19591,77,59,1,2,13,15,6.mid,experiment,0
36,87,20167,76,50,1,2,13,15,6.mid,experiment,0
37,89,20445,76,50,1,2,13,15,6.mid,experiment,0
38,91,20706,76,58,1,2,13,15,6.mid,experiment,0
39,93,20976,76,65,1,2,13,15,6.mid,experiment,0
40,95,21280,81,78,1,2,13,15,6.mid,experiment,0
41,96,21547,77,89,1,2,13,15,6.mid,experiment,0
42,98,21808,76,85,1,2,13,15,6.mid,experiment,0
43,100,22077,74,87,1,2,13,15,6.mid,experiment,0
44,102,22339,76,87,1,2,13,15,6.mid,experiment,0
45,104,22592,79,90,1,2,13,15,6.mid,experiment,0
46,106,22856,74,91,1,2,13,15,6.mid,experiment,0
47,108,23118,71,79,1,2,13,15,6.mid,experiment,0
48,111,23385,72,54,1,2,13,15,6.mid,experiment,0
49,113,23641,72,57,1,2,13,15,6.mid,experiment,0
50,115,23885,74,65,1,2,13,15,6.mid,experiment,0
51,117,24149,74,57,1,2,13,15,6.mid,experiment,0
52,119,24435,76,51,1,2,13,15,6.mid,experiment,0
53,121,25670,65,56,1,2,13,15,6.mid,experiment,0
54,123,25934,65,53,1,2,13,15,6.mid,experiment,0
55,125,26191,64,54,1,2,13,15,6.mid,experiment,0
56,127,26465,64,60,1,2,13,15,6.mid,experiment,0
57,129,26765,62,60,1,2,13,15,6.mid,experiment,0
58,131,27990,67,55,1,2,13,15,6.mid,experiment,0
59,133,28266,67,53,1,2,13,15,6.mid,experiment,0
60,135,28533,71,52,1,2,13,15,6.mid,experiment,0
61,137,28795,71,55,1,2,13,15,6.mid,experiment,0
62,139,29060,72,67,1,2,13,15,6.mid,experiment,0
63,141,29319,72,65,1,2,13,15,6.mid,experiment,0
64,143,29576,73,67,1,2,13,15,6.mid,experiment,0
65,145,29840,73,68,1,2,13,15,6.mid,experiment,0
66,147,30142,74,93,1,2,13,15,6.mid,experiment,0
67,149,30687,77,95,1,2,13,15,6.mid,experiment,0
68,151,31196,76,93,1,2,13,15,6.mid,experiment,0
69,153,31731,74,91,1,2,13,15,6.mid,experiment,0
70,155,32264,72,95,1,2,13,15,6.mid,experiment,0
71,157,32812,84,106,1,2,13,15,6.mid,experiment,0
72,159,33396,84,99,1,2,13,15,6.mid,experiment,0
1,17,7883,79,78,1,2,13,16,10.mid,experiment,0
2,18,8177,78,88,1,2,13,16,10.mid,experiment,0
3,20,8452,79,91,1,2,13,16,10.mid,experiment,0
4,22,8726,76,86,1,2,13,16,10.mid,experiment,0
5,24,9006,72,84,1,2,13,16,10.mid,experiment,0
6,27,9288,67,59,1,2,13,16,10.mid,experiment,0
7,29,9536,67,57,1,2,13,16,10.mid,experiment,0
8,31,9806,67,60,1,2,13,16,10.mid,experiment,0
9,33,10118,79,82,1,2,13,16,10.mid,experiment,0
10,34,10394,78,94,1,2,13,16,10.mid,experiment,0
11,36,10654,79,91,1,2,13,16,10.mid,experiment,0
12,38,10925,76,84,1,2,13,16,10.mid,experiment,0
13,40,11212,72,71,1,2,13,16,10.mid,experiment,0
14,42,11462,76,82,1,2,13,16,10.mid,experiment,0
15,44,11732,79,91,1,2,13,16,10.mid,experiment,0
16,46,11986,84,85,1,2,13,16,10.mid,experiment,0
17,48,12253,83,93,1,2,13,16,10.mid,experiment,0
18,51,12523,81,63,1,2,13,16,10.mid,experiment,0
19,53,12768,81,64,1,2,13,16,10.mid,experiment,0
20,55,13021,81,68,1,2,13,16,10.mid,experiment,0
21,57,13295,83,84,1,2,13,16,10.mid,experiment,0
22,58,13557,81,88,1,2,13,16,10.mid,experiment,0
23,60,13818,84,94,1,2,13,16,10.mid,experiment,0
24,62,14080,81,78,1,2,13,16,10.mid,experiment,0
25,65,14348,78,86,1,2,13,16,10.mid,experiment,0
26,66,14605,79,74,1,2,13,16,10.mid,experiment,0
27,69,14892,79,85,1,2,13,16,10.mid,experiment,0
28,71,15441,79,85,1,2,13,16,10.mid,experiment,0
29,73,16746,77,63,1,2,13,16,10.mid,experiment,0
30,75,17006,77,68,1,2,13,16,10.mid,experiment,0
31,77,17275,76,57,1,2,13,16,10.mid,experiment,0
32,79,17529,76,60,1,2,13,16,10.mid,experiment,0
33,81,17833,74,55,1,2,13,16,10.mid,experiment,0
34,83,19017,79,59,1,2,13,16,10.mid,experiment,0
35,85,19606,77,58,1,2,13,16,10.mid,experiment,0
36,87,20191,76,59,1,2,13,16,10.mid,experiment,0
37,89,20468,76,54,1,2,13,16,10.mid,experiment,0
38,91,20736,76,58,1,2,13,16,10.mid,experiment,0
39,93,21001,76,54,1,2,13,16,10.mid,experiment,0
40,95,21299,81,76,1,2,13,16,10.mid,experiment,0
41,96,21574,77,85,1,2,13,16,10.mid,experiment,0
42,98,21837,76,81,1,2,13,16,10.mid,experiment,0
43,100,22105,74,86,1,2,13,16,10.mid,experiment,0
44,102,22378,76,87,1,2,13,16,10.mid,experiment,0
45,104,22631,79,85,1,2,13,16,10.mid,experiment,0
46,106,22914,74,65,1,2,13,16,10.mid,experiment,0
47,108,23200,71,57,1,2,13,16,10.mid,experiment,0
48,111,23461,72,58,1,2,13,16,10.mid,experiment,0
49,113,23698,72,57,1,2,13,16,10.mid,experiment,0
50,115,23957,74,61,1,2,13,16,10.mid,experiment,0
51,117,24215,74,55,1,2,13,16,10.mid,experiment,0
52,119,24498,76,49,1,2,13,16,10.mid,experiment,0
53,121,25683,65,57,1,2,13,16,10.mid,experiment,0
54,123,25944,65,61,1,2,13,16,10.mid,experiment,0
55,125,26208,64,58,1,2,13,16,10.mid,experiment,0
56,127,26477,64,52,1,2,13,16,10.mid,experiment,0
57,129,26787,62,45,1,2,13,16,10.mid,experiment,0
58,131,28003,67,53,1,2,13,16,10.mid,experiment,0
59,133,28274,67,55,1,2,13,16,10.mid,experiment,0
60,135,28522,71,61,1,2,13,16,10.mid,experiment,0
61,137,28796,71,51,1,2,13,16,10.mid,experiment,0
62,139,29046,72,61,1,2,13,16,10.mid,experiment,0
63,141,29314,72,61,1,2,13,16,10.mid,experiment,0
64,143,29551,73,75,1,2,13,16,10.mid,experiment,0
65,145,29822,73,79,1,2,13,16,10.mid,experiment,0
66,147,30102,74,97,1,2,13,16,10.mid,experiment,0
67,149,30618,77,100,1,2,13,16,10.mid,experiment,0
68,151,31128,76,95,1,2,13,16,10.mid,experiment,0
69,153,31648,74,98,1,2,13,16,10.mid,experiment,0
70,155,32163,72,97,1,2,13,16,10.mid,experiment,0
71,157,32678,84,109,1,2,13,16,10.mid,experiment,0
72,159,33247,84,104,1,2,13,16,10.mid,experiment,0
1,17,7848,79,97,1,2,14,1,3.mid,experiment,0
2,18,8164,78,91,1,2,14,1,3.mid,experiment,0
3,20,8462,79,100,1,2,14,1,3.mid,experiment,0
4,22,8755,76,97,1,2,14,1,3.mid,experiment,0
5,24,9051,72,83,1,2,14,1,3.mid,experiment,0
6,27,9371,67,52,1,2,14,1,3.mid,experiment,0
7,29,9659,67,41,1,2,14,1,3.mid,experiment,0
8,31,9990,67,37,1,2,14,1,3.mid,experiment,0
9,33,10288,79,105,1,2,14,1,3.mid,experiment,0
10,34,10608,78,100,1,2,14,1,3.mid,experiment,0
11,36,10910,79,90,1,2,14,1,3.mid,experiment,0
12,38,11204,76,90,1,2,14,1,3.mid,experiment,0
13,40,11520,72,97,1,2,14,1,3.mid,experiment,0
14,42,11824,76,98,1,2,14,1,3.mid,experiment,0
15,44,12116,79,101,1,2,14,1,3.mid,experiment,0
16,46,12420,84,99,1,2,14,1,3.mid,experiment,0
17,48,12719,83,99,1,2,14,1,3.mid,experiment,0
18,51,13057,81,54,1,2,14,1,3.mid,experiment,0
19,53,13312,81,56,1,2,14,1,3.mid,experiment,0
20,55,13616,81,44,1,2,14,1,3.mid,experiment,0
21,57,13920,83,109,1,2,14,1,3.mid,experiment,0
22,58,14230,81,104,1,2,14,1,3.mid,experiment,0
23,60,14538,84,98,1,2,14,1,3.mid,experiment,0
24,62,14836,81,90,1,2,14,1,3.mid,experiment,0
25,64,15131,78,97,1,2,14,1,3.mid,experiment,0
26,66,15420,79,79,1,2,14,1,3.mid,experiment,0
27,69,15722,79,81,1,2,14,1,3.mid,experiment,0
28,71,16308,79,82,1,2,14,1,3.mid,experiment,0
29,73,17488,77,53,1,2,14,1,3.mid,experiment,0
30,75,17768,77,50,1,2,14,1,3.mid,experiment,0
31,77,18078,76,34,1,2,14,1,3.mid,experiment,0
32,79,18384,76,27,1,2,14,1,3.mid,experiment,0
33,81,18692,74,51,1,2,14,1,3.mid,experiment,0
34,83,19945,79,61,1,2,14,1,3.mid,experiment,0
35,84,20554,77,56,1,2,14,1,3.mid,experiment,0
36,87,21168,76,46,1,2,14,1,3.mid,experiment,0
37,89,21458,76,44,1,2,14,1,3.mid,experiment,0
38,91,21758,76,42,1,2,14,1,3.mid,experiment,0
39,93,22056,76,45,1,2,14,1,3.mid,experiment,0
40,95,22360,81,80,1,2,14,1,3.mid,experiment,0
41,96,22654,77,89,1,2,14,1,3.mid,experiment,0
42,98,22944,76,90,1,2,14,1,3.mid,experiment,0
43,100,23242,74,85,1,2,14,1,3.mid,experiment,0
44,102,23532,76,91,1,2,14,1,3.mid,experiment,0
45,104,23820,79,95,1,2,14,1,3.mid,experiment,0
46,106,24118,74,91,1,2,14,1,3.mid,experiment,0
47,108,24418,71,78,1,2,14,1,3.mid,experiment,0
48,111,24712,72,59,1,2,14,1,3.mid,experiment,0
49,113,24990,72,58,1,2,14,1,3.mid,experiment,0
50,115,25284,74,55,1,2,14,1,3.mid,experiment,0
51,117,25568,74,55,1,2,14,1,3.mid,experiment,0
52,119,25888,76,52,1,2,14,1,3.mid,experiment,0
53,121,27130,65,57,1,2,14,1,3.mid,experiment,0
54,123,27404,65,55,1,2,14,1,3.mid,experiment,0
55,125,27701,64,52,1,2,14,1,3.mid,experiment,0
56,127,27989,64,47,1,2,14,1,3.mid,experiment,0
57,129,28311,62,47,1,2,14,1,3.mid,experiment,0
58,131,29482,67,54,1,2,14,1,3.mid,experiment,0
59,133,29762,67,57,1,2,14,1,3.mid,experiment,0
60,135,30040,71,58,1,2,14,1,3.mid,experiment,0
61,137,30318,71,51,1,2,14,1,3.mid,experiment,0
62,139,30595,72,67,1,2,14,1,3.mid,experiment,0
63,141,30882,72,70,1,2,14,1,3.mid,experiment,0
64,143,31153,73,76,1,2,14,1,3.mid,experiment,0
65,145,31444,73,78,1,2,14,1,3.mid,experiment,0
66,147,31750,74,86,1,2,14,1,3.mid,experiment,0
67,148,32318,77,98,1,2,14,1,3.mid,experiment,0
68,150,32872,76,98,1,2,14,1,3.mid,experiment,0
69,152,33437,74,96,1,2,14,1,3.mid,experiment,0
70,154,34034,72,95,1,2,14,1,3.mid,experiment,0
71,157,34586,84,93,1,2,14,1,3.mid,experiment,0
72,159,35190,84,98,1,2,14,1,3.mid,experiment,0
1,17,7830,79,99,1,2,14,2,6.mid,experiment,0
2,18,8125,78,90,1,2,14,2,6.mid,experiment,0
3,20,8431,79,93,1,2,14,2,6.mid,experiment,0
4,22,8720,76,81,1,2,14,2,6.mid,experiment,0
5,24,9034,72,72,1,2,14,2,6.mid,experiment,0
6,27,9369,67,55,1,2,14,2,6.mid,experiment,0
7,29,9648,67,56,1,2,14,2,6.mid,experiment,0
8,31,9959,67,52,1,2,14,2,6.mid,experiment,0
9,33,10276,79,63,1,2,14,2,6.mid,experiment,0
10,34,10584,78,82,1,2,14,2,6.mid,experiment,0
11,36,10897,79,81,1,2,14,2,6.mid,experiment,0
12,38,11177,76,81,1,2,14,2,6.mid,experiment,0
13,40,11485,72,82,1,2,14,2,6.mid,experiment,0
14,42,11779,76,89,1,2,14,2,6.mid,experiment,0
15,44,12060,79,93,1,2,14,2,6.mid,experiment,0
16,46,12354,84,94,1,2,14,2,6.mid,experiment,0
17,48,12642,83,81,1,2,14,2,6.mid,experiment,0
18,51,12933,81,63,1,2,14,2,6.mid,experiment,0
19,53,13226,81,44,1,2,14,2,6.mid,experiment,0
20,55,13531,81,38,1,2,14,2,6.mid,experiment,0
21,57,13829,83,77,1,2,14,2,6.mid,experiment,0
22,58,14126,81,97,1,2,14,2,6.mid,experiment,0
23,60,14418,84,99,1,2,14,2,6.mid,experiment,0
24,62,14715,81,87,1,2,14,2,6.mid,experiment,0
25,65,15001,78,79,1,2,14,2,6.mid,experiment,0
26,67,15316,79,54,1,2,14,2,6.mid,experiment,0
27,69,15624,79,54,1,2,14,2,6.mid,experiment,0
28,71,16194,79,59,1,2,14,2,6.mid,experiment,0
29,73,17385,77,60,1,2,14,2,6.mid,experiment,0
30,75,17665,77,57,1,2,14,2,6.mid,experiment,0
31,77,17954,76,50,1,2,14,2,6.mid,experiment,0
32,79,18239,76,44,1,2,14,2,6.mid,experiment,0
33,81,18559,74,45,1,2,14,2,6.mid,experiment,0
34,83,19758,79,39,1,2,14,2,6.mid,experiment,0
35,84,20326,77,63,1,2,14,2,6.mid,experiment,0
36,87,20933,76,45,1,2,14,2,6.mid,experiment,0
37,89,21211,76,46,1,2,14,2,6.mid,experiment,0
38,91,21504,76,49,1,2,14,2,6.mid,experiment,0
39,93,21783,76,51,1,2,14,2,6.mid,experiment,0
40,95,22087,81,63,1,2,14,2,6.mid,experiment,0
41,96,22380,77,78,1,2,14,2,6.mid,experiment,0
42,98,22658,76,75,1,2,14,2,6.mid,experiment,0
43,100,22934,74,79,1,2,14,2,6.mid,experiment,0
44,102,23216,76,86,1,2,14,2,6.mid,experiment,0
45,104,23491,79,88,1,2,14,2,6.mid,experiment,0
46,106,23768,74,91,1,2,14,2,6.mid,experiment,0
47,108,24050,71,83,1,2,14,2,6.mid,experiment,0
48,111,24317,72,77,1,2,14,2,6.mid,experiment,0
49,113,24596,72,56,1,2,14,2,6.mid,experiment,0
50,115,24876,74,60,1,2,14,2,6.mid,experiment,0
51,117,25160,74,52,1,2,14,2,6.mid,experiment,0
52,119,25471,76,55,1,2,14,2,6.mid,experiment,0
53,121,26624,65,63,1,2,14,2,6.mid,experiment,0
54,123,26898,65,55,1,2,14,2,6.mid,experiment,0
55,125,27183,64,54,1,2,14,2,6.mid,experiment,0
56,127,27461,64,56,1,2,14,2,6.mid,experiment,0
57,129,27777,62,58,1,2,14,2,6.mid,experiment,0
58,131,28960,67,48,1,2,14,2,6.mid,experiment,0
59,133,29238,67,55,1,2,14,2,6.mid,experiment,0
60,135,29517,71,58,1,2,14,2,6.mid,experiment,0
61,137,29789,71,63,1,2,14,2,6.mid,experiment,0
62,139,30064,72,71,1,2,14,2,6.mid,experiment,0
63,141,30350,72,65,1,2,14,2,6.mid,experiment,0
64,143,30621,73,72,1,2,14,2,6.mid,experiment,0
65,145,30904,73,69,1,2,14,2,6.mid,experiment,0
66,147,31199,74,81,1,2,14,2,6.mid,experiment,0
67,148,31774,77,91,1,2,14,2,6.mid,experiment,0
68,150,32318,76,85,1,2,14,2,6.mid,experiment,0
69,152,32889,74,88,1,2,14,2,6.mid,experiment,0
70,154,33479,72,87,1,2,14,2,6.mid,experiment,0
71,157,34055,84,94,1,2,14,2,6.mid,experiment,0
72,159,34651,84,87,1,2,14,2,6.mid,experiment,0
1,17,7816,79,78,1,2,14,3,14.mid,experiment,0
2,18,8104,78,84,1,2,14,3,14.mid,experiment,0
3,20,8398,79,84,1,2,14,3,14.mid,experiment,0
4,22,8681,76,78,1,2,14,3,14.mid,experiment,0
5,24,8970,72,72,1,2,14,3,14.mid,experiment,0
6,27,9294,67,44,1,2,14,3,14.mid,experiment,0
7,29,9567,67,47,1,2,14,3,14.mid,experiment,0
8,31,9869,67,53,1,2,14,3,14.mid,experiment,0
9,33,10157,79,82,1,2,14,3,14.mid,experiment,0
10,34,10451,78,91,1,2,14,3,14.mid,experiment,0
11,36,10754,79,83,1,2,14,3,14.mid,experiment,0
12,38,11026,76,81,1,2,14,3,14.mid,experiment,0
13,40,11330,72,86,1,2,14,3,14.mid,experiment,0
14,42,11617,76,86,1,2,14,3,14.mid,experiment,0
15,44,11899,79,91,1,2,14,3,14.mid,experiment,0
16,46,12181,84,88,1,2,14,3,14.mid,experiment,0
17,48,12461,83,77,1,2,14,3,14.mid,experiment,0
18,51,12759,81,66,1,2,14,3,14.mid,experiment,0
19,53,13024,81,45,1,2,14,3,14.mid,experiment,0
20,55,13321,81,37,1,2,14,3,14.mid,experiment,0
21,57,13603,83,76,1,2,14,3,14.mid,experiment,0
22,58,13905,81,85,1,2,14,3,14.mid,experiment,0
23,60,14189,84,90,1,2,14,3,14.mid,experiment,0
24,62,14473,81,94,1,2,14,3,14.mid,experiment,0
25,64,14766,78,87,1,2,14,3,14.mid,experiment,0
26,66,15052,79,81,1,2,14,3,14.mid,experiment,0
27,69,15357,79,85,1,2,14,3,14.mid,experiment,0
28,71,15950,79,78,1,2,14,3,14.mid,experiment,0
29,73,17135,77,57,1,2,14,3,14.mid,experiment,0
30,75,17411,77,50,1,2,14,3,14.mid,experiment,0
31,77,17690,76,50,1,2,14,3,14.mid,experiment,0
32,79,17981,76,39,1,2,14,3,14.mid,experiment,0
33,81,18322,74,45,1,2,14,3,14.mid,experiment,0
34,83,19551,79,63,1,2,14,3,14.mid,experiment,0
35,84,20124,77,68,1,2,14,3,14.mid,experiment,0
36,87,20697,76,58,1,2,14,3,14.mid,experiment,0
37,89,20988,76,51,1,2,14,3,14.mid,experiment,0
38,91,21261,76,50,1,2,14,3,14.mid,experiment,0
39,93,21531,76,53,1,2,14,3,14.mid,experiment,0
40,95,21820,81,73,1,2,14,3,14.mid,experiment,0
41,96,22111,77,80,1,2,14,3,14.mid,experiment,0
42,98,22391,76,76,1,2,14,3,14.mid,experiment,0
43,101,22671,74,80,1,2,14,3,14.mid,experiment,0
44,102,22970,76,67,1,2,14,3,14.mid,experiment,0
45,104,23233,79,88,1,2,14,3,14.mid,experiment,0
46,106,23506,74,81,1,2,14,3,14.mid,experiment,0
47,109,23769,71,76,1,2,14,3,14.mid,experiment,0
48,111,24044,72,58,1,2,14,3,14.mid,experiment,0
49,113,24295,72,58,1,2,14,3,14.mid,experiment,0
50,115,24578,74,54,1,2,14,3,14.mid,experiment,0
51,117,24854,74,54,1,2,14,3,14.mid,experiment,0
52,119,25162,76,41,1,2,14,3,14.mid,experiment,0
53,121,26300,65,62,1,2,14,3,14.mid,experiment,0
54,123,26564,65,56,1,2,14,3,14.mid,experiment,0
55,125,26847,64,57,1,2,14,3,14.mid,experiment,0
56,127,27117,64,48,1,2,14,3,14.mid,experiment,0
57,129,27424,62,48,1,2,14,3,14.mid,experiment,0
58,131,28608,67,40,1,2,14,3,14.mid,experiment,0
59,133,28877,67,50,1,2,14,3,14.mid,experiment,0
60,135,29165,71,41,1,2,14,3,14.mid,experiment,0
61,137,29420,71,48,1,2,14,3,14.mid,experiment,0
62,139,29682,72,67,1,2,14,3,14.mid,experiment,0
63,141,29960,72,68,1,2,14,3,14.mid,experiment,0
64,143,30245,73,77,1,2,14,3,14.mid,experiment,0
65,145,30519,73,73,1,2,14,3,14.mid,experiment,0
66,147,30819,74,76,1,2,14,3,14.mid,experiment,0
67,148,31412,77,83,1,2,14,3,14.mid,experiment,0
68,150,31944,76,81,1,2,14,3,14.mid,experiment,0
69,152,32528,74,84,1,2,14,3,14.mid,experiment,0
70,155,33122,72,87,1,2,14,3,14.mid,experiment,0
71,157,33665,84,101,1,2,14,3,14.mid,experiment,0
72,159,34241,84,88,1,2,14,3,14.mid,experiment,0
1,17,7826,79,90,1,2,14,4,9.mid,experiment,0
2,18,8126,78,91,1,2,14,4,9.mid,experiment,0
3,20,8406,79,90,1,2,14,4,9.mid,experiment,0
4,22,8706,76,90,1,2,14,4,9.mid,experiment,0
5,24,9024,72,83,1,2,14,4,9.mid,experiment,0
6,27,9337,67,50,1,2,14,4,9.mid,experiment,0
7,29,9620,67,52,1,2,14,4,9.mid,experiment,0
8,31,9916,67,58,1,2,14,4,9.mid,experiment,0
9,33,10201,79,89,1,2,14,4,9.mid,experiment,0
10,34,10488,78,85,1,2,14,4,9.mid,experiment,0
11,36,10777,79,74,1,2,14,4,9.mid,experiment,0
12,38,11066,76,62,1,2,14,4,9.mid,experiment,0
13,40,11352,72,67,1,2,14,4,9.mid,experiment,0
14,42,11638,76,76,1,2,14,4,9.mid,experiment,0
15,44,11913,79,91,1,2,14,4,9.mid,experiment,0
16,46,12197,84,94,1,2,14,4,9.mid,experiment,0
17,48,12479,83,90,1,2,14,4,9.mid,experiment,0
18,51,12762,81,71,1,2,14,4,9.mid,experiment,0
19,53,13042,81,55,1,2,14,4,9.mid,experiment,0
20,55,13331,81,56,1,2,14,4,9.mid,experiment,0
21,57,13609,83,93,1,2,14,4,9.mid,experiment,0
22,58,13904,81,100,1,2,14,4,9.mid,experiment,0
23,60,14197,84,93,1,2,14,4,9.mid,experiment,0
24,62,14489,81,97,1,2,14,4,9.mid,experiment,0
25,64,14773,78,95,1,2,14,4,9.mid,experiment,0
26,66,15049,79,75,1,2,14,4,9.mid,experiment,0
27,69,15337,79,65,1,2,14,4,9.mid,experiment,0
28,71,15910,79,54,1,2,14,4,9.mid,experiment,0
29,73,17028,77,55,1,2,14,4,9.mid,experiment,0
30,75,17300,77,55,1,2,14,4,9.mid,experiment,0
31,77,17572,76,54,1,2,14,4,9.mid,experiment,0
32,79,17839,76,46,1,2,14,4,9.mid,experiment,0
33,81,18130,74,56,1,2,14,4,9.mid,experiment,0
34,83,19299,79,81,1,2,14,4,9.mid,experiment,0
35,84,19865,77,74,1,2,14,4,9.mid,experiment,0
36,86,20443,76,68,1,2,14,4,9.mid,experiment,0
37,89,20715,76,67,1,2,14,4,9.mid,experiment,0
38,91,20988,76,75,1,2,14,4,9.mid,experiment,0
39,93,21256,76,76,1,2,14,4,9.mid,experiment,0
40,95,21549,81,86,1,2,14,4,9.mid,experiment,0
41,96,21829,77,93,1,2,14,4,9.mid,experiment,0
42,98,22107,76,91,1,2,14,4,9.mid,experiment,0
43,100,22383,74,88,1,2,14,4,9.mid,experiment,0
44,102,22675,76,96,1,2,14,4,9.mid,experiment,0
45,104,22945,79,96,1,2,14,4,9.mid,experiment,0
46,106,23224,74,90,1,2,14,4,9.mid,experiment,0
47,108,23499,71,77,1,2,14,4,9.mid,experiment,0
48,111,23770,72,63,1,2,14,4,9.mid,experiment,0
49,113,24040,72,55,1,2,14,4,9.mid,experiment,0
50,115,24313,74,55,1,2,14,4,9.mid,experiment,0
51,117,24596,74,53,1,2,14,4,9.mid,experiment,0
52,119,24894,76,49,1,2,14,4,9.mid,experiment,0
53,121,26056,65,57,1,2,14,4,9.mid,experiment,0
54,123,26331,65,54,1,2,14,4,9.mid,experiment,0
55,125,26610,64,51,1,2,14,4,9.mid,experiment,0
56,127,26878,64,51,1,2,14,4,9.mid,experiment,0
57,129,27188,62,55,1,2,14,4,9.mid,experiment,0
58,131,28398,67,61,1,2,14,4,9.mid,experiment,0
59,133,28680,67,56,1,2,14,4,9.mid,experiment,0
60,135,28953,71,60,1,2,14,4,9.mid,experiment,0
61,137,29228,71,49,1,2,14,4,9.mid,experiment,0
62,139,29502,72,63,1,2,14,4,9.mid,experiment,0
63,141,29772,72,67,1,2,14,4,9.mid,experiment,0
64,143,30036,73,78,1,2,14,4,9.mid,experiment,0
65,145,30302,73,78,1,2,14,4,9.mid,experiment,0
66,147,30594,74,81,1,2,14,4,9.mid,experiment,0
67,148,31141,77,96,1,2,14,4,9.mid,experiment,0
68,150,31688,76,95,1,2,14,4,9.mid,experiment,0
69,152,32262,74,91,1,2,14,4,9.mid,experiment,0
70,154,32831,72,81,1,2,14,4,9.mid,experiment,0
71,157,33385,84,109,1,2,14,4,9.mid,experiment,0
72,159,33979,84,103,1,2,14,4,9.mid,experiment,0
1,17,7837,79,82,1,2,14,5,11.mid,experiment,0
2,18,8128,78,89,1,2,14,5,11.mid,experiment,0
3,20,8421,79,91,1,2,14,5,11.mid,experiment,0
4,22,8708,76,90,1,2,14,5,11.mid,experiment,0
5,24,9002,72,81,1,2,14,5,11.mid,experiment,0
6,27,9319,67,62,1,2,14,5,11.mid,experiment,0
7,29,9635,67,45,1,2,14,5,11.mid,experiment,0
8,31,9909,67,50,1,2,14,5,11.mid,experiment,0
9,33,10220,79,78,1,2,14,5,11.mid,experiment,0
10,34,10517,78,82,1,2,14,5,11.mid,experiment,0
11,36,10806,79,86,1,2,14,5,11.mid,experiment,0
12,38,11096,76,84,1,2,14,5,11.mid,experiment,0
13,40,11392,72,84,1,2,14,5,11.mid,experiment,0
14,42,11695,76,98,1,2,14,5,11.mid,experiment,0
15,44,11970,79,107,1,2,14,5,11.mid,experiment,0
16,46,12255,84,101,1,2,14,5,11.mid,experiment,0
17,48,12558,83,103,1,2,14,5,11.mid,experiment,0
18,50,12844,81,75,1,2,14,5,11.mid,experiment,0
19,53,13131,81,58,1,2,14,5,11.mid,experiment,0
20,55,13417,81,63,1,2,14,5,11.mid,experiment,0
21,57,13725,83,79,1,2,14,5,11.mid,experiment,0
22,58,14027,81,93,1,2,14,5,11.mid,experiment,0
23,60,14311,84,96,1,2,14,5,11.mid,experiment,0
24,62,14598,81,101,1,2,14,5,11.mid,experiment,0
25,64,14890,78,105,1,2,14,5,11.mid,experiment,0
26,66,15189,79,93,1,2,14,5,11.mid,experiment,0
27,69,15486,79,101,1,2,14,5,11.mid,experiment,0
28,71,16079,79,91,1,2,14,5,11.mid,experiment,0
29,73,17536,77,62,1,2,14,5,11.mid,experiment,0
30,75,17814,77,48,1,2,14,5,11.mid,experiment,0
31,77,18095,76,46,1,2,14,5,11.mid,experiment,0
32,79,18367,76,42,1,2,14,5,11.mid,experiment,0
33,81,18687,74,51,1,2,14,5,11.mid,experiment,0
34,83,19917,79,75,1,2,14,5,11.mid,experiment,0
35,84,20487,77,81,1,2,14,5,11.mid,experiment,0
36,86,21079,76,63,1,2,14,5,11.mid,experiment,0
37,89,21366,76,58,1,2,14,5,11.mid,experiment,0
38,91,21643,76,52,1,2,14,5,11.mid,experiment,0
39,93,21919,76,58,1,2,14,5,11.mid,experiment,0
40,95,22224,81,71,1,2,14,5,11.mid,experiment,0
41,96,22529,77,82,1,2,14,5,11.mid,experiment,0
42,98,22818,76,87,1,2,14,5,11.mid,experiment,0
43,100,23098,74,83,1,2,14,5,11.mid,experiment,0
44,102,23382,76,88,1,2,14,5,11.mid,experiment,0
45,104,23644,79,97,1,2,14,5,11.mid,experiment,0
46,106,23930,74,97,1,2,14,5,11.mid,experiment,0
47,108,24217,71,88,1,2,14,5,11.mid,experiment,0
48,111,24491,72,83,1,2,14,5,11.mid,experiment,0
49,113,24789,72,62,1,2,14,5,11.mid,experiment,0
50,115,25060,74,61,1,2,14,5,11.mid,experiment,0
51,117,25353,74,49,1,2,14,5,11.mid,experiment,0
52,119,25666,76,49,1,2,14,5,11.mid,experiment,0
53,121,26849,65,37,1,2,14,5,11.mid,experiment,0
54,123,27130,65,48,1,2,14,5,11.mid,experiment,0
55,125,27413,64,46,1,2,14,5,11.mid,experiment,0
56,127,27691,64,45,1,2,14,5,11.mid,experiment,0
57,129,28017,62,51,1,2,14,5,11.mid,experiment,0
58,131,29212,67,51,1,2,14,5,11.mid,experiment,0
59,133,29483,67,56,1,2,14,5,11.mid,experiment,0
60,135,29783,71,43,1,2,14,5,11.mid,experiment,0
61,137,30043,71,43,1,2,14,5,11.mid,experiment,0
62,139,30319,72,63,1,2,14,5,11.mid,experiment,0
63,141,30588,72,66,1,2,14,5,11.mid,experiment,0
64,143,30865,73,77,1,2,14,5,11.mid,experiment,0
65,145,31133,73,74,1,2,14,5,11.mid,experiment,0
66,147,31445,74,77,1,2,14,5,11.mid,experiment,0
67,148,32029,77,93,1,2,14,5,11.mid,experiment,0
68,150,32591,76,95,1,2,14,5,11.mid,experiment,0
69,152,33163,74,91,1,2,14,5,11.mid,experiment,0
70,154,33726,72,91,1,2,14,5,11.mid,experiment,0
71,157,34291,84,100,1,2,14,5,11.mid,experiment,0
72,159,34886,84,98,1,2,14,5,11.mid,experiment,0
1,17,7807,79,89,1,2,14,7,1.mid,experiment,0
2,18,8094,78,94,1,2,14,7,1.mid,experiment,0
3,20,8376,79,89,1,2,14,7,1.mid,experiment,0
4,22,8664,76,91,1,2,14,7,1.mid,experiment,0
5,24,8952,72,91,1,2,14,7,1.mid,experiment,0
6,27,9262,67,64,1,2,14,7,1.mid,experiment,0
7,29,9540,67,55,1,2,14,7,1.mid,experiment,0
8,31,9846,67,57,1,2,14,7,1.mid,experiment,0
9,33,10132,79,91,1,2,14,7,1.mid,experiment,0
10,34,10428,78,97,1,2,14,7,1.mid,experiment,0
11,36,10710,79,87,1,2,14,7,1.mid,experiment,0
12,38,10992,76,79,1,2,14,7,1.mid,experiment,0
13,40,11294,72,81,1,2,14,7,1.mid,experiment,0
14,42,11582,76,83,1,2,14,7,1.mid,experiment,0
15,44,11860,79,100,1,2,14,7,1.mid,experiment,0
16,46,12142,84,95,1,2,14,7,1.mid,experiment,0
17,48,12424,83,88,1,2,14,7,1.mid,experiment,0
18,51,12709,81,62,1,2,14,7,1.mid,experiment,0
19,53,12995,81,42,1,2,14,7,1.mid,experiment,0
20,55,13290,81,41,1,2,14,7,1.mid,experiment,0
21,57,13566,83,70,1,2,14,7,1.mid,experiment,0
22,58,13863,81,79,1,2,14,7,1.mid,experiment,0
23,60,14146,84,87,1,2,14,7,1.mid,experiment,0
24,62,14440,81,95,1,2,14,7,1.mid,experiment,0
25,64,14724,78,91,1,2,14,7,1.mid,experiment,0
26,66,15010,79,88,1,2,14,7,1.mid,experiment,0
27,69,15282,79,72,1,2,14,7,1.mid,experiment,0
28,71,15874,79,65,1,2,14,7,1.mid,experiment,0
29,73,17016,77,63,1,2,14,7,1.mid,experiment,0
30,75,17288,77,63,1,2,14,7,1.mid,experiment,0
31,77,17570,76,60,1,2,14,7,1.mid,experiment,0
32,79,17838,76,53,1,2,14,7,1.mid,experiment,0
33,81,18136,74,58,1,2,14,7,1.mid,experiment,0
34,83,19354,79,71,1,2,14,7,1.mid,experiment,0
35,84,19936,77,74,1,2,14,7,1.mid,experiment,0
36,87,20497,76,68,1,2,14,7,1.mid,experiment,0
37,89,20774,76,59,1,2,14,7,1.mid,experiment,0
38,91,21046,76,59,1,2,14,7,1.mid,experiment,0
39,93,21322,76,55,1,2,14,7,1.mid,experiment,0
40,95,21630,81,68,1,2,14,7,1.mid,experiment,0
41,96,21912,77,72,1,2,14,7,1.mid,experiment,0
42,98,22188,76,68,1,2,14,7,1.mid,experiment,0
43,100,22455,74,76,1,2,14,7,1.mid,experiment,0
44,102,22738,76,84,1,2,14,7,1.mid,experiment,0
45,104,23008,79,91,1,2,14,7,1.mid,experiment,0
46,106,23276,74,96,1,2,14,7,1.mid,experiment,0
47,108,23548,71,91,1,2,14,7,1.mid,experiment,0
48,111,23823,72,85,1,2,14,7,1.mid,experiment,0
49,113,24107,72,82,1,2,14,7,1.mid,experiment,0
50,115,24388,74,77,1,2,14,7,1.mid,experiment,0
51,117,24660,74,70,1,2,14,7,1.mid,experiment,0
52,119,24961,76,66,1,2,14,7,1.mid,experiment,0
53,121,26132,65,57,1,2,14,7,1.mid,experiment,0
54,123,26412,65,61,1,2,14,7,1.mid,experiment,0
55,125,26694,64,52,1,2,14,7,1.mid,experiment,0
56,127,26972,64,48,1,2,14,7,1.mid,experiment,0
57,129,27292,62,50,1,2,14,7,1.mid,experiment,0
58,131,28508,67,50,1,2,14,7,1.mid,experiment,0
59,133,28788,67,57,1,2,14,7,1.mid,experiment,0
60,135,29062,71,57,1,2,14,7,1.mid,experiment,0
61,137,29340,71,57,1,2,14,7,1.mid,experiment,0
62,139,29617,72,66,1,2,14,7,1.mid,experiment,0
63,141,29904,72,72,1,2,14,7,1.mid,experiment,0
64,143,30170,73,87,1,2,14,7,1.mid,experiment,0
65,145,30456,73,86,1,2,14,7,1.mid,experiment,0
66,147,30774,74,91,1,2,14,7,1.mid,experiment,0
67,148,31316,77,91,1,2,14,7,1.mid,experiment,0
68,150,31892,76,87,1,2,14,7,1.mid,experiment,0
69,152,32494,74,84,1,2,14,7,1.mid,experiment,0
70,154,33098,72,77,1,2,14,7,1.mid,experiment,0
71,157,33682,84,99,1,2,14,7,1.mid,experiment,0
72,159,34293,84,99,1,2,14,7,1.mid,experiment,0
1,17,7833,79,80,1,2,14,8,7.mid,experiment,0
2,18,8127,78,84,1,2,14,8,7.mid,experiment,0
3,20,8423,79,85,1,2,14,8,7.mid,experiment,0
4,22,8709,76,84,1,2,14,8,7.mid,experiment,0
5,24,9006,72,75,1,2,14,8,7.mid,experiment,0
6,27,9327,67,55,1,2,14,8,7.mid,experiment,0
7,29,9627,67,53,1,2,14,8,7.mid,experiment,0
8,31,9927,67,58,1,2,14,8,7.mid,experiment,0
9,33,10243,79,73,1,2,14,8,7.mid,experiment,0
10,34,10552,78,83,1,2,14,8,7.mid,experiment,0
11,36,10849,79,75,1,2,14,8,7.mid,experiment,0
12,38,11151,76,72,1,2,14,8,7.mid,experiment,0
13,40,11454,72,72,1,2,14,8,7.mid,experiment,0
14,42,11769,76,76,1,2,14,8,7.mid,experiment,0
15,44,12078,79,86,1,2,14,8,7.mid,experiment,0
16,46,12357,84,93,1,2,14,8,7.mid,experiment,0
17,48,12683,83,91,1,2,14,8,7.mid,experiment,0
18,50,12979,81,74,1,2,14,8,7.mid,experiment,0
19,53,13256,81,56,1,2,14,8,7.mid,experiment,0
20,55,13552,81,48,1,2,14,8,7.mid,experiment,0
21,57,13846,83,78,1,2,14,8,7.mid,experiment,0
22,58,14138,81,90,1,2,14,8,7.mid,experiment,0
23,60,14433,84,91,1,2,14,8,7.mid,experiment,0
24,62,14720,81,95,1,2,14,8,7.mid,experiment,0
25,64,15023,78,98,1,2,14,8,7.mid,experiment,0
26,66,15314,79,91,1,2,14,8,7.mid,experiment,0
27,69,15628,79,81,1,2,14,8,7.mid,experiment,0
28,71,16222,79,77,1,2,14,8,7.mid,experiment,0
29,73,17467,77,58,1,2,14,8,7.mid,experiment,0
30,75,17741,77,55,1,2,14,8,7.mid,experiment,0
31,77,18019,76,53,1,2,14,8,7.mid,experiment,0
32,79,18309,76,46,1,2,14,8,7.mid,experiment,0
33,81,18627,74,45,1,2,14,8,7.mid,experiment,0
34,83,19900,79,84,1,2,14,8,7.mid,experiment,0
35,84,20495,77,89,1,2,14,8,7.mid,experiment,0
36,86,21082,76,69,1,2,14,8,7.mid,experiment,0
37,89,21387,76,73,1,2,14,8,7.mid,experiment,0
38,91,21659,76,78,1,2,14,8,7.mid,experiment,0
39,93,21939,76,79,1,2,14,8,7.mid,experiment,0
40,95,22232,81,91,1,2,14,8,7.mid,experiment,0
41,96,22523,77,89,1,2,14,8,7.mid,experiment,0
42,98,22802,76,84,1,2,14,8,7.mid,experiment,0
43,101,23097,74,89,1,2,14,8,7.mid,experiment,0
44,102,23391,76,97,1,2,14,8,7.mid,experiment,0
45,104,23671,79,93,1,2,14,8,7.mid,experiment,0
46,106,23959,74,91,1,2,14,8,7.mid,experiment,0
47,108,24263,71,76,1,2,14,8,7.mid,experiment,0
48,111,24551,72,63,1,2,14,8,7.mid,experiment,0
49,113,24830,72,57,1,2,14,8,7.mid,experiment,0
50,115,25115,74,54,1,2,14,8,7.mid,experiment,0
51,117,25390,74,54,1,2,14,8,7.mid,experiment,0
52,119,25704,76,50,1,2,14,8,7.mid,experiment,0
53,121,26894,65,62,1,2,14,8,7.mid,experiment,0
54,123,27185,65,58,1,2,14,8,7.mid,experiment,0
55,125,27462,64,56,1,2,14,8,7.mid,experiment,0
56,127,27757,64,49,1,2,14,8,7.mid,experiment,0
57,129,28055,62,56,1,2,14,8,7.mid,experiment,0
58,131,29313,67,49,1,2,14,8,7.mid,experiment,0
59,133,29576,67,55,1,2,14,8,7.mid,experiment,0
60,135,29872,71,53,1,2,14,8,7.mid,experiment,0
61,137,30149,71,62,1,2,14,8,7.mid,experiment,0
62,139,30435,72,65,1,2,14,8,7.mid,experiment,0
63,141,30725,72,70,1,2,14,8,7.mid,experiment,0
64,143,31010,73,80,1,2,14,8,7.mid,experiment,0
65,145,31298,73,85,1,2,14,8,7.mid,experiment,0
66,147,31635,74,85,1,2,14,8,7.mid,experiment,0
67,148,32232,77,91,1,2,14,8,7.mid,experiment,0
68,150,32806,76,90,1,2,14,8,7.mid,experiment,0
69,152,33404,74,87,1,2,14,8,7.mid,experiment,0
70,154,33986,72,81,1,2,14,8,7.mid,experiment,0
71,157,34560,84,99,1,2,14,8,7.mid,experiment,0
72,159,35197,84,99,1,2,14,8,7.mid,experiment,0
1,17,7807,79,90,1,2,14,9,13.mid,experiment,0
2,18,8098,78,91,1,2,14,9,13.mid,experiment,0
3,20,8385,79,91,1,2,14,9,13.mid,experiment,0
4,22,8677,76,90,1,2,14,9,13.mid,experiment,0
5,24,8975,72,83,1,2,14,9,13.mid,experiment,0
6,27,9278,67,64,1,2,14,9,13.mid,experiment,0
7,29,9572,67,63,1,2,14,9,13.mid,experiment,0
8,31,9858,67,67,1,2,14,9,13.mid,experiment,0
9,33,10160,79,91,1,2,14,9,13.mid,experiment,0
10,34,10466,78,91,1,2,14,9,13.mid,experiment,0
11,36,10753,79,81,1,2,14,9,13.mid,experiment,0
12,38,11053,76,74,1,2,14,9,13.mid,experiment,0
13,40,11336,72,80,1,2,14,9,13.mid,experiment,0
14,42,11632,76,88,1,2,14,9,13.mid,experiment,0
15,44,11916,79,94,1,2,14,9,13.mid,experiment,0
16,46,12196,84,91,1,2,14,9,13.mid,experiment,0
17,48,12489,83,88,1,2,14,9,13.mid,experiment,0
18,50,12786,81,70,1,2,14,9,13.mid,experiment,0
19,53,13081,81,51,1,2,14,9,13.mid,experiment,0
20,55,13359,81,51,1,2,14,9,13.mid,experiment,0
21,57,13637,83,91,1,2,14,9,13.mid,experiment,0
22,58,13938,81,99,1,2,14,9,13.mid,experiment,0
23,60,14244,84,85,1,2,14,9,13.mid,experiment,0
24,62,14528,81,83,1,2,14,9,13.mid,experiment,0
25,64,14813,78,82,1,2,14,9,13.mid,experiment,0
26,66,15107,79,74,1,2,14,9,13.mid,experiment,0
27,69,15399,79,77,1,2,14,9,13.mid,experiment,0
28,71,16013,79,78,1,2,14,9,13.mid,experiment,0
29,73,17224,77,53,1,2,14,9,13.mid,experiment,0
30,75,17524,77,47,1,2,14,9,13.mid,experiment,0
31,77,17806,76,47,1,2,14,9,13.mid,experiment,0
32,79,18082,76,40,1,2,14,9,13.mid,experiment,0
33,81,18374,74,52,1,2,14,9,13.mid,experiment,0
34,83,19592,79,70,1,2,14,9,13.mid,experiment,0
35,84,20187,77,81,1,2,14,9,13.mid,experiment,0
36,86,20783,76,65,1,2,14,9,13.mid,experiment,0
37,89,21091,76,65,1,2,14,9,13.mid,experiment,0
38,91,21365,76,63,1,2,14,9,13.mid,experiment,0
39,93,21643,76,67,1,2,14,9,13.mid,experiment,0
40,95,21946,81,70,1,2,14,9,13.mid,experiment,0
41,96,22234,77,79,1,2,14,9,13.mid,experiment,0
42,98,22512,76,79,1,2,14,9,13.mid,experiment,0
43,100,22798,74,86,1,2,14,9,13.mid,experiment,0
44,102,23094,76,91,1,2,14,9,13.mid,experiment,0
45,104,23371,79,89,1,2,14,9,13.mid,experiment,0
46,106,23652,74,87,1,2,14,9,13.mid,experiment,0
47,109,23944,71,71,1,2,14,9,13.mid,experiment,0
48,111,24225,72,72,1,2,14,9,13.mid,experiment,0
49,113,24522,72,63,1,2,14,9,13.mid,experiment,0
50,115,24815,74,53,1,2,14,9,13.mid,experiment,0
51,117,25075,74,55,1,2,14,9,13.mid,experiment,0
52,119,25379,76,57,1,2,14,9,13.mid,experiment,0
53,121,26587,65,51,1,2,14,9,13.mid,experiment,0
54,123,26846,65,55,1,2,14,9,13.mid,experiment,0
55,125,27125,64,58,1,2,14,9,13.mid,experiment,0
56,127,27405,64,47,1,2,14,9,13.mid,experiment,0
57,129,27712,62,57,1,2,14,9,13.mid,experiment,0
58,131,28923,67,58,1,2,14,9,13.mid,experiment,0
59,133,29205,67,57,1,2,14,9,13.mid,experiment,0
60,135,29484,71,56,1,2,14,9,13.mid,experiment,0
61,137,29759,71,61,1,2,14,9,13.mid,experiment,0
62,139,30037,72,75,1,2,14,9,13.mid,experiment,0
63,141,30322,72,75,1,2,14,9,13.mid,experiment,0
64,143,30592,73,81,1,2,14,9,13.mid,experiment,0
65,145,30895,73,82,1,2,14,9,13.mid,experiment,0
66,147,31227,74,88,1,2,14,9,13.mid,experiment,0
67,148,31802,77,91,1,2,14,9,13.mid,experiment,0
68,150,32371,76,91,1,2,14,9,13.mid,experiment,0
69,152,32953,74,87,1,2,14,9,13.mid,experiment,0
70,154,33554,72,85,1,2,14,9,13.mid,experiment,0
71,157,34144,84,106,1,2,14,9,13.mid,experiment,0
72,159,34782,84,105,1,2,14,9,13.mid,experiment,0
1,17,7814,79,75,1,2,14,10,5.mid,experiment,0
2,18,8118,78,77,1,2,14,10,5.mid,experiment,0
3,20,8411,79,70,1,2,14,10,5.mid,experiment,0
4,22,8690,76,70,1,2,14,10,5.mid,experiment,0
5,25,8988,72,58,1,2,14,10,5.mid,experiment,0
6,27,9284,67,50,1,2,14,10,5.mid,experiment,0
7,29,9569,67,53,1,2,14,10,5.mid,experiment,0
8,31,9857,67,57,1,2,14,10,5.mid,experiment,0
9,33,10155,79,63,1,2,14,10,5.mid,experiment,0
10,34,10441,78,75,1,2,14,10,5.mid,experiment,0
11,36,10723,79,81,1,2,14,10,5.mid,experiment,0
12,38,11004,76,79,1,2,14,10,5.mid,experiment,0
13,40,11300,72,83,1,2,14,10,5.mid,experiment,0
14,42,11587,76,91,1,2,14,10,5.mid,experiment,0
15,44,11871,79,97,1,2,14,10,5.mid,experiment,0
16,46,12168,84,98,1,2,14,10,5.mid,experiment,0
17,48,12458,83,93,1,2,14,10,5.mid,experiment,0
18,50,12740,81,77,1,2,14,10,5.mid,experiment,0
19,53,13032,81,55,1,2,14,10,5.mid,experiment,0
20,55,13297,81,56,1,2,14,10,5.mid,experiment,0
21,57,13572,83,74,1,2,14,10,5.mid,experiment,0
22,58,13868,81,85,1,2,14,10,5.mid,experiment,0
23,60,14156,84,88,1,2,14,10,5.mid,experiment,0
24,62,14429,81,84,1,2,14,10,5.mid,experiment,0
25,65,14725,78,87,1,2,14,10,5.mid,experiment,0
26,66,15025,79,75,1,2,14,10,5.mid,experiment,0
27,69,15292,79,59,1,2,14,10,5.mid,experiment,0
28,71,15874,79,65,1,2,14,10,5.mid,experiment,0
29,73,17071,77,41,1,2,14,10,5.mid,experiment,0
30,75,17357,77,53,1,2,14,10,5.mid,experiment,0
31,77,17626,76,53,1,2,14,10,5.mid,experiment,0
32,79,17900,76,45,1,2,14,10,5.mid,experiment,0
33,81,18204,74,51,1,2,14,10,5.mid,experiment,0
34,83,19416,79,71,1,2,14,10,5.mid,experiment,0
35,84,19967,77,75,1,2,14,10,5.mid,experiment,0
36,86,20545,76,59,1,2,14,10,5.mid,experiment,0
37,89,20826,76,58,1,2,14,10,5.mid,experiment,0
38,91,21101,76,51,1,2,14,10,5.mid,experiment,0
39,93,21374,76,57,1,2,14,10,5.mid,experiment,0
40,95,21657,81,77,1,2,14,10,5.mid,experiment,0
41,96,21943,77,76,1,2,14,10,5.mid,experiment,0
42,98,22232,76,72,1,2,14,10,5.mid,experiment,0
43,100,22522,74,78,1,2,14,10,5.mid,experiment,0
44,102,22809,76,84,1,2,14,10,5.mid,experiment,0
45,104,23078,79,91,1,2,14,10,5.mid,experiment,0
46,106,23352,74,91,1,2,14,10,5.mid,experiment,0
47,109,23625,71,81,1,2,14,10,5.mid,experiment,0
48,111,23878,72,72,1,2,14,10,5.mid,experiment,0
49,113,24151,72,60,1,2,14,10,5.mid,experiment,0
50,115,24427,74,62,1,2,14,10,5.mid,experiment,0
51,117,24688,74,65,1,2,14,10,5.mid,experiment,0
52,119,24997,76,62,1,2,14,10,5.mid,experiment,0
53,121,26169,65,62,1,2,14,10,5.mid,experiment,0
54,123,26441,65,61,1,2,14,10,5.mid,experiment,0
55,125,26715,64,62,1,2,14,10,5.mid,experiment,0
56,127,26989,64,53,1,2,14,10,5.mid,experiment,0
57,129,27291,62,56,1,2,14,10,5.mid,experiment,0
58,131,28472,67,65,1,2,14,10,5.mid,experiment,0
59,133,28762,67,60,1,2,14,10,5.mid,experiment,0
60,135,29044,71,70,1,2,14,10,5.mid,experiment,0
61,137,29320,71,65,1,2,14,10,5.mid,experiment,0
62,139,29613,72,73,1,2,14,10,5.mid,experiment,0
63,141,29902,72,72,1,2,14,10,5.mid,experiment,0
64,143,30191,73,65,1,2,14,10,5.mid,experiment,0
65,145,30481,73,79,1,2,14,10,5.mid,experiment,0
66,147,30830,74,89,1,2,14,10,5.mid,experiment,0
67,148,31431,77,88,1,2,14,10,5.mid,experiment,0
68,150,32002,76,87,1,2,14,10,5.mid,experiment,0
69,152,32586,74,91,1,2,14,10,5.mid,experiment,0
70,155,33190,72,89,1,2,14,10,5.mid,experiment,0
71,157,33799,84,106,1,2,14,10,5.mid,experiment,0
72,159,34440,84,97,1,2,14,10,5.mid,experiment,0
1,17,7837,79,91,1,2,14,12,4.mid,experiment,0
2,18,8138,78,88,1,2,14,12,4.mid,experiment,0
3,20,8445,79,87,1,2,14,12,4.mid,experiment,0
4,22,8738,76,76,1,2,14,12,4.mid,experiment,0
5,24,9047,72,68,1,2,14,12,4.mid,experiment,0
6,27,9353,67,57,1,2,14,12,4.mid,experiment,0
7,29,9636,67,58,1,2,14,12,4.mid,experiment,0
8,31,9923,67,71,1,2,14,12,4.mid,experiment,0
9,33,10240,79,73,1,2,14,12,4.mid,experiment,0
10,34,10527,78,81,1,2,14,12,4.mid,experiment,0
11,36,10827,79,83,1,2,14,12,4.mid,experiment,0
12,38,11110,76,84,1,2,14,12,4.mid,experiment,0
13,40,11409,72,84,1,2,14,12,4.mid,experiment,0
14,42,11702,76,93,1,2,14,12,4.mid,experiment,0
15,44,11985,79,101,1,2,14,12,4.mid,experiment,0
16,46,12277,84,99,1,2,14,12,4.mid,experiment,0
17,48,12575,83,87,1,2,14,12,4.mid,experiment,0
18,50,12879,81,65,1,2,14,12,4.mid,experiment,0
19,53,13155,81,65,1,2,14,12,4.mid,experiment,0
20,55,13439,81,67,1,2,14,12,4.mid,experiment,0
21,57,13757,83,74,1,2,14,12,4.mid,experiment,0
22,58,14043,81,86,1,2,14,12,4.mid,experiment,0
23,60,14333,84,91,1,2,14,12,4.mid,experiment,0
24,62,14613,81,90,1,2,14,12,4.mid,experiment,0
25,64,14916,78,85,1,2,14,12,4.mid,experiment,0
26,66,15229,79,75,1,2,14,12,4.mid,experiment,0
27,69,15526,79,76,1,2,14,12,4.mid,experiment,0
28,71,16152,79,74,1,2,14,12,4.mid,experiment,0
29,73,17350,77,61,1,2,14,12,4.mid,experiment,0
30,75,17634,77,59,1,2,14,12,4.mid,experiment,0
31,77,17907,76,49,1,2,14,12,4.mid,experiment,0
32,79,18171,76,43,1,2,14,12,4.mid,experiment,0
33,81,18472,74,56,1,2,14,12,4.mid,experiment,0
34,83,19687,79,71,1,2,14,12,4.mid,experiment,0
35,84,20257,77,75,1,2,14,12,4.mid,experiment,0
36,86,20838,76,63,1,2,14,12,4.mid,experiment,0
37,89,21122,76,56,1,2,14,12,4.mid,experiment,0
38,91,21381,76,54,1,2,14,12,4.mid,experiment,0
39,93,21662,76,66,1,2,14,12,4.mid,experiment,0
40,95,21962,81,75,1,2,14,12,4.mid,experiment,0
41,96,22260,77,81,1,2,14,12,4.mid,experiment,0
42,98,22526,76,89,1,2,14,12,4.mid,experiment,0
43,100,22800,74,86,1,2,14,12,4.mid,experiment,0
44,102,23085,76,94,1,2,14,12,4.mid,experiment,0
45,104,23360,79,90,1,2,14,12,4.mid,experiment,0
46,106,23634,74,82,1,2,14,12,4.mid,experiment,0
47,108,23912,71,72,1,2,14,12,4.mid,experiment,0
48,111,24180,72,67,1,2,14,12,4.mid,experiment,0
49,113,24463,72,58,1,2,14,12,4.mid,experiment,0
50,115,24737,74,65,1,2,14,12,4.mid,experiment,0
51,117,25020,74,60,1,2,14,12,4.mid,experiment,0
52,119,25330,76,55,1,2,14,12,4.mid,experiment,0
53,121,26522,65,43,1,2,14,12,4.mid,experiment,0
54,123,26806,65,60,1,2,14,12,4.mid,experiment,0
55,125,27075,64,59,1,2,14,12,4.mid,experiment,0
56,127,27342,64,47,1,2,14,12,4.mid,experiment,0
57,129,27648,62,55,1,2,14,12,4.mid,experiment,0
58,131,28854,67,61,1,2,14,12,4.mid,experiment,0
59,133,29134,67,63,1,2,14,12,4.mid,experiment,0
60,135,29405,71,67,1,2,14,12,4.mid,experiment,0
61,137,29681,71,68,1,2,14,12,4.mid,experiment,0
62,139,29965,72,78,1,2,14,12,4.mid,experiment,0
63,141,30252,72,75,1,2,14,12,4.mid,experiment,0
64,143,30536,73,87,1,2,14,12,4.mid,experiment,0
65,145,30841,73,91,1,2,14,12,4.mid,experiment,0
66,147,31177,74,98,1,2,14,12,4.mid,experiment,0
67,148,31792,77,93,1,2,14,12,4.mid,experiment,0
68,150,32354,76,89,1,2,14,12,4.mid,experiment,0
69,152,32942,74,91,1,2,14,12,4.mid,experiment,0
70,155,33543,72,85,1,2,14,12,4.mid,experiment,0
71,157,34138,84,98,1,2,14,12,4.mid,experiment,0
72,159,34771,84,89,1,2,14,12,4.mid,experiment,0
1,17,7797,79,68,1,2,14,13,15.mid,experiment,0
2,18,8097,78,81,1,2,14,13,15.mid,experiment,0
3,20,8385,79,84,1,2,14,13,15.mid,experiment,0
4,22,8663,76,81,1,2,14,13,15.mid,experiment,0
5,24,8972,72,67,1,2,14,13,15.mid,experiment,0
6,27,9279,67,55,1,2,14,13,15.mid,experiment,0
7,29,9563,67,58,1,2,14,13,15.mid,experiment,0
8,31,9847,67,65,1,2,14,13,15.mid,experiment,0
9,33,10144,79,77,1,2,14,13,15.mid,experiment,0
10,34,10439,78,81,1,2,14,13,15.mid,experiment,0
11,36,10735,79,79,1,2,14,13,15.mid,experiment,0
12,39,11025,76,65,1,2,14,13,15.mid,experiment,0
13,40,11321,72,70,1,2,14,13,15.mid,experiment,0
14,42,11611,76,73,1,2,14,13,15.mid,experiment,0
15,44,11897,79,87,1,2,14,13,15.mid,experiment,0
16,46,12183,84,96,1,2,14,13,15.mid,experiment,0
17,48,12472,83,90,1,2,14,13,15.mid,experiment,0
18,50,12763,81,76,1,2,14,13,15.mid,experiment,0
19,53,13043,81,70,1,2,14,13,15.mid,experiment,0
20,55,13309,81,67,1,2,14,13,15.mid,experiment,0
21,57,13623,83,75,1,2,14,13,15.mid,experiment,0
22,58,13901,81,91,1,2,14,13,15.mid,experiment,0
23,60,14188,84,90,1,2,14,13,15.mid,experiment,0
24,62,14479,81,86,1,2,14,13,15.mid,experiment,0
25,64,14777,78,85,1,2,14,13,15.mid,experiment,0
26,66,15071,79,89,1,2,14,13,15.mid,experiment,0
27,69,15383,79,83,1,2,14,13,15.mid,experiment,0
28,71,15973,79,79,1,2,14,13,15.mid,experiment,0
29,73,17155,77,63,1,2,14,13,15.mid,experiment,0
30,75,17432,77,63,1,2,14,13,15.mid,experiment,0
31,77,17703,76,61,1,2,14,13,15.mid,experiment,0
32,79,17973,76,57,1,2,14,13,15.mid,experiment,0
33,81,18283,74,50,1,2,14,13,15.mid,experiment,0
34,83,19502,79,72,1,2,14,13,15.mid,experiment,0
35,84,20087,77,79,1,2,14,13,15.mid,experiment,0
36,86,20663,76,58,1,2,14,13,15.mid,experiment,0
37,89,20945,76,62,1,2,14,13,15.mid,experiment,0
38,91,21215,76,62,1,2,14,13,15.mid,experiment,0
39,93,21479,76,68,1,2,14,13,15.mid,experiment,0
40,95,21793,81,75,1,2,14,13,15.mid,experiment,0
41,96,22139,77,84,1,2,14,13,15.mid,experiment,0
42,98,22419,76,87,1,2,14,13,15.mid,experiment,0
43,100,22693,74,89,1,2,14,13,15.mid,experiment,0
44,102,22971,76,91,1,2,14,13,15.mid,experiment,0
45,104,23241,79,91,1,2,14,13,15.mid,experiment,0
46,106,23527,74,82,1,2,14,13,15.mid,experiment,0
47,108,23819,71,75,1,2,14,13,15.mid,experiment,0
48,111,24089,72,74,1,2,14,13,15.mid,experiment,0
49,113,24369,72,65,1,2,14,13,15.mid,experiment,0
50,115,24646,74,78,1,2,14,13,15.mid,experiment,0
51,117,24929,74,67,1,2,14,13,15.mid,experiment,0
52,119,25231,76,65,1,2,14,13,15.mid,experiment,0
53,121,26399,65,57,1,2,14,13,15.mid,experiment,0
54,123,26678,65,63,1,2,14,13,15.mid,experiment,0
55,125,26956,64,60,1,2,14,13,15.mid,experiment,0
56,127,27227,64,56,1,2,14,13,15.mid,experiment,0
57,129,27525,62,58,1,2,14,13,15.mid,experiment,0
58,131,28715,67,64,1,2,14,13,15.mid,experiment,0
59,133,29007,67,63,1,2,14,13,15.mid,experiment,0
60,135,29280,71,70,1,2,14,13,15.mid,experiment,0
61,137,29566,71,81,1,2,14,13,15.mid,experiment,0
62,139,29847,72,88,1,2,14,13,15.mid,experiment,0
63,141,30137,72,88,1,2,14,13,15.mid,experiment,0
64,143,30417,73,99,1,2,14,13,15.mid,experiment,0
65,145,30707,73,98,1,2,14,13,15.mid,experiment,0
66,147,31039,74,100,1,2,14,13,15.mid,experiment,0
67,148,31634,77,100,1,2,14,13,15.mid,experiment,0
68,150,32231,76,89,1,2,14,13,15.mid,experiment,0
69,152,32819,74,89,1,2,14,13,15.mid,experiment,0
70,154,33423,72,81,1,2,14,13,15.mid,experiment,0
71,157,34006,84,99,1,2,14,13,15.mid,experiment,0
72,159,34617,84,94,1,2,14,13,15.mid,experiment,0
1,17,7800,79,77,1,2,14,14,2.mid,experiment,0
2,18,8096,78,79,1,2,14,14,2.mid,experiment,0
3,20,8392,79,81,1,2,14,14,2.mid,experiment,0
4,22,8671,76,81,1,2,14,14,2.mid,experiment,0
5,24,8981,72,74,1,2,14,14,2.mid,experiment,0
6,27,9287,67,59,1,2,14,14,2.mid,experiment,0
7,29,9571,67,60,1,2,14,14,2.mid,experiment,0
8,31,9877,67,69,1,2,14,14,2.mid,experiment,0
9,33,10184,79,69,1,2,14,14,2.mid,experiment,0
10,34,10493,78,79,1,2,14,14,2.mid,experiment,0
11,36,10774,79,84,1,2,14,14,2.mid,experiment,0
12,38,11060,76,81,1,2,14,14,2.mid,experiment,0
13,40,11358,72,80,1,2,14,14,2.mid,experiment,0
14,42,11644,76,88,1,2,14,14,2.mid,experiment,0
15,44,11924,79,99,1,2,14,14,2.mid,experiment,0
16,46,12216,84,97,1,2,14,14,2.mid,experiment,0
17,48,12512,83,85,1,2,14,14,2.mid,experiment,0
18,50,12791,81,74,1,2,14,14,2.mid,experiment,0
19,53,13062,81,64,1,2,14,14,2.mid,experiment,0
20,55,13333,81,57,1,2,14,14,2.mid,experiment,0
21,57,13628,83,67,1,2,14,14,2.mid,experiment,0
22,58,13927,81,83,1,2,14,14,2.mid,experiment,0
23,60,14214,84,87,1,2,14,14,2.mid,experiment,0
24,62,14485,81,88,1,2,14,14,2.mid,experiment,0
25,65,14781,78,85,1,2,14,14,2.mid,experiment,0
26,66,15062,79,82,1,2,14,14,2.mid,experiment,0
27,69,15372,79,91,1,2,14,14,2.mid,experiment,0
28,71,15992,79,79,1,2,14,14,2.mid,experiment,0
29,73,17173,77,58,1,2,14,14,2.mid,experiment,0
30,75,17458,77,60,1,2,14,14,2.mid,experiment,0
31,77,17735,76,54,1,2,14,14,2.mid,experiment,0
32,79,18002,76,45,1,2,14,14,2.mid,experiment,0
33,81,18316,74,53,1,2,14,14,2.mid,experiment,0
34,83,19494,79,75,1,2,14,14,2.mid,experiment,0
35,84,20058,77,81,1,2,14,14,2.mid,experiment,0
36,86,20634,76,67,1,2,14,14,2.mid,experiment,0
37,89,20924,76,68,1,2,14,14,2.mid,experiment,0
38,91,21201,76,68,1,2,14,14,2.mid,experiment,0
39,93,21486,76,70,1,2,14,14,2.mid,experiment,0
40,95,21802,81,85,1,2,14,14,2.mid,experiment,0
41,96,22145,77,91,1,2,14,14,2.mid,experiment,0
42,98,22426,76,84,1,2,14,14,2.mid,experiment,0
43,100,22702,74,84,1,2,14,14,2.mid,experiment,0
44,102,22984,76,86,1,2,14,14,2.mid,experiment,0
45,104,23274,79,90,1,2,14,14,2.mid,experiment,0
46,106,23556,74,90,1,2,14,14,2.mid,experiment,0
47,108,23848,71,81,1,2,14,14,2.mid,experiment,0
48,111,24132,72,65,1,2,14,14,2.mid,experiment,0
49,113,24430,72,52,1,2,14,14,2.mid,experiment,0
50,115,24693,74,59,1,2,14,14,2.mid,experiment,0
51,117,24968,74,63,1,2,14,14,2.mid,experiment,0
52,119,25284,76,62,1,2,14,14,2.mid,experiment,0
53,121,26479,65,55,1,2,14,14,2.mid,experiment,0
54,123,26746,65,66,1,2,14,14,2.mid,experiment,0
55,125,27025,64,62,1,2,14,14,2.mid,experiment,0
56,127,27297,64,59,1,2,14,14,2.mid,experiment,0
57,129,27599,62,60,1,2,14,14,2.mid,experiment,0
58,131,28810,67,55,1,2,14,14,2.mid,experiment,0
59,133,29084,67,63,1,2,14,14,2.mid,experiment,0
60,135,29356,71,72,1,2,14,14,2.mid,experiment,0
61,137,29634,71,70,1,2,14,14,2.mid,experiment,0
62,139,29915,72,78,1,2,14,14,2.mid,experiment,0
63,141,30197,72,81,1,2,14,14,2.mid,experiment,0
64,143,30474,73,83,1,2,14,14,2.mid,experiment,0
65,145,30755,73,82,1,2,14,14,2.mid,experiment,0
66,147,31063,74,88,1,2,14,14,2.mid,experiment,0
67,148,31634,77,95,1,2,14,14,2.mid,experiment,0
68,150,32224,76,88,1,2,14,14,2.mid,experiment,0
69,152,32802,74,85,1,2,14,14,2.mid,experiment,0
70,154,33371,72,89,1,2,14,14,2.mid,experiment,0
71,157,33945,84,99,1,2,14,14,2.mid,experiment,0
72,159,34559,84,99,1,2,14,14,2.mid,experiment,0
1,17,7813,79,82,1,2,14,16,10.mid,experiment,0
2,18,8105,78,97,1,2,14,16,10.mid,experiment,0
3,20,8405,79,91,1,2,14,16,10.mid,experiment,0
4,22,8688,76,85,1,2,14,16,10.mid,experiment,0
5,24,8990,72,78,1,2,14,16,10.mid,experiment,0
6,27,9295,67,63,1,2,14,16,10.mid,experiment,0
7,29,9581,67,59,1,2,14,16,10.mid,experiment,0
8,31,9867,67,67,1,2,14,16,10.mid,experiment,0
9,33,10177,79,76,1,2,14,16,10.mid,experiment,0
10,34,10467,78,88,1,2,14,16,10.mid,experiment,0
11,36,10757,79,86,1,2,14,16,10.mid,experiment,0
12,38,11051,76,82,1,2,14,16,10.mid,experiment,0
13,40,11337,72,84,1,2,14,16,10.mid,experiment,0
14,42,11632,76,94,1,2,14,16,10.mid,experiment,0
15,44,11919,79,99,1,2,14,16,10.mid,experiment,0
16,46,12215,84,100,1,2,14,16,10.mid,experiment,0
17,48,12502,83,97,1,2,14,16,10.mid,experiment,0
18,50,12803,81,72,1,2,14,16,10.mid,experiment,0
19,53,13093,81,50,1,2,14,16,10.mid,experiment,0
20,55,13362,81,49,1,2,14,16,10.mid,experiment,0
21,57,13655,83,62,1,2,14,16,10.mid,experiment,0
22,58,13966,81,78,1,2,14,16,10.mid,experiment,0
23,60,14250,84,81,1,2,14,16,10.mid,experiment,0
24,62,14542,81,87,1,2,14,16,10.mid,experiment,0
25,64,14837,78,87,1,2,14,16,10.mid,experiment,0
26,66,15129,79,85,1,2,14,16,10.mid,experiment,0
27,69,15432,79,91,1,2,14,16,10.mid,experiment,0
28,71,16020,79,88,1,2,14,16,10.mid,experiment,0
29,73,17232,77,55,1,2,14,16,10.mid,experiment,0
30,75,17520,77,53,1,2,14,16,10.mid,experiment,0
31,77,17797,76,52,1,2,14,16,10.mid,experiment,0
32,79,18082,76,41,1,2,14,16,10.mid,experiment,0
33,81,18413,74,36,1,2,14,16,10.mid,experiment,0
34,83,19680,79,59,1,2,14,16,10.mid,experiment,0
35,84,20250,77,85,1,2,14,16,10.mid,experiment,0
36,86,20850,76,78,1,2,14,16,10.mid,experiment,0
37,89,21170,76,81,1,2,14,16,10.mid,experiment,0
38,91,21445,76,83,1,2,14,16,10.mid,experiment,0
39,93,21712,76,90,1,2,14,16,10.mid,experiment,0
40,95,22014,81,96,1,2,14,16,10.mid,experiment,0
41,96,22338,77,93,1,2,14,16,10.mid,experiment,0
42,98,22616,76,91,1,2,14,16,10.mid,experiment,0
43,100,22891,74,91,1,2,14,16,10.mid,experiment,0
44,102,23187,76,100,1,2,14,16,10.mid,experiment,0
45,104,23470,79,98,1,2,14,16,10.mid,experiment,0
46,106,23743,74,96,1,2,14,16,10.mid,experiment,0
47,109,24024,71,87,1,2,14,16,10.mid,experiment,0
48,110,24300,72,81,1,2,14,16,10.mid,experiment,0
49,113,24590,72,70,1,2,14,16,10.mid,experiment,0
50,115,24874,74,49,1,2,14,16,10.mid,experiment,0
51,117,25149,74,53,1,2,14,16,10.mid,experiment,0
52,119,25457,76,56,1,2,14,16,10.mid,experiment,0
53,121,26652,65,54,1,2,14,16,10.mid,experiment,0
54,123,26919,65,58,1,2,14,16,10.mid,experiment,0
55,125,27183,64,61,1,2,14,16,10.mid,experiment,0
56,127,27448,64,57,1,2,14,16,10.mid,experiment,0
57,129,27757,62,57,1,2,14,16,10.mid,experiment,0
58,131,28901,67,62,1,2,14,16,10.mid,experiment,0
59,133,29181,67,69,1,2,14,16,10.mid,experiment,0
60,135,29463,71,74,1,2,14,16,10.mid,experiment,0
61,137,29749,71,74,1,2,14,16,10.mid,experiment,0
62,139,30029,72,89,1,2,14,16,10.mid,experiment,0
63,141,30317,72,93,1,2,14,16,10.mid,experiment,0
64,143,30602,73,107,1,2,14,16,10.mid,experiment,0
65,145,30884,73,106,1,2,14,16,10.mid,experiment,0
66,147,31194,74,106,1,2,14,16,10.mid,experiment,0
67,148,31762,77,100,1,2,14,16,10.mid,experiment,0
68,150,32344,76,99,1,2,14,16,10.mid,experiment,0
69,152,32938,74,97,1,2,14,16,10.mid,experiment,0
70,154,33556,72,89,1,2,14,16,10.mid,experiment,0
71,157,34138,84,105,1,2,14,16,10.mid,experiment,0
72,159,34747,84,97,1,2,14,16,10.mid,experiment,0
1,17,8926,79,71,1,2,15,2,15.mid,experiment,0
2,18,9205,78,77,1,2,15,2,15.mid,experiment,0
3,20,9477,79,77,1,2,15,2,15.mid,experiment,0
4,22,9743,76,72,1,2,15,2,15.mid,experiment,0
5,24,10031,72,67,1,2,15,2,15.mid,experiment,0
6,27,10295,67,62,1,2,15,2,15.mid,experiment,0
7,29,10577,67,60,1,2,15,2,15.mid,experiment,0
8,31,10839,67,67,1,2,15,2,15.mid,experiment,0
9,33,11115,79,71,1,2,15,2,15.mid,experiment,0
10,34,11375,78,76,1,2,15,2,15.mid,experiment,0
11,36,11651,79,79,1,2,15,2,15.mid,experiment,0
12,38,11915,76,79,1,2,15,2,15.mid,experiment,0
13,40,12202,72,81,1,2,15,2,15.mid,experiment,0
14,42,12451,76,84,1,2,15,2,15.mid,experiment,0
15,44,12722,79,81,1,2,15,2,15.mid,experiment,0
16,46,12973,84,86,1,2,15,2,15.mid,experiment,0
17,48,13259,83,80,1,2,15,2,15.mid,experiment,0
18,51,13522,81,67,1,2,15,2,15.mid,experiment,0
19,53,13801,81,60,1,2,15,2,15.mid,experiment,0
20,55,14041,81,70,1,2,15,2,15.mid,experiment,0
21,57,14321,83,80,1,2,15,2,15.mid,experiment,0
22,58,14573,81,87,1,2,15,2,15.mid,experiment,0
23,60,14849,84,87,1,2,15,2,15.mid,experiment,0
24,62,15089,81,85,1,2,15,2,15.mid,experiment,0
25,64,15373,78,78,1,2,15,2,15.mid,experiment,0
26,66,15645,79,75,1,2,15,2,15.mid,experiment,0
27,69,15931,79,75,1,2,15,2,15.mid,experiment,0
28,71,16525,79,70,1,2,15,2,15.mid,experiment,0
29,73,17633,77,61,1,2,15,2,15.mid,experiment,0
30,75,17881,77,63,1,2,15,2,15.mid,experiment,0
31,77,18150,76,55,1,2,15,2,15.mid,experiment,0
32,79,18411,76,54,1,2,15,2,15.mid,experiment,0
33,81,18699,74,52,1,2,15,2,15.mid,experiment,0
34,83,19799,79,56,1,2,15,2,15.mid,experiment,0
35,84,20347,77,55,1,2,15,2,15.mid,experiment,0
36,87,20905,76,53,1,2,15,2,15.mid,experiment,0
37,89,21162,76,60,1,2,15,2,15.mid,experiment,0
38,91,21421,76,62,1,2,15,2,15.mid,experiment,0
39,93,21691,76,66,1,2,15,2,15.mid,experiment,0
40,95,21966,81,78,1,2,15,2,15.mid,experiment,0
41,96,22229,77,70,1,2,15,2,15.mid,experiment,0
42,98,22495,76,71,1,2,15,2,15.mid,experiment,0
43,100,22742,74,81,1,2,15,2,15.mid,experiment,0
44,102,23013,76,74,1,2,15,2,15.mid,experiment,0
45,104,23285,79,74,1,2,15,2,15.mid,experiment,0
46,106,23549,74,75,1,2,15,2,15.mid,experiment,0
47,108,23801,71,74,1,2,15,2,15.mid,experiment,0
48,111,24083,72,68,1,2,15,2,15.mid,experiment,0
49,113,24345,72,65,1,2,15,2,15.mid,experiment,0
50,115,24622,74,61,1,2,15,2,15.mid,experiment,0
51,117,24875,74,63,1,2,15,2,15.mid,experiment,0
52,119,25163,76,55,1,2,15,2,15.mid,experiment,0
53,121,26305,65,58,1,2,15,2,15.mid,experiment,0
54,123,26573,65,57,1,2,15,2,15.mid,experiment,0
55,125,26854,64,42,1,2,15,2,15.mid,experiment,0
56,127,27119,64,51,1,2,15,2,15.mid,experiment,0
57,129,27415,62,50,1,2,15,2,15.mid,experiment,0
58,131,28601,67,47,1,2,15,2,15.mid,experiment,0
59,133,28863,67,55,1,2,15,2,15.mid,experiment,0
60,135,29133,71,56,1,2,15,2,15.mid,experiment,0
61,137,29389,71,62,1,2,15,2,15.mid,experiment,0
62,139,29659,72,65,1,2,15,2,15.mid,experiment,0
63,141,29911,72,67,1,2,15,2,15.mid,experiment,0
64,143,30163,73,65,1,2,15,2,15.mid,experiment,0
65,145,30413,73,70,1,2,15,2,15.mid,experiment,0
66,147,30707,74,76,1,2,15,2,15.mid,experiment,0
67,148,31263,77,81,1,2,15,2,15.mid,experiment,0
68,150,31805,76,78,1,2,15,2,15.mid,experiment,0
69,152,32384,74,85,1,2,15,2,15.mid,experiment,0
70,154,32954,72,90,1,2,15,2,15.mid,experiment,0
71,156,33527,84,82,1,2,15,2,15.mid,experiment,0
72,159,34139,84,81,1,2,15,2,15.mid,experiment,0
1,17,9408,79,66,1,2,15,3,10.mid,experiment,0
2,18,9676,78,76,1,2,15,3,10.mid,experiment,0
3,20,9961,79,79,1,2,15,3,10.mid,experiment,0
4,22,10210,76,76,1,2,15,3,10.mid,experiment,0
5,24,10495,72,65,1,2,15,3,10.mid,experiment,0
6,27,10760,67,58,1,2,15,3,10.mid,experiment,0
7,29,11034,67,57,1,2,15,3,10.mid,experiment,0
8,31,11294,67,73,1,2,15,3,10.mid,experiment,0
9,33,11562,79,75,1,2,15,3,10.mid,experiment,0
10,34,11828,78,77,1,2,15,3,10.mid,experiment,0
11,36,12113,79,75,1,2,15,3,10.mid,experiment,0
12,38,12352,76,72,1,2,15,3,10.mid,experiment,0
13,40,12643,72,72,1,2,15,3,10.mid,experiment,0
14,42,12912,76,75,1,2,15,3,10.mid,experiment,0
15,44,13190,79,87,1,2,15,3,10.mid,experiment,0
16,46,13453,84,84,1,2,15,3,10.mid,experiment,0
17,48,13744,83,82,1,2,15,3,10.mid,experiment,0
18,50,14013,81,68,1,2,15,3,10.mid,experiment,0
19,53,14286,81,60,1,2,15,3,10.mid,experiment,0
20,55,14543,81,68,1,2,15,3,10.mid,experiment,0
21,57,14827,83,68,1,2,15,3,10.mid,experiment,0
22,58,15083,81,76,1,2,15,3,10.mid,experiment,0
23,60,15368,84,81,1,2,15,3,10.mid,experiment,0
24,62,15630,81,85,1,2,15,3,10.mid,experiment,0
25,64,15926,78,71,1,2,15,3,10.mid,experiment,0
26,66,16209,79,65,1,2,15,3,10.mid,experiment,0
27,69,16502,79,63,1,2,15,3,10.mid,experiment,0
28,71,17060,79,66,1,2,15,3,10.mid,experiment,0
29,73,18143,77,64,1,2,15,3,10.mid,experiment,0
30,75,18397,77,70,1,2,15,3,10.mid,experiment,0
31,77,18666,76,61,1,2,15,3,10.mid,experiment,0
32,79,18918,76,58,1,2,15,3,10.mid,experiment,0
33,81,19216,74,47,1,2,15,3,10.mid,experiment,0
34,83,20324,79,66,1,2,15,3,10.mid,experiment,0
35,85,20896,77,55,1,2,15,3,10.mid,experiment,0
36,87,21443,76,55,1,2,15,3,10.mid,experiment,0
37,89,21705,76,55,1,2,15,3,10.mid,experiment,0
38,91,21971,76,56,1,2,15,3,10.mid,experiment,0
39,93,22223,76,63,1,2,15,3,10.mid,experiment,0
40,95,22510,81,70,1,2,15,3,10.mid,experiment,0
41,96,22766,77,73,1,2,15,3,10.mid,experiment,0
42,98,23034,76,72,1,2,15,3,10.mid,experiment,0
43,100,23291,74,79,1,2,15,3,10.mid,experiment,0
44,102,23560,76,79,1,2,15,3,10.mid,experiment,0
45,104,23824,79,74,1,2,15,3,10.mid,experiment,0
46,106,24088,74,74,1,2,15,3,10.mid,experiment,0
47,108,24337,71,70,1,2,15,3,10.mid,experiment,0
48,111,24600,72,72,1,2,15,3,10.mid,experiment,0
49,113,24850,72,71,1,2,15,3,10.mid,experiment,0
50,115,25122,74,68,1,2,15,3,10.mid,experiment,0
51,117,25376,74,70,1,2,15,3,10.mid,experiment,0
52,119,25670,76,54,1,2,15,3,10.mid,experiment,0
53,121,26740,65,66,1,2,15,3,10.mid,experiment,0
54,123,26981,65,56,1,2,15,3,10.mid,experiment,0
55,125,27256,64,56,1,2,15,3,10.mid,experiment,0
56,127,27520,64,60,1,2,15,3,10.mid,experiment,0
57,129,27817,62,48,1,2,15,3,10.mid,experiment,0
58,131,28933,67,51,1,2,15,3,10.mid,experiment,0
59,133,29201,67,55,1,2,15,3,10.mid,experiment,0
60,135,29462,71,57,1,2,15,3,10.mid,experiment,0
61,137,29715,71,58,1,2,15,3,10.mid,experiment,0
62,139,29982,72,70,1,2,15,3,10.mid,experiment,0
63,141,30233,72,67,1,2,15,3,10.mid,experiment,0
64,143,30488,73,70,1,2,15,3,10.mid,experiment,0
65,145,30742,73,70,1,2,15,3,10.mid,experiment,0
66,147,31030,74,78,1,2,15,3,10.mid,experiment,0
67,149,31595,77,79,1,2,15,3,10.mid,experiment,0
68,150,32171,76,78,1,2,15,3,10.mid,experiment,0
69,153,32736,74,81,1,2,15,3,10.mid,experiment,0
70,155,33301,72,81,1,2,15,3,10.mid,experiment,0
71,157,33873,84,90,1,2,15,3,10.mid,experiment,0
72,159,34468,84,89,1,2,15,3,10.mid,experiment,0
1,17,8517,79,67,1,2,15,4,4.mid,experiment,0
2,18,8783,78,79,1,2,15,4,4.mid,experiment,0
3,20,9050,79,75,1,2,15,4,4.mid,experiment,0
4,22,9314,76,72,1,2,15,4,4.mid,experiment,0
5,24,9592,72,68,1,2,15,4,4.mid,experiment,0
6,27,9850,67,59,1,2,15,4,4.mid,experiment,0
7,29,10136,67,47,1,2,15,4,4.mid,experiment,0
8,31,10393,67,63,1,2,15,4,4.mid,experiment,0
9,33,10661,79,78,1,2,15,4,4.mid,experiment,0
10,34,10922,78,77,1,2,15,4,4.mid,experiment,0
11,36,11194,79,81,1,2,15,4,4.mid,experiment,0
12,38,11441,76,74,1,2,15,4,4.mid,experiment,0
13,40,11724,72,75,1,2,15,4,4.mid,experiment,0
14,42,11972,76,75,1,2,15,4,4.mid,experiment,0
15,44,12238,79,76,1,2,15,4,4.mid,experiment,0
16,46,12488,84,83,1,2,15,4,4.mid,experiment,0
17,48,12763,83,79,1,2,15,4,4.mid,experiment,0
18,51,13044,81,63,1,2,15,4,4.mid,experiment,0
19,53,13312,81,61,1,2,15,4,4.mid,experiment,0
20,55,13568,81,63,1,2,15,4,4.mid,experiment,0
21,57,13838,83,72,1,2,15,4,4.mid,experiment,0
22,58,14104,81,81,1,2,15,4,4.mid,experiment,0
23,60,14379,84,86,1,2,15,4,4.mid,experiment,0
24,62,14615,81,85,1,2,15,4,4.mid,experiment,0
25,64,14895,78,76,1,2,15,4,4.mid,experiment,0
26,66,15149,79,74,1,2,15,4,4.mid,experiment,0
27,69,15427,79,67,1,2,15,4,4.mid,experiment,0
28,71,15981,79,63,1,2,15,4,4.mid,experiment,0
29,73,17029,77,61,1,2,15,4,4.mid,experiment,0
30,75,17280,77,63,1,2,15,4,4.mid,experiment,0
31,77,17549,76,58,1,2,15,4,4.mid,experiment,0
32,79,17803,76,56,1,2,15,4,4.mid,experiment,0
33,81,18097,74,53,1,2,15,4,4.mid,experiment,0
34,83,19291,79,70,1,2,15,4,4.mid,experiment,0
35,84,19849,77,63,1,2,15,4,4.mid,experiment,0
36,87,20398,76,62,1,2,15,4,4.mid,experiment,0
37,89,20647,76,62,1,2,15,4,4.mid,experiment,0
38,91,20913,76,60,1,2,15,4,4.mid,experiment,0
39,93,21169,76,62,1,2,15,4,4.mid,experiment,0
40,95,21464,81,79,1,2,15,4,4.mid,experiment,0
41,96,21733,77,76,1,2,15,4,4.mid,experiment,0
42,98,22004,76,71,1,2,15,4,4.mid,experiment,0
43,100,22261,74,78,1,2,15,4,4.mid,experiment,0
44,102,22537,76,71,1,2,15,4,4.mid,experiment,0
45,104,22792,79,72,1,2,15,4,4.mid,experiment,0
46,106,23060,74,74,1,2,15,4,4.mid,experiment,0
47,108,23318,71,70,1,2,15,4,4.mid,experiment,0
48,111,23593,72,68,1,2,15,4,4.mid,experiment,0
49,113,23844,72,67,1,2,15,4,4.mid,experiment,0
50,115,24111,74,65,1,2,15,4,4.mid,experiment,0
51,117,24368,74,64,1,2,15,4,4.mid,experiment,0
52,119,24664,76,54,1,2,15,4,4.mid,experiment,0
53,121,25828,65,68,1,2,15,4,4.mid,experiment,0
54,123,26091,65,66,1,2,15,4,4.mid,experiment,0
55,125,26364,64,62,1,2,15,4,4.mid,experiment,0
56,127,26631,64,57,1,2,15,4,4.mid,experiment,0
57,129,26922,62,50,1,2,15,4,4.mid,experiment,0
58,131,28071,67,54,1,2,15,4,4.mid,experiment,0
59,133,28331,67,57,1,2,15,4,4.mid,experiment,0
60,135,28617,71,46,1,2,15,4,4.mid,experiment,0
61,137,28879,71,57,1,2,15,4,4.mid,experiment,0
62,139,29146,72,65,1,2,15,4,4.mid,experiment,0
63,141,29395,72,71,1,2,15,4,4.mid,experiment,0
64,143,29650,73,70,1,2,15,4,4.mid,experiment,0
65,145,29900,73,74,1,2,15,4,4.mid,experiment,0
66,147,30194,74,77,1,2,15,4,4.mid,experiment,0
67,148,30774,77,73,1,2,15,4,4.mid,experiment,0
68,150,31336,76,69,1,2,15,4,4.mid,experiment,0
69,152,31891,74,79,1,2,15,4,4.mid,experiment,0
70,155,32460,72,81,1,2,15,4,4.mid,experiment,0
71,157,33013,84,84,1,2,15,4,4.mid,experiment,0
72,159,33614,84,88,1,2,15,4,4.mid,experiment,0
1,17,9154,79,73,1,2,15,5,13.mid,experiment,0
2,18,9432,78,83,1,2,15,5,13.mid,experiment,0
3,20,9701,79,81,1,2,15,5,13.mid,experiment,0
4,22,9955,76,79,1,2,15,5,13.mid,experiment,0
5,24,10239,72,77,1,2,15,5,13.mid,experiment,0
6,27,10513,67,62,1,2,15,5,13.mid,experiment,0
7,29,10792,67,55,1,2,15,5,13.mid,experiment,0
8,31,11052,67,67,1,2,15,5,13.mid,experiment,0
9,33,11351,79,77,1,2,15,5,13.mid,experiment,0
10,34,11617,78,81,1,2,15,5,13.mid,experiment,0
11,36,11891,79,86,1,2,15,5,13.mid,experiment,0
12,38,12150,76,81,1,2,15,5,13.mid,experiment,0
13,40,12428,72,88,1,2,15,5,13.mid,experiment,0
14,42,12678,76,87,1,2,15,5,13.mid,experiment,0
15,44,12951,79,89,1,2,15,5,13.mid,experiment,0
16,46,13210,84,88,1,2,15,5,13.mid,experiment,0
17,48,13488,83,81,1,2,15,5,13.mid,experiment,0
18,51,13783,81,65,1,2,15,5,13.mid,experiment,0
19,53,14039,81,65,1,2,15,5,13.mid,experiment,0
20,55,14292,81,68,1,2,15,5,13.mid,experiment,0
21,57,14568,83,86,1,2,15,5,13.mid,experiment,0
22,58,14837,81,87,1,2,15,5,13.mid,experiment,0
23,60,15111,84,85,1,2,15,5,13.mid,experiment,0
24,62,15367,81,88,1,2,15,5,13.mid,experiment,0
25,64,15669,78,81,1,2,15,5,13.mid,experiment,0
26,66,15938,79,81,1,2,15,5,13.mid,experiment,0
27,69,16225,79,79,1,2,15,5,13.mid,experiment,0
28,71,16788,79,78,1,2,15,5,13.mid,experiment,0
29,73,17943,77,68,1,2,15,5,13.mid,experiment,0
30,75,18198,77,69,1,2,15,5,13.mid,experiment,0
31,77,18465,76,63,1,2,15,5,13.mid,experiment,0
32,79,18718,76,65,1,2,15,5,13.mid,experiment,0
33,81,19016,74,63,1,2,15,5,13.mid,experiment,0
34,83,20178,79,68,1,2,15,5,13.mid,experiment,0
35,84,20754,77,66,1,2,15,5,13.mid,experiment,0
36,87,21328,76,50,1,2,15,5,13.mid,experiment,0
37,89,21582,76,54,1,2,15,5,13.mid,experiment,0
38,91,21834,76,62,1,2,15,5,13.mid,experiment,0
39,93,22087,76,70,1,2,15,5,13.mid,experiment,0
40,95,22373,81,79,1,2,15,5,13.mid,experiment,0
41,96,22628,77,77,1,2,15,5,13.mid,experiment,0
42,98,22898,76,74,1,2,15,5,13.mid,experiment,0
43,100,23144,74,81,1,2,15,5,13.mid,experiment,0
44,102,23412,76,78,1,2,15,5,13.mid,experiment,0
45,104,23680,79,71,1,2,15,5,13.mid,experiment,0
46,106,23954,74,74,1,2,15,5,13.mid,experiment,0
47,108,24198,71,65,1,2,15,5,13.mid,experiment,0
48,111,24478,72,61,1,2,15,5,13.mid,experiment,0
49,113,24730,72,70,1,2,15,5,13.mid,experiment,0
50,115,24985,74,67,1,2,15,5,13.mid,experiment,0
51,117,25239,74,67,1,2,15,5,13.mid,experiment,0
52,119,25530,76,56,1,2,15,5,13.mid,experiment,0
53,121,26729,65,68,1,2,15,5,13.mid,experiment,0
54,123,26977,65,61,1,2,15,5,13.mid,experiment,0
55,125,27247,64,59,1,2,15,5,13.mid,experiment,0
56,127,27514,64,59,1,2,15,5,13.mid,experiment,0
57,129,27825,62,51,1,2,15,5,13.mid,experiment,0
58,131,29033,67,51,1,2,15,5,13.mid,experiment,0
59,133,29299,67,54,1,2,15,5,13.mid,experiment,0
60,135,29563,71,52,1,2,15,5,13.mid,experiment,0
61,137,29808,71,60,1,2,15,5,13.mid,experiment,0
62,139,30079,72,66,1,2,15,5,13.mid,experiment,0
63,141,30328,72,72,1,2,15,5,13.mid,experiment,0
64,143,30579,73,74,1,2,15,5,13.mid,experiment,0
65,145,30833,73,79,1,2,15,5,13.mid,experiment,0
66,147,31115,74,85,1,2,15,5,13.mid,experiment,0
67,148,31658,77,87,1,2,15,5,13.mid,experiment,0
68,150,32223,76,81,1,2,15,5,13.mid,experiment,0
69,153,32798,74,79,1,2,15,5,13.mid,experiment,0
70,155,33361,72,83,1,2,15,5,13.mid,experiment,0
71,157,33897,84,94,1,2,15,5,13.mid,experiment,0
72,159,34501,84,94,1,2,15,5,13.mid,experiment,0
1,17,8482,79,69,1,2,15,6,1.mid,experiment,0
2,18,8751,78,79,1,2,15,6,1.mid,experiment,0
3,20,9038,79,81,1,2,15,6,1.mid,experiment,0
4,22,9301,76,74,1,2,15,6,1.mid,experiment,0
5,24,9588,72,68,1,2,15,6,1.mid,experiment,0
6,27,9879,67,53,1,2,15,6,1.mid,experiment,0
7,29,10166,67,32,1,2,15,6,1.mid,experiment,0
8,31,10429,67,47,1,2,15,6,1.mid,experiment,0
9,33,10710,79,72,1,2,15,6,1.mid,experiment,0
10,34,10973,78,81,1,2,15,6,1.mid,experiment,0
11,36,11236,79,79,1,2,15,6,1.mid,experiment,0
12,38,11492,76,76,1,2,15,6,1.mid,experiment,0
13,40,11771,72,78,1,2,15,6,1.mid,experiment,0
14,42,12018,76,78,1,2,15,6,1.mid,experiment,0
15,44,12296,79,83,1,2,15,6,1.mid,experiment,0
16,46,12557,84,85,1,2,15,6,1.mid,experiment,0
17,48,12853,83,78,1,2,15,6,1.mid,experiment,0
18,51,13152,81,60,1,2,15,6,1.mid,experiment,0
19,53,13426,81,55,1,2,15,6,1.mid,experiment,0
20,55,13684,81,68,1,2,15,6,1.mid,experiment,0
21,57,13960,83,77,1,2,15,6,1.mid,experiment,0
22,58,14218,81,84,1,2,15,6,1.mid,experiment,0
23,60,14491,84,82,1,2,15,6,1.mid,experiment,0
24,62,14737,81,88,1,2,15,6,1.mid,experiment,0
25,64,15011,78,84,1,2,15,6,1.mid,experiment,0
26,66,15272,79,79,1,2,15,6,1.mid,experiment,0
27,69,15561,79,66,1,2,15,6,1.mid,experiment,0
28,71,16112,79,63,1,2,15,6,1.mid,experiment,0
29,73,17230,77,60,1,2,15,6,1.mid,experiment,0
30,75,17488,77,54,1,2,15,6,1.mid,experiment,0
31,77,17752,76,52,1,2,15,6,1.mid,experiment,0
32,79,18017,76,48,1,2,15,6,1.mid,experiment,0
33,81,18299,74,47,1,2,15,6,1.mid,experiment,0
34,83,19457,79,56,1,2,15,6,1.mid,experiment,0
35,85,20023,77,55,1,2,15,6,1.mid,experiment,0
36,87,20590,76,52,1,2,15,6,1.mid,experiment,0
37,89,20859,76,48,1,2,15,6,1.mid,experiment,0
38,91,21121,76,55,1,2,15,6,1.mid,experiment,0
39,93,21374,76,61,1,2,15,6,1.mid,experiment,0
40,95,21657,81,72,1,2,15,6,1.mid,experiment,0
41,96,21914,77,74,1,2,15,6,1.mid,experiment,0
42,98,22200,76,66,1,2,15,6,1.mid,experiment,0
43,100,22453,74,78,1,2,15,6,1.mid,experiment,0
44,102,22715,76,74,1,2,15,6,1.mid,experiment,0
45,104,22981,79,75,1,2,15,6,1.mid,experiment,0
46,106,23241,74,75,1,2,15,6,1.mid,experiment,0
47,108,23499,71,68,1,2,15,6,1.mid,experiment,0
48,111,23763,72,73,1,2,15,6,1.mid,experiment,0
49,113,24023,72,70,1,2,15,6,1.mid,experiment,0
50,115,24287,74,66,1,2,15,6,1.mid,experiment,0
51,117,24553,74,63,1,2,15,6,1.mid,experiment,0
52,119,24839,76,54,1,2,15,6,1.mid,experiment,0
53,121,26020,65,59,1,2,15,6,1.mid,experiment,0
54,123,26282,65,67,1,2,15,6,1.mid,experiment,0
55,125,26563,64,57,1,2,15,6,1.mid,experiment,0
56,127,26818,64,54,1,2,15,6,1.mid,experiment,0
57,129,27114,62,51,1,2,15,6,1.mid,experiment,0
58,131,28260,67,54,1,2,15,6,1.mid,experiment,0
59,133,28526,67,60,1,2,15,6,1.mid,experiment,0
60,135,28806,71,60,1,2,15,6,1.mid,experiment,0
61,137,29063,71,62,1,2,15,6,1.mid,experiment,0
62,139,29332,72,70,1,2,15,6,1.mid,experiment,0
63,141,29598,72,67,1,2,15,6,1.mid,experiment,0
64,143,29848,73,67,1,2,15,6,1.mid,experiment,0
65,145,30094,73,72,1,2,15,6,1.mid,experiment,0
66,147,30400,74,74,1,2,15,6,1.mid,experiment,0
67,148,30966,77,84,1,2,15,6,1.mid,experiment,0
68,150,31526,76,78,1,2,15,6,1.mid,experiment,0
69,152,32107,74,85,1,2,15,6,1.mid,experiment,0
70,154,32660,72,88,1,2,15,6,1.mid,experiment,0
71,156,33227,84,91,1,2,15,6,1.mid,experiment,0
72,159,33847,84,95,1,2,15,6,1.mid,experiment,0
1,17,9248,79,72,1,2,15,7,14.mid,experiment,0
2,18,9519,78,75,1,2,15,7,14.mid,experiment,0
3,20,9805,79,78,1,2,15,7,14.mid,experiment,0
4,22,10065,76,72,1,2,15,7,14.mid,experiment,0
5,24,10367,72,71,1,2,15,7,14.mid,experiment,0
6,27,10641,67,63,1,2,15,7,14.mid,experiment,0
7,29,10911,67,63,1,2,15,7,14.mid,experiment,0
8,31,11168,67,71,1,2,15,7,14.mid,experiment,0
9,33,11437,79,81,1,2,15,7,14.mid,experiment,0
10,34,11696,78,86,1,2,15,7,14.mid,experiment,0
11,36,11968,79,86,1,2,15,7,14.mid,experiment,0
12,38,12243,76,79,1,2,15,7,14.mid,experiment,0
13,40,12519,72,78,1,2,15,7,14.mid,experiment,0
14,42,12784,76,78,1,2,15,7,14.mid,experiment,0
15,44,13066,79,81,1,2,15,7,14.mid,experiment,0
16,46,13330,84,74,1,2,15,7,14.mid,experiment,0
17,48,13627,83,78,1,2,15,7,14.mid,experiment,0
18,51,13909,81,68,1,2,15,7,14.mid,experiment,0
19,53,14174,81,63,1,2,15,7,14.mid,experiment,0
20,55,14429,81,75,1,2,15,7,14.mid,experiment,0
21,57,14710,83,83,1,2,15,7,14.mid,experiment,0
22,58,14988,81,84,1,2,15,7,14.mid,experiment,0
23,60,15267,84,77,1,2,15,7,14.mid,experiment,0
24,62,15520,81,80,1,2,15,7,14.mid,experiment,0
25,64,15798,78,78,1,2,15,7,14.mid,experiment,0
26,66,16065,79,73,1,2,15,7,14.mid,experiment,0
27,69,16357,79,67,1,2,15,7,14.mid,experiment,0
28,71,16924,79,66,1,2,15,7,14.mid,experiment,0
29,73,18049,77,65,1,2,15,7,14.mid,experiment,0
30,75,18305,77,65,1,2,15,7,14.mid,experiment,0
31,77,18577,76,57,1,2,15,7,14.mid,experiment,0
32,79,18839,76,53,1,2,15,7,14.mid,experiment,0
33,81,19133,74,47,1,2,15,7,14.mid,experiment,0
34,83,20322,79,65,1,2,15,7,14.mid,experiment,0
35,84,20874,77,58,1,2,15,7,14.mid,experiment,0
36,87,21470,76,56,1,2,15,7,14.mid,experiment,0
37,89,21734,76,57,1,2,15,7,14.mid,experiment,0
38,91,22001,76,63,1,2,15,7,14.mid,experiment,0
39,93,22256,76,63,1,2,15,7,14.mid,experiment,0
40,95,22536,81,70,1,2,15,7,14.mid,experiment,0
41,96,22796,77,65,1,2,15,7,14.mid,experiment,0
42,97,23050,76,68,1,2,15,7,14.mid,experiment,0
43,100,23310,74,79,1,2,15,7,14.mid,experiment,0
44,102,23573,76,76,1,2,15,7,14.mid,experiment,0
45,104,23834,79,76,1,2,15,7,14.mid,experiment,0
46,106,24098,74,72,1,2,15,7,14.mid,experiment,0
47,108,24364,71,67,1,2,15,7,14.mid,experiment,0
48,111,24635,72,68,1,2,15,7,14.mid,experiment,0
49,113,24883,72,69,1,2,15,7,14.mid,experiment,0
50,115,25166,74,68,1,2,15,7,14.mid,experiment,0
51,117,25426,74,67,1,2,15,7,14.mid,experiment,0
52,119,25715,76,51,1,2,15,7,14.mid,experiment,0
53,121,26838,65,61,1,2,15,7,14.mid,experiment,0
54,123,27092,65,57,1,2,15,7,14.mid,experiment,0
55,125,27368,64,52,1,2,15,7,14.mid,experiment,0
56,127,27630,64,52,1,2,15,7,14.mid,experiment,0
57,129,27920,62,52,1,2,15,7,14.mid,experiment,0
58,131,29117,67,49,1,2,15,7,14.mid,experiment,0
59,133,29373,67,63,1,2,15,7,14.mid,experiment,0
60,135,29636,71,63,1,2,15,7,14.mid,experiment,0
61,137,29888,71,63,1,2,15,7,14.mid,experiment,0
62,139,30161,72,70,1,2,15,7,14.mid,experiment,0
63,141,30421,72,70,1,2,15,7,14.mid,experiment,0
64,143,30677,73,72,1,2,15,7,14.mid,experiment,0
65,145,30926,73,74,1,2,15,7,14.mid,experiment,0
66,147,31223,74,75,1,2,15,7,14.mid,experiment,0
67,148,31779,77,87,1,2,15,7,14.mid,experiment,0
68,151,32340,76,83,1,2,15,7,14.mid,experiment,0
69,153,32932,74,81,1,2,15,7,14.mid,experiment,0
70,155,33523,72,80,1,2,15,7,14.mid,experiment,0
71,157,34082,84,97,1,2,15,7,14.mid,experiment,0
72,159,34712,84,88,1,2,15,7,14.mid,experiment,0
1,17,8916,79,63,1,2,15,8,3.mid,experiment,0
2,18,9180,78,69,1,2,15,8,3.mid,experiment,0
3,20,9463,79,76,1,2,15,8,3.mid,experiment,0
4,22,9729,76,75,1,2,15,8,3.mid,experiment,0
5,24,10020,72,72,1,2,15,8,3.mid,experiment,0
6,27,10294,67,60,1,2,15,8,3.mid,experiment,0
7,29,10587,67,56,1,2,15,8,3.mid,experiment,0
8,31,10855,67,63,1,2,15,8,3.mid,experiment,0
9,33,11127,79,69,1,2,15,8,3.mid,experiment,0
10,34,11393,78,75,1,2,15,8,3.mid,experiment,0
11,36,11671,79,76,1,2,15,8,3.mid,experiment,0
12,38,11929,76,68,1,2,15,8,3.mid,experiment,0
13,40,12211,72,70,1,2,15,8,3.mid,experiment,0
14,42,12468,76,71,1,2,15,8,3.mid,experiment,0
15,44,12739,79,75,1,2,15,8,3.mid,experiment,0
16,46,13008,84,76,1,2,15,8,3.mid,experiment,0
17,48,13279,83,78,1,2,15,8,3.mid,experiment,0
18,51,13576,81,55,1,2,15,8,3.mid,experiment,0
19,53,13838,81,67,1,2,15,8,3.mid,experiment,0
20,55,14093,81,67,1,2,15,8,3.mid,experiment,0
21,57,14365,83,78,1,2,15,8,3.mid,experiment,0
22,58,14630,81,81,1,2,15,8,3.mid,experiment,0
23,60,14905,84,85,1,2,15,8,3.mid,experiment,0
24,62,15161,81,83,1,2,15,8,3.mid,experiment,0
25,64,15447,78,76,1,2,15,8,3.mid,experiment,0
26,66,15706,79,69,1,2,15,8,3.mid,experiment,0
27,69,16007,79,63,1,2,15,8,3.mid,experiment,0
28,71,16584,79,65,1,2,15,8,3.mid,experiment,0
29,73,17714,77,62,1,2,15,8,3.mid,experiment,0
30,75,17971,77,66,1,2,15,8,3.mid,experiment,0
31,77,18240,76,55,1,2,15,8,3.mid,experiment,0
32,79,18502,76,54,1,2,15,8,3.mid,experiment,0
33,81,18794,74,49,1,2,15,8,3.mid,experiment,0
34,83,19945,79,53,1,2,15,8,3.mid,experiment,0
35,85,20507,77,56,1,2,15,8,3.mid,experiment,0
36,87,21058,76,53,1,2,15,8,3.mid,experiment,0
37,89,21327,76,55,1,2,15,8,3.mid,experiment,0
38,91,21595,76,61,1,2,15,8,3.mid,experiment,0
39,93,21850,76,62,1,2,15,8,3.mid,experiment,0
40,95,22119,81,68,1,2,15,8,3.mid,experiment,0
41,96,22377,77,71,1,2,15,8,3.mid,experiment,0
42,98,22643,76,71,1,2,15,8,3.mid,experiment,0
43,100,22902,74,79,1,2,15,8,3.mid,experiment,0
44,102,23184,76,78,1,2,15,8,3.mid,experiment,0
45,104,23451,79,74,1,2,15,8,3.mid,experiment,0
46,106,23724,74,72,1,2,15,8,3.mid,experiment,0
47,108,23980,71,70,1,2,15,8,3.mid,experiment,0
48,111,24269,72,62,1,2,15,8,3.mid,experiment,0
49,113,24530,72,56,1,2,15,8,3.mid,experiment,0
50,115,24802,74,62,1,2,15,8,3.mid,experiment,0
51,117,25066,74,55,1,2,15,8,3.mid,experiment,0
52,119,25342,76,46,1,2,15,8,3.mid,experiment,0
53,121,26478,65,59,1,2,15,8,3.mid,experiment,0
54,123,26734,65,62,1,2,15,8,3.mid,experiment,0
55,125,27009,64,55,1,2,15,8,3.mid,experiment,0
56,127,27281,64,50,1,2,15,8,3.mid,experiment,0
57,129,27591,62,46,1,2,15,8,3.mid,experiment,0
58,131,28852,67,48,1,2,15,8,3.mid,experiment,0
59,133,29107,67,55,1,2,15,8,3.mid,experiment,0
60,135,29371,71,63,1,2,15,8,3.mid,experiment,0
61,137,29619,71,63,1,2,15,8,3.mid,experiment,0
62,139,29896,72,72,1,2,15,8,3.mid,experiment,0
63,141,30158,72,75,1,2,15,8,3.mid,experiment,0
64,143,30425,73,81,1,2,15,8,3.mid,experiment,0
65,145,30677,73,74,1,2,15,8,3.mid,experiment,0
66,147,30976,74,79,1,2,15,8,3.mid,experiment,0
67,149,31528,77,79,1,2,15,8,3.mid,experiment,0
68,150,32100,76,78,1,2,15,8,3.mid,experiment,0
69,153,32645,74,86,1,2,15,8,3.mid,experiment,0
70,155,33224,72,88,1,2,15,8,3.mid,experiment,0
71,156,33811,84,97,1,2,15,8,3.mid,experiment,0
72,159,34447,84,96,1,2,15,8,3.mid,experiment,0
1,17,8301,79,76,1,2,15,9,2.mid,experiment,0
2,18,8593,78,81,1,2,15,9,2.mid,experiment,0
3,20,8867,79,81,1,2,15,9,2.mid,experiment,0
4,22,9133,76,74,1,2,15,9,2.mid,experiment,0
5,24,9419,72,71,1,2,15,9,2.mid,experiment,0
6,27,9688,67,57,1,2,15,9,2.mid,experiment,0
7,29,9961,67,55,1,2,15,9,2.mid,experiment,0
8,31,10224,67,66,1,2,15,9,2.mid,experiment,0
9,33,10500,79,80,1,2,15,9,2.mid,experiment,0
10,34,10771,78,78,1,2,15,9,2.mid,experiment,0
11,36,11052,79,67,1,2,15,9,2.mid,experiment,0
12,38,11297,76,63,1,2,15,9,2.mid,experiment,0
13,40,11573,72,74,1,2,15,9,2.mid,experiment,0
14,42,11831,76,75,1,2,15,9,2.mid,experiment,0
15,44,12107,79,70,1,2,15,9,2.mid,experiment,0
16,46,12373,84,76,1,2,15,9,2.mid,experiment,0
17,48,12658,83,78,1,2,15,9,2.mid,experiment,0
18,50,12919,81,72,1,2,15,9,2.mid,experiment,0
19,53,13195,81,63,1,2,15,9,2.mid,experiment,0
20,55,13448,81,70,1,2,15,9,2.mid,experiment,0
21,57,13729,83,80,1,2,15,9,2.mid,experiment,0
22,58,13992,81,86,1,2,15,9,2.mid,experiment,0
23,60,14274,84,86,1,2,15,9,2.mid,experiment,0
24,62,14523,81,88,1,2,15,9,2.mid,experiment,0
25,64,14814,78,81,1,2,15,9,2.mid,experiment,0
26,66,15073,79,81,1,2,15,9,2.mid,experiment,0
27,69,15352,79,71,1,2,15,9,2.mid,experiment,0
28,71,15917,79,66,1,2,15,9,2.mid,experiment,0
29,73,17066,77,65,1,2,15,9,2.mid,experiment,0
30,75,17327,77,66,1,2,15,9,2.mid,experiment,0
31,77,17595,76,55,1,2,15,9,2.mid,experiment,0
32,79,17851,76,57,1,2,15,9,2.mid,experiment,0
33,81,18142,74,51,1,2,15,9,2.mid,experiment,0
34,83,19300,79,68,1,2,15,9,2.mid,experiment,0
35,85,19870,77,66,1,2,15,9,2.mid,experiment,0
36,87,20433,76,58,1,2,15,9,2.mid,experiment,0
37,89,20692,76,56,1,2,15,9,2.mid,experiment,0
38,91,20948,76,60,1,2,15,9,2.mid,experiment,0
39,93,21198,76,67,1,2,15,9,2.mid,experiment,0
40,95,21487,81,70,1,2,15,9,2.mid,experiment,0
41,96,21751,77,72,1,2,15,9,2.mid,experiment,0
42,98,22020,76,71,1,2,15,9,2.mid,experiment,0
43,100,22265,74,81,1,2,15,9,2.mid,experiment,0
44,102,22541,76,78,1,2,15,9,2.mid,experiment,0
45,104,22802,79,74,1,2,15,9,2.mid,experiment,0
46,106,23070,74,75,1,2,15,9,2.mid,experiment,0
47,108,23323,71,68,1,2,15,9,2.mid,experiment,0
48,111,23596,72,74,1,2,15,9,2.mid,experiment,0
49,113,23851,72,65,1,2,15,9,2.mid,experiment,0
50,115,24122,74,66,1,2,15,9,2.mid,experiment,0
51,117,24381,74,70,1,2,15,9,2.mid,experiment,0
52,119,24673,76,59,1,2,15,9,2.mid,experiment,0
53,121,25742,65,63,1,2,15,9,2.mid,experiment,0
54,123,25997,65,66,1,2,15,9,2.mid,experiment,0
55,125,26279,64,58,1,2,15,9,2.mid,experiment,0
56,127,26560,64,56,1,2,15,9,2.mid,experiment,0
57,129,26854,62,52,1,2,15,9,2.mid,experiment,0
58,131,28062,67,64,1,2,15,9,2.mid,experiment,0
59,133,28334,67,64,1,2,15,9,2.mid,experiment,0
60,135,28612,71,57,1,2,15,9,2.mid,experiment,0
61,137,28867,71,62,1,2,15,9,2.mid,experiment,0
62,139,29147,72,67,1,2,15,9,2.mid,experiment,0
63,141,29404,72,76,1,2,15,9,2.mid,experiment,0
64,143,29660,73,75,1,2,15,9,2.mid,experiment,0
65,145,29908,73,78,1,2,15,9,2.mid,experiment,0
66,147,30193,74,80,1,2,15,9,2.mid,experiment,0
67,148,30739,77,83,1,2,15,9,2.mid,experiment,0
68,150,31294,76,78,1,2,15,9,2.mid,experiment,0
69,152,31869,74,83,1,2,15,9,2.mid,experiment,0
70,154,32441,72,85,1,2,15,9,2.mid,experiment,0
71,156,33003,84,94,1,2,15,9,2.mid,experiment,0
72,159,33633,84,93,1,2,15,9,2.mid,experiment,0
1,17,8937,79,70,1,2,15,10,7.mid,experiment,0
2,18,9220,78,75,1,2,15,10,7.mid,experiment,0
3,20,9500,79,85,1,2,15,10,7.mid,experiment,0
4,22,9759,76,75,1,2,15,10,7.mid,experiment,0
5,24,10060,72,72,1,2,15,10,7.mid,experiment,0
6,27,10339,67,60,1,2,15,10,7.mid,experiment,0
7,29,10622,67,55,1,2,15,10,7.mid,experiment,0
8,31,10880,67,66,1,2,15,10,7.mid,experiment,0
9,33,11177,79,75,1,2,15,10,7.mid,experiment,0
10,34,11445,78,79,1,2,15,10,7.mid,experiment,0
11,36,11723,79,80,1,2,15,10,7.mid,experiment,0
12,38,11985,76,77,1,2,15,10,7.mid,experiment,0
13,40,12272,72,80,1,2,15,10,7.mid,experiment,0
14,42,12529,76,86,1,2,15,10,7.mid,experiment,0
15,44,12811,79,81,1,2,15,10,7.mid,experiment,0
16,46,13072,84,83,1,2,15,10,7.mid,experiment,0
17,48,13360,83,78,1,2,15,10,7.mid,experiment,0
18,51,13644,81,70,1,2,15,10,7.mid,experiment,0
19,53,13908,81,70,1,2,15,10,7.mid,experiment,0
20,55,14169,81,70,1,2,15,10,7.mid,experiment,0
21,57,14456,83,82,1,2,15,10,7.mid,experiment,0
22,58,14723,81,86,1,2,15,10,7.mid,experiment,0
23,60,15008,84,89,1,2,15,10,7.mid,experiment,0
24,62,15266,81,87,1,2,15,10,7.mid,experiment,0
25,64,15557,78,82,1,2,15,10,7.mid,experiment,0
26,66,15832,79,83,1,2,15,10,7.mid,experiment,0
27,69,16127,79,75,1,2,15,10,7.mid,experiment,0
28,71,16713,79,69,1,2,15,10,7.mid,experiment,0
29,73,17866,77,68,1,2,15,10,7.mid,experiment,0
30,75,18124,77,67,1,2,15,10,7.mid,experiment,0
31,77,18394,76,58,1,2,15,10,7.mid,experiment,0
32,79,18650,76,60,1,2,15,10,7.mid,experiment,0
33,81,18926,74,61,1,2,15,10,7.mid,experiment,0
34,83,20153,79,64,1,2,15,10,7.mid,experiment,0
35,84,20730,77,57,1,2,15,10,7.mid,experiment,0
36,87,21326,76,60,1,2,15,10,7.mid,experiment,0
37,89,21594,76,57,1,2,15,10,7.mid,experiment,0
38,91,21865,76,62,1,2,15,10,7.mid,experiment,0
39,93,22117,76,68,1,2,15,10,7.mid,experiment,0
40,95,22400,81,84,1,2,15,10,7.mid,experiment,0
41,96,22670,77,78,1,2,15,10,7.mid,experiment,0
42,98,22956,76,73,1,2,15,10,7.mid,experiment,0
43,100,23217,74,76,1,2,15,10,7.mid,experiment,0
44,102,23486,76,79,1,2,15,10,7.mid,experiment,0
45,104,23751,79,79,1,2,15,10,7.mid,experiment,0
46,106,24032,74,78,1,2,15,10,7.mid,experiment,0
47,108,24300,71,75,1,2,15,10,7.mid,experiment,0
48,111,24574,72,76,1,2,15,10,7.mid,experiment,0
49,113,24836,72,69,1,2,15,10,7.mid,experiment,0
50,115,25102,74,67,1,2,15,10,7.mid,experiment,0
51,117,25363,74,68,1,2,15,10,7.mid,experiment,0
52,119,25659,76,58,1,2,15,10,7.mid,experiment,0
53,121,26884,65,71,1,2,15,10,7.mid,experiment,0
54,123,27143,65,72,1,2,15,10,7.mid,experiment,0
55,125,27418,64,65,1,2,15,10,7.mid,experiment,0
56,127,27686,64,59,1,2,15,10,7.mid,experiment,0
57,129,27999,62,55,1,2,15,10,7.mid,experiment,0
58,131,29238,67,56,1,2,15,10,7.mid,experiment,0
59,133,29519,67,57,1,2,15,10,7.mid,experiment,0
60,135,29773,71,63,1,2,15,10,7.mid,experiment,0
61,137,30030,71,63,1,2,15,10,7.mid,experiment,0
62,139,30322,72,69,1,2,15,10,7.mid,experiment,0
63,141,30583,72,73,1,2,15,10,7.mid,experiment,0
64,143,30830,73,75,1,2,15,10,7.mid,experiment,0
65,145,31091,73,75,1,2,15,10,7.mid,experiment,0
66,147,31392,74,78,1,2,15,10,7.mid,experiment,0
67,148,31969,77,81,1,2,15,10,7.mid,experiment,0
68,150,32529,76,82,1,2,15,10,7.mid,experiment,0
69,152,33115,74,89,1,2,15,10,7.mid,experiment,0
70,154,33694,72,91,1,2,15,10,7.mid,experiment,0
71,156,34268,84,91,1,2,15,10,7.mid,experiment,0
72,159,34884,84,101,1,2,15,10,7.mid,experiment,0
1,17,8206,79,75,1,2,15,11,16.mid,experiment,0
2,18,8497,78,84,1,2,15,11,16.mid,experiment,0
3,20,8774,79,84,1,2,15,11,16.mid,experiment,0
4,22,9047,76,71,1,2,15,11,16.mid,experiment,0
5,24,9349,72,71,1,2,15,11,16.mid,experiment,0
6,27,9622,67,52,1,2,15,11,16.mid,experiment,0
7,29,9906,67,51,1,2,15,11,16.mid,experiment,0
8,31,10169,67,60,1,2,15,11,16.mid,experiment,0
9,33,10460,79,76,1,2,15,11,16.mid,experiment,0
10,34,10728,78,78,1,2,15,11,16.mid,experiment,0
11,36,11012,79,78,1,2,15,11,16.mid,experiment,0
12,38,11274,76,73,1,2,15,11,16.mid,experiment,0
13,40,11558,72,78,1,2,15,11,16.mid,experiment,0
14,42,11818,76,85,1,2,15,11,16.mid,experiment,0
15,44,12092,79,85,1,2,15,11,16.mid,experiment,0
16,46,12349,84,81,1,2,15,11,16.mid,experiment,0
17,48,12647,83,81,1,2,15,11,16.mid,experiment,0
18,51,12934,81,63,1,2,15,11,16.mid,experiment,0
19,53,13208,81,60,1,2,15,11,16.mid,experiment,0
20,55,13468,81,68,1,2,15,11,16.mid,experiment,0
21,57,13766,83,88,1,2,15,11,16.mid,experiment,0
22,58,14048,81,88,1,2,15,11,16.mid,experiment,0
23,60,14317,84,89,1,2,15,11,16.mid,experiment,0
24,62,14584,81,85,1,2,15,11,16.mid,experiment,0
25,64,14868,78,79,1,2,15,11,16.mid,experiment,0
26,66,15139,79,79,1,2,15,11,16.mid,experiment,0
27,69,15439,79,79,1,2,15,11,16.mid,experiment,0
28,71,16026,79,77,1,2,15,11,16.mid,experiment,0
29,73,17194,77,53,1,2,15,11,16.mid,experiment,0
30,75,17456,77,58,1,2,15,11,16.mid,experiment,0
31,77,17735,76,49,1,2,15,11,16.mid,experiment,0
32,79,18006,76,51,1,2,15,11,16.mid,experiment,0
33,81,18304,74,46,1,2,15,11,16.mid,experiment,0
34,83,19468,79,44,1,2,15,11,16.mid,experiment,0
35,84,20055,77,49,1,2,15,11,16.mid,experiment,0
36,87,20642,76,45,1,2,15,11,16.mid,experiment,0
37,89,20928,76,40,1,2,15,11,16.mid,experiment,0
38,91,21203,76,42,1,2,15,11,16.mid,experiment,0
39,93,21457,76,51,1,2,15,11,16.mid,experiment,0
40,95,21743,81,77,1,2,15,11,16.mid,experiment,0
41,96,22013,77,72,1,2,15,11,16.mid,experiment,0
42,98,22278,76,72,1,2,15,11,16.mid,experiment,0
43,100,22536,74,80,1,2,15,11,16.mid,experiment,0
44,102,22813,76,80,1,2,15,11,16.mid,experiment,0
45,104,23073,79,78,1,2,15,11,16.mid,experiment,0
46,106,23349,74,78,1,2,15,11,16.mid,experiment,0
47,108,23612,71,72,1,2,15,11,16.mid,experiment,0
48,111,23901,72,60,1,2,15,11,16.mid,experiment,0
49,113,24161,72,61,1,2,15,11,16.mid,experiment,0
50,115,24437,74,56,1,2,15,11,16.mid,experiment,0
51,117,24702,74,58,1,2,15,11,16.mid,experiment,0
52,119,24995,76,51,1,2,15,11,16.mid,experiment,0
53,121,26121,65,54,1,2,15,11,16.mid,experiment,0
54,123,26380,65,51,1,2,15,11,16.mid,experiment,0
55,125,26666,64,50,1,2,15,11,16.mid,experiment,0
56,127,26941,64,51,1,2,15,11,16.mid,experiment,0
57,129,27238,62,46,1,2,15,11,16.mid,experiment,0
58,131,28428,67,48,1,2,15,11,16.mid,experiment,0
59,133,28702,67,55,1,2,15,11,16.mid,experiment,0
60,135,28975,71,59,1,2,15,11,16.mid,experiment,0
61,137,29241,71,60,1,2,15,11,16.mid,experiment,0
62,139,29524,72,68,1,2,15,11,16.mid,experiment,0
63,141,29797,72,65,1,2,15,11,16.mid,experiment,0
64,143,30050,73,68,1,2,15,11,16.mid,experiment,0
65,145,30308,73,70,1,2,15,11,16.mid,experiment,0
66,147,30598,74,78,1,2,15,11,16.mid,experiment,0
67,148,31184,77,82,1,2,15,11,16.mid,experiment,0
68,150,31749,76,78,1,2,15,11,16.mid,experiment,0
69,152,32326,74,81,1,2,15,11,16.mid,experiment,0
70,154,32917,72,81,1,2,15,11,16.mid,experiment,0
71,156,33482,84,96,1,2,15,11,16.mid,experiment,0
72,159,34132,84,96,1,2,15,11,16.mid,experiment,0
1,17,8123,79,68,1,2,15,12,12.mid,experiment,0
2,18,8399,78,79,1,2,15,12,12.mid,experiment,0
3,20,8680,79,79,1,2,15,12,12.mid,experiment,0
4,22,8940,76,75,1,2,15,12,12.mid,experiment,0
5,24,9228,72,72,1,2,15,12,12.mid,experiment,0
6,27,9509,67,52,1,2,15,12,12.mid,experiment,0
7,29,9790,67,49,1,2,15,12,12.mid,experiment,0
8,31,10049,67,62,1,2,15,12,12.mid,experiment,0
9,33,10329,79,76,1,2,15,12,12.mid,experiment,0
10,34,10593,78,75,1,2,15,12,12.mid,experiment,0
11,36,10880,79,70,1,2,15,12,12.mid,experiment,0
12,38,11127,76,63,1,2,15,12,12.mid,experiment,0
13,40,11408,72,72,1,2,15,12,12.mid,experiment,0
14,42,11660,76,77,1,2,15,12,12.mid,experiment,0
15,44,11941,79,76,1,2,15,12,12.mid,experiment,0
16,46,12194,84,78,1,2,15,12,12.mid,experiment,0
17,48,12475,83,78,1,2,15,12,12.mid,experiment,0
18,51,12746,81,67,1,2,15,12,12.mid,experiment,0
19,53,13023,81,61,1,2,15,12,12.mid,experiment,0
20,55,13281,81,63,1,2,15,12,12.mid,experiment,0
21,57,13562,83,68,1,2,15,12,12.mid,experiment,0
22,58,13825,81,79,1,2,15,12,12.mid,experiment,0
23,60,14098,84,85,1,2,15,12,12.mid,experiment,0
24,62,14370,81,85,1,2,15,12,12.mid,experiment,0
25,64,14641,78,82,1,2,15,12,12.mid,experiment,0
26,66,14902,79,77,1,2,15,12,12.mid,experiment,0
27,69,15187,79,67,1,2,15,12,12.mid,experiment,0
28,71,15765,79,61,1,2,15,12,12.mid,experiment,0
29,73,16865,77,57,1,2,15,12,12.mid,experiment,0
30,75,17123,77,61,1,2,15,12,12.mid,experiment,0
31,77,17390,76,54,1,2,15,12,12.mid,experiment,0
32,79,17649,76,54,1,2,15,12,12.mid,experiment,0
33,81,17960,74,42,1,2,15,12,12.mid,experiment,0
34,83,19101,79,55,1,2,15,12,12.mid,experiment,0
35,84,19681,77,54,1,2,15,12,12.mid,experiment,0
36,87,20241,76,53,1,2,15,12,12.mid,experiment,0
37,89,20504,76,56,1,2,15,12,12.mid,experiment,0
38,91,20774,76,68,1,2,15,12,12.mid,experiment,0
39,93,21034,76,70,1,2,15,12,12.mid,experiment,0
40,95,21308,81,78,1,2,15,12,12.mid,experiment,0
41,96,21583,77,63,1,2,15,12,12.mid,experiment,0
42,98,21847,76,70,1,2,15,12,12.mid,experiment,0
43,100,22097,74,78,1,2,15,12,12.mid,experiment,0
44,102,22366,76,80,1,2,15,12,12.mid,experiment,0
45,104,22631,79,80,1,2,15,12,12.mid,experiment,0
46,106,22910,74,77,1,2,15,12,12.mid,experiment,0
47,108,23180,71,76,1,2,15,12,12.mid,experiment,0
48,111,23453,72,75,1,2,15,12,12.mid,experiment,0
49,113,23710,72,67,1,2,15,12,12.mid,experiment,0
50,115,23976,74,62,1,2,15,12,12.mid,experiment,0
51,117,24243,74,63,1,2,15,12,12.mid,experiment,0
52,119,24539,76,53,1,2,15,12,12.mid,experiment,0
53,121,25648,65,58,1,2,15,12,12.mid,experiment,0
54,123,25912,65,59,1,2,15,12,12.mid,experiment,0
55,125,26178,64,51,1,2,15,12,12.mid,experiment,0
56,127,26437,64,52,1,2,15,12,12.mid,experiment,0
57,129,26747,62,43,1,2,15,12,12.mid,experiment,0
58,131,27880,67,45,1,2,15,12,12.mid,experiment,0
59,133,28146,67,57,1,2,15,12,12.mid,experiment,0
60,135,28402,71,63,1,2,15,12,12.mid,experiment,0
61,137,28668,71,59,1,2,15,12,12.mid,experiment,0
62,139,28939,72,70,1,2,15,12,12.mid,experiment,0
63,141,29194,72,75,1,2,15,12,12.mid,experiment,0
64,143,29448,73,74,1,2,15,12,12.mid,experiment,0
65,145,29708,73,75,1,2,15,12,12.mid,experiment,0
66,147,29998,74,76,1,2,15,12,12.mid,experiment,0
67,148,30546,77,81,1,2,15,12,12.mid,experiment,0
68,150,31098,76,81,1,2,15,12,12.mid,experiment,0
69,152,31662,74,87,1,2,15,12,12.mid,experiment,0
70,155,32234,72,89,1,2,15,12,12.mid,experiment,0
71,156,32831,84,101,1,2,15,12,12.mid,experiment,0
72,159,33454,84,98,1,2,15,12,12.mid,experiment,0
1,17,8552,79,71,1,2,15,13,6.mid,experiment,0
2,18,8828,78,78,1,2,15,13,6.mid,experiment,0
3,20,9112,79,85,1,2,15,13,6.mid,experiment,0
4,22,9387,76,81,1,2,15,13,6.mid,experiment,0
5,24,9685,72,76,1,2,15,13,6.mid,experiment,0
6,27,9963,67,57,1,2,15,13,6.mid,experiment,0
7,29,10252,67,46,1,2,15,13,6.mid,experiment,0
8,31,10524,67,55,1,2,15,13,6.mid,experiment,0
9,33,10819,79,76,1,2,15,13,6.mid,experiment,0
10,34,11093,78,79,1,2,15,13,6.mid,experiment,0
11,36,11368,79,79,1,2,15,13,6.mid,experiment,0
12,38,11634,76,75,1,2,15,13,6.mid,experiment,0
13,40,11922,72,78,1,2,15,13,6.mid,experiment,0
14,42,12177,76,81,1,2,15,13,6.mid,experiment,0
15,44,12450,79,88,1,2,15,13,6.mid,experiment,0
16,46,12710,84,81,1,2,15,13,6.mid,experiment,0
17,48,13010,83,80,1,2,15,13,6.mid,experiment,0
18,51,13298,81,63,1,2,15,13,6.mid,experiment,0
19,53,13558,81,63,1,2,15,13,6.mid,experiment,0
20,55,13832,81,66,1,2,15,13,6.mid,experiment,0
21,57,14116,83,81,1,2,15,13,6.mid,experiment,0
22,58,14392,81,87,1,2,15,13,6.mid,experiment,0
23,60,14679,84,88,1,2,15,13,6.mid,experiment,0
24,62,14950,81,86,1,2,15,13,6.mid,experiment,0
25,64,15235,78,76,1,2,15,13,6.mid,experiment,0
26,66,15508,79,77,1,2,15,13,6.mid,experiment,0
27,69,15806,79,75,1,2,15,13,6.mid,experiment,0
28,71,16396,79,67,1,2,15,13,6.mid,experiment,0
29,73,17578,77,56,1,2,15,13,6.mid,experiment,0
30,75,17847,77,53,1,2,15,13,6.mid,experiment,0
31,77,18113,76,50,1,2,15,13,6.mid,experiment,0
32,79,18373,76,50,1,2,15,13,6.mid,experiment,0
33,81,18673,74,45,1,2,15,13,6.mid,experiment,0
34,83,19830,79,52,1,2,15,13,6.mid,experiment,0
35,85,20401,77,56,1,2,15,13,6.mid,experiment,0
36,87,20976,76,50,1,2,15,13,6.mid,experiment,0
37,89,21253,76,49,1,2,15,13,6.mid,experiment,0
38,91,21512,76,58,1,2,15,13,6.mid,experiment,0
39,93,21780,76,64,1,2,15,13,6.mid,experiment,0
40,95,22068,81,77,1,2,15,13,6.mid,experiment,0
41,96,22335,77,74,1,2,15,13,6.mid,experiment,0
42,98,22603,76,73,1,2,15,13,6.mid,experiment,0
43,100,22858,74,81,1,2,15,13,6.mid,experiment,0
44,102,23131,76,80,1,2,15,13,6.mid,experiment,0
45,104,23401,79,75,1,2,15,13,6.mid,experiment,0
46,106,23672,74,72,1,2,15,13,6.mid,experiment,0
47,108,23928,71,68,1,2,15,13,6.mid,experiment,0
48,111,24199,72,66,1,2,15,13,6.mid,experiment,0
49,113,24465,72,63,1,2,15,13,6.mid,experiment,0
50,115,24724,74,63,1,2,15,13,6.mid,experiment,0
51,117,24992,74,63,1,2,15,13,6.mid,experiment,0
52,119,25288,76,53,1,2,15,13,6.mid,experiment,0
53,121,26450,65,57,1,2,15,13,6.mid,experiment,0
54,123,26703,65,60,1,2,15,13,6.mid,experiment,0
55,125,26973,64,58,1,2,15,13,6.mid,experiment,0
56,127,27243,64,52,1,2,15,13,6.mid,experiment,0
57,129,27548,62,49,1,2,15,13,6.mid,experiment,0
58,131,28733,67,51,1,2,15,13,6.mid,experiment,0
59,133,29005,67,56,1,2,15,13,6.mid,experiment,0
60,135,29276,71,62,1,2,15,13,6.mid,experiment,0
61,137,29536,71,57,1,2,15,13,6.mid,experiment,0
62,139,29818,72,64,1,2,15,13,6.mid,experiment,0
63,141,30085,72,65,1,2,15,13,6.mid,experiment,0
64,143,30352,73,59,1,2,15,13,6.mid,experiment,0
65,145,30608,73,63,1,2,15,13,6.mid,experiment,0
66,147,30912,74,79,1,2,15,13,6.mid,experiment,0
67,148,31494,77,87,1,2,15,13,6.mid,experiment,0
68,150,32064,76,83,1,2,15,13,6.mid,experiment,0
69,152,32646,74,88,1,2,15,13,6.mid,experiment,0
70,154,33228,72,84,1,2,15,13,6.mid,experiment,0
71,156,33805,84,95,1,2,15,13,6.mid,experiment,0
72,159,34426,84,100,1,2,15,13,6.mid,experiment,0
1,17,8853,79,74,1,2,15,14,11.mid,experiment,0
2,18,9121,78,81,1,2,15,14,11.mid,experiment,0
3,20,9395,79,81,1,2,15,14,11.mid,experiment,0
4,22,9671,76,72,1,2,15,14,11.mid,experiment,0
5,24,9950,72,71,1,2,15,14,11.mid,experiment,0
6,27,10237,67,63,1,2,15,14,11.mid,experiment,0
7,29,10504,67,57,1,2,15,14,11.mid,experiment,0
8,31,10767,67,68,1,2,15,14,11.mid,experiment,0
9,33,11049,79,76,1,2,15,14,11.mid,experiment,0
10,34,11320,78,75,1,2,15,14,11.mid,experiment,0
11,36,11594,79,81,1,2,15,14,11.mid,experiment,0
12,38,11851,76,76,1,2,15,14,11.mid,experiment,0
13,40,12132,72,78,1,2,15,14,11.mid,experiment,0
14,42,12388,76,83,1,2,15,14,11.mid,experiment,0
15,44,12662,79,82,1,2,15,14,11.mid,experiment,0
16,46,12913,84,79,1,2,15,14,11.mid,experiment,0
17,48,13191,83,78,1,2,15,14,11.mid,experiment,0
18,51,13460,81,67,1,2,15,14,11.mid,experiment,0
19,53,13728,81,67,1,2,15,14,11.mid,experiment,0
20,55,13993,81,75,1,2,15,14,11.mid,experiment,0
21,57,14285,83,88,1,2,15,14,11.mid,experiment,0
22,58,14552,81,88,1,2,15,14,11.mid,experiment,0
23,60,14842,84,88,1,2,15,14,11.mid,experiment,0
24,62,15101,81,82,1,2,15,14,11.mid,experiment,0
25,64,15366,78,82,1,2,15,14,11.mid,experiment,0
26,66,15626,79,79,1,2,15,14,11.mid,experiment,0
27,69,15914,79,76,1,2,15,14,11.mid,experiment,0
28,71,16498,79,63,1,2,15,14,11.mid,experiment,0
29,73,17694,77,58,1,2,15,14,11.mid,experiment,0
30,75,17948,77,63,1,2,15,14,11.mid,experiment,0
31,77,18216,76,58,1,2,15,14,11.mid,experiment,0
32,79,18474,76,60,1,2,15,14,11.mid,experiment,0
33,81,18780,74,48,1,2,15,14,11.mid,experiment,0
34,83,19952,79,63,1,2,15,14,11.mid,experiment,0
35,84,20513,77,57,1,2,15,14,11.mid,experiment,0
36,87,21083,76,58,1,2,15,14,11.mid,experiment,0
37,89,21364,76,44,1,2,15,14,11.mid,experiment,0
38,91,21633,76,57,1,2,15,14,11.mid,experiment,0
39,93,21893,76,68,1,2,15,14,11.mid,experiment,0
40,95,22187,81,77,1,2,15,14,11.mid,experiment,0
41,96,22454,77,76,1,2,15,14,11.mid,experiment,0
42,98,22733,76,68,1,2,15,14,11.mid,experiment,0
43,100,22992,74,78,1,2,15,14,11.mid,experiment,0
44,102,23269,76,68,1,2,15,14,11.mid,experiment,0
45,104,23537,79,73,1,2,15,14,11.mid,experiment,0
46,106,23815,74,74,1,2,15,14,11.mid,experiment,0
47,108,24077,71,70,1,2,15,14,11.mid,experiment,0
48,111,24345,72,68,1,2,15,14,11.mid,experiment,0
49,113,24611,72,68,1,2,15,14,11.mid,experiment,0
50,115,24885,74,63,1,2,15,14,11.mid,experiment,0
51,117,25141,74,66,1,2,15,14,11.mid,experiment,0
52,119,25441,76,57,1,2,15,14,11.mid,experiment,0
53,121,26612,65,56,1,2,15,14,11.mid,experiment,0
54,123,26879,65,61,1,2,15,14,11.mid,experiment,0
55,125,27154,64,55,1,2,15,14,11.mid,experiment,0
56,127,27425,64,51,1,2,15,14,11.mid,experiment,0
57,129,27721,62,52,1,2,15,14,11.mid,experiment,0
58,131,28946,67,49,1,2,15,14,11.mid,experiment,0
59,133,29212,67,58,1,2,15,14,11.mid,experiment,0
60,135,29479,71,65,1,2,15,14,11.mid,experiment,0
61,137,29740,71,63,1,2,15,14,11.mid,experiment,0
62,139,30026,72,70,1,2,15,14,11.mid,experiment,0
63,141,30288,72,74,1,2,15,14,11.mid,experiment,0
64,143,30552,73,72,1,2,15,14,11.mid,experiment,0
65,145,30816,73,74,1,2,15,14,11.mid,experiment,0
66,147,31119,74,78,1,2,15,14,11.mid,experiment,0
67,148,31706,77,84,1,2,15,14,11.mid,experiment,0
68,150,32290,76,78,1,2,15,14,11.mid,experiment,0
69,152,32883,74,85,1,2,15,14,11.mid,experiment,0
70,154,33465,72,88,1,2,15,14,11.mid,experiment,0
71,156,34057,84,91,1,2,15,14,11.mid,experiment,0
72,159,34700,84,97,1,2,15,14,11.mid,experiment,0
1,17,8751,79,73,1,2,15,15,8.mid,experiment,0
2,18,9031,78,80,1,2,15,15,8.mid,experiment,0
3,20,9312,79,81,1,2,15,15,8.mid,experiment,0
4,22,9579,76,77,1,2,15,15,8.mid,experiment,0
5,24,9872,72,71,1,2,15,15,8.mid,experiment,0
6,27,10143,67,66,1,2,15,15,8.mid,experiment,0
7,29,10405,67,66,1,2,15,15,8.mid,experiment,0
8,31,10668,67,74,1,2,15,15,8.mid,experiment,0
9,33,10943,79,80,1,2,15,15,8.mid,experiment,0
10,34,11212,78,81,1,2,15,15,8.mid,experiment,0
11,36,11486,79,86,1,2,15,15,8.mid,experiment,0
12,38,11749,76,81,1,2,15,15,8.mid,experiment,0
13,40,12034,72,83,1,2,15,15,8.mid,experiment,0
14,42,12296,76,84,1,2,15,15,8.mid,experiment,0
15,44,12577,79,78,1,2,15,15,8.mid,experiment,0
16,46,12848,84,84,1,2,15,15,8.mid,experiment,0
17,48,13149,83,79,1,2,15,15,8.mid,experiment,0
18,51,13435,81,72,1,2,15,15,8.mid,experiment,0
19,53,13701,81,70,1,2,15,15,8.mid,experiment,0
20,55,13963,81,72,1,2,15,15,8.mid,experiment,0
21,57,14241,83,87,1,2,15,15,8.mid,experiment,0
22,58,14503,81,88,1,2,15,15,8.mid,experiment,0
23,60,14790,84,88,1,2,15,15,8.mid,experiment,0
24,62,15045,81,86,1,2,15,15,8.mid,experiment,0
25,64,15337,78,83,1,2,15,15,8.mid,experiment,0
26,66,15607,79,78,1,2,15,15,8.mid,experiment,0
27,69,15899,79,79,1,2,15,15,8.mid,experiment,0
28,71,16482,79,81,1,2,15,15,8.mid,experiment,0
29,73,17640,77,78,1,2,15,15,8.mid,experiment,0
30,75,17916,77,72,1,2,15,15,8.mid,experiment,0
31,77,18180,76,68,1,2,15,15,8.mid,experiment,0
32,79,18443,76,73,1,2,15,15,8.mid,experiment,0
33,81,18746,74,64,1,2,15,15,8.mid,experiment,0
34,83,19849,79,70,1,2,15,15,8.mid,experiment,0
35,84,20419,77,63,1,2,15,15,8.mid,experiment,0
36,87,20980,76,65,1,2,15,15,8.mid,experiment,0
37,89,21256,76,58,1,2,15,15,8.mid,experiment,0
38,91,21517,76,67,1,2,15,15,8.mid,experiment,0
39,93,21776,76,67,1,2,15,15,8.mid,experiment,0
40,95,22065,81,83,1,2,15,15,8.mid,experiment,0
41,96,22333,77,78,1,2,15,15,8.mid,experiment,0
42,98,22606,76,75,1,2,15,15,8.mid,experiment,0
43,100,22865,74,78,1,2,15,15,8.mid,experiment,0
44,102,23146,76,73,1,2,15,15,8.mid,experiment,0
45,104,23414,79,74,1,2,15,15,8.mid,experiment,0
46,106,23679,74,76,1,2,15,15,8.mid,experiment,0
47,108,23937,71,69,1,2,15,15,8.mid,experiment,0
48,111,24218,72,71,1,2,15,15,8.mid,experiment,0
49,113,24476,72,76,1,2,15,15,8.mid,experiment,0
50,115,24740,74,79,1,2,15,15,8.mid,experiment,0
51,117,25010,74,76,1,2,15,15,8.mid,experiment,0
52,119,25304,76,61,1,2,15,15,8.mid,experiment,0
53,121,26432,65,68,1,2,15,15,8.mid,experiment,0
54,123,26711,65,70,1,2,15,15,8.mid,experiment,0
55,125,26986,64,64,1,2,15,15,8.mid,experiment,0
56,127,27257,64,60,1,2,15,15,8.mid,experiment,0
57,129,27543,62,58,1,2,15,15,8.mid,experiment,0
58,131,28667,67,65,1,2,15,15,8.mid,experiment,0
59,133,28927,67,68,1,2,15,15,8.mid,experiment,0
60,135,29199,71,69,1,2,15,15,8.mid,experiment,0
61,137,29458,71,68,1,2,15,15,8.mid,experiment,0
62,139,29734,72,76,1,2,15,15,8.mid,experiment,0
63,141,30005,72,76,1,2,15,15,8.mid,experiment,0
64,143,30268,73,75,1,2,15,15,8.mid,experiment,0
65,145,30525,73,75,1,2,15,15,8.mid,experiment,0
66,147,30816,74,79,1,2,15,15,8.mid,experiment,0
67,149,31400,77,78,1,2,15,15,8.mid,experiment,0
68,151,31983,76,76,1,2,15,15,8.mid,experiment,0
69,153,32576,74,78,1,2,15,15,8.mid,experiment,0
70,155,33162,72,79,1,2,15,15,8.mid,experiment,0
71,157,33727,84,94,1,2,15,15,8.mid,experiment,0
72,159,34383,84,86,1,2,15,15,8.mid,experiment,0
1,17,8500,79,71,1,2,15,16,9.mid,experiment,0
2,18,8774,78,81,1,2,15,16,9.mid,experiment,0
3,20,9053,79,83,1,2,15,16,9.mid,experiment,0
4,22,9319,76,79,1,2,15,16,9.mid,experiment,0
5,24,9613,72,72,1,2,15,16,9.mid,experiment,0
6,27,9890,67,62,1,2,15,16,9.mid,experiment,0
7,29,10169,67,57,1,2,15,16,9.mid,experiment,0
8,31,10433,67,65,1,2,15,16,9.mid,experiment,0
9,33,10713,79,79,1,2,15,16,9.mid,experiment,0
10,34,10985,78,84,1,2,15,16,9.mid,experiment,0
11,36,11257,79,85,1,2,15,16,9.mid,experiment,0
12,38,11513,76,79,1,2,15,16,9.mid,experiment,0
13,40,11789,72,78,1,2,15,16,9.mid,experiment,0
14,42,12045,76,83,1,2,15,16,9.mid,experiment,0
15,44,12330,79,83,1,2,15,16,9.mid,experiment,0
16,46,12577,84,82,1,2,15,16,9.mid,experiment,0
17,48,12857,83,75,1,2,15,16,9.mid,experiment,0
18,51,13133,81,61,1,2,15,16,9.mid,experiment,0
19,53,13401,81,57,1,2,15,16,9.mid,experiment,0
20,55,13654,81,68,1,2,15,16,9.mid,experiment,0
21,57,13935,83,81,1,2,15,16,9.mid,experiment,0
22,58,14195,81,87,1,2,15,16,9.mid,experiment,0
23,60,14470,84,84,1,2,15,16,9.mid,experiment,0
24,62,14734,81,86,1,2,15,16,9.mid,experiment,0
25,64,15016,78,76,1,2,15,16,9.mid,experiment,0
26,66,15290,79,77,1,2,15,16,9.mid,experiment,0
27,69,15573,79,77,1,2,15,16,9.mid,experiment,0
28,71,16152,79,70,1,2,15,16,9.mid,experiment,0
29,73,17273,77,62,1,2,15,16,9.mid,experiment,0
30,75,17526,77,59,1,2,15,16,9.mid,experiment,0
31,77,17797,76,56,1,2,15,16,9.mid,experiment,0
32,79,18054,76,58,1,2,15,16,9.mid,experiment,0
33,81,18365,74,46,1,2,15,16,9.mid,experiment,0
34,83,19504,79,68,1,2,15,16,9.mid,experiment,0
35,84,20081,77,63,1,2,15,16,9.mid,experiment,0
36,87,20642,76,54,1,2,15,16,9.mid,experiment,0
37,89,20911,76,60,1,2,15,16,9.mid,experiment,0
38,91,21169,76,69,1,2,15,16,9.mid,experiment,0
39,93,21436,76,72,1,2,15,16,9.mid,experiment,0
40,95,21706,81,80,1,2,15,16,9.mid,experiment,0
41,96,21970,77,79,1,2,15,16,9.mid,experiment,0
42,98,22252,76,78,1,2,15,16,9.mid,experiment,0
43,100,22506,74,83,1,2,15,16,9.mid,experiment,0
44,102,22784,76,74,1,2,15,16,9.mid,experiment,0
45,104,23052,79,78,1,2,15,16,9.mid,experiment,0
46,106,23313,74,75,1,2,15,16,9.mid,experiment,0
47,108,23572,71,73,1,2,15,16,9.mid,experiment,0
48,111,23842,72,72,1,2,15,16,9.mid,experiment,0
49,113,24097,72,68,1,2,15,16,9.mid,experiment,0
50,115,24371,74,65,1,2,15,16,9.mid,experiment,0
51,117,24628,74,63,1,2,15,16,9.mid,experiment,0
52,119,24920,76,56,1,2,15,16,9.mid,experiment,0
53,121,26074,65,60,1,2,15,16,9.mid,experiment,0
54,123,26333,65,60,1,2,15,16,9.mid,experiment,0
55,125,26595,64,55,1,2,15,16,9.mid,experiment,0
56,127,26860,64,53,1,2,15,16,9.mid,experiment,0
57,129,27152,62,49,1,2,15,16,9.mid,experiment,0
58,131,28333,67,51,1,2,15,16,9.mid,experiment,0
59,133,28605,67,55,1,2,15,16,9.mid,experiment,0
60,135,28867,71,63,1,2,15,16,9.mid,experiment,0
61,137,29128,71,68,1,2,15,16,9.mid,experiment,0
62,139,29413,72,70,1,2,15,16,9.mid,experiment,0
63,141,29669,72,74,1,2,15,16,9.mid,experiment,0
64,143,29927,73,74,1,2,15,16,9.mid,experiment,0
65,145,30181,73,78,1,2,15,16,9.mid,experiment,0
66,147,30479,74,72,1,2,15,16,9.mid,experiment,0
67,148,31045,77,79,1,2,15,16,9.mid,experiment,0
68,150,31589,76,86,1,2,15,16,9.mid,experiment,0
69,152,32153,74,88,1,2,15,16,9.mid,experiment,0
70,154,32721,72,85,1,2,15,16,9.mid,experiment,0
71,156,33274,84,93,1,2,15,16,9.mid,experiment,0
72,159,33893,84,98,1,2,15,16,9.mid,experiment,0
1,17,9024,79,79,1,2,16,1,14.mid,experiment,0
2,18,9349,78,78,1,2,16,1,14.mid,experiment,0
3,20,9659,79,81,1,2,16,1,14.mid,experiment,0
4,22,9951,76,78,1,2,16,1,14.mid,experiment,0
5,24,10257,72,70,1,2,16,1,14.mid,experiment,0
6,27,10573,67,58,1,2,16,1,14.mid,experiment,0
7,29,10885,67,53,1,2,16,1,14.mid,experiment,0
8,31,11169,67,58,1,2,16,1,14.mid,experiment,0
9,33,11499,79,82,1,2,16,1,14.mid,experiment,0
10,34,11810,78,84,1,2,16,1,14.mid,experiment,0
11,37,12121,79,82,1,2,16,1,14.mid,experiment,0
12,38,12420,76,81,1,2,16,1,14.mid,experiment,0
13,40,12735,72,81,1,2,16,1,14.mid,experiment,0
14,42,13047,76,86,1,2,16,1,14.mid,experiment,0
15,44,13337,79,94,1,2,16,1,14.mid,experiment,0
16,47,13642,84,81,1,2,16,1,14.mid,experiment,0
17,48,13973,83,59,1,2,16,1,14.mid,experiment,0
18,51,14325,81,37,1,2,16,1,14.mid,experiment,0
19,53,14643,81,46,1,2,16,1,14.mid,experiment,0
20,55,14931,81,63,1,2,16,1,14.mid,experiment,0
21,57,15257,83,89,1,2,16,1,14.mid,experiment,0
22,58,15571,81,91,1,2,16,1,14.mid,experiment,0
23,60,15877,84,85,1,2,16,1,14.mid,experiment,0
24,62,16175,81,83,1,2,16,1,14.mid,experiment,0
25,64,16511,78,87,1,2,16,1,14.mid,experiment,0
26,66,16823,79,88,1,2,16,1,14.mid,experiment,0
27,69,17155,79,93,1,2,16,1,14.mid,experiment,0
28,71,17789,79,90,1,2,16,1,14.mid,experiment,0
29,73,19041,77,57,1,2,16,1,14.mid,experiment,0
30,75,19359,77,61,1,2,16,1,14.mid,experiment,0
31,77,19671,76,49,1,2,16,1,14.mid,experiment,0
32,79,19981,76,52,1,2,16,1,14.mid,experiment,0
33,81,20343,74,53,1,2,16,1,14.mid,experiment,0
34,83,21583,79,55,1,2,16,1,14.mid,experiment,0
35,84,22255,77,57,1,2,16,1,14.mid,experiment,0
36,87,22877,76,58,1,2,16,1,14.mid,experiment,0
37,89,23189,76,57,1,2,16,1,14.mid,experiment,0
38,91,23499,76,57,1,2,16,1,14.mid,experiment,0
39,93,23795,76,62,1,2,16,1,14.mid,experiment,0
40,95,24127,81,90,1,2,16,1,14.mid,experiment,0
41,96,24441,77,85,1,2,16,1,14.mid,experiment,0
42,98,24759,76,81,1,2,16,1,14.mid,experiment,0
43,100,25061,74,81,1,2,16,1,14.mid,experiment,0
44,102,25385,76,81,1,2,16,1,14.mid,experiment,0
45,104,25687,79,91,1,2,16,1,14.mid,experiment,0
46,106,25991,74,91,1,2,16,1,14.mid,experiment,0
47,109,26317,71,75,1,2,16,1,14.mid,experiment,0
48,111,26641,72,63,1,2,16,1,14.mid,experiment,0
49,113,26953,72,56,1,2,16,1,14.mid,experiment,0
50,115,27253,74,55,1,2,16,1,14.mid,experiment,0
51,117,27555,74,53,1,2,16,1,14.mid,experiment,0
52,119,27913,76,46,1,2,16,1,14.mid,experiment,0
53,121,29161,65,57,1,2,16,1,14.mid,experiment,0
54,123,29459,65,56,1,2,16,1,14.mid,experiment,0
55,125,29789,64,50,1,2,16,1,14.mid,experiment,0
56,127,30093,64,53,1,2,16,1,14.mid,experiment,0
57,129,30442,62,51,1,2,16,1,14.mid,experiment,0
58,131,31681,67,41,1,2,16,1,14.mid,experiment,0
59,133,31957,67,58,1,2,16,1,14.mid,experiment,0
60,135,32275,71,56,1,2,16,1,14.mid,experiment,0
61,137,32575,71,70,1,2,16,1,14.mid,experiment,0
62,139,32895,72,70,1,2,16,1,14.mid,experiment,0
63,141,33185,72,72,1,2,16,1,14.mid,experiment,0
64,143,33493,73,75,1,2,16,1,14.mid,experiment,0
65,145,33785,73,76,1,2,16,1,14.mid,experiment,0
66,147,34123,74,91,1,2,16,1,14.mid,experiment,0
67,148,34741,77,77,1,2,16,1,14.mid,experiment,0
68,150,35359,76,86,1,2,16,1,14.mid,experiment,0
69,152,35983,74,82,1,2,16,1,14.mid,experiment,0
70,155,36602,72,94,1,2,16,1,14.mid,experiment,0
71,157,37215,84,96,1,2,16,1,14.mid,experiment,0
72,159,37848,84,87,1,2,16,1,14.mid,experiment,0
1,17,8400,79,76,1,2,16,2,4.mid,experiment,0
2,18,8710,78,81,1,2,16,2,4.mid,experiment,0
3,20,9010,79,82,1,2,16,2,4.mid,experiment,0
4,22,9313,76,71,1,2,16,2,4.mid,experiment,0
5,25,9627,72,62,1,2,16,2,4.mid,experiment,0
6,27,9975,67,42,1,2,16,2,4.mid,experiment,0
7,29,10291,67,46,1,2,16,2,4.mid,experiment,0
8,31,10576,67,55,1,2,16,2,4.mid,experiment,0
9,33,10861,79,81,1,2,16,2,4.mid,experiment,0
10,34,11160,78,85,1,2,16,2,4.mid,experiment,0
11,36,11461,79,81,1,2,16,2,4.mid,experiment,0
12,38,11764,76,74,1,2,16,2,4.mid,experiment,0
13,41,12086,72,79,1,2,16,2,4.mid,experiment,0
14,42,12382,76,82,1,2,16,2,4.mid,experiment,0
15,44,12685,79,90,1,2,16,2,4.mid,experiment,0
16,46,12985,84,88,1,2,16,2,4.mid,experiment,0
17,48,13317,83,64,1,2,16,2,4.mid,experiment,0
18,51,13642,81,59,1,2,16,2,4.mid,experiment,0
19,53,13943,81,58,1,2,16,2,4.mid,experiment,0
20,55,14248,81,62,1,2,16,2,4.mid,experiment,0
21,57,14586,83,89,1,2,16,2,4.mid,experiment,0
22,58,14905,81,86,1,2,16,2,4.mid,experiment,0
23,60,15211,84,86,1,2,16,2,4.mid,experiment,0
24,62,15504,81,86,1,2,16,2,4.mid,experiment,0
25,64,15828,78,89,1,2,16,2,4.mid,experiment,0
26,67,16120,79,81,1,2,16,2,4.mid,experiment,0
27,69,16440,79,83,1,2,16,2,4.mid,experiment,0
28,71,17085,79,82,1,2,16,2,4.mid,experiment,0
29,73,18324,77,56,1,2,16,2,4.mid,experiment,0
30,75,18637,77,58,1,2,16,2,4.mid,experiment,0
31,77,18943,76,48,1,2,16,2,4.mid,experiment,0
32,79,19255,76,51,1,2,16,2,4.mid,experiment,0
33,81,19594,74,53,1,2,16,2,4.mid,experiment,0
34,83,20847,79,63,1,2,16,2,4.mid,experiment,0
35,84,21491,77,52,1,2,16,2,4.mid,experiment,0
36,87,22145,76,50,1,2,16,2,4.mid,experiment,0
37,89,22441,76,53,1,2,16,2,4.mid,experiment,0
38,91,22734,76,52,1,2,16,2,4.mid,experiment,0
39,93,23029,76,65,1,2,16,2,4.mid,experiment,0
40,95,23365,81,91,1,2,16,2,4.mid,experiment,0
41,96,23672,77,81,1,2,16,2,4.mid,experiment,0
42,98,23973,76,80,1,2,16,2,4.mid,experiment,0
43,100,24279,74,83,1,2,16,2,4.mid,experiment,0
44,102,24591,76,86,1,2,16,2,4.mid,experiment,0
45,104,24899,79,82,1,2,16,2,4.mid,experiment,0
46,106,25200,74,90,1,2,16,2,4.mid,experiment,0
47,108,25510,71,81,1,2,16,2,4.mid,experiment,0
48,111,25837,72,63,1,2,16,2,4.mid,experiment,0
49,113,26143,72,60,1,2,16,2,4.mid,experiment,0
50,115,26449,74,56,1,2,16,2,4.mid,experiment,0
51,117,26726,74,56,1,2,16,2,4.mid,experiment,0
52,119,27088,76,52,1,2,16,2,4.mid,experiment,0
53,121,28280,65,57,1,2,16,2,4.mid,experiment,0
54,123,28592,65,56,1,2,16,2,4.mid,experiment,0
55,125,28895,64,51,1,2,16,2,4.mid,experiment,0
56,127,29181,64,61,1,2,16,2,4.mid,experiment,0
57,129,29543,62,47,1,2,16,2,4.mid,experiment,0
58,131,30802,67,49,1,2,16,2,4.mid,experiment,0
59,133,31093,67,56,1,2,16,2,4.mid,experiment,0
60,135,31406,71,51,1,2,16,2,4.mid,experiment,0
61,137,31705,71,62,1,2,16,2,4.mid,experiment,0
62,139,32009,72,62,1,2,16,2,4.mid,experiment,0
63,141,32315,72,60,1,2,16,2,4.mid,experiment,0
64,143,32622,73,62,1,2,16,2,4.mid,experiment,0
65,145,32910,73,71,1,2,16,2,4.mid,experiment,0
66,147,33260,74,80,1,2,16,2,4.mid,experiment,0
67,148,33858,77,87,1,2,16,2,4.mid,experiment,0
68,151,34471,76,81,1,2,16,2,4.mid,experiment,0
69,153,35073,74,88,1,2,16,2,4.mid,experiment,0
70,155,35664,72,81,1,2,16,2,4.mid,experiment,0
71,157,36272,84,86,1,2,16,2,4.mid,experiment,0
72,159,36882,84,85,1,2,16,2,4.mid,experiment,0
1,17,7826,79,67,1,2,16,3,16.mid,experiment,0
2,18,8135,78,75,1,2,16,3,16.mid,experiment,0
3,20,8429,79,77,1,2,16,3,16.mid,experiment,0
4,22,8710,76,68,1,2,16,3,16.mid,experiment,0
5,25,9029,72,65,1,2,16,3,16.mid,experiment,0
6,27,9339,67,53,1,2,16,3,16.mid,experiment,0
7,29,9638,67,46,1,2,16,3,16.mid,experiment,0
8,31,9931,67,39,1,2,16,3,16.mid,experiment,0
9,33,10244,79,80,1,2,16,3,16.mid,experiment,0
10,34,10552,78,83,1,2,16,3,16.mid,experiment,0
11,36,10828,79,80,1,2,16,3,16.mid,experiment,0
12,38,11125,76,76,1,2,16,3,16.mid,experiment,0
13,41,11429,72,81,1,2,16,3,16.mid,experiment,0
14,42,11737,76,80,1,2,16,3,16.mid,experiment,0
15,44,12035,79,81,1,2,16,3,16.mid,experiment,0
16,47,12327,84,72,1,2,16,3,16.mid,experiment,0
17,48,12634,83,58,1,2,16,3,16.mid,experiment,0
18,51,12960,81,45,1,2,16,3,16.mid,experiment,0
19,53,13252,81,47,1,2,16,3,16.mid,experiment,0
20,55,13532,81,56,1,2,16,3,16.mid,experiment,0
21,57,13848,83,89,1,2,16,3,16.mid,experiment,0
22,58,14152,81,81,1,2,16,3,16.mid,experiment,0
23,60,14453,84,80,1,2,16,3,16.mid,experiment,0
24,62,14754,81,80,1,2,16,3,16.mid,experiment,0
25,64,15064,78,87,1,2,16,3,16.mid,experiment,0
26,67,15354,79,85,1,2,16,3,16.mid,experiment,0
27,69,15659,79,87,1,2,16,3,16.mid,experiment,0
28,71,16273,79,78,1,2,16,3,16.mid,experiment,0
29,73,17537,77,52,1,2,16,3,16.mid,experiment,0
30,75,17842,77,58,1,2,16,3,16.mid,experiment,0
31,77,18155,76,39,1,2,16,3,16.mid,experiment,0
32,79,18464,76,37,1,2,16,3,16.mid,experiment,0
33,81,18779,74,48,1,2,16,3,16.mid,experiment,0
34,83,20018,79,62,1,2,16,3,16.mid,experiment,0
35,84,20630,77,64,1,2,16,3,16.mid,experiment,0
36,87,21271,76,47,1,2,16,3,16.mid,experiment,0
37,89,21576,76,45,1,2,16,3,16.mid,experiment,0
38,91,21861,76,58,1,2,16,3,16.mid,experiment,0
39,93,22155,76,68,1,2,16,3,16.mid,experiment,0
40,95,22480,81,83,1,2,16,3,16.mid,experiment,0
41,96,22783,77,87,1,2,16,3,16.mid,experiment,0
42,98,23078,76,81,1,2,16,3,16.mid,experiment,0
43,100,23397,74,81,1,2,16,3,16.mid,experiment,0
44,102,23694,76,83,1,2,16,3,16.mid,experiment,0
45,104,23992,79,82,1,2,16,3,16.mid,experiment,0
46,106,24298,74,87,1,2,16,3,16.mid,experiment,0
47,109,24594,71,75,1,2,16,3,16.mid,experiment,0
48,111,24909,72,63,1,2,16,3,16.mid,experiment,0
49,113,25209,72,60,1,2,16,3,16.mid,experiment,0
50,115,25511,74,58,1,2,16,3,16.mid,experiment,0
51,117,25802,74,55,1,2,16,3,16.mid,experiment,0
52,119,26135,76,51,1,2,16,3,16.mid,experiment,0
53,121,27361,65,53,1,2,16,3,16.mid,experiment,0
54,123,27663,65,60,1,2,16,3,16.mid,experiment,0
55,125,27967,64,54,1,2,16,3,16.mid,experiment,0
56,127,28252,64,58,1,2,16,3,16.mid,experiment,0
57,129,28604,62,45,1,2,16,3,16.mid,experiment,0
58,131,29851,67,49,1,2,16,3,16.mid,experiment,0
59,133,30145,67,56,1,2,16,3,16.mid,experiment,0
60,135,30462,71,51,1,2,16,3,16.mid,experiment,0
61,137,30752,71,58,1,2,16,3,16.mid,experiment,0
62,139,31050,72,58,1,2,16,3,16.mid,experiment,0
63,141,31341,72,65,1,2,16,3,16.mid,experiment,0
64,143,31625,73,59,1,2,16,3,16.mid,experiment,0
65,145,31911,73,73,1,2,16,3,16.mid,experiment,0
66,147,32227,74,80,1,2,16,3,16.mid,experiment,0
67,148,32828,77,88,1,2,16,3,16.mid,experiment,0
68,150,33431,76,83,1,2,16,3,16.mid,experiment,0
69,153,34028,74,86,1,2,16,3,16.mid,experiment,0
70,155,34641,72,85,1,2,16,3,16.mid,experiment,0
71,157,35223,84,82,1,2,16,3,16.mid,experiment,0
72,159,35810,84,83,1,2,16,3,16.mid,experiment,0
1,17,7818,79,78,1,2,16,4,12.mid,experiment,0
2,18,8140,78,76,1,2,16,4,12.mid,experiment,0
3,20,8424,79,77,1,2,16,4,12.mid,experiment,0
4,22,8702,76,74,1,2,16,4,12.mid,experiment,0
5,25,9018,72,68,1,2,16,4,12.mid,experiment,0
6,27,9322,67,51,1,2,16,4,12.mid,experiment,0
7,29,9604,67,54,1,2,16,4,12.mid,experiment,0
8,31,9881,67,51,1,2,16,4,12.mid,experiment,0
9,33,10208,79,70,1,2,16,4,12.mid,experiment,0
10,34,10490,78,79,1,2,16,4,12.mid,experiment,0
11,37,10786,79,78,1,2,16,4,12.mid,experiment,0
12,38,11077,76,77,1,2,16,4,12.mid,experiment,0
13,40,11388,72,74,1,2,16,4,12.mid,experiment,0
14,42,11682,76,74,1,2,16,4,12.mid,experiment,0
15,44,11970,79,83,1,2,16,4,12.mid,experiment,0
16,46,12258,84,84,1,2,16,4,12.mid,experiment,0
17,48,12584,83,66,1,2,16,4,12.mid,experiment,0
18,51,12930,81,41,1,2,16,4,12.mid,experiment,0
19,53,13244,81,47,1,2,16,4,12.mid,experiment,0
20,55,13509,81,66,1,2,16,4,12.mid,experiment,0
21,57,13813,83,81,1,2,16,4,12.mid,experiment,0
22,58,14107,81,90,1,2,16,4,12.mid,experiment,0
23,61,14392,84,95,1,2,16,4,12.mid,experiment,0
24,62,14683,81,93,1,2,16,4,12.mid,experiment,0
25,64,14986,78,91,1,2,16,4,12.mid,experiment,0
26,67,15281,79,87,1,2,16,4,12.mid,experiment,0
27,69,15583,79,93,1,2,16,4,12.mid,experiment,0
28,71,16190,79,83,1,2,16,4,12.mid,experiment,0
29,73,17422,77,58,1,2,16,4,12.mid,experiment,0
30,75,17708,77,60,1,2,16,4,12.mid,experiment,0
31,77,18021,76,38,1,2,16,4,12.mid,experiment,0
32,79,18298,76,47,1,2,16,4,12.mid,experiment,0
33,81,18622,74,46,1,2,16,4,12.mid,experiment,0
34,83,19851,79,66,1,2,16,4,12.mid,experiment,0
35,84,20476,77,54,1,2,16,4,12.mid,experiment,0
36,87,21083,76,55,1,2,16,4,12.mid,experiment,0
37,89,21374,76,54,1,2,16,4,12.mid,experiment,0
38,91,21652,76,56,1,2,16,4,12.mid,experiment,0
39,93,21956,76,50,1,2,16,4,12.mid,experiment,0
40,95,22262,81,86,1,2,16,4,12.mid,experiment,0
41,96,22546,77,89,1,2,16,4,12.mid,experiment,0
42,98,22840,76,81,1,2,16,4,12.mid,experiment,0
43,100,23137,74,76,1,2,16,4,12.mid,experiment,0
44,102,23436,76,81,1,2,16,4,12.mid,experiment,0
45,104,23733,79,85,1,2,16,4,12.mid,experiment,0
46,106,24022,74,91,1,2,16,4,12.mid,experiment,0
47,109,24312,71,80,1,2,16,4,12.mid,experiment,0
48,111,24632,72,67,1,2,16,4,12.mid,experiment,0
49,113,24920,72,58,1,2,16,4,12.mid,experiment,0
50,115,25208,74,53,1,2,16,4,12.mid,experiment,0
51,117,25490,74,54,1,2,16,4,12.mid,experiment,0
52,119,25830,76,48,1,2,16,4,12.mid,experiment,0
53,121,27010,65,53,1,2,16,4,12.mid,experiment,0
54,123,27300,65,54,1,2,16,4,12.mid,experiment,0
55,125,27614,64,43,1,2,16,4,12.mid,experiment,0
56,127,27899,64,50,1,2,16,4,12.mid,experiment,0
57,129,28212,62,45,1,2,16,4,12.mid,experiment,0
58,131,29445,67,52,1,2,16,4,12.mid,experiment,0
59,133,29736,67,59,1,2,16,4,12.mid,experiment,0
60,135,30032,71,56,1,2,16,4,12.mid,experiment,0
61,137,30324,71,60,1,2,16,4,12.mid,experiment,0
62,139,30608,72,60,1,2,16,4,12.mid,experiment,0
63,141,30910,72,63,1,2,16,4,12.mid,experiment,0
64,143,31186,73,70,1,2,16,4,12.mid,experiment,0
65,145,31456,73,79,1,2,16,4,12.mid,experiment,0
66,147,31794,74,87,1,2,16,4,12.mid,experiment,0
67,148,32362,77,93,1,2,16,4,12.mid,experiment,0
68,150,32946,76,83,1,2,16,4,12.mid,experiment,0
69,153,33525,74,87,1,2,16,4,12.mid,experiment,0
70,155,34113,72,87,1,2,16,4,12.mid,experiment,0
71,157,34685,84,91,1,2,16,4,12.mid,experiment,0
72,159,35290,84,81,1,2,16,4,12.mid,experiment,0
1,17,7814,79,76,1,2,16,5,13.mid,experiment,0
2,18,8111,78,81,1,2,16,5,13.mid,experiment,0
3,20,8404,79,85,1,2,16,5,13.mid,experiment,0
4,22,8700,76,73,1,2,16,5,13.mid,experiment,0
5,25,9001,72,63,1,2,16,5,13.mid,experiment,0
6,27,9296,67,55,1,2,16,5,13.mid,experiment,0
7,29,9603,67,48,1,2,16,5,13.mid,experiment,0
8,31,9876,67,50,1,2,16,5,13.mid,experiment,0
9,33,10182,79,83,1,2,16,5,13.mid,experiment,0
10,34,10494,78,81,1,2,16,5,13.mid,experiment,0
11,36,10773,79,79,1,2,16,5,13.mid,experiment,0
12,38,11077,76,75,1,2,16,5,13.mid,experiment,0
13,41,11378,72,79,1,2,16,5,13.mid,experiment,0
14,42,11680,76,78,1,2,16,5,13.mid,experiment,0
15,44,11969,79,89,1,2,16,5,13.mid,experiment,0
16,47,12252,84,74,1,2,16,5,13.mid,experiment,0
17,48,12562,83,61,1,2,16,5,13.mid,experiment,0
18,51,12882,81,50,1,2,16,5,13.mid,experiment,0
19,53,13172,81,49,1,2,16,5,13.mid,experiment,0
20,55,13438,81,54,1,2,16,5,13.mid,experiment,0
21,57,13776,83,79,1,2,16,5,13.mid,experiment,0
22,58,14069,81,87,1,2,16,5,13.mid,experiment,0
23,60,14367,84,88,1,2,16,5,13.mid,experiment,0
24,62,14651,81,85,1,2,16,5,13.mid,experiment,0
25,64,14968,78,91,1,2,16,5,13.mid,experiment,0
26,66,15270,79,81,1,2,16,5,13.mid,experiment,0
27,69,15562,79,88,1,2,16,5,13.mid,experiment,0
28,71,16193,79,87,1,2,16,5,13.mid,experiment,0
29,73,17411,77,57,1,2,16,5,13.mid,experiment,0
30,75,17701,77,57,1,2,16,5,13.mid,experiment,0
31,77,17985,76,49,1,2,16,5,13.mid,experiment,0
32,79,18283,76,46,1,2,16,5,13.mid,experiment,0
33,81,18617,74,44,1,2,16,5,13.mid,experiment,0
34,83,19791,79,60,1,2,16,5,13.mid,experiment,0
35,84,20409,77,57,1,2,16,5,13.mid,experiment,0
36,86,21026,76,50,1,2,16,5,13.mid,experiment,0
37,89,21316,76,54,1,2,16,5,13.mid,experiment,0
38,91,21606,76,56,1,2,16,5,13.mid,experiment,0
39,93,21901,76,55,1,2,16,5,13.mid,experiment,0
40,95,22220,81,87,1,2,16,5,13.mid,experiment,0
41,96,22520,77,85,1,2,16,5,13.mid,experiment,0
42,98,22822,76,82,1,2,16,5,13.mid,experiment,0
43,100,23111,74,89,1,2,16,5,13.mid,experiment,0
44,102,23411,76,86,1,2,16,5,13.mid,experiment,0
45,104,23715,79,88,1,2,16,5,13.mid,experiment,0
46,106,24011,74,78,1,2,16,5,13.mid,experiment,0
47,109,24318,71,67,1,2,16,5,13.mid,experiment,0
48,111,24633,72,63,1,2,16,5,13.mid,experiment,0
49,113,24914,72,63,1,2,16,5,13.mid,experiment,0
50,115,25210,74,54,1,2,16,5,13.mid,experiment,0
51,117,25494,74,54,1,2,16,5,13.mid,experiment,0
52,119,25827,76,35,1,2,16,5,13.mid,experiment,0
53,121,27037,65,56,1,2,16,5,13.mid,experiment,0
54,123,27318,65,60,1,2,16,5,13.mid,experiment,0
55,125,27624,64,54,1,2,16,5,13.mid,experiment,0
56,127,27906,64,44,1,2,16,5,13.mid,experiment,0
57,129,28228,62,47,1,2,16,5,13.mid,experiment,0
58,131,29480,67,44,1,2,16,5,13.mid,experiment,0
59,133,29770,67,54,1,2,16,5,13.mid,experiment,0
60,135,30054,71,54,1,2,16,5,13.mid,experiment,0
61,137,30339,71,58,1,2,16,5,13.mid,experiment,0
62,139,30624,72,62,1,2,16,5,13.mid,experiment,0
63,141,30921,72,57,1,2,16,5,13.mid,experiment,0
64,143,31204,73,65,1,2,16,5,13.mid,experiment,0
65,145,31479,73,72,1,2,16,5,13.mid,experiment,0
66,147,31798,74,80,1,2,16,5,13.mid,experiment,0
67,148,32408,77,86,1,2,16,5,13.mid,experiment,0
68,150,33001,76,81,1,2,16,5,13.mid,experiment,0
69,152,33592,74,84,1,2,16,5,13.mid,experiment,0
70,155,34188,72,83,1,2,16,5,13.mid,experiment,0
71,157,34758,84,89,1,2,16,5,13.mid,experiment,0
72,159,35372,84,81,1,2,16,5,13.mid,experiment,0
1,17,7813,79,75,1,2,16,6,11.mid,experiment,0
2,18,8118,78,79,1,2,16,6,11.mid,experiment,0
3,20,8413,79,82,1,2,16,6,11.mid,experiment,0
4,22,8704,76,75,1,2,16,6,11.mid,experiment,0
5,25,9012,72,67,1,2,16,6,11.mid,experiment,0
6,27,9306,67,52,1,2,16,6,11.mid,experiment,0
7,29,9627,67,43,1,2,16,6,11.mid,experiment,0
8,31,9910,67,45,1,2,16,6,11.mid,experiment,0
9,33,10222,79,81,1,2,16,6,11.mid,experiment,0
10,34,10537,78,79,1,2,16,6,11.mid,experiment,0
11,36,10828,79,80,1,2,16,6,11.mid,experiment,0
12,38,11120,76,76,1,2,16,6,11.mid,experiment,0
13,41,11428,72,83,1,2,16,6,11.mid,experiment,0
14,42,11718,76,85,1,2,16,6,11.mid,experiment,0
15,44,11998,79,89,1,2,16,6,11.mid,experiment,0
16,47,12296,84,77,1,2,16,6,11.mid,experiment,0
17,48,12614,83,61,1,2,16,6,11.mid,experiment,0
18,51,12936,81,47,1,2,16,6,11.mid,experiment,0
19,53,13236,81,50,1,2,16,6,11.mid,experiment,0
20,55,13515,81,59,1,2,16,6,11.mid,experiment,0
21,57,13838,83,88,1,2,16,6,11.mid,experiment,0
22,58,14151,81,85,1,2,16,6,11.mid,experiment,0
23,61,14425,84,81,1,2,16,6,11.mid,experiment,0
24,62,14714,81,81,1,2,16,6,11.mid,experiment,0
25,64,15031,78,79,1,2,16,6,11.mid,experiment,0
26,66,15322,79,75,1,2,16,6,11.mid,experiment,0
27,69,15614,79,78,1,2,16,6,11.mid,experiment,0
28,71,16242,79,77,1,2,16,6,11.mid,experiment,0
29,73,17425,77,57,1,2,16,6,11.mid,experiment,0
30,75,17722,77,61,1,2,16,6,11.mid,experiment,0
31,77,18011,76,53,1,2,16,6,11.mid,experiment,0
32,79,18302,76,51,1,2,16,6,11.mid,experiment,0
33,81,18630,74,48,1,2,16,6,11.mid,experiment,0
34,83,19848,79,63,1,2,16,6,11.mid,experiment,0
35,84,20467,77,56,1,2,16,6,11.mid,experiment,0
36,87,21075,76,47,1,2,16,6,11.mid,experiment,0
37,89,21370,76,44,1,2,16,6,11.mid,experiment,0
38,91,21650,76,51,1,2,16,6,11.mid,experiment,0
39,93,21936,76,58,1,2,16,6,11.mid,experiment,0
40,95,22268,81,84,1,2,16,6,11.mid,experiment,0
41,96,22563,77,85,1,2,16,6,11.mid,experiment,0
42,98,22853,76,85,1,2,16,6,11.mid,experiment,0
43,100,23152,74,81,1,2,16,6,11.mid,experiment,0
44,102,23465,76,82,1,2,16,6,11.mid,experiment,0
45,104,23757,79,85,1,2,16,6,11.mid,experiment,0
46,106,24063,74,90,1,2,16,6,11.mid,experiment,0
47,108,24366,71,76,1,2,16,6,11.mid,experiment,0
48,111,24691,72,62,1,2,16,6,11.mid,experiment,0
49,113,24976,72,62,1,2,16,6,11.mid,experiment,0
50,115,25265,74,56,1,2,16,6,11.mid,experiment,0
51,117,25556,74,54,1,2,16,6,11.mid,experiment,0
52,119,25920,76,28,1,2,16,6,11.mid,experiment,0
53,121,27096,65,51,1,2,16,6,11.mid,experiment,0
54,123,27390,65,63,1,2,16,6,11.mid,experiment,0
55,125,27691,64,54,1,2,16,6,11.mid,experiment,0
56,127,27983,64,56,1,2,16,6,11.mid,experiment,0
57,129,28314,62,49,1,2,16,6,11.mid,experiment,0
58,131,29528,67,53,1,2,16,6,11.mid,experiment,0
59,133,29814,67,57,1,2,16,6,11.mid,experiment,0
60,135,30123,71,58,1,2,16,6,11.mid,experiment,0
61,137,30398,71,70,1,2,16,6,11.mid,experiment,0
62,139,30700,72,70,1,2,16,6,11.mid,experiment,0
63,141,30986,72,68,1,2,16,6,11.mid,experiment,0
64,143,31268,73,72,1,2,16,6,11.mid,experiment,0
65,145,31564,73,78,1,2,16,6,11.mid,experiment,0
66,147,31880,74,83,1,2,16,6,11.mid,experiment,0
67,148,32478,77,90,1,2,16,6,11.mid,experiment,0
68,150,33058,76,89,1,2,16,6,11.mid,experiment,0
69,153,33655,74,85,1,2,16,6,11.mid,experiment,0
70,155,34252,72,86,1,2,16,6,11.mid,experiment,0
71,157,34845,84,93,1,2,16,6,11.mid,experiment,0
72,159,35426,84,91,1,2,16,6,11.mid,experiment,0
1,17,7808,79,72,1,2,16,7,2.mid,experiment,0
2,18,8101,78,80,1,2,16,7,2.mid,experiment,0
3,20,8391,79,82,1,2,16,7,2.mid,experiment,0
4,22,8684,76,74,1,2,16,7,2.mid,experiment,0
5,24,8984,72,70,1,2,16,7,2.mid,experiment,0
6,27,9298,67,51,1,2,16,7,2.mid,experiment,0
7,29,9584,67,45,1,2,16,7,2.mid,experiment,0
8,31,9849,67,65,1,2,16,7,2.mid,experiment,0
9,33,10158,79,76,1,2,16,7,2.mid,experiment,0
10,34,10457,78,81,1,2,16,7,2.mid,experiment,0
11,36,10750,79,82,1,2,16,7,2.mid,experiment,0
12,38,11038,76,77,1,2,16,7,2.mid,experiment,0
13,41,11338,72,84,1,2,16,7,2.mid,experiment,0
14,42,11640,76,81,1,2,16,7,2.mid,experiment,0
15,44,11928,79,89,1,2,16,7,2.mid,experiment,0
16,47,12213,84,81,1,2,16,7,2.mid,experiment,0
17,48,12524,83,68,1,2,16,7,2.mid,experiment,0
18,51,12816,81,57,1,2,16,7,2.mid,experiment,0
19,53,13108,81,54,1,2,16,7,2.mid,experiment,0
20,55,13390,81,48,1,2,16,7,2.mid,experiment,0
21,57,13709,83,82,1,2,16,7,2.mid,experiment,0
22,58,14004,81,83,1,2,16,7,2.mid,experiment,0
23,60,14281,84,86,1,2,16,7,2.mid,experiment,0
24,63,14580,81,84,1,2,16,7,2.mid,experiment,0
25,64,14871,78,81,1,2,16,7,2.mid,experiment,0
26,66,15171,79,74,1,2,16,7,2.mid,experiment,0
27,69,15454,79,78,1,2,16,7,2.mid,experiment,0
28,71,16066,79,79,1,2,16,7,2.mid,experiment,0
29,73,17243,77,53,1,2,16,7,2.mid,experiment,0
30,75,17531,77,58,1,2,16,7,2.mid,experiment,0
31,77,17833,76,39,1,2,16,7,2.mid,experiment,0
32,79,18102,76,47,1,2,16,7,2.mid,experiment,0
33,81,18419,74,48,1,2,16,7,2.mid,experiment,0
34,83,19632,79,66,1,2,16,7,2.mid,experiment,0
35,84,20206,77,64,1,2,16,7,2.mid,experiment,0
36,87,20832,76,44,1,2,16,7,2.mid,experiment,0
37,89,21104,76,49,1,2,16,7,2.mid,experiment,0
38,91,21385,76,52,1,2,16,7,2.mid,experiment,0
39,93,21667,76,67,1,2,16,7,2.mid,experiment,0
40,95,21975,81,81,1,2,16,7,2.mid,experiment,0
41,96,22259,77,85,1,2,16,7,2.mid,experiment,0
42,98,22550,76,81,1,2,16,7,2.mid,experiment,0
43,100,22836,74,79,1,2,16,7,2.mid,experiment,0
44,102,23141,76,80,1,2,16,7,2.mid,experiment,0
45,105,23441,79,86,1,2,16,7,2.mid,experiment,0
46,106,23729,74,85,1,2,16,7,2.mid,experiment,0
47,109,24021,71,73,1,2,16,7,2.mid,experiment,0
48,111,24341,72,62,1,2,16,7,2.mid,experiment,0
49,113,24625,72,63,1,2,16,7,2.mid,experiment,0
50,115,24923,74,54,1,2,16,7,2.mid,experiment,0
51,117,25201,74,59,1,2,16,7,2.mid,experiment,0
52,119,25522,76,52,1,2,16,7,2.mid,experiment,0
53,121,26705,65,66,1,2,16,7,2.mid,experiment,0
54,123,26995,65,63,1,2,16,7,2.mid,experiment,0
55,125,27292,64,62,1,2,16,7,2.mid,experiment,0
56,127,27575,64,58,1,2,16,7,2.mid,experiment,0
57,129,27904,62,55,1,2,16,7,2.mid,experiment,0
58,131,29048,67,62,1,2,16,7,2.mid,experiment,0
59,133,29362,67,41,1,2,16,7,2.mid,experiment,0
60,135,29646,71,61,1,2,16,7,2.mid,experiment,0
61,137,29934,71,53,1,2,16,7,2.mid,experiment,0
62,139,30228,72,57,1,2,16,7,2.mid,experiment,0
63,141,30508,72,61,1,2,16,7,2.mid,experiment,0
64,143,30795,73,66,1,2,16,7,2.mid,experiment,0
65,145,31073,73,65,1,2,16,7,2.mid,experiment,0
66,147,31406,74,83,1,2,16,7,2.mid,experiment,0
67,148,31982,77,86,1,2,16,7,2.mid,experiment,0
68,150,32553,76,82,1,2,16,7,2.mid,experiment,0
69,152,33160,74,81,1,2,16,7,2.mid,experiment,0
70,155,33736,72,81,1,2,16,7,2.mid,experiment,0
71,157,34314,84,81,1,2,16,7,2.mid,experiment,0
72,159,34905,84,90,1,2,16,7,2.mid,experiment,0
1,17,7801,79,81,1,2,16,8,15.mid,experiment,0
2,18,8100,78,81,1,2,16,8,15.mid,experiment,0
3,20,8392,79,80,1,2,16,8,15.mid,experiment,0
4,22,8678,76,72,1,2,16,8,15.mid,experiment,0
5,25,9014,72,58,1,2,16,8,15.mid,experiment,0
6,27,9312,67,54,1,2,16,8,15.mid,experiment,0
7,29,9591,67,53,1,2,16,8,15.mid,experiment,0
8,31,9878,67,57,1,2,16,8,15.mid,experiment,0
9,33,10180,79,78,1,2,16,8,15.mid,experiment,0
10,34,10475,78,81,1,2,16,8,15.mid,experiment,0
11,36,10754,79,83,1,2,16,8,15.mid,experiment,0
12,38,11032,76,76,1,2,16,8,15.mid,experiment,0
13,41,11351,72,79,1,2,16,8,15.mid,experiment,0
14,42,11642,76,81,1,2,16,8,15.mid,experiment,0
15,44,11925,79,86,1,2,16,8,15.mid,experiment,0
16,47,12215,84,76,1,2,16,8,15.mid,experiment,0
17,48,12510,83,63,1,2,16,8,15.mid,experiment,0
18,51,12818,81,51,1,2,16,8,15.mid,experiment,0
19,53,13108,81,55,1,2,16,8,15.mid,experiment,0
20,55,13380,81,63,1,2,16,8,15.mid,experiment,0
21,57,13701,83,81,1,2,16,8,15.mid,experiment,0
22,58,13998,81,80,1,2,16,8,15.mid,experiment,0
23,60,14280,84,86,1,2,16,8,15.mid,experiment,0
24,62,14560,81,84,1,2,16,8,15.mid,experiment,0
25,64,14852,78,86,1,2,16,8,15.mid,experiment,0
26,66,15135,79,81,1,2,16,8,15.mid,experiment,0
27,69,15440,79,78,1,2,16,8,15.mid,experiment,0
28,71,16054,79,54,1,2,16,8,15.mid,experiment,0
29,73,17225,77,52,1,2,16,8,15.mid,experiment,0
30,75,17512,77,63,1,2,16,8,15.mid,experiment,0
31,77,17793,76,53,1,2,16,8,15.mid,experiment,0
32,79,18077,76,51,1,2,16,8,15.mid,experiment,0
33,81,18402,74,49,1,2,16,8,15.mid,experiment,0
34,83,19610,79,56,1,2,16,8,15.mid,experiment,0
35,84,20180,77,59,1,2,16,8,15.mid,experiment,0
36,87,20787,76,51,1,2,16,8,15.mid,experiment,0
37,89,21072,76,51,1,2,16,8,15.mid,experiment,0
38,91,21362,76,51,1,2,16,8,15.mid,experiment,0
39,93,21628,76,60,1,2,16,8,15.mid,experiment,0
40,95,21934,81,91,1,2,16,8,15.mid,experiment,0
41,96,22240,77,87,1,2,16,8,15.mid,experiment,0
42,98,22524,76,86,1,2,16,8,15.mid,experiment,0
43,100,22808,74,76,1,2,16,8,15.mid,experiment,0
44,102,23110,76,79,1,2,16,8,15.mid,experiment,0
45,104,23399,79,81,1,2,16,8,15.mid,experiment,0
46,106,23682,74,85,1,2,16,8,15.mid,experiment,0
47,109,23982,71,67,1,2,16,8,15.mid,experiment,0
48,111,24293,72,65,1,2,16,8,15.mid,experiment,0
49,113,24578,72,63,1,2,16,8,15.mid,experiment,0
50,115,24871,74,54,1,2,16,8,15.mid,experiment,0
51,117,25140,74,54,1,2,16,8,15.mid,experiment,0
52,119,25472,76,49,1,2,16,8,15.mid,experiment,0
53,121,26660,65,53,1,2,16,8,15.mid,experiment,0
54,123,26930,65,60,1,2,16,8,15.mid,experiment,0
55,125,27230,64,55,1,2,16,8,15.mid,experiment,0
56,127,27492,64,59,1,2,16,8,15.mid,experiment,0
57,129,27829,62,56,1,2,16,8,15.mid,experiment,0
58,131,28980,67,59,1,2,16,8,15.mid,experiment,0
59,133,29264,67,53,1,2,16,8,15.mid,experiment,0
60,135,29554,71,66,1,2,16,8,15.mid,experiment,0
61,137,29832,71,63,1,2,16,8,15.mid,experiment,0
62,139,30116,72,68,1,2,16,8,15.mid,experiment,0
63,141,30418,72,65,1,2,16,8,15.mid,experiment,0
64,143,30704,73,68,1,2,16,8,15.mid,experiment,0
65,145,30966,73,68,1,2,16,8,15.mid,experiment,0
66,147,31268,74,85,1,2,16,8,15.mid,experiment,0
67,148,31860,77,81,1,2,16,8,15.mid,experiment,0
68,150,32436,76,81,1,2,16,8,15.mid,experiment,0
69,153,33025,74,90,1,2,16,8,15.mid,experiment,0
70,155,33618,72,91,1,2,16,8,15.mid,experiment,0
71,157,34208,84,88,1,2,16,8,15.mid,experiment,0
72,159,34825,84,68,1,2,16,8,15.mid,experiment,0
1,17,7803,79,80,1,2,16,9,5.mid,experiment,0
2,18,8105,78,86,1,2,16,9,5.mid,experiment,0
3,20,8405,79,83,1,2,16,9,5.mid,experiment,0
4,22,8687,76,80,1,2,16,9,5.mid,experiment,0
5,25,9013,72,65,1,2,16,9,5.mid,experiment,0
6,27,9321,67,53,1,2,16,9,5.mid,experiment,0
7,29,9615,67,48,1,2,16,9,5.mid,experiment,0
8,31,9904,67,55,1,2,16,9,5.mid,experiment,0
9,33,10218,79,85,1,2,16,9,5.mid,experiment,0
10,34,10522,78,81,1,2,16,9,5.mid,experiment,0
11,36,10818,79,82,1,2,16,9,5.mid,experiment,0
12,38,11118,76,79,1,2,16,9,5.mid,experiment,0
13,41,11428,72,81,1,2,16,9,5.mid,experiment,0
14,42,11732,76,86,1,2,16,9,5.mid,experiment,0
15,44,12026,79,93,1,2,16,9,5.mid,experiment,0
16,47,12306,84,82,1,2,16,9,5.mid,experiment,0
17,48,12608,83,68,1,2,16,9,5.mid,experiment,0
18,51,12929,81,49,1,2,16,9,5.mid,experiment,0
19,53,13226,81,54,1,2,16,9,5.mid,experiment,0
20,55,13496,81,62,1,2,16,9,5.mid,experiment,0
21,57,13830,83,81,1,2,16,9,5.mid,experiment,0
22,58,14129,81,86,1,2,16,9,5.mid,experiment,0
23,60,14406,84,91,1,2,16,9,5.mid,experiment,0
24,62,14698,81,89,1,2,16,9,5.mid,experiment,0
25,64,15001,78,87,1,2,16,9,5.mid,experiment,0
26,66,15292,79,72,1,2,16,9,5.mid,experiment,0
27,69,15594,79,75,1,2,16,9,5.mid,experiment,0
28,71,16180,79,75,1,2,16,9,5.mid,experiment,0
29,73,17372,77,56,1,2,16,9,5.mid,experiment,0
30,75,17651,77,61,1,2,16,9,5.mid,experiment,0
31,77,17950,76,50,1,2,16,9,5.mid,experiment,0
32,79,18232,76,47,1,2,16,9,5.mid,experiment,0
33,81,18557,74,52,1,2,16,9,5.mid,experiment,0
34,83,19799,79,63,1,2,16,9,5.mid,experiment,0
35,84,20386,77,63,1,2,16,9,5.mid,experiment,0
36,87,20986,76,52,1,2,16,9,5.mid,experiment,0
37,89,21277,76,52,1,2,16,9,5.mid,experiment,0
38,91,21569,76,63,1,2,16,9,5.mid,experiment,0
39,93,21847,76,64,1,2,16,9,5.mid,experiment,0
40,95,22155,81,91,1,2,16,9,5.mid,experiment,0
41,96,22444,77,90,1,2,16,9,5.mid,experiment,0
42,98,22736,76,84,1,2,16,9,5.mid,experiment,0
43,100,23014,74,81,1,2,16,9,5.mid,experiment,0
44,102,23315,76,87,1,2,16,9,5.mid,experiment,0
45,104,23609,79,89,1,2,16,9,5.mid,experiment,0
46,106,23901,74,91,1,2,16,9,5.mid,experiment,0
47,109,24190,71,80,1,2,16,9,5.mid,experiment,0
48,110,24496,72,68,1,2,16,9,5.mid,experiment,0
49,113,24785,72,62,1,2,16,9,5.mid,experiment,0
50,115,25085,74,50,1,2,16,9,5.mid,experiment,0
51,117,25352,74,55,1,2,16,9,5.mid,experiment,0
52,119,25695,76,50,1,2,16,9,5.mid,experiment,0
53,121,26901,65,55,1,2,16,9,5.mid,experiment,0
54,123,27193,65,57,1,2,16,9,5.mid,experiment,0
55,125,27488,64,53,1,2,16,9,5.mid,experiment,0
56,127,27790,64,42,1,2,16,9,5.mid,experiment,0
57,129,28108,62,47,1,2,16,9,5.mid,experiment,0
58,131,29324,67,51,1,2,16,9,5.mid,experiment,0
59,133,29612,67,54,1,2,16,9,5.mid,experiment,0
60,135,29902,71,56,1,2,16,9,5.mid,experiment,0
61,137,30202,71,56,1,2,16,9,5.mid,experiment,0
62,139,30483,72,62,1,2,16,9,5.mid,experiment,0
63,141,30779,72,55,1,2,16,9,5.mid,experiment,0
64,143,31057,73,62,1,2,16,9,5.mid,experiment,0
65,145,31334,73,70,1,2,16,9,5.mid,experiment,0
66,147,31675,74,89,1,2,16,9,5.mid,experiment,0
67,148,32260,77,87,1,2,16,9,5.mid,experiment,0
68,150,32813,76,86,1,2,16,9,5.mid,experiment,0
69,153,33387,74,94,1,2,16,9,5.mid,experiment,0
70,155,33973,72,91,1,2,16,9,5.mid,experiment,0
71,157,34558,84,87,1,2,16,9,5.mid,experiment,0
72,159,35154,84,90,1,2,16,9,5.mid,experiment,0
1,17,7825,79,74,1,2,16,10,7.mid,experiment,0
2,18,8124,78,83,1,2,16,10,7.mid,experiment,0
3,20,8407,79,85,1,2,16,10,7.mid,experiment,0
4,22,8697,76,79,1,2,16,10,7.mid,experiment,0
5,25,9017,72,63,1,2,16,10,7.mid,experiment,0
6,27,9308,67,56,1,2,16,10,7.mid,experiment,0
7,29,9599,67,53,1,2,16,10,7.mid,experiment,0
8,31,9889,67,53,1,2,16,10,7.mid,experiment,0
9,33,10189,79,81,1,2,16,10,7.mid,experiment,0
10,34,10488,78,85,1,2,16,10,7.mid,experiment,0
11,36,10769,79,84,1,2,16,10,7.mid,experiment,0
12,38,11068,76,80,1,2,16,10,7.mid,experiment,0
13,41,11367,72,77,1,2,16,10,7.mid,experiment,0
14,42,11674,76,81,1,2,16,10,7.mid,experiment,0
15,44,11952,79,90,1,2,16,10,7.mid,experiment,0
16,47,12228,84,81,1,2,16,10,7.mid,experiment,0
17,49,12537,83,61,1,2,16,10,7.mid,experiment,0
18,51,12854,81,46,1,2,16,10,7.mid,experiment,0
19,53,13140,81,58,1,2,16,10,7.mid,experiment,0
20,55,13429,81,56,1,2,16,10,7.mid,experiment,0
21,57,13746,83,88,1,2,16,10,7.mid,experiment,0
22,58,14032,81,81,1,2,16,10,7.mid,experiment,0
23,60,14332,84,91,1,2,16,10,7.mid,experiment,0
24,62,14620,81,85,1,2,16,10,7.mid,experiment,0
25,64,14933,78,87,1,2,16,10,7.mid,experiment,0
26,67,15221,79,88,1,2,16,10,7.mid,experiment,0
27,69,15518,79,91,1,2,16,10,7.mid,experiment,0
28,71,16131,79,87,1,2,16,10,7.mid,experiment,0
29,73,17320,77,56,1,2,16,10,7.mid,experiment,0
30,75,17610,77,62,1,2,16,10,7.mid,experiment,0
31,77,17914,76,46,1,2,16,10,7.mid,experiment,0
32,79,18184,76,52,1,2,16,10,7.mid,experiment,0
33,81,18518,74,52,1,2,16,10,7.mid,experiment,0
34,83,19678,79,63,1,2,16,10,7.mid,experiment,0
35,84,20306,77,62,1,2,16,10,7.mid,experiment,0
36,86,20903,76,46,1,2,16,10,7.mid,experiment,0
37,89,21196,76,50,1,2,16,10,7.mid,experiment,0
38,91,21481,76,56,1,2,16,10,7.mid,experiment,0
39,93,21749,76,66,1,2,16,10,7.mid,experiment,0
40,95,22058,81,88,1,2,16,10,7.mid,experiment,0
41,96,22348,77,84,1,2,16,10,7.mid,experiment,0
42,98,22639,76,80,1,2,16,10,7.mid,experiment,0
43,100,22931,74,76,1,2,16,10,7.mid,experiment,0
44,102,23241,76,81,1,2,16,10,7.mid,experiment,0
45,104,23545,79,82,1,2,16,10,7.mid,experiment,0
46,106,23829,74,80,1,2,16,10,7.mid,experiment,0
47,109,24127,71,73,1,2,16,10,7.mid,experiment,0
48,110,24440,72,66,1,2,16,10,7.mid,experiment,0
49,113,24732,72,62,1,2,16,10,7.mid,experiment,0
50,115,25011,74,62,1,2,16,10,7.mid,experiment,0
51,117,25286,74,68,1,2,16,10,7.mid,experiment,0
52,119,25635,76,54,1,2,16,10,7.mid,experiment,0
53,121,26790,65,55,1,2,16,10,7.mid,experiment,0
54,123,27076,65,63,1,2,16,10,7.mid,experiment,0
55,125,27363,64,66,1,2,16,10,7.mid,experiment,0
56,127,27659,64,50,1,2,16,10,7.mid,experiment,0
57,129,27988,62,44,1,2,16,10,7.mid,experiment,0
58,131,29181,67,58,1,2,16,10,7.mid,experiment,0
59,133,29460,67,60,1,2,16,10,7.mid,experiment,0
60,135,29760,71,62,1,2,16,10,7.mid,experiment,0
61,137,30050,71,60,1,2,16,10,7.mid,experiment,0
62,139,30338,72,63,1,2,16,10,7.mid,experiment,0
63,141,30626,72,60,1,2,16,10,7.mid,experiment,0
64,143,30912,73,59,1,2,16,10,7.mid,experiment,0
65,145,31189,73,59,1,2,16,10,7.mid,experiment,0
66,147,31512,74,84,1,2,16,10,7.mid,experiment,0
67,148,32103,77,88,1,2,16,10,7.mid,experiment,0
68,150,32682,76,81,1,2,16,10,7.mid,experiment,0
69,152,33236,74,86,1,2,16,10,7.mid,experiment,0
70,155,33833,72,88,1,2,16,10,7.mid,experiment,0
71,157,34402,84,93,1,2,16,10,7.mid,experiment,0
72,159,34996,84,95,1,2,16,10,7.mid,experiment,0
1,17,7808,79,77,1,2,16,11,8.mid,experiment,0
2,18,8121,78,80,1,2,16,11,8.mid,experiment,0
3,20,8419,79,82,1,2,16,11,8.mid,experiment,0
4,22,8719,76,76,1,2,16,11,8.mid,experiment,0
5,25,9025,72,61,1,2,16,11,8.mid,experiment,0
6,27,9312,67,56,1,2,16,11,8.mid,experiment,0
7,29,9598,67,56,1,2,16,11,8.mid,experiment,0
8,31,9884,67,55,1,2,16,11,8.mid,experiment,0
9,33,10196,79,66,1,2,16,11,8.mid,experiment,0
10,34,10492,78,81,1,2,16,11,8.mid,experiment,0
11,36,10768,79,88,1,2,16,11,8.mid,experiment,0
12,38,11062,76,82,1,2,16,11,8.mid,experiment,0
13,41,11346,72,91,1,2,16,11,8.mid,experiment,0
14,42,11640,76,87,1,2,16,11,8.mid,experiment,0
15,44,11922,79,91,1,2,16,11,8.mid,experiment,0
16,47,12198,84,78,1,2,16,11,8.mid,experiment,0
17,48,12496,83,65,1,2,16,11,8.mid,experiment,0
18,51,12794,81,51,1,2,16,11,8.mid,experiment,0
19,53,13091,81,53,1,2,16,11,8.mid,experiment,0
20,55,13349,81,73,1,2,16,11,8.mid,experiment,0
21,57,13667,83,93,1,2,16,11,8.mid,experiment,0
22,58,13954,81,93,1,2,16,11,8.mid,experiment,0
23,61,14238,84,93,1,2,16,11,8.mid,experiment,0
24,63,14514,81,87,1,2,16,11,8.mid,experiment,0
25,64,14809,78,90,1,2,16,11,8.mid,experiment,0
26,67,15096,79,85,1,2,16,11,8.mid,experiment,0
27,69,15389,79,88,1,2,16,11,8.mid,experiment,0
28,71,15973,79,81,1,2,16,11,8.mid,experiment,0
29,73,17157,77,60,1,2,16,11,8.mid,experiment,0
30,75,17444,77,58,1,2,16,11,8.mid,experiment,0
31,77,17745,76,48,1,2,16,11,8.mid,experiment,0
32,79,18028,76,39,1,2,16,11,8.mid,experiment,0
33,81,18359,74,49,1,2,16,11,8.mid,experiment,0
34,83,19565,79,67,1,2,16,11,8.mid,experiment,0
35,84,20158,77,54,1,2,16,11,8.mid,experiment,0
36,87,20765,76,47,1,2,16,11,8.mid,experiment,0
37,89,21075,76,44,1,2,16,11,8.mid,experiment,0
38,91,21351,76,52,1,2,16,11,8.mid,experiment,0
39,93,21629,76,55,1,2,16,11,8.mid,experiment,0
40,95,21937,81,91,1,2,16,11,8.mid,experiment,0
41,96,22234,77,85,1,2,16,11,8.mid,experiment,0
42,98,22508,76,88,1,2,16,11,8.mid,experiment,0
43,100,22800,74,81,1,2,16,11,8.mid,experiment,0
44,102,23097,76,86,1,2,16,11,8.mid,experiment,0
45,104,23376,79,91,1,2,16,11,8.mid,experiment,0
46,106,23673,74,88,1,2,16,11,8.mid,experiment,0
47,109,23967,71,74,1,2,16,11,8.mid,experiment,0
48,111,24275,72,58,1,2,16,11,8.mid,experiment,0
49,113,24562,72,59,1,2,16,11,8.mid,experiment,0
50,115,24850,74,58,1,2,16,11,8.mid,experiment,0
51,117,25131,74,62,1,2,16,11,8.mid,experiment,0
52,119,25465,76,51,1,2,16,11,8.mid,experiment,0
53,121,26651,65,52,1,2,16,11,8.mid,experiment,0
54,123,26934,65,55,1,2,16,11,8.mid,experiment,0
55,125,27230,64,50,1,2,16,11,8.mid,experiment,0
56,127,27510,64,54,1,2,16,11,8.mid,experiment,0
57,129,27837,62,49,1,2,16,11,8.mid,experiment,0
58,131,29046,67,56,1,2,16,11,8.mid,experiment,0
59,133,29333,67,62,1,2,16,11,8.mid,experiment,0
60,135,29644,71,57,1,2,16,11,8.mid,experiment,0
61,137,29916,71,58,1,2,16,11,8.mid,experiment,0
62,139,30210,72,61,1,2,16,11,8.mid,experiment,0
63,141,30492,72,61,1,2,16,11,8.mid,experiment,0
64,143,30769,73,65,1,2,16,11,8.mid,experiment,0
65,145,31042,73,66,1,2,16,11,8.mid,experiment,0
66,147,31377,74,88,1,2,16,11,8.mid,experiment,0
67,148,31947,77,88,1,2,16,11,8.mid,experiment,0
68,150,32516,76,85,1,2,16,11,8.mid,experiment,0
69,153,33084,74,91,1,2,16,11,8.mid,experiment,0
70,155,33680,72,91,1,2,16,11,8.mid,experiment,0
71,157,34258,84,94,1,2,16,11,8.mid,experiment,0
72,159,34836,84,96,1,2,16,11,8.mid,experiment,0
1,17,7789,79,86,1,2,16,12,6.mid,experiment,0
2,18,8087,78,89,1,2,16,12,6.mid,experiment,0
3,20,8378,79,91,1,2,16,12,6.mid,experiment,0
4,22,8666,76,81,1,2,16,12,6.mid,experiment,0
5,25,8967,72,74,1,2,16,12,6.mid,experiment,0
6,27,9267,67,56,1,2,16,12,6.mid,experiment,0
7,29,9565,67,50,1,2,16,12,6.mid,experiment,0
8,31,9832,67,63,1,2,16,12,6.mid,experiment,0
9,33,10147,79,83,1,2,16,12,6.mid,experiment,0
10,34,10443,78,90,1,2,16,12,6.mid,experiment,0
11,36,10725,79,83,1,2,16,12,6.mid,experiment,0
12,38,11021,76,79,1,2,16,12,6.mid,experiment,0
13,41,11307,72,88,1,2,16,12,6.mid,experiment,0
14,42,11605,76,85,1,2,16,12,6.mid,experiment,0
15,44,11882,79,90,1,2,16,12,6.mid,experiment,0
16,47,12171,84,83,1,2,16,12,6.mid,experiment,0
17,48,12474,83,69,1,2,16,12,6.mid,experiment,0
18,51,12795,81,50,1,2,16,12,6.mid,experiment,0
19,53,13091,81,55,1,2,16,12,6.mid,experiment,0
20,55,13380,81,53,1,2,16,12,6.mid,experiment,0
21,57,13685,83,84,1,2,16,12,6.mid,experiment,0
22,58,13981,81,89,1,2,16,12,6.mid,experiment,0
23,60,14268,84,91,1,2,16,12,6.mid,experiment,0
24,62,14557,81,91,1,2,16,12,6.mid,experiment,0
25,64,14858,78,88,1,2,16,12,6.mid,experiment,0
26,66,15135,79,85,1,2,16,12,6.mid,experiment,0
27,69,15430,79,91,1,2,16,12,6.mid,experiment,0
28,71,16020,79,86,1,2,16,12,6.mid,experiment,0
29,73,17169,77,62,1,2,16,12,6.mid,experiment,0
30,75,17452,77,65,1,2,16,12,6.mid,experiment,0
31,77,17750,76,47,1,2,16,12,6.mid,experiment,0
32,79,18020,76,52,1,2,16,12,6.mid,experiment,0
33,81,18352,74,47,1,2,16,12,6.mid,experiment,0
34,83,19563,79,65,1,2,16,12,6.mid,experiment,0
35,85,20143,77,68,1,2,16,12,6.mid,experiment,0
36,86,20738,76,52,1,2,16,12,6.mid,experiment,0
37,89,21022,76,55,1,2,16,12,6.mid,experiment,0
38,91,21307,76,53,1,2,16,12,6.mid,experiment,0
39,93,21602,76,54,1,2,16,12,6.mid,experiment,0
40,95,21904,81,91,1,2,16,12,6.mid,experiment,0
41,96,22197,77,93,1,2,16,12,6.mid,experiment,0
42,98,22479,76,91,1,2,16,12,6.mid,experiment,0
43,100,22768,74,85,1,2,16,12,6.mid,experiment,0
44,102,23076,76,89,1,2,16,12,6.mid,experiment,0
45,104,23368,79,90,1,2,16,12,6.mid,experiment,0
46,106,23661,74,91,1,2,16,12,6.mid,experiment,0
47,109,23951,71,76,1,2,16,12,6.mid,experiment,0
48,111,24257,72,66,1,2,16,12,6.mid,experiment,0
49,113,24546,72,61,1,2,16,12,6.mid,experiment,0
50,115,24837,74,48,1,2,16,12,6.mid,experiment,0
51,117,25113,74,58,1,2,16,12,6.mid,experiment,0
52,119,25445,76,50,1,2,16,12,6.mid,experiment,0
53,121,26575,65,65,1,2,16,12,6.mid,experiment,0
54,123,26865,65,67,1,2,16,12,6.mid,experiment,0
55,125,27144,64,59,1,2,16,12,6.mid,experiment,0
56,127,27436,64,55,1,2,16,12,6.mid,experiment,0
57,129,27773,62,50,1,2,16,12,6.mid,experiment,0
58,131,28977,67,42,1,2,16,12,6.mid,experiment,0
59,133,29251,67,60,1,2,16,12,6.mid,experiment,0
60,135,29526,71,60,1,2,16,12,6.mid,experiment,0
61,137,29822,71,45,1,2,16,12,6.mid,experiment,0
62,139,30087,72,62,1,2,16,12,6.mid,experiment,0
63,141,30369,72,62,1,2,16,12,6.mid,experiment,0
64,143,30653,73,67,1,2,16,12,6.mid,experiment,0
65,145,30923,73,73,1,2,16,12,6.mid,experiment,0
66,147,31238,74,91,1,2,16,12,6.mid,experiment,0
67,148,31821,77,90,1,2,16,12,6.mid,experiment,0
68,150,32383,76,79,1,2,16,12,6.mid,experiment,0
69,153,32947,74,88,1,2,16,12,6.mid,experiment,0
70,155,33523,72,79,1,2,16,12,6.mid,experiment,0
71,157,34085,84,81,1,2,16,12,6.mid,experiment,0
72,159,34621,84,81,1,2,16,12,6.mid,experiment,0
1,17,7785,79,78,1,2,16,14,1.mid,experiment,0
2,18,8089,78,81,1,2,16,14,1.mid,experiment,0
3,20,8377,79,87,1,2,16,14,1.mid,experiment,0
4,22,8668,76,78,1,2,16,14,1.mid,experiment,0
5,25,8990,72,62,1,2,16,14,1.mid,experiment,0
6,27,9287,67,52,1,2,16,14,1.mid,experiment,0
7,29,9564,67,61,1,2,16,14,1.mid,experiment,0
8,31,9834,67,68,1,2,16,14,1.mid,experiment,0
9,33,10143,79,91,1,2,16,14,1.mid,experiment,0
10,34,10439,78,88,1,2,16,14,1.mid,experiment,0
11,36,10719,79,86,1,2,16,14,1.mid,experiment,0
12,38,11005,76,81,1,2,16,14,1.mid,experiment,0
13,41,11310,72,77,1,2,16,14,1.mid,experiment,0
14,42,11614,76,72,1,2,16,14,1.mid,experiment,0
15,44,11897,79,82,1,2,16,14,1.mid,experiment,0
16,47,12176,84,83,1,2,16,14,1.mid,experiment,0
17,48,12485,83,70,1,2,16,14,1.mid,experiment,0
18,51,12785,81,45,1,2,16,14,1.mid,experiment,0
19,53,13059,81,55,1,2,16,14,1.mid,experiment,0
20,55,13329,81,62,1,2,16,14,1.mid,experiment,0
21,57,13653,83,89,1,2,16,14,1.mid,experiment,0
22,58,13943,81,88,1,2,16,14,1.mid,experiment,0
23,61,14232,84,89,1,2,16,14,1.mid,experiment,0
24,62,14517,81,87,1,2,16,14,1.mid,experiment,0
25,64,14814,78,90,1,2,16,14,1.mid,experiment,0
26,67,15102,79,86,1,2,16,14,1.mid,experiment,0
27,69,15397,79,88,1,2,16,14,1.mid,experiment,0
28,71,16000,79,82,1,2,16,14,1.mid,experiment,0
29,73,17187,77,57,1,2,16,14,1.mid,experiment,0
30,75,17466,77,63,1,2,16,14,1.mid,experiment,0
31,77,17755,76,53,1,2,16,14,1.mid,experiment,0
32,79,18033,76,52,1,2,16,14,1.mid,experiment,0
33,81,18336,74,55,1,2,16,14,1.mid,experiment,0
34,83,19537,79,68,1,2,16,14,1.mid,experiment,0
35,85,20121,77,68,1,2,16,14,1.mid,experiment,0
36,87,20708,76,54,1,2,16,14,1.mid,experiment,0
37,89,21001,76,51,1,2,16,14,1.mid,experiment,0
38,91,21289,76,56,1,2,16,14,1.mid,experiment,0
39,93,21571,76,55,1,2,16,14,1.mid,experiment,0
40,95,21883,81,93,1,2,16,14,1.mid,experiment,0
41,96,22176,77,91,1,2,16,14,1.mid,experiment,0
42,98,22458,76,85,1,2,16,14,1.mid,experiment,0
43,100,22763,74,75,1,2,16,14,1.mid,experiment,0
44,102,23047,76,85,1,2,16,14,1.mid,experiment,0
45,104,23336,79,89,1,2,16,14,1.mid,experiment,0
46,106,23620,74,93,1,2,16,14,1.mid,experiment,0
47,108,23903,71,74,1,2,16,14,1.mid,experiment,0
48,111,24202,72,70,1,2,16,14,1.mid,experiment,0
49,113,24478,72,63,1,2,16,14,1.mid,experiment,0
50,115,24763,74,61,1,2,16,14,1.mid,experiment,0
51,117,25043,74,57,1,2,16,14,1.mid,experiment,0
52,119,25383,76,53,1,2,16,14,1.mid,experiment,0
53,121,26539,65,62,1,2,16,14,1.mid,experiment,0
54,123,26831,65,66,1,2,16,14,1.mid,experiment,0
55,125,27113,64,62,1,2,16,14,1.mid,experiment,0
56,127,27395,64,59,1,2,16,14,1.mid,experiment,0
57,129,27736,62,52,1,2,16,14,1.mid,experiment,0
58,131,28943,67,58,1,2,16,14,1.mid,experiment,0
59,133,29231,67,60,1,2,16,14,1.mid,experiment,0
60,135,29503,71,67,1,2,16,14,1.mid,experiment,0
61,137,29791,71,62,1,2,16,14,1.mid,experiment,0
62,139,30071,72,70,1,2,16,14,1.mid,experiment,0
63,141,30340,72,70,1,2,16,14,1.mid,experiment,0
64,143,30633,73,76,1,2,16,14,1.mid,experiment,0
65,145,30904,73,91,1,2,16,14,1.mid,experiment,0
66,147,31221,74,95,1,2,16,14,1.mid,experiment,0
67,148,31787,77,89,1,2,16,14,1.mid,experiment,0
68,150,32381,76,85,1,2,16,14,1.mid,experiment,0
69,152,32949,74,89,1,2,16,14,1.mid,experiment,0
70,155,33523,72,89,1,2,16,14,1.mid,experiment,0
71,157,34124,84,88,1,2,16,14,1.mid,experiment,0
72,159,34717,84,91,1,2,16,14,1.mid,experiment,0
1,17,7820,79,79,1,2,16,15,9.mid,experiment,0
2,18,8118,78,82,1,2,16,15,9.mid,experiment,0
3,20,8412,79,84,1,2,16,15,9.mid,experiment,0
4,22,8708,76,81,1,2,16,15,9.mid,experiment,0
5,24,9018,72,70,1,2,16,15,9.mid,experiment,0
6,27,9300,67,55,1,2,16,15,9.mid,experiment,0
7,29,9596,67,50,1,2,16,15,9.mid,experiment,0
8,31,9868,67,63,1,2,16,15,9.mid,experiment,0
9,33,10173,79,89,1,2,16,15,9.mid,experiment,0
10,34,10456,78,86,1,2,16,15,9.mid,experiment,0
11,36,10737,79,86,1,2,16,15,9.mid,experiment,0
12,38,11023,76,78,1,2,16,15,9.mid,experiment,0
13,41,11337,72,78,1,2,16,15,9.mid,experiment,0
14,42,11619,76,86,1,2,16,15,9.mid,experiment,0
15,44,11906,79,91,1,2,16,15,9.mid,experiment,0
16,47,12185,84,83,1,2,16,15,9.mid,experiment,0
17,48,12492,83,66,1,2,16,15,9.mid,experiment,0
18,51,12783,81,62,1,2,16,15,9.mid,experiment,0
19,53,13074,81,57,1,2,16,15,9.mid,experiment,0
20,55,13346,81,53,1,2,16,15,9.mid,experiment,0
21,57,13674,83,89,1,2,16,15,9.mid,experiment,0
22,59,13962,81,86,1,2,16,15,9.mid,experiment,0
23,61,14243,84,86,1,2,16,15,9.mid,experiment,0
24,63,14538,81,84,1,2,16,15,9.mid,experiment,0
25,64,14836,78,81,1,2,16,15,9.mid,experiment,0
26,66,15116,79,80,1,2,16,15,9.mid,experiment,0
27,69,15418,79,86,1,2,16,15,9.mid,experiment,0
28,71,16000,79,86,1,2,16,15,9.mid,experiment,0
29,73,17148,77,57,1,2,16,15,9.mid,experiment,0
30,75,17438,77,62,1,2,16,15,9.mid,experiment,0
31,77,17728,76,55,1,2,16,15,9.mid,experiment,0
32,79,18003,76,55,1,2,16,15,9.mid,experiment,0
33,81,18330,74,52,1,2,16,15,9.mid,experiment,0
34,83,19544,79,58,1,2,16,15,9.mid,experiment,0
35,84,20150,77,58,1,2,16,15,9.mid,experiment,0
36,87,20697,76,54,1,2,16,15,9.mid,experiment,0
37,89,20996,76,52,1,2,16,15,9.mid,experiment,0
38,91,21272,76,57,1,2,16,15,9.mid,experiment,0
39,93,21542,76,65,1,2,16,15,9.mid,experiment,0
40,95,21840,81,86,1,2,16,15,9.mid,experiment,0
41,96,22134,77,91,1,2,16,15,9.mid,experiment,0
42,98,22414,76,87,1,2,16,15,9.mid,experiment,0
43,100,22698,74,82,1,2,16,15,9.mid,experiment,0
44,102,23002,76,84,1,2,16,15,9.mid,experiment,0
45,104,23293,79,88,1,2,16,15,9.mid,experiment,0
46,106,23578,74,90,1,2,16,15,9.mid,experiment,0
47,108,23866,71,78,1,2,16,15,9.mid,experiment,0
48,110,24159,72,70,1,2,16,15,9.mid,experiment,0
49,113,24440,72,63,1,2,16,15,9.mid,experiment,0
50,115,24730,74,57,1,2,16,15,9.mid,experiment,0
51,117,24996,74,57,1,2,16,15,9.mid,experiment,0
52,119,25336,76,51,1,2,16,15,9.mid,experiment,0
53,121,26460,65,63,1,2,16,15,9.mid,experiment,0
54,123,26744,65,67,1,2,16,15,9.mid,experiment,0
55,125,27016,64,61,1,2,16,15,9.mid,experiment,0
56,127,27286,64,59,1,2,16,15,9.mid,experiment,0
57,129,27616,62,55,1,2,16,15,9.mid,experiment,0
58,131,28810,67,57,1,2,16,15,9.mid,experiment,0
59,133,29098,67,63,1,2,16,15,9.mid,experiment,0
60,135,29374,71,69,1,2,16,15,9.mid,experiment,0
61,137,29650,71,67,1,2,16,15,9.mid,experiment,0
62,139,29936,72,67,1,2,16,15,9.mid,experiment,0
63,141,30214,72,62,1,2,16,15,9.mid,experiment,0
64,143,30483,73,60,1,2,16,15,9.mid,experiment,0
65,145,30768,73,68,1,2,16,15,9.mid,experiment,0
66,147,31078,74,85,1,2,16,15,9.mid,experiment,0
67,148,31648,77,93,1,2,16,15,9.mid,experiment,0
68,150,32232,76,87,1,2,16,15,9.mid,experiment,0
69,153,32806,74,91,1,2,16,15,9.mid,experiment,0
70,155,33374,72,81,1,2,16,15,9.mid,experiment,0
71,157,33940,84,93,1,2,16,15,9.mid,experiment,0
72,159,34526,84,93,1,2,16,15,9.mid,experiment,0
1,17,7794,79,81,1,2,16,16,10.mid,experiment,0
2,18,8094,78,90,1,2,16,16,10.mid,experiment,0
3,20,8387,79,88,1,2,16,16,10.mid,experiment,0
4,22,8672,76,83,1,2,16,16,10.mid,experiment,0
5,25,8982,72,68,1,2,16,16,10.mid,experiment,0
6,27,9270,67,56,1,2,16,16,10.mid,experiment,0
7,29,9567,67,46,1,2,16,16,10.mid,experiment,0
8,31,9835,67,62,1,2,16,16,10.mid,experiment,0
9,33,10146,79,86,1,2,16,16,10.mid,experiment,0
10,34,10442,78,83,1,2,16,16,10.mid,experiment,0
11,36,10735,79,82,1,2,16,16,10.mid,experiment,0
12,38,11021,76,77,1,2,16,16,10.mid,experiment,0
13,41,11324,72,81,1,2,16,16,10.mid,experiment,0
14,42,11632,76,83,1,2,16,16,10.mid,experiment,0
15,44,11922,79,91,1,2,16,16,10.mid,experiment,0
16,46,12212,84,87,1,2,16,16,10.mid,experiment,0
17,48,12520,83,67,1,2,16,16,10.mid,experiment,0
18,51,12827,81,47,1,2,16,16,10.mid,experiment,0
19,53,13107,81,51,1,2,16,16,10.mid,experiment,0
20,55,13395,81,58,1,2,16,16,10.mid,experiment,0
21,57,13711,83,90,1,2,16,16,10.mid,experiment,0
22,58,13985,81,91,1,2,16,16,10.mid,experiment,0
23,60,14272,84,93,1,2,16,16,10.mid,experiment,0
24,62,14556,81,86,1,2,16,16,10.mid,experiment,0
25,64,14857,78,89,1,2,16,16,10.mid,experiment,0
26,67,15136,79,89,1,2,16,16,10.mid,experiment,0
27,69,15444,79,84,1,2,16,16,10.mid,experiment,0
28,71,16050,79,83,1,2,16,16,10.mid,experiment,0
29,73,17191,77,58,1,2,16,16,10.mid,experiment,0
30,75,17475,77,63,1,2,16,16,10.mid,experiment,0
31,77,17753,76,57,1,2,16,16,10.mid,experiment,0
32,79,18030,76,56,1,2,16,16,10.mid,experiment,0
33,81,18365,74,55,1,2,16,16,10.mid,experiment,0
34,83,19571,79,68,1,2,16,16,10.mid,experiment,0
35,85,20140,77,65,1,2,16,16,10.mid,experiment,0
36,87,20740,76,49,1,2,16,16,10.mid,experiment,0
37,89,21021,76,53,1,2,16,16,10.mid,experiment,0
38,91,21301,76,60,1,2,16,16,10.mid,experiment,0
39,93,21590,76,67,1,2,16,16,10.mid,experiment,0
40,95,21891,81,87,1,2,16,16,10.mid,experiment,0
41,96,22183,77,91,1,2,16,16,10.mid,experiment,0
42,98,22464,76,84,1,2,16,16,10.mid,experiment,0
43,100,22750,74,80,1,2,16,16,10.mid,experiment,0
44,102,23050,76,82,1,2,16,16,10.mid,experiment,0
45,104,23353,79,84,1,2,16,16,10.mid,experiment,0
46,106,23633,74,87,1,2,16,16,10.mid,experiment,0
47,108,23930,71,72,1,2,16,16,10.mid,experiment,0
48,110,24227,72,63,1,2,16,16,10.mid,experiment,0
49,113,24506,72,63,1,2,16,16,10.mid,experiment,0
50,115,24783,74,60,1,2,16,16,10.mid,experiment,0
51,117,25061,74,58,1,2,16,16,10.mid,experiment,0
52,119,25398,76,52,1,2,16,16,10.mid,experiment,0
53,121,26538,65,63,1,2,16,16,10.mid,experiment,0
54,123,26814,65,67,1,2,16,16,10.mid,experiment,0
55,125,27101,64,64,1,2,16,16,10.mid,experiment,0
56,127,27381,64,53,1,2,16,16,10.mid,experiment,0
57,129,27729,62,46,1,2,16,16,10.mid,experiment,0
58,131,28925,67,43,1,2,16,16,10.mid,experiment,0
59,133,29204,67,53,1,2,16,16,10.mid,experiment,0
60,135,29494,71,53,1,2,16,16,10.mid,experiment,0
61,137,29775,71,53,1,2,16,16,10.mid,experiment,0
62,139,30069,72,39,1,2,16,16,10.mid,experiment,0
63,141,30332,72,60,1,2,16,16,10.mid,experiment,0
64,143,30605,73,62,1,2,16,16,10.mid,experiment,0
65,145,30879,73,63,1,2,16,16,10.mid,experiment,0
66,147,31206,74,81,1,2,16,16,10.mid,experiment,0
67,148,31779,77,90,1,2,16,16,10.mid,experiment,0
68,150,32349,76,81,1,2,16,16,10.mid,experiment,0
69,152,32910,74,91,1,2,16,16,10.mid,experiment,0
70,155,33505,72,82,1,2,16,16,10.mid,experiment,0
71,157,34063,84,96,1,2,16,16,10.mid,experiment,0
72,159,34639,84,96,1,2,16,16,10.mid,experiment,0
1,17,7910,79,68,1,2,17,3,14.mid,experiment,0
2,18,8255,78,76,1,2,17,3,14.mid,experiment,0
3,20,8523,79,80,1,2,17,3,14.mid,experiment,0
4,22,8807,76,88,1,2,17,3,14.mid,experiment,0
5,24,9111,72,90,1,2,17,3,14.mid,experiment,0
6,27,9404,67,68,1,2,17,3,14.mid,experiment,0
7,29,9698,67,68,1,2,17,3,14.mid,experiment,0
8,31,9997,67,68,1,2,17,3,14.mid,experiment,0
9,33,10295,79,67,1,2,17,3,14.mid,experiment,0
10,34,10589,78,84,1,2,17,3,14.mid,experiment,0
11,36,10865,79,85,1,2,17,3,14.mid,experiment,0
12,38,11165,76,91,1,2,17,3,14.mid,experiment,0
13,40,11435,72,93,1,2,17,3,14.mid,experiment,0
14,42,11743,76,94,1,2,17,3,14.mid,experiment,0
15,44,12035,79,99,1,2,17,3,14.mid,experiment,0
16,46,12317,84,103,1,2,17,3,14.mid,experiment,0
17,48,12622,83,96,1,2,17,3,14.mid,experiment,0
18,51,12929,81,69,1,2,17,3,14.mid,experiment,0
19,53,13204,81,72,1,2,17,3,14.mid,experiment,0
20,55,13477,81,68,1,2,17,3,14.mid,experiment,0
21,57,13799,83,101,1,2,17,3,14.mid,experiment,0
22,58,14105,81,98,1,2,17,3,14.mid,experiment,0
23,60,14408,84,94,1,2,17,3,14.mid,experiment,0
24,62,14684,81,78,1,2,17,3,14.mid,experiment,0
25,63,14994,78,87,1,2,17,3,14.mid,experiment,0
26,66,15265,79,93,1,2,17,3,14.mid,experiment,0
27,69,15595,79,93,1,2,17,3,14.mid,experiment,0
28,71,16195,79,88,1,2,17,3,14.mid,experiment,0
29,73,17432,77,70,1,2,17,3,14.mid,experiment,0
30,75,17716,77,65,1,2,17,3,14.mid,experiment,0
31,77,17997,76,62,1,2,17,3,14.mid,experiment,0
32,79,18270,76,57,1,2,17,3,14.mid,experiment,0
33,81,18597,74,58,1,2,17,3,14.mid,experiment,0
34,83,19756,79,65,1,2,17,3,14.mid,experiment,0
35,85,20387,77,57,1,2,17,3,14.mid,experiment,0
36,87,20997,76,71,1,2,17,3,14.mid,experiment,0
37,89,21291,76,63,1,2,17,3,14.mid,experiment,0
38,91,21580,76,53,1,2,17,3,14.mid,experiment,0
39,93,21871,76,52,1,2,17,3,14.mid,experiment,0
40,95,22183,81,87,1,2,17,3,14.mid,experiment,0
41,96,22476,77,81,1,2,17,3,14.mid,experiment,0
42,98,22777,76,93,1,2,17,3,14.mid,experiment,0
43,100,23052,74,94,1,2,17,3,14.mid,experiment,0
44,102,23350,76,91,1,2,17,3,14.mid,experiment,0
45,104,23634,79,87,1,2,17,3,14.mid,experiment,0
46,106,23920,74,91,1,2,17,3,14.mid,experiment,0
47,108,24218,71,76,1,2,17,3,14.mid,experiment,0
48,111,24526,72,63,1,2,17,3,14.mid,experiment,0
49,113,24796,72,64,1,2,17,3,14.mid,experiment,0
50,115,25083,74,67,1,2,17,3,14.mid,experiment,0
51,117,25376,74,58,1,2,17,3,14.mid,experiment,0
52,119,25691,76,45,1,2,17,3,14.mid,experiment,0
53,121,26905,65,60,1,2,17,3,14.mid,experiment,0
54,123,27188,65,62,1,2,17,3,14.mid,experiment,0
55,125,27484,64,50,1,2,17,3,14.mid,experiment,0
56,127,27752,64,51,1,2,17,3,14.mid,experiment,0
57,129,28102,62,46,1,2,17,3,14.mid,experiment,0
58,131,29339,67,55,1,2,17,3,14.mid,experiment,0
59,133,29631,67,65,1,2,17,3,14.mid,experiment,0
60,135,29912,71,60,1,2,17,3,14.mid,experiment,0
61,137,30192,71,66,1,2,17,3,14.mid,experiment,0
62,139,30462,72,68,1,2,17,3,14.mid,experiment,0
63,141,30731,72,73,1,2,17,3,14.mid,experiment,0
64,143,31032,73,58,1,2,17,3,14.mid,experiment,0
65,145,31321,73,68,1,2,17,3,14.mid,experiment,0
66,147,31626,74,101,1,2,17,3,14.mid,experiment,0
67,149,32231,77,105,1,2,17,3,14.mid,experiment,0
68,150,32831,76,96,1,2,17,3,14.mid,experiment,0
69,152,33422,74,96,1,2,17,3,14.mid,experiment,0
70,155,34005,72,101,1,2,17,3,14.mid,experiment,0
71,157,34605,84,109,1,2,17,3,14.mid,experiment,0
72,159,35253,84,101,1,2,17,3,14.mid,experiment,0
1,17,7892,79,74,1,2,17,4,5.mid,experiment,0
2,18,8218,78,79,1,2,17,4,5.mid,experiment,0
3,20,8494,79,76,1,2,17,4,5.mid,experiment,0
4,22,8792,76,87,1,2,17,4,5.mid,experiment,0
5,24,9096,72,88,1,2,17,4,5.mid,experiment,0
6,27,9403,67,62,1,2,17,4,5.mid,experiment,0
7,29,9690,67,75,1,2,17,4,5.mid,experiment,0
8,31,9980,67,63,1,2,17,4,5.mid,experiment,0
9,33,10296,79,78,1,2,17,4,5.mid,experiment,0
10,34,10592,78,81,1,2,17,4,5.mid,experiment,0
11,36,10891,79,81,1,2,17,4,5.mid,experiment,0
12,38,11175,76,76,1,2,17,4,5.mid,experiment,0
13,40,11468,72,81,1,2,17,4,5.mid,experiment,0
14,42,11764,76,90,1,2,17,4,5.mid,experiment,0
15,44,12044,79,99,1,2,17,4,5.mid,experiment,0
16,46,12336,84,101,1,2,17,4,5.mid,experiment,0
17,48,12653,83,90,1,2,17,4,5.mid,experiment,0
18,51,12944,81,68,1,2,17,4,5.mid,experiment,0
19,53,13250,81,58,1,2,17,4,5.mid,experiment,0
20,55,13555,81,65,1,2,17,4,5.mid,experiment,0
21,57,13844,83,85,1,2,17,4,5.mid,experiment,0
22,58,14134,81,90,1,2,17,4,5.mid,experiment,0
23,60,14434,84,91,1,2,17,4,5.mid,experiment,0
24,62,14714,81,90,1,2,17,4,5.mid,experiment,0
25,64,15008,78,88,1,2,17,4,5.mid,experiment,0
26,66,15270,79,79,1,2,17,4,5.mid,experiment,0
27,69,15592,79,70,1,2,17,4,5.mid,experiment,0
28,71,16206,79,77,1,2,17,4,5.mid,experiment,0
29,73,17578,77,53,1,2,17,4,5.mid,experiment,0
30,75,17844,77,58,1,2,17,4,5.mid,experiment,0
31,77,18136,76,47,1,2,17,4,5.mid,experiment,0
32,79,18405,76,56,1,2,17,4,5.mid,experiment,0
33,81,18732,74,48,1,2,17,4,5.mid,experiment,0
34,83,19928,79,61,1,2,17,4,5.mid,experiment,0
35,85,20578,77,60,1,2,17,4,5.mid,experiment,0
36,87,21164,76,54,1,2,17,4,5.mid,experiment,0
37,89,21441,76,59,1,2,17,4,5.mid,experiment,0
38,91,21733,76,52,1,2,17,4,5.mid,experiment,0
39,93,22002,76,41,1,2,17,4,5.mid,experiment,0
40,95,22278,81,75,1,2,17,4,5.mid,experiment,0
41,96,22582,77,77,1,2,17,4,5.mid,experiment,0
42,97,22858,76,78,1,2,17,4,5.mid,experiment,0
43,100,23146,74,79,1,2,17,4,5.mid,experiment,0
44,102,23438,76,81,1,2,17,4,5.mid,experiment,0
45,104,23723,79,81,1,2,17,4,5.mid,experiment,0
46,106,24005,74,86,1,2,17,4,5.mid,experiment,0
47,108,24296,71,73,1,2,17,4,5.mid,experiment,0
48,111,24592,72,68,1,2,17,4,5.mid,experiment,0
49,113,24862,72,63,1,2,17,4,5.mid,experiment,0
50,115,25150,74,56,1,2,17,4,5.mid,experiment,0
51,117,25434,74,52,1,2,17,4,5.mid,experiment,0
52,119,25736,76,49,1,2,17,4,5.mid,experiment,0
53,121,26934,65,58,1,2,17,4,5.mid,experiment,0
54,123,27218,65,59,1,2,17,4,5.mid,experiment,0
55,125,27490,64,49,1,2,17,4,5.mid,experiment,0
56,127,27778,64,56,1,2,17,4,5.mid,experiment,0
57,129,28092,62,47,1,2,17,4,5.mid,experiment,0
58,131,29256,67,48,1,2,17,4,5.mid,experiment,0
59,133,29530,67,52,1,2,17,4,5.mid,experiment,0
60,135,29810,71,60,1,2,17,4,5.mid,experiment,0
61,137,30078,71,63,1,2,17,4,5.mid,experiment,0
62,139,30354,72,64,1,2,17,4,5.mid,experiment,0
63,141,30628,72,52,1,2,17,4,5.mid,experiment,0
64,143,30922,73,52,1,2,17,4,5.mid,experiment,0
65,145,31182,73,55,1,2,17,4,5.mid,experiment,0
66,147,31498,74,97,1,2,17,4,5.mid,experiment,0
67,148,32080,77,96,1,2,17,4,5.mid,experiment,0
68,150,32657,76,94,1,2,17,4,5.mid,experiment,0
69,152,33222,74,97,1,2,17,4,5.mid,experiment,0
70,154,33790,72,94,1,2,17,4,5.mid,experiment,0
71,156,34378,84,103,1,2,17,4,5.mid,experiment,0
72,159,34994,84,103,1,2,17,4,5.mid,experiment,0
1,17,7859,79,75,1,2,17,5,9.mid,experiment,0
2,18,8188,78,79,1,2,17,5,9.mid,experiment,0
3,20,8462,79,79,1,2,17,5,9.mid,experiment,0
4,22,8736,76,81,1,2,17,5,9.mid,experiment,0
5,24,9062,72,70,1,2,17,5,9.mid,experiment,0
6,27,9373,67,50,1,2,17,5,9.mid,experiment,0
7,29,9643,67,67,1,2,17,5,9.mid,experiment,0
8,31,9909,67,60,1,2,17,5,9.mid,experiment,0
9,33,10221,79,77,1,2,17,5,9.mid,experiment,0
10,34,10505,78,89,1,2,17,5,9.mid,experiment,0
11,36,10797,79,83,1,2,17,5,9.mid,experiment,0
12,38,11075,76,78,1,2,17,5,9.mid,experiment,0
13,40,11386,72,78,1,2,17,5,9.mid,experiment,0
14,42,11675,76,90,1,2,17,5,9.mid,experiment,0
15,44,11950,79,94,1,2,17,5,9.mid,experiment,0
16,46,12226,84,100,1,2,17,5,9.mid,experiment,0
17,48,12541,83,91,1,2,17,5,9.mid,experiment,0
18,51,12832,81,68,1,2,17,5,9.mid,experiment,0
19,53,13132,81,61,1,2,17,5,9.mid,experiment,0
20,55,13404,81,55,1,2,17,5,9.mid,experiment,0
21,57,13700,83,80,1,2,17,5,9.mid,experiment,0
22,58,13996,81,94,1,2,17,5,9.mid,experiment,0
23,60,14286,84,90,1,2,17,5,9.mid,experiment,0
24,62,14563,81,88,1,2,17,5,9.mid,experiment,0
25,63,14864,78,89,1,2,17,5,9.mid,experiment,0
26,66,15145,79,82,1,2,17,5,9.mid,experiment,0
27,69,15492,79,91,1,2,17,5,9.mid,experiment,0
28,71,16106,79,95,1,2,17,5,9.mid,experiment,0
29,73,17358,77,65,1,2,17,5,9.mid,experiment,0
30,75,17647,77,65,1,2,17,5,9.mid,experiment,0
31,77,17919,76,58,1,2,17,5,9.mid,experiment,0
32,79,18185,76,57,1,2,17,5,9.mid,experiment,0
33,81,18548,74,49,1,2,17,5,9.mid,experiment,0
34,83,19792,79,63,1,2,17,5,9.mid,experiment,0
35,85,20418,77,66,1,2,17,5,9.mid,experiment,0
36,87,21022,76,63,1,2,17,5,9.mid,experiment,0
37,89,21300,76,63,1,2,17,5,9.mid,experiment,0
38,91,21590,76,59,1,2,17,5,9.mid,experiment,0
39,93,21878,76,50,1,2,17,5,9.mid,experiment,0
40,95,22195,81,91,1,2,17,5,9.mid,experiment,0
41,96,22484,77,89,1,2,17,5,9.mid,experiment,0
42,98,22767,76,88,1,2,17,5,9.mid,experiment,0
43,100,23045,74,87,1,2,17,5,9.mid,experiment,0
44,102,23345,76,89,1,2,17,5,9.mid,experiment,0
45,104,23606,79,91,1,2,17,5,9.mid,experiment,0
46,106,23897,74,91,1,2,17,5,9.mid,experiment,0
47,108,24169,71,90,1,2,17,5,9.mid,experiment,0
48,111,24474,72,68,1,2,17,5,9.mid,experiment,0
49,113,24738,72,65,1,2,17,5,9.mid,experiment,0
50,115,25029,74,58,1,2,17,5,9.mid,experiment,0
51,117,25304,74,59,1,2,17,5,9.mid,experiment,0
52,119,25614,76,49,1,2,17,5,9.mid,experiment,0
53,121,26772,65,53,1,2,17,5,9.mid,experiment,0
54,123,27042,65,63,1,2,17,5,9.mid,experiment,0
55,125,27314,64,53,1,2,17,5,9.mid,experiment,0
56,127,27600,64,42,1,2,17,5,9.mid,experiment,0
57,129,27938,62,45,1,2,17,5,9.mid,experiment,0
58,131,29119,67,37,1,2,17,5,9.mid,experiment,0
59,133,29382,67,61,1,2,17,5,9.mid,experiment,0
60,135,29668,71,58,1,2,17,5,9.mid,experiment,0
61,137,29932,71,68,1,2,17,5,9.mid,experiment,0
62,139,30204,72,67,1,2,17,5,9.mid,experiment,0
63,141,30474,72,66,1,2,17,5,9.mid,experiment,0
64,143,30788,73,51,1,2,17,5,9.mid,experiment,0
65,145,31034,73,66,1,2,17,5,9.mid,experiment,0
66,147,31336,74,106,1,2,17,5,9.mid,experiment,0
67,149,31910,77,104,1,2,17,5,9.mid,experiment,0
68,150,32477,76,94,1,2,17,5,9.mid,experiment,0
69,152,33061,74,94,1,2,17,5,9.mid,experiment,0
70,155,33622,72,94,1,2,17,5,9.mid,experiment,0
71,157,34173,84,98,1,2,17,5,9.mid,experiment,0
72,159,34768,84,96,1,2,17,5,9.mid,experiment,0
1,17,7874,79,73,1,2,17,8,11.mid,experiment,0
2,18,8204,78,87,1,2,17,8,11.mid,experiment,0
3,20,8501,79,99,1,2,17,8,11.mid,experiment,0
4,22,8778,76,94,1,2,17,8,11.mid,experiment,0
5,24,9086,72,91,1,2,17,8,11.mid,experiment,0
6,27,9393,67,65,1,2,17,8,11.mid,experiment,0
7,29,9676,67,65,1,2,17,8,11.mid,experiment,0
8,31,9965,67,62,1,2,17,8,11.mid,experiment,0
9,33,10296,79,87,1,2,17,8,11.mid,experiment,0
10,34,10585,78,84,1,2,17,8,11.mid,experiment,0
11,36,10868,79,96,1,2,17,8,11.mid,experiment,0
12,38,11158,76,81,1,2,17,8,11.mid,experiment,0
13,40,11485,72,75,1,2,17,8,11.mid,experiment,0
14,42,11762,76,91,1,2,17,8,11.mid,experiment,0
15,44,12038,79,105,1,2,17,8,11.mid,experiment,0
16,46,12320,84,93,1,2,17,8,11.mid,experiment,0
17,48,12633,83,81,1,2,17,8,11.mid,experiment,0
18,51,12943,81,58,1,2,17,8,11.mid,experiment,0
19,53,13242,81,58,1,2,17,8,11.mid,experiment,0
20,55,13558,81,48,1,2,17,8,11.mid,experiment,0
21,57,13858,83,84,1,2,17,8,11.mid,experiment,0
22,58,14150,81,90,1,2,17,8,11.mid,experiment,0
23,60,14439,84,91,1,2,17,8,11.mid,experiment,0
24,62,14711,81,83,1,2,17,8,11.mid,experiment,0
25,64,15004,78,83,1,2,17,8,11.mid,experiment,0
26,66,15272,79,84,1,2,17,8,11.mid,experiment,0
27,69,15586,79,87,1,2,17,8,11.mid,experiment,0
28,71,16176,79,84,1,2,17,8,11.mid,experiment,0
29,73,17390,77,58,1,2,17,8,11.mid,experiment,0
30,75,17666,77,63,1,2,17,8,11.mid,experiment,0
31,77,17942,76,52,1,2,17,8,11.mid,experiment,0
32,79,18235,76,49,1,2,17,8,11.mid,experiment,0
33,81,18554,74,45,1,2,17,8,11.mid,experiment,0
34,83,19704,79,65,1,2,17,8,11.mid,experiment,0
35,85,20330,77,55,1,2,17,8,11.mid,experiment,0
36,87,20947,76,67,1,2,17,8,11.mid,experiment,0
37,89,21237,76,61,1,2,17,8,11.mid,experiment,0
38,91,21513,76,56,1,2,17,8,11.mid,experiment,0
39,93,21794,76,56,1,2,17,8,11.mid,experiment,0
40,95,22097,81,85,1,2,17,8,11.mid,experiment,0
41,96,22377,77,81,1,2,17,8,11.mid,experiment,0
42,97,22669,76,84,1,2,17,8,11.mid,experiment,0
43,100,22949,74,91,1,2,17,8,11.mid,experiment,0
44,102,23241,76,90,1,2,17,8,11.mid,experiment,0
45,104,23516,79,84,1,2,17,8,11.mid,experiment,0
46,106,23792,74,91,1,2,17,8,11.mid,experiment,0
47,108,24081,71,74,1,2,17,8,11.mid,experiment,0
48,111,24353,72,70,1,2,17,8,11.mid,experiment,0
49,113,24633,72,63,1,2,17,8,11.mid,experiment,0
50,115,24919,74,58,1,2,17,8,11.mid,experiment,0
51,117,25199,74,53,1,2,17,8,11.mid,experiment,0
52,119,25497,76,51,1,2,17,8,11.mid,experiment,0
53,121,26674,65,56,1,2,17,8,11.mid,experiment,0
54,123,26946,65,65,1,2,17,8,11.mid,experiment,0
55,125,27245,64,49,1,2,17,8,11.mid,experiment,0
56,127,27511,64,59,1,2,17,8,11.mid,experiment,0
57,129,27830,62,43,1,2,17,8,11.mid,experiment,0
58,131,29044,67,56,1,2,17,8,11.mid,experiment,0
59,133,29331,67,62,1,2,17,8,11.mid,experiment,0
60,135,29627,71,56,1,2,17,8,11.mid,experiment,0
61,137,29898,71,55,1,2,17,8,11.mid,experiment,0
62,139,30178,72,65,1,2,17,8,11.mid,experiment,0
63,141,30450,72,73,1,2,17,8,11.mid,experiment,0
64,143,30724,73,75,1,2,17,8,11.mid,experiment,0
65,145,30996,73,77,1,2,17,8,11.mid,experiment,0
66,147,31302,74,106,1,2,17,8,11.mid,experiment,0
67,148,31865,77,100,1,2,17,8,11.mid,experiment,0
68,150,32425,76,96,1,2,17,8,11.mid,experiment,0
69,152,32999,74,98,1,2,17,8,11.mid,experiment,0
70,154,33570,72,100,1,2,17,8,11.mid,experiment,0
71,156,34155,84,104,1,2,17,8,11.mid,experiment,0
72,159,34755,84,107,1,2,17,8,11.mid,experiment,0
1,17,7900,79,79,1,2,17,9,13.mid,experiment,0
2,18,8207,78,82,1,2,17,9,13.mid,experiment,0
3,20,8496,79,80,1,2,17,9,13.mid,experiment,0
4,22,8795,76,84,1,2,17,9,13.mid,experiment,0
5,24,9082,72,68,1,2,17,9,13.mid,experiment,0
6,27,9400,67,69,1,2,17,9,13.mid,experiment,0
7,29,9686,67,76,1,2,17,9,13.mid,experiment,0
8,31,9971,67,69,1,2,17,9,13.mid,experiment,0
9,33,10295,79,89,1,2,17,9,13.mid,experiment,0
10,34,10586,78,93,1,2,17,9,13.mid,experiment,0
11,36,10872,79,86,1,2,17,9,13.mid,experiment,0
12,38,11158,76,81,1,2,17,9,13.mid,experiment,0
13,40,11463,72,80,1,2,17,9,13.mid,experiment,0
14,42,11755,76,93,1,2,17,9,13.mid,experiment,0
15,44,12043,79,98,1,2,17,9,13.mid,experiment,0
16,46,12334,84,100,1,2,17,9,13.mid,experiment,0
17,48,12660,83,86,1,2,17,9,13.mid,experiment,0
18,51,12945,81,70,1,2,17,9,13.mid,experiment,0
19,53,13236,81,66,1,2,17,9,13.mid,experiment,0
20,55,13540,81,60,1,2,17,9,13.mid,experiment,0
21,57,13833,83,81,1,2,17,9,13.mid,experiment,0
22,58,14139,81,91,1,2,17,9,13.mid,experiment,0
23,60,14448,84,88,1,2,17,9,13.mid,experiment,0
24,62,14724,81,91,1,2,17,9,13.mid,experiment,0
25,63,15019,78,89,1,2,17,9,13.mid,experiment,0
26,66,15288,79,90,1,2,17,9,13.mid,experiment,0
27,69,15609,79,79,1,2,17,9,13.mid,experiment,0
28,71,16242,79,82,1,2,17,9,13.mid,experiment,0
29,73,17520,77,56,1,2,17,9,13.mid,experiment,0
30,75,17801,77,68,1,2,17,9,13.mid,experiment,0
31,77,18092,76,54,1,2,17,9,13.mid,experiment,0
32,79,18363,76,56,1,2,17,9,13.mid,experiment,0
33,81,18689,74,51,1,2,17,9,13.mid,experiment,0
34,83,19896,79,63,1,2,17,9,13.mid,experiment,0
35,85,20510,77,52,1,2,17,9,13.mid,experiment,0
36,87,21111,76,62,1,2,17,9,13.mid,experiment,0
37,89,21388,76,58,1,2,17,9,13.mid,experiment,0
38,91,21693,76,51,1,2,17,9,13.mid,experiment,0
39,93,21959,76,55,1,2,17,9,13.mid,experiment,0
40,95,22299,81,78,1,2,17,9,13.mid,experiment,0
41,96,22569,77,76,1,2,17,9,13.mid,experiment,0
42,98,22874,76,83,1,2,17,9,13.mid,experiment,0
43,100,23174,74,91,1,2,17,9,13.mid,experiment,0
44,102,23476,76,89,1,2,17,9,13.mid,experiment,0
45,104,23746,79,90,1,2,17,9,13.mid,experiment,0
46,106,24026,74,90,1,2,17,9,13.mid,experiment,0
47,108,24308,71,85,1,2,17,9,13.mid,experiment,0
48,111,24630,72,72,1,2,17,9,13.mid,experiment,0
49,113,24895,72,68,1,2,17,9,13.mid,experiment,0
50,115,25181,74,65,1,2,17,9,13.mid,experiment,0
51,117,25456,74,62,1,2,17,9,13.mid,experiment,0
52,119,25764,76,48,1,2,17,9,13.mid,experiment,0
53,121,26936,65,57,1,2,17,9,13.mid,experiment,0
54,123,27212,65,65,1,2,17,9,13.mid,experiment,0
55,125,27495,64,55,1,2,17,9,13.mid,experiment,0
56,127,27773,64,51,1,2,17,9,13.mid,experiment,0
57,129,28105,62,54,1,2,17,9,13.mid,experiment,0
58,131,29294,67,52,1,2,17,9,13.mid,experiment,0
59,133,29573,67,65,1,2,17,9,13.mid,experiment,0
60,135,29838,71,59,1,2,17,9,13.mid,experiment,0
61,137,30120,71,58,1,2,17,9,13.mid,experiment,0
62,139,30390,72,69,1,2,17,9,13.mid,experiment,0
63,141,30663,72,67,1,2,17,9,13.mid,experiment,0
64,143,30943,73,67,1,2,17,9,13.mid,experiment,0
65,145,31216,73,74,1,2,17,9,13.mid,experiment,0
66,147,31525,74,99,1,2,17,9,13.mid,experiment,0
67,149,32067,77,95,1,2,17,9,13.mid,experiment,0
68,150,32635,76,97,1,2,17,9,13.mid,experiment,0
69,152,33235,74,94,1,2,17,9,13.mid,experiment,0
70,155,33798,72,97,1,2,17,9,13.mid,experiment,0
71,156,34389,84,103,1,2,17,9,13.mid,experiment,0
72,159,35033,84,101,1,2,17,9,13.mid,experiment,0
1,17,7902,79,56,1,2,17,13,12.mid,experiment,0
2,18,8228,78,77,1,2,17,13,12.mid,experiment,0
3,20,8514,79,55,1,2,17,13,12.mid,experiment,0
4,22,8807,76,86,1,2,17,13,12.mid,experiment,0
5,24,9109,72,68,1,2,17,13,12.mid,experiment,0
6,27,9405,67,71,1,2,17,13,12.mid,experiment,0
7,29,9684,67,62,1,2,17,13,12.mid,experiment,0
8,31,9964,67,65,1,2,17,13,12.mid,experiment,0
9,33,10264,79,78,1,2,17,13,12.mid,experiment,0
10,34,10566,78,86,1,2,17,13,12.mid,experiment,0
11,36,10843,79,72,1,2,17,13,12.mid,experiment,0
12,38,11134,76,73,1,2,17,13,12.mid,experiment,0
13,40,11418,72,74,1,2,17,13,12.mid,experiment,0
14,42,11700,76,81,1,2,17,13,12.mid,experiment,0
15,44,11999,79,95,1,2,17,13,12.mid,experiment,0
16,46,12277,84,96,1,2,17,13,12.mid,experiment,0
17,48,12595,83,94,1,2,17,13,12.mid,experiment,0
18,51,12880,81,71,1,2,17,13,12.mid,experiment,0
19,53,13164,81,65,1,2,17,13,12.mid,experiment,0
20,55,13445,81,64,1,2,17,13,12.mid,experiment,0
21,57,13741,83,69,1,2,17,13,12.mid,experiment,0
22,58,14034,81,86,1,2,17,13,12.mid,experiment,0
23,60,14332,84,84,1,2,17,13,12.mid,experiment,0
24,62,14616,81,86,1,2,17,13,12.mid,experiment,0
25,63,14896,78,78,1,2,17,13,12.mid,experiment,0
26,66,15181,79,81,1,2,17,13,12.mid,experiment,0
27,69,15510,79,90,1,2,17,13,12.mid,experiment,0
28,71,16112,79,79,1,2,17,13,12.mid,experiment,0
29,73,17378,77,58,1,2,17,13,12.mid,experiment,0
30,75,17659,77,66,1,2,17,13,12.mid,experiment,0
31,77,17942,76,59,1,2,17,13,12.mid,experiment,0
32,79,18232,76,48,1,2,17,13,12.mid,experiment,0
33,81,18561,74,61,1,2,17,13,12.mid,experiment,0
34,83,19740,79,62,1,2,17,13,12.mid,experiment,0
35,85,20354,77,53,1,2,17,13,12.mid,experiment,0
36,87,20956,76,57,1,2,17,13,12.mid,experiment,0
37,89,21236,76,62,1,2,17,13,12.mid,experiment,0
38,91,21524,76,55,1,2,17,13,12.mid,experiment,0
39,93,21806,76,64,1,2,17,13,12.mid,experiment,0
40,95,22105,81,70,1,2,17,13,12.mid,experiment,0
41,96,22382,77,78,1,2,17,13,12.mid,experiment,0
42,98,22672,76,79,1,2,17,13,12.mid,experiment,0
43,100,22948,74,81,1,2,17,13,12.mid,experiment,0
44,102,23250,76,81,1,2,17,13,12.mid,experiment,0
45,104,23514,79,81,1,2,17,13,12.mid,experiment,0
46,106,23796,74,80,1,2,17,13,12.mid,experiment,0
47,108,24085,71,60,1,2,17,13,12.mid,experiment,0
48,111,24392,72,60,1,2,17,13,12.mid,experiment,0
49,113,24667,72,54,1,2,17,13,12.mid,experiment,0
50,115,24950,74,58,1,2,17,13,12.mid,experiment,0
51,117,25224,74,55,1,2,17,13,12.mid,experiment,0
52,119,25535,76,50,1,2,17,13,12.mid,experiment,0
53,121,26744,65,58,1,2,17,13,12.mid,experiment,0
54,123,27021,65,58,1,2,17,13,12.mid,experiment,0
55,125,27311,64,53,1,2,17,13,12.mid,experiment,0
56,127,27573,64,59,1,2,17,13,12.mid,experiment,0
57,129,27893,62,51,1,2,17,13,12.mid,experiment,0
58,131,29091,67,57,1,2,17,13,12.mid,experiment,0
59,133,29372,67,65,1,2,17,13,12.mid,experiment,0
60,135,29639,71,57,1,2,17,13,12.mid,experiment,0
61,137,29922,71,60,1,2,17,13,12.mid,experiment,0
62,139,30184,72,67,1,2,17,13,12.mid,experiment,0
63,141,30464,72,67,1,2,17,13,12.mid,experiment,0
64,143,30738,73,65,1,2,17,13,12.mid,experiment,0
65,145,31010,73,65,1,2,17,13,12.mid,experiment,0
66,147,31316,74,104,1,2,17,13,12.mid,experiment,0
67,148,31908,77,101,1,2,17,13,12.mid,experiment,0
68,150,32480,76,96,1,2,17,13,12.mid,experiment,0
69,152,33075,74,106,1,2,17,13,12.mid,experiment,0
70,154,33686,72,93,1,2,17,13,12.mid,experiment,0
71,156,34284,84,103,1,2,17,13,12.mid,experiment,0
72,159,34916,84,94,1,2,17,13,12.mid,experiment,0
1,17,7860,79,71,1,2,17,15,8.mid,experiment,0
2,18,8174,78,87,1,2,17,15,8.mid,experiment,0
3,20,8464,79,93,1,2,17,15,8.mid,experiment,0
4,22,8752,76,94,1,2,17,15,8.mid,experiment,0
5,24,9063,72,81,1,2,17,15,8.mid,experiment,0
6,27,9350,67,72,1,2,17,15,8.mid,experiment,0
7,29,9638,67,67,1,2,17,15,8.mid,experiment,0
8,31,9936,67,67,1,2,17,15,8.mid,experiment,0
9,33,10238,79,90,1,2,17,15,8.mid,experiment,0
10,34,10535,78,91,1,2,17,15,8.mid,experiment,0
11,36,10829,79,87,1,2,17,15,8.mid,experiment,0
12,38,11108,76,79,1,2,17,15,8.mid,experiment,0
13,40,11420,72,91,1,2,17,15,8.mid,experiment,0
14,42,11708,76,93,1,2,17,15,8.mid,experiment,0
15,44,11994,79,100,1,2,17,15,8.mid,experiment,0
16,46,12277,84,99,1,2,17,15,8.mid,experiment,0
17,48,12594,83,90,1,2,17,15,8.mid,experiment,0
18,51,12923,81,73,1,2,17,15,8.mid,experiment,0
19,53,13212,81,66,1,2,17,15,8.mid,experiment,0
20,55,13483,81,63,1,2,17,15,8.mid,experiment,0
21,57,13788,83,81,1,2,17,15,8.mid,experiment,0
22,58,14085,81,98,1,2,17,15,8.mid,experiment,0
23,60,14372,84,94,1,2,17,15,8.mid,experiment,0
24,62,14655,81,89,1,2,17,15,8.mid,experiment,0
25,63,14952,78,79,1,2,17,15,8.mid,experiment,0
26,66,15238,79,91,1,2,17,15,8.mid,experiment,0
27,69,15547,79,96,1,2,17,15,8.mid,experiment,0
28,71,16126,79,95,1,2,17,15,8.mid,experiment,0
29,73,17402,77,60,1,2,17,15,8.mid,experiment,0
30,75,17690,77,63,1,2,17,15,8.mid,experiment,0
31,77,17980,76,54,1,2,17,15,8.mid,experiment,0
32,79,18245,76,54,1,2,17,15,8.mid,experiment,0
33,81,18593,74,53,1,2,17,15,8.mid,experiment,0
34,83,19773,79,60,1,2,17,15,8.mid,experiment,0
35,85,20393,77,51,1,2,17,15,8.mid,experiment,0
36,87,20954,76,63,1,2,17,15,8.mid,experiment,0
37,89,21238,76,63,1,2,17,15,8.mid,experiment,0
38,91,21527,76,56,1,2,17,15,8.mid,experiment,0
39,93,21811,76,50,1,2,17,15,8.mid,experiment,0
40,95,22123,81,79,1,2,17,15,8.mid,experiment,0
41,96,22396,77,85,1,2,17,15,8.mid,experiment,0
42,98,22674,76,89,1,2,17,15,8.mid,experiment,0
43,100,22944,74,91,1,2,17,15,8.mid,experiment,0
44,102,23249,76,88,1,2,17,15,8.mid,experiment,0
45,104,23528,79,82,1,2,17,15,8.mid,experiment,0
46,106,23807,74,89,1,2,17,15,8.mid,experiment,0
47,108,24089,71,79,1,2,17,15,8.mid,experiment,0
48,111,24417,72,60,1,2,17,15,8.mid,experiment,0
49,113,24681,72,60,1,2,17,15,8.mid,experiment,0
50,115,24962,74,70,1,2,17,15,8.mid,experiment,0
51,117,25229,74,61,1,2,17,15,8.mid,experiment,0
52,119,25544,76,56,1,2,17,15,8.mid,experiment,0
53,121,26762,65,62,1,2,17,15,8.mid,experiment,0
54,123,27041,65,59,1,2,17,15,8.mid,experiment,0
55,125,27326,64,53,1,2,17,15,8.mid,experiment,0
56,127,27610,64,49,1,2,17,15,8.mid,experiment,0
57,129,27920,62,51,1,2,17,15,8.mid,experiment,0
58,131,29112,67,63,1,2,17,15,8.mid,experiment,0
59,133,29394,67,70,1,2,17,15,8.mid,experiment,0
60,135,29674,71,57,1,2,17,15,8.mid,experiment,0
61,137,29963,71,54,1,2,17,15,8.mid,experiment,0
62,139,30219,72,75,1,2,17,15,8.mid,experiment,0
63,141,30494,72,74,1,2,17,15,8.mid,experiment,0
64,143,30774,73,72,1,2,17,15,8.mid,experiment,0
65,145,31052,73,71,1,2,17,15,8.mid,experiment,0
66,147,31349,74,106,1,2,17,15,8.mid,experiment,0
67,148,31947,77,100,1,2,17,15,8.mid,experiment,0
68,150,32503,76,96,1,2,17,15,8.mid,experiment,0
69,152,33055,74,95,1,2,17,15,8.mid,experiment,0
70,154,33650,72,94,1,2,17,15,8.mid,experiment,0
71,156,34230,84,97,1,2,17,15,8.mid,experiment,0
72,159,34848,84,99,1,2,17,15,8.mid,experiment,0
1,17,7899,79,77,1,2,17,16,15.mid,experiment,0
2,18,8223,78,81,1,2,17,16,15.mid,experiment,0
3,20,8506,79,81,1,2,17,16,15.mid,experiment,0
4,22,8788,76,83,1,2,17,16,15.mid,experiment,0
5,24,9102,72,82,1,2,17,16,15.mid,experiment,0
6,27,9427,67,68,1,2,17,16,15.mid,experiment,0
7,29,9706,67,67,1,2,17,16,15.mid,experiment,0
8,31,9992,67,62,1,2,17,16,15.mid,experiment,0
9,33,10303,79,79,1,2,17,16,15.mid,experiment,0
10,34,10596,78,88,1,2,17,16,15.mid,experiment,0
11,36,10871,79,81,1,2,17,16,15.mid,experiment,0
12,38,11167,76,80,1,2,17,16,15.mid,experiment,0
13,39,11472,72,73,1,2,17,16,15.mid,experiment,0
14,42,11756,76,90,1,2,17,16,15.mid,experiment,0
15,44,12030,79,100,1,2,17,16,15.mid,experiment,0
16,46,12316,84,97,1,2,17,16,15.mid,experiment,0
17,48,12631,83,81,1,2,17,16,15.mid,experiment,0
18,51,12942,81,57,1,2,17,16,15.mid,experiment,0
19,53,13227,81,66,1,2,17,16,15.mid,experiment,0
20,55,13496,81,66,1,2,17,16,15.mid,experiment,0
21,57,13791,83,89,1,2,17,16,15.mid,experiment,0
22,58,14084,81,98,1,2,17,16,15.mid,experiment,0
23,60,14375,84,90,1,2,17,16,15.mid,experiment,0
24,62,14637,81,91,1,2,17,16,15.mid,experiment,0
25,64,14939,78,85,1,2,17,16,15.mid,experiment,0
26,66,15199,79,93,1,2,17,16,15.mid,experiment,0
27,69,15516,79,81,1,2,17,16,15.mid,experiment,0
28,71,16103,79,57,1,2,17,16,15.mid,experiment,0
29,73,17369,77,59,1,2,17,16,15.mid,experiment,0
30,75,17651,77,65,1,2,17,16,15.mid,experiment,0
31,77,17928,76,52,1,2,17,16,15.mid,experiment,0
32,79,18196,76,60,1,2,17,16,15.mid,experiment,0
33,81,18535,74,50,1,2,17,16,15.mid,experiment,0
34,83,19705,79,62,1,2,17,16,15.mid,experiment,0
35,85,20287,77,58,1,2,17,16,15.mid,experiment,0
36,87,20870,76,67,1,2,17,16,15.mid,experiment,0
37,89,21147,76,70,1,2,17,16,15.mid,experiment,0
38,91,21432,76,62,1,2,17,16,15.mid,experiment,0
39,93,21707,76,57,1,2,17,16,15.mid,experiment,0
40,95,22018,81,83,1,2,17,16,15.mid,experiment,0
41,96,22278,77,86,1,2,17,16,15.mid,experiment,0
42,98,22583,76,84,1,2,17,16,15.mid,experiment,0
43,100,22858,74,83,1,2,17,16,15.mid,experiment,0
44,102,23158,76,63,1,2,17,16,15.mid,experiment,0
45,104,23433,79,76,1,2,17,16,15.mid,experiment,0
46,106,23703,74,89,1,2,17,16,15.mid,experiment,0
47,108,23981,71,79,1,2,17,16,15.mid,experiment,0
48,110,24262,72,74,1,2,17,16,15.mid,experiment,0
49,113,24526,72,77,1,2,17,16,15.mid,experiment,0
50,115,24814,74,69,1,2,17,16,15.mid,experiment,0
51,117,25089,74,63,1,2,17,16,15.mid,experiment,0
52,119,25416,76,56,1,2,17,16,15.mid,experiment,0
53,121,26606,65,57,1,2,17,16,15.mid,experiment,0
54,123,26894,65,66,1,2,17,16,15.mid,experiment,0
55,125,27172,64,53,1,2,17,16,15.mid,experiment,0
56,127,27459,64,48,1,2,17,16,15.mid,experiment,0
57,129,27783,62,48,1,2,17,16,15.mid,experiment,0
58,131,28970,67,58,1,2,17,16,15.mid,experiment,0
59,133,29251,67,65,1,2,17,16,15.mid,experiment,0
60,135,29535,71,68,1,2,17,16,15.mid,experiment,0
61,137,29826,71,64,1,2,17,16,15.mid,experiment,0
62,139,30089,72,78,1,2,17,16,15.mid,experiment,0
63,141,30376,72,80,1,2,17,16,15.mid,experiment,0
64,143,30639,73,81,1,2,17,16,15.mid,experiment,0
65,145,30918,73,75,1,2,17,16,15.mid,experiment,0
66,147,31204,74,106,1,2,17,16,15.mid,experiment,0
67,148,31789,77,104,1,2,17,16,15.mid,experiment,0
68,150,32365,76,95,1,2,17,16,15.mid,experiment,0
69,152,32920,74,88,1,2,17,16,15.mid,experiment,0
70,154,33485,72,91,1,2,17,16,15.mid,experiment,0
71,156,34087,84,94,1,2,17,16,15.mid,experiment,0
72,159,34683,84,79,1,2,17,16,15.mid,experiment,0
1,17,7868,79,70,1,2,18,2,3.mid,experiment,0
2,18,8152,78,75,1,2,18,2,3.mid,experiment,0
3,20,8448,79,84,1,2,18,2,3.mid,experiment,0
4,22,8723,76,76,1,2,18,2,3.mid,experiment,0
5,24,8997,72,68,1,2,18,2,3.mid,experiment,0
6,27,9290,67,63,1,2,18,2,3.mid,experiment,0
7,29,9572,67,52,1,2,18,2,3.mid,experiment,0
8,31,9847,67,56,1,2,18,2,3.mid,experiment,0
9,33,10139,79,68,1,2,18,2,3.mid,experiment,0
10,34,10400,78,78,1,2,18,2,3.mid,experiment,0
11,36,10674,79,83,1,2,18,2,3.mid,experiment,0
12,38,10944,76,76,1,2,18,2,3.mid,experiment,0
13,40,11239,72,78,1,2,18,2,3.mid,experiment,0
14,42,11497,76,74,1,2,18,2,3.mid,experiment,0
15,44,11769,79,81,1,2,18,2,3.mid,experiment,0
16,46,12035,84,94,1,2,18,2,3.mid,experiment,0
17,48,12296,83,82,1,2,18,2,3.mid,experiment,0
18,51,12574,81,68,1,2,18,2,3.mid,experiment,0
19,53,12842,81,53,1,2,18,2,3.mid,experiment,0
20,55,13096,81,56,1,2,18,2,3.mid,experiment,0
21,57,13390,83,72,1,2,18,2,3.mid,experiment,0
22,58,13641,81,78,1,2,18,2,3.mid,experiment,0
23,60,13888,84,85,1,2,18,2,3.mid,experiment,0
24,62,14182,81,86,1,2,18,2,3.mid,experiment,0
25,64,14429,78,81,1,2,18,2,3.mid,experiment,0
26,66,14698,79,86,1,2,18,2,3.mid,experiment,0
27,69,14987,79,83,1,2,18,2,3.mid,experiment,0
28,71,15546,79,80,1,2,18,2,3.mid,experiment,0
29,73,16577,77,57,1,2,18,2,3.mid,experiment,0
30,75,16842,77,60,1,2,18,2,3.mid,experiment,0
31,77,17142,76,35,1,2,18,2,3.mid,experiment,0
32,79,17409,76,42,1,2,18,2,3.mid,experiment,0
33,81,17705,74,46,1,2,18,2,3.mid,experiment,0
34,83,18791,79,47,1,2,18,2,3.mid,experiment,0
35,85,19350,77,48,1,2,18,2,3.mid,experiment,0
36,87,19912,76,48,1,2,18,2,3.mid,experiment,0
37,89,20179,76,47,1,2,18,2,3.mid,experiment,0
38,91,20434,76,47,1,2,18,2,3.mid,experiment,0
39,93,20687,76,51,1,2,18,2,3.mid,experiment,0
40,95,20961,81,78,1,2,18,2,3.mid,experiment,0
41,96,21214,77,84,1,2,18,2,3.mid,experiment,0
42,98,21490,76,78,1,2,18,2,3.mid,experiment,0
43,100,21739,74,86,1,2,18,2,3.mid,experiment,0
44,102,22020,76,84,1,2,18,2,3.mid,experiment,0
45,104,22267,79,81,1,2,18,2,3.mid,experiment,0
46,106,22546,74,80,1,2,18,2,3.mid,experiment,0
47,108,22787,71,68,1,2,18,2,3.mid,experiment,0
48,111,23064,72,58,1,2,18,2,3.mid,experiment,0
49,113,23319,72,60,1,2,18,2,3.mid,experiment,0
50,115,23586,74,48,1,2,18,2,3.mid,experiment,0
51,117,23851,74,52,1,2,18,2,3.mid,experiment,0
52,119,24152,76,49,1,2,18,2,3.mid,experiment,0
53,121,25175,65,55,1,2,18,2,3.mid,experiment,0
54,123,25437,65,66,1,2,18,2,3.mid,experiment,0
55,125,25711,64,48,1,2,18,2,3.mid,experiment,0
56,127,25976,64,45,1,2,18,2,3.mid,experiment,0
57,129,26286,62,45,1,2,18,2,3.mid,experiment,0
58,131,27341,67,48,1,2,18,2,3.mid,experiment,0
59,133,27595,67,54,1,2,18,2,3.mid,experiment,0
60,135,27851,71,54,1,2,18,2,3.mid,experiment,0
61,137,28109,71,60,1,2,18,2,3.mid,experiment,0
62,139,28367,72,65,1,2,18,2,3.mid,experiment,0
63,141,28627,72,63,1,2,18,2,3.mid,experiment,0
64,143,28884,73,65,1,2,18,2,3.mid,experiment,0
65,145,29178,73,56,1,2,18,2,3.mid,experiment,0
66,147,29459,74,81,1,2,18,2,3.mid,experiment,0
67,149,30019,77,90,1,2,18,2,3.mid,experiment,0
68,151,30596,76,87,1,2,18,2,3.mid,experiment,0
69,153,31182,74,89,1,2,18,2,3.mid,experiment,0
70,155,31748,72,87,1,2,18,2,3.mid,experiment,0
71,157,32322,84,91,1,2,18,2,3.mid,experiment,0
72,159,32953,84,95,1,2,18,2,3.mid,experiment,0
1,17,7839,79,72,1,2,18,3,2.mid,experiment,0
2,18,8119,78,75,1,2,18,3,2.mid,experiment,0
3,20,8403,79,83,1,2,18,3,2.mid,experiment,0
4,22,8668,76,75,1,2,18,3,2.mid,experiment,0
5,24,8960,72,76,1,2,18,3,2.mid,experiment,0
6,27,9234,67,70,1,2,18,3,2.mid,experiment,0
7,29,9511,67,61,1,2,18,3,2.mid,experiment,0
8,31,9786,67,65,1,2,18,3,2.mid,experiment,0
9,33,10075,79,67,1,2,18,3,2.mid,experiment,0
10,34,10344,78,78,1,2,18,3,2.mid,experiment,0
11,36,10621,79,79,1,2,18,3,2.mid,experiment,0
12,38,10888,76,69,1,2,18,3,2.mid,experiment,0
13,41,11187,72,81,1,2,18,3,2.mid,experiment,0
14,42,11445,76,75,1,2,18,3,2.mid,experiment,0
15,44,11714,79,81,1,2,18,3,2.mid,experiment,0
16,46,11960,84,81,1,2,18,3,2.mid,experiment,0
17,48,12256,83,91,1,2,18,3,2.mid,experiment,0
18,50,12515,81,75,1,2,18,3,2.mid,experiment,0
19,53,12808,81,47,1,2,18,3,2.mid,experiment,0
20,55,13054,81,62,1,2,18,3,2.mid,experiment,0
21,57,13331,83,83,1,2,18,3,2.mid,experiment,0
22,58,13569,81,84,1,2,18,3,2.mid,experiment,0
23,60,13862,84,79,1,2,18,3,2.mid,experiment,0
24,62,14114,81,78,1,2,18,3,2.mid,experiment,0
25,64,14400,78,76,1,2,18,3,2.mid,experiment,0
26,66,14657,79,84,1,2,18,3,2.mid,experiment,0
27,69,14955,79,83,1,2,18,3,2.mid,experiment,0
28,71,15522,79,89,1,2,18,3,2.mid,experiment,0
29,73,16623,77,53,1,2,18,3,2.mid,experiment,0
30,75,16892,77,58,1,2,18,3,2.mid,experiment,0
31,77,17180,76,45,1,2,18,3,2.mid,experiment,0
32,79,17447,76,46,1,2,18,3,2.mid,experiment,0
33,81,17753,74,46,1,2,18,3,2.mid,experiment,0
34,83,18869,79,57,1,2,18,3,2.mid,experiment,0
35,85,19435,77,58,1,2,18,3,2.mid,experiment,0
36,87,19977,76,51,1,2,18,3,2.mid,experiment,0
37,89,20238,76,48,1,2,18,3,2.mid,experiment,0
38,91,20512,76,49,1,2,18,3,2.mid,experiment,0
39,93,20774,76,53,1,2,18,3,2.mid,experiment,0
40,95,21054,81,72,1,2,18,3,2.mid,experiment,0
41,96,21317,77,83,1,2,18,3,2.mid,experiment,0
42,98,21581,76,83,1,2,18,3,2.mid,experiment,0
43,100,21832,74,88,1,2,18,3,2.mid,experiment,0
44,102,22117,76,80,1,2,18,3,2.mid,experiment,0
45,104,22369,79,82,1,2,18,3,2.mid,experiment,0
46,106,22633,74,78,1,2,18,3,2.mid,experiment,0
47,108,22888,71,65,1,2,18,3,2.mid,experiment,0
48,110,23161,72,56,1,2,18,3,2.mid,experiment,0
49,113,23430,72,47,1,2,18,3,2.mid,experiment,0
50,115,23678,74,56,1,2,18,3,2.mid,experiment,0
51,117,23940,74,59,1,2,18,3,2.mid,experiment,0
52,119,24258,76,47,1,2,18,3,2.mid,experiment,0
53,121,25297,65,54,1,2,18,3,2.mid,experiment,0
54,123,25569,65,55,1,2,18,3,2.mid,experiment,0
55,125,25842,64,34,1,2,18,3,2.mid,experiment,0
56,127,26091,64,61,1,2,18,3,2.mid,experiment,0
57,129,26401,62,48,1,2,18,3,2.mid,experiment,0
58,131,27484,67,55,1,2,18,3,2.mid,experiment,0
59,133,27755,67,57,1,2,18,3,2.mid,experiment,0
60,135,28008,71,57,1,2,18,3,2.mid,experiment,0
61,137,28276,71,57,1,2,18,3,2.mid,experiment,0
62,139,28549,72,63,1,2,18,3,2.mid,experiment,0
63,141,28794,72,67,1,2,18,3,2.mid,experiment,0
64,143,29074,73,66,1,2,18,3,2.mid,experiment,0
65,145,29334,73,72,1,2,18,3,2.mid,experiment,0
66,147,29610,74,90,1,2,18,3,2.mid,experiment,0
67,149,30162,77,93,1,2,18,3,2.mid,experiment,0
68,151,30718,76,81,1,2,18,3,2.mid,experiment,0
69,153,31265,74,97,1,2,18,3,2.mid,experiment,0
70,155,31822,72,95,1,2,18,3,2.mid,experiment,0
71,157,32416,84,99,1,2,18,3,2.mid,experiment,0
72,159,33013,84,97,1,2,18,3,2.mid,experiment,0
1,17,7847,79,75,1,2,18,4,16.mid,experiment,0
2,18,8120,78,81,1,2,18,4,16.mid,experiment,0
3,20,8400,79,85,1,2,18,4,16.mid,experiment,0
4,22,8687,76,81,1,2,18,4,16.mid,experiment,0
5,24,8971,72,75,1,2,18,4,16.mid,experiment,0
6,27,9247,67,58,1,2,18,4,16.mid,experiment,0
7,29,9524,67,53,1,2,18,4,16.mid,experiment,0
8,31,9789,67,58,1,2,18,4,16.mid,experiment,0
9,33,10057,79,74,1,2,18,4,16.mid,experiment,0
10,34,10319,78,81,1,2,18,4,16.mid,experiment,0
11,36,10584,79,79,1,2,18,4,16.mid,experiment,0
12,38,10859,76,66,1,2,18,4,16.mid,experiment,0
13,40,11129,72,63,1,2,18,4,16.mid,experiment,0
14,42,11402,76,76,1,2,18,4,16.mid,experiment,0
15,44,11677,79,90,1,2,18,4,16.mid,experiment,0
16,46,11931,84,82,1,2,18,4,16.mid,experiment,0
17,48,12217,83,80,1,2,18,4,16.mid,experiment,0
18,51,12497,81,59,1,2,18,4,16.mid,experiment,0
19,53,12754,81,51,1,2,18,4,16.mid,experiment,0
20,55,13024,81,51,1,2,18,4,16.mid,experiment,0
21,57,13296,83,87,1,2,18,4,16.mid,experiment,0
22,58,13539,81,86,1,2,18,4,16.mid,experiment,0
23,60,13823,84,81,1,2,18,4,16.mid,experiment,0
24,62,14088,81,79,1,2,18,4,16.mid,experiment,0
25,65,14361,78,76,1,2,18,4,16.mid,experiment,0
26,66,14615,79,83,1,2,18,4,16.mid,experiment,0
27,69,14933,79,93,1,2,18,4,16.mid,experiment,0
28,71,15520,79,90,1,2,18,4,16.mid,experiment,0
29,73,16634,77,56,1,2,18,4,16.mid,experiment,0
30,75,16904,77,57,1,2,18,4,16.mid,experiment,0
31,77,17185,76,41,1,2,18,4,16.mid,experiment,0
32,79,17474,76,34,1,2,18,4,16.mid,experiment,0
33,81,17760,74,45,1,2,18,4,16.mid,experiment,0
34,83,18848,79,55,1,2,18,4,16.mid,experiment,0
35,85,19402,77,51,1,2,18,4,16.mid,experiment,0
36,87,19964,76,49,1,2,18,4,16.mid,experiment,0
37,89,20219,76,55,1,2,18,4,16.mid,experiment,0
38,91,20487,76,47,1,2,18,4,16.mid,experiment,0
39,93,20743,76,60,1,2,18,4,16.mid,experiment,0
40,95,21010,81,75,1,2,18,4,16.mid,experiment,0
41,96,21268,77,87,1,2,18,4,16.mid,experiment,0
42,98,21536,76,85,1,2,18,4,16.mid,experiment,0
43,100,21801,74,86,1,2,18,4,16.mid,experiment,0
44,102,22079,76,74,1,2,18,4,16.mid,experiment,0
45,104,22311,79,76,1,2,18,4,16.mid,experiment,0
46,106,22579,74,75,1,2,18,4,16.mid,experiment,0
47,108,22834,71,75,1,2,18,4,16.mid,experiment,0
48,110,23097,72,68,1,2,18,4,16.mid,experiment,0
49,113,23361,72,62,1,2,18,4,16.mid,experiment,0
50,115,23618,74,52,1,2,18,4,16.mid,experiment,0
51,117,23885,74,54,1,2,18,4,16.mid,experiment,0
52,119,24191,76,39,1,2,18,4,16.mid,experiment,0
53,121,25221,65,59,1,2,18,4,16.mid,experiment,0
54,123,25476,65,63,1,2,18,4,16.mid,experiment,0
55,125,25761,64,36,1,2,18,4,16.mid,experiment,0
56,127,26024,64,45,1,2,18,4,16.mid,experiment,0
57,129,26337,62,41,1,2,18,4,16.mid,experiment,0
58,131,27433,67,42,1,2,18,4,16.mid,experiment,0
59,133,27681,67,57,1,2,18,4,16.mid,experiment,0
60,135,27971,71,55,1,2,18,4,16.mid,experiment,0
61,137,28207,71,60,1,2,18,4,16.mid,experiment,0
62,139,28459,72,71,1,2,18,4,16.mid,experiment,0
63,141,28709,72,66,1,2,18,4,16.mid,experiment,0
64,143,28961,73,81,1,2,18,4,16.mid,experiment,0
65,145,29227,73,81,1,2,18,4,16.mid,experiment,0
66,147,29502,74,91,1,2,18,4,16.mid,experiment,0
67,149,30040,77,93,1,2,18,4,16.mid,experiment,0
68,151,30579,76,86,1,2,18,4,16.mid,experiment,0
69,153,31126,74,93,1,2,18,4,16.mid,experiment,0
70,155,31684,72,97,1,2,18,4,16.mid,experiment,0
71,157,32280,84,96,1,2,18,4,16.mid,experiment,0
72,159,32914,84,94,1,2,18,4,16.mid,experiment,0
1,17,7829,79,72,1,2,18,6,6.mid,experiment,0
2,18,8108,78,75,1,2,18,6,6.mid,experiment,0
3,20,8392,79,87,1,2,18,6,6.mid,experiment,0
4,22,8655,76,80,1,2,18,6,6.mid,experiment,0
5,24,8925,72,79,1,2,18,6,6.mid,experiment,0
6,27,9208,67,63,1,2,18,6,6.mid,experiment,0
7,29,9476,67,63,1,2,18,6,6.mid,experiment,0
8,31,9748,67,53,1,2,18,6,6.mid,experiment,0
9,33,10025,79,67,1,2,18,6,6.mid,experiment,0
10,34,10278,78,79,1,2,18,6,6.mid,experiment,0
11,36,10558,79,81,1,2,18,6,6.mid,experiment,0
12,38,10826,76,69,1,2,18,6,6.mid,experiment,0
13,40,11112,72,79,1,2,18,6,6.mid,experiment,0
14,42,11364,76,79,1,2,18,6,6.mid,experiment,0
15,44,11630,79,93,1,2,18,6,6.mid,experiment,0
16,46,11889,84,88,1,2,18,6,6.mid,experiment,0
17,48,12164,83,78,1,2,18,6,6.mid,experiment,0
18,51,12445,81,59,1,2,18,6,6.mid,experiment,0
19,53,12711,81,50,1,2,18,6,6.mid,experiment,0
20,55,12960,81,59,1,2,18,6,6.mid,experiment,0
21,57,13216,83,74,1,2,18,6,6.mid,experiment,0
22,58,13479,81,87,1,2,18,6,6.mid,experiment,0
23,60,13751,84,87,1,2,18,6,6.mid,experiment,0
24,62,14020,81,78,1,2,18,6,6.mid,experiment,0
25,65,14297,78,79,1,2,18,6,6.mid,experiment,0
26,66,14554,79,78,1,2,18,6,6.mid,experiment,0
27,69,14847,79,76,1,2,18,6,6.mid,experiment,0
28,71,15427,79,65,1,2,18,6,6.mid,experiment,0
29,73,16534,77,66,1,2,18,6,6.mid,experiment,0
30,75,16799,77,65,1,2,18,6,6.mid,experiment,0
31,77,17075,76,49,1,2,18,6,6.mid,experiment,0
32,79,17337,76,60,1,2,18,6,6.mid,experiment,0
33,81,17632,74,58,1,2,18,6,6.mid,experiment,0
34,83,18760,79,55,1,2,18,6,6.mid,experiment,0
35,85,19316,77,58,1,2,18,6,6.mid,experiment,0
36,87,19864,76,52,1,2,18,6,6.mid,experiment,0
37,89,20127,76,47,1,2,18,6,6.mid,experiment,0
38,91,20382,76,51,1,2,18,6,6.mid,experiment,0
39,93,20643,76,50,1,2,18,6,6.mid,experiment,0
40,95,20913,81,75,1,2,18,6,6.mid,experiment,0
41,96,21171,77,82,1,2,18,6,6.mid,experiment,0
42,98,21434,76,78,1,2,18,6,6.mid,experiment,0
43,100,21687,74,83,1,2,18,6,6.mid,experiment,0
44,102,21973,76,82,1,2,18,6,6.mid,experiment,0
45,104,22240,79,81,1,2,18,6,6.mid,experiment,0
46,106,22484,74,78,1,2,18,6,6.mid,experiment,0
47,108,22746,71,79,1,2,18,6,6.mid,experiment,0
48,110,23015,72,68,1,2,18,6,6.mid,experiment,0
49,113,23260,72,66,1,2,18,6,6.mid,experiment,0
50,115,23526,74,57,1,2,18,6,6.mid,experiment,0
51,117,23786,74,62,1,2,18,6,6.mid,experiment,0
52,119,24090,76,49,1,2,18,6,6.mid,experiment,0
53,121,25084,65,65,1,2,18,6,6.mid,experiment,0
54,123,25340,65,63,1,2,18,6,6.mid,experiment,0
55,125,25618,64,50,1,2,18,6,6.mid,experiment,0
56,127,25861,64,58,1,2,18,6,6.mid,experiment,0
57,129,26184,62,43,1,2,18,6,6.mid,experiment,0
58,131,27245,67,44,1,2,18,6,6.mid,experiment,0
59,133,27520,67,46,1,2,18,6,6.mid,experiment,0
60,135,27772,71,59,1,2,18,6,6.mid,experiment,0
61,137,28043,71,55,1,2,18,6,6.mid,experiment,0
62,139,28300,72,62,1,2,18,6,6.mid,experiment,0
63,141,28575,72,68,1,2,18,6,6.mid,experiment,0
64,143,28832,73,63,1,2,18,6,6.mid,experiment,0
65,145,29075,73,70,1,2,18,6,6.mid,experiment,0
66,147,29367,74,80,1,2,18,6,6.mid,experiment,0
67,149,29916,77,89,1,2,18,6,6.mid,experiment,0
68,151,30472,76,88,1,2,18,6,6.mid,experiment,0
69,153,31013,74,91,1,2,18,6,6.mid,experiment,0
70,155,31586,72,94,1,2,18,6,6.mid,experiment,0
71,157,32177,84,91,1,2,18,6,6.mid,experiment,0
72,159,32785,84,97,1,2,18,6,6.mid,experiment,0
1,17,7838,79,74,1,2,18,7,4.mid,experiment,0
2,18,8115,78,81,1,2,18,7,4.mid,experiment,0
3,20,8396,79,90,1,2,18,7,4.mid,experiment,0
4,22,8666,76,81,1,2,18,7,4.mid,experiment,0
5,24,8932,72,78,1,2,18,7,4.mid,experiment,0
6,27,9204,67,63,1,2,18,7,4.mid,experiment,0
7,29,9478,67,51,1,2,18,7,4.mid,experiment,0
8,31,9755,67,56,1,2,18,7,4.mid,experiment,0
9,33,10017,79,72,1,2,18,7,4.mid,experiment,0
10,34,10278,78,80,1,2,18,7,4.mid,experiment,0
11,36,10535,79,84,1,2,18,7,4.mid,experiment,0
12,38,10809,76,79,1,2,18,7,4.mid,experiment,0
13,40,11079,72,78,1,2,18,7,4.mid,experiment,0
14,42,11339,76,81,1,2,18,7,4.mid,experiment,0
15,44,11607,79,91,1,2,18,7,4.mid,experiment,0
16,46,11857,84,91,1,2,18,7,4.mid,experiment,0
17,48,12137,83,95,1,2,18,7,4.mid,experiment,0
18,50,12407,81,68,1,2,18,7,4.mid,experiment,0
19,53,12675,81,56,1,2,18,7,4.mid,experiment,0
20,55,12933,81,58,1,2,18,7,4.mid,experiment,0
21,57,13200,83,81,1,2,18,7,4.mid,experiment,0
22,58,13455,81,86,1,2,18,7,4.mid,experiment,0
23,60,13729,84,86,1,2,18,7,4.mid,experiment,0
24,62,13983,81,87,1,2,18,7,4.mid,experiment,0
25,65,14259,78,75,1,2,18,7,4.mid,experiment,0
26,66,14507,79,84,1,2,18,7,4.mid,experiment,0
27,69,14791,79,91,1,2,18,7,4.mid,experiment,0
28,71,15359,79,88,1,2,18,7,4.mid,experiment,0
29,73,16437,77,70,1,2,18,7,4.mid,experiment,0
30,75,16703,77,63,1,2,18,7,4.mid,experiment,0
31,77,16971,76,42,1,2,18,7,4.mid,experiment,0
32,79,17242,76,41,1,2,18,7,4.mid,experiment,0
33,81,17543,74,44,1,2,18,7,4.mid,experiment,0
34,83,18674,79,57,1,2,18,7,4.mid,experiment,0
35,85,19230,77,56,1,2,18,7,4.mid,experiment,0
36,87,19782,76,40,1,2,18,7,4.mid,experiment,0
37,89,20035,76,48,1,2,18,7,4.mid,experiment,0
38,91,20289,76,54,1,2,18,7,4.mid,experiment,0
39,93,20537,76,60,1,2,18,7,4.mid,experiment,0
40,95,20789,81,80,1,2,18,7,4.mid,experiment,0
41,96,21045,77,84,1,2,18,7,4.mid,experiment,0
42,98,21299,76,79,1,2,18,7,4.mid,experiment,0
43,100,21557,74,86,1,2,18,7,4.mid,experiment,0
44,102,21837,76,86,1,2,18,7,4.mid,experiment,0
45,104,22085,79,79,1,2,18,7,4.mid,experiment,0
46,106,22337,74,76,1,2,18,7,4.mid,experiment,0
47,108,22593,71,75,1,2,18,7,4.mid,experiment,0
48,110,22857,72,61,1,2,18,7,4.mid,experiment,0
49,113,23102,72,56,1,2,18,7,4.mid,experiment,0
50,115,23377,74,47,1,2,18,7,4.mid,experiment,0
51,117,23625,74,44,1,2,18,7,4.mid,experiment,0
52,119,23924,76,36,1,2,18,7,4.mid,experiment,0
53,121,24927,65,50,1,2,18,7,4.mid,experiment,0
54,123,25165,65,65,1,2,18,7,4.mid,experiment,0
55,125,25441,64,43,1,2,18,7,4.mid,experiment,0
56,127,25679,64,47,1,2,18,7,4.mid,experiment,0
57,129,25997,62,42,1,2,18,7,4.mid,experiment,0
58,131,27039,67,52,1,2,18,7,4.mid,experiment,0
59,133,27306,67,62,1,2,18,7,4.mid,experiment,0
60,135,27559,71,60,1,2,18,7,4.mid,experiment,0
61,137,27812,71,58,1,2,18,7,4.mid,experiment,0
62,139,28060,72,68,1,2,18,7,4.mid,experiment,0
63,141,28311,72,66,1,2,18,7,4.mid,experiment,0
64,143,28577,73,67,1,2,18,7,4.mid,experiment,0
65,145,28832,73,65,1,2,18,7,4.mid,experiment,0
66,147,29123,74,88,1,2,18,7,4.mid,experiment,0
67,149,29649,77,94,1,2,18,7,4.mid,experiment,0
68,151,30183,76,79,1,2,18,7,4.mid,experiment,0
69,153,30726,74,90,1,2,18,7,4.mid,experiment,0
70,155,31277,72,91,1,2,18,7,4.mid,experiment,0
71,157,31863,84,95,1,2,18,7,4.mid,experiment,0
72,159,32446,84,97,1,2,18,7,4.mid,experiment,0
1,17,7850,79,75,1,2,18,8,9.mid,experiment,0
2,18,8127,78,79,1,2,18,8,9.mid,experiment,0
3,20,8413,79,84,1,2,18,8,9.mid,experiment,0
4,22,8677,76,79,1,2,18,8,9.mid,experiment,0
5,24,8955,72,73,1,2,18,8,9.mid,experiment,0
6,27,9211,67,77,1,2,18,8,9.mid,experiment,0
7,29,9479,67,65,1,2,18,8,9.mid,experiment,0
8,31,9746,67,59,1,2,18,8,9.mid,experiment,0
9,33,10025,79,69,1,2,18,8,9.mid,experiment,0
10,34,10284,78,78,1,2,18,8,9.mid,experiment,0
11,36,10564,79,78,1,2,18,8,9.mid,experiment,0
12,38,10818,76,67,1,2,18,8,9.mid,experiment,0
13,41,11096,72,72,1,2,18,8,9.mid,experiment,0
14,42,11341,76,81,1,2,18,8,9.mid,experiment,0
15,44,11619,79,84,1,2,18,8,9.mid,experiment,0
16,46,11875,84,90,1,2,18,8,9.mid,experiment,0
17,48,12137,83,91,1,2,18,8,9.mid,experiment,0
18,50,12407,81,76,1,2,18,8,9.mid,experiment,0
19,53,12671,81,58,1,2,18,8,9.mid,experiment,0
20,55,12937,81,51,1,2,18,8,9.mid,experiment,0
21,57,13219,83,79,1,2,18,8,9.mid,experiment,0
22,58,13473,81,85,1,2,18,8,9.mid,experiment,0
23,60,13740,84,81,1,2,18,8,9.mid,experiment,0
24,62,14009,81,76,1,2,18,8,9.mid,experiment,0
25,65,14281,78,67,1,2,18,8,9.mid,experiment,0
26,66,14527,79,79,1,2,18,8,9.mid,experiment,0
27,69,14809,79,85,1,2,18,8,9.mid,experiment,0
28,71,15366,79,84,1,2,18,8,9.mid,experiment,0
29,73,16437,77,48,1,2,18,8,9.mid,experiment,0
30,75,16690,77,56,1,2,18,8,9.mid,experiment,0
31,77,16963,76,47,1,2,18,8,9.mid,experiment,0
32,79,17225,76,51,1,2,18,8,9.mid,experiment,0
33,81,17539,74,48,1,2,18,8,9.mid,experiment,0
34,83,18681,79,54,1,2,18,8,9.mid,experiment,0
35,85,19241,77,53,1,2,18,8,9.mid,experiment,0
36,87,19797,76,43,1,2,18,8,9.mid,experiment,0
37,89,20051,76,54,1,2,18,8,9.mid,experiment,0
38,91,20301,76,54,1,2,18,8,9.mid,experiment,0
39,93,20565,76,51,1,2,18,8,9.mid,experiment,0
40,95,20815,81,81,1,2,18,8,9.mid,experiment,0
41,96,21066,77,80,1,2,18,8,9.mid,experiment,0
42,98,21323,76,81,1,2,18,8,9.mid,experiment,0
43,100,21585,74,88,1,2,18,8,9.mid,experiment,0
44,102,21857,76,87,1,2,18,8,9.mid,experiment,0
45,104,22113,79,71,1,2,18,8,9.mid,experiment,0
46,106,22387,74,87,1,2,18,8,9.mid,experiment,0
47,108,22637,71,77,1,2,18,8,9.mid,experiment,0
48,110,22908,72,68,1,2,18,8,9.mid,experiment,0
49,113,23171,72,51,1,2,18,8,9.mid,experiment,0
50,115,23429,74,46,1,2,18,8,9.mid,experiment,0
51,117,23681,74,50,1,2,18,8,9.mid,experiment,0
52,119,23975,76,47,1,2,18,8,9.mid,experiment,0
53,121,24993,65,55,1,2,18,8,9.mid,experiment,0
54,123,25231,65,60,1,2,18,8,9.mid,experiment,0
55,125,25511,64,51,1,2,18,8,9.mid,experiment,0
56,127,25783,64,43,1,2,18,8,9.mid,experiment,0
57,129,26101,62,43,1,2,18,8,9.mid,experiment,0
58,131,27185,67,51,1,2,18,8,9.mid,experiment,0
59,133,27443,67,58,1,2,18,8,9.mid,experiment,0
60,135,27731,71,45,1,2,18,8,9.mid,experiment,0
61,137,27975,71,53,1,2,18,8,9.mid,experiment,0
62,139,28235,72,71,1,2,18,8,9.mid,experiment,0
63,141,28483,72,56,1,2,18,8,9.mid,experiment,0
64,143,28754,73,63,1,2,18,8,9.mid,experiment,0
65,145,29017,73,61,1,2,18,8,9.mid,experiment,0
66,147,29317,74,81,1,2,18,8,9.mid,experiment,0
67,149,29855,77,91,1,2,18,8,9.mid,experiment,0
68,151,30402,76,91,1,2,18,8,9.mid,experiment,0
69,153,30937,74,95,1,2,18,8,9.mid,experiment,0
70,155,31505,72,96,1,2,18,8,9.mid,experiment,0
71,157,32080,84,98,1,2,18,8,9.mid,experiment,0
72,159,32684,84,96,1,2,18,8,9.mid,experiment,0
1,17,7814,79,75,1,2,18,10,13.mid,experiment,0
2,18,8094,78,85,1,2,18,10,13.mid,experiment,0
3,20,8384,79,85,1,2,18,10,13.mid,experiment,0
4,22,8658,76,81,1,2,18,10,13.mid,experiment,0
5,24,8935,72,79,1,2,18,10,13.mid,experiment,0
6,27,9219,67,60,1,2,18,10,13.mid,experiment,0
7,29,9487,67,63,1,2,18,10,13.mid,experiment,0
8,31,9758,67,67,1,2,18,10,13.mid,experiment,0
9,33,10030,79,75,1,2,18,10,13.mid,experiment,0
10,34,10287,78,85,1,2,18,10,13.mid,experiment,0
11,36,10561,79,89,1,2,18,10,13.mid,experiment,0
12,38,10816,76,78,1,2,18,10,13.mid,experiment,0
13,40,11108,72,82,1,2,18,10,13.mid,experiment,0
14,42,11364,76,82,1,2,18,10,13.mid,experiment,0
15,44,11639,79,86,1,2,18,10,13.mid,experiment,0
16,46,11900,84,93,1,2,18,10,13.mid,experiment,0
17,48,12168,83,93,1,2,18,10,13.mid,experiment,0
18,51,12447,81,63,1,2,18,10,13.mid,experiment,0
19,53,12702,81,55,1,2,18,10,13.mid,experiment,0
20,55,12963,81,57,1,2,18,10,13.mid,experiment,0
21,57,13213,83,74,1,2,18,10,13.mid,experiment,0
22,58,13481,81,84,1,2,18,10,13.mid,experiment,0
23,60,13750,84,90,1,2,18,10,13.mid,experiment,0
24,62,13998,81,88,1,2,18,10,13.mid,experiment,0
25,64,14270,78,79,1,2,18,10,13.mid,experiment,0
26,67,14549,79,57,1,2,18,10,13.mid,experiment,0
27,69,14809,79,62,1,2,18,10,13.mid,experiment,0
28,71,15357,79,75,1,2,18,10,13.mid,experiment,0
29,73,16412,77,57,1,2,18,10,13.mid,experiment,0
30,75,16669,77,56,1,2,18,10,13.mid,experiment,0
31,77,16941,76,41,1,2,18,10,13.mid,experiment,0
32,79,17203,76,41,1,2,18,10,13.mid,experiment,0
33,81,17503,74,47,1,2,18,10,13.mid,experiment,0
34,83,18625,79,47,1,2,18,10,13.mid,experiment,0
35,85,19166,77,51,1,2,18,10,13.mid,experiment,0
36,87,19729,76,53,1,2,18,10,13.mid,experiment,0
37,89,19996,76,50,1,2,18,10,13.mid,experiment,0
38,91,20247,76,49,1,2,18,10,13.mid,experiment,0
39,93,20515,76,57,1,2,18,10,13.mid,experiment,0
40,95,20776,81,74,1,2,18,10,13.mid,experiment,0
41,96,21030,77,86,1,2,18,10,13.mid,experiment,0
42,98,21297,76,84,1,2,18,10,13.mid,experiment,0
43,100,21549,74,89,1,2,18,10,13.mid,experiment,0
44,102,21833,76,80,1,2,18,10,13.mid,experiment,0
45,104,22077,79,90,1,2,18,10,13.mid,experiment,0
46,106,22347,74,91,1,2,18,10,13.mid,experiment,0
47,108,22592,71,77,1,2,18,10,13.mid,experiment,0
48,110,22856,72,74,1,2,18,10,13.mid,experiment,0
49,113,23118,72,53,1,2,18,10,13.mid,experiment,0
50,115,23375,74,53,1,2,18,10,13.mid,experiment,0
51,117,23644,74,49,1,2,18,10,13.mid,experiment,0
52,119,23934,76,54,1,2,18,10,13.mid,experiment,0
53,121,24965,65,61,1,2,18,10,13.mid,experiment,0
54,123,25221,65,62,1,2,18,10,13.mid,experiment,0
55,125,25477,64,54,1,2,18,10,13.mid,experiment,0
56,127,25736,64,54,1,2,18,10,13.mid,experiment,0
57,129,26042,62,49,1,2,18,10,13.mid,experiment,0
58,131,27123,67,52,1,2,18,10,13.mid,experiment,0
59,133,27389,67,51,1,2,18,10,13.mid,experiment,0
60,135,27645,71,58,1,2,18,10,13.mid,experiment,0
61,137,27908,71,51,1,2,18,10,13.mid,experiment,0
62,139,28173,72,61,1,2,18,10,13.mid,experiment,0
63,141,28432,72,56,1,2,18,10,13.mid,experiment,0
64,143,28697,73,61,1,2,18,10,13.mid,experiment,0
65,145,28951,73,65,1,2,18,10,13.mid,experiment,0
66,147,29245,74,87,1,2,18,10,13.mid,experiment,0
67,148,29761,77,97,1,2,18,10,13.mid,experiment,0
68,151,30279,76,88,1,2,18,10,13.mid,experiment,0
69,153,30840,74,97,1,2,18,10,13.mid,experiment,0
70,155,31400,72,98,1,2,18,10,13.mid,experiment,0
71,157,31984,84,96,1,2,18,10,13.mid,experiment,0
72,159,32596,84,98,1,2,18,10,13.mid,experiment,0
1,17,7836,79,77,1,2,18,13,1.mid,experiment,0
2,18,8108,78,86,1,2,18,13,1.mid,experiment,0
3,20,8386,79,89,1,2,18,13,1.mid,experiment,0
4,22,8654,76,83,1,2,18,13,1.mid,experiment,0
5,24,8932,72,81,1,2,18,13,1.mid,experiment,0
6,27,9192,67,58,1,2,18,13,1.mid,experiment,0
7,29,9476,67,53,1,2,18,13,1.mid,experiment,0
8,31,9732,67,58,1,2,18,13,1.mid,experiment,0
9,33,10026,79,78,1,2,18,13,1.mid,experiment,0
10,34,10278,78,85,1,2,18,13,1.mid,experiment,0
11,36,10562,79,80,1,2,18,13,1.mid,experiment,0
12,38,10834,76,67,1,2,18,13,1.mid,experiment,0
13,40,11116,72,70,1,2,18,13,1.mid,experiment,0
14,42,11380,76,79,1,2,18,13,1.mid,experiment,0
15,44,11655,79,91,1,2,18,13,1.mid,experiment,0
16,46,11926,84,91,1,2,18,13,1.mid,experiment,0
17,48,12200,83,88,1,2,18,13,1.mid,experiment,0
18,51,12474,81,67,1,2,18,13,1.mid,experiment,0
19,53,12734,81,53,1,2,18,13,1.mid,experiment,0
20,55,12992,81,62,1,2,18,13,1.mid,experiment,0
21,57,13268,83,70,1,2,18,13,1.mid,experiment,0
22,58,13534,81,86,1,2,18,13,1.mid,experiment,0
23,60,13804,84,87,1,2,18,13,1.mid,experiment,0
24,62,14068,81,87,1,2,18,13,1.mid,experiment,0
25,64,14338,78,78,1,2,18,13,1.mid,experiment,0
26,67,14603,79,72,1,2,18,13,1.mid,experiment,0
27,69,14890,79,83,1,2,18,13,1.mid,experiment,0
28,71,15507,79,87,1,2,18,13,1.mid,experiment,0
29,73,16684,77,63,1,2,18,13,1.mid,experiment,0
30,75,16934,77,59,1,2,18,13,1.mid,experiment,0
31,77,17228,76,39,1,2,18,13,1.mid,experiment,0
32,79,17492,76,41,1,2,18,13,1.mid,experiment,0
33,81,17782,74,48,1,2,18,13,1.mid,experiment,0
34,83,18940,79,53,1,2,18,13,1.mid,experiment,0
35,85,19504,77,58,1,2,18,13,1.mid,experiment,0
36,87,20033,76,63,1,2,18,13,1.mid,experiment,0
37,89,20293,76,49,1,2,18,13,1.mid,experiment,0
38,91,20553,76,50,1,2,18,13,1.mid,experiment,0
39,93,20790,76,58,1,2,18,13,1.mid,experiment,0
40,95,21052,81,78,1,2,18,13,1.mid,experiment,0
41,96,21314,77,76,1,2,18,13,1.mid,experiment,0
42,98,21586,76,78,1,2,18,13,1.mid,experiment,0
43,100,21840,74,81,1,2,18,13,1.mid,experiment,0
44,102,22120,76,78,1,2,18,13,1.mid,experiment,0
45,104,22356,79,78,1,2,18,13,1.mid,experiment,0
46,106,22628,74,74,1,2,18,13,1.mid,experiment,0
47,108,22900,71,70,1,2,18,13,1.mid,experiment,0
48,110,23146,72,75,1,2,18,13,1.mid,experiment,0
49,113,23420,72,60,1,2,18,13,1.mid,experiment,0
50,115,23666,74,57,1,2,18,13,1.mid,experiment,0
51,117,23914,74,51,1,2,18,13,1.mid,experiment,0
52,119,24224,76,44,1,2,18,13,1.mid,experiment,0
53,121,25252,65,63,1,2,18,13,1.mid,experiment,0
54,123,25490,65,70,1,2,18,13,1.mid,experiment,0
55,125,25756,64,66,1,2,18,13,1.mid,experiment,0
56,127,26002,64,66,1,2,18,13,1.mid,experiment,0
57,129,26308,62,55,1,2,18,13,1.mid,experiment,0
58,131,27407,67,58,1,2,18,13,1.mid,experiment,0
59,133,27668,67,62,1,2,18,13,1.mid,experiment,0
60,135,27929,71,66,1,2,18,13,1.mid,experiment,0
61,137,28206,71,62,1,2,18,13,1.mid,experiment,0
62,139,28464,72,63,1,2,18,13,1.mid,experiment,0
63,141,28730,72,63,1,2,18,13,1.mid,experiment,0
64,143,28994,73,60,1,2,18,13,1.mid,experiment,0
65,145,29244,73,68,1,2,18,13,1.mid,experiment,0
66,147,29548,74,77,1,2,18,13,1.mid,experiment,0
67,149,30108,77,84,1,2,18,13,1.mid,experiment,0
68,151,30666,76,80,1,2,18,13,1.mid,experiment,0
69,153,31214,74,87,1,2,18,13,1.mid,experiment,0
70,155,31768,72,91,1,2,18,13,1.mid,experiment,0
71,157,32328,84,84,1,2,18,13,1.mid,experiment,0
72,159,32880,84,80,1,2,18,13,1.mid,experiment,0
1,17,7816,79,78,1,2,18,14,10.mid,experiment,0
2,18,8092,78,83,1,2,18,14,10.mid,experiment,0
3,20,8370,79,80,1,2,18,14,10.mid,experiment,0
4,22,8646,76,87,1,2,18,14,10.mid,experiment,0
5,24,8922,72,88,1,2,18,14,10.mid,experiment,0
6,27,9196,67,69,1,2,18,14,10.mid,experiment,0
7,29,9465,67,55,1,2,18,14,10.mid,experiment,0
8,31,9734,67,66,1,2,18,14,10.mid,experiment,0
9,33,10015,79,76,1,2,18,14,10.mid,experiment,0
10,34,10262,78,83,1,2,18,14,10.mid,experiment,0
11,36,10558,79,81,1,2,18,14,10.mid,experiment,0
12,38,10836,76,68,1,2,18,14,10.mid,experiment,0
13,40,11124,72,65,1,2,18,14,10.mid,experiment,0
14,42,11386,76,74,1,2,18,14,10.mid,experiment,0
15,44,11654,79,89,1,2,18,14,10.mid,experiment,0
16,46,11910,84,91,1,2,18,14,10.mid,experiment,0
17,48,12184,83,93,1,2,18,14,10.mid,experiment,0
18,51,12446,81,58,1,2,18,14,10.mid,experiment,0
19,53,12714,81,63,1,2,18,14,10.mid,experiment,0
20,55,12984,81,68,1,2,18,14,10.mid,experiment,0
21,57,13260,83,76,1,2,18,14,10.mid,experiment,0
22,58,13510,81,91,1,2,18,14,10.mid,experiment,0
23,60,13790,84,89,1,2,18,14,10.mid,experiment,0
24,62,14056,81,85,1,2,18,14,10.mid,experiment,0
25,64,14328,78,81,1,2,18,14,10.mid,experiment,0
26,67,14630,79,76,1,2,18,14,10.mid,experiment,0
27,69,14902,79,75,1,2,18,14,10.mid,experiment,0
28,71,15500,79,79,1,2,18,14,10.mid,experiment,0
29,73,16580,77,63,1,2,18,14,10.mid,experiment,0
30,75,16834,77,67,1,2,18,14,10.mid,experiment,0
31,77,17110,76,55,1,2,18,14,10.mid,experiment,0
32,79,17376,76,54,1,2,18,14,10.mid,experiment,0
33,81,17682,74,52,1,2,18,14,10.mid,experiment,0
34,83,18812,79,53,1,2,18,14,10.mid,experiment,0
35,85,19359,77,62,1,2,18,14,10.mid,experiment,0
36,87,19923,76,45,1,2,18,14,10.mid,experiment,0
37,89,20192,76,46,1,2,18,14,10.mid,experiment,0
38,91,20447,76,48,1,2,18,14,10.mid,experiment,0
39,93,20710,76,54,1,2,18,14,10.mid,experiment,0
40,95,20980,81,76,1,2,18,14,10.mid,experiment,0
41,96,21232,77,78,1,2,18,14,10.mid,experiment,0
42,98,21519,76,79,1,2,18,14,10.mid,experiment,0
43,100,21780,74,84,1,2,18,14,10.mid,experiment,0
44,102,22066,76,81,1,2,18,14,10.mid,experiment,0
45,104,22320,79,83,1,2,18,14,10.mid,experiment,0
46,106,22592,74,81,1,2,18,14,10.mid,experiment,0
47,108,22840,71,75,1,2,18,14,10.mid,experiment,0
48,111,23127,72,58,1,2,18,14,10.mid,experiment,0
49,113,23380,72,60,1,2,18,14,10.mid,experiment,0
50,115,23644,74,58,1,2,18,14,10.mid,experiment,0
51,117,23901,74,56,1,2,18,14,10.mid,experiment,0
52,119,24206,76,45,1,2,18,14,10.mid,experiment,0
53,121,25268,65,53,1,2,18,14,10.mid,experiment,0
54,123,25530,65,59,1,2,18,14,10.mid,experiment,0
55,125,25791,64,52,1,2,18,14,10.mid,experiment,0
56,127,26058,64,44,1,2,18,14,10.mid,experiment,0
57,129,26380,62,39,1,2,18,14,10.mid,experiment,0
58,131,27416,67,53,1,2,18,14,10.mid,experiment,0
59,133,27683,67,52,1,2,18,14,10.mid,experiment,0
60,135,27952,71,54,1,2,18,14,10.mid,experiment,0
61,137,28228,71,43,1,2,18,14,10.mid,experiment,0
62,139,28472,72,57,1,2,18,14,10.mid,experiment,0
63,141,28736,72,57,1,2,18,14,10.mid,experiment,0
64,143,29006,73,63,1,2,18,14,10.mid,experiment,0
65,145,29261,73,66,1,2,18,14,10.mid,experiment,0
66,147,29550,74,88,1,2,18,14,10.mid,experiment,0
67,148,30112,77,89,1,2,18,14,10.mid,experiment,0
68,150,30662,76,82,1,2,18,14,10.mid,experiment,0
69,153,31199,74,78,1,2,18,14,10.mid,experiment,0
70,155,31760,72,91,1,2,18,14,10.mid,experiment,0
71,157,32343,84,87,1,2,18,14,10.mid,experiment,0
72,159,32931,84,79,1,2,18,14,10.mid,experiment,0
1,17,9152,79,87,1,2,19,1,9.mid,experiment,0
2,18,9434,78,100,1,2,19,1,9.mid,experiment,0
3,20,9712,79,97,1,2,19,1,9.mid,experiment,0
4,22,9962,76,95,1,2,19,1,9.mid,experiment,0
5,24,10244,72,96,1,2,19,1,9.mid,experiment,0
6,27,10816,67,58,1,2,19,1,9.mid,experiment,0
7,29,11089,67,54,1,2,19,1,9.mid,experiment,0
8,31,11359,67,63,1,2,19,1,9.mid,experiment,0
9,33,11615,79,90,1,2,19,1,9.mid,experiment,0
10,34,11872,78,100,1,2,19,1,9.mid,experiment,0
11,36,12137,79,100,1,2,19,1,9.mid,experiment,0
12,38,12397,76,94,1,2,19,1,9.mid,experiment,0
13,40,12655,72,101,1,2,19,1,9.mid,experiment,0
14,42,12911,76,98,1,2,19,1,9.mid,experiment,0
15,44,13173,79,100,1,2,19,1,9.mid,experiment,0
16,46,13418,84,104,1,2,19,1,9.mid,experiment,0
17,48,13683,83,105,1,2,19,1,9.mid,experiment,0
18,51,14015,81,53,1,2,19,1,9.mid,experiment,0
19,53,14262,81,59,1,2,19,1,9.mid,experiment,0
20,55,14524,81,63,1,2,19,1,9.mid,experiment,0
21,57,14778,83,95,1,2,19,1,9.mid,experiment,0
22,58,15016,81,106,1,2,19,1,9.mid,experiment,0
23,60,15277,84,105,1,2,19,1,9.mid,experiment,0
24,62,15533,81,104,1,2,19,1,9.mid,experiment,0
25,64,15789,78,105,1,2,19,1,9.mid,experiment,0
26,66,16066,79,105,1,2,19,1,9.mid,experiment,0
27,69,16338,79,91,1,2,19,1,9.mid,experiment,0
28,71,16875,79,95,1,2,19,1,9.mid,experiment,0
29,73,17942,77,68,1,2,19,1,9.mid,experiment,0
30,75,18188,77,74,1,2,19,1,9.mid,experiment,0
31,77,18448,76,62,1,2,19,1,9.mid,experiment,0
32,79,18711,76,50,1,2,19,1,9.mid,experiment,0
33,81,19038,74,54,1,2,19,1,9.mid,experiment,0
34,83,20167,79,49,1,2,19,1,9.mid,experiment,0
35,85,20727,77,48,1,2,19,1,9.mid,experiment,0
36,87,21258,76,47,1,2,19,1,9.mid,experiment,0
37,89,21519,76,55,1,2,19,1,9.mid,experiment,0
38,91,21766,76,59,1,2,19,1,9.mid,experiment,0
39,93,22020,76,59,1,2,19,1,9.mid,experiment,0
40,95,22288,81,87,1,2,19,1,9.mid,experiment,0
41,96,22537,77,99,1,2,19,1,9.mid,experiment,0
42,98,22783,76,101,1,2,19,1,9.mid,experiment,0
43,100,23026,74,95,1,2,19,1,9.mid,experiment,0
44,102,23289,76,104,1,2,19,1,9.mid,experiment,0
45,104,23535,79,89,1,2,19,1,9.mid,experiment,0
46,106,23768,74,95,1,2,19,1,9.mid,experiment,0
47,108,24031,71,91,1,2,19,1,9.mid,experiment,0
48,111,24307,72,68,1,2,19,1,9.mid,experiment,0
49,113,24553,72,63,1,2,19,1,9.mid,experiment,0
50,115,24813,74,65,1,2,19,1,9.mid,experiment,0
51,117,25068,74,66,1,2,19,1,9.mid,experiment,0
52,119,25359,76,52,1,2,19,1,9.mid,experiment,0
53,121,26413,65,66,1,2,19,1,9.mid,experiment,0
54,123,26657,65,67,1,2,19,1,9.mid,experiment,0
55,125,26910,64,66,1,2,19,1,9.mid,experiment,0
56,127,27181,64,52,1,2,19,1,9.mid,experiment,0
57,129,27473,62,48,1,2,19,1,9.mid,experiment,0
58,131,28427,67,60,1,2,19,1,9.mid,experiment,0
59,133,28681,67,47,1,2,19,1,9.mid,experiment,0
60,135,28937,71,56,1,2,19,1,9.mid,experiment,0
61,137,29190,71,59,1,2,19,1,9.mid,experiment,0
62,139,29442,72,57,1,2,19,1,9.mid,experiment,0
63,141,29694,72,52,1,2,19,1,9.mid,experiment,0
64,143,29938,73,63,1,2,19,1,9.mid,experiment,0
65,145,30208,73,66,1,2,19,1,9.mid,experiment,0
66,147,30470,74,112,1,2,19,1,9.mid,experiment,0
67,148,30983,77,99,1,2,19,1,9.mid,experiment,0
68,150,31496,76,98,1,2,19,1,9.mid,experiment,0
69,152,31990,74,101,1,2,19,1,9.mid,experiment,0
70,154,32517,72,109,1,2,19,1,9.mid,experiment,0
71,157,33046,84,107,1,2,19,1,9.mid,experiment,0
72,159,33598,84,121,1,2,19,1,9.mid,experiment,0
1,17,8618,79,86,1,2,19,3,3.mid,experiment,0
2,18,8937,78,98,1,2,19,3,3.mid,experiment,0
3,20,9234,79,95,1,2,19,3,3.mid,experiment,0
4,22,9520,76,89,1,2,19,3,3.mid,experiment,0
5,24,9816,72,93,1,2,19,3,3.mid,experiment,0
6,27,10169,67,55,1,2,19,3,3.mid,experiment,0
7,29,10468,67,68,1,2,19,3,3.mid,experiment,0
8,31,10763,67,62,1,2,19,3,3.mid,experiment,0
9,33,11076,79,100,1,2,19,3,3.mid,experiment,0
10,34,11366,78,106,1,2,19,3,3.mid,experiment,0
11,36,11652,79,106,1,2,19,3,3.mid,experiment,0
12,38,11948,76,97,1,2,19,3,3.mid,experiment,0
13,40,12235,72,97,1,2,19,3,3.mid,experiment,0
14,42,12532,76,103,1,2,19,3,3.mid,experiment,0
15,44,12826,79,96,1,2,19,3,3.mid,experiment,0
16,46,13092,84,97,1,2,19,3,3.mid,experiment,0
17,48,13387,83,97,1,2,19,3,3.mid,experiment,0
18,51,13675,81,63,1,2,19,3,3.mid,experiment,0
19,53,13987,81,60,1,2,19,3,3.mid,experiment,0
20,55,14270,81,71,1,2,19,3,3.mid,experiment,0
21,57,14564,83,107,1,2,19,3,3.mid,experiment,0
22,58,14846,81,112,1,2,19,3,3.mid,experiment,0
23,60,15116,84,103,1,2,19,3,3.mid,experiment,0
24,62,15402,81,101,1,2,19,3,3.mid,experiment,0
25,64,15695,78,101,1,2,19,3,3.mid,experiment,0
26,66,15974,79,98,1,2,19,3,3.mid,experiment,0
27,69,16290,79,93,1,2,19,3,3.mid,experiment,0
28,71,16939,79,95,1,2,19,3,3.mid,experiment,0
29,73,18179,77,63,1,2,19,3,3.mid,experiment,0
30,75,18454,77,57,1,2,19,3,3.mid,experiment,0
31,77,18767,76,43,1,2,19,3,3.mid,experiment,0
32,79,19033,76,43,1,2,19,3,3.mid,experiment,0
33,81,19358,74,49,1,2,19,3,3.mid,experiment,0
34,83,20582,79,51,1,2,19,3,3.mid,experiment,0
35,85,21147,77,52,1,2,19,3,3.mid,experiment,0
36,87,21751,76,48,1,2,19,3,3.mid,experiment,0
37,89,22033,76,55,1,2,19,3,3.mid,experiment,0
38,91,22317,76,48,1,2,19,3,3.mid,experiment,0
39,93,22614,76,41,1,2,19,3,3.mid,experiment,0
40,95,22906,81,86,1,2,19,3,3.mid,experiment,0
41,96,23164,77,105,1,2,19,3,3.mid,experiment,0
42,98,23433,76,106,1,2,19,3,3.mid,experiment,0
43,100,23696,74,101,1,2,19,3,3.mid,experiment,0
44,103,23982,76,112,1,2,19,3,3.mid,experiment,0
45,104,24245,79,91,1,2,19,3,3.mid,experiment,0
46,106,24526,74,101,1,2,19,3,3.mid,experiment,0
47,108,24795,71,87,1,2,19,3,3.mid,experiment,0
48,111,25130,72,65,1,2,19,3,3.mid,experiment,0
49,113,25413,72,57,1,2,19,3,3.mid,experiment,0
50,115,25674,74,57,1,2,19,3,3.mid,experiment,0
51,117,25963,74,59,1,2,19,3,3.mid,experiment,0
52,119,26262,76,54,1,2,19,3,3.mid,experiment,0
53,121,27456,65,42,1,2,19,3,3.mid,experiment,0
54,123,27704,65,54,1,2,19,3,3.mid,experiment,0
55,125,27998,64,48,1,2,19,3,3.mid,experiment,0
56,127,28264,64,56,1,2,19,3,3.mid,experiment,0
57,129,28613,62,39,1,2,19,3,3.mid,experiment,0
58,131,29748,67,53,1,2,19,3,3.mid,experiment,0
59,133,30020,67,57,1,2,19,3,3.mid,experiment,0
60,135,30306,71,58,1,2,19,3,3.mid,experiment,0
61,137,30578,71,60,1,2,19,3,3.mid,experiment,0
62,139,30861,72,58,1,2,19,3,3.mid,experiment,0
63,141,31128,72,57,1,2,19,3,3.mid,experiment,0
64,143,31396,73,63,1,2,19,3,3.mid,experiment,0
65,145,31669,73,66,1,2,19,3,3.mid,experiment,0
66,147,31981,74,103,1,2,19,3,3.mid,experiment,0
67,148,32551,77,101,1,2,19,3,3.mid,experiment,0
68,150,33121,76,104,1,2,19,3,3.mid,experiment,0
69,152,33680,74,107,1,2,19,3,3.mid,experiment,0
70,154,34240,72,112,1,2,19,3,3.mid,experiment,0
71,157,34828,84,112,1,2,19,3,3.mid,experiment,0
72,159,35435,84,115,1,2,19,3,3.mid,experiment,0
1,17,8420,79,55,1,2,19,5,7.mid,experiment,0
2,18,8756,78,75,1,2,19,5,7.mid,experiment,0
3,20,9079,79,77,1,2,19,5,7.mid,experiment,0
4,22,9385,76,78,1,2,19,5,7.mid,experiment,0
5,24,9705,72,73,1,2,19,5,7.mid,experiment,0
6,27,10049,67,62,1,2,19,5,7.mid,experiment,0
7,29,10394,67,56,1,2,19,5,7.mid,experiment,0
8,31,10719,67,62,1,2,19,5,7.mid,experiment,0
9,33,11065,79,74,1,2,19,5,7.mid,experiment,0
10,34,11370,78,84,1,2,19,5,7.mid,experiment,0
11,36,11691,79,84,1,2,19,5,7.mid,experiment,0
12,38,12016,76,86,1,2,19,5,7.mid,experiment,0
13,40,12338,72,88,1,2,19,5,7.mid,experiment,0
14,42,12679,76,81,1,2,19,5,7.mid,experiment,0
15,44,13003,79,81,1,2,19,5,7.mid,experiment,0
16,46,13323,84,96,1,2,19,5,7.mid,experiment,0
17,48,13672,83,89,1,2,19,5,7.mid,experiment,0
18,51,14019,81,60,1,2,19,5,7.mid,experiment,0
19,53,14349,81,56,1,2,19,5,7.mid,experiment,0
20,55,14675,81,60,1,2,19,5,7.mid,experiment,0
21,57,15037,83,80,1,2,19,5,7.mid,experiment,0
22,58,15349,81,103,1,2,19,5,7.mid,experiment,0
23,60,15683,84,104,1,2,19,5,7.mid,experiment,0
24,62,15992,81,99,1,2,19,5,7.mid,experiment,0
25,64,16331,78,95,1,2,19,5,7.mid,experiment,0
26,66,16664,79,87,1,2,19,5,7.mid,experiment,0
27,69,17040,79,81,1,2,19,5,7.mid,experiment,0
28,71,17741,79,72,1,2,19,5,7.mid,experiment,0
29,73,19105,77,65,1,2,19,5,7.mid,experiment,0
30,75,19448,77,62,1,2,19,5,7.mid,experiment,0
31,77,19772,76,57,1,2,19,5,7.mid,experiment,0
32,79,20111,76,53,1,2,19,5,7.mid,experiment,0
33,81,20464,74,55,1,2,19,5,7.mid,experiment,0
34,83,21898,79,65,1,2,19,5,7.mid,experiment,0
35,84,22582,77,61,1,2,19,5,7.mid,experiment,0
36,87,23314,76,32,1,2,19,5,7.mid,experiment,0
37,89,23671,76,34,1,2,19,5,7.mid,experiment,0
38,91,23955,76,61,1,2,19,5,7.mid,experiment,0
39,93,24277,76,52,1,2,19,5,7.mid,experiment,0
40,95,24636,81,70,1,2,19,5,7.mid,experiment,0
41,96,24932,77,86,1,2,19,5,7.mid,experiment,0
42,98,25235,76,91,1,2,19,5,7.mid,experiment,0
43,100,25534,74,91,1,2,19,5,7.mid,experiment,0
44,102,25846,76,95,1,2,19,5,7.mid,experiment,0
45,104,26129,79,85,1,2,19,5,7.mid,experiment,0
46,106,26433,74,86,1,2,19,5,7.mid,experiment,0
47,108,26738,71,80,1,2,19,5,7.mid,experiment,0
48,110,27041,72,93,1,2,19,5,7.mid,experiment,0
49,113,27345,72,82,1,2,19,5,7.mid,experiment,0
50,115,27644,74,88,1,2,19,5,7.mid,experiment,0
51,117,27951,74,84,1,2,19,5,7.mid,experiment,0
52,119,28285,76,81,1,2,19,5,7.mid,experiment,0
53,121,29531,65,65,1,2,19,5,7.mid,experiment,0
54,123,29819,65,62,1,2,19,5,7.mid,experiment,0
55,125,30123,64,64,1,2,19,5,7.mid,experiment,0
56,127,30419,64,60,1,2,19,5,7.mid,experiment,0
57,129,30765,62,51,1,2,19,5,7.mid,experiment,0
58,131,31953,67,71,1,2,19,5,7.mid,experiment,0
59,133,32249,67,63,1,2,19,5,7.mid,experiment,0
60,135,32555,71,64,1,2,19,5,7.mid,experiment,0
61,137,32867,71,46,1,2,19,5,7.mid,experiment,0
62,139,33156,72,60,1,2,19,5,7.mid,experiment,0
63,141,33452,72,64,1,2,19,5,7.mid,experiment,0
64,143,33731,73,74,1,2,19,5,7.mid,experiment,0
65,145,34034,73,72,1,2,19,5,7.mid,experiment,0
66,147,34408,74,91,1,2,19,5,7.mid,experiment,0
67,149,35030,77,95,1,2,19,5,7.mid,experiment,0
68,151,35649,76,94,1,2,19,5,7.mid,experiment,0
69,153,36257,74,97,1,2,19,5,7.mid,experiment,0
70,155,36897,72,96,1,2,19,5,7.mid,experiment,0
71,157,37544,84,103,1,2,19,5,7.mid,experiment,0
72,159,38189,84,107,1,2,19,5,7.mid,experiment,0
1,17,9816,79,59,1,2,19,7,5.mid,experiment,0
2,18,10116,78,84,1,2,19,7,5.mid,experiment,0
3,20,10408,79,94,1,2,19,7,5.mid,experiment,0
4,22,10682,76,91,1,2,19,7,5.mid,experiment,0
5,24,10969,72,103,1,2,19,7,5.mid,experiment,0
6,27,11300,67,67,1,2,19,7,5.mid,experiment,0
7,29,11597,67,51,1,2,19,7,5.mid,experiment,0
8,31,11864,67,68,1,2,19,7,5.mid,experiment,0
9,33,12150,79,86,1,2,19,7,5.mid,experiment,0
10,34,12412,78,104,1,2,19,7,5.mid,experiment,0
11,36,12686,79,97,1,2,19,7,5.mid,experiment,0
12,38,12946,76,97,1,2,19,7,5.mid,experiment,0
13,40,13212,72,99,1,2,19,7,5.mid,experiment,0
14,42,13483,76,101,1,2,19,7,5.mid,experiment,0
15,44,13750,79,98,1,2,19,7,5.mid,experiment,0
16,46,14018,84,97,1,2,19,7,5.mid,experiment,0
17,48,14290,83,98,1,2,19,7,5.mid,experiment,0
18,51,14582,81,67,1,2,19,7,5.mid,experiment,0
19,53,14870,81,53,1,2,19,7,5.mid,experiment,0
20,55,15124,81,70,1,2,19,7,5.mid,experiment,0
21,57,15396,83,99,1,2,19,7,5.mid,experiment,0
22,58,15660,81,106,1,2,19,7,5.mid,experiment,0
23,60,15928,84,104,1,2,19,7,5.mid,experiment,0
24,62,16182,81,101,1,2,19,7,5.mid,experiment,0
25,64,16468,78,89,1,2,19,7,5.mid,experiment,0
26,66,16732,79,97,1,2,19,7,5.mid,experiment,0
27,69,17055,79,98,1,2,19,7,5.mid,experiment,0
28,71,17662,79,91,1,2,19,7,5.mid,experiment,0
29,73,18812,77,79,1,2,19,7,5.mid,experiment,0
30,75,19071,77,70,1,2,19,7,5.mid,experiment,0
31,77,19348,76,54,1,2,19,7,5.mid,experiment,0
32,79,19596,76,63,1,2,19,7,5.mid,experiment,0
33,81,19890,74,65,1,2,19,7,5.mid,experiment,0
34,83,21018,79,70,1,2,19,7,5.mid,experiment,0
35,85,21582,77,67,1,2,19,7,5.mid,experiment,0
36,87,22160,76,60,1,2,19,7,5.mid,experiment,0
37,89,22422,76,60,1,2,19,7,5.mid,experiment,0
38,91,22696,76,56,1,2,19,7,5.mid,experiment,0
39,93,22952,76,56,1,2,19,7,5.mid,experiment,0
40,95,23232,81,79,1,2,19,7,5.mid,experiment,0
41,96,23498,77,98,1,2,19,7,5.mid,experiment,0
42,98,23752,76,91,1,2,19,7,5.mid,experiment,0
43,100,24013,74,94,1,2,19,7,5.mid,experiment,0
44,102,24276,76,99,1,2,19,7,5.mid,experiment,0
45,104,24540,79,86,1,2,19,7,5.mid,experiment,0
46,106,24792,74,87,1,2,19,7,5.mid,experiment,0
47,108,25068,71,70,1,2,19,7,5.mid,experiment,0
48,111,25326,72,71,1,2,19,7,5.mid,experiment,0
49,113,25590,72,63,1,2,19,7,5.mid,experiment,0
50,115,25862,74,58,1,2,19,7,5.mid,experiment,0
51,117,26122,74,63,1,2,19,7,5.mid,experiment,0
52,119,26412,76,50,1,2,19,7,5.mid,experiment,0
53,121,27528,65,68,1,2,19,7,5.mid,experiment,0
54,123,27785,65,65,1,2,19,7,5.mid,experiment,0
55,125,28066,64,57,1,2,19,7,5.mid,experiment,0
56,127,28326,64,56,1,2,19,7,5.mid,experiment,0
57,129,28648,62,50,1,2,19,7,5.mid,experiment,0
58,131,29700,67,58,1,2,19,7,5.mid,experiment,0
59,133,29975,67,54,1,2,19,7,5.mid,experiment,0
60,135,30242,71,58,1,2,19,7,5.mid,experiment,0
61,137,30508,71,62,1,2,19,7,5.mid,experiment,0
62,139,30780,72,61,1,2,19,7,5.mid,experiment,0
63,141,31054,72,58,1,2,19,7,5.mid,experiment,0
64,143,31308,73,67,1,2,19,7,5.mid,experiment,0
65,145,31568,73,76,1,2,19,7,5.mid,experiment,0
66,147,31892,74,99,1,2,19,7,5.mid,experiment,0
67,149,32434,77,99,1,2,19,7,5.mid,experiment,0
68,151,32996,76,98,1,2,19,7,5.mid,experiment,0
69,153,33544,74,107,1,2,19,7,5.mid,experiment,0
70,155,34117,72,107,1,2,19,7,5.mid,experiment,0
71,157,34700,84,116,1,2,19,7,5.mid,experiment,0
72,159,35371,84,124,1,2,19,7,5.mid,experiment,0
1,17,8988,79,79,1,2,19,8,12.mid,experiment,0
2,18,9243,78,103,1,2,19,8,12.mid,experiment,0
3,20,9518,79,96,1,2,19,8,12.mid,experiment,0
4,22,9771,76,90,1,2,19,8,12.mid,experiment,0
5,24,10031,72,99,1,2,19,8,12.mid,experiment,0
6,27,10293,67,76,1,2,19,8,12.mid,experiment,0
7,29,10571,67,64,1,2,19,8,12.mid,experiment,0
8,31,10825,67,56,1,2,19,8,12.mid,experiment,0
9,33,11067,79,86,1,2,19,8,12.mid,experiment,0
10,34,11327,78,105,1,2,19,8,12.mid,experiment,0
11,36,11585,79,107,1,2,19,8,12.mid,experiment,0
12,38,11840,76,103,1,2,19,8,12.mid,experiment,0
13,40,12086,72,104,1,2,19,8,12.mid,experiment,0
14,42,12331,76,99,1,2,19,8,12.mid,experiment,0
15,44,12594,79,100,1,2,19,8,12.mid,experiment,0
16,46,12843,84,99,1,2,19,8,12.mid,experiment,0
17,48,13101,83,98,1,2,19,8,12.mid,experiment,0
18,51,13364,81,65,1,2,19,8,12.mid,experiment,0
19,53,13622,81,64,1,2,19,8,12.mid,experiment,0
20,55,13864,81,72,1,2,19,8,12.mid,experiment,0
21,57,14114,83,104,1,2,19,8,12.mid,experiment,0
22,58,14369,81,112,1,2,19,8,12.mid,experiment,0
23,60,14617,84,103,1,2,19,8,12.mid,experiment,0
24,62,14876,81,106,1,2,19,8,12.mid,experiment,0
25,64,15133,78,99,1,2,19,8,12.mid,experiment,0
26,66,15377,79,96,1,2,19,8,12.mid,experiment,0
27,69,15663,79,97,1,2,19,8,12.mid,experiment,0
28,71,16195,79,91,1,2,19,8,12.mid,experiment,0
29,73,17217,77,76,1,2,19,8,12.mid,experiment,0
30,75,17461,77,71,1,2,19,8,12.mid,experiment,0
31,77,17724,76,57,1,2,19,8,12.mid,experiment,0
32,79,17955,76,62,1,2,19,8,12.mid,experiment,0
33,81,18238,74,63,1,2,19,8,12.mid,experiment,0
34,83,19301,79,67,1,2,19,8,12.mid,experiment,0
35,85,19817,77,58,1,2,19,8,12.mid,experiment,0
36,87,20331,76,55,1,2,19,8,12.mid,experiment,0
37,89,20583,76,63,1,2,19,8,12.mid,experiment,0
38,91,20836,76,62,1,2,19,8,12.mid,experiment,0
39,93,21085,76,63,1,2,19,8,12.mid,experiment,0
40,95,21334,81,95,1,2,19,8,12.mid,experiment,0
41,96,21587,77,106,1,2,19,8,12.mid,experiment,0
42,98,21826,76,109,1,2,19,8,12.mid,experiment,0
43,100,22073,74,105,1,2,19,8,12.mid,experiment,0
44,103,22340,76,110,1,2,19,8,12.mid,experiment,0
45,104,22584,79,98,1,2,19,8,12.mid,experiment,0
46,106,22826,74,103,1,2,19,8,12.mid,experiment,0
47,108,23075,71,88,1,2,19,8,12.mid,experiment,0
48,111,23351,72,59,1,2,19,8,12.mid,experiment,0
49,113,23606,72,56,1,2,19,8,12.mid,experiment,0
50,115,23846,74,57,1,2,19,8,12.mid,experiment,0
51,117,24118,74,57,1,2,19,8,12.mid,experiment,0
52,119,24398,76,56,1,2,19,8,12.mid,experiment,0
53,121,25440,65,71,1,2,19,8,12.mid,experiment,0
54,123,25681,65,63,1,2,19,8,12.mid,experiment,0
55,125,25943,64,60,1,2,19,8,12.mid,experiment,0
56,127,26200,64,61,1,2,19,8,12.mid,experiment,0
57,129,26518,62,50,1,2,19,8,12.mid,experiment,0
58,131,27504,67,60,1,2,19,8,12.mid,experiment,0
59,133,27770,67,68,1,2,19,8,12.mid,experiment,0
60,135,28024,71,70,1,2,19,8,12.mid,experiment,0
61,137,28282,71,70,1,2,19,8,12.mid,experiment,0
62,139,28525,72,65,1,2,19,8,12.mid,experiment,0
63,141,28788,72,63,1,2,19,8,12.mid,experiment,0
64,143,29037,73,72,1,2,19,8,12.mid,experiment,0
65,145,29290,73,71,1,2,19,8,12.mid,experiment,0
66,147,29565,74,112,1,2,19,8,12.mid,experiment,0
67,148,30088,77,106,1,2,19,8,12.mid,experiment,0
68,151,30620,76,99,1,2,19,8,12.mid,experiment,0
69,152,31158,74,112,1,2,19,8,12.mid,experiment,0
70,154,31695,72,107,1,2,19,8,12.mid,experiment,0
71,157,32241,84,116,1,2,19,8,12.mid,experiment,0
72,159,32832,84,122,1,2,19,8,12.mid,experiment,0
1,17,8414,79,91,1,2,19,10,10.mid,experiment,0
2,18,8678,78,100,1,2,19,10,10.mid,experiment,0
3,20,8951,79,94,1,2,19,10,10.mid,experiment,0
4,22,9205,76,93,1,2,19,10,10.mid,experiment,0
5,24,9458,72,103,1,2,19,10,10.mid,experiment,0
6,27,9734,67,65,1,2,19,10,10.mid,experiment,0
7,29,9997,67,55,1,2,19,10,10.mid,experiment,0
8,31,10237,67,66,1,2,19,10,10.mid,experiment,0
9,33,10460,79,94,1,2,19,10,10.mid,experiment,0
10,34,10729,78,109,1,2,19,10,10.mid,experiment,0
11,36,10977,79,107,1,2,19,10,10.mid,experiment,0
12,38,11236,76,100,1,2,19,10,10.mid,experiment,0
13,40,11485,72,105,1,2,19,10,10.mid,experiment,0
14,42,11725,76,104,1,2,19,10,10.mid,experiment,0
15,44,11988,79,99,1,2,19,10,10.mid,experiment,0
16,46,12214,84,101,1,2,19,10,10.mid,experiment,0
17,48,12481,83,99,1,2,19,10,10.mid,experiment,0
18,51,12729,81,74,1,2,19,10,10.mid,experiment,0
19,53,13007,81,63,1,2,19,10,10.mid,experiment,0
20,55,13244,81,72,1,2,19,10,10.mid,experiment,0
21,57,13494,83,121,1,2,19,10,10.mid,experiment,0
22,58,13743,81,114,1,2,19,10,10.mid,experiment,0
23,60,13995,84,112,1,2,19,10,10.mid,experiment,0
24,62,14248,81,110,1,2,19,10,10.mid,experiment,0
25,64,14517,78,109,1,2,19,10,10.mid,experiment,0
26,66,14744,79,109,1,2,19,10,10.mid,experiment,0
27,69,15024,79,115,1,2,19,10,10.mid,experiment,0
28,71,15589,79,106,1,2,19,10,10.mid,experiment,0
29,73,16683,77,62,1,2,19,10,10.mid,experiment,0
30,75,16940,77,63,1,2,19,10,10.mid,experiment,0
31,77,17191,76,55,1,2,19,10,10.mid,experiment,0
32,79,17425,76,66,1,2,19,10,10.mid,experiment,0
33,81,17704,74,65,1,2,19,10,10.mid,experiment,0
34,83,18825,79,60,1,2,19,10,10.mid,experiment,0
35,85,19346,77,63,1,2,19,10,10.mid,experiment,0
36,87,19864,76,63,1,2,19,10,10.mid,experiment,0
37,89,20113,76,61,1,2,19,10,10.mid,experiment,0
38,91,20362,76,55,1,2,19,10,10.mid,experiment,0
39,93,20622,76,50,1,2,19,10,10.mid,experiment,0
40,95,20872,81,91,1,2,19,10,10.mid,experiment,0
41,96,21117,77,106,1,2,19,10,10.mid,experiment,0
42,98,21363,76,106,1,2,19,10,10.mid,experiment,0
43,100,21618,74,103,1,2,19,10,10.mid,experiment,0
44,103,21877,76,110,1,2,19,10,10.mid,experiment,0
45,104,22120,79,93,1,2,19,10,10.mid,experiment,0
46,106,22367,74,94,1,2,19,10,10.mid,experiment,0
47,108,22624,71,81,1,2,19,10,10.mid,experiment,0
48,111,22885,72,72,1,2,19,10,10.mid,experiment,0
49,113,23129,72,60,1,2,19,10,10.mid,experiment,0
50,115,23379,74,61,1,2,19,10,10.mid,experiment,0
51,117,23632,74,66,1,2,19,10,10.mid,experiment,0
52,119,23916,76,68,1,2,19,10,10.mid,experiment,0
53,121,24969,65,63,1,2,19,10,10.mid,experiment,0
54,123,25203,65,65,1,2,19,10,10.mid,experiment,0
55,125,25470,64,57,1,2,19,10,10.mid,experiment,0
56,127,25716,64,55,1,2,19,10,10.mid,experiment,0
57,129,26037,62,48,1,2,19,10,10.mid,experiment,0
58,131,27033,67,59,1,2,19,10,10.mid,experiment,0
59,133,27289,67,59,1,2,19,10,10.mid,experiment,0
60,135,27529,71,72,1,2,19,10,10.mid,experiment,0
61,137,27769,71,72,1,2,19,10,10.mid,experiment,0
62,139,28014,72,75,1,2,19,10,10.mid,experiment,0
63,141,28275,72,81,1,2,19,10,10.mid,experiment,0
64,143,28518,73,77,1,2,19,10,10.mid,experiment,0
65,145,28767,73,74,1,2,19,10,10.mid,experiment,0
66,147,29047,74,114,1,2,19,10,10.mid,experiment,0
67,148,29551,77,101,1,2,19,10,10.mid,experiment,0
68,150,30073,76,109,1,2,19,10,10.mid,experiment,0
69,152,30586,74,104,1,2,19,10,10.mid,experiment,0
70,154,31100,72,100,1,2,19,10,10.mid,experiment,0
71,157,31622,84,109,1,2,19,10,10.mid,experiment,0
72,159,32179,84,105,1,2,19,10,10.mid,experiment,0
1,17,11429,79,68,1,2,19,11,13.mid,experiment,0
2,18,11730,78,91,1,2,19,11,13.mid,experiment,0
3,20,12002,79,98,1,2,19,11,13.mid,experiment,0
4,22,12268,76,93,1,2,19,11,13.mid,experiment,0
5,24,12554,72,88,1,2,19,11,13.mid,experiment,0
6,27,12853,67,49,1,2,19,11,13.mid,experiment,0
7,29,13133,67,56,1,2,19,11,13.mid,experiment,0
8,31,13442,67,58,1,2,19,11,13.mid,experiment,0
9,33,13729,79,70,1,2,19,11,13.mid,experiment,0
10,34,13996,78,98,1,2,19,11,13.mid,experiment,0
11,36,14276,79,101,1,2,19,11,13.mid,experiment,0
12,38,14544,76,97,1,2,19,11,13.mid,experiment,0
13,40,14810,72,99,1,2,19,11,13.mid,experiment,0
14,42,15094,76,100,1,2,19,11,13.mid,experiment,0
15,44,15376,79,97,1,2,19,11,13.mid,experiment,0
16,46,15634,84,98,1,2,19,11,13.mid,experiment,0
17,48,15916,83,99,1,2,19,11,13.mid,experiment,0
18,51,16200,81,70,1,2,19,11,13.mid,experiment,0
19,53,16480,81,66,1,2,19,11,13.mid,experiment,0
20,55,16759,81,60,1,2,19,11,13.mid,experiment,0
21,57,17080,83,83,1,2,19,11,13.mid,experiment,0
22,58,17348,81,91,1,2,19,11,13.mid,experiment,0
23,60,17622,84,100,1,2,19,11,13.mid,experiment,0
24,62,17878,81,104,1,2,19,11,13.mid,experiment,0
25,64,18165,78,100,1,2,19,11,13.mid,experiment,0
26,66,18452,79,101,1,2,19,11,13.mid,experiment,0
27,69,18768,79,93,1,2,19,11,13.mid,experiment,0
28,71,19358,79,87,1,2,19,11,13.mid,experiment,0
29,73,20607,77,55,1,2,19,11,13.mid,experiment,0
30,75,20866,77,67,1,2,19,11,13.mid,experiment,0
31,77,21129,76,66,1,2,19,11,13.mid,experiment,0
32,79,21400,76,63,1,2,19,11,13.mid,experiment,0
33,81,21714,74,58,1,2,19,11,13.mid,experiment,0
34,83,22842,79,75,1,2,19,11,13.mid,experiment,0
35,85,23410,77,68,1,2,19,11,13.mid,experiment,0
36,87,23995,76,61,1,2,19,11,13.mid,experiment,0
37,89,24250,76,69,1,2,19,11,13.mid,experiment,0
38,91,24527,76,55,1,2,19,11,13.mid,experiment,0
39,93,24808,76,58,1,2,19,11,13.mid,experiment,0
40,95,25168,81,82,1,2,19,11,13.mid,experiment,0
41,96,25466,77,98,1,2,19,11,13.mid,experiment,0
42,98,25713,76,93,1,2,19,11,13.mid,experiment,0
43,100,25959,74,103,1,2,19,11,13.mid,experiment,0
44,102,26210,76,100,1,2,19,11,13.mid,experiment,0
45,104,26465,79,100,1,2,19,11,13.mid,experiment,0
46,106,26713,74,100,1,2,19,11,13.mid,experiment,0
47,108,26967,71,96,1,2,19,11,13.mid,experiment,0
48,111,27279,72,71,1,2,19,11,13.mid,experiment,0
49,113,27536,72,70,1,2,19,11,13.mid,experiment,0
50,115,27826,74,58,1,2,19,11,13.mid,experiment,0
51,117,28066,74,72,1,2,19,11,13.mid,experiment,0
52,119,28393,76,46,1,2,19,11,13.mid,experiment,0
53,121,29443,65,68,1,2,19,11,13.mid,experiment,0
54,123,29696,65,62,1,2,19,11,13.mid,experiment,0
55,125,29984,64,48,1,2,19,11,13.mid,experiment,0
56,127,30239,64,58,1,2,19,11,13.mid,experiment,0
57,129,30566,62,47,1,2,19,11,13.mid,experiment,0
58,131,31619,67,56,1,2,19,11,13.mid,experiment,0
59,133,31886,67,62,1,2,19,11,13.mid,experiment,0
60,135,32144,71,66,1,2,19,11,13.mid,experiment,0
61,137,32407,71,65,1,2,19,11,13.mid,experiment,0
62,139,32684,72,57,1,2,19,11,13.mid,experiment,0
63,141,32944,72,58,1,2,19,11,13.mid,experiment,0
64,143,33210,73,61,1,2,19,11,13.mid,experiment,0
65,145,33486,73,67,1,2,19,11,13.mid,experiment,0
66,147,33822,74,95,1,2,19,11,13.mid,experiment,0
67,149,34405,77,100,1,2,19,11,13.mid,experiment,0
68,150,34936,76,96,1,2,19,11,13.mid,experiment,0
69,152,35478,74,105,1,2,19,11,13.mid,experiment,0
70,154,36036,72,95,1,2,19,11,13.mid,experiment,0
71,156,36608,84,106,1,2,19,11,13.mid,experiment,0
72,159,37226,84,114,1,2,19,11,13.mid,experiment,0
1,17,8338,79,65,1,2,19,12,14.mid,experiment,0
2,18,8603,78,88,1,2,19,12,14.mid,experiment,0
3,20,8868,79,91,1,2,19,12,14.mid,experiment,0
4,22,9129,76,90,1,2,19,12,14.mid,experiment,0
5,24,9405,72,87,1,2,19,12,14.mid,experiment,0
6,27,9714,67,54,1,2,19,12,14.mid,experiment,0
7,29,10000,67,56,1,2,19,12,14.mid,experiment,0
8,31,10282,67,57,1,2,19,12,14.mid,experiment,0
9,33,10578,79,56,1,2,19,12,14.mid,experiment,0
10,34,10846,78,97,1,2,19,12,14.mid,experiment,0
11,36,11120,79,99,1,2,19,12,14.mid,experiment,0
12,38,11404,76,98,1,2,19,12,14.mid,experiment,0
13,40,11661,72,98,1,2,19,12,14.mid,experiment,0
14,42,11937,76,100,1,2,19,12,14.mid,experiment,0
15,44,12207,79,96,1,2,19,12,14.mid,experiment,0
16,46,12461,84,100,1,2,19,12,14.mid,experiment,0
17,48,12728,83,99,1,2,19,12,14.mid,experiment,0
18,51,13270,81,70,1,2,19,12,14.mid,experiment,0
19,53,13528,81,81,1,2,19,12,14.mid,experiment,0
20,55,13797,81,81,1,2,19,12,14.mid,experiment,0
21,57,14056,83,105,1,2,19,12,14.mid,experiment,0
22,58,14331,81,106,1,2,19,12,14.mid,experiment,0
23,60,14598,84,100,1,2,19,12,14.mid,experiment,0
24,62,14869,81,95,1,2,19,12,14.mid,experiment,0
25,64,15151,78,93,1,2,19,12,14.mid,experiment,0
26,66,15410,79,93,1,2,19,12,14.mid,experiment,0
27,69,15715,79,91,1,2,19,12,14.mid,experiment,0
28,71,16303,79,78,1,2,19,12,14.mid,experiment,0
29,73,17317,77,79,1,2,19,12,14.mid,experiment,0
30,75,17589,77,63,1,2,19,12,14.mid,experiment,0
31,77,17852,76,59,1,2,19,12,14.mid,experiment,0
32,79,18107,76,63,1,2,19,12,14.mid,experiment,0
33,81,18389,74,62,1,2,19,12,14.mid,experiment,0
34,83,19552,79,67,1,2,19,12,14.mid,experiment,0
35,85,20103,77,66,1,2,19,12,14.mid,experiment,0
36,87,20645,76,62,1,2,19,12,14.mid,experiment,0
37,89,20906,76,74,1,2,19,12,14.mid,experiment,0
38,91,21173,76,68,1,2,19,12,14.mid,experiment,0
39,93,21439,76,57,1,2,19,12,14.mid,experiment,0
40,95,21701,81,103,1,2,19,12,14.mid,experiment,0
41,96,21955,77,104,1,2,19,12,14.mid,experiment,0
42,98,22214,76,103,1,2,19,12,14.mid,experiment,0
43,100,22473,74,91,1,2,19,12,14.mid,experiment,0
44,102,22732,76,90,1,2,19,12,14.mid,experiment,0
45,104,22990,79,89,1,2,19,12,14.mid,experiment,0
46,106,23249,74,89,1,2,19,12,14.mid,experiment,0
47,108,23498,71,75,1,2,19,12,14.mid,experiment,0
48,111,23740,72,88,1,2,19,12,14.mid,experiment,0
49,113,24002,72,76,1,2,19,12,14.mid,experiment,0
50,115,24251,74,67,1,2,19,12,14.mid,experiment,0
51,117,24517,74,69,1,2,19,12,14.mid,experiment,0
52,119,24815,76,57,1,2,19,12,14.mid,experiment,0
53,121,25847,65,79,1,2,19,12,14.mid,experiment,0
54,123,26100,65,78,1,2,19,12,14.mid,experiment,0
55,125,26366,64,67,1,2,19,12,14.mid,experiment,0
56,127,26623,64,64,1,2,19,12,14.mid,experiment,0
57,129,26929,62,58,1,2,19,12,14.mid,experiment,0
58,131,27969,67,75,1,2,19,12,14.mid,experiment,0
59,133,28242,67,76,1,2,19,12,14.mid,experiment,0
60,135,28500,71,72,1,2,19,12,14.mid,experiment,0
61,137,28761,71,70,1,2,19,12,14.mid,experiment,0
62,139,29010,72,81,1,2,19,12,14.mid,experiment,0
63,141,29259,72,84,1,2,19,12,14.mid,experiment,0
64,143,29528,73,85,1,2,19,12,14.mid,experiment,0
65,145,29801,73,75,1,2,19,12,14.mid,experiment,0
66,147,30094,74,105,1,2,19,12,14.mid,experiment,0
67,148,30630,77,97,1,2,19,12,14.mid,experiment,0
68,150,31170,76,93,1,2,19,12,14.mid,experiment,0
69,152,31701,74,100,1,2,19,12,14.mid,experiment,0
70,154,32276,72,91,1,2,19,12,14.mid,experiment,0
71,157,32820,84,99,1,2,19,12,14.mid,experiment,0
72,159,33410,84,107,1,2,19,12,14.mid,experiment,0
1,17,8863,79,74,1,2,19,14,15.mid,experiment,0
2,18,9113,78,85,1,2,19,14,15.mid,experiment,0
3,20,9377,79,81,1,2,19,14,15.mid,experiment,0
4,22,9634,76,79,1,2,19,14,15.mid,experiment,0
5,24,9910,72,90,1,2,19,14,15.mid,experiment,0
6,27,10172,67,71,1,2,19,14,15.mid,experiment,0
7,29,10449,67,63,1,2,19,14,15.mid,experiment,0
8,31,10717,67,68,1,2,19,14,15.mid,experiment,0
9,33,10971,79,87,1,2,19,14,15.mid,experiment,0
10,34,11233,78,103,1,2,19,14,15.mid,experiment,0
11,36,11490,79,93,1,2,19,14,15.mid,experiment,0
12,38,11737,76,88,1,2,19,14,15.mid,experiment,0
13,40,11993,72,91,1,2,19,14,15.mid,experiment,0
14,42,12255,76,95,1,2,19,14,15.mid,experiment,0
15,44,12505,79,103,1,2,19,14,15.mid,experiment,0
16,46,12769,84,99,1,2,19,14,15.mid,experiment,0
17,48,13025,83,103,1,2,19,14,15.mid,experiment,0
18,51,13272,81,80,1,2,19,14,15.mid,experiment,0
19,53,13547,81,62,1,2,19,14,15.mid,experiment,0
20,55,13793,81,74,1,2,19,14,15.mid,experiment,0
21,57,14054,83,106,1,2,19,14,15.mid,experiment,0
22,58,14311,81,106,1,2,19,14,15.mid,experiment,0
23,60,14572,84,104,1,2,19,14,15.mid,experiment,0
24,62,14820,81,101,1,2,19,14,15.mid,experiment,0
25,64,15097,78,100,1,2,19,14,15.mid,experiment,0
26,66,15337,79,97,1,2,19,14,15.mid,experiment,0
27,69,15624,79,100,1,2,19,14,15.mid,experiment,0
28,71,16174,79,101,1,2,19,14,15.mid,experiment,0
29,73,17249,77,73,1,2,19,14,15.mid,experiment,0
30,75,17494,77,67,1,2,19,14,15.mid,experiment,0
31,77,17766,76,55,1,2,19,14,15.mid,experiment,0
32,79,18017,76,57,1,2,19,14,15.mid,experiment,0
33,81,18292,74,59,1,2,19,14,15.mid,experiment,0
34,83,19407,79,60,1,2,19,14,15.mid,experiment,0
35,85,19935,77,57,1,2,19,14,15.mid,experiment,0
36,87,20458,76,53,1,2,19,14,15.mid,experiment,0
37,89,20707,76,57,1,2,19,14,15.mid,experiment,0
38,91,20995,76,37,1,2,19,14,15.mid,experiment,0
39,93,21237,76,47,1,2,19,14,15.mid,experiment,0
40,95,21516,81,84,1,2,19,14,15.mid,experiment,0
41,96,21787,77,91,1,2,19,14,15.mid,experiment,0
42,98,22023,76,97,1,2,19,14,15.mid,experiment,0
43,100,22278,74,96,1,2,19,14,15.mid,experiment,0
44,102,22545,76,90,1,2,19,14,15.mid,experiment,0
45,104,22786,79,89,1,2,19,14,15.mid,experiment,0
46,106,23036,74,70,1,2,19,14,15.mid,experiment,0
47,109,23302,71,60,1,2,19,14,15.mid,experiment,0
48,110,23555,72,72,1,2,19,14,15.mid,experiment,0
49,113,23794,72,71,1,2,19,14,15.mid,experiment,0
50,115,24053,74,64,1,2,19,14,15.mid,experiment,0
51,117,24310,74,64,1,2,19,14,15.mid,experiment,0
52,119,24613,76,49,1,2,19,14,15.mid,experiment,0
53,121,25641,65,71,1,2,19,14,15.mid,experiment,0
54,123,25898,65,62,1,2,19,14,15.mid,experiment,0
55,125,26147,64,64,1,2,19,14,15.mid,experiment,0
56,127,26403,64,58,1,2,19,14,15.mid,experiment,0
57,129,26697,62,52,1,2,19,14,15.mid,experiment,0
58,131,27743,67,58,1,2,19,14,15.mid,experiment,0
59,133,28006,67,65,1,2,19,14,15.mid,experiment,0
60,135,28252,71,62,1,2,19,14,15.mid,experiment,0
61,137,28514,71,55,1,2,19,14,15.mid,experiment,0
62,139,28747,72,67,1,2,19,14,15.mid,experiment,0
63,141,29007,72,65,1,2,19,14,15.mid,experiment,0
64,143,29254,73,74,1,2,19,14,15.mid,experiment,0
65,145,29526,73,74,1,2,19,14,15.mid,experiment,0
66,147,29804,74,105,1,2,19,14,15.mid,experiment,0
67,148,30335,77,97,1,2,19,14,15.mid,experiment,0
68,150,30874,76,94,1,2,19,14,15.mid,experiment,0
69,152,31419,74,103,1,2,19,14,15.mid,experiment,0
70,154,31952,72,105,1,2,19,14,15.mid,experiment,0
71,157,32472,84,103,1,2,19,14,15.mid,experiment,0
72,159,33034,84,103,1,2,19,14,15.mid,experiment,0
1,17,8409,79,82,1,2,19,15,6.mid,experiment,0
2,18,8688,78,97,1,2,19,15,6.mid,experiment,0
3,20,8969,79,91,1,2,19,15,6.mid,experiment,0
4,22,9244,76,90,1,2,19,15,6.mid,experiment,0
5,24,9585,72,98,1,2,19,15,6.mid,experiment,0
6,27,10227,67,54,1,2,19,15,6.mid,experiment,0
7,29,10519,67,59,1,2,19,15,6.mid,experiment,0
8,31,10789,67,74,1,2,19,15,6.mid,experiment,0
9,33,11070,79,97,1,2,19,15,6.mid,experiment,0
10,34,11333,78,106,1,2,19,15,6.mid,experiment,0
11,36,11596,79,101,1,2,19,15,6.mid,experiment,0
12,38,11859,76,96,1,2,19,15,6.mid,experiment,0
13,40,12129,72,100,1,2,19,15,6.mid,experiment,0
14,42,12395,76,105,1,2,19,15,6.mid,experiment,0
15,44,12659,79,100,1,2,19,15,6.mid,experiment,0
16,46,12914,84,99,1,2,19,15,6.mid,experiment,0
17,48,13184,83,107,1,2,19,15,6.mid,experiment,0
18,51,13647,81,67,1,2,19,15,6.mid,experiment,0
19,53,13936,81,63,1,2,19,15,6.mid,experiment,0
20,55,14193,81,68,1,2,19,15,6.mid,experiment,0
21,57,14553,83,105,1,2,19,15,6.mid,experiment,0
22,58,14823,81,106,1,2,19,15,6.mid,experiment,0
23,60,15083,84,107,1,2,19,15,6.mid,experiment,0
24,62,15342,81,107,1,2,19,15,6.mid,experiment,0
25,64,15635,78,105,1,2,19,15,6.mid,experiment,0
26,67,15931,79,83,1,2,19,15,6.mid,experiment,0
27,69,16223,79,100,1,2,19,15,6.mid,experiment,0
28,71,16843,79,89,1,2,19,15,6.mid,experiment,0
29,73,17921,77,70,1,2,19,15,6.mid,experiment,0
30,75,18191,77,65,1,2,19,15,6.mid,experiment,0
31,77,18443,76,60,1,2,19,15,6.mid,experiment,0
32,79,18701,76,64,1,2,19,15,6.mid,experiment,0
33,81,19007,74,63,1,2,19,15,6.mid,experiment,0
34,83,20141,79,62,1,2,19,15,6.mid,experiment,0
35,85,20681,77,63,1,2,19,15,6.mid,experiment,0
36,87,21232,76,59,1,2,19,15,6.mid,experiment,0
37,89,21501,76,62,1,2,19,15,6.mid,experiment,0
38,91,21777,76,51,1,2,19,15,6.mid,experiment,0
39,93,22049,76,55,1,2,19,15,6.mid,experiment,0
40,95,22452,81,95,1,2,19,15,6.mid,experiment,0
41,96,22713,77,103,1,2,19,15,6.mid,experiment,0
42,98,22965,76,101,1,2,19,15,6.mid,experiment,0
43,100,23221,74,100,1,2,19,15,6.mid,experiment,0
44,103,23498,76,103,1,2,19,15,6.mid,experiment,0
45,104,23739,79,97,1,2,19,15,6.mid,experiment,0
46,106,24004,74,98,1,2,19,15,6.mid,experiment,0
47,108,24260,71,93,1,2,19,15,6.mid,experiment,0
48,111,24827,72,70,1,2,19,15,6.mid,experiment,0
49,113,25098,72,65,1,2,19,15,6.mid,experiment,0
50,115,25368,74,54,1,2,19,15,6.mid,experiment,0
51,117,25627,74,67,1,2,19,15,6.mid,experiment,0
52,119,25913,76,62,1,2,19,15,6.mid,experiment,0
53,121,27063,65,69,1,2,19,15,6.mid,experiment,0
54,123,27307,65,61,1,2,19,15,6.mid,experiment,0
55,125,27595,64,60,1,2,19,15,6.mid,experiment,0
56,127,27857,64,57,1,2,19,15,6.mid,experiment,0
57,129,28160,62,50,1,2,19,15,6.mid,experiment,0
58,131,29243,67,65,1,2,19,15,6.mid,experiment,0
59,133,29510,67,54,1,2,19,15,6.mid,experiment,0
60,135,29761,71,64,1,2,19,15,6.mid,experiment,0
61,137,30023,71,57,1,2,19,15,6.mid,experiment,0
62,139,30271,72,76,1,2,19,15,6.mid,experiment,0
63,141,30525,72,72,1,2,19,15,6.mid,experiment,0
64,143,30786,73,70,1,2,19,15,6.mid,experiment,0
65,145,31039,73,74,1,2,19,15,6.mid,experiment,0
66,147,31389,74,107,1,2,19,15,6.mid,experiment,0
67,148,31918,77,96,1,2,19,15,6.mid,experiment,0
68,150,32446,76,96,1,2,19,15,6.mid,experiment,0
69,152,32977,74,100,1,2,19,15,6.mid,experiment,0
70,154,33541,72,95,1,2,19,15,6.mid,experiment,0
71,157,34133,84,104,1,2,19,15,6.mid,experiment,0
72,159,34827,84,100,1,2,19,15,6.mid,experiment,0
1,17,8321,79,72,1,2,19,16,11.mid,experiment,0
2,18,8589,78,94,1,2,19,16,11.mid,experiment,0
3,20,8861,79,91,1,2,19,16,11.mid,experiment,0
4,22,9113,76,95,1,2,19,16,11.mid,experiment,0
5,24,9393,72,95,1,2,19,16,11.mid,experiment,0
6,27,9675,67,67,1,2,19,16,11.mid,experiment,0
7,29,9929,67,53,1,2,19,16,11.mid,experiment,0
8,31,10215,67,55,1,2,19,16,11.mid,experiment,0
9,33,10461,79,84,1,2,19,16,11.mid,experiment,0
10,34,10705,78,98,1,2,19,16,11.mid,experiment,0
11,36,10979,79,100,1,2,19,16,11.mid,experiment,0
12,38,11231,76,95,1,2,19,16,11.mid,experiment,0
13,40,11479,72,101,1,2,19,16,11.mid,experiment,0
14,42,11752,76,97,1,2,19,16,11.mid,experiment,0
15,44,12013,79,103,1,2,19,16,11.mid,experiment,0
16,46,12253,84,98,1,2,19,16,11.mid,experiment,0
17,48,12514,83,101,1,2,19,16,11.mid,experiment,0
18,51,12799,81,57,1,2,19,16,11.mid,experiment,0
19,53,13043,81,55,1,2,19,16,11.mid,experiment,0
20,55,13301,81,62,1,2,19,16,11.mid,experiment,0
21,57,13550,83,94,1,2,19,16,11.mid,experiment,0
22,58,13806,81,105,1,2,19,16,11.mid,experiment,0
23,60,14058,84,104,1,2,19,16,11.mid,experiment,0
24,62,14326,81,100,1,2,19,16,11.mid,experiment,0
25,64,14595,78,96,1,2,19,16,11.mid,experiment,0
26,66,14831,79,101,1,2,19,16,11.mid,experiment,0
27,69,15127,79,101,1,2,19,16,11.mid,experiment,0
28,71,15661,79,97,1,2,19,16,11.mid,experiment,0
29,73,16766,77,70,1,2,19,16,11.mid,experiment,0
30,75,17025,77,66,1,2,19,16,11.mid,experiment,0
31,77,17287,76,56,1,2,19,16,11.mid,experiment,0
32,79,17541,76,60,1,2,19,16,11.mid,experiment,0
33,81,17851,74,54,1,2,19,16,11.mid,experiment,0
34,83,18993,79,76,1,2,19,16,11.mid,experiment,0
35,85,19546,77,67,1,2,19,16,11.mid,experiment,0
36,87,20097,76,68,1,2,19,16,11.mid,experiment,0
37,89,20359,76,65,1,2,19,16,11.mid,experiment,0
38,91,20616,76,63,1,2,19,16,11.mid,experiment,0
39,93,20885,76,59,1,2,19,16,11.mid,experiment,0
40,95,21211,81,96,1,2,19,16,11.mid,experiment,0
41,96,21456,77,99,1,2,19,16,11.mid,experiment,0
42,98,21721,76,100,1,2,19,16,11.mid,experiment,0
43,100,21978,74,97,1,2,19,16,11.mid,experiment,0
44,102,22248,76,97,1,2,19,16,11.mid,experiment,0
45,104,22495,79,93,1,2,19,16,11.mid,experiment,0
46,106,22747,74,85,1,2,19,16,11.mid,experiment,0
47,108,23015,71,75,1,2,19,16,11.mid,experiment,0
48,111,23297,72,69,1,2,19,16,11.mid,experiment,0
49,113,23543,72,72,1,2,19,16,11.mid,experiment,0
50,115,23795,74,68,1,2,19,16,11.mid,experiment,0
51,117,24053,74,70,1,2,19,16,11.mid,experiment,0
52,119,24343,76,63,1,2,19,16,11.mid,experiment,0
53,121,25443,65,65,1,2,19,16,11.mid,experiment,0
54,123,25699,65,68,1,2,19,16,11.mid,experiment,0
55,125,25948,64,64,1,2,19,16,11.mid,experiment,0
56,127,26209,64,60,1,2,19,16,11.mid,experiment,0
57,129,26511,62,56,1,2,19,16,11.mid,experiment,0
58,131,27601,67,53,1,2,19,16,11.mid,experiment,0
59,133,27867,67,54,1,2,19,16,11.mid,experiment,0
60,135,28119,71,62,1,2,19,16,11.mid,experiment,0
61,137,28375,71,66,1,2,19,16,11.mid,experiment,0
62,139,28636,72,66,1,2,19,16,11.mid,experiment,0
63,141,28905,72,63,1,2,19,16,11.mid,experiment,0
64,143,29169,73,66,1,2,19,16,11.mid,experiment,0
65,145,29436,73,71,1,2,19,16,11.mid,experiment,0
66,147,29757,74,101,1,2,19,16,11.mid,experiment,0
67,148,30291,77,90,1,2,19,16,11.mid,experiment,0
68,150,30817,76,96,1,2,19,16,11.mid,experiment,0
69,152,31355,74,98,1,2,19,16,11.mid,experiment,0
70,154,31911,72,95,1,2,19,16,11.mid,experiment,0
71,156,32499,84,109,1,2,19,16,11.mid,experiment,0
72,159,33141,84,110,1,2,19,16,11.mid,experiment,0
1,17,9653,79,57,1,2,20,2,1.mid,experiment,0
2,18,9996,78,70,1,2,20,2,1.mid,experiment,0
3,20,10281,79,81,1,2,20,2,1.mid,experiment,0
4,22,10581,76,74,1,2,20,2,1.mid,experiment,0
5,24,10934,72,77,1,2,20,2,1.mid,experiment,0
6,26,11245,67,63,1,2,20,2,1.mid,experiment,0
7,29,11566,67,65,1,2,20,2,1.mid,experiment,0
8,31,11879,67,58,1,2,20,2,1.mid,experiment,0
9,33,12298,79,54,1,2,20,2,1.mid,experiment,0
10,34,12611,78,66,1,2,20,2,1.mid,experiment,0
11,36,12916,79,65,1,2,20,2,1.mid,experiment,0
12,38,13204,76,68,1,2,20,2,1.mid,experiment,0
13,40,13510,72,69,1,2,20,2,1.mid,experiment,0
14,42,13801,76,71,1,2,20,2,1.mid,experiment,0
15,44,14099,79,79,1,2,20,2,1.mid,experiment,0
16,46,14389,84,85,1,2,20,2,1.mid,experiment,0
17,48,14709,83,84,1,2,20,2,1.mid,experiment,0
18,50,15050,81,60,1,2,20,2,1.mid,experiment,0
19,53,15355,81,62,1,2,20,2,1.mid,experiment,0
20,55,15676,81,52,1,2,20,2,1.mid,experiment,0
21,57,16015,83,63,1,2,20,2,1.mid,experiment,0
22,58,16318,81,75,1,2,20,2,1.mid,experiment,0
23,60,16620,84,81,1,2,20,2,1.mid,experiment,0
24,62,16915,81,74,1,2,20,2,1.mid,experiment,0
25,64,17216,78,74,1,2,20,2,1.mid,experiment,0
26,66,17515,79,75,1,2,20,2,1.mid,experiment,0
27,69,17846,79,77,1,2,20,2,1.mid,experiment,0
28,71,18524,79,71,1,2,20,2,1.mid,experiment,0
29,73,19886,77,57,1,2,20,2,1.mid,experiment,0
30,75,20207,77,57,1,2,20,2,1.mid,experiment,0
31,77,20508,76,51,1,2,20,2,1.mid,experiment,0
32,79,20824,76,51,1,2,20,2,1.mid,experiment,0
33,81,21136,74,55,1,2,20,2,1.mid,experiment,0
34,83,22552,79,53,1,2,20,2,1.mid,experiment,0
35,84,23202,77,60,1,2,20,2,1.mid,experiment,0
36,86,23828,76,44,1,2,20,2,1.mid,experiment,0
37,89,24163,76,53,1,2,20,2,1.mid,experiment,0
38,91,24462,76,59,1,2,20,2,1.mid,experiment,0
39,93,24758,76,58,1,2,20,2,1.mid,experiment,0
40,95,25137,81,59,1,2,20,2,1.mid,experiment,0
41,96,25437,77,74,1,2,20,2,1.mid,experiment,0
42,98,25744,76,74,1,2,20,2,1.mid,experiment,0
43,100,26005,74,81,1,2,20,2,1.mid,experiment,0
44,102,26321,76,81,1,2,20,2,1.mid,experiment,0
45,104,26618,79,81,1,2,20,2,1.mid,experiment,0
46,106,26921,74,81,1,2,20,2,1.mid,experiment,0
47,108,27218,71,75,1,2,20,2,1.mid,experiment,0
48,110,27551,72,63,1,2,20,2,1.mid,experiment,0
49,113,27847,72,60,1,2,20,2,1.mid,experiment,0
50,115,28145,74,60,1,2,20,2,1.mid,experiment,0
51,117,28434,74,57,1,2,20,2,1.mid,experiment,0
52,119,28765,76,45,1,2,20,2,1.mid,experiment,0
53,121,30064,65,56,1,2,20,2,1.mid,experiment,0
54,123,30369,65,65,1,2,20,2,1.mid,experiment,0
55,125,30675,64,54,1,2,20,2,1.mid,experiment,0
56,127,30987,64,51,1,2,20,2,1.mid,experiment,0
57,129,31307,62,54,1,2,20,2,1.mid,experiment,0
58,131,32659,67,51,1,2,20,2,1.mid,experiment,0
59,133,32977,67,63,1,2,20,2,1.mid,experiment,0
60,135,33280,71,63,1,2,20,2,1.mid,experiment,0
61,137,33580,71,62,1,2,20,2,1.mid,experiment,0
62,139,33872,72,72,1,2,20,2,1.mid,experiment,0
63,141,34168,72,79,1,2,20,2,1.mid,experiment,0
64,143,34445,73,76,1,2,20,2,1.mid,experiment,0
65,145,34736,73,74,1,2,20,2,1.mid,experiment,0
66,147,35091,74,81,1,2,20,2,1.mid,experiment,0
67,148,35753,77,81,1,2,20,2,1.mid,experiment,0
68,150,36350,76,76,1,2,20,2,1.mid,experiment,0
69,152,36948,74,80,1,2,20,2,1.mid,experiment,0
70,154,37592,72,77,1,2,20,2,1.mid,experiment,0
71,156,38232,84,91,1,2,20,2,1.mid,experiment,0
72,159,38902,84,79,1,2,20,2,1.mid,experiment,0
1,17,9565,79,67,1,2,20,3,4.mid,experiment,0
2,18,9897,78,76,1,2,20,3,4.mid,experiment,0
3,21,10192,79,76,1,2,20,3,4.mid,experiment,0
4,22,10463,76,69,1,2,20,3,4.mid,experiment,0
5,24,10811,72,78,1,2,20,3,4.mid,experiment,0
6,26,11134,67,60,1,2,20,3,4.mid,experiment,0
7,29,11462,67,51,1,2,20,3,4.mid,experiment,0
8,31,11788,67,53,1,2,20,3,4.mid,experiment,0
9,33,12180,79,62,1,2,20,3,4.mid,experiment,0
10,34,12481,78,68,1,2,20,3,4.mid,experiment,0
11,36,12772,79,70,1,2,20,3,4.mid,experiment,0
12,38,13047,76,71,1,2,20,3,4.mid,experiment,0
13,40,13357,72,72,1,2,20,3,4.mid,experiment,0
14,42,13631,76,81,1,2,20,3,4.mid,experiment,0
15,44,13923,79,86,1,2,20,3,4.mid,experiment,0
16,46,14192,84,84,1,2,20,3,4.mid,experiment,0
17,48,14518,83,86,1,2,20,3,4.mid,experiment,0
18,50,14839,81,59,1,2,20,3,4.mid,experiment,0
19,53,15142,81,66,1,2,20,3,4.mid,experiment,0
20,55,15443,81,61,1,2,20,3,4.mid,experiment,0
21,57,15789,83,67,1,2,20,3,4.mid,experiment,0
22,58,16081,81,75,1,2,20,3,4.mid,experiment,0
23,61,16361,84,84,1,2,20,3,4.mid,experiment,0
24,62,16636,81,70,1,2,20,3,4.mid,experiment,0
25,64,16924,78,76,1,2,20,3,4.mid,experiment,0
26,66,17235,79,69,1,2,20,3,4.mid,experiment,0
27,69,17556,79,67,1,2,20,3,4.mid,experiment,0
28,71,18201,79,72,1,2,20,3,4.mid,experiment,0
29,73,19554,77,57,1,2,20,3,4.mid,experiment,0
30,75,19860,77,59,1,2,20,3,4.mid,experiment,0
31,77,20180,76,39,1,2,20,3,4.mid,experiment,0
32,79,20481,76,46,1,2,20,3,4.mid,experiment,0
33,81,20797,74,55,1,2,20,3,4.mid,experiment,0
34,83,22134,79,47,1,2,20,3,4.mid,experiment,0
35,84,22783,77,57,1,2,20,3,4.mid,experiment,0
36,86,23361,76,50,1,2,20,3,4.mid,experiment,0
37,89,23665,76,55,1,2,20,3,4.mid,experiment,0
38,91,23957,76,58,1,2,20,3,4.mid,experiment,0
39,93,24246,76,63,1,2,20,3,4.mid,experiment,0
40,95,24622,81,73,1,2,20,3,4.mid,experiment,0
41,96,24954,77,76,1,2,20,3,4.mid,experiment,0
42,98,25239,76,79,1,2,20,3,4.mid,experiment,0
43,101,25505,74,86,1,2,20,3,4.mid,experiment,0
44,102,25808,76,75,1,2,20,3,4.mid,experiment,0
45,104,26083,79,71,1,2,20,3,4.mid,experiment,0
46,106,26372,74,69,1,2,20,3,4.mid,experiment,0
47,108,26648,71,78,1,2,20,3,4.mid,experiment,0
48,110,26982,72,68,1,2,20,3,4.mid,experiment,0
49,113,27271,72,68,1,2,20,3,4.mid,experiment,0
50,115,27554,74,62,1,2,20,3,4.mid,experiment,0
51,117,27848,74,56,1,2,20,3,4.mid,experiment,0
52,119,28204,76,42,1,2,20,3,4.mid,experiment,0
53,121,29412,65,61,1,2,20,3,4.mid,experiment,0
54,123,29721,65,62,1,2,20,3,4.mid,experiment,0
55,125,30030,64,31,1,2,20,3,4.mid,experiment,0
56,127,30296,64,53,1,2,20,3,4.mid,experiment,0
57,129,30627,62,56,1,2,20,3,4.mid,experiment,0
58,131,31910,67,51,1,2,20,3,4.mid,experiment,0
59,133,32242,67,66,1,2,20,3,4.mid,experiment,0
60,135,32536,71,62,1,2,20,3,4.mid,experiment,0
61,137,32816,71,79,1,2,20,3,4.mid,experiment,0
62,139,33101,72,72,1,2,20,3,4.mid,experiment,0
63,141,33387,72,80,1,2,20,3,4.mid,experiment,0
64,143,33674,73,81,1,2,20,3,4.mid,experiment,0
65,145,33963,73,84,1,2,20,3,4.mid,experiment,0
66,147,34313,74,82,1,2,20,3,4.mid,experiment,0
67,148,34958,77,86,1,2,20,3,4.mid,experiment,0
68,150,35533,76,78,1,2,20,3,4.mid,experiment,0
69,152,36093,74,81,1,2,20,3,4.mid,experiment,0
70,155,36716,72,70,1,2,20,3,4.mid,experiment,0
71,157,37319,84,90,1,2,20,3,4.mid,experiment,0
72,159,37989,84,81,1,2,20,3,4.mid,experiment,0
1,17,9871,79,65,1,2,20,4,3.mid,experiment,0
2,18,10218,78,75,1,2,20,4,3.mid,experiment,0
3,21,10525,79,75,1,2,20,4,3.mid,experiment,0
4,22,10800,76,75,1,2,20,4,3.mid,experiment,0
5,24,11132,72,79,1,2,20,4,3.mid,experiment,0
6,26,11444,67,67,1,2,20,4,3.mid,experiment,0
7,29,11759,67,58,1,2,20,4,3.mid,experiment,0
8,31,12079,67,63,1,2,20,4,3.mid,experiment,0
9,33,12492,79,59,1,2,20,4,3.mid,experiment,0
10,34,12811,78,74,1,2,20,4,3.mid,experiment,0
11,36,13111,79,71,1,2,20,4,3.mid,experiment,0
12,38,13383,76,72,1,2,20,4,3.mid,experiment,0
13,40,13672,72,75,1,2,20,4,3.mid,experiment,0
14,42,13943,76,72,1,2,20,4,3.mid,experiment,0
15,44,14222,79,81,1,2,20,4,3.mid,experiment,0
16,46,14507,84,86,1,2,20,4,3.mid,experiment,0
17,48,14823,83,81,1,2,20,4,3.mid,experiment,0
18,50,15141,81,63,1,2,20,4,3.mid,experiment,0
19,53,15431,81,61,1,2,20,4,3.mid,experiment,0
20,55,15706,81,62,1,2,20,4,3.mid,experiment,0
21,57,16079,83,72,1,2,20,4,3.mid,experiment,0
22,58,16392,81,76,1,2,20,4,3.mid,experiment,0
23,61,16695,84,68,1,2,20,4,3.mid,experiment,0
24,62,16956,81,75,1,2,20,4,3.mid,experiment,0
25,64,17262,78,73,1,2,20,4,3.mid,experiment,0
26,67,17564,79,70,1,2,20,4,3.mid,experiment,0
27,69,17902,79,75,1,2,20,4,3.mid,experiment,0
28,71,18550,79,70,1,2,20,4,3.mid,experiment,0
29,73,19838,77,57,1,2,20,4,3.mid,experiment,0
30,75,20142,77,63,1,2,20,4,3.mid,experiment,0
31,77,20434,76,57,1,2,20,4,3.mid,experiment,0
32,79,20732,76,62,1,2,20,4,3.mid,experiment,0
33,81,21068,74,58,1,2,20,4,3.mid,experiment,0
34,83,22472,79,49,1,2,20,4,3.mid,experiment,0
35,84,23095,77,65,1,2,20,4,3.mid,experiment,0
36,86,23699,76,57,1,2,20,4,3.mid,experiment,0
37,89,24011,76,55,1,2,20,4,3.mid,experiment,0
38,91,24309,76,62,1,2,20,4,3.mid,experiment,0
39,93,24586,76,64,1,2,20,4,3.mid,experiment,0
40,95,24969,81,68,1,2,20,4,3.mid,experiment,0
41,96,25288,77,75,1,2,20,4,3.mid,experiment,0
42,98,25570,76,74,1,2,20,4,3.mid,experiment,0
43,100,25840,74,81,1,2,20,4,3.mid,experiment,0
44,102,26150,76,77,1,2,20,4,3.mid,experiment,0
45,104,26432,79,77,1,2,20,4,3.mid,experiment,0
46,106,26742,74,86,1,2,20,4,3.mid,experiment,0
47,108,27030,71,81,1,2,20,4,3.mid,experiment,0
48,110,27374,72,63,1,2,20,4,3.mid,experiment,0
49,113,27663,72,62,1,2,20,4,3.mid,experiment,0
50,115,27944,74,65,1,2,20,4,3.mid,experiment,0
51,117,28236,74,59,1,2,20,4,3.mid,experiment,0
52,119,28621,76,26,1,2,20,4,3.mid,experiment,0
53,121,29873,65,59,1,2,20,4,3.mid,experiment,0
54,123,30169,65,62,1,2,20,4,3.mid,experiment,0
55,125,30461,64,53,1,2,20,4,3.mid,experiment,0
56,127,30744,64,60,1,2,20,4,3.mid,experiment,0
57,129,31071,62,60,1,2,20,4,3.mid,experiment,0
58,131,32355,67,50,1,2,20,4,3.mid,experiment,0
59,133,32671,67,55,1,2,20,4,3.mid,experiment,0
60,135,32959,71,55,1,2,20,4,3.mid,experiment,0
61,137,33228,71,71,1,2,20,4,3.mid,experiment,0
62,139,33524,72,71,1,2,20,4,3.mid,experiment,0
63,141,33813,72,58,1,2,20,4,3.mid,experiment,0
64,143,34091,73,65,1,2,20,4,3.mid,experiment,0
65,145,34383,73,62,1,2,20,4,3.mid,experiment,0
66,147,34777,74,72,1,2,20,4,3.mid,experiment,0
67,148,35437,77,79,1,2,20,4,3.mid,experiment,0
68,150,36039,76,73,1,2,20,4,3.mid,experiment,0
69,152,36618,74,83,1,2,20,4,3.mid,experiment,0
70,155,37245,72,82,1,2,20,4,3.mid,experiment,0
71,156,37881,84,85,1,2,20,4,3.mid,experiment,0
72,159,38552,84,86,1,2,20,4,3.mid,experiment,0
1,17,9251,79,66,1,2,20,6,2.mid,experiment,0
2,18,9570,78,76,1,2,20,6,2.mid,experiment,0
3,20,9845,79,86,1,2,20,6,2.mid,experiment,0
4,22,10123,76,82,1,2,20,6,2.mid,experiment,0
5,24,10447,72,78,1,2,20,6,2.mid,experiment,0
6,27,10746,67,66,1,2,20,6,2.mid,experiment,0
7,29,11061,67,60,1,2,20,6,2.mid,experiment,0
8,31,11337,67,67,1,2,20,6,2.mid,experiment,0
9,33,11703,79,62,1,2,20,6,2.mid,experiment,0
10,34,11981,78,68,1,2,20,6,2.mid,experiment,0
11,36,12266,79,68,1,2,20,6,2.mid,experiment,0
12,38,12549,76,65,1,2,20,6,2.mid,experiment,0
13,41,12823,72,71,1,2,20,6,2.mid,experiment,0
14,42,13098,76,80,1,2,20,6,2.mid,experiment,0
15,44,13381,79,85,1,2,20,6,2.mid,experiment,0
16,46,13635,84,89,1,2,20,6,2.mid,experiment,0
17,48,13949,83,86,1,2,20,6,2.mid,experiment,0
18,50,14258,81,67,1,2,20,6,2.mid,experiment,0
19,53,14535,81,68,1,2,20,6,2.mid,experiment,0
20,55,14824,81,55,1,2,20,6,2.mid,experiment,0
21,57,15171,83,56,1,2,20,6,2.mid,experiment,0
22,58,15448,81,74,1,2,20,6,2.mid,experiment,0
23,61,15730,84,74,1,2,20,6,2.mid,experiment,0
24,62,16027,81,60,1,2,20,6,2.mid,experiment,0
25,64,16333,78,68,1,2,20,6,2.mid,experiment,0
26,66,16613,79,70,1,2,20,6,2.mid,experiment,0
27,69,16916,79,70,1,2,20,6,2.mid,experiment,0
28,71,17560,79,78,1,2,20,6,2.mid,experiment,0
29,73,18858,77,56,1,2,20,6,2.mid,experiment,0
30,75,19163,77,57,1,2,20,6,2.mid,experiment,0
31,77,19471,76,44,1,2,20,6,2.mid,experiment,0
32,79,19762,76,47,1,2,20,6,2.mid,experiment,0
33,81,20087,74,53,1,2,20,6,2.mid,experiment,0
34,83,21403,79,51,1,2,20,6,2.mid,experiment,0
35,84,22010,77,57,1,2,20,6,2.mid,experiment,0
36,86,22616,76,54,1,2,20,6,2.mid,experiment,0
37,89,22920,76,53,1,2,20,6,2.mid,experiment,0
38,91,23222,76,48,1,2,20,6,2.mid,experiment,0
39,93,23498,76,51,1,2,20,6,2.mid,experiment,0
40,95,23883,81,62,1,2,20,6,2.mid,experiment,0
41,96,24173,77,70,1,2,20,6,2.mid,experiment,0
42,98,24472,76,70,1,2,20,6,2.mid,experiment,0
43,100,24735,74,85,1,2,20,6,2.mid,experiment,0
44,102,25022,76,78,1,2,20,6,2.mid,experiment,0
45,104,25303,79,75,1,2,20,6,2.mid,experiment,0
46,106,25579,74,75,1,2,20,6,2.mid,experiment,0
47,108,25867,71,74,1,2,20,6,2.mid,experiment,0
48,110,26184,72,58,1,2,20,6,2.mid,experiment,0
49,113,26463,72,66,1,2,20,6,2.mid,experiment,0
50,115,26745,74,63,1,2,20,6,2.mid,experiment,0
51,117,27037,74,57,1,2,20,6,2.mid,experiment,0
52,119,27366,76,52,1,2,20,6,2.mid,experiment,0
53,121,28632,65,56,1,2,20,6,2.mid,experiment,0
54,123,28929,65,61,1,2,20,6,2.mid,experiment,0
55,125,29205,64,58,1,2,20,6,2.mid,experiment,0
56,127,29489,64,59,1,2,20,6,2.mid,experiment,0
57,129,29812,62,51,1,2,20,6,2.mid,experiment,0
58,131,31051,67,51,1,2,20,6,2.mid,experiment,0
59,133,31365,67,51,1,2,20,6,2.mid,experiment,0
60,135,31645,71,51,1,2,20,6,2.mid,experiment,0
61,137,31919,71,58,1,2,20,6,2.mid,experiment,0
62,139,32199,72,66,1,2,20,6,2.mid,experiment,0
63,141,32484,72,67,1,2,20,6,2.mid,experiment,0
64,143,32769,73,58,1,2,20,6,2.mid,experiment,0
65,145,33032,73,68,1,2,20,6,2.mid,experiment,0
66,147,33384,74,71,1,2,20,6,2.mid,experiment,0
67,148,34013,77,78,1,2,20,6,2.mid,experiment,0
68,150,34597,76,79,1,2,20,6,2.mid,experiment,0
69,152,35175,74,79,1,2,20,6,2.mid,experiment,0
70,155,35772,72,79,1,2,20,6,2.mid,experiment,0
71,156,36359,84,81,1,2,20,6,2.mid,experiment,0
72,159,37003,84,81,1,2,20,6,2.mid,experiment,0
1,17,8823,79,57,1,2,20,7,6.mid,experiment,0
2,18,9137,78,75,1,2,20,7,6.mid,experiment,0
3,21,9418,79,78,1,2,20,7,6.mid,experiment,0
4,22,9693,76,71,1,2,20,7,6.mid,experiment,0
5,24,10014,72,72,1,2,20,7,6.mid,experiment,0
6,27,10319,67,65,1,2,20,7,6.mid,experiment,0
7,29,10614,67,67,1,2,20,7,6.mid,experiment,0
8,31,10897,67,60,1,2,20,7,6.mid,experiment,0
9,33,11259,79,60,1,2,20,7,6.mid,experiment,0
10,34,11539,78,67,1,2,20,7,6.mid,experiment,0
11,36,11825,79,71,1,2,20,7,6.mid,experiment,0
12,38,12093,76,70,1,2,20,7,6.mid,experiment,0
13,40,12395,72,77,1,2,20,7,6.mid,experiment,0
14,42,12665,76,81,1,2,20,7,6.mid,experiment,0
15,44,12942,79,91,1,2,20,7,6.mid,experiment,0
16,46,13227,84,91,1,2,20,7,6.mid,experiment,0
17,48,13526,83,84,1,2,20,7,6.mid,experiment,0
18,50,13853,81,54,1,2,20,7,6.mid,experiment,0
19,53,14143,81,61,1,2,20,7,6.mid,experiment,0
20,55,14421,81,55,1,2,20,7,6.mid,experiment,0
21,57,14761,83,66,1,2,20,7,6.mid,experiment,0
22,58,15041,81,79,1,2,20,7,6.mid,experiment,0
23,61,15326,84,79,1,2,20,7,6.mid,experiment,0
24,62,15607,81,71,1,2,20,7,6.mid,experiment,0
25,64,15901,78,70,1,2,20,7,6.mid,experiment,0
26,66,16199,79,67,1,2,20,7,6.mid,experiment,0
27,69,16507,79,68,1,2,20,7,6.mid,experiment,0
28,71,17180,79,59,1,2,20,7,6.mid,experiment,0
29,73,18444,77,55,1,2,20,7,6.mid,experiment,0
30,75,18750,77,58,1,2,20,7,6.mid,experiment,0
31,77,19023,76,56,1,2,20,7,6.mid,experiment,0
32,79,19322,76,55,1,2,20,7,6.mid,experiment,0
33,81,19637,74,52,1,2,20,7,6.mid,experiment,0
34,83,20887,79,56,1,2,20,7,6.mid,experiment,0
35,84,21510,77,52,1,2,20,7,6.mid,experiment,0
36,86,22097,76,54,1,2,20,7,6.mid,experiment,0
37,89,22405,76,61,1,2,20,7,6.mid,experiment,0
38,91,22679,76,65,1,2,20,7,6.mid,experiment,0
39,93,22967,76,63,1,2,20,7,6.mid,experiment,0
40,95,23333,81,67,1,2,20,7,6.mid,experiment,0
41,96,23639,77,78,1,2,20,7,6.mid,experiment,0
42,98,23930,76,79,1,2,20,7,6.mid,experiment,0
43,100,24198,74,86,1,2,20,7,6.mid,experiment,0
44,102,24490,76,79,1,2,20,7,6.mid,experiment,0
45,104,24762,79,85,1,2,20,7,6.mid,experiment,0
46,106,25054,74,83,1,2,20,7,6.mid,experiment,0
47,108,25337,71,78,1,2,20,7,6.mid,experiment,0
48,110,25680,72,63,1,2,20,7,6.mid,experiment,0
49,113,25978,72,57,1,2,20,7,6.mid,experiment,0
50,115,26263,74,48,1,2,20,7,6.mid,experiment,0
51,117,26536,74,58,1,2,20,7,6.mid,experiment,0
52,119,26855,76,49,1,2,20,7,6.mid,experiment,0
53,121,28097,65,53,1,2,20,7,6.mid,experiment,0
54,123,28394,65,63,1,2,20,7,6.mid,experiment,0
55,125,28687,64,51,1,2,20,7,6.mid,experiment,0
56,127,28966,64,55,1,2,20,7,6.mid,experiment,0
57,129,29271,62,51,1,2,20,7,6.mid,experiment,0
58,131,30489,67,47,1,2,20,7,6.mid,experiment,0
59,133,30779,67,57,1,2,20,7,6.mid,experiment,0
60,135,31047,71,63,1,2,20,7,6.mid,experiment,0
61,137,31325,71,62,1,2,20,7,6.mid,experiment,0
62,139,31609,72,65,1,2,20,7,6.mid,experiment,0
63,141,31881,72,62,1,2,20,7,6.mid,experiment,0
64,143,32159,73,55,1,2,20,7,6.mid,experiment,0
65,145,32428,73,64,1,2,20,7,6.mid,experiment,0
66,147,32758,74,68,1,2,20,7,6.mid,experiment,0
67,148,33359,77,75,1,2,20,7,6.mid,experiment,0
68,150,33924,76,83,1,2,20,7,6.mid,experiment,0
69,152,34498,74,83,1,2,20,7,6.mid,experiment,0
70,155,35094,72,80,1,2,20,7,6.mid,experiment,0
71,157,35689,84,91,1,2,20,7,6.mid,experiment,0
72,159,36303,84,86,1,2,20,7,6.mid,experiment,0
1,17,8971,79,63,1,2,20,8,13.mid,experiment,0
2,18,9295,78,77,1,2,20,8,13.mid,experiment,0
3,20,9573,79,82,1,2,20,8,13.mid,experiment,0
4,22,9859,76,71,1,2,20,8,13.mid,experiment,0
5,24,10183,72,80,1,2,20,8,13.mid,experiment,0
6,26,10493,67,67,1,2,20,8,13.mid,experiment,0
7,29,10803,67,54,1,2,20,8,13.mid,experiment,0
8,31,11086,67,57,1,2,20,8,13.mid,experiment,0
9,33,11444,79,63,1,2,20,8,13.mid,experiment,0
10,34,11737,78,72,1,2,20,8,13.mid,experiment,0
11,36,12024,79,77,1,2,20,8,13.mid,experiment,0
12,38,12287,76,71,1,2,20,8,13.mid,experiment,0
13,40,12573,72,73,1,2,20,8,13.mid,experiment,0
14,42,12851,76,78,1,2,20,8,13.mid,experiment,0
15,44,13127,79,90,1,2,20,8,13.mid,experiment,0
16,46,13398,84,93,1,2,20,8,13.mid,experiment,0
17,48,13710,83,89,1,2,20,8,13.mid,experiment,0
18,50,14019,81,67,1,2,20,8,13.mid,experiment,0
19,53,14314,81,54,1,2,20,8,13.mid,experiment,0
20,55,14597,81,61,1,2,20,8,13.mid,experiment,0
21,57,14924,83,57,1,2,20,8,13.mid,experiment,0
22,58,15197,81,81,1,2,20,8,13.mid,experiment,0
23,60,15487,84,81,1,2,20,8,13.mid,experiment,0
24,62,15761,81,81,1,2,20,8,13.mid,experiment,0
25,64,16073,78,79,1,2,20,8,13.mid,experiment,0
26,66,16367,79,81,1,2,20,8,13.mid,experiment,0
27,69,16676,79,84,1,2,20,8,13.mid,experiment,0
28,71,17295,79,78,1,2,20,8,13.mid,experiment,0
29,73,18591,77,59,1,2,20,8,13.mid,experiment,0
30,75,18881,77,66,1,2,20,8,13.mid,experiment,0
31,77,19178,76,48,1,2,20,8,13.mid,experiment,0
32,79,19464,76,56,1,2,20,8,13.mid,experiment,0
33,81,19775,74,56,1,2,20,8,13.mid,experiment,0
34,83,21026,79,53,1,2,20,8,13.mid,experiment,0
35,84,21632,77,65,1,2,20,8,13.mid,experiment,0
36,86,22224,76,52,1,2,20,8,13.mid,experiment,0
37,89,22532,76,55,1,2,20,8,13.mid,experiment,0
38,91,22806,76,57,1,2,20,8,13.mid,experiment,0
39,93,23094,76,51,1,2,20,8,13.mid,experiment,0
40,95,23440,81,67,1,2,20,8,13.mid,experiment,0
41,96,23735,77,74,1,2,20,8,13.mid,experiment,0
42,98,24018,76,74,1,2,20,8,13.mid,experiment,0
43,100,24276,74,78,1,2,20,8,13.mid,experiment,0
44,102,24584,76,73,1,2,20,8,13.mid,experiment,0
45,104,24870,79,79,1,2,20,8,13.mid,experiment,0
46,106,25156,74,79,1,2,20,8,13.mid,experiment,0
47,109,25454,71,73,1,2,20,8,13.mid,experiment,0
48,110,25762,72,64,1,2,20,8,13.mid,experiment,0
49,113,26059,72,65,1,2,20,8,13.mid,experiment,0
50,115,26337,74,65,1,2,20,8,13.mid,experiment,0
51,117,26611,74,58,1,2,20,8,13.mid,experiment,0
52,119,26929,76,52,1,2,20,8,13.mid,experiment,0
53,121,28127,65,63,1,2,20,8,13.mid,experiment,0
54,123,28409,65,72,1,2,20,8,13.mid,experiment,0
55,125,28700,64,49,1,2,20,8,13.mid,experiment,0
56,127,28975,64,59,1,2,20,8,13.mid,experiment,0
57,129,29307,62,50,1,2,20,8,13.mid,experiment,0
58,131,30549,67,64,1,2,20,8,13.mid,experiment,0
59,133,30853,67,58,1,2,20,8,13.mid,experiment,0
60,135,31136,71,52,1,2,20,8,13.mid,experiment,0
61,137,31404,71,63,1,2,20,8,13.mid,experiment,0
62,139,31686,72,71,1,2,20,8,13.mid,experiment,0
63,141,31963,72,75,1,2,20,8,13.mid,experiment,0
64,143,32234,73,65,1,2,20,8,13.mid,experiment,0
65,145,32511,73,74,1,2,20,8,13.mid,experiment,0
66,147,32862,74,71,1,2,20,8,13.mid,experiment,0
67,148,33460,77,78,1,2,20,8,13.mid,experiment,0
68,150,34030,76,74,1,2,20,8,13.mid,experiment,0
69,152,34582,74,81,1,2,20,8,13.mid,experiment,0
70,154,35201,72,80,1,2,20,8,13.mid,experiment,0
71,156,35783,84,94,1,2,20,8,13.mid,experiment,0
72,159,36424,84,94,1,2,20,8,13.mid,experiment,0
1,17,8889,79,67,1,2,20,9,14.mid,experiment,0
2,18,9211,78,70,1,2,20,9,14.mid,experiment,0
3,20,9483,79,79,1,2,20,9,14.mid,experiment,0
4,22,9759,76,71,1,2,20,9,14.mid,experiment,0
5,24,10085,72,78,1,2,20,9,14.mid,experiment,0
6,27,10396,67,63,1,2,20,9,14.mid,experiment,0
7,29,10711,67,53,1,2,20,9,14.mid,experiment,0
8,31,11011,67,58,1,2,20,9,14.mid,experiment,0
9,33,11389,79,65,1,2,20,9,14.mid,experiment,0
10,34,11673,78,75,1,2,20,9,14.mid,experiment,0
11,36,11975,79,75,1,2,20,9,14.mid,experiment,0
12,38,12257,76,63,1,2,20,9,14.mid,experiment,0
13,40,12541,72,68,1,2,20,9,14.mid,experiment,0
14,42,12813,76,71,1,2,20,9,14.mid,experiment,0
15,44,13113,79,76,1,2,20,9,14.mid,experiment,0
16,46,13383,84,82,1,2,20,9,14.mid,experiment,0
17,48,13679,83,78,1,2,20,9,14.mid,experiment,0
18,50,13985,81,70,1,2,20,9,14.mid,experiment,0
19,53,14281,81,58,1,2,20,9,14.mid,experiment,0
20,55,14553,81,66,1,2,20,9,14.mid,experiment,0
21,57,14913,83,71,1,2,20,9,14.mid,experiment,0
22,58,15205,81,81,1,2,20,9,14.mid,experiment,0
23,61,15489,84,91,1,2,20,9,14.mid,experiment,0
24,62,15771,81,85,1,2,20,9,14.mid,experiment,0
25,64,16071,78,79,1,2,20,9,14.mid,experiment,0
26,67,16368,79,87,1,2,20,9,14.mid,experiment,0
27,69,16699,79,78,1,2,20,9,14.mid,experiment,0
28,71,17349,79,78,1,2,20,9,14.mid,experiment,0
29,73,18653,77,53,1,2,20,9,14.mid,experiment,0
30,75,18967,77,60,1,2,20,9,14.mid,experiment,0
31,77,19245,76,48,1,2,20,9,14.mid,experiment,0
32,79,19526,76,54,1,2,20,9,14.mid,experiment,0
33,81,19859,74,50,1,2,20,9,14.mid,experiment,0
34,83,21181,79,49,1,2,20,9,14.mid,experiment,0
35,84,21825,77,54,1,2,20,9,14.mid,experiment,0
36,86,22417,76,54,1,2,20,9,14.mid,experiment,0
37,89,22723,76,56,1,2,20,9,14.mid,experiment,0
38,91,23021,76,55,1,2,20,9,14.mid,experiment,0
39,93,23310,76,57,1,2,20,9,14.mid,experiment,0
40,95,23667,81,67,1,2,20,9,14.mid,experiment,0
41,96,23967,77,72,1,2,20,9,14.mid,experiment,0
42,98,24243,76,72,1,2,20,9,14.mid,experiment,0
43,100,24515,74,81,1,2,20,9,14.mid,experiment,0
44,102,24801,76,76,1,2,20,9,14.mid,experiment,0
45,104,25079,79,75,1,2,20,9,14.mid,experiment,0
46,106,25369,74,72,1,2,20,9,14.mid,experiment,0
47,108,25670,71,67,1,2,20,9,14.mid,experiment,0
48,110,25987,72,57,1,2,20,9,14.mid,experiment,0
49,113,26266,72,54,1,2,20,9,14.mid,experiment,0
50,115,26545,74,58,1,2,20,9,14.mid,experiment,0
51,117,26841,74,54,1,2,20,9,14.mid,experiment,0
52,119,27187,76,48,1,2,20,9,14.mid,experiment,0
53,121,28441,65,53,1,2,20,9,14.mid,experiment,0
54,123,28729,65,63,1,2,20,9,14.mid,experiment,0
55,125,29014,64,57,1,2,20,9,14.mid,experiment,0
56,127,29289,64,60,1,2,20,9,14.mid,experiment,0
57,129,29639,62,51,1,2,20,9,14.mid,experiment,0
58,131,30909,67,54,1,2,20,9,14.mid,experiment,0
59,133,31196,67,67,1,2,20,9,14.mid,experiment,0
60,135,31485,71,50,1,2,20,9,14.mid,experiment,0
61,137,31755,71,62,1,2,20,9,14.mid,experiment,0
62,139,32039,72,65,1,2,20,9,14.mid,experiment,0
63,141,32331,72,68,1,2,20,9,14.mid,experiment,0
64,143,32594,73,65,1,2,20,9,14.mid,experiment,0
65,145,32855,73,71,1,2,20,9,14.mid,experiment,0
66,147,33223,74,82,1,2,20,9,14.mid,experiment,0
67,148,33839,77,88,1,2,20,9,14.mid,experiment,0
68,150,34422,76,75,1,2,20,9,14.mid,experiment,0
69,152,34990,74,75,1,2,20,9,14.mid,experiment,0
70,155,35590,72,76,1,2,20,9,14.mid,experiment,0
71,156,36189,84,81,1,2,20,9,14.mid,experiment,0
72,159,36825,84,83,1,2,20,9,14.mid,experiment,0
1,17,9113,79,68,1,2,20,10,5.mid,experiment,0
2,18,9445,78,73,1,2,20,10,5.mid,experiment,0
3,20,9729,79,81,1,2,20,10,5.mid,experiment,0
4,22,10004,76,76,1,2,20,10,5.mid,experiment,0
5,24,10326,72,79,1,2,20,10,5.mid,experiment,0
6,26,10652,67,65,1,2,20,10,5.mid,experiment,0
7,29,10957,67,53,1,2,20,10,5.mid,experiment,0
8,31,11270,67,56,1,2,20,10,5.mid,experiment,0
9,33,11676,79,60,1,2,20,10,5.mid,experiment,0
10,34,11978,78,71,1,2,20,10,5.mid,experiment,0
11,36,12275,79,73,1,2,20,10,5.mid,experiment,0
12,38,12548,76,73,1,2,20,10,5.mid,experiment,0
13,40,12840,72,73,1,2,20,10,5.mid,experiment,0
14,42,13126,76,82,1,2,20,10,5.mid,experiment,0
15,44,13406,79,89,1,2,20,10,5.mid,experiment,0
16,46,13670,84,91,1,2,20,10,5.mid,experiment,0
17,48,13971,83,90,1,2,20,10,5.mid,experiment,0
18,50,14292,81,68,1,2,20,10,5.mid,experiment,0
19,53,14587,81,50,1,2,20,10,5.mid,experiment,0
20,55,14872,81,58,1,2,20,10,5.mid,experiment,0
21,57,15196,83,67,1,2,20,10,5.mid,experiment,0
22,58,15493,81,79,1,2,20,10,5.mid,experiment,0
23,60,15784,84,82,1,2,20,10,5.mid,experiment,0
24,62,16050,81,79,1,2,20,10,5.mid,experiment,0
25,64,16350,78,78,1,2,20,10,5.mid,experiment,0
26,66,16622,79,84,1,2,20,10,5.mid,experiment,0
27,69,16942,79,76,1,2,20,10,5.mid,experiment,0
28,71,17635,79,78,1,2,20,10,5.mid,experiment,0
29,73,18953,77,55,1,2,20,10,5.mid,experiment,0
30,75,19262,77,57,1,2,20,10,5.mid,experiment,0
31,77,19539,76,53,1,2,20,10,5.mid,experiment,0
32,79,19836,76,50,1,2,20,10,5.mid,experiment,0
33,81,20151,74,53,1,2,20,10,5.mid,experiment,0
34,83,21477,79,57,1,2,20,10,5.mid,experiment,0
35,84,22127,77,56,1,2,20,10,5.mid,experiment,0
36,86,22731,76,55,1,2,20,10,5.mid,experiment,0
37,89,23035,76,59,1,2,20,10,5.mid,experiment,0
38,91,23339,76,54,1,2,20,10,5.mid,experiment,0
39,93,23623,76,63,1,2,20,10,5.mid,experiment,0
40,95,23995,81,66,1,2,20,10,5.mid,experiment,0
41,96,24298,77,74,1,2,20,10,5.mid,experiment,0
42,98,24589,76,76,1,2,20,10,5.mid,experiment,0
43,100,24853,74,76,1,2,20,10,5.mid,experiment,0
44,102,25128,76,78,1,2,20,10,5.mid,experiment,0
45,104,25424,79,72,1,2,20,10,5.mid,experiment,0
46,106,25687,74,79,1,2,20,10,5.mid,experiment,0
47,108,25974,71,73,1,2,20,10,5.mid,experiment,0
48,110,26315,72,54,1,2,20,10,5.mid,experiment,0
49,113,26603,72,62,1,2,20,10,5.mid,experiment,0
50,115,26883,74,60,1,2,20,10,5.mid,experiment,0
51,117,27170,74,56,1,2,20,10,5.mid,experiment,0
52,119,27483,76,52,1,2,20,10,5.mid,experiment,0
53,121,28756,65,56,1,2,20,10,5.mid,experiment,0
54,123,29066,65,64,1,2,20,10,5.mid,experiment,0
55,125,29348,64,55,1,2,20,10,5.mid,experiment,0
56,127,29620,64,55,1,2,20,10,5.mid,experiment,0
57,129,29968,62,50,1,2,20,10,5.mid,experiment,0
58,131,31273,67,51,1,2,20,10,5.mid,experiment,0
59,133,31562,67,67,1,2,20,10,5.mid,experiment,0
60,135,31859,71,52,1,2,20,10,5.mid,experiment,0
61,137,32122,71,66,1,2,20,10,5.mid,experiment,0
62,139,32410,72,70,1,2,20,10,5.mid,experiment,0
63,141,32675,72,74,1,2,20,10,5.mid,experiment,0
64,143,32959,73,67,1,2,20,10,5.mid,experiment,0
65,145,33227,73,68,1,2,20,10,5.mid,experiment,0
66,147,33593,74,76,1,2,20,10,5.mid,experiment,0
67,148,34219,77,81,1,2,20,10,5.mid,experiment,0
68,150,34786,76,76,1,2,20,10,5.mid,experiment,0
69,152,35358,74,90,1,2,20,10,5.mid,experiment,0
70,154,35980,72,84,1,2,20,10,5.mid,experiment,0
71,157,36596,84,90,1,2,20,10,5.mid,experiment,0
72,159,37224,84,81,1,2,20,10,5.mid,experiment,0
1,17,9278,79,68,1,2,20,11,8.mid,experiment,0
2,18,9616,78,76,1,2,20,11,8.mid,experiment,0
3,20,9914,79,84,1,2,20,11,8.mid,experiment,0
4,22,10190,76,76,1,2,20,11,8.mid,experiment,0
5,24,10492,72,84,1,2,20,11,8.mid,experiment,0
6,27,10812,67,66,1,2,20,11,8.mid,experiment,0
7,29,11121,67,58,1,2,20,11,8.mid,experiment,0
8,31,11412,67,65,1,2,20,11,8.mid,experiment,0
9,33,11804,79,61,1,2,20,11,8.mid,experiment,0
10,34,12108,78,68,1,2,20,11,8.mid,experiment,0
11,37,12417,79,65,1,2,20,11,8.mid,experiment,0
12,38,12702,76,57,1,2,20,11,8.mid,experiment,0
13,40,12959,72,67,1,2,20,11,8.mid,experiment,0
14,42,13242,76,69,1,2,20,11,8.mid,experiment,0
15,44,13536,79,75,1,2,20,11,8.mid,experiment,0
16,46,13812,84,79,1,2,20,11,8.mid,experiment,0
17,48,14114,83,84,1,2,20,11,8.mid,experiment,0
18,50,14417,81,57,1,2,20,11,8.mid,experiment,0
19,53,14712,81,54,1,2,20,11,8.mid,experiment,0
20,55,15000,81,52,1,2,20,11,8.mid,experiment,0
21,57,15322,83,63,1,2,20,11,8.mid,experiment,0
22,58,15606,81,74,1,2,20,11,8.mid,experiment,0
23,60,15893,84,80,1,2,20,11,8.mid,experiment,0
24,62,16156,81,74,1,2,20,11,8.mid,experiment,0
25,64,16468,78,70,1,2,20,11,8.mid,experiment,0
26,67,16735,79,78,1,2,20,11,8.mid,experiment,0
27,69,17054,79,72,1,2,20,11,8.mid,experiment,0
28,71,17708,79,70,1,2,20,11,8.mid,experiment,0
29,73,19050,77,58,1,2,20,11,8.mid,experiment,0
30,75,19370,77,53,1,2,20,11,8.mid,experiment,0
31,77,19650,76,49,1,2,20,11,8.mid,experiment,0
32,79,19932,76,54,1,2,20,11,8.mid,experiment,0
33,81,20250,74,56,1,2,20,11,8.mid,experiment,0
34,83,21553,79,58,1,2,20,11,8.mid,experiment,0
35,84,22182,77,57,1,2,20,11,8.mid,experiment,0
36,86,22806,76,53,1,2,20,11,8.mid,experiment,0
37,89,23122,76,53,1,2,20,11,8.mid,experiment,0
38,91,23412,76,57,1,2,20,11,8.mid,experiment,0
39,93,23696,76,54,1,2,20,11,8.mid,experiment,0
40,95,24056,81,55,1,2,20,11,8.mid,experiment,0
41,96,24358,77,70,1,2,20,11,8.mid,experiment,0
42,98,24650,76,71,1,2,20,11,8.mid,experiment,0
43,100,24908,74,85,1,2,20,11,8.mid,experiment,0
44,102,25190,76,81,1,2,20,11,8.mid,experiment,0
45,104,25472,79,81,1,2,20,11,8.mid,experiment,0
46,106,25758,74,80,1,2,20,11,8.mid,experiment,0
47,109,26037,71,78,1,2,20,11,8.mid,experiment,0
48,111,26380,72,56,1,2,20,11,8.mid,experiment,0
49,113,26668,72,56,1,2,20,11,8.mid,experiment,0
50,115,26942,74,60,1,2,20,11,8.mid,experiment,0
51,117,27240,74,46,1,2,20,11,8.mid,experiment,0
52,119,27570,76,43,1,2,20,11,8.mid,experiment,0
53,121,28831,65,59,1,2,20,11,8.mid,experiment,0
54,123,29138,65,71,1,2,20,11,8.mid,experiment,0
55,125,29436,64,48,1,2,20,11,8.mid,experiment,0
56,127,29712,64,62,1,2,20,11,8.mid,experiment,0
57,129,30028,62,53,1,2,20,11,8.mid,experiment,0
58,131,31337,67,48,1,2,20,11,8.mid,experiment,0
59,133,31634,67,55,1,2,20,11,8.mid,experiment,0
60,135,31920,71,48,1,2,20,11,8.mid,experiment,0
61,137,32192,71,61,1,2,20,11,8.mid,experiment,0
62,139,32452,72,63,1,2,20,11,8.mid,experiment,0
63,141,32736,72,67,1,2,20,11,8.mid,experiment,0
64,143,33008,73,72,1,2,20,11,8.mid,experiment,0
65,145,33278,73,73,1,2,20,11,8.mid,experiment,0
66,147,33636,74,77,1,2,20,11,8.mid,experiment,0
67,148,34274,77,79,1,2,20,11,8.mid,experiment,0
68,150,34864,76,70,1,2,20,11,8.mid,experiment,0
69,152,35440,74,74,1,2,20,11,8.mid,experiment,0
70,155,35997,72,75,1,2,20,11,8.mid,experiment,0
71,156,36592,84,81,1,2,20,11,8.mid,experiment,0
72,159,37234,84,81,1,2,20,11,8.mid,experiment,0
1,17,9119,79,57,1,2,20,12,12.mid,experiment,0
2,18,9443,78,70,1,2,20,12,12.mid,experiment,0
3,20,9731,79,77,1,2,20,12,12.mid,experiment,0
4,22,10009,76,78,1,2,20,12,12.mid,experiment,0
5,24,10328,72,77,1,2,20,12,12.mid,experiment,0
6,27,10637,67,65,1,2,20,12,12.mid,experiment,0
7,29,10936,67,59,1,2,20,12,12.mid,experiment,0
8,31,11232,67,69,1,2,20,12,12.mid,experiment,0
9,33,11597,79,67,1,2,20,12,12.mid,experiment,0
10,34,11886,78,70,1,2,20,12,12.mid,experiment,0
11,36,12161,79,74,1,2,20,12,12.mid,experiment,0
12,38,12424,76,71,1,2,20,12,12.mid,experiment,0
13,40,12727,72,72,1,2,20,12,12.mid,experiment,0
14,42,13008,76,75,1,2,20,12,12.mid,experiment,0
15,44,13286,79,86,1,2,20,12,12.mid,experiment,0
16,46,13560,84,91,1,2,20,12,12.mid,experiment,0
17,48,13860,83,91,1,2,20,12,12.mid,experiment,0
18,50,14162,81,67,1,2,20,12,12.mid,experiment,0
19,53,14449,81,65,1,2,20,12,12.mid,experiment,0
20,55,14730,81,53,1,2,20,12,12.mid,experiment,0
21,57,15058,83,66,1,2,20,12,12.mid,experiment,0
22,58,15336,81,74,1,2,20,12,12.mid,experiment,0
23,61,15621,84,86,1,2,20,12,12.mid,experiment,0
24,62,15892,81,82,1,2,20,12,12.mid,experiment,0
25,64,16166,78,79,1,2,20,12,12.mid,experiment,0
26,66,16445,79,87,1,2,20,12,12.mid,experiment,0
27,69,16758,79,86,1,2,20,12,12.mid,experiment,0
28,71,17406,79,77,1,2,20,12,12.mid,experiment,0
29,73,18665,77,58,1,2,20,12,12.mid,experiment,0
30,75,18976,77,57,1,2,20,12,12.mid,experiment,0
31,77,19244,76,59,1,2,20,12,12.mid,experiment,0
32,79,19520,76,58,1,2,20,12,12.mid,experiment,0
33,81,19866,74,49,1,2,20,12,12.mid,experiment,0
34,83,21163,79,58,1,2,20,12,12.mid,experiment,0
35,85,21725,77,61,1,2,20,12,12.mid,experiment,0
36,86,22316,76,49,1,2,20,12,12.mid,experiment,0
37,89,22617,76,61,1,2,20,12,12.mid,experiment,0
38,91,22909,76,49,1,2,20,12,12.mid,experiment,0
39,93,23196,76,53,1,2,20,12,12.mid,experiment,0
40,95,23545,81,70,1,2,20,12,12.mid,experiment,0
41,96,23841,77,79,1,2,20,12,12.mid,experiment,0
42,98,24115,76,82,1,2,20,12,12.mid,experiment,0
43,100,24382,74,76,1,2,20,12,12.mid,experiment,0
44,102,24668,76,77,1,2,20,12,12.mid,experiment,0
45,104,24956,79,81,1,2,20,12,12.mid,experiment,0
46,106,25231,74,83,1,2,20,12,12.mid,experiment,0
47,108,25496,71,84,1,2,20,12,12.mid,experiment,0
48,110,25812,72,72,1,2,20,12,12.mid,experiment,0
49,113,26099,72,63,1,2,20,12,12.mid,experiment,0
50,115,26363,74,62,1,2,20,12,12.mid,experiment,0
51,117,26659,74,53,1,2,20,12,12.mid,experiment,0
52,119,26999,76,42,1,2,20,12,12.mid,experiment,0
53,121,28179,65,58,1,2,20,12,12.mid,experiment,0
54,123,28483,65,65,1,2,20,12,12.mid,experiment,0
55,125,28762,64,61,1,2,20,12,12.mid,experiment,0
56,127,29015,64,60,1,2,20,12,12.mid,experiment,0
57,129,29354,62,56,1,2,20,12,12.mid,experiment,0
58,131,30592,67,56,1,2,20,12,12.mid,experiment,0
59,133,30899,67,62,1,2,20,12,12.mid,experiment,0
60,135,31192,71,54,1,2,20,12,12.mid,experiment,0
61,137,31460,71,63,1,2,20,12,12.mid,experiment,0
62,139,31746,72,64,1,2,20,12,12.mid,experiment,0
63,141,32024,72,67,1,2,20,12,12.mid,experiment,0
64,143,32295,73,70,1,2,20,12,12.mid,experiment,0
65,145,32558,73,70,1,2,20,12,12.mid,experiment,0
66,147,32928,74,81,1,2,20,12,12.mid,experiment,0
67,148,33566,77,83,1,2,20,12,12.mid,experiment,0
68,150,34168,76,70,1,2,20,12,12.mid,experiment,0
69,152,34715,74,78,1,2,20,12,12.mid,experiment,0
70,155,35307,72,76,1,2,20,12,12.mid,experiment,0
71,156,35896,84,88,1,2,20,12,12.mid,experiment,0
72,159,36550,84,89,1,2,20,12,12.mid,experiment,0
1,17,9110,79,67,1,2,20,13,10.mid,experiment,0
2,18,9432,78,79,1,2,20,13,10.mid,experiment,0
3,21,9693,79,81,1,2,20,13,10.mid,experiment,0
4,22,9961,76,83,1,2,20,13,10.mid,experiment,0
5,24,10278,72,81,1,2,20,13,10.mid,experiment,0
6,27,10601,67,66,1,2,20,13,10.mid,experiment,0
7,29,10916,67,53,1,2,20,13,10.mid,experiment,0
8,31,11203,67,70,1,2,20,13,10.mid,experiment,0
9,33,11574,79,46,1,2,20,13,10.mid,experiment,0
10,34,11869,78,75,1,2,20,13,10.mid,experiment,0
11,36,12156,79,78,1,2,20,13,10.mid,experiment,0
12,38,12424,76,75,1,2,20,13,10.mid,experiment,0
13,41,12716,72,76,1,2,20,13,10.mid,experiment,0
14,42,12987,76,80,1,2,20,13,10.mid,experiment,0
15,44,13275,79,87,1,2,20,13,10.mid,experiment,0
16,46,13557,84,91,1,2,20,13,10.mid,experiment,0
17,48,13852,83,91,1,2,20,13,10.mid,experiment,0
18,50,14163,81,61,1,2,20,13,10.mid,experiment,0
19,53,14449,81,56,1,2,20,13,10.mid,experiment,0
20,55,14738,81,63,1,2,20,13,10.mid,experiment,0
21,57,15081,83,72,1,2,20,13,10.mid,experiment,0
22,58,15360,81,82,1,2,20,13,10.mid,experiment,0
23,60,15644,84,79,1,2,20,13,10.mid,experiment,0
24,62,15928,81,74,1,2,20,13,10.mid,experiment,0
25,64,16203,78,72,1,2,20,13,10.mid,experiment,0
26,66,16488,79,75,1,2,20,13,10.mid,experiment,0
27,69,16813,79,76,1,2,20,13,10.mid,experiment,0
28,71,17468,79,76,1,2,20,13,10.mid,experiment,0
29,73,18810,77,54,1,2,20,13,10.mid,experiment,0
30,75,19121,77,63,1,2,20,13,10.mid,experiment,0
31,77,19406,76,51,1,2,20,13,10.mid,experiment,0
32,79,19691,76,53,1,2,20,13,10.mid,experiment,0
33,81,20005,74,55,1,2,20,13,10.mid,experiment,0
34,83,21366,79,55,1,2,20,13,10.mid,experiment,0
35,84,22001,77,57,1,2,20,13,10.mid,experiment,0
36,86,22589,76,57,1,2,20,13,10.mid,experiment,0
37,89,22891,76,58,1,2,20,13,10.mid,experiment,0
38,91,23182,76,58,1,2,20,13,10.mid,experiment,0
39,93,23468,76,60,1,2,20,13,10.mid,experiment,0
40,95,23842,81,70,1,2,20,13,10.mid,experiment,0
41,96,24154,77,78,1,2,20,13,10.mid,experiment,0
42,98,24432,76,78,1,2,20,13,10.mid,experiment,0
43,100,24691,74,82,1,2,20,13,10.mid,experiment,0
44,102,24992,76,81,1,2,20,13,10.mid,experiment,0
45,104,25280,79,82,1,2,20,13,10.mid,experiment,0
46,106,25567,74,76,1,2,20,13,10.mid,experiment,0
47,108,25854,71,72,1,2,20,13,10.mid,experiment,0
48,110,26165,72,65,1,2,20,13,10.mid,experiment,0
49,113,26446,72,63,1,2,20,13,10.mid,experiment,0
50,115,26720,74,60,1,2,20,13,10.mid,experiment,0
51,117,27000,74,63,1,2,20,13,10.mid,experiment,0
52,119,27329,76,48,1,2,20,13,10.mid,experiment,0
53,121,28500,65,58,1,2,20,13,10.mid,experiment,0
54,123,28798,65,65,1,2,20,13,10.mid,experiment,0
55,125,29097,64,33,1,2,20,13,10.mid,experiment,0
56,127,29368,64,57,1,2,20,13,10.mid,experiment,0
57,129,29699,62,53,1,2,20,13,10.mid,experiment,0
58,131,30945,67,57,1,2,20,13,10.mid,experiment,0
59,133,31243,67,62,1,2,20,13,10.mid,experiment,0
60,135,31519,71,62,1,2,20,13,10.mid,experiment,0
61,137,31798,71,68,1,2,20,13,10.mid,experiment,0
62,139,32076,72,63,1,2,20,13,10.mid,experiment,0
63,141,32352,72,75,1,2,20,13,10.mid,experiment,0
64,143,32643,73,69,1,2,20,13,10.mid,experiment,0
65,145,32908,73,75,1,2,20,13,10.mid,experiment,0
66,147,33240,74,70,1,2,20,13,10.mid,experiment,0
67,148,33840,77,78,1,2,20,13,10.mid,experiment,0
68,150,34414,76,71,1,2,20,13,10.mid,experiment,0
69,152,34997,74,81,1,2,20,13,10.mid,experiment,0
70,154,35612,72,91,1,2,20,13,10.mid,experiment,0
71,157,36248,84,91,1,2,20,13,10.mid,experiment,0
72,159,36889,84,82,1,2,20,13,10.mid,experiment,0
1,17,8800,79,64,1,2,20,14,11.mid,experiment,0
2,18,9106,78,79,1,2,20,14,11.mid,experiment,0
3,21,9404,79,81,1,2,20,14,11.mid,experiment,0
4,22,9688,76,76,1,2,20,14,11.mid,experiment,0
5,24,10016,72,79,1,2,20,14,11.mid,experiment,0
6,27,10329,67,62,1,2,20,14,11.mid,experiment,0
7,29,10632,67,56,1,2,20,14,11.mid,experiment,0
8,31,10921,67,67,1,2,20,14,11.mid,experiment,0
9,33,11287,79,65,1,2,20,14,11.mid,experiment,0
10,34,11571,78,74,1,2,20,14,11.mid,experiment,0
11,36,11857,79,73,1,2,20,14,11.mid,experiment,0
12,38,12116,76,70,1,2,20,14,11.mid,experiment,0
13,40,12411,72,71,1,2,20,14,11.mid,experiment,0
14,42,12693,76,73,1,2,20,14,11.mid,experiment,0
15,44,12976,79,88,1,2,20,14,11.mid,experiment,0
16,46,13248,84,89,1,2,20,14,11.mid,experiment,0
17,48,13548,83,91,1,2,20,14,11.mid,experiment,0
18,50,13859,81,58,1,2,20,14,11.mid,experiment,0
19,53,14136,81,60,1,2,20,14,11.mid,experiment,0
20,55,14422,81,64,1,2,20,14,11.mid,experiment,0
21,57,14755,83,66,1,2,20,14,11.mid,experiment,0
22,58,15038,81,74,1,2,20,14,11.mid,experiment,0
23,61,15317,84,78,1,2,20,14,11.mid,experiment,0
24,62,15599,81,75,1,2,20,14,11.mid,experiment,0
25,64,15873,78,70,1,2,20,14,11.mid,experiment,0
26,67,16165,79,75,1,2,20,14,11.mid,experiment,0
27,69,16475,79,74,1,2,20,14,11.mid,experiment,0
28,71,17141,79,70,1,2,20,14,11.mid,experiment,0
29,73,18768,77,63,1,2,20,14,11.mid,experiment,0
30,75,19065,77,60,1,2,20,14,11.mid,experiment,0
31,77,19346,76,52,1,2,20,14,11.mid,experiment,0
32,79,19632,76,56,1,2,20,14,11.mid,experiment,0
33,81,19949,74,53,1,2,20,14,11.mid,experiment,0
34,83,21259,79,56,1,2,20,14,11.mid,experiment,0
35,84,21883,77,62,1,2,20,14,11.mid,experiment,0
36,86,22485,76,58,1,2,20,14,11.mid,experiment,0
37,89,22797,76,56,1,2,20,14,11.mid,experiment,0
38,91,23093,76,56,1,2,20,14,11.mid,experiment,0
39,93,23387,76,43,1,2,20,14,11.mid,experiment,0
40,95,23753,81,54,1,2,20,14,11.mid,experiment,0
41,96,24049,77,73,1,2,20,14,11.mid,experiment,0
42,98,24340,76,71,1,2,20,14,11.mid,experiment,0
43,100,24607,74,75,1,2,20,14,11.mid,experiment,0
44,102,24897,76,77,1,2,20,14,11.mid,experiment,0
45,104,25179,79,75,1,2,20,14,11.mid,experiment,0
46,106,25463,74,85,1,2,20,14,11.mid,experiment,0
47,108,25757,71,83,1,2,20,14,11.mid,experiment,0
48,110,26073,72,65,1,2,20,14,11.mid,experiment,0
49,113,26356,72,63,1,2,20,14,11.mid,experiment,0
50,115,26635,74,60,1,2,20,14,11.mid,experiment,0
51,117,26922,74,49,1,2,20,14,11.mid,experiment,0
52,119,27258,76,41,1,2,20,14,11.mid,experiment,0
53,121,28485,65,51,1,2,20,14,11.mid,experiment,0
54,123,28783,65,59,1,2,20,14,11.mid,experiment,0
55,125,29050,64,64,1,2,20,14,11.mid,experiment,0
56,127,29345,64,59,1,2,20,14,11.mid,experiment,0
57,129,29669,62,50,1,2,20,14,11.mid,experiment,0
58,131,30974,67,52,1,2,20,14,11.mid,experiment,0
59,133,31275,67,61,1,2,20,14,11.mid,experiment,0
60,135,31564,71,62,1,2,20,14,11.mid,experiment,0
61,137,31836,71,68,1,2,20,14,11.mid,experiment,0
62,139,32123,72,73,1,2,20,14,11.mid,experiment,0
63,141,32403,72,77,1,2,20,14,11.mid,experiment,0
64,143,32686,73,70,1,2,20,14,11.mid,experiment,0
65,145,32948,73,75,1,2,20,14,11.mid,experiment,0
66,147,33302,74,78,1,2,20,14,11.mid,experiment,0
67,148,33897,77,78,1,2,20,14,11.mid,experiment,0
68,150,34483,76,74,1,2,20,14,11.mid,experiment,0
69,152,35063,74,78,1,2,20,14,11.mid,experiment,0
70,155,35693,72,80,1,2,20,14,11.mid,experiment,0
71,156,36314,84,84,1,2,20,14,11.mid,experiment,0
72,159,36960,84,81,1,2,20,14,11.mid,experiment,0
1,17,9716,79,68,1,2,20,15,15.mid,experiment,0
2,18,10061,78,78,1,2,20,15,15.mid,experiment,0
3,21,10358,79,87,1,2,20,15,15.mid,experiment,0
4,22,10642,76,85,1,2,20,15,15.mid,experiment,0
5,24,10977,72,79,1,2,20,15,15.mid,experiment,0
6,27,11291,67,63,1,2,20,15,15.mid,experiment,0
7,29,11606,67,56,1,2,20,15,15.mid,experiment,0
8,31,11911,67,56,1,2,20,15,15.mid,experiment,0
9,33,12293,79,68,1,2,20,15,15.mid,experiment,0
10,34,12592,78,78,1,2,20,15,15.mid,experiment,0
11,36,12880,79,79,1,2,20,15,15.mid,experiment,0
12,38,13157,76,72,1,2,20,15,15.mid,experiment,0
13,40,13459,72,76,1,2,20,15,15.mid,experiment,0
14,42,13734,76,79,1,2,20,15,15.mid,experiment,0
15,44,14022,79,91,1,2,20,15,15.mid,experiment,0
16,46,14291,84,91,1,2,20,15,15.mid,experiment,0
17,48,14599,83,89,1,2,20,15,15.mid,experiment,0
18,50,14917,81,65,1,2,20,15,15.mid,experiment,0
19,53,15215,81,61,1,2,20,15,15.mid,experiment,0
20,55,15486,81,60,1,2,20,15,15.mid,experiment,0
21,57,15836,83,67,1,2,20,15,15.mid,experiment,0
22,58,16122,81,79,1,2,20,15,15.mid,experiment,0
23,61,16415,84,83,1,2,20,15,15.mid,experiment,0
24,62,16685,81,81,1,2,20,15,15.mid,experiment,0
25,64,16996,78,75,1,2,20,15,15.mid,experiment,0
26,67,17273,79,78,1,2,20,15,15.mid,experiment,0
27,69,17605,79,79,1,2,20,15,15.mid,experiment,0
28,71,18244,79,87,1,2,20,15,15.mid,experiment,0
29,73,19670,77,48,1,2,20,15,15.mid,experiment,0
30,75,19961,77,61,1,2,20,15,15.mid,experiment,0
31,77,20242,76,53,1,2,20,15,15.mid,experiment,0
32,79,20532,76,58,1,2,20,15,15.mid,experiment,0
33,81,20865,74,56,1,2,20,15,15.mid,experiment,0
34,83,22223,79,53,1,2,20,15,15.mid,experiment,0
35,84,22837,77,58,1,2,20,15,15.mid,experiment,0
36,86,23430,76,51,1,2,20,15,15.mid,experiment,0
37,89,23747,76,54,1,2,20,15,15.mid,experiment,0
38,91,24043,76,56,1,2,20,15,15.mid,experiment,0
39,93,24316,76,52,1,2,20,15,15.mid,experiment,0
40,95,24711,81,65,1,2,20,15,15.mid,experiment,0
41,96,25023,77,70,1,2,20,15,15.mid,experiment,0
42,98,25309,76,74,1,2,20,15,15.mid,experiment,0
43,100,25579,74,81,1,2,20,15,15.mid,experiment,0
44,102,25862,76,85,1,2,20,15,15.mid,experiment,0
45,104,26145,79,85,1,2,20,15,15.mid,experiment,0
46,106,26447,74,84,1,2,20,15,15.mid,experiment,0
47,108,26748,71,79,1,2,20,15,15.mid,experiment,0
48,110,27059,72,72,1,2,20,15,15.mid,experiment,0
49,113,27355,72,66,1,2,20,15,15.mid,experiment,0
50,115,27633,74,62,1,2,20,15,15.mid,experiment,0
51,117,27923,74,56,1,2,20,15,15.mid,experiment,0
52,119,28255,76,50,1,2,20,15,15.mid,experiment,0
53,121,29466,65,58,1,2,20,15,15.mid,experiment,0
54,123,29762,65,67,1,2,20,15,15.mid,experiment,0
55,125,30047,64,62,1,2,20,15,15.mid,experiment,0
56,127,30331,64,58,1,2,20,15,15.mid,experiment,0
57,129,30658,62,51,1,2,20,15,15.mid,experiment,0
58,131,31962,67,42,1,2,20,15,15.mid,experiment,0
59,133,32256,67,54,1,2,20,15,15.mid,experiment,0
60,135,32523,71,63,1,2,20,15,15.mid,experiment,0
61,137,32807,71,61,1,2,20,15,15.mid,experiment,0
62,139,33078,72,65,1,2,20,15,15.mid,experiment,0
63,141,33365,72,64,1,2,20,15,15.mid,experiment,0
64,143,33629,73,68,1,2,20,15,15.mid,experiment,0
65,145,33912,73,73,1,2,20,15,15.mid,experiment,0
66,147,34228,74,74,1,2,20,15,15.mid,experiment,0
67,148,34833,77,75,1,2,20,15,15.mid,experiment,0
68,150,35347,76,64,1,2,20,15,15.mid,experiment,0
69,152,35942,74,75,1,2,20,15,15.mid,experiment,0
70,154,36568,72,75,1,2,20,15,15.mid,experiment,0
71,156,37174,84,81,1,2,20,15,15.mid,experiment,0
72,159,37843,84,89,1,2,20,15,15.mid,experiment,0
1,17,9415,79,66,1,2,20,16,9.mid,experiment,0
2,18,9743,78,81,1,2,20,16,9.mid,experiment,0
3,20,10039,79,81,1,2,20,16,9.mid,experiment,0
4,22,10323,76,78,1,2,20,16,9.mid,experiment,0
5,24,10634,72,81,1,2,20,16,9.mid,experiment,0
6,26,10937,67,68,1,2,20,16,9.mid,experiment,0
7,29,11238,67,58,1,2,20,16,9.mid,experiment,0
8,31,11529,67,63,1,2,20,16,9.mid,experiment,0
9,33,11881,79,65,1,2,20,16,9.mid,experiment,0
10,34,12168,78,70,1,2,20,16,9.mid,experiment,0
11,36,12457,79,68,1,2,20,16,9.mid,experiment,0
12,38,12748,76,67,1,2,20,16,9.mid,experiment,0
13,40,13031,72,71,1,2,20,16,9.mid,experiment,0
14,42,13297,76,78,1,2,20,16,9.mid,experiment,0
15,44,13588,79,88,1,2,20,16,9.mid,experiment,0
16,46,13852,84,89,1,2,20,16,9.mid,experiment,0
17,48,14133,83,83,1,2,20,16,9.mid,experiment,0
18,50,14424,81,72,1,2,20,16,9.mid,experiment,0
19,53,14716,81,57,1,2,20,16,9.mid,experiment,0
20,55,15009,81,57,1,2,20,16,9.mid,experiment,0
21,57,15309,83,64,1,2,20,16,9.mid,experiment,0
22,58,15591,81,78,1,2,20,16,9.mid,experiment,0
23,60,15866,84,90,1,2,20,16,9.mid,experiment,0
24,62,16145,81,81,1,2,20,16,9.mid,experiment,0
25,64,16428,78,78,1,2,20,16,9.mid,experiment,0
26,66,16694,79,78,1,2,20,16,9.mid,experiment,0
27,69,17008,79,69,1,2,20,16,9.mid,experiment,0
28,71,17636,79,73,1,2,20,16,9.mid,experiment,0
29,73,18894,77,60,1,2,20,16,9.mid,experiment,0
30,75,19203,77,62,1,2,20,16,9.mid,experiment,0
31,77,19484,76,54,1,2,20,16,9.mid,experiment,0
32,79,19759,76,60,1,2,20,16,9.mid,experiment,0
33,81,20084,74,57,1,2,20,16,9.mid,experiment,0
34,83,21459,79,52,1,2,20,16,9.mid,experiment,0
35,85,22110,77,62,1,2,20,16,9.mid,experiment,0
36,86,22668,76,52,1,2,20,16,9.mid,experiment,0
37,89,22980,76,64,1,2,20,16,9.mid,experiment,0
38,91,23276,76,54,1,2,20,16,9.mid,experiment,0
39,93,23570,76,54,1,2,20,16,9.mid,experiment,0
40,95,23908,81,68,1,2,20,16,9.mid,experiment,0
41,96,24193,77,71,1,2,20,16,9.mid,experiment,0
42,98,24494,76,72,1,2,20,16,9.mid,experiment,0
43,100,24766,74,78,1,2,20,16,9.mid,experiment,0
44,102,25064,76,77,1,2,20,16,9.mid,experiment,0
45,104,25354,79,79,1,2,20,16,9.mid,experiment,0
46,106,25630,74,76,1,2,20,16,9.mid,experiment,0
47,108,25920,71,72,1,2,20,16,9.mid,experiment,0
48,110,26218,72,62,1,2,20,16,9.mid,experiment,0
49,113,26511,72,60,1,2,20,16,9.mid,experiment,0
50,115,26790,74,57,1,2,20,16,9.mid,experiment,0
51,117,27075,74,52,1,2,20,16,9.mid,experiment,0
52,119,27410,76,46,1,2,20,16,9.mid,experiment,0
53,121,28596,65,57,1,2,20,16,9.mid,experiment,0
54,123,28905,65,63,1,2,20,16,9.mid,experiment,0
55,125,29193,64,53,1,2,20,16,9.mid,experiment,0
56,127,29481,64,54,1,2,20,16,9.mid,experiment,0
57,129,29821,62,49,1,2,20,16,9.mid,experiment,0
58,131,31176,67,59,1,2,20,16,9.mid,experiment,0
59,133,31508,67,58,1,2,20,16,9.mid,experiment,0
60,135,31818,71,57,1,2,20,16,9.mid,experiment,0
61,137,32107,71,57,1,2,20,16,9.mid,experiment,0
62,139,32382,72,62,1,2,20,16,9.mid,experiment,0
63,141,32656,72,66,1,2,20,16,9.mid,experiment,0
64,143,32939,73,68,1,2,20,16,9.mid,experiment,0
65,145,33209,73,69,1,2,20,16,9.mid,experiment,0
66,147,33591,74,75,1,2,20,16,9.mid,experiment,0
67,148,34211,77,81,1,2,20,16,9.mid,experiment,0
68,150,34798,76,75,1,2,20,16,9.mid,experiment,0
69,152,35411,74,69,1,2,20,16,9.mid,experiment,0
70,155,35988,72,75,1,2,20,16,9.mid,experiment,0
71,157,36632,84,93,1,2,20,16,9.mid,experiment,0
72,159,37292,84,90,1,2,20,16,9.mid,experiment,0
1,17,7768,79,76,1,2,21,1,1.mid,experiment,0
2,18,8080,78,70,1,2,21,1,1.mid,experiment,0
3,20,8365,79,73,1,2,21,1,1.mid,experiment,0
4,23,8638,76,75,1,2,21,1,1.mid,experiment,0
5,24,8932,72,67,1,2,21,1,1.mid,experiment,0
6,27,9197,67,64,1,2,21,1,1.mid,experiment,0
7,29,9489,67,58,1,2,21,1,1.mid,experiment,0
8,31,9755,67,59,1,2,21,1,1.mid,experiment,0
9,33,10015,79,75,1,2,21,1,1.mid,experiment,0
10,34,10295,78,75,1,2,21,1,1.mid,experiment,0
11,36,10577,79,72,1,2,21,1,1.mid,experiment,0
12,39,10877,76,65,1,2,21,1,1.mid,experiment,0
13,41,11158,72,70,1,2,21,1,1.mid,experiment,0
14,42,11419,76,74,1,2,21,1,1.mid,experiment,0
15,44,11693,79,81,1,2,21,1,1.mid,experiment,0
16,47,11939,84,74,1,2,21,1,1.mid,experiment,0
17,48,12251,83,67,1,2,21,1,1.mid,experiment,0
18,51,12517,81,58,1,2,21,1,1.mid,experiment,0
19,53,12785,81,63,1,2,21,1,1.mid,experiment,0
20,55,13052,81,60,1,2,21,1,1.mid,experiment,0
21,57,13331,83,68,1,2,21,1,1.mid,experiment,0
22,59,13609,81,76,1,2,21,1,1.mid,experiment,0
23,61,13878,84,70,1,2,21,1,1.mid,experiment,0
24,62,14142,81,65,1,2,21,1,1.mid,experiment,0
25,65,14405,78,73,1,2,21,1,1.mid,experiment,0
26,67,14686,79,66,1,2,21,1,1.mid,experiment,0
27,69,14967,79,57,1,2,21,1,1.mid,experiment,0
28,71,15547,79,51,1,2,21,1,1.mid,experiment,0
29,73,16498,77,51,1,2,21,1,1.mid,experiment,0
30,75,16768,77,67,1,2,21,1,1.mid,experiment,0
31,77,17062,76,53,1,2,21,1,1.mid,experiment,0
32,79,17329,76,57,1,2,21,1,1.mid,experiment,0
33,81,17655,74,50,1,2,21,1,1.mid,experiment,0
34,83,18660,79,48,1,2,21,1,1.mid,experiment,0
35,85,19197,77,58,1,2,21,1,1.mid,experiment,0
36,87,19750,76,60,1,2,21,1,1.mid,experiment,0
37,89,20044,76,59,1,2,21,1,1.mid,experiment,0
38,91,20311,76,71,1,2,21,1,1.mid,experiment,0
39,93,20588,76,65,1,2,21,1,1.mid,experiment,0
40,95,20888,81,51,1,2,21,1,1.mid,experiment,0
41,97,21136,77,62,1,2,21,1,1.mid,experiment,0
42,99,21398,76,63,1,2,21,1,1.mid,experiment,0
43,101,21664,74,70,1,2,21,1,1.mid,experiment,0
44,102,21930,76,75,1,2,21,1,1.mid,experiment,0
45,105,22196,79,70,1,2,21,1,1.mid,experiment,0
46,107,22461,74,66,1,2,21,1,1.mid,experiment,0
47,109,22733,71,56,1,2,21,1,1.mid,experiment,0
48,111,22979,72,57,1,2,21,1,1.mid,experiment,0
49,113,23250,72,66,1,2,21,1,1.mid,experiment,0
50,115,23518,74,59,1,2,21,1,1.mid,experiment,0
51,117,23789,74,63,1,2,21,1,1.mid,experiment,0
52,119,24114,76,35,1,2,21,1,1.mid,experiment,0
53,121,25106,65,56,1,2,21,1,1.mid,experiment,0
54,123,25389,65,65,1,2,21,1,1.mid,experiment,0
55,125,25651,64,57,1,2,21,1,1.mid,experiment,0
56,127,25909,64,72,1,2,21,1,1.mid,experiment,0
57,129,26223,62,53,1,2,21,1,1.mid,experiment,0
58,131,27155,67,63,1,2,21,1,1.mid,experiment,0
59,133,27432,67,63,1,2,21,1,1.mid,experiment,0
60,135,27703,71,69,1,2,21,1,1.mid,experiment,0
61,137,27963,71,70,1,2,21,1,1.mid,experiment,0
62,139,28224,72,77,1,2,21,1,1.mid,experiment,0
63,141,28487,72,89,1,2,21,1,1.mid,experiment,0
64,143,28745,73,93,1,2,21,1,1.mid,experiment,0
65,145,28996,73,91,1,2,21,1,1.mid,experiment,0
66,147,29263,74,80,1,2,21,1,1.mid,experiment,0
67,149,29769,77,84,1,2,21,1,1.mid,experiment,0
68,150,30297,76,80,1,2,21,1,1.mid,experiment,0
69,152,30853,74,80,1,2,21,1,1.mid,experiment,0
70,155,31373,72,78,1,2,21,1,1.mid,experiment,0
71,157,31997,84,83,1,2,21,1,1.mid,experiment,0
72,159,32580,84,81,1,2,21,1,1.mid,experiment,0
1,17,7828,79,67,1,2,21,4,15.mid,experiment,0
2,18,8128,78,70,1,2,21,4,15.mid,experiment,0
3,20,8417,79,65,1,2,21,4,15.mid,experiment,0
4,23,8668,76,62,1,2,21,4,15.mid,experiment,0
5,25,8997,72,56,1,2,21,4,15.mid,experiment,0
6,27,9243,67,48,1,2,21,4,15.mid,experiment,0
7,29,9551,67,46,1,2,21,4,15.mid,experiment,0
8,31,9828,67,57,1,2,21,4,15.mid,experiment,0
9,33,10131,79,62,1,2,21,4,15.mid,experiment,0
10,34,10408,78,74,1,2,21,4,15.mid,experiment,0
11,36,10684,79,73,1,2,21,4,15.mid,experiment,0
12,38,10977,76,72,1,2,21,4,15.mid,experiment,0
13,41,11268,72,79,1,2,21,4,15.mid,experiment,0
14,42,11540,76,75,1,2,21,4,15.mid,experiment,0
15,44,11828,79,83,1,2,21,4,15.mid,experiment,0
16,46,12101,84,63,1,2,21,4,15.mid,experiment,0
17,48,12382,83,55,1,2,21,4,15.mid,experiment,0
18,51,12662,81,50,1,2,21,4,15.mid,experiment,0
19,53,12952,81,45,1,2,21,4,15.mid,experiment,0
20,55,13216,81,65,1,2,21,4,15.mid,experiment,0
21,57,13516,83,61,1,2,21,4,15.mid,experiment,0
22,58,13780,81,74,1,2,21,4,15.mid,experiment,0
23,60,14056,84,69,1,2,21,4,15.mid,experiment,0
24,62,14310,81,79,1,2,21,4,15.mid,experiment,0
25,64,14583,78,71,1,2,21,4,15.mid,experiment,0
26,67,14851,79,64,1,2,21,4,15.mid,experiment,0
27,69,15195,79,50,1,2,21,4,15.mid,experiment,0
28,71,15809,79,52,1,2,21,4,15.mid,experiment,0
29,73,16904,77,42,1,2,21,4,15.mid,experiment,0
30,75,17216,77,41,1,2,21,4,15.mid,experiment,0
31,77,17471,76,41,1,2,21,4,15.mid,experiment,0
32,79,17730,76,54,1,2,21,4,15.mid,experiment,0
33,81,18064,74,46,1,2,21,4,15.mid,experiment,0
34,83,19133,79,44,1,2,21,4,15.mid,experiment,0
35,85,19697,77,52,1,2,21,4,15.mid,experiment,0
36,87,20270,76,53,1,2,21,4,15.mid,experiment,0
37,89,20550,76,61,1,2,21,4,15.mid,experiment,0
38,91,20813,76,64,1,2,21,4,15.mid,experiment,0
39,93,21066,76,79,1,2,21,4,15.mid,experiment,0
40,95,21400,81,78,1,2,21,4,15.mid,experiment,0
41,96,21716,77,71,1,2,21,4,15.mid,experiment,0
42,98,21990,76,71,1,2,21,4,15.mid,experiment,0
43,100,22240,74,73,1,2,21,4,15.mid,experiment,0
44,102,22510,76,78,1,2,21,4,15.mid,experiment,0
45,105,22779,79,63,1,2,21,4,15.mid,experiment,0
46,106,23047,74,61,1,2,21,4,15.mid,experiment,0
47,109,23325,71,55,1,2,21,4,15.mid,experiment,0
48,111,23599,72,47,1,2,21,4,15.mid,experiment,0
49,113,23856,72,47,1,2,21,4,15.mid,experiment,0
50,115,24138,74,48,1,2,21,4,15.mid,experiment,0
51,117,24389,74,60,1,2,21,4,15.mid,experiment,0
52,119,24788,76,33,1,2,21,4,15.mid,experiment,0
53,121,25843,65,44,1,2,21,4,15.mid,experiment,0
54,123,26127,65,46,1,2,21,4,15.mid,experiment,0
55,125,26411,64,42,1,2,21,4,15.mid,experiment,0
56,127,26677,64,59,1,2,21,4,15.mid,experiment,0
57,129,27026,62,45,1,2,21,4,15.mid,experiment,0
58,131,27993,67,48,1,2,21,4,15.mid,experiment,0
59,133,28277,67,59,1,2,21,4,15.mid,experiment,0
60,135,28562,71,64,1,2,21,4,15.mid,experiment,0
61,137,28822,71,74,1,2,21,4,15.mid,experiment,0
62,139,29082,72,85,1,2,21,4,15.mid,experiment,0
63,141,29347,72,90,1,2,21,4,15.mid,experiment,0
64,143,29610,73,88,1,2,21,4,15.mid,experiment,0
65,145,29874,73,87,1,2,21,4,15.mid,experiment,0
66,147,30146,74,85,1,2,21,4,15.mid,experiment,0
67,149,30683,77,84,1,2,21,4,15.mid,experiment,0
68,151,31297,76,82,1,2,21,4,15.mid,experiment,0
69,153,31875,74,83,1,2,21,4,15.mid,experiment,0
70,155,32471,72,81,1,2,21,4,15.mid,experiment,0
71,157,33072,84,67,1,2,21,4,15.mid,experiment,0
72,159,33732,84,73,1,2,21,4,15.mid,experiment,0
1,17,7814,79,67,1,2,21,12,6.mid,experiment,0
2,18,8109,78,73,1,2,21,12,6.mid,experiment,0
3,20,8401,79,68,1,2,21,12,6.mid,experiment,0
4,23,8674,76,70,1,2,21,12,6.mid,experiment,0
5,25,8996,72,58,1,2,21,12,6.mid,experiment,0
6,27,9297,67,33,1,2,21,12,6.mid,experiment,0
7,29,9569,67,47,1,2,21,12,6.mid,experiment,0
8,31,9841,67,55,1,2,21,12,6.mid,experiment,0
9,33,10147,79,55,1,2,21,12,6.mid,experiment,0
10,34,10432,78,68,1,2,21,12,6.mid,experiment,0
11,36,10710,79,64,1,2,21,12,6.mid,experiment,0
12,39,10989,76,70,1,2,21,12,6.mid,experiment,0
13,41,11273,72,79,1,2,21,12,6.mid,experiment,0
14,42,11557,76,71,1,2,21,12,6.mid,experiment,0
15,44,11819,79,70,1,2,21,12,6.mid,experiment,0
16,47,12108,84,63,1,2,21,12,6.mid,experiment,0
17,49,12388,83,51,1,2,21,12,6.mid,experiment,0
18,51,12656,81,46,1,2,21,12,6.mid,experiment,0
19,53,12932,81,51,1,2,21,12,6.mid,experiment,0
20,55,13222,81,51,1,2,21,12,6.mid,experiment,0
21,57,13514,83,67,1,2,21,12,6.mid,experiment,0
22,58,13792,81,63,1,2,21,12,6.mid,experiment,0
23,61,14097,84,71,1,2,21,12,6.mid,experiment,0
24,62,14392,81,70,1,2,21,12,6.mid,experiment,0
25,65,14672,78,70,1,2,21,12,6.mid,experiment,0
26,67,14945,79,65,1,2,21,12,6.mid,experiment,0
27,69,15270,79,56,1,2,21,12,6.mid,experiment,0
28,71,15866,79,64,1,2,21,12,6.mid,experiment,0
29,73,16985,77,53,1,2,21,12,6.mid,experiment,0
30,75,17264,77,52,1,2,21,12,6.mid,experiment,0
31,77,17548,76,48,1,2,21,12,6.mid,experiment,0
32,79,17829,76,49,1,2,21,12,6.mid,experiment,0
33,81,18175,74,41,1,2,21,12,6.mid,experiment,0
34,83,19286,79,55,1,2,21,12,6.mid,experiment,0
35,85,19867,77,67,1,2,21,12,6.mid,experiment,0
36,87,20457,76,63,1,2,21,12,6.mid,experiment,0
37,89,20729,76,66,1,2,21,12,6.mid,experiment,0
38,91,20997,76,81,1,2,21,12,6.mid,experiment,0
39,93,21271,76,77,1,2,21,12,6.mid,experiment,0
40,95,21627,81,79,1,2,21,12,6.mid,experiment,0
41,97,21958,77,71,1,2,21,12,6.mid,experiment,0
42,98,22235,76,71,1,2,21,12,6.mid,experiment,0
43,101,22493,74,81,1,2,21,12,6.mid,experiment,0
44,103,22774,76,70,1,2,21,12,6.mid,experiment,0
45,105,23033,79,79,1,2,21,12,6.mid,experiment,0
46,106,23311,74,67,1,2,21,12,6.mid,experiment,0
47,109,23612,71,49,1,2,21,12,6.mid,experiment,0
48,111,23871,72,42,1,2,21,12,6.mid,experiment,0
49,113,24156,72,42,1,2,21,12,6.mid,experiment,0
50,115,24409,74,54,1,2,21,12,6.mid,experiment,0
51,117,24686,74,44,1,2,21,12,6.mid,experiment,0
52,119,25037,76,29,1,2,21,12,6.mid,experiment,0
53,121,26084,65,57,1,2,21,12,6.mid,experiment,0
54,123,26368,65,55,1,2,21,12,6.mid,experiment,0
55,125,26631,64,49,1,2,21,12,6.mid,experiment,0
56,127,26900,64,52,1,2,21,12,6.mid,experiment,0
57,129,27252,62,43,1,2,21,12,6.mid,experiment,0
58,131,28313,67,51,1,2,21,12,6.mid,experiment,0
59,133,28593,67,57,1,2,21,12,6.mid,experiment,0
60,135,28872,71,56,1,2,21,12,6.mid,experiment,0
61,137,29146,71,63,1,2,21,12,6.mid,experiment,0
62,139,29420,72,71,1,2,21,12,6.mid,experiment,0
63,141,29695,72,79,1,2,21,12,6.mid,experiment,0
64,143,29959,73,81,1,2,21,12,6.mid,experiment,0
65,145,30235,73,82,1,2,21,12,6.mid,experiment,0
66,147,30523,74,78,1,2,21,12,6.mid,experiment,0
67,149,31091,77,81,1,2,21,12,6.mid,experiment,0
68,151,31637,76,78,1,2,21,12,6.mid,experiment,0
69,153,32193,74,76,1,2,21,12,6.mid,experiment,0
70,155,32776,72,70,1,2,21,12,6.mid,experiment,0
71,157,33343,84,85,1,2,21,12,6.mid,experiment,0
72,159,34036,84,79,1,2,21,12,6.mid,experiment,0
1,17,7847,79,63,1,2,21,14,4.mid,experiment,0
2,18,8150,78,71,1,2,21,14,4.mid,experiment,0
3,20,8448,79,72,1,2,21,14,4.mid,experiment,0
4,23,8725,76,75,1,2,21,14,4.mid,experiment,0
5,25,9028,72,67,1,2,21,14,4.mid,experiment,0
6,27,9296,67,53,1,2,21,14,4.mid,experiment,0
7,29,9594,67,49,1,2,21,14,4.mid,experiment,0
8,31,9868,67,48,1,2,21,14,4.mid,experiment,0
9,33,10120,79,56,1,2,21,14,4.mid,experiment,0
10,35,10419,78,64,1,2,21,14,4.mid,experiment,0
11,36,10697,79,69,1,2,21,14,4.mid,experiment,0
12,39,10999,76,78,1,2,21,14,4.mid,experiment,0
13,41,11288,72,79,1,2,21,14,4.mid,experiment,0
14,42,11544,76,74,1,2,21,14,4.mid,experiment,0
15,44,11826,79,80,1,2,21,14,4.mid,experiment,0
16,47,12106,84,60,1,2,21,14,4.mid,experiment,0
17,48,12378,83,58,1,2,21,14,4.mid,experiment,0
18,51,12663,81,49,1,2,21,14,4.mid,experiment,0
19,53,12941,81,54,1,2,21,14,4.mid,experiment,0
20,55,13222,81,59,1,2,21,14,4.mid,experiment,0
21,57,13492,83,70,1,2,21,14,4.mid,experiment,0
22,58,13778,81,61,1,2,21,14,4.mid,experiment,0
23,61,14057,84,59,1,2,21,14,4.mid,experiment,0
24,63,14324,81,68,1,2,21,14,4.mid,experiment,0
25,64,14600,78,71,1,2,21,14,4.mid,experiment,0
26,66,14898,79,58,1,2,21,14,4.mid,experiment,0
27,69,15187,79,66,1,2,21,14,4.mid,experiment,0
28,71,15837,79,56,1,2,21,14,4.mid,experiment,0
29,73,16953,77,37,1,2,21,14,4.mid,experiment,0
30,75,17233,77,56,1,2,21,14,4.mid,experiment,0
31,77,17515,76,53,1,2,21,14,4.mid,experiment,0
32,79,17786,76,54,1,2,21,14,4.mid,experiment,0
33,81,18102,74,48,1,2,21,14,4.mid,experiment,0
34,83,19202,79,59,1,2,21,14,4.mid,experiment,0
35,85,19770,77,65,1,2,21,14,4.mid,experiment,0
36,87,20343,76,65,1,2,21,14,4.mid,experiment,0
37,89,20628,76,72,1,2,21,14,4.mid,experiment,0
38,91,20892,76,76,1,2,21,14,4.mid,experiment,0
39,93,21160,76,78,1,2,21,14,4.mid,experiment,0
40,95,21498,81,67,1,2,21,14,4.mid,experiment,0
41,96,21844,77,58,1,2,21,14,4.mid,experiment,0
42,99,22125,76,57,1,2,21,14,4.mid,experiment,0
43,101,22384,74,67,1,2,21,14,4.mid,experiment,0
44,103,22656,76,56,1,2,21,14,4.mid,experiment,0
45,105,22927,79,54,1,2,21,14,4.mid,experiment,0
46,107,23199,74,46,1,2,21,14,4.mid,experiment,0
47,109,23446,71,46,1,2,21,14,4.mid,experiment,0
48,111,23719,72,45,1,2,21,14,4.mid,experiment,0
49,113,23990,72,50,1,2,21,14,4.mid,experiment,0
50,115,24245,74,59,1,2,21,14,4.mid,experiment,0
51,117,24524,74,58,1,2,21,14,4.mid,experiment,0
52,119,24901,76,40,1,2,21,14,4.mid,experiment,0
53,121,26011,65,50,1,2,21,14,4.mid,experiment,0
54,123,26297,65,52,1,2,21,14,4.mid,experiment,0
55,125,26591,64,34,1,2,21,14,4.mid,experiment,0
56,127,26849,64,47,1,2,21,14,4.mid,experiment,0
57,129,27163,62,43,1,2,21,14,4.mid,experiment,0
58,131,28229,67,53,1,2,21,14,4.mid,experiment,0
59,133,28517,67,56,1,2,21,14,4.mid,experiment,0
60,135,28795,71,65,1,2,21,14,4.mid,experiment,0
61,137,29059,71,73,1,2,21,14,4.mid,experiment,0
62,139,29329,72,81,1,2,21,14,4.mid,experiment,0
63,141,29605,72,82,1,2,21,14,4.mid,experiment,0
64,143,29868,73,88,1,2,21,14,4.mid,experiment,0
65,145,30147,73,83,1,2,21,14,4.mid,experiment,0
66,147,30418,74,81,1,2,21,14,4.mid,experiment,0
67,149,30959,77,74,1,2,21,14,4.mid,experiment,0
68,151,31495,76,81,1,2,21,14,4.mid,experiment,0
69,153,32075,74,76,1,2,21,14,4.mid,experiment,0
70,155,32632,72,83,1,2,21,14,4.mid,experiment,0
71,157,33203,84,83,1,2,21,14,4.mid,experiment,0
72,159,33859,84,81,1,2,21,14,4.mid,experiment,0
1,17,7792,79,68,1,2,21,16,11.mid,experiment,0
2,18,8069,78,71,1,2,21,16,11.mid,experiment,0
3,20,8387,79,62,1,2,21,16,11.mid,experiment,0
4,23,8658,76,65,1,2,21,16,11.mid,experiment,0
5,25,8960,72,57,1,2,21,16,11.mid,experiment,0
6,27,9252,67,49,1,2,21,16,11.mid,experiment,0
7,29,9552,67,47,1,2,21,16,11.mid,experiment,0
8,31,9839,67,51,1,2,21,16,11.mid,experiment,0
9,33,10126,79,58,1,2,21,16,11.mid,experiment,0
10,34,10402,78,72,1,2,21,16,11.mid,experiment,0
11,37,10701,79,67,1,2,21,16,11.mid,experiment,0
12,39,10985,76,66,1,2,21,16,11.mid,experiment,0
13,41,11259,72,78,1,2,21,16,11.mid,experiment,0
14,42,11552,76,75,1,2,21,16,11.mid,experiment,0
15,44,11843,79,72,1,2,21,16,11.mid,experiment,0
16,47,12124,84,58,1,2,21,16,11.mid,experiment,0
17,49,12433,83,44,1,2,21,16,11.mid,experiment,0
18,51,12700,81,42,1,2,21,16,11.mid,experiment,0
19,53,12975,81,49,1,2,21,16,11.mid,experiment,0
20,55,13244,81,57,1,2,21,16,11.mid,experiment,0
21,57,13530,83,72,1,2,21,16,11.mid,experiment,0
22,58,13820,81,72,1,2,21,16,11.mid,experiment,0
23,61,14119,84,72,1,2,21,16,11.mid,experiment,0
24,63,14402,81,71,1,2,21,16,11.mid,experiment,0
25,64,14671,78,66,1,2,21,16,11.mid,experiment,0
26,67,14953,79,59,1,2,21,16,11.mid,experiment,0
27,69,15249,79,57,1,2,21,16,11.mid,experiment,0
28,71,15868,79,61,1,2,21,16,11.mid,experiment,0
29,73,16983,77,50,1,2,21,16,11.mid,experiment,0
30,75,17264,77,55,1,2,21,16,11.mid,experiment,0
31,77,17559,76,41,1,2,21,16,11.mid,experiment,0
32,79,17836,76,50,1,2,21,16,11.mid,experiment,0
33,81,18162,74,49,1,2,21,16,11.mid,experiment,0
34,83,19269,79,54,1,2,21,16,11.mid,experiment,0
35,85,19853,77,64,1,2,21,16,11.mid,experiment,0
36,87,20428,76,69,1,2,21,16,11.mid,experiment,0
37,89,20709,76,79,1,2,21,16,11.mid,experiment,0
38,91,20973,76,76,1,2,21,16,11.mid,experiment,0
39,93,21243,76,77,1,2,21,16,11.mid,experiment,0
40,95,21591,81,70,1,2,21,16,11.mid,experiment,0
41,96,21927,77,72,1,2,21,16,11.mid,experiment,0
42,98,22201,76,74,1,2,21,16,11.mid,experiment,0
43,101,22467,74,70,1,2,21,16,11.mid,experiment,0
44,102,22753,76,79,1,2,21,16,11.mid,experiment,0
45,105,23018,79,72,1,2,21,16,11.mid,experiment,0
46,107,23307,74,66,1,2,21,16,11.mid,experiment,0
47,109,23591,71,48,1,2,21,16,11.mid,experiment,0
48,111,23826,72,52,1,2,21,16,11.mid,experiment,0
49,113,24127,72,45,1,2,21,16,11.mid,experiment,0
50,115,24394,74,47,1,2,21,16,11.mid,experiment,0
51,117,24687,74,46,1,2,21,16,11.mid,experiment,0
52,119,25013,76,37,1,2,21,16,11.mid,experiment,0
53,121,26117,65,46,1,2,21,16,11.mid,experiment,0
54,123,26402,65,58,1,2,21,16,11.mid,experiment,0
55,125,26686,64,53,1,2,21,16,11.mid,experiment,0
56,127,26958,64,54,1,2,21,16,11.mid,experiment,0
57,129,27294,62,44,1,2,21,16,11.mid,experiment,0
58,131,28379,67,43,1,2,21,16,11.mid,experiment,0
59,133,28680,67,44,1,2,21,16,11.mid,experiment,0
60,135,28938,71,57,1,2,21,16,11.mid,experiment,0
61,137,29212,71,65,1,2,21,16,11.mid,experiment,0
62,139,29477,72,80,1,2,21,16,11.mid,experiment,0
63,141,29755,72,83,1,2,21,16,11.mid,experiment,0
64,143,30027,73,88,1,2,21,16,11.mid,experiment,0
65,145,30303,73,94,1,2,21,16,11.mid,experiment,0
66,147,30594,74,91,1,2,21,16,11.mid,experiment,0
67,149,31174,77,78,1,2,21,16,11.mid,experiment,0
68,151,31708,76,72,1,2,21,16,11.mid,experiment,0
69,153,32306,74,76,1,2,21,16,11.mid,experiment,0
70,155,32934,72,81,1,2,21,16,11.mid,experiment,0
71,157,33566,84,82,1,2,21,16,11.mid,experiment,0
72,159,34251,84,86,1,2,21,16,11.mid,experiment,0
