RowNr,NoteNr,TimeStamp,Pitch,Velocity,Key_OnOff,Device,SubNr,TrialNr,Stimuli,Session,Error
1,19,8291,79,64,0,2,3,2,14.mid,experiment,1
2,21,8555,78,64,0,2,3,2,14.mid,experiment,1
3,23,8875,79,64,0,2,3,2,14.mid,experiment,1
4,25,9165,76,64,0,2,3,2,14.mid,experiment,1
5,26,9399,72,64,0,2,3,2,14.mid,experiment,1
6,28,9485,67,64,0,2,3,2,14.mid,experiment,1
7,30,9727,67,64,0,2,3,2,14.mid,experiment,1
8,32,9999,67,64,0,2,3,2,14.mid,experiment,1
9,35,10619,79,64,0,2,3,2,14.mid,experiment,1
10,37,10916,78,64,0,2,3,2,14.mid,experiment,1
11,39,11174,79,64,0,2,3,2,14.mid,experiment,1
12,41,11405,76,64,0,2,3,2,14.mid,experiment,1
13,43,11783,72,64,0,2,3,2,14.mid,experiment,1
14,45,12009,76,64,0,2,3,2,14.mid,experiment,1
15,47,12271,79,64,0,2,3,2,14.mid,experiment,1
16,49,12625,84,64,0,2,3,2,14.mid,experiment,1
17,50,12845,83,64,0,2,3,2,14.mid,experiment,1
18,52,12961,81,64,0,2,3,2,14.mid,experiment,1
19,54,13185,81,64,0,2,3,2,14.mid,experiment,1
20,56,13453,81,64,0,2,3,2,14.mid,experiment,1
21,59,13973,83,64,0,2,3,2,14.mid,experiment,1
22,61,14247,81,64,0,2,3,2,14.mid,experiment,1
23,63,14567,84,64,0,2,3,2,14.mid,experiment,1
24,65,14821,81,64,0,2,3,2,14.mid,experiment,1
25,67,15101,78,64,0,2,3,2,14.mid,experiment,1
26,68,15253,79,64,0,2,3,2,14.mid,experiment,1
27,70,15679,79,64,0,2,3,2,14.mid,experiment,1
28,72,16354,79,64,0,2,3,2,14.mid,experiment,1
29,74,17438,77,64,0,2,3,2,14.mid,experiment,1
30,76,17712,77,64,0,2,3,2,14.mid,experiment,1
31,78,17971,76,64,0,2,3,2,14.mid,experiment,1
32,80,18245,76,64,0,2,3,2,14.mid,experiment,1
33,82,18627,74,64,0,2,3,2,14.mid,experiment,1
34,84,19893,79,64,0,2,3,2,14.mid,experiment,1
35,86,20435,77,64,0,2,3,2,14.mid,experiment,1
36,88,20857,76,64,0,2,3,2,14.mid,experiment,1
37,90,21123,76,64,0,2,3,2,14.mid,experiment,1
38,92,21403,76,64,0,2,3,2,14.mid,experiment,1
39,94,21678,76,64,0,2,3,2,14.mid,experiment,1
40,97,22339,81,64,0,2,3,2,14.mid,experiment,1
41,99,22521,77,64,0,2,3,2,14.mid,experiment,1
42,100,22733,76,64,0,2,3,2,14.mid,experiment,1
43,103,23013,74,64,0,2,3,2,14.mid,experiment,1
44,105,23305,76,64,0,2,3,2,14.mid,experiment,1
45,107,23621,79,64,0,2,3,2,14.mid,experiment,1
46,109,23805,74,64,0,2,3,2,14.mid,experiment,1
47,110,23975,71,64,0,2,3,2,14.mid,experiment,1
48,112,24147,72,64,0,2,3,2,14.mid,experiment,1
49,114,24383,72,64,0,2,3,2,14.mid,experiment,1
50,116,24627,74,64,0,2,3,2,14.mid,experiment,1
51,118,24905,74,64,0,2,3,2,14.mid,experiment,1
52,120,25343,76,64,0,2,3,2,14.mid,experiment,1
53,122,26548,65,64,0,2,3,2,14.mid,experiment,1
54,124,26831,65,64,0,2,3,2,14.mid,experiment,1
56,130,28451,64,64,0,2,3,2,14.mid,experiment,1
57,132,28723,64,64,0,2,3,2,14.mid,experiment,1
58,134,29155,62,64,0,2,3,2,14.mid,experiment,1
59,136,30181,67,64,0,2,3,2,14.mid,experiment,1
60,138,30439,67,64,0,2,3,2,14.mid,experiment,1
61,140,30711,71,64,0,2,3,2,14.mid,experiment,1
62,142,30985,71,64,0,2,3,2,14.mid,experiment,1
63,144,31237,72,64,0,2,3,2,14.mid,experiment,1
64,146,31503,72,64,0,2,3,2,14.mid,experiment,1
65,148,31769,73,64,0,2,3,2,14.mid,experiment,1
66,150,32051,73,64,0,2,3,2,14.mid,experiment,1
67,152,32419,74,64,0,2,3,2,14.mid,experiment,1
68,154,32959,77,64,0,2,3,2,14.mid,experiment,1
69,156,33491,76,64,0,2,3,2,14.mid,experiment,1
70,158,33993,74,64,0,2,3,2,14.mid,experiment,1
71,160,34533,72,64,0,2,3,2,14.mid,experiment,1
72,162,35115,84,64,0,2,3,2,14.mid,experiment,1
73,164,35837,84,64,0,2,3,2,14.mid,experiment,1
1,19,8171,79,64,0,2,4,9,8.mid,experiment,1
2,21,8442,78,64,0,2,4,9,8.mid,experiment,1
3,23,8719,79,64,0,2,4,9,8.mid,experiment,1
4,25,9030,76,64,0,2,4,9,8.mid,experiment,1
5,26,9055,72,64,0,2,4,9,8.mid,experiment,1
6,28,9310,67,64,0,2,4,9,8.mid,experiment,1
7,30,9589,67,64,0,2,4,9,8.mid,experiment,1
8,32,9897,67,64,0,2,4,9,8.mid,experiment,1
10,37,10427,79,64,0,2,4,9,8.mid,experiment,1
11,39,10758,78,64,0,2,4,9,8.mid,experiment,1
12,41,11003,79,64,0,2,4,9,8.mid,experiment,1
13,42,11238,76,64,0,2,4,9,8.mid,experiment,1
14,45,11646,72,64,0,2,4,9,8.mid,experiment,1
15,47,11824,76,64,0,2,4,9,8.mid,experiment,1
16,49,12060,79,64,0,2,4,9,8.mid,experiment,1
17,51,12419,84,64,0,2,4,9,8.mid,experiment,1
18,52,12550,83,64,0,2,4,9,8.mid,experiment,1
19,54,12635,81,64,0,2,4,9,8.mid,experiment,1
20,56,12916,81,64,0,2,4,9,8.mid,experiment,1
21,58,13184,81,64,0,2,4,9,8.mid,experiment,1
22,61,13767,83,64,0,2,4,9,8.mid,experiment,1
23,63,14024,81,64,0,2,4,9,8.mid,experiment,1
24,65,14348,84,64,0,2,4,9,8.mid,experiment,1
25,67,14584,81,64,0,2,4,9,8.mid,experiment,1
26,69,14886,78,64,0,2,4,9,8.mid,experiment,1
27,70,14940,79,64,0,2,4,9,8.mid,experiment,1
28,72,15275,79,64,0,2,4,9,8.mid,experiment,1
29,74,16255,79,64,0,2,4,9,8.mid,experiment,1
30,76,16795,77,64,0,2,4,9,8.mid,experiment,1
31,78,17060,77,64,0,2,4,9,8.mid,experiment,1
32,80,17360,76,64,0,2,4,9,8.mid,experiment,1
33,82,17660,76,64,0,2,4,9,8.mid,experiment,1
34,84,18449,74,64,0,2,4,9,8.mid,experiment,1
35,86,19251,79,64,0,2,4,9,8.mid,experiment,1
36,88,19796,77,64,0,2,4,9,8.mid,experiment,1
37,90,20153,76,64,0,2,4,9,8.mid,experiment,1
38,92,20419,76,64,0,2,4,9,8.mid,experiment,1
39,94,20690,76,64,0,2,4,9,8.mid,experiment,1
40,96,20978,76,64,0,2,4,9,8.mid,experiment,1
41,99,21681,81,64,0,2,4,9,8.mid,experiment,1
42,101,21892,77,64,0,2,4,9,8.mid,experiment,1
43,103,22128,76,64,0,2,4,9,8.mid,experiment,1
44,105,22501,74,64,0,2,4,9,8.mid,experiment,1
45,107,22735,76,64,0,2,4,9,8.mid,experiment,1
46,109,23089,79,64,0,2,4,9,8.mid,experiment,1
47,111,23255,74,64,0,2,4,9,8.mid,experiment,1
48,112,23294,71,64,0,2,4,9,8.mid,experiment,1
49,114,23563,72,64,0,2,4,9,8.mid,experiment,1
50,116,23828,72,64,0,2,4,9,8.mid,experiment,1
51,118,24100,74,64,0,2,4,9,8.mid,experiment,1
52,120,24390,74,64,0,2,4,9,8.mid,experiment,1
53,122,25179,76,64,0,2,4,9,8.mid,experiment,1
54,124,25714,65,64,0,2,4,9,8.mid,experiment,1
55,126,25988,65,64,0,2,4,9,8.mid,experiment,1
56,128,26291,64,64,0,2,4,9,8.mid,experiment,1
57,130,26565,64,64,0,2,4,9,8.mid,experiment,1
58,132,27405,62,64,0,2,4,9,8.mid,experiment,1
59,134,27979,67,64,0,2,4,9,8.mid,experiment,1
60,136,28252,67,64,0,2,4,9,8.mid,experiment,1
61,138,28573,71,64,0,2,4,9,8.mid,experiment,1
62,140,28813,71,64,0,2,4,9,8.mid,experiment,1
63,142,29092,72,64,0,2,4,9,8.mid,experiment,1
64,144,29371,72,64,0,2,4,9,8.mid,experiment,1
65,146,29642,73,64,0,2,4,9,8.mid,experiment,1
66,148,29923,73,64,0,2,4,9,8.mid,experiment,1
67,150,30610,74,64,0,2,4,9,8.mid,experiment,1
68,152,31189,77,64,0,2,4,9,8.mid,experiment,1
69,154,31741,76,64,0,2,4,9,8.mid,experiment,1
70,156,32223,74,64,0,2,4,9,8.mid,experiment,1
71,158,32732,72,64,0,2,4,9,8.mid,experiment,1
72,160,33362,84,64,0,2,4,9,8.mid,experiment,1
73,162,34484,84,64,0,2,4,9,8.mid,experiment,1
1,19,8167,79,64,0,2,4,11,2.mid,experiment,1
2,21,8419,78,64,0,2,4,11,2.mid,experiment,1
3,23,8696,79,64,0,2,4,11,2.mid,experiment,1
4,25,9017,76,64,0,2,4,11,2.mid,experiment,1
5,26,9077,72,64,0,2,4,11,2.mid,experiment,1
6,28,9329,67,64,0,2,4,11,2.mid,experiment,1
7,30,9602,67,64,0,2,4,11,2.mid,experiment,1
8,32,9873,67,64,0,2,4,11,2.mid,experiment,1
9,35,10410,79,64,0,2,4,11,2.mid,experiment,1
10,37,10672,78,64,0,2,4,11,2.mid,experiment,1
11,39,10903,79,64,0,2,4,11,2.mid,experiment,1
12,41,11179,76,64,0,2,4,11,2.mid,experiment,1
13,43,11630,72,64,0,2,4,11,2.mid,experiment,1
14,45,11745,76,64,0,2,4,11,2.mid,experiment,1
15,47,11992,79,64,0,2,4,11,2.mid,experiment,1
16,49,12367,84,64,0,2,4,11,2.mid,experiment,1
17,50,12464,83,64,0,2,4,11,2.mid,experiment,1
18,52,12613,81,64,0,2,4,11,2.mid,experiment,1
19,54,12861,81,64,0,2,4,11,2.mid,experiment,1
20,56,13137,81,64,0,2,4,11,2.mid,experiment,1
21,59,13750,83,64,0,2,4,11,2.mid,experiment,1
22,61,13980,81,64,0,2,4,11,2.mid,experiment,1
23,63,14332,84,64,0,2,4,11,2.mid,experiment,1
24,65,14564,81,64,0,2,4,11,2.mid,experiment,1
25,67,14845,78,64,0,2,4,11,2.mid,experiment,1
26,68,14913,79,64,0,2,4,11,2.mid,experiment,1
27,70,15218,79,64,0,2,4,11,2.mid,experiment,1
28,72,16167,79,64,0,2,4,11,2.mid,experiment,1
29,74,16787,77,64,0,2,4,11,2.mid,experiment,1
30,76,17062,77,64,0,2,4,11,2.mid,experiment,1
31,78,17359,76,64,0,2,4,11,2.mid,experiment,1
32,80,17656,76,64,0,2,4,11,2.mid,experiment,1
33,82,18385,74,64,0,2,4,11,2.mid,experiment,1
34,84,19266,79,64,0,2,4,11,2.mid,experiment,1
35,86,19771,77,64,0,2,4,11,2.mid,experiment,1
36,88,20132,76,64,0,2,4,11,2.mid,experiment,1
37,90,20417,76,64,0,2,4,11,2.mid,experiment,1
38,92,20733,76,64,0,2,4,11,2.mid,experiment,1
39,94,20982,76,64,0,2,4,11,2.mid,experiment,1
40,97,21631,81,64,0,2,4,11,2.mid,experiment,1
41,99,21845,77,64,0,2,4,11,2.mid,experiment,1
42,101,22073,76,64,0,2,4,11,2.mid,experiment,1
43,103,22409,74,64,0,2,4,11,2.mid,experiment,1
44,105,22681,76,64,0,2,4,11,2.mid,experiment,1
45,107,23019,79,64,0,2,4,11,2.mid,experiment,1
46,109,23217,74,64,0,2,4,11,2.mid,experiment,1
47,110,23261,71,64,0,2,4,11,2.mid,experiment,1
48,112,23519,72,64,0,2,4,11,2.mid,experiment,1
49,114,23781,72,64,0,2,4,11,2.mid,experiment,1
50,116,24081,74,64,0,2,4,11,2.mid,experiment,1
51,118,24352,74,64,0,2,4,11,2.mid,experiment,1
52,120,25137,76,64,0,2,4,11,2.mid,experiment,1
53,122,25773,65,64,0,2,4,11,2.mid,experiment,1
54,124,26039,65,64,0,2,4,11,2.mid,experiment,1
55,126,26310,64,64,0,2,4,11,2.mid,experiment,1
56,128,26604,64,64,0,2,4,11,2.mid,experiment,1
57,130,27356,62,64,0,2,4,11,2.mid,experiment,1
58,132,28211,67,64,0,2,4,11,2.mid,experiment,1
59,134,28479,67,64,0,2,4,11,2.mid,experiment,1
60,136,28783,71,64,0,2,4,11,2.mid,experiment,1
61,138,29047,71,64,0,2,4,11,2.mid,experiment,1
62,140,29290,72,64,0,2,4,11,2.mid,experiment,1
63,142,29554,72,64,0,2,4,11,2.mid,experiment,1
64,144,29814,73,64,0,2,4,11,2.mid,experiment,1
65,146,30063,73,64,0,2,4,11,2.mid,experiment,1
66,148,30831,74,64,0,2,4,11,2.mid,experiment,1
67,150,31392,77,64,0,2,4,11,2.mid,experiment,1
68,152,31945,76,64,0,2,4,11,2.mid,experiment,1
70,156,32419,74,64,0,2,4,11,2.mid,experiment,1
71,158,33271,72,64,0,2,4,11,2.mid,experiment,1
72,160,33709,84,64,0,2,4,11,2.mid,experiment,1
73,162,35010,84,64,0,2,4,11,2.mid,experiment,1
1,19,8156,79,64,0,2,8,13,5.mid,experiment,1
2,21,8507,78,64,0,2,8,13,5.mid,experiment,1
3,23,8737,79,64,0,2,8,13,5.mid,experiment,1
4,25,9024,76,64,0,2,8,13,5.mid,experiment,1
5,26,9108,72,64,0,2,8,13,5.mid,experiment,1
6,28,9330,67,64,0,2,8,13,5.mid,experiment,1
7,30,9594,67,64,0,2,8,13,5.mid,experiment,1
8,32,9865,67,64,0,2,8,13,5.mid,experiment,1
9,35,10476,79,64,0,2,8,13,5.mid,experiment,1
10,37,10904,78,64,0,2,8,13,5.mid,experiment,1
11,39,11039,79,64,0,2,8,13,5.mid,experiment,1
12,40,11271,76,64,0,2,8,13,5.mid,experiment,1
13,43,11594,72,64,0,2,8,13,5.mid,experiment,1
14,45,11917,76,64,0,2,8,13,5.mid,experiment,1
15,47,12155,79,64,0,2,8,13,5.mid,experiment,1
16,49,12503,84,64,0,2,8,13,5.mid,experiment,1
17,50,12625,83,64,0,2,8,13,5.mid,experiment,1
18,52,12747,81,64,0,2,8,13,5.mid,experiment,1
19,54,13033,81,64,0,2,8,13,5.mid,experiment,1
20,56,13305,81,64,0,2,8,13,5.mid,experiment,1
21,58,13847,83,64,0,2,8,13,5.mid,experiment,1
22,61,14153,81,64,0,2,8,13,5.mid,experiment,1
23,63,14486,84,64,0,2,8,13,5.mid,experiment,1
24,65,14739,81,64,0,2,8,13,5.mid,experiment,1
25,67,15060,78,64,0,2,8,13,5.mid,experiment,1
26,68,15155,79,64,0,2,8,13,5.mid,experiment,1
27,70,15768,79,64,0,2,8,13,5.mid,experiment,1
28,72,16495,79,64,0,2,8,13,5.mid,experiment,1
29,74,17082,77,64,0,2,8,13,5.mid,experiment,1
30,76,17355,77,64,0,2,8,13,5.mid,experiment,1
31,78,17640,76,64,0,2,8,13,5.mid,experiment,1
32,80,17920,76,64,0,2,8,13,5.mid,experiment,1
33,82,18802,74,64,0,2,8,13,5.mid,experiment,1
34,84,19730,79,64,0,2,8,13,5.mid,experiment,1
35,86,20382,77,64,0,2,8,13,5.mid,experiment,1
36,88,20570,76,64,0,2,8,13,5.mid,experiment,1
37,90,20850,76,64,0,2,8,13,5.mid,experiment,1
38,92,21120,76,64,0,2,8,13,5.mid,experiment,1
39,94,21400,76,64,0,2,8,13,5.mid,experiment,1
41,98,21901,81,64,0,2,8,13,5.mid,experiment,1
42,101,22257,77,64,0,2,8,13,5.mid,experiment,1
43,103,22525,76,64,0,2,8,13,5.mid,experiment,1
44,105,22840,74,64,0,2,8,13,5.mid,experiment,1
45,107,23099,76,64,0,2,8,13,5.mid,experiment,1
46,109,23415,79,64,0,2,8,13,5.mid,experiment,1
47,110,23632,74,64,0,2,8,13,5.mid,experiment,1
48,112,23933,71,64,0,2,8,13,5.mid,experiment,1
49,114,23971,72,64,0,2,8,13,5.mid,experiment,1
50,116,24254,72,64,0,2,8,13,5.mid,experiment,1
51,118,24541,74,64,0,2,8,13,5.mid,experiment,1
52,120,24831,74,64,0,2,8,13,5.mid,experiment,1
53,122,25675,76,64,0,2,8,13,5.mid,experiment,1
54,124,26293,65,64,0,2,8,13,5.mid,experiment,1
55,126,26587,65,64,0,2,8,13,5.mid,experiment,1
56,128,26889,64,64,0,2,8,13,5.mid,experiment,1
57,130,27165,64,64,0,2,8,13,5.mid,experiment,1
58,132,28023,62,64,0,2,8,13,5.mid,experiment,1
59,134,28637,67,64,0,2,8,13,5.mid,experiment,1
60,136,28909,67,64,0,2,8,13,5.mid,experiment,1
61,138,29191,71,64,0,2,8,13,5.mid,experiment,1
62,140,29459,71,64,0,2,8,13,5.mid,experiment,1
63,142,29752,72,64,0,2,8,13,5.mid,experiment,1
64,144,30012,72,64,0,2,8,13,5.mid,experiment,1
65,146,30286,73,64,0,2,8,13,5.mid,experiment,1
66,148,30576,73,64,0,2,8,13,5.mid,experiment,1
67,151,31508,74,64,0,2,8,13,5.mid,experiment,1
68,153,32100,77,64,0,2,8,13,5.mid,experiment,1
69,155,32687,76,64,0,2,8,13,5.mid,experiment,1
70,156,33210,74,64,0,2,8,13,5.mid,experiment,1
71,158,33772,72,64,0,2,8,13,5.mid,experiment,1
72,160,34280,84,64,0,2,8,13,5.mid,experiment,1
73,162,35195,84,64,0,2,8,13,5.mid,experiment,1
1,19,8193,79,64,0,2,8,15,11.mid,experiment,1
2,21,8521,78,64,0,2,8,15,11.mid,experiment,1
3,23,8725,79,64,0,2,8,15,11.mid,experiment,1
5,27,9050,76,64,0,2,8,15,11.mid,experiment,1
6,28,9193,72,64,0,2,8,15,11.mid,experiment,1
7,30,9379,67,64,0,2,8,15,11.mid,experiment,1
8,32,9651,67,64,0,2,8,15,11.mid,experiment,1
9,34,9917,67,64,0,2,8,15,11.mid,experiment,1
10,37,10521,79,64,0,2,8,15,11.mid,experiment,1
11,39,10841,78,64,0,2,8,15,11.mid,experiment,1
12,41,11086,79,64,0,2,8,15,11.mid,experiment,1
13,42,11313,76,64,0,2,8,15,11.mid,experiment,1
14,45,11652,72,64,0,2,8,15,11.mid,experiment,1
15,47,11937,76,64,0,2,8,15,11.mid,experiment,1
16,49,12166,79,64,0,2,8,15,11.mid,experiment,1
17,51,12549,84,64,0,2,8,15,11.mid,experiment,1
18,52,12663,83,64,0,2,8,15,11.mid,experiment,1
19,54,12787,81,64,0,2,8,15,11.mid,experiment,1
20,56,13066,81,64,0,2,8,15,11.mid,experiment,1
21,58,13338,81,64,0,2,8,15,11.mid,experiment,1
22,61,13928,83,64,0,2,8,15,11.mid,experiment,1
23,63,14166,81,64,0,2,8,15,11.mid,experiment,1
24,65,14504,84,64,0,2,8,15,11.mid,experiment,1
25,66,14730,81,64,0,2,8,15,11.mid,experiment,1
26,69,15053,78,64,0,2,8,15,11.mid,experiment,1
27,70,15173,79,64,0,2,8,15,11.mid,experiment,1
28,72,15837,79,64,0,2,8,15,11.mid,experiment,1
29,74,16711,79,64,0,2,8,15,11.mid,experiment,1
30,76,17182,77,64,0,2,8,15,11.mid,experiment,1
31,78,17457,77,64,0,2,8,15,11.mid,experiment,1
32,80,17741,76,64,0,2,8,15,11.mid,experiment,1
33,82,18023,76,64,0,2,8,15,11.mid,experiment,1
34,84,18856,74,64,0,2,8,15,11.mid,experiment,1
35,86,19911,79,64,0,2,8,15,11.mid,experiment,1
36,88,20525,77,64,0,2,8,15,11.mid,experiment,1
37,90,20714,76,64,0,2,8,15,11.mid,experiment,1
38,92,20997,76,64,0,2,8,15,11.mid,experiment,1
39,94,21267,76,64,0,2,8,15,11.mid,experiment,1
40,96,21533,76,64,0,2,8,15,11.mid,experiment,1
41,99,22155,81,64,0,2,8,15,11.mid,experiment,1
42,101,22432,77,64,0,2,8,15,11.mid,experiment,1
43,103,22675,76,64,0,2,8,15,11.mid,experiment,1
44,105,23007,74,64,0,2,8,15,11.mid,experiment,1
45,107,23285,76,64,0,2,8,15,11.mid,experiment,1
46,109,23575,79,64,0,2,8,15,11.mid,experiment,1
47,110,23790,74,64,0,2,8,15,11.mid,experiment,1
48,113,24098,71,64,0,2,8,15,11.mid,experiment,1
49,114,24141,72,64,0,2,8,15,11.mid,experiment,1
50,116,24422,72,64,0,2,8,15,11.mid,experiment,1
51,118,24701,74,64,0,2,8,15,11.mid,experiment,1
52,120,24991,74,64,0,2,8,15,11.mid,experiment,1
53,122,25946,76,64,0,2,8,15,11.mid,experiment,1
54,124,26505,65,64,0,2,8,15,11.mid,experiment,1
55,126,26764,65,64,0,2,8,15,11.mid,experiment,1
56,128,27049,64,64,0,2,8,15,11.mid,experiment,1
57,130,27334,64,64,0,2,8,15,11.mid,experiment,1
58,132,28313,62,64,0,2,8,15,11.mid,experiment,1
59,134,28892,67,64,0,2,8,15,11.mid,experiment,1
60,136,29146,67,64,0,2,8,15,11.mid,experiment,1
61,138,29465,71,64,0,2,8,15,11.mid,experiment,1
62,140,29706,71,64,0,2,8,15,11.mid,experiment,1
63,142,30009,72,64,0,2,8,15,11.mid,experiment,1
64,144,30276,72,64,0,2,8,15,11.mid,experiment,1
65,146,30560,73,64,0,2,8,15,11.mid,experiment,1
66,148,30839,73,64,0,2,8,15,11.mid,experiment,1
67,151,31715,74,64,0,2,8,15,11.mid,experiment,1
68,152,32237,77,64,0,2,8,15,11.mid,experiment,1
69,154,32791,76,64,0,2,8,15,11.mid,experiment,1
70,156,33340,74,64,0,2,8,15,11.mid,experiment,1
71,158,34021,72,64,0,2,8,15,11.mid,experiment,1
72,160,34467,84,64,0,2,8,15,11.mid,experiment,1
73,162,35611,84,64,0,2,8,15,11.mid,experiment,1
1,19,8171,79,64,0,2,9,5,11.mid,experiment,1
2,21,8410,78,64,0,2,9,5,11.mid,experiment,1
3,23,8691,79,64,0,2,9,5,11.mid,experiment,1
4,25,8958,76,64,0,2,9,5,11.mid,experiment,1
5,26,9042,72,64,0,2,9,5,11.mid,experiment,1
6,28,9272,67,64,0,2,9,5,11.mid,experiment,1
7,30,9512,67,64,0,2,9,5,11.mid,experiment,1
8,32,9766,67,64,0,2,9,5,11.mid,experiment,1
9,35,10299,79,64,0,2,9,5,11.mid,experiment,1
10,37,10558,78,64,0,2,9,5,11.mid,experiment,1
11,39,10831,79,64,0,2,9,5,11.mid,experiment,1
12,41,11120,76,64,0,2,9,5,11.mid,experiment,1
13,43,11302,72,64,0,2,9,5,11.mid,experiment,1
14,45,11619,76,64,0,2,9,5,11.mid,experiment,1
15,47,11857,79,64,0,2,9,5,11.mid,experiment,1
16,49,12151,84,64,0,2,9,5,11.mid,experiment,1
17,50,12270,83,64,0,2,9,5,11.mid,experiment,1
18,52,12401,81,64,0,2,9,5,11.mid,experiment,1
19,54,12649,81,64,0,2,9,5,11.mid,experiment,1
20,56,12905,81,64,0,2,9,5,11.mid,experiment,1
22,61,13411,83,64,0,2,9,5,11.mid,experiment,1
23,63,13684,81,64,0,2,9,5,11.mid,experiment,1
24,65,13953,84,64,0,2,9,5,11.mid,experiment,1
25,67,14242,81,64,0,2,9,5,11.mid,experiment,1
26,69,14452,78,64,0,2,9,5,11.mid,experiment,1
27,70,14533,79,64,0,2,9,5,11.mid,experiment,1
28,72,14842,79,64,0,2,9,5,11.mid,experiment,1
29,74,15498,79,64,0,2,9,5,11.mid,experiment,1
30,76,16337,77,64,0,2,9,5,11.mid,experiment,1
31,78,16621,77,64,0,2,9,5,11.mid,experiment,1
32,80,16836,76,64,0,2,9,5,11.mid,experiment,1
33,82,17102,76,64,0,2,9,5,11.mid,experiment,1
34,84,17635,74,64,0,2,9,5,11.mid,experiment,1
35,86,18574,79,64,0,2,9,5,11.mid,experiment,1
36,88,19122,77,64,0,2,9,5,11.mid,experiment,1
37,90,19548,76,64,0,2,9,5,11.mid,experiment,1
38,92,19805,76,64,0,2,9,5,11.mid,experiment,1
39,94,20038,76,64,0,2,9,5,11.mid,experiment,1
40,96,20294,76,64,0,2,9,5,11.mid,experiment,1
41,99,20779,81,64,0,2,9,5,11.mid,experiment,1
42,101,21071,77,64,0,2,9,5,11.mid,experiment,1
43,103,21272,76,64,0,2,9,5,11.mid,experiment,1
44,105,21549,74,64,0,2,9,5,11.mid,experiment,1
45,107,21745,76,64,0,2,9,5,11.mid,experiment,1
46,109,22018,79,64,0,2,9,5,11.mid,experiment,1
47,111,22234,74,64,0,2,9,5,11.mid,experiment,1
48,112,22321,71,64,0,2,9,5,11.mid,experiment,1
49,114,22526,72,64,0,2,9,5,11.mid,experiment,1
50,116,22775,72,64,0,2,9,5,11.mid,experiment,1
51,118,23041,74,64,0,2,9,5,11.mid,experiment,1
52,120,23302,74,64,0,2,9,5,11.mid,experiment,1
53,122,23832,76,64,0,2,9,5,11.mid,experiment,1
54,124,24660,65,64,0,2,9,5,11.mid,experiment,1
55,126,24912,65,64,0,2,9,5,11.mid,experiment,1
56,128,25149,64,64,0,2,9,5,11.mid,experiment,1
57,130,25404,64,64,0,2,9,5,11.mid,experiment,1
58,132,25971,62,64,0,2,9,5,11.mid,experiment,1
59,134,26707,67,64,0,2,9,5,11.mid,experiment,1
60,136,26954,67,64,0,2,9,5,11.mid,experiment,1
61,138,27201,71,64,0,2,9,5,11.mid,experiment,1
62,140,27474,71,64,0,2,9,5,11.mid,experiment,1
63,142,27722,72,64,0,2,9,5,11.mid,experiment,1
64,144,27978,72,64,0,2,9,5,11.mid,experiment,1
65,146,28224,73,64,0,2,9,5,11.mid,experiment,1
66,148,28482,73,64,0,2,9,5,11.mid,experiment,1
67,150,28867,74,64,0,2,9,5,11.mid,experiment,1
68,152,29357,77,64,0,2,9,5,11.mid,experiment,1
69,154,29803,76,64,0,2,9,5,11.mid,experiment,1
70,156,30298,74,64,0,2,9,5,11.mid,experiment,1
71,158,30919,72,64,0,2,9,5,11.mid,experiment,1
72,160,31289,84,64,0,2,9,5,11.mid,experiment,1
73,162,31922,84,64,0,2,9,5,11.mid,experiment,1
1,19,8150,79,64,0,2,10,2,10.mid,experiment,1
2,21,8436,78,64,0,2,10,2,10.mid,experiment,1
3,23,8695,79,64,0,2,10,2,10.mid,experiment,1
4,25,9017,76,64,0,2,10,2,10.mid,experiment,1
5,26,9055,72,64,0,2,10,2,10.mid,experiment,1
6,28,9300,67,64,0,2,10,2,10.mid,experiment,1
7,30,9599,67,64,0,2,10,2,10.mid,experiment,1
8,32,9878,67,64,0,2,10,2,10.mid,experiment,1
9,35,10410,79,64,0,2,10,2,10.mid,experiment,1
10,37,10659,78,64,0,2,10,2,10.mid,experiment,1
11,39,10927,79,64,0,2,10,2,10.mid,experiment,1
12,41,11235,76,64,0,2,10,2,10.mid,experiment,1
13,43,11568,72,64,0,2,10,2,10.mid,experiment,1
14,45,11821,76,64,0,2,10,2,10.mid,experiment,1
15,47,12047,79,64,0,2,10,2,10.mid,experiment,1
16,49,12349,84,64,0,2,10,2,10.mid,experiment,1
17,50,12357,83,64,0,2,10,2,10.mid,experiment,1
18,52,12637,81,64,0,2,10,2,10.mid,experiment,1
19,54,12905,81,64,0,2,10,2,10.mid,experiment,1
20,56,13180,81,64,0,2,10,2,10.mid,experiment,1
21,59,13742,83,64,0,2,10,2,10.mid,experiment,1
22,61,13975,81,64,0,2,10,2,10.mid,experiment,1
23,63,14286,84,64,0,2,10,2,10.mid,experiment,1
24,65,14579,81,64,0,2,10,2,10.mid,experiment,1
25,66,14610,78,64,0,2,10,2,10.mid,experiment,1
26,70,14879,79,64,0,2,10,2,10.mid,experiment,1
27,72,15089,79,64,0,2,10,2,10.mid,experiment,1
28,74,15374,79,64,0,2,10,2,10.mid,experiment,1
30,78,16962,77,64,0,2,10,2,10.mid,experiment,1
31,80,17248,77,64,0,2,10,2,10.mid,experiment,1
32,82,17519,76,64,0,2,10,2,10.mid,experiment,1
33,84,17788,76,64,0,2,10,2,10.mid,experiment,1
34,86,18415,74,64,0,2,10,2,10.mid,experiment,1
35,88,19254,79,64,0,2,10,2,10.mid,experiment,1
36,90,19760,77,64,0,2,10,2,10.mid,experiment,1
37,92,20286,76,64,0,2,10,2,10.mid,experiment,1
38,94,20589,76,64,0,2,10,2,10.mid,experiment,1
39,96,20851,76,64,0,2,10,2,10.mid,experiment,1
40,98,21115,76,64,0,2,10,2,10.mid,experiment,1
41,101,21677,81,64,0,2,10,2,10.mid,experiment,1
42,103,21897,77,64,0,2,10,2,10.mid,experiment,1
43,105,22137,76,64,0,2,10,2,10.mid,experiment,1
44,107,22433,74,64,0,2,10,2,10.mid,experiment,1
45,109,22688,76,64,0,2,10,2,10.mid,experiment,1
46,111,22978,79,64,0,2,10,2,10.mid,experiment,1
47,113,23220,74,64,0,2,10,2,10.mid,experiment,1
48,114,23252,71,64,0,2,10,2,10.mid,experiment,1
49,116,23518,72,64,0,2,10,2,10.mid,experiment,1
50,118,23804,72,64,0,2,10,2,10.mid,experiment,1
51,120,24054,74,64,0,2,10,2,10.mid,experiment,1
52,122,24318,74,64,0,2,10,2,10.mid,experiment,1
53,124,24960,76,64,0,2,10,2,10.mid,experiment,1
54,126,25802,65,64,0,2,10,2,10.mid,experiment,1
55,128,26054,65,64,0,2,10,2,10.mid,experiment,1
56,130,26352,64,64,0,2,10,2,10.mid,experiment,1
57,132,26591,64,64,0,2,10,2,10.mid,experiment,1
58,134,27357,62,64,0,2,10,2,10.mid,experiment,1
59,136,28071,67,64,0,2,10,2,10.mid,experiment,1
60,138,28319,67,64,0,2,10,2,10.mid,experiment,1
61,140,28610,71,64,0,2,10,2,10.mid,experiment,1
62,142,28846,71,64,0,2,10,2,10.mid,experiment,1
63,144,29115,72,64,0,2,10,2,10.mid,experiment,1
64,146,29379,72,64,0,2,10,2,10.mid,experiment,1
65,148,29659,73,64,0,2,10,2,10.mid,experiment,1
66,150,29891,73,64,0,2,10,2,10.mid,experiment,1
67,152,30471,74,64,0,2,10,2,10.mid,experiment,1
68,154,31146,77,64,0,2,10,2,10.mid,experiment,1
69,156,31711,76,64,0,2,10,2,10.mid,experiment,1
70,158,32291,74,64,0,2,10,2,10.mid,experiment,1
71,160,32898,72,64,0,2,10,2,10.mid,experiment,1
72,162,33481,84,64,0,2,10,2,10.mid,experiment,1
73,164,34587,84,64,0,2,10,2,10.mid,experiment,1
1,19,8230,79,64,0,2,11,8,16.mid,experiment,1
2,21,8481,78,64,0,2,11,8,16.mid,experiment,1
3,23,8745,79,64,0,2,11,8,16.mid,experiment,1
4,25,8975,76,64,0,2,11,8,16.mid,experiment,1
5,26,9004,72,64,0,2,11,8,16.mid,experiment,1
6,28,9272,67,64,0,2,11,8,16.mid,experiment,1
7,30,9545,67,64,0,2,11,8,16.mid,experiment,1
8,32,9810,67,64,0,2,11,8,16.mid,experiment,1
9,35,10478,79,64,0,2,11,8,16.mid,experiment,1
10,37,10700,78,64,0,2,11,8,16.mid,experiment,1
11,39,10926,79,64,0,2,11,8,16.mid,experiment,1
12,41,11170,76,64,0,2,11,8,16.mid,experiment,1
13,43,11482,72,64,0,2,11,8,16.mid,experiment,1
14,45,11800,76,64,0,2,11,8,16.mid,experiment,1
15,47,11975,79,64,0,2,11,8,16.mid,experiment,1
16,49,12260,84,64,0,2,11,8,16.mid,experiment,1
17,50,12283,83,64,0,2,11,8,16.mid,experiment,1
18,52,12581,81,64,0,2,11,8,16.mid,experiment,1
19,54,12822,81,64,0,2,11,8,16.mid,experiment,1
20,56,13063,81,64,0,2,11,8,16.mid,experiment,1
21,59,13661,83,64,0,2,11,8,16.mid,experiment,1
22,61,13905,81,64,0,2,11,8,16.mid,experiment,1
23,63,14214,84,64,0,2,11,8,16.mid,experiment,1
24,65,14437,81,64,0,2,11,8,16.mid,experiment,1
26,68,14602,78,64,0,2,11,8,16.mid,experiment,1
27,70,14724,79,64,0,2,11,8,16.mid,experiment,1
28,72,14987,79,64,0,2,11,8,16.mid,experiment,1
29,74,15606,79,64,0,2,11,8,16.mid,experiment,1
30,76,16784,77,64,0,2,11,8,16.mid,experiment,1
31,78,17055,77,64,0,2,11,8,16.mid,experiment,1
32,80,17319,76,64,0,2,11,8,16.mid,experiment,1
33,82,17570,76,64,0,2,11,8,16.mid,experiment,1
34,84,18248,74,64,0,2,11,8,16.mid,experiment,1
35,86,19235,79,64,0,2,11,8,16.mid,experiment,1
36,88,19775,77,64,0,2,11,8,16.mid,experiment,1
37,90,20175,76,64,0,2,11,8,16.mid,experiment,1
38,92,20449,76,64,0,2,11,8,16.mid,experiment,1
39,94,20720,76,64,0,2,11,8,16.mid,experiment,1
40,96,20935,76,64,0,2,11,8,16.mid,experiment,1
41,99,21590,81,64,0,2,11,8,16.mid,experiment,1
42,101,21846,77,64,0,2,11,8,16.mid,experiment,1
43,103,22078,76,64,0,2,11,8,16.mid,experiment,1
44,105,22374,74,64,0,2,11,8,16.mid,experiment,1
45,107,22623,76,64,0,2,11,8,16.mid,experiment,1
46,109,22939,79,64,0,2,11,8,16.mid,experiment,1
47,111,23099,74,64,0,2,11,8,16.mid,experiment,1
48,112,23128,71,64,0,2,11,8,16.mid,experiment,1
49,114,23397,72,64,0,2,11,8,16.mid,experiment,1
50,116,23657,72,64,0,2,11,8,16.mid,experiment,1
51,118,23928,74,64,0,2,11,8,16.mid,experiment,1
52,120,24186,74,64,0,2,11,8,16.mid,experiment,1
53,122,24941,76,64,0,2,11,8,16.mid,experiment,1
54,124,25684,65,64,0,2,11,8,16.mid,experiment,1
55,126,25938,65,64,0,2,11,8,16.mid,experiment,1
56,128,26188,64,64,0,2,11,8,16.mid,experiment,1
57,130,26444,64,64,0,2,11,8,16.mid,experiment,1
58,132,27220,62,64,0,2,11,8,16.mid,experiment,1
59,134,27901,67,64,0,2,11,8,16.mid,experiment,1
60,136,28180,67,64,0,2,11,8,16.mid,experiment,1
61,138,28440,71,64,0,2,11,8,16.mid,experiment,1
62,140,28678,71,64,0,2,11,8,16.mid,experiment,1
63,142,28947,72,64,0,2,11,8,16.mid,experiment,1
64,144,29202,72,64,0,2,11,8,16.mid,experiment,1
65,146,29491,73,64,0,2,11,8,16.mid,experiment,1
66,148,29737,73,64,0,2,11,8,16.mid,experiment,1
67,150,30054,74,64,0,2,11,8,16.mid,experiment,1
68,152,30590,77,64,0,2,11,8,16.mid,experiment,1
69,154,31202,76,64,0,2,11,8,16.mid,experiment,1
70,156,31798,74,64,0,2,11,8,16.mid,experiment,1
71,158,32446,72,64,0,2,11,8,16.mid,experiment,1
72,160,32888,84,64,0,2,11,8,16.mid,experiment,1
73,162,33853,84,64,0,2,11,8,16.mid,experiment,1
1,19,8283,79,64,0,2,12,7,13.mid,experiment,1
2,21,8547,78,64,0,2,12,7,13.mid,experiment,1
3,23,8862,79,64,0,2,12,7,13.mid,experiment,1
4,25,9200,76,64,0,2,12,7,13.mid,experiment,1
5,26,9277,72,64,0,2,12,7,13.mid,experiment,1
6,28,9511,67,64,0,2,12,7,13.mid,experiment,1
7,30,9805,67,64,0,2,12,7,13.mid,experiment,1
8,32,10087,67,64,0,2,12,7,13.mid,experiment,1
9,35,10706,79,64,0,2,12,7,13.mid,experiment,1
10,37,10991,78,64,0,2,12,7,13.mid,experiment,1
11,39,11271,79,64,0,2,12,7,13.mid,experiment,1
12,41,11536,76,64,0,2,12,7,13.mid,experiment,1
13,43,11844,72,64,0,2,12,7,13.mid,experiment,1
14,45,12110,76,64,0,2,12,7,13.mid,experiment,1
15,47,12367,79,64,0,2,12,7,13.mid,experiment,1
16,49,12715,84,64,0,2,12,7,13.mid,experiment,1
17,50,12858,83,64,0,2,12,7,13.mid,experiment,1
18,52,13080,81,64,0,2,12,7,13.mid,experiment,1
19,54,13351,81,64,0,2,12,7,13.mid,experiment,1
20,56,13629,81,64,0,2,12,7,13.mid,experiment,1
21,59,14174,83,64,0,2,12,7,13.mid,experiment,1
22,61,14448,81,64,0,2,12,7,13.mid,experiment,1
23,63,14766,84,64,0,2,12,7,13.mid,experiment,1
24,65,15003,81,64,0,2,12,7,13.mid,experiment,1
25,67,15281,78,64,0,2,12,7,13.mid,experiment,1
26,68,15383,79,64,0,2,12,7,13.mid,experiment,1
27,70,15727,79,64,0,2,12,7,13.mid,experiment,1
28,72,16817,79,64,0,2,12,7,13.mid,experiment,1
29,74,17374,77,64,0,2,12,7,13.mid,experiment,1
30,76,17670,77,64,0,2,12,7,13.mid,experiment,1
31,78,17947,76,64,0,2,12,7,13.mid,experiment,1
32,80,18211,76,64,0,2,12,7,13.mid,experiment,1
33,82,19077,74,64,0,2,12,7,13.mid,experiment,1
34,84,20077,79,64,0,2,12,7,13.mid,experiment,1
35,86,20548,77,64,0,2,12,7,13.mid,experiment,1
36,88,20907,76,64,0,2,12,7,13.mid,experiment,1
37,90,21188,76,64,0,2,12,7,13.mid,experiment,1
38,92,21470,76,64,0,2,12,7,13.mid,experiment,1
39,94,21769,76,64,0,2,12,7,13.mid,experiment,1
40,97,22412,81,64,0,2,12,7,13.mid,experiment,1
41,99,22636,77,64,0,2,12,7,13.mid,experiment,1
42,100,22891,76,64,0,2,12,7,13.mid,experiment,1
43,103,23201,74,64,0,2,12,7,13.mid,experiment,1
44,105,23470,76,64,0,2,12,7,13.mid,experiment,1
45,107,23766,79,64,0,2,12,7,13.mid,experiment,1
46,108,23991,74,64,0,2,12,7,13.mid,experiment,1
47,110,24062,71,64,0,2,12,7,13.mid,experiment,1
48,112,24346,72,64,0,2,12,7,13.mid,experiment,1
49,114,24621,72,64,0,2,12,7,13.mid,experiment,1
50,116,24905,74,64,0,2,12,7,13.mid,experiment,1
51,118,25196,74,64,0,2,12,7,13.mid,experiment,1
52,120,26161,76,64,0,2,12,7,13.mid,experiment,1
53,122,26748,65,64,0,2,12,7,13.mid,experiment,1
54,124,27049,65,64,0,2,12,7,13.mid,experiment,1
55,126,27328,64,64,0,2,12,7,13.mid,experiment,1
56,128,27611,64,64,0,2,12,7,13.mid,experiment,1
57,130,28598,62,64,0,2,12,7,13.mid,experiment,1
58,132,29178,67,64,0,2,12,7,13.mid,experiment,1
59,134,29469,67,64,0,2,12,7,13.mid,experiment,1
60,136,29751,71,64,0,2,12,7,13.mid,experiment,1
61,138,30035,71,64,0,2,12,7,13.mid,experiment,1
62,140,30321,72,64,0,2,12,7,13.mid,experiment,1
63,142,30605,72,64,0,2,12,7,13.mid,experiment,1
64,144,30927,73,64,0,2,12,7,13.mid,experiment,1
65,146,31198,73,64,0,2,12,7,13.mid,experiment,1
66,148,31890,74,64,0,2,12,7,13.mid,experiment,1
68,152,32652,77,64,0,2,12,7,13.mid,experiment,1
69,154,33257,76,64,0,2,12,7,13.mid,experiment,1
70,156,33821,74,64,0,2,12,7,13.mid,experiment,1
71,158,34374,72,64,0,2,12,7,13.mid,experiment,1
72,160,35005,84,64,0,2,12,7,13.mid,experiment,1
73,162,36024,84,64,0,2,12,7,13.mid,experiment,1
1,19,8215,79,64,0,2,14,6,16.mid,experiment,1
2,21,8533,78,64,0,2,14,6,16.mid,experiment,1
3,23,8766,79,64,0,2,14,6,16.mid,experiment,1
4,25,9062,76,64,0,2,14,6,16.mid,experiment,1
5,26,9284,72,64,0,2,14,6,16.mid,experiment,1
6,28,9349,67,64,0,2,14,6,16.mid,experiment,1
7,30,9633,67,64,0,2,14,6,16.mid,experiment,1
8,32,9926,67,64,0,2,14,6,16.mid,experiment,1
9,35,10523,79,64,0,2,14,6,16.mid,experiment,1
10,37,10808,78,64,0,2,14,6,16.mid,experiment,1
11,39,11057,79,64,0,2,14,6,16.mid,experiment,1
12,41,11347,76,64,0,2,14,6,16.mid,experiment,1
13,43,11653,72,64,0,2,14,6,16.mid,experiment,1
14,45,11979,76,64,0,2,14,6,16.mid,experiment,1
15,47,12182,79,64,0,2,14,6,16.mid,experiment,1
16,49,12483,84,64,0,2,14,6,16.mid,experiment,1
17,50,12701,83,64,0,2,14,6,16.mid,experiment,1
18,52,12799,81,64,0,2,14,6,16.mid,experiment,1
19,54,13073,81,64,0,2,14,6,16.mid,experiment,1
20,56,13373,81,64,0,2,14,6,16.mid,experiment,1
21,59,13893,83,64,0,2,14,6,16.mid,experiment,1
22,61,14213,81,64,0,2,14,6,16.mid,experiment,1
23,63,14480,84,64,0,2,14,6,16.mid,experiment,1
24,65,14737,81,64,0,2,14,6,16.mid,experiment,1
25,67,15064,78,64,0,2,14,6,16.mid,experiment,1
26,68,15119,79,64,0,2,14,6,16.mid,experiment,1
27,70,15401,79,64,0,2,14,6,16.mid,experiment,1
28,72,16548,79,64,0,2,14,6,16.mid,experiment,1
30,76,21320,77,64,0,2,14,6,16.mid,experiment,1
31,78,21624,77,64,0,2,14,6,16.mid,experiment,1
32,80,21903,76,64,0,2,14,6,16.mid,experiment,1
33,82,22179,76,64,0,2,14,6,16.mid,experiment,1
34,84,23047,74,64,0,2,14,6,16.mid,experiment,1
35,87,24225,79,64,0,2,14,6,16.mid,experiment,1
36,88,24733,77,64,0,2,14,6,16.mid,experiment,1
37,90,24815,76,64,0,2,14,6,16.mid,experiment,1
38,92,25113,76,64,0,2,14,6,16.mid,experiment,1
39,94,25393,76,64,0,2,14,6,16.mid,experiment,1
40,96,25668,76,64,0,2,14,6,16.mid,experiment,1
41,99,26230,81,64,0,2,14,6,16.mid,experiment,1
42,101,26469,77,64,0,2,14,6,16.mid,experiment,1
43,103,26713,76,64,0,2,14,6,16.mid,experiment,1
44,105,27027,74,64,0,2,14,6,16.mid,experiment,1
45,107,27345,76,64,0,2,14,6,16.mid,experiment,1
46,109,27620,79,64,0,2,14,6,16.mid,experiment,1
47,110,27855,74,64,0,2,14,6,16.mid,experiment,1
48,112,28093,71,64,0,2,14,6,16.mid,experiment,1
49,114,28178,72,64,0,2,14,6,16.mid,experiment,1
50,116,28459,72,64,0,2,14,6,16.mid,experiment,1
51,118,28766,74,64,0,2,14,6,16.mid,experiment,1
52,120,29053,74,64,0,2,14,6,16.mid,experiment,1
53,122,29899,76,64,0,2,14,6,16.mid,experiment,1
54,124,30529,65,64,0,2,14,6,16.mid,experiment,1
55,126,30826,65,64,0,2,14,6,16.mid,experiment,1
56,128,31091,64,64,0,2,14,6,16.mid,experiment,1
57,130,31368,64,64,0,2,14,6,16.mid,experiment,1
58,132,32225,62,64,0,2,14,6,16.mid,experiment,1
59,134,32875,67,64,0,2,14,6,16.mid,experiment,1
60,136,33134,67,64,0,2,14,6,16.mid,experiment,1
61,138,33430,71,64,0,2,14,6,16.mid,experiment,1
62,140,33709,71,64,0,2,14,6,16.mid,experiment,1
63,142,33992,72,64,0,2,14,6,16.mid,experiment,1
64,144,34277,72,64,0,2,14,6,16.mid,experiment,1
65,146,34556,73,64,0,2,14,6,16.mid,experiment,1
66,148,34835,73,64,0,2,14,6,16.mid,experiment,1
67,151,35679,74,64,0,2,14,6,16.mid,experiment,1
68,153,36296,77,64,0,2,14,6,16.mid,experiment,1
69,155,36858,76,64,0,2,14,6,16.mid,experiment,1
70,157,37432,74,64,0,2,14,6,16.mid,experiment,1
71,158,37869,72,64,0,2,14,6,16.mid,experiment,1
72,160,38145,84,64,0,2,14,6,16.mid,experiment,1
73,162,39262,84,64,0,2,14,6,16.mid,experiment,1
1,19,8198,79,64,0,2,14,11,12.mid,experiment,1
2,21,8508,78,64,0,2,14,11,12.mid,experiment,1
3,23,8761,79,64,0,2,14,11,12.mid,experiment,1
4,25,9028,76,64,0,2,14,11,12.mid,experiment,1
5,26,9283,72,64,0,2,14,11,12.mid,experiment,1
6,28,9369,67,64,0,2,14,11,12.mid,experiment,1
7,30,9669,67,64,0,2,14,11,12.mid,experiment,1
8,32,9943,67,64,0,2,14,11,12.mid,experiment,1
9,35,10530,79,64,0,2,14,11,12.mid,experiment,1
10,37,10886,78,64,0,2,14,11,12.mid,experiment,1
11,39,11108,79,64,0,2,14,11,12.mid,experiment,1
12,41,11423,76,64,0,2,14,11,12.mid,experiment,1
13,43,11678,72,64,0,2,14,11,12.mid,experiment,1
14,45,11976,76,64,0,2,14,11,12.mid,experiment,1
15,47,12222,79,64,0,2,14,11,12.mid,experiment,1
16,49,12572,84,64,0,2,14,11,12.mid,experiment,1
17,51,12825,83,64,0,2,14,11,12.mid,experiment,1
18,52,12903,81,64,0,2,14,11,12.mid,experiment,1
19,54,13156,81,64,0,2,14,11,12.mid,experiment,1
20,56,13439,81,64,0,2,14,11,12.mid,experiment,1
21,59,14030,83,64,0,2,14,11,12.mid,experiment,1
22,61,14310,81,64,0,2,14,11,12.mid,experiment,1
23,63,14622,84,64,0,2,14,11,12.mid,experiment,1
24,65,14916,81,64,0,2,14,11,12.mid,experiment,1
25,67,15210,78,64,0,2,14,11,12.mid,experiment,1
26,68,15327,79,64,0,2,14,11,12.mid,experiment,1
27,70,15831,79,64,0,2,14,11,12.mid,experiment,1
28,72,16707,79,64,0,2,14,11,12.mid,experiment,1
29,74,17256,77,64,0,2,14,11,12.mid,experiment,1
30,76,17549,77,64,0,2,14,11,12.mid,experiment,1
31,78,17830,76,64,0,2,14,11,12.mid,experiment,1
32,80,18100,76,64,0,2,14,11,12.mid,experiment,1
33,82,18927,74,64,0,2,14,11,12.mid,experiment,1
34,85,20283,79,64,0,2,14,11,12.mid,experiment,1
35,87,20747,77,64,0,2,14,11,12.mid,experiment,1
36,88,20814,76,64,0,2,14,11,12.mid,experiment,1
37,90,21076,76,64,0,2,14,11,12.mid,experiment,1
38,92,21356,76,64,0,2,14,11,12.mid,experiment,1
39,94,21615,76,64,0,2,14,11,12.mid,experiment,1
40,97,22241,81,64,0,2,14,11,12.mid,experiment,1
41,99,22450,77,64,0,2,14,11,12.mid,experiment,1
42,101,22721,76,64,0,2,14,11,12.mid,experiment,1
43,103,23012,74,64,0,2,14,11,12.mid,experiment,1
44,105,23304,76,64,0,2,14,11,12.mid,experiment,1
45,107,23595,79,64,0,2,14,11,12.mid,experiment,1
46,109,23832,74,64,0,2,14,11,12.mid,experiment,1
47,110,24092,71,64,0,2,14,11,12.mid,experiment,1
48,112,24170,72,64,0,2,14,11,12.mid,experiment,1
49,114,24459,72,64,0,2,14,11,12.mid,experiment,1
50,116,24735,74,64,0,2,14,11,12.mid,experiment,1
51,118,25029,74,64,0,2,14,11,12.mid,experiment,1
52,120,25956,76,64,0,2,14,11,12.mid,experiment,1
53,122,26545,65,64,0,2,14,11,12.mid,experiment,1
54,124,26843,65,64,0,2,14,11,12.mid,experiment,1
55,126,27114,64,64,0,2,14,11,12.mid,experiment,1
56,128,27400,64,64,0,2,14,11,12.mid,experiment,1
57,130,28330,62,64,0,2,14,11,12.mid,experiment,1
58,132,28895,67,64,0,2,14,11,12.mid,experiment,1
59,134,29180,67,64,0,2,14,11,12.mid,experiment,1
60,136,29501,71,64,0,2,14,11,12.mid,experiment,1
61,138,29763,71,64,0,2,14,11,12.mid,experiment,1
62,140,30045,72,64,0,2,14,11,12.mid,experiment,1
63,142,30331,72,64,0,2,14,11,12.mid,experiment,1
64,144,30607,73,64,0,2,14,11,12.mid,experiment,1
65,146,30882,73,64,0,2,14,11,12.mid,experiment,1
66,149,31745,74,64,0,2,14,11,12.mid,experiment,1
67,151,32416,77,64,0,2,14,11,12.mid,experiment,1
68,153,32910,76,64,0,2,14,11,12.mid,experiment,1
69,155,33475,74,64,0,2,14,11,12.mid,experiment,1
70,156,33806,72,64,0,2,14,11,12.mid,experiment,1
72,160,34404,84,64,0,2,14,11,12.mid,experiment,1
73,162,35568,84,64,0,2,14,11,12.mid,experiment,1
1,19,8227,79,64,0,2,14,15,8.mid,experiment,1
2,21,8577,78,64,0,2,14,15,8.mid,experiment,1
3,23,8755,79,64,0,2,14,15,8.mid,experiment,1
4,25,9035,76,64,0,2,14,15,8.mid,experiment,1
5,26,9299,72,64,0,2,14,15,8.mid,experiment,1
6,28,9350,67,64,0,2,14,15,8.mid,experiment,1
7,30,9657,67,64,0,2,14,15,8.mid,experiment,1
8,32,9943,67,64,0,2,14,15,8.mid,experiment,1
9,35,10525,79,64,0,2,14,15,8.mid,experiment,1
10,37,10913,78,64,0,2,14,15,8.mid,experiment,1
11,39,11119,79,64,0,2,14,15,8.mid,experiment,1
12,41,11461,76,64,0,2,14,15,8.mid,experiment,1
13,43,11719,72,64,0,2,14,15,8.mid,experiment,1
14,45,12020,76,64,0,2,14,15,8.mid,experiment,1
15,47,12266,79,64,0,2,14,15,8.mid,experiment,1
16,49,12597,84,64,0,2,14,15,8.mid,experiment,1
17,51,12833,83,64,0,2,14,15,8.mid,experiment,1
18,52,12877,81,64,0,2,14,15,8.mid,experiment,1
19,54,13149,81,64,0,2,14,15,8.mid,experiment,1
20,56,13429,81,64,0,2,14,15,8.mid,experiment,1
21,59,14064,83,64,0,2,14,15,8.mid,experiment,1
22,61,14333,81,64,0,2,14,15,8.mid,experiment,1
23,63,14569,84,64,0,2,14,15,8.mid,experiment,1
24,65,14823,81,64,0,2,14,15,8.mid,experiment,1
25,67,15137,78,64,0,2,14,15,8.mid,experiment,1
26,68,15335,79,64,0,2,14,15,8.mid,experiment,1
27,70,15857,79,64,0,2,14,15,8.mid,experiment,1
28,72,16710,79,64,0,2,14,15,8.mid,experiment,1
29,74,17200,77,64,0,2,14,15,8.mid,experiment,1
30,76,17507,77,64,0,2,14,15,8.mid,experiment,1
31,78,17779,76,64,0,2,14,15,8.mid,experiment,1
32,80,18062,76,64,0,2,14,15,8.mid,experiment,1
33,82,18891,74,64,0,2,14,15,8.mid,experiment,1
34,85,20061,79,64,0,2,14,15,8.mid,experiment,1
35,87,20601,77,64,0,2,14,15,8.mid,experiment,1
36,88,20661,76,64,0,2,14,15,8.mid,experiment,1
37,90,20915,76,64,0,2,14,15,8.mid,experiment,1
38,92,21196,76,64,0,2,14,15,8.mid,experiment,1
39,94,21467,76,64,0,2,14,15,8.mid,experiment,1
40,97,22099,81,64,0,2,14,15,8.mid,experiment,1
41,99,22345,77,64,0,2,14,15,8.mid,experiment,1
42,101,22614,76,64,0,2,14,15,8.mid,experiment,1
43,103,22885,74,64,0,2,14,15,8.mid,experiment,1
44,105,23177,76,64,0,2,14,15,8.mid,experiment,1
45,107,23497,79,64,0,2,14,15,8.mid,experiment,1
46,109,23764,74,64,0,2,14,15,8.mid,experiment,1
47,110,23987,71,64,0,2,14,15,8.mid,experiment,1
48,112,24069,72,64,0,2,14,15,8.mid,experiment,1
49,114,24351,72,64,0,2,14,15,8.mid,experiment,1
50,116,24619,74,64,0,2,14,15,8.mid,experiment,1
51,118,24920,74,64,0,2,14,15,8.mid,experiment,1
52,120,25811,76,64,0,2,14,15,8.mid,experiment,1
53,122,26413,65,64,0,2,14,15,8.mid,experiment,1
54,124,26707,65,64,0,2,14,15,8.mid,experiment,1
55,126,26987,64,64,0,2,14,15,8.mid,experiment,1
56,128,27273,64,64,0,2,14,15,8.mid,experiment,1
57,130,28109,62,64,0,2,14,15,8.mid,experiment,1
58,132,28763,67,64,0,2,14,15,8.mid,experiment,1
59,134,29047,67,64,0,2,14,15,8.mid,experiment,1
60,136,29347,71,64,0,2,14,15,8.mid,experiment,1
61,138,29619,71,64,0,2,14,15,8.mid,experiment,1
62,140,29917,72,64,0,2,14,15,8.mid,experiment,1
63,142,30206,72,64,0,2,14,15,8.mid,experiment,1
64,144,30475,73,64,0,2,14,15,8.mid,experiment,1
65,146,30756,73,64,0,2,14,15,8.mid,experiment,1
67,151,31641,74,64,0,2,14,15,8.mid,experiment,1
68,153,32207,77,64,0,2,14,15,8.mid,experiment,1
69,155,32791,76,64,0,2,14,15,8.mid,experiment,1
70,157,33363,74,64,0,2,14,15,8.mid,experiment,1
71,158,33743,72,64,0,2,14,15,8.mid,experiment,1
72,160,34283,84,64,0,2,14,15,8.mid,experiment,1
73,162,35479,84,64,0,2,14,15,8.mid,experiment,1
1,19,8758,79,64,0,2,19,2,2.mid,experiment,1
2,21,9041,78,64,0,2,19,2,2.mid,experiment,1
3,24,9320,79,64,0,2,19,2,2.mid,experiment,1
5,27,9631,76,64,0,2,19,2,2.mid,experiment,1
6,28,9839,72,64,0,2,19,2,2.mid,experiment,1
7,30,9908,67,64,0,2,19,2,2.mid,experiment,1
8,32,10218,67,64,0,2,19,2,2.mid,experiment,1
9,34,10483,67,64,0,2,19,2,2.mid,experiment,1
10,37,11013,79,64,0,2,19,2,2.mid,experiment,1
11,39,11299,78,64,0,2,19,2,2.mid,experiment,1
12,41,11536,79,64,0,2,19,2,2.mid,experiment,1
13,43,11847,76,64,0,2,19,2,2.mid,experiment,1
14,45,12100,72,64,0,2,19,2,2.mid,experiment,1
15,47,12400,76,64,0,2,19,2,2.mid,experiment,1
16,49,12605,79,64,0,2,19,2,2.mid,experiment,1
17,51,12890,84,64,0,2,19,2,2.mid,experiment,1
18,52,13008,83,64,0,2,19,2,2.mid,experiment,1
19,54,13196,81,64,0,2,19,2,2.mid,experiment,1
20,56,13504,81,64,0,2,19,2,2.mid,experiment,1
21,58,13751,81,64,0,2,19,2,2.mid,experiment,1
22,61,14245,83,64,0,2,19,2,2.mid,experiment,1
23,63,14488,81,64,0,2,19,2,2.mid,experiment,1
24,65,14779,84,64,0,2,19,2,2.mid,experiment,1
25,67,15056,81,64,0,2,19,2,2.mid,experiment,1
26,69,15315,78,64,0,2,19,2,2.mid,experiment,1
27,70,15386,79,64,0,2,19,2,2.mid,experiment,1
28,72,15853,79,64,0,2,19,2,2.mid,experiment,1
29,74,16679,79,64,0,2,19,2,2.mid,experiment,1
30,76,17285,77,64,0,2,19,2,2.mid,experiment,1
31,78,17574,77,64,0,2,19,2,2.mid,experiment,1
32,80,17852,76,64,0,2,19,2,2.mid,experiment,1
33,82,18115,76,64,0,2,19,2,2.mid,experiment,1
34,84,18944,74,64,0,2,19,2,2.mid,experiment,1
35,86,20043,79,64,0,2,19,2,2.mid,experiment,1
36,88,20460,77,64,0,2,19,2,2.mid,experiment,1
37,90,20698,76,64,0,2,19,2,2.mid,experiment,1
38,92,20994,76,64,0,2,19,2,2.mid,experiment,1
39,94,21244,76,64,0,2,19,2,2.mid,experiment,1
40,96,21547,76,64,0,2,19,2,2.mid,experiment,1
41,99,22043,81,64,0,2,19,2,2.mid,experiment,1
42,101,22319,77,64,0,2,19,2,2.mid,experiment,1
43,103,22551,76,64,0,2,19,2,2.mid,experiment,1
44,105,22825,74,64,0,2,19,2,2.mid,experiment,1
45,107,23076,76,64,0,2,19,2,2.mid,experiment,1
46,109,23377,79,64,0,2,19,2,2.mid,experiment,1
47,110,23576,74,64,0,2,19,2,2.mid,experiment,1
48,112,23695,71,64,0,2,19,2,2.mid,experiment,1
49,114,23911,72,64,0,2,19,2,2.mid,experiment,1
50,116,24181,72,64,0,2,19,2,2.mid,experiment,1
51,118,24451,74,64,0,2,19,2,2.mid,experiment,1
52,120,24709,74,64,0,2,19,2,2.mid,experiment,1
53,122,25463,76,64,0,2,19,2,2.mid,experiment,1
54,124,26146,65,64,0,2,19,2,2.mid,experiment,1
55,126,26419,65,64,0,2,19,2,2.mid,experiment,1
56,128,26722,64,64,0,2,19,2,2.mid,experiment,1
57,130,26991,64,64,0,2,19,2,2.mid,experiment,1
58,132,27780,62,64,0,2,19,2,2.mid,experiment,1
59,134,28412,67,64,0,2,19,2,2.mid,experiment,1
60,136,28681,67,64,0,2,19,2,2.mid,experiment,1
61,138,28932,71,64,0,2,19,2,2.mid,experiment,1
62,140,29217,71,64,0,2,19,2,2.mid,experiment,1
63,142,29479,72,64,0,2,19,2,2.mid,experiment,1
64,144,29744,72,64,0,2,19,2,2.mid,experiment,1
65,146,30025,73,64,0,2,19,2,2.mid,experiment,1
66,148,30321,73,64,0,2,19,2,2.mid,experiment,1
67,151,31097,74,64,0,2,19,2,2.mid,experiment,1
68,153,31638,77,64,0,2,19,2,2.mid,experiment,1
69,155,32197,76,64,0,2,19,2,2.mid,experiment,1
70,157,32686,74,64,0,2,19,2,2.mid,experiment,1
71,159,33240,72,64,0,2,19,2,2.mid,experiment,1
72,160,33530,84,64,0,2,19,2,2.mid,experiment,1
73,162,34216,84,64,0,2,19,2,2.mid,experiment,1
1,19,8916,79,64,0,2,19,4,1.mid,experiment,1
2,21,9092,78,64,0,2,19,4,1.mid,experiment,1
3,23,9362,79,64,0,2,19,4,1.mid,experiment,1
4,27,9642,76,64,0,2,19,4,1.mid,experiment,1
5,28,9836,72,64,0,2,19,4,1.mid,experiment,1
6,30,9915,67,64,0,2,19,4,1.mid,experiment,1
7,32,10174,67,64,0,2,19,4,1.mid,experiment,1
8,34,10440,67,64,0,2,19,4,1.mid,experiment,1
9,37,10934,79,64,0,2,19,4,1.mid,experiment,1
10,39,11162,78,64,0,2,19,4,1.mid,experiment,1
11,41,11424,79,64,0,2,19,4,1.mid,experiment,1
12,43,11694,76,64,0,2,19,4,1.mid,experiment,1
13,45,11952,72,64,0,2,19,4,1.mid,experiment,1
14,47,12230,76,64,0,2,19,4,1.mid,experiment,1
15,49,12428,79,64,0,2,19,4,1.mid,experiment,1
16,51,12716,84,64,0,2,19,4,1.mid,experiment,1
17,52,12870,83,64,0,2,19,4,1.mid,experiment,1
18,54,12990,81,64,0,2,19,4,1.mid,experiment,1
19,56,13246,81,64,0,2,19,4,1.mid,experiment,1
20,58,13552,81,64,0,2,19,4,1.mid,experiment,1
21,61,14014,83,64,0,2,19,4,1.mid,experiment,1
22,63,14249,81,64,0,2,19,4,1.mid,experiment,1
23,65,14520,84,64,0,2,19,4,1.mid,experiment,1
24,67,14806,81,64,0,2,19,4,1.mid,experiment,1
25,69,15030,78,64,0,2,19,4,1.mid,experiment,1
26,70,15096,79,64,0,2,19,4,1.mid,experiment,1
27,72,15530,79,64,0,2,19,4,1.mid,experiment,1
28,74,16336,79,64,0,2,19,4,1.mid,experiment,1
29,76,17006,77,64,0,2,19,4,1.mid,experiment,1
30,78,17280,77,64,0,2,19,4,1.mid,experiment,1
31,80,17576,76,64,0,2,19,4,1.mid,experiment,1
32,82,17829,76,64,0,2,19,4,1.mid,experiment,1
33,84,18290,74,64,0,2,19,4,1.mid,experiment,1
34,86,19606,79,64,0,2,19,4,1.mid,experiment,1
35,88,20008,77,64,0,2,19,4,1.mid,experiment,1
36,90,20228,76,64,0,2,19,4,1.mid,experiment,1
37,92,20490,76,64,0,2,19,4,1.mid,experiment,1
38,94,20755,76,64,0,2,19,4,1.mid,experiment,1
39,96,21028,76,64,0,2,19,4,1.mid,experiment,1
40,101,21501,81,64,0,2,19,4,1.mid,experiment,1
41,103,21726,77,64,0,2,19,4,1.mid,experiment,1
42,105,21970,76,64,0,2,19,4,1.mid,experiment,1
43,107,22206,74,64,0,2,19,4,1.mid,experiment,1
44,109,22508,76,64,0,2,19,4,1.mid,experiment,1
45,111,22780,79,64,0,2,19,4,1.mid,experiment,1
46,113,22957,74,64,0,2,19,4,1.mid,experiment,1
47,115,23188,71,64,0,2,19,4,1.mid,experiment,1
48,116,23238,72,64,0,2,19,4,1.mid,experiment,1
49,118,23485,72,64,0,2,19,4,1.mid,experiment,1
50,120,23730,74,64,0,2,19,4,1.mid,experiment,1
51,122,24003,74,64,0,2,19,4,1.mid,experiment,1
52,124,24714,76,64,0,2,19,4,1.mid,experiment,1
53,126,25372,65,64,0,2,19,4,1.mid,experiment,1
54,128,25610,65,64,0,2,19,4,1.mid,experiment,1
55,130,25874,64,64,0,2,19,4,1.mid,experiment,1
56,132,26120,64,64,0,2,19,4,1.mid,experiment,1
57,134,26844,62,64,0,2,19,4,1.mid,experiment,1
58,136,27461,67,64,0,2,19,4,1.mid,experiment,1
59,138,27736,67,64,0,2,19,4,1.mid,experiment,1
60,140,27970,71,64,0,2,19,4,1.mid,experiment,1
61,142,28239,71,64,0,2,19,4,1.mid,experiment,1
62,144,28524,72,64,0,2,19,4,1.mid,experiment,1
63,146,28792,72,64,0,2,19,4,1.mid,experiment,1
64,148,29043,73,64,0,2,19,4,1.mid,experiment,1
65,150,29312,73,64,0,2,19,4,1.mid,experiment,1
67,155,30021,74,64,0,2,19,4,1.mid,experiment,1
68,157,30534,77,64,0,2,19,4,1.mid,experiment,1
69,159,31054,76,64,0,2,19,4,1.mid,experiment,1
70,161,31561,74,64,0,2,19,4,1.mid,experiment,1
71,163,32091,72,64,0,2,19,4,1.mid,experiment,1
72,164,32490,84,64,0,2,19,4,1.mid,experiment,1
73,166,33145,84,64,0,2,19,4,1.mid,experiment,1
1,19,8890,79,64,0,2,19,6,4.mid,experiment,1
2,21,9140,78,64,0,2,19,6,4.mid,experiment,1
3,23,9402,79,64,0,2,19,6,4.mid,experiment,1
4,25,9692,76,64,0,2,19,6,4.mid,experiment,1
5,26,9789,72,64,0,2,19,6,4.mid,experiment,1
6,28,10006,67,64,0,2,19,6,4.mid,experiment,1
7,30,10300,67,64,0,2,19,6,4.mid,experiment,1
8,32,10575,67,64,0,2,19,6,4.mid,experiment,1
9,35,11100,79,64,0,2,19,6,4.mid,experiment,1
10,37,11347,78,64,0,2,19,6,4.mid,experiment,1
11,39,11583,79,64,0,2,19,6,4.mid,experiment,1
12,41,11870,76,64,0,2,19,6,4.mid,experiment,1
13,43,12120,72,64,0,2,19,6,4.mid,experiment,1
14,45,12399,76,64,0,2,19,6,4.mid,experiment,1
15,47,12596,79,64,0,2,19,6,4.mid,experiment,1
16,49,12892,84,64,0,2,19,6,4.mid,experiment,1
17,50,12989,83,64,0,2,19,6,4.mid,experiment,1
18,52,13178,81,64,0,2,19,6,4.mid,experiment,1
19,54,13431,81,64,0,2,19,6,4.mid,experiment,1
20,56,13724,81,64,0,2,19,6,4.mid,experiment,1
22,61,14221,83,64,0,2,19,6,4.mid,experiment,1
23,63,14443,81,64,0,2,19,6,4.mid,experiment,1
24,65,14714,84,64,0,2,19,6,4.mid,experiment,1
25,67,14974,81,64,0,2,19,6,4.mid,experiment,1
26,69,15227,78,64,0,2,19,6,4.mid,experiment,1
27,70,15311,79,64,0,2,19,6,4.mid,experiment,1
28,72,15767,79,64,0,2,19,6,4.mid,experiment,1
29,74,16568,79,64,0,2,19,6,4.mid,experiment,1
30,76,17215,77,64,0,2,19,6,4.mid,experiment,1
31,78,17475,77,64,0,2,19,6,4.mid,experiment,1
32,80,17750,76,64,0,2,19,6,4.mid,experiment,1
33,82,17998,76,64,0,2,19,6,4.mid,experiment,1
34,84,18770,74,64,0,2,19,6,4.mid,experiment,1
35,86,19884,79,64,0,2,19,6,4.mid,experiment,1
36,88,20272,77,64,0,2,19,6,4.mid,experiment,1
37,90,20496,76,64,0,2,19,6,4.mid,experiment,1
38,92,20768,76,64,0,2,19,6,4.mid,experiment,1
39,94,21037,76,64,0,2,19,6,4.mid,experiment,1
40,96,21335,76,64,0,2,19,6,4.mid,experiment,1
41,99,21804,81,64,0,2,19,6,4.mid,experiment,1
42,101,22029,77,64,0,2,19,6,4.mid,experiment,1
43,103,22270,76,64,0,2,19,6,4.mid,experiment,1
44,105,22523,74,64,0,2,19,6,4.mid,experiment,1
45,107,22791,76,64,0,2,19,6,4.mid,experiment,1
46,109,23040,79,64,0,2,19,6,4.mid,experiment,1
47,111,23269,74,64,0,2,19,6,4.mid,experiment,1
48,112,23460,71,64,0,2,19,6,4.mid,experiment,1
49,114,23558,72,64,0,2,19,6,4.mid,experiment,1
50,116,23824,72,64,0,2,19,6,4.mid,experiment,1
51,118,24089,74,64,0,2,19,6,4.mid,experiment,1
52,120,24349,74,64,0,2,19,6,4.mid,experiment,1
53,122,24964,76,64,0,2,19,6,4.mid,experiment,1
54,124,25688,65,64,0,2,19,6,4.mid,experiment,1
55,126,25944,65,64,0,2,19,6,4.mid,experiment,1
56,128,26193,64,64,0,2,19,6,4.mid,experiment,1
57,130,26464,64,64,0,2,19,6,4.mid,experiment,1
58,132,27128,62,64,0,2,19,6,4.mid,experiment,1
59,134,27752,67,64,0,2,19,6,4.mid,experiment,1
60,136,28014,67,64,0,2,19,6,4.mid,experiment,1
61,138,28267,71,64,0,2,19,6,4.mid,experiment,1
62,140,28544,71,64,0,2,19,6,4.mid,experiment,1
63,142,28823,72,64,0,2,19,6,4.mid,experiment,1
64,144,29052,72,64,0,2,19,6,4.mid,experiment,1
65,146,29338,73,64,0,2,19,6,4.mid,experiment,1
66,148,29610,73,64,0,2,19,6,4.mid,experiment,1
67,151,30338,74,64,0,2,19,6,4.mid,experiment,1
68,153,30861,77,64,0,2,19,6,4.mid,experiment,1
69,155,31401,76,64,0,2,19,6,4.mid,experiment,1
70,157,31921,74,64,0,2,19,6,4.mid,experiment,1
71,159,32443,72,64,0,2,19,6,4.mid,experiment,1
72,160,32897,84,64,0,2,19,6,4.mid,experiment,1
73,162,33515,84,64,0,2,19,6,4.mid,experiment,1
1,19,8775,79,64,0,2,19,13,16.mid,experiment,1
2,21,9054,78,64,0,2,19,13,16.mid,experiment,1
3,23,9322,79,64,0,2,19,13,16.mid,experiment,1
4,25,9635,76,64,0,2,19,13,16.mid,experiment,1
5,26,9778,72,64,0,2,19,13,16.mid,experiment,1
6,28,9946,67,64,0,2,19,13,16.mid,experiment,1
7,30,10253,67,64,0,2,19,13,16.mid,experiment,1
8,32,10552,67,64,0,2,19,13,16.mid,experiment,1
9,35,11121,79,64,0,2,19,13,16.mid,experiment,1
10,37,11394,78,64,0,2,19,13,16.mid,experiment,1
11,39,11671,79,64,0,2,19,13,16.mid,experiment,1
12,41,11987,76,64,0,2,19,13,16.mid,experiment,1
13,43,12257,72,64,0,2,19,13,16.mid,experiment,1
14,45,12553,76,64,0,2,19,13,16.mid,experiment,1
15,47,12774,79,64,0,2,19,13,16.mid,experiment,1
16,49,13065,84,64,0,2,19,13,16.mid,experiment,1
17,50,13217,83,64,0,2,19,13,16.mid,experiment,1
18,52,13661,81,64,0,2,19,13,16.mid,experiment,1
19,54,13943,81,64,0,2,19,13,16.mid,experiment,1
20,56,14219,81,64,0,2,19,13,16.mid,experiment,1
21,59,14762,83,64,0,2,19,13,16.mid,experiment,1
22,62,15035,81,64,0,2,19,13,16.mid,experiment,1
24,65,15325,84,64,0,2,19,13,16.mid,experiment,1
25,67,15633,81,64,0,2,19,13,16.mid,experiment,1
26,69,15908,78,64,0,2,19,13,16.mid,experiment,1
27,70,15974,79,64,0,2,19,13,16.mid,experiment,1
28,72,16456,79,64,0,2,19,13,16.mid,experiment,1
29,74,17262,79,64,0,2,19,13,16.mid,experiment,1
30,76,18127,77,64,0,2,19,13,16.mid,experiment,1
31,78,18385,77,64,0,2,19,13,16.mid,experiment,1
32,80,18679,76,64,0,2,19,13,16.mid,experiment,1
33,82,18939,76,64,0,2,19,13,16.mid,experiment,1
34,84,19482,74,64,0,2,19,13,16.mid,experiment,1
35,86,20809,79,64,0,2,19,13,16.mid,experiment,1
36,88,21368,77,64,0,2,19,13,16.mid,experiment,1
37,90,21618,76,64,0,2,19,13,16.mid,experiment,1
38,92,21894,76,64,0,2,19,13,16.mid,experiment,1
39,94,22138,76,64,0,2,19,13,16.mid,experiment,1
40,96,22445,76,64,0,2,19,13,16.mid,experiment,1
41,99,23057,81,64,0,2,19,13,16.mid,experiment,1
42,101,23300,77,64,0,2,19,13,16.mid,experiment,1
43,103,23547,76,64,0,2,19,13,16.mid,experiment,1
44,104,23778,74,64,0,2,19,13,16.mid,experiment,1
45,107,24114,76,64,0,2,19,13,16.mid,experiment,1
46,109,24349,79,64,0,2,19,13,16.mid,experiment,1
47,111,24596,74,64,0,2,19,13,16.mid,experiment,1
48,112,24723,71,64,0,2,19,13,16.mid,experiment,1
49,114,24921,72,64,0,2,19,13,16.mid,experiment,1
50,116,25193,72,64,0,2,19,13,16.mid,experiment,1
51,118,25462,74,64,0,2,19,13,16.mid,experiment,1
52,120,25738,74,64,0,2,19,13,16.mid,experiment,1
53,122,26387,76,64,0,2,19,13,16.mid,experiment,1
54,124,27192,65,64,0,2,19,13,16.mid,experiment,1
55,126,27442,65,64,0,2,19,13,16.mid,experiment,1
56,128,27715,64,64,0,2,19,13,16.mid,experiment,1
57,130,27976,64,64,0,2,19,13,16.mid,experiment,1
58,132,28661,62,64,0,2,19,13,16.mid,experiment,1
59,134,29372,67,64,0,2,19,13,16.mid,experiment,1
60,136,29629,67,64,0,2,19,13,16.mid,experiment,1
61,138,29897,71,64,0,2,19,13,16.mid,experiment,1
62,140,30163,71,64,0,2,19,13,16.mid,experiment,1
63,142,30416,72,64,0,2,19,13,16.mid,experiment,1
64,144,30689,72,64,0,2,19,13,16.mid,experiment,1
65,146,30956,73,64,0,2,19,13,16.mid,experiment,1
66,148,31232,73,64,0,2,19,13,16.mid,experiment,1
67,151,32178,74,64,0,2,19,13,16.mid,experiment,1
68,152,32699,77,64,0,2,19,13,16.mid,experiment,1
69,155,33266,76,64,0,2,19,13,16.mid,experiment,1
70,157,33822,74,64,0,2,19,13,16.mid,experiment,1
71,158,34367,72,64,0,2,19,13,16.mid,experiment,1
72,160,34841,84,64,0,2,19,13,16.mid,experiment,1
73,162,35574,84,64,0,2,19,13,16.mid,experiment,1
1,18,7984,79,64,0,2,21,2,5.mid,experiment,1
2,20,8285,78,64,0,2,21,2,5.mid,experiment,1
3,22,8517,79,64,0,2,21,2,5.mid,experiment,1
4,24,8767,76,64,0,2,21,2,5.mid,experiment,1
5,26,9006,72,64,0,2,21,2,5.mid,experiment,1
6,28,9287,67,64,0,2,21,2,5.mid,experiment,1
7,30,9515,67,64,0,2,21,2,5.mid,experiment,1
8,32,9779,67,64,0,2,21,2,5.mid,experiment,1
9,34,10131,79,64,0,2,21,2,5.mid,experiment,1
10,36,10438,78,64,0,2,21,2,5.mid,experiment,1
11,38,10689,79,64,0,2,21,2,5.mid,experiment,1
12,40,10992,76,64,0,2,21,2,5.mid,experiment,1
13,42,11243,72,64,0,2,21,2,5.mid,experiment,1
14,44,11506,76,64,0,2,21,2,5.mid,experiment,1
15,46,11787,79,64,0,2,21,2,5.mid,experiment,1
16,48,12039,84,64,0,2,21,2,5.mid,experiment,1
17,50,12298,83,64,0,2,21,2,5.mid,experiment,1
18,52,12496,81,64,0,2,21,2,5.mid,experiment,1
19,54,12745,81,64,0,2,21,2,5.mid,experiment,1
20,56,13015,81,64,0,2,21,2,5.mid,experiment,1
21,58,13338,83,64,0,2,21,2,5.mid,experiment,1
22,60,13595,81,64,0,2,21,2,5.mid,experiment,1
23,62,13941,84,64,0,2,21,2,5.mid,experiment,1
24,64,14226,81,64,0,2,21,2,5.mid,experiment,1
25,66,14446,78,64,0,2,21,2,5.mid,experiment,1
26,68,14686,79,64,0,2,21,2,5.mid,experiment,1
27,70,15191,79,64,0,2,21,2,5.mid,experiment,1
28,72,16055,79,64,0,2,21,2,5.mid,experiment,1
29,74,16671,77,64,0,2,21,2,5.mid,experiment,1
30,76,16998,77,64,0,2,21,2,5.mid,experiment,1
31,78,17259,76,64,0,2,21,2,5.mid,experiment,1
32,80,17526,76,64,0,2,21,2,5.mid,experiment,1
33,82,18299,74,64,0,2,21,2,5.mid,experiment,1
34,84,19146,79,64,0,2,21,2,5.mid,experiment,1
35,86,19713,77,64,0,2,21,2,5.mid,experiment,1
36,88,19990,76,64,0,2,21,2,5.mid,experiment,1
37,90,20260,76,64,0,2,21,2,5.mid,experiment,1
38,92,20508,76,64,0,2,21,2,5.mid,experiment,1
40,96,20775,76,64,0,2,21,2,5.mid,experiment,1
41,98,21163,81,64,0,2,21,2,5.mid,experiment,1
42,100,21457,77,64,0,2,21,2,5.mid,experiment,1
43,102,21680,76,64,0,2,21,2,5.mid,experiment,1
44,104,21928,74,64,0,2,21,2,5.mid,experiment,1
45,106,22224,76,64,0,2,21,2,5.mid,experiment,1
46,108,22473,79,64,0,2,21,2,5.mid,experiment,1
47,110,22755,74,64,0,2,21,2,5.mid,experiment,1
48,112,23056,71,64,0,2,21,2,5.mid,experiment,1
49,114,23184,72,64,0,2,21,2,5.mid,experiment,1
50,116,23590,72,64,0,2,21,2,5.mid,experiment,1
51,118,23736,74,64,0,2,21,2,5.mid,experiment,1
52,120,24035,74,64,0,2,21,2,5.mid,experiment,1
53,122,24744,76,64,0,2,21,2,5.mid,experiment,1
54,124,25375,65,64,0,2,21,2,5.mid,experiment,1
55,126,25746,65,64,0,2,21,2,5.mid,experiment,1
56,128,25947,64,64,0,2,21,2,5.mid,experiment,1
57,130,26302,64,64,0,2,21,2,5.mid,experiment,1
58,132,26891,62,64,0,2,21,2,5.mid,experiment,1
59,134,27527,67,64,0,2,21,2,5.mid,experiment,1
60,136,27938,67,64,0,2,21,2,5.mid,experiment,1
61,138,28067,71,64,0,2,21,2,5.mid,experiment,1
62,140,28402,71,64,0,2,21,2,5.mid,experiment,1
63,142,28630,72,64,0,2,21,2,5.mid,experiment,1
64,145,28999,72,64,0,2,21,2,5.mid,experiment,1
65,146,29131,73,64,0,2,21,2,5.mid,experiment,1
66,148,29453,73,64,0,2,21,2,5.mid,experiment,1
67,150,29950,74,64,0,2,21,2,5.mid,experiment,1
68,152,30490,77,64,0,2,21,2,5.mid,experiment,1
69,154,30983,76,64,0,2,21,2,5.mid,experiment,1
70,156,31380,74,64,0,2,21,2,5.mid,experiment,1
71,158,31936,72,64,0,2,21,2,5.mid,experiment,1
72,160,32513,84,64,0,2,21,2,5.mid,experiment,1
73,162,33573,84,64,0,2,21,2,5.mid,experiment,1
