RowNr,NoteNr,TimeStamp,Pitch,Velocity,Key_OnOff,Device,SubNr,TrialNr,Stimuli,Session,Error
1,19,8165,79,64,0,2,2,1,16.mid,experiment,0
2,21,8490,78,64,0,2,2,1,16.mid,experiment,0
3,23,8684,79,64,0,2,2,1,16.mid,experiment,0
4,25,9008,76,64,0,2,2,1,16.mid,experiment,0
5,26,9045,72,64,0,2,2,1,16.mid,experiment,0
6,28,9300,67,64,0,2,2,1,16.mid,experiment,0
7,30,9590,67,64,0,2,2,1,16.mid,experiment,0
8,32,9851,67,64,0,2,2,1,16.mid,experiment,0
9,35,10424,79,64,0,2,2,1,16.mid,experiment,0
10,37,10663,78,64,0,2,2,1,16.mid,experiment,0
11,39,10937,79,64,0,2,2,1,16.mid,experiment,0
12,41,11211,76,64,0,2,2,1,16.mid,experiment,0
13,43,11507,72,64,0,2,2,1,16.mid,experiment,0
14,45,11781,76,64,0,2,2,1,16.mid,experiment,0
15,47,12007,79,64,0,2,2,1,16.mid,experiment,0
16,49,12288,84,64,0,2,2,1,16.mid,experiment,0
17,50,12378,83,64,0,2,2,1,16.mid,experiment,0
18,52,12610,81,64,0,2,2,1,16.mid,experiment,0
19,54,12894,81,64,0,2,2,1,16.mid,experiment,0
20,56,13161,81,64,0,2,2,1,16.mid,experiment,0
21,59,13791,83,64,0,2,2,1,16.mid,experiment,0
22,61,13999,81,64,0,2,2,1,16.mid,experiment,0
23,63,14293,84,64,0,2,2,1,16.mid,experiment,0
24,65,14527,81,64,0,2,2,1,16.mid,experiment,0
25,66,14728,78,64,0,2,2,1,16.mid,experiment,0
26,68,14831,79,64,0,2,2,1,16.mid,experiment,0
27,70,15385,79,64,0,2,2,1,16.mid,experiment,0
28,72,16190,79,64,0,2,2,1,16.mid,experiment,0
29,74,16927,77,64,0,2,2,1,16.mid,experiment,0
30,76,17204,77,64,0,2,2,1,16.mid,experiment,0
31,78,17504,76,64,0,2,2,1,16.mid,experiment,0
32,80,17787,76,64,0,2,2,1,16.mid,experiment,0
33,82,18624,74,64,0,2,2,1,16.mid,experiment,0
34,85,19927,79,64,0,2,2,1,16.mid,experiment,0
35,87,20432,77,64,0,2,2,1,16.mid,experiment,0
36,88,20464,76,64,0,2,2,1,16.mid,experiment,0
37,90,20726,76,64,0,2,2,1,16.mid,experiment,0
38,92,21006,76,64,0,2,2,1,16.mid,experiment,0
39,94,21285,76,64,0,2,2,1,16.mid,experiment,0
40,97,21910,81,64,0,2,2,1,16.mid,experiment,0
41,99,22137,77,64,0,2,2,1,16.mid,experiment,0
42,101,22383,76,64,0,2,2,1,16.mid,experiment,0
43,103,22681,74,64,0,2,2,1,16.mid,experiment,0
44,105,22923,76,64,0,2,2,1,16.mid,experiment,0
45,107,23235,79,64,0,2,2,1,16.mid,experiment,0
46,109,23512,74,64,0,2,2,1,16.mid,experiment,0
47,110,23593,71,64,0,2,2,1,16.mid,experiment,0
48,112,23832,72,64,0,2,2,1,16.mid,experiment,0
49,114,24107,72,64,0,2,2,1,16.mid,experiment,0
50,116,24390,74,64,0,2,2,1,16.mid,experiment,0
51,118,24655,74,64,0,2,2,1,16.mid,experiment,0
52,120,25463,76,64,0,2,2,1,16.mid,experiment,0
53,122,26171,65,64,0,2,2,1,16.mid,experiment,0
54,124,26454,65,64,0,2,2,1,16.mid,experiment,0
55,126,27023,64,64,0,2,2,1,16.mid,experiment,0
56,128,27305,64,64,0,2,2,1,16.mid,experiment,0
57,130,28061,62,64,0,2,2,1,16.mid,experiment,0
58,132,28748,67,64,0,2,2,1,16.mid,experiment,0
59,134,29024,67,64,0,2,2,1,16.mid,experiment,0
60,136,29293,71,64,0,2,2,1,16.mid,experiment,0
61,138,29564,71,64,0,2,2,1,16.mid,experiment,0
62,140,29868,72,64,0,2,2,1,16.mid,experiment,0
63,142,30122,72,64,0,2,2,1,16.mid,experiment,0
64,144,30397,73,64,0,2,2,1,16.mid,experiment,0
65,146,30669,73,64,0,2,2,1,16.mid,experiment,0
66,149,31611,74,64,0,2,2,1,16.mid,experiment,0
67,151,32138,77,64,0,2,2,1,16.mid,experiment,0
68,153,32666,76,64,0,2,2,1,16.mid,experiment,0
69,154,33151,74,64,0,2,2,1,16.mid,experiment,0
70,157,33786,72,64,0,2,2,1,16.mid,experiment,0
71,158,34158,84,64,0,2,2,1,16.mid,experiment,0
72,160,34864,84,64,0,2,2,1,16.mid,experiment,0
1,19,8178,79,64,0,2,2,2,15.mid,experiment,0
2,21,8473,78,64,0,2,2,2,15.mid,experiment,0
3,23,8676,79,64,0,2,2,2,15.mid,experiment,0
4,25,8994,76,64,0,2,2,2,15.mid,experiment,0
5,26,9060,72,64,0,2,2,2,15.mid,experiment,0
6,28,9305,67,64,0,2,2,2,15.mid,experiment,0
7,30,9575,67,64,0,2,2,2,15.mid,experiment,0
8,32,9874,67,64,0,2,2,2,15.mid,experiment,0
9,35,10432,79,64,0,2,2,2,15.mid,experiment,0
10,37,10721,78,64,0,2,2,2,15.mid,experiment,0
11,39,10946,79,64,0,2,2,2,15.mid,experiment,0
12,41,11239,76,64,0,2,2,2,15.mid,experiment,0
13,43,11522,72,64,0,2,2,2,15.mid,experiment,0
14,45,11788,76,64,0,2,2,2,15.mid,experiment,0
15,47,12018,79,64,0,2,2,2,15.mid,experiment,0
16,49,12289,84,64,0,2,2,2,15.mid,experiment,0
17,50,12399,83,64,0,2,2,2,15.mid,experiment,0
18,52,12633,81,64,0,2,2,2,15.mid,experiment,0
19,54,12907,81,64,0,2,2,2,15.mid,experiment,0
20,56,13191,81,64,0,2,2,2,15.mid,experiment,0
21,59,13765,83,64,0,2,2,2,15.mid,experiment,0
22,61,14024,81,64,0,2,2,2,15.mid,experiment,0
23,63,14286,84,64,0,2,2,2,15.mid,experiment,0
24,65,14556,81,64,0,2,2,2,15.mid,experiment,0
25,67,14852,78,64,0,2,2,2,15.mid,experiment,0
26,68,14894,79,64,0,2,2,2,15.mid,experiment,0
27,70,15530,79,64,0,2,2,2,15.mid,experiment,0
28,72,16321,79,64,0,2,2,2,15.mid,experiment,0
29,74,17034,77,64,0,2,2,2,15.mid,experiment,0
30,76,17308,77,64,0,2,2,2,15.mid,experiment,0
31,78,17610,76,64,0,2,2,2,15.mid,experiment,0
32,80,17868,76,64,0,2,2,2,15.mid,experiment,0
33,82,18759,74,64,0,2,2,2,15.mid,experiment,0
34,85,19980,79,64,0,2,2,2,15.mid,experiment,0
35,87,20574,77,64,0,2,2,2,15.mid,experiment,0
36,88,20604,76,64,0,2,2,2,15.mid,experiment,0
37,90,20863,76,64,0,2,2,2,15.mid,experiment,0
38,92,21142,76,64,0,2,2,2,15.mid,experiment,0
39,94,21415,76,64,0,2,2,2,15.mid,experiment,0
40,97,22073,81,64,0,2,2,2,15.mid,experiment,0
41,99,22295,77,64,0,2,2,2,15.mid,experiment,0
42,101,22546,76,64,0,2,2,2,15.mid,experiment,0
43,103,22840,74,64,0,2,2,2,15.mid,experiment,0
44,105,23108,76,64,0,2,2,2,15.mid,experiment,0
45,107,23405,79,64,0,2,2,2,15.mid,experiment,0
46,109,23678,74,64,0,2,2,2,15.mid,experiment,0
47,110,23740,71,64,0,2,2,2,15.mid,experiment,0
48,112,23998,72,64,0,2,2,2,15.mid,experiment,0
49,114,24262,72,64,0,2,2,2,15.mid,experiment,0
50,116,24529,74,64,0,2,2,2,15.mid,experiment,0
51,118,24800,74,64,0,2,2,2,15.mid,experiment,0
52,120,25658,76,64,0,2,2,2,15.mid,experiment,0
53,122,26326,65,64,0,2,2,2,15.mid,experiment,0
54,124,26616,65,64,0,2,2,2,15.mid,experiment,0
55,126,26914,64,64,0,2,2,2,15.mid,experiment,0
56,128,27198,64,64,0,2,2,2,15.mid,experiment,0
57,130,28012,62,64,0,2,2,2,15.mid,experiment,0
58,132,28706,67,64,0,2,2,2,15.mid,experiment,0
59,134,28964,67,64,0,2,2,2,15.mid,experiment,0
60,136,29254,71,64,0,2,2,2,15.mid,experiment,0
61,138,29526,71,64,0,2,2,2,15.mid,experiment,0
62,140,29844,72,64,0,2,2,2,15.mid,experiment,0
63,142,30068,72,64,0,2,2,2,15.mid,experiment,0
64,144,30391,73,64,0,2,2,2,15.mid,experiment,0
65,146,30670,73,64,0,2,2,2,15.mid,experiment,0
66,149,31614,74,64,0,2,2,2,15.mid,experiment,0
67,151,32172,77,64,0,2,2,2,15.mid,experiment,0
68,153,32714,76,64,0,2,2,2,15.mid,experiment,0
69,154,33180,74,64,0,2,2,2,15.mid,experiment,0
70,156,33676,72,64,0,2,2,2,15.mid,experiment,0
71,158,34272,84,64,0,2,2,2,15.mid,experiment,0
72,160,35061,84,64,0,2,2,2,15.mid,experiment,0
1,19,8200,79,64,0,2,2,3,2.mid,experiment,0
2,21,8513,78,64,0,2,2,3,2.mid,experiment,0
3,23,8726,79,64,0,2,2,3,2.mid,experiment,0
4,25,9042,76,64,0,2,2,3,2.mid,experiment,0
5,26,9118,72,64,0,2,2,3,2.mid,experiment,0
6,28,9352,67,64,0,2,2,3,2.mid,experiment,0
7,30,9619,67,64,0,2,2,3,2.mid,experiment,0
8,32,9909,67,64,0,2,2,3,2.mid,experiment,0
9,35,10516,79,64,0,2,2,3,2.mid,experiment,0
10,37,10732,78,64,0,2,2,3,2.mid,experiment,0
11,39,11030,79,64,0,2,2,3,2.mid,experiment,0
12,41,11292,76,64,0,2,2,3,2.mid,experiment,0
13,43,11586,72,64,0,2,2,3,2.mid,experiment,0
14,45,11866,76,64,0,2,2,3,2.mid,experiment,0
15,47,12102,79,64,0,2,2,3,2.mid,experiment,0
16,49,12386,84,64,0,2,2,3,2.mid,experiment,0
17,50,12488,83,64,0,2,2,3,2.mid,experiment,0
18,52,12735,81,64,0,2,2,3,2.mid,experiment,0
19,54,12990,81,64,0,2,2,3,2.mid,experiment,0
20,56,13272,81,64,0,2,2,3,2.mid,experiment,0
21,59,13804,83,64,0,2,2,3,2.mid,experiment,0
22,61,14097,81,64,0,2,2,3,2.mid,experiment,0
23,63,14368,84,64,0,2,2,3,2.mid,experiment,0
24,65,14634,81,64,0,2,2,3,2.mid,experiment,0
25,66,14747,78,64,0,2,2,3,2.mid,experiment,0
26,68,15016,79,64,0,2,2,3,2.mid,experiment,0
27,70,15581,79,64,0,2,2,3,2.mid,experiment,0
28,72,16430,79,64,0,2,2,3,2.mid,experiment,0
29,74,17108,77,64,0,2,2,3,2.mid,experiment,0
30,76,17365,77,64,0,2,2,3,2.mid,experiment,0
31,78,17669,76,64,0,2,2,3,2.mid,experiment,0
32,80,17945,76,64,0,2,2,3,2.mid,experiment,0
33,82,18800,74,64,0,2,2,3,2.mid,experiment,0
34,85,20098,79,64,0,2,2,3,2.mid,experiment,0
35,87,20627,77,64,0,2,2,3,2.mid,experiment,0
36,88,20670,76,64,0,2,2,3,2.mid,experiment,0
37,90,20948,76,64,0,2,2,3,2.mid,experiment,0
38,92,21222,76,64,0,2,2,3,2.mid,experiment,0
39,94,21507,76,64,0,2,2,3,2.mid,experiment,0
40,97,22154,81,64,0,2,2,3,2.mid,experiment,0
41,99,22368,77,64,0,2,2,3,2.mid,experiment,0
42,101,22604,76,64,0,2,2,3,2.mid,experiment,0
43,103,22890,74,64,0,2,2,3,2.mid,experiment,0
44,105,23141,76,64,0,2,2,3,2.mid,experiment,0
45,107,23491,79,64,0,2,2,3,2.mid,experiment,0
46,109,23706,74,64,0,2,2,3,2.mid,experiment,0
47,110,23806,71,64,0,2,2,3,2.mid,experiment,0
48,112,24054,72,64,0,2,2,3,2.mid,experiment,0
49,114,24303,72,64,0,2,2,3,2.mid,experiment,0
50,116,24578,74,64,0,2,2,3,2.mid,experiment,0
51,118,24849,74,64,0,2,2,3,2.mid,experiment,0
52,120,25743,76,64,0,2,2,3,2.mid,experiment,0
53,122,26444,65,64,0,2,2,3,2.mid,experiment,0
54,124,26712,65,64,0,2,2,3,2.mid,experiment,0
55,126,26986,64,64,0,2,2,3,2.mid,experiment,0
56,128,27263,64,64,0,2,2,3,2.mid,experiment,0
57,130,28125,62,64,0,2,2,3,2.mid,experiment,0
58,132,28793,67,64,0,2,2,3,2.mid,experiment,0
59,134,29071,67,64,0,2,2,3,2.mid,experiment,0
60,136,29350,71,64,0,2,2,3,2.mid,experiment,0
61,138,29642,71,64,0,2,2,3,2.mid,experiment,0
62,140,29924,72,64,0,2,2,3,2.mid,experiment,0
63,142,30196,72,64,0,2,2,3,2.mid,experiment,0
64,144,30486,73,64,0,2,2,3,2.mid,experiment,0
65,146,30764,73,64,0,2,2,3,2.mid,experiment,0
66,149,31782,74,64,0,2,2,3,2.mid,experiment,0
67,150,32212,77,64,0,2,2,3,2.mid,experiment,0
68,152,32803,76,64,0,2,2,3,2.mid,experiment,0
69,154,33391,74,64,0,2,2,3,2.mid,experiment,0
70,156,33968,72,64,0,2,2,3,2.mid,experiment,0
71,158,34480,84,64,0,2,2,3,2.mid,experiment,0
72,160,35363,84,64,0,2,2,3,2.mid,experiment,0
1,19,8192,79,64,0,2,2,4,4.mid,experiment,0
2,21,8505,78,64,0,2,2,4,4.mid,experiment,0
3,23,8733,79,64,0,2,2,4,4.mid,experiment,0
4,25,9038,76,64,0,2,2,4,4.mid,experiment,0
5,26,9119,72,64,0,2,2,4,4.mid,experiment,0
6,28,9353,67,64,0,2,2,4,4.mid,experiment,0
7,30,9605,67,64,0,2,2,4,4.mid,experiment,0
8,32,9874,67,64,0,2,2,4,4.mid,experiment,0
9,35,10393,79,64,0,2,2,4,4.mid,experiment,0
10,37,10673,78,64,0,2,2,4,4.mid,experiment,0
11,39,10928,79,64,0,2,2,4,4.mid,experiment,0
12,41,11218,76,64,0,2,2,4,4.mid,experiment,0
13,43,11499,72,64,0,2,2,4,4.mid,experiment,0
14,45,11774,76,64,0,2,2,4,4.mid,experiment,0
15,47,12010,79,64,0,2,2,4,4.mid,experiment,0
16,49,12301,84,64,0,2,2,4,4.mid,experiment,0
17,50,12417,83,64,0,2,2,4,4.mid,experiment,0
18,52,12616,81,64,0,2,2,4,4.mid,experiment,0
19,54,12903,81,64,0,2,2,4,4.mid,experiment,0
20,56,13185,81,64,0,2,2,4,4.mid,experiment,0
21,59,13718,83,64,0,2,2,4,4.mid,experiment,0
22,61,14021,81,64,0,2,2,4,4.mid,experiment,0
23,63,14247,84,64,0,2,2,4,4.mid,experiment,0
24,65,14534,81,64,0,2,2,4,4.mid,experiment,0
25,66,14690,78,64,0,2,2,4,4.mid,experiment,0
26,68,14953,79,64,0,2,2,4,4.mid,experiment,0
27,70,15496,79,64,0,2,2,4,4.mid,experiment,0
28,72,16174,79,64,0,2,2,4,4.mid,experiment,0
29,74,16908,77,64,0,2,2,4,4.mid,experiment,0
30,76,17177,77,64,0,2,2,4,4.mid,experiment,0
31,78,17476,76,64,0,2,2,4,4.mid,experiment,0
32,80,17759,76,64,0,2,2,4,4.mid,experiment,0
33,82,18631,74,64,0,2,2,4,4.mid,experiment,0
34,85,19865,79,64,0,2,2,4,4.mid,experiment,0
35,87,20418,77,64,0,2,2,4,4.mid,experiment,0
36,88,20453,76,64,0,2,2,4,4.mid,experiment,0
37,90,20711,76,64,0,2,2,4,4.mid,experiment,0
38,92,20971,76,64,0,2,2,4,4.mid,experiment,0
39,94,21245,76,64,0,2,2,4,4.mid,experiment,0
40,97,21899,81,64,0,2,2,4,4.mid,experiment,0
41,99,22111,77,64,0,2,2,4,4.mid,experiment,0
42,101,22335,76,64,0,2,2,4,4.mid,experiment,0
43,103,22620,74,64,0,2,2,4,4.mid,experiment,0
44,105,22878,76,64,0,2,2,4,4.mid,experiment,0
45,107,23170,79,64,0,2,2,4,4.mid,experiment,0
46,109,23438,74,64,0,2,2,4,4.mid,experiment,0
47,110,23568,71,64,0,2,2,4,4.mid,experiment,0
48,112,23728,72,64,0,2,2,4,4.mid,experiment,0
49,114,24010,72,64,0,2,2,4,4.mid,experiment,0
50,116,24278,74,64,0,2,2,4,4.mid,experiment,0
51,118,24536,74,64,0,2,2,4,4.mid,experiment,0
52,120,25409,76,64,0,2,2,4,4.mid,experiment,0
53,122,26104,65,64,0,2,2,4,4.mid,experiment,0
54,124,26357,65,64,0,2,2,4,4.mid,experiment,0
55,126,26650,64,64,0,2,2,4,4.mid,experiment,0
56,128,26917,64,64,0,2,2,4,4.mid,experiment,0
57,130,27782,62,64,0,2,2,4,4.mid,experiment,0
58,132,28439,67,64,0,2,2,4,4.mid,experiment,0
59,134,28702,67,64,0,2,2,4,4.mid,experiment,0
60,136,28984,71,64,0,2,2,4,4.mid,experiment,0
61,138,29261,71,64,0,2,2,4,4.mid,experiment,0
62,140,29581,72,64,0,2,2,4,4.mid,experiment,0
63,142,29822,72,64,0,2,2,4,4.mid,experiment,0
64,144,30102,73,64,0,2,2,4,4.mid,experiment,0
65,146,30362,73,64,0,2,2,4,4.mid,experiment,0
66,149,31357,74,64,0,2,2,4,4.mid,experiment,0
67,151,31888,77,64,0,2,2,4,4.mid,experiment,0
68,153,32428,76,64,0,2,2,4,4.mid,experiment,0
69,154,32954,74,64,0,2,2,4,4.mid,experiment,0
70,156,33546,72,64,0,2,2,4,4.mid,experiment,0
71,158,34141,84,64,0,2,2,4,4.mid,experiment,0
72,160,34933,84,64,0,2,2,4,4.mid,experiment,0
1,19,8190,79,64,0,2,2,5,12.mid,experiment,0
2,21,8497,78,64,0,2,2,5,12.mid,experiment,0
3,23,8736,79,64,0,2,2,5,12.mid,experiment,0
4,25,9048,76,64,0,2,2,5,12.mid,experiment,0
5,26,9124,72,64,0,2,2,5,12.mid,experiment,0
6,28,9316,67,64,0,2,2,5,12.mid,experiment,0
7,30,9615,67,64,0,2,2,5,12.mid,experiment,0
8,32,9901,67,64,0,2,2,5,12.mid,experiment,0
9,35,10434,79,64,0,2,2,5,12.mid,experiment,0
10,37,10696,78,64,0,2,2,5,12.mid,experiment,0
11,39,10981,79,64,0,2,2,5,12.mid,experiment,0
12,41,11264,76,64,0,2,2,5,12.mid,experiment,0
13,43,11540,72,64,0,2,2,5,12.mid,experiment,0
14,45,11848,76,64,0,2,2,5,12.mid,experiment,0
15,47,12052,79,64,0,2,2,5,12.mid,experiment,0
16,49,12361,84,64,0,2,2,5,12.mid,experiment,0
17,50,12533,83,64,0,2,2,5,12.mid,experiment,0
18,52,12690,81,64,0,2,2,5,12.mid,experiment,0
19,54,12933,81,64,0,2,2,5,12.mid,experiment,0
20,56,13193,81,64,0,2,2,5,12.mid,experiment,0
21,59,13776,83,64,0,2,2,5,12.mid,experiment,0
22,61,14042,81,64,0,2,2,5,12.mid,experiment,0
23,63,14272,84,64,0,2,2,5,12.mid,experiment,0
24,65,14581,81,64,0,2,2,5,12.mid,experiment,0
25,67,14840,78,64,0,2,2,5,12.mid,experiment,0
26,68,14865,79,64,0,2,2,5,12.mid,experiment,0
27,70,15540,79,64,0,2,2,5,12.mid,experiment,0
28,72,16336,79,64,0,2,2,5,12.mid,experiment,0
29,74,16978,77,64,0,2,2,5,12.mid,experiment,0
30,76,17255,77,64,0,2,2,5,12.mid,experiment,0
31,78,17560,76,64,0,2,2,5,12.mid,experiment,0
32,80,17819,76,64,0,2,2,5,12.mid,experiment,0
33,82,18697,74,64,0,2,2,5,12.mid,experiment,0
34,85,19932,79,64,0,2,2,5,12.mid,experiment,0
35,87,20451,77,64,0,2,2,5,12.mid,experiment,0
36,88,20468,76,64,0,2,2,5,12.mid,experiment,0
37,90,20729,76,64,0,2,2,5,12.mid,experiment,0
38,92,20998,76,64,0,2,2,5,12.mid,experiment,0
39,94,21270,76,64,0,2,2,5,12.mid,experiment,0
40,97,21909,81,64,0,2,2,5,12.mid,experiment,0
41,99,22150,77,64,0,2,2,5,12.mid,experiment,0
42,101,22396,76,64,0,2,2,5,12.mid,experiment,0
43,103,22687,74,64,0,2,2,5,12.mid,experiment,0
44,105,22928,76,64,0,2,2,5,12.mid,experiment,0
45,107,23237,79,64,0,2,2,5,12.mid,experiment,0
46,109,23502,74,64,0,2,2,5,12.mid,experiment,0
47,110,23663,71,64,0,2,2,5,12.mid,experiment,0
48,112,23871,72,64,0,2,2,5,12.mid,experiment,0
49,114,24102,72,64,0,2,2,5,12.mid,experiment,0
50,116,24383,74,64,0,2,2,5,12.mid,experiment,0
51,118,24647,74,64,0,2,2,5,12.mid,experiment,0
52,120,25450,76,64,0,2,2,5,12.mid,experiment,0
53,122,26075,65,64,0,2,2,5,12.mid,experiment,0
54,124,26351,65,64,0,2,2,5,12.mid,experiment,0
55,126,26664,64,64,0,2,2,5,12.mid,experiment,0
56,128,26939,64,64,0,2,2,5,12.mid,experiment,0
57,130,27714,62,64,0,2,2,5,12.mid,experiment,0
58,132,28388,67,64,0,2,2,5,12.mid,experiment,0
59,134,28648,67,64,0,2,2,5,12.mid,experiment,0
60,136,28951,71,64,0,2,2,5,12.mid,experiment,0
61,138,29203,71,64,0,2,2,5,12.mid,experiment,0
62,140,29490,72,64,0,2,2,5,12.mid,experiment,0
63,142,29760,72,64,0,2,2,5,12.mid,experiment,0
64,144,30036,73,64,0,2,2,5,12.mid,experiment,0
65,146,30302,73,64,0,2,2,5,12.mid,experiment,0
66,149,31336,74,64,0,2,2,5,12.mid,experiment,0
67,151,31844,77,64,0,2,2,5,12.mid,experiment,0
68,153,32424,76,64,0,2,2,5,12.mid,experiment,0
69,155,32966,74,64,0,2,2,5,12.mid,experiment,0
70,156,33518,72,64,0,2,2,5,12.mid,experiment,0
71,158,34052,84,64,0,2,2,5,12.mid,experiment,0
72,160,34873,84,64,0,2,2,5,12.mid,experiment,0
1,19,8190,79,64,0,2,2,6,3.mid,experiment,0
2,21,8497,78,64,0,2,2,6,3.mid,experiment,0
3,23,8712,79,64,0,2,2,6,3.mid,experiment,0
4,25,9006,76,64,0,2,2,6,3.mid,experiment,0
5,26,9085,72,64,0,2,2,6,3.mid,experiment,0
6,28,9326,67,64,0,2,2,6,3.mid,experiment,0
7,30,9604,67,64,0,2,2,6,3.mid,experiment,0
8,32,9883,67,64,0,2,2,6,3.mid,experiment,0
9,35,10450,79,64,0,2,2,6,3.mid,experiment,0
10,37,10705,78,64,0,2,2,6,3.mid,experiment,0
11,39,10978,79,64,0,2,2,6,3.mid,experiment,0
12,41,11265,76,64,0,2,2,6,3.mid,experiment,0
13,43,11549,72,64,0,2,2,6,3.mid,experiment,0
14,45,11832,76,64,0,2,2,6,3.mid,experiment,0
15,47,12076,79,64,0,2,2,6,3.mid,experiment,0
16,49,12382,84,64,0,2,2,6,3.mid,experiment,0
17,50,12496,83,64,0,2,2,6,3.mid,experiment,0
18,52,12679,81,64,0,2,2,6,3.mid,experiment,0
19,54,12947,81,64,0,2,2,6,3.mid,experiment,0
20,56,13234,81,64,0,2,2,6,3.mid,experiment,0
21,59,13800,83,64,0,2,2,6,3.mid,experiment,0
22,61,14082,81,64,0,2,2,6,3.mid,experiment,0
23,63,14325,84,64,0,2,2,6,3.mid,experiment,0
24,65,14611,81,64,0,2,2,6,3.mid,experiment,0
25,66,14818,78,64,0,2,2,6,3.mid,experiment,0
26,68,14988,79,64,0,2,2,6,3.mid,experiment,0
27,70,15545,79,64,0,2,2,6,3.mid,experiment,0
28,72,16317,79,64,0,2,2,6,3.mid,experiment,0
29,74,17043,77,64,0,2,2,6,3.mid,experiment,0
30,76,17320,77,64,0,2,2,6,3.mid,experiment,0
31,78,17623,76,64,0,2,2,6,3.mid,experiment,0
32,80,17897,76,64,0,2,2,6,3.mid,experiment,0
33,82,18794,74,64,0,2,2,6,3.mid,experiment,0
34,85,20108,79,64,0,2,2,6,3.mid,experiment,0
35,87,20627,77,64,0,2,2,6,3.mid,experiment,0
36,88,20655,76,64,0,2,2,6,3.mid,experiment,0
37,90,20941,76,64,0,2,2,6,3.mid,experiment,0
38,92,21195,76,64,0,2,2,6,3.mid,experiment,0
39,94,21472,76,64,0,2,2,6,3.mid,experiment,0
40,97,22128,81,64,0,2,2,6,3.mid,experiment,0
41,99,22353,77,64,0,2,2,6,3.mid,experiment,0
42,101,22607,76,64,0,2,2,6,3.mid,experiment,0
43,103,22879,74,64,0,2,2,6,3.mid,experiment,0
44,105,23132,76,64,0,2,2,6,3.mid,experiment,0
45,107,23427,79,64,0,2,2,6,3.mid,experiment,0
46,109,23699,74,64,0,2,2,6,3.mid,experiment,0
47,110,23767,71,64,0,2,2,6,3.mid,experiment,0
48,112,23990,72,64,0,2,2,6,3.mid,experiment,0
49,114,24277,72,64,0,2,2,6,3.mid,experiment,0
50,116,24550,74,64,0,2,2,6,3.mid,experiment,0
51,118,24811,74,64,0,2,2,6,3.mid,experiment,0
52,120,25678,76,64,0,2,2,6,3.mid,experiment,0
53,122,26342,65,64,0,2,2,6,3.mid,experiment,0
54,124,26622,65,64,0,2,2,6,3.mid,experiment,0
55,126,26905,64,64,0,2,2,6,3.mid,experiment,0
56,128,27186,64,64,0,2,2,6,3.mid,experiment,0
57,130,28078,62,64,0,2,2,6,3.mid,experiment,0
58,132,28719,67,64,0,2,2,6,3.mid,experiment,0
59,134,29011,67,64,0,2,2,6,3.mid,experiment,0
60,136,29313,71,64,0,2,2,6,3.mid,experiment,0
61,138,29579,71,64,0,2,2,6,3.mid,experiment,0
62,140,29875,72,64,0,2,2,6,3.mid,experiment,0
63,142,30101,72,64,0,2,2,6,3.mid,experiment,0
64,144,30413,73,64,0,2,2,6,3.mid,experiment,0
65,146,30680,73,64,0,2,2,6,3.mid,experiment,0
66,149,31676,74,64,0,2,2,6,3.mid,experiment,0
67,151,32199,77,64,0,2,2,6,3.mid,experiment,0
68,153,32751,76,64,0,2,2,6,3.mid,experiment,0
69,155,33321,74,64,0,2,2,6,3.mid,experiment,0
70,156,33846,72,64,0,2,2,6,3.mid,experiment,0
71,158,34397,84,64,0,2,2,6,3.mid,experiment,0
72,160,35187,84,64,0,2,2,6,3.mid,experiment,0
1,19,8207,79,64,0,2,2,7,10.mid,experiment,0
2,21,8491,78,64,0,2,2,7,10.mid,experiment,0
3,23,8704,79,64,0,2,2,7,10.mid,experiment,0
4,25,9015,76,64,0,2,2,7,10.mid,experiment,0
5,26,9159,72,64,0,2,2,7,10.mid,experiment,0
6,28,9347,67,64,0,2,2,7,10.mid,experiment,0
7,30,9608,67,64,0,2,2,7,10.mid,experiment,0
8,32,9875,67,64,0,2,2,7,10.mid,experiment,0
9,35,10431,79,64,0,2,2,7,10.mid,experiment,0
10,37,10704,78,64,0,2,2,7,10.mid,experiment,0
11,39,10967,79,64,0,2,2,7,10.mid,experiment,0
12,41,11261,76,64,0,2,2,7,10.mid,experiment,0
13,43,11533,72,64,0,2,2,7,10.mid,experiment,0
14,45,11795,76,64,0,2,2,7,10.mid,experiment,0
15,47,12039,79,64,0,2,2,7,10.mid,experiment,0
16,49,12341,84,64,0,2,2,7,10.mid,experiment,0
17,50,12461,83,64,0,2,2,7,10.mid,experiment,0
18,52,12649,81,64,0,2,2,7,10.mid,experiment,0
19,54,12903,81,64,0,2,2,7,10.mid,experiment,0
20,56,13183,81,64,0,2,2,7,10.mid,experiment,0
21,59,13739,83,64,0,2,2,7,10.mid,experiment,0
22,61,14003,81,64,0,2,2,7,10.mid,experiment,0
23,63,14255,84,64,0,2,2,7,10.mid,experiment,0
24,65,14567,81,64,0,2,2,7,10.mid,experiment,0
25,66,14716,78,64,0,2,2,7,10.mid,experiment,0
26,68,14942,79,64,0,2,2,7,10.mid,experiment,0
27,70,15463,79,64,0,2,2,7,10.mid,experiment,0
28,72,16265,79,64,0,2,2,7,10.mid,experiment,0
29,74,17017,77,64,0,2,2,7,10.mid,experiment,0
30,76,17293,77,64,0,2,2,7,10.mid,experiment,0
31,78,17597,76,64,0,2,2,7,10.mid,experiment,0
32,80,17861,76,64,0,2,2,7,10.mid,experiment,0
33,82,18749,74,64,0,2,2,7,10.mid,experiment,0
34,84,19865,79,64,0,2,2,7,10.mid,experiment,0
35,86,20431,77,64,0,2,2,7,10.mid,experiment,0
36,88,20571,76,64,0,2,2,7,10.mid,experiment,0
37,90,20835,76,64,0,2,2,7,10.mid,experiment,0
38,92,21118,76,64,0,2,2,7,10.mid,experiment,0
39,94,21374,76,64,0,2,2,7,10.mid,experiment,0
40,97,22004,81,64,0,2,2,7,10.mid,experiment,0
41,99,22244,77,64,0,2,2,7,10.mid,experiment,0
42,101,22485,76,64,0,2,2,7,10.mid,experiment,0
43,103,22753,74,64,0,2,2,7,10.mid,experiment,0
44,105,23001,76,64,0,2,2,7,10.mid,experiment,0
45,107,23311,79,64,0,2,2,7,10.mid,experiment,0
46,109,23561,74,64,0,2,2,7,10.mid,experiment,0
47,110,23661,71,64,0,2,2,7,10.mid,experiment,0
48,112,23857,72,64,0,2,2,7,10.mid,experiment,0
49,114,24139,72,64,0,2,2,7,10.mid,experiment,0
50,116,24413,74,64,0,2,2,7,10.mid,experiment,0
51,118,24663,74,64,0,2,2,7,10.mid,experiment,0
52,120,25570,76,64,0,2,2,7,10.mid,experiment,0
53,122,26195,65,64,0,2,2,7,10.mid,experiment,0
54,124,26485,65,64,0,2,2,7,10.mid,experiment,0
55,126,27025,64,64,0,2,2,7,10.mid,experiment,0
56,128,27313,64,64,0,2,2,7,10.mid,experiment,0
57,130,28123,62,64,0,2,2,7,10.mid,experiment,0
58,132,28787,67,64,0,2,2,7,10.mid,experiment,0
59,134,29050,67,64,0,2,2,7,10.mid,experiment,0
60,136,29335,71,64,0,2,2,7,10.mid,experiment,0
61,138,29601,71,64,0,2,2,7,10.mid,experiment,0
62,140,29929,72,64,0,2,2,7,10.mid,experiment,0
63,142,30163,72,64,0,2,2,7,10.mid,experiment,0
64,144,30471,73,64,0,2,2,7,10.mid,experiment,0
65,146,30745,73,64,0,2,2,7,10.mid,experiment,0
66,148,31550,74,64,0,2,2,7,10.mid,experiment,0
67,150,32125,77,64,0,2,2,7,10.mid,experiment,0
68,152,32701,76,64,0,2,2,7,10.mid,experiment,0
69,154,33307,74,64,0,2,2,7,10.mid,experiment,0
70,156,33881,72,64,0,2,2,7,10.mid,experiment,0
71,158,34461,84,64,0,2,2,7,10.mid,experiment,0
72,160,35257,84,64,0,2,2,7,10.mid,experiment,0
1,19,8168,79,64,0,2,2,8,8.mid,experiment,0
2,21,8469,78,64,0,2,2,8,8.mid,experiment,0
3,23,8669,79,64,0,2,2,8,8.mid,experiment,0
4,25,8965,76,64,0,2,2,8,8.mid,experiment,0
5,26,9099,72,64,0,2,2,8,8.mid,experiment,0
6,28,9300,67,64,0,2,2,8,8.mid,experiment,0
7,30,9562,67,64,0,2,2,8,8.mid,experiment,0
8,32,9844,67,64,0,2,2,8,8.mid,experiment,0
9,35,10382,79,64,0,2,2,8,8.mid,experiment,0
10,37,10651,78,64,0,2,2,8,8.mid,experiment,0
11,39,10900,79,64,0,2,2,8,8.mid,experiment,0
12,41,11203,76,64,0,2,2,8,8.mid,experiment,0
13,43,11485,72,64,0,2,2,8,8.mid,experiment,0
14,45,11792,76,64,0,2,2,8,8.mid,experiment,0
15,47,12020,79,64,0,2,2,8,8.mid,experiment,0
16,49,12284,84,64,0,2,2,8,8.mid,experiment,0
17,50,12424,83,64,0,2,2,8,8.mid,experiment,0
18,52,12598,81,64,0,2,2,8,8.mid,experiment,0
19,54,12870,81,64,0,2,2,8,8.mid,experiment,0
20,56,13138,81,64,0,2,2,8,8.mid,experiment,0
21,59,13692,83,64,0,2,2,8,8.mid,experiment,0
22,61,13970,81,64,0,2,2,8,8.mid,experiment,0
23,63,14218,84,64,0,2,2,8,8.mid,experiment,0
24,65,14499,81,64,0,2,2,8,8.mid,experiment,0
25,66,14640,78,64,0,2,2,8,8.mid,experiment,0
26,68,14914,79,64,0,2,2,8,8.mid,experiment,0
27,70,15449,79,64,0,2,2,8,8.mid,experiment,0
28,72,16151,79,64,0,2,2,8,8.mid,experiment,0
29,74,16856,77,64,0,2,2,8,8.mid,experiment,0
30,76,17121,77,64,0,2,2,8,8.mid,experiment,0
31,78,17425,76,64,0,2,2,8,8.mid,experiment,0
32,80,17715,76,64,0,2,2,8,8.mid,experiment,0
33,82,18578,74,64,0,2,2,8,8.mid,experiment,0
34,85,19814,79,64,0,2,2,8,8.mid,experiment,0
35,87,20327,77,64,0,2,2,8,8.mid,experiment,0
36,88,20386,76,64,0,2,2,8,8.mid,experiment,0
37,90,20649,76,64,0,2,2,8,8.mid,experiment,0
38,92,20918,76,64,0,2,2,8,8.mid,experiment,0
39,94,21225,76,64,0,2,2,8,8.mid,experiment,0
40,97,21805,81,64,0,2,2,8,8.mid,experiment,0
41,99,22028,77,64,0,2,2,8,8.mid,experiment,0
42,101,22302,76,64,0,2,2,8,8.mid,experiment,0
43,103,22575,74,64,0,2,2,8,8.mid,experiment,0
44,105,22811,76,64,0,2,2,8,8.mid,experiment,0
45,107,23138,79,64,0,2,2,8,8.mid,experiment,0
46,109,23383,74,64,0,2,2,8,8.mid,experiment,0
47,110,23488,71,64,0,2,2,8,8.mid,experiment,0
48,112,23684,72,64,0,2,2,8,8.mid,experiment,0
49,114,23961,72,64,0,2,2,8,8.mid,experiment,0
50,116,24223,74,64,0,2,2,8,8.mid,experiment,0
51,118,24495,74,64,0,2,2,8,8.mid,experiment,0
52,120,25338,76,64,0,2,2,8,8.mid,experiment,0
53,122,26015,65,64,0,2,2,8,8.mid,experiment,0
54,124,26311,65,64,0,2,2,8,8.mid,experiment,0
55,126,26599,64,64,0,2,2,8,8.mid,experiment,0
56,128,26882,64,64,0,2,2,8,8.mid,experiment,0
57,130,27744,62,64,0,2,2,8,8.mid,experiment,0
58,132,28360,67,64,0,2,2,8,8.mid,experiment,0
59,134,28622,67,64,0,2,2,8,8.mid,experiment,0
60,136,28918,71,64,0,2,2,8,8.mid,experiment,0
61,138,29186,71,64,0,2,2,8,8.mid,experiment,0
62,140,29483,72,64,0,2,2,8,8.mid,experiment,0
63,142,29721,72,64,0,2,2,8,8.mid,experiment,0
64,144,30004,73,64,0,2,2,8,8.mid,experiment,0
65,146,30281,73,64,0,2,2,8,8.mid,experiment,0
66,148,31148,74,64,0,2,2,8,8.mid,experiment,0
67,150,31718,77,64,0,2,2,8,8.mid,experiment,0
68,152,32269,76,64,0,2,2,8,8.mid,experiment,0
69,154,32845,74,64,0,2,2,8,8.mid,experiment,0
70,156,33423,72,64,0,2,2,8,8.mid,experiment,0
71,158,34010,84,64,0,2,2,8,8.mid,experiment,0
72,160,34765,84,64,0,2,2,8,8.mid,experiment,0
1,19,8196,79,64,0,2,2,9,5.mid,experiment,0
2,21,8478,78,64,0,2,2,9,5.mid,experiment,0
3,23,8694,79,64,0,2,2,9,5.mid,experiment,0
4,25,9001,76,64,0,2,2,9,5.mid,experiment,0
5,26,9078,72,64,0,2,2,9,5.mid,experiment,0
6,28,9298,67,64,0,2,2,9,5.mid,experiment,0
7,30,9592,67,64,0,2,2,9,5.mid,experiment,0
8,32,9844,67,64,0,2,2,9,5.mid,experiment,0
9,35,10430,79,64,0,2,2,9,5.mid,experiment,0
10,37,10669,78,64,0,2,2,9,5.mid,experiment,0
11,39,10969,79,64,0,2,2,9,5.mid,experiment,0
12,41,11218,76,64,0,2,2,9,5.mid,experiment,0
13,43,11512,72,64,0,2,2,9,5.mid,experiment,0
14,45,11792,76,64,0,2,2,9,5.mid,experiment,0
15,47,12024,79,64,0,2,2,9,5.mid,experiment,0
16,49,12338,84,64,0,2,2,9,5.mid,experiment,0
17,50,12464,83,64,0,2,2,9,5.mid,experiment,0
18,52,12642,81,64,0,2,2,9,5.mid,experiment,0
19,54,12893,81,64,0,2,2,9,5.mid,experiment,0
20,56,13190,81,64,0,2,2,9,5.mid,experiment,0
21,59,13740,83,64,0,2,2,9,5.mid,experiment,0
22,61,14026,81,64,0,2,2,9,5.mid,experiment,0
23,63,14298,84,64,0,2,2,9,5.mid,experiment,0
24,65,14580,81,64,0,2,2,9,5.mid,experiment,0
25,66,14686,78,64,0,2,2,9,5.mid,experiment,0
26,68,14991,79,64,0,2,2,9,5.mid,experiment,0
27,70,15551,79,64,0,2,2,9,5.mid,experiment,0
28,72,16242,79,64,0,2,2,9,5.mid,experiment,0
29,74,16923,77,64,0,2,2,9,5.mid,experiment,0
30,76,17190,77,64,0,2,2,9,5.mid,experiment,0
31,78,17488,76,64,0,2,2,9,5.mid,experiment,0
32,80,17776,76,64,0,2,2,9,5.mid,experiment,0
33,82,18670,74,64,0,2,2,9,5.mid,experiment,0
34,84,19790,79,64,0,2,2,9,5.mid,experiment,0
35,86,20422,77,64,0,2,2,9,5.mid,experiment,0
36,88,20488,76,64,0,2,2,9,5.mid,experiment,0
37,90,20774,76,64,0,2,2,9,5.mid,experiment,0
38,92,21044,76,64,0,2,2,9,5.mid,experiment,0
39,94,21314,76,64,0,2,2,9,5.mid,experiment,0
40,97,21898,81,64,0,2,2,9,5.mid,experiment,0
41,99,22153,77,64,0,2,2,9,5.mid,experiment,0
42,101,22422,76,64,0,2,2,9,5.mid,experiment,0
43,103,22682,74,64,0,2,2,9,5.mid,experiment,0
44,105,22932,76,64,0,2,2,9,5.mid,experiment,0
45,107,23258,79,64,0,2,2,9,5.mid,experiment,0
46,109,23501,74,64,0,2,2,9,5.mid,experiment,0
47,110,23596,71,64,0,2,2,9,5.mid,experiment,0
48,112,23812,72,64,0,2,2,9,5.mid,experiment,0
49,114,24072,72,64,0,2,2,9,5.mid,experiment,0
50,116,24346,74,64,0,2,2,9,5.mid,experiment,0
51,118,24616,74,64,0,2,2,9,5.mid,experiment,0
52,120,25502,76,64,0,2,2,9,5.mid,experiment,0
53,122,26178,65,64,0,2,2,9,5.mid,experiment,0
54,124,26468,65,64,0,2,2,9,5.mid,experiment,0
55,126,26774,64,64,0,2,2,9,5.mid,experiment,0
56,128,27025,64,64,0,2,2,9,5.mid,experiment,0
57,130,27938,62,64,0,2,2,9,5.mid,experiment,0
58,132,28550,67,64,0,2,2,9,5.mid,experiment,0
59,134,28816,67,64,0,2,2,9,5.mid,experiment,0
60,136,29099,71,64,0,2,2,9,5.mid,experiment,0
61,138,29362,71,64,0,2,2,9,5.mid,experiment,0
62,140,29652,72,64,0,2,2,9,5.mid,experiment,0
63,142,29918,72,64,0,2,2,9,5.mid,experiment,0
64,144,30191,73,64,0,2,2,9,5.mid,experiment,0
65,146,30460,73,64,0,2,2,9,5.mid,experiment,0
66,148,31338,74,64,0,2,2,9,5.mid,experiment,0
67,150,31883,77,64,0,2,2,9,5.mid,experiment,0
68,152,32448,76,64,0,2,2,9,5.mid,experiment,0
69,154,33032,74,64,0,2,2,9,5.mid,experiment,0
70,156,33606,72,64,0,2,2,9,5.mid,experiment,0
71,158,34232,84,64,0,2,2,9,5.mid,experiment,0
72,160,35009,84,64,0,2,2,9,5.mid,experiment,0
1,19,8172,79,64,0,2,2,10,11.mid,experiment,0
2,21,8520,78,64,0,2,2,10,11.mid,experiment,0
3,23,8727,79,64,0,2,2,10,11.mid,experiment,0
4,25,9038,76,64,0,2,2,10,11.mid,experiment,0
5,26,9161,72,64,0,2,2,10,11.mid,experiment,0
6,28,9351,67,64,0,2,2,10,11.mid,experiment,0
7,30,9651,67,64,0,2,2,10,11.mid,experiment,0
8,32,9919,67,64,0,2,2,10,11.mid,experiment,0
9,35,10494,79,64,0,2,2,10,11.mid,experiment,0
10,37,10749,78,64,0,2,2,10,11.mid,experiment,0
11,39,11033,79,64,0,2,2,10,11.mid,experiment,0
12,41,11315,76,64,0,2,2,10,11.mid,experiment,0
13,43,11623,72,64,0,2,2,10,11.mid,experiment,0
14,45,11896,76,64,0,2,2,10,11.mid,experiment,0
15,47,12145,79,64,0,2,2,10,11.mid,experiment,0
16,49,12451,84,64,0,2,2,10,11.mid,experiment,0
17,50,12610,83,64,0,2,2,10,11.mid,experiment,0
18,52,12738,81,64,0,2,2,10,11.mid,experiment,0
19,54,13015,81,64,0,2,2,10,11.mid,experiment,0
20,56,13299,81,64,0,2,2,10,11.mid,experiment,0
21,59,13870,83,64,0,2,2,10,11.mid,experiment,0
22,61,14155,81,64,0,2,2,10,11.mid,experiment,0
23,63,14403,84,64,0,2,2,10,11.mid,experiment,0
24,65,14685,81,64,0,2,2,10,11.mid,experiment,0
25,66,14895,78,64,0,2,2,10,11.mid,experiment,0
26,68,15073,79,64,0,2,2,10,11.mid,experiment,0
27,70,15699,79,64,0,2,2,10,11.mid,experiment,0
28,72,16410,79,64,0,2,2,10,11.mid,experiment,0
29,74,17124,77,64,0,2,2,10,11.mid,experiment,0
30,76,17394,77,64,0,2,2,10,11.mid,experiment,0
31,78,17688,76,64,0,2,2,10,11.mid,experiment,0
32,80,17961,76,64,0,2,2,10,11.mid,experiment,0
33,82,18805,74,64,0,2,2,10,11.mid,experiment,0
34,85,20042,79,64,0,2,2,10,11.mid,experiment,0
35,87,20593,77,64,0,2,2,10,11.mid,experiment,0
36,88,20645,76,64,0,2,2,10,11.mid,experiment,0
37,90,20898,76,64,0,2,2,10,11.mid,experiment,0
38,92,21175,76,64,0,2,2,10,11.mid,experiment,0
39,94,21458,76,64,0,2,2,10,11.mid,experiment,0
40,97,22067,81,64,0,2,2,10,11.mid,experiment,0
41,99,22286,77,64,0,2,2,10,11.mid,experiment,0
42,101,22539,76,64,0,2,2,10,11.mid,experiment,0
43,103,22839,74,64,0,2,2,10,11.mid,experiment,0
44,105,23085,76,64,0,2,2,10,11.mid,experiment,0
45,107,23398,79,64,0,2,2,10,11.mid,experiment,0
46,109,23615,74,64,0,2,2,10,11.mid,experiment,0
47,110,23687,71,64,0,2,2,10,11.mid,experiment,0
48,112,23950,72,64,0,2,2,10,11.mid,experiment,0
49,114,24223,72,64,0,2,2,10,11.mid,experiment,0
50,116,24494,74,64,0,2,2,10,11.mid,experiment,0
51,118,24766,74,64,0,2,2,10,11.mid,experiment,0
52,120,25657,76,64,0,2,2,10,11.mid,experiment,0
53,122,26289,65,64,0,2,2,10,11.mid,experiment,0
54,124,26578,65,64,0,2,2,10,11.mid,experiment,0
55,126,26865,64,64,0,2,2,10,11.mid,experiment,0
56,128,27126,64,64,0,2,2,10,11.mid,experiment,0
57,130,28029,62,64,0,2,2,10,11.mid,experiment,0
58,132,28653,67,64,0,2,2,10,11.mid,experiment,0
59,134,28906,67,64,0,2,2,10,11.mid,experiment,0
60,136,29191,71,64,0,2,2,10,11.mid,experiment,0
61,138,29465,71,64,0,2,2,10,11.mid,experiment,0
62,140,29764,72,64,0,2,2,10,11.mid,experiment,0
63,142,30028,72,64,0,2,2,10,11.mid,experiment,0
64,144,30324,73,64,0,2,2,10,11.mid,experiment,0
65,146,30585,73,64,0,2,2,10,11.mid,experiment,0
66,149,31535,74,64,0,2,2,10,11.mid,experiment,0
67,150,32013,77,64,0,2,2,10,11.mid,experiment,0
68,152,32569,76,64,0,2,2,10,11.mid,experiment,0
69,154,33147,74,64,0,2,2,10,11.mid,experiment,0
70,156,33712,72,64,0,2,2,10,11.mid,experiment,0
71,158,34313,84,64,0,2,2,10,11.mid,experiment,0
72,160,35098,84,64,0,2,2,10,11.mid,experiment,0
1,19,8201,79,64,0,2,2,11,9.mid,experiment,0
2,21,8477,78,64,0,2,2,11,9.mid,experiment,0
3,23,8718,79,64,0,2,2,11,9.mid,experiment,0
4,25,9027,76,64,0,2,2,11,9.mid,experiment,0
5,26,9151,72,64,0,2,2,11,9.mid,experiment,0
6,28,9353,67,64,0,2,2,11,9.mid,experiment,0
7,30,9613,67,64,0,2,2,11,9.mid,experiment,0
8,32,9934,67,64,0,2,2,11,9.mid,experiment,0
9,35,10449,79,64,0,2,2,11,9.mid,experiment,0
10,37,10706,78,64,0,2,2,11,9.mid,experiment,0
11,39,10986,79,64,0,2,2,11,9.mid,experiment,0
12,41,11276,76,64,0,2,2,11,9.mid,experiment,0
13,43,11549,72,64,0,2,2,11,9.mid,experiment,0
14,45,11859,76,64,0,2,2,11,9.mid,experiment,0
15,47,12057,79,64,0,2,2,11,9.mid,experiment,0
16,49,12377,84,64,0,2,2,11,9.mid,experiment,0
17,50,12527,83,64,0,2,2,11,9.mid,experiment,0
18,52,12672,81,64,0,2,2,11,9.mid,experiment,0
19,54,12956,81,64,0,2,2,11,9.mid,experiment,0
20,56,13231,81,64,0,2,2,11,9.mid,experiment,0
21,59,13776,83,64,0,2,2,11,9.mid,experiment,0
22,61,14068,81,64,0,2,2,11,9.mid,experiment,0
23,63,14337,84,64,0,2,2,11,9.mid,experiment,0
24,65,14620,81,64,0,2,2,11,9.mid,experiment,0
25,66,14742,78,64,0,2,2,11,9.mid,experiment,0
26,68,15049,79,64,0,2,2,11,9.mid,experiment,0
27,70,15568,79,64,0,2,2,11,9.mid,experiment,0
28,72,16415,79,64,0,2,2,11,9.mid,experiment,0
29,74,17080,77,64,0,2,2,11,9.mid,experiment,0
30,76,17360,77,64,0,2,2,11,9.mid,experiment,0
31,78,17639,76,64,0,2,2,11,9.mid,experiment,0
32,80,17920,76,64,0,2,2,11,9.mid,experiment,0
33,82,18792,74,64,0,2,2,11,9.mid,experiment,0
34,85,20029,79,64,0,2,2,11,9.mid,experiment,0
35,87,20582,77,64,0,2,2,11,9.mid,experiment,0
36,88,20632,76,64,0,2,2,11,9.mid,experiment,0
37,90,20904,76,64,0,2,2,11,9.mid,experiment,0
38,92,21173,76,64,0,2,2,11,9.mid,experiment,0
39,94,21436,76,64,0,2,2,11,9.mid,experiment,0
40,97,22070,81,64,0,2,2,11,9.mid,experiment,0
41,99,22328,77,64,0,2,2,11,9.mid,experiment,0
42,101,22563,76,64,0,2,2,11,9.mid,experiment,0
43,103,22823,74,64,0,2,2,11,9.mid,experiment,0
44,105,23089,76,64,0,2,2,11,9.mid,experiment,0
45,107,23394,79,64,0,2,2,11,9.mid,experiment,0
46,109,23638,74,64,0,2,2,11,9.mid,experiment,0
47,110,23704,71,64,0,2,2,11,9.mid,experiment,0
48,112,23973,72,64,0,2,2,11,9.mid,experiment,0
49,114,24235,72,64,0,2,2,11,9.mid,experiment,0
50,116,24514,74,64,0,2,2,11,9.mid,experiment,0
51,118,24777,74,64,0,2,2,11,9.mid,experiment,0
52,120,25684,76,64,0,2,2,11,9.mid,experiment,0
53,122,26326,65,64,0,2,2,11,9.mid,experiment,0
54,124,26605,65,64,0,2,2,11,9.mid,experiment,0
55,126,26917,64,64,0,2,2,11,9.mid,experiment,0
56,128,27196,64,64,0,2,2,11,9.mid,experiment,0
57,130,28101,62,64,0,2,2,11,9.mid,experiment,0
58,132,28741,67,64,0,2,2,11,9.mid,experiment,0
59,134,29012,67,64,0,2,2,11,9.mid,experiment,0
60,136,29270,71,64,0,2,2,11,9.mid,experiment,0
61,138,29551,71,64,0,2,2,11,9.mid,experiment,0
62,140,29847,72,64,0,2,2,11,9.mid,experiment,0
63,142,30095,72,64,0,2,2,11,9.mid,experiment,0
64,144,30393,73,64,0,2,2,11,9.mid,experiment,0
65,146,30652,73,64,0,2,2,11,9.mid,experiment,0
66,148,31522,74,64,0,2,2,11,9.mid,experiment,0
67,150,32048,77,64,0,2,2,11,9.mid,experiment,0
68,152,32598,76,64,0,2,2,11,9.mid,experiment,0
69,154,33201,74,64,0,2,2,11,9.mid,experiment,0
70,156,33755,72,64,0,2,2,11,9.mid,experiment,0
71,158,34341,84,64,0,2,2,11,9.mid,experiment,0
72,160,35164,84,64,0,2,2,11,9.mid,experiment,0
1,19,8200,79,64,0,2,2,12,1.mid,experiment,0
2,21,8497,78,64,0,2,2,12,1.mid,experiment,0
3,23,8732,79,64,0,2,2,12,1.mid,experiment,0
4,25,9048,76,64,0,2,2,12,1.mid,experiment,0
5,26,9152,72,64,0,2,2,12,1.mid,experiment,0
6,28,9376,67,64,0,2,2,12,1.mid,experiment,0
7,30,9627,67,64,0,2,2,12,1.mid,experiment,0
8,32,9891,67,64,0,2,2,12,1.mid,experiment,0
9,35,10443,79,64,0,2,2,12,1.mid,experiment,0
10,37,10701,78,64,0,2,2,12,1.mid,experiment,0
11,39,10975,79,64,0,2,2,12,1.mid,experiment,0
12,41,11314,76,64,0,2,2,12,1.mid,experiment,0
13,43,11562,72,64,0,2,2,12,1.mid,experiment,0
14,45,11847,76,64,0,2,2,12,1.mid,experiment,0
15,47,12098,79,64,0,2,2,12,1.mid,experiment,0
16,49,12357,84,64,0,2,2,12,1.mid,experiment,0
17,50,12536,83,64,0,2,2,12,1.mid,experiment,0
18,52,12709,81,64,0,2,2,12,1.mid,experiment,0
19,54,12957,81,64,0,2,2,12,1.mid,experiment,0
20,56,13244,81,64,0,2,2,12,1.mid,experiment,0
21,59,13794,83,64,0,2,2,12,1.mid,experiment,0
22,61,14077,81,64,0,2,2,12,1.mid,experiment,0
23,63,14337,84,64,0,2,2,12,1.mid,experiment,0
24,65,14614,81,64,0,2,2,12,1.mid,experiment,0
25,66,14839,78,64,0,2,2,12,1.mid,experiment,0
26,68,15018,79,64,0,2,2,12,1.mid,experiment,0
27,70,15600,79,64,0,2,2,12,1.mid,experiment,0
28,72,16360,79,64,0,2,2,12,1.mid,experiment,0
29,74,17034,77,64,0,2,2,12,1.mid,experiment,0
30,76,17300,77,64,0,2,2,12,1.mid,experiment,0
31,78,17579,76,64,0,2,2,12,1.mid,experiment,0
32,80,17853,76,64,0,2,2,12,1.mid,experiment,0
33,82,18704,74,64,0,2,2,12,1.mid,experiment,0
34,85,19971,79,64,0,2,2,12,1.mid,experiment,0
35,87,20504,77,64,0,2,2,12,1.mid,experiment,0
36,88,20518,76,64,0,2,2,12,1.mid,experiment,0
37,90,20794,76,64,0,2,2,12,1.mid,experiment,0
38,92,21062,76,64,0,2,2,12,1.mid,experiment,0
39,94,21342,76,64,0,2,2,12,1.mid,experiment,0
40,97,21944,81,64,0,2,2,12,1.mid,experiment,0
41,99,22174,77,64,0,2,2,12,1.mid,experiment,0
42,101,22425,76,64,0,2,2,12,1.mid,experiment,0
43,103,22705,74,64,0,2,2,12,1.mid,experiment,0
44,105,22952,76,64,0,2,2,12,1.mid,experiment,0
45,107,23275,79,64,0,2,2,12,1.mid,experiment,0
46,109,23513,74,64,0,2,2,12,1.mid,experiment,0
47,110,23614,71,64,0,2,2,12,1.mid,experiment,0
48,112,23833,72,64,0,2,2,12,1.mid,experiment,0
49,114,24103,72,64,0,2,2,12,1.mid,experiment,0
50,116,24373,74,64,0,2,2,12,1.mid,experiment,0
51,118,24624,74,64,0,2,2,12,1.mid,experiment,0
52,120,25506,76,64,0,2,2,12,1.mid,experiment,0
53,122,26202,65,64,0,2,2,12,1.mid,experiment,0
54,124,26479,65,64,0,2,2,12,1.mid,experiment,0
55,126,26776,64,64,0,2,2,12,1.mid,experiment,0
56,128,27055,64,64,0,2,2,12,1.mid,experiment,0
57,130,27931,62,64,0,2,2,12,1.mid,experiment,0
58,132,28543,67,64,0,2,2,12,1.mid,experiment,0
59,134,28801,67,64,0,2,2,12,1.mid,experiment,0
60,136,29098,71,64,0,2,2,12,1.mid,experiment,0
61,138,29367,71,64,0,2,2,12,1.mid,experiment,0
62,140,29651,72,64,0,2,2,12,1.mid,experiment,0
63,142,29916,72,64,0,2,2,12,1.mid,experiment,0
64,144,30188,73,64,0,2,2,12,1.mid,experiment,0
65,146,30460,73,64,0,2,2,12,1.mid,experiment,0
66,148,31318,74,64,0,2,2,12,1.mid,experiment,0
67,150,31876,77,64,0,2,2,12,1.mid,experiment,0
68,152,32458,76,64,0,2,2,12,1.mid,experiment,0
69,154,33041,74,64,0,2,2,12,1.mid,experiment,0
70,156,33607,72,64,0,2,2,12,1.mid,experiment,0
71,158,34177,84,64,0,2,2,12,1.mid,experiment,0
72,160,35015,84,64,0,2,2,12,1.mid,experiment,0
1,19,8147,79,64,0,2,2,13,6.mid,experiment,0
2,21,8468,78,64,0,2,2,13,6.mid,experiment,0
3,23,8663,79,64,0,2,2,13,6.mid,experiment,0
4,25,9017,76,64,0,2,2,13,6.mid,experiment,0
5,26,9135,72,64,0,2,2,13,6.mid,experiment,0
6,28,9329,67,64,0,2,2,13,6.mid,experiment,0
7,30,9597,67,64,0,2,2,13,6.mid,experiment,0
8,32,9867,67,64,0,2,2,13,6.mid,experiment,0
9,35,10427,79,64,0,2,2,13,6.mid,experiment,0
10,37,10656,78,64,0,2,2,13,6.mid,experiment,0
11,39,10927,79,64,0,2,2,13,6.mid,experiment,0
12,41,11231,76,64,0,2,2,13,6.mid,experiment,0
13,43,11505,72,64,0,2,2,13,6.mid,experiment,0
14,45,11788,76,64,0,2,2,13,6.mid,experiment,0
15,47,12011,79,64,0,2,2,13,6.mid,experiment,0
16,49,12299,84,64,0,2,2,13,6.mid,experiment,0
17,50,12451,83,64,0,2,2,13,6.mid,experiment,0
18,52,12645,81,64,0,2,2,13,6.mid,experiment,0
19,54,12907,81,64,0,2,2,13,6.mid,experiment,0
20,56,13178,81,64,0,2,2,13,6.mid,experiment,0
21,59,13720,83,64,0,2,2,13,6.mid,experiment,0
22,61,14006,81,64,0,2,2,13,6.mid,experiment,0
23,63,14323,84,64,0,2,2,13,6.mid,experiment,0
24,65,14533,81,64,0,2,2,13,6.mid,experiment,0
25,66,14695,78,64,0,2,2,13,6.mid,experiment,0
26,68,15001,79,64,0,2,2,13,6.mid,experiment,0
27,70,15551,79,64,0,2,2,13,6.mid,experiment,0
28,72,16321,79,64,0,2,2,13,6.mid,experiment,0
29,74,17009,77,64,0,2,2,13,6.mid,experiment,0
30,76,17286,77,64,0,2,2,13,6.mid,experiment,0
31,78,17589,76,64,0,2,2,13,6.mid,experiment,0
32,80,17858,76,64,0,2,2,13,6.mid,experiment,0
33,82,18713,74,64,0,2,2,13,6.mid,experiment,0
34,85,19922,79,64,0,2,2,13,6.mid,experiment,0
35,87,20466,77,64,0,2,2,13,6.mid,experiment,0
36,88,20541,76,64,0,2,2,13,6.mid,experiment,0
37,90,20799,76,64,0,2,2,13,6.mid,experiment,0
38,92,21063,76,64,0,2,2,13,6.mid,experiment,0
39,94,21339,76,64,0,2,2,13,6.mid,experiment,0
40,97,21929,81,64,0,2,2,13,6.mid,experiment,0
41,99,22188,77,64,0,2,2,13,6.mid,experiment,0
42,101,22426,76,64,0,2,2,13,6.mid,experiment,0
43,103,22727,74,64,0,2,2,13,6.mid,experiment,0
44,105,22977,76,64,0,2,2,13,6.mid,experiment,0
45,107,23282,79,64,0,2,2,13,6.mid,experiment,0
46,109,23542,74,64,0,2,2,13,6.mid,experiment,0
47,110,23595,71,64,0,2,2,13,6.mid,experiment,0
48,112,23831,72,64,0,2,2,13,6.mid,experiment,0
49,114,24102,72,64,0,2,2,13,6.mid,experiment,0
50,116,24400,74,64,0,2,2,13,6.mid,experiment,0
51,118,24655,74,64,0,2,2,13,6.mid,experiment,0
52,120,25505,76,64,0,2,2,13,6.mid,experiment,0
53,122,26156,65,64,0,2,2,13,6.mid,experiment,0
54,124,26443,65,64,0,2,2,13,6.mid,experiment,0
55,126,26737,64,64,0,2,2,13,6.mid,experiment,0
56,128,27010,64,64,0,2,2,13,6.mid,experiment,0
57,130,27863,62,64,0,2,2,13,6.mid,experiment,0
58,132,28547,67,64,0,2,2,13,6.mid,experiment,0
59,134,28815,67,64,0,2,2,13,6.mid,experiment,0
60,136,29093,71,64,0,2,2,13,6.mid,experiment,0
61,138,29363,71,64,0,2,2,13,6.mid,experiment,0
62,140,29641,72,64,0,2,2,13,6.mid,experiment,0
63,142,29917,72,64,0,2,2,13,6.mid,experiment,0
64,144,30209,73,64,0,2,2,13,6.mid,experiment,0
65,146,30449,73,64,0,2,2,13,6.mid,experiment,0
66,149,31363,74,64,0,2,2,13,6.mid,experiment,0
67,150,31891,77,64,0,2,2,13,6.mid,experiment,0
68,152,32436,76,64,0,2,2,13,6.mid,experiment,0
69,154,33012,74,64,0,2,2,13,6.mid,experiment,0
70,156,33567,72,64,0,2,2,13,6.mid,experiment,0
71,158,34201,84,64,0,2,2,13,6.mid,experiment,0
72,160,34915,84,64,0,2,2,13,6.mid,experiment,0
1,19,8212,79,64,0,2,2,14,7.mid,experiment,0
2,21,8496,78,64,0,2,2,14,7.mid,experiment,0
3,23,8696,79,64,0,2,2,14,7.mid,experiment,0
4,25,9019,76,64,0,2,2,14,7.mid,experiment,0
5,26,9172,72,64,0,2,2,14,7.mid,experiment,0
6,28,9354,67,64,0,2,2,14,7.mid,experiment,0
7,30,9611,67,64,0,2,2,14,7.mid,experiment,0
8,32,9913,67,64,0,2,2,14,7.mid,experiment,0
9,35,10466,79,64,0,2,2,14,7.mid,experiment,0
10,37,10723,78,64,0,2,2,14,7.mid,experiment,0
11,39,10968,79,64,0,2,2,14,7.mid,experiment,0
12,41,11263,76,64,0,2,2,14,7.mid,experiment,0
13,43,11561,72,64,0,2,2,14,7.mid,experiment,0
14,45,11846,76,64,0,2,2,14,7.mid,experiment,0
15,47,12081,79,64,0,2,2,14,7.mid,experiment,0
16,49,12370,84,64,0,2,2,14,7.mid,experiment,0
17,50,12523,83,64,0,2,2,14,7.mid,experiment,0
18,52,12716,81,64,0,2,2,14,7.mid,experiment,0
19,54,12968,81,64,0,2,2,14,7.mid,experiment,0
20,56,13233,81,64,0,2,2,14,7.mid,experiment,0
21,59,13795,83,64,0,2,2,14,7.mid,experiment,0
22,61,14087,81,64,0,2,2,14,7.mid,experiment,0
23,63,14341,84,64,0,2,2,14,7.mid,experiment,0
24,65,14655,81,64,0,2,2,14,7.mid,experiment,0
25,66,14775,78,64,0,2,2,14,7.mid,experiment,0
26,68,15045,79,64,0,2,2,14,7.mid,experiment,0
27,70,15577,79,64,0,2,2,14,7.mid,experiment,0
28,72,16310,79,64,0,2,2,14,7.mid,experiment,0
29,74,17037,77,64,0,2,2,14,7.mid,experiment,0
30,76,17307,77,64,0,2,2,14,7.mid,experiment,0
31,78,17612,76,64,0,2,2,14,7.mid,experiment,0
32,80,17887,76,64,0,2,2,14,7.mid,experiment,0
33,82,18739,74,64,0,2,2,14,7.mid,experiment,0
34,85,20065,79,64,0,2,2,14,7.mid,experiment,0
35,86,20497,77,64,0,2,2,14,7.mid,experiment,0
36,88,20565,76,64,0,2,2,14,7.mid,experiment,0
37,90,20843,76,64,0,2,2,14,7.mid,experiment,0
38,92,21121,76,64,0,2,2,14,7.mid,experiment,0
39,94,21395,76,64,0,2,2,14,7.mid,experiment,0
40,97,22016,81,64,0,2,2,14,7.mid,experiment,0
41,99,22268,77,64,0,2,2,14,7.mid,experiment,0
42,101,22519,76,64,0,2,2,14,7.mid,experiment,0
43,103,22798,74,64,0,2,2,14,7.mid,experiment,0
44,105,23043,76,64,0,2,2,14,7.mid,experiment,0
45,107,23366,79,64,0,2,2,14,7.mid,experiment,0
46,109,23611,74,64,0,2,2,14,7.mid,experiment,0
47,110,23684,71,64,0,2,2,14,7.mid,experiment,0
48,112,23905,72,64,0,2,2,14,7.mid,experiment,0
49,114,24189,72,64,0,2,2,14,7.mid,experiment,0
50,116,24458,74,64,0,2,2,14,7.mid,experiment,0
51,118,24717,74,64,0,2,2,14,7.mid,experiment,0
52,120,25606,76,64,0,2,2,14,7.mid,experiment,0
53,122,26301,65,64,0,2,2,14,7.mid,experiment,0
54,124,26574,65,64,0,2,2,14,7.mid,experiment,0
55,126,26886,64,64,0,2,2,14,7.mid,experiment,0
56,128,27156,64,64,0,2,2,14,7.mid,experiment,0
57,130,28025,62,64,0,2,2,14,7.mid,experiment,0
58,132,28649,67,64,0,2,2,14,7.mid,experiment,0
59,134,28935,67,64,0,2,2,14,7.mid,experiment,0
60,136,29219,71,64,0,2,2,14,7.mid,experiment,0
61,138,29491,71,64,0,2,2,14,7.mid,experiment,0
62,140,29797,72,64,0,2,2,14,7.mid,experiment,0
63,142,30047,72,64,0,2,2,14,7.mid,experiment,0
64,144,30351,73,64,0,2,2,14,7.mid,experiment,0
65,146,30605,73,64,0,2,2,14,7.mid,experiment,0
66,149,31493,74,64,0,2,2,14,7.mid,experiment,0
67,150,32054,77,64,0,2,2,14,7.mid,experiment,0
68,152,32606,76,64,0,2,2,14,7.mid,experiment,0
69,154,33188,74,64,0,2,2,14,7.mid,experiment,0
70,156,33772,72,64,0,2,2,14,7.mid,experiment,0
71,158,34341,84,64,0,2,2,14,7.mid,experiment,0
72,160,35122,84,64,0,2,2,14,7.mid,experiment,0
1,19,8211,79,64,0,2,2,15,13.mid,experiment,0
2,21,8523,78,64,0,2,2,15,13.mid,experiment,0
3,23,8715,79,64,0,2,2,15,13.mid,experiment,0
4,25,9054,76,64,0,2,2,15,13.mid,experiment,0
5,26,9178,72,64,0,2,2,15,13.mid,experiment,0
6,28,9348,67,64,0,2,2,15,13.mid,experiment,0
7,30,9628,67,64,0,2,2,15,13.mid,experiment,0
8,32,9916,67,64,0,2,2,15,13.mid,experiment,0
9,35,10470,79,64,0,2,2,15,13.mid,experiment,0
10,37,10732,78,64,0,2,2,15,13.mid,experiment,0
11,39,11005,79,64,0,2,2,15,13.mid,experiment,0
12,41,11306,76,64,0,2,2,15,13.mid,experiment,0
13,43,11589,72,64,0,2,2,15,13.mid,experiment,0
14,45,11895,76,64,0,2,2,15,13.mid,experiment,0
15,47,12106,79,64,0,2,2,15,13.mid,experiment,0
16,49,12390,84,64,0,2,2,15,13.mid,experiment,0
17,50,12549,83,64,0,2,2,15,13.mid,experiment,0
18,52,12735,81,64,0,2,2,15,13.mid,experiment,0
19,54,12973,81,64,0,2,2,15,13.mid,experiment,0
20,56,13243,81,64,0,2,2,15,13.mid,experiment,0
21,59,13819,83,64,0,2,2,15,13.mid,experiment,0
22,61,14087,81,64,0,2,2,15,13.mid,experiment,0
23,63,14330,84,64,0,2,2,15,13.mid,experiment,0
24,65,14635,81,64,0,2,2,15,13.mid,experiment,0
25,66,14789,78,64,0,2,2,15,13.mid,experiment,0
26,68,15019,79,64,0,2,2,15,13.mid,experiment,0
27,70,15565,79,64,0,2,2,15,13.mid,experiment,0
28,72,16338,79,64,0,2,2,15,13.mid,experiment,0
29,74,17037,77,64,0,2,2,15,13.mid,experiment,0
30,76,17321,77,64,0,2,2,15,13.mid,experiment,0
31,78,17603,76,64,0,2,2,15,13.mid,experiment,0
32,80,17883,76,64,0,2,2,15,13.mid,experiment,0
33,82,18731,74,64,0,2,2,15,13.mid,experiment,0
34,85,20044,79,64,0,2,2,15,13.mid,experiment,0
35,87,20573,77,64,0,2,2,15,13.mid,experiment,0
36,88,20611,76,64,0,2,2,15,13.mid,experiment,0
37,90,20855,76,64,0,2,2,15,13.mid,experiment,0
38,92,21135,76,64,0,2,2,15,13.mid,experiment,0
39,94,21415,76,64,0,2,2,15,13.mid,experiment,0
40,97,22059,81,64,0,2,2,15,13.mid,experiment,0
41,99,22287,77,64,0,2,2,15,13.mid,experiment,0
42,101,22556,76,64,0,2,2,15,13.mid,experiment,0
43,103,22821,74,64,0,2,2,15,13.mid,experiment,0
44,105,23077,76,64,0,2,2,15,13.mid,experiment,0
45,107,23359,79,64,0,2,2,15,13.mid,experiment,0
46,109,23611,74,64,0,2,2,15,13.mid,experiment,0
47,110,23707,71,64,0,2,2,15,13.mid,experiment,0
48,112,23919,72,64,0,2,2,15,13.mid,experiment,0
49,114,24184,72,64,0,2,2,15,13.mid,experiment,0
50,116,24460,74,64,0,2,2,15,13.mid,experiment,0
51,118,24727,74,64,0,2,2,15,13.mid,experiment,0
52,120,25561,76,64,0,2,2,15,13.mid,experiment,0
53,122,26294,65,64,0,2,2,15,13.mid,experiment,0
54,124,26575,65,64,0,2,2,15,13.mid,experiment,0
55,126,26867,64,64,0,2,2,15,13.mid,experiment,0
56,128,27130,64,64,0,2,2,15,13.mid,experiment,0
57,130,28021,62,64,0,2,2,15,13.mid,experiment,0
58,132,28680,67,64,0,2,2,15,13.mid,experiment,0
59,134,28942,67,64,0,2,2,15,13.mid,experiment,0
60,136,29239,71,64,0,2,2,15,13.mid,experiment,0
61,138,29502,71,64,0,2,2,15,13.mid,experiment,0
62,140,29825,72,64,0,2,2,15,13.mid,experiment,0
63,142,30061,72,64,0,2,2,15,13.mid,experiment,0
64,144,30343,73,64,0,2,2,15,13.mid,experiment,0
65,146,30596,73,64,0,2,2,15,13.mid,experiment,0
66,149,31484,74,64,0,2,2,15,13.mid,experiment,0
67,150,31988,77,64,0,2,2,15,13.mid,experiment,0
68,152,32555,76,64,0,2,2,15,13.mid,experiment,0
69,154,33163,74,64,0,2,2,15,13.mid,experiment,0
70,156,33686,72,64,0,2,2,15,13.mid,experiment,0
71,158,34214,84,64,0,2,2,15,13.mid,experiment,0
72,160,35131,84,64,0,2,2,15,13.mid,experiment,0
1,19,8158,79,64,0,2,2,16,14.mid,experiment,0
2,21,8471,78,64,0,2,2,16,14.mid,experiment,0
3,23,8683,79,64,0,2,2,16,14.mid,experiment,0
4,25,9032,76,64,0,2,2,16,14.mid,experiment,0
5,26,9124,72,64,0,2,2,16,14.mid,experiment,0
6,28,9326,67,64,0,2,2,16,14.mid,experiment,0
7,30,9597,67,64,0,2,2,16,14.mid,experiment,0
8,32,9876,67,64,0,2,2,16,14.mid,experiment,0
9,35,10428,79,64,0,2,2,16,14.mid,experiment,0
10,37,10691,78,64,0,2,2,16,14.mid,experiment,0
11,39,10979,79,64,0,2,2,16,14.mid,experiment,0
12,41,11273,76,64,0,2,2,16,14.mid,experiment,0
13,43,11553,72,64,0,2,2,16,14.mid,experiment,0
14,45,11828,76,64,0,2,2,16,14.mid,experiment,0
15,47,12062,79,64,0,2,2,16,14.mid,experiment,0
16,49,12355,84,64,0,2,2,16,14.mid,experiment,0
17,50,12488,83,64,0,2,2,16,14.mid,experiment,0
18,52,12699,81,64,0,2,2,16,14.mid,experiment,0
19,54,12950,81,64,0,2,2,16,14.mid,experiment,0
20,56,13217,81,64,0,2,2,16,14.mid,experiment,0
21,59,13782,83,64,0,2,2,16,14.mid,experiment,0
22,61,14055,81,64,0,2,2,16,14.mid,experiment,0
23,63,14363,84,64,0,2,2,16,14.mid,experiment,0
24,65,14609,81,64,0,2,2,16,14.mid,experiment,0
25,66,14710,78,64,0,2,2,16,14.mid,experiment,0
26,68,14955,79,64,0,2,2,16,14.mid,experiment,0
27,70,15513,79,64,0,2,2,16,14.mid,experiment,0
28,72,16334,79,64,0,2,2,16,14.mid,experiment,0
29,74,17063,77,64,0,2,2,16,14.mid,experiment,0
30,76,17343,77,64,0,2,2,16,14.mid,experiment,0
31,78,17641,76,64,0,2,2,16,14.mid,experiment,0
32,80,17931,76,64,0,2,2,16,14.mid,experiment,0
33,82,18803,74,64,0,2,2,16,14.mid,experiment,0
34,85,20006,79,64,0,2,2,16,14.mid,experiment,0
35,87,20555,77,64,0,2,2,16,14.mid,experiment,0
36,88,20599,76,64,0,2,2,16,14.mid,experiment,0
37,90,20868,76,64,0,2,2,16,14.mid,experiment,0
38,92,21148,76,64,0,2,2,16,14.mid,experiment,0
39,94,21453,76,64,0,2,2,16,14.mid,experiment,0
40,97,22044,81,64,0,2,2,16,14.mid,experiment,0
41,99,22284,77,64,0,2,2,16,14.mid,experiment,0
42,101,22542,76,64,0,2,2,16,14.mid,experiment,0
43,103,22838,74,64,0,2,2,16,14.mid,experiment,0
44,105,23088,76,64,0,2,2,16,14.mid,experiment,0
45,107,23386,79,64,0,2,2,16,14.mid,experiment,0
46,109,23652,74,64,0,2,2,16,14.mid,experiment,0
47,110,23740,71,64,0,2,2,16,14.mid,experiment,0
48,112,23938,72,64,0,2,2,16,14.mid,experiment,0
49,114,24218,72,64,0,2,2,16,14.mid,experiment,0
50,116,24495,74,64,0,2,2,16,14.mid,experiment,0
51,118,24762,74,64,0,2,2,16,14.mid,experiment,0
52,120,25575,76,64,0,2,2,16,14.mid,experiment,0
53,122,26308,65,64,0,2,2,16,14.mid,experiment,0
54,124,26597,65,64,0,2,2,16,14.mid,experiment,0
55,126,26877,64,64,0,2,2,16,14.mid,experiment,0
56,128,27153,64,64,0,2,2,16,14.mid,experiment,0
57,130,28012,62,64,0,2,2,16,14.mid,experiment,0
58,132,28659,67,64,0,2,2,16,14.mid,experiment,0
59,134,28936,67,64,0,2,2,16,14.mid,experiment,0
60,136,29211,71,64,0,2,2,16,14.mid,experiment,0
61,138,29488,71,64,0,2,2,16,14.mid,experiment,0
62,140,29784,72,64,0,2,2,16,14.mid,experiment,0
63,142,30035,72,64,0,2,2,16,14.mid,experiment,0
64,144,30325,73,64,0,2,2,16,14.mid,experiment,0
65,146,30587,73,64,0,2,2,16,14.mid,experiment,0
66,148,31402,74,64,0,2,2,16,14.mid,experiment,0
67,150,31967,77,64,0,2,2,16,14.mid,experiment,0
68,152,32540,76,64,0,2,2,16,14.mid,experiment,0
69,154,33130,74,64,0,2,2,16,14.mid,experiment,0
70,156,33704,72,64,0,2,2,16,14.mid,experiment,0
71,158,34285,84,64,0,2,2,16,14.mid,experiment,0
72,160,35080,84,64,0,2,2,16,14.mid,experiment,0
1,19,8388,79,64,0,2,3,1,11.mid,experiment,0
2,21,8634,78,64,0,2,3,1,11.mid,experiment,0
3,23,8954,79,64,0,2,3,1,11.mid,experiment,0
4,25,9254,76,64,0,2,3,1,11.mid,experiment,0
5,26,9460,72,64,0,2,3,1,11.mid,experiment,0
6,28,9539,67,64,0,2,3,1,11.mid,experiment,0
7,30,9797,67,64,0,2,3,1,11.mid,experiment,0
8,32,10063,67,64,0,2,3,1,11.mid,experiment,0
9,35,10721,79,64,0,2,3,1,11.mid,experiment,0
10,37,11046,78,64,0,2,3,1,11.mid,experiment,0
11,39,11267,79,64,0,2,3,1,11.mid,experiment,0
12,40,11498,76,64,0,2,3,1,11.mid,experiment,0
13,43,11896,72,64,0,2,3,1,11.mid,experiment,0
14,45,12125,76,64,0,2,3,1,11.mid,experiment,0
15,47,12378,79,64,0,2,3,1,11.mid,experiment,0
16,49,12751,84,64,0,2,3,1,11.mid,experiment,0
17,51,13020,83,64,0,2,3,1,11.mid,experiment,0
18,52,13101,81,64,0,2,3,1,11.mid,experiment,0
19,54,13310,81,64,0,2,3,1,11.mid,experiment,0
20,56,13561,81,64,0,2,3,1,11.mid,experiment,0
21,59,14092,83,64,0,2,3,1,11.mid,experiment,0
22,61,14349,81,64,0,2,3,1,11.mid,experiment,0
23,63,14643,84,64,0,2,3,1,11.mid,experiment,0
24,65,14927,81,64,0,2,3,1,11.mid,experiment,0
25,67,15214,78,64,0,2,3,1,11.mid,experiment,0
26,68,15331,79,64,0,2,3,1,11.mid,experiment,0
27,70,15817,79,64,0,2,3,1,11.mid,experiment,0
28,72,16517,79,64,0,2,3,1,11.mid,experiment,0
29,74,17576,77,64,0,2,3,1,11.mid,experiment,0
30,76,17859,77,64,0,2,3,1,11.mid,experiment,0
31,78,18116,76,64,0,2,3,1,11.mid,experiment,0
32,80,18438,76,64,0,2,3,1,11.mid,experiment,0
33,82,18879,74,64,0,2,3,1,11.mid,experiment,0
34,84,20315,79,64,0,2,3,1,11.mid,experiment,0
35,86,20931,77,64,0,2,3,1,11.mid,experiment,0
36,88,21287,76,64,0,2,3,1,11.mid,experiment,0
37,90,21563,76,64,0,2,3,1,11.mid,experiment,0
38,92,21837,76,64,0,2,3,1,11.mid,experiment,0
39,94,22179,76,64,0,2,3,1,11.mid,experiment,0
40,97,22871,81,64,0,2,3,1,11.mid,experiment,0
41,99,23091,77,64,0,2,3,1,11.mid,experiment,0
42,100,23316,76,64,0,2,3,1,11.mid,experiment,0
43,103,23587,74,64,0,2,3,1,11.mid,experiment,0
44,105,23901,76,64,0,2,3,1,11.mid,experiment,0
45,107,24205,79,64,0,2,3,1,11.mid,experiment,0
46,109,24395,74,64,0,2,3,1,11.mid,experiment,0
47,110,24633,71,64,0,2,3,1,11.mid,experiment,0
48,112,24750,72,64,0,2,3,1,11.mid,experiment,0
49,114,24995,72,64,0,2,3,1,11.mid,experiment,0
50,116,25270,74,64,0,2,3,1,11.mid,experiment,0
51,118,25570,74,64,0,2,3,1,11.mid,experiment,0
52,120,26018,76,64,0,2,3,1,11.mid,experiment,0
53,122,27277,65,64,0,2,3,1,11.mid,experiment,0
54,124,27549,65,64,0,2,3,1,11.mid,experiment,0
55,126,27776,64,64,0,2,3,1,11.mid,experiment,0
56,128,28092,64,64,0,2,3,1,11.mid,experiment,0
57,130,28612,62,64,0,2,3,1,11.mid,experiment,0
58,132,29674,67,64,0,2,3,1,11.mid,experiment,0
59,134,29960,67,64,0,2,3,1,11.mid,experiment,0
60,136,30242,71,64,0,2,3,1,11.mid,experiment,0
61,138,30507,71,64,0,2,3,1,11.mid,experiment,0
62,140,30800,72,64,0,2,3,1,11.mid,experiment,0
63,142,31075,72,64,0,2,3,1,11.mid,experiment,0
64,144,31339,73,64,0,2,3,1,11.mid,experiment,0
65,146,31621,73,64,0,2,3,1,11.mid,experiment,0
66,148,32120,74,64,0,2,3,1,11.mid,experiment,0
67,150,32668,77,64,0,2,3,1,11.mid,experiment,0
68,152,33204,76,64,0,2,3,1,11.mid,experiment,0
69,154,33733,74,64,0,2,3,1,11.mid,experiment,0
70,156,34387,72,64,0,2,3,1,11.mid,experiment,0
71,158,35010,84,64,0,2,3,1,11.mid,experiment,0
72,160,35914,84,64,0,2,3,1,11.mid,experiment,0
1,19,8260,79,64,0,2,3,3,3.mid,experiment,0
2,21,8525,78,64,0,2,3,3,3.mid,experiment,0
3,23,8837,79,64,0,2,3,3,3.mid,experiment,0
4,25,9154,76,64,0,2,3,3,3.mid,experiment,0
5,26,9370,72,64,0,2,3,3,3.mid,experiment,0
6,28,9436,67,64,0,2,3,3,3.mid,experiment,0
7,30,9728,67,64,0,2,3,3,3.mid,experiment,0
8,32,10012,67,64,0,2,3,3,3.mid,experiment,0
9,35,10565,79,64,0,2,3,3,3.mid,experiment,0
10,37,10880,78,64,0,2,3,3,3.mid,experiment,0
11,39,11155,79,64,0,2,3,3,3.mid,experiment,0
12,40,11374,76,64,0,2,3,3,3.mid,experiment,0
13,43,11737,72,64,0,2,3,3,3.mid,experiment,0
14,45,11990,76,64,0,2,3,3,3.mid,experiment,0
15,47,12254,79,64,0,2,3,3,3.mid,experiment,0
16,49,12599,84,64,0,2,3,3,3.mid,experiment,0
17,50,12813,83,64,0,2,3,3,3.mid,experiment,0
18,52,12931,81,64,0,2,3,3,3.mid,experiment,0
19,54,13162,81,64,0,2,3,3,3.mid,experiment,0
20,56,13438,81,64,0,2,3,3,3.mid,experiment,0
21,59,13932,83,64,0,2,3,3,3.mid,experiment,0
22,61,14219,81,64,0,2,3,3,3.mid,experiment,0
23,63,14537,84,64,0,2,3,3,3.mid,experiment,0
24,65,14797,81,64,0,2,3,3,3.mid,experiment,0
25,67,15038,78,64,0,2,3,3,3.mid,experiment,0
26,68,15223,79,64,0,2,3,3,3.mid,experiment,0
27,70,15646,79,64,0,2,3,3,3.mid,experiment,0
28,72,16432,79,64,0,2,3,3,3.mid,experiment,0
29,74,17348,77,64,0,2,3,3,3.mid,experiment,0
30,76,17625,77,64,0,2,3,3,3.mid,experiment,0
31,78,17896,76,64,0,2,3,3,3.mid,experiment,0
32,80,18215,76,64,0,2,3,3,3.mid,experiment,0
33,82,18641,74,64,0,2,3,3,3.mid,experiment,0
34,84,20053,79,64,0,2,3,3,3.mid,experiment,0
35,86,20642,77,64,0,2,3,3,3.mid,experiment,0
36,88,21003,76,64,0,2,3,3,3.mid,experiment,0
37,90,21265,76,64,0,2,3,3,3.mid,experiment,0
38,92,21525,76,64,0,2,3,3,3.mid,experiment,0
39,94,21831,76,64,0,2,3,3,3.mid,experiment,0
40,97,22452,81,64,0,2,3,3,3.mid,experiment,0
41,99,22656,77,64,0,2,3,3,3.mid,experiment,0
42,100,22877,76,64,0,2,3,3,3.mid,experiment,0
43,103,23150,74,64,0,2,3,3,3.mid,experiment,0
44,105,23470,76,64,0,2,3,3,3.mid,experiment,0
45,107,23768,79,64,0,2,3,3,3.mid,experiment,0
46,109,23957,74,64,0,2,3,3,3.mid,experiment,0
47,110,24179,71,64,0,2,3,3,3.mid,experiment,0
48,112,24317,72,64,0,2,3,3,3.mid,experiment,0
49,114,24559,72,64,0,2,3,3,3.mid,experiment,0
50,116,24816,74,64,0,2,3,3,3.mid,experiment,0
51,118,25076,74,64,0,2,3,3,3.mid,experiment,0
52,120,25472,76,64,0,2,3,3,3.mid,experiment,0
53,122,26570,65,64,0,2,3,3,3.mid,experiment,0
54,124,26851,65,64,0,2,3,3,3.mid,experiment,0
55,126,27110,64,64,0,2,3,3,3.mid,experiment,0
56,128,27417,64,64,0,2,3,3,3.mid,experiment,0
57,130,27819,62,64,0,2,3,3,3.mid,experiment,0
58,132,28939,67,64,0,2,3,3,3.mid,experiment,0
59,134,29230,67,64,0,2,3,3,3.mid,experiment,0
60,136,29469,71,64,0,2,3,3,3.mid,experiment,0
61,138,29747,71,64,0,2,3,3,3.mid,experiment,0
62,140,30033,72,64,0,2,3,3,3.mid,experiment,0
63,142,30312,72,64,0,2,3,3,3.mid,experiment,0
64,144,30574,73,64,0,2,3,3,3.mid,experiment,0
65,146,30852,73,64,0,2,3,3,3.mid,experiment,0
66,148,31382,74,64,0,2,3,3,3.mid,experiment,0
67,150,31927,77,64,0,2,3,3,3.mid,experiment,0
68,152,32492,76,64,0,2,3,3,3.mid,experiment,0
69,154,33040,74,64,0,2,3,3,3.mid,experiment,0
70,156,33659,72,64,0,2,3,3,3.mid,experiment,0
71,158,34239,84,64,0,2,3,3,3.mid,experiment,0
72,160,35026,84,64,0,2,3,3,3.mid,experiment,0
1,19,8256,79,64,0,2,3,4,6.mid,experiment,0
2,21,8541,78,64,0,2,3,4,6.mid,experiment,0
3,23,8814,79,64,0,2,3,4,6.mid,experiment,0
4,25,9093,76,64,0,2,3,4,6.mid,experiment,0
5,26,9308,72,64,0,2,3,4,6.mid,experiment,0
6,28,9430,67,64,0,2,3,4,6.mid,experiment,0
7,30,9674,67,64,0,2,3,4,6.mid,experiment,0
8,32,9960,67,64,0,2,3,4,6.mid,experiment,0
9,35,10546,79,64,0,2,3,4,6.mid,experiment,0
10,37,10816,78,64,0,2,3,4,6.mid,experiment,0
11,39,11092,79,64,0,2,3,4,6.mid,experiment,0
12,40,11305,76,64,0,2,3,4,6.mid,experiment,0
13,43,11700,72,64,0,2,3,4,6.mid,experiment,0
14,45,11920,76,64,0,2,3,4,6.mid,experiment,0
15,47,12182,79,64,0,2,3,4,6.mid,experiment,0
16,49,12550,84,64,0,2,3,4,6.mid,experiment,0
17,50,12794,83,64,0,2,3,4,6.mid,experiment,0
18,52,12894,81,64,0,2,3,4,6.mid,experiment,0
19,54,13108,81,64,0,2,3,4,6.mid,experiment,0
20,56,13364,81,64,0,2,3,4,6.mid,experiment,0
21,59,13831,83,64,0,2,3,4,6.mid,experiment,0
22,61,14121,81,64,0,2,3,4,6.mid,experiment,0
23,63,14415,84,64,0,2,3,4,6.mid,experiment,0
24,65,14676,81,64,0,2,3,4,6.mid,experiment,0
25,67,14948,78,64,0,2,3,4,6.mid,experiment,0
26,68,15088,79,64,0,2,3,4,6.mid,experiment,0
27,70,15516,79,64,0,2,3,4,6.mid,experiment,0
28,72,16225,79,64,0,2,3,4,6.mid,experiment,0
29,74,17106,77,64,0,2,3,4,6.mid,experiment,0
30,76,17390,77,64,0,2,3,4,6.mid,experiment,0
31,78,17643,76,64,0,2,3,4,6.mid,experiment,0
32,80,17922,76,64,0,2,3,4,6.mid,experiment,0
33,82,18479,74,64,0,2,3,4,6.mid,experiment,0
34,84,19566,79,64,0,2,3,4,6.mid,experiment,0
35,86,20120,77,64,0,2,3,4,6.mid,experiment,0
36,88,20541,76,64,0,2,3,4,6.mid,experiment,0
37,90,20806,76,64,0,2,3,4,6.mid,experiment,0
38,92,21057,76,64,0,2,3,4,6.mid,experiment,0
39,94,21358,76,64,0,2,3,4,6.mid,experiment,0
40,97,21964,81,64,0,2,3,4,6.mid,experiment,0
41,99,22187,77,64,0,2,3,4,6.mid,experiment,0
42,101,22410,76,64,0,2,3,4,6.mid,experiment,0
43,103,22682,74,64,0,2,3,4,6.mid,experiment,0
44,105,22970,76,64,0,2,3,4,6.mid,experiment,0
45,107,23250,79,64,0,2,3,4,6.mid,experiment,0
46,109,23428,74,64,0,2,3,4,6.mid,experiment,0
47,110,23622,71,64,0,2,3,4,6.mid,experiment,0
48,112,23754,72,64,0,2,3,4,6.mid,experiment,0
49,114,23994,72,64,0,2,3,4,6.mid,experiment,0
50,116,24248,74,64,0,2,3,4,6.mid,experiment,0
51,118,24534,74,64,0,2,3,4,6.mid,experiment,0
52,120,25033,76,64,0,2,3,4,6.mid,experiment,0
53,122,26020,65,64,0,2,3,4,6.mid,experiment,0
54,124,26294,65,64,0,2,3,4,6.mid,experiment,0
55,126,26546,64,64,0,2,3,4,6.mid,experiment,0
56,128,26909,64,64,0,2,3,4,6.mid,experiment,0
57,130,27631,62,64,0,2,3,4,6.mid,experiment,0
58,132,28382,67,64,0,2,3,4,6.mid,experiment,0
59,134,28672,67,64,0,2,3,4,6.mid,experiment,0
60,136,28916,71,64,0,2,3,4,6.mid,experiment,0
61,138,29218,71,64,0,2,3,4,6.mid,experiment,0
62,140,29462,72,64,0,2,3,4,6.mid,experiment,0
63,142,29734,72,64,0,2,3,4,6.mid,experiment,0
64,144,29996,73,64,0,2,3,4,6.mid,experiment,0
65,146,30260,73,64,0,2,3,4,6.mid,experiment,0
66,148,30614,74,64,0,2,3,4,6.mid,experiment,0
67,150,31166,77,64,0,2,3,4,6.mid,experiment,0
68,152,31700,76,64,0,2,3,4,6.mid,experiment,0
69,154,32240,74,64,0,2,3,4,6.mid,experiment,0
70,156,32822,72,64,0,2,3,4,6.mid,experiment,0
71,158,33402,84,64,0,2,3,4,6.mid,experiment,0
72,160,34155,84,64,0,2,3,4,6.mid,experiment,0
1,19,8209,79,64,0,2,3,5,9.mid,experiment,0
2,21,8501,78,64,0,2,3,5,9.mid,experiment,0
3,23,8746,79,64,0,2,3,5,9.mid,experiment,0
4,25,9027,76,64,0,2,3,5,9.mid,experiment,0
5,26,9259,72,64,0,2,3,5,9.mid,experiment,0
6,28,9347,67,64,0,2,3,5,9.mid,experiment,0
7,30,9612,67,64,0,2,3,5,9.mid,experiment,0
8,32,9880,67,64,0,2,3,5,9.mid,experiment,0
9,35,10365,79,64,0,2,3,5,9.mid,experiment,0
10,37,10684,78,64,0,2,3,5,9.mid,experiment,0
11,39,10947,79,64,0,2,3,5,9.mid,experiment,0
12,40,11137,76,64,0,2,3,5,9.mid,experiment,0
13,43,11475,72,64,0,2,3,5,9.mid,experiment,0
14,45,11713,76,64,0,2,3,5,9.mid,experiment,0
15,47,11954,79,64,0,2,3,5,9.mid,experiment,0
16,49,12304,84,64,0,2,3,5,9.mid,experiment,0
17,50,12440,83,64,0,2,3,5,9.mid,experiment,0
18,52,12540,81,64,0,2,3,5,9.mid,experiment,0
19,54,12788,81,64,0,2,3,5,9.mid,experiment,0
20,56,13043,81,64,0,2,3,5,9.mid,experiment,0
21,59,13496,83,64,0,2,3,5,9.mid,experiment,0
22,61,13777,81,64,0,2,3,5,9.mid,experiment,0
23,63,14086,84,64,0,2,3,5,9.mid,experiment,0
24,65,14322,81,64,0,2,3,5,9.mid,experiment,0
25,67,14570,78,64,0,2,3,5,9.mid,experiment,0
26,68,14727,79,64,0,2,3,5,9.mid,experiment,0
27,70,15127,79,64,0,2,3,5,9.mid,experiment,0
28,72,15777,79,64,0,2,3,5,9.mid,experiment,0
29,74,16621,77,64,0,2,3,5,9.mid,experiment,0
30,76,16901,77,64,0,2,3,5,9.mid,experiment,0
31,78,17137,76,64,0,2,3,5,9.mid,experiment,0
32,80,17431,76,64,0,2,3,5,9.mid,experiment,0
33,82,17836,74,64,0,2,3,5,9.mid,experiment,0
34,84,18975,79,64,0,2,3,5,9.mid,experiment,0
35,86,19523,77,64,0,2,3,5,9.mid,experiment,0
36,88,19936,76,64,0,2,3,5,9.mid,experiment,0
37,90,20188,76,64,0,2,3,5,9.mid,experiment,0
38,92,20463,76,64,0,2,3,5,9.mid,experiment,0
39,94,20790,76,64,0,2,3,5,9.mid,experiment,0
40,97,21396,81,64,0,2,3,5,9.mid,experiment,0
41,99,21604,77,64,0,2,3,5,9.mid,experiment,0
42,101,21829,76,64,0,2,3,5,9.mid,experiment,0
43,102,22082,74,64,0,2,3,5,9.mid,experiment,0
44,105,22401,76,64,0,2,3,5,9.mid,experiment,0
45,107,22683,79,64,0,2,3,5,9.mid,experiment,0
46,109,22854,74,64,0,2,3,5,9.mid,experiment,0
47,110,23057,71,64,0,2,3,5,9.mid,experiment,0
48,112,23137,72,64,0,2,3,5,9.mid,experiment,0
49,114,23396,72,64,0,2,3,5,9.mid,experiment,0
50,116,23651,74,64,0,2,3,5,9.mid,experiment,0
51,118,23901,74,64,0,2,3,5,9.mid,experiment,0
52,120,24345,76,64,0,2,3,5,9.mid,experiment,0
53,122,25308,65,64,0,2,3,5,9.mid,experiment,0
54,124,25588,65,64,0,2,3,5,9.mid,experiment,0
55,126,25814,64,64,0,2,3,5,9.mid,experiment,0
56,128,26108,64,64,0,2,3,5,9.mid,experiment,0
57,130,26549,62,64,0,2,3,5,9.mid,experiment,0
58,132,27503,67,64,0,2,3,5,9.mid,experiment,0
59,134,27763,67,64,0,2,3,5,9.mid,experiment,0
60,136,28014,71,64,0,2,3,5,9.mid,experiment,0
61,138,28293,71,64,0,2,3,5,9.mid,experiment,0
62,140,28534,72,64,0,2,3,5,9.mid,experiment,0
63,142,28773,72,64,0,2,3,5,9.mid,experiment,0
64,144,29034,73,64,0,2,3,5,9.mid,experiment,0
65,146,29307,73,64,0,2,3,5,9.mid,experiment,0
66,148,29782,74,64,0,2,3,5,9.mid,experiment,0
67,150,30291,77,64,0,2,3,5,9.mid,experiment,0
68,152,30795,76,64,0,2,3,5,9.mid,experiment,0
69,154,31292,74,64,0,2,3,5,9.mid,experiment,0
70,156,31824,72,64,0,2,3,5,9.mid,experiment,0
71,158,32364,84,64,0,2,3,5,9.mid,experiment,0
72,160,33062,84,64,0,2,3,5,9.mid,experiment,0
1,19,8184,79,64,0,2,3,6,4.mid,experiment,0
2,21,8471,78,64,0,2,3,6,4.mid,experiment,0
3,23,8720,79,64,0,2,3,6,4.mid,experiment,0
4,25,9027,76,64,0,2,3,6,4.mid,experiment,0
5,26,9257,72,64,0,2,3,6,4.mid,experiment,0
6,28,9336,67,64,0,2,3,6,4.mid,experiment,0
7,30,9600,67,64,0,2,3,6,4.mid,experiment,0
8,32,9872,67,64,0,2,3,6,4.mid,experiment,0
9,35,10440,79,64,0,2,3,6,4.mid,experiment,0
10,37,10762,78,64,0,2,3,6,4.mid,experiment,0
11,39,11035,79,64,0,2,3,6,4.mid,experiment,0
12,41,11227,76,64,0,2,3,6,4.mid,experiment,0
13,43,11581,72,64,0,2,3,6,4.mid,experiment,0
14,45,11812,76,64,0,2,3,6,4.mid,experiment,0
15,47,12072,79,64,0,2,3,6,4.mid,experiment,0
16,49,12399,84,64,0,2,3,6,4.mid,experiment,0
17,50,12628,83,64,0,2,3,6,4.mid,experiment,0
18,52,12720,81,64,0,2,3,6,4.mid,experiment,0
19,54,12964,81,64,0,2,3,6,4.mid,experiment,0
20,56,13246,81,64,0,2,3,6,4.mid,experiment,0
21,59,13783,83,64,0,2,3,6,4.mid,experiment,0
22,61,14066,81,64,0,2,3,6,4.mid,experiment,0
23,63,14365,84,64,0,2,3,6,4.mid,experiment,0
24,65,14623,81,64,0,2,3,6,4.mid,experiment,0
25,67,14902,78,64,0,2,3,6,4.mid,experiment,0
26,68,15040,79,64,0,2,3,6,4.mid,experiment,0
27,70,15486,79,64,0,2,3,6,4.mid,experiment,0
28,72,16180,79,64,0,2,3,6,4.mid,experiment,0
29,74,17143,77,64,0,2,3,6,4.mid,experiment,0
30,76,17416,77,64,0,2,3,6,4.mid,experiment,0
31,78,17663,76,64,0,2,3,6,4.mid,experiment,0
32,80,17968,76,64,0,2,3,6,4.mid,experiment,0
33,82,18378,74,64,0,2,3,6,4.mid,experiment,0
34,84,19478,79,64,0,2,3,6,4.mid,experiment,0
35,86,20047,77,64,0,2,3,6,4.mid,experiment,0
36,88,20481,76,64,0,2,3,6,4.mid,experiment,0
37,90,20750,76,64,0,2,3,6,4.mid,experiment,0
38,92,20999,76,64,0,2,3,6,4.mid,experiment,0
39,94,21284,76,64,0,2,3,6,4.mid,experiment,0
40,97,21953,81,64,0,2,3,6,4.mid,experiment,0
41,99,22139,77,64,0,2,3,6,4.mid,experiment,0
42,100,22353,76,64,0,2,3,6,4.mid,experiment,0
43,103,22611,74,64,0,2,3,6,4.mid,experiment,0
44,105,22917,76,64,0,2,3,6,4.mid,experiment,0
45,107,23213,79,64,0,2,3,6,4.mid,experiment,0
46,108,23380,74,64,0,2,3,6,4.mid,experiment,0
47,110,23625,71,64,0,2,3,6,4.mid,experiment,0
48,112,23693,72,64,0,2,3,6,4.mid,experiment,0
49,114,23951,72,64,0,2,3,6,4.mid,experiment,0
50,116,24212,74,64,0,2,3,6,4.mid,experiment,0
51,118,24448,74,64,0,2,3,6,4.mid,experiment,0
52,120,24908,76,64,0,2,3,6,4.mid,experiment,0
53,122,25889,65,64,0,2,3,6,4.mid,experiment,0
54,124,26170,65,64,0,2,3,6,4.mid,experiment,0
55,126,26428,64,64,0,2,3,6,4.mid,experiment,0
56,128,26725,64,64,0,2,3,6,4.mid,experiment,0
57,130,27185,62,64,0,2,3,6,4.mid,experiment,0
58,132,28190,67,64,0,2,3,6,4.mid,experiment,0
59,134,28464,67,64,0,2,3,6,4.mid,experiment,0
60,136,28734,71,64,0,2,3,6,4.mid,experiment,0
61,138,28999,71,64,0,2,3,6,4.mid,experiment,0
62,140,29258,72,64,0,2,3,6,4.mid,experiment,0
63,142,29513,72,64,0,2,3,6,4.mid,experiment,0
64,144,29777,73,64,0,2,3,6,4.mid,experiment,0
65,146,30057,73,64,0,2,3,6,4.mid,experiment,0
66,148,30554,74,64,0,2,3,6,4.mid,experiment,0
67,150,31081,77,64,0,2,3,6,4.mid,experiment,0
68,152,31583,76,64,0,2,3,6,4.mid,experiment,0
69,154,32098,74,64,0,2,3,6,4.mid,experiment,0
70,156,32674,72,64,0,2,3,6,4.mid,experiment,0
71,158,33221,84,64,0,2,3,6,4.mid,experiment,0
72,160,33891,84,64,0,2,3,6,4.mid,experiment,0
1,19,8232,79,64,0,2,3,7,7.mid,experiment,0
2,21,8504,78,64,0,2,3,7,7.mid,experiment,0
3,23,8818,79,64,0,2,3,7,7.mid,experiment,0
4,25,9075,76,64,0,2,3,7,7.mid,experiment,0
5,26,9313,72,64,0,2,3,7,7.mid,experiment,0
6,28,9404,67,64,0,2,3,7,7.mid,experiment,0
7,30,9654,67,64,0,2,3,7,7.mid,experiment,0
8,32,9935,67,64,0,2,3,7,7.mid,experiment,0
9,35,10486,79,64,0,2,3,7,7.mid,experiment,0
10,37,10806,78,64,0,2,3,7,7.mid,experiment,0
11,39,11116,79,64,0,2,3,7,7.mid,experiment,0
12,40,11334,76,64,0,2,3,7,7.mid,experiment,0
13,43,11710,72,64,0,2,3,7,7.mid,experiment,0
14,45,11949,76,64,0,2,3,7,7.mid,experiment,0
15,47,12192,79,64,0,2,3,7,7.mid,experiment,0
16,49,12528,84,64,0,2,3,7,7.mid,experiment,0
17,50,12698,83,64,0,2,3,7,7.mid,experiment,0
18,52,12798,81,64,0,2,3,7,7.mid,experiment,0
19,54,13062,81,64,0,2,3,7,7.mid,experiment,0
20,56,13335,81,64,0,2,3,7,7.mid,experiment,0
21,59,13875,83,64,0,2,3,7,7.mid,experiment,0
22,61,14163,81,64,0,2,3,7,7.mid,experiment,0
23,63,14471,84,64,0,2,3,7,7.mid,experiment,0
24,65,14693,81,64,0,2,3,7,7.mid,experiment,0
25,67,14997,78,64,0,2,3,7,7.mid,experiment,0
26,68,15147,79,64,0,2,3,7,7.mid,experiment,0
27,70,15557,79,64,0,2,3,7,7.mid,experiment,0
28,72,16213,79,64,0,2,3,7,7.mid,experiment,0
29,74,17089,77,64,0,2,3,7,7.mid,experiment,0
30,76,17402,77,64,0,2,3,7,7.mid,experiment,0
31,78,17660,76,64,0,2,3,7,7.mid,experiment,0
32,80,17927,76,64,0,2,3,7,7.mid,experiment,0
33,82,18360,74,64,0,2,3,7,7.mid,experiment,0
34,84,19584,79,64,0,2,3,7,7.mid,experiment,0
35,86,20113,77,64,0,2,3,7,7.mid,experiment,0
36,88,20541,76,64,0,2,3,7,7.mid,experiment,0
37,90,20805,76,64,0,2,3,7,7.mid,experiment,0
38,92,21080,76,64,0,2,3,7,7.mid,experiment,0
39,94,21363,76,64,0,2,3,7,7.mid,experiment,0
40,97,21920,81,64,0,2,3,7,7.mid,experiment,0
41,99,22140,77,64,0,2,3,7,7.mid,experiment,0
42,100,22368,76,64,0,2,3,7,7.mid,experiment,0
43,103,22656,74,64,0,2,3,7,7.mid,experiment,0
44,105,22975,76,64,0,2,3,7,7.mid,experiment,0
45,107,23257,79,64,0,2,3,7,7.mid,experiment,0
46,109,23447,74,64,0,2,3,7,7.mid,experiment,0
47,111,23682,71,64,0,2,3,7,7.mid,experiment,0
48,112,23756,72,64,0,2,3,7,7.mid,experiment,0
49,114,23990,72,64,0,2,3,7,7.mid,experiment,0
50,116,24245,74,64,0,2,3,7,7.mid,experiment,0
51,118,24520,74,64,0,2,3,7,7.mid,experiment,0
52,120,25008,76,64,0,2,3,7,7.mid,experiment,0
53,122,26056,65,64,0,2,3,7,7.mid,experiment,0
54,124,26358,65,64,0,2,3,7,7.mid,experiment,0
55,126,26595,64,64,0,2,3,7,7.mid,experiment,0
56,128,26881,64,64,0,2,3,7,7.mid,experiment,0
57,130,27343,62,64,0,2,3,7,7.mid,experiment,0
58,132,28350,67,64,0,2,3,7,7.mid,experiment,0
59,134,28630,67,64,0,2,3,7,7.mid,experiment,0
60,136,28882,71,64,0,2,3,7,7.mid,experiment,0
61,138,29170,71,64,0,2,3,7,7.mid,experiment,0
62,140,29431,72,64,0,2,3,7,7.mid,experiment,0
63,142,29710,72,64,0,2,3,7,7.mid,experiment,0
64,144,29968,73,64,0,2,3,7,7.mid,experiment,0
65,146,30255,73,64,0,2,3,7,7.mid,experiment,0
66,148,30620,74,64,0,2,3,7,7.mid,experiment,0
67,150,31185,77,64,0,2,3,7,7.mid,experiment,0
68,152,31692,76,64,0,2,3,7,7.mid,experiment,0
69,154,32236,74,64,0,2,3,7,7.mid,experiment,0
70,156,32888,72,64,0,2,3,7,7.mid,experiment,0
71,158,33463,84,64,0,2,3,7,7.mid,experiment,0
72,160,34172,84,64,0,2,3,7,7.mid,experiment,0
1,19,8272,79,64,0,2,3,8,1.mid,experiment,0
2,21,8580,78,64,0,2,3,8,1.mid,experiment,0
3,23,8821,79,64,0,2,3,8,1.mid,experiment,0
4,25,9109,76,64,0,2,3,8,1.mid,experiment,0
5,26,9348,72,64,0,2,3,8,1.mid,experiment,0
6,28,9431,67,64,0,2,3,8,1.mid,experiment,0
7,30,9699,67,64,0,2,3,8,1.mid,experiment,0
8,32,9961,67,64,0,2,3,8,1.mid,experiment,0
9,35,10550,79,64,0,2,3,8,1.mid,experiment,0
10,37,10865,78,64,0,2,3,8,1.mid,experiment,0
11,39,11123,79,64,0,2,3,8,1.mid,experiment,0
12,40,11354,76,64,0,2,3,8,1.mid,experiment,0
13,43,11720,72,64,0,2,3,8,1.mid,experiment,0
14,45,11991,76,64,0,2,3,8,1.mid,experiment,0
15,47,12240,79,64,0,2,3,8,1.mid,experiment,0
16,49,12558,84,64,0,2,3,8,1.mid,experiment,0
17,51,12784,83,64,0,2,3,8,1.mid,experiment,0
18,52,12875,81,64,0,2,3,8,1.mid,experiment,0
19,54,13122,81,64,0,2,3,8,1.mid,experiment,0
20,56,13381,81,64,0,2,3,8,1.mid,experiment,0
21,59,13888,83,64,0,2,3,8,1.mid,experiment,0
22,61,14180,81,64,0,2,3,8,1.mid,experiment,0
23,63,14484,84,64,0,2,3,8,1.mid,experiment,0
24,65,14727,81,64,0,2,3,8,1.mid,experiment,0
25,67,15020,78,64,0,2,3,8,1.mid,experiment,0
26,68,15175,79,64,0,2,3,8,1.mid,experiment,0
27,70,15598,79,64,0,2,3,8,1.mid,experiment,0
28,72,16323,79,64,0,2,3,8,1.mid,experiment,0
29,74,17164,77,64,0,2,3,8,1.mid,experiment,0
30,76,17465,77,64,0,2,3,8,1.mid,experiment,0
31,78,17713,76,64,0,2,3,8,1.mid,experiment,0
32,80,18007,76,64,0,2,3,8,1.mid,experiment,0
33,82,18728,74,64,0,2,3,8,1.mid,experiment,0
34,84,19699,79,64,0,2,3,8,1.mid,experiment,0
35,86,20251,77,64,0,2,3,8,1.mid,experiment,0
36,88,20639,76,64,0,2,3,8,1.mid,experiment,0
37,90,20897,76,64,0,2,3,8,1.mid,experiment,0
38,92,21171,76,64,0,2,3,8,1.mid,experiment,0
39,94,21483,76,64,0,2,3,8,1.mid,experiment,0
40,97,22122,81,64,0,2,3,8,1.mid,experiment,0
41,99,22330,77,64,0,2,3,8,1.mid,experiment,0
42,101,22576,76,64,0,2,3,8,1.mid,experiment,0
43,103,22840,74,64,0,2,3,8,1.mid,experiment,0
44,105,23136,76,64,0,2,3,8,1.mid,experiment,0
45,107,23415,79,64,0,2,3,8,1.mid,experiment,0
46,109,23600,74,64,0,2,3,8,1.mid,experiment,0
47,110,23837,71,64,0,2,3,8,1.mid,experiment,0
48,112,23922,72,64,0,2,3,8,1.mid,experiment,0
49,114,24168,72,64,0,2,3,8,1.mid,experiment,0
50,116,24428,74,64,0,2,3,8,1.mid,experiment,0
51,118,24700,74,64,0,2,3,8,1.mid,experiment,0
52,120,25252,76,64,0,2,3,8,1.mid,experiment,0
53,122,26304,65,64,0,2,3,8,1.mid,experiment,0
54,124,26606,65,64,0,2,3,8,1.mid,experiment,0
55,126,26841,64,64,0,2,3,8,1.mid,experiment,0
56,128,27148,64,64,0,2,3,8,1.mid,experiment,0
57,130,27624,62,64,0,2,3,8,1.mid,experiment,0
58,132,28600,67,64,0,2,3,8,1.mid,experiment,0
59,134,28884,67,64,0,2,3,8,1.mid,experiment,0
60,136,29141,71,64,0,2,3,8,1.mid,experiment,0
61,138,29406,71,64,0,2,3,8,1.mid,experiment,0
62,140,29686,72,64,0,2,3,8,1.mid,experiment,0
63,142,29967,72,64,0,2,3,8,1.mid,experiment,0
64,144,30241,73,64,0,2,3,8,1.mid,experiment,0
65,146,30523,73,64,0,2,3,8,1.mid,experiment,0
66,148,30998,74,64,0,2,3,8,1.mid,experiment,0
67,150,31545,77,64,0,2,3,8,1.mid,experiment,0
68,152,32083,76,64,0,2,3,8,1.mid,experiment,0
69,154,32592,74,64,0,2,3,8,1.mid,experiment,0
70,156,33159,72,64,0,2,3,8,1.mid,experiment,0
71,158,33736,84,64,0,2,3,8,1.mid,experiment,0
72,160,34469,84,64,0,2,3,8,1.mid,experiment,0
1,19,8180,79,64,0,2,3,9,5.mid,experiment,0
2,21,8490,78,64,0,2,3,9,5.mid,experiment,0
3,23,8744,79,64,0,2,3,9,5.mid,experiment,0
4,25,9031,76,64,0,2,3,9,5.mid,experiment,0
5,26,9275,72,64,0,2,3,9,5.mid,experiment,0
6,28,9360,67,64,0,2,3,9,5.mid,experiment,0
7,30,9616,67,64,0,2,3,9,5.mid,experiment,0
8,32,9895,67,64,0,2,3,9,5.mid,experiment,0
9,35,10447,79,64,0,2,3,9,5.mid,experiment,0
10,37,10733,78,64,0,2,3,9,5.mid,experiment,0
11,39,10996,79,64,0,2,3,9,5.mid,experiment,0
12,41,11230,76,64,0,2,3,9,5.mid,experiment,0
13,43,11595,72,64,0,2,3,9,5.mid,experiment,0
14,45,11811,76,64,0,2,3,9,5.mid,experiment,0
15,47,12075,79,64,0,2,3,9,5.mid,experiment,0
16,49,12437,84,64,0,2,3,9,5.mid,experiment,0
17,51,12663,83,64,0,2,3,9,5.mid,experiment,0
18,52,12757,81,64,0,2,3,9,5.mid,experiment,0
19,54,13002,81,64,0,2,3,9,5.mid,experiment,0
20,56,13256,81,64,0,2,3,9,5.mid,experiment,0
21,59,13743,83,64,0,2,3,9,5.mid,experiment,0
22,61,14027,81,64,0,2,3,9,5.mid,experiment,0
23,63,14356,84,64,0,2,3,9,5.mid,experiment,0
24,65,14616,81,64,0,2,3,9,5.mid,experiment,0
25,67,14909,78,64,0,2,3,9,5.mid,experiment,0
26,68,15053,79,64,0,2,3,9,5.mid,experiment,0
27,70,15475,79,64,0,2,3,9,5.mid,experiment,0
28,72,16134,79,64,0,2,3,9,5.mid,experiment,0
29,74,17083,77,64,0,2,3,9,5.mid,experiment,0
30,76,17382,77,64,0,2,3,9,5.mid,experiment,0
31,78,17633,76,64,0,2,3,9,5.mid,experiment,0
32,80,17940,76,64,0,2,3,9,5.mid,experiment,0
33,82,18422,74,64,0,2,3,9,5.mid,experiment,0
34,84,19641,79,64,0,2,3,9,5.mid,experiment,0
35,86,20159,77,64,0,2,3,9,5.mid,experiment,0
36,88,20588,76,64,0,2,3,9,5.mid,experiment,0
37,90,20848,76,64,0,2,3,9,5.mid,experiment,0
38,92,21111,76,64,0,2,3,9,5.mid,experiment,0
39,94,21406,76,64,0,2,3,9,5.mid,experiment,0
40,97,22013,81,64,0,2,3,9,5.mid,experiment,0
41,99,22225,77,64,0,2,3,9,5.mid,experiment,0
42,101,22464,76,64,0,2,3,9,5.mid,experiment,0
43,103,22736,74,64,0,2,3,9,5.mid,experiment,0
44,105,23051,76,64,0,2,3,9,5.mid,experiment,0
45,107,23344,79,64,0,2,3,9,5.mid,experiment,0
46,109,23562,74,64,0,2,3,9,5.mid,experiment,0
47,110,23784,71,64,0,2,3,9,5.mid,experiment,0
48,112,23849,72,64,0,2,3,9,5.mid,experiment,0
49,114,24110,72,64,0,2,3,9,5.mid,experiment,0
50,116,24355,74,64,0,2,3,9,5.mid,experiment,0
51,118,24632,74,64,0,2,3,9,5.mid,experiment,0
52,120,25190,76,64,0,2,3,9,5.mid,experiment,0
53,122,26219,65,64,0,2,3,9,5.mid,experiment,0
54,124,26471,65,64,0,2,3,9,5.mid,experiment,0
55,126,26760,64,64,0,2,3,9,5.mid,experiment,0
56,128,27041,64,64,0,2,3,9,5.mid,experiment,0
57,130,27620,62,64,0,2,3,9,5.mid,experiment,0
58,132,28541,67,64,0,2,3,9,5.mid,experiment,0
59,134,28818,67,64,0,2,3,9,5.mid,experiment,0
60,136,29066,71,64,0,2,3,9,5.mid,experiment,0
61,138,29361,71,64,0,2,3,9,5.mid,experiment,0
62,140,29610,72,64,0,2,3,9,5.mid,experiment,0
63,142,29899,72,64,0,2,3,9,5.mid,experiment,0
64,144,30149,73,64,0,2,3,9,5.mid,experiment,0
65,146,30438,73,64,0,2,3,9,5.mid,experiment,0
66,148,30874,74,64,0,2,3,9,5.mid,experiment,0
67,150,31394,77,64,0,2,3,9,5.mid,experiment,0
68,152,31922,76,64,0,2,3,9,5.mid,experiment,0
69,154,32468,74,64,0,2,3,9,5.mid,experiment,0
70,156,33014,72,64,0,2,3,9,5.mid,experiment,0
71,158,33607,84,64,0,2,3,9,5.mid,experiment,0
72,160,34280,84,64,0,2,3,9,5.mid,experiment,0
1,19,8260,79,64,0,2,3,10,13.mid,experiment,0
2,21,8565,78,64,0,2,3,10,13.mid,experiment,0
3,23,8796,79,64,0,2,3,10,13.mid,experiment,0
4,25,9140,76,64,0,2,3,10,13.mid,experiment,0
5,26,9339,72,64,0,2,3,10,13.mid,experiment,0
6,28,9449,67,64,0,2,3,10,13.mid,experiment,0
7,30,9694,67,64,0,2,3,10,13.mid,experiment,0
8,32,9996,67,64,0,2,3,10,13.mid,experiment,0
9,35,10580,79,64,0,2,3,10,13.mid,experiment,0
10,37,10861,78,64,0,2,3,10,13.mid,experiment,0
11,39,11119,79,64,0,2,3,10,13.mid,experiment,0
12,41,11347,76,64,0,2,3,10,13.mid,experiment,0
13,43,11689,72,64,0,2,3,10,13.mid,experiment,0
14,45,11931,76,64,0,2,3,10,13.mid,experiment,0
15,47,12184,79,64,0,2,3,10,13.mid,experiment,0
16,49,12501,84,64,0,2,3,10,13.mid,experiment,0
17,50,12706,83,64,0,2,3,10,13.mid,experiment,0
18,52,12814,81,64,0,2,3,10,13.mid,experiment,0
19,54,13073,81,64,0,2,3,10,13.mid,experiment,0
20,56,13303,81,64,0,2,3,10,13.mid,experiment,0
21,59,13781,83,64,0,2,3,10,13.mid,experiment,0
22,61,14083,81,64,0,2,3,10,13.mid,experiment,0
23,63,14332,84,64,0,2,3,10,13.mid,experiment,0
24,65,14599,81,64,0,2,3,10,13.mid,experiment,0
25,67,14881,78,64,0,2,3,10,13.mid,experiment,0
26,68,15048,79,64,0,2,3,10,13.mid,experiment,0
27,70,15458,79,64,0,2,3,10,13.mid,experiment,0
28,72,16165,79,64,0,2,3,10,13.mid,experiment,0
29,74,17082,77,64,0,2,3,10,13.mid,experiment,0
30,76,17372,77,64,0,2,3,10,13.mid,experiment,0
31,78,17627,76,64,0,2,3,10,13.mid,experiment,0
32,80,17919,76,64,0,2,3,10,13.mid,experiment,0
33,82,18412,74,64,0,2,3,10,13.mid,experiment,0
34,84,19586,79,64,0,2,3,10,13.mid,experiment,0
35,86,20164,77,64,0,2,3,10,13.mid,experiment,0
36,88,20528,76,64,0,2,3,10,13.mid,experiment,0
37,90,20771,76,64,0,2,3,10,13.mid,experiment,0
38,92,21038,76,64,0,2,3,10,13.mid,experiment,0
39,94,21366,76,64,0,2,3,10,13.mid,experiment,0
40,97,21990,81,64,0,2,3,10,13.mid,experiment,0
41,99,22195,77,64,0,2,3,10,13.mid,experiment,0
42,101,22418,76,64,0,2,3,10,13.mid,experiment,0
43,103,22676,74,64,0,2,3,10,13.mid,experiment,0
44,105,23018,76,64,0,2,3,10,13.mid,experiment,0
45,107,23273,79,64,0,2,3,10,13.mid,experiment,0
46,108,23462,74,64,0,2,3,10,13.mid,experiment,0
47,110,23705,71,64,0,2,3,10,13.mid,experiment,0
48,112,23784,72,64,0,2,3,10,13.mid,experiment,0
49,114,24042,72,64,0,2,3,10,13.mid,experiment,0
50,116,24300,74,64,0,2,3,10,13.mid,experiment,0
51,118,24561,74,64,0,2,3,10,13.mid,experiment,0
52,120,25285,76,64,0,2,3,10,13.mid,experiment,0
53,122,26124,65,64,0,2,3,10,13.mid,experiment,0
54,124,26418,65,64,0,2,3,10,13.mid,experiment,0
55,126,26652,64,64,0,2,3,10,13.mid,experiment,0
56,128,26934,64,64,0,2,3,10,13.mid,experiment,0
57,130,27595,62,64,0,2,3,10,13.mid,experiment,0
58,132,28382,67,64,0,2,3,10,13.mid,experiment,0
59,134,28656,67,64,0,2,3,10,13.mid,experiment,0
60,136,28946,71,64,0,2,3,10,13.mid,experiment,0
61,138,29216,71,64,0,2,3,10,13.mid,experiment,0
62,140,29482,72,64,0,2,3,10,13.mid,experiment,0
63,142,29759,72,64,0,2,3,10,13.mid,experiment,0
64,144,30004,73,64,0,2,3,10,13.mid,experiment,0
65,146,30275,73,64,0,2,3,10,13.mid,experiment,0
66,148,30704,74,64,0,2,3,10,13.mid,experiment,0
67,150,31250,77,64,0,2,3,10,13.mid,experiment,0
68,152,31750,76,64,0,2,3,10,13.mid,experiment,0
69,154,32286,74,64,0,2,3,10,13.mid,experiment,0
70,156,32871,72,64,0,2,3,10,13.mid,experiment,0
71,158,33466,84,64,0,2,3,10,13.mid,experiment,0
72,160,34225,84,64,0,2,3,10,13.mid,experiment,0
1,19,8225,79,64,0,2,3,11,15.mid,experiment,0
2,21,8523,78,64,0,2,3,11,15.mid,experiment,0
3,23,8795,79,64,0,2,3,11,15.mid,experiment,0
4,25,9084,76,64,0,2,3,11,15.mid,experiment,0
5,26,9296,72,64,0,2,3,11,15.mid,experiment,0
6,28,9381,67,64,0,2,3,11,15.mid,experiment,0
7,30,9642,67,64,0,2,3,11,15.mid,experiment,0
8,32,9932,67,64,0,2,3,11,15.mid,experiment,0
9,35,10536,79,64,0,2,3,11,15.mid,experiment,0
10,37,10829,78,64,0,2,3,11,15.mid,experiment,0
11,39,11088,79,64,0,2,3,11,15.mid,experiment,0
12,41,11340,76,64,0,2,3,11,15.mid,experiment,0
13,43,11710,72,64,0,2,3,11,15.mid,experiment,0
14,45,11939,76,64,0,2,3,11,15.mid,experiment,0
15,47,12185,79,64,0,2,3,11,15.mid,experiment,0
16,49,12506,84,64,0,2,3,11,15.mid,experiment,0
17,50,12700,83,64,0,2,3,11,15.mid,experiment,0
18,52,12800,81,64,0,2,3,11,15.mid,experiment,0
19,54,13045,81,64,0,2,3,11,15.mid,experiment,0
20,56,13309,81,64,0,2,3,11,15.mid,experiment,0
21,59,13791,83,64,0,2,3,11,15.mid,experiment,0
22,61,14097,81,64,0,2,3,11,15.mid,experiment,0
23,63,14402,84,64,0,2,3,11,15.mid,experiment,0
24,65,14656,81,64,0,2,3,11,15.mid,experiment,0
25,67,14920,78,64,0,2,3,11,15.mid,experiment,0
26,68,15098,79,64,0,2,3,11,15.mid,experiment,0
27,70,15502,79,64,0,2,3,11,15.mid,experiment,0
28,72,16186,79,64,0,2,3,11,15.mid,experiment,0
29,74,17139,77,64,0,2,3,11,15.mid,experiment,0
30,76,17416,77,64,0,2,3,11,15.mid,experiment,0
31,78,17670,76,64,0,2,3,11,15.mid,experiment,0
32,80,17959,76,64,0,2,3,11,15.mid,experiment,0
33,82,18458,74,64,0,2,3,11,15.mid,experiment,0
34,84,19715,79,64,0,2,3,11,15.mid,experiment,0
35,86,20299,77,64,0,2,3,11,15.mid,experiment,0
36,88,20681,76,64,0,2,3,11,15.mid,experiment,0
37,90,20958,76,64,0,2,3,11,15.mid,experiment,0
38,92,21202,76,64,0,2,3,11,15.mid,experiment,0
39,94,21520,76,64,0,2,3,11,15.mid,experiment,0
40,97,22099,81,64,0,2,3,11,15.mid,experiment,0
41,99,22320,77,64,0,2,3,11,15.mid,experiment,0
42,101,22574,76,64,0,2,3,11,15.mid,experiment,0
43,103,22848,74,64,0,2,3,11,15.mid,experiment,0
44,105,23143,76,64,0,2,3,11,15.mid,experiment,0
45,107,23424,79,64,0,2,3,11,15.mid,experiment,0
46,109,23629,74,64,0,2,3,11,15.mid,experiment,0
47,110,23855,71,64,0,2,3,11,15.mid,experiment,0
48,112,23946,72,64,0,2,3,11,15.mid,experiment,0
49,114,24207,72,64,0,2,3,11,15.mid,experiment,0
50,116,24435,74,64,0,2,3,11,15.mid,experiment,0
51,118,24689,74,64,0,2,3,11,15.mid,experiment,0
52,120,25214,76,64,0,2,3,11,15.mid,experiment,0
53,122,26364,65,64,0,2,3,11,15.mid,experiment,0
54,124,26625,65,64,0,2,3,11,15.mid,experiment,0
55,126,26879,64,64,0,2,3,11,15.mid,experiment,0
56,128,27185,64,64,0,2,3,11,15.mid,experiment,0
57,130,27721,62,64,0,2,3,11,15.mid,experiment,0
58,132,28712,67,64,0,2,3,11,15.mid,experiment,0
59,134,28976,67,64,0,2,3,11,15.mid,experiment,0
60,136,29239,71,64,0,2,3,11,15.mid,experiment,0
61,138,29520,71,64,0,2,3,11,15.mid,experiment,0
62,140,29789,72,64,0,2,3,11,15.mid,experiment,0
63,142,30048,72,64,0,2,3,11,15.mid,experiment,0
64,144,30312,73,64,0,2,3,11,15.mid,experiment,0
65,146,30592,73,64,0,2,3,11,15.mid,experiment,0
66,148,31019,74,64,0,2,3,11,15.mid,experiment,0
67,150,31558,77,64,0,2,3,11,15.mid,experiment,0
68,152,32102,76,64,0,2,3,11,15.mid,experiment,0
69,154,32640,74,64,0,2,3,11,15.mid,experiment,0
70,156,33203,72,64,0,2,3,11,15.mid,experiment,0
71,158,33790,84,64,0,2,3,11,15.mid,experiment,0
72,160,34560,84,64,0,2,3,11,15.mid,experiment,0
1,19,8254,79,64,0,2,3,12,16.mid,experiment,0
2,21,8563,78,64,0,2,3,12,16.mid,experiment,0
3,23,8796,79,64,0,2,3,12,16.mid,experiment,0
4,25,9103,76,64,0,2,3,12,16.mid,experiment,0
5,26,9309,72,64,0,2,3,12,16.mid,experiment,0
6,28,9380,67,64,0,2,3,12,16.mid,experiment,0
7,30,9655,67,64,0,2,3,12,16.mid,experiment,0
8,32,9912,67,64,0,2,3,12,16.mid,experiment,0
9,35,10509,79,64,0,2,3,12,16.mid,experiment,0
10,37,10790,78,64,0,2,3,12,16.mid,experiment,0
11,39,11031,79,64,0,2,3,12,16.mid,experiment,0
12,41,11281,76,64,0,2,3,12,16.mid,experiment,0
13,43,11558,72,64,0,2,3,12,16.mid,experiment,0
14,45,11836,76,64,0,2,3,12,16.mid,experiment,0
15,47,12080,79,64,0,2,3,12,16.mid,experiment,0
16,49,12392,84,64,0,2,3,12,16.mid,experiment,0
17,50,12581,83,64,0,2,3,12,16.mid,experiment,0
18,52,12675,81,64,0,2,3,12,16.mid,experiment,0
19,54,12909,81,64,0,2,3,12,16.mid,experiment,0
20,56,13161,81,64,0,2,3,12,16.mid,experiment,0
21,59,13680,83,64,0,2,3,12,16.mid,experiment,0
22,61,13953,81,64,0,2,3,12,16.mid,experiment,0
23,63,14251,84,64,0,2,3,12,16.mid,experiment,0
24,65,14472,81,64,0,2,3,12,16.mid,experiment,0
25,67,14758,78,64,0,2,3,12,16.mid,experiment,0
26,68,14930,79,64,0,2,3,12,16.mid,experiment,0
27,70,15345,79,64,0,2,3,12,16.mid,experiment,0
28,72,16023,79,64,0,2,3,12,16.mid,experiment,0
29,74,16961,77,64,0,2,3,12,16.mid,experiment,0
30,76,17247,77,64,0,2,3,12,16.mid,experiment,0
31,78,17485,76,64,0,2,3,12,16.mid,experiment,0
32,80,17764,76,64,0,2,3,12,16.mid,experiment,0
33,82,18263,74,64,0,2,3,12,16.mid,experiment,0
34,84,19368,79,64,0,2,3,12,16.mid,experiment,0
35,86,19914,77,64,0,2,3,12,16.mid,experiment,0
36,88,20304,76,64,0,2,3,12,16.mid,experiment,0
37,90,20578,76,64,0,2,3,12,16.mid,experiment,0
38,92,20842,76,64,0,2,3,12,16.mid,experiment,0
39,94,21118,76,64,0,2,3,12,16.mid,experiment,0
40,97,21771,81,64,0,2,3,12,16.mid,experiment,0
41,99,21968,77,64,0,2,3,12,16.mid,experiment,0
42,100,22200,76,64,0,2,3,12,16.mid,experiment,0
43,103,22468,74,64,0,2,3,12,16.mid,experiment,0
44,105,22796,76,64,0,2,3,12,16.mid,experiment,0
45,107,23089,79,64,0,2,3,12,16.mid,experiment,0
46,109,23257,74,64,0,2,3,12,16.mid,experiment,0
47,110,23493,71,64,0,2,3,12,16.mid,experiment,0
48,112,23582,72,64,0,2,3,12,16.mid,experiment,0
49,114,23827,72,64,0,2,3,12,16.mid,experiment,0
50,116,24089,74,64,0,2,3,12,16.mid,experiment,0
51,118,24359,74,64,0,2,3,12,16.mid,experiment,0
52,120,24812,76,64,0,2,3,12,16.mid,experiment,0
53,122,25929,65,64,0,2,3,12,16.mid,experiment,0
54,124,26203,65,64,0,2,3,12,16.mid,experiment,0
55,126,26442,64,64,0,2,3,12,16.mid,experiment,0
56,128,26737,64,64,0,2,3,12,16.mid,experiment,0
57,130,27315,62,64,0,2,3,12,16.mid,experiment,0
58,132,28257,67,64,0,2,3,12,16.mid,experiment,0
59,134,28556,67,64,0,2,3,12,16.mid,experiment,0
60,136,28807,71,64,0,2,3,12,16.mid,experiment,0
61,138,29091,71,64,0,2,3,12,16.mid,experiment,0
62,140,29327,72,64,0,2,3,12,16.mid,experiment,0
63,142,29592,72,64,0,2,3,12,16.mid,experiment,0
64,144,29837,73,64,0,2,3,12,16.mid,experiment,0
65,146,30118,73,64,0,2,3,12,16.mid,experiment,0
66,148,30578,74,64,0,2,3,12,16.mid,experiment,0
67,150,31106,77,64,0,2,3,12,16.mid,experiment,0
68,152,31669,76,64,0,2,3,12,16.mid,experiment,0
69,154,32170,74,64,0,2,3,12,16.mid,experiment,0
70,156,32734,72,64,0,2,3,12,16.mid,experiment,0
71,158,33314,84,64,0,2,3,12,16.mid,experiment,0
72,160,34070,84,64,0,2,3,12,16.mid,experiment,0
1,19,8206,79,64,0,2,3,13,2.mid,experiment,0
2,21,8505,78,64,0,2,3,13,2.mid,experiment,0
3,23,8783,79,64,0,2,3,13,2.mid,experiment,0
4,25,9074,76,64,0,2,3,13,2.mid,experiment,0
5,27,9285,72,64,0,2,3,13,2.mid,experiment,0
6,28,9378,67,64,0,2,3,13,2.mid,experiment,0
7,30,9630,67,64,0,2,3,13,2.mid,experiment,0
8,32,9928,67,64,0,2,3,13,2.mid,experiment,0
9,35,10495,79,64,0,2,3,13,2.mid,experiment,0
10,37,10826,78,64,0,2,3,13,2.mid,experiment,0
11,39,11113,79,64,0,2,3,13,2.mid,experiment,0
12,41,11357,76,64,0,2,3,13,2.mid,experiment,0
13,43,11707,72,64,0,2,3,13,2.mid,experiment,0
14,45,11983,76,64,0,2,3,13,2.mid,experiment,0
15,47,12221,79,64,0,2,3,13,2.mid,experiment,0
16,49,12573,84,64,0,2,3,13,2.mid,experiment,0
17,51,12812,83,64,0,2,3,13,2.mid,experiment,0
18,52,12899,81,64,0,2,3,13,2.mid,experiment,0
19,54,13134,81,64,0,2,3,13,2.mid,experiment,0
20,56,13414,81,64,0,2,3,13,2.mid,experiment,0
21,59,13930,83,64,0,2,3,13,2.mid,experiment,0
22,61,14213,81,64,0,2,3,13,2.mid,experiment,0
23,63,14516,84,64,0,2,3,13,2.mid,experiment,0
24,65,14769,81,64,0,2,3,13,2.mid,experiment,0
25,67,15042,78,64,0,2,3,13,2.mid,experiment,0
26,68,15222,79,64,0,2,3,13,2.mid,experiment,0
27,70,15625,79,64,0,2,3,13,2.mid,experiment,0
28,72,16338,79,64,0,2,3,13,2.mid,experiment,0
29,74,17267,77,64,0,2,3,13,2.mid,experiment,0
30,76,17547,77,64,0,2,3,13,2.mid,experiment,0
31,78,17806,76,64,0,2,3,13,2.mid,experiment,0
32,80,18095,76,64,0,2,3,13,2.mid,experiment,0
33,82,18557,74,64,0,2,3,13,2.mid,experiment,0
34,84,19829,79,64,0,2,3,13,2.mid,experiment,0
35,86,20408,77,64,0,2,3,13,2.mid,experiment,0
36,88,20861,76,64,0,2,3,13,2.mid,experiment,0
37,90,21116,76,64,0,2,3,13,2.mid,experiment,0
38,92,21382,76,64,0,2,3,13,2.mid,experiment,0
39,94,21718,76,64,0,2,3,13,2.mid,experiment,0
40,97,22358,81,64,0,2,3,13,2.mid,experiment,0
41,99,22568,77,64,0,2,3,13,2.mid,experiment,0
42,101,22797,76,64,0,2,3,13,2.mid,experiment,0
43,102,23058,74,64,0,2,3,13,2.mid,experiment,0
44,105,23377,76,64,0,2,3,13,2.mid,experiment,0
45,107,23660,79,64,0,2,3,13,2.mid,experiment,0
46,109,23884,74,64,0,2,3,13,2.mid,experiment,0
47,110,24041,71,64,0,2,3,13,2.mid,experiment,0
48,112,24222,72,64,0,2,3,13,2.mid,experiment,0
49,114,24453,72,64,0,2,3,13,2.mid,experiment,0
50,116,24711,74,64,0,2,3,13,2.mid,experiment,0
51,118,24983,74,64,0,2,3,13,2.mid,experiment,0
52,120,25611,76,64,0,2,3,13,2.mid,experiment,0
53,122,26582,65,64,0,2,3,13,2.mid,experiment,0
54,124,26876,65,64,0,2,3,13,2.mid,experiment,0
55,126,27105,64,64,0,2,3,13,2.mid,experiment,0
56,128,27409,64,64,0,2,3,13,2.mid,experiment,0
57,130,27895,62,64,0,2,3,13,2.mid,experiment,0
58,132,29028,67,64,0,2,3,13,2.mid,experiment,0
59,134,29317,67,64,0,2,3,13,2.mid,experiment,0
60,136,29549,71,64,0,2,3,13,2.mid,experiment,0
61,138,29812,71,64,0,2,3,13,2.mid,experiment,0
62,140,30097,72,64,0,2,3,13,2.mid,experiment,0
63,142,30363,72,64,0,2,3,13,2.mid,experiment,0
64,144,30623,73,64,0,2,3,13,2.mid,experiment,0
65,146,30917,73,64,0,2,3,13,2.mid,experiment,0
66,148,31334,74,64,0,2,3,13,2.mid,experiment,0
67,150,31925,77,64,0,2,3,13,2.mid,experiment,0
68,152,32500,76,64,0,2,3,13,2.mid,experiment,0
69,154,33044,74,64,0,2,3,13,2.mid,experiment,0
70,156,33659,72,64,0,2,3,13,2.mid,experiment,0
71,158,34284,84,64,0,2,3,13,2.mid,experiment,0
72,160,35082,84,64,0,2,3,13,2.mid,experiment,0
1,19,8172,79,64,0,2,3,14,10.mid,experiment,0
2,21,8479,78,64,0,2,3,14,10.mid,experiment,0
3,23,8734,79,64,0,2,3,14,10.mid,experiment,0
4,25,9046,76,64,0,2,3,14,10.mid,experiment,0
5,26,9269,72,64,0,2,3,14,10.mid,experiment,0
6,28,9346,67,64,0,2,3,14,10.mid,experiment,0
7,30,9616,67,64,0,2,3,14,10.mid,experiment,0
8,32,9924,67,64,0,2,3,14,10.mid,experiment,0
9,35,10475,79,64,0,2,3,14,10.mid,experiment,0
10,37,10771,78,64,0,2,3,14,10.mid,experiment,0
11,39,11033,79,64,0,2,3,14,10.mid,experiment,0
12,41,11297,76,64,0,2,3,14,10.mid,experiment,0
13,43,11628,72,64,0,2,3,14,10.mid,experiment,0
14,45,11895,76,64,0,2,3,14,10.mid,experiment,0
15,47,12155,79,64,0,2,3,14,10.mid,experiment,0
16,49,12488,84,64,0,2,3,14,10.mid,experiment,0
17,50,12682,83,64,0,2,3,14,10.mid,experiment,0
18,52,12767,81,64,0,2,3,14,10.mid,experiment,0
19,54,13029,81,64,0,2,3,14,10.mid,experiment,0
20,56,13306,81,64,0,2,3,14,10.mid,experiment,0
21,59,13831,83,64,0,2,3,14,10.mid,experiment,0
22,61,14135,81,64,0,2,3,14,10.mid,experiment,0
23,63,14422,84,64,0,2,3,14,10.mid,experiment,0
24,65,14655,81,64,0,2,3,14,10.mid,experiment,0
25,67,14956,78,64,0,2,3,14,10.mid,experiment,0
26,68,15097,79,64,0,2,3,14,10.mid,experiment,0
27,70,15497,79,64,0,2,3,14,10.mid,experiment,0
28,72,16182,79,64,0,2,3,14,10.mid,experiment,0
29,74,17045,77,64,0,2,3,14,10.mid,experiment,0
30,76,17345,77,64,0,2,3,14,10.mid,experiment,0
31,78,17605,76,64,0,2,3,14,10.mid,experiment,0
32,80,17890,76,64,0,2,3,14,10.mid,experiment,0
33,82,18634,74,64,0,2,3,14,10.mid,experiment,0
34,84,19592,79,64,0,2,3,14,10.mid,experiment,0
35,86,20173,77,64,0,2,3,14,10.mid,experiment,0
36,88,20550,76,64,0,2,3,14,10.mid,experiment,0
37,90,20828,76,64,0,2,3,14,10.mid,experiment,0
38,92,21088,76,64,0,2,3,14,10.mid,experiment,0
39,94,21393,76,64,0,2,3,14,10.mid,experiment,0
40,97,21996,81,64,0,2,3,14,10.mid,experiment,0
41,99,22222,77,64,0,2,3,14,10.mid,experiment,0
42,101,22463,76,64,0,2,3,14,10.mid,experiment,0
43,103,22757,74,64,0,2,3,14,10.mid,experiment,0
44,105,23061,76,64,0,2,3,14,10.mid,experiment,0
45,107,23369,79,64,0,2,3,14,10.mid,experiment,0
46,109,23582,74,64,0,2,3,14,10.mid,experiment,0
47,110,23822,71,64,0,2,3,14,10.mid,experiment,0
48,112,23884,72,64,0,2,3,14,10.mid,experiment,0
49,114,24151,72,64,0,2,3,14,10.mid,experiment,0
50,116,24411,74,64,0,2,3,14,10.mid,experiment,0
51,118,24687,74,64,0,2,3,14,10.mid,experiment,0
52,120,25359,76,64,0,2,3,14,10.mid,experiment,0
53,122,26206,65,64,0,2,3,14,10.mid,experiment,0
54,124,26479,65,64,0,2,3,14,10.mid,experiment,0
55,126,26720,64,64,0,2,3,14,10.mid,experiment,0
56,128,27004,64,64,0,2,3,14,10.mid,experiment,0
57,130,27627,62,64,0,2,3,14,10.mid,experiment,0
58,132,28487,67,64,0,2,3,14,10.mid,experiment,0
59,134,28782,67,64,0,2,3,14,10.mid,experiment,0
60,136,29035,71,64,0,2,3,14,10.mid,experiment,0
61,138,29304,71,64,0,2,3,14,10.mid,experiment,0
62,140,29598,72,64,0,2,3,14,10.mid,experiment,0
63,142,29893,72,64,0,2,3,14,10.mid,experiment,0
64,144,30144,73,64,0,2,3,14,10.mid,experiment,0
65,146,30422,73,64,0,2,3,14,10.mid,experiment,0
66,148,30869,74,64,0,2,3,14,10.mid,experiment,0
67,150,31423,77,64,0,2,3,14,10.mid,experiment,0
68,152,32001,76,64,0,2,3,14,10.mid,experiment,0
69,154,32539,74,64,0,2,3,14,10.mid,experiment,0
70,156,33134,72,64,0,2,3,14,10.mid,experiment,0
71,158,33738,84,64,0,2,3,14,10.mid,experiment,0
72,160,34481,84,64,0,2,3,14,10.mid,experiment,0
1,19,8222,79,64,0,2,3,15,8.mid,experiment,0
2,21,8546,78,64,0,2,3,15,8.mid,experiment,0
3,23,8801,79,64,0,2,3,15,8.mid,experiment,0
4,25,9144,76,64,0,2,3,15,8.mid,experiment,0
5,26,9355,72,64,0,2,3,15,8.mid,experiment,0
6,28,9469,67,64,0,2,3,15,8.mid,experiment,0
7,30,9700,67,64,0,2,3,15,8.mid,experiment,0
8,32,9992,67,64,0,2,3,15,8.mid,experiment,0
9,35,10566,79,64,0,2,3,15,8.mid,experiment,0
10,37,10883,78,64,0,2,3,15,8.mid,experiment,0
11,39,11137,79,64,0,2,3,15,8.mid,experiment,0
12,41,11385,76,64,0,2,3,15,8.mid,experiment,0
13,43,11714,72,64,0,2,3,15,8.mid,experiment,0
14,45,11965,76,64,0,2,3,15,8.mid,experiment,0
15,47,12235,79,64,0,2,3,15,8.mid,experiment,0
16,49,12569,84,64,0,2,3,15,8.mid,experiment,0
17,50,12783,83,64,0,2,3,15,8.mid,experiment,0
18,52,12883,81,64,0,2,3,15,8.mid,experiment,0
19,54,13144,81,64,0,2,3,15,8.mid,experiment,0
20,56,13404,81,64,0,2,3,15,8.mid,experiment,0
21,59,13904,83,64,0,2,3,15,8.mid,experiment,0
22,61,14198,81,64,0,2,3,15,8.mid,experiment,0
23,63,14494,84,64,0,2,3,15,8.mid,experiment,0
24,65,14733,81,64,0,2,3,15,8.mid,experiment,0
25,67,15036,78,64,0,2,3,15,8.mid,experiment,0
26,68,15200,79,64,0,2,3,15,8.mid,experiment,0
27,70,15585,79,64,0,2,3,15,8.mid,experiment,0
28,72,16300,79,64,0,2,3,15,8.mid,experiment,0
29,74,17169,77,64,0,2,3,15,8.mid,experiment,0
30,76,17485,77,64,0,2,3,15,8.mid,experiment,0
31,78,17731,76,64,0,2,3,15,8.mid,experiment,0
32,80,18023,76,64,0,2,3,15,8.mid,experiment,0
33,82,18619,74,64,0,2,3,15,8.mid,experiment,0
34,84,19662,79,64,0,2,3,15,8.mid,experiment,0
35,86,20251,77,64,0,2,3,15,8.mid,experiment,0
36,88,20629,76,64,0,2,3,15,8.mid,experiment,0
37,90,20920,76,64,0,2,3,15,8.mid,experiment,0
38,92,21174,76,64,0,2,3,15,8.mid,experiment,0
39,94,21495,76,64,0,2,3,15,8.mid,experiment,0
40,97,22082,81,64,0,2,3,15,8.mid,experiment,0
41,99,22296,77,64,0,2,3,15,8.mid,experiment,0
42,101,22552,76,64,0,2,3,15,8.mid,experiment,0
43,103,22822,74,64,0,2,3,15,8.mid,experiment,0
44,105,23141,76,64,0,2,3,15,8.mid,experiment,0
45,107,23405,79,64,0,2,3,15,8.mid,experiment,0
46,108,23614,74,64,0,2,3,15,8.mid,experiment,0
47,110,23858,71,64,0,2,3,15,8.mid,experiment,0
48,112,23936,72,64,0,2,3,15,8.mid,experiment,0
49,114,24205,72,64,0,2,3,15,8.mid,experiment,0
50,116,24470,74,64,0,2,3,15,8.mid,experiment,0
51,118,24720,74,64,0,2,3,15,8.mid,experiment,0
52,120,25431,76,64,0,2,3,15,8.mid,experiment,0
53,122,26237,65,64,0,2,3,15,8.mid,experiment,0
54,124,26558,65,64,0,2,3,15,8.mid,experiment,0
55,126,26804,64,64,0,2,3,15,8.mid,experiment,0
56,128,27100,64,64,0,2,3,15,8.mid,experiment,0
57,130,27783,62,64,0,2,3,15,8.mid,experiment,0
58,132,28630,67,64,0,2,3,15,8.mid,experiment,0
59,134,28929,67,64,0,2,3,15,8.mid,experiment,0
60,136,29171,71,64,0,2,3,15,8.mid,experiment,0
61,138,29435,71,64,0,2,3,15,8.mid,experiment,0
62,140,29712,72,64,0,2,3,15,8.mid,experiment,0
63,142,29994,72,64,0,2,3,15,8.mid,experiment,0
64,144,30264,73,64,0,2,3,15,8.mid,experiment,0
65,146,30552,73,64,0,2,3,15,8.mid,experiment,0
66,148,31022,74,64,0,2,3,15,8.mid,experiment,0
67,150,31591,77,64,0,2,3,15,8.mid,experiment,0
68,152,32154,76,64,0,2,3,15,8.mid,experiment,0
69,154,32722,74,64,0,2,3,15,8.mid,experiment,0
70,156,33326,72,64,0,2,3,15,8.mid,experiment,0
71,158,33947,84,64,0,2,3,15,8.mid,experiment,0
72,160,34725,84,64,0,2,3,15,8.mid,experiment,0
1,19,8195,79,64,0,2,3,16,12.mid,experiment,0
2,21,8503,78,64,0,2,3,16,12.mid,experiment,0
3,23,8789,79,64,0,2,3,16,12.mid,experiment,0
4,25,9060,76,64,0,2,3,16,12.mid,experiment,0
5,26,9287,72,64,0,2,3,16,12.mid,experiment,0
6,28,9369,67,64,0,2,3,16,12.mid,experiment,0
7,30,9631,67,64,0,2,3,16,12.mid,experiment,0
8,32,9906,67,64,0,2,3,16,12.mid,experiment,0
9,35,10483,79,64,0,2,3,16,12.mid,experiment,0
10,37,10791,78,64,0,2,3,16,12.mid,experiment,0
11,39,11094,79,64,0,2,3,16,12.mid,experiment,0
12,41,11270,76,64,0,2,3,16,12.mid,experiment,0
13,43,11662,72,64,0,2,3,16,12.mid,experiment,0
14,45,11867,76,64,0,2,3,16,12.mid,experiment,0
15,47,12108,79,64,0,2,3,16,12.mid,experiment,0
16,49,12502,84,64,0,2,3,16,12.mid,experiment,0
17,51,12726,83,64,0,2,3,16,12.mid,experiment,0
18,52,12766,81,64,0,2,3,16,12.mid,experiment,0
19,54,13010,81,64,0,2,3,16,12.mid,experiment,0
20,56,13286,81,64,0,2,3,16,12.mid,experiment,0
21,59,13753,83,64,0,2,3,16,12.mid,experiment,0
22,61,14033,81,64,0,2,3,16,12.mid,experiment,0
23,63,14315,84,64,0,2,3,16,12.mid,experiment,0
24,64,14564,81,64,0,2,3,16,12.mid,experiment,0
25,67,14862,78,64,0,2,3,16,12.mid,experiment,0
26,68,14940,79,64,0,2,3,16,12.mid,experiment,0
27,70,15322,79,64,0,2,3,16,12.mid,experiment,0
28,72,16068,79,64,0,2,3,16,12.mid,experiment,0
29,74,17057,77,64,0,2,3,16,12.mid,experiment,0
30,76,17329,77,64,0,2,3,16,12.mid,experiment,0
31,78,17602,76,64,0,2,3,16,12.mid,experiment,0
32,80,17868,76,64,0,2,3,16,12.mid,experiment,0
33,82,18367,74,64,0,2,3,16,12.mid,experiment,0
34,84,19542,79,64,0,2,3,16,12.mid,experiment,0
35,86,20127,77,64,0,2,3,16,12.mid,experiment,0
36,88,20520,76,64,0,2,3,16,12.mid,experiment,0
37,90,20796,76,64,0,2,3,16,12.mid,experiment,0
38,92,21080,76,64,0,2,3,16,12.mid,experiment,0
39,94,21370,76,64,0,2,3,16,12.mid,experiment,0
40,97,21932,81,64,0,2,3,16,12.mid,experiment,0
41,99,22157,77,64,0,2,3,16,12.mid,experiment,0
42,101,22412,76,64,0,2,3,16,12.mid,experiment,0
43,103,22664,74,64,0,2,3,16,12.mid,experiment,0
44,105,22994,76,64,0,2,3,16,12.mid,experiment,0
45,107,23268,79,64,0,2,3,16,12.mid,experiment,0
46,109,23487,74,64,0,2,3,16,12.mid,experiment,0
47,110,23734,71,64,0,2,3,16,12.mid,experiment,0
48,112,23804,72,64,0,2,3,16,12.mid,experiment,0
49,114,24054,72,64,0,2,3,16,12.mid,experiment,0
50,116,24324,74,64,0,2,3,16,12.mid,experiment,0
51,118,24591,74,64,0,2,3,16,12.mid,experiment,0
52,120,25195,76,64,0,2,3,16,12.mid,experiment,0
53,122,26265,65,64,0,2,3,16,12.mid,experiment,0
54,124,26571,65,64,0,2,3,16,12.mid,experiment,0
55,126,26799,64,64,0,2,3,16,12.mid,experiment,0
56,128,27098,64,64,0,2,3,16,12.mid,experiment,0
57,130,27868,62,64,0,2,3,16,12.mid,experiment,0
58,132,28685,67,64,0,2,3,16,12.mid,experiment,0
59,134,28975,67,64,0,2,3,16,12.mid,experiment,0
60,136,29224,71,64,0,2,3,16,12.mid,experiment,0
61,138,29501,71,64,0,2,3,16,12.mid,experiment,0
62,140,29784,72,64,0,2,3,16,12.mid,experiment,0
63,142,30059,72,64,0,2,3,16,12.mid,experiment,0
64,144,30306,73,64,0,2,3,16,12.mid,experiment,0
65,146,30590,73,64,0,2,3,16,12.mid,experiment,0
66,148,31013,74,64,0,2,3,16,12.mid,experiment,0
67,150,31570,77,64,0,2,3,16,12.mid,experiment,0
68,152,32138,76,64,0,2,3,16,12.mid,experiment,0
69,154,32668,74,64,0,2,3,16,12.mid,experiment,0
70,156,33294,72,64,0,2,3,16,12.mid,experiment,0
71,158,33908,84,64,0,2,3,16,12.mid,experiment,0
72,160,34751,84,64,0,2,3,16,12.mid,experiment,0
1,19,8194,79,64,0,2,4,2,13.mid,experiment,0
2,21,8430,78,64,0,2,4,2,13.mid,experiment,0
3,23,8763,79,64,0,2,4,2,13.mid,experiment,0
4,25,8984,76,64,0,2,4,2,13.mid,experiment,0
5,26,9023,72,64,0,2,4,2,13.mid,experiment,0
6,28,9279,67,64,0,2,4,2,13.mid,experiment,0
7,30,9596,67,64,0,2,4,2,13.mid,experiment,0
8,32,9855,67,64,0,2,4,2,13.mid,experiment,0
9,35,10396,79,64,0,2,4,2,13.mid,experiment,0
10,37,10685,78,64,0,2,4,2,13.mid,experiment,0
11,39,11125,79,64,0,2,4,2,13.mid,experiment,0
12,41,11175,76,64,0,2,4,2,13.mid,experiment,0
13,43,11497,72,64,0,2,4,2,13.mid,experiment,0
14,45,11735,76,64,0,2,4,2,13.mid,experiment,0
15,47,11951,79,64,0,2,4,2,13.mid,experiment,0
16,49,12330,84,64,0,2,4,2,13.mid,experiment,0
17,50,12416,83,64,0,2,4,2,13.mid,experiment,0
18,52,12552,81,64,0,2,4,2,13.mid,experiment,0
19,54,12814,81,64,0,2,4,2,13.mid,experiment,0
20,56,13041,81,64,0,2,4,2,13.mid,experiment,0
21,59,13633,83,64,0,2,4,2,13.mid,experiment,0
22,61,13886,81,64,0,2,4,2,13.mid,experiment,0
23,63,14221,84,64,0,2,4,2,13.mid,experiment,0
24,65,14452,81,64,0,2,4,2,13.mid,experiment,0
25,67,14692,78,64,0,2,4,2,13.mid,experiment,0
26,68,14734,79,64,0,2,4,2,13.mid,experiment,0
27,70,15006,79,64,0,2,4,2,13.mid,experiment,0
28,72,15885,79,64,0,2,4,2,13.mid,experiment,0
29,74,16865,77,64,0,2,4,2,13.mid,experiment,0
30,76,17128,77,64,0,2,4,2,13.mid,experiment,0
31,78,17442,76,64,0,2,4,2,13.mid,experiment,0
32,80,17696,76,64,0,2,4,2,13.mid,experiment,0
33,82,18087,74,64,0,2,4,2,13.mid,experiment,0
34,84,19354,79,64,0,2,4,2,13.mid,experiment,0
35,86,19879,77,64,0,2,4,2,13.mid,experiment,0
36,88,20366,76,64,0,2,4,2,13.mid,experiment,0
37,90,20643,76,64,0,2,4,2,13.mid,experiment,0
38,92,20935,76,64,0,2,4,2,13.mid,experiment,0
39,94,21229,76,64,0,2,4,2,13.mid,experiment,0
40,97,21892,81,64,0,2,4,2,13.mid,experiment,0
41,99,22079,77,64,0,2,4,2,13.mid,experiment,0
42,101,22288,76,64,0,2,4,2,13.mid,experiment,0
43,103,22630,74,64,0,2,4,2,13.mid,experiment,0
44,105,22869,76,64,0,2,4,2,13.mid,experiment,0
45,107,23199,79,64,0,2,4,2,13.mid,experiment,0
46,109,23358,74,64,0,2,4,2,13.mid,experiment,0
47,110,23409,71,64,0,2,4,2,13.mid,experiment,0
48,112,23661,72,64,0,2,4,2,13.mid,experiment,0
49,114,23910,72,64,0,2,4,2,13.mid,experiment,0
50,116,24218,74,64,0,2,4,2,13.mid,experiment,0
51,118,24457,74,64,0,2,4,2,13.mid,experiment,0
52,120,25017,76,64,0,2,4,2,13.mid,experiment,0
53,122,25807,65,64,0,2,4,2,13.mid,experiment,0
54,124,26104,65,64,0,2,4,2,13.mid,experiment,0
55,126,26412,64,64,0,2,4,2,13.mid,experiment,0
56,128,26683,64,64,0,2,4,2,13.mid,experiment,0
57,130,27363,62,64,0,2,4,2,13.mid,experiment,0
58,132,28372,67,64,0,2,4,2,13.mid,experiment,0
59,134,28607,67,64,0,2,4,2,13.mid,experiment,0
60,136,28894,71,64,0,2,4,2,13.mid,experiment,0
61,138,29172,71,64,0,2,4,2,13.mid,experiment,0
62,140,29414,72,64,0,2,4,2,13.mid,experiment,0
63,142,29661,72,64,0,2,4,2,13.mid,experiment,0
64,144,29960,73,64,0,2,4,2,13.mid,experiment,0
65,146,30245,73,64,0,2,4,2,13.mid,experiment,0
66,149,31243,74,64,0,2,4,2,13.mid,experiment,0
67,151,31729,77,64,0,2,4,2,13.mid,experiment,0
68,153,32311,76,64,0,2,4,2,13.mid,experiment,0
69,155,32861,74,64,0,2,4,2,13.mid,experiment,0
70,157,33508,72,64,0,2,4,2,13.mid,experiment,0
71,158,33710,84,64,0,2,4,2,13.mid,experiment,0
72,160,34813,84,64,0,2,4,2,13.mid,experiment,0
1,19,8204,79,64,0,2,4,3,4.mid,experiment,0
2,21,8467,78,64,0,2,4,3,4.mid,experiment,0
3,23,8732,79,64,0,2,4,3,4.mid,experiment,0
4,25,9118,76,64,0,2,4,3,4.mid,experiment,0
5,27,9264,72,64,0,2,4,3,4.mid,experiment,0
6,28,9305,67,64,0,2,4,3,4.mid,experiment,0
7,30,9624,67,64,0,2,4,3,4.mid,experiment,0
8,32,9892,67,64,0,2,4,3,4.mid,experiment,0
9,35,10437,79,64,0,2,4,3,4.mid,experiment,0
10,37,10765,78,64,0,2,4,3,4.mid,experiment,0
11,39,11003,79,64,0,2,4,3,4.mid,experiment,0
12,41,11246,76,64,0,2,4,3,4.mid,experiment,0
13,43,11580,72,64,0,2,4,3,4.mid,experiment,0
14,45,11809,76,64,0,2,4,3,4.mid,experiment,0
15,47,12007,79,64,0,2,4,3,4.mid,experiment,0
16,49,12351,84,64,0,2,4,3,4.mid,experiment,0
17,50,12439,83,64,0,2,4,3,4.mid,experiment,0
18,52,12601,81,64,0,2,4,3,4.mid,experiment,0
19,54,12854,81,64,0,2,4,3,4.mid,experiment,0
20,56,13106,81,64,0,2,4,3,4.mid,experiment,0
21,59,13646,83,64,0,2,4,3,4.mid,experiment,0
22,61,13905,81,64,0,2,4,3,4.mid,experiment,0
23,63,14189,84,64,0,2,4,3,4.mid,experiment,0
24,65,14447,81,64,0,2,4,3,4.mid,experiment,0
25,67,14669,78,64,0,2,4,3,4.mid,experiment,0
26,68,14679,79,64,0,2,4,3,4.mid,experiment,0
27,70,14965,79,64,0,2,4,3,4.mid,experiment,0
28,72,15983,79,64,0,2,4,3,4.mid,experiment,0
29,74,16494,77,64,0,2,4,3,4.mid,experiment,0
30,76,16748,77,64,0,2,4,3,4.mid,experiment,0
31,78,17028,76,64,0,2,4,3,4.mid,experiment,0
32,80,17297,76,64,0,2,4,3,4.mid,experiment,0
33,82,17955,74,64,0,2,4,3,4.mid,experiment,0
34,84,18893,79,64,0,2,4,3,4.mid,experiment,0
35,86,19416,77,64,0,2,4,3,4.mid,experiment,0
36,88,19842,76,64,0,2,4,3,4.mid,experiment,0
37,90,20111,76,64,0,2,4,3,4.mid,experiment,0
38,92,20373,76,64,0,2,4,3,4.mid,experiment,0
39,94,20635,76,64,0,2,4,3,4.mid,experiment,0
40,98,21613,81,64,0,2,4,3,4.mid,experiment,0
41,99,21649,77,64,0,2,4,3,4.mid,experiment,0
42,101,21790,76,64,0,2,4,3,4.mid,experiment,0
43,103,22123,74,64,0,2,4,3,4.mid,experiment,0
44,105,22345,76,64,0,2,4,3,4.mid,experiment,0
45,107,22732,79,64,0,2,4,3,4.mid,experiment,0
46,109,22806,74,64,0,2,4,3,4.mid,experiment,0
47,110,22842,71,64,0,2,4,3,4.mid,experiment,0
48,112,23101,72,64,0,2,4,3,4.mid,experiment,0
49,114,23345,72,64,0,2,4,3,4.mid,experiment,0
50,116,23622,74,64,0,2,4,3,4.mid,experiment,0
51,118,23883,74,64,0,2,4,3,4.mid,experiment,0
52,120,24793,76,64,0,2,4,3,4.mid,experiment,0
53,122,25326,65,64,0,2,4,3,4.mid,experiment,0
54,124,25575,65,64,0,2,4,3,4.mid,experiment,0
55,126,25870,64,64,0,2,4,3,4.mid,experiment,0
56,128,26112,64,64,0,2,4,3,4.mid,experiment,0
57,130,27017,62,64,0,2,4,3,4.mid,experiment,0
58,132,27573,67,64,0,2,4,3,4.mid,experiment,0
59,134,27830,67,64,0,2,4,3,4.mid,experiment,0
60,136,28116,71,64,0,2,4,3,4.mid,experiment,0
61,138,28365,71,64,0,2,4,3,4.mid,experiment,0
62,140,28611,72,64,0,2,4,3,4.mid,experiment,0
63,142,28867,72,64,0,2,4,3,4.mid,experiment,0
64,144,29117,73,64,0,2,4,3,4.mid,experiment,0
65,146,29371,73,64,0,2,4,3,4.mid,experiment,0
66,148,30035,74,64,0,2,4,3,4.mid,experiment,0
67,150,30633,77,64,0,2,4,3,4.mid,experiment,0
68,152,31180,76,64,0,2,4,3,4.mid,experiment,0
69,154,31717,74,64,0,2,4,3,4.mid,experiment,0
70,156,32247,72,64,0,2,4,3,4.mid,experiment,0
71,158,32656,84,64,0,2,4,3,4.mid,experiment,0
72,160,33717,84,64,0,2,4,3,4.mid,experiment,0
1,19,8168,79,64,0,2,4,6,16.mid,experiment,0
2,21,8446,78,64,0,2,4,6,16.mid,experiment,0
3,23,8763,79,64,0,2,4,6,16.mid,experiment,0
4,25,9054,76,64,0,2,4,6,16.mid,experiment,0
5,26,9138,72,64,0,2,4,6,16.mid,experiment,0
6,28,9340,67,64,0,2,4,6,16.mid,experiment,0
7,30,9561,67,64,0,2,4,6,16.mid,experiment,0
8,32,9836,67,64,0,2,4,6,16.mid,experiment,0
9,35,10422,79,64,0,2,4,6,16.mid,experiment,0
10,37,10690,78,64,0,2,4,6,16.mid,experiment,0
11,39,10922,79,64,0,2,4,6,16.mid,experiment,0
12,41,11207,76,64,0,2,4,6,16.mid,experiment,0
13,43,11593,72,64,0,2,4,6,16.mid,experiment,0
14,45,11762,76,64,0,2,4,6,16.mid,experiment,0
15,47,11990,79,64,0,2,4,6,16.mid,experiment,0
16,49,12352,84,64,0,2,4,6,16.mid,experiment,0
17,50,12468,83,64,0,2,4,6,16.mid,experiment,0
18,52,12584,81,64,0,2,4,6,16.mid,experiment,0
19,54,12844,81,64,0,2,4,6,16.mid,experiment,0
20,56,13088,81,64,0,2,4,6,16.mid,experiment,0
21,59,13724,83,64,0,2,4,6,16.mid,experiment,0
22,61,13946,81,64,0,2,4,6,16.mid,experiment,0
23,63,14256,84,64,0,2,4,6,16.mid,experiment,0
24,65,14512,81,64,0,2,4,6,16.mid,experiment,0
25,67,14781,78,64,0,2,4,6,16.mid,experiment,0
26,68,14798,79,64,0,2,4,6,16.mid,experiment,0
27,70,15296,79,64,0,2,4,6,16.mid,experiment,0
28,72,16269,79,64,0,2,4,6,16.mid,experiment,0
29,74,16768,77,64,0,2,4,6,16.mid,experiment,0
30,76,17064,77,64,0,2,4,6,16.mid,experiment,0
31,78,17317,76,64,0,2,4,6,16.mid,experiment,0
32,80,17585,76,64,0,2,4,6,16.mid,experiment,0
33,82,18167,74,64,0,2,4,6,16.mid,experiment,0
34,84,19090,79,64,0,2,4,6,16.mid,experiment,0
35,86,19643,77,64,0,2,4,6,16.mid,experiment,0
36,88,20094,76,64,0,2,4,6,16.mid,experiment,0
37,90,20356,76,64,0,2,4,6,16.mid,experiment,0
38,92,20650,76,64,0,2,4,6,16.mid,experiment,0
39,94,20926,76,64,0,2,4,6,16.mid,experiment,0
40,97,21659,81,64,0,2,4,6,16.mid,experiment,0
41,99,21817,77,64,0,2,4,6,16.mid,experiment,0
42,101,22063,76,64,0,2,4,6,16.mid,experiment,0
43,103,22414,74,64,0,2,4,6,16.mid,experiment,0
44,105,22627,76,64,0,2,4,6,16.mid,experiment,0
45,107,22961,79,64,0,2,4,6,16.mid,experiment,0
46,109,23146,74,64,0,2,4,6,16.mid,experiment,0
47,110,23178,71,64,0,2,4,6,16.mid,experiment,0
48,112,23435,72,64,0,2,4,6,16.mid,experiment,0
49,114,23695,72,64,0,2,4,6,16.mid,experiment,0
50,116,23980,74,64,0,2,4,6,16.mid,experiment,0
51,118,24248,74,64,0,2,4,6,16.mid,experiment,0
52,120,24995,76,64,0,2,4,6,16.mid,experiment,0
53,122,25694,65,64,0,2,4,6,16.mid,experiment,0
54,124,25954,65,64,0,2,4,6,16.mid,experiment,0
55,126,26238,64,64,0,2,4,6,16.mid,experiment,0
56,128,26512,64,64,0,2,4,6,16.mid,experiment,0
57,130,27438,62,64,0,2,4,6,16.mid,experiment,0
58,132,28018,67,64,0,2,4,6,16.mid,experiment,0
59,134,28285,67,64,0,2,4,6,16.mid,experiment,0
60,136,28614,71,64,0,2,4,6,16.mid,experiment,0
61,138,28854,71,64,0,2,4,6,16.mid,experiment,0
62,140,29118,72,64,0,2,4,6,16.mid,experiment,0
63,142,29390,72,64,0,2,4,6,16.mid,experiment,0
64,144,29690,73,64,0,2,4,6,16.mid,experiment,0
65,146,29907,73,64,0,2,4,6,16.mid,experiment,0
66,149,30912,74,64,0,2,4,6,16.mid,experiment,0
67,151,31370,77,64,0,2,4,6,16.mid,experiment,0
68,153,31882,76,64,0,2,4,6,16.mid,experiment,0
69,155,32435,74,64,0,2,4,6,16.mid,experiment,0
70,157,32992,72,64,0,2,4,6,16.mid,experiment,0
71,158,33466,84,64,0,2,4,6,16.mid,experiment,0
72,160,34602,84,64,0,2,4,6,16.mid,experiment,0
1,19,8147,79,64,0,2,4,7,10.mid,experiment,0
2,21,8416,78,64,0,2,4,7,10.mid,experiment,0
3,23,8667,79,64,0,2,4,7,10.mid,experiment,0
4,25,9044,76,64,0,2,4,7,10.mid,experiment,0
5,26,9161,72,64,0,2,4,7,10.mid,experiment,0
6,28,9305,67,64,0,2,4,7,10.mid,experiment,0
7,30,9574,67,64,0,2,4,7,10.mid,experiment,0
8,32,9872,67,64,0,2,4,7,10.mid,experiment,0
9,35,10421,79,64,0,2,4,7,10.mid,experiment,0
10,37,10727,78,64,0,2,4,7,10.mid,experiment,0
11,39,10924,79,64,0,2,4,7,10.mid,experiment,0
12,41,11196,76,64,0,2,4,7,10.mid,experiment,0
13,43,11565,72,64,0,2,4,7,10.mid,experiment,0
14,45,11787,76,64,0,2,4,7,10.mid,experiment,0
15,47,12002,79,64,0,2,4,7,10.mid,experiment,0
16,49,12354,84,64,0,2,4,7,10.mid,experiment,0
17,50,12529,83,64,0,2,4,7,10.mid,experiment,0
18,52,12607,81,64,0,2,4,7,10.mid,experiment,0
19,54,12859,81,64,0,2,4,7,10.mid,experiment,0
20,56,13120,81,64,0,2,4,7,10.mid,experiment,0
21,59,13758,83,64,0,2,4,7,10.mid,experiment,0
22,61,13977,81,64,0,2,4,7,10.mid,experiment,0
23,63,14280,84,64,0,2,4,7,10.mid,experiment,0
24,65,14520,81,64,0,2,4,7,10.mid,experiment,0
25,67,14778,78,64,0,2,4,7,10.mid,experiment,0
26,68,14819,79,64,0,2,4,7,10.mid,experiment,0
27,70,15248,79,64,0,2,4,7,10.mid,experiment,0
28,72,16209,79,64,0,2,4,7,10.mid,experiment,0
29,74,16795,77,64,0,2,4,7,10.mid,experiment,0
30,76,17067,77,64,0,2,4,7,10.mid,experiment,0
31,78,17366,76,64,0,2,4,7,10.mid,experiment,0
32,80,17659,76,64,0,2,4,7,10.mid,experiment,0
33,82,18358,74,64,0,2,4,7,10.mid,experiment,0
34,84,19306,79,64,0,2,4,7,10.mid,experiment,0
35,86,19864,77,64,0,2,4,7,10.mid,experiment,0
36,88,20303,76,64,0,2,4,7,10.mid,experiment,0
37,90,20558,76,64,0,2,4,7,10.mid,experiment,0
38,92,20861,76,64,0,2,4,7,10.mid,experiment,0
39,94,21138,76,64,0,2,4,7,10.mid,experiment,0
40,97,21818,81,64,0,2,4,7,10.mid,experiment,0
41,99,22036,77,64,0,2,4,7,10.mid,experiment,0
42,101,22243,76,64,0,2,4,7,10.mid,experiment,0
43,103,22557,74,64,0,2,4,7,10.mid,experiment,0
44,105,22862,76,64,0,2,4,7,10.mid,experiment,0
45,107,23192,79,64,0,2,4,7,10.mid,experiment,0
46,109,23354,74,64,0,2,4,7,10.mid,experiment,0
47,110,23415,71,64,0,2,4,7,10.mid,experiment,0
48,112,23629,72,64,0,2,4,7,10.mid,experiment,0
49,114,23898,72,64,0,2,4,7,10.mid,experiment,0
50,116,24162,74,64,0,2,4,7,10.mid,experiment,0
51,118,24451,74,64,0,2,4,7,10.mid,experiment,0
52,120,25323,76,64,0,2,4,7,10.mid,experiment,0
53,122,25906,65,64,0,2,4,7,10.mid,experiment,0
54,124,26193,65,64,0,2,4,7,10.mid,experiment,0
55,126,26477,64,64,0,2,4,7,10.mid,experiment,0
56,128,26752,64,64,0,2,4,7,10.mid,experiment,0
57,130,27579,62,64,0,2,4,7,10.mid,experiment,0
58,132,28114,67,64,0,2,4,7,10.mid,experiment,0
59,134,28419,67,64,0,2,4,7,10.mid,experiment,0
60,136,28698,71,64,0,2,4,7,10.mid,experiment,0
61,138,28976,71,64,0,2,4,7,10.mid,experiment,0
62,140,29260,72,64,0,2,4,7,10.mid,experiment,0
63,142,29532,72,64,0,2,4,7,10.mid,experiment,0
64,144,29801,73,64,0,2,4,7,10.mid,experiment,0
65,146,30054,73,64,0,2,4,7,10.mid,experiment,0
66,148,30716,74,64,0,2,4,7,10.mid,experiment,0
67,150,31262,77,64,0,2,4,7,10.mid,experiment,0
68,152,31831,76,64,0,2,4,7,10.mid,experiment,0
69,154,32388,74,64,0,2,4,7,10.mid,experiment,0
70,156,32953,72,64,0,2,4,7,10.mid,experiment,0
71,158,33545,84,64,0,2,4,7,10.mid,experiment,0
72,160,34402,84,64,0,2,4,7,10.mid,experiment,0
1,19,8139,79,64,0,2,4,10,1.mid,experiment,0
2,21,8407,78,64,0,2,4,10,1.mid,experiment,0
3,23,8679,79,64,0,2,4,10,1.mid,experiment,0
4,25,9026,76,64,0,2,4,10,1.mid,experiment,0
5,26,9119,72,64,0,2,4,10,1.mid,experiment,0
6,28,9299,67,64,0,2,4,10,1.mid,experiment,0
7,30,9577,67,64,0,2,4,10,1.mid,experiment,0
8,32,9916,67,64,0,2,4,10,1.mid,experiment,0
9,35,10403,79,64,0,2,4,10,1.mid,experiment,0
10,37,10707,78,64,0,2,4,10,1.mid,experiment,0
11,39,10926,79,64,0,2,4,10,1.mid,experiment,0
12,41,11199,76,64,0,2,4,10,1.mid,experiment,0
13,43,11551,72,64,0,2,4,10,1.mid,experiment,0
14,45,11771,76,64,0,2,4,10,1.mid,experiment,0
15,47,12026,79,64,0,2,4,10,1.mid,experiment,0
16,49,12457,84,64,0,2,4,10,1.mid,experiment,0
17,50,12525,83,64,0,2,4,10,1.mid,experiment,0
18,52,12649,81,64,0,2,4,10,1.mid,experiment,0
19,54,12916,81,64,0,2,4,10,1.mid,experiment,0
20,56,13173,81,64,0,2,4,10,1.mid,experiment,0
21,59,13753,83,64,0,2,4,10,1.mid,experiment,0
22,61,14008,81,64,0,2,4,10,1.mid,experiment,0
23,63,14325,84,64,0,2,4,10,1.mid,experiment,0
24,65,14596,81,64,0,2,4,10,1.mid,experiment,0
25,67,14906,78,64,0,2,4,10,1.mid,experiment,0
26,68,15008,79,64,0,2,4,10,1.mid,experiment,0
27,70,15329,79,64,0,2,4,10,1.mid,experiment,0
28,72,16356,79,64,0,2,4,10,1.mid,experiment,0
29,74,16980,77,64,0,2,4,10,1.mid,experiment,0
30,76,17233,77,64,0,2,4,10,1.mid,experiment,0
31,78,17529,76,64,0,2,4,10,1.mid,experiment,0
32,80,17835,76,64,0,2,4,10,1.mid,experiment,0
33,82,18670,74,64,0,2,4,10,1.mid,experiment,0
34,84,19454,79,64,0,2,4,10,1.mid,experiment,0
35,86,19970,77,64,0,2,4,10,1.mid,experiment,0
36,88,20382,76,64,0,2,4,10,1.mid,experiment,0
37,90,20655,76,64,0,2,4,10,1.mid,experiment,0
38,92,20944,76,64,0,2,4,10,1.mid,experiment,0
39,94,21211,76,64,0,2,4,10,1.mid,experiment,0
40,97,21909,81,64,0,2,4,10,1.mid,experiment,0
41,99,22171,77,64,0,2,4,10,1.mid,experiment,0
42,101,22392,76,64,0,2,4,10,1.mid,experiment,0
43,103,22711,74,64,0,2,4,10,1.mid,experiment,0
44,105,22970,76,64,0,2,4,10,1.mid,experiment,0
45,107,23294,79,64,0,2,4,10,1.mid,experiment,0
46,109,23507,74,64,0,2,4,10,1.mid,experiment,0
47,110,23546,71,64,0,2,4,10,1.mid,experiment,0
48,112,23814,72,64,0,2,4,10,1.mid,experiment,0
49,114,24066,72,64,0,2,4,10,1.mid,experiment,0
50,116,24361,74,64,0,2,4,10,1.mid,experiment,0
51,118,24617,74,64,0,2,4,10,1.mid,experiment,0
52,120,25441,76,64,0,2,4,10,1.mid,experiment,0
53,122,25972,65,64,0,2,4,10,1.mid,experiment,0
54,124,26245,65,64,0,2,4,10,1.mid,experiment,0
55,126,26535,64,64,0,2,4,10,1.mid,experiment,0
56,128,26813,64,64,0,2,4,10,1.mid,experiment,0
57,130,27680,62,64,0,2,4,10,1.mid,experiment,0
58,132,28229,67,64,0,2,4,10,1.mid,experiment,0
59,134,28497,67,64,0,2,4,10,1.mid,experiment,0
60,136,28786,71,64,0,2,4,10,1.mid,experiment,0
61,138,29027,71,64,0,2,4,10,1.mid,experiment,0
62,140,29317,72,64,0,2,4,10,1.mid,experiment,0
63,142,29602,72,64,0,2,4,10,1.mid,experiment,0
64,144,29860,73,64,0,2,4,10,1.mid,experiment,0
65,146,30120,73,64,0,2,4,10,1.mid,experiment,0
66,148,30888,74,64,0,2,4,10,1.mid,experiment,0
67,150,31465,77,64,0,2,4,10,1.mid,experiment,0
68,152,31969,76,64,0,2,4,10,1.mid,experiment,0
69,154,32421,74,64,0,2,4,10,1.mid,experiment,0
70,156,32978,72,64,0,2,4,10,1.mid,experiment,0
71,158,33584,84,64,0,2,4,10,1.mid,experiment,0
72,160,34894,84,64,0,2,4,10,1.mid,experiment,0
1,19,8120,79,64,0,2,4,12,9.mid,experiment,0
2,21,8390,78,64,0,2,4,12,9.mid,experiment,0
3,23,8654,79,64,0,2,4,12,9.mid,experiment,0
4,25,8979,76,64,0,2,4,12,9.mid,experiment,0
5,27,9194,72,64,0,2,4,12,9.mid,experiment,0
6,28,9236,67,64,0,2,4,12,9.mid,experiment,0
7,30,9524,67,64,0,2,4,12,9.mid,experiment,0
8,32,9831,67,64,0,2,4,12,9.mid,experiment,0
9,35,10345,79,64,0,2,4,12,9.mid,experiment,0
10,37,10725,78,64,0,2,4,12,9.mid,experiment,0
11,40,11203,79,64,0,2,4,12,9.mid,experiment,0
12,41,11207,76,64,0,2,4,12,9.mid,experiment,0
13,43,11579,72,64,0,2,4,12,9.mid,experiment,0
14,45,11724,76,64,0,2,4,12,9.mid,experiment,0
15,47,11974,79,64,0,2,4,12,9.mid,experiment,0
16,49,12314,84,64,0,2,4,12,9.mid,experiment,0
17,51,12522,83,64,0,2,4,12,9.mid,experiment,0
18,52,12555,81,64,0,2,4,12,9.mid,experiment,0
19,54,12835,81,64,0,2,4,12,9.mid,experiment,0
20,56,13106,81,64,0,2,4,12,9.mid,experiment,0
21,59,13670,83,64,0,2,4,12,9.mid,experiment,0
22,61,13938,81,64,0,2,4,12,9.mid,experiment,0
23,63,14238,84,64,0,2,4,12,9.mid,experiment,0
24,65,14496,81,64,0,2,4,12,9.mid,experiment,0
25,67,14801,78,64,0,2,4,12,9.mid,experiment,0
26,68,14854,79,64,0,2,4,12,9.mid,experiment,0
27,70,15206,79,64,0,2,4,12,9.mid,experiment,0
28,72,16057,79,64,0,2,4,12,9.mid,experiment,0
29,74,16728,77,64,0,2,4,12,9.mid,experiment,0
30,76,17007,77,64,0,2,4,12,9.mid,experiment,0
31,78,17290,76,64,0,2,4,12,9.mid,experiment,0
32,80,17575,76,64,0,2,4,12,9.mid,experiment,0
33,82,18378,74,64,0,2,4,12,9.mid,experiment,0
34,84,19305,79,64,0,2,4,12,9.mid,experiment,0
35,86,19780,77,64,0,2,4,12,9.mid,experiment,0
36,88,20093,76,64,0,2,4,12,9.mid,experiment,0
37,90,20383,76,64,0,2,4,12,9.mid,experiment,0
38,92,20678,76,64,0,2,4,12,9.mid,experiment,0
39,94,20932,76,64,0,2,4,12,9.mid,experiment,0
40,97,21609,81,64,0,2,4,12,9.mid,experiment,0
41,99,21846,77,64,0,2,4,12,9.mid,experiment,0
42,101,22050,76,64,0,2,4,12,9.mid,experiment,0
43,103,22384,74,64,0,2,4,12,9.mid,experiment,0
44,105,22654,76,64,0,2,4,12,9.mid,experiment,0
45,107,22962,79,64,0,2,4,12,9.mid,experiment,0
46,109,23165,74,64,0,2,4,12,9.mid,experiment,0
47,110,23197,71,64,0,2,4,12,9.mid,experiment,0
48,112,23453,72,64,0,2,4,12,9.mid,experiment,0
49,114,23713,72,64,0,2,4,12,9.mid,experiment,0
50,116,24016,74,64,0,2,4,12,9.mid,experiment,0
51,118,24294,74,64,0,2,4,12,9.mid,experiment,0
52,120,25087,76,64,0,2,4,12,9.mid,experiment,0
53,122,25632,65,64,0,2,4,12,9.mid,experiment,0
54,124,25895,65,64,0,2,4,12,9.mid,experiment,0
55,126,26181,64,64,0,2,4,12,9.mid,experiment,0
56,128,26454,64,64,0,2,4,12,9.mid,experiment,0
57,130,27315,62,64,0,2,4,12,9.mid,experiment,0
58,132,27859,67,64,0,2,4,12,9.mid,experiment,0
59,134,28133,67,64,0,2,4,12,9.mid,experiment,0
60,136,28438,71,64,0,2,4,12,9.mid,experiment,0
61,138,28713,71,64,0,2,4,12,9.mid,experiment,0
62,140,28953,72,64,0,2,4,12,9.mid,experiment,0
63,142,29227,72,64,0,2,4,12,9.mid,experiment,0
64,144,29492,73,64,0,2,4,12,9.mid,experiment,0
65,146,29769,73,64,0,2,4,12,9.mid,experiment,0
66,148,30467,74,64,0,2,4,12,9.mid,experiment,0
67,150,31115,77,64,0,2,4,12,9.mid,experiment,0
68,152,31626,76,64,0,2,4,12,9.mid,experiment,0
69,154,32102,74,64,0,2,4,12,9.mid,experiment,0
70,156,32667,72,64,0,2,4,12,9.mid,experiment,0
71,158,33223,84,64,0,2,4,12,9.mid,experiment,0
72,160,34512,84,64,0,2,4,12,9.mid,experiment,0
1,19,8188,79,64,0,2,4,14,11.mid,experiment,0
2,21,8470,78,64,0,2,4,14,11.mid,experiment,0
3,23,8734,79,64,0,2,4,14,11.mid,experiment,0
4,25,9069,76,64,0,2,4,14,11.mid,experiment,0
5,27,9325,72,64,0,2,4,14,11.mid,experiment,0
6,28,9373,67,64,0,2,4,14,11.mid,experiment,0
7,30,9633,67,64,0,2,4,14,11.mid,experiment,0
8,32,9911,67,64,0,2,4,14,11.mid,experiment,0
9,35,10438,79,64,0,2,4,14,11.mid,experiment,0
10,37,10756,78,64,0,2,4,14,11.mid,experiment,0
11,39,10998,79,64,0,2,4,14,11.mid,experiment,0
12,40,11253,76,64,0,2,4,14,11.mid,experiment,0
13,43,11665,72,64,0,2,4,14,11.mid,experiment,0
14,45,11826,76,64,0,2,4,14,11.mid,experiment,0
15,46,12045,79,64,0,2,4,14,11.mid,experiment,0
16,49,12417,84,64,0,2,4,14,11.mid,experiment,0
17,51,12618,83,64,0,2,4,14,11.mid,experiment,0
18,52,12668,81,64,0,2,4,14,11.mid,experiment,0
19,54,12916,81,64,0,2,4,14,11.mid,experiment,0
20,56,13174,81,64,0,2,4,14,11.mid,experiment,0
21,59,13762,83,64,0,2,4,14,11.mid,experiment,0
22,61,14015,81,64,0,2,4,14,11.mid,experiment,0
23,63,14518,84,64,0,2,4,14,11.mid,experiment,0
24,65,14614,81,64,0,2,4,14,11.mid,experiment,0
25,67,14898,78,64,0,2,4,14,11.mid,experiment,0
26,68,14934,79,64,0,2,4,14,11.mid,experiment,0
27,70,15216,79,64,0,2,4,14,11.mid,experiment,0
28,72,15962,79,64,0,2,4,14,11.mid,experiment,0
29,74,16784,77,64,0,2,4,14,11.mid,experiment,0
30,76,17034,77,64,0,2,4,14,11.mid,experiment,0
31,78,17346,76,64,0,2,4,14,11.mid,experiment,0
32,80,17601,76,64,0,2,4,14,11.mid,experiment,0
33,82,18447,74,64,0,2,4,14,11.mid,experiment,0
34,84,19257,79,64,0,2,4,14,11.mid,experiment,0
35,86,19840,77,64,0,2,4,14,11.mid,experiment,0
36,88,20203,76,64,0,2,4,14,11.mid,experiment,0
37,90,20485,76,64,0,2,4,14,11.mid,experiment,0
38,92,20744,76,64,0,2,4,14,11.mid,experiment,0
39,94,21024,76,64,0,2,4,14,11.mid,experiment,0
40,97,21649,81,64,0,2,4,14,11.mid,experiment,0
41,99,21873,77,64,0,2,4,14,11.mid,experiment,0
42,101,22080,76,64,0,2,4,14,11.mid,experiment,0
43,103,22431,74,64,0,2,4,14,11.mid,experiment,0
44,105,22692,76,64,0,2,4,14,11.mid,experiment,0
45,107,23025,79,64,0,2,4,14,11.mid,experiment,0
46,109,23172,74,64,0,2,4,14,11.mid,experiment,0
47,110,23369,71,64,0,2,4,14,11.mid,experiment,0
48,112,23477,72,64,0,2,4,14,11.mid,experiment,0
49,114,23736,72,64,0,2,4,14,11.mid,experiment,0
50,116,23997,74,64,0,2,4,14,11.mid,experiment,0
51,118,24257,74,64,0,2,4,14,11.mid,experiment,0
52,120,25059,76,64,0,2,4,14,11.mid,experiment,0
53,122,25643,65,64,0,2,4,14,11.mid,experiment,0
54,124,25880,65,64,0,2,4,14,11.mid,experiment,0
55,126,26184,64,64,0,2,4,14,11.mid,experiment,0
56,128,26459,64,64,0,2,4,14,11.mid,experiment,0
57,130,27312,62,64,0,2,4,14,11.mid,experiment,0
58,132,27818,67,64,0,2,4,14,11.mid,experiment,0
59,134,28097,67,64,0,2,4,14,11.mid,experiment,0
60,136,28380,71,64,0,2,4,14,11.mid,experiment,0
61,138,28650,71,64,0,2,4,14,11.mid,experiment,0
62,140,28917,72,64,0,2,4,14,11.mid,experiment,0
63,142,29193,72,64,0,2,4,14,11.mid,experiment,0
64,144,29499,73,64,0,2,4,14,11.mid,experiment,0
65,146,29752,73,64,0,2,4,14,11.mid,experiment,0
66,148,30538,74,64,0,2,4,14,11.mid,experiment,0
67,150,31108,77,64,0,2,4,14,11.mid,experiment,0
68,152,31670,76,64,0,2,4,14,11.mid,experiment,0
69,154,32147,74,64,0,2,4,14,11.mid,experiment,0
70,156,32648,72,64,0,2,4,14,11.mid,experiment,0
71,158,33117,84,64,0,2,4,14,11.mid,experiment,0
72,160,34261,84,64,0,2,4,14,11.mid,experiment,0
1,19,8198,79,64,0,2,5,3,5.mid,experiment,0
2,21,8494,78,64,0,2,5,3,5.mid,experiment,0
3,23,8800,79,64,0,2,5,3,5.mid,experiment,0
4,25,9061,76,64,0,2,5,3,5.mid,experiment,0
5,26,9202,72,64,0,2,5,3,5.mid,experiment,0
6,28,9405,67,64,0,2,5,3,5.mid,experiment,0
7,30,9647,67,64,0,2,5,3,5.mid,experiment,0
8,32,9891,67,64,0,2,5,3,5.mid,experiment,0
9,35,10483,79,64,0,2,5,3,5.mid,experiment,0
10,37,10771,78,64,0,2,5,3,5.mid,experiment,0
11,39,11026,79,64,0,2,5,3,5.mid,experiment,0
12,41,11287,76,64,0,2,5,3,5.mid,experiment,0
13,43,11599,72,64,0,2,5,3,5.mid,experiment,0
14,45,11864,76,64,0,2,5,3,5.mid,experiment,0
15,47,12115,79,64,0,2,5,3,5.mid,experiment,0
16,49,12455,84,64,0,2,5,3,5.mid,experiment,0
17,50,12649,83,64,0,2,5,3,5.mid,experiment,0
18,52,12737,81,64,0,2,5,3,5.mid,experiment,0
19,54,13016,81,64,0,2,5,3,5.mid,experiment,0
20,56,13303,81,64,0,2,5,3,5.mid,experiment,0
21,59,13875,83,64,0,2,5,3,5.mid,experiment,0
22,61,14134,81,64,0,2,5,3,5.mid,experiment,0
23,63,14461,84,64,0,2,5,3,5.mid,experiment,0
24,65,14725,81,64,0,2,5,3,5.mid,experiment,0
25,66,14961,78,64,0,2,5,3,5.mid,experiment,0
26,68,15017,79,64,0,2,5,3,5.mid,experiment,0
27,70,15315,79,64,0,2,5,3,5.mid,experiment,0
28,72,16487,79,64,0,2,5,3,5.mid,experiment,0
29,74,17123,77,64,0,2,5,3,5.mid,experiment,0
30,76,17417,77,64,0,2,5,3,5.mid,experiment,0
31,78,17703,76,64,0,2,5,3,5.mid,experiment,0
32,80,17995,76,64,0,2,5,3,5.mid,experiment,0
33,82,18922,74,64,0,2,5,3,5.mid,experiment,0
34,85,20311,79,64,0,2,5,3,5.mid,experiment,0
35,86,20792,77,64,0,2,5,3,5.mid,experiment,0
36,88,20842,76,64,0,2,5,3,5.mid,experiment,0
37,90,21120,76,64,0,2,5,3,5.mid,experiment,0
38,92,21375,76,64,0,2,5,3,5.mid,experiment,0
39,94,21646,76,64,0,2,5,3,5.mid,experiment,0
40,97,22306,81,64,0,2,5,3,5.mid,experiment,0
41,99,22576,77,64,0,2,5,3,5.mid,experiment,0
42,101,22802,76,64,0,2,5,3,5.mid,experiment,0
43,103,23173,74,64,0,2,5,3,5.mid,experiment,0
44,106,23680,76,64,0,2,5,3,5.mid,experiment,0
45,107,23685,79,64,0,2,5,3,5.mid,experiment,0
46,109,23928,74,64,0,2,5,3,5.mid,experiment,0
47,110,24018,71,64,0,2,5,3,5.mid,experiment,0
48,112,24229,72,64,0,2,5,3,5.mid,experiment,0
49,114,24519,72,64,0,2,5,3,5.mid,experiment,0
50,116,24784,74,64,0,2,5,3,5.mid,experiment,0
51,118,25059,74,64,0,2,5,3,5.mid,experiment,0
52,120,25995,76,64,0,2,5,3,5.mid,experiment,0
53,122,26657,65,64,0,2,5,3,5.mid,experiment,0
54,124,26937,65,64,0,2,5,3,5.mid,experiment,0
55,126,27248,64,64,0,2,5,3,5.mid,experiment,0
56,128,27502,64,64,0,2,5,3,5.mid,experiment,0
57,130,28388,62,64,0,2,5,3,5.mid,experiment,0
58,132,29036,67,64,0,2,5,3,5.mid,experiment,0
59,134,29361,67,64,0,2,5,3,5.mid,experiment,0
60,136,29627,71,64,0,2,5,3,5.mid,experiment,0
61,138,29881,71,64,0,2,5,3,5.mid,experiment,0
62,140,30164,72,64,0,2,5,3,5.mid,experiment,0
63,142,30427,72,64,0,2,5,3,5.mid,experiment,0
64,144,30726,73,64,0,2,5,3,5.mid,experiment,0
65,146,30995,73,64,0,2,5,3,5.mid,experiment,0
66,149,31923,74,64,0,2,5,3,5.mid,experiment,0
67,151,32465,77,64,0,2,5,3,5.mid,experiment,0
68,153,33118,76,64,0,2,5,3,5.mid,experiment,0
69,154,33652,74,64,0,2,5,3,5.mid,experiment,0
70,157,34297,72,64,0,2,5,3,5.mid,experiment,0
71,158,34430,84,64,0,2,5,3,5.mid,experiment,0
72,160,35774,84,64,0,2,5,3,5.mid,experiment,0
1,19,8164,79,64,0,2,5,4,9.mid,experiment,0
2,21,8484,78,64,0,2,5,4,9.mid,experiment,0
3,23,8710,79,64,0,2,5,4,9.mid,experiment,0
4,25,9054,76,64,0,2,5,4,9.mid,experiment,0
5,26,9290,72,64,0,2,5,4,9.mid,experiment,0
6,28,9350,67,64,0,2,5,4,9.mid,experiment,0
7,30,9622,67,64,0,2,5,4,9.mid,experiment,0
8,32,9886,67,64,0,2,5,4,9.mid,experiment,0
9,35,10467,79,64,0,2,5,4,9.mid,experiment,0
10,37,10788,78,64,0,2,5,4,9.mid,experiment,0
11,39,11084,79,64,0,2,5,4,9.mid,experiment,0
12,41,11335,76,64,0,2,5,4,9.mid,experiment,0
13,43,11599,72,64,0,2,5,4,9.mid,experiment,0
14,45,11882,76,64,0,2,5,4,9.mid,experiment,0
15,47,12128,79,64,0,2,5,4,9.mid,experiment,0
16,49,12498,84,64,0,2,5,4,9.mid,experiment,0
17,51,12774,83,64,0,2,5,4,9.mid,experiment,0
18,52,12808,81,64,0,2,5,4,9.mid,experiment,0
19,54,13102,81,64,0,2,5,4,9.mid,experiment,0
20,56,13352,81,64,0,2,5,4,9.mid,experiment,0
21,59,13950,83,64,0,2,5,4,9.mid,experiment,0
22,61,14198,81,64,0,2,5,4,9.mid,experiment,0
23,63,14499,84,64,0,2,5,4,9.mid,experiment,0
24,65,14816,81,64,0,2,5,4,9.mid,experiment,0
25,67,15067,78,64,0,2,5,4,9.mid,experiment,0
26,68,15158,79,64,0,2,5,4,9.mid,experiment,0
27,70,15582,79,64,0,2,5,4,9.mid,experiment,0
28,72,16676,79,64,0,2,5,4,9.mid,experiment,0
29,74,17276,77,64,0,2,5,4,9.mid,experiment,0
30,76,17586,77,64,0,2,5,4,9.mid,experiment,0
31,78,17846,76,64,0,2,5,4,9.mid,experiment,0
32,80,18116,76,64,0,2,5,4,9.mid,experiment,0
33,82,19021,74,64,0,2,5,4,9.mid,experiment,0
34,85,20266,79,64,0,2,5,4,9.mid,experiment,0
35,86,20779,77,64,0,2,5,4,9.mid,experiment,0
36,88,20862,76,64,0,2,5,4,9.mid,experiment,0
37,90,21159,76,64,0,2,5,4,9.mid,experiment,0
38,92,21445,76,64,0,2,5,4,9.mid,experiment,0
39,94,21690,76,64,0,2,5,4,9.mid,experiment,0
40,97,22388,81,64,0,2,5,4,9.mid,experiment,0
41,99,22670,77,64,0,2,5,4,9.mid,experiment,0
42,101,22874,76,64,0,2,5,4,9.mid,experiment,0
43,103,23176,74,64,0,2,5,4,9.mid,experiment,0
44,105,23556,76,64,0,2,5,4,9.mid,experiment,0
45,107,23800,79,64,0,2,5,4,9.mid,experiment,0
46,109,24005,74,64,0,2,5,4,9.mid,experiment,0
47,111,24300,71,64,0,2,5,4,9.mid,experiment,0
48,112,24309,72,64,0,2,5,4,9.mid,experiment,0
49,114,24594,72,64,0,2,5,4,9.mid,experiment,0
50,116,24872,74,64,0,2,5,4,9.mid,experiment,0
51,118,25159,74,64,0,2,5,4,9.mid,experiment,0
52,120,26024,76,64,0,2,5,4,9.mid,experiment,0
53,122,26743,65,64,0,2,5,4,9.mid,experiment,0
54,124,27018,65,64,0,2,5,4,9.mid,experiment,0
55,126,27278,64,64,0,2,5,4,9.mid,experiment,0
56,128,27609,64,64,0,2,5,4,9.mid,experiment,0
57,130,28446,62,64,0,2,5,4,9.mid,experiment,0
58,132,29108,67,64,0,2,5,4,9.mid,experiment,0
59,134,29436,67,64,0,2,5,4,9.mid,experiment,0
60,136,29729,71,64,0,2,5,4,9.mid,experiment,0
61,138,30014,71,64,0,2,5,4,9.mid,experiment,0
62,140,30292,72,64,0,2,5,4,9.mid,experiment,0
63,142,30530,72,64,0,2,5,4,9.mid,experiment,0
64,144,30834,73,64,0,2,5,4,9.mid,experiment,0
65,146,31126,73,64,0,2,5,4,9.mid,experiment,0
66,149,31974,74,64,0,2,5,4,9.mid,experiment,0
67,151,32586,77,64,0,2,5,4,9.mid,experiment,0
68,153,33154,76,64,0,2,5,4,9.mid,experiment,0
69,155,33764,74,64,0,2,5,4,9.mid,experiment,0
70,157,34367,72,64,0,2,5,4,9.mid,experiment,0
71,158,34494,84,64,0,2,5,4,9.mid,experiment,0
72,160,35972,84,64,0,2,5,4,9.mid,experiment,0
1,19,8204,79,64,0,2,5,6,6.mid,experiment,0
2,21,8492,78,64,0,2,5,6,6.mid,experiment,0
3,23,8793,79,64,0,2,5,6,6.mid,experiment,0
4,25,9077,76,64,0,2,5,6,6.mid,experiment,0
5,26,9349,72,64,0,2,5,6,6.mid,experiment,0
6,28,9442,67,64,0,2,5,6,6.mid,experiment,0
7,30,9703,67,64,0,2,5,6,6.mid,experiment,0
8,32,9964,67,64,0,2,5,6,6.mid,experiment,0
9,35,10544,79,64,0,2,5,6,6.mid,experiment,0
10,37,10814,78,64,0,2,5,6,6.mid,experiment,0
11,39,11132,79,64,0,2,5,6,6.mid,experiment,0
12,41,11361,76,64,0,2,5,6,6.mid,experiment,0
13,43,11673,72,64,0,2,5,6,6.mid,experiment,0
14,45,12008,76,64,0,2,5,6,6.mid,experiment,0
15,47,12245,79,64,0,2,5,6,6.mid,experiment,0
16,49,12577,84,64,0,2,5,6,6.mid,experiment,0
17,50,12815,83,64,0,2,5,6,6.mid,experiment,0
18,52,12859,81,64,0,2,5,6,6.mid,experiment,0
19,54,13134,81,64,0,2,5,6,6.mid,experiment,0
20,56,13393,81,64,0,2,5,6,6.mid,experiment,0
21,59,13974,83,64,0,2,5,6,6.mid,experiment,0
22,61,14213,81,64,0,2,5,6,6.mid,experiment,0
23,63,14545,84,64,0,2,5,6,6.mid,experiment,0
24,65,14778,81,64,0,2,5,6,6.mid,experiment,0
25,67,15054,78,64,0,2,5,6,6.mid,experiment,0
26,68,15071,79,64,0,2,5,6,6.mid,experiment,0
27,70,15414,79,64,0,2,5,6,6.mid,experiment,0
28,72,16578,79,64,0,2,5,6,6.mid,experiment,0
29,74,17161,77,64,0,2,5,6,6.mid,experiment,0
30,76,17440,77,64,0,2,5,6,6.mid,experiment,0
31,78,17708,76,64,0,2,5,6,6.mid,experiment,0
32,80,17973,76,64,0,2,5,6,6.mid,experiment,0
33,82,18820,74,64,0,2,5,6,6.mid,experiment,0
34,85,20153,79,64,0,2,5,6,6.mid,experiment,0
35,87,20667,77,64,0,2,5,6,6.mid,experiment,0
36,88,20693,76,64,0,2,5,6,6.mid,experiment,0
37,90,20988,76,64,0,2,5,6,6.mid,experiment,0
38,92,21239,76,64,0,2,5,6,6.mid,experiment,0
39,94,21505,76,64,0,2,5,6,6.mid,experiment,0
40,97,22151,81,64,0,2,5,6,6.mid,experiment,0
41,99,22410,77,64,0,2,5,6,6.mid,experiment,0
42,101,22640,76,64,0,2,5,6,6.mid,experiment,0
43,103,22962,74,64,0,2,5,6,6.mid,experiment,0
44,105,23275,76,64,0,2,5,6,6.mid,experiment,0
45,107,23496,79,64,0,2,5,6,6.mid,experiment,0
46,108,23725,74,64,0,2,5,6,6.mid,experiment,0
47,111,24014,71,64,0,2,5,6,6.mid,experiment,0
48,112,24047,72,64,0,2,5,6,6.mid,experiment,0
49,114,24342,72,64,0,2,5,6,6.mid,experiment,0
50,116,24604,74,64,0,2,5,6,6.mid,experiment,0
51,118,24876,74,64,0,2,5,6,6.mid,experiment,0
52,120,25791,76,64,0,2,5,6,6.mid,experiment,0
53,122,26439,65,64,0,2,5,6,6.mid,experiment,0
54,124,26731,65,64,0,2,5,6,6.mid,experiment,0
55,126,26997,64,64,0,2,5,6,6.mid,experiment,0
56,128,27262,64,64,0,2,5,6,6.mid,experiment,0
57,130,28126,62,64,0,2,5,6,6.mid,experiment,0
58,132,28747,67,64,0,2,5,6,6.mid,experiment,0
59,134,29003,67,64,0,2,5,6,6.mid,experiment,0
60,136,29263,71,64,0,2,5,6,6.mid,experiment,0
61,138,29532,71,64,0,2,5,6,6.mid,experiment,0
62,140,29829,72,64,0,2,5,6,6.mid,experiment,0
63,142,30070,72,64,0,2,5,6,6.mid,experiment,0
64,144,30390,73,64,0,2,5,6,6.mid,experiment,0
65,146,30626,73,64,0,2,5,6,6.mid,experiment,0
66,149,31578,74,64,0,2,5,6,6.mid,experiment,0
67,151,32187,77,64,0,2,5,6,6.mid,experiment,0
68,153,32690,76,64,0,2,5,6,6.mid,experiment,0
69,155,33298,74,64,0,2,5,6,6.mid,experiment,0
70,157,33878,72,64,0,2,5,6,6.mid,experiment,0
71,158,33960,84,64,0,2,5,6,6.mid,experiment,0
72,160,35453,84,64,0,2,5,6,6.mid,experiment,0
1,19,8218,79,64,0,2,5,8,1.mid,experiment,0
2,21,8520,78,64,0,2,5,8,1.mid,experiment,0
3,23,8790,79,64,0,2,5,8,1.mid,experiment,0
4,25,9094,76,64,0,2,5,8,1.mid,experiment,0
5,26,9184,72,64,0,2,5,8,1.mid,experiment,0
6,28,9389,67,64,0,2,5,8,1.mid,experiment,0
7,30,9676,67,64,0,2,5,8,1.mid,experiment,0
8,32,9941,67,64,0,2,5,8,1.mid,experiment,0
9,35,10538,79,64,0,2,5,8,1.mid,experiment,0
10,37,10844,78,64,0,2,5,8,1.mid,experiment,0
11,39,11126,79,64,0,2,5,8,1.mid,experiment,0
12,41,11381,76,64,0,2,5,8,1.mid,experiment,0
13,43,11678,72,64,0,2,5,8,1.mid,experiment,0
14,45,11961,76,64,0,2,5,8,1.mid,experiment,0
15,47,12200,79,64,0,2,5,8,1.mid,experiment,0
16,49,12527,84,64,0,2,5,8,1.mid,experiment,0
17,50,12760,83,64,0,2,5,8,1.mid,experiment,0
18,52,12833,81,64,0,2,5,8,1.mid,experiment,0
19,54,13082,81,64,0,2,5,8,1.mid,experiment,0
20,56,13380,81,64,0,2,5,8,1.mid,experiment,0
21,59,13968,83,64,0,2,5,8,1.mid,experiment,0
22,61,14207,81,64,0,2,5,8,1.mid,experiment,0
23,63,14508,84,64,0,2,5,8,1.mid,experiment,0
24,65,14779,81,64,0,2,5,8,1.mid,experiment,0
25,66,15019,78,64,0,2,5,8,1.mid,experiment,0
26,68,15111,79,64,0,2,5,8,1.mid,experiment,0
27,70,15524,79,64,0,2,5,8,1.mid,experiment,0
28,72,16574,79,64,0,2,5,8,1.mid,experiment,0
29,74,17220,77,64,0,2,5,8,1.mid,experiment,0
30,76,17488,77,64,0,2,5,8,1.mid,experiment,0
31,78,17808,76,64,0,2,5,8,1.mid,experiment,0
32,80,18101,76,64,0,2,5,8,1.mid,experiment,0
33,82,18963,74,64,0,2,5,8,1.mid,experiment,0
34,85,20265,79,64,0,2,5,8,1.mid,experiment,0
35,87,20779,77,64,0,2,5,8,1.mid,experiment,0
36,88,20813,76,64,0,2,5,8,1.mid,experiment,0
37,90,21103,76,64,0,2,5,8,1.mid,experiment,0
38,92,21374,76,64,0,2,5,8,1.mid,experiment,0
39,94,21642,76,64,0,2,5,8,1.mid,experiment,0
40,97,22245,81,64,0,2,5,8,1.mid,experiment,0
41,99,22509,77,64,0,2,5,8,1.mid,experiment,0
42,101,22750,76,64,0,2,5,8,1.mid,experiment,0
43,103,23052,74,64,0,2,5,8,1.mid,experiment,0
44,105,23361,76,64,0,2,5,8,1.mid,experiment,0
45,107,23587,79,64,0,2,5,8,1.mid,experiment,0
46,108,23842,74,64,0,2,5,8,1.mid,experiment,0
47,111,24163,71,64,0,2,5,8,1.mid,experiment,0
48,112,24186,72,64,0,2,5,8,1.mid,experiment,0
49,114,24460,72,64,0,2,5,8,1.mid,experiment,0
50,116,24729,74,64,0,2,5,8,1.mid,experiment,0
51,118,25013,74,64,0,2,5,8,1.mid,experiment,0
52,120,25861,76,64,0,2,5,8,1.mid,experiment,0
53,122,26573,65,64,0,2,5,8,1.mid,experiment,0
54,124,26865,65,64,0,2,5,8,1.mid,experiment,0
55,126,27149,64,64,0,2,5,8,1.mid,experiment,0
56,128,27437,64,64,0,2,5,8,1.mid,experiment,0
57,130,28235,62,64,0,2,5,8,1.mid,experiment,0
58,132,28954,67,64,0,2,5,8,1.mid,experiment,0
59,134,29226,67,64,0,2,5,8,1.mid,experiment,0
60,136,29521,71,64,0,2,5,8,1.mid,experiment,0
61,138,29775,71,64,0,2,5,8,1.mid,experiment,0
62,140,30057,72,64,0,2,5,8,1.mid,experiment,0
63,142,30330,72,64,0,2,5,8,1.mid,experiment,0
64,144,30615,73,64,0,2,5,8,1.mid,experiment,0
65,146,30880,73,64,0,2,5,8,1.mid,experiment,0
66,149,31770,74,64,0,2,5,8,1.mid,experiment,0
67,151,32392,77,64,0,2,5,8,1.mid,experiment,0
68,153,32946,76,64,0,2,5,8,1.mid,experiment,0
69,155,33477,74,64,0,2,5,8,1.mid,experiment,0
70,157,34055,72,64,0,2,5,8,1.mid,experiment,0
71,158,34188,84,64,0,2,5,8,1.mid,experiment,0
72,160,35604,84,64,0,2,5,8,1.mid,experiment,0
1,19,8160,79,64,0,2,5,10,10.mid,experiment,0
2,21,8434,78,64,0,2,5,10,10.mid,experiment,0
3,23,8710,79,64,0,2,5,10,10.mid,experiment,0
4,25,9018,76,64,0,2,5,10,10.mid,experiment,0
5,26,9202,72,64,0,2,5,10,10.mid,experiment,0
6,28,9290,67,64,0,2,5,10,10.mid,experiment,0
7,30,9556,67,64,0,2,5,10,10.mid,experiment,0
8,32,9854,67,64,0,2,5,10,10.mid,experiment,0
9,35,10409,79,64,0,2,5,10,10.mid,experiment,0
10,37,10724,78,64,0,2,5,10,10.mid,experiment,0
11,39,11012,79,64,0,2,5,10,10.mid,experiment,0
12,41,11220,76,64,0,2,5,10,10.mid,experiment,0
13,43,11548,72,64,0,2,5,10,10.mid,experiment,0
14,45,11808,76,64,0,2,5,10,10.mid,experiment,0
15,47,12047,79,64,0,2,5,10,10.mid,experiment,0
16,49,12358,84,64,0,2,5,10,10.mid,experiment,0
17,51,12586,83,64,0,2,5,10,10.mid,experiment,0
18,52,12616,81,64,0,2,5,10,10.mid,experiment,0
19,54,12900,81,64,0,2,5,10,10.mid,experiment,0
20,56,13170,81,64,0,2,5,10,10.mid,experiment,0
21,59,13818,83,64,0,2,5,10,10.mid,experiment,0
22,61,14032,81,64,0,2,5,10,10.mid,experiment,0
23,63,14364,84,64,0,2,5,10,10.mid,experiment,0
24,65,14598,81,64,0,2,5,10,10.mid,experiment,0
25,67,14856,78,64,0,2,5,10,10.mid,experiment,0
26,68,14932,79,64,0,2,5,10,10.mid,experiment,0
27,70,15344,79,64,0,2,5,10,10.mid,experiment,0
28,72,16329,79,64,0,2,5,10,10.mid,experiment,0
29,74,16935,77,64,0,2,5,10,10.mid,experiment,0
30,76,17218,77,64,0,2,5,10,10.mid,experiment,0
31,78,17498,76,64,0,2,5,10,10.mid,experiment,0
32,80,17807,76,64,0,2,5,10,10.mid,experiment,0
33,82,18630,74,64,0,2,5,10,10.mid,experiment,0
34,85,19879,79,64,0,2,5,10,10.mid,experiment,0
35,87,20443,77,64,0,2,5,10,10.mid,experiment,0
36,88,20469,76,64,0,2,5,10,10.mid,experiment,0
37,90,20738,76,64,0,2,5,10,10.mid,experiment,0
38,92,21022,76,64,0,2,5,10,10.mid,experiment,0
39,94,21272,76,64,0,2,5,10,10.mid,experiment,0
40,97,21906,81,64,0,2,5,10,10.mid,experiment,0
41,99,22158,77,64,0,2,5,10,10.mid,experiment,0
42,101,22382,76,64,0,2,5,10,10.mid,experiment,0
43,103,22694,74,64,0,2,5,10,10.mid,experiment,0
44,105,23008,76,64,0,2,5,10,10.mid,experiment,0
45,107,23269,79,64,0,2,5,10,10.mid,experiment,0
46,109,23477,74,64,0,2,5,10,10.mid,experiment,0
47,111,23793,71,64,0,2,5,10,10.mid,experiment,0
48,112,23809,72,64,0,2,5,10,10.mid,experiment,0
49,114,24092,72,64,0,2,5,10,10.mid,experiment,0
50,116,24361,74,64,0,2,5,10,10.mid,experiment,0
51,118,24638,74,64,0,2,5,10,10.mid,experiment,0
52,120,25509,76,64,0,2,5,10,10.mid,experiment,0
53,122,26232,65,64,0,2,5,10,10.mid,experiment,0
54,124,26512,65,64,0,2,5,10,10.mid,experiment,0
55,126,26784,64,64,0,2,5,10,10.mid,experiment,0
56,128,27092,64,64,0,2,5,10,10.mid,experiment,0
57,130,27932,62,64,0,2,5,10,10.mid,experiment,0
58,132,28576,67,64,0,2,5,10,10.mid,experiment,0
59,134,28852,67,64,0,2,5,10,10.mid,experiment,0
60,136,29118,71,64,0,2,5,10,10.mid,experiment,0
61,138,29419,71,64,0,2,5,10,10.mid,experiment,0
62,140,29696,72,64,0,2,5,10,10.mid,experiment,0
63,142,29944,72,64,0,2,5,10,10.mid,experiment,0
64,144,30262,73,64,0,2,5,10,10.mid,experiment,0
65,146,30554,73,64,0,2,5,10,10.mid,experiment,0
66,149,31390,74,64,0,2,5,10,10.mid,experiment,0
67,151,32019,77,64,0,2,5,10,10.mid,experiment,0
68,153,32581,76,64,0,2,5,10,10.mid,experiment,0
69,154,33131,74,64,0,2,5,10,10.mid,experiment,0
70,157,33758,72,64,0,2,5,10,10.mid,experiment,0
71,158,33808,84,64,0,2,5,10,10.mid,experiment,0
72,160,35208,84,64,0,2,5,10,10.mid,experiment,0
1,19,8181,79,64,0,2,5,11,15.mid,experiment,0
2,21,8469,78,64,0,2,5,11,15.mid,experiment,0
3,23,8741,79,64,0,2,5,11,15.mid,experiment,0
4,25,9052,76,64,0,2,5,11,15.mid,experiment,0
5,26,9315,72,64,0,2,5,11,15.mid,experiment,0
6,28,9382,67,64,0,2,5,11,15.mid,experiment,0
7,30,9702,67,64,0,2,5,11,15.mid,experiment,0
8,32,9936,67,64,0,2,5,11,15.mid,experiment,0
9,35,10510,79,64,0,2,5,11,15.mid,experiment,0
10,37,10810,78,64,0,2,5,11,15.mid,experiment,0
11,39,11125,79,64,0,2,5,11,15.mid,experiment,0
12,41,11379,76,64,0,2,5,11,15.mid,experiment,0
13,43,11644,72,64,0,2,5,11,15.mid,experiment,0
14,45,11910,76,64,0,2,5,11,15.mid,experiment,0
15,47,12146,79,64,0,2,5,11,15.mid,experiment,0
16,49,12540,84,64,0,2,5,11,15.mid,experiment,0
17,51,12812,83,64,0,2,5,11,15.mid,experiment,0
18,52,12832,81,64,0,2,5,11,15.mid,experiment,0
19,54,13098,81,64,0,2,5,11,15.mid,experiment,0
20,56,13382,81,64,0,2,5,11,15.mid,experiment,0
21,59,14002,83,64,0,2,5,11,15.mid,experiment,0
22,61,14219,81,64,0,2,5,11,15.mid,experiment,0
23,63,14510,84,64,0,2,5,11,15.mid,experiment,0
24,65,14815,81,64,0,2,5,11,15.mid,experiment,0
25,67,15070,78,64,0,2,5,11,15.mid,experiment,0
26,68,15165,79,64,0,2,5,11,15.mid,experiment,0
27,70,15607,79,64,0,2,5,11,15.mid,experiment,0
28,72,16575,79,64,0,2,5,11,15.mid,experiment,0
29,74,17249,77,64,0,2,5,11,15.mid,experiment,0
30,76,17529,77,64,0,2,5,11,15.mid,experiment,0
31,78,17810,76,64,0,2,5,11,15.mid,experiment,0
32,80,18109,76,64,0,2,5,11,15.mid,experiment,0
33,82,18892,74,64,0,2,5,11,15.mid,experiment,0
34,85,20200,79,64,0,2,5,11,15.mid,experiment,0
35,86,20728,77,64,0,2,5,11,15.mid,experiment,0
36,88,20798,76,64,0,2,5,11,15.mid,experiment,0
37,90,21082,76,64,0,2,5,11,15.mid,experiment,0
38,92,21350,76,64,0,2,5,11,15.mid,experiment,0
39,94,21614,76,64,0,2,5,11,15.mid,experiment,0
40,97,22303,81,64,0,2,5,11,15.mid,experiment,0
41,99,22547,77,64,0,2,5,11,15.mid,experiment,0
42,101,22781,76,64,0,2,5,11,15.mid,experiment,0
43,103,23080,74,64,0,2,5,11,15.mid,experiment,0
44,105,23370,76,64,0,2,5,11,15.mid,experiment,0
45,107,23608,79,64,0,2,5,11,15.mid,experiment,0
46,108,23851,74,64,0,2,5,11,15.mid,experiment,0
47,110,23915,71,64,0,2,5,11,15.mid,experiment,0
48,112,24171,72,64,0,2,5,11,15.mid,experiment,0
49,114,24471,72,64,0,2,5,11,15.mid,experiment,0
50,116,24727,74,64,0,2,5,11,15.mid,experiment,0
51,118,25026,74,64,0,2,5,11,15.mid,experiment,0
52,120,25893,76,64,0,2,5,11,15.mid,experiment,0
53,122,26609,65,64,0,2,5,11,15.mid,experiment,0
54,124,26890,65,64,0,2,5,11,15.mid,experiment,0
55,126,27206,64,64,0,2,5,11,15.mid,experiment,0
56,128,27478,64,64,0,2,5,11,15.mid,experiment,0
57,130,28309,62,64,0,2,5,11,15.mid,experiment,0
58,132,28966,67,64,0,2,5,11,15.mid,experiment,0
59,134,29249,67,64,0,2,5,11,15.mid,experiment,0
60,136,29540,71,64,0,2,5,11,15.mid,experiment,0
61,138,29793,71,64,0,2,5,11,15.mid,experiment,0
62,140,30064,72,64,0,2,5,11,15.mid,experiment,0
63,142,30342,72,64,0,2,5,11,15.mid,experiment,0
64,144,30611,73,64,0,2,5,11,15.mid,experiment,0
65,146,30878,73,64,0,2,5,11,15.mid,experiment,0
66,149,31773,74,64,0,2,5,11,15.mid,experiment,0
67,151,32397,77,64,0,2,5,11,15.mid,experiment,0
68,153,32956,76,64,0,2,5,11,15.mid,experiment,0
69,155,33512,74,64,0,2,5,11,15.mid,experiment,0
70,157,34163,72,64,0,2,5,11,15.mid,experiment,0
71,158,34323,84,64,0,2,5,11,15.mid,experiment,0
72,160,35651,84,64,0,2,5,11,15.mid,experiment,0
1,19,8266,79,64,0,2,5,12,7.mid,experiment,0
2,21,8548,78,64,0,2,5,12,7.mid,experiment,0
3,23,8825,79,64,0,2,5,12,7.mid,experiment,0
4,25,9122,76,64,0,2,5,12,7.mid,experiment,0
5,26,9412,72,64,0,2,5,12,7.mid,experiment,0
6,28,9465,67,64,0,2,5,12,7.mid,experiment,0
7,30,9741,67,64,0,2,5,12,7.mid,experiment,0
8,32,10011,67,64,0,2,5,12,7.mid,experiment,0
9,35,10601,79,64,0,2,5,12,7.mid,experiment,0
10,37,10909,78,64,0,2,5,12,7.mid,experiment,0
11,39,11183,79,64,0,2,5,12,7.mid,experiment,0
12,41,11458,76,64,0,2,5,12,7.mid,experiment,0
13,43,11735,72,64,0,2,5,12,7.mid,experiment,0
14,45,12016,76,64,0,2,5,12,7.mid,experiment,0
15,47,12280,79,64,0,2,5,12,7.mid,experiment,0
16,49,12618,84,64,0,2,5,12,7.mid,experiment,0
17,50,12855,83,64,0,2,5,12,7.mid,experiment,0
18,52,12909,81,64,0,2,5,12,7.mid,experiment,0
19,54,13192,81,64,0,2,5,12,7.mid,experiment,0
20,56,13471,81,64,0,2,5,12,7.mid,experiment,0
21,59,14061,83,64,0,2,5,12,7.mid,experiment,0
22,61,14323,81,64,0,2,5,12,7.mid,experiment,0
23,63,14620,84,64,0,2,5,12,7.mid,experiment,0
24,65,14877,81,64,0,2,5,12,7.mid,experiment,0
25,67,15187,78,64,0,2,5,12,7.mid,experiment,0
26,68,15301,79,64,0,2,5,12,7.mid,experiment,0
27,70,15831,79,64,0,2,5,12,7.mid,experiment,0
28,72,16801,79,64,0,2,5,12,7.mid,experiment,0
29,74,17394,77,64,0,2,5,12,7.mid,experiment,0
30,76,17679,77,64,0,2,5,12,7.mid,experiment,0
31,78,17964,76,64,0,2,5,12,7.mid,experiment,0
32,80,18244,76,64,0,2,5,12,7.mid,experiment,0
33,82,19170,74,64,0,2,5,12,7.mid,experiment,0
34,85,20549,79,64,0,2,5,12,7.mid,experiment,0
35,87,21058,77,64,0,2,5,12,7.mid,experiment,0
36,88,21092,76,64,0,2,5,12,7.mid,experiment,0
37,90,21363,76,64,0,2,5,12,7.mid,experiment,0
38,92,21636,76,64,0,2,5,12,7.mid,experiment,0
39,94,21893,76,64,0,2,5,12,7.mid,experiment,0
40,97,22541,81,64,0,2,5,12,7.mid,experiment,0
41,99,22792,77,64,0,2,5,12,7.mid,experiment,0
42,100,23022,76,64,0,2,5,12,7.mid,experiment,0
43,103,23353,74,64,0,2,5,12,7.mid,experiment,0
44,105,23665,76,64,0,2,5,12,7.mid,experiment,0
45,107,23900,79,64,0,2,5,12,7.mid,experiment,0
46,108,24133,74,64,0,2,5,12,7.mid,experiment,0
47,110,24457,71,64,0,2,5,12,7.mid,experiment,0
48,112,24492,72,64,0,2,5,12,7.mid,experiment,0
49,114,24769,72,64,0,2,5,12,7.mid,experiment,0
50,116,25049,74,64,0,2,5,12,7.mid,experiment,0
51,118,25337,74,64,0,2,5,12,7.mid,experiment,0
52,120,26218,76,64,0,2,5,12,7.mid,experiment,0
53,122,26828,65,64,0,2,5,12,7.mid,experiment,0
54,124,27113,65,64,0,2,5,12,7.mid,experiment,0
55,126,27397,64,64,0,2,5,12,7.mid,experiment,0
56,128,27661,64,64,0,2,5,12,7.mid,experiment,0
57,130,28553,62,64,0,2,5,12,7.mid,experiment,0
58,132,29152,67,64,0,2,5,12,7.mid,experiment,0
59,134,29417,67,64,0,2,5,12,7.mid,experiment,0
60,136,29698,71,64,0,2,5,12,7.mid,experiment,0
61,138,29965,71,64,0,2,5,12,7.mid,experiment,0
62,140,30253,72,64,0,2,5,12,7.mid,experiment,0
63,142,30505,72,64,0,2,5,12,7.mid,experiment,0
64,144,30808,73,64,0,2,5,12,7.mid,experiment,0
65,146,31118,73,64,0,2,5,12,7.mid,experiment,0
66,149,31991,74,64,0,2,5,12,7.mid,experiment,0
67,151,32597,77,64,0,2,5,12,7.mid,experiment,0
68,153,33171,76,64,0,2,5,12,7.mid,experiment,0
69,155,33704,74,64,0,2,5,12,7.mid,experiment,0
70,157,34326,72,64,0,2,5,12,7.mid,experiment,0
71,158,34434,84,64,0,2,5,12,7.mid,experiment,0
72,160,35779,84,64,0,2,5,12,7.mid,experiment,0
1,19,8145,79,64,0,2,5,14,2.mid,experiment,0
2,21,8405,78,64,0,2,5,14,2.mid,experiment,0
3,23,8698,79,64,0,2,5,14,2.mid,experiment,0
4,25,8988,76,64,0,2,5,14,2.mid,experiment,0
5,26,9190,72,64,0,2,5,14,2.mid,experiment,0
6,28,9308,67,64,0,2,5,14,2.mid,experiment,0
7,30,9572,67,64,0,2,5,14,2.mid,experiment,0
8,32,9858,67,64,0,2,5,14,2.mid,experiment,0
9,35,10390,79,64,0,2,5,14,2.mid,experiment,0
10,37,10700,78,64,0,2,5,14,2.mid,experiment,0
11,39,10996,79,64,0,2,5,14,2.mid,experiment,0
12,41,11278,76,64,0,2,5,14,2.mid,experiment,0
13,43,11521,72,64,0,2,5,14,2.mid,experiment,0
14,45,11796,76,64,0,2,5,14,2.mid,experiment,0
15,47,12057,79,64,0,2,5,14,2.mid,experiment,0
16,49,12400,84,64,0,2,5,14,2.mid,experiment,0
17,50,12628,83,64,0,2,5,14,2.mid,experiment,0
18,52,12693,81,64,0,2,5,14,2.mid,experiment,0
19,54,12961,81,64,0,2,5,14,2.mid,experiment,0
20,56,13223,81,64,0,2,5,14,2.mid,experiment,0
21,59,13775,83,64,0,2,5,14,2.mid,experiment,0
22,61,14039,81,64,0,2,5,14,2.mid,experiment,0
23,63,14311,84,64,0,2,5,14,2.mid,experiment,0
24,65,14614,81,64,0,2,5,14,2.mid,experiment,0
25,67,14905,78,64,0,2,5,14,2.mid,experiment,0
26,68,15047,79,64,0,2,5,14,2.mid,experiment,0
27,70,15466,79,64,0,2,5,14,2.mid,experiment,0
28,72,16464,79,64,0,2,5,14,2.mid,experiment,0
29,74,17070,77,64,0,2,5,14,2.mid,experiment,0
30,76,17366,77,64,0,2,5,14,2.mid,experiment,0
31,78,17644,76,64,0,2,5,14,2.mid,experiment,0
32,80,17941,76,64,0,2,5,14,2.mid,experiment,0
33,82,18841,74,64,0,2,5,14,2.mid,experiment,0
34,85,20119,79,64,0,2,5,14,2.mid,experiment,0
35,86,20645,77,64,0,2,5,14,2.mid,experiment,0
36,88,20689,76,64,0,2,5,14,2.mid,experiment,0
37,90,20970,76,64,0,2,5,14,2.mid,experiment,0
38,92,21266,76,64,0,2,5,14,2.mid,experiment,0
39,94,21526,76,64,0,2,5,14,2.mid,experiment,0
40,97,22158,81,64,0,2,5,14,2.mid,experiment,0
41,99,22412,77,64,0,2,5,14,2.mid,experiment,0
42,101,22664,76,64,0,2,5,14,2.mid,experiment,0
43,103,23006,74,64,0,2,5,14,2.mid,experiment,0
44,105,23273,76,64,0,2,5,14,2.mid,experiment,0
45,107,23502,79,64,0,2,5,14,2.mid,experiment,0
46,108,23740,74,64,0,2,5,14,2.mid,experiment,0
47,110,24046,71,64,0,2,5,14,2.mid,experiment,0
48,112,24082,72,64,0,2,5,14,2.mid,experiment,0
49,114,24346,72,64,0,2,5,14,2.mid,experiment,0
50,116,24613,74,64,0,2,5,14,2.mid,experiment,0
51,118,24896,74,64,0,2,5,14,2.mid,experiment,0
52,120,25753,76,64,0,2,5,14,2.mid,experiment,0
53,122,26455,65,64,0,2,5,14,2.mid,experiment,0
54,124,26723,65,64,0,2,5,14,2.mid,experiment,0
55,126,27003,64,64,0,2,5,14,2.mid,experiment,0
56,128,27273,64,64,0,2,5,14,2.mid,experiment,0
57,130,28155,62,64,0,2,5,14,2.mid,experiment,0
58,132,29207,67,64,0,2,5,14,2.mid,experiment,0
59,134,29449,67,64,0,2,5,14,2.mid,experiment,0
60,136,29718,71,64,0,2,5,14,2.mid,experiment,0
61,138,29977,71,64,0,2,5,14,2.mid,experiment,0
62,140,30273,72,64,0,2,5,14,2.mid,experiment,0
63,142,30561,72,64,0,2,5,14,2.mid,experiment,0
64,144,30830,73,64,0,2,5,14,2.mid,experiment,0
65,146,31117,73,64,0,2,5,14,2.mid,experiment,0
66,149,31999,74,64,0,2,5,14,2.mid,experiment,0
67,151,32621,77,64,0,2,5,14,2.mid,experiment,0
68,153,33213,76,64,0,2,5,14,2.mid,experiment,0
69,155,33802,74,64,0,2,5,14,2.mid,experiment,0
70,157,34427,72,64,0,2,5,14,2.mid,experiment,0
71,158,34589,84,64,0,2,5,14,2.mid,experiment,0
72,160,36019,84,64,0,2,5,14,2.mid,experiment,0
1,19,8083,79,64,0,2,6,6,2.mid,experiment,0
2,21,8381,78,64,0,2,6,6,2.mid,experiment,0
3,23,8581,79,64,0,2,6,6,2.mid,experiment,0
4,25,8913,76,64,0,2,6,6,2.mid,experiment,0
5,26,8973,72,64,0,2,6,6,2.mid,experiment,0
6,28,9196,67,64,0,2,6,6,2.mid,experiment,0
7,30,9471,67,64,0,2,6,6,2.mid,experiment,0
8,32,9743,67,64,0,2,6,6,2.mid,experiment,0
9,35,10263,79,64,0,2,6,6,2.mid,experiment,0
10,37,10561,78,64,0,2,6,6,2.mid,experiment,0
11,39,10785,79,64,0,2,6,6,2.mid,experiment,0
12,41,11034,76,64,0,2,6,6,2.mid,experiment,0
13,43,11337,72,64,0,2,6,6,2.mid,experiment,0
14,45,11608,76,64,0,2,6,6,2.mid,experiment,0
15,47,11841,79,64,0,2,6,6,2.mid,experiment,0
16,49,12183,84,64,0,2,6,6,2.mid,experiment,0
17,50,12252,83,64,0,2,6,6,2.mid,experiment,0
18,52,12438,81,64,0,2,6,6,2.mid,experiment,0
19,54,12702,81,64,0,2,6,6,2.mid,experiment,0
20,56,12953,81,64,0,2,6,6,2.mid,experiment,0
21,59,13507,83,64,0,2,6,6,2.mid,experiment,0
22,61,13725,81,64,0,2,6,6,2.mid,experiment,0
23,63,14013,84,64,0,2,6,6,2.mid,experiment,0
24,65,14231,81,64,0,2,6,6,2.mid,experiment,0
25,66,14408,78,64,0,2,6,6,2.mid,experiment,0
26,68,14655,79,64,0,2,6,6,2.mid,experiment,0
27,70,15144,79,64,0,2,6,6,2.mid,experiment,0
28,72,16133,79,64,0,2,6,6,2.mid,experiment,0
29,74,16473,77,64,0,2,6,6,2.mid,experiment,0
30,76,16765,77,64,0,2,6,6,2.mid,experiment,0
31,78,17029,76,64,0,2,6,6,2.mid,experiment,0
32,80,17291,76,64,0,2,6,6,2.mid,experiment,0
33,82,18319,74,64,0,2,6,6,2.mid,experiment,0
34,84,19096,79,64,0,2,6,6,2.mid,experiment,0
35,86,19664,77,64,0,2,6,6,2.mid,experiment,0
36,88,19953,76,64,0,2,6,6,2.mid,experiment,0
37,90,20196,76,64,0,2,6,6,2.mid,experiment,0
38,92,20447,76,64,0,2,6,6,2.mid,experiment,0
39,94,20694,76,64,0,2,6,6,2.mid,experiment,0
40,97,21275,81,64,0,2,6,6,2.mid,experiment,0
41,99,21498,77,64,0,2,6,6,2.mid,experiment,0
42,101,21737,76,64,0,2,6,6,2.mid,experiment,0
43,103,22016,74,64,0,2,6,6,2.mid,experiment,0
44,105,22278,76,64,0,2,6,6,2.mid,experiment,0
45,107,22584,79,64,0,2,6,6,2.mid,experiment,0
46,109,22810,74,64,0,2,6,6,2.mid,experiment,0
47,110,22937,71,64,0,2,6,6,2.mid,experiment,0
48,112,23150,72,64,0,2,6,6,2.mid,experiment,0
49,114,23408,72,64,0,2,6,6,2.mid,experiment,0
50,116,23657,74,64,0,2,6,6,2.mid,experiment,0
51,118,23926,74,64,0,2,6,6,2.mid,experiment,0
52,120,24857,76,64,0,2,6,6,2.mid,experiment,0
53,122,25338,65,64,0,2,6,6,2.mid,experiment,0
54,124,25642,65,64,0,2,6,6,2.mid,experiment,0
55,126,25894,64,64,0,2,6,6,2.mid,experiment,0
56,128,26160,64,64,0,2,6,6,2.mid,experiment,0
57,130,27130,62,64,0,2,6,6,2.mid,experiment,0
58,132,27572,67,64,0,2,6,6,2.mid,experiment,0
59,134,27883,67,64,0,2,6,6,2.mid,experiment,0
60,136,28143,71,64,0,2,6,6,2.mid,experiment,0
61,138,28414,71,64,0,2,6,6,2.mid,experiment,0
62,140,28666,72,64,0,2,6,6,2.mid,experiment,0
63,142,28933,72,64,0,2,6,6,2.mid,experiment,0
64,144,29195,73,64,0,2,6,6,2.mid,experiment,0
65,146,29456,73,64,0,2,6,6,2.mid,experiment,0
66,148,30195,74,64,0,2,6,6,2.mid,experiment,0
67,150,30764,77,64,0,2,6,6,2.mid,experiment,0
68,152,31313,76,64,0,2,6,6,2.mid,experiment,0
69,154,31870,74,64,0,2,6,6,2.mid,experiment,0
70,156,32374,72,64,0,2,6,6,2.mid,experiment,0
71,158,33005,84,64,0,2,6,6,2.mid,experiment,0
72,160,33848,84,64,0,2,6,6,2.mid,experiment,0
1,19,8080,79,64,0,2,6,8,8.mid,experiment,0
2,21,8364,78,64,0,2,6,8,8.mid,experiment,0
3,23,8589,79,64,0,2,6,8,8.mid,experiment,0
4,25,8886,76,64,0,2,6,8,8.mid,experiment,0
5,26,8942,72,64,0,2,6,8,8.mid,experiment,0
6,28,9146,67,64,0,2,6,8,8.mid,experiment,0
7,30,9443,67,64,0,2,6,8,8.mid,experiment,0
8,32,9676,67,64,0,2,6,8,8.mid,experiment,0
9,35,10220,79,64,0,2,6,8,8.mid,experiment,0
10,37,10614,78,64,0,2,6,8,8.mid,experiment,0
11,39,10741,79,64,0,2,6,8,8.mid,experiment,0
12,41,10970,76,64,0,2,6,8,8.mid,experiment,0
13,43,11302,72,64,0,2,6,8,8.mid,experiment,0
14,45,11542,76,64,0,2,6,8,8.mid,experiment,0
15,47,11780,79,64,0,2,6,8,8.mid,experiment,0
16,49,12136,84,64,0,2,6,8,8.mid,experiment,0
17,50,12198,83,64,0,2,6,8,8.mid,experiment,0
18,52,12352,81,64,0,2,6,8,8.mid,experiment,0
19,54,12623,81,64,0,2,6,8,8.mid,experiment,0
20,56,12887,81,64,0,2,6,8,8.mid,experiment,0
21,59,13426,83,64,0,2,6,8,8.mid,experiment,0
22,61,13620,81,64,0,2,6,8,8.mid,experiment,0
23,63,13886,84,64,0,2,6,8,8.mid,experiment,0
24,65,14132,81,64,0,2,6,8,8.mid,experiment,0
25,66,14282,78,64,0,2,6,8,8.mid,experiment,0
26,68,14468,79,64,0,2,6,8,8.mid,experiment,0
27,70,14998,79,64,0,2,6,8,8.mid,experiment,0
28,72,15939,79,64,0,2,6,8,8.mid,experiment,0
29,74,16390,77,64,0,2,6,8,8.mid,experiment,0
30,76,16654,77,64,0,2,6,8,8.mid,experiment,0
31,78,16932,76,64,0,2,6,8,8.mid,experiment,0
32,80,17183,76,64,0,2,6,8,8.mid,experiment,0
33,82,18010,74,64,0,2,6,8,8.mid,experiment,0
34,84,18952,79,64,0,2,6,8,8.mid,experiment,0
35,86,19506,77,64,0,2,6,8,8.mid,experiment,0
36,88,19718,76,64,0,2,6,8,8.mid,experiment,0
37,90,19995,76,64,0,2,6,8,8.mid,experiment,0
38,92,20245,76,64,0,2,6,8,8.mid,experiment,0
39,94,20484,76,64,0,2,6,8,8.mid,experiment,0
40,97,21066,81,64,0,2,6,8,8.mid,experiment,0
41,99,21300,77,64,0,2,6,8,8.mid,experiment,0
42,101,21532,76,64,0,2,6,8,8.mid,experiment,0
43,103,21804,74,64,0,2,6,8,8.mid,experiment,0
44,105,22066,76,64,0,2,6,8,8.mid,experiment,0
45,107,22328,79,64,0,2,6,8,8.mid,experiment,0
46,109,22584,74,64,0,2,6,8,8.mid,experiment,0
47,110,22708,71,64,0,2,6,8,8.mid,experiment,0
48,112,22878,72,64,0,2,6,8,8.mid,experiment,0
49,114,23138,72,64,0,2,6,8,8.mid,experiment,0
50,116,23390,74,64,0,2,6,8,8.mid,experiment,0
51,118,23662,74,64,0,2,6,8,8.mid,experiment,0
52,120,24524,76,64,0,2,6,8,8.mid,experiment,0
53,122,25050,65,64,0,2,6,8,8.mid,experiment,0
54,124,25316,65,64,0,2,6,8,8.mid,experiment,0
55,126,25616,64,64,0,2,6,8,8.mid,experiment,0
56,128,25866,64,64,0,2,6,8,8.mid,experiment,0
57,130,26746,62,64,0,2,6,8,8.mid,experiment,0
58,132,27300,67,64,0,2,6,8,8.mid,experiment,0
59,134,27577,67,64,0,2,6,8,8.mid,experiment,0
60,136,27844,71,64,0,2,6,8,8.mid,experiment,0
61,138,28112,71,64,0,2,6,8,8.mid,experiment,0
62,140,28352,72,64,0,2,6,8,8.mid,experiment,0
63,142,28610,72,64,0,2,6,8,8.mid,experiment,0
64,144,28875,73,64,0,2,6,8,8.mid,experiment,0
65,146,29136,73,64,0,2,6,8,8.mid,experiment,0
66,148,29852,74,64,0,2,6,8,8.mid,experiment,0
67,150,30398,77,64,0,2,6,8,8.mid,experiment,0
68,152,30966,76,64,0,2,6,8,8.mid,experiment,0
69,154,31500,74,64,0,2,6,8,8.mid,experiment,0
70,156,31982,72,64,0,2,6,8,8.mid,experiment,0
71,158,32644,84,64,0,2,6,8,8.mid,experiment,0
72,160,33418,84,64,0,2,6,8,8.mid,experiment,0
1,19,8120,79,64,0,2,6,10,1.mid,experiment,0
2,21,8387,78,64,0,2,6,10,1.mid,experiment,0
3,23,8618,79,64,0,2,6,10,1.mid,experiment,0
4,25,8939,76,64,0,2,6,10,1.mid,experiment,0
5,26,8997,72,64,0,2,6,10,1.mid,experiment,0
6,28,9201,67,64,0,2,6,10,1.mid,experiment,0
7,30,9471,67,64,0,2,6,10,1.mid,experiment,0
8,32,9709,67,64,0,2,6,10,1.mid,experiment,0
9,35,10256,79,64,0,2,6,10,1.mid,experiment,0
10,37,10554,78,64,0,2,6,10,1.mid,experiment,0
11,39,10776,79,64,0,2,6,10,1.mid,experiment,0
12,41,11001,76,64,0,2,6,10,1.mid,experiment,0
13,43,11339,72,64,0,2,6,10,1.mid,experiment,0
14,45,11587,76,64,0,2,6,10,1.mid,experiment,0
15,47,11833,79,64,0,2,6,10,1.mid,experiment,0
16,49,12145,84,64,0,2,6,10,1.mid,experiment,0
17,50,12268,83,64,0,2,6,10,1.mid,experiment,0
18,52,12405,81,64,0,2,6,10,1.mid,experiment,0
19,54,12668,81,64,0,2,6,10,1.mid,experiment,0
20,56,12960,81,64,0,2,6,10,1.mid,experiment,0
21,59,13463,83,64,0,2,6,10,1.mid,experiment,0
22,61,13686,81,64,0,2,6,10,1.mid,experiment,0
23,63,13953,84,64,0,2,6,10,1.mid,experiment,0
24,65,14214,81,64,0,2,6,10,1.mid,experiment,0
25,66,14362,78,64,0,2,6,10,1.mid,experiment,0
26,68,14585,79,64,0,2,6,10,1.mid,experiment,0
27,70,15109,79,64,0,2,6,10,1.mid,experiment,0
28,72,16026,79,64,0,2,6,10,1.mid,experiment,0
29,74,16439,77,64,0,2,6,10,1.mid,experiment,0
30,76,16706,77,64,0,2,6,10,1.mid,experiment,0
31,78,16978,76,64,0,2,6,10,1.mid,experiment,0
32,80,17234,76,64,0,2,6,10,1.mid,experiment,0
33,82,18130,74,64,0,2,6,10,1.mid,experiment,0
34,84,19051,79,64,0,2,6,10,1.mid,experiment,0
35,86,19624,77,64,0,2,6,10,1.mid,experiment,0
36,88,19830,76,64,0,2,6,10,1.mid,experiment,0
37,90,20096,76,64,0,2,6,10,1.mid,experiment,0
38,92,20365,76,64,0,2,6,10,1.mid,experiment,0
39,94,20621,76,64,0,2,6,10,1.mid,experiment,0
40,97,21183,81,64,0,2,6,10,1.mid,experiment,0
41,99,21407,77,64,0,2,6,10,1.mid,experiment,0
42,101,21653,76,64,0,2,6,10,1.mid,experiment,0
43,103,21937,74,64,0,2,6,10,1.mid,experiment,0
44,105,22199,76,64,0,2,6,10,1.mid,experiment,0
45,107,22473,79,64,0,2,6,10,1.mid,experiment,0
46,109,22725,74,64,0,2,6,10,1.mid,experiment,0
47,110,22795,71,64,0,2,6,10,1.mid,experiment,0
48,112,22997,72,64,0,2,6,10,1.mid,experiment,0
49,114,23268,72,64,0,2,6,10,1.mid,experiment,0
50,116,23518,74,64,0,2,6,10,1.mid,experiment,0
51,118,23782,74,64,0,2,6,10,1.mid,experiment,0
52,120,24695,76,64,0,2,6,10,1.mid,experiment,0
53,122,25118,65,64,0,2,6,10,1.mid,experiment,0
54,124,25387,65,64,0,2,6,10,1.mid,experiment,0
55,126,25658,64,64,0,2,6,10,1.mid,experiment,0
56,128,25946,64,64,0,2,6,10,1.mid,experiment,0
57,130,26890,62,64,0,2,6,10,1.mid,experiment,0
58,132,27352,67,64,0,2,6,10,1.mid,experiment,0
59,134,27619,67,64,0,2,6,10,1.mid,experiment,0
60,136,27892,71,64,0,2,6,10,1.mid,experiment,0
61,138,28172,71,64,0,2,6,10,1.mid,experiment,0
62,140,28410,72,64,0,2,6,10,1.mid,experiment,0
63,142,28704,72,64,0,2,6,10,1.mid,experiment,0
64,144,28919,73,64,0,2,6,10,1.mid,experiment,0
65,146,29224,73,64,0,2,6,10,1.mid,experiment,0
66,148,29926,74,64,0,2,6,10,1.mid,experiment,0
67,150,30463,77,64,0,2,6,10,1.mid,experiment,0
68,152,31002,76,64,0,2,6,10,1.mid,experiment,0
69,154,31527,74,64,0,2,6,10,1.mid,experiment,0
70,156,32010,72,64,0,2,6,10,1.mid,experiment,0
71,158,32619,84,64,0,2,6,10,1.mid,experiment,0
72,160,33367,84,64,0,2,6,10,1.mid,experiment,0
1,19,8101,79,64,0,2,6,11,9.mid,experiment,0
2,21,8393,78,64,0,2,6,11,9.mid,experiment,0
3,23,8635,79,64,0,2,6,11,9.mid,experiment,0
4,25,8968,76,64,0,2,6,11,9.mid,experiment,0
5,26,9027,72,64,0,2,6,11,9.mid,experiment,0
6,28,9212,67,64,0,2,6,11,9.mid,experiment,0
7,30,9514,67,64,0,2,6,11,9.mid,experiment,0
8,32,9757,67,64,0,2,6,11,9.mid,experiment,0
9,35,10309,79,64,0,2,6,11,9.mid,experiment,0
10,37,10586,78,64,0,2,6,11,9.mid,experiment,0
11,39,10817,79,64,0,2,6,11,9.mid,experiment,0
12,41,11066,76,64,0,2,6,11,9.mid,experiment,0
13,43,11409,72,64,0,2,6,11,9.mid,experiment,0
14,45,11654,76,64,0,2,6,11,9.mid,experiment,0
15,47,11887,79,64,0,2,6,11,9.mid,experiment,0
16,49,12205,84,64,0,2,6,11,9.mid,experiment,0
17,50,12286,83,64,0,2,6,11,9.mid,experiment,0
18,52,12442,81,64,0,2,6,11,9.mid,experiment,0
19,54,12679,81,64,0,2,6,11,9.mid,experiment,0
20,56,12950,81,64,0,2,6,11,9.mid,experiment,0
21,59,13533,83,64,0,2,6,11,9.mid,experiment,0
22,61,13742,81,64,0,2,6,11,9.mid,experiment,0
23,63,14004,84,64,0,2,6,11,9.mid,experiment,0
24,65,14281,81,64,0,2,6,11,9.mid,experiment,0
25,66,14401,78,64,0,2,6,11,9.mid,experiment,0
26,68,14579,79,64,0,2,6,11,9.mid,experiment,0
27,70,15150,79,64,0,2,6,11,9.mid,experiment,0
28,72,16109,79,64,0,2,6,11,9.mid,experiment,0
29,74,16514,77,64,0,2,6,11,9.mid,experiment,0
30,76,16802,77,64,0,2,6,11,9.mid,experiment,0
31,78,17052,76,64,0,2,6,11,9.mid,experiment,0
32,80,17317,76,64,0,2,6,11,9.mid,experiment,0
33,82,18289,74,64,0,2,6,11,9.mid,experiment,0
34,84,19113,79,64,0,2,6,11,9.mid,experiment,0
35,86,19725,77,64,0,2,6,11,9.mid,experiment,0
36,88,19924,76,64,0,2,6,11,9.mid,experiment,0
37,90,20161,76,64,0,2,6,11,9.mid,experiment,0
38,92,20410,76,64,0,2,6,11,9.mid,experiment,0
39,94,20678,76,64,0,2,6,11,9.mid,experiment,0
40,97,21218,81,64,0,2,6,11,9.mid,experiment,0
41,99,21448,77,64,0,2,6,11,9.mid,experiment,0
42,101,21682,76,64,0,2,6,11,9.mid,experiment,0
43,103,21963,74,64,0,2,6,11,9.mid,experiment,0
44,105,22212,76,64,0,2,6,11,9.mid,experiment,0
45,107,22486,79,64,0,2,6,11,9.mid,experiment,0
46,109,22755,74,64,0,2,6,11,9.mid,experiment,0
47,110,22839,71,64,0,2,6,11,9.mid,experiment,0
48,112,23017,72,64,0,2,6,11,9.mid,experiment,0
49,114,23284,72,64,0,2,6,11,9.mid,experiment,0
50,116,23538,74,64,0,2,6,11,9.mid,experiment,0
51,118,23782,74,64,0,2,6,11,9.mid,experiment,0
52,120,24687,76,64,0,2,6,11,9.mid,experiment,0
53,122,25147,65,64,0,2,6,11,9.mid,experiment,0
54,124,25438,65,64,0,2,6,11,9.mid,experiment,0
55,126,25694,64,64,0,2,6,11,9.mid,experiment,0
56,128,25970,64,64,0,2,6,11,9.mid,experiment,0
57,130,26953,62,64,0,2,6,11,9.mid,experiment,0
58,132,27393,67,64,0,2,6,11,9.mid,experiment,0
59,134,27658,67,64,0,2,6,11,9.mid,experiment,0
60,136,27930,71,64,0,2,6,11,9.mid,experiment,0
61,138,28202,71,64,0,2,6,11,9.mid,experiment,0
62,140,28456,72,64,0,2,6,11,9.mid,experiment,0
63,142,28724,72,64,0,2,6,11,9.mid,experiment,0
64,144,28989,73,64,0,2,6,11,9.mid,experiment,0
65,146,29249,73,64,0,2,6,11,9.mid,experiment,0
66,148,30013,74,64,0,2,6,11,9.mid,experiment,0
67,150,30538,77,64,0,2,6,11,9.mid,experiment,0
68,152,31074,76,64,0,2,6,11,9.mid,experiment,0
69,154,31632,74,64,0,2,6,11,9.mid,experiment,0
70,156,32180,72,64,0,2,6,11,9.mid,experiment,0
71,158,32734,84,64,0,2,6,11,9.mid,experiment,0
72,160,33611,84,64,0,2,6,11,9.mid,experiment,0
1,19,8122,79,64,0,2,6,14,16.mid,experiment,0
2,21,8403,78,64,0,2,6,14,16.mid,experiment,0
3,23,8619,79,64,0,2,6,14,16.mid,experiment,0
4,25,8930,76,64,0,2,6,14,16.mid,experiment,0
5,26,9001,72,64,0,2,6,14,16.mid,experiment,0
6,28,9186,67,64,0,2,6,14,16.mid,experiment,0
7,30,9477,67,64,0,2,6,14,16.mid,experiment,0
8,32,9722,67,64,0,2,6,14,16.mid,experiment,0
9,35,10275,79,64,0,2,6,14,16.mid,experiment,0
10,37,10564,78,64,0,2,6,14,16.mid,experiment,0
11,39,10788,79,64,0,2,6,14,16.mid,experiment,0
12,41,11038,76,64,0,2,6,14,16.mid,experiment,0
13,43,11367,72,64,0,2,6,14,16.mid,experiment,0
14,45,11620,76,64,0,2,6,14,16.mid,experiment,0
15,47,11876,79,64,0,2,6,14,16.mid,experiment,0
16,49,12192,84,64,0,2,6,14,16.mid,experiment,0
17,50,12257,83,64,0,2,6,14,16.mid,experiment,0
18,52,12448,81,64,0,2,6,14,16.mid,experiment,0
19,54,12699,81,64,0,2,6,14,16.mid,experiment,0
20,56,12954,81,64,0,2,6,14,16.mid,experiment,0
21,59,13512,83,64,0,2,6,14,16.mid,experiment,0
22,61,13728,81,64,0,2,6,14,16.mid,experiment,0
23,63,14023,84,64,0,2,6,14,16.mid,experiment,0
24,65,14264,81,64,0,2,6,14,16.mid,experiment,0
25,66,14428,78,64,0,2,6,14,16.mid,experiment,0
26,68,14629,79,64,0,2,6,14,16.mid,experiment,0
27,70,15164,79,64,0,2,6,14,16.mid,experiment,0
28,72,16065,79,64,0,2,6,14,16.mid,experiment,0
29,74,16500,77,64,0,2,6,14,16.mid,experiment,0
30,76,16767,77,64,0,2,6,14,16.mid,experiment,0
31,78,17031,76,64,0,2,6,14,16.mid,experiment,0
32,80,17313,76,64,0,2,6,14,16.mid,experiment,0
33,82,18355,74,64,0,2,6,14,16.mid,experiment,0
34,84,19107,79,64,0,2,6,14,16.mid,experiment,0
35,86,19714,77,64,0,2,6,14,16.mid,experiment,0
36,88,19929,76,64,0,2,6,14,16.mid,experiment,0
37,90,20214,76,64,0,2,6,14,16.mid,experiment,0
38,92,20479,76,64,0,2,6,14,16.mid,experiment,0
39,94,20748,76,64,0,2,6,14,16.mid,experiment,0
40,97,21287,81,64,0,2,6,14,16.mid,experiment,0
41,99,21540,77,64,0,2,6,14,16.mid,experiment,0
42,101,21765,76,64,0,2,6,14,16.mid,experiment,0
43,103,22033,74,64,0,2,6,14,16.mid,experiment,0
44,105,22275,76,64,0,2,6,14,16.mid,experiment,0
45,107,22545,79,64,0,2,6,14,16.mid,experiment,0
46,109,22835,74,64,0,2,6,14,16.mid,experiment,0
47,110,22933,71,64,0,2,6,14,16.mid,experiment,0
48,112,23112,72,64,0,2,6,14,16.mid,experiment,0
49,114,23388,72,64,0,2,6,14,16.mid,experiment,0
50,116,23632,74,64,0,2,6,14,16.mid,experiment,0
51,118,23890,74,64,0,2,6,14,16.mid,experiment,0
52,120,24751,76,64,0,2,6,14,16.mid,experiment,0
53,122,25210,65,64,0,2,6,14,16.mid,experiment,0
54,124,25485,65,64,0,2,6,14,16.mid,experiment,0
55,126,25773,64,64,0,2,6,14,16.mid,experiment,0
56,128,26037,64,64,0,2,6,14,16.mid,experiment,0
57,130,26989,62,64,0,2,6,14,16.mid,experiment,0
58,132,27432,67,64,0,2,6,14,16.mid,experiment,0
59,134,27728,67,64,0,2,6,14,16.mid,experiment,0
60,136,27973,71,64,0,2,6,14,16.mid,experiment,0
61,138,28262,71,64,0,2,6,14,16.mid,experiment,0
62,140,28499,72,64,0,2,6,14,16.mid,experiment,0
63,142,28765,72,64,0,2,6,14,16.mid,experiment,0
64,144,29029,73,64,0,2,6,14,16.mid,experiment,0
65,146,29265,73,64,0,2,6,14,16.mid,experiment,0
66,148,29994,74,64,0,2,6,14,16.mid,experiment,0
67,150,30533,77,64,0,2,6,14,16.mid,experiment,0
68,152,31067,76,64,0,2,6,14,16.mid,experiment,0
69,154,31634,74,64,0,2,6,14,16.mid,experiment,0
70,156,32192,72,64,0,2,6,14,16.mid,experiment,0
71,158,32724,84,64,0,2,6,14,16.mid,experiment,0
72,160,33509,84,64,0,2,6,14,16.mid,experiment,0
1,19,8106,79,64,0,2,6,15,15.mid,experiment,0
2,21,8384,78,64,0,2,6,15,15.mid,experiment,0
3,23,8601,79,64,0,2,6,15,15.mid,experiment,0
4,25,8925,76,64,0,2,6,15,15.mid,experiment,0
5,26,8977,72,64,0,2,6,15,15.mid,experiment,0
6,28,9200,67,64,0,2,6,15,15.mid,experiment,0
7,30,9467,67,64,0,2,6,15,15.mid,experiment,0
8,32,9720,67,64,0,2,6,15,15.mid,experiment,0
9,35,10294,79,64,0,2,6,15,15.mid,experiment,0
10,37,10583,78,64,0,2,6,15,15.mid,experiment,0
11,39,10803,79,64,0,2,6,15,15.mid,experiment,0
12,41,11048,76,64,0,2,6,15,15.mid,experiment,0
13,43,11349,72,64,0,2,6,15,15.mid,experiment,0
14,45,11632,76,64,0,2,6,15,15.mid,experiment,0
15,47,11844,79,64,0,2,6,15,15.mid,experiment,0
16,49,12229,84,64,0,2,6,15,15.mid,experiment,0
17,50,12272,83,64,0,2,6,15,15.mid,experiment,0
18,52,12443,81,64,0,2,6,15,15.mid,experiment,0
19,54,12680,81,64,0,2,6,15,15.mid,experiment,0
20,56,12943,81,64,0,2,6,15,15.mid,experiment,0
21,59,13487,83,64,0,2,6,15,15.mid,experiment,0
22,61,13700,81,64,0,2,6,15,15.mid,experiment,0
23,63,13976,84,64,0,2,6,15,15.mid,experiment,0
24,65,14238,81,64,0,2,6,15,15.mid,experiment,0
25,66,14384,78,64,0,2,6,15,15.mid,experiment,0
26,68,14518,79,64,0,2,6,15,15.mid,experiment,0
27,70,15119,79,64,0,2,6,15,15.mid,experiment,0
28,72,16029,79,64,0,2,6,15,15.mid,experiment,0
29,74,16476,77,64,0,2,6,15,15.mid,experiment,0
30,76,16736,77,64,0,2,6,15,15.mid,experiment,0
31,78,17011,76,64,0,2,6,15,15.mid,experiment,0
32,80,17272,76,64,0,2,6,15,15.mid,experiment,0
33,82,18157,74,64,0,2,6,15,15.mid,experiment,0
34,84,19005,79,64,0,2,6,15,15.mid,experiment,0
35,86,19552,77,64,0,2,6,15,15.mid,experiment,0
36,88,19817,76,64,0,2,6,15,15.mid,experiment,0
37,90,20071,76,64,0,2,6,15,15.mid,experiment,0
38,92,20334,76,64,0,2,6,15,15.mid,experiment,0
39,94,20581,76,64,0,2,6,15,15.mid,experiment,0
40,97,21130,81,64,0,2,6,15,15.mid,experiment,0
41,99,21382,77,64,0,2,6,15,15.mid,experiment,0
42,101,21617,76,64,0,2,6,15,15.mid,experiment,0
43,103,21880,74,64,0,2,6,15,15.mid,experiment,0
44,105,22128,76,64,0,2,6,15,15.mid,experiment,0
45,107,22384,79,64,0,2,6,15,15.mid,experiment,0
46,109,22671,74,64,0,2,6,15,15.mid,experiment,0
47,110,22793,71,64,0,2,6,15,15.mid,experiment,0
48,112,22957,72,64,0,2,6,15,15.mid,experiment,0
49,114,23206,72,64,0,2,6,15,15.mid,experiment,0
50,116,23451,74,64,0,2,6,15,15.mid,experiment,0
51,118,23712,74,64,0,2,6,15,15.mid,experiment,0
52,120,24619,76,64,0,2,6,15,15.mid,experiment,0
53,122,25114,65,64,0,2,6,15,15.mid,experiment,0
54,124,25420,65,64,0,2,6,15,15.mid,experiment,0
55,126,25691,64,64,0,2,6,15,15.mid,experiment,0
56,128,25955,64,64,0,2,6,15,15.mid,experiment,0
57,130,26877,62,64,0,2,6,15,15.mid,experiment,0
58,132,27362,67,64,0,2,6,15,15.mid,experiment,0
59,134,27635,67,64,0,2,6,15,15.mid,experiment,0
60,136,27897,71,64,0,2,6,15,15.mid,experiment,0
61,138,28181,71,64,0,2,6,15,15.mid,experiment,0
62,140,28410,72,64,0,2,6,15,15.mid,experiment,0
63,142,28677,72,64,0,2,6,15,15.mid,experiment,0
64,144,28936,73,64,0,2,6,15,15.mid,experiment,0
65,146,29186,73,64,0,2,6,15,15.mid,experiment,0
66,148,29925,74,64,0,2,6,15,15.mid,experiment,0
67,150,30455,77,64,0,2,6,15,15.mid,experiment,0
68,152,30987,76,64,0,2,6,15,15.mid,experiment,0
69,154,31524,74,64,0,2,6,15,15.mid,experiment,0
70,156,32069,72,64,0,2,6,15,15.mid,experiment,0
71,158,32592,84,64,0,2,6,15,15.mid,experiment,0
72,160,33292,84,64,0,2,6,15,15.mid,experiment,0
1,19,8287,79,64,0,2,7,2,11.mid,experiment,0
2,22,8844,78,64,0,2,7,2,11.mid,experiment,0
3,23,8885,79,64,0,2,7,2,11.mid,experiment,0
4,25,9165,76,64,0,2,7,2,11.mid,experiment,0
5,26,9275,72,64,0,2,7,2,11.mid,experiment,0
6,28,9471,67,64,0,2,7,2,11.mid,experiment,0
7,30,9759,67,64,0,2,7,2,11.mid,experiment,0
8,32,10047,67,64,0,2,7,2,11.mid,experiment,0
9,35,10661,79,64,0,2,7,2,11.mid,experiment,0
10,37,10959,78,64,0,2,7,2,11.mid,experiment,0
11,39,11212,79,64,0,2,7,2,11.mid,experiment,0
12,40,11485,76,64,0,2,7,2,11.mid,experiment,0
13,43,11834,72,64,0,2,7,2,11.mid,experiment,0
14,45,12233,76,64,0,2,7,2,11.mid,experiment,0
15,47,12431,79,64,0,2,7,2,11.mid,experiment,0
16,49,12766,84,64,0,2,7,2,11.mid,experiment,0
17,50,12923,83,64,0,2,7,2,11.mid,experiment,0
18,52,13080,81,64,0,2,7,2,11.mid,experiment,0
19,54,13377,81,64,0,2,7,2,11.mid,experiment,0
20,56,13673,81,64,0,2,7,2,11.mid,experiment,0
21,59,14267,83,64,0,2,7,2,11.mid,experiment,0
22,61,14533,81,64,0,2,7,2,11.mid,experiment,0
23,63,14803,84,64,0,2,7,2,11.mid,experiment,0
24,65,15118,81,64,0,2,7,2,11.mid,experiment,0
25,66,15331,78,64,0,2,7,2,11.mid,experiment,0
26,68,15523,79,64,0,2,7,2,11.mid,experiment,0
27,70,16007,79,64,0,2,7,2,11.mid,experiment,0
28,72,16960,79,64,0,2,7,2,11.mid,experiment,0
29,74,17655,77,64,0,2,7,2,11.mid,experiment,0
30,76,17939,77,64,0,2,7,2,11.mid,experiment,0
31,78,18227,76,64,0,2,7,2,11.mid,experiment,0
32,80,18519,76,64,0,2,7,2,11.mid,experiment,0
33,82,19371,74,64,0,2,7,2,11.mid,experiment,0
34,84,20447,79,64,0,2,7,2,11.mid,experiment,0
35,86,20903,77,64,0,2,7,2,11.mid,experiment,0
36,88,21207,76,64,0,2,7,2,11.mid,experiment,0
37,90,21495,76,64,0,2,7,2,11.mid,experiment,0
38,92,21777,76,64,0,2,7,2,11.mid,experiment,0
39,94,22056,76,64,0,2,7,2,11.mid,experiment,0
40,97,22749,81,64,0,2,7,2,11.mid,experiment,0
41,99,22969,77,64,0,2,7,2,11.mid,experiment,0
42,100,23198,76,64,0,2,7,2,11.mid,experiment,0
43,103,23513,74,64,0,2,7,2,11.mid,experiment,0
44,105,23855,76,64,0,2,7,2,11.mid,experiment,0
45,107,24135,79,64,0,2,7,2,11.mid,experiment,0
46,108,24335,74,64,0,2,7,2,11.mid,experiment,0
47,110,24443,71,64,0,2,7,2,11.mid,experiment,0
48,112,24718,72,64,0,2,7,2,11.mid,experiment,0
49,114,25009,72,64,0,2,7,2,11.mid,experiment,0
50,116,25304,74,64,0,2,7,2,11.mid,experiment,0
51,118,25615,74,64,0,2,7,2,11.mid,experiment,0
52,120,26427,76,64,0,2,7,2,11.mid,experiment,0
53,122,27101,65,64,0,2,7,2,11.mid,experiment,0
54,124,27377,65,64,0,2,7,2,11.mid,experiment,0
55,126,27695,64,64,0,2,7,2,11.mid,experiment,0
56,128,27993,64,64,0,2,7,2,11.mid,experiment,0
57,130,28909,62,64,0,2,7,2,11.mid,experiment,0
58,132,29486,67,64,0,2,7,2,11.mid,experiment,0
59,134,29782,67,64,0,2,7,2,11.mid,experiment,0
60,136,30103,71,64,0,2,7,2,11.mid,experiment,0
61,138,30377,71,64,0,2,7,2,11.mid,experiment,0
62,140,30659,72,64,0,2,7,2,11.mid,experiment,0
63,142,30941,72,64,0,2,7,2,11.mid,experiment,0
64,144,31235,73,64,0,2,7,2,11.mid,experiment,0
65,146,31520,73,64,0,2,7,2,11.mid,experiment,0
66,148,32349,74,64,0,2,7,2,11.mid,experiment,0
67,150,32949,77,64,0,2,7,2,11.mid,experiment,0
68,152,33573,76,64,0,2,7,2,11.mid,experiment,0
69,154,34088,74,64,0,2,7,2,11.mid,experiment,0
70,156,34629,72,64,0,2,7,2,11.mid,experiment,0
71,158,35191,84,64,0,2,7,2,11.mid,experiment,0
72,160,36319,84,64,0,2,7,2,11.mid,experiment,0
1,19,8131,79,64,0,2,7,4,13.mid,experiment,0
2,21,8595,78,64,0,2,7,4,13.mid,experiment,0
3,22,8651,79,64,0,2,7,4,13.mid,experiment,0
4,25,9010,76,64,0,2,7,4,13.mid,experiment,0
5,26,9044,72,64,0,2,7,4,13.mid,experiment,0
6,28,9287,67,64,0,2,7,4,13.mid,experiment,0
7,30,9553,67,64,0,2,7,4,13.mid,experiment,0
8,32,9824,67,64,0,2,7,4,13.mid,experiment,0
9,35,10399,79,64,0,2,7,4,13.mid,experiment,0
10,37,10690,78,64,0,2,7,4,13.mid,experiment,0
11,39,10958,79,64,0,2,7,4,13.mid,experiment,0
12,40,11165,76,64,0,2,7,4,13.mid,experiment,0
13,43,11480,72,64,0,2,7,4,13.mid,experiment,0
14,45,11775,76,64,0,2,7,4,13.mid,experiment,0
15,47,12028,79,64,0,2,7,4,13.mid,experiment,0
16,49,12331,84,64,0,2,7,4,13.mid,experiment,0
17,50,12495,83,64,0,2,7,4,13.mid,experiment,0
18,52,12640,81,64,0,2,7,4,13.mid,experiment,0
19,54,12913,81,64,0,2,7,4,13.mid,experiment,0
20,56,13191,81,64,0,2,7,4,13.mid,experiment,0
21,59,13740,83,64,0,2,7,4,13.mid,experiment,0
22,61,13992,81,64,0,2,7,4,13.mid,experiment,0
23,62,14257,84,64,0,2,7,4,13.mid,experiment,0
24,64,14374,81,64,0,2,7,4,13.mid,experiment,0
25,67,14872,78,64,0,2,7,4,13.mid,experiment,0
26,68,14891,79,64,0,2,7,4,13.mid,experiment,0
27,70,15311,79,64,0,2,7,4,13.mid,experiment,0
28,72,16221,79,64,0,2,7,4,13.mid,experiment,0
29,74,16841,77,64,0,2,7,4,13.mid,experiment,0
30,76,17117,77,64,0,2,7,4,13.mid,experiment,0
31,78,17411,76,64,0,2,7,4,13.mid,experiment,0
32,80,17676,76,64,0,2,7,4,13.mid,experiment,0
33,82,18415,74,64,0,2,7,4,13.mid,experiment,0
34,84,19434,79,64,0,2,7,4,13.mid,experiment,0
35,86,19838,77,64,0,2,7,4,13.mid,experiment,0
36,88,20201,76,64,0,2,7,4,13.mid,experiment,0
37,90,20481,76,64,0,2,7,4,13.mid,experiment,0
38,92,20781,76,64,0,2,7,4,13.mid,experiment,0
39,94,21029,76,64,0,2,7,4,13.mid,experiment,0
40,97,21701,81,64,0,2,7,4,13.mid,experiment,0
41,99,21867,77,64,0,2,7,4,13.mid,experiment,0
42,100,22099,76,64,0,2,7,4,13.mid,experiment,0
43,103,22471,74,64,0,2,7,4,13.mid,experiment,0
44,105,22755,76,64,0,2,7,4,13.mid,experiment,0
45,107,23039,79,64,0,2,7,4,13.mid,experiment,0
46,108,23227,74,64,0,2,7,4,13.mid,experiment,0
47,110,23293,71,64,0,2,7,4,13.mid,experiment,0
48,112,23576,72,64,0,2,7,4,13.mid,experiment,0
49,114,23854,72,64,0,2,7,4,13.mid,experiment,0
50,116,24133,74,64,0,2,7,4,13.mid,experiment,0
51,118,24410,74,64,0,2,7,4,13.mid,experiment,0
52,120,25236,76,64,0,2,7,4,13.mid,experiment,0
53,122,25849,65,64,0,2,7,4,13.mid,experiment,0
54,124,26132,65,64,0,2,7,4,13.mid,experiment,0
55,126,26432,64,64,0,2,7,4,13.mid,experiment,0
56,128,26713,64,64,0,2,7,4,13.mid,experiment,0
57,130,27517,62,64,0,2,7,4,13.mid,experiment,0
58,132,28131,67,64,0,2,7,4,13.mid,experiment,0
59,134,28391,67,64,0,2,7,4,13.mid,experiment,0
60,136,28699,71,64,0,2,7,4,13.mid,experiment,0
61,138,28949,71,64,0,2,7,4,13.mid,experiment,0
62,140,29240,72,64,0,2,7,4,13.mid,experiment,0
63,142,29499,72,64,0,2,7,4,13.mid,experiment,0
64,144,29791,73,64,0,2,7,4,13.mid,experiment,0
65,146,30091,73,64,0,2,7,4,13.mid,experiment,0
66,148,30814,74,64,0,2,7,4,13.mid,experiment,0
67,150,31395,77,64,0,2,7,4,13.mid,experiment,0
68,152,32017,76,64,0,2,7,4,13.mid,experiment,0
69,154,32467,74,64,0,2,7,4,13.mid,experiment,0
70,156,32998,72,64,0,2,7,4,13.mid,experiment,0
71,158,33447,84,64,0,2,7,4,13.mid,experiment,0
72,160,34471,84,64,0,2,7,4,13.mid,experiment,0
1,19,8173,79,64,0,2,7,5,14.mid,experiment,0
2,21,8470,78,64,0,2,7,5,14.mid,experiment,0
3,23,8696,79,64,0,2,7,5,14.mid,experiment,0
4,24,8954,76,64,0,2,7,5,14.mid,experiment,0
5,26,9087,72,64,0,2,7,5,14.mid,experiment,0
6,28,9302,67,64,0,2,7,5,14.mid,experiment,0
7,30,9572,67,64,0,2,7,5,14.mid,experiment,0
8,32,9870,67,64,0,2,7,5,14.mid,experiment,0
9,35,10467,79,64,0,2,7,5,14.mid,experiment,0
10,37,10750,78,64,0,2,7,5,14.mid,experiment,0
11,39,11022,79,64,0,2,7,5,14.mid,experiment,0
12,40,11232,76,64,0,2,7,5,14.mid,experiment,0
13,43,11605,72,64,0,2,7,5,14.mid,experiment,0
14,45,11849,76,64,0,2,7,5,14.mid,experiment,0
15,47,12099,79,64,0,2,7,5,14.mid,experiment,0
16,49,12427,84,64,0,2,7,5,14.mid,experiment,0
17,50,12582,83,64,0,2,7,5,14.mid,experiment,0
18,52,12719,81,64,0,2,7,5,14.mid,experiment,0
19,54,12999,81,64,0,2,7,5,14.mid,experiment,0
20,56,13282,81,64,0,2,7,5,14.mid,experiment,0
21,59,13860,83,64,0,2,7,5,14.mid,experiment,0
22,61,14116,81,64,0,2,7,5,14.mid,experiment,0
23,63,14382,84,64,0,2,7,5,14.mid,experiment,0
24,65,14688,81,64,0,2,7,5,14.mid,experiment,0
25,66,14831,78,64,0,2,7,5,14.mid,experiment,0
26,68,15013,79,64,0,2,7,5,14.mid,experiment,0
27,70,15568,79,64,0,2,7,5,14.mid,experiment,0
28,72,16470,79,64,0,2,7,5,14.mid,experiment,0
29,74,17143,77,64,0,2,7,5,14.mid,experiment,0
30,76,17414,77,64,0,2,7,5,14.mid,experiment,0
31,78,17706,76,64,0,2,7,5,14.mid,experiment,0
32,80,17981,76,64,0,2,7,5,14.mid,experiment,0
33,82,18945,74,64,0,2,7,5,14.mid,experiment,0
34,84,19886,79,64,0,2,7,5,14.mid,experiment,0
35,86,20373,77,64,0,2,7,5,14.mid,experiment,0
36,88,20639,76,64,0,2,7,5,14.mid,experiment,0
37,90,20920,76,64,0,2,7,5,14.mid,experiment,0
38,92,21203,76,64,0,2,7,5,14.mid,experiment,0
39,94,21482,76,64,0,2,7,5,14.mid,experiment,0
40,97,22121,81,64,0,2,7,5,14.mid,experiment,0
41,99,22378,77,64,0,2,7,5,14.mid,experiment,0
42,101,22620,76,64,0,2,7,5,14.mid,experiment,0
43,103,22934,74,64,0,2,7,5,14.mid,experiment,0
44,105,23212,76,64,0,2,7,5,14.mid,experiment,0
45,107,23553,79,64,0,2,7,5,14.mid,experiment,0
46,108,23735,74,64,0,2,7,5,14.mid,experiment,0
47,110,23796,71,64,0,2,7,5,14.mid,experiment,0
48,112,24087,72,64,0,2,7,5,14.mid,experiment,0
49,114,24372,72,64,0,2,7,5,14.mid,experiment,0
50,116,24640,74,64,0,2,7,5,14.mid,experiment,0
51,118,24947,74,64,0,2,7,5,14.mid,experiment,0
52,120,25830,76,64,0,2,7,5,14.mid,experiment,0
53,122,26384,65,64,0,2,7,5,14.mid,experiment,0
54,124,26649,65,64,0,2,7,5,14.mid,experiment,0
55,126,26957,64,64,0,2,7,5,14.mid,experiment,0
56,128,27236,64,64,0,2,7,5,14.mid,experiment,0
57,130,28164,62,64,0,2,7,5,14.mid,experiment,0
58,132,28718,67,64,0,2,7,5,14.mid,experiment,0
59,134,28997,67,64,0,2,7,5,14.mid,experiment,0
60,136,29272,71,64,0,2,7,5,14.mid,experiment,0
61,138,29568,71,64,0,2,7,5,14.mid,experiment,0
62,140,29844,72,64,0,2,7,5,14.mid,experiment,0
63,142,30110,72,64,0,2,7,5,14.mid,experiment,0
64,144,30391,73,64,0,2,7,5,14.mid,experiment,0
65,146,30677,73,64,0,2,7,5,14.mid,experiment,0
66,148,31497,74,64,0,2,7,5,14.mid,experiment,0
67,151,32160,77,64,0,2,7,5,14.mid,experiment,0
68,152,32680,76,64,0,2,7,5,14.mid,experiment,0
69,154,33178,74,64,0,2,7,5,14.mid,experiment,0
70,156,33747,72,64,0,2,7,5,14.mid,experiment,0
71,158,34182,84,64,0,2,7,5,14.mid,experiment,0
72,160,35197,84,64,0,2,7,5,14.mid,experiment,0
1,19,8218,79,64,0,2,7,6,8.mid,experiment,0
2,21,8579,78,64,0,2,7,6,8.mid,experiment,0
3,23,8751,79,64,0,2,7,6,8.mid,experiment,0
4,25,9057,76,64,0,2,7,6,8.mid,experiment,0
5,26,9138,72,64,0,2,7,6,8.mid,experiment,0
6,28,9377,67,64,0,2,7,6,8.mid,experiment,0
7,30,9660,67,64,0,2,7,6,8.mid,experiment,0
8,32,9931,67,64,0,2,7,6,8.mid,experiment,0
9,35,10554,79,64,0,2,7,6,8.mid,experiment,0
10,37,10829,78,64,0,2,7,6,8.mid,experiment,0
11,39,11096,79,64,0,2,7,6,8.mid,experiment,0
12,40,11306,76,64,0,2,7,6,8.mid,experiment,0
13,43,11703,72,64,0,2,7,6,8.mid,experiment,0
14,45,11991,76,64,0,2,7,6,8.mid,experiment,0
15,47,12199,79,64,0,2,7,6,8.mid,experiment,0
16,49,12522,84,64,0,2,7,6,8.mid,experiment,0
17,50,12609,83,64,0,2,7,6,8.mid,experiment,0
18,52,12816,81,64,0,2,7,6,8.mid,experiment,0
19,54,13087,81,64,0,2,7,6,8.mid,experiment,0
20,56,13370,81,64,0,2,7,6,8.mid,experiment,0
21,59,13970,83,64,0,2,7,6,8.mid,experiment,0
22,61,14210,81,64,0,2,7,6,8.mid,experiment,0
23,63,14452,84,64,0,2,7,6,8.mid,experiment,0
24,65,14767,81,64,0,2,7,6,8.mid,experiment,0
25,66,14914,78,64,0,2,7,6,8.mid,experiment,0
26,68,15111,79,64,0,2,7,6,8.mid,experiment,0
27,70,15510,79,64,0,2,7,6,8.mid,experiment,0
28,72,16490,79,64,0,2,7,6,8.mid,experiment,0
29,74,17146,77,64,0,2,7,6,8.mid,experiment,0
30,76,17413,77,64,0,2,7,6,8.mid,experiment,0
31,78,17697,76,64,0,2,7,6,8.mid,experiment,0
32,80,17985,76,64,0,2,7,6,8.mid,experiment,0
33,82,18894,74,64,0,2,7,6,8.mid,experiment,0
34,84,19897,79,64,0,2,7,6,8.mid,experiment,0
35,86,20355,77,64,0,2,7,6,8.mid,experiment,0
36,88,20672,76,64,0,2,7,6,8.mid,experiment,0
37,90,20947,76,64,0,2,7,6,8.mid,experiment,0
38,92,21235,76,64,0,2,7,6,8.mid,experiment,0
39,94,21517,76,64,0,2,7,6,8.mid,experiment,0
40,97,22149,81,64,0,2,7,6,8.mid,experiment,0
41,99,22416,77,64,0,2,7,6,8.mid,experiment,0
42,101,22662,76,64,0,2,7,6,8.mid,experiment,0
43,103,22987,74,64,0,2,7,6,8.mid,experiment,0
44,105,23259,76,64,0,2,7,6,8.mid,experiment,0
45,107,23588,79,64,0,2,7,6,8.mid,experiment,0
46,108,23763,74,64,0,2,7,6,8.mid,experiment,0
47,110,23830,71,64,0,2,7,6,8.mid,experiment,0
48,112,24110,72,64,0,2,7,6,8.mid,experiment,0
49,114,24375,72,64,0,2,7,6,8.mid,experiment,0
50,116,24667,74,64,0,2,7,6,8.mid,experiment,0
51,118,24954,74,64,0,2,7,6,8.mid,experiment,0
52,120,25822,76,64,0,2,7,6,8.mid,experiment,0
53,122,26436,65,64,0,2,7,6,8.mid,experiment,0
54,124,26721,65,64,0,2,7,6,8.mid,experiment,0
55,126,27028,64,64,0,2,7,6,8.mid,experiment,0
56,128,27315,64,64,0,2,7,6,8.mid,experiment,0
57,130,28236,62,64,0,2,7,6,8.mid,experiment,0
58,132,28822,67,64,0,2,7,6,8.mid,experiment,0
59,134,29103,67,64,0,2,7,6,8.mid,experiment,0
60,136,29401,71,64,0,2,7,6,8.mid,experiment,0
61,138,29690,71,64,0,2,7,6,8.mid,experiment,0
62,140,29951,72,64,0,2,7,6,8.mid,experiment,0
63,142,30232,72,64,0,2,7,6,8.mid,experiment,0
64,144,30514,73,64,0,2,7,6,8.mid,experiment,0
65,146,30791,73,64,0,2,7,6,8.mid,experiment,0
66,148,31658,74,64,0,2,7,6,8.mid,experiment,0
67,150,32155,77,64,0,2,7,6,8.mid,experiment,0
68,152,32789,76,64,0,2,7,6,8.mid,experiment,0
69,154,33265,74,64,0,2,7,6,8.mid,experiment,0
70,156,33835,72,64,0,2,7,6,8.mid,experiment,0
71,158,34307,84,64,0,2,7,6,8.mid,experiment,0
72,160,35338,84,64,0,2,7,6,8.mid,experiment,0
1,19,8179,79,64,0,2,7,7,9.mid,experiment,0
2,21,8481,78,64,0,2,7,7,9.mid,experiment,0
3,23,8718,79,64,0,2,7,7,9.mid,experiment,0
4,25,9029,76,64,0,2,7,7,9.mid,experiment,0
5,26,9115,72,64,0,2,7,7,9.mid,experiment,0
6,28,9309,67,64,0,2,7,7,9.mid,experiment,0
7,30,9602,67,64,0,2,7,7,9.mid,experiment,0
8,32,9870,67,64,0,2,7,7,9.mid,experiment,0
9,35,10455,79,64,0,2,7,7,9.mid,experiment,0
10,37,10753,78,64,0,2,7,7,9.mid,experiment,0
11,39,10999,79,64,0,2,7,7,9.mid,experiment,0
12,40,11209,76,64,0,2,7,7,9.mid,experiment,0
13,43,11559,72,64,0,2,7,7,9.mid,experiment,0
14,45,11823,76,64,0,2,7,7,9.mid,experiment,0
15,47,12067,79,64,0,2,7,7,9.mid,experiment,0
16,49,12407,84,64,0,2,7,7,9.mid,experiment,0
17,50,12470,83,64,0,2,7,7,9.mid,experiment,0
18,52,12699,81,64,0,2,7,7,9.mid,experiment,0
19,54,12973,81,64,0,2,7,7,9.mid,experiment,0
20,56,13241,81,64,0,2,7,7,9.mid,experiment,0
21,59,13824,83,64,0,2,7,7,9.mid,experiment,0
22,61,14079,81,64,0,2,7,7,9.mid,experiment,0
23,63,14334,84,64,0,2,7,7,9.mid,experiment,0
24,65,14651,81,64,0,2,7,7,9.mid,experiment,0
25,66,14726,78,64,0,2,7,7,9.mid,experiment,0
26,68,14957,79,64,0,2,7,7,9.mid,experiment,0
27,70,15463,79,64,0,2,7,7,9.mid,experiment,0
28,72,16399,79,64,0,2,7,7,9.mid,experiment,0
29,74,16986,77,64,0,2,7,7,9.mid,experiment,0
30,76,17263,77,64,0,2,7,7,9.mid,experiment,0
31,78,17555,76,64,0,2,7,7,9.mid,experiment,0
32,80,17849,76,64,0,2,7,7,9.mid,experiment,0
33,82,18633,74,64,0,2,7,7,9.mid,experiment,0
34,84,19805,79,64,0,2,7,7,9.mid,experiment,0
35,86,20247,77,64,0,2,7,7,9.mid,experiment,0
36,88,20496,76,64,0,2,7,7,9.mid,experiment,0
37,90,20763,76,64,0,2,7,7,9.mid,experiment,0
38,92,21047,76,64,0,2,7,7,9.mid,experiment,0
39,94,21334,76,64,0,2,7,7,9.mid,experiment,0
40,97,22015,81,64,0,2,7,7,9.mid,experiment,0
41,99,22233,77,64,0,2,7,7,9.mid,experiment,0
42,101,22470,76,64,0,2,7,7,9.mid,experiment,0
43,103,22801,74,64,0,2,7,7,9.mid,experiment,0
44,105,23082,76,64,0,2,7,7,9.mid,experiment,0
45,107,23371,79,64,0,2,7,7,9.mid,experiment,0
46,108,23575,74,64,0,2,7,7,9.mid,experiment,0
47,110,23653,71,64,0,2,7,7,9.mid,experiment,0
48,112,23951,72,64,0,2,7,7,9.mid,experiment,0
49,114,24203,72,64,0,2,7,7,9.mid,experiment,0
50,116,24499,74,64,0,2,7,7,9.mid,experiment,0
51,118,24791,74,64,0,2,7,7,9.mid,experiment,0
52,120,25609,76,64,0,2,7,7,9.mid,experiment,0
53,122,26225,65,64,0,2,7,7,9.mid,experiment,0
54,124,26503,65,64,0,2,7,7,9.mid,experiment,0
55,126,26799,64,64,0,2,7,7,9.mid,experiment,0
56,128,27084,64,64,0,2,7,7,9.mid,experiment,0
57,130,27957,62,64,0,2,7,7,9.mid,experiment,0
58,132,28552,67,64,0,2,7,7,9.mid,experiment,0
59,134,28829,67,64,0,2,7,7,9.mid,experiment,0
60,136,29109,71,64,0,2,7,7,9.mid,experiment,0
61,138,29407,71,64,0,2,7,7,9.mid,experiment,0
62,140,29686,72,64,0,2,7,7,9.mid,experiment,0
63,142,29936,72,64,0,2,7,7,9.mid,experiment,0
64,144,30219,73,64,0,2,7,7,9.mid,experiment,0
65,146,30496,73,64,0,2,7,7,9.mid,experiment,0
66,149,31359,74,64,0,2,7,7,9.mid,experiment,0
67,151,31874,77,64,0,2,7,7,9.mid,experiment,0
68,153,32453,76,64,0,2,7,7,9.mid,experiment,0
69,154,32927,74,64,0,2,7,7,9.mid,experiment,0
70,156,33585,72,64,0,2,7,7,9.mid,experiment,0
71,158,33939,84,64,0,2,7,7,9.mid,experiment,0
72,160,34919,84,64,0,2,7,7,9.mid,experiment,0
1,19,8244,79,64,0,2,7,10,10.mid,experiment,0
2,21,8705,78,64,0,2,7,10,10.mid,experiment,0
3,23,8779,79,64,0,2,7,10,10.mid,experiment,0
4,25,9122,76,64,0,2,7,10,10.mid,experiment,0
5,26,9169,72,64,0,2,7,10,10.mid,experiment,0
6,28,9395,67,64,0,2,7,10,10.mid,experiment,0
7,30,9665,67,64,0,2,7,10,10.mid,experiment,0
8,32,9929,67,64,0,2,7,10,10.mid,experiment,0
9,35,10542,79,64,0,2,7,10,10.mid,experiment,0
10,37,10826,78,64,0,2,7,10,10.mid,experiment,0
11,39,11076,79,64,0,2,7,10,10.mid,experiment,0
12,40,11289,76,64,0,2,7,10,10.mid,experiment,0
13,43,11666,72,64,0,2,7,10,10.mid,experiment,0
14,45,11939,76,64,0,2,7,10,10.mid,experiment,0
15,47,12138,79,64,0,2,7,10,10.mid,experiment,0
16,49,12448,84,64,0,2,7,10,10.mid,experiment,0
17,50,12545,83,64,0,2,7,10,10.mid,experiment,0
18,52,12750,81,64,0,2,7,10,10.mid,experiment,0
19,54,13025,81,64,0,2,7,10,10.mid,experiment,0
20,56,13298,81,64,0,2,7,10,10.mid,experiment,0
21,59,13872,83,64,0,2,7,10,10.mid,experiment,0
22,61,14130,81,64,0,2,7,10,10.mid,experiment,0
23,63,14395,84,64,0,2,7,10,10.mid,experiment,0
24,65,14722,81,64,0,2,7,10,10.mid,experiment,0
25,66,14799,78,64,0,2,7,10,10.mid,experiment,0
26,68,14994,79,64,0,2,7,10,10.mid,experiment,0
27,70,15486,79,64,0,2,7,10,10.mid,experiment,0
28,72,16351,79,64,0,2,7,10,10.mid,experiment,0
29,74,17006,77,64,0,2,7,10,10.mid,experiment,0
30,76,17296,77,64,0,2,7,10,10.mid,experiment,0
31,78,17557,76,64,0,2,7,10,10.mid,experiment,0
32,80,17854,76,64,0,2,7,10,10.mid,experiment,0
33,82,18651,74,64,0,2,7,10,10.mid,experiment,0
34,84,19747,79,64,0,2,7,10,10.mid,experiment,0
35,86,20104,77,64,0,2,7,10,10.mid,experiment,0
36,88,20451,76,64,0,2,7,10,10.mid,experiment,0
37,90,20710,76,64,0,2,7,10,10.mid,experiment,0
38,92,20977,76,64,0,2,7,10,10.mid,experiment,0
39,94,21267,76,64,0,2,7,10,10.mid,experiment,0
40,97,21940,81,64,0,2,7,10,10.mid,experiment,0
41,99,22154,77,64,0,2,7,10,10.mid,experiment,0
42,101,22394,76,64,0,2,7,10,10.mid,experiment,0
43,103,22722,74,64,0,2,7,10,10.mid,experiment,0
44,105,23026,76,64,0,2,7,10,10.mid,experiment,0
45,107,23281,79,64,0,2,7,10,10.mid,experiment,0
46,109,23520,74,64,0,2,7,10,10.mid,experiment,0
47,110,23562,71,64,0,2,7,10,10.mid,experiment,0
48,112,23905,72,64,0,2,7,10,10.mid,experiment,0
49,114,24166,72,64,0,2,7,10,10.mid,experiment,0
50,116,24443,74,64,0,2,7,10,10.mid,experiment,0
51,118,24718,74,64,0,2,7,10,10.mid,experiment,0
52,120,25493,76,64,0,2,7,10,10.mid,experiment,0
53,122,26109,65,64,0,2,7,10,10.mid,experiment,0
54,124,26369,65,64,0,2,7,10,10.mid,experiment,0
55,126,26648,64,64,0,2,7,10,10.mid,experiment,0
56,128,26910,64,64,0,2,7,10,10.mid,experiment,0
57,130,27778,62,64,0,2,7,10,10.mid,experiment,0
58,132,28285,67,64,0,2,7,10,10.mid,experiment,0
59,134,28558,67,64,0,2,7,10,10.mid,experiment,0
60,136,28851,71,64,0,2,7,10,10.mid,experiment,0
61,138,29117,71,64,0,2,7,10,10.mid,experiment,0
62,140,29411,72,64,0,2,7,10,10.mid,experiment,0
63,142,29675,72,64,0,2,7,10,10.mid,experiment,0
64,144,29965,73,64,0,2,7,10,10.mid,experiment,0
65,146,30231,73,64,0,2,7,10,10.mid,experiment,0
66,148,31064,74,64,0,2,7,10,10.mid,experiment,0
67,150,31629,77,64,0,2,7,10,10.mid,experiment,0
68,152,32204,76,64,0,2,7,10,10.mid,experiment,0
69,154,32704,74,64,0,2,7,10,10.mid,experiment,0
70,156,33314,72,64,0,2,7,10,10.mid,experiment,0
71,158,33650,84,64,0,2,7,10,10.mid,experiment,0
72,160,34624,84,64,0,2,7,10,10.mid,experiment,0
1,19,8211,79,64,0,2,7,13,2.mid,experiment,0
2,21,8646,78,64,0,2,7,13,2.mid,experiment,0
3,23,8741,79,64,0,2,7,13,2.mid,experiment,0
4,25,9084,76,64,0,2,7,13,2.mid,experiment,0
5,26,9128,72,64,0,2,7,13,2.mid,experiment,0
6,28,9373,67,64,0,2,7,13,2.mid,experiment,0
7,30,9654,67,64,0,2,7,13,2.mid,experiment,0
8,32,9943,67,64,0,2,7,13,2.mid,experiment,0
9,35,10532,79,64,0,2,7,13,2.mid,experiment,0
10,37,10840,78,64,0,2,7,13,2.mid,experiment,0
11,39,11102,79,64,0,2,7,13,2.mid,experiment,0
12,40,11329,76,64,0,2,7,13,2.mid,experiment,0
13,43,11708,72,64,0,2,7,13,2.mid,experiment,0
14,45,12002,76,64,0,2,7,13,2.mid,experiment,0
15,47,12199,79,64,0,2,7,13,2.mid,experiment,0
16,48,12481,84,64,0,2,7,13,2.mid,experiment,0
17,50,12663,83,64,0,2,7,13,2.mid,experiment,0
18,52,12824,81,64,0,2,7,13,2.mid,experiment,0
19,54,13101,81,64,0,2,7,13,2.mid,experiment,0
20,56,13384,81,64,0,2,7,13,2.mid,experiment,0
21,59,13970,83,64,0,2,7,13,2.mid,experiment,0
22,61,14222,81,64,0,2,7,13,2.mid,experiment,0
23,63,14479,84,64,0,2,7,13,2.mid,experiment,0
24,65,14812,81,64,0,2,7,13,2.mid,experiment,0
25,66,14943,78,64,0,2,7,13,2.mid,experiment,0
26,68,15112,79,64,0,2,7,13,2.mid,experiment,0
27,70,15496,79,64,0,2,7,13,2.mid,experiment,0
28,72,16401,79,64,0,2,7,13,2.mid,experiment,0
29,74,17148,77,64,0,2,7,13,2.mid,experiment,0
30,76,17426,77,64,0,2,7,13,2.mid,experiment,0
31,78,17705,76,64,0,2,7,13,2.mid,experiment,0
32,80,17999,76,64,0,2,7,13,2.mid,experiment,0
33,82,18826,74,64,0,2,7,13,2.mid,experiment,0
34,84,19916,79,64,0,2,7,13,2.mid,experiment,0
35,86,20340,77,64,0,2,7,13,2.mid,experiment,0
36,88,20671,76,64,0,2,7,13,2.mid,experiment,0
37,90,20952,76,64,0,2,7,13,2.mid,experiment,0
38,92,21236,76,64,0,2,7,13,2.mid,experiment,0
39,94,21517,76,64,0,2,7,13,2.mid,experiment,0
40,97,22185,81,64,0,2,7,13,2.mid,experiment,0
41,99,22422,77,64,0,2,7,13,2.mid,experiment,0
42,101,22652,76,64,0,2,7,13,2.mid,experiment,0
43,103,23042,74,64,0,2,7,13,2.mid,experiment,0
44,105,23322,76,64,0,2,7,13,2.mid,experiment,0
45,107,23588,79,64,0,2,7,13,2.mid,experiment,0
46,108,23781,74,64,0,2,7,13,2.mid,experiment,0
47,110,23874,71,64,0,2,7,13,2.mid,experiment,0
48,112,24161,72,64,0,2,7,13,2.mid,experiment,0
49,114,24440,72,64,0,2,7,13,2.mid,experiment,0
50,116,24719,74,64,0,2,7,13,2.mid,experiment,0
51,118,25015,74,64,0,2,7,13,2.mid,experiment,0
52,120,25876,76,64,0,2,7,13,2.mid,experiment,0
53,122,26507,65,64,0,2,7,13,2.mid,experiment,0
54,124,26781,65,64,0,2,7,13,2.mid,experiment,0
55,126,27063,64,64,0,2,7,13,2.mid,experiment,0
56,128,27340,64,64,0,2,7,13,2.mid,experiment,0
57,130,28211,62,64,0,2,7,13,2.mid,experiment,0
58,132,28831,67,64,0,2,7,13,2.mid,experiment,0
59,134,29100,67,64,0,2,7,13,2.mid,experiment,0
60,136,29378,71,64,0,2,7,13,2.mid,experiment,0
61,138,29664,71,64,0,2,7,13,2.mid,experiment,0
62,140,29970,72,64,0,2,7,13,2.mid,experiment,0
63,142,30245,72,64,0,2,7,13,2.mid,experiment,0
64,144,30571,73,64,0,2,7,13,2.mid,experiment,0
65,146,30839,73,64,0,2,7,13,2.mid,experiment,0
66,149,31713,74,64,0,2,7,13,2.mid,experiment,0
67,151,32325,77,64,0,2,7,13,2.mid,experiment,0
68,152,32887,76,64,0,2,7,13,2.mid,experiment,0
69,154,33327,74,64,0,2,7,13,2.mid,experiment,0
70,156,34006,72,64,0,2,7,13,2.mid,experiment,0
71,158,34384,84,64,0,2,7,13,2.mid,experiment,0
72,160,35490,84,64,0,2,7,13,2.mid,experiment,0
1,19,8188,79,64,0,2,7,14,6.mid,experiment,0
2,21,8666,78,64,0,2,7,14,6.mid,experiment,0
3,23,8731,79,64,0,2,7,14,6.mid,experiment,0
4,25,9055,76,64,0,2,7,14,6.mid,experiment,0
5,26,9114,72,64,0,2,7,14,6.mid,experiment,0
6,28,9344,67,64,0,2,7,14,6.mid,experiment,0
7,30,9619,67,64,0,2,7,14,6.mid,experiment,0
8,32,9892,67,64,0,2,7,14,6.mid,experiment,0
9,35,10501,79,64,0,2,7,14,6.mid,experiment,0
10,37,10820,78,64,0,2,7,14,6.mid,experiment,0
11,39,11058,79,64,0,2,7,14,6.mid,experiment,0
12,40,11277,76,64,0,2,7,14,6.mid,experiment,0
13,43,11649,72,64,0,2,7,14,6.mid,experiment,0
14,45,11941,76,64,0,2,7,14,6.mid,experiment,0
15,46,12120,79,64,0,2,7,14,6.mid,experiment,0
16,49,12471,84,64,0,2,7,14,6.mid,experiment,0
17,50,12601,83,64,0,2,7,14,6.mid,experiment,0
18,52,12777,81,64,0,2,7,14,6.mid,experiment,0
19,54,13052,81,64,0,2,7,14,6.mid,experiment,0
20,56,13326,81,64,0,2,7,14,6.mid,experiment,0
21,59,13881,83,64,0,2,7,14,6.mid,experiment,0
22,61,14130,81,64,0,2,7,14,6.mid,experiment,0
23,63,14393,84,64,0,2,7,14,6.mid,experiment,0
24,65,14713,81,64,0,2,7,14,6.mid,experiment,0
25,66,14825,78,64,0,2,7,14,6.mid,experiment,0
26,68,15038,79,64,0,2,7,14,6.mid,experiment,0
27,70,15522,79,64,0,2,7,14,6.mid,experiment,0
28,72,16306,79,64,0,2,7,14,6.mid,experiment,0
29,74,17122,77,64,0,2,7,14,6.mid,experiment,0
30,76,17393,77,64,0,2,7,14,6.mid,experiment,0
31,78,17679,76,64,0,2,7,14,6.mid,experiment,0
32,80,17989,76,64,0,2,7,14,6.mid,experiment,0
33,82,18821,74,64,0,2,7,14,6.mid,experiment,0
34,84,19925,79,64,0,2,7,14,6.mid,experiment,0
35,86,20415,77,64,0,2,7,14,6.mid,experiment,0
36,88,20645,76,64,0,2,7,14,6.mid,experiment,0
37,90,20923,76,64,0,2,7,14,6.mid,experiment,0
38,92,21215,76,64,0,2,7,14,6.mid,experiment,0
39,94,21495,76,64,0,2,7,14,6.mid,experiment,0
40,97,22157,81,64,0,2,7,14,6.mid,experiment,0
41,99,22367,77,64,0,2,7,14,6.mid,experiment,0
42,101,22604,76,64,0,2,7,14,6.mid,experiment,0
43,103,22933,74,64,0,2,7,14,6.mid,experiment,0
44,105,23245,76,64,0,2,7,14,6.mid,experiment,0
45,107,23524,79,64,0,2,7,14,6.mid,experiment,0
46,108,23744,74,64,0,2,7,14,6.mid,experiment,0
47,110,23845,71,64,0,2,7,14,6.mid,experiment,0
48,112,24106,72,64,0,2,7,14,6.mid,experiment,0
49,114,24405,72,64,0,2,7,14,6.mid,experiment,0
50,116,24675,74,64,0,2,7,14,6.mid,experiment,0
51,118,24973,74,64,0,2,7,14,6.mid,experiment,0
52,120,25819,76,64,0,2,7,14,6.mid,experiment,0
53,122,26470,65,64,0,2,7,14,6.mid,experiment,0
54,124,26749,65,64,0,2,7,14,6.mid,experiment,0
55,126,27045,64,64,0,2,7,14,6.mid,experiment,0
56,128,27321,64,64,0,2,7,14,6.mid,experiment,0
57,130,28214,62,64,0,2,7,14,6.mid,experiment,0
58,132,28796,67,64,0,2,7,14,6.mid,experiment,0
59,134,29051,67,64,0,2,7,14,6.mid,experiment,0
60,136,29350,71,64,0,2,7,14,6.mid,experiment,0
61,138,29648,71,64,0,2,7,14,6.mid,experiment,0
62,140,29918,72,64,0,2,7,14,6.mid,experiment,0
63,142,30184,72,64,0,2,7,14,6.mid,experiment,0
64,144,30476,73,64,0,2,7,14,6.mid,experiment,0
65,146,30755,73,64,0,2,7,14,6.mid,experiment,0
66,148,31616,74,64,0,2,7,14,6.mid,experiment,0
67,150,32166,77,64,0,2,7,14,6.mid,experiment,0
68,152,32787,76,64,0,2,7,14,6.mid,experiment,0
69,154,33330,74,64,0,2,7,14,6.mid,experiment,0
70,156,33919,72,64,0,2,7,14,6.mid,experiment,0
71,158,34314,84,64,0,2,7,14,6.mid,experiment,0
72,160,35440,84,64,0,2,7,14,6.mid,experiment,0
1,19,8136,79,64,0,2,7,15,1.mid,experiment,0
2,21,8484,78,64,0,2,7,15,1.mid,experiment,0
3,23,8709,79,64,0,2,7,15,1.mid,experiment,0
4,25,8995,76,64,0,2,7,15,1.mid,experiment,0
5,26,9082,72,64,0,2,7,15,1.mid,experiment,0
6,28,9281,67,64,0,2,7,15,1.mid,experiment,0
7,30,9559,67,64,0,2,7,15,1.mid,experiment,0
8,32,9829,67,64,0,2,7,15,1.mid,experiment,0
9,35,10416,79,64,0,2,7,15,1.mid,experiment,0
10,37,10740,78,64,0,2,7,15,1.mid,experiment,0
11,39,10993,79,64,0,2,7,15,1.mid,experiment,0
12,40,11182,76,64,0,2,7,15,1.mid,experiment,0
13,43,11552,72,64,0,2,7,15,1.mid,experiment,0
14,45,11890,76,64,0,2,7,15,1.mid,experiment,0
15,47,12045,79,64,0,2,7,15,1.mid,experiment,0
16,49,12342,84,64,0,2,7,15,1.mid,experiment,0
17,50,12474,83,64,0,2,7,15,1.mid,experiment,0
18,52,12683,81,64,0,2,7,15,1.mid,experiment,0
19,54,12954,81,64,0,2,7,15,1.mid,experiment,0
20,56,13223,81,64,0,2,7,15,1.mid,experiment,0
21,59,13766,83,64,0,2,7,15,1.mid,experiment,0
22,61,14010,81,64,0,2,7,15,1.mid,experiment,0
23,63,14267,84,64,0,2,7,15,1.mid,experiment,0
24,65,14553,81,64,0,2,7,15,1.mid,experiment,0
25,66,14814,78,64,0,2,7,15,1.mid,experiment,0
26,68,14951,79,64,0,2,7,15,1.mid,experiment,0
27,70,15308,79,64,0,2,7,15,1.mid,experiment,0
28,72,16160,79,64,0,2,7,15,1.mid,experiment,0
29,74,16943,77,64,0,2,7,15,1.mid,experiment,0
30,76,17229,77,64,0,2,7,15,1.mid,experiment,0
31,78,17511,76,64,0,2,7,15,1.mid,experiment,0
32,80,17808,76,64,0,2,7,15,1.mid,experiment,0
33,82,18644,74,64,0,2,7,15,1.mid,experiment,0
34,84,19745,79,64,0,2,7,15,1.mid,experiment,0
35,86,20252,77,64,0,2,7,15,1.mid,experiment,0
36,88,20492,76,64,0,2,7,15,1.mid,experiment,0
37,90,20756,76,64,0,2,7,15,1.mid,experiment,0
38,92,21045,76,64,0,2,7,15,1.mid,experiment,0
39,94,21317,76,64,0,2,7,15,1.mid,experiment,0
40,97,21996,81,64,0,2,7,15,1.mid,experiment,0
41,99,22197,77,64,0,2,7,15,1.mid,experiment,0
42,101,22442,76,64,0,2,7,15,1.mid,experiment,0
43,103,22765,74,64,0,2,7,15,1.mid,experiment,0
44,105,23042,76,64,0,2,7,15,1.mid,experiment,0
45,107,23340,79,64,0,2,7,15,1.mid,experiment,0
46,108,23531,74,64,0,2,7,15,1.mid,experiment,0
47,110,23611,71,64,0,2,7,15,1.mid,experiment,0
48,112,23897,72,64,0,2,7,15,1.mid,experiment,0
49,114,24175,72,64,0,2,7,15,1.mid,experiment,0
50,116,24442,74,64,0,2,7,15,1.mid,experiment,0
51,118,24742,74,64,0,2,7,15,1.mid,experiment,0
52,120,25588,76,64,0,2,7,15,1.mid,experiment,0
53,122,26212,65,64,0,2,7,15,1.mid,experiment,0
54,124,26492,65,64,0,2,7,15,1.mid,experiment,0
55,126,26780,64,64,0,2,7,15,1.mid,experiment,0
56,128,27061,64,64,0,2,7,15,1.mid,experiment,0
57,130,27936,62,64,0,2,7,15,1.mid,experiment,0
58,132,28507,67,64,0,2,7,15,1.mid,experiment,0
59,134,28788,67,64,0,2,7,15,1.mid,experiment,0
60,136,29078,71,64,0,2,7,15,1.mid,experiment,0
61,138,29369,71,64,0,2,7,15,1.mid,experiment,0
62,140,29648,72,64,0,2,7,15,1.mid,experiment,0
63,142,29919,72,64,0,2,7,15,1.mid,experiment,0
64,144,30234,73,64,0,2,7,15,1.mid,experiment,0
65,146,30528,73,64,0,2,7,15,1.mid,experiment,0
66,149,31428,74,64,0,2,7,15,1.mid,experiment,0
67,151,31972,77,64,0,2,7,15,1.mid,experiment,0
68,152,32561,76,64,0,2,7,15,1.mid,experiment,0
69,154,33098,74,64,0,2,7,15,1.mid,experiment,0
70,156,33687,72,64,0,2,7,15,1.mid,experiment,0
71,158,34059,84,64,0,2,7,15,1.mid,experiment,0
72,160,35089,84,64,0,2,7,15,1.mid,experiment,0
1,19,8189,79,64,0,2,8,1,4.mid,experiment,0
2,21,8523,78,64,0,2,8,1,4.mid,experiment,0
3,23,8744,79,64,0,2,8,1,4.mid,experiment,0
4,25,9031,76,64,0,2,8,1,4.mid,experiment,0
5,26,9228,72,64,0,2,8,1,4.mid,experiment,0
6,28,9398,67,64,0,2,8,1,4.mid,experiment,0
7,30,9673,67,64,0,2,8,1,4.mid,experiment,0
8,32,10002,67,64,0,2,8,1,4.mid,experiment,0
9,35,10554,79,64,0,2,8,1,4.mid,experiment,0
10,37,10846,78,64,0,2,8,1,4.mid,experiment,0
11,39,11131,79,64,0,2,8,1,4.mid,experiment,0
12,40,11349,76,64,0,2,8,1,4.mid,experiment,0
13,43,11676,72,64,0,2,8,1,4.mid,experiment,0
14,45,11981,76,64,0,2,8,1,4.mid,experiment,0
15,47,12209,79,64,0,2,8,1,4.mid,experiment,0
16,49,12623,84,64,0,2,8,1,4.mid,experiment,0
17,50,12749,83,64,0,2,8,1,4.mid,experiment,0
18,52,12858,81,64,0,2,8,1,4.mid,experiment,0
19,54,13173,81,64,0,2,8,1,4.mid,experiment,0
20,56,13457,81,64,0,2,8,1,4.mid,experiment,0
21,59,14021,83,64,0,2,8,1,4.mid,experiment,0
22,61,14249,81,64,0,2,8,1,4.mid,experiment,0
23,63,14583,84,64,0,2,8,1,4.mid,experiment,0
24,65,14813,81,64,0,2,8,1,4.mid,experiment,0
25,67,15130,78,64,0,2,8,1,4.mid,experiment,0
26,68,15212,79,64,0,2,8,1,4.mid,experiment,0
27,70,15694,79,64,0,2,8,1,4.mid,experiment,0
28,72,16562,79,64,0,2,8,1,4.mid,experiment,0
29,74,17229,77,64,0,2,8,1,4.mid,experiment,0
30,76,17489,77,64,0,2,8,1,4.mid,experiment,0
31,78,17791,76,64,0,2,8,1,4.mid,experiment,0
32,80,18097,76,64,0,2,8,1,4.mid,experiment,0
33,82,18815,74,64,0,2,8,1,4.mid,experiment,0
34,84,20147,79,64,0,2,8,1,4.mid,experiment,0
35,86,20714,77,64,0,2,8,1,4.mid,experiment,0
36,88,20816,76,64,0,2,8,1,4.mid,experiment,0
37,90,21083,76,64,0,2,8,1,4.mid,experiment,0
38,92,21362,76,64,0,2,8,1,4.mid,experiment,0
39,94,21623,76,64,0,2,8,1,4.mid,experiment,0
40,97,22240,81,64,0,2,8,1,4.mid,experiment,0
41,99,22508,77,64,0,2,8,1,4.mid,experiment,0
42,101,22736,76,64,0,2,8,1,4.mid,experiment,0
43,103,23054,74,64,0,2,8,1,4.mid,experiment,0
44,105,23322,76,64,0,2,8,1,4.mid,experiment,0
45,107,23693,79,64,0,2,8,1,4.mid,experiment,0
46,109,23893,74,64,0,2,8,1,4.mid,experiment,0
47,111,24230,71,64,0,2,8,1,4.mid,experiment,0
48,112,24233,72,64,0,2,8,1,4.mid,experiment,0
49,114,24529,72,64,0,2,8,1,4.mid,experiment,0
50,116,24796,74,64,0,2,8,1,4.mid,experiment,0
51,118,25095,74,64,0,2,8,1,4.mid,experiment,0
52,120,25750,76,64,0,2,8,1,4.mid,experiment,0
53,122,26585,65,64,0,2,8,1,4.mid,experiment,0
54,124,26894,65,64,0,2,8,1,4.mid,experiment,0
55,126,27156,64,64,0,2,8,1,4.mid,experiment,0
56,128,27448,64,64,0,2,8,1,4.mid,experiment,0
57,130,28269,62,64,0,2,8,1,4.mid,experiment,0
58,132,28973,67,64,0,2,8,1,4.mid,experiment,0
59,134,29267,67,64,0,2,8,1,4.mid,experiment,0
60,136,29556,71,64,0,2,8,1,4.mid,experiment,0
61,138,29830,71,64,0,2,8,1,4.mid,experiment,0
62,140,30099,72,64,0,2,8,1,4.mid,experiment,0
63,142,30396,72,64,0,2,8,1,4.mid,experiment,0
64,144,30710,73,64,0,2,8,1,4.mid,experiment,0
65,146,30960,73,64,0,2,8,1,4.mid,experiment,0
66,149,31827,74,64,0,2,8,1,4.mid,experiment,0
67,151,32437,77,64,0,2,8,1,4.mid,experiment,0
68,153,32974,76,64,0,2,8,1,4.mid,experiment,0
69,155,33551,74,64,0,2,8,1,4.mid,experiment,0
70,157,34142,72,64,0,2,8,1,4.mid,experiment,0
71,158,34472,84,64,0,2,8,1,4.mid,experiment,0
72,160,35341,84,64,0,2,8,1,4.mid,experiment,0
1,19,8150,79,64,0,2,8,2,10.mid,experiment,0
2,21,8464,78,64,0,2,8,2,10.mid,experiment,0
3,23,8678,79,64,0,2,8,2,10.mid,experiment,0
4,25,8999,76,64,0,2,8,2,10.mid,experiment,0
5,26,9221,72,64,0,2,8,2,10.mid,experiment,0
6,28,9385,67,64,0,2,8,2,10.mid,experiment,0
7,30,9571,67,64,0,2,8,2,10.mid,experiment,0
8,32,9946,67,64,0,2,8,2,10.mid,experiment,0
9,35,10464,79,64,0,2,8,2,10.mid,experiment,0
10,37,10765,78,64,0,2,8,2,10.mid,experiment,0
11,39,11037,79,64,0,2,8,2,10.mid,experiment,0
12,41,11235,76,64,0,2,8,2,10.mid,experiment,0
13,43,11562,72,64,0,2,8,2,10.mid,experiment,0
14,45,11860,76,64,0,2,8,2,10.mid,experiment,0
15,47,12085,79,64,0,2,8,2,10.mid,experiment,0
16,49,12492,84,64,0,2,8,2,10.mid,experiment,0
17,50,12624,83,64,0,2,8,2,10.mid,experiment,0
18,52,12721,81,64,0,2,8,2,10.mid,experiment,0
19,54,13005,81,64,0,2,8,2,10.mid,experiment,0
20,56,13286,81,64,0,2,8,2,10.mid,experiment,0
21,59,13877,83,64,0,2,8,2,10.mid,experiment,0
22,61,14084,81,64,0,2,8,2,10.mid,experiment,0
23,63,14438,84,64,0,2,8,2,10.mid,experiment,0
24,65,14638,81,64,0,2,8,2,10.mid,experiment,0
25,67,14929,78,64,0,2,8,2,10.mid,experiment,0
26,68,15070,79,64,0,2,8,2,10.mid,experiment,0
27,70,15602,79,64,0,2,8,2,10.mid,experiment,0
28,72,16348,79,64,0,2,8,2,10.mid,experiment,0
29,74,16959,77,64,0,2,8,2,10.mid,experiment,0
30,76,17231,77,64,0,2,8,2,10.mid,experiment,0
31,78,17515,76,64,0,2,8,2,10.mid,experiment,0
32,80,17786,76,64,0,2,8,2,10.mid,experiment,0
33,82,18687,74,64,0,2,8,2,10.mid,experiment,0
34,84,19532,79,64,0,2,8,2,10.mid,experiment,0
35,86,20099,77,64,0,2,8,2,10.mid,experiment,0
36,88,20360,76,64,0,2,8,2,10.mid,experiment,0
37,90,20620,76,64,0,2,8,2,10.mid,experiment,0
38,92,20911,76,64,0,2,8,2,10.mid,experiment,0
39,94,21157,76,64,0,2,8,2,10.mid,experiment,0
40,97,21741,81,64,0,2,8,2,10.mid,experiment,0
41,99,22034,77,64,0,2,8,2,10.mid,experiment,0
42,101,22245,76,64,0,2,8,2,10.mid,experiment,0
43,103,22574,74,64,0,2,8,2,10.mid,experiment,0
44,105,22850,76,64,0,2,8,2,10.mid,experiment,0
45,107,23145,79,64,0,2,8,2,10.mid,experiment,0
46,108,23371,74,64,0,2,8,2,10.mid,experiment,0
47,110,23658,71,64,0,2,8,2,10.mid,experiment,0
48,112,23751,72,64,0,2,8,2,10.mid,experiment,0
49,114,23977,72,64,0,2,8,2,10.mid,experiment,0
50,116,24250,74,64,0,2,8,2,10.mid,experiment,0
51,118,24517,74,64,0,2,8,2,10.mid,experiment,0
52,120,25362,76,64,0,2,8,2,10.mid,experiment,0
53,122,25989,65,64,0,2,8,2,10.mid,experiment,0
54,124,26265,65,64,0,2,8,2,10.mid,experiment,0
55,126,26568,64,64,0,2,8,2,10.mid,experiment,0
56,128,26846,64,64,0,2,8,2,10.mid,experiment,0
57,130,27640,62,64,0,2,8,2,10.mid,experiment,0
58,132,28357,67,64,0,2,8,2,10.mid,experiment,0
59,134,28606,67,64,0,2,8,2,10.mid,experiment,0
60,136,28885,71,64,0,2,8,2,10.mid,experiment,0
61,138,29164,71,64,0,2,8,2,10.mid,experiment,0
62,140,29426,72,64,0,2,8,2,10.mid,experiment,0
63,142,29703,72,64,0,2,8,2,10.mid,experiment,0
64,144,29976,73,64,0,2,8,2,10.mid,experiment,0
65,146,30239,73,64,0,2,8,2,10.mid,experiment,0
66,148,30908,74,64,0,2,8,2,10.mid,experiment,0
67,150,31576,77,64,0,2,8,2,10.mid,experiment,0
68,152,32198,76,64,0,2,8,2,10.mid,experiment,0
69,154,32714,74,64,0,2,8,2,10.mid,experiment,0
70,156,33380,72,64,0,2,8,2,10.mid,experiment,0
71,158,33865,84,64,0,2,8,2,10.mid,experiment,0
72,160,34657,84,64,0,2,8,2,10.mid,experiment,0
1,19,8181,79,64,0,2,8,5,7.mid,experiment,0
2,21,8523,78,64,0,2,8,5,7.mid,experiment,0
3,23,8741,79,64,0,2,8,5,7.mid,experiment,0
4,25,9043,76,64,0,2,8,5,7.mid,experiment,0
5,26,9209,72,64,0,2,8,5,7.mid,experiment,0
6,28,9333,67,64,0,2,8,5,7.mid,experiment,0
7,30,9622,67,64,0,2,8,5,7.mid,experiment,0
8,32,9930,67,64,0,2,8,5,7.mid,experiment,0
9,35,10541,79,64,0,2,8,5,7.mid,experiment,0
10,37,10817,78,64,0,2,8,5,7.mid,experiment,0
11,39,11144,79,64,0,2,8,5,7.mid,experiment,0
12,40,11348,76,64,0,2,8,5,7.mid,experiment,0
13,43,11695,72,64,0,2,8,5,7.mid,experiment,0
14,45,11986,76,64,0,2,8,5,7.mid,experiment,0
15,47,12207,79,64,0,2,8,5,7.mid,experiment,0
16,49,12646,84,64,0,2,8,5,7.mid,experiment,0
17,50,12740,83,64,0,2,8,5,7.mid,experiment,0
18,52,12886,81,64,0,2,8,5,7.mid,experiment,0
19,54,13185,81,64,0,2,8,5,7.mid,experiment,0
20,56,13453,81,64,0,2,8,5,7.mid,experiment,0
21,59,14093,83,64,0,2,8,5,7.mid,experiment,0
22,61,14335,81,64,0,2,8,5,7.mid,experiment,0
23,63,14688,84,64,0,2,8,5,7.mid,experiment,0
24,65,14906,81,64,0,2,8,5,7.mid,experiment,0
25,67,15255,78,64,0,2,8,5,7.mid,experiment,0
26,68,15384,79,64,0,2,8,5,7.mid,experiment,0
27,70,15878,79,64,0,2,8,5,7.mid,experiment,0
28,72,16718,79,64,0,2,8,5,7.mid,experiment,0
29,74,17413,77,64,0,2,8,5,7.mid,experiment,0
30,76,17686,77,64,0,2,8,5,7.mid,experiment,0
31,78,17972,76,64,0,2,8,5,7.mid,experiment,0
32,80,18264,76,64,0,2,8,5,7.mid,experiment,0
33,82,19262,74,64,0,2,8,5,7.mid,experiment,0
34,84,20381,79,64,0,2,8,5,7.mid,experiment,0
35,87,21018,77,64,0,2,8,5,7.mid,experiment,0
36,88,21051,76,64,0,2,8,5,7.mid,experiment,0
37,90,21322,76,64,0,2,8,5,7.mid,experiment,0
38,92,21605,76,64,0,2,8,5,7.mid,experiment,0
39,94,21898,76,64,0,2,8,5,7.mid,experiment,0
40,97,22563,81,64,0,2,8,5,7.mid,experiment,0
41,99,22816,77,64,0,2,8,5,7.mid,experiment,0
42,101,23042,76,64,0,2,8,5,7.mid,experiment,0
43,103,23379,74,64,0,2,8,5,7.mid,experiment,0
44,105,23634,76,64,0,2,8,5,7.mid,experiment,0
45,107,23989,79,64,0,2,8,5,7.mid,experiment,0
46,109,24217,74,64,0,2,8,5,7.mid,experiment,0
47,111,24519,71,64,0,2,8,5,7.mid,experiment,0
48,112,24537,72,64,0,2,8,5,7.mid,experiment,0
49,114,24854,72,64,0,2,8,5,7.mid,experiment,0
50,116,25149,74,64,0,2,8,5,7.mid,experiment,0
51,118,25441,74,64,0,2,8,5,7.mid,experiment,0
52,120,26213,76,64,0,2,8,5,7.mid,experiment,0
53,122,26935,65,64,0,2,8,5,7.mid,experiment,0
54,124,27200,65,64,0,2,8,5,7.mid,experiment,0
55,126,27515,64,64,0,2,8,5,7.mid,experiment,0
56,128,27783,64,64,0,2,8,5,7.mid,experiment,0
57,130,28688,62,64,0,2,8,5,7.mid,experiment,0
58,132,29286,67,64,0,2,8,5,7.mid,experiment,0
59,134,29570,67,64,0,2,8,5,7.mid,experiment,0
60,136,29866,71,64,0,2,8,5,7.mid,experiment,0
61,138,30132,71,64,0,2,8,5,7.mid,experiment,0
62,140,30431,72,64,0,2,8,5,7.mid,experiment,0
63,142,30716,72,64,0,2,8,5,7.mid,experiment,0
64,144,31008,73,64,0,2,8,5,7.mid,experiment,0
65,146,31286,73,64,0,2,8,5,7.mid,experiment,0
66,148,32067,74,64,0,2,8,5,7.mid,experiment,0
67,150,32694,77,64,0,2,8,5,7.mid,experiment,0
68,152,33249,76,64,0,2,8,5,7.mid,experiment,0
69,154,33795,74,64,0,2,8,5,7.mid,experiment,0
70,156,34336,72,64,0,2,8,5,7.mid,experiment,0
71,158,35039,84,64,0,2,8,5,7.mid,experiment,0
72,160,35896,84,64,0,2,8,5,7.mid,experiment,0
1,19,8149,79,64,0,2,8,7,6.mid,experiment,0
2,21,8523,78,64,0,2,8,7,6.mid,experiment,0
3,23,8723,79,64,0,2,8,7,6.mid,experiment,0
4,25,9029,76,64,0,2,8,7,6.mid,experiment,0
5,26,9209,72,64,0,2,8,7,6.mid,experiment,0
6,28,9387,67,64,0,2,8,7,6.mid,experiment,0
7,30,9652,67,64,0,2,8,7,6.mid,experiment,0
8,32,10035,67,64,0,2,8,7,6.mid,experiment,0
9,35,10518,79,64,0,2,8,7,6.mid,experiment,0
10,37,10820,78,64,0,2,8,7,6.mid,experiment,0
11,39,11082,79,64,0,2,8,7,6.mid,experiment,0
12,40,11324,76,64,0,2,8,7,6.mid,experiment,0
13,43,11663,72,64,0,2,8,7,6.mid,experiment,0
14,45,11983,76,64,0,2,8,7,6.mid,experiment,0
15,47,12203,79,64,0,2,8,7,6.mid,experiment,0
16,49,12629,84,64,0,2,8,7,6.mid,experiment,0
17,50,12713,83,64,0,2,8,7,6.mid,experiment,0
18,52,12850,81,64,0,2,8,7,6.mid,experiment,0
19,54,13161,81,64,0,2,8,7,6.mid,experiment,0
20,56,13439,81,64,0,2,8,7,6.mid,experiment,0
21,59,14023,83,64,0,2,8,7,6.mid,experiment,0
22,61,14288,81,64,0,2,8,7,6.mid,experiment,0
23,63,14660,84,64,0,2,8,7,6.mid,experiment,0
24,64,14845,81,64,0,2,8,7,6.mid,experiment,0
25,67,15173,78,64,0,2,8,7,6.mid,experiment,0
26,68,15277,79,64,0,2,8,7,6.mid,experiment,0
27,70,15701,79,64,0,2,8,7,6.mid,experiment,0
28,72,16591,79,64,0,2,8,7,6.mid,experiment,0
29,74,17304,77,64,0,2,8,7,6.mid,experiment,0
30,76,17598,77,64,0,2,8,7,6.mid,experiment,0
31,78,17898,76,64,0,2,8,7,6.mid,experiment,0
32,80,18154,76,64,0,2,8,7,6.mid,experiment,0
33,82,19041,74,64,0,2,8,7,6.mid,experiment,0
34,85,20234,79,64,0,2,8,7,6.mid,experiment,0
35,86,20821,77,64,0,2,8,7,6.mid,experiment,0
36,88,20931,76,64,0,2,8,7,6.mid,experiment,0
37,90,21201,76,64,0,2,8,7,6.mid,experiment,0
38,92,21505,76,64,0,2,8,7,6.mid,experiment,0
39,94,21781,76,64,0,2,8,7,6.mid,experiment,0
40,97,22407,81,64,0,2,8,7,6.mid,experiment,0
41,99,22684,77,64,0,2,8,7,6.mid,experiment,0
42,101,22916,76,64,0,2,8,7,6.mid,experiment,0
43,103,23250,74,64,0,2,8,7,6.mid,experiment,0
44,105,23513,76,64,0,2,8,7,6.mid,experiment,0
45,107,23874,79,64,0,2,8,7,6.mid,experiment,0
46,108,24032,74,64,0,2,8,7,6.mid,experiment,0
47,110,24332,71,64,0,2,8,7,6.mid,experiment,0
48,112,24382,72,64,0,2,8,7,6.mid,experiment,0
49,114,24674,72,64,0,2,8,7,6.mid,experiment,0
50,116,24961,74,64,0,2,8,7,6.mid,experiment,0
51,118,25248,74,64,0,2,8,7,6.mid,experiment,0
52,120,26206,76,64,0,2,8,7,6.mid,experiment,0
53,122,26805,65,64,0,2,8,7,6.mid,experiment,0
54,124,27081,65,64,0,2,8,7,6.mid,experiment,0
55,126,27369,64,64,0,2,8,7,6.mid,experiment,0
56,128,27661,64,64,0,2,8,7,6.mid,experiment,0
57,130,28650,62,64,0,2,8,7,6.mid,experiment,0
58,132,29140,67,64,0,2,8,7,6.mid,experiment,0
59,134,29434,67,64,0,2,8,7,6.mid,experiment,0
60,136,29760,71,64,0,2,8,7,6.mid,experiment,0
61,138,30056,71,64,0,2,8,7,6.mid,experiment,0
62,140,30354,72,64,0,2,8,7,6.mid,experiment,0
63,142,30644,72,64,0,2,8,7,6.mid,experiment,0
64,144,30938,73,64,0,2,8,7,6.mid,experiment,0
65,146,31167,73,64,0,2,8,7,6.mid,experiment,0
66,149,32109,74,64,0,2,8,7,6.mid,experiment,0
67,150,32580,77,64,0,2,8,7,6.mid,experiment,0
68,152,33169,76,64,0,2,8,7,6.mid,experiment,0
69,155,33864,74,64,0,2,8,7,6.mid,experiment,0
70,156,34383,72,64,0,2,8,7,6.mid,experiment,0
71,158,34942,84,64,0,2,8,7,6.mid,experiment,0
72,160,35925,84,64,0,2,8,7,6.mid,experiment,0
1,19,8233,79,64,0,2,8,8,16.mid,experiment,0
2,21,8537,78,64,0,2,8,8,16.mid,experiment,0
3,23,8755,79,64,0,2,8,8,16.mid,experiment,0
4,25,9033,76,64,0,2,8,8,16.mid,experiment,0
5,26,9239,72,64,0,2,8,8,16.mid,experiment,0
6,28,9331,67,64,0,2,8,8,16.mid,experiment,0
7,30,9613,67,64,0,2,8,8,16.mid,experiment,0
8,32,9915,67,64,0,2,8,8,16.mid,experiment,0
9,35,10577,79,64,0,2,8,8,16.mid,experiment,0
10,37,10864,78,64,0,2,8,8,16.mid,experiment,0
11,39,11133,79,64,0,2,8,8,16.mid,experiment,0
12,40,11343,76,64,0,2,8,8,16.mid,experiment,0
13,43,11726,72,64,0,2,8,8,16.mid,experiment,0
14,45,12025,76,64,0,2,8,8,16.mid,experiment,0
15,47,12267,79,64,0,2,8,8,16.mid,experiment,0
16,49,12598,84,64,0,2,8,8,16.mid,experiment,0
17,50,12781,83,64,0,2,8,8,16.mid,experiment,0
18,52,12898,81,64,0,2,8,8,16.mid,experiment,0
19,54,13211,81,64,0,2,8,8,16.mid,experiment,0
20,56,13478,81,64,0,2,8,8,16.mid,experiment,0
21,59,14093,83,64,0,2,8,8,16.mid,experiment,0
22,61,14335,81,64,0,2,8,8,16.mid,experiment,0
23,63,14693,84,64,0,2,8,8,16.mid,experiment,0
24,65,14935,81,64,0,2,8,8,16.mid,experiment,0
25,67,15240,78,64,0,2,8,8,16.mid,experiment,0
26,68,15425,79,64,0,2,8,8,16.mid,experiment,0
27,70,15977,79,64,0,2,8,8,16.mid,experiment,0
28,72,16799,79,64,0,2,8,8,16.mid,experiment,0
29,74,17377,77,64,0,2,8,8,16.mid,experiment,0
30,76,17655,77,64,0,2,8,8,16.mid,experiment,0
31,78,17975,76,64,0,2,8,8,16.mid,experiment,0
32,80,18227,76,64,0,2,8,8,16.mid,experiment,0
33,82,19177,74,64,0,2,8,8,16.mid,experiment,0
34,84,20038,79,64,0,2,8,8,16.mid,experiment,0
35,86,20673,77,64,0,2,8,8,16.mid,experiment,0
36,88,20901,76,64,0,2,8,8,16.mid,experiment,0
37,90,21163,76,64,0,2,8,8,16.mid,experiment,0
38,92,21462,76,64,0,2,8,8,16.mid,experiment,0
39,94,21709,76,64,0,2,8,8,16.mid,experiment,0
40,97,22349,81,64,0,2,8,8,16.mid,experiment,0
41,99,22629,77,64,0,2,8,8,16.mid,experiment,0
42,101,22863,76,64,0,2,8,8,16.mid,experiment,0
43,103,23203,74,64,0,2,8,8,16.mid,experiment,0
44,105,23461,76,64,0,2,8,8,16.mid,experiment,0
45,107,23782,79,64,0,2,8,8,16.mid,experiment,0
46,109,24001,74,64,0,2,8,8,16.mid,experiment,0
47,110,24299,71,64,0,2,8,8,16.mid,experiment,0
48,112,24351,72,64,0,2,8,8,16.mid,experiment,0
49,114,24635,72,64,0,2,8,8,16.mid,experiment,0
50,116,24918,74,64,0,2,8,8,16.mid,experiment,0
51,118,25203,74,64,0,2,8,8,16.mid,experiment,0
52,120,26110,76,64,0,2,8,8,16.mid,experiment,0
53,122,26769,65,64,0,2,8,8,16.mid,experiment,0
54,124,27045,65,64,0,2,8,8,16.mid,experiment,0
55,126,27348,64,64,0,2,8,8,16.mid,experiment,0
56,128,27625,64,64,0,2,8,8,16.mid,experiment,0
57,130,28507,62,64,0,2,8,8,16.mid,experiment,0
58,132,29077,67,64,0,2,8,8,16.mid,experiment,0
59,134,29369,67,64,0,2,8,8,16.mid,experiment,0
60,136,29642,71,64,0,2,8,8,16.mid,experiment,0
61,138,29915,71,64,0,2,8,8,16.mid,experiment,0
62,140,30205,72,64,0,2,8,8,16.mid,experiment,0
63,142,30481,72,64,0,2,8,8,16.mid,experiment,0
64,144,30772,73,64,0,2,8,8,16.mid,experiment,0
65,146,31043,73,64,0,2,8,8,16.mid,experiment,0
66,148,31777,74,64,0,2,8,8,16.mid,experiment,0
67,150,32472,77,64,0,2,8,8,16.mid,experiment,0
68,152,33070,76,64,0,2,8,8,16.mid,experiment,0
69,154,33662,74,64,0,2,8,8,16.mid,experiment,0
70,156,34209,72,64,0,2,8,8,16.mid,experiment,0
71,158,34777,84,64,0,2,8,8,16.mid,experiment,0
72,160,35724,84,64,0,2,8,8,16.mid,experiment,0
1,19,8242,79,64,0,2,8,14,13.mid,experiment,0
2,21,8564,78,64,0,2,8,14,13.mid,experiment,0
3,23,8812,79,64,0,2,8,14,13.mid,experiment,0
4,25,9095,76,64,0,2,8,14,13.mid,experiment,0
5,26,9329,72,64,0,2,8,14,13.mid,experiment,0
6,28,9433,67,64,0,2,8,14,13.mid,experiment,0
7,30,9654,67,64,0,2,8,14,13.mid,experiment,0
8,32,9956,67,64,0,2,8,14,13.mid,experiment,0
9,35,10593,79,64,0,2,8,14,13.mid,experiment,0
10,37,10866,78,64,0,2,8,14,13.mid,experiment,0
11,39,11158,79,64,0,2,8,14,13.mid,experiment,0
12,40,11381,76,64,0,2,8,14,13.mid,experiment,0
13,43,11744,72,64,0,2,8,14,13.mid,experiment,0
14,45,12067,76,64,0,2,8,14,13.mid,experiment,0
15,47,12283,79,64,0,2,8,14,13.mid,experiment,0
16,49,12610,84,64,0,2,8,14,13.mid,experiment,0
17,50,12783,83,64,0,2,8,14,13.mid,experiment,0
18,52,12911,81,64,0,2,8,14,13.mid,experiment,0
19,54,13224,81,64,0,2,8,14,13.mid,experiment,0
20,56,13502,81,64,0,2,8,14,13.mid,experiment,0
21,59,14141,83,64,0,2,8,14,13.mid,experiment,0
22,61,14396,81,64,0,2,8,14,13.mid,experiment,0
23,63,14797,84,64,0,2,8,14,13.mid,experiment,0
24,64,14949,81,64,0,2,8,14,13.mid,experiment,0
25,67,15264,78,64,0,2,8,14,13.mid,experiment,0
26,68,15465,79,64,0,2,8,14,13.mid,experiment,0
27,70,16102,79,64,0,2,8,14,13.mid,experiment,0
28,72,16997,79,64,0,2,8,14,13.mid,experiment,0
29,74,17461,77,64,0,2,8,14,13.mid,experiment,0
30,76,17756,77,64,0,2,8,14,13.mid,experiment,0
31,78,18054,76,64,0,2,8,14,13.mid,experiment,0
32,80,18340,76,64,0,2,8,14,13.mid,experiment,0
33,82,19339,74,64,0,2,8,14,13.mid,experiment,0
34,84,20258,79,64,0,2,8,14,13.mid,experiment,0
35,86,20967,77,64,0,2,8,14,13.mid,experiment,0
36,88,21139,76,64,0,2,8,14,13.mid,experiment,0
37,90,21404,76,64,0,2,8,14,13.mid,experiment,0
38,92,21691,76,64,0,2,8,14,13.mid,experiment,0
39,94,21984,76,64,0,2,8,14,13.mid,experiment,0
40,97,22653,81,64,0,2,8,14,13.mid,experiment,0
41,99,22951,77,64,0,2,8,14,13.mid,experiment,0
42,101,23177,76,64,0,2,8,14,13.mid,experiment,0
43,103,23509,74,64,0,2,8,14,13.mid,experiment,0
44,105,23784,76,64,0,2,8,14,13.mid,experiment,0
45,107,24146,79,64,0,2,8,14,13.mid,experiment,0
46,109,24337,74,64,0,2,8,14,13.mid,experiment,0
47,110,24557,71,64,0,2,8,14,13.mid,experiment,0
48,112,24668,72,64,0,2,8,14,13.mid,experiment,0
49,114,24966,72,64,0,2,8,14,13.mid,experiment,0
50,116,25259,74,64,0,2,8,14,13.mid,experiment,0
51,118,25562,74,64,0,2,8,14,13.mid,experiment,0
52,120,26550,76,64,0,2,8,14,13.mid,experiment,0
53,122,27086,65,64,0,2,8,14,13.mid,experiment,0
54,124,27378,65,64,0,2,8,14,13.mid,experiment,0
55,126,27661,64,64,0,2,8,14,13.mid,experiment,0
56,128,27948,64,64,0,2,8,14,13.mid,experiment,0
57,130,28957,62,64,0,2,8,14,13.mid,experiment,0
58,132,29482,67,64,0,2,8,14,13.mid,experiment,0
59,134,29766,67,64,0,2,8,14,13.mid,experiment,0
60,136,30042,71,64,0,2,8,14,13.mid,experiment,0
61,138,30315,71,64,0,2,8,14,13.mid,experiment,0
62,140,30621,72,64,0,2,8,14,13.mid,experiment,0
63,142,30894,72,64,0,2,8,14,13.mid,experiment,0
64,144,31179,73,64,0,2,8,14,13.mid,experiment,0
65,146,31457,73,64,0,2,8,14,13.mid,experiment,0
66,148,32311,74,64,0,2,8,14,13.mid,experiment,0
67,150,32845,77,64,0,2,8,14,13.mid,experiment,0
68,152,33459,76,64,0,2,8,14,13.mid,experiment,0
69,154,34043,74,64,0,2,8,14,13.mid,experiment,0
70,156,34580,72,64,0,2,8,14,13.mid,experiment,0
71,158,35195,84,64,0,2,8,14,13.mid,experiment,0
72,160,36179,84,64,0,2,8,14,13.mid,experiment,0
1,19,8210,79,64,0,2,9,1,10.mid,experiment,0
2,21,8489,78,64,0,2,9,1,10.mid,experiment,0
3,23,8785,79,64,0,2,9,1,10.mid,experiment,0
4,25,9048,76,64,0,2,9,1,10.mid,experiment,0
5,26,9113,72,64,0,2,9,1,10.mid,experiment,0
6,28,9363,67,64,0,2,9,1,10.mid,experiment,0
7,30,9612,67,64,0,2,9,1,10.mid,experiment,0
8,32,9881,67,64,0,2,9,1,10.mid,experiment,0
9,35,10499,79,64,0,2,9,1,10.mid,experiment,0
10,37,10741,78,64,0,2,9,1,10.mid,experiment,0
11,39,11021,79,64,0,2,9,1,10.mid,experiment,0
12,41,11291,76,64,0,2,9,1,10.mid,experiment,0
13,43,11510,72,64,0,2,9,1,10.mid,experiment,0
14,45,11817,76,64,0,2,9,1,10.mid,experiment,0
15,47,12080,79,64,0,2,9,1,10.mid,experiment,0
16,49,12378,84,64,0,2,9,1,10.mid,experiment,0
17,50,12441,83,64,0,2,9,1,10.mid,experiment,0
18,52,12669,81,64,0,2,9,1,10.mid,experiment,0
19,54,12931,81,64,0,2,9,1,10.mid,experiment,0
20,56,13188,81,64,0,2,9,1,10.mid,experiment,0
21,59,13742,83,64,0,2,9,1,10.mid,experiment,0
22,61,13983,81,64,0,2,9,1,10.mid,experiment,0
23,63,14286,84,64,0,2,9,1,10.mid,experiment,0
24,65,14542,81,64,0,2,9,1,10.mid,experiment,0
25,67,14760,78,64,0,2,9,1,10.mid,experiment,0
26,68,14827,79,64,0,2,9,1,10.mid,experiment,0
27,70,15138,79,64,0,2,9,1,10.mid,experiment,0
28,72,15782,79,64,0,2,9,1,10.mid,experiment,0
29,74,16816,77,64,0,2,9,1,10.mid,experiment,0
30,76,17108,77,64,0,2,9,1,10.mid,experiment,0
31,78,17352,76,64,0,2,9,1,10.mid,experiment,0
32,80,17602,76,64,0,2,9,1,10.mid,experiment,0
33,82,18161,74,64,0,2,9,1,10.mid,experiment,0
34,84,19195,79,64,0,2,9,1,10.mid,experiment,0
35,86,19742,77,64,0,2,9,1,10.mid,experiment,0
36,88,20194,76,64,0,2,9,1,10.mid,experiment,0
37,90,20452,76,64,0,2,9,1,10.mid,experiment,0
38,92,20695,76,64,0,2,9,1,10.mid,experiment,0
39,94,20948,76,64,0,2,9,1,10.mid,experiment,0
40,97,21459,81,64,0,2,9,1,10.mid,experiment,0
41,99,21769,77,64,0,2,9,1,10.mid,experiment,0
42,101,21969,76,64,0,2,9,1,10.mid,experiment,0
43,103,22268,74,64,0,2,9,1,10.mid,experiment,0
44,105,22466,76,64,0,2,9,1,10.mid,experiment,0
45,107,22734,79,64,0,2,9,1,10.mid,experiment,0
46,109,22939,74,64,0,2,9,1,10.mid,experiment,0
47,110,23058,71,64,0,2,9,1,10.mid,experiment,0
48,112,23279,72,64,0,2,9,1,10.mid,experiment,0
49,114,23527,72,64,0,2,9,1,10.mid,experiment,0
50,116,23782,74,64,0,2,9,1,10.mid,experiment,0
51,118,24028,74,64,0,2,9,1,10.mid,experiment,0
52,120,24499,76,64,0,2,9,1,10.mid,experiment,0
53,122,25356,65,64,0,2,9,1,10.mid,experiment,0
54,124,25643,65,64,0,2,9,1,10.mid,experiment,0
55,126,25877,64,64,0,2,9,1,10.mid,experiment,0
56,128,26132,64,64,0,2,9,1,10.mid,experiment,0
57,130,26685,62,64,0,2,9,1,10.mid,experiment,0
58,132,27417,67,64,0,2,9,1,10.mid,experiment,0
59,134,27682,67,64,0,2,9,1,10.mid,experiment,0
60,136,27913,71,64,0,2,9,1,10.mid,experiment,0
61,138,28169,71,64,0,2,9,1,10.mid,experiment,0
62,140,28461,72,64,0,2,9,1,10.mid,experiment,0
63,142,28694,72,64,0,2,9,1,10.mid,experiment,0
64,144,28929,73,64,0,2,9,1,10.mid,experiment,0
65,146,29193,73,64,0,2,9,1,10.mid,experiment,0
66,148,29669,74,64,0,2,9,1,10.mid,experiment,0
67,150,30140,77,64,0,2,9,1,10.mid,experiment,0
68,152,30640,76,64,0,2,9,1,10.mid,experiment,0
69,154,31107,74,64,0,2,9,1,10.mid,experiment,0
70,156,31647,72,64,0,2,9,1,10.mid,experiment,0
71,158,32128,84,64,0,2,9,1,10.mid,experiment,0
72,160,32827,84,64,0,2,9,1,10.mid,experiment,0
1,19,8129,79,64,0,2,9,3,16.mid,experiment,0
2,21,8379,78,64,0,2,9,3,16.mid,experiment,0
3,23,8639,79,64,0,2,9,3,16.mid,experiment,0
4,25,8839,76,64,0,2,9,3,16.mid,experiment,0
5,26,8912,72,64,0,2,9,3,16.mid,experiment,0
6,28,9144,67,64,0,2,9,3,16.mid,experiment,0
7,30,9426,67,64,0,2,9,3,16.mid,experiment,0
8,32,9687,67,64,0,2,9,3,16.mid,experiment,0
9,35,10225,79,64,0,2,9,3,16.mid,experiment,0
10,37,10455,78,64,0,2,9,3,16.mid,experiment,0
11,39,10714,79,64,0,2,9,3,16.mid,experiment,0
12,41,10971,76,64,0,2,9,3,16.mid,experiment,0
13,43,11147,72,64,0,2,9,3,16.mid,experiment,0
14,45,11460,76,64,0,2,9,3,16.mid,experiment,0
15,47,11720,79,64,0,2,9,3,16.mid,experiment,0
16,49,11948,84,64,0,2,9,3,16.mid,experiment,0
17,50,11978,83,64,0,2,9,3,16.mid,experiment,0
18,52,12227,81,64,0,2,9,3,16.mid,experiment,0
19,54,12468,81,64,0,2,9,3,16.mid,experiment,0
20,56,12708,81,64,0,2,9,3,16.mid,experiment,0
21,59,13232,83,64,0,2,9,3,16.mid,experiment,0
22,61,13470,81,64,0,2,9,3,16.mid,experiment,0
23,63,13723,84,64,0,2,9,3,16.mid,experiment,0
24,65,13993,81,64,0,2,9,3,16.mid,experiment,0
25,67,14221,78,64,0,2,9,3,16.mid,experiment,0
26,68,14311,79,64,0,2,9,3,16.mid,experiment,0
27,70,14615,79,64,0,2,9,3,16.mid,experiment,0
28,72,15272,79,64,0,2,9,3,16.mid,experiment,0
29,74,16098,77,64,0,2,9,3,16.mid,experiment,0
30,76,16365,77,64,0,2,9,3,16.mid,experiment,0
31,78,16578,76,64,0,2,9,3,16.mid,experiment,0
32,80,16839,76,64,0,2,9,3,16.mid,experiment,0
33,82,17294,74,64,0,2,9,3,16.mid,experiment,0
34,84,18258,79,64,0,2,9,3,16.mid,experiment,0
35,86,18794,77,64,0,2,9,3,16.mid,experiment,0
36,88,19221,76,64,0,2,9,3,16.mid,experiment,0
37,90,19499,76,64,0,2,9,3,16.mid,experiment,0
38,92,19720,76,64,0,2,9,3,16.mid,experiment,0
39,94,19965,76,64,0,2,9,3,16.mid,experiment,0
40,97,20435,81,64,0,2,9,3,16.mid,experiment,0
41,99,20725,77,64,0,2,9,3,16.mid,experiment,0
42,101,20942,76,64,0,2,9,3,16.mid,experiment,0
43,103,21216,74,64,0,2,9,3,16.mid,experiment,0
44,105,21402,76,64,0,2,9,3,16.mid,experiment,0
45,107,21657,79,64,0,2,9,3,16.mid,experiment,0
46,109,21879,74,64,0,2,9,3,16.mid,experiment,0
47,110,21989,71,64,0,2,9,3,16.mid,experiment,0
48,112,22168,72,64,0,2,9,3,16.mid,experiment,0
49,114,22395,72,64,0,2,9,3,16.mid,experiment,0
50,116,22621,74,64,0,2,9,3,16.mid,experiment,0
51,118,22878,74,64,0,2,9,3,16.mid,experiment,0
52,120,23234,76,64,0,2,9,3,16.mid,experiment,0
53,122,24199,65,64,0,2,9,3,16.mid,experiment,0
54,124,24445,65,64,0,2,9,3,16.mid,experiment,0
55,126,24682,64,64,0,2,9,3,16.mid,experiment,0
56,128,24923,64,64,0,2,9,3,16.mid,experiment,0
57,130,25362,62,64,0,2,9,3,16.mid,experiment,0
58,132,26281,67,64,0,2,9,3,16.mid,experiment,0
59,134,26546,67,64,0,2,9,3,16.mid,experiment,0
60,136,26773,71,64,0,2,9,3,16.mid,experiment,0
61,138,27031,71,64,0,2,9,3,16.mid,experiment,0
62,140,27275,72,64,0,2,9,3,16.mid,experiment,0
63,142,27535,72,64,0,2,9,3,16.mid,experiment,0
64,144,27756,73,64,0,2,9,3,16.mid,experiment,0
65,146,28015,73,64,0,2,9,3,16.mid,experiment,0
66,148,28408,74,64,0,2,9,3,16.mid,experiment,0
67,150,28904,77,64,0,2,9,3,16.mid,experiment,0
68,152,29385,76,64,0,2,9,3,16.mid,experiment,0
69,154,29921,74,64,0,2,9,3,16.mid,experiment,0
70,156,30714,72,64,0,2,9,3,16.mid,experiment,0
71,158,30979,84,64,0,2,9,3,16.mid,experiment,0
72,160,31624,84,64,0,2,9,3,16.mid,experiment,0
1,19,8145,79,64,0,2,9,4,15.mid,experiment,0
2,21,8404,78,64,0,2,9,4,15.mid,experiment,0
3,23,8680,79,64,0,2,9,4,15.mid,experiment,0
4,25,8931,76,64,0,2,9,4,15.mid,experiment,0
5,26,9003,72,64,0,2,9,4,15.mid,experiment,0
6,28,9262,67,64,0,2,9,4,15.mid,experiment,0
7,30,9499,67,64,0,2,9,4,15.mid,experiment,0
8,32,9765,67,64,0,2,9,4,15.mid,experiment,0
9,35,10341,79,64,0,2,9,4,15.mid,experiment,0
10,37,10571,78,64,0,2,9,4,15.mid,experiment,0
11,39,10839,79,64,0,2,9,4,15.mid,experiment,0
12,41,11123,76,64,0,2,9,4,15.mid,experiment,0
13,43,11313,72,64,0,2,9,4,15.mid,experiment,0
14,45,11623,76,64,0,2,9,4,15.mid,experiment,0
15,47,11891,79,64,0,2,9,4,15.mid,experiment,0
16,49,12139,84,64,0,2,9,4,15.mid,experiment,0
17,50,12213,83,64,0,2,9,4,15.mid,experiment,0
18,52,12454,81,64,0,2,9,4,15.mid,experiment,0
19,54,12697,81,64,0,2,9,4,15.mid,experiment,0
20,56,12947,81,64,0,2,9,4,15.mid,experiment,0
21,59,13503,83,64,0,2,9,4,15.mid,experiment,0
22,61,13749,81,64,0,2,9,4,15.mid,experiment,0
23,63,14013,84,64,0,2,9,4,15.mid,experiment,0
24,65,14337,81,64,0,2,9,4,15.mid,experiment,0
25,67,14535,78,64,0,2,9,4,15.mid,experiment,0
26,68,14661,79,64,0,2,9,4,15.mid,experiment,0
27,70,14993,79,64,0,2,9,4,15.mid,experiment,0
28,72,15643,79,64,0,2,9,4,15.mid,experiment,0
29,74,16571,77,64,0,2,9,4,15.mid,experiment,0
30,76,16825,77,64,0,2,9,4,15.mid,experiment,0
31,78,17073,76,64,0,2,9,4,15.mid,experiment,0
32,80,17331,76,64,0,2,9,4,15.mid,experiment,0
33,82,17867,74,64,0,2,9,4,15.mid,experiment,0
34,84,18896,79,64,0,2,9,4,15.mid,experiment,0
35,86,19416,77,64,0,2,9,4,15.mid,experiment,0
36,88,19803,76,64,0,2,9,4,15.mid,experiment,0
37,90,20074,76,64,0,2,9,4,15.mid,experiment,0
38,92,20309,76,64,0,2,9,4,15.mid,experiment,0
39,94,20552,76,64,0,2,9,4,15.mid,experiment,0
40,97,21066,81,64,0,2,9,4,15.mid,experiment,0
41,99,21376,77,64,0,2,9,4,15.mid,experiment,0
42,101,21569,76,64,0,2,9,4,15.mid,experiment,0
43,103,21865,74,64,0,2,9,4,15.mid,experiment,0
44,105,22065,76,64,0,2,9,4,15.mid,experiment,0
45,107,22327,79,64,0,2,9,4,15.mid,experiment,0
46,109,22581,74,64,0,2,9,4,15.mid,experiment,0
47,111,22878,71,64,0,2,9,4,15.mid,experiment,0
48,112,22917,72,64,0,2,9,4,15.mid,experiment,0
49,114,23189,72,64,0,2,9,4,15.mid,experiment,0
50,116,23463,74,64,0,2,9,4,15.mid,experiment,0
51,118,23711,74,64,0,2,9,4,15.mid,experiment,0
52,120,24065,76,64,0,2,9,4,15.mid,experiment,0
53,122,24969,65,64,0,2,9,4,15.mid,experiment,0
54,124,25223,65,64,0,2,9,4,15.mid,experiment,0
55,126,25475,64,64,0,2,9,4,15.mid,experiment,0
56,128,25743,64,64,0,2,9,4,15.mid,experiment,0
57,130,26343,62,64,0,2,9,4,15.mid,experiment,0
58,132,27063,67,64,0,2,9,4,15.mid,experiment,0
59,134,27335,67,64,0,2,9,4,15.mid,experiment,0
60,136,27547,71,64,0,2,9,4,15.mid,experiment,0
61,138,27849,71,64,0,2,9,4,15.mid,experiment,0
62,140,28089,72,64,0,2,9,4,15.mid,experiment,0
63,142,28343,72,64,0,2,9,4,15.mid,experiment,0
64,144,28607,73,64,0,2,9,4,15.mid,experiment,0
65,146,28845,73,64,0,2,9,4,15.mid,experiment,0
66,148,29341,74,64,0,2,9,4,15.mid,experiment,0
67,150,29809,77,64,0,2,9,4,15.mid,experiment,0
68,152,30267,76,64,0,2,9,4,15.mid,experiment,0
69,154,30771,74,64,0,2,9,4,15.mid,experiment,0
70,156,31321,72,64,0,2,9,4,15.mid,experiment,0
71,158,31806,84,64,0,2,9,4,15.mid,experiment,0
72,160,32505,84,64,0,2,9,4,15.mid,experiment,0
1,19,8173,79,64,0,2,9,6,2.mid,experiment,0
2,21,8432,78,64,0,2,9,6,2.mid,experiment,0
3,23,8705,79,64,0,2,9,6,2.mid,experiment,0
4,25,8954,76,64,0,2,9,6,2.mid,experiment,0
5,26,9015,72,64,0,2,9,6,2.mid,experiment,0
6,28,9247,67,64,0,2,9,6,2.mid,experiment,0
7,30,9492,67,64,0,2,9,6,2.mid,experiment,0
8,32,9751,67,64,0,2,9,6,2.mid,experiment,0
9,35,10299,79,64,0,2,9,6,2.mid,experiment,0
10,37,10539,78,64,0,2,9,6,2.mid,experiment,0
11,39,10805,79,64,0,2,9,6,2.mid,experiment,0
12,41,11045,76,64,0,2,9,6,2.mid,experiment,0
13,43,11268,72,64,0,2,9,6,2.mid,experiment,0
14,45,11570,76,64,0,2,9,6,2.mid,experiment,0
15,47,11822,79,64,0,2,9,6,2.mid,experiment,0
16,49,12098,84,64,0,2,9,6,2.mid,experiment,0
17,50,12157,83,64,0,2,9,6,2.mid,experiment,0
18,52,12392,81,64,0,2,9,6,2.mid,experiment,0
19,54,12613,81,64,0,2,9,6,2.mid,experiment,0
20,56,12863,81,64,0,2,9,6,2.mid,experiment,0
21,59,13396,83,64,0,2,9,6,2.mid,experiment,0
22,61,13634,81,64,0,2,9,6,2.mid,experiment,0
23,63,13908,84,64,0,2,9,6,2.mid,experiment,0
24,65,14187,81,64,0,2,9,6,2.mid,experiment,0
25,67,14393,78,64,0,2,9,6,2.mid,experiment,0
26,68,14429,79,64,0,2,9,6,2.mid,experiment,0
27,70,14766,79,64,0,2,9,6,2.mid,experiment,0
28,72,15422,79,64,0,2,9,6,2.mid,experiment,0
29,74,16341,77,64,0,2,9,6,2.mid,experiment,0
30,76,16589,77,64,0,2,9,6,2.mid,experiment,0
31,78,16819,76,64,0,2,9,6,2.mid,experiment,0
32,80,17083,76,64,0,2,9,6,2.mid,experiment,0
33,82,17640,74,64,0,2,9,6,2.mid,experiment,0
34,84,18610,79,64,0,2,9,6,2.mid,experiment,0
35,86,19156,77,64,0,2,9,6,2.mid,experiment,0
36,88,19539,76,64,0,2,9,6,2.mid,experiment,0
37,90,19807,76,64,0,2,9,6,2.mid,experiment,0
38,92,20053,76,64,0,2,9,6,2.mid,experiment,0
39,94,20294,76,64,0,2,9,6,2.mid,experiment,0
40,97,20790,81,64,0,2,9,6,2.mid,experiment,0
41,99,21087,77,64,0,2,9,6,2.mid,experiment,0
42,101,21306,76,64,0,2,9,6,2.mid,experiment,0
43,103,21602,74,64,0,2,9,6,2.mid,experiment,0
44,105,21790,76,64,0,2,9,6,2.mid,experiment,0
45,107,22064,79,64,0,2,9,6,2.mid,experiment,0
46,109,22275,74,64,0,2,9,6,2.mid,experiment,0
47,110,22480,71,64,0,2,9,6,2.mid,experiment,0
48,112,22600,72,64,0,2,9,6,2.mid,experiment,0
49,114,22830,72,64,0,2,9,6,2.mid,experiment,0
50,116,23073,74,64,0,2,9,6,2.mid,experiment,0
51,118,23306,74,64,0,2,9,6,2.mid,experiment,0
52,120,23817,76,64,0,2,9,6,2.mid,experiment,0
53,122,24640,65,64,0,2,9,6,2.mid,experiment,0
54,124,24883,65,64,0,2,9,6,2.mid,experiment,0
55,126,25103,64,64,0,2,9,6,2.mid,experiment,0
56,128,25374,64,64,0,2,9,6,2.mid,experiment,0
57,130,25971,62,64,0,2,9,6,2.mid,experiment,0
58,132,26647,67,64,0,2,9,6,2.mid,experiment,0
59,134,26902,67,64,0,2,9,6,2.mid,experiment,0
60,136,27142,71,64,0,2,9,6,2.mid,experiment,0
61,138,27396,71,64,0,2,9,6,2.mid,experiment,0
62,140,27656,72,64,0,2,9,6,2.mid,experiment,0
63,142,27901,72,64,0,2,9,6,2.mid,experiment,0
64,144,28154,73,64,0,2,9,6,2.mid,experiment,0
65,146,28386,73,64,0,2,9,6,2.mid,experiment,0
66,148,28955,74,64,0,2,9,6,2.mid,experiment,0
67,150,29430,77,64,0,2,9,6,2.mid,experiment,0
68,152,29920,76,64,0,2,9,6,2.mid,experiment,0
69,154,30384,74,64,0,2,9,6,2.mid,experiment,0
70,156,30906,72,64,0,2,9,6,2.mid,experiment,0
71,158,31368,84,64,0,2,9,6,2.mid,experiment,0
72,160,32065,84,64,0,2,9,6,2.mid,experiment,0
1,19,8128,79,64,0,2,9,9,8.mid,experiment,0
2,21,8376,78,64,0,2,9,9,8.mid,experiment,0
3,23,8636,79,64,0,2,9,9,8.mid,experiment,0
4,25,8856,76,64,0,2,9,9,8.mid,experiment,0
5,26,8925,72,64,0,2,9,9,8.mid,experiment,0
6,28,9178,67,64,0,2,9,9,8.mid,experiment,0
7,30,9422,67,64,0,2,9,9,8.mid,experiment,0
8,32,9677,67,64,0,2,9,9,8.mid,experiment,0
9,35,10238,79,64,0,2,9,9,8.mid,experiment,0
10,37,10444,78,64,0,2,9,9,8.mid,experiment,0
11,39,10710,79,64,0,2,9,9,8.mid,experiment,0
12,41,10952,76,64,0,2,9,9,8.mid,experiment,0
13,43,11158,72,64,0,2,9,9,8.mid,experiment,0
14,45,11448,76,64,0,2,9,9,8.mid,experiment,0
15,47,11702,79,64,0,2,9,9,8.mid,experiment,0
16,49,12000,84,64,0,2,9,9,8.mid,experiment,0
17,50,12100,83,64,0,2,9,9,8.mid,experiment,0
18,52,12292,81,64,0,2,9,9,8.mid,experiment,0
19,54,12526,81,64,0,2,9,9,8.mid,experiment,0
20,56,12744,81,64,0,2,9,9,8.mid,experiment,0
21,59,13277,83,64,0,2,9,9,8.mid,experiment,0
22,61,13511,81,64,0,2,9,9,8.mid,experiment,0
23,63,13783,84,64,0,2,9,9,8.mid,experiment,0
24,65,14061,81,64,0,2,9,9,8.mid,experiment,0
25,67,14259,78,64,0,2,9,9,8.mid,experiment,0
26,68,14332,79,64,0,2,9,9,8.mid,experiment,0
27,70,14660,79,64,0,2,9,9,8.mid,experiment,0
28,72,15282,79,64,0,2,9,9,8.mid,experiment,0
29,74,16168,77,64,0,2,9,9,8.mid,experiment,0
30,76,16454,77,64,0,2,9,9,8.mid,experiment,0
31,78,16677,76,64,0,2,9,9,8.mid,experiment,0
32,80,16942,76,64,0,2,9,9,8.mid,experiment,0
33,82,17502,74,64,0,2,9,9,8.mid,experiment,0
34,84,18411,79,64,0,2,9,9,8.mid,experiment,0
35,86,18935,77,64,0,2,9,9,8.mid,experiment,0
36,88,19314,76,64,0,2,9,9,8.mid,experiment,0
37,90,19584,76,64,0,2,9,9,8.mid,experiment,0
38,92,19824,76,64,0,2,9,9,8.mid,experiment,0
39,94,20060,76,64,0,2,9,9,8.mid,experiment,0
40,97,20566,81,64,0,2,9,9,8.mid,experiment,0
41,99,20863,77,64,0,2,9,9,8.mid,experiment,0
42,101,21078,76,64,0,2,9,9,8.mid,experiment,0
43,103,21366,74,64,0,2,9,9,8.mid,experiment,0
44,105,21562,76,64,0,2,9,9,8.mid,experiment,0
45,107,21828,79,64,0,2,9,9,8.mid,experiment,0
46,109,22034,74,64,0,2,9,9,8.mid,experiment,0
47,110,22120,71,64,0,2,9,9,8.mid,experiment,0
48,112,22346,72,64,0,2,9,9,8.mid,experiment,0
49,114,22592,72,64,0,2,9,9,8.mid,experiment,0
50,116,22827,74,64,0,2,9,9,8.mid,experiment,0
51,118,23070,74,64,0,2,9,9,8.mid,experiment,0
52,120,23564,76,64,0,2,9,9,8.mid,experiment,0
53,122,24390,65,64,0,2,9,9,8.mid,experiment,0
54,124,24650,65,64,0,2,9,9,8.mid,experiment,0
55,126,24874,64,64,0,2,9,9,8.mid,experiment,0
56,128,25122,64,64,0,2,9,9,8.mid,experiment,0
57,130,25680,62,64,0,2,9,9,8.mid,experiment,0
58,132,26424,67,64,0,2,9,9,8.mid,experiment,0
59,134,26678,67,64,0,2,9,9,8.mid,experiment,0
60,136,26900,71,64,0,2,9,9,8.mid,experiment,0
61,138,27140,71,64,0,2,9,9,8.mid,experiment,0
62,140,27424,72,64,0,2,9,9,8.mid,experiment,0
63,142,27666,72,64,0,2,9,9,8.mid,experiment,0
64,144,27916,73,64,0,2,9,9,8.mid,experiment,0
65,146,28166,73,64,0,2,9,9,8.mid,experiment,0
66,148,28578,74,64,0,2,9,9,8.mid,experiment,0
67,150,29103,77,64,0,2,9,9,8.mid,experiment,0
68,152,29578,76,64,0,2,9,9,8.mid,experiment,0
69,154,30076,74,64,0,2,9,9,8.mid,experiment,0
70,156,30640,72,64,0,2,9,9,8.mid,experiment,0
71,158,31116,84,64,0,2,9,9,8.mid,experiment,0
72,160,31788,84,64,0,2,9,9,8.mid,experiment,0
1,19,8140,79,64,0,2,9,10,14.mid,experiment,0
2,21,8391,78,64,0,2,9,10,14.mid,experiment,0
3,23,8663,79,64,0,2,9,10,14.mid,experiment,0
4,25,8912,76,64,0,2,9,10,14.mid,experiment,0
5,26,8985,72,64,0,2,9,10,14.mid,experiment,0
6,28,9210,67,64,0,2,9,10,14.mid,experiment,0
7,30,9481,67,64,0,2,9,10,14.mid,experiment,0
8,32,9751,67,64,0,2,9,10,14.mid,experiment,0
9,35,10273,79,64,0,2,9,10,14.mid,experiment,0
10,37,10521,78,64,0,2,9,10,14.mid,experiment,0
11,39,10773,79,64,0,2,9,10,14.mid,experiment,0
12,41,11052,76,64,0,2,9,10,14.mid,experiment,0
13,43,11246,72,64,0,2,9,10,14.mid,experiment,0
14,45,11552,76,64,0,2,9,10,14.mid,experiment,0
15,47,11791,79,64,0,2,9,10,14.mid,experiment,0
16,49,12050,84,64,0,2,9,10,14.mid,experiment,0
17,50,12103,83,64,0,2,9,10,14.mid,experiment,0
18,52,12337,81,64,0,2,9,10,14.mid,experiment,0
19,54,12553,81,64,0,2,9,10,14.mid,experiment,0
20,56,12802,81,64,0,2,9,10,14.mid,experiment,0
21,59,13331,83,64,0,2,9,10,14.mid,experiment,0
22,61,13561,81,64,0,2,9,10,14.mid,experiment,0
23,63,13813,84,64,0,2,9,10,14.mid,experiment,0
24,65,14102,81,64,0,2,9,10,14.mid,experiment,0
25,67,14341,78,64,0,2,9,10,14.mid,experiment,0
26,68,14407,79,64,0,2,9,10,14.mid,experiment,0
27,70,14784,79,64,0,2,9,10,14.mid,experiment,0
28,72,15448,79,64,0,2,9,10,14.mid,experiment,0
29,74,16266,77,64,0,2,9,10,14.mid,experiment,0
30,76,16508,77,64,0,2,9,10,14.mid,experiment,0
31,78,16747,76,64,0,2,9,10,14.mid,experiment,0
32,80,16990,76,64,0,2,9,10,14.mid,experiment,0
33,82,17549,74,64,0,2,9,10,14.mid,experiment,0
34,84,18521,79,64,0,2,9,10,14.mid,experiment,0
35,86,19030,77,64,0,2,9,10,14.mid,experiment,0
36,88,19412,76,64,0,2,9,10,14.mid,experiment,0
37,90,19671,76,64,0,2,9,10,14.mid,experiment,0
38,92,19898,76,64,0,2,9,10,14.mid,experiment,0
39,94,20163,76,64,0,2,9,10,14.mid,experiment,0
40,97,20648,81,64,0,2,9,10,14.mid,experiment,0
41,99,20929,77,64,0,2,9,10,14.mid,experiment,0
42,101,21137,76,64,0,2,9,10,14.mid,experiment,0
43,103,21445,74,64,0,2,9,10,14.mid,experiment,0
44,105,21626,76,64,0,2,9,10,14.mid,experiment,0
45,107,21874,79,64,0,2,9,10,14.mid,experiment,0
46,109,22094,74,64,0,2,9,10,14.mid,experiment,0
47,110,22237,71,64,0,2,9,10,14.mid,experiment,0
48,112,22435,72,64,0,2,9,10,14.mid,experiment,0
49,114,22670,72,64,0,2,9,10,14.mid,experiment,0
50,116,22912,74,64,0,2,9,10,14.mid,experiment,0
51,118,23153,74,64,0,2,9,10,14.mid,experiment,0
52,120,23648,76,64,0,2,9,10,14.mid,experiment,0
53,122,24473,65,64,0,2,9,10,14.mid,experiment,0
54,124,24759,65,64,0,2,9,10,14.mid,experiment,0
55,126,24968,64,64,0,2,9,10,14.mid,experiment,0
56,128,25248,64,64,0,2,9,10,14.mid,experiment,0
57,130,25839,62,64,0,2,9,10,14.mid,experiment,0
58,132,26557,67,64,0,2,9,10,14.mid,experiment,0
59,134,26797,67,64,0,2,9,10,14.mid,experiment,0
60,136,27044,71,64,0,2,9,10,14.mid,experiment,0
61,138,27293,71,64,0,2,9,10,14.mid,experiment,0
62,140,27556,72,64,0,2,9,10,14.mid,experiment,0
63,142,27782,72,64,0,2,9,10,14.mid,experiment,0
64,144,28046,73,64,0,2,9,10,14.mid,experiment,0
65,146,28274,73,64,0,2,9,10,14.mid,experiment,0
66,148,28764,74,64,0,2,9,10,14.mid,experiment,0
67,150,29304,77,64,0,2,9,10,14.mid,experiment,0
68,152,29762,76,64,0,2,9,10,14.mid,experiment,0
69,154,30268,74,64,0,2,9,10,14.mid,experiment,0
70,156,30863,72,64,0,2,9,10,14.mid,experiment,0
71,158,31260,84,64,0,2,9,10,14.mid,experiment,0
72,160,31945,84,64,0,2,9,10,14.mid,experiment,0
1,19,8136,79,64,0,2,9,11,7.mid,experiment,0
2,21,8382,78,64,0,2,9,11,7.mid,experiment,0
3,23,8640,79,64,0,2,9,11,7.mid,experiment,0
4,25,8885,76,64,0,2,9,11,7.mid,experiment,0
5,26,8968,72,64,0,2,9,11,7.mid,experiment,0
6,28,9211,67,64,0,2,9,11,7.mid,experiment,0
7,30,9466,67,64,0,2,9,11,7.mid,experiment,0
8,32,9705,67,64,0,2,9,11,7.mid,experiment,0
9,35,10275,79,64,0,2,9,11,7.mid,experiment,0
10,37,10516,78,64,0,2,9,11,7.mid,experiment,0
11,39,10757,79,64,0,2,9,11,7.mid,experiment,0
12,41,11037,76,64,0,2,9,11,7.mid,experiment,0
13,43,11235,72,64,0,2,9,11,7.mid,experiment,0
14,45,11545,76,64,0,2,9,11,7.mid,experiment,0
15,47,11793,79,64,0,2,9,11,7.mid,experiment,0
16,49,12077,84,64,0,2,9,11,7.mid,experiment,0
17,50,12162,83,64,0,2,9,11,7.mid,experiment,0
18,52,12366,81,64,0,2,9,11,7.mid,experiment,0
19,54,12617,81,64,0,2,9,11,7.mid,experiment,0
20,56,12853,81,64,0,2,9,11,7.mid,experiment,0
21,59,13394,83,64,0,2,9,11,7.mid,experiment,0
22,61,13630,81,64,0,2,9,11,7.mid,experiment,0
23,63,13886,84,64,0,2,9,11,7.mid,experiment,0
24,65,14170,81,64,0,2,9,11,7.mid,experiment,0
25,67,14400,78,64,0,2,9,11,7.mid,experiment,0
26,68,14528,79,64,0,2,9,11,7.mid,experiment,0
27,70,14871,79,64,0,2,9,11,7.mid,experiment,0
28,72,15480,79,64,0,2,9,11,7.mid,experiment,0
29,74,16348,77,64,0,2,9,11,7.mid,experiment,0
30,76,16603,77,64,0,2,9,11,7.mid,experiment,0
31,78,16840,76,64,0,2,9,11,7.mid,experiment,0
32,80,17105,76,64,0,2,9,11,7.mid,experiment,0
33,82,17677,74,64,0,2,9,11,7.mid,experiment,0
34,84,18637,79,64,0,2,9,11,7.mid,experiment,0
35,86,19145,77,64,0,2,9,11,7.mid,experiment,0
36,88,19573,76,64,0,2,9,11,7.mid,experiment,0
37,90,19805,76,64,0,2,9,11,7.mid,experiment,0
38,92,20068,76,64,0,2,9,11,7.mid,experiment,0
39,94,20309,76,64,0,2,9,11,7.mid,experiment,0
40,97,20824,81,64,0,2,9,11,7.mid,experiment,0
41,99,21106,77,64,0,2,9,11,7.mid,experiment,0
42,101,21326,76,64,0,2,9,11,7.mid,experiment,0
43,103,21637,74,64,0,2,9,11,7.mid,experiment,0
44,105,21824,76,64,0,2,9,11,7.mid,experiment,0
45,107,22094,79,64,0,2,9,11,7.mid,experiment,0
46,109,22295,74,64,0,2,9,11,7.mid,experiment,0
47,110,22370,71,64,0,2,9,11,7.mid,experiment,0
48,112,22595,72,64,0,2,9,11,7.mid,experiment,0
49,114,22846,72,64,0,2,9,11,7.mid,experiment,0
50,116,23059,74,64,0,2,9,11,7.mid,experiment,0
51,118,23326,74,64,0,2,9,11,7.mid,experiment,0
52,120,23808,76,64,0,2,9,11,7.mid,experiment,0
53,122,24627,65,64,0,2,9,11,7.mid,experiment,0
54,124,24872,65,64,0,2,9,11,7.mid,experiment,0
55,126,25100,64,64,0,2,9,11,7.mid,experiment,0
56,128,25338,64,64,0,2,9,11,7.mid,experiment,0
57,130,25942,62,64,0,2,9,11,7.mid,experiment,0
58,132,26664,67,64,0,2,9,11,7.mid,experiment,0
59,134,26900,67,64,0,2,9,11,7.mid,experiment,0
60,136,27166,71,64,0,2,9,11,7.mid,experiment,0
61,138,27406,71,64,0,2,9,11,7.mid,experiment,0
62,140,27678,72,64,0,2,9,11,7.mid,experiment,0
63,142,27936,72,64,0,2,9,11,7.mid,experiment,0
64,144,28160,73,64,0,2,9,11,7.mid,experiment,0
65,146,28420,73,64,0,2,9,11,7.mid,experiment,0
66,148,28864,74,64,0,2,9,11,7.mid,experiment,0
67,150,29384,77,64,0,2,9,11,7.mid,experiment,0
68,152,29847,76,64,0,2,9,11,7.mid,experiment,0
69,154,30350,74,64,0,2,9,11,7.mid,experiment,0
70,156,30876,72,64,0,2,9,11,7.mid,experiment,0
71,158,31327,84,64,0,2,9,11,7.mid,experiment,0
72,160,31980,84,64,0,2,9,11,7.mid,experiment,0
1,19,8148,79,64,0,2,9,12,4.mid,experiment,0
2,21,8408,78,64,0,2,9,12,4.mid,experiment,0
3,23,8665,79,64,0,2,9,12,4.mid,experiment,0
4,25,8938,76,64,0,2,9,12,4.mid,experiment,0
5,26,8994,72,64,0,2,9,12,4.mid,experiment,0
6,28,9232,67,64,0,2,9,12,4.mid,experiment,0
7,30,9486,67,64,0,2,9,12,4.mid,experiment,0
8,32,9739,67,64,0,2,9,12,4.mid,experiment,0
9,35,10296,79,64,0,2,9,12,4.mid,experiment,0
10,37,10515,78,64,0,2,9,12,4.mid,experiment,0
11,39,10782,79,64,0,2,9,12,4.mid,experiment,0
12,41,11049,76,64,0,2,9,12,4.mid,experiment,0
13,43,11245,72,64,0,2,9,12,4.mid,experiment,0
14,45,11543,76,64,0,2,9,12,4.mid,experiment,0
15,47,11791,79,64,0,2,9,12,4.mid,experiment,0
16,49,12062,84,64,0,2,9,12,4.mid,experiment,0
17,50,12129,83,64,0,2,9,12,4.mid,experiment,0
18,52,12349,81,64,0,2,9,12,4.mid,experiment,0
19,54,12597,81,64,0,2,9,12,4.mid,experiment,0
20,56,12829,81,64,0,2,9,12,4.mid,experiment,0
21,59,13373,83,64,0,2,9,12,4.mid,experiment,0
22,61,13607,81,64,0,2,9,12,4.mid,experiment,0
23,63,13855,84,64,0,2,9,12,4.mid,experiment,0
24,65,14166,81,64,0,2,9,12,4.mid,experiment,0
25,67,14384,78,64,0,2,9,12,4.mid,experiment,0
26,68,14475,79,64,0,2,9,12,4.mid,experiment,0
27,70,14808,79,64,0,2,9,12,4.mid,experiment,0
28,72,15372,79,64,0,2,9,12,4.mid,experiment,0
29,74,16246,77,64,0,2,9,12,4.mid,experiment,0
30,76,16495,77,64,0,2,9,12,4.mid,experiment,0
31,78,16724,76,64,0,2,9,12,4.mid,experiment,0
32,80,16973,76,64,0,2,9,12,4.mid,experiment,0
33,82,17468,74,64,0,2,9,12,4.mid,experiment,0
34,84,18434,79,64,0,2,9,12,4.mid,experiment,0
35,86,18941,77,64,0,2,9,12,4.mid,experiment,0
36,88,19353,76,64,0,2,9,12,4.mid,experiment,0
37,90,19589,76,64,0,2,9,12,4.mid,experiment,0
38,92,19820,76,64,0,2,9,12,4.mid,experiment,0
39,94,20070,76,64,0,2,9,12,4.mid,experiment,0
40,97,20584,81,64,0,2,9,12,4.mid,experiment,0
41,99,20861,77,64,0,2,9,12,4.mid,experiment,0
42,101,21093,76,64,0,2,9,12,4.mid,experiment,0
43,103,21365,74,64,0,2,9,12,4.mid,experiment,0
44,105,21565,76,64,0,2,9,12,4.mid,experiment,0
45,107,21853,79,64,0,2,9,12,4.mid,experiment,0
46,109,22071,74,64,0,2,9,12,4.mid,experiment,0
47,110,22140,71,64,0,2,9,12,4.mid,experiment,0
48,112,22360,72,64,0,2,9,12,4.mid,experiment,0
49,114,22583,72,64,0,2,9,12,4.mid,experiment,0
50,116,22828,74,64,0,2,9,12,4.mid,experiment,0
51,118,23092,74,64,0,2,9,12,4.mid,experiment,0
52,120,23580,76,64,0,2,9,12,4.mid,experiment,0
53,122,24398,65,64,0,2,9,12,4.mid,experiment,0
54,124,24659,65,64,0,2,9,12,4.mid,experiment,0
55,126,24868,64,64,0,2,9,12,4.mid,experiment,0
56,128,25114,64,64,0,2,9,12,4.mid,experiment,0
57,130,25673,62,64,0,2,9,12,4.mid,experiment,0
58,132,26375,67,64,0,2,9,12,4.mid,experiment,0
59,134,26618,67,64,0,2,9,12,4.mid,experiment,0
60,136,26875,71,64,0,2,9,12,4.mid,experiment,0
61,138,27153,71,64,0,2,9,12,4.mid,experiment,0
62,140,27380,72,64,0,2,9,12,4.mid,experiment,0
63,142,27612,72,64,0,2,9,12,4.mid,experiment,0
64,144,27855,73,64,0,2,9,12,4.mid,experiment,0
65,146,28125,73,64,0,2,9,12,4.mid,experiment,0
66,148,28520,74,64,0,2,9,12,4.mid,experiment,0
67,150,29043,77,64,0,2,9,12,4.mid,experiment,0
68,152,29507,76,64,0,2,9,12,4.mid,experiment,0
69,154,29988,74,64,0,2,9,12,4.mid,experiment,0
70,156,30509,72,64,0,2,9,12,4.mid,experiment,0
71,158,30975,84,64,0,2,9,12,4.mid,experiment,0
72,160,31579,84,64,0,2,9,12,4.mid,experiment,0
1,19,8125,79,64,0,2,9,13,13.mid,experiment,0
2,21,8378,78,64,0,2,9,13,13.mid,experiment,0
3,23,8672,79,64,0,2,9,13,13.mid,experiment,0
4,25,8922,76,64,0,2,9,13,13.mid,experiment,0
5,26,8967,72,64,0,2,9,13,13.mid,experiment,0
6,28,9219,67,64,0,2,9,13,13.mid,experiment,0
7,30,9456,67,64,0,2,9,13,13.mid,experiment,0
8,32,9725,67,64,0,2,9,13,13.mid,experiment,0
9,35,10249,79,64,0,2,9,13,13.mid,experiment,0
10,37,10492,78,64,0,2,9,13,13.mid,experiment,0
11,39,10740,79,64,0,2,9,13,13.mid,experiment,0
12,41,11015,76,64,0,2,9,13,13.mid,experiment,0
13,43,11208,72,64,0,2,9,13,13.mid,experiment,0
14,45,11523,76,64,0,2,9,13,13.mid,experiment,0
15,47,11754,79,64,0,2,9,13,13.mid,experiment,0
16,49,12026,84,64,0,2,9,13,13.mid,experiment,0
17,50,12088,83,64,0,2,9,13,13.mid,experiment,0
18,52,12313,81,64,0,2,9,13,13.mid,experiment,0
19,54,12543,81,64,0,2,9,13,13.mid,experiment,0
20,56,12777,81,64,0,2,9,13,13.mid,experiment,0
21,59,13306,83,64,0,2,9,13,13.mid,experiment,0
22,61,13529,81,64,0,2,9,13,13.mid,experiment,0
23,63,13824,84,64,0,2,9,13,13.mid,experiment,0
24,65,14083,81,64,0,2,9,13,13.mid,experiment,0
25,67,14289,78,64,0,2,9,13,13.mid,experiment,0
26,68,14377,79,64,0,2,9,13,13.mid,experiment,0
27,70,14674,79,64,0,2,9,13,13.mid,experiment,0
28,72,15286,79,64,0,2,9,13,13.mid,experiment,0
29,74,16150,77,64,0,2,9,13,13.mid,experiment,0
30,76,16386,77,64,0,2,9,13,13.mid,experiment,0
31,78,16603,76,64,0,2,9,13,13.mid,experiment,0
32,80,16852,76,64,0,2,9,13,13.mid,experiment,0
33,82,17392,74,64,0,2,9,13,13.mid,experiment,0
34,84,18275,79,64,0,2,9,13,13.mid,experiment,0
35,86,18778,77,64,0,2,9,13,13.mid,experiment,0
36,88,19185,76,64,0,2,9,13,13.mid,experiment,0
37,90,19431,76,64,0,2,9,13,13.mid,experiment,0
38,92,19690,76,64,0,2,9,13,13.mid,experiment,0
39,94,19943,76,64,0,2,9,13,13.mid,experiment,0
40,97,20425,81,64,0,2,9,13,13.mid,experiment,0
41,99,20736,77,64,0,2,9,13,13.mid,experiment,0
42,101,20917,76,64,0,2,9,13,13.mid,experiment,0
43,103,21208,74,64,0,2,9,13,13.mid,experiment,0
44,105,21413,76,64,0,2,9,13,13.mid,experiment,0
45,107,21693,79,64,0,2,9,13,13.mid,experiment,0
46,109,21874,74,64,0,2,9,13,13.mid,experiment,0
47,110,21957,71,64,0,2,9,13,13.mid,experiment,0
48,112,22165,72,64,0,2,9,13,13.mid,experiment,0
49,114,22382,72,64,0,2,9,13,13.mid,experiment,0
50,116,22645,74,64,0,2,9,13,13.mid,experiment,0
51,118,22886,74,64,0,2,9,13,13.mid,experiment,0
52,120,23391,76,64,0,2,9,13,13.mid,experiment,0
53,122,24154,65,64,0,2,9,13,13.mid,experiment,0
54,124,24415,65,64,0,2,9,13,13.mid,experiment,0
55,126,24635,64,64,0,2,9,13,13.mid,experiment,0
56,128,24875,64,64,0,2,9,13,13.mid,experiment,0
57,130,25444,62,64,0,2,9,13,13.mid,experiment,0
58,132,26121,67,64,0,2,9,13,13.mid,experiment,0
59,134,26361,67,64,0,2,9,13,13.mid,experiment,0
60,136,26608,71,64,0,2,9,13,13.mid,experiment,0
61,138,26861,71,64,0,2,9,13,13.mid,experiment,0
62,140,27093,72,64,0,2,9,13,13.mid,experiment,0
63,142,27330,72,64,0,2,9,13,13.mid,experiment,0
64,144,27571,73,64,0,2,9,13,13.mid,experiment,0
65,146,27841,73,64,0,2,9,13,13.mid,experiment,0
66,148,28258,74,64,0,2,9,13,13.mid,experiment,0
67,150,28747,77,64,0,2,9,13,13.mid,experiment,0
68,152,29217,76,64,0,2,9,13,13.mid,experiment,0
69,154,29722,74,64,0,2,9,13,13.mid,experiment,0
70,156,30232,72,64,0,2,9,13,13.mid,experiment,0
71,158,30707,84,64,0,2,9,13,13.mid,experiment,0
72,160,31309,84,64,0,2,9,13,13.mid,experiment,0
1,19,8139,79,64,0,2,9,14,3.mid,experiment,0
2,21,8383,78,64,0,2,9,14,3.mid,experiment,0
3,23,8634,79,64,0,2,9,14,3.mid,experiment,0
4,25,8903,76,64,0,2,9,14,3.mid,experiment,0
5,26,8958,72,64,0,2,9,14,3.mid,experiment,0
6,28,9182,67,64,0,2,9,14,3.mid,experiment,0
7,30,9431,67,64,0,2,9,14,3.mid,experiment,0
8,32,9674,67,64,0,2,9,14,3.mid,experiment,0
9,35,10212,79,64,0,2,9,14,3.mid,experiment,0
10,37,10440,78,64,0,2,9,14,3.mid,experiment,0
11,39,10710,79,64,0,2,9,14,3.mid,experiment,0
12,41,10966,76,64,0,2,9,14,3.mid,experiment,0
13,43,11168,72,64,0,2,9,14,3.mid,experiment,0
14,45,11491,76,64,0,2,9,14,3.mid,experiment,0
15,47,11730,79,64,0,2,9,14,3.mid,experiment,0
16,49,11987,84,64,0,2,9,14,3.mid,experiment,0
17,50,12041,83,64,0,2,9,14,3.mid,experiment,0
18,52,12285,81,64,0,2,9,14,3.mid,experiment,0
19,54,12509,81,64,0,2,9,14,3.mid,experiment,0
20,56,12750,81,64,0,2,9,14,3.mid,experiment,0
21,59,13275,83,64,0,2,9,14,3.mid,experiment,0
22,61,13509,81,64,0,2,9,14,3.mid,experiment,0
23,63,13757,84,64,0,2,9,14,3.mid,experiment,0
24,65,14053,81,64,0,2,9,14,3.mid,experiment,0
25,67,14269,78,64,0,2,9,14,3.mid,experiment,0
26,68,14341,79,64,0,2,9,14,3.mid,experiment,0
27,70,14687,79,64,0,2,9,14,3.mid,experiment,0
28,72,15225,79,64,0,2,9,14,3.mid,experiment,0
29,74,16091,77,64,0,2,9,14,3.mid,experiment,0
30,76,16366,77,64,0,2,9,14,3.mid,experiment,0
31,78,16593,76,64,0,2,9,14,3.mid,experiment,0
32,80,16857,76,64,0,2,9,14,3.mid,experiment,0
33,82,17386,74,64,0,2,9,14,3.mid,experiment,0
34,84,18249,79,64,0,2,9,14,3.mid,experiment,0
35,86,18759,77,64,0,2,9,14,3.mid,experiment,0
36,88,19196,76,64,0,2,9,14,3.mid,experiment,0
37,90,19450,76,64,0,2,9,14,3.mid,experiment,0
38,92,19701,76,64,0,2,9,14,3.mid,experiment,0
39,94,19938,76,64,0,2,9,14,3.mid,experiment,0
40,97,20464,81,64,0,2,9,14,3.mid,experiment,0
41,99,20739,77,64,0,2,9,14,3.mid,experiment,0
42,101,20963,76,64,0,2,9,14,3.mid,experiment,0
43,103,21215,74,64,0,2,9,14,3.mid,experiment,0
44,105,21419,76,64,0,2,9,14,3.mid,experiment,0
45,107,21701,79,64,0,2,9,14,3.mid,experiment,0
46,109,21945,74,64,0,2,9,14,3.mid,experiment,0
47,110,22085,71,64,0,2,9,14,3.mid,experiment,0
48,112,22289,72,64,0,2,9,14,3.mid,experiment,0
49,114,22532,72,64,0,2,9,14,3.mid,experiment,0
50,116,22773,74,64,0,2,9,14,3.mid,experiment,0
51,118,23033,74,64,0,2,9,14,3.mid,experiment,0
52,120,23600,76,64,0,2,9,14,3.mid,experiment,0
53,122,24394,65,64,0,2,9,14,3.mid,experiment,0
54,124,24648,65,64,0,2,9,14,3.mid,experiment,0
55,126,24875,64,64,0,2,9,14,3.mid,experiment,0
56,128,25133,64,64,0,2,9,14,3.mid,experiment,0
57,130,25728,62,64,0,2,9,14,3.mid,experiment,0
58,132,26468,67,64,0,2,9,14,3.mid,experiment,0
59,134,26715,67,64,0,2,9,14,3.mid,experiment,0
60,136,26965,71,64,0,2,9,14,3.mid,experiment,0
61,138,27215,71,64,0,2,9,14,3.mid,experiment,0
62,140,27485,72,64,0,2,9,14,3.mid,experiment,0
63,142,27713,72,64,0,2,9,14,3.mid,experiment,0
64,144,27972,73,64,0,2,9,14,3.mid,experiment,0
65,146,28199,73,64,0,2,9,14,3.mid,experiment,0
66,148,28734,74,64,0,2,9,14,3.mid,experiment,0
67,150,29287,77,64,0,2,9,14,3.mid,experiment,0
68,152,29789,76,64,0,2,9,14,3.mid,experiment,0
69,154,30270,74,64,0,2,9,14,3.mid,experiment,0
70,156,30860,72,64,0,2,9,14,3.mid,experiment,0
71,158,31315,84,64,0,2,9,14,3.mid,experiment,0
72,160,31938,84,64,0,2,9,14,3.mid,experiment,0
1,19,8172,79,64,0,2,9,15,12.mid,experiment,0
2,21,8418,78,64,0,2,9,15,12.mid,experiment,0
3,23,8677,79,64,0,2,9,15,12.mid,experiment,0
4,25,8925,76,64,0,2,9,15,12.mid,experiment,0
5,26,8983,72,64,0,2,9,15,12.mid,experiment,0
6,28,9204,67,64,0,2,9,15,12.mid,experiment,0
7,30,9459,67,64,0,2,9,15,12.mid,experiment,0
8,32,9707,67,64,0,2,9,15,12.mid,experiment,0
9,35,10233,79,64,0,2,9,15,12.mid,experiment,0
10,37,10467,78,64,0,2,9,15,12.mid,experiment,0
11,39,10727,79,64,0,2,9,15,12.mid,experiment,0
12,41,10999,76,64,0,2,9,15,12.mid,experiment,0
13,43,11199,72,64,0,2,9,15,12.mid,experiment,0
14,45,11477,76,64,0,2,9,15,12.mid,experiment,0
15,47,11741,79,64,0,2,9,15,12.mid,experiment,0
16,49,12039,84,64,0,2,9,15,12.mid,experiment,0
17,50,12135,83,64,0,2,9,15,12.mid,experiment,0
18,52,12296,81,64,0,2,9,15,12.mid,experiment,0
19,54,12522,81,64,0,2,9,15,12.mid,experiment,0
20,56,12758,81,64,0,2,9,15,12.mid,experiment,0
21,59,13277,83,64,0,2,9,15,12.mid,experiment,0
22,61,13530,81,64,0,2,9,15,12.mid,experiment,0
23,63,13780,84,64,0,2,9,15,12.mid,experiment,0
24,65,14059,81,64,0,2,9,15,12.mid,experiment,0
25,67,14273,78,64,0,2,9,15,12.mid,experiment,0
26,68,14341,79,64,0,2,9,15,12.mid,experiment,0
27,70,14624,79,64,0,2,9,15,12.mid,experiment,0
28,72,15215,79,64,0,2,9,15,12.mid,experiment,0
29,74,16065,77,64,0,2,9,15,12.mid,experiment,0
30,76,16330,77,64,0,2,9,15,12.mid,experiment,0
31,78,16572,76,64,0,2,9,15,12.mid,experiment,0
32,80,16823,76,64,0,2,9,15,12.mid,experiment,0
33,82,17346,74,64,0,2,9,15,12.mid,experiment,0
34,84,18155,79,64,0,2,9,15,12.mid,experiment,0
35,86,18656,77,64,0,2,9,15,12.mid,experiment,0
36,88,19061,76,64,0,2,9,15,12.mid,experiment,0
37,90,19312,76,64,0,2,9,15,12.mid,experiment,0
38,92,19548,76,64,0,2,9,15,12.mid,experiment,0
39,94,19807,76,64,0,2,9,15,12.mid,experiment,0
40,97,20297,81,64,0,2,9,15,12.mid,experiment,0
41,99,20589,77,64,0,2,9,15,12.mid,experiment,0
42,101,20766,76,64,0,2,9,15,12.mid,experiment,0
43,103,21061,74,64,0,2,9,15,12.mid,experiment,0
44,105,21258,76,64,0,2,9,15,12.mid,experiment,0
45,107,21522,79,64,0,2,9,15,12.mid,experiment,0
46,109,21738,74,64,0,2,9,15,12.mid,experiment,0
47,110,21804,71,64,0,2,9,15,12.mid,experiment,0
48,112,22004,72,64,0,2,9,15,12.mid,experiment,0
49,114,22232,72,64,0,2,9,15,12.mid,experiment,0
50,116,22490,74,64,0,2,9,15,12.mid,experiment,0
51,118,22711,74,64,0,2,9,15,12.mid,experiment,0
52,120,23207,76,64,0,2,9,15,12.mid,experiment,0
53,122,24001,65,64,0,2,9,15,12.mid,experiment,0
54,124,24267,65,64,0,2,9,15,12.mid,experiment,0
55,126,24512,64,64,0,2,9,15,12.mid,experiment,0
56,128,24764,64,64,0,2,9,15,12.mid,experiment,0
57,130,25271,62,64,0,2,9,15,12.mid,experiment,0
58,132,26069,67,64,0,2,9,15,12.mid,experiment,0
59,134,26317,67,64,0,2,9,15,12.mid,experiment,0
60,136,26548,71,64,0,2,9,15,12.mid,experiment,0
61,138,26825,71,64,0,2,9,15,12.mid,experiment,0
62,140,27060,72,64,0,2,9,15,12.mid,experiment,0
63,142,27295,72,64,0,2,9,15,12.mid,experiment,0
64,144,27527,73,64,0,2,9,15,12.mid,experiment,0
65,146,27780,73,64,0,2,9,15,12.mid,experiment,0
66,148,28243,74,64,0,2,9,15,12.mid,experiment,0
67,150,28754,77,64,0,2,9,15,12.mid,experiment,0
68,152,29225,76,64,0,2,9,15,12.mid,experiment,0
69,154,29697,74,64,0,2,9,15,12.mid,experiment,0
70,156,30216,72,64,0,2,9,15,12.mid,experiment,0
71,158,30663,84,64,0,2,9,15,12.mid,experiment,0
72,160,31306,84,64,0,2,9,15,12.mid,experiment,0
1,19,8128,79,64,0,2,10,4,8.mid,experiment,0
2,21,8405,78,64,0,2,10,4,8.mid,experiment,0
3,23,8667,79,64,0,2,10,4,8.mid,experiment,0
4,25,8981,76,64,0,2,10,4,8.mid,experiment,0
5,26,9029,72,64,0,2,10,4,8.mid,experiment,0
6,28,9280,67,64,0,2,10,4,8.mid,experiment,0
7,30,9552,67,64,0,2,10,4,8.mid,experiment,0
8,32,9816,67,64,0,2,10,4,8.mid,experiment,0
9,35,10361,79,64,0,2,10,4,8.mid,experiment,0
10,37,10600,78,64,0,2,10,4,8.mid,experiment,0
11,39,10847,79,64,0,2,10,4,8.mid,experiment,0
12,41,11137,76,64,0,2,10,4,8.mid,experiment,0
13,43,11459,72,64,0,2,10,4,8.mid,experiment,0
14,45,11731,76,64,0,2,10,4,8.mid,experiment,0
15,47,11949,79,64,0,2,10,4,8.mid,experiment,0
16,49,12234,84,64,0,2,10,4,8.mid,experiment,0
17,50,12247,83,64,0,2,10,4,8.mid,experiment,0
18,52,12513,81,64,0,2,10,4,8.mid,experiment,0
19,54,12779,81,64,0,2,10,4,8.mid,experiment,0
20,56,13031,81,64,0,2,10,4,8.mid,experiment,0
21,59,13603,83,64,0,2,10,4,8.mid,experiment,0
22,61,13844,81,64,0,2,10,4,8.mid,experiment,0
23,63,14136,84,64,0,2,10,4,8.mid,experiment,0
24,65,14390,81,64,0,2,10,4,8.mid,experiment,0
25,67,14685,78,64,0,2,10,4,8.mid,experiment,0
26,68,14751,79,64,0,2,10,4,8.mid,experiment,0
27,70,15132,79,64,0,2,10,4,8.mid,experiment,0
28,72,16115,79,64,0,2,10,4,8.mid,experiment,0
29,74,16703,77,64,0,2,10,4,8.mid,experiment,0
30,76,16945,77,64,0,2,10,4,8.mid,experiment,0
31,78,17209,76,64,0,2,10,4,8.mid,experiment,0
32,80,17479,76,64,0,2,10,4,8.mid,experiment,0
33,82,18020,74,64,0,2,10,4,8.mid,experiment,0
34,84,19162,79,64,0,2,10,4,8.mid,experiment,0
35,86,19691,77,64,0,2,10,4,8.mid,experiment,0
36,88,20075,76,64,0,2,10,4,8.mid,experiment,0
37,90,20346,76,64,0,2,10,4,8.mid,experiment,0
38,92,20593,76,64,0,2,10,4,8.mid,experiment,0
39,94,20849,76,64,0,2,10,4,8.mid,experiment,0
40,97,21421,81,64,0,2,10,4,8.mid,experiment,0
41,99,21677,77,64,0,2,10,4,8.mid,experiment,0
42,101,21916,76,64,0,2,10,4,8.mid,experiment,0
43,103,22205,74,64,0,2,10,4,8.mid,experiment,0
44,105,22469,76,64,0,2,10,4,8.mid,experiment,0
45,107,22753,79,64,0,2,10,4,8.mid,experiment,0
46,109,23006,74,64,0,2,10,4,8.mid,experiment,0
47,110,23039,71,64,0,2,10,4,8.mid,experiment,0
48,112,23310,72,64,0,2,10,4,8.mid,experiment,0
49,114,23575,72,64,0,2,10,4,8.mid,experiment,0
50,116,23843,74,64,0,2,10,4,8.mid,experiment,0
51,118,24108,74,64,0,2,10,4,8.mid,experiment,0
52,120,24825,76,64,0,2,10,4,8.mid,experiment,0
53,122,25578,65,64,0,2,10,4,8.mid,experiment,0
54,124,25829,65,64,0,2,10,4,8.mid,experiment,0
55,126,26090,64,64,0,2,10,4,8.mid,experiment,0
56,128,26352,64,64,0,2,10,4,8.mid,experiment,0
57,130,27112,62,64,0,2,10,4,8.mid,experiment,0
58,132,27844,67,64,0,2,10,4,8.mid,experiment,0
59,134,28122,67,64,0,2,10,4,8.mid,experiment,0
60,136,28375,71,64,0,2,10,4,8.mid,experiment,0
61,138,28646,71,64,0,2,10,4,8.mid,experiment,0
62,140,28929,72,64,0,2,10,4,8.mid,experiment,0
63,142,29194,72,64,0,2,10,4,8.mid,experiment,0
64,144,29467,73,64,0,2,10,4,8.mid,experiment,0
65,146,29749,73,64,0,2,10,4,8.mid,experiment,0
66,148,30288,74,64,0,2,10,4,8.mid,experiment,0
67,150,30887,77,64,0,2,10,4,8.mid,experiment,0
68,152,31538,76,64,0,2,10,4,8.mid,experiment,0
69,154,32050,74,64,0,2,10,4,8.mid,experiment,0
70,156,32587,72,64,0,2,10,4,8.mid,experiment,0
71,158,33145,84,64,0,2,10,4,8.mid,experiment,0
72,160,34069,84,64,0,2,10,4,8.mid,experiment,0
1,19,8122,79,64,0,2,10,5,11.mid,experiment,0
2,21,8400,78,64,0,2,10,5,11.mid,experiment,0
3,23,8684,79,64,0,2,10,5,11.mid,experiment,0
4,25,8991,76,64,0,2,10,5,11.mid,experiment,0
5,26,9042,72,64,0,2,10,5,11.mid,experiment,0
6,28,9259,67,64,0,2,10,5,11.mid,experiment,0
7,30,9555,67,64,0,2,10,5,11.mid,experiment,0
8,32,9817,67,64,0,2,10,5,11.mid,experiment,0
9,35,10351,79,64,0,2,10,5,11.mid,experiment,0
10,37,10596,78,64,0,2,10,5,11.mid,experiment,0
11,38,10844,79,64,0,2,10,5,11.mid,experiment,0
12,41,11137,76,64,0,2,10,5,11.mid,experiment,0
13,43,11459,72,64,0,2,10,5,11.mid,experiment,0
14,45,11719,76,64,0,2,10,5,11.mid,experiment,0
15,47,11947,79,64,0,2,10,5,11.mid,experiment,0
16,49,12238,84,64,0,2,10,5,11.mid,experiment,0
17,50,12290,83,64,0,2,10,5,11.mid,experiment,0
18,52,12514,81,64,0,2,10,5,11.mid,experiment,0
19,54,12792,81,64,0,2,10,5,11.mid,experiment,0
20,56,13058,81,64,0,2,10,5,11.mid,experiment,0
21,59,13624,83,64,0,2,10,5,11.mid,experiment,0
22,61,13861,81,64,0,2,10,5,11.mid,experiment,0
23,63,14178,84,64,0,2,10,5,11.mid,experiment,0
24,65,14404,81,64,0,2,10,5,11.mid,experiment,0
25,67,14676,78,64,0,2,10,5,11.mid,experiment,0
26,68,14719,79,64,0,2,10,5,11.mid,experiment,0
27,70,15069,79,64,0,2,10,5,11.mid,experiment,0
28,72,16005,79,64,0,2,10,5,11.mid,experiment,0
29,74,16784,77,64,0,2,10,5,11.mid,experiment,0
30,76,17082,77,64,0,2,10,5,11.mid,experiment,0
31,78,17364,76,64,0,2,10,5,11.mid,experiment,0
32,80,17629,76,64,0,2,10,5,11.mid,experiment,0
33,82,18173,74,64,0,2,10,5,11.mid,experiment,0
34,84,19109,79,64,0,2,10,5,11.mid,experiment,0
35,86,19654,77,64,0,2,10,5,11.mid,experiment,0
36,88,20182,76,64,0,2,10,5,11.mid,experiment,0
37,90,20450,76,64,0,2,10,5,11.mid,experiment,0
38,92,20719,76,64,0,2,10,5,11.mid,experiment,0
39,94,20975,76,64,0,2,10,5,11.mid,experiment,0
40,97,21550,81,64,0,2,10,5,11.mid,experiment,0
41,99,21784,77,64,0,2,10,5,11.mid,experiment,0
42,101,22036,76,64,0,2,10,5,11.mid,experiment,0
43,103,22325,74,64,0,2,10,5,11.mid,experiment,0
44,105,22577,76,64,0,2,10,5,11.mid,experiment,0
45,107,22852,79,64,0,2,10,5,11.mid,experiment,0
46,109,23123,74,64,0,2,10,5,11.mid,experiment,0
47,110,23191,71,64,0,2,10,5,11.mid,experiment,0
48,112,23414,72,64,0,2,10,5,11.mid,experiment,0
49,114,23681,72,64,0,2,10,5,11.mid,experiment,0
50,116,23958,74,64,0,2,10,5,11.mid,experiment,0
51,118,24215,74,64,0,2,10,5,11.mid,experiment,0
52,120,24870,76,64,0,2,10,5,11.mid,experiment,0
53,122,25725,65,64,0,2,10,5,11.mid,experiment,0
54,124,25996,65,64,0,2,10,5,11.mid,experiment,0
55,126,26302,64,64,0,2,10,5,11.mid,experiment,0
56,128,26546,64,64,0,2,10,5,11.mid,experiment,0
57,130,27074,62,64,0,2,10,5,11.mid,experiment,0
58,132,27975,67,64,0,2,10,5,11.mid,experiment,0
59,134,28233,67,64,0,2,10,5,11.mid,experiment,0
60,136,28510,71,64,0,2,10,5,11.mid,experiment,0
61,138,28776,71,64,0,2,10,5,11.mid,experiment,0
62,140,29054,72,64,0,2,10,5,11.mid,experiment,0
63,142,29318,72,64,0,2,10,5,11.mid,experiment,0
64,144,29603,73,64,0,2,10,5,11.mid,experiment,0
65,146,29877,73,64,0,2,10,5,11.mid,experiment,0
66,148,30334,74,64,0,2,10,5,11.mid,experiment,0
67,150,31100,77,64,0,2,10,5,11.mid,experiment,0
68,152,31687,76,64,0,2,10,5,11.mid,experiment,0
69,154,32234,74,64,0,2,10,5,11.mid,experiment,0
70,156,32816,72,64,0,2,10,5,11.mid,experiment,0
71,158,33437,84,64,0,2,10,5,11.mid,experiment,0
72,160,34372,84,64,0,2,10,5,11.mid,experiment,0
1,19,8193,79,64,0,2,10,6,15.mid,experiment,0
2,21,8481,78,64,0,2,10,6,15.mid,experiment,0
3,24,9016,79,64,0,2,10,6,15.mid,experiment,0
4,25,9103,76,64,0,2,10,6,15.mid,experiment,0
5,26,9128,72,64,0,2,10,6,15.mid,experiment,0
6,28,9356,67,64,0,2,10,6,15.mid,experiment,0
7,30,9652,67,64,0,2,10,6,15.mid,experiment,0
8,32,9921,67,64,0,2,10,6,15.mid,experiment,0
9,35,10518,79,64,0,2,10,6,15.mid,experiment,0
10,37,10811,78,64,0,2,10,6,15.mid,experiment,0
11,39,11090,79,64,0,2,10,6,15.mid,experiment,0
12,41,11350,76,64,0,2,10,6,15.mid,experiment,0
13,43,11727,72,64,0,2,10,6,15.mid,experiment,0
14,45,11973,76,64,0,2,10,6,15.mid,experiment,0
15,47,12200,79,64,0,2,10,6,15.mid,experiment,0
16,49,12528,84,64,0,2,10,6,15.mid,experiment,0
17,50,12558,83,64,0,2,10,6,15.mid,experiment,0
18,52,12764,81,64,0,2,10,6,15.mid,experiment,0
19,54,13043,81,64,0,2,10,6,15.mid,experiment,0
20,56,13317,81,64,0,2,10,6,15.mid,experiment,0
21,59,13922,83,64,0,2,10,6,15.mid,experiment,0
22,61,14147,81,64,0,2,10,6,15.mid,experiment,0
23,63,14514,84,64,0,2,10,6,15.mid,experiment,0
24,65,14756,81,64,0,2,10,6,15.mid,experiment,0
25,66,14816,78,64,0,2,10,6,15.mid,experiment,0
26,68,15025,79,64,0,2,10,6,15.mid,experiment,0
27,70,15390,79,64,0,2,10,6,15.mid,experiment,0
28,72,16431,79,64,0,2,10,6,15.mid,experiment,0
29,74,17367,77,64,0,2,10,6,15.mid,experiment,0
30,76,17638,77,64,0,2,10,6,15.mid,experiment,0
31,78,17906,76,64,0,2,10,6,15.mid,experiment,0
32,80,18181,76,64,0,2,10,6,15.mid,experiment,0
33,82,18979,74,64,0,2,10,6,15.mid,experiment,0
34,84,19833,79,64,0,2,10,6,15.mid,experiment,0
35,86,20439,77,64,0,2,10,6,15.mid,experiment,0
36,88,20831,76,64,0,2,10,6,15.mid,experiment,0
37,90,21106,76,64,0,2,10,6,15.mid,experiment,0
38,92,21362,76,64,0,2,10,6,15.mid,experiment,0
39,94,21628,76,64,0,2,10,6,15.mid,experiment,0
40,97,22386,81,64,0,2,10,6,15.mid,experiment,0
41,99,22521,77,64,0,2,10,6,15.mid,experiment,0
42,101,22749,76,64,0,2,10,6,15.mid,experiment,0
43,103,23031,74,64,0,2,10,6,15.mid,experiment,0
44,105,23294,76,64,0,2,10,6,15.mid,experiment,0
45,107,23635,79,64,0,2,10,6,15.mid,experiment,0
46,109,23851,74,64,0,2,10,6,15.mid,experiment,0
47,110,23902,71,64,0,2,10,6,15.mid,experiment,0
48,112,24124,72,64,0,2,10,6,15.mid,experiment,0
49,114,24405,72,64,0,2,10,6,15.mid,experiment,0
50,116,24666,74,64,0,2,10,6,15.mid,experiment,0
51,118,24925,74,64,0,2,10,6,15.mid,experiment,0
52,120,25686,76,64,0,2,10,6,15.mid,experiment,0
53,122,26449,65,64,0,2,10,6,15.mid,experiment,0
54,124,26715,65,64,0,2,10,6,15.mid,experiment,0
55,126,26995,64,64,0,2,10,6,15.mid,experiment,0
56,128,27263,64,64,0,2,10,6,15.mid,experiment,0
57,130,28064,62,64,0,2,10,6,15.mid,experiment,0
58,132,28707,67,64,0,2,10,6,15.mid,experiment,0
59,134,29007,67,64,0,2,10,6,15.mid,experiment,0
60,136,29269,71,64,0,2,10,6,15.mid,experiment,0
61,138,29562,71,64,0,2,10,6,15.mid,experiment,0
62,140,29810,72,64,0,2,10,6,15.mid,experiment,0
63,142,30097,72,64,0,2,10,6,15.mid,experiment,0
64,144,30355,73,64,0,2,10,6,15.mid,experiment,0
65,146,30661,73,64,0,2,10,6,15.mid,experiment,0
66,148,31289,74,64,0,2,10,6,15.mid,experiment,0
67,150,31979,77,64,0,2,10,6,15.mid,experiment,0
68,152,32545,76,64,0,2,10,6,15.mid,experiment,0
69,154,33085,74,64,0,2,10,6,15.mid,experiment,0
70,156,33693,72,64,0,2,10,6,15.mid,experiment,0
71,158,34295,84,64,0,2,10,6,15.mid,experiment,0
72,160,35304,84,64,0,2,10,6,15.mid,experiment,0
1,19,8119,79,64,0,2,10,9,12.mid,experiment,0
2,21,8392,78,64,0,2,10,9,12.mid,experiment,0
3,23,8676,79,64,0,2,10,9,12.mid,experiment,0
4,25,8977,76,64,0,2,10,9,12.mid,experiment,0
5,26,9015,72,64,0,2,10,9,12.mid,experiment,0
6,28,9257,67,64,0,2,10,9,12.mid,experiment,0
7,30,9514,67,64,0,2,10,9,12.mid,experiment,0
8,32,9812,67,64,0,2,10,9,12.mid,experiment,0
9,35,10355,79,64,0,2,10,9,12.mid,experiment,0
10,37,10619,78,64,0,2,10,9,12.mid,experiment,0
11,39,10874,79,64,0,2,10,9,12.mid,experiment,0
12,41,11145,76,64,0,2,10,9,12.mid,experiment,0
13,43,11475,72,64,0,2,10,9,12.mid,experiment,0
14,45,11761,76,64,0,2,10,9,12.mid,experiment,0
15,47,11966,79,64,0,2,10,9,12.mid,experiment,0
16,49,12256,84,64,0,2,10,9,12.mid,experiment,0
17,50,12345,83,64,0,2,10,9,12.mid,experiment,0
18,52,12554,81,64,0,2,10,9,12.mid,experiment,0
19,54,12836,81,64,0,2,10,9,12.mid,experiment,0
20,56,13100,81,64,0,2,10,9,12.mid,experiment,0
21,59,13655,83,64,0,2,10,9,12.mid,experiment,0
22,61,13898,81,64,0,2,10,9,12.mid,experiment,0
23,63,14187,84,64,0,2,10,9,12.mid,experiment,0
24,65,14434,81,64,0,2,10,9,12.mid,experiment,0
25,67,14720,78,64,0,2,10,9,12.mid,experiment,0
26,68,14725,79,64,0,2,10,9,12.mid,experiment,0
27,70,15104,79,64,0,2,10,9,12.mid,experiment,0
28,72,16202,79,64,0,2,10,9,12.mid,experiment,0
29,74,16809,77,64,0,2,10,9,12.mid,experiment,0
30,76,17062,77,64,0,2,10,9,12.mid,experiment,0
31,78,17327,76,64,0,2,10,9,12.mid,experiment,0
32,80,17604,76,64,0,2,10,9,12.mid,experiment,0
33,82,18271,74,64,0,2,10,9,12.mid,experiment,0
34,84,19076,79,64,0,2,10,9,12.mid,experiment,0
35,86,19596,77,64,0,2,10,9,12.mid,experiment,0
36,88,20143,76,64,0,2,10,9,12.mid,experiment,0
37,90,20418,76,64,0,2,10,9,12.mid,experiment,0
38,92,20675,76,64,0,2,10,9,12.mid,experiment,0
39,94,20940,76,64,0,2,10,9,12.mid,experiment,0
40,97,21559,81,64,0,2,10,9,12.mid,experiment,0
41,99,21796,77,64,0,2,10,9,12.mid,experiment,0
42,101,22009,76,64,0,2,10,9,12.mid,experiment,0
43,103,22287,74,64,0,2,10,9,12.mid,experiment,0
44,105,22528,76,64,0,2,10,9,12.mid,experiment,0
45,107,22889,79,64,0,2,10,9,12.mid,experiment,0
46,109,23073,74,64,0,2,10,9,12.mid,experiment,0
47,110,23084,71,64,0,2,10,9,12.mid,experiment,0
48,112,23347,72,64,0,2,10,9,12.mid,experiment,0
49,114,23629,72,64,0,2,10,9,12.mid,experiment,0
50,116,23899,74,64,0,2,10,9,12.mid,experiment,0
51,118,24160,74,64,0,2,10,9,12.mid,experiment,0
52,120,24908,76,64,0,2,10,9,12.mid,experiment,0
53,122,25572,65,64,0,2,10,9,12.mid,experiment,0
54,124,25838,65,64,0,2,10,9,12.mid,experiment,0
55,126,26129,64,64,0,2,10,9,12.mid,experiment,0
56,128,26378,64,64,0,2,10,9,12.mid,experiment,0
57,130,27052,62,64,0,2,10,9,12.mid,experiment,0
58,132,27801,67,64,0,2,10,9,12.mid,experiment,0
59,134,28062,67,64,0,2,10,9,12.mid,experiment,0
60,136,28329,71,64,0,2,10,9,12.mid,experiment,0
61,138,28605,71,64,0,2,10,9,12.mid,experiment,0
62,140,28880,72,64,0,2,10,9,12.mid,experiment,0
63,142,29164,72,64,0,2,10,9,12.mid,experiment,0
64,144,29404,73,64,0,2,10,9,12.mid,experiment,0
65,146,29671,73,64,0,2,10,9,12.mid,experiment,0
66,148,30343,74,64,0,2,10,9,12.mid,experiment,0
67,150,30977,77,64,0,2,10,9,12.mid,experiment,0
68,152,31519,76,64,0,2,10,9,12.mid,experiment,0
69,154,32078,74,64,0,2,10,9,12.mid,experiment,0
70,156,32660,72,64,0,2,10,9,12.mid,experiment,0
71,158,33262,84,64,0,2,10,9,12.mid,experiment,0
72,160,34219,84,64,0,2,10,9,12.mid,experiment,0
1,19,8146,79,64,0,2,10,12,1.mid,experiment,0
2,21,8416,78,64,0,2,10,12,1.mid,experiment,0
3,23,8708,79,64,0,2,10,12,1.mid,experiment,0
4,25,8988,76,64,0,2,10,12,1.mid,experiment,0
5,26,9016,72,64,0,2,10,12,1.mid,experiment,0
6,28,9270,67,64,0,2,10,12,1.mid,experiment,0
7,30,9542,67,64,0,2,10,12,1.mid,experiment,0
8,32,9800,67,64,0,2,10,12,1.mid,experiment,0
9,35,10359,79,64,0,2,10,12,1.mid,experiment,0
10,37,10650,78,64,0,2,10,12,1.mid,experiment,0
11,39,10872,79,64,0,2,10,12,1.mid,experiment,0
12,40,11111,76,64,0,2,10,12,1.mid,experiment,0
13,43,11454,72,64,0,2,10,12,1.mid,experiment,0
14,45,11726,76,64,0,2,10,12,1.mid,experiment,0
15,47,11943,79,64,0,2,10,12,1.mid,experiment,0
16,49,12230,84,64,0,2,10,12,1.mid,experiment,0
17,50,12272,83,64,0,2,10,12,1.mid,experiment,0
18,52,12539,81,64,0,2,10,12,1.mid,experiment,0
19,54,12800,81,64,0,2,10,12,1.mid,experiment,0
20,56,13067,81,64,0,2,10,12,1.mid,experiment,0
21,59,13630,83,64,0,2,10,12,1.mid,experiment,0
22,61,13878,81,64,0,2,10,12,1.mid,experiment,0
23,63,14148,84,64,0,2,10,12,1.mid,experiment,0
24,65,14400,81,64,0,2,10,12,1.mid,experiment,0
25,67,14690,78,64,0,2,10,12,1.mid,experiment,0
26,68,14752,79,64,0,2,10,12,1.mid,experiment,0
27,70,15104,79,64,0,2,10,12,1.mid,experiment,0
28,72,16150,79,64,0,2,10,12,1.mid,experiment,0
29,74,16766,77,64,0,2,10,12,1.mid,experiment,0
30,76,17048,77,64,0,2,10,12,1.mid,experiment,0
31,78,17300,76,64,0,2,10,12,1.mid,experiment,0
32,80,17566,76,64,0,2,10,12,1.mid,experiment,0
33,82,18250,74,64,0,2,10,12,1.mid,experiment,0
34,84,19050,79,64,0,2,10,12,1.mid,experiment,0
35,86,19599,77,64,0,2,10,12,1.mid,experiment,0
36,88,20101,76,64,0,2,10,12,1.mid,experiment,0
37,90,20398,76,64,0,2,10,12,1.mid,experiment,0
38,92,20653,76,64,0,2,10,12,1.mid,experiment,0
39,94,20930,76,64,0,2,10,12,1.mid,experiment,0
40,97,21522,81,64,0,2,10,12,1.mid,experiment,0
41,99,21756,77,64,0,2,10,12,1.mid,experiment,0
42,101,22010,76,64,0,2,10,12,1.mid,experiment,0
43,103,22280,74,64,0,2,10,12,1.mid,experiment,0
44,105,22518,76,64,0,2,10,12,1.mid,experiment,0
45,107,22824,79,64,0,2,10,12,1.mid,experiment,0
46,109,23080,74,64,0,2,10,12,1.mid,experiment,0
47,110,23092,71,64,0,2,10,12,1.mid,experiment,0
48,112,23345,72,64,0,2,10,12,1.mid,experiment,0
49,114,23612,72,64,0,2,10,12,1.mid,experiment,0
50,116,23879,74,64,0,2,10,12,1.mid,experiment,0
51,118,24148,74,64,0,2,10,12,1.mid,experiment,0
52,120,24828,76,64,0,2,10,12,1.mid,experiment,0
53,122,25549,65,64,0,2,10,12,1.mid,experiment,0
54,124,25822,65,64,0,2,10,12,1.mid,experiment,0
55,126,26093,64,64,0,2,10,12,1.mid,experiment,0
56,128,26363,64,64,0,2,10,12,1.mid,experiment,0
57,130,27135,62,64,0,2,10,12,1.mid,experiment,0
58,132,27786,67,64,0,2,10,12,1.mid,experiment,0
59,134,28065,67,64,0,2,10,12,1.mid,experiment,0
60,136,28329,71,64,0,2,10,12,1.mid,experiment,0
61,138,28610,71,64,0,2,10,12,1.mid,experiment,0
62,140,28894,72,64,0,2,10,12,1.mid,experiment,0
63,142,29152,72,64,0,2,10,12,1.mid,experiment,0
64,144,29470,73,64,0,2,10,12,1.mid,experiment,0
65,146,29722,73,64,0,2,10,12,1.mid,experiment,0
66,148,30318,74,64,0,2,10,12,1.mid,experiment,0
67,150,30962,77,64,0,2,10,12,1.mid,experiment,0
68,152,31472,76,64,0,2,10,12,1.mid,experiment,0
69,154,32002,74,64,0,2,10,12,1.mid,experiment,0
70,156,32606,72,64,0,2,10,12,1.mid,experiment,0
71,158,33180,84,64,0,2,10,12,1.mid,experiment,0
72,160,34116,84,64,0,2,10,12,1.mid,experiment,0
1,19,8235,79,64,0,2,10,13,14.mid,experiment,0
2,21,8519,78,64,0,2,10,13,14.mid,experiment,0
3,23,8804,79,64,0,2,10,13,14.mid,experiment,0
4,25,9108,76,64,0,2,10,13,14.mid,experiment,0
5,26,9148,72,64,0,2,10,13,14.mid,experiment,0
6,28,9362,67,64,0,2,10,13,14.mid,experiment,0
7,30,9637,67,64,0,2,10,13,14.mid,experiment,0
8,32,9903,67,64,0,2,10,13,14.mid,experiment,0
9,35,10469,79,64,0,2,10,13,14.mid,experiment,0
10,37,10723,78,64,0,2,10,13,14.mid,experiment,0
11,39,10993,79,64,0,2,10,13,14.mid,experiment,0
12,41,11240,76,64,0,2,10,13,14.mid,experiment,0
13,43,11588,72,64,0,2,10,13,14.mid,experiment,0
14,45,11857,76,64,0,2,10,13,14.mid,experiment,0
15,47,12060,79,64,0,2,10,13,14.mid,experiment,0
16,49,12346,84,64,0,2,10,13,14.mid,experiment,0
17,50,12395,83,64,0,2,10,13,14.mid,experiment,0
18,52,12636,81,64,0,2,10,13,14.mid,experiment,0
19,54,12923,81,64,0,2,10,13,14.mid,experiment,0
20,56,13212,81,64,0,2,10,13,14.mid,experiment,0
21,59,13797,83,64,0,2,10,13,14.mid,experiment,0
22,61,14019,81,64,0,2,10,13,14.mid,experiment,0
23,63,14330,84,64,0,2,10,13,14.mid,experiment,0
24,65,14562,81,64,0,2,10,13,14.mid,experiment,0
25,67,14843,78,64,0,2,10,13,14.mid,experiment,0
26,68,14890,79,64,0,2,10,13,14.mid,experiment,0
27,70,15311,79,64,0,2,10,13,14.mid,experiment,0
28,72,16299,79,64,0,2,10,13,14.mid,experiment,0
29,74,16925,77,64,0,2,10,13,14.mid,experiment,0
30,76,17185,77,64,0,2,10,13,14.mid,experiment,0
31,78,17469,76,64,0,2,10,13,14.mid,experiment,0
32,80,17736,76,64,0,2,10,13,14.mid,experiment,0
33,82,18516,74,64,0,2,10,13,14.mid,experiment,0
34,84,19246,79,64,0,2,10,13,14.mid,experiment,0
35,86,19808,77,64,0,2,10,13,14.mid,experiment,0
36,88,20326,76,64,0,2,10,13,14.mid,experiment,0
37,90,20606,76,64,0,2,10,13,14.mid,experiment,0
38,92,20866,76,64,0,2,10,13,14.mid,experiment,0
39,94,21130,76,64,0,2,10,13,14.mid,experiment,0
40,97,21742,81,64,0,2,10,13,14.mid,experiment,0
41,99,21977,77,64,0,2,10,13,14.mid,experiment,0
42,101,22212,76,64,0,2,10,13,14.mid,experiment,0
43,103,22492,74,64,0,2,10,13,14.mid,experiment,0
44,105,22727,76,64,0,2,10,13,14.mid,experiment,0
45,107,23114,79,64,0,2,10,13,14.mid,experiment,0
46,109,23288,74,64,0,2,10,13,14.mid,experiment,0
47,110,23314,71,64,0,2,10,13,14.mid,experiment,0
48,112,23556,72,64,0,2,10,13,14.mid,experiment,0
49,114,23828,72,64,0,2,10,13,14.mid,experiment,0
50,116,24108,74,64,0,2,10,13,14.mid,experiment,0
51,118,24364,74,64,0,2,10,13,14.mid,experiment,0
52,120,25114,76,64,0,2,10,13,14.mid,experiment,0
53,122,25794,65,64,0,2,10,13,14.mid,experiment,0
54,124,26058,65,64,0,2,10,13,14.mid,experiment,0
55,126,26338,64,64,0,2,10,13,14.mid,experiment,0
56,128,26623,64,64,0,2,10,13,14.mid,experiment,0
57,130,27360,62,64,0,2,10,13,14.mid,experiment,0
58,132,28039,67,64,0,2,10,13,14.mid,experiment,0
59,134,28315,67,64,0,2,10,13,14.mid,experiment,0
60,136,28594,71,64,0,2,10,13,14.mid,experiment,0
61,138,28858,71,64,0,2,10,13,14.mid,experiment,0
62,140,29132,72,64,0,2,10,13,14.mid,experiment,0
63,142,29404,72,64,0,2,10,13,14.mid,experiment,0
64,144,29685,73,64,0,2,10,13,14.mid,experiment,0
65,146,29979,73,64,0,2,10,13,14.mid,experiment,0
66,148,30634,74,64,0,2,10,13,14.mid,experiment,0
67,150,31315,77,64,0,2,10,13,14.mid,experiment,0
68,152,31859,76,64,0,2,10,13,14.mid,experiment,0
69,154,32443,74,64,0,2,10,13,14.mid,experiment,0
70,156,33033,72,64,0,2,10,13,14.mid,experiment,0
71,158,33694,84,64,0,2,10,13,14.mid,experiment,0
72,160,34577,84,64,0,2,10,13,14.mid,experiment,0
1,19,8189,79,64,0,2,10,14,4.mid,experiment,0
2,21,8460,78,64,0,2,10,14,4.mid,experiment,0
3,23,8720,79,64,0,2,10,14,4.mid,experiment,0
4,25,9003,76,64,0,2,10,14,4.mid,experiment,0
5,26,9048,72,64,0,2,10,14,4.mid,experiment,0
6,28,9316,67,64,0,2,10,14,4.mid,experiment,0
7,30,9566,67,64,0,2,10,14,4.mid,experiment,0
8,32,9839,67,64,0,2,10,14,4.mid,experiment,0
9,35,10377,79,64,0,2,10,14,4.mid,experiment,0
10,37,10681,78,64,0,2,10,14,4.mid,experiment,0
11,39,10923,79,64,0,2,10,14,4.mid,experiment,0
12,40,11147,76,64,0,2,10,14,4.mid,experiment,0
13,43,11480,72,64,0,2,10,14,4.mid,experiment,0
14,45,11752,76,64,0,2,10,14,4.mid,experiment,0
15,47,11970,79,64,0,2,10,14,4.mid,experiment,0
16,49,12269,84,64,0,2,10,14,4.mid,experiment,0
17,50,12305,83,64,0,2,10,14,4.mid,experiment,0
18,52,12558,81,64,0,2,10,14,4.mid,experiment,0
19,54,12819,81,64,0,2,10,14,4.mid,experiment,0
20,56,13086,81,64,0,2,10,14,4.mid,experiment,0
21,59,13640,83,64,0,2,10,14,4.mid,experiment,0
22,61,13878,81,64,0,2,10,14,4.mid,experiment,0
23,63,14171,84,64,0,2,10,14,4.mid,experiment,0
24,65,14417,81,64,0,2,10,14,4.mid,experiment,0
25,67,14693,78,64,0,2,10,14,4.mid,experiment,0
26,68,14753,79,64,0,2,10,14,4.mid,experiment,0
27,70,15089,79,64,0,2,10,14,4.mid,experiment,0
28,72,16160,79,64,0,2,10,14,4.mid,experiment,0
29,74,16759,77,64,0,2,10,14,4.mid,experiment,0
30,76,17032,77,64,0,2,10,14,4.mid,experiment,0
31,78,17317,76,64,0,2,10,14,4.mid,experiment,0
32,80,17574,76,64,0,2,10,14,4.mid,experiment,0
33,82,18303,74,64,0,2,10,14,4.mid,experiment,0
34,84,19081,79,64,0,2,10,14,4.mid,experiment,0
35,86,19629,77,64,0,2,10,14,4.mid,experiment,0
36,88,20137,76,64,0,2,10,14,4.mid,experiment,0
37,90,20429,76,64,0,2,10,14,4.mid,experiment,0
38,92,20695,76,64,0,2,10,14,4.mid,experiment,0
39,94,20954,76,64,0,2,10,14,4.mid,experiment,0
40,97,21551,81,64,0,2,10,14,4.mid,experiment,0
41,99,21779,77,64,0,2,10,14,4.mid,experiment,0
42,101,22025,76,64,0,2,10,14,4.mid,experiment,0
43,103,22309,74,64,0,2,10,14,4.mid,experiment,0
44,105,22551,76,64,0,2,10,14,4.mid,experiment,0
45,107,22871,79,64,0,2,10,14,4.mid,experiment,0
46,109,23096,74,64,0,2,10,14,4.mid,experiment,0
47,110,23137,71,64,0,2,10,14,4.mid,experiment,0
48,112,23401,72,64,0,2,10,14,4.mid,experiment,0
49,114,23651,72,64,0,2,10,14,4.mid,experiment,0
50,116,23935,74,64,0,2,10,14,4.mid,experiment,0
51,118,24195,74,64,0,2,10,14,4.mid,experiment,0
52,120,24930,76,64,0,2,10,14,4.mid,experiment,0
53,122,25640,65,64,0,2,10,14,4.mid,experiment,0
54,124,25907,65,64,0,2,10,14,4.mid,experiment,0
55,126,26192,64,64,0,2,10,14,4.mid,experiment,0
56,128,26474,64,64,0,2,10,14,4.mid,experiment,0
57,130,27149,62,64,0,2,10,14,4.mid,experiment,0
58,132,27826,67,64,0,2,10,14,4.mid,experiment,0
59,134,28107,67,64,0,2,10,14,4.mid,experiment,0
60,136,28401,71,64,0,2,10,14,4.mid,experiment,0
61,138,28643,71,64,0,2,10,14,4.mid,experiment,0
62,140,28918,72,64,0,2,10,14,4.mid,experiment,0
63,142,29198,72,64,0,2,10,14,4.mid,experiment,0
64,144,29445,73,64,0,2,10,14,4.mid,experiment,0
65,146,29719,73,64,0,2,10,14,4.mid,experiment,0
66,148,30336,74,64,0,2,10,14,4.mid,experiment,0
67,150,30987,77,64,0,2,10,14,4.mid,experiment,0
68,152,31588,76,64,0,2,10,14,4.mid,experiment,0
69,154,32161,74,64,0,2,10,14,4.mid,experiment,0
70,156,32629,72,64,0,2,10,14,4.mid,experiment,0
71,158,33255,84,64,0,2,10,14,4.mid,experiment,0
72,160,34109,84,64,0,2,10,14,4.mid,experiment,0
1,19,8108,79,64,0,2,10,15,16.mid,experiment,0
2,21,8364,78,64,0,2,10,15,16.mid,experiment,0
3,23,8652,79,64,0,2,10,15,16.mid,experiment,0
4,25,8932,76,64,0,2,10,15,16.mid,experiment,0
5,26,8982,72,64,0,2,10,15,16.mid,experiment,0
6,28,9230,67,64,0,2,10,15,16.mid,experiment,0
7,30,9501,67,64,0,2,10,15,16.mid,experiment,0
8,32,9774,67,64,0,2,10,15,16.mid,experiment,0
9,35,10316,79,64,0,2,10,15,16.mid,experiment,0
10,37,10591,78,64,0,2,10,15,16.mid,experiment,0
11,39,10852,79,64,0,2,10,15,16.mid,experiment,0
12,40,11110,76,64,0,2,10,15,16.mid,experiment,0
13,43,11432,72,64,0,2,10,15,16.mid,experiment,0
14,45,11726,76,64,0,2,10,15,16.mid,experiment,0
15,47,11927,79,64,0,2,10,15,16.mid,experiment,0
16,49,12206,84,64,0,2,10,15,16.mid,experiment,0
17,50,12262,83,64,0,2,10,15,16.mid,experiment,0
18,52,12506,81,64,0,2,10,15,16.mid,experiment,0
19,54,12781,81,64,0,2,10,15,16.mid,experiment,0
20,56,13066,81,64,0,2,10,15,16.mid,experiment,0
21,59,13624,83,64,0,2,10,15,16.mid,experiment,0
22,61,13859,81,64,0,2,10,15,16.mid,experiment,0
23,63,14176,84,64,0,2,10,15,16.mid,experiment,0
24,65,14396,81,64,0,2,10,15,16.mid,experiment,0
25,67,14656,78,64,0,2,10,15,16.mid,experiment,0
26,68,14714,79,64,0,2,10,15,16.mid,experiment,0
27,70,15060,79,64,0,2,10,15,16.mid,experiment,0
28,72,16100,79,64,0,2,10,15,16.mid,experiment,0
29,74,16642,77,64,0,2,10,15,16.mid,experiment,0
30,76,16922,77,64,0,2,10,15,16.mid,experiment,0
31,78,17204,76,64,0,2,10,15,16.mid,experiment,0
32,80,17462,76,64,0,2,10,15,16.mid,experiment,0
33,82,18216,74,64,0,2,10,15,16.mid,experiment,0
34,84,18957,79,64,0,2,10,15,16.mid,experiment,0
35,86,19490,77,64,0,2,10,15,16.mid,experiment,0
36,88,19996,76,64,0,2,10,15,16.mid,experiment,0
37,90,20279,76,64,0,2,10,15,16.mid,experiment,0
38,92,20530,76,64,0,2,10,15,16.mid,experiment,0
39,94,20797,76,64,0,2,10,15,16.mid,experiment,0
40,97,21378,81,64,0,2,10,15,16.mid,experiment,0
41,99,21609,77,64,0,2,10,15,16.mid,experiment,0
42,101,21834,76,64,0,2,10,15,16.mid,experiment,0
43,103,22172,74,64,0,2,10,15,16.mid,experiment,0
44,105,22388,76,64,0,2,10,15,16.mid,experiment,0
45,107,22728,79,64,0,2,10,15,16.mid,experiment,0
46,109,22916,74,64,0,2,10,15,16.mid,experiment,0
47,110,22961,71,64,0,2,10,15,16.mid,experiment,0
48,112,23186,72,64,0,2,10,15,16.mid,experiment,0
49,114,23462,72,64,0,2,10,15,16.mid,experiment,0
50,116,23740,74,64,0,2,10,15,16.mid,experiment,0
51,118,23986,74,64,0,2,10,15,16.mid,experiment,0
52,120,24828,76,64,0,2,10,15,16.mid,experiment,0
53,122,25746,65,64,0,2,10,15,16.mid,experiment,0
54,124,26017,65,64,0,2,10,15,16.mid,experiment,0
55,126,26280,64,64,0,2,10,15,16.mid,experiment,0
56,128,26544,64,64,0,2,10,15,16.mid,experiment,0
57,130,27314,62,64,0,2,10,15,16.mid,experiment,0
58,132,27956,67,64,0,2,10,15,16.mid,experiment,0
59,134,28224,67,64,0,2,10,15,16.mid,experiment,0
60,136,28492,71,64,0,2,10,15,16.mid,experiment,0
61,138,28760,71,64,0,2,10,15,16.mid,experiment,0
62,140,29027,72,64,0,2,10,15,16.mid,experiment,0
63,142,29296,72,64,0,2,10,15,16.mid,experiment,0
64,144,29606,73,64,0,2,10,15,16.mid,experiment,0
65,146,29864,73,64,0,2,10,15,16.mid,experiment,0
66,148,30529,74,64,0,2,10,15,16.mid,experiment,0
67,150,31150,77,64,0,2,10,15,16.mid,experiment,0
68,152,31728,76,64,0,2,10,15,16.mid,experiment,0
69,154,32292,74,64,0,2,10,15,16.mid,experiment,0
70,156,32912,72,64,0,2,10,15,16.mid,experiment,0
71,158,33490,84,64,0,2,10,15,16.mid,experiment,0
72,160,34559,84,64,0,2,10,15,16.mid,experiment,0
1,19,8152,79,64,0,2,10,16,5.mid,experiment,0
2,21,8409,78,64,0,2,10,16,5.mid,experiment,0
3,23,8680,79,64,0,2,10,16,5.mid,experiment,0
4,25,8950,76,64,0,2,10,16,5.mid,experiment,0
5,26,8976,72,64,0,2,10,16,5.mid,experiment,0
6,28,9234,67,64,0,2,10,16,5.mid,experiment,0
7,30,9500,67,64,0,2,10,16,5.mid,experiment,0
8,32,9768,67,64,0,2,10,16,5.mid,experiment,0
9,35,10314,79,64,0,2,10,16,5.mid,experiment,0
10,37,10568,78,64,0,2,10,16,5.mid,experiment,0
11,39,10860,79,64,0,2,10,16,5.mid,experiment,0
12,41,11117,76,64,0,2,10,16,5.mid,experiment,0
13,43,11452,72,64,0,2,10,16,5.mid,experiment,0
14,45,11718,76,64,0,2,10,16,5.mid,experiment,0
15,47,11934,79,64,0,2,10,16,5.mid,experiment,0
16,49,12228,84,64,0,2,10,16,5.mid,experiment,0
17,50,12290,83,64,0,2,10,16,5.mid,experiment,0
18,52,12524,81,64,0,2,10,16,5.mid,experiment,0
19,54,12794,81,64,0,2,10,16,5.mid,experiment,0
20,56,13062,81,64,0,2,10,16,5.mid,experiment,0
21,59,13644,83,64,0,2,10,16,5.mid,experiment,0
22,61,13864,81,64,0,2,10,16,5.mid,experiment,0
23,63,14162,84,64,0,2,10,16,5.mid,experiment,0
24,65,14406,81,64,0,2,10,16,5.mid,experiment,0
25,67,14704,78,64,0,2,10,16,5.mid,experiment,0
26,68,14767,79,64,0,2,10,16,5.mid,experiment,0
27,70,15117,79,64,0,2,10,16,5.mid,experiment,0
28,72,16195,79,64,0,2,10,16,5.mid,experiment,0
29,74,16748,77,64,0,2,10,16,5.mid,experiment,0
30,76,17021,77,64,0,2,10,16,5.mid,experiment,0
31,78,17300,76,64,0,2,10,16,5.mid,experiment,0
32,80,17556,76,64,0,2,10,16,5.mid,experiment,0
33,82,18274,74,64,0,2,10,16,5.mid,experiment,0
34,84,19016,79,64,0,2,10,16,5.mid,experiment,0
35,86,19567,77,64,0,2,10,16,5.mid,experiment,0
36,88,20086,76,64,0,2,10,16,5.mid,experiment,0
37,90,20362,76,64,0,2,10,16,5.mid,experiment,0
38,92,20632,76,64,0,2,10,16,5.mid,experiment,0
39,94,20900,76,64,0,2,10,16,5.mid,experiment,0
40,97,21507,81,64,0,2,10,16,5.mid,experiment,0
41,99,21742,77,64,0,2,10,16,5.mid,experiment,0
42,101,21955,76,64,0,2,10,16,5.mid,experiment,0
43,103,22268,74,64,0,2,10,16,5.mid,experiment,0
44,105,22486,76,64,0,2,10,16,5.mid,experiment,0
45,107,22806,79,64,0,2,10,16,5.mid,experiment,0
46,109,23044,74,64,0,2,10,16,5.mid,experiment,0
47,110,23070,71,64,0,2,10,16,5.mid,experiment,0
48,112,23327,72,64,0,2,10,16,5.mid,experiment,0
49,114,23589,72,64,0,2,10,16,5.mid,experiment,0
50,116,23867,74,64,0,2,10,16,5.mid,experiment,0
51,118,24126,74,64,0,2,10,16,5.mid,experiment,0
52,120,24960,76,64,0,2,10,16,5.mid,experiment,0
53,122,25618,65,64,0,2,10,16,5.mid,experiment,0
54,124,25890,65,64,0,2,10,16,5.mid,experiment,0
55,126,26156,64,64,0,2,10,16,5.mid,experiment,0
56,128,26416,64,64,0,2,10,16,5.mid,experiment,0
57,130,27138,62,64,0,2,10,16,5.mid,experiment,0
58,132,27840,67,64,0,2,10,16,5.mid,experiment,0
59,134,28116,67,64,0,2,10,16,5.mid,experiment,0
60,136,28378,71,64,0,2,10,16,5.mid,experiment,0
61,138,28650,71,64,0,2,10,16,5.mid,experiment,0
62,140,28938,72,64,0,2,10,16,5.mid,experiment,0
63,142,29212,72,64,0,2,10,16,5.mid,experiment,0
64,144,29478,73,64,0,2,10,16,5.mid,experiment,0
65,146,29735,73,64,0,2,10,16,5.mid,experiment,0
66,148,30452,74,64,0,2,10,16,5.mid,experiment,0
67,150,31092,77,64,0,2,10,16,5.mid,experiment,0
68,152,31668,76,64,0,2,10,16,5.mid,experiment,0
69,154,32206,74,64,0,2,10,16,5.mid,experiment,0
70,156,32782,72,64,0,2,10,16,5.mid,experiment,0
71,158,33416,84,64,0,2,10,16,5.mid,experiment,0
72,160,34324,84,64,0,2,10,16,5.mid,experiment,0
1,19,8173,79,64,0,2,11,1,12.mid,experiment,0
2,21,8461,78,64,0,2,11,1,12.mid,experiment,0
3,23,8665,79,64,0,2,11,1,12.mid,experiment,0
4,25,8963,76,64,0,2,11,1,12.mid,experiment,0
5,26,8994,72,64,0,2,11,1,12.mid,experiment,0
6,28,9299,67,64,0,2,11,1,12.mid,experiment,0
7,30,9515,67,64,0,2,11,1,12.mid,experiment,0
8,32,9825,67,64,0,2,11,1,12.mid,experiment,0
9,35,10325,79,64,0,2,11,1,12.mid,experiment,0
10,37,10619,78,64,0,2,11,1,12.mid,experiment,0
11,39,10859,79,64,0,2,11,1,12.mid,experiment,0
12,41,11060,76,64,0,2,11,1,12.mid,experiment,0
13,43,11355,72,64,0,2,11,1,12.mid,experiment,0
14,45,11613,76,64,0,2,11,1,12.mid,experiment,0
15,47,11823,79,64,0,2,11,1,12.mid,experiment,0
16,49,12097,84,64,0,2,11,1,12.mid,experiment,0
17,50,12141,83,64,0,2,11,1,12.mid,experiment,0
18,52,12383,81,64,0,2,11,1,12.mid,experiment,0
19,54,12669,81,64,0,2,11,1,12.mid,experiment,0
20,56,12868,81,64,0,2,11,1,12.mid,experiment,0
21,59,13453,83,64,0,2,11,1,12.mid,experiment,0
22,61,13669,81,64,0,2,11,1,12.mid,experiment,0
23,63,13933,84,64,0,2,11,1,12.mid,experiment,0
24,65,14166,81,64,0,2,11,1,12.mid,experiment,0
25,67,14427,78,64,0,2,11,1,12.mid,experiment,0
26,68,14471,79,64,0,2,11,1,12.mid,experiment,0
27,70,14721,79,64,0,2,11,1,12.mid,experiment,0
28,72,15316,79,64,0,2,11,1,12.mid,experiment,0
29,74,16371,77,64,0,2,11,1,12.mid,experiment,0
30,76,16637,77,64,0,2,11,1,12.mid,experiment,0
31,78,16913,76,64,0,2,11,1,12.mid,experiment,0
32,80,17135,76,64,0,2,11,1,12.mid,experiment,0
33,82,17865,74,64,0,2,11,1,12.mid,experiment,0
34,84,18663,79,64,0,2,11,1,12.mid,experiment,0
35,86,19223,77,64,0,2,11,1,12.mid,experiment,0
36,88,19657,76,64,0,2,11,1,12.mid,experiment,0
37,90,19911,76,64,0,2,11,1,12.mid,experiment,0
38,92,20155,76,64,0,2,11,1,12.mid,experiment,0
39,94,20396,76,64,0,2,11,1,12.mid,experiment,0
40,97,20959,81,64,0,2,11,1,12.mid,experiment,0
41,99,21199,77,64,0,2,11,1,12.mid,experiment,0
42,101,21406,76,64,0,2,11,1,12.mid,experiment,0
43,103,21667,74,64,0,2,11,1,12.mid,experiment,0
44,105,21917,76,64,0,2,11,1,12.mid,experiment,0
45,107,22183,79,64,0,2,11,1,12.mid,experiment,0
46,109,22382,74,64,0,2,11,1,12.mid,experiment,0
47,110,22468,71,64,0,2,11,1,12.mid,experiment,0
48,112,22703,72,64,0,2,11,1,12.mid,experiment,0
49,114,22959,72,64,0,2,11,1,12.mid,experiment,0
50,116,23209,74,64,0,2,11,1,12.mid,experiment,0
51,118,23469,74,64,0,2,11,1,12.mid,experiment,0
52,120,24177,76,64,0,2,11,1,12.mid,experiment,0
53,122,24882,65,64,0,2,11,1,12.mid,experiment,0
54,124,25127,65,64,0,2,11,1,12.mid,experiment,0
55,126,25398,64,64,0,2,11,1,12.mid,experiment,0
56,128,25653,64,64,0,2,11,1,12.mid,experiment,0
57,130,26369,62,64,0,2,11,1,12.mid,experiment,0
58,132,26983,67,64,0,2,11,1,12.mid,experiment,0
59,134,27239,67,64,0,2,11,1,12.mid,experiment,0
60,136,27489,71,64,0,2,11,1,12.mid,experiment,0
61,138,27733,71,64,0,2,11,1,12.mid,experiment,0
62,140,28003,72,64,0,2,11,1,12.mid,experiment,0
63,142,28213,72,64,0,2,11,1,12.mid,experiment,0
64,144,28491,73,64,0,2,11,1,12.mid,experiment,0
65,146,28755,73,64,0,2,11,1,12.mid,experiment,0
66,148,29099,74,64,0,2,11,1,12.mid,experiment,0
67,150,29636,77,64,0,2,11,1,12.mid,experiment,0
68,152,30145,76,64,0,2,11,1,12.mid,experiment,0
69,154,30613,74,64,0,2,11,1,12.mid,experiment,0
70,156,31089,72,64,0,2,11,1,12.mid,experiment,0
71,158,31643,84,64,0,2,11,1,12.mid,experiment,0
72,160,32230,84,64,0,2,11,1,12.mid,experiment,0
1,19,8176,79,64,0,2,11,2,11.mid,experiment,0
2,21,8451,78,64,0,2,11,2,11.mid,experiment,0
3,23,8683,79,64,0,2,11,2,11.mid,experiment,0
4,25,8895,76,64,0,2,11,2,11.mid,experiment,0
5,26,8913,72,64,0,2,11,2,11.mid,experiment,0
6,28,9264,67,64,0,2,11,2,11.mid,experiment,0
7,30,9499,67,64,0,2,11,2,11.mid,experiment,0
8,32,9845,67,64,0,2,11,2,11.mid,experiment,0
9,35,10427,79,64,0,2,11,2,11.mid,experiment,0
10,37,10680,78,64,0,2,11,2,11.mid,experiment,0
11,39,10883,79,64,0,2,11,2,11.mid,experiment,0
12,40,11092,76,64,0,2,11,2,11.mid,experiment,0
13,43,11487,72,64,0,2,11,2,11.mid,experiment,0
14,45,11741,76,64,0,2,11,2,11.mid,experiment,0
15,47,11908,79,64,0,2,11,2,11.mid,experiment,0
16,49,12191,84,64,0,2,11,2,11.mid,experiment,0
17,50,12258,83,64,0,2,11,2,11.mid,experiment,0
18,52,12577,81,64,0,2,11,2,11.mid,experiment,0
19,54,12833,81,64,0,2,11,2,11.mid,experiment,0
20,56,13076,81,64,0,2,11,2,11.mid,experiment,0
21,59,13577,83,64,0,2,11,2,11.mid,experiment,0
22,61,13811,81,64,0,2,11,2,11.mid,experiment,0
23,63,14105,84,64,0,2,11,2,11.mid,experiment,0
24,65,14314,81,64,0,2,11,2,11.mid,experiment,0
25,67,14602,78,64,0,2,11,2,11.mid,experiment,0
26,68,14649,79,64,0,2,11,2,11.mid,experiment,0
27,70,14872,79,64,0,2,11,2,11.mid,experiment,0
28,72,15716,79,64,0,2,11,2,11.mid,experiment,0
29,74,16606,77,64,0,2,11,2,11.mid,experiment,0
30,76,16874,77,64,0,2,11,2,11.mid,experiment,0
31,78,17146,76,64,0,2,11,2,11.mid,experiment,0
32,80,17412,76,64,0,2,11,2,11.mid,experiment,0
33,82,18259,74,64,0,2,11,2,11.mid,experiment,0
34,84,19118,79,64,0,2,11,2,11.mid,experiment,0
35,86,19616,77,64,0,2,11,2,11.mid,experiment,0
36,88,19984,76,64,0,2,11,2,11.mid,experiment,0
37,90,20300,76,64,0,2,11,2,11.mid,experiment,0
38,92,20530,76,64,0,2,11,2,11.mid,experiment,0
39,94,20755,76,64,0,2,11,2,11.mid,experiment,0
40,97,21472,81,64,0,2,11,2,11.mid,experiment,0
41,99,21679,77,64,0,2,11,2,11.mid,experiment,0
42,101,21847,76,64,0,2,11,2,11.mid,experiment,0
43,103,22112,74,64,0,2,11,2,11.mid,experiment,0
44,105,22365,76,64,0,2,11,2,11.mid,experiment,0
45,107,22669,79,64,0,2,11,2,11.mid,experiment,0
46,109,22835,74,64,0,2,11,2,11.mid,experiment,0
47,110,22885,71,64,0,2,11,2,11.mid,experiment,0
48,112,23153,72,64,0,2,11,2,11.mid,experiment,0
49,114,23412,72,64,0,2,11,2,11.mid,experiment,0
50,116,23685,74,64,0,2,11,2,11.mid,experiment,0
51,118,23977,74,64,0,2,11,2,11.mid,experiment,0
52,120,24759,76,64,0,2,11,2,11.mid,experiment,0
53,122,25488,65,64,0,2,11,2,11.mid,experiment,0
54,124,25760,65,64,0,2,11,2,11.mid,experiment,0
55,126,26039,64,64,0,2,11,2,11.mid,experiment,0
56,128,26296,64,64,0,2,11,2,11.mid,experiment,0
57,130,27055,62,64,0,2,11,2,11.mid,experiment,0
58,132,27768,67,64,0,2,11,2,11.mid,experiment,0
59,134,27999,67,64,0,2,11,2,11.mid,experiment,0
60,136,28250,71,64,0,2,11,2,11.mid,experiment,0
61,138,28532,71,64,0,2,11,2,11.mid,experiment,0
62,140,28823,72,64,0,2,11,2,11.mid,experiment,0
63,142,29057,72,64,0,2,11,2,11.mid,experiment,0
64,144,29340,73,64,0,2,11,2,11.mid,experiment,0
65,146,29597,73,64,0,2,11,2,11.mid,experiment,0
66,148,29946,74,64,0,2,11,2,11.mid,experiment,0
67,150,30465,77,64,0,2,11,2,11.mid,experiment,0
68,152,30966,76,64,0,2,11,2,11.mid,experiment,0
69,154,31485,74,64,0,2,11,2,11.mid,experiment,0
70,156,32054,72,64,0,2,11,2,11.mid,experiment,0
71,158,32622,84,64,0,2,11,2,11.mid,experiment,0
72,160,33315,84,64,0,2,11,2,11.mid,experiment,0
1,19,8228,79,64,0,2,11,3,3.mid,experiment,0
2,21,8520,78,64,0,2,11,3,3.mid,experiment,0
3,23,8747,79,64,0,2,11,3,3.mid,experiment,0
4,24,8968,76,64,0,2,11,3,3.mid,experiment,0
5,26,9054,72,64,0,2,11,3,3.mid,experiment,0
6,28,9312,67,64,0,2,11,3,3.mid,experiment,0
7,30,9568,67,64,0,2,11,3,3.mid,experiment,0
8,32,9873,67,64,0,2,11,3,3.mid,experiment,0
9,35,10454,79,64,0,2,11,3,3.mid,experiment,0
10,37,10724,78,64,0,2,11,3,3.mid,experiment,0
11,39,10945,79,64,0,2,11,3,3.mid,experiment,0
12,41,11159,76,64,0,2,11,3,3.mid,experiment,0
13,43,11495,72,64,0,2,11,3,3.mid,experiment,0
14,45,11782,76,64,0,2,11,3,3.mid,experiment,0
15,47,11975,79,64,0,2,11,3,3.mid,experiment,0
16,49,12262,84,64,0,2,11,3,3.mid,experiment,0
17,50,12294,83,64,0,2,11,3,3.mid,experiment,0
18,52,12555,81,64,0,2,11,3,3.mid,experiment,0
19,54,12831,81,64,0,2,11,3,3.mid,experiment,0
20,56,13070,81,64,0,2,11,3,3.mid,experiment,0
21,59,13674,83,64,0,2,11,3,3.mid,experiment,0
22,61,13893,81,64,0,2,11,3,3.mid,experiment,0
23,63,14167,84,64,0,2,11,3,3.mid,experiment,0
24,65,14413,81,64,0,2,11,3,3.mid,experiment,0
25,67,14714,78,64,0,2,11,3,3.mid,experiment,0
26,68,14728,79,64,0,2,11,3,3.mid,experiment,0
27,70,14998,79,64,0,2,11,3,3.mid,experiment,0
28,72,15624,79,64,0,2,11,3,3.mid,experiment,0
29,74,16616,77,64,0,2,11,3,3.mid,experiment,0
30,76,16888,77,64,0,2,11,3,3.mid,experiment,0
31,78,17168,76,64,0,2,11,3,3.mid,experiment,0
32,80,17440,76,64,0,2,11,3,3.mid,experiment,0
33,82,18179,74,64,0,2,11,3,3.mid,experiment,0
34,84,19101,79,64,0,2,11,3,3.mid,experiment,0
35,86,19641,77,64,0,2,11,3,3.mid,experiment,0
36,88,20052,76,64,0,2,11,3,3.mid,experiment,0
37,90,20350,76,64,0,2,11,3,3.mid,experiment,0
38,92,20594,76,64,0,2,11,3,3.mid,experiment,0
39,94,20815,76,64,0,2,11,3,3.mid,experiment,0
40,97,21453,81,64,0,2,11,3,3.mid,experiment,0
41,99,21792,77,64,0,2,11,3,3.mid,experiment,0
42,101,21881,76,64,0,2,11,3,3.mid,experiment,0
43,103,22178,74,64,0,2,11,3,3.mid,experiment,0
44,105,22414,76,64,0,2,11,3,3.mid,experiment,0
45,107,22716,79,64,0,2,11,3,3.mid,experiment,0
46,109,22896,74,64,0,2,11,3,3.mid,experiment,0
47,110,22966,71,64,0,2,11,3,3.mid,experiment,0
48,112,23246,72,64,0,2,11,3,3.mid,experiment,0
49,114,23510,72,64,0,2,11,3,3.mid,experiment,0
50,116,23736,74,64,0,2,11,3,3.mid,experiment,0
51,118,24012,74,64,0,2,11,3,3.mid,experiment,0
52,120,24762,76,64,0,2,11,3,3.mid,experiment,0
53,122,25539,65,64,0,2,11,3,3.mid,experiment,0
54,124,25753,65,64,0,2,11,3,3.mid,experiment,0
55,126,26053,64,64,0,2,11,3,3.mid,experiment,0
56,128,26325,64,64,0,2,11,3,3.mid,experiment,0
57,130,27127,62,64,0,2,11,3,3.mid,experiment,0
58,132,27838,67,64,0,2,11,3,3.mid,experiment,0
59,134,28097,67,64,0,2,11,3,3.mid,experiment,0
60,136,28372,71,64,0,2,11,3,3.mid,experiment,0
61,138,28651,71,64,0,2,11,3,3.mid,experiment,0
62,140,28916,72,64,0,2,11,3,3.mid,experiment,0
63,142,29136,72,64,0,2,11,3,3.mid,experiment,0
64,144,29394,73,64,0,2,11,3,3.mid,experiment,0
65,146,29637,73,64,0,2,11,3,3.mid,experiment,0
66,148,29944,74,64,0,2,11,3,3.mid,experiment,0
67,150,30464,77,64,0,2,11,3,3.mid,experiment,0
68,152,31033,76,64,0,2,11,3,3.mid,experiment,0
69,154,31602,74,64,0,2,11,3,3.mid,experiment,0
70,156,32093,72,64,0,2,11,3,3.mid,experiment,0
71,158,32669,84,64,0,2,11,3,3.mid,experiment,0
72,160,33311,84,64,0,2,11,3,3.mid,experiment,0
1,19,8302,79,64,0,2,11,5,7.mid,experiment,0
2,21,8617,78,64,0,2,11,5,7.mid,experiment,0
3,23,8868,79,64,0,2,11,5,7.mid,experiment,0
4,25,9090,76,64,0,2,11,5,7.mid,experiment,0
5,26,9127,72,64,0,2,11,5,7.mid,experiment,0
6,28,9387,67,64,0,2,11,5,7.mid,experiment,0
7,30,9635,67,64,0,2,11,5,7.mid,experiment,0
8,32,9909,67,64,0,2,11,5,7.mid,experiment,0
9,35,10597,79,64,0,2,11,5,7.mid,experiment,0
10,37,10864,78,64,0,2,11,5,7.mid,experiment,0
11,39,11141,79,64,0,2,11,5,7.mid,experiment,0
12,41,11308,76,64,0,2,11,5,7.mid,experiment,0
13,43,11648,72,64,0,2,11,5,7.mid,experiment,0
14,45,11932,76,64,0,2,11,5,7.mid,experiment,0
15,47,12092,79,64,0,2,11,5,7.mid,experiment,0
16,49,12390,84,64,0,2,11,5,7.mid,experiment,0
17,50,12397,83,64,0,2,11,5,7.mid,experiment,0
18,52,12659,81,64,0,2,11,5,7.mid,experiment,0
19,54,12907,81,64,0,2,11,5,7.mid,experiment,0
20,56,13167,81,64,0,2,11,5,7.mid,experiment,0
21,59,13817,83,64,0,2,11,5,7.mid,experiment,0
22,61,14039,81,64,0,2,11,5,7.mid,experiment,0
23,63,14306,84,64,0,2,11,5,7.mid,experiment,0
24,65,14539,81,64,0,2,11,5,7.mid,experiment,0
25,67,14799,78,64,0,2,11,5,7.mid,experiment,0
26,68,14820,79,64,0,2,11,5,7.mid,experiment,0
27,70,15096,79,64,0,2,11,5,7.mid,experiment,0
28,72,15682,79,64,0,2,11,5,7.mid,experiment,0
29,74,16777,77,64,0,2,11,5,7.mid,experiment,0
30,76,17029,77,64,0,2,11,5,7.mid,experiment,0
31,78,17274,76,64,0,2,11,5,7.mid,experiment,0
32,80,17543,76,64,0,2,11,5,7.mid,experiment,0
33,82,18244,74,64,0,2,11,5,7.mid,experiment,0
34,84,19182,79,64,0,2,11,5,7.mid,experiment,0
35,86,19706,77,64,0,2,11,5,7.mid,experiment,0
36,88,20055,76,64,0,2,11,5,7.mid,experiment,0
37,90,20282,76,64,0,2,11,5,7.mid,experiment,0
38,92,20556,76,64,0,2,11,5,7.mid,experiment,0
39,94,20786,76,64,0,2,11,5,7.mid,experiment,0
40,97,21458,81,64,0,2,11,5,7.mid,experiment,0
41,99,21739,77,64,0,2,11,5,7.mid,experiment,0
42,101,21889,76,64,0,2,11,5,7.mid,experiment,0
43,103,22158,74,64,0,2,11,5,7.mid,experiment,0
44,105,22382,76,64,0,2,11,5,7.mid,experiment,0
45,107,22730,79,64,0,2,11,5,7.mid,experiment,0
46,109,22896,74,64,0,2,11,5,7.mid,experiment,0
47,110,22960,71,64,0,2,11,5,7.mid,experiment,0
48,112,23182,72,64,0,2,11,5,7.mid,experiment,0
49,114,23435,72,64,0,2,11,5,7.mid,experiment,0
50,116,23709,74,64,0,2,11,5,7.mid,experiment,0
51,118,24000,74,64,0,2,11,5,7.mid,experiment,0
52,120,24677,76,64,0,2,11,5,7.mid,experiment,0
53,122,25449,65,64,0,2,11,5,7.mid,experiment,0
54,124,25729,65,64,0,2,11,5,7.mid,experiment,0
55,126,25994,64,64,0,2,11,5,7.mid,experiment,0
56,128,26228,64,64,0,2,11,5,7.mid,experiment,0
57,130,26890,62,64,0,2,11,5,7.mid,experiment,0
58,132,27695,67,64,0,2,11,5,7.mid,experiment,0
59,134,27935,67,64,0,2,11,5,7.mid,experiment,0
60,136,28228,71,64,0,2,11,5,7.mid,experiment,0
61,138,28467,71,64,0,2,11,5,7.mid,experiment,0
62,140,28747,72,64,0,2,11,5,7.mid,experiment,0
63,142,28985,72,64,0,2,11,5,7.mid,experiment,0
64,144,29255,73,64,0,2,11,5,7.mid,experiment,0
65,146,29497,73,64,0,2,11,5,7.mid,experiment,0
66,148,29774,74,64,0,2,11,5,7.mid,experiment,0
67,150,30355,77,64,0,2,11,5,7.mid,experiment,0
68,152,30955,76,64,0,2,11,5,7.mid,experiment,0
69,154,31508,74,64,0,2,11,5,7.mid,experiment,0
70,156,32145,72,64,0,2,11,5,7.mid,experiment,0
71,158,32596,84,64,0,2,11,5,7.mid,experiment,0
72,160,33414,84,64,0,2,11,5,7.mid,experiment,0
1,19,8297,79,64,0,2,11,6,9.mid,experiment,0
2,21,8555,78,64,0,2,11,6,9.mid,experiment,0
3,23,8798,79,64,0,2,11,6,9.mid,experiment,0
4,25,9005,76,64,0,2,11,6,9.mid,experiment,0
5,26,9007,72,64,0,2,11,6,9.mid,experiment,0
6,28,9320,67,64,0,2,11,6,9.mid,experiment,0
7,30,9586,67,64,0,2,11,6,9.mid,experiment,0
8,32,9860,67,64,0,2,11,6,9.mid,experiment,0
9,35,10463,79,64,0,2,11,6,9.mid,experiment,0
10,37,10719,78,64,0,2,11,6,9.mid,experiment,0
11,39,10924,79,64,0,2,11,6,9.mid,experiment,0
12,41,11141,76,64,0,2,11,6,9.mid,experiment,0
13,43,11482,72,64,0,2,11,6,9.mid,experiment,0
14,45,11757,76,64,0,2,11,6,9.mid,experiment,0
15,47,11920,79,64,0,2,11,6,9.mid,experiment,0
16,49,12224,84,64,0,2,11,6,9.mid,experiment,0
17,50,12251,83,64,0,2,11,6,9.mid,experiment,0
18,52,12506,81,64,0,2,11,6,9.mid,experiment,0
19,54,12785,81,64,0,2,11,6,9.mid,experiment,0
20,56,13001,81,64,0,2,11,6,9.mid,experiment,0
21,59,13625,83,64,0,2,11,6,9.mid,experiment,0
22,61,13862,81,64,0,2,11,6,9.mid,experiment,0
23,63,14175,84,64,0,2,11,6,9.mid,experiment,0
24,65,14384,81,64,0,2,11,6,9.mid,experiment,0
25,67,14638,78,64,0,2,11,6,9.mid,experiment,0
26,68,14660,79,64,0,2,11,6,9.mid,experiment,0
27,70,14905,79,64,0,2,11,6,9.mid,experiment,0
28,72,15694,79,64,0,2,11,6,9.mid,experiment,0
29,74,16564,77,64,0,2,11,6,9.mid,experiment,0
30,76,16815,77,64,0,2,11,6,9.mid,experiment,0
31,78,17097,76,64,0,2,11,6,9.mid,experiment,0
32,80,17368,76,64,0,2,11,6,9.mid,experiment,0
33,82,18078,74,64,0,2,11,6,9.mid,experiment,0
34,84,18953,79,64,0,2,11,6,9.mid,experiment,0
35,86,19469,77,64,0,2,11,6,9.mid,experiment,0
36,88,19830,76,64,0,2,11,6,9.mid,experiment,0
37,90,20105,76,64,0,2,11,6,9.mid,experiment,0
38,92,20346,76,64,0,2,11,6,9.mid,experiment,0
39,94,20602,76,64,0,2,11,6,9.mid,experiment,0
40,97,21224,81,64,0,2,11,6,9.mid,experiment,0
41,99,21463,77,64,0,2,11,6,9.mid,experiment,0
42,101,21629,76,64,0,2,11,6,9.mid,experiment,0
43,103,21912,74,64,0,2,11,6,9.mid,experiment,0
44,105,22151,76,64,0,2,11,6,9.mid,experiment,0
45,107,22482,79,64,0,2,11,6,9.mid,experiment,0
46,109,22624,74,64,0,2,11,6,9.mid,experiment,0
47,110,22659,71,64,0,2,11,6,9.mid,experiment,0
48,112,22926,72,64,0,2,11,6,9.mid,experiment,0
49,114,23184,72,64,0,2,11,6,9.mid,experiment,0
50,116,23454,74,64,0,2,11,6,9.mid,experiment,0
51,118,23712,74,64,0,2,11,6,9.mid,experiment,0
52,120,24487,76,64,0,2,11,6,9.mid,experiment,0
53,122,25131,65,64,0,2,11,6,9.mid,experiment,0
54,124,25420,65,64,0,2,11,6,9.mid,experiment,0
55,126,25650,64,64,0,2,11,6,9.mid,experiment,0
56,128,25936,64,64,0,2,11,6,9.mid,experiment,0
57,130,26755,62,64,0,2,11,6,9.mid,experiment,0
58,132,27398,67,64,0,2,11,6,9.mid,experiment,0
59,134,27625,67,64,0,2,11,6,9.mid,experiment,0
60,136,27851,71,64,0,2,11,6,9.mid,experiment,0
61,138,28136,71,64,0,2,11,6,9.mid,experiment,0
62,140,28379,72,64,0,2,11,6,9.mid,experiment,0
63,142,28641,72,64,0,2,11,6,9.mid,experiment,0
64,144,28922,73,64,0,2,11,6,9.mid,experiment,0
65,146,29165,73,64,0,2,11,6,9.mid,experiment,0
66,148,29533,74,64,0,2,11,6,9.mid,experiment,0
67,150,30075,77,64,0,2,11,6,9.mid,experiment,0
68,152,30630,76,64,0,2,11,6,9.mid,experiment,0
69,154,31189,74,64,0,2,11,6,9.mid,experiment,0
70,156,31828,72,64,0,2,11,6,9.mid,experiment,0
71,158,32271,84,64,0,2,11,6,9.mid,experiment,0
72,160,33132,84,64,0,2,11,6,9.mid,experiment,0
1,19,8269,79,64,0,2,11,12,14.mid,experiment,0
2,21,8542,78,64,0,2,11,12,14.mid,experiment,0
3,23,8816,79,64,0,2,11,12,14.mid,experiment,0
4,25,9017,76,64,0,2,11,12,14.mid,experiment,0
5,26,9054,72,64,0,2,11,12,14.mid,experiment,0
6,28,9308,67,64,0,2,11,12,14.mid,experiment,0
7,30,9571,67,64,0,2,11,12,14.mid,experiment,0
8,32,9835,67,64,0,2,11,12,14.mid,experiment,0
9,35,10470,79,64,0,2,11,12,14.mid,experiment,0
10,37,10764,78,64,0,2,11,12,14.mid,experiment,0
11,39,10991,79,64,0,2,11,12,14.mid,experiment,0
12,41,11195,76,64,0,2,11,12,14.mid,experiment,0
13,43,11516,72,64,0,2,11,12,14.mid,experiment,0
14,45,11796,76,64,0,2,11,12,14.mid,experiment,0
15,47,11964,79,64,0,2,11,12,14.mid,experiment,0
16,49,12269,84,64,0,2,11,12,14.mid,experiment,0
17,50,12287,83,64,0,2,11,12,14.mid,experiment,0
18,52,12578,81,64,0,2,11,12,14.mid,experiment,0
19,54,12826,81,64,0,2,11,12,14.mid,experiment,0
20,56,13072,81,64,0,2,11,12,14.mid,experiment,0
21,59,13671,83,64,0,2,11,12,14.mid,experiment,0
22,61,13891,81,64,0,2,11,12,14.mid,experiment,0
23,63,14179,84,64,0,2,11,12,14.mid,experiment,0
24,65,14408,81,64,0,2,11,12,14.mid,experiment,0
25,67,14691,78,64,0,2,11,12,14.mid,experiment,0
26,68,14718,79,64,0,2,11,12,14.mid,experiment,0
27,70,15030,79,64,0,2,11,12,14.mid,experiment,0
28,72,15897,79,64,0,2,11,12,14.mid,experiment,0
29,74,16737,77,64,0,2,11,12,14.mid,experiment,0
30,76,17003,77,64,0,2,11,12,14.mid,experiment,0
31,78,17263,76,64,0,2,11,12,14.mid,experiment,0
32,80,17519,76,64,0,2,11,12,14.mid,experiment,0
33,82,18316,74,64,0,2,11,12,14.mid,experiment,0
34,84,19257,79,64,0,2,11,12,14.mid,experiment,0
35,86,19753,77,64,0,2,11,12,14.mid,experiment,0
36,88,20116,76,64,0,2,11,12,14.mid,experiment,0
37,90,20378,76,64,0,2,11,12,14.mid,experiment,0
38,92,20623,76,64,0,2,11,12,14.mid,experiment,0
39,94,20822,76,64,0,2,11,12,14.mid,experiment,0
40,97,21442,81,64,0,2,11,12,14.mid,experiment,0
41,99,21680,77,64,0,2,11,12,14.mid,experiment,0
42,101,21905,76,64,0,2,11,12,14.mid,experiment,0
43,103,22200,74,64,0,2,11,12,14.mid,experiment,0
44,105,22446,76,64,0,2,11,12,14.mid,experiment,0
45,107,22748,79,64,0,2,11,12,14.mid,experiment,0
46,109,22957,74,64,0,2,11,12,14.mid,experiment,0
47,110,23014,71,64,0,2,11,12,14.mid,experiment,0
48,112,23250,72,64,0,2,11,12,14.mid,experiment,0
49,114,23519,72,64,0,2,11,12,14.mid,experiment,0
50,116,23763,74,64,0,2,11,12,14.mid,experiment,0
51,118,24027,74,64,0,2,11,12,14.mid,experiment,0
52,120,24779,76,64,0,2,11,12,14.mid,experiment,0
53,122,25483,65,64,0,2,11,12,14.mid,experiment,0
54,124,25746,65,64,0,2,11,12,14.mid,experiment,0
55,126,26016,64,64,0,2,11,12,14.mid,experiment,0
56,128,26253,64,64,0,2,11,12,14.mid,experiment,0
57,130,27049,62,64,0,2,11,12,14.mid,experiment,0
58,132,27719,67,64,0,2,11,12,14.mid,experiment,0
59,134,27985,67,64,0,2,11,12,14.mid,experiment,0
60,136,28215,71,64,0,2,11,12,14.mid,experiment,0
61,138,28459,71,64,0,2,11,12,14.mid,experiment,0
62,140,28755,72,64,0,2,11,12,14.mid,experiment,0
63,142,29025,72,64,0,2,11,12,14.mid,experiment,0
64,144,29288,73,64,0,2,11,12,14.mid,experiment,0
65,146,29541,73,64,0,2,11,12,14.mid,experiment,0
66,148,30136,74,64,0,2,11,12,14.mid,experiment,0
67,150,30751,77,64,0,2,11,12,14.mid,experiment,0
68,152,31301,76,64,0,2,11,12,14.mid,experiment,0
69,154,31792,74,64,0,2,11,12,14.mid,experiment,0
70,156,32330,72,64,0,2,11,12,14.mid,experiment,0
71,158,32799,84,64,0,2,11,12,14.mid,experiment,0
72,160,33639,84,64,0,2,11,12,14.mid,experiment,0
1,19,8235,79,64,0,2,11,13,4.mid,experiment,0
2,21,8524,78,64,0,2,11,13,4.mid,experiment,0
3,23,8784,79,64,0,2,11,13,4.mid,experiment,0
4,25,9002,76,64,0,2,11,13,4.mid,experiment,0
5,26,9037,72,64,0,2,11,13,4.mid,experiment,0
6,28,9321,67,64,0,2,11,13,4.mid,experiment,0
7,30,9577,67,64,0,2,11,13,4.mid,experiment,0
8,32,9863,67,64,0,2,11,13,4.mid,experiment,0
9,35,10451,79,64,0,2,11,13,4.mid,experiment,0
10,37,10749,78,64,0,2,11,13,4.mid,experiment,0
11,39,10962,79,64,0,2,11,13,4.mid,experiment,0
12,41,11176,76,64,0,2,11,13,4.mid,experiment,0
13,43,11503,72,64,0,2,11,13,4.mid,experiment,0
14,45,11780,76,64,0,2,11,13,4.mid,experiment,0
15,47,11951,79,64,0,2,11,13,4.mid,experiment,0
16,49,12236,84,64,0,2,11,13,4.mid,experiment,0
17,50,12248,83,64,0,2,11,13,4.mid,experiment,0
18,52,12538,81,64,0,2,11,13,4.mid,experiment,0
19,54,12795,81,64,0,2,11,13,4.mid,experiment,0
20,56,13024,81,64,0,2,11,13,4.mid,experiment,0
21,59,13642,83,64,0,2,11,13,4.mid,experiment,0
22,61,13850,81,64,0,2,11,13,4.mid,experiment,0
23,63,14150,84,64,0,2,11,13,4.mid,experiment,0
24,65,14363,81,64,0,2,11,13,4.mid,experiment,0
25,67,14653,78,64,0,2,11,13,4.mid,experiment,0
26,68,14682,79,64,0,2,11,13,4.mid,experiment,0
27,70,14967,79,64,0,2,11,13,4.mid,experiment,0
28,72,15825,79,64,0,2,11,13,4.mid,experiment,0
29,74,16686,77,64,0,2,11,13,4.mid,experiment,0
30,76,16955,77,64,0,2,11,13,4.mid,experiment,0
31,78,17207,76,64,0,2,11,13,4.mid,experiment,0
32,80,17469,76,64,0,2,11,13,4.mid,experiment,0
33,82,18246,74,64,0,2,11,13,4.mid,experiment,0
34,84,19071,79,64,0,2,11,13,4.mid,experiment,0
35,86,19609,77,64,0,2,11,13,4.mid,experiment,0
36,88,20035,76,64,0,2,11,13,4.mid,experiment,0
37,90,20282,76,64,0,2,11,13,4.mid,experiment,0
38,92,20548,76,64,0,2,11,13,4.mid,experiment,0
39,94,20729,76,64,0,2,11,13,4.mid,experiment,0
40,97,21378,81,64,0,2,11,13,4.mid,experiment,0
41,99,21604,77,64,0,2,11,13,4.mid,experiment,0
42,101,21828,76,64,0,2,11,13,4.mid,experiment,0
43,103,22121,74,64,0,2,11,13,4.mid,experiment,0
44,105,22371,76,64,0,2,11,13,4.mid,experiment,0
45,107,22657,79,64,0,2,11,13,4.mid,experiment,0
46,109,22846,74,64,0,2,11,13,4.mid,experiment,0
47,110,22917,71,64,0,2,11,13,4.mid,experiment,0
48,112,23152,72,64,0,2,11,13,4.mid,experiment,0
49,114,23398,72,64,0,2,11,13,4.mid,experiment,0
50,116,23665,74,64,0,2,11,13,4.mid,experiment,0
51,118,23952,74,64,0,2,11,13,4.mid,experiment,0
52,120,24675,76,64,0,2,11,13,4.mid,experiment,0
53,122,25380,65,64,0,2,11,13,4.mid,experiment,0
54,124,25632,65,64,0,2,11,13,4.mid,experiment,0
55,126,25911,64,64,0,2,11,13,4.mid,experiment,0
56,128,26205,64,64,0,2,11,13,4.mid,experiment,0
57,130,27027,62,64,0,2,11,13,4.mid,experiment,0
58,132,27657,67,64,0,2,11,13,4.mid,experiment,0
59,134,28012,67,64,0,2,11,13,4.mid,experiment,0
60,136,28148,71,64,0,2,11,13,4.mid,experiment,0
61,138,28448,71,64,0,2,11,13,4.mid,experiment,0
62,140,28736,72,64,0,2,11,13,4.mid,experiment,0
63,142,28970,72,64,0,2,11,13,4.mid,experiment,0
64,144,29240,73,64,0,2,11,13,4.mid,experiment,0
65,146,29517,73,64,0,2,11,13,4.mid,experiment,0
66,148,30111,74,64,0,2,11,13,4.mid,experiment,0
67,150,30674,77,64,0,2,11,13,4.mid,experiment,0
68,152,31212,76,64,0,2,11,13,4.mid,experiment,0
69,154,31690,74,64,0,2,11,13,4.mid,experiment,0
70,156,32192,72,64,0,2,11,13,4.mid,experiment,0
71,158,32668,84,64,0,2,11,13,4.mid,experiment,0
72,160,33483,84,64,0,2,11,13,4.mid,experiment,0
1,19,8217,79,64,0,2,11,14,13.mid,experiment,0
2,21,8468,78,64,0,2,11,14,13.mid,experiment,0
3,23,8766,79,64,0,2,11,14,13.mid,experiment,0
4,25,8982,76,64,0,2,11,14,13.mid,experiment,0
5,26,9009,72,64,0,2,11,14,13.mid,experiment,0
6,28,9274,67,64,0,2,11,14,13.mid,experiment,0
7,30,9528,67,64,0,2,11,14,13.mid,experiment,0
8,32,9800,67,64,0,2,11,14,13.mid,experiment,0
9,35,10457,79,64,0,2,11,14,13.mid,experiment,0
10,37,10712,78,64,0,2,11,14,13.mid,experiment,0
11,39,10916,79,64,0,2,11,14,13.mid,experiment,0
12,41,11145,76,64,0,2,11,14,13.mid,experiment,0
13,43,11454,72,64,0,2,11,14,13.mid,experiment,0
14,45,11760,76,64,0,2,11,14,13.mid,experiment,0
15,47,11914,79,64,0,2,11,14,13.mid,experiment,0
16,49,12216,84,64,0,2,11,14,13.mid,experiment,0
17,50,12243,83,64,0,2,11,14,13.mid,experiment,0
18,52,12493,81,64,0,2,11,14,13.mid,experiment,0
19,54,12743,81,64,0,2,11,14,13.mid,experiment,0
20,56,13005,81,64,0,2,11,14,13.mid,experiment,0
21,59,13626,83,64,0,2,11,14,13.mid,experiment,0
22,61,13853,81,64,0,2,11,14,13.mid,experiment,0
23,63,14154,84,64,0,2,11,14,13.mid,experiment,0
24,65,14420,81,64,0,2,11,14,13.mid,experiment,0
25,67,14672,78,64,0,2,11,14,13.mid,experiment,0
26,68,14693,79,64,0,2,11,14,13.mid,experiment,0
27,70,14945,79,64,0,2,11,14,13.mid,experiment,0
28,72,15623,79,64,0,2,11,14,13.mid,experiment,0
29,74,16599,77,64,0,2,11,14,13.mid,experiment,0
30,76,16867,77,64,0,2,11,14,13.mid,experiment,0
31,78,17139,76,64,0,2,11,14,13.mid,experiment,0
32,80,17389,76,64,0,2,11,14,13.mid,experiment,0
33,82,18175,74,64,0,2,11,14,13.mid,experiment,0
34,84,19116,79,64,0,2,11,14,13.mid,experiment,0
35,86,19698,77,64,0,2,11,14,13.mid,experiment,0
36,88,20020,76,64,0,2,11,14,13.mid,experiment,0
37,90,20283,76,64,0,2,11,14,13.mid,experiment,0
38,92,20529,76,64,0,2,11,14,13.mid,experiment,0
39,94,20827,76,64,0,2,11,14,13.mid,experiment,0
40,97,21398,81,64,0,2,11,14,13.mid,experiment,0
41,99,21666,77,64,0,2,11,14,13.mid,experiment,0
42,101,21896,76,64,0,2,11,14,13.mid,experiment,0
43,103,22176,74,64,0,2,11,14,13.mid,experiment,0
44,105,22410,76,64,0,2,11,14,13.mid,experiment,0
45,107,22715,79,64,0,2,11,14,13.mid,experiment,0
46,109,22898,74,64,0,2,11,14,13.mid,experiment,0
47,110,22946,71,64,0,2,11,14,13.mid,experiment,0
48,112,23196,72,64,0,2,11,14,13.mid,experiment,0
49,114,23463,72,64,0,2,11,14,13.mid,experiment,0
50,116,23723,74,64,0,2,11,14,13.mid,experiment,0
51,118,23987,74,64,0,2,11,14,13.mid,experiment,0
52,120,24768,76,64,0,2,11,14,13.mid,experiment,0
53,122,25457,65,64,0,2,11,14,13.mid,experiment,0
54,124,25718,65,64,0,2,11,14,13.mid,experiment,0
55,126,25980,64,64,0,2,11,14,13.mid,experiment,0
56,128,26250,64,64,0,2,11,14,13.mid,experiment,0
57,130,27020,62,64,0,2,11,14,13.mid,experiment,0
58,132,27699,67,64,0,2,11,14,13.mid,experiment,0
59,134,27937,67,64,0,2,11,14,13.mid,experiment,0
60,136,28180,71,64,0,2,11,14,13.mid,experiment,0
61,138,28443,71,64,0,2,11,14,13.mid,experiment,0
62,140,28714,72,64,0,2,11,14,13.mid,experiment,0
63,142,28969,72,64,0,2,11,14,13.mid,experiment,0
64,144,29250,73,64,0,2,11,14,13.mid,experiment,0
65,146,29501,73,64,0,2,11,14,13.mid,experiment,0
66,148,30185,74,64,0,2,11,14,13.mid,experiment,0
67,150,30766,77,64,0,2,11,14,13.mid,experiment,0
68,152,31308,76,64,0,2,11,14,13.mid,experiment,0
69,154,31810,74,64,0,2,11,14,13.mid,experiment,0
70,156,32405,72,64,0,2,11,14,13.mid,experiment,0
71,158,32812,84,64,0,2,11,14,13.mid,experiment,0
72,160,33596,84,64,0,2,11,14,13.mid,experiment,0
1,19,8285,79,64,0,2,11,16,2.mid,experiment,0
2,21,8547,78,64,0,2,11,16,2.mid,experiment,0
3,23,8797,79,64,0,2,11,16,2.mid,experiment,0
4,25,9002,76,64,0,2,11,16,2.mid,experiment,0
5,26,9011,72,64,0,2,11,16,2.mid,experiment,0
6,28,9312,67,64,0,2,11,16,2.mid,experiment,0
7,30,9574,67,64,0,2,11,16,2.mid,experiment,0
8,32,9875,67,64,0,2,11,16,2.mid,experiment,0
9,35,10512,79,64,0,2,11,16,2.mid,experiment,0
10,37,10738,78,64,0,2,11,16,2.mid,experiment,0
11,39,10999,79,64,0,2,11,16,2.mid,experiment,0
12,41,11195,76,64,0,2,11,16,2.mid,experiment,0
13,43,11556,72,64,0,2,11,16,2.mid,experiment,0
14,45,11806,76,64,0,2,11,16,2.mid,experiment,0
15,47,11971,79,64,0,2,11,16,2.mid,experiment,0
16,49,12270,84,64,0,2,11,16,2.mid,experiment,0
17,50,12273,83,64,0,2,11,16,2.mid,experiment,0
18,52,12606,81,64,0,2,11,16,2.mid,experiment,0
19,54,12868,81,64,0,2,11,16,2.mid,experiment,0
20,56,13144,81,64,0,2,11,16,2.mid,experiment,0
21,59,13659,83,64,0,2,11,16,2.mid,experiment,0
22,61,13884,81,64,0,2,11,16,2.mid,experiment,0
23,63,14175,84,64,0,2,11,16,2.mid,experiment,0
24,65,14436,81,64,0,2,11,16,2.mid,experiment,0
25,67,14737,78,64,0,2,11,16,2.mid,experiment,0
26,68,14761,79,64,0,2,11,16,2.mid,experiment,0
27,70,15031,79,64,0,2,11,16,2.mid,experiment,0
28,72,15831,79,64,0,2,11,16,2.mid,experiment,0
29,74,16632,77,64,0,2,11,16,2.mid,experiment,0
30,76,16899,77,64,0,2,11,16,2.mid,experiment,0
31,78,17184,76,64,0,2,11,16,2.mid,experiment,0
32,80,17425,76,64,0,2,11,16,2.mid,experiment,0
33,82,18230,74,64,0,2,11,16,2.mid,experiment,0
34,84,19124,79,64,0,2,11,16,2.mid,experiment,0
35,86,19623,77,64,0,2,11,16,2.mid,experiment,0
36,88,20020,76,64,0,2,11,16,2.mid,experiment,0
37,90,20273,76,64,0,2,11,16,2.mid,experiment,0
38,92,20553,76,64,0,2,11,16,2.mid,experiment,0
39,94,20771,76,64,0,2,11,16,2.mid,experiment,0
40,97,21416,81,64,0,2,11,16,2.mid,experiment,0
41,99,21655,77,64,0,2,11,16,2.mid,experiment,0
42,101,21839,76,64,0,2,11,16,2.mid,experiment,0
43,103,22125,74,64,0,2,11,16,2.mid,experiment,0
44,105,22363,76,64,0,2,11,16,2.mid,experiment,0
45,107,22666,79,64,0,2,11,16,2.mid,experiment,0
46,109,22841,74,64,0,2,11,16,2.mid,experiment,0
47,110,22879,71,64,0,2,11,16,2.mid,experiment,0
48,112,23151,72,64,0,2,11,16,2.mid,experiment,0
49,114,23399,72,64,0,2,11,16,2.mid,experiment,0
50,116,23669,74,64,0,2,11,16,2.mid,experiment,0
51,118,23944,74,64,0,2,11,16,2.mid,experiment,0
52,120,24696,76,64,0,2,11,16,2.mid,experiment,0
53,122,25455,65,64,0,2,11,16,2.mid,experiment,0
54,124,25707,65,64,0,2,11,16,2.mid,experiment,0
55,126,25977,64,64,0,2,11,16,2.mid,experiment,0
56,128,26237,64,64,0,2,11,16,2.mid,experiment,0
57,130,27141,62,64,0,2,11,16,2.mid,experiment,0
58,132,27750,67,64,0,2,11,16,2.mid,experiment,0
59,134,28092,67,64,0,2,11,16,2.mid,experiment,0
60,136,28253,71,64,0,2,11,16,2.mid,experiment,0
61,138,28503,71,64,0,2,11,16,2.mid,experiment,0
62,140,28821,72,64,0,2,11,16,2.mid,experiment,0
63,142,29053,72,64,0,2,11,16,2.mid,experiment,0
64,144,29334,73,64,0,2,11,16,2.mid,experiment,0
65,146,29629,73,64,0,2,11,16,2.mid,experiment,0
66,148,30203,74,64,0,2,11,16,2.mid,experiment,0
67,150,30787,77,64,0,2,11,16,2.mid,experiment,0
68,152,31414,76,64,0,2,11,16,2.mid,experiment,0
69,154,31835,74,64,0,2,11,16,2.mid,experiment,0
70,156,32408,72,64,0,2,11,16,2.mid,experiment,0
71,158,32842,84,64,0,2,11,16,2.mid,experiment,0
72,160,33762,84,64,0,2,11,16,2.mid,experiment,0
1,19,8238,79,64,0,2,12,2,7.mid,experiment,0
2,21,8552,78,64,0,2,12,2,7.mid,experiment,0
3,23,8880,79,64,0,2,12,2,7.mid,experiment,0
4,25,9246,76,64,0,2,12,2,7.mid,experiment,0
5,26,9331,72,64,0,2,12,2,7.mid,experiment,0
6,28,9582,67,64,0,2,12,2,7.mid,experiment,0
7,30,9873,67,64,0,2,12,2,7.mid,experiment,0
8,32,10181,67,64,0,2,12,2,7.mid,experiment,0
9,35,10919,79,64,0,2,12,2,7.mid,experiment,0
10,37,11234,78,64,0,2,12,2,7.mid,experiment,0
11,39,11564,79,64,0,2,12,2,7.mid,experiment,0
12,41,11821,76,64,0,2,12,2,7.mid,experiment,0
13,43,12217,72,64,0,2,12,2,7.mid,experiment,0
14,45,12484,76,64,0,2,12,2,7.mid,experiment,0
15,47,12725,79,64,0,2,12,2,7.mid,experiment,0
16,49,13093,84,64,0,2,12,2,7.mid,experiment,0
17,50,13282,83,64,0,2,12,2,7.mid,experiment,0
18,52,13499,81,64,0,2,12,2,7.mid,experiment,0
19,54,13805,81,64,0,2,12,2,7.mid,experiment,0
20,56,14094,81,64,0,2,12,2,7.mid,experiment,0
21,59,14801,83,64,0,2,12,2,7.mid,experiment,0
22,61,15078,81,64,0,2,12,2,7.mid,experiment,0
23,63,15410,84,64,0,2,12,2,7.mid,experiment,0
24,65,15682,81,64,0,2,12,2,7.mid,experiment,0
25,67,16017,78,64,0,2,12,2,7.mid,experiment,0
26,68,16140,79,64,0,2,12,2,7.mid,experiment,0
27,70,16612,79,64,0,2,12,2,7.mid,experiment,0
28,72,17804,79,64,0,2,12,2,7.mid,experiment,0
29,74,18401,77,64,0,2,12,2,7.mid,experiment,0
30,76,18698,77,64,0,2,12,2,7.mid,experiment,0
31,78,19012,76,64,0,2,12,2,7.mid,experiment,0
32,80,19314,76,64,0,2,12,2,7.mid,experiment,0
33,82,20298,74,64,0,2,12,2,7.mid,experiment,0
34,84,21416,79,64,0,2,12,2,7.mid,experiment,0
35,86,22009,77,64,0,2,12,2,7.mid,experiment,0
36,88,22341,76,64,0,2,12,2,7.mid,experiment,0
37,90,22640,76,64,0,2,12,2,7.mid,experiment,0
38,92,22945,76,64,0,2,12,2,7.mid,experiment,0
39,94,23251,76,64,0,2,12,2,7.mid,experiment,0
40,97,24108,81,64,0,2,12,2,7.mid,experiment,0
41,99,24323,77,64,0,2,12,2,7.mid,experiment,0
42,101,24539,76,64,0,2,12,2,7.mid,experiment,0
43,103,24897,74,64,0,2,12,2,7.mid,experiment,0
44,105,25193,76,64,0,2,12,2,7.mid,experiment,0
45,107,25473,79,64,0,2,12,2,7.mid,experiment,0
46,109,25730,74,64,0,2,12,2,7.mid,experiment,0
47,110,25886,71,64,0,2,12,2,7.mid,experiment,0
48,112,26058,72,64,0,2,12,2,7.mid,experiment,0
49,114,26360,72,64,0,2,12,2,7.mid,experiment,0
50,116,26662,74,64,0,2,12,2,7.mid,experiment,0
51,118,26969,74,64,0,2,12,2,7.mid,experiment,0
52,120,28041,76,64,0,2,12,2,7.mid,experiment,0
53,122,28868,65,64,0,2,12,2,7.mid,experiment,0
54,124,29169,65,64,0,2,12,2,7.mid,experiment,0
55,126,29418,64,64,0,2,12,2,7.mid,experiment,0
56,128,29738,64,64,0,2,12,2,7.mid,experiment,0
57,130,30815,62,64,0,2,12,2,7.mid,experiment,0
58,132,31377,67,64,0,2,12,2,7.mid,experiment,0
59,134,31677,67,64,0,2,12,2,7.mid,experiment,0
60,136,31969,71,64,0,2,12,2,7.mid,experiment,0
61,138,32258,71,64,0,2,12,2,7.mid,experiment,0
62,140,32625,72,64,0,2,12,2,7.mid,experiment,0
63,142,32893,72,64,0,2,12,2,7.mid,experiment,0
64,144,33199,73,64,0,2,12,2,7.mid,experiment,0
65,146,33505,73,64,0,2,12,2,7.mid,experiment,0
66,148,34195,74,64,0,2,12,2,7.mid,experiment,0
67,150,34924,77,64,0,2,12,2,7.mid,experiment,0
68,152,35619,76,64,0,2,12,2,7.mid,experiment,0
69,154,36174,74,64,0,2,12,2,7.mid,experiment,0
70,156,36845,72,64,0,2,12,2,7.mid,experiment,0
71,158,37446,84,64,0,2,12,2,7.mid,experiment,0
72,160,38363,84,64,0,2,12,2,7.mid,experiment,0
1,19,8211,79,64,0,2,12,3,12.mid,experiment,0
2,21,8521,78,64,0,2,12,3,12.mid,experiment,0
3,23,8822,79,64,0,2,12,3,12.mid,experiment,0
4,25,9120,76,64,0,2,12,3,12.mid,experiment,0
5,26,9257,72,64,0,2,12,3,12.mid,experiment,0
6,28,9420,67,64,0,2,12,3,12.mid,experiment,0
7,30,9702,67,64,0,2,12,3,12.mid,experiment,0
8,32,9994,67,64,0,2,12,3,12.mid,experiment,0
9,35,10600,79,64,0,2,12,3,12.mid,experiment,0
10,37,10887,78,64,0,2,12,3,12.mid,experiment,0
11,39,11246,79,64,0,2,12,3,12.mid,experiment,0
12,41,11489,76,64,0,2,12,3,12.mid,experiment,0
13,43,11826,72,64,0,2,12,3,12.mid,experiment,0
14,45,12084,76,64,0,2,12,3,12.mid,experiment,0
15,47,12308,79,64,0,2,12,3,12.mid,experiment,0
16,49,12683,84,64,0,2,12,3,12.mid,experiment,0
17,50,12907,83,64,0,2,12,3,12.mid,experiment,0
18,52,13021,81,64,0,2,12,3,12.mid,experiment,0
19,54,13296,81,64,0,2,12,3,12.mid,experiment,0
20,56,13583,81,64,0,2,12,3,12.mid,experiment,0
21,59,14208,83,64,0,2,12,3,12.mid,experiment,0
22,61,14472,81,64,0,2,12,3,12.mid,experiment,0
23,63,14777,84,64,0,2,12,3,12.mid,experiment,0
24,65,15061,81,64,0,2,12,3,12.mid,experiment,0
25,67,15345,78,64,0,2,12,3,12.mid,experiment,0
26,68,15432,79,64,0,2,12,3,12.mid,experiment,0
27,70,15872,79,64,0,2,12,3,12.mid,experiment,0
28,72,16940,79,64,0,2,12,3,12.mid,experiment,0
29,74,17566,77,64,0,2,12,3,12.mid,experiment,0
30,76,17872,77,64,0,2,12,3,12.mid,experiment,0
31,78,18116,76,64,0,2,12,3,12.mid,experiment,0
32,80,18447,76,64,0,2,12,3,12.mid,experiment,0
33,82,19344,74,64,0,2,12,3,12.mid,experiment,0
34,84,20231,79,64,0,2,12,3,12.mid,experiment,0
35,86,20795,77,64,0,2,12,3,12.mid,experiment,0
36,88,21204,76,64,0,2,12,3,12.mid,experiment,0
37,90,21501,76,64,0,2,12,3,12.mid,experiment,0
38,92,21769,76,64,0,2,12,3,12.mid,experiment,0
39,94,22063,76,64,0,2,12,3,12.mid,experiment,0
40,97,22830,81,64,0,2,12,3,12.mid,experiment,0
41,99,23057,77,64,0,2,12,3,12.mid,experiment,0
42,101,23251,76,64,0,2,12,3,12.mid,experiment,0
43,103,23588,74,64,0,2,12,3,12.mid,experiment,0
44,105,23855,76,64,0,2,12,3,12.mid,experiment,0
45,107,24149,79,64,0,2,12,3,12.mid,experiment,0
46,109,24374,74,64,0,2,12,3,12.mid,experiment,0
47,110,24618,71,64,0,2,12,3,12.mid,experiment,0
48,112,24667,72,64,0,2,12,3,12.mid,experiment,0
49,114,24957,72,64,0,2,12,3,12.mid,experiment,0
50,116,25239,74,64,0,2,12,3,12.mid,experiment,0
51,118,25549,74,64,0,2,12,3,12.mid,experiment,0
52,120,26486,76,64,0,2,12,3,12.mid,experiment,0
53,122,27501,65,64,0,2,12,3,12.mid,experiment,0
54,124,27796,65,64,0,2,12,3,12.mid,experiment,0
55,126,28060,64,64,0,2,12,3,12.mid,experiment,0
56,128,28381,64,64,0,2,12,3,12.mid,experiment,0
57,130,29208,62,64,0,2,12,3,12.mid,experiment,0
58,132,29839,67,64,0,2,12,3,12.mid,experiment,0
59,134,30130,67,64,0,2,12,3,12.mid,experiment,0
60,136,30414,71,64,0,2,12,3,12.mid,experiment,0
61,138,30696,71,64,0,2,12,3,12.mid,experiment,0
62,140,31000,72,64,0,2,12,3,12.mid,experiment,0
63,142,31277,72,64,0,2,12,3,12.mid,experiment,0
64,144,31576,73,64,0,2,12,3,12.mid,experiment,0
65,146,31861,73,64,0,2,12,3,12.mid,experiment,0
66,148,32526,74,64,0,2,12,3,12.mid,experiment,0
67,150,33131,77,64,0,2,12,3,12.mid,experiment,0
68,152,33730,76,64,0,2,12,3,12.mid,experiment,0
69,154,34231,74,64,0,2,12,3,12.mid,experiment,0
70,156,34812,72,64,0,2,12,3,12.mid,experiment,0
71,158,35410,84,64,0,2,12,3,12.mid,experiment,0
72,160,36427,84,64,0,2,12,3,12.mid,experiment,0
1,19,8272,79,64,0,2,12,4,5.mid,experiment,0
2,21,8578,78,64,0,2,12,4,5.mid,experiment,0
3,23,8862,79,64,0,2,12,4,5.mid,experiment,0
4,25,9150,76,64,0,2,12,4,5.mid,experiment,0
5,26,9238,72,64,0,2,12,4,5.mid,experiment,0
6,28,9422,67,64,0,2,12,4,5.mid,experiment,0
7,30,9723,67,64,0,2,12,4,5.mid,experiment,0
8,32,9986,67,64,0,2,12,4,5.mid,experiment,0
9,35,10632,79,64,0,2,12,4,5.mid,experiment,0
10,37,10862,78,64,0,2,12,4,5.mid,experiment,0
11,39,11184,79,64,0,2,12,4,5.mid,experiment,0
12,41,11424,76,64,0,2,12,4,5.mid,experiment,0
13,43,11730,72,64,0,2,12,4,5.mid,experiment,0
14,45,11996,76,64,0,2,12,4,5.mid,experiment,0
15,47,12213,79,64,0,2,12,4,5.mid,experiment,0
16,49,12497,84,64,0,2,12,4,5.mid,experiment,0
17,50,12698,83,64,0,2,12,4,5.mid,experiment,0
18,52,12812,81,64,0,2,12,4,5.mid,experiment,0
19,54,13098,81,64,0,2,12,4,5.mid,experiment,0
20,56,13359,81,64,0,2,12,4,5.mid,experiment,0
21,59,13996,83,64,0,2,12,4,5.mid,experiment,0
22,61,14239,81,64,0,2,12,4,5.mid,experiment,0
23,63,14530,84,64,0,2,12,4,5.mid,experiment,0
24,65,14776,81,64,0,2,12,4,5.mid,experiment,0
25,67,15122,78,64,0,2,12,4,5.mid,experiment,0
26,68,15228,79,64,0,2,12,4,5.mid,experiment,0
27,70,15684,79,64,0,2,12,4,5.mid,experiment,0
28,72,16654,79,64,0,2,12,4,5.mid,experiment,0
29,74,17284,77,64,0,2,12,4,5.mid,experiment,0
30,76,17544,77,64,0,2,12,4,5.mid,experiment,0
31,78,17804,76,64,0,2,12,4,5.mid,experiment,0
32,80,18078,76,64,0,2,12,4,5.mid,experiment,0
33,82,18918,74,64,0,2,12,4,5.mid,experiment,0
34,84,19772,79,64,0,2,12,4,5.mid,experiment,0
35,86,20356,77,64,0,2,12,4,5.mid,experiment,0
36,88,20662,76,64,0,2,12,4,5.mid,experiment,0
37,90,20930,76,64,0,2,12,4,5.mid,experiment,0
38,92,21210,76,64,0,2,12,4,5.mid,experiment,0
39,94,21473,76,64,0,2,12,4,5.mid,experiment,0
40,97,22159,81,64,0,2,12,4,5.mid,experiment,0
41,99,22386,77,64,0,2,12,4,5.mid,experiment,0
42,101,22650,76,64,0,2,12,4,5.mid,experiment,0
43,103,22958,74,64,0,2,12,4,5.mid,experiment,0
44,105,23218,76,64,0,2,12,4,5.mid,experiment,0
45,107,23498,79,64,0,2,12,4,5.mid,experiment,0
46,109,23706,74,64,0,2,12,4,5.mid,experiment,0
47,110,23928,71,64,0,2,12,4,5.mid,experiment,0
48,112,24014,72,64,0,2,12,4,5.mid,experiment,0
49,114,24300,72,64,0,2,12,4,5.mid,experiment,0
50,116,24556,74,64,0,2,12,4,5.mid,experiment,0
51,118,24846,74,64,0,2,12,4,5.mid,experiment,0
52,120,25605,76,64,0,2,12,4,5.mid,experiment,0
53,122,26253,65,64,0,2,12,4,5.mid,experiment,0
54,124,26519,65,64,0,2,12,4,5.mid,experiment,0
55,126,26811,64,64,0,2,12,4,5.mid,experiment,0
56,128,27096,64,64,0,2,12,4,5.mid,experiment,0
57,130,27962,62,64,0,2,12,4,5.mid,experiment,0
58,132,28458,67,64,0,2,12,4,5.mid,experiment,0
59,134,28730,67,64,0,2,12,4,5.mid,experiment,0
60,136,29016,71,64,0,2,12,4,5.mid,experiment,0
61,138,29288,71,64,0,2,12,4,5.mid,experiment,0
62,140,29559,72,64,0,2,12,4,5.mid,experiment,0
63,142,29820,72,64,0,2,12,4,5.mid,experiment,0
64,144,30099,73,64,0,2,12,4,5.mid,experiment,0
65,146,30374,73,64,0,2,12,4,5.mid,experiment,0
66,148,30896,74,64,0,2,12,4,5.mid,experiment,0
67,150,31498,77,64,0,2,12,4,5.mid,experiment,0
68,152,31990,76,64,0,2,12,4,5.mid,experiment,0
69,154,32566,74,64,0,2,12,4,5.mid,experiment,0
70,156,33058,72,64,0,2,12,4,5.mid,experiment,0
71,158,33608,84,64,0,2,12,4,5.mid,experiment,0
72,160,34378,84,64,0,2,12,4,5.mid,experiment,0
1,19,8150,79,64,0,2,12,8,8.mid,experiment,0
2,21,8438,78,64,0,2,12,8,8.mid,experiment,0
3,23,8698,79,64,0,2,12,8,8.mid,experiment,0
4,25,9000,76,64,0,2,12,8,8.mid,experiment,0
5,26,9118,72,64,0,2,12,8,8.mid,experiment,0
6,28,9324,67,64,0,2,12,8,8.mid,experiment,0
7,30,9594,67,64,0,2,12,8,8.mid,experiment,0
8,32,9875,67,64,0,2,12,8,8.mid,experiment,0
9,35,10442,79,64,0,2,12,8,8.mid,experiment,0
10,37,10692,78,64,0,2,12,8,8.mid,experiment,0
11,39,10972,79,64,0,2,12,8,8.mid,experiment,0
12,41,11223,76,64,0,2,12,8,8.mid,experiment,0
13,43,11558,72,64,0,2,12,8,8.mid,experiment,0
14,45,11824,76,64,0,2,12,8,8.mid,experiment,0
15,47,12051,79,64,0,2,12,8,8.mid,experiment,0
16,49,12385,84,64,0,2,12,8,8.mid,experiment,0
17,50,12474,83,64,0,2,12,8,8.mid,experiment,0
18,52,12662,81,64,0,2,12,8,8.mid,experiment,0
19,54,12929,81,64,0,2,12,8,8.mid,experiment,0
20,56,13194,81,64,0,2,12,8,8.mid,experiment,0
21,59,13749,83,64,0,2,12,8,8.mid,experiment,0
22,61,14041,81,64,0,2,12,8,8.mid,experiment,0
23,63,14338,84,64,0,2,12,8,8.mid,experiment,0
24,65,14596,81,64,0,2,12,8,8.mid,experiment,0
25,67,14892,78,64,0,2,12,8,8.mid,experiment,0
26,68,14986,79,64,0,2,12,8,8.mid,experiment,0
27,70,15408,79,64,0,2,12,8,8.mid,experiment,0
28,72,16504,79,64,0,2,12,8,8.mid,experiment,0
29,74,17091,77,64,0,2,12,8,8.mid,experiment,0
30,76,17376,77,64,0,2,12,8,8.mid,experiment,0
31,78,17654,76,64,0,2,12,8,8.mid,experiment,0
32,80,17928,76,64,0,2,12,8,8.mid,experiment,0
33,82,18914,74,64,0,2,12,8,8.mid,experiment,0
34,84,19816,79,64,0,2,12,8,8.mid,experiment,0
35,86,20360,77,64,0,2,12,8,8.mid,experiment,0
36,88,20658,76,64,0,2,12,8,8.mid,experiment,0
37,90,20942,76,64,0,2,12,8,8.mid,experiment,0
38,92,21218,76,64,0,2,12,8,8.mid,experiment,0
39,94,21498,76,64,0,2,12,8,8.mid,experiment,0
40,97,22106,81,64,0,2,12,8,8.mid,experiment,0
41,99,22356,77,64,0,2,12,8,8.mid,experiment,0
42,100,22614,76,64,0,2,12,8,8.mid,experiment,0
43,103,22930,74,64,0,2,12,8,8.mid,experiment,0
44,104,23204,76,64,0,2,12,8,8.mid,experiment,0
45,107,23512,79,64,0,2,12,8,8.mid,experiment,0
46,108,23740,74,64,0,2,12,8,8.mid,experiment,0
47,110,23920,71,64,0,2,12,8,8.mid,experiment,0
48,112,24104,72,64,0,2,12,8,8.mid,experiment,0
49,114,24408,72,64,0,2,12,8,8.mid,experiment,0
50,116,24695,74,64,0,2,12,8,8.mid,experiment,0
51,118,24976,74,64,0,2,12,8,8.mid,experiment,0
52,120,25965,76,64,0,2,12,8,8.mid,experiment,0
53,122,26559,65,64,0,2,12,8,8.mid,experiment,0
54,124,26858,65,64,0,2,12,8,8.mid,experiment,0
55,126,27158,64,64,0,2,12,8,8.mid,experiment,0
56,128,27444,64,64,0,2,12,8,8.mid,experiment,0
57,130,28386,62,64,0,2,12,8,8.mid,experiment,0
58,132,28974,67,64,0,2,12,8,8.mid,experiment,0
59,134,29248,67,64,0,2,12,8,8.mid,experiment,0
60,136,29531,71,64,0,2,12,8,8.mid,experiment,0
61,138,29804,71,64,0,2,12,8,8.mid,experiment,0
62,140,30092,72,64,0,2,12,8,8.mid,experiment,0
63,142,30377,72,64,0,2,12,8,8.mid,experiment,0
64,144,30718,73,64,0,2,12,8,8.mid,experiment,0
65,146,30991,73,64,0,2,12,8,8.mid,experiment,0
66,148,31526,74,64,0,2,12,8,8.mid,experiment,0
67,150,32189,77,64,0,2,12,8,8.mid,experiment,0
68,152,32750,76,64,0,2,12,8,8.mid,experiment,0
69,154,33368,74,64,0,2,12,8,8.mid,experiment,0
70,156,33890,72,64,0,2,12,8,8.mid,experiment,0
71,158,34468,84,64,0,2,12,8,8.mid,experiment,0
72,160,35438,84,64,0,2,12,8,8.mid,experiment,0
1,19,8278,79,64,0,2,12,9,15.mid,experiment,0
2,21,8548,78,64,0,2,12,9,15.mid,experiment,0
3,23,8876,79,64,0,2,12,9,15.mid,experiment,0
4,25,9125,76,64,0,2,12,9,15.mid,experiment,0
5,26,9301,72,64,0,2,12,9,15.mid,experiment,0
6,28,9413,67,64,0,2,12,9,15.mid,experiment,0
7,30,9692,67,64,0,2,12,9,15.mid,experiment,0
8,32,9954,67,64,0,2,12,9,15.mid,experiment,0
9,35,10582,79,64,0,2,12,9,15.mid,experiment,0
10,37,10843,78,64,0,2,12,9,15.mid,experiment,0
11,39,11283,79,64,0,2,12,9,15.mid,experiment,0
12,41,11431,76,64,0,2,12,9,15.mid,experiment,0
13,43,11724,72,64,0,2,12,9,15.mid,experiment,0
14,45,12026,76,64,0,2,12,9,15.mid,experiment,0
15,47,12211,79,64,0,2,12,9,15.mid,experiment,0
16,49,12541,84,64,0,2,12,9,15.mid,experiment,0
17,50,12734,83,64,0,2,12,9,15.mid,experiment,0
18,52,12798,81,64,0,2,12,9,15.mid,experiment,0
19,54,13057,81,64,0,2,12,9,15.mid,experiment,0
20,56,13333,81,64,0,2,12,9,15.mid,experiment,0
21,59,13933,83,64,0,2,12,9,15.mid,experiment,0
22,61,14194,81,64,0,2,12,9,15.mid,experiment,0
23,63,14470,84,64,0,2,12,9,15.mid,experiment,0
24,65,14736,81,64,0,2,12,9,15.mid,experiment,0
25,67,15055,78,64,0,2,12,9,15.mid,experiment,0
26,68,15171,79,64,0,2,12,9,15.mid,experiment,0
27,70,15670,79,64,0,2,12,9,15.mid,experiment,0
28,72,16602,79,64,0,2,12,9,15.mid,experiment,0
29,74,17180,77,64,0,2,12,9,15.mid,experiment,0
30,76,17441,77,64,0,2,12,9,15.mid,experiment,0
31,78,17741,76,64,0,2,12,9,15.mid,experiment,0
32,80,18000,76,64,0,2,12,9,15.mid,experiment,0
33,82,18826,74,64,0,2,12,9,15.mid,experiment,0
34,84,19906,79,64,0,2,12,9,15.mid,experiment,0
35,86,20442,77,64,0,2,12,9,15.mid,experiment,0
36,88,20730,76,64,0,2,12,9,15.mid,experiment,0
37,90,21006,76,64,0,2,12,9,15.mid,experiment,0
38,92,21274,76,64,0,2,12,9,15.mid,experiment,0
39,94,21531,76,64,0,2,12,9,15.mid,experiment,0
40,97,22182,81,64,0,2,12,9,15.mid,experiment,0
41,99,22387,77,64,0,2,12,9,15.mid,experiment,0
42,101,22623,76,64,0,2,12,9,15.mid,experiment,0
43,103,22962,74,64,0,2,12,9,15.mid,experiment,0
44,105,23211,76,64,0,2,12,9,15.mid,experiment,0
45,107,23472,79,64,0,2,12,9,15.mid,experiment,0
46,108,23685,74,64,0,2,12,9,15.mid,experiment,0
47,110,23798,71,64,0,2,12,9,15.mid,experiment,0
48,112,24020,72,64,0,2,12,9,15.mid,experiment,0
49,114,24290,72,64,0,2,12,9,15.mid,experiment,0
50,116,24548,74,64,0,2,12,9,15.mid,experiment,0
51,118,24824,74,64,0,2,12,9,15.mid,experiment,0
52,120,25739,76,64,0,2,12,9,15.mid,experiment,0
53,122,26407,65,64,0,2,12,9,15.mid,experiment,0
54,124,26714,65,64,0,2,12,9,15.mid,experiment,0
55,126,26963,64,64,0,2,12,9,15.mid,experiment,0
56,128,27239,64,64,0,2,12,9,15.mid,experiment,0
57,130,28117,62,64,0,2,12,9,15.mid,experiment,0
58,132,28721,67,64,0,2,12,9,15.mid,experiment,0
59,134,29016,67,64,0,2,12,9,15.mid,experiment,0
60,136,29288,71,64,0,2,12,9,15.mid,experiment,0
61,138,29551,71,64,0,2,12,9,15.mid,experiment,0
62,140,29846,72,64,0,2,12,9,15.mid,experiment,0
63,142,30127,72,64,0,2,12,9,15.mid,experiment,0
64,144,30398,73,64,0,2,12,9,15.mid,experiment,0
65,146,30671,73,64,0,2,12,9,15.mid,experiment,0
66,148,31321,74,64,0,2,12,9,15.mid,experiment,0
67,150,31968,77,64,0,2,12,9,15.mid,experiment,0
68,152,32567,76,64,0,2,12,9,15.mid,experiment,0
69,154,33148,74,64,0,2,12,9,15.mid,experiment,0
70,156,33653,72,64,0,2,12,9,15.mid,experiment,0
71,158,34125,84,64,0,2,12,9,15.mid,experiment,0
72,160,35020,84,64,0,2,12,9,15.mid,experiment,0
1,19,8154,79,64,0,2,12,10,2.mid,experiment,0
2,21,8414,78,64,0,2,12,10,2.mid,experiment,0
3,23,8724,79,64,0,2,12,10,2.mid,experiment,0
4,25,8972,76,64,0,2,12,10,2.mid,experiment,0
5,26,9149,72,64,0,2,12,10,2.mid,experiment,0
6,28,9278,67,64,0,2,12,10,2.mid,experiment,0
7,30,9580,67,64,0,2,12,10,2.mid,experiment,0
8,32,9842,67,64,0,2,12,10,2.mid,experiment,0
9,35,10403,79,64,0,2,12,10,2.mid,experiment,0
10,37,10660,78,64,0,2,12,10,2.mid,experiment,0
11,39,10990,79,64,0,2,12,10,2.mid,experiment,0
12,41,11236,76,64,0,2,12,10,2.mid,experiment,0
13,43,11528,72,64,0,2,12,10,2.mid,experiment,0
14,45,11787,76,64,0,2,12,10,2.mid,experiment,0
15,47,12020,79,64,0,2,12,10,2.mid,experiment,0
16,49,12372,84,64,0,2,12,10,2.mid,experiment,0
17,50,12658,83,64,0,2,12,10,2.mid,experiment,0
18,52,12740,81,64,0,2,12,10,2.mid,experiment,0
19,54,13024,81,64,0,2,12,10,2.mid,experiment,0
20,56,13310,81,64,0,2,12,10,2.mid,experiment,0
21,59,13890,83,64,0,2,12,10,2.mid,experiment,0
22,61,14150,81,64,0,2,12,10,2.mid,experiment,0
23,63,14412,84,64,0,2,12,10,2.mid,experiment,0
24,65,14688,81,64,0,2,12,10,2.mid,experiment,0
25,67,14976,78,64,0,2,12,10,2.mid,experiment,0
26,68,15110,79,64,0,2,12,10,2.mid,experiment,0
27,70,15511,79,64,0,2,12,10,2.mid,experiment,0
28,72,16503,79,64,0,2,12,10,2.mid,experiment,0
29,74,17069,77,64,0,2,12,10,2.mid,experiment,0
30,76,17324,77,64,0,2,12,10,2.mid,experiment,0
31,78,17605,76,64,0,2,12,10,2.mid,experiment,0
32,80,17858,76,64,0,2,12,10,2.mid,experiment,0
33,82,18660,74,64,0,2,12,10,2.mid,experiment,0
34,84,19558,79,64,0,2,12,10,2.mid,experiment,0
35,86,20093,77,64,0,2,12,10,2.mid,experiment,0
36,88,20354,76,64,0,2,12,10,2.mid,experiment,0
37,90,20636,76,64,0,2,12,10,2.mid,experiment,0
38,92,20889,76,64,0,2,12,10,2.mid,experiment,0
39,94,21144,76,64,0,2,12,10,2.mid,experiment,0
40,97,21884,81,64,0,2,12,10,2.mid,experiment,0
41,99,22014,77,64,0,2,12,10,2.mid,experiment,0
42,101,22218,76,64,0,2,12,10,2.mid,experiment,0
43,103,22559,74,64,0,2,12,10,2.mid,experiment,0
44,105,22810,76,64,0,2,12,10,2.mid,experiment,0
45,107,23056,79,64,0,2,12,10,2.mid,experiment,0
46,109,23265,74,64,0,2,12,10,2.mid,experiment,0
47,110,23498,71,64,0,2,12,10,2.mid,experiment,0
48,112,23548,72,64,0,2,12,10,2.mid,experiment,0
49,114,23821,72,64,0,2,12,10,2.mid,experiment,0
50,116,24078,74,64,0,2,12,10,2.mid,experiment,0
51,118,24342,74,64,0,2,12,10,2.mid,experiment,0
52,120,25160,76,64,0,2,12,10,2.mid,experiment,0
53,122,25728,65,64,0,2,12,10,2.mid,experiment,0
54,124,26010,65,64,0,2,12,10,2.mid,experiment,0
55,126,26238,64,64,0,2,12,10,2.mid,experiment,0
56,128,26524,64,64,0,2,12,10,2.mid,experiment,0
57,130,27304,62,64,0,2,12,10,2.mid,experiment,0
58,132,27830,67,64,0,2,12,10,2.mid,experiment,0
59,134,28092,67,64,0,2,12,10,2.mid,experiment,0
60,136,28355,71,64,0,2,12,10,2.mid,experiment,0
61,138,28612,71,64,0,2,12,10,2.mid,experiment,0
62,140,28877,72,64,0,2,12,10,2.mid,experiment,0
63,142,29134,72,64,0,2,12,10,2.mid,experiment,0
64,144,29411,73,64,0,2,12,10,2.mid,experiment,0
65,146,29688,73,64,0,2,12,10,2.mid,experiment,0
66,148,30289,74,64,0,2,12,10,2.mid,experiment,0
67,150,30930,77,64,0,2,12,10,2.mid,experiment,0
68,152,31436,76,64,0,2,12,10,2.mid,experiment,0
69,154,32028,74,64,0,2,12,10,2.mid,experiment,0
70,156,32546,72,64,0,2,12,10,2.mid,experiment,0
71,158,33107,84,64,0,2,12,10,2.mid,experiment,0
72,160,33885,84,64,0,2,12,10,2.mid,experiment,0
1,19,8236,79,64,0,2,12,11,6.mid,experiment,0
2,21,8531,78,64,0,2,12,11,6.mid,experiment,0
3,23,8854,79,64,0,2,12,11,6.mid,experiment,0
4,25,9143,76,64,0,2,12,11,6.mid,experiment,0
5,26,9281,72,64,0,2,12,11,6.mid,experiment,0
6,28,9498,67,64,0,2,12,11,6.mid,experiment,0
7,30,9784,67,64,0,2,12,11,6.mid,experiment,0
8,32,10131,67,64,0,2,12,11,6.mid,experiment,0
9,35,10709,79,64,0,2,12,11,6.mid,experiment,0
10,37,11038,78,64,0,2,12,11,6.mid,experiment,0
11,39,11331,79,64,0,2,12,11,6.mid,experiment,0
12,41,11590,76,64,0,2,12,11,6.mid,experiment,0
13,43,11941,72,64,0,2,12,11,6.mid,experiment,0
14,45,12222,76,64,0,2,12,11,6.mid,experiment,0
15,47,12475,79,64,0,2,12,11,6.mid,experiment,0
16,49,12853,84,64,0,2,12,11,6.mid,experiment,0
17,50,12978,83,64,0,2,12,11,6.mid,experiment,0
18,52,13152,81,64,0,2,12,11,6.mid,experiment,0
19,54,13451,81,64,0,2,12,11,6.mid,experiment,0
20,56,13734,81,64,0,2,12,11,6.mid,experiment,0
21,59,14274,83,64,0,2,12,11,6.mid,experiment,0
22,61,14573,81,64,0,2,12,11,6.mid,experiment,0
23,63,14876,84,64,0,2,12,11,6.mid,experiment,0
24,65,15141,81,64,0,2,12,11,6.mid,experiment,0
25,67,15509,78,64,0,2,12,11,6.mid,experiment,0
26,68,15603,79,64,0,2,12,11,6.mid,experiment,0
27,70,16104,79,64,0,2,12,11,6.mid,experiment,0
28,72,17167,79,64,0,2,12,11,6.mid,experiment,0
29,74,17695,77,64,0,2,12,11,6.mid,experiment,0
30,76,17991,77,64,0,2,12,11,6.mid,experiment,0
31,78,18289,76,64,0,2,12,11,6.mid,experiment,0
32,80,18623,76,64,0,2,12,11,6.mid,experiment,0
33,82,19612,74,64,0,2,12,11,6.mid,experiment,0
34,84,20560,79,64,0,2,12,11,6.mid,experiment,0
35,86,21191,77,64,0,2,12,11,6.mid,experiment,0
36,88,21431,76,64,0,2,12,11,6.mid,experiment,0
37,90,21721,76,64,0,2,12,11,6.mid,experiment,0
38,92,22014,76,64,0,2,12,11,6.mid,experiment,0
39,94,22318,76,64,0,2,12,11,6.mid,experiment,0
40,97,22969,81,64,0,2,12,11,6.mid,experiment,0
41,99,23209,77,64,0,2,12,11,6.mid,experiment,0
42,101,23465,76,64,0,2,12,11,6.mid,experiment,0
43,103,23805,74,64,0,2,12,11,6.mid,experiment,0
44,105,24074,76,64,0,2,12,11,6.mid,experiment,0
45,107,24374,79,64,0,2,12,11,6.mid,experiment,0
46,108,24593,74,64,0,2,12,11,6.mid,experiment,0
47,111,24887,71,64,0,2,12,11,6.mid,experiment,0
48,112,24918,72,64,0,2,12,11,6.mid,experiment,0
49,114,25178,72,64,0,2,12,11,6.mid,experiment,0
50,116,25464,74,64,0,2,12,11,6.mid,experiment,0
51,118,25748,74,64,0,2,12,11,6.mid,experiment,0
52,120,26619,76,64,0,2,12,11,6.mid,experiment,0
53,122,27183,65,64,0,2,12,11,6.mid,experiment,0
54,124,27485,65,64,0,2,12,11,6.mid,experiment,0
55,126,27762,64,64,0,2,12,11,6.mid,experiment,0
56,128,28046,64,64,0,2,12,11,6.mid,experiment,0
57,130,28964,62,64,0,2,12,11,6.mid,experiment,0
58,132,29437,67,64,0,2,12,11,6.mid,experiment,0
59,134,29744,67,64,0,2,12,11,6.mid,experiment,0
60,136,30013,71,64,0,2,12,11,6.mid,experiment,0
61,138,30291,71,64,0,2,12,11,6.mid,experiment,0
62,140,30581,72,64,0,2,12,11,6.mid,experiment,0
63,142,30862,72,64,0,2,12,11,6.mid,experiment,0
64,144,31133,73,64,0,2,12,11,6.mid,experiment,0
65,146,31424,73,64,0,2,12,11,6.mid,experiment,0
66,148,32030,74,64,0,2,12,11,6.mid,experiment,0
67,150,32766,77,64,0,2,12,11,6.mid,experiment,0
68,152,33341,76,64,0,2,12,11,6.mid,experiment,0
69,154,33871,74,64,0,2,12,11,6.mid,experiment,0
70,156,34430,72,64,0,2,12,11,6.mid,experiment,0
71,158,35017,84,64,0,2,12,11,6.mid,experiment,0
72,160,35917,84,64,0,2,12,11,6.mid,experiment,0
1,19,8240,79,64,0,2,12,12,3.mid,experiment,0
2,21,8520,78,64,0,2,12,12,3.mid,experiment,0
3,23,8822,79,64,0,2,12,12,3.mid,experiment,0
4,25,9110,76,64,0,2,12,12,3.mid,experiment,0
5,26,9168,72,64,0,2,12,12,3.mid,experiment,0
6,28,9434,67,64,0,2,12,12,3.mid,experiment,0
7,30,9724,67,64,0,2,12,12,3.mid,experiment,0
8,32,10014,67,64,0,2,12,12,3.mid,experiment,0
9,35,10610,79,64,0,2,12,12,3.mid,experiment,0
10,37,10895,78,64,0,2,12,12,3.mid,experiment,0
11,39,11171,79,64,0,2,12,12,3.mid,experiment,0
12,41,11421,76,64,0,2,12,12,3.mid,experiment,0
13,43,11744,72,64,0,2,12,12,3.mid,experiment,0
14,45,12018,76,64,0,2,12,12,3.mid,experiment,0
15,47,12271,79,64,0,2,12,12,3.mid,experiment,0
16,49,12628,84,64,0,2,12,12,3.mid,experiment,0
17,50,12740,83,64,0,2,12,12,3.mid,experiment,0
18,52,12942,81,64,0,2,12,12,3.mid,experiment,0
19,54,13230,81,64,0,2,12,12,3.mid,experiment,0
20,56,13500,81,64,0,2,12,12,3.mid,experiment,0
21,59,14092,83,64,0,2,12,12,3.mid,experiment,0
22,61,14354,81,64,0,2,12,12,3.mid,experiment,0
23,63,14635,84,64,0,2,12,12,3.mid,experiment,0
24,65,14897,81,64,0,2,12,12,3.mid,experiment,0
25,67,15214,78,64,0,2,12,12,3.mid,experiment,0
26,68,15348,79,64,0,2,12,12,3.mid,experiment,0
27,70,15794,79,64,0,2,12,12,3.mid,experiment,0
28,72,16760,79,64,0,2,12,12,3.mid,experiment,0
29,74,17348,77,64,0,2,12,12,3.mid,experiment,0
30,76,17630,77,64,0,2,12,12,3.mid,experiment,0
31,78,17922,76,64,0,2,12,12,3.mid,experiment,0
32,80,18213,76,64,0,2,12,12,3.mid,experiment,0
33,82,18660,74,64,0,2,12,12,3.mid,experiment,0
34,84,20082,79,64,0,2,12,12,3.mid,experiment,0
35,86,20666,77,64,0,2,12,12,3.mid,experiment,0
36,88,20935,76,64,0,2,12,12,3.mid,experiment,0
37,90,21208,76,64,0,2,12,12,3.mid,experiment,0
38,92,21467,76,64,0,2,12,12,3.mid,experiment,0
39,94,21786,76,64,0,2,12,12,3.mid,experiment,0
40,97,22386,81,64,0,2,12,12,3.mid,experiment,0
41,99,22550,77,64,0,2,12,12,3.mid,experiment,0
42,101,22820,76,64,0,2,12,12,3.mid,experiment,0
43,103,23128,74,64,0,2,12,12,3.mid,experiment,0
44,105,23376,76,64,0,2,12,12,3.mid,experiment,0
45,107,23656,79,64,0,2,12,12,3.mid,experiment,0
46,109,23869,74,64,0,2,12,12,3.mid,experiment,0
47,110,24100,71,64,0,2,12,12,3.mid,experiment,0
48,112,24152,72,64,0,2,12,12,3.mid,experiment,0
49,114,24411,72,64,0,2,12,12,3.mid,experiment,0
50,116,24672,74,64,0,2,12,12,3.mid,experiment,0
51,118,24944,74,64,0,2,12,12,3.mid,experiment,0
52,120,25833,76,64,0,2,12,12,3.mid,experiment,0
53,122,26444,65,64,0,2,12,12,3.mid,experiment,0
54,124,26750,65,64,0,2,12,12,3.mid,experiment,0
55,126,27015,64,64,0,2,12,12,3.mid,experiment,0
56,128,27282,64,64,0,2,12,12,3.mid,experiment,0
57,130,27866,62,64,0,2,12,12,3.mid,experiment,0
58,132,28672,67,64,0,2,12,12,3.mid,experiment,0
59,134,28934,67,64,0,2,12,12,3.mid,experiment,0
60,136,29194,71,64,0,2,12,12,3.mid,experiment,0
61,138,29462,71,64,0,2,12,12,3.mid,experiment,0
62,140,29774,72,64,0,2,12,12,3.mid,experiment,0
63,142,30018,72,64,0,2,12,12,3.mid,experiment,0
64,144,30284,73,64,0,2,12,12,3.mid,experiment,0
65,146,30563,73,64,0,2,12,12,3.mid,experiment,0
66,148,31110,74,64,0,2,12,12,3.mid,experiment,0
67,150,31730,77,64,0,2,12,12,3.mid,experiment,0
68,152,32278,76,64,0,2,12,12,3.mid,experiment,0
69,154,32882,74,64,0,2,12,12,3.mid,experiment,0
70,156,33426,72,64,0,2,12,12,3.mid,experiment,0
71,158,33921,84,64,0,2,12,12,3.mid,experiment,0
72,160,34618,84,64,0,2,12,12,3.mid,experiment,0
1,19,8209,79,64,0,2,12,14,1.mid,experiment,0
2,21,8484,78,64,0,2,12,14,1.mid,experiment,0
3,23,8790,79,64,0,2,12,14,1.mid,experiment,0
4,25,9073,76,64,0,2,12,14,1.mid,experiment,0
5,26,9195,72,64,0,2,12,14,1.mid,experiment,0
6,28,9562,67,64,0,2,12,14,1.mid,experiment,0
7,30,9870,67,64,0,2,12,14,1.mid,experiment,0
8,32,10148,67,64,0,2,12,14,1.mid,experiment,0
9,35,10719,79,64,0,2,12,14,1.mid,experiment,0
10,37,10983,78,64,0,2,12,14,1.mid,experiment,0
11,39,11273,79,64,0,2,12,14,1.mid,experiment,0
12,41,11531,76,64,0,2,12,14,1.mid,experiment,0
13,43,11841,72,64,0,2,12,14,1.mid,experiment,0
14,45,12109,76,64,0,2,12,14,1.mid,experiment,0
15,47,12330,79,64,0,2,12,14,1.mid,experiment,0
16,49,12681,84,64,0,2,12,14,1.mid,experiment,0
17,50,12833,83,64,0,2,12,14,1.mid,experiment,0
18,52,13077,81,64,0,2,12,14,1.mid,experiment,0
19,54,13393,81,64,0,2,12,14,1.mid,experiment,0
20,56,13653,81,64,0,2,12,14,1.mid,experiment,0
21,59,14205,83,64,0,2,12,14,1.mid,experiment,0
22,61,14458,81,64,0,2,12,14,1.mid,experiment,0
23,63,14759,84,64,0,2,12,14,1.mid,experiment,0
24,65,14989,81,64,0,2,12,14,1.mid,experiment,0
25,67,15303,78,64,0,2,12,14,1.mid,experiment,0
26,68,15428,79,64,0,2,12,14,1.mid,experiment,0
27,70,15777,79,64,0,2,12,14,1.mid,experiment,0
28,72,16805,79,64,0,2,12,14,1.mid,experiment,0
29,74,17381,77,64,0,2,12,14,1.mid,experiment,0
30,76,17622,77,64,0,2,12,14,1.mid,experiment,0
31,78,17907,76,64,0,2,12,14,1.mid,experiment,0
32,80,18250,76,64,0,2,12,14,1.mid,experiment,0
33,82,19377,74,64,0,2,12,14,1.mid,experiment,0
34,84,20311,79,64,0,2,12,14,1.mid,experiment,0
35,86,20818,77,64,0,2,12,14,1.mid,experiment,0
36,88,21173,76,64,0,2,12,14,1.mid,experiment,0
37,90,21441,76,64,0,2,12,14,1.mid,experiment,0
38,92,21711,76,64,0,2,12,14,1.mid,experiment,0
39,94,21977,76,64,0,2,12,14,1.mid,experiment,0
40,97,22613,81,64,0,2,12,14,1.mid,experiment,0
41,99,22845,77,64,0,2,12,14,1.mid,experiment,0
42,101,23087,76,64,0,2,12,14,1.mid,experiment,0
43,103,23405,74,64,0,2,12,14,1.mid,experiment,0
44,105,23659,76,64,0,2,12,14,1.mid,experiment,0
45,107,23919,79,64,0,2,12,14,1.mid,experiment,0
46,109,24139,74,64,0,2,12,14,1.mid,experiment,0
47,110,24401,71,64,0,2,12,14,1.mid,experiment,0
48,112,24451,72,64,0,2,12,14,1.mid,experiment,0
49,114,24715,72,64,0,2,12,14,1.mid,experiment,0
50,116,24992,74,64,0,2,12,14,1.mid,experiment,0
51,118,25293,74,64,0,2,12,14,1.mid,experiment,0
52,120,26485,76,64,0,2,12,14,1.mid,experiment,0
53,122,27153,65,64,0,2,12,14,1.mid,experiment,0
54,124,27409,65,64,0,2,12,14,1.mid,experiment,0
55,126,27713,64,64,0,2,12,14,1.mid,experiment,0
56,128,28018,64,64,0,2,12,14,1.mid,experiment,0
57,130,29078,62,64,0,2,12,14,1.mid,experiment,0
58,132,29707,67,64,0,2,12,14,1.mid,experiment,0
59,134,30001,67,64,0,2,12,14,1.mid,experiment,0
60,136,30235,71,64,0,2,12,14,1.mid,experiment,0
61,138,30517,71,64,0,2,12,14,1.mid,experiment,0
62,140,30781,72,64,0,2,12,14,1.mid,experiment,0
63,142,31054,72,64,0,2,12,14,1.mid,experiment,0
64,144,31339,73,64,0,2,12,14,1.mid,experiment,0
65,146,31603,73,64,0,2,12,14,1.mid,experiment,0
66,148,32223,74,64,0,2,12,14,1.mid,experiment,0
67,150,32839,77,64,0,2,12,14,1.mid,experiment,0
68,152,33419,76,64,0,2,12,14,1.mid,experiment,0
69,154,34035,74,64,0,2,12,14,1.mid,experiment,0
70,156,34535,72,64,0,2,12,14,1.mid,experiment,0
71,158,35167,84,64,0,2,12,14,1.mid,experiment,0
72,160,36035,84,64,0,2,12,14,1.mid,experiment,0
1,19,8198,79,64,0,2,12,16,9.mid,experiment,0
2,21,8419,78,64,0,2,12,16,9.mid,experiment,0
3,23,8711,79,64,0,2,12,16,9.mid,experiment,0
4,25,8947,76,64,0,2,12,16,9.mid,experiment,0
5,26,9115,72,64,0,2,12,16,9.mid,experiment,0
6,28,9194,67,64,0,2,12,16,9.mid,experiment,0
7,30,9448,67,64,0,2,12,16,9.mid,experiment,0
8,32,9678,67,64,0,2,12,16,9.mid,experiment,0
9,35,10219,79,64,0,2,12,16,9.mid,experiment,0
10,37,10429,78,64,0,2,12,16,9.mid,experiment,0
11,39,10728,79,64,0,2,12,16,9.mid,experiment,0
12,41,10881,76,64,0,2,12,16,9.mid,experiment,0
13,43,11152,72,64,0,2,12,16,9.mid,experiment,0
14,45,11403,76,64,0,2,12,16,9.mid,experiment,0
15,47,11582,79,64,0,2,12,16,9.mid,experiment,0
16,49,11882,84,64,0,2,12,16,9.mid,experiment,0
17,50,12030,83,64,0,2,12,16,9.mid,experiment,0
18,52,12092,81,64,0,2,12,16,9.mid,experiment,0
19,54,12325,81,64,0,2,12,16,9.mid,experiment,0
20,56,12567,81,64,0,2,12,16,9.mid,experiment,0
21,59,13046,83,64,0,2,12,16,9.mid,experiment,0
22,61,13276,81,64,0,2,12,16,9.mid,experiment,0
23,63,13528,84,64,0,2,12,16,9.mid,experiment,0
24,65,13750,81,64,0,2,12,16,9.mid,experiment,0
25,67,14018,78,64,0,2,12,16,9.mid,experiment,0
26,68,14097,79,64,0,2,12,16,9.mid,experiment,0
27,70,14490,79,64,0,2,12,16,9.mid,experiment,0
28,72,15322,79,64,0,2,12,16,9.mid,experiment,0
29,74,15820,77,64,0,2,12,16,9.mid,experiment,0
30,76,16050,77,64,0,2,12,16,9.mid,experiment,0
31,78,16259,76,64,0,2,12,16,9.mid,experiment,0
32,80,16518,76,64,0,2,12,16,9.mid,experiment,0
33,82,17168,74,64,0,2,12,16,9.mid,experiment,0
34,84,18106,79,64,0,2,12,16,9.mid,experiment,0
35,86,18551,77,64,0,2,12,16,9.mid,experiment,0
36,88,18781,76,64,0,2,12,16,9.mid,experiment,0
37,90,19012,76,64,0,2,12,16,9.mid,experiment,0
38,92,19239,76,64,0,2,12,16,9.mid,experiment,0
39,94,19500,76,64,0,2,12,16,9.mid,experiment,0
40,97,20034,81,64,0,2,12,16,9.mid,experiment,0
41,99,20235,77,64,0,2,12,16,9.mid,experiment,0
42,101,20419,76,64,0,2,12,16,9.mid,experiment,0
43,103,20674,74,64,0,2,12,16,9.mid,experiment,0
44,105,20885,76,64,0,2,12,16,9.mid,experiment,0
45,107,21145,79,64,0,2,12,16,9.mid,experiment,0
46,109,21313,74,64,0,2,12,16,9.mid,experiment,0
47,110,21497,71,64,0,2,12,16,9.mid,experiment,0
48,112,21583,72,64,0,2,12,16,9.mid,experiment,0
49,114,21814,72,64,0,2,12,16,9.mid,experiment,0
50,116,22063,74,64,0,2,12,16,9.mid,experiment,0
51,118,22292,74,64,0,2,12,16,9.mid,experiment,0
52,120,23130,76,64,0,2,12,16,9.mid,experiment,0
53,122,23568,65,64,0,2,12,16,9.mid,experiment,0
54,124,23807,65,64,0,2,12,16,9.mid,experiment,0
55,126,24036,64,64,0,2,12,16,9.mid,experiment,0
56,128,24278,64,64,0,2,12,16,9.mid,experiment,0
57,130,25059,62,64,0,2,12,16,9.mid,experiment,0
58,132,25511,67,64,0,2,12,16,9.mid,experiment,0
59,134,25754,67,64,0,2,12,16,9.mid,experiment,0
60,136,25976,71,64,0,2,12,16,9.mid,experiment,0
61,138,26206,71,64,0,2,12,16,9.mid,experiment,0
62,140,26444,72,64,0,2,12,16,9.mid,experiment,0
63,142,26684,72,64,0,2,12,16,9.mid,experiment,0
64,144,26956,73,64,0,2,12,16,9.mid,experiment,0
65,146,27211,73,64,0,2,12,16,9.mid,experiment,0
66,148,27713,74,64,0,2,12,16,9.mid,experiment,0
67,150,28274,77,64,0,2,12,16,9.mid,experiment,0
68,152,28796,76,64,0,2,12,16,9.mid,experiment,0
69,154,29361,74,64,0,2,12,16,9.mid,experiment,0
70,156,29882,72,64,0,2,12,16,9.mid,experiment,0
71,158,30289,84,64,0,2,12,16,9.mid,experiment,0
72,160,31230,84,64,0,2,12,16,9.mid,experiment,0
1,19,8281,79,64,0,2,13,2,7.mid,experiment,0
2,21,8613,78,64,0,2,13,2,7.mid,experiment,0
3,23,8853,79,64,0,2,13,2,7.mid,experiment,0
4,25,9108,76,64,0,2,13,2,7.mid,experiment,0
5,26,9147,72,64,0,2,13,2,7.mid,experiment,0
6,28,9393,67,64,0,2,13,2,7.mid,experiment,0
7,30,9642,67,64,0,2,13,2,7.mid,experiment,0
8,32,9898,67,64,0,2,13,2,7.mid,experiment,0
9,35,10521,79,64,0,2,13,2,7.mid,experiment,0
10,37,10776,78,64,0,2,13,2,7.mid,experiment,0
11,39,11012,79,64,0,2,13,2,7.mid,experiment,0
12,41,11303,76,64,0,2,13,2,7.mid,experiment,0
13,43,11595,72,64,0,2,13,2,7.mid,experiment,0
14,45,11875,76,64,0,2,13,2,7.mid,experiment,0
15,47,12058,79,64,0,2,13,2,7.mid,experiment,0
16,49,12338,84,64,0,2,13,2,7.mid,experiment,0
17,50,12398,83,64,0,2,13,2,7.mid,experiment,0
18,52,12600,81,64,0,2,13,2,7.mid,experiment,0
19,54,12876,81,64,0,2,13,2,7.mid,experiment,0
20,56,13129,81,64,0,2,13,2,7.mid,experiment,0
21,59,13650,83,64,0,2,13,2,7.mid,experiment,0
22,61,13913,81,64,0,2,13,2,7.mid,experiment,0
23,63,14173,84,64,0,2,13,2,7.mid,experiment,0
24,64,14226,81,64,0,2,13,2,7.mid,experiment,0
25,67,14665,78,64,0,2,13,2,7.mid,experiment,0
26,68,14725,79,64,0,2,13,2,7.mid,experiment,0
27,70,15149,79,64,0,2,13,2,7.mid,experiment,0
28,72,15789,79,64,0,2,13,2,7.mid,experiment,0
29,74,16776,77,64,0,2,13,2,7.mid,experiment,0
30,76,17043,77,64,0,2,13,2,7.mid,experiment,0
31,78,17341,76,64,0,2,13,2,7.mid,experiment,0
32,80,17602,76,64,0,2,13,2,7.mid,experiment,0
33,82,18123,74,64,0,2,13,2,7.mid,experiment,0
34,84,19143,79,64,0,2,13,2,7.mid,experiment,0
35,86,19742,77,64,0,2,13,2,7.mid,experiment,0
36,88,20183,76,64,0,2,13,2,7.mid,experiment,0
37,90,20436,76,64,0,2,13,2,7.mid,experiment,0
38,92,20688,76,64,0,2,13,2,7.mid,experiment,0
39,94,20931,76,64,0,2,13,2,7.mid,experiment,0
40,97,21541,81,64,0,2,13,2,7.mid,experiment,0
41,99,21749,77,64,0,2,13,2,7.mid,experiment,0
42,101,21990,76,64,0,2,13,2,7.mid,experiment,0
43,103,22275,74,64,0,2,13,2,7.mid,experiment,0
44,105,22487,76,64,0,2,13,2,7.mid,experiment,0
45,107,22779,79,64,0,2,13,2,7.mid,experiment,0
46,108,22940,74,64,0,2,13,2,7.mid,experiment,0
47,110,23010,71,64,0,2,13,2,7.mid,experiment,0
48,112,23253,72,64,0,2,13,2,7.mid,experiment,0
49,114,23519,72,64,0,2,13,2,7.mid,experiment,0
50,116,23753,74,64,0,2,13,2,7.mid,experiment,0
51,118,24022,74,64,0,2,13,2,7.mid,experiment,0
52,120,24603,76,64,0,2,13,2,7.mid,experiment,0
53,122,25433,65,64,0,2,13,2,7.mid,experiment,0
54,124,25683,65,64,0,2,13,2,7.mid,experiment,0
55,126,25945,64,64,0,2,13,2,7.mid,experiment,0
56,128,26224,64,64,0,2,13,2,7.mid,experiment,0
57,130,26838,62,64,0,2,13,2,7.mid,experiment,0
58,132,27661,67,64,0,2,13,2,7.mid,experiment,0
59,134,27917,67,64,0,2,13,2,7.mid,experiment,0
60,136,28191,71,64,0,2,13,2,7.mid,experiment,0
61,138,28452,71,64,0,2,13,2,7.mid,experiment,0
62,140,28687,72,64,0,2,13,2,7.mid,experiment,0
63,142,28966,72,64,0,2,13,2,7.mid,experiment,0
64,144,29180,73,64,0,2,13,2,7.mid,experiment,0
65,146,29444,73,64,0,2,13,2,7.mid,experiment,0
66,148,30044,74,64,0,2,13,2,7.mid,experiment,0
67,150,30561,77,64,0,2,13,2,7.mid,experiment,0
68,152,31096,76,64,0,2,13,2,7.mid,experiment,0
69,154,31534,74,64,0,2,13,2,7.mid,experiment,0
70,156,32029,72,64,0,2,13,2,7.mid,experiment,0
71,158,32565,84,64,0,2,13,2,7.mid,experiment,0
72,160,33141,84,64,0,2,13,2,7.mid,experiment,0
1,19,8238,79,64,0,2,13,3,13.mid,experiment,0
2,21,8548,78,64,0,2,13,3,13.mid,experiment,0
3,23,8798,79,64,0,2,13,3,13.mid,experiment,0
4,25,9066,76,64,0,2,13,3,13.mid,experiment,0
5,26,9087,72,64,0,2,13,3,13.mid,experiment,0
6,28,9345,67,64,0,2,13,3,13.mid,experiment,0
7,30,9623,67,64,0,2,13,3,13.mid,experiment,0
8,32,9881,67,64,0,2,13,3,13.mid,experiment,0
9,35,10480,79,64,0,2,13,3,13.mid,experiment,0
10,37,10745,78,64,0,2,13,3,13.mid,experiment,0
11,39,11019,79,64,0,2,13,3,13.mid,experiment,0
12,41,11358,76,64,0,2,13,3,13.mid,experiment,0
13,43,11603,72,64,0,2,13,3,13.mid,experiment,0
14,45,11873,76,64,0,2,13,3,13.mid,experiment,0
15,47,12063,79,64,0,2,13,3,13.mid,experiment,0
16,49,12352,84,64,0,2,13,3,13.mid,experiment,0
17,50,12405,83,64,0,2,13,3,13.mid,experiment,0
18,52,12613,81,64,0,2,13,3,13.mid,experiment,0
19,54,12872,81,64,0,2,13,3,13.mid,experiment,0
20,56,13129,81,64,0,2,13,3,13.mid,experiment,0
21,59,13668,83,64,0,2,13,3,13.mid,experiment,0
22,61,13950,81,64,0,2,13,3,13.mid,experiment,0
23,63,14207,84,64,0,2,13,3,13.mid,experiment,0
24,64,14253,81,64,0,2,13,3,13.mid,experiment,0
25,67,14693,78,64,0,2,13,3,13.mid,experiment,0
26,68,14752,79,64,0,2,13,3,13.mid,experiment,0
27,70,15216,79,64,0,2,13,3,13.mid,experiment,0
28,72,15906,79,64,0,2,13,3,13.mid,experiment,0
29,74,16782,77,64,0,2,13,3,13.mid,experiment,0
30,76,17040,77,64,0,2,13,3,13.mid,experiment,0
31,78,17322,76,64,0,2,13,3,13.mid,experiment,0
32,80,17596,76,64,0,2,13,3,13.mid,experiment,0
33,82,18205,74,64,0,2,13,3,13.mid,experiment,0
34,84,19190,79,64,0,2,13,3,13.mid,experiment,0
35,86,19817,77,64,0,2,13,3,13.mid,experiment,0
36,88,20234,76,64,0,2,13,3,13.mid,experiment,0
37,90,20513,76,64,0,2,13,3,13.mid,experiment,0
38,92,20772,76,64,0,2,13,3,13.mid,experiment,0
39,94,21040,76,64,0,2,13,3,13.mid,experiment,0
40,97,21639,81,64,0,2,13,3,13.mid,experiment,0
41,99,21879,77,64,0,2,13,3,13.mid,experiment,0
42,101,22113,76,64,0,2,13,3,13.mid,experiment,0
43,103,22383,74,64,0,2,13,3,13.mid,experiment,0
44,105,22604,76,64,0,2,13,3,13.mid,experiment,0
45,107,22885,79,64,0,2,13,3,13.mid,experiment,0
46,109,23154,74,64,0,2,13,3,13.mid,experiment,0
47,110,23187,71,64,0,2,13,3,13.mid,experiment,0
48,112,23438,72,64,0,2,13,3,13.mid,experiment,0
49,114,23724,72,64,0,2,13,3,13.mid,experiment,0
50,116,23972,74,64,0,2,13,3,13.mid,experiment,0
51,118,24241,74,64,0,2,13,3,13.mid,experiment,0
52,120,24890,76,64,0,2,13,3,13.mid,experiment,0
53,122,25766,65,64,0,2,13,3,13.mid,experiment,0
54,124,26026,65,64,0,2,13,3,13.mid,experiment,0
55,126,26286,64,64,0,2,13,3,13.mid,experiment,0
56,128,26564,64,64,0,2,13,3,13.mid,experiment,0
57,130,27309,62,64,0,2,13,3,13.mid,experiment,0
58,132,28107,67,64,0,2,13,3,13.mid,experiment,0
59,134,28366,67,64,0,2,13,3,13.mid,experiment,0
60,136,28636,71,64,0,2,13,3,13.mid,experiment,0
61,138,28881,71,64,0,2,13,3,13.mid,experiment,0
62,140,29134,72,64,0,2,13,3,13.mid,experiment,0
63,142,29383,72,64,0,2,13,3,13.mid,experiment,0
64,144,29633,73,64,0,2,13,3,13.mid,experiment,0
65,146,29882,73,64,0,2,13,3,13.mid,experiment,0
66,148,30349,74,64,0,2,13,3,13.mid,experiment,0
67,150,30836,77,64,0,2,13,3,13.mid,experiment,0
68,152,31359,76,64,0,2,13,3,13.mid,experiment,0
69,154,31917,74,64,0,2,13,3,13.mid,experiment,0
70,156,32469,72,64,0,2,13,3,13.mid,experiment,0
71,158,33016,84,64,0,2,13,3,13.mid,experiment,0
72,160,33670,84,64,0,2,13,3,13.mid,experiment,0
1,19,8195,79,64,0,2,13,4,2.mid,experiment,0
2,21,8479,78,64,0,2,13,4,2.mid,experiment,0
3,23,8714,79,64,0,2,13,4,2.mid,experiment,0
4,25,8981,76,64,0,2,13,4,2.mid,experiment,0
5,26,9029,72,64,0,2,13,4,2.mid,experiment,0
6,28,9253,67,64,0,2,13,4,2.mid,experiment,0
7,30,9514,67,64,0,2,13,4,2.mid,experiment,0
8,32,9771,67,64,0,2,13,4,2.mid,experiment,0
9,35,10355,79,64,0,2,13,4,2.mid,experiment,0
10,37,10596,78,64,0,2,13,4,2.mid,experiment,0
11,39,10854,79,64,0,2,13,4,2.mid,experiment,0
12,41,11162,76,64,0,2,13,4,2.mid,experiment,0
13,43,11451,72,64,0,2,13,4,2.mid,experiment,0
14,45,11721,76,64,0,2,13,4,2.mid,experiment,0
15,47,11901,79,64,0,2,13,4,2.mid,experiment,0
16,49,12198,84,64,0,2,13,4,2.mid,experiment,0
17,50,12230,83,64,0,2,13,4,2.mid,experiment,0
18,52,12467,81,64,0,2,13,4,2.mid,experiment,0
19,54,12718,81,64,0,2,13,4,2.mid,experiment,0
20,56,12971,81,64,0,2,13,4,2.mid,experiment,0
21,59,13507,83,64,0,2,13,4,2.mid,experiment,0
22,61,13778,81,64,0,2,13,4,2.mid,experiment,0
23,63,14013,84,64,0,2,13,4,2.mid,experiment,0
24,64,14072,81,64,0,2,13,4,2.mid,experiment,0
25,67,14499,78,64,0,2,13,4,2.mid,experiment,0
26,68,14532,79,64,0,2,13,4,2.mid,experiment,0
27,70,15003,79,64,0,2,13,4,2.mid,experiment,0
28,72,15623,79,64,0,2,13,4,2.mid,experiment,0
29,74,16561,77,64,0,2,13,4,2.mid,experiment,0
30,76,16844,77,64,0,2,13,4,2.mid,experiment,0
31,78,17112,76,64,0,2,13,4,2.mid,experiment,0
32,80,17375,76,64,0,2,13,4,2.mid,experiment,0
33,82,18062,74,64,0,2,13,4,2.mid,experiment,0
34,84,19004,79,64,0,2,13,4,2.mid,experiment,0
35,86,19595,77,64,0,2,13,4,2.mid,experiment,0
36,88,19982,76,64,0,2,13,4,2.mid,experiment,0
37,90,20270,76,64,0,2,13,4,2.mid,experiment,0
38,92,20523,76,64,0,2,13,4,2.mid,experiment,0
39,94,20782,76,64,0,2,13,4,2.mid,experiment,0
40,97,21358,81,64,0,2,13,4,2.mid,experiment,0
41,99,21583,77,64,0,2,13,4,2.mid,experiment,0
42,101,21829,76,64,0,2,13,4,2.mid,experiment,0
43,103,22114,74,64,0,2,13,4,2.mid,experiment,0
44,105,22343,76,64,0,2,13,4,2.mid,experiment,0
45,107,22633,79,64,0,2,13,4,2.mid,experiment,0
46,109,22857,74,64,0,2,13,4,2.mid,experiment,0
47,110,22923,71,64,0,2,13,4,2.mid,experiment,0
48,112,23151,72,64,0,2,13,4,2.mid,experiment,0
49,114,23417,72,64,0,2,13,4,2.mid,experiment,0
50,116,23671,74,64,0,2,13,4,2.mid,experiment,0
51,118,23931,74,64,0,2,13,4,2.mid,experiment,0
52,120,24619,76,64,0,2,13,4,2.mid,experiment,0
53,122,25453,65,64,0,2,13,4,2.mid,experiment,0
54,124,25722,65,64,0,2,13,4,2.mid,experiment,0
55,126,25979,64,64,0,2,13,4,2.mid,experiment,0
56,128,26255,64,64,0,2,13,4,2.mid,experiment,0
57,130,26919,62,64,0,2,13,4,2.mid,experiment,0
58,132,27803,67,64,0,2,13,4,2.mid,experiment,0
59,134,28086,67,64,0,2,13,4,2.mid,experiment,0
60,136,28334,71,64,0,2,13,4,2.mid,experiment,0
61,138,28596,71,64,0,2,13,4,2.mid,experiment,0
62,140,28836,72,64,0,2,13,4,2.mid,experiment,0
63,142,29098,72,64,0,2,13,4,2.mid,experiment,0
64,144,29340,73,64,0,2,13,4,2.mid,experiment,0
65,146,29608,73,64,0,2,13,4,2.mid,experiment,0
66,148,30145,74,64,0,2,13,4,2.mid,experiment,0
67,150,30673,77,64,0,2,13,4,2.mid,experiment,0
68,152,31183,76,64,0,2,13,4,2.mid,experiment,0
69,154,31654,74,64,0,2,13,4,2.mid,experiment,0
70,156,32172,72,64,0,2,13,4,2.mid,experiment,0
71,158,32681,84,64,0,2,13,4,2.mid,experiment,0
72,160,33456,84,64,0,2,13,4,2.mid,experiment,0
1,19,8231,79,64,0,2,13,5,14.mid,experiment,0
2,21,8532,78,64,0,2,13,5,14.mid,experiment,0
3,23,8764,79,64,0,2,13,5,14.mid,experiment,0
4,25,9026,76,64,0,2,13,5,14.mid,experiment,0
5,26,9094,72,64,0,2,13,5,14.mid,experiment,0
6,28,9310,67,64,0,2,13,5,14.mid,experiment,0
7,30,9570,67,64,0,2,13,5,14.mid,experiment,0
8,32,9828,67,64,0,2,13,5,14.mid,experiment,0
9,35,10464,79,64,0,2,13,5,14.mid,experiment,0
10,37,10797,78,64,0,2,13,5,14.mid,experiment,0
11,39,10999,79,64,0,2,13,5,14.mid,experiment,0
12,41,11330,76,64,0,2,13,5,14.mid,experiment,0
13,43,11543,72,64,0,2,13,5,14.mid,experiment,0
14,45,11848,76,64,0,2,13,5,14.mid,experiment,0
15,47,12032,79,64,0,2,13,5,14.mid,experiment,0
16,49,12288,84,64,0,2,13,5,14.mid,experiment,0
17,50,12340,83,64,0,2,13,5,14.mid,experiment,0
18,52,12562,81,64,0,2,13,5,14.mid,experiment,0
19,54,12830,81,64,0,2,13,5,14.mid,experiment,0
20,56,13098,81,64,0,2,13,5,14.mid,experiment,0
21,59,13626,83,64,0,2,13,5,14.mid,experiment,0
22,61,13892,81,64,0,2,13,5,14.mid,experiment,0
23,63,14144,84,64,0,2,13,5,14.mid,experiment,0
24,64,14202,81,64,0,2,13,5,14.mid,experiment,0
25,67,14646,78,64,0,2,13,5,14.mid,experiment,0
26,68,14698,79,64,0,2,13,5,14.mid,experiment,0
27,70,15131,79,64,0,2,13,5,14.mid,experiment,0
28,72,15778,79,64,0,2,13,5,14.mid,experiment,0
29,74,16688,77,64,0,2,13,5,14.mid,experiment,0
30,76,16955,77,64,0,2,13,5,14.mid,experiment,0
31,78,17234,76,64,0,2,13,5,14.mid,experiment,0
32,80,17494,76,64,0,2,13,5,14.mid,experiment,0
33,82,18168,74,64,0,2,13,5,14.mid,experiment,0
34,84,19082,79,64,0,2,13,5,14.mid,experiment,0
35,86,19704,77,64,0,2,13,5,14.mid,experiment,0
36,88,20078,76,64,0,2,13,5,14.mid,experiment,0
37,90,20358,76,64,0,2,13,5,14.mid,experiment,0
38,92,20614,76,64,0,2,13,5,14.mid,experiment,0
39,94,20900,76,64,0,2,13,5,14.mid,experiment,0
40,97,21486,81,64,0,2,13,5,14.mid,experiment,0
41,99,21714,77,64,0,2,13,5,14.mid,experiment,0
42,101,21952,76,64,0,2,13,5,14.mid,experiment,0
43,103,22220,74,64,0,2,13,5,14.mid,experiment,0
44,105,22443,76,64,0,2,13,5,14.mid,experiment,0
45,107,22726,79,64,0,2,13,5,14.mid,experiment,0
46,109,22986,74,64,0,2,13,5,14.mid,experiment,0
47,110,23024,71,64,0,2,13,5,14.mid,experiment,0
48,112,23261,72,64,0,2,13,5,14.mid,experiment,0
49,114,23522,72,64,0,2,13,5,14.mid,experiment,0
50,116,23764,74,64,0,2,13,5,14.mid,experiment,0
51,118,24036,74,64,0,2,13,5,14.mid,experiment,0
52,120,24669,76,64,0,2,13,5,14.mid,experiment,0
53,122,25532,65,64,0,2,13,5,14.mid,experiment,0
54,124,25782,65,64,0,2,13,5,14.mid,experiment,0
55,126,26044,64,64,0,2,13,5,14.mid,experiment,0
56,128,26314,64,64,0,2,13,5,14.mid,experiment,0
57,130,27000,62,64,0,2,13,5,14.mid,experiment,0
58,132,27797,67,64,0,2,13,5,14.mid,experiment,0
59,134,28066,67,64,0,2,13,5,14.mid,experiment,0
60,136,28330,71,64,0,2,13,5,14.mid,experiment,0
61,138,28575,71,64,0,2,13,5,14.mid,experiment,0
62,140,28820,72,64,0,2,13,5,14.mid,experiment,0
63,142,29085,72,64,0,2,13,5,14.mid,experiment,0
64,144,29328,73,64,0,2,13,5,14.mid,experiment,0
65,146,29586,73,64,0,2,13,5,14.mid,experiment,0
66,148,30066,74,64,0,2,13,5,14.mid,experiment,0
67,150,30616,77,64,0,2,13,5,14.mid,experiment,0
68,152,31132,76,64,0,2,13,5,14.mid,experiment,0
69,154,31644,74,64,0,2,13,5,14.mid,experiment,0
70,156,32170,72,64,0,2,13,5,14.mid,experiment,0
71,158,32714,84,64,0,2,13,5,14.mid,experiment,0
72,160,33371,84,64,0,2,13,5,14.mid,experiment,0
1,19,8185,79,64,0,2,13,6,5.mid,experiment,0
2,21,8482,78,64,0,2,13,6,5.mid,experiment,0
3,23,8722,79,64,0,2,13,6,5.mid,experiment,0
4,25,8987,76,64,0,2,13,6,5.mid,experiment,0
5,26,9015,72,64,0,2,13,6,5.mid,experiment,0
6,28,9280,67,64,0,2,13,6,5.mid,experiment,0
7,30,9536,67,64,0,2,13,6,5.mid,experiment,0
8,32,9797,67,64,0,2,13,6,5.mid,experiment,0
9,35,10394,79,64,0,2,13,6,5.mid,experiment,0
10,37,10659,78,64,0,2,13,6,5.mid,experiment,0
11,39,10910,79,64,0,2,13,6,5.mid,experiment,0
12,41,11242,76,64,0,2,13,6,5.mid,experiment,0
13,43,11470,72,64,0,2,13,6,5.mid,experiment,0
14,45,11736,76,64,0,2,13,6,5.mid,experiment,0
15,47,11942,79,64,0,2,13,6,5.mid,experiment,0
16,49,12220,84,64,0,2,13,6,5.mid,experiment,0
17,50,12280,83,64,0,2,13,6,5.mid,experiment,0
18,52,12514,81,64,0,2,13,6,5.mid,experiment,0
19,54,12768,81,64,0,2,13,6,5.mid,experiment,0
20,56,13023,81,64,0,2,13,6,5.mid,experiment,0
21,59,13576,83,64,0,2,13,6,5.mid,experiment,0
22,61,13870,81,64,0,2,13,6,5.mid,experiment,0
23,63,14109,84,64,0,2,13,6,5.mid,experiment,0
24,64,14151,81,64,0,2,13,6,5.mid,experiment,0
25,67,14599,78,64,0,2,13,6,5.mid,experiment,0
26,68,14641,79,64,0,2,13,6,5.mid,experiment,0
27,70,15003,79,64,0,2,13,6,5.mid,experiment,0
28,72,15625,79,64,0,2,13,6,5.mid,experiment,0
29,74,16687,77,64,0,2,13,6,5.mid,experiment,0
30,76,16960,77,64,0,2,13,6,5.mid,experiment,0
31,78,17220,76,64,0,2,13,6,5.mid,experiment,0
32,80,17493,76,64,0,2,13,6,5.mid,experiment,0
33,82,18101,74,64,0,2,13,6,5.mid,experiment,0
34,84,19060,79,64,0,2,13,6,5.mid,experiment,0
35,86,19639,77,64,0,2,13,6,5.mid,experiment,0
36,88,20053,76,64,0,2,13,6,5.mid,experiment,0
37,90,20332,76,64,0,2,13,6,5.mid,experiment,0
38,92,20601,76,64,0,2,13,6,5.mid,experiment,0
39,94,20856,76,64,0,2,13,6,5.mid,experiment,0
40,97,21439,81,64,0,2,13,6,5.mid,experiment,0
41,99,21679,77,64,0,2,13,6,5.mid,experiment,0
42,101,21910,76,64,0,2,13,6,5.mid,experiment,0
43,103,22191,74,64,0,2,13,6,5.mid,experiment,0
44,105,22411,76,64,0,2,13,6,5.mid,experiment,0
45,107,22683,79,64,0,2,13,6,5.mid,experiment,0
46,109,22951,74,64,0,2,13,6,5.mid,experiment,0
47,110,22969,71,64,0,2,13,6,5.mid,experiment,0
48,112,23220,72,64,0,2,13,6,5.mid,experiment,0
49,114,23507,72,64,0,2,13,6,5.mid,experiment,0
50,116,23740,74,64,0,2,13,6,5.mid,experiment,0
51,118,23984,74,64,0,2,13,6,5.mid,experiment,0
52,120,24606,76,64,0,2,13,6,5.mid,experiment,0
53,122,25467,65,64,0,2,13,6,5.mid,experiment,0
54,124,25715,65,64,0,2,13,6,5.mid,experiment,0
55,126,25978,64,64,0,2,13,6,5.mid,experiment,0
56,128,26240,64,64,0,2,13,6,5.mid,experiment,0
57,130,26905,62,64,0,2,13,6,5.mid,experiment,0
58,132,27776,67,64,0,2,13,6,5.mid,experiment,0
59,134,28035,67,64,0,2,13,6,5.mid,experiment,0
60,136,28287,71,64,0,2,13,6,5.mid,experiment,0
61,138,28539,71,64,0,2,13,6,5.mid,experiment,0
62,140,28786,72,64,0,2,13,6,5.mid,experiment,0
63,142,29077,72,64,0,2,13,6,5.mid,experiment,0
64,144,29298,73,64,0,2,13,6,5.mid,experiment,0
65,146,29561,73,64,0,2,13,6,5.mid,experiment,0
66,148,30008,74,64,0,2,13,6,5.mid,experiment,0
67,150,30549,77,64,0,2,13,6,5.mid,experiment,0
68,152,31043,76,64,0,2,13,6,5.mid,experiment,0
69,154,31577,74,64,0,2,13,6,5.mid,experiment,0
70,156,32096,72,64,0,2,13,6,5.mid,experiment,0
71,158,32596,84,64,0,2,13,6,5.mid,experiment,0
72,160,33444,84,64,0,2,13,6,5.mid,experiment,0
1,19,8284,79,64,0,2,13,7,11.mid,experiment,0
2,21,8554,78,64,0,2,13,7,11.mid,experiment,0
3,23,8807,79,64,0,2,13,7,11.mid,experiment,0
4,25,9072,76,64,0,2,13,7,11.mid,experiment,0
5,26,9117,72,64,0,2,13,7,11.mid,experiment,0
6,28,9385,67,64,0,2,13,7,11.mid,experiment,0
7,30,9619,67,64,0,2,13,7,11.mid,experiment,0
8,32,9898,67,64,0,2,13,7,11.mid,experiment,0
9,35,10501,79,64,0,2,13,7,11.mid,experiment,0
10,37,10745,78,64,0,2,13,7,11.mid,experiment,0
11,39,11007,79,64,0,2,13,7,11.mid,experiment,0
12,41,11348,76,64,0,2,13,7,11.mid,experiment,0
13,43,11606,72,64,0,2,13,7,11.mid,experiment,0
14,45,11856,76,64,0,2,13,7,11.mid,experiment,0
15,47,12064,79,64,0,2,13,7,11.mid,experiment,0
16,49,12353,84,64,0,2,13,7,11.mid,experiment,0
17,50,12391,83,64,0,2,13,7,11.mid,experiment,0
18,52,12624,81,64,0,2,13,7,11.mid,experiment,0
19,54,12876,81,64,0,2,13,7,11.mid,experiment,0
20,56,13137,81,64,0,2,13,7,11.mid,experiment,0
21,59,13699,83,64,0,2,13,7,11.mid,experiment,0
22,61,13973,81,64,0,2,13,7,11.mid,experiment,0
23,63,14208,84,64,0,2,13,7,11.mid,experiment,0
24,64,14261,81,64,0,2,13,7,11.mid,experiment,0
25,67,14701,78,64,0,2,13,7,11.mid,experiment,0
26,68,14743,79,64,0,2,13,7,11.mid,experiment,0
27,70,15186,79,64,0,2,13,7,11.mid,experiment,0
28,72,15867,79,64,0,2,13,7,11.mid,experiment,0
29,74,16809,77,64,0,2,13,7,11.mid,experiment,0
30,76,17089,77,64,0,2,13,7,11.mid,experiment,0
31,78,17376,76,64,0,2,13,7,11.mid,experiment,0
32,80,17630,76,64,0,2,13,7,11.mid,experiment,0
33,82,18230,74,64,0,2,13,7,11.mid,experiment,0
34,84,19194,79,64,0,2,13,7,11.mid,experiment,0
35,86,19826,77,64,0,2,13,7,11.mid,experiment,0
36,88,20306,76,64,0,2,13,7,11.mid,experiment,0
37,90,20575,76,64,0,2,13,7,11.mid,experiment,0
38,92,20836,76,64,0,2,13,7,11.mid,experiment,0
39,94,21107,76,64,0,2,13,7,11.mid,experiment,0
40,97,21674,81,64,0,2,13,7,11.mid,experiment,0
41,99,21916,77,64,0,2,13,7,11.mid,experiment,0
42,101,22167,76,64,0,2,13,7,11.mid,experiment,0
43,103,22444,74,64,0,2,13,7,11.mid,experiment,0
44,105,22661,76,64,0,2,13,7,11.mid,experiment,0
45,107,22928,79,64,0,2,13,7,11.mid,experiment,0
46,109,23195,74,64,0,2,13,7,11.mid,experiment,0
47,110,23227,71,64,0,2,13,7,11.mid,experiment,0
48,112,23457,72,64,0,2,13,7,11.mid,experiment,0
49,114,23716,72,64,0,2,13,7,11.mid,experiment,0
50,116,23973,74,64,0,2,13,7,11.mid,experiment,0
51,118,24234,74,64,0,2,13,7,11.mid,experiment,0
52,120,24905,76,64,0,2,13,7,11.mid,experiment,0
53,122,25780,65,64,0,2,13,7,11.mid,experiment,0
54,124,26047,65,64,0,2,13,7,11.mid,experiment,0
55,126,26304,64,64,0,2,13,7,11.mid,experiment,0
56,128,26572,64,64,0,2,13,7,11.mid,experiment,0
57,130,27340,62,64,0,2,13,7,11.mid,experiment,0
58,132,28042,67,64,0,2,13,7,11.mid,experiment,0
59,134,28316,67,64,0,2,13,7,11.mid,experiment,0
60,136,28579,71,64,0,2,13,7,11.mid,experiment,0
61,138,28825,71,64,0,2,13,7,11.mid,experiment,0
62,140,29079,72,64,0,2,13,7,11.mid,experiment,0
63,142,29334,72,64,0,2,13,7,11.mid,experiment,0
64,144,29585,73,64,0,2,13,7,11.mid,experiment,0
65,146,29850,73,64,0,2,13,7,11.mid,experiment,0
66,148,30300,74,64,0,2,13,7,11.mid,experiment,0
67,150,30848,77,64,0,2,13,7,11.mid,experiment,0
68,152,31356,76,64,0,2,13,7,11.mid,experiment,0
69,154,31826,74,64,0,2,13,7,11.mid,experiment,0
70,156,32328,72,64,0,2,13,7,11.mid,experiment,0
71,158,32889,84,64,0,2,13,7,11.mid,experiment,0
72,160,33777,84,64,0,2,13,7,11.mid,experiment,0
1,19,8190,79,64,0,2,13,9,8.mid,experiment,0
2,21,8507,78,64,0,2,13,9,8.mid,experiment,0
3,23,8729,79,64,0,2,13,9,8.mid,experiment,0
4,25,8986,76,64,0,2,13,9,8.mid,experiment,0
5,26,9039,72,64,0,2,13,9,8.mid,experiment,0
6,28,9259,67,64,0,2,13,9,8.mid,experiment,0
7,30,9507,67,64,0,2,13,9,8.mid,experiment,0
8,32,9775,67,64,0,2,13,9,8.mid,experiment,0
9,35,10392,79,64,0,2,13,9,8.mid,experiment,0
10,37,10657,78,64,0,2,13,9,8.mid,experiment,0
11,39,10935,79,64,0,2,13,9,8.mid,experiment,0
12,41,11242,76,64,0,2,13,9,8.mid,experiment,0
13,43,11497,72,64,0,2,13,9,8.mid,experiment,0
14,45,11796,76,64,0,2,13,9,8.mid,experiment,0
15,47,11982,79,64,0,2,13,9,8.mid,experiment,0
16,49,12257,84,64,0,2,13,9,8.mid,experiment,0
17,50,12296,83,64,0,2,13,9,8.mid,experiment,0
18,52,12538,81,64,0,2,13,9,8.mid,experiment,0
19,54,12791,81,64,0,2,13,9,8.mid,experiment,0
20,56,13048,81,64,0,2,13,9,8.mid,experiment,0
21,59,13620,83,64,0,2,13,9,8.mid,experiment,0
22,61,13900,81,64,0,2,13,9,8.mid,experiment,0
23,63,14152,84,64,0,2,13,9,8.mid,experiment,0
24,64,14210,81,64,0,2,13,9,8.mid,experiment,0
25,67,14650,78,64,0,2,13,9,8.mid,experiment,0
26,68,14690,79,64,0,2,13,9,8.mid,experiment,0
27,70,15158,79,64,0,2,13,9,8.mid,experiment,0
28,72,15782,79,64,0,2,13,9,8.mid,experiment,0
29,74,16768,77,64,0,2,13,9,8.mid,experiment,0
30,76,17029,77,64,0,2,13,9,8.mid,experiment,0
31,78,17302,76,64,0,2,13,9,8.mid,experiment,0
32,80,17578,76,64,0,2,13,9,8.mid,experiment,0
33,82,18200,74,64,0,2,13,9,8.mid,experiment,0
34,84,19184,79,64,0,2,13,9,8.mid,experiment,0
35,86,19777,77,64,0,2,13,9,8.mid,experiment,0
36,88,20244,76,64,0,2,13,9,8.mid,experiment,0
37,90,20522,76,64,0,2,13,9,8.mid,experiment,0
38,92,20799,76,64,0,2,13,9,8.mid,experiment,0
39,94,21067,76,64,0,2,13,9,8.mid,experiment,0
40,97,21654,81,64,0,2,13,9,8.mid,experiment,0
41,99,21897,77,64,0,2,13,9,8.mid,experiment,0
42,101,22152,76,64,0,2,13,9,8.mid,experiment,0
43,103,22430,74,64,0,2,13,9,8.mid,experiment,0
44,105,22665,76,64,0,2,13,9,8.mid,experiment,0
45,107,22987,79,64,0,2,13,9,8.mid,experiment,0
46,109,23174,74,64,0,2,13,9,8.mid,experiment,0
47,110,23243,71,64,0,2,13,9,8.mid,experiment,0
48,112,23460,72,64,0,2,13,9,8.mid,experiment,0
49,114,23716,72,64,0,2,13,9,8.mid,experiment,0
50,116,23977,74,64,0,2,13,9,8.mid,experiment,0
51,118,24248,74,64,0,2,13,9,8.mid,experiment,0
52,120,24842,76,64,0,2,13,9,8.mid,experiment,0
53,122,25784,65,64,0,2,13,9,8.mid,experiment,0
54,124,26049,65,64,0,2,13,9,8.mid,experiment,0
55,126,26319,64,64,0,2,13,9,8.mid,experiment,0
56,128,26588,64,64,0,2,13,9,8.mid,experiment,0
57,130,27211,62,64,0,2,13,9,8.mid,experiment,0
58,132,28115,67,64,0,2,13,9,8.mid,experiment,0
59,134,28398,67,64,0,2,13,9,8.mid,experiment,0
60,136,28661,71,64,0,2,13,9,8.mid,experiment,0
61,138,28931,71,64,0,2,13,9,8.mid,experiment,0
62,140,29176,72,64,0,2,13,9,8.mid,experiment,0
63,142,29421,72,64,0,2,13,9,8.mid,experiment,0
64,144,29722,73,64,0,2,13,9,8.mid,experiment,0
65,146,29974,73,64,0,2,13,9,8.mid,experiment,0
66,148,30529,74,64,0,2,13,9,8.mid,experiment,0
67,150,31081,77,64,0,2,13,9,8.mid,experiment,0
68,152,31545,76,64,0,2,13,9,8.mid,experiment,0
69,154,32031,74,64,0,2,13,9,8.mid,experiment,0
70,156,32543,72,64,0,2,13,9,8.mid,experiment,0
71,158,33043,84,64,0,2,13,9,8.mid,experiment,0
72,160,33861,84,64,0,2,13,9,8.mid,experiment,0
1,19,8232,79,64,0,2,13,10,12.mid,experiment,0
2,21,8510,78,64,0,2,13,10,12.mid,experiment,0
3,23,8765,79,64,0,2,13,10,12.mid,experiment,0
4,25,9024,76,64,0,2,13,10,12.mid,experiment,0
5,26,9039,72,64,0,2,13,10,12.mid,experiment,0
6,28,9330,67,64,0,2,13,10,12.mid,experiment,0
7,30,9572,67,64,0,2,13,10,12.mid,experiment,0
8,32,9843,67,64,0,2,13,10,12.mid,experiment,0
9,35,10431,79,64,0,2,13,10,12.mid,experiment,0
10,37,10672,78,64,0,2,13,10,12.mid,experiment,0
11,39,10936,79,64,0,2,13,10,12.mid,experiment,0
12,41,11241,76,64,0,2,13,10,12.mid,experiment,0
13,43,11513,72,64,0,2,13,10,12.mid,experiment,0
14,45,11840,76,64,0,2,13,10,12.mid,experiment,0
15,47,12019,79,64,0,2,13,10,12.mid,experiment,0
16,49,12273,84,64,0,2,13,10,12.mid,experiment,0
17,50,12327,83,64,0,2,13,10,12.mid,experiment,0
18,52,12549,81,64,0,2,13,10,12.mid,experiment,0
19,54,12809,81,64,0,2,13,10,12.mid,experiment,0
20,56,13051,81,64,0,2,13,10,12.mid,experiment,0
21,59,13580,83,64,0,2,13,10,12.mid,experiment,0
22,61,13827,81,64,0,2,13,10,12.mid,experiment,0
23,63,14079,84,64,0,2,13,10,12.mid,experiment,0
24,64,14160,81,64,0,2,13,10,12.mid,experiment,0
25,67,14608,78,64,0,2,13,10,12.mid,experiment,0
26,68,14669,79,64,0,2,13,10,12.mid,experiment,0
27,70,15079,79,64,0,2,13,10,12.mid,experiment,0
28,72,15746,79,64,0,2,13,10,12.mid,experiment,0
29,74,16796,77,64,0,2,13,10,12.mid,experiment,0
30,76,17053,77,64,0,2,13,10,12.mid,experiment,0
31,78,17322,76,64,0,2,13,10,12.mid,experiment,0
32,80,17584,76,64,0,2,13,10,12.mid,experiment,0
33,82,18223,74,64,0,2,13,10,12.mid,experiment,0
34,84,19195,79,64,0,2,13,10,12.mid,experiment,0
35,86,19801,77,64,0,2,13,10,12.mid,experiment,0
36,88,20224,76,64,0,2,13,10,12.mid,experiment,0
37,90,20491,76,64,0,2,13,10,12.mid,experiment,0
38,92,20760,76,64,0,2,13,10,12.mid,experiment,0
39,94,21034,76,64,0,2,13,10,12.mid,experiment,0
40,97,21600,81,64,0,2,13,10,12.mid,experiment,0
41,99,21858,77,64,0,2,13,10,12.mid,experiment,0
42,101,22102,76,64,0,2,13,10,12.mid,experiment,0
43,103,22399,74,64,0,2,13,10,12.mid,experiment,0
44,105,22626,76,64,0,2,13,10,12.mid,experiment,0
45,107,22924,79,64,0,2,13,10,12.mid,experiment,0
46,109,23152,74,64,0,2,13,10,12.mid,experiment,0
47,110,23190,71,64,0,2,13,10,12.mid,experiment,0
48,112,23400,72,64,0,2,13,10,12.mid,experiment,0
49,114,23678,72,64,0,2,13,10,12.mid,experiment,0
50,116,23923,74,64,0,2,13,10,12.mid,experiment,0
51,118,24173,74,64,0,2,13,10,12.mid,experiment,0
52,120,24802,76,64,0,2,13,10,12.mid,experiment,0
53,122,25657,65,64,0,2,13,10,12.mid,experiment,0
54,124,25917,65,64,0,2,13,10,12.mid,experiment,0
55,126,26174,64,64,0,2,13,10,12.mid,experiment,0
56,128,26444,64,64,0,2,13,10,12.mid,experiment,0
57,130,27057,62,64,0,2,13,10,12.mid,experiment,0
58,132,27974,67,64,0,2,13,10,12.mid,experiment,0
59,134,28232,67,64,0,2,13,10,12.mid,experiment,0
60,136,28519,71,64,0,2,13,10,12.mid,experiment,0
61,138,28763,71,64,0,2,13,10,12.mid,experiment,0
62,140,29014,72,64,0,2,13,10,12.mid,experiment,0
63,142,29271,72,64,0,2,13,10,12.mid,experiment,0
64,144,29522,73,64,0,2,13,10,12.mid,experiment,0
65,146,29776,73,64,0,2,13,10,12.mid,experiment,0
66,148,30213,74,64,0,2,13,10,12.mid,experiment,0
67,150,30749,77,64,0,2,13,10,12.mid,experiment,0
68,152,31226,76,64,0,2,13,10,12.mid,experiment,0
69,154,31745,74,64,0,2,13,10,12.mid,experiment,0
70,156,32280,72,64,0,2,13,10,12.mid,experiment,0
71,158,32815,84,64,0,2,13,10,12.mid,experiment,0
72,160,33576,84,64,0,2,13,10,12.mid,experiment,0
1,19,8306,79,64,0,2,13,11,9.mid,experiment,0
2,21,8570,78,64,0,2,13,11,9.mid,experiment,0
3,23,8827,79,64,0,2,13,11,9.mid,experiment,0
4,25,9076,76,64,0,2,13,11,9.mid,experiment,0
5,26,9100,72,64,0,2,13,11,9.mid,experiment,0
6,28,9402,67,64,0,2,13,11,9.mid,experiment,0
7,30,9641,67,64,0,2,13,11,9.mid,experiment,0
8,32,9908,67,64,0,2,13,11,9.mid,experiment,0
9,35,10470,79,64,0,2,13,11,9.mid,experiment,0
10,37,10708,78,64,0,2,13,11,9.mid,experiment,0
11,39,10987,79,64,0,2,13,11,9.mid,experiment,0
12,41,11308,76,64,0,2,13,11,9.mid,experiment,0
13,43,11581,72,64,0,2,13,11,9.mid,experiment,0
14,45,11859,76,64,0,2,13,11,9.mid,experiment,0
15,47,12032,79,64,0,2,13,11,9.mid,experiment,0
16,49,12307,84,64,0,2,13,11,9.mid,experiment,0
17,50,12360,83,64,0,2,13,11,9.mid,experiment,0
18,52,12580,81,64,0,2,13,11,9.mid,experiment,0
19,54,12834,81,64,0,2,13,11,9.mid,experiment,0
20,56,13083,81,64,0,2,13,11,9.mid,experiment,0
21,59,13625,83,64,0,2,13,11,9.mid,experiment,0
22,61,13891,81,64,0,2,13,11,9.mid,experiment,0
23,63,14120,84,64,0,2,13,11,9.mid,experiment,0
24,64,14198,81,64,0,2,13,11,9.mid,experiment,0
25,67,14657,78,64,0,2,13,11,9.mid,experiment,0
26,68,14705,79,64,0,2,13,11,9.mid,experiment,0
27,70,15119,79,64,0,2,13,11,9.mid,experiment,0
28,72,15787,79,64,0,2,13,11,9.mid,experiment,0
29,74,16836,77,64,0,2,13,11,9.mid,experiment,0
30,76,17092,77,64,0,2,13,11,9.mid,experiment,0
31,78,17378,76,64,0,2,13,11,9.mid,experiment,0
32,80,17640,76,64,0,2,13,11,9.mid,experiment,0
33,82,18272,74,64,0,2,13,11,9.mid,experiment,0
34,84,19265,79,64,0,2,13,11,9.mid,experiment,0
35,86,19860,77,64,0,2,13,11,9.mid,experiment,0
36,88,20288,76,64,0,2,13,11,9.mid,experiment,0
37,90,20557,76,64,0,2,13,11,9.mid,experiment,0
38,92,20824,76,64,0,2,13,11,9.mid,experiment,0
39,94,21078,76,64,0,2,13,11,9.mid,experiment,0
40,97,21649,81,64,0,2,13,11,9.mid,experiment,0
41,99,21886,77,64,0,2,13,11,9.mid,experiment,0
42,101,22145,76,64,0,2,13,11,9.mid,experiment,0
43,103,22426,74,64,0,2,13,11,9.mid,experiment,0
44,105,22668,76,64,0,2,13,11,9.mid,experiment,0
45,107,22930,79,64,0,2,13,11,9.mid,experiment,0
46,109,23177,74,64,0,2,13,11,9.mid,experiment,0
47,110,23225,71,64,0,2,13,11,9.mid,experiment,0
48,112,23467,72,64,0,2,13,11,9.mid,experiment,0
49,114,23731,72,64,0,2,13,11,9.mid,experiment,0
50,116,23982,74,64,0,2,13,11,9.mid,experiment,0
51,118,24235,74,64,0,2,13,11,9.mid,experiment,0
52,120,24854,76,64,0,2,13,11,9.mid,experiment,0
53,122,25749,65,64,0,2,13,11,9.mid,experiment,0
54,124,25995,65,64,0,2,13,11,9.mid,experiment,0
55,126,26251,64,64,0,2,13,11,9.mid,experiment,0
56,128,26517,64,64,0,2,13,11,9.mid,experiment,0
57,130,27141,62,64,0,2,13,11,9.mid,experiment,0
58,132,28050,67,64,0,2,13,11,9.mid,experiment,0
59,134,28299,67,64,0,2,13,11,9.mid,experiment,0
60,136,28563,71,64,0,2,13,11,9.mid,experiment,0
61,138,28804,71,64,0,2,13,11,9.mid,experiment,0
62,140,29055,72,64,0,2,13,11,9.mid,experiment,0
63,142,29314,72,64,0,2,13,11,9.mid,experiment,0
64,144,29588,73,64,0,2,13,11,9.mid,experiment,0
65,146,29836,73,64,0,2,13,11,9.mid,experiment,0
66,148,30210,74,64,0,2,13,11,9.mid,experiment,0
67,150,30739,77,64,0,2,13,11,9.mid,experiment,0
68,152,31246,76,64,0,2,13,11,9.mid,experiment,0
69,154,31746,74,64,0,2,13,11,9.mid,experiment,0
70,156,32261,72,64,0,2,13,11,9.mid,experiment,0
71,158,32774,84,64,0,2,13,11,9.mid,experiment,0
72,160,33478,84,64,0,2,13,11,9.mid,experiment,0
1,19,8266,79,64,0,2,13,12,3.mid,experiment,0
2,21,8563,78,64,0,2,13,12,3.mid,experiment,0
3,23,8812,79,64,0,2,13,12,3.mid,experiment,0
4,25,9088,76,64,0,2,13,12,3.mid,experiment,0
5,26,9139,72,64,0,2,13,12,3.mid,experiment,0
6,28,9391,67,64,0,2,13,12,3.mid,experiment,0
7,30,9639,67,64,0,2,13,12,3.mid,experiment,0
8,32,9921,67,64,0,2,13,12,3.mid,experiment,0
9,35,10527,79,64,0,2,13,12,3.mid,experiment,0
10,37,10773,78,64,0,2,13,12,3.mid,experiment,0
11,39,11023,79,64,0,2,13,12,3.mid,experiment,0
12,41,11363,76,64,0,2,13,12,3.mid,experiment,0
13,43,11619,72,64,0,2,13,12,3.mid,experiment,0
14,45,11917,76,64,0,2,13,12,3.mid,experiment,0
15,47,12115,79,64,0,2,13,12,3.mid,experiment,0
16,49,12377,84,64,0,2,13,12,3.mid,experiment,0
17,50,12433,83,64,0,2,13,12,3.mid,experiment,0
18,52,12665,81,64,0,2,13,12,3.mid,experiment,0
19,54,12923,81,64,0,2,13,12,3.mid,experiment,0
20,56,13167,81,64,0,2,13,12,3.mid,experiment,0
21,59,13741,83,64,0,2,13,12,3.mid,experiment,0
22,61,14017,81,64,0,2,13,12,3.mid,experiment,0
23,63,14247,84,64,0,2,13,12,3.mid,experiment,0
24,64,14326,81,64,0,2,13,12,3.mid,experiment,0
25,67,14783,78,64,0,2,13,12,3.mid,experiment,0
26,68,14822,79,64,0,2,13,12,3.mid,experiment,0
27,70,15289,79,64,0,2,13,12,3.mid,experiment,0
28,72,15927,79,64,0,2,13,12,3.mid,experiment,0
29,74,16921,77,64,0,2,13,12,3.mid,experiment,0
30,76,17185,77,64,0,2,13,12,3.mid,experiment,0
31,78,17485,76,64,0,2,13,12,3.mid,experiment,0
32,80,17747,76,64,0,2,13,12,3.mid,experiment,0
33,82,18389,74,64,0,2,13,12,3.mid,experiment,0
34,84,19399,79,64,0,2,13,12,3.mid,experiment,0
35,86,20005,77,64,0,2,13,12,3.mid,experiment,0
36,88,20461,76,64,0,2,13,12,3.mid,experiment,0
37,90,20738,76,64,0,2,13,12,3.mid,experiment,0
38,92,21006,76,64,0,2,13,12,3.mid,experiment,0
39,94,21277,76,64,0,2,13,12,3.mid,experiment,0
40,97,21849,81,64,0,2,13,12,3.mid,experiment,0
41,99,22111,77,64,0,2,13,12,3.mid,experiment,0
42,101,22361,76,64,0,2,13,12,3.mid,experiment,0
43,103,22649,74,64,0,2,13,12,3.mid,experiment,0
44,105,22875,76,64,0,2,13,12,3.mid,experiment,0
45,107,23154,79,64,0,2,13,12,3.mid,experiment,0
46,109,23419,74,64,0,2,13,12,3.mid,experiment,0
47,110,23469,71,64,0,2,13,12,3.mid,experiment,0
48,112,23695,72,64,0,2,13,12,3.mid,experiment,0
49,114,23961,72,64,0,2,13,12,3.mid,experiment,0
50,116,24233,74,64,0,2,13,12,3.mid,experiment,0
51,118,24489,74,64,0,2,13,12,3.mid,experiment,0
52,120,25101,76,64,0,2,13,12,3.mid,experiment,0
53,122,25975,65,64,0,2,13,12,3.mid,experiment,0
54,124,26241,65,64,0,2,13,12,3.mid,experiment,0
55,126,26501,64,64,0,2,13,12,3.mid,experiment,0
56,128,26787,64,64,0,2,13,12,3.mid,experiment,0
57,130,27388,62,64,0,2,13,12,3.mid,experiment,0
58,132,28295,67,64,0,2,13,12,3.mid,experiment,0
59,134,28575,67,64,0,2,13,12,3.mid,experiment,0
60,136,28839,71,64,0,2,13,12,3.mid,experiment,0
61,138,29105,71,64,0,2,13,12,3.mid,experiment,0
62,140,29364,72,64,0,2,13,12,3.mid,experiment,0
63,142,29625,72,64,0,2,13,12,3.mid,experiment,0
64,144,29891,73,64,0,2,13,12,3.mid,experiment,0
65,146,30154,73,64,0,2,13,12,3.mid,experiment,0
66,148,30650,74,64,0,2,13,12,3.mid,experiment,0
67,150,31167,77,64,0,2,13,12,3.mid,experiment,0
68,152,31677,76,64,0,2,13,12,3.mid,experiment,0
69,154,32213,74,64,0,2,13,12,3.mid,experiment,0
70,156,32731,72,64,0,2,13,12,3.mid,experiment,0
71,158,33279,84,64,0,2,13,12,3.mid,experiment,0
72,160,33967,84,64,0,2,13,12,3.mid,experiment,0
1,19,8223,79,64,0,2,13,13,16.mid,experiment,0
2,21,8538,78,64,0,2,13,13,16.mid,experiment,0
3,23,8794,79,64,0,2,13,13,16.mid,experiment,0
4,25,9069,76,64,0,2,13,13,16.mid,experiment,0
5,26,9110,72,64,0,2,13,13,16.mid,experiment,0
6,28,9335,67,64,0,2,13,13,16.mid,experiment,0
7,30,9603,67,64,0,2,13,13,16.mid,experiment,0
8,32,9868,67,64,0,2,13,13,16.mid,experiment,0
9,35,10521,79,64,0,2,13,13,16.mid,experiment,0
10,37,10741,78,64,0,2,13,13,16.mid,experiment,0
11,39,11012,79,64,0,2,13,13,16.mid,experiment,0
12,41,11323,76,64,0,2,13,13,16.mid,experiment,0
13,43,11586,72,64,0,2,13,13,16.mid,experiment,0
14,45,11873,76,64,0,2,13,13,16.mid,experiment,0
15,47,12060,79,64,0,2,13,13,16.mid,experiment,0
16,49,12312,84,64,0,2,13,13,16.mid,experiment,0
17,50,12359,83,64,0,2,13,13,16.mid,experiment,0
18,52,12588,81,64,0,2,13,13,16.mid,experiment,0
19,54,12853,81,64,0,2,13,13,16.mid,experiment,0
20,56,13102,81,64,0,2,13,13,16.mid,experiment,0
21,59,13634,83,64,0,2,13,13,16.mid,experiment,0
22,61,13911,81,64,0,2,13,13,16.mid,experiment,0
23,63,14170,84,64,0,2,13,13,16.mid,experiment,0
24,64,14235,81,64,0,2,13,13,16.mid,experiment,0
25,67,14684,78,64,0,2,13,13,16.mid,experiment,0
26,68,14720,79,64,0,2,13,13,16.mid,experiment,0
27,70,15167,79,64,0,2,13,13,16.mid,experiment,0
28,72,15796,79,64,0,2,13,13,16.mid,experiment,0
29,74,16809,77,64,0,2,13,13,16.mid,experiment,0
30,76,17076,77,64,0,2,13,13,16.mid,experiment,0
31,78,17371,76,64,0,2,13,13,16.mid,experiment,0
32,80,17634,76,64,0,2,13,13,16.mid,experiment,0
33,82,18212,74,64,0,2,13,13,16.mid,experiment,0
34,84,19261,79,64,0,2,13,13,16.mid,experiment,0
35,86,19868,77,64,0,2,13,13,16.mid,experiment,0
36,88,20304,76,64,0,2,13,13,16.mid,experiment,0
37,90,20577,76,64,0,2,13,13,16.mid,experiment,0
38,92,20835,76,64,0,2,13,13,16.mid,experiment,0
39,94,21104,76,64,0,2,13,13,16.mid,experiment,0
40,97,21677,81,64,0,2,13,13,16.mid,experiment,0
41,99,21920,77,64,0,2,13,13,16.mid,experiment,0
42,101,22174,76,64,0,2,13,13,16.mid,experiment,0
43,103,22445,74,64,0,2,13,13,16.mid,experiment,0
44,105,22685,76,64,0,2,13,13,16.mid,experiment,0
45,107,22973,79,64,0,2,13,13,16.mid,experiment,0
46,109,23201,74,64,0,2,13,13,16.mid,experiment,0
47,110,23244,71,64,0,2,13,13,16.mid,experiment,0
48,112,23468,72,64,0,2,13,13,16.mid,experiment,0
49,114,23724,72,64,0,2,13,13,16.mid,experiment,0
50,116,23985,74,64,0,2,13,13,16.mid,experiment,0
51,118,24234,74,64,0,2,13,13,16.mid,experiment,0
52,120,24860,76,64,0,2,13,13,16.mid,experiment,0
53,122,25699,65,64,0,2,13,13,16.mid,experiment,0
54,124,25963,65,64,0,2,13,13,16.mid,experiment,0
55,126,26238,64,64,0,2,13,13,16.mid,experiment,0
56,128,26498,64,64,0,2,13,13,16.mid,experiment,0
57,130,27120,62,64,0,2,13,13,16.mid,experiment,0
58,132,28024,67,64,0,2,13,13,16.mid,experiment,0
59,134,28308,67,64,0,2,13,13,16.mid,experiment,0
60,136,28569,71,64,0,2,13,13,16.mid,experiment,0
61,138,28817,71,64,0,2,13,13,16.mid,experiment,0
62,140,29069,72,64,0,2,13,13,16.mid,experiment,0
63,142,29330,72,64,0,2,13,13,16.mid,experiment,0
64,144,29574,73,64,0,2,13,13,16.mid,experiment,0
65,146,29863,73,64,0,2,13,13,16.mid,experiment,0
66,148,30266,74,64,0,2,13,13,16.mid,experiment,0
67,150,30842,77,64,0,2,13,13,16.mid,experiment,0
68,152,31328,76,64,0,2,13,13,16.mid,experiment,0
69,154,31864,74,64,0,2,13,13,16.mid,experiment,0
70,156,32403,72,64,0,2,13,13,16.mid,experiment,0
71,158,32894,84,64,0,2,13,13,16.mid,experiment,0
72,160,33567,84,64,0,2,13,13,16.mid,experiment,0
1,19,8226,79,64,0,2,13,14,1.mid,experiment,0
2,21,8502,78,64,0,2,13,14,1.mid,experiment,0
3,23,8723,79,64,0,2,13,14,1.mid,experiment,0
4,25,9037,76,64,0,2,13,14,1.mid,experiment,0
5,26,9049,72,64,0,2,13,14,1.mid,experiment,0
6,28,9339,67,64,0,2,13,14,1.mid,experiment,0
7,30,9583,67,64,0,2,13,14,1.mid,experiment,0
8,32,9841,67,64,0,2,13,14,1.mid,experiment,0
9,35,10475,79,64,0,2,13,14,1.mid,experiment,0
10,37,10703,78,64,0,2,13,14,1.mid,experiment,0
11,39,10969,79,64,0,2,13,14,1.mid,experiment,0
12,41,11319,76,64,0,2,13,14,1.mid,experiment,0
13,43,11548,72,64,0,2,13,14,1.mid,experiment,0
14,45,11822,76,64,0,2,13,14,1.mid,experiment,0
15,47,12012,79,64,0,2,13,14,1.mid,experiment,0
16,49,12301,84,64,0,2,13,14,1.mid,experiment,0
17,50,12356,83,64,0,2,13,14,1.mid,experiment,0
18,52,12565,81,64,0,2,13,14,1.mid,experiment,0
19,54,12815,81,64,0,2,13,14,1.mid,experiment,0
20,56,13067,81,64,0,2,13,14,1.mid,experiment,0
21,59,13651,83,64,0,2,13,14,1.mid,experiment,0
22,61,13939,81,64,0,2,13,14,1.mid,experiment,0
23,63,14184,84,64,0,2,13,14,1.mid,experiment,0
24,64,14226,81,64,0,2,13,14,1.mid,experiment,0
25,67,14685,78,64,0,2,13,14,1.mid,experiment,0
26,68,14716,79,64,0,2,13,14,1.mid,experiment,0
27,70,15186,79,64,0,2,13,14,1.mid,experiment,0
28,72,15837,79,64,0,2,13,14,1.mid,experiment,0
29,74,16901,77,64,0,2,13,14,1.mid,experiment,0
30,76,17172,77,64,0,2,13,14,1.mid,experiment,0
31,78,17439,76,64,0,2,13,14,1.mid,experiment,0
32,80,17699,76,64,0,2,13,14,1.mid,experiment,0
33,82,18317,74,64,0,2,13,14,1.mid,experiment,0
34,84,19319,79,64,0,2,13,14,1.mid,experiment,0
35,86,19910,77,64,0,2,13,14,1.mid,experiment,0
36,88,20294,76,64,0,2,13,14,1.mid,experiment,0
37,90,20580,76,64,0,2,13,14,1.mid,experiment,0
38,92,20847,76,64,0,2,13,14,1.mid,experiment,0
39,94,21115,76,64,0,2,13,14,1.mid,experiment,0
40,97,21737,81,64,0,2,13,14,1.mid,experiment,0
41,99,21968,77,64,0,2,13,14,1.mid,experiment,0
42,101,22213,76,64,0,2,13,14,1.mid,experiment,0
43,103,22517,74,64,0,2,13,14,1.mid,experiment,0
44,105,22743,76,64,0,2,13,14,1.mid,experiment,0
45,107,23072,79,64,0,2,13,14,1.mid,experiment,0
46,109,23254,74,64,0,2,13,14,1.mid,experiment,0
47,110,23305,71,64,0,2,13,14,1.mid,experiment,0
48,112,23543,72,64,0,2,13,14,1.mid,experiment,0
49,114,23825,72,64,0,2,13,14,1.mid,experiment,0
50,116,24063,74,64,0,2,13,14,1.mid,experiment,0
51,118,24347,74,64,0,2,13,14,1.mid,experiment,0
52,120,24885,76,64,0,2,13,14,1.mid,experiment,0
53,122,25882,65,64,0,2,13,14,1.mid,experiment,0
54,124,26141,65,64,0,2,13,14,1.mid,experiment,0
55,126,26428,64,64,0,2,13,14,1.mid,experiment,0
56,128,26695,64,64,0,2,13,14,1.mid,experiment,0
57,130,27289,62,64,0,2,13,14,1.mid,experiment,0
58,132,28200,67,64,0,2,13,14,1.mid,experiment,0
59,134,28443,67,64,0,2,13,14,1.mid,experiment,0
60,136,28705,71,64,0,2,13,14,1.mid,experiment,0
61,138,28972,71,64,0,2,13,14,1.mid,experiment,0
62,140,29237,72,64,0,2,13,14,1.mid,experiment,0
63,142,29499,72,64,0,2,13,14,1.mid,experiment,0
64,144,29763,73,64,0,2,13,14,1.mid,experiment,0
65,146,30039,73,64,0,2,13,14,1.mid,experiment,0
66,148,30473,74,64,0,2,13,14,1.mid,experiment,0
67,150,31029,77,64,0,2,13,14,1.mid,experiment,0
68,152,31519,76,64,0,2,13,14,1.mid,experiment,0
69,154,32040,74,64,0,2,13,14,1.mid,experiment,0
70,156,32523,72,64,0,2,13,14,1.mid,experiment,0
71,158,33076,84,64,0,2,13,14,1.mid,experiment,0
72,160,34096,84,64,0,2,13,14,1.mid,experiment,0
1,19,8197,79,64,0,2,13,15,6.mid,experiment,0
2,21,8471,78,64,0,2,13,15,6.mid,experiment,0
3,23,8733,79,64,0,2,13,15,6.mid,experiment,0
4,25,8998,76,64,0,2,13,15,6.mid,experiment,0
5,26,9069,72,64,0,2,13,15,6.mid,experiment,0
6,28,9298,67,64,0,2,13,15,6.mid,experiment,0
7,30,9540,67,64,0,2,13,15,6.mid,experiment,0
8,32,9808,67,64,0,2,13,15,6.mid,experiment,0
9,35,10389,79,64,0,2,13,15,6.mid,experiment,0
10,37,10638,78,64,0,2,13,15,6.mid,experiment,0
11,39,10943,79,64,0,2,13,15,6.mid,experiment,0
12,41,11236,76,64,0,2,13,15,6.mid,experiment,0
13,43,11487,72,64,0,2,13,15,6.mid,experiment,0
14,45,11754,76,64,0,2,13,15,6.mid,experiment,0
15,47,11950,79,64,0,2,13,15,6.mid,experiment,0
16,49,12222,84,64,0,2,13,15,6.mid,experiment,0
17,50,12301,83,64,0,2,13,15,6.mid,experiment,0
18,52,12515,81,64,0,2,13,15,6.mid,experiment,0
19,54,12779,81,64,0,2,13,15,6.mid,experiment,0
20,56,13037,81,64,0,2,13,15,6.mid,experiment,0
21,59,13559,83,64,0,2,13,15,6.mid,experiment,0
22,61,13846,81,64,0,2,13,15,6.mid,experiment,0
23,63,14062,84,64,0,2,13,15,6.mid,experiment,0
24,64,14145,81,64,0,2,13,15,6.mid,experiment,0
25,67,14610,78,64,0,2,13,15,6.mid,experiment,0
26,68,14662,79,64,0,2,13,15,6.mid,experiment,0
27,70,15059,79,64,0,2,13,15,6.mid,experiment,0
28,72,15704,79,64,0,2,13,15,6.mid,experiment,0
29,74,16735,77,64,0,2,13,15,6.mid,experiment,0
30,76,16994,77,64,0,2,13,15,6.mid,experiment,0
31,78,17261,76,64,0,2,13,15,6.mid,experiment,0
32,80,17531,76,64,0,2,13,15,6.mid,experiment,0
33,82,18140,74,64,0,2,13,15,6.mid,experiment,0
34,84,19148,79,64,0,2,13,15,6.mid,experiment,0
35,86,19733,77,64,0,2,13,15,6.mid,experiment,0
36,88,20220,76,64,0,2,13,15,6.mid,experiment,0
37,90,20498,76,64,0,2,13,15,6.mid,experiment,0
38,92,20764,76,64,0,2,13,15,6.mid,experiment,0
39,94,21019,76,64,0,2,13,15,6.mid,experiment,0
40,97,21608,81,64,0,2,13,15,6.mid,experiment,0
41,99,21853,77,64,0,2,13,15,6.mid,experiment,0
42,101,22100,76,64,0,2,13,15,6.mid,experiment,0
43,103,22364,74,64,0,2,13,15,6.mid,experiment,0
44,105,22614,76,64,0,2,13,15,6.mid,experiment,0
45,107,22898,79,64,0,2,13,15,6.mid,experiment,0
46,109,23140,74,64,0,2,13,15,6.mid,experiment,0
47,110,23184,71,64,0,2,13,15,6.mid,experiment,0
48,112,23425,72,64,0,2,13,15,6.mid,experiment,0
49,114,23682,72,64,0,2,13,15,6.mid,experiment,0
50,116,23923,74,64,0,2,13,15,6.mid,experiment,0
51,118,24193,74,64,0,2,13,15,6.mid,experiment,0
52,120,24776,76,64,0,2,13,15,6.mid,experiment,0
53,122,25719,65,64,0,2,13,15,6.mid,experiment,0
54,124,25981,65,64,0,2,13,15,6.mid,experiment,0
55,126,26247,64,64,0,2,13,15,6.mid,experiment,0
56,128,26527,64,64,0,2,13,15,6.mid,experiment,0
57,130,27050,62,64,0,2,13,15,6.mid,experiment,0
58,132,28027,67,64,0,2,13,15,6.mid,experiment,0
59,134,28310,67,64,0,2,13,15,6.mid,experiment,0
60,136,28576,71,64,0,2,13,15,6.mid,experiment,0
61,138,28833,71,64,0,2,13,15,6.mid,experiment,0
62,140,29097,72,64,0,2,13,15,6.mid,experiment,0
63,142,29358,72,64,0,2,13,15,6.mid,experiment,0
64,144,29609,73,64,0,2,13,15,6.mid,experiment,0
65,146,29881,73,64,0,2,13,15,6.mid,experiment,0
66,148,30345,74,64,0,2,13,15,6.mid,experiment,0
67,150,30917,77,64,0,2,13,15,6.mid,experiment,0
68,152,31421,76,64,0,2,13,15,6.mid,experiment,0
69,154,31930,74,64,0,2,13,15,6.mid,experiment,0
70,156,32466,72,64,0,2,13,15,6.mid,experiment,0
71,158,32988,84,64,0,2,13,15,6.mid,experiment,0
72,160,33719,84,64,0,2,13,15,6.mid,experiment,0
1,19,8230,79,64,0,2,13,16,10.mid,experiment,0
2,21,8545,78,64,0,2,13,16,10.mid,experiment,0
3,23,8777,79,64,0,2,13,16,10.mid,experiment,0
4,25,9028,76,64,0,2,13,16,10.mid,experiment,0
5,26,9044,72,64,0,2,13,16,10.mid,experiment,0
6,28,9324,67,64,0,2,13,16,10.mid,experiment,0
7,30,9575,67,64,0,2,13,16,10.mid,experiment,0
8,32,9843,67,64,0,2,13,16,10.mid,experiment,0
9,35,10452,79,64,0,2,13,16,10.mid,experiment,0
10,37,10675,78,64,0,2,13,16,10.mid,experiment,0
11,39,10989,79,64,0,2,13,16,10.mid,experiment,0
12,41,11301,76,64,0,2,13,16,10.mid,experiment,0
13,43,11541,72,64,0,2,13,16,10.mid,experiment,0
14,45,11814,76,64,0,2,13,16,10.mid,experiment,0
15,47,12005,79,64,0,2,13,16,10.mid,experiment,0
16,49,12284,84,64,0,2,13,16,10.mid,experiment,0
17,50,12354,83,64,0,2,13,16,10.mid,experiment,0
18,52,12559,81,64,0,2,13,16,10.mid,experiment,0
19,54,12809,81,64,0,2,13,16,10.mid,experiment,0
20,56,13064,81,64,0,2,13,16,10.mid,experiment,0
21,59,13593,83,64,0,2,13,16,10.mid,experiment,0
22,61,13864,81,64,0,2,13,16,10.mid,experiment,0
23,63,14106,84,64,0,2,13,16,10.mid,experiment,0
24,64,14179,81,64,0,2,13,16,10.mid,experiment,0
25,67,14641,78,64,0,2,13,16,10.mid,experiment,0
26,68,14691,79,64,0,2,13,16,10.mid,experiment,0
27,70,15098,79,64,0,2,13,16,10.mid,experiment,0
28,72,15771,79,64,0,2,13,16,10.mid,experiment,0
29,74,16791,77,64,0,2,13,16,10.mid,experiment,0
30,76,17046,77,64,0,2,13,16,10.mid,experiment,0
31,78,17330,76,64,0,2,13,16,10.mid,experiment,0
32,80,17581,76,64,0,2,13,16,10.mid,experiment,0
33,82,18151,74,64,0,2,13,16,10.mid,experiment,0
34,84,19198,79,64,0,2,13,16,10.mid,experiment,0
35,86,19808,77,64,0,2,13,16,10.mid,experiment,0
36,88,20260,76,64,0,2,13,16,10.mid,experiment,0
37,90,20524,76,64,0,2,13,16,10.mid,experiment,0
38,92,20790,76,64,0,2,13,16,10.mid,experiment,0
39,94,21045,76,64,0,2,13,16,10.mid,experiment,0
40,97,21647,81,64,0,2,13,16,10.mid,experiment,0
41,99,21904,77,64,0,2,13,16,10.mid,experiment,0
42,101,22150,76,64,0,2,13,16,10.mid,experiment,0
43,103,22427,74,64,0,2,13,16,10.mid,experiment,0
44,105,22669,76,64,0,2,13,16,10.mid,experiment,0
45,107,22992,79,64,0,2,13,16,10.mid,experiment,0
46,109,23201,74,64,0,2,13,16,10.mid,experiment,0
47,110,23268,71,64,0,2,13,16,10.mid,experiment,0
48,112,23497,72,64,0,2,13,16,10.mid,experiment,0
49,114,23743,72,64,0,2,13,16,10.mid,experiment,0
50,116,23994,74,64,0,2,13,16,10.mid,experiment,0
51,118,24257,74,64,0,2,13,16,10.mid,experiment,0
52,120,24824,76,64,0,2,13,16,10.mid,experiment,0
53,122,25728,65,64,0,2,13,16,10.mid,experiment,0
54,124,25987,65,64,0,2,13,16,10.mid,experiment,0
55,126,26249,64,64,0,2,13,16,10.mid,experiment,0
56,128,26522,64,64,0,2,13,16,10.mid,experiment,0
57,130,27098,62,64,0,2,13,16,10.mid,experiment,0
58,132,28044,67,64,0,2,13,16,10.mid,experiment,0
59,134,28313,67,64,0,2,13,16,10.mid,experiment,0
60,136,28566,71,64,0,2,13,16,10.mid,experiment,0
61,138,28838,71,64,0,2,13,16,10.mid,experiment,0
62,140,29083,72,64,0,2,13,16,10.mid,experiment,0
63,142,29352,72,64,0,2,13,16,10.mid,experiment,0
64,144,29621,73,64,0,2,13,16,10.mid,experiment,0
65,146,29864,73,64,0,2,13,16,10.mid,experiment,0
66,148,30289,74,64,0,2,13,16,10.mid,experiment,0
67,150,30848,77,64,0,2,13,16,10.mid,experiment,0
68,152,31348,76,64,0,2,13,16,10.mid,experiment,0
69,154,31809,74,64,0,2,13,16,10.mid,experiment,0
70,156,32318,72,64,0,2,13,16,10.mid,experiment,0
71,158,32855,84,64,0,2,13,16,10.mid,experiment,0
72,160,33515,84,64,0,2,13,16,10.mid,experiment,0
1,19,8216,79,64,0,2,14,1,3.mid,experiment,0
2,21,8526,78,64,0,2,14,1,3.mid,experiment,0
3,23,8778,79,64,0,2,14,1,3.mid,experiment,0
4,25,9063,76,64,0,2,14,1,3.mid,experiment,0
5,26,9295,72,64,0,2,14,1,3.mid,experiment,0
6,28,9418,67,64,0,2,14,1,3.mid,experiment,0
7,30,9710,67,64,0,2,14,1,3.mid,experiment,0
8,32,10042,67,64,0,2,14,1,3.mid,experiment,0
9,35,10658,79,64,0,2,14,1,3.mid,experiment,0
10,37,10944,78,64,0,2,14,1,3.mid,experiment,0
11,39,11220,79,64,0,2,14,1,3.mid,experiment,0
12,41,11527,76,64,0,2,14,1,3.mid,experiment,0
13,43,11849,72,64,0,2,14,1,3.mid,experiment,0
14,45,12153,76,64,0,2,14,1,3.mid,experiment,0
15,47,12439,79,64,0,2,14,1,3.mid,experiment,0
16,49,12788,84,64,0,2,14,1,3.mid,experiment,0
17,50,12980,83,64,0,2,14,1,3.mid,experiment,0
18,52,13102,81,64,0,2,14,1,3.mid,experiment,0
19,54,13382,81,64,0,2,14,1,3.mid,experiment,0
20,56,13676,81,64,0,2,14,1,3.mid,experiment,0
21,59,14288,83,64,0,2,14,1,3.mid,experiment,0
22,61,14553,81,64,0,2,14,1,3.mid,experiment,0
23,63,14864,84,64,0,2,14,1,3.mid,experiment,0
24,65,15146,81,64,0,2,14,1,3.mid,experiment,0
25,67,15447,78,64,0,2,14,1,3.mid,experiment,0
26,68,15514,79,64,0,2,14,1,3.mid,experiment,0
27,70,15832,79,64,0,2,14,1,3.mid,experiment,0
28,72,16978,79,64,0,2,14,1,3.mid,experiment,0
29,74,17542,77,64,0,2,14,1,3.mid,experiment,0
30,76,17832,77,64,0,2,14,1,3.mid,experiment,0
31,78,18144,76,64,0,2,14,1,3.mid,experiment,0
32,80,18464,76,64,0,2,14,1,3.mid,experiment,0
33,82,19406,74,64,0,2,14,1,3.mid,experiment,0
34,85,20557,79,64,0,2,14,1,3.mid,experiment,0
35,86,21148,77,64,0,2,14,1,3.mid,experiment,0
36,88,21252,76,64,0,2,14,1,3.mid,experiment,0
37,90,21552,76,64,0,2,14,1,3.mid,experiment,0
38,92,21836,76,64,0,2,14,1,3.mid,experiment,0
39,94,22116,76,64,0,2,14,1,3.mid,experiment,0
40,97,22716,81,64,0,2,14,1,3.mid,experiment,0
41,99,22964,77,64,0,2,14,1,3.mid,experiment,0
42,101,23245,76,64,0,2,14,1,3.mid,experiment,0
43,103,23545,74,64,0,2,14,1,3.mid,experiment,0
44,105,23858,76,64,0,2,14,1,3.mid,experiment,0
45,107,24133,79,64,0,2,14,1,3.mid,experiment,0
46,109,24426,74,64,0,2,14,1,3.mid,experiment,0
47,110,24644,71,64,0,2,14,1,3.mid,experiment,0
48,112,24760,72,64,0,2,14,1,3.mid,experiment,0
49,114,25068,72,64,0,2,14,1,3.mid,experiment,0
50,116,25348,74,64,0,2,14,1,3.mid,experiment,0
51,118,25654,74,64,0,2,14,1,3.mid,experiment,0
52,120,26530,76,64,0,2,14,1,3.mid,experiment,0
53,122,27204,65,64,0,2,14,1,3.mid,experiment,0
54,124,27483,65,64,0,2,14,1,3.mid,experiment,0
55,126,27768,64,64,0,2,14,1,3.mid,experiment,0
56,128,28054,64,64,0,2,14,1,3.mid,experiment,0
57,130,28860,62,64,0,2,14,1,3.mid,experiment,0
58,132,29530,67,64,0,2,14,1,3.mid,experiment,0
59,134,29814,67,64,0,2,14,1,3.mid,experiment,0
60,136,30110,71,64,0,2,14,1,3.mid,experiment,0
61,138,30392,71,64,0,2,14,1,3.mid,experiment,0
62,140,30686,72,64,0,2,14,1,3.mid,experiment,0
63,142,30964,72,64,0,2,14,1,3.mid,experiment,0
64,144,31245,73,64,0,2,14,1,3.mid,experiment,0
65,146,31543,73,64,0,2,14,1,3.mid,experiment,0
66,149,32366,74,64,0,2,14,1,3.mid,experiment,0
67,151,32896,77,64,0,2,14,1,3.mid,experiment,0
68,153,33474,76,64,0,2,14,1,3.mid,experiment,0
69,155,34058,74,64,0,2,14,1,3.mid,experiment,0
70,156,34408,72,64,0,2,14,1,3.mid,experiment,0
71,158,34751,84,64,0,2,14,1,3.mid,experiment,0
72,160,35944,84,64,0,2,14,1,3.mid,experiment,0
1,19,8183,79,64,0,2,14,2,6.mid,experiment,0
2,21,8499,78,64,0,2,14,2,6.mid,experiment,0
3,23,8762,79,64,0,2,14,2,6.mid,experiment,0
4,25,9092,76,64,0,2,14,2,6.mid,experiment,0
5,26,9340,72,64,0,2,14,2,6.mid,experiment,0
6,28,9413,67,64,0,2,14,2,6.mid,experiment,0
7,30,9697,67,64,0,2,14,2,6.mid,experiment,0
8,32,10010,67,64,0,2,14,2,6.mid,experiment,0
9,35,10643,79,64,0,2,14,2,6.mid,experiment,0
10,37,11085,78,64,0,2,14,2,6.mid,experiment,0
11,39,11243,79,64,0,2,14,2,6.mid,experiment,0
12,41,11499,76,64,0,2,14,2,6.mid,experiment,0
13,43,11814,72,64,0,2,14,2,6.mid,experiment,0
14,45,12140,76,64,0,2,14,2,6.mid,experiment,0
15,47,12379,79,64,0,2,14,2,6.mid,experiment,0
16,49,12703,84,64,0,2,14,2,6.mid,experiment,0
17,50,12907,83,64,0,2,14,2,6.mid,experiment,0
18,52,12988,81,64,0,2,14,2,6.mid,experiment,0
19,54,13291,81,64,0,2,14,2,6.mid,experiment,0
20,56,13616,81,64,0,2,14,2,6.mid,experiment,0
21,59,14211,83,64,0,2,14,2,6.mid,experiment,0
22,61,14472,81,64,0,2,14,2,6.mid,experiment,0
23,63,14761,84,64,0,2,14,2,6.mid,experiment,0
24,64,14990,81,64,0,2,14,2,6.mid,experiment,0
25,66,15292,78,64,0,2,14,2,6.mid,experiment,0
26,68,15377,79,64,0,2,14,2,6.mid,experiment,0
27,70,15851,79,64,0,2,14,2,6.mid,experiment,0
28,72,16848,79,64,0,2,14,2,6.mid,experiment,0
29,74,17466,77,64,0,2,14,2,6.mid,experiment,0
30,76,17749,77,64,0,2,14,2,6.mid,experiment,0
31,78,18046,76,64,0,2,14,2,6.mid,experiment,0
32,80,18331,76,64,0,2,14,2,6.mid,experiment,0
33,82,19163,74,64,0,2,14,2,6.mid,experiment,0
34,85,20403,79,64,0,2,14,2,6.mid,experiment,0
35,86,20914,77,64,0,2,14,2,6.mid,experiment,0
36,88,21029,76,64,0,2,14,2,6.mid,experiment,0
37,90,21303,76,64,0,2,14,2,6.mid,experiment,0
38,92,21602,76,64,0,2,14,2,6.mid,experiment,0
39,94,21909,76,64,0,2,14,2,6.mid,experiment,0
40,97,22442,81,64,0,2,14,2,6.mid,experiment,0
41,99,22705,77,64,0,2,14,2,6.mid,experiment,0
42,101,22960,76,64,0,2,14,2,6.mid,experiment,0
43,103,23263,74,64,0,2,14,2,6.mid,experiment,0
44,105,23568,76,64,0,2,14,2,6.mid,experiment,0
45,107,23790,79,64,0,2,14,2,6.mid,experiment,0
46,109,24061,74,64,0,2,14,2,6.mid,experiment,0
47,110,24314,71,64,0,2,14,2,6.mid,experiment,0
48,112,24410,72,64,0,2,14,2,6.mid,experiment,0
49,114,24685,72,64,0,2,14,2,6.mid,experiment,0
50,116,24968,74,64,0,2,14,2,6.mid,experiment,0
51,118,25261,74,64,0,2,14,2,6.mid,experiment,0
52,120,26107,76,64,0,2,14,2,6.mid,experiment,0
53,122,26707,65,64,0,2,14,2,6.mid,experiment,0
54,124,26996,65,64,0,2,14,2,6.mid,experiment,0
55,126,27255,64,64,0,2,14,2,6.mid,experiment,0
56,128,27551,64,64,0,2,14,2,6.mid,experiment,0
57,130,28467,62,64,0,2,14,2,6.mid,experiment,0
58,132,29011,67,64,0,2,14,2,6.mid,experiment,0
59,134,29294,67,64,0,2,14,2,6.mid,experiment,0
60,136,29589,71,64,0,2,14,2,6.mid,experiment,0
61,138,29872,71,64,0,2,14,2,6.mid,experiment,0
62,140,30165,72,64,0,2,14,2,6.mid,experiment,0
63,142,30450,72,64,0,2,14,2,6.mid,experiment,0
64,144,30720,73,64,0,2,14,2,6.mid,experiment,0
65,146,30997,73,64,0,2,14,2,6.mid,experiment,0
66,149,31839,74,64,0,2,14,2,6.mid,experiment,0
67,151,32377,77,64,0,2,14,2,6.mid,experiment,0
68,153,32943,76,64,0,2,14,2,6.mid,experiment,0
69,155,33484,74,64,0,2,14,2,6.mid,experiment,0
70,156,33906,72,64,0,2,14,2,6.mid,experiment,0
71,158,34323,84,64,0,2,14,2,6.mid,experiment,0
72,160,35522,84,64,0,2,14,2,6.mid,experiment,0
1,19,8167,79,64,0,2,14,3,14.mid,experiment,0
2,21,8496,78,64,0,2,14,3,14.mid,experiment,0
3,23,8727,79,64,0,2,14,3,14.mid,experiment,0
4,25,9030,76,64,0,2,14,3,14.mid,experiment,0
5,26,9249,72,64,0,2,14,3,14.mid,experiment,0
6,28,9344,67,64,0,2,14,3,14.mid,experiment,0
7,30,9618,67,64,0,2,14,3,14.mid,experiment,0
8,32,9918,67,64,0,2,14,3,14.mid,experiment,0
9,35,10525,79,64,0,2,14,3,14.mid,experiment,0
10,37,10807,78,64,0,2,14,3,14.mid,experiment,0
11,39,11052,79,64,0,2,14,3,14.mid,experiment,0
12,41,11338,76,64,0,2,14,3,14.mid,experiment,0
13,43,11653,72,64,0,2,14,3,14.mid,experiment,0
14,45,11949,76,64,0,2,14,3,14.mid,experiment,0
15,47,12207,79,64,0,2,14,3,14.mid,experiment,0
16,49,12536,84,64,0,2,14,3,14.mid,experiment,0
17,50,12738,83,64,0,2,14,3,14.mid,experiment,0
18,52,12796,81,64,0,2,14,3,14.mid,experiment,0
19,54,13101,81,64,0,2,14,3,14.mid,experiment,0
20,56,13392,81,64,0,2,14,3,14.mid,experiment,0
21,59,13967,83,64,0,2,14,3,14.mid,experiment,0
22,61,14225,81,64,0,2,14,3,14.mid,experiment,0
23,63,14499,84,64,0,2,14,3,14.mid,experiment,0
24,65,14768,81,64,0,2,14,3,14.mid,experiment,0
25,67,15119,78,64,0,2,14,3,14.mid,experiment,0
26,68,15286,79,64,0,2,14,3,14.mid,experiment,0
27,70,15863,79,64,0,2,14,3,14.mid,experiment,0
28,72,16745,79,64,0,2,14,3,14.mid,experiment,0
29,74,17205,77,64,0,2,14,3,14.mid,experiment,0
30,76,17508,77,64,0,2,14,3,14.mid,experiment,0
31,78,17784,76,64,0,2,14,3,14.mid,experiment,0
32,80,18087,76,64,0,2,14,3,14.mid,experiment,0
33,82,18858,74,64,0,2,14,3,14.mid,experiment,0
34,85,20143,79,64,0,2,14,3,14.mid,experiment,0
35,86,20673,77,64,0,2,14,3,14.mid,experiment,0
36,88,20777,76,64,0,2,14,3,14.mid,experiment,0
37,90,21074,76,64,0,2,14,3,14.mid,experiment,0
38,92,21340,76,64,0,2,14,3,14.mid,experiment,0
39,94,21599,76,64,0,2,14,3,14.mid,experiment,0
40,97,22169,81,64,0,2,14,3,14.mid,experiment,0
41,99,22411,77,64,0,2,14,3,14.mid,experiment,0
42,100,22668,76,64,0,2,14,3,14.mid,experiment,0
43,103,22988,74,64,0,2,14,3,14.mid,experiment,0
44,105,23317,76,64,0,2,14,3,14.mid,experiment,0
45,107,23540,79,64,0,2,14,3,14.mid,experiment,0
46,108,23766,74,64,0,2,14,3,14.mid,experiment,0
47,110,23964,71,64,0,2,14,3,14.mid,experiment,0
48,112,24115,72,64,0,2,14,3,14.mid,experiment,0
49,114,24376,72,64,0,2,14,3,14.mid,experiment,0
50,116,24652,74,64,0,2,14,3,14.mid,experiment,0
51,118,24912,74,64,0,2,14,3,14.mid,experiment,0
52,120,25754,76,64,0,2,14,3,14.mid,experiment,0
53,122,26366,65,64,0,2,14,3,14.mid,experiment,0
54,124,26655,65,64,0,2,14,3,14.mid,experiment,0
55,126,26915,64,64,0,2,14,3,14.mid,experiment,0
56,128,27212,64,64,0,2,14,3,14.mid,experiment,0
57,130,28049,62,64,0,2,14,3,14.mid,experiment,0
58,132,28665,67,64,0,2,14,3,14.mid,experiment,0
59,134,28935,67,64,0,2,14,3,14.mid,experiment,0
60,136,29225,71,64,0,2,14,3,14.mid,experiment,0
61,138,29492,71,64,0,2,14,3,14.mid,experiment,0
62,140,29779,72,64,0,2,14,3,14.mid,experiment,0
63,142,30059,72,64,0,2,14,3,14.mid,experiment,0
64,144,30336,73,64,0,2,14,3,14.mid,experiment,0
65,146,30630,73,64,0,2,14,3,14.mid,experiment,0
66,149,31481,74,64,0,2,14,3,14.mid,experiment,0
67,151,32006,77,64,0,2,14,3,14.mid,experiment,0
68,153,32570,76,64,0,2,14,3,14.mid,experiment,0
69,154,33119,74,64,0,2,14,3,14.mid,experiment,0
70,156,33611,72,64,0,2,14,3,14.mid,experiment,0
71,158,33986,84,64,0,2,14,3,14.mid,experiment,0
72,160,34986,84,64,0,2,14,3,14.mid,experiment,0
1,19,8179,79,64,0,2,14,4,9.mid,experiment,0
2,21,8486,78,64,0,2,14,4,9.mid,experiment,0
3,23,8752,79,64,0,2,14,4,9.mid,experiment,0
4,25,9082,76,64,0,2,14,4,9.mid,experiment,0
5,26,9300,72,64,0,2,14,4,9.mid,experiment,0
6,28,9387,67,64,0,2,14,4,9.mid,experiment,0
7,30,9678,67,64,0,2,14,4,9.mid,experiment,0
8,32,9961,67,64,0,2,14,4,9.mid,experiment,0
9,35,10550,79,64,0,2,14,4,9.mid,experiment,0
10,37,10828,78,64,0,2,14,4,9.mid,experiment,0
11,39,11129,79,64,0,2,14,4,9.mid,experiment,0
12,41,11366,76,64,0,2,14,4,9.mid,experiment,0
13,43,11667,72,64,0,2,14,4,9.mid,experiment,0
14,45,11981,76,64,0,2,14,4,9.mid,experiment,0
15,47,12215,79,64,0,2,14,4,9.mid,experiment,0
16,49,12534,84,64,0,2,14,4,9.mid,experiment,0
17,50,12758,83,64,0,2,14,4,9.mid,experiment,0
18,52,12817,81,64,0,2,14,4,9.mid,experiment,0
19,54,13109,81,64,0,2,14,4,9.mid,experiment,0
20,56,13421,81,64,0,2,14,4,9.mid,experiment,0
21,59,13969,83,64,0,2,14,4,9.mid,experiment,0
22,61,14244,81,64,0,2,14,4,9.mid,experiment,0
23,63,14520,84,64,0,2,14,4,9.mid,experiment,0
24,65,14801,81,64,0,2,14,4,9.mid,experiment,0
25,67,15069,78,64,0,2,14,4,9.mid,experiment,0
26,68,15170,79,64,0,2,14,4,9.mid,experiment,0
27,70,15484,79,64,0,2,14,4,9.mid,experiment,0
28,72,16612,79,64,0,2,14,4,9.mid,experiment,0
29,74,17086,77,64,0,2,14,4,9.mid,experiment,0
30,76,17382,77,64,0,2,14,4,9.mid,experiment,0
31,78,17650,76,64,0,2,14,4,9.mid,experiment,0
32,80,17931,76,64,0,2,14,4,9.mid,experiment,0
33,82,18861,74,64,0,2,14,4,9.mid,experiment,0
34,85,19925,79,64,0,2,14,4,9.mid,experiment,0
35,87,20446,77,64,0,2,14,4,9.mid,experiment,0
36,88,20544,76,64,0,2,14,4,9.mid,experiment,0
37,90,20816,76,64,0,2,14,4,9.mid,experiment,0
38,92,21081,76,64,0,2,14,4,9.mid,experiment,0
39,94,21361,76,64,0,2,14,4,9.mid,experiment,0
40,97,21925,81,64,0,2,14,4,9.mid,experiment,0
41,99,22159,77,64,0,2,14,4,9.mid,experiment,0
42,101,22390,76,64,0,2,14,4,9.mid,experiment,0
43,103,22694,74,64,0,2,14,4,9.mid,experiment,0
44,105,22971,76,64,0,2,14,4,9.mid,experiment,0
45,107,23266,79,64,0,2,14,4,9.mid,experiment,0
46,109,23501,74,64,0,2,14,4,9.mid,experiment,0
47,110,23730,71,64,0,2,14,4,9.mid,experiment,0
48,112,23844,72,64,0,2,14,4,9.mid,experiment,0
49,114,24118,72,64,0,2,14,4,9.mid,experiment,0
50,116,24403,74,64,0,2,14,4,9.mid,experiment,0
51,118,24670,74,64,0,2,14,4,9.mid,experiment,0
52,120,25549,76,64,0,2,14,4,9.mid,experiment,0
53,122,26128,65,64,0,2,14,4,9.mid,experiment,0
54,124,26420,65,64,0,2,14,4,9.mid,experiment,0
55,126,26690,64,64,0,2,14,4,9.mid,experiment,0
56,128,26953,64,64,0,2,14,4,9.mid,experiment,0
57,130,27873,62,64,0,2,14,4,9.mid,experiment,0
58,132,28459,67,64,0,2,14,4,9.mid,experiment,0
59,134,28768,67,64,0,2,14,4,9.mid,experiment,0
60,136,29052,71,64,0,2,14,4,9.mid,experiment,0
61,138,29319,71,64,0,2,14,4,9.mid,experiment,0
62,140,29610,72,64,0,2,14,4,9.mid,experiment,0
63,142,29895,72,64,0,2,14,4,9.mid,experiment,0
64,144,30141,73,64,0,2,14,4,9.mid,experiment,0
65,146,30424,73,64,0,2,14,4,9.mid,experiment,0
66,149,31172,74,64,0,2,14,4,9.mid,experiment,0
67,151,31761,77,64,0,2,14,4,9.mid,experiment,0
68,153,32317,76,64,0,2,14,4,9.mid,experiment,0
69,155,32854,74,64,0,2,14,4,9.mid,experiment,0
70,156,33321,72,64,0,2,14,4,9.mid,experiment,0
71,158,33728,84,64,0,2,14,4,9.mid,experiment,0
72,160,34945,84,64,0,2,14,4,9.mid,experiment,0
1,19,8196,79,64,0,2,14,5,11.mid,experiment,0
2,21,8531,78,64,0,2,14,5,11.mid,experiment,0
3,23,8761,79,64,0,2,14,5,11.mid,experiment,0
4,25,9067,76,64,0,2,14,5,11.mid,experiment,0
5,26,9296,72,64,0,2,14,5,11.mid,experiment,0
6,28,9368,67,64,0,2,14,5,11.mid,experiment,0
7,30,9689,67,64,0,2,14,5,11.mid,experiment,0
8,32,10007,67,64,0,2,14,5,11.mid,experiment,0
9,35,10580,79,64,0,2,14,5,11.mid,experiment,0
10,37,10912,78,64,0,2,14,5,11.mid,experiment,0
11,39,11143,79,64,0,2,14,5,11.mid,experiment,0
12,41,11462,76,64,0,2,14,5,11.mid,experiment,0
13,43,11719,72,64,0,2,14,5,11.mid,experiment,0
14,45,12050,76,64,0,2,14,5,11.mid,experiment,0
15,47,12286,79,64,0,2,14,5,11.mid,experiment,0
16,49,12625,84,64,0,2,14,5,11.mid,experiment,0
17,51,12855,83,64,0,2,14,5,11.mid,experiment,0
18,52,12952,81,64,0,2,14,5,11.mid,experiment,0
19,54,13226,81,64,0,2,14,5,11.mid,experiment,0
20,56,13537,81,64,0,2,14,5,11.mid,experiment,0
21,59,14103,83,64,0,2,14,5,11.mid,experiment,0
22,61,14371,81,64,0,2,14,5,11.mid,experiment,0
23,63,14644,84,64,0,2,14,5,11.mid,experiment,0
24,65,14942,81,64,0,2,14,5,11.mid,experiment,0
25,67,15217,78,64,0,2,14,5,11.mid,experiment,0
26,68,15417,79,64,0,2,14,5,11.mid,experiment,0
27,70,15920,79,64,0,2,14,5,11.mid,experiment,0
28,72,16874,79,64,0,2,14,5,11.mid,experiment,0
29,74,17625,77,64,0,2,14,5,11.mid,experiment,0
30,76,17908,77,64,0,2,14,5,11.mid,experiment,0
31,78,18183,76,64,0,2,14,5,11.mid,experiment,0
32,80,18506,76,64,0,2,14,5,11.mid,experiment,0
33,82,19378,74,64,0,2,14,5,11.mid,experiment,0
34,85,20583,79,64,0,2,14,5,11.mid,experiment,0
35,87,21089,77,64,0,2,14,5,11.mid,experiment,0
36,88,21194,76,64,0,2,14,5,11.mid,experiment,0
37,90,21476,76,64,0,2,14,5,11.mid,experiment,0
38,92,21753,76,64,0,2,14,5,11.mid,experiment,0
39,94,22072,76,64,0,2,14,5,11.mid,experiment,0
40,97,22657,81,64,0,2,14,5,11.mid,experiment,0
41,99,22890,77,64,0,2,14,5,11.mid,experiment,0
42,101,23125,76,64,0,2,14,5,11.mid,experiment,0
43,103,23425,74,64,0,2,14,5,11.mid,experiment,0
44,105,23706,76,64,0,2,14,5,11.mid,experiment,0
45,107,24032,79,64,0,2,14,5,11.mid,experiment,0
46,109,24258,74,64,0,2,14,5,11.mid,experiment,0
47,110,24482,71,64,0,2,14,5,11.mid,experiment,0
48,112,24593,72,64,0,2,14,5,11.mid,experiment,0
49,114,24876,72,64,0,2,14,5,11.mid,experiment,0
50,116,25157,74,64,0,2,14,5,11.mid,experiment,0
51,118,25445,74,64,0,2,14,5,11.mid,experiment,0
52,120,26320,76,64,0,2,14,5,11.mid,experiment,0
53,122,26913,65,64,0,2,14,5,11.mid,experiment,0
54,124,27218,65,64,0,2,14,5,11.mid,experiment,0
55,126,27496,64,64,0,2,14,5,11.mid,experiment,0
56,128,27789,64,64,0,2,14,5,11.mid,experiment,0
57,130,28656,62,64,0,2,14,5,11.mid,experiment,0
58,132,29276,67,64,0,2,14,5,11.mid,experiment,0
59,134,29549,67,64,0,2,14,5,11.mid,experiment,0
60,136,29853,71,64,0,2,14,5,11.mid,experiment,0
61,138,30123,71,64,0,2,14,5,11.mid,experiment,0
62,140,30415,72,64,0,2,14,5,11.mid,experiment,0
63,142,30706,72,64,0,2,14,5,11.mid,experiment,0
64,144,30968,73,64,0,2,14,5,11.mid,experiment,0
65,146,31292,73,64,0,2,14,5,11.mid,experiment,0
66,149,32114,74,64,0,2,14,5,11.mid,experiment,0
67,151,32662,77,64,0,2,14,5,11.mid,experiment,0
68,153,33221,76,64,0,2,14,5,11.mid,experiment,0
69,155,33755,74,64,0,2,14,5,11.mid,experiment,0
70,156,34247,72,64,0,2,14,5,11.mid,experiment,0
71,158,34668,84,64,0,2,14,5,11.mid,experiment,0
72,160,35616,84,64,0,2,14,5,11.mid,experiment,0
1,19,8172,79,64,0,2,14,7,1.mid,experiment,0
2,21,8472,78,64,0,2,14,7,1.mid,experiment,0
3,23,8716,79,64,0,2,14,7,1.mid,experiment,0
4,25,9006,76,64,0,2,14,7,1.mid,experiment,0
5,26,9243,72,64,0,2,14,7,1.mid,experiment,0
6,28,9300,67,64,0,2,14,7,1.mid,experiment,0
7,30,9588,67,64,0,2,14,7,1.mid,experiment,0
8,32,9890,67,64,0,2,14,7,1.mid,experiment,0
9,35,10484,79,64,0,2,14,7,1.mid,experiment,0
10,37,10748,78,64,0,2,14,7,1.mid,experiment,0
11,39,11004,79,64,0,2,14,7,1.mid,experiment,0
12,41,11352,76,64,0,2,14,7,1.mid,experiment,0
13,43,11628,72,64,0,2,14,7,1.mid,experiment,0
14,45,11938,76,64,0,2,14,7,1.mid,experiment,0
15,47,12184,79,64,0,2,14,7,1.mid,experiment,0
16,49,12490,84,64,0,2,14,7,1.mid,experiment,0
17,50,12694,83,64,0,2,14,7,1.mid,experiment,0
18,52,12754,81,64,0,2,14,7,1.mid,experiment,0
19,54,13058,81,64,0,2,14,7,1.mid,experiment,0
20,56,13380,81,64,0,2,14,7,1.mid,experiment,0
21,59,13959,83,64,0,2,14,7,1.mid,experiment,0
22,61,14232,81,64,0,2,14,7,1.mid,experiment,0
23,63,14512,84,64,0,2,14,7,1.mid,experiment,0
24,65,14798,81,64,0,2,14,7,1.mid,experiment,0
25,67,15046,78,64,0,2,14,7,1.mid,experiment,0
26,68,15186,79,64,0,2,14,7,1.mid,experiment,0
27,70,15577,79,64,0,2,14,7,1.mid,experiment,0
28,72,16568,79,64,0,2,14,7,1.mid,experiment,0
29,74,17108,77,64,0,2,14,7,1.mid,experiment,0
30,76,17386,77,64,0,2,14,7,1.mid,experiment,0
31,78,17652,76,64,0,2,14,7,1.mid,experiment,0
32,80,17938,76,64,0,2,14,7,1.mid,experiment,0
33,82,18713,74,64,0,2,14,7,1.mid,experiment,0
34,85,20036,79,64,0,2,14,7,1.mid,experiment,0
35,86,20486,77,64,0,2,14,7,1.mid,experiment,0
36,88,20590,76,64,0,2,14,7,1.mid,experiment,0
37,90,20860,76,64,0,2,14,7,1.mid,experiment,0
38,92,21136,76,64,0,2,14,7,1.mid,experiment,0
39,94,21419,76,64,0,2,14,7,1.mid,experiment,0
40,97,21970,81,64,0,2,14,7,1.mid,experiment,0
41,99,22206,77,64,0,2,14,7,1.mid,experiment,0
42,101,22486,76,64,0,2,14,7,1.mid,experiment,0
43,103,22771,74,64,0,2,14,7,1.mid,experiment,0
44,105,23114,76,64,0,2,14,7,1.mid,experiment,0
45,107,23316,79,64,0,2,14,7,1.mid,experiment,0
46,109,23556,74,64,0,2,14,7,1.mid,experiment,0
47,110,23815,71,64,0,2,14,7,1.mid,experiment,0
48,112,23896,72,64,0,2,14,7,1.mid,experiment,0
49,114,24190,72,64,0,2,14,7,1.mid,experiment,0
50,116,24476,74,64,0,2,14,7,1.mid,experiment,0
51,118,24742,74,64,0,2,14,7,1.mid,experiment,0
52,120,25592,76,64,0,2,14,7,1.mid,experiment,0
53,122,26208,65,64,0,2,14,7,1.mid,experiment,0
54,124,26506,65,64,0,2,14,7,1.mid,experiment,0
55,126,26772,64,64,0,2,14,7,1.mid,experiment,0
56,128,27080,64,64,0,2,14,7,1.mid,experiment,0
57,130,27940,62,64,0,2,14,7,1.mid,experiment,0
58,132,28566,67,64,0,2,14,7,1.mid,experiment,0
59,134,28854,67,64,0,2,14,7,1.mid,experiment,0
60,136,29150,71,64,0,2,14,7,1.mid,experiment,0
61,138,29426,71,64,0,2,14,7,1.mid,experiment,0
62,140,29714,72,64,0,2,14,7,1.mid,experiment,0
63,142,30008,72,64,0,2,14,7,1.mid,experiment,0
64,144,30270,73,64,0,2,14,7,1.mid,experiment,0
65,146,30560,73,64,0,2,14,7,1.mid,experiment,0
66,149,31346,74,64,0,2,14,7,1.mid,experiment,0
67,151,31986,77,64,0,2,14,7,1.mid,experiment,0
68,153,32542,76,64,0,2,14,7,1.mid,experiment,0
69,155,33109,74,64,0,2,14,7,1.mid,experiment,0
70,156,33540,72,64,0,2,14,7,1.mid,experiment,0
71,158,33996,84,64,0,2,14,7,1.mid,experiment,0
72,160,35112,84,64,0,2,14,7,1.mid,experiment,0
1,19,8198,79,64,0,2,14,8,7.mid,experiment,0
2,21,8530,78,64,0,2,14,8,7.mid,experiment,0
3,23,8794,79,64,0,2,14,8,7.mid,experiment,0
4,25,9063,76,64,0,2,14,8,7.mid,experiment,0
5,26,9283,72,64,0,2,14,8,7.mid,experiment,0
6,28,9370,67,64,0,2,14,8,7.mid,experiment,0
7,30,9680,67,64,0,2,14,8,7.mid,experiment,0
8,32,9991,67,64,0,2,14,8,7.mid,experiment,0
9,35,10630,79,64,0,2,14,8,7.mid,experiment,0
10,37,11017,78,64,0,2,14,8,7.mid,experiment,0
11,39,11268,79,64,0,2,14,8,7.mid,experiment,0
12,41,11529,76,64,0,2,14,8,7.mid,experiment,0
13,43,11864,72,64,0,2,14,8,7.mid,experiment,0
14,45,12221,76,64,0,2,14,8,7.mid,experiment,0
15,47,12452,79,64,0,2,14,8,7.mid,experiment,0
16,49,12799,84,64,0,2,14,8,7.mid,experiment,0
17,51,12996,83,64,0,2,14,8,7.mid,experiment,0
18,52,13074,81,64,0,2,14,8,7.mid,experiment,0
19,54,13347,81,64,0,2,14,8,7.mid,experiment,0
20,56,13646,81,64,0,2,14,8,7.mid,experiment,0
21,59,14217,83,64,0,2,14,8,7.mid,experiment,0
22,61,14502,81,64,0,2,14,8,7.mid,experiment,0
23,63,14783,84,64,0,2,14,8,7.mid,experiment,0
24,65,15027,81,64,0,2,14,8,7.mid,experiment,0
25,67,15364,78,64,0,2,14,8,7.mid,experiment,0
26,68,15481,79,64,0,2,14,8,7.mid,experiment,0
27,70,15934,79,64,0,2,14,8,7.mid,experiment,0
28,72,16978,79,64,0,2,14,8,7.mid,experiment,0
29,74,17550,77,64,0,2,14,8,7.mid,experiment,0
30,76,17834,77,64,0,2,14,8,7.mid,experiment,0
31,78,18108,76,64,0,2,14,8,7.mid,experiment,0
32,80,18405,76,64,0,2,14,8,7.mid,experiment,0
33,82,19243,74,64,0,2,14,8,7.mid,experiment,0
34,85,20576,79,64,0,2,14,8,7.mid,experiment,0
35,87,21101,77,64,0,2,14,8,7.mid,experiment,0
36,88,21185,76,64,0,2,14,8,7.mid,experiment,0
37,90,21476,76,64,0,2,14,8,7.mid,experiment,0
38,92,21748,76,64,0,2,14,8,7.mid,experiment,0
39,94,22033,76,64,0,2,14,8,7.mid,experiment,0
40,97,22608,81,64,0,2,14,8,7.mid,experiment,0
41,99,22847,77,64,0,2,14,8,7.mid,experiment,0
42,100,23093,76,64,0,2,14,8,7.mid,experiment,0
43,103,23403,74,64,0,2,14,8,7.mid,experiment,0
44,105,23700,76,64,0,2,14,8,7.mid,experiment,0
45,107,23997,79,64,0,2,14,8,7.mid,experiment,0
46,109,24265,74,64,0,2,14,8,7.mid,experiment,0
47,110,24526,71,64,0,2,14,8,7.mid,experiment,0
48,112,24592,72,64,0,2,14,8,7.mid,experiment,0
49,114,24905,72,64,0,2,14,8,7.mid,experiment,0
50,116,25184,74,64,0,2,14,8,7.mid,experiment,0
51,118,25469,74,64,0,2,14,8,7.mid,experiment,0
52,120,26330,76,64,0,2,14,8,7.mid,experiment,0
53,122,26963,65,64,0,2,14,8,7.mid,experiment,0
54,124,27269,65,64,0,2,14,8,7.mid,experiment,0
55,126,27524,64,64,0,2,14,8,7.mid,experiment,0
56,128,27828,64,64,0,2,14,8,7.mid,experiment,0
57,130,28748,62,64,0,2,14,8,7.mid,experiment,0
58,132,29377,67,64,0,2,14,8,7.mid,experiment,0
59,134,29648,67,64,0,2,14,8,7.mid,experiment,0
60,136,29941,71,64,0,2,14,8,7.mid,experiment,0
61,138,30236,71,64,0,2,14,8,7.mid,experiment,0
62,140,30528,72,64,0,2,14,8,7.mid,experiment,0
63,142,30793,72,64,0,2,14,8,7.mid,experiment,0
64,144,31100,73,64,0,2,14,8,7.mid,experiment,0
65,146,31399,73,64,0,2,14,8,7.mid,experiment,0
66,149,32310,74,64,0,2,14,8,7.mid,experiment,0
67,151,32887,77,64,0,2,14,8,7.mid,experiment,0
68,153,33461,76,64,0,2,14,8,7.mid,experiment,0
69,155,34016,74,64,0,2,14,8,7.mid,experiment,0
70,156,34546,72,64,0,2,14,8,7.mid,experiment,0
71,158,34900,84,64,0,2,14,8,7.mid,experiment,0
72,160,36130,84,64,0,2,14,8,7.mid,experiment,0
1,19,8162,79,64,0,2,14,9,13.mid,experiment,0
2,21,8474,78,64,0,2,14,9,13.mid,experiment,0
3,23,8739,79,64,0,2,14,9,13.mid,experiment,0
4,25,9039,76,64,0,2,14,9,13.mid,experiment,0
5,26,9258,72,64,0,2,14,9,13.mid,experiment,0
6,28,9330,67,64,0,2,14,9,13.mid,experiment,0
7,30,9644,67,64,0,2,14,9,13.mid,experiment,0
8,32,9909,67,64,0,2,14,9,13.mid,experiment,0
9,35,10503,79,64,0,2,14,9,13.mid,experiment,0
10,37,10788,78,64,0,2,14,9,13.mid,experiment,0
11,39,11069,79,64,0,2,14,9,13.mid,experiment,0
12,41,11340,76,64,0,2,14,9,13.mid,experiment,0
13,43,11654,72,64,0,2,14,9,13.mid,experiment,0
14,45,11968,76,64,0,2,14,9,13.mid,experiment,0
15,47,12224,79,64,0,2,14,9,13.mid,experiment,0
16,49,12557,84,64,0,2,14,9,13.mid,experiment,0
17,51,12791,83,64,0,2,14,9,13.mid,experiment,0
18,52,12853,81,64,0,2,14,9,13.mid,experiment,0
19,54,13139,81,64,0,2,14,9,13.mid,experiment,0
20,56,13409,81,64,0,2,14,9,13.mid,experiment,0
21,59,13981,83,64,0,2,14,9,13.mid,experiment,0
22,61,14300,81,64,0,2,14,9,13.mid,experiment,0
23,63,14567,84,64,0,2,14,9,13.mid,experiment,0
24,65,14827,81,64,0,2,14,9,13.mid,experiment,0
25,67,15114,78,64,0,2,14,9,13.mid,experiment,0
26,68,15242,79,64,0,2,14,9,13.mid,experiment,0
27,70,15597,79,64,0,2,14,9,13.mid,experiment,0
28,72,16731,79,64,0,2,14,9,13.mid,experiment,0
29,74,17281,77,64,0,2,14,9,13.mid,experiment,0
30,76,17592,77,64,0,2,14,9,13.mid,experiment,0
31,78,17878,76,64,0,2,14,9,13.mid,experiment,0
32,80,18179,76,64,0,2,14,9,13.mid,experiment,0
33,82,19007,74,64,0,2,14,9,13.mid,experiment,0
34,85,20256,79,64,0,2,14,9,13.mid,experiment,0
35,87,20802,77,64,0,2,14,9,13.mid,experiment,0
36,88,20895,76,64,0,2,14,9,13.mid,experiment,0
37,90,21183,76,64,0,2,14,9,13.mid,experiment,0
38,92,21460,76,64,0,2,14,9,13.mid,experiment,0
39,94,21741,76,64,0,2,14,9,13.mid,experiment,0
40,97,22338,81,64,0,2,14,9,13.mid,experiment,0
41,99,22570,77,64,0,2,14,9,13.mid,experiment,0
42,101,22828,76,64,0,2,14,9,13.mid,experiment,0
43,103,23106,74,64,0,2,14,9,13.mid,experiment,0
44,105,23422,76,64,0,2,14,9,13.mid,experiment,0
45,107,23668,79,64,0,2,14,9,13.mid,experiment,0
46,108,23934,74,64,0,2,14,9,13.mid,experiment,0
47,110,24180,71,64,0,2,14,9,13.mid,experiment,0
48,112,24315,72,64,0,2,14,9,13.mid,experiment,0
49,114,24613,72,64,0,2,14,9,13.mid,experiment,0
50,116,24882,74,64,0,2,14,9,13.mid,experiment,0
51,118,25161,74,64,0,2,14,9,13.mid,experiment,0
52,120,25995,76,64,0,2,14,9,13.mid,experiment,0
53,122,26651,65,64,0,2,14,9,13.mid,experiment,0
54,124,26954,65,64,0,2,14,9,13.mid,experiment,0
55,126,27213,64,64,0,2,14,9,13.mid,experiment,0
56,128,27506,64,64,0,2,14,9,13.mid,experiment,0
57,130,28277,62,64,0,2,14,9,13.mid,experiment,0
58,132,29013,67,64,0,2,14,9,13.mid,experiment,0
59,134,29303,67,64,0,2,14,9,13.mid,experiment,0
60,136,29584,71,64,0,2,14,9,13.mid,experiment,0
61,138,29852,71,64,0,2,14,9,13.mid,experiment,0
62,140,30145,72,64,0,2,14,9,13.mid,experiment,0
63,142,30430,72,64,0,2,14,9,13.mid,experiment,0
64,144,30699,73,64,0,2,14,9,13.mid,experiment,0
65,146,30993,73,64,0,2,14,9,13.mid,experiment,0
66,149,31867,74,64,0,2,14,9,13.mid,experiment,0
67,151,32478,77,64,0,2,14,9,13.mid,experiment,0
68,153,33016,76,64,0,2,14,9,13.mid,experiment,0
69,155,33576,74,64,0,2,14,9,13.mid,experiment,0
70,156,34040,72,64,0,2,14,9,13.mid,experiment,0
71,158,34459,84,64,0,2,14,9,13.mid,experiment,0
72,160,35674,84,64,0,2,14,9,13.mid,experiment,0
1,19,8195,79,64,0,2,14,10,5.mid,experiment,0
2,21,8503,78,64,0,2,14,10,5.mid,experiment,0
3,23,8713,79,64,0,2,14,10,5.mid,experiment,0
4,24,8973,76,64,0,2,14,10,5.mid,experiment,0
5,26,9238,72,64,0,2,14,10,5.mid,experiment,0
6,28,9337,67,64,0,2,14,10,5.mid,experiment,0
7,30,9636,67,64,0,2,14,10,5.mid,experiment,0
8,32,9906,67,64,0,2,14,10,5.mid,experiment,0
9,35,10490,79,64,0,2,14,10,5.mid,experiment,0
10,37,10770,78,64,0,2,14,10,5.mid,experiment,0
11,39,11068,79,64,0,2,14,10,5.mid,experiment,0
12,41,11383,76,64,0,2,14,10,5.mid,experiment,0
13,43,11615,72,64,0,2,14,10,5.mid,experiment,0
14,45,11912,76,64,0,2,14,10,5.mid,experiment,0
15,47,12193,79,64,0,2,14,10,5.mid,experiment,0
16,49,12519,84,64,0,2,14,10,5.mid,experiment,0
17,51,12742,83,64,0,2,14,10,5.mid,experiment,0
18,52,12809,81,64,0,2,14,10,5.mid,experiment,0
19,54,13082,81,64,0,2,14,10,5.mid,experiment,0
20,56,13363,81,64,0,2,14,10,5.mid,experiment,0
21,59,13932,83,64,0,2,14,10,5.mid,experiment,0
22,61,14217,81,64,0,2,14,10,5.mid,experiment,0
23,63,14493,84,64,0,2,14,10,5.mid,experiment,0
24,64,14722,81,64,0,2,14,10,5.mid,experiment,0
25,67,15055,78,64,0,2,14,10,5.mid,experiment,0
26,68,15156,79,64,0,2,14,10,5.mid,experiment,0
27,70,15417,79,64,0,2,14,10,5.mid,experiment,0
28,72,16533,79,64,0,2,14,10,5.mid,experiment,0
29,74,17128,77,64,0,2,14,10,5.mid,experiment,0
30,76,17430,77,64,0,2,14,10,5.mid,experiment,0
31,78,17701,76,64,0,2,14,10,5.mid,experiment,0
32,80,17979,76,64,0,2,14,10,5.mid,experiment,0
33,82,18783,74,64,0,2,14,10,5.mid,experiment,0
34,85,20050,79,64,0,2,14,10,5.mid,experiment,0
35,87,20548,77,64,0,2,14,10,5.mid,experiment,0
36,88,20641,76,64,0,2,14,10,5.mid,experiment,0
37,90,20901,76,64,0,2,14,10,5.mid,experiment,0
38,92,21193,76,64,0,2,14,10,5.mid,experiment,0
39,94,21457,76,64,0,2,14,10,5.mid,experiment,0
40,97,22033,81,64,0,2,14,10,5.mid,experiment,0
41,99,22281,77,64,0,2,14,10,5.mid,experiment,0
42,101,22530,76,64,0,2,14,10,5.mid,experiment,0
43,103,22848,74,64,0,2,14,10,5.mid,experiment,0
44,105,23147,76,64,0,2,14,10,5.mid,experiment,0
45,107,23361,79,64,0,2,14,10,5.mid,experiment,0
46,108,23623,74,64,0,2,14,10,5.mid,experiment,0
47,110,23874,71,64,0,2,14,10,5.mid,experiment,0
48,112,23959,72,64,0,2,14,10,5.mid,experiment,0
49,114,24227,72,64,0,2,14,10,5.mid,experiment,0
50,116,24509,74,64,0,2,14,10,5.mid,experiment,0
51,118,24769,74,64,0,2,14,10,5.mid,experiment,0
52,120,25614,76,64,0,2,14,10,5.mid,experiment,0
53,122,26238,65,64,0,2,14,10,5.mid,experiment,0
54,124,26528,65,64,0,2,14,10,5.mid,experiment,0
55,126,26799,64,64,0,2,14,10,5.mid,experiment,0
56,128,27087,64,64,0,2,14,10,5.mid,experiment,0
57,130,27867,62,64,0,2,14,10,5.mid,experiment,0
58,132,28522,67,64,0,2,14,10,5.mid,experiment,0
59,134,28811,67,64,0,2,14,10,5.mid,experiment,0
60,136,29133,71,64,0,2,14,10,5.mid,experiment,0
61,138,29404,71,64,0,2,14,10,5.mid,experiment,0
62,140,29702,72,64,0,2,14,10,5.mid,experiment,0
63,142,29991,72,64,0,2,14,10,5.mid,experiment,0
64,144,30261,73,64,0,2,14,10,5.mid,experiment,0
65,146,30581,73,64,0,2,14,10,5.mid,experiment,0
66,149,31506,74,64,0,2,14,10,5.mid,experiment,0
67,151,32112,77,64,0,2,14,10,5.mid,experiment,0
68,153,32664,76,64,0,2,14,10,5.mid,experiment,0
69,154,33187,74,64,0,2,14,10,5.mid,experiment,0
70,156,33740,72,64,0,2,14,10,5.mid,experiment,0
71,158,34216,84,64,0,2,14,10,5.mid,experiment,0
72,160,35171,84,64,0,2,14,10,5.mid,experiment,0
1,19,8211,79,64,0,2,14,12,4.mid,experiment,0
2,21,8487,78,64,0,2,14,12,4.mid,experiment,0
3,23,8765,79,64,0,2,14,12,4.mid,experiment,0
4,25,9092,76,64,0,2,14,12,4.mid,experiment,0
5,26,9328,72,64,0,2,14,12,4.mid,experiment,0
6,28,9411,67,64,0,2,14,12,4.mid,experiment,0
7,30,9689,67,64,0,2,14,12,4.mid,experiment,0
8,32,9977,67,64,0,2,14,12,4.mid,experiment,0
9,35,10592,79,64,0,2,14,12,4.mid,experiment,0
10,37,10968,78,64,0,2,14,12,4.mid,experiment,0
11,39,11213,79,64,0,2,14,12,4.mid,experiment,0
12,41,11490,76,64,0,2,14,12,4.mid,experiment,0
13,43,11752,72,64,0,2,14,12,4.mid,experiment,0
14,45,12061,76,64,0,2,14,12,4.mid,experiment,0
15,47,12313,79,64,0,2,14,12,4.mid,experiment,0
16,49,12657,84,64,0,2,14,12,4.mid,experiment,0
17,51,12885,83,64,0,2,14,12,4.mid,experiment,0
18,52,12925,81,64,0,2,14,12,4.mid,experiment,0
19,54,13218,81,64,0,2,14,12,4.mid,experiment,0
20,56,13523,81,64,0,2,14,12,4.mid,experiment,0
21,59,14111,83,64,0,2,14,12,4.mid,experiment,0
22,61,14375,81,64,0,2,14,12,4.mid,experiment,0
23,63,14657,84,64,0,2,14,12,4.mid,experiment,0
24,65,14939,81,64,0,2,14,12,4.mid,experiment,0
25,67,15274,78,64,0,2,14,12,4.mid,experiment,0
26,68,15367,79,64,0,2,14,12,4.mid,experiment,0
27,70,15923,79,64,0,2,14,12,4.mid,experiment,0
28,72,16849,79,64,0,2,14,12,4.mid,experiment,0
29,74,17408,77,64,0,2,14,12,4.mid,experiment,0
30,76,17719,77,64,0,2,14,12,4.mid,experiment,0
31,78,17982,76,64,0,2,14,12,4.mid,experiment,0
32,80,18273,76,64,0,2,14,12,4.mid,experiment,0
33,82,19028,74,64,0,2,14,12,4.mid,experiment,0
34,85,20363,79,64,0,2,14,12,4.mid,experiment,0
35,87,20843,77,64,0,2,14,12,4.mid,experiment,0
36,88,20912,76,64,0,2,14,12,4.mid,experiment,0
37,90,21190,76,64,0,2,14,12,4.mid,experiment,0
38,92,21464,76,64,0,2,14,12,4.mid,experiment,0
39,94,21744,76,64,0,2,14,12,4.mid,experiment,0
40,97,22334,81,64,0,2,14,12,4.mid,experiment,0
41,99,22582,77,64,0,2,14,12,4.mid,experiment,0
42,101,22825,76,64,0,2,14,12,4.mid,experiment,0
43,103,23116,74,64,0,2,14,12,4.mid,experiment,0
44,105,23395,76,64,0,2,14,12,4.mid,experiment,0
45,107,23688,79,64,0,2,14,12,4.mid,experiment,0
46,109,23918,74,64,0,2,14,12,4.mid,experiment,0
47,110,24174,71,64,0,2,14,12,4.mid,experiment,0
48,112,24262,72,64,0,2,14,12,4.mid,experiment,0
49,114,24541,72,64,0,2,14,12,4.mid,experiment,0
50,116,24815,74,64,0,2,14,12,4.mid,experiment,0
51,118,25093,74,64,0,2,14,12,4.mid,experiment,0
52,120,25910,76,64,0,2,14,12,4.mid,experiment,0
53,122,26573,65,64,0,2,14,12,4.mid,experiment,0
54,124,26875,65,64,0,2,14,12,4.mid,experiment,0
55,126,27147,64,64,0,2,14,12,4.mid,experiment,0
56,128,27432,64,64,0,2,14,12,4.mid,experiment,0
57,130,28299,62,64,0,2,14,12,4.mid,experiment,0
58,132,28903,67,64,0,2,14,12,4.mid,experiment,0
59,134,29197,67,64,0,2,14,12,4.mid,experiment,0
60,136,29496,71,64,0,2,14,12,4.mid,experiment,0
61,138,29766,71,64,0,2,14,12,4.mid,experiment,0
62,140,30059,72,64,0,2,14,12,4.mid,experiment,0
63,142,30337,72,64,0,2,14,12,4.mid,experiment,0
64,144,30615,73,64,0,2,14,12,4.mid,experiment,0
65,146,30933,73,64,0,2,14,12,4.mid,experiment,0
66,149,31858,74,64,0,2,14,12,4.mid,experiment,0
67,151,32488,77,64,0,2,14,12,4.mid,experiment,0
68,153,32992,76,64,0,2,14,12,4.mid,experiment,0
69,154,33540,74,64,0,2,14,12,4.mid,experiment,0
70,156,34013,72,64,0,2,14,12,4.mid,experiment,0
71,158,34569,84,64,0,2,14,12,4.mid,experiment,0
72,160,35736,84,64,0,2,14,12,4.mid,experiment,0
1,19,8210,79,64,0,2,14,13,15.mid,experiment,0
2,21,8521,78,64,0,2,14,13,15.mid,experiment,0
3,23,8733,79,64,0,2,14,13,15.mid,experiment,0
4,25,8989,76,64,0,2,14,13,15.mid,experiment,0
5,26,9237,72,64,0,2,14,13,15.mid,experiment,0
6,28,9320,67,64,0,2,14,13,15.mid,experiment,0
7,30,9605,67,64,0,2,14,13,15.mid,experiment,0
8,32,9891,67,64,0,2,14,13,15.mid,experiment,0
9,35,10516,79,64,0,2,14,13,15.mid,experiment,0
10,37,10801,78,64,0,2,14,13,15.mid,experiment,0
11,38,11018,79,64,0,2,14,13,15.mid,experiment,0
12,41,11365,76,64,0,2,14,13,15.mid,experiment,0
13,43,11675,72,64,0,2,14,13,15.mid,experiment,0
14,45,11978,76,64,0,2,14,13,15.mid,experiment,0
15,47,12231,79,64,0,2,14,13,15.mid,experiment,0
16,49,12539,84,64,0,2,14,13,15.mid,experiment,0
17,51,12779,83,64,0,2,14,13,15.mid,experiment,0
18,52,12853,81,64,0,2,14,13,15.mid,experiment,0
19,54,13107,81,64,0,2,14,13,15.mid,experiment,0
20,56,13375,81,64,0,2,14,13,15.mid,experiment,0
21,59,13947,83,64,0,2,14,13,15.mid,experiment,0
22,61,14245,81,64,0,2,14,13,15.mid,experiment,0
23,63,14535,84,64,0,2,14,13,15.mid,experiment,0
24,65,14797,81,64,0,2,14,13,15.mid,experiment,0
25,67,15133,78,64,0,2,14,13,15.mid,experiment,0
26,68,15283,79,64,0,2,14,13,15.mid,experiment,0
27,70,15853,79,64,0,2,14,13,15.mid,experiment,0
28,72,16727,79,64,0,2,14,13,15.mid,experiment,0
29,74,17215,77,64,0,2,14,13,15.mid,experiment,0
30,76,17515,77,64,0,2,14,13,15.mid,experiment,0
31,78,17783,76,64,0,2,14,13,15.mid,experiment,0
32,80,18063,76,64,0,2,14,13,15.mid,experiment,0
33,82,18933,74,64,0,2,14,13,15.mid,experiment,0
34,85,20157,79,64,0,2,14,13,15.mid,experiment,0
35,87,20682,77,64,0,2,14,13,15.mid,experiment,0
36,88,20756,76,64,0,2,14,13,15.mid,experiment,0
37,90,21032,76,64,0,2,14,13,15.mid,experiment,0
38,92,21305,76,64,0,2,14,13,15.mid,experiment,0
39,94,21563,76,64,0,2,14,13,15.mid,experiment,0
40,97,22213,81,64,0,2,14,13,15.mid,experiment,0
41,99,22465,77,64,0,2,14,13,15.mid,experiment,0
42,101,22707,76,64,0,2,14,13,15.mid,experiment,0
43,103,23002,74,64,0,2,14,13,15.mid,experiment,0
44,105,23283,76,64,0,2,14,13,15.mid,experiment,0
45,107,23563,79,64,0,2,14,13,15.mid,experiment,0
46,109,23826,74,64,0,2,14,13,15.mid,experiment,0
47,110,24068,71,64,0,2,14,13,15.mid,experiment,0
48,112,24175,72,64,0,2,14,13,15.mid,experiment,0
49,114,24449,72,64,0,2,14,13,15.mid,experiment,0
50,116,24727,74,64,0,2,14,13,15.mid,experiment,0
51,118,25011,74,64,0,2,14,13,15.mid,experiment,0
52,120,25833,76,64,0,2,14,13,15.mid,experiment,0
53,122,26449,65,64,0,2,14,13,15.mid,experiment,0
54,124,26745,65,64,0,2,14,13,15.mid,experiment,0
55,126,27017,64,64,0,2,14,13,15.mid,experiment,0
56,128,27299,64,64,0,2,14,13,15.mid,experiment,0
57,130,28179,62,64,0,2,14,13,15.mid,experiment,0
58,132,28766,67,64,0,2,14,13,15.mid,experiment,0
59,134,29067,67,64,0,2,14,13,15.mid,experiment,0
60,136,29366,71,64,0,2,14,13,15.mid,experiment,0
61,138,29646,71,64,0,2,14,13,15.mid,experiment,0
62,140,29934,72,64,0,2,14,13,15.mid,experiment,0
63,142,30219,72,64,0,2,14,13,15.mid,experiment,0
64,144,30505,73,64,0,2,14,13,15.mid,experiment,0
65,146,30794,73,64,0,2,14,13,15.mid,experiment,0
66,149,31675,74,64,0,2,14,13,15.mid,experiment,0
67,151,32307,77,64,0,2,14,13,15.mid,experiment,0
68,153,32887,76,64,0,2,14,13,15.mid,experiment,0
69,155,33485,74,64,0,2,14,13,15.mid,experiment,0
70,156,33911,72,64,0,2,14,13,15.mid,experiment,0
71,158,34365,84,64,0,2,14,13,15.mid,experiment,0
72,160,35515,84,64,0,2,14,13,15.mid,experiment,0
1,19,8168,79,64,0,2,14,14,2.mid,experiment,0
2,21,8491,78,64,0,2,14,14,2.mid,experiment,0
3,23,8735,79,64,0,2,14,14,2.mid,experiment,0
4,25,9030,76,64,0,2,14,14,2.mid,experiment,0
5,26,9248,72,64,0,2,14,14,2.mid,experiment,0
6,28,9332,67,64,0,2,14,14,2.mid,experiment,0
7,30,9615,67,64,0,2,14,14,2.mid,experiment,0
8,32,9923,67,64,0,2,14,14,2.mid,experiment,0
9,35,10544,79,64,0,2,14,14,2.mid,experiment,0
10,37,10832,78,64,0,2,14,14,2.mid,experiment,0
11,39,11105,79,64,0,2,14,14,2.mid,experiment,0
12,41,11441,76,64,0,2,14,14,2.mid,experiment,0
13,43,11686,72,64,0,2,14,14,2.mid,experiment,0
14,45,11996,76,64,0,2,14,14,2.mid,experiment,0
15,47,12249,79,64,0,2,14,14,2.mid,experiment,0
16,49,12585,84,64,0,2,14,14,2.mid,experiment,0
17,51,12803,83,64,0,2,14,14,2.mid,experiment,0
18,52,12861,81,64,0,2,14,14,2.mid,experiment,0
19,54,13128,81,64,0,2,14,14,2.mid,experiment,0
20,56,13408,81,64,0,2,14,14,2.mid,experiment,0
21,59,13976,83,64,0,2,14,14,2.mid,experiment,0
22,61,14279,81,64,0,2,14,14,2.mid,experiment,0
23,63,14536,84,64,0,2,14,14,2.mid,experiment,0
24,64,14760,81,64,0,2,14,14,2.mid,experiment,0
25,67,15135,78,64,0,2,14,14,2.mid,experiment,0
26,68,15300,79,64,0,2,14,14,2.mid,experiment,0
27,70,15883,79,64,0,2,14,14,2.mid,experiment,0
28,72,16743,79,64,0,2,14,14,2.mid,experiment,0
29,74,17246,77,64,0,2,14,14,2.mid,experiment,0
30,76,17540,77,64,0,2,14,14,2.mid,experiment,0
31,78,17812,76,64,0,2,14,14,2.mid,experiment,0
32,80,18108,76,64,0,2,14,14,2.mid,experiment,0
33,82,18958,74,64,0,2,14,14,2.mid,experiment,0
34,85,20154,79,64,0,2,14,14,2.mid,experiment,0
35,87,20655,77,64,0,2,14,14,2.mid,experiment,0
36,88,20729,76,64,0,2,14,14,2.mid,experiment,0
37,90,20986,76,64,0,2,14,14,2.mid,experiment,0
38,92,21259,76,64,0,2,14,14,2.mid,experiment,0
39,94,21548,76,64,0,2,14,14,2.mid,experiment,0
40,97,22230,81,64,0,2,14,14,2.mid,experiment,0
41,99,22487,77,64,0,2,14,14,2.mid,experiment,0
42,101,22724,76,64,0,2,14,14,2.mid,experiment,0
43,103,23012,74,64,0,2,14,14,2.mid,experiment,0
44,105,23306,76,64,0,2,14,14,2.mid,experiment,0
45,107,23575,79,64,0,2,14,14,2.mid,experiment,0
46,109,23850,74,64,0,2,14,14,2.mid,experiment,0
47,110,24098,71,64,0,2,14,14,2.mid,experiment,0
48,112,24185,72,64,0,2,14,14,2.mid,experiment,0
49,114,24482,72,64,0,2,14,14,2.mid,experiment,0
50,116,24742,74,64,0,2,14,14,2.mid,experiment,0
51,118,25043,74,64,0,2,14,14,2.mid,experiment,0
52,120,25914,76,64,0,2,14,14,2.mid,experiment,0
53,122,26533,65,64,0,2,14,14,2.mid,experiment,0
54,124,26826,65,64,0,2,14,14,2.mid,experiment,0
55,126,27103,64,64,0,2,14,14,2.mid,experiment,0
56,128,27383,64,64,0,2,14,14,2.mid,experiment,0
57,130,28245,62,64,0,2,14,14,2.mid,experiment,0
58,132,28862,67,64,0,2,14,14,2.mid,experiment,0
59,134,29148,67,64,0,2,14,14,2.mid,experiment,0
60,136,29456,71,64,0,2,14,14,2.mid,experiment,0
61,138,29718,71,64,0,2,14,14,2.mid,experiment,0
62,140,30010,72,64,0,2,14,14,2.mid,experiment,0
63,142,30278,72,64,0,2,14,14,2.mid,experiment,0
64,144,30569,73,64,0,2,14,14,2.mid,experiment,0
65,146,30849,73,64,0,2,14,14,2.mid,experiment,0
66,149,31659,74,64,0,2,14,14,2.mid,experiment,0
67,151,32284,77,64,0,2,14,14,2.mid,experiment,0
68,153,32820,76,64,0,2,14,14,2.mid,experiment,0
69,155,33402,74,64,0,2,14,14,2.mid,experiment,0
70,156,33719,72,64,0,2,14,14,2.mid,experiment,0
71,158,34239,84,64,0,2,14,14,2.mid,experiment,0
72,160,35385,84,64,0,2,14,14,2.mid,experiment,0
1,19,8179,79,64,0,2,14,16,10.mid,experiment,0
2,21,8491,78,64,0,2,14,16,10.mid,experiment,0
3,23,8730,79,64,0,2,14,16,10.mid,experiment,0
4,25,9049,76,64,0,2,14,16,10.mid,experiment,0
5,26,9289,72,64,0,2,14,16,10.mid,experiment,0
6,28,9355,67,64,0,2,14,16,10.mid,experiment,0
7,30,9638,67,64,0,2,14,16,10.mid,experiment,0
8,32,9934,67,64,0,2,14,16,10.mid,experiment,0
9,35,10532,79,64,0,2,14,16,10.mid,experiment,0
10,37,10848,78,64,0,2,14,16,10.mid,experiment,0
11,39,11083,79,64,0,2,14,16,10.mid,experiment,0
12,41,11378,76,64,0,2,14,16,10.mid,experiment,0
13,43,11681,72,64,0,2,14,16,10.mid,experiment,0
14,45,11989,76,64,0,2,14,16,10.mid,experiment,0
15,47,12238,79,64,0,2,14,16,10.mid,experiment,0
16,49,12545,84,64,0,2,14,16,10.mid,experiment,0
17,51,12817,83,64,0,2,14,16,10.mid,experiment,0
18,52,12848,81,64,0,2,14,16,10.mid,experiment,0
19,54,13137,81,64,0,2,14,16,10.mid,experiment,0
20,56,13412,81,64,0,2,14,16,10.mid,experiment,0
21,59,14065,83,64,0,2,14,16,10.mid,experiment,0
22,61,14317,81,64,0,2,14,16,10.mid,experiment,0
23,63,14612,84,64,0,2,14,16,10.mid,experiment,0
24,65,14852,81,64,0,2,14,16,10.mid,experiment,0
25,67,15165,78,64,0,2,14,16,10.mid,experiment,0
26,68,15355,79,64,0,2,14,16,10.mid,experiment,0
27,70,15853,79,64,0,2,14,16,10.mid,experiment,0
28,72,16761,79,64,0,2,14,16,10.mid,experiment,0
29,74,17292,77,64,0,2,14,16,10.mid,experiment,0
30,76,17584,77,64,0,2,14,16,10.mid,experiment,0
31,78,17868,76,64,0,2,14,16,10.mid,experiment,0
32,80,18152,76,64,0,2,14,16,10.mid,experiment,0
33,82,19152,74,64,0,2,14,16,10.mid,experiment,0
34,85,20317,79,64,0,2,14,16,10.mid,experiment,0
35,87,20900,77,64,0,2,14,16,10.mid,experiment,0
36,88,21009,76,64,0,2,14,16,10.mid,experiment,0
37,90,21259,76,64,0,2,14,16,10.mid,experiment,0
38,92,21540,76,64,0,2,14,16,10.mid,experiment,0
39,94,21792,76,64,0,2,14,16,10.mid,experiment,0
40,97,22405,81,64,0,2,14,16,10.mid,experiment,0
41,99,22655,77,64,0,2,14,16,10.mid,experiment,0
42,101,22904,76,64,0,2,14,16,10.mid,experiment,0
43,103,23209,74,64,0,2,14,16,10.mid,experiment,0
44,105,23500,76,64,0,2,14,16,10.mid,experiment,0
45,107,23791,79,64,0,2,14,16,10.mid,experiment,0
46,108,24021,74,64,0,2,14,16,10.mid,experiment,0
47,111,24310,71,64,0,2,14,16,10.mid,experiment,0
48,112,24372,72,64,0,2,14,16,10.mid,experiment,0
49,114,24672,72,64,0,2,14,16,10.mid,experiment,0
50,116,24925,74,64,0,2,14,16,10.mid,experiment,0
51,118,25219,74,64,0,2,14,16,10.mid,experiment,0
52,120,26079,76,64,0,2,14,16,10.mid,experiment,0
53,122,26713,65,64,0,2,14,16,10.mid,experiment,0
54,124,26989,65,64,0,2,14,16,10.mid,experiment,0
55,126,27262,64,64,0,2,14,16,10.mid,experiment,0
56,128,27535,64,64,0,2,14,16,10.mid,experiment,0
57,130,28361,62,64,0,2,14,16,10.mid,experiment,0
58,132,28950,67,64,0,2,14,16,10.mid,experiment,0
59,134,29251,67,64,0,2,14,16,10.mid,experiment,0
60,136,29568,71,64,0,2,14,16,10.mid,experiment,0
61,138,29832,71,64,0,2,14,16,10.mid,experiment,0
62,140,30109,72,64,0,2,14,16,10.mid,experiment,0
63,142,30410,72,64,0,2,14,16,10.mid,experiment,0
64,144,30686,73,64,0,2,14,16,10.mid,experiment,0
65,146,30971,73,64,0,2,14,16,10.mid,experiment,0
66,149,31807,74,64,0,2,14,16,10.mid,experiment,0
67,151,32399,77,64,0,2,14,16,10.mid,experiment,0
68,153,32972,76,64,0,2,14,16,10.mid,experiment,0
69,155,33583,74,64,0,2,14,16,10.mid,experiment,0
70,156,33933,72,64,0,2,14,16,10.mid,experiment,0
71,158,34468,84,64,0,2,14,16,10.mid,experiment,0
72,160,35574,84,64,0,2,14,16,10.mid,experiment,0
1,19,9263,79,64,0,2,15,2,15.mid,experiment,0
2,21,9579,78,64,0,2,15,2,15.mid,experiment,0
3,23,9801,79,64,0,2,15,2,15.mid,experiment,0
4,25,10109,76,64,0,2,15,2,15.mid,experiment,0
5,26,10165,72,64,0,2,15,2,15.mid,experiment,0
6,28,10387,67,64,0,2,15,2,15.mid,experiment,0
7,30,10665,67,64,0,2,15,2,15.mid,experiment,0
8,32,10895,67,64,0,2,15,2,15.mid,experiment,0
9,35,11431,79,64,0,2,15,2,15.mid,experiment,0
10,37,11749,78,64,0,2,15,2,15.mid,experiment,0
11,39,11975,79,64,0,2,15,2,15.mid,experiment,0
12,41,12215,76,64,0,2,15,2,15.mid,experiment,0
13,43,12519,72,64,0,2,15,2,15.mid,experiment,0
14,45,12799,76,64,0,2,15,2,15.mid,experiment,0
15,47,12981,79,64,0,2,15,2,15.mid,experiment,0
16,49,13321,84,64,0,2,15,2,15.mid,experiment,0
17,50,13520,83,64,0,2,15,2,15.mid,experiment,0
18,52,13577,81,64,0,2,15,2,15.mid,experiment,0
19,54,13864,81,64,0,2,15,2,15.mid,experiment,0
20,56,14118,81,64,0,2,15,2,15.mid,experiment,0
21,59,14605,83,64,0,2,15,2,15.mid,experiment,0
22,61,14891,81,64,0,2,15,2,15.mid,experiment,0
23,63,15111,84,64,0,2,15,2,15.mid,experiment,0
24,65,15422,81,64,0,2,15,2,15.mid,experiment,0
25,67,15691,78,64,0,2,15,2,15.mid,experiment,0
26,68,15731,79,64,0,2,15,2,15.mid,experiment,0
27,70,16261,79,64,0,2,15,2,15.mid,experiment,0
28,72,17113,79,64,0,2,15,2,15.mid,experiment,0
29,74,17713,77,64,0,2,15,2,15.mid,experiment,0
30,76,17967,77,64,0,2,15,2,15.mid,experiment,0
31,78,18229,76,64,0,2,15,2,15.mid,experiment,0
32,80,18507,76,64,0,2,15,2,15.mid,experiment,0
33,82,19195,74,64,0,2,15,2,15.mid,experiment,0
34,85,20363,79,64,0,2,15,2,15.mid,experiment,0
35,86,20743,77,64,0,2,15,2,15.mid,experiment,0
36,88,20998,76,64,0,2,15,2,15.mid,experiment,0
37,90,21253,76,64,0,2,15,2,15.mid,experiment,0
38,92,21511,76,64,0,2,15,2,15.mid,experiment,0
39,94,21744,76,64,0,2,15,2,15.mid,experiment,0
40,97,22322,81,64,0,2,15,2,15.mid,experiment,0
41,99,22599,77,64,0,2,15,2,15.mid,experiment,0
42,101,22791,76,64,0,2,15,2,15.mid,experiment,0
43,103,23083,74,64,0,2,15,2,15.mid,experiment,0
44,105,23345,76,64,0,2,15,2,15.mid,experiment,0
45,107,23654,79,64,0,2,15,2,15.mid,experiment,0
46,109,23857,74,64,0,2,15,2,15.mid,experiment,0
47,110,23901,71,64,0,2,15,2,15.mid,experiment,0
48,112,24176,72,64,0,2,15,2,15.mid,experiment,0
49,114,24425,72,64,0,2,15,2,15.mid,experiment,0
50,116,24683,74,64,0,2,15,2,15.mid,experiment,0
51,118,24971,74,64,0,2,15,2,15.mid,experiment,0
52,120,25698,76,64,0,2,15,2,15.mid,experiment,0
53,122,26378,65,64,0,2,15,2,15.mid,experiment,0
54,124,26631,65,64,0,2,15,2,15.mid,experiment,0
55,126,26917,64,64,0,2,15,2,15.mid,experiment,0
56,128,27187,64,64,0,2,15,2,15.mid,experiment,0
57,130,27974,62,64,0,2,15,2,15.mid,experiment,0
58,132,28673,67,64,0,2,15,2,15.mid,experiment,0
59,134,28925,67,64,0,2,15,2,15.mid,experiment,0
60,136,29183,71,64,0,2,15,2,15.mid,experiment,0
61,138,29439,71,64,0,2,15,2,15.mid,experiment,0
62,140,29738,72,64,0,2,15,2,15.mid,experiment,0
63,142,29993,72,64,0,2,15,2,15.mid,experiment,0
64,144,30259,73,64,0,2,15,2,15.mid,experiment,0
65,146,30502,73,64,0,2,15,2,15.mid,experiment,0
66,149,31335,74,64,0,2,15,2,15.mid,experiment,0
67,151,31880,77,64,0,2,15,2,15.mid,experiment,0
68,153,32474,76,64,0,2,15,2,15.mid,experiment,0
69,155,32990,74,64,0,2,15,2,15.mid,experiment,0
70,157,33564,72,64,0,2,15,2,15.mid,experiment,0
71,158,33899,84,64,0,2,15,2,15.mid,experiment,0
72,160,34947,84,64,0,2,15,2,15.mid,experiment,0
1,19,9724,79,64,0,2,15,3,10.mid,experiment,0
2,21,10040,78,64,0,2,15,3,10.mid,experiment,0
3,23,10260,79,64,0,2,15,3,10.mid,experiment,0
4,25,10569,76,64,0,2,15,3,10.mid,experiment,0
5,26,10650,72,64,0,2,15,3,10.mid,experiment,0
6,28,10862,67,64,0,2,15,3,10.mid,experiment,0
7,30,11128,67,64,0,2,15,3,10.mid,experiment,0
8,32,11357,67,64,0,2,15,3,10.mid,experiment,0
9,35,11878,79,64,0,2,15,3,10.mid,experiment,0
10,37,12199,78,64,0,2,15,3,10.mid,experiment,0
11,39,12422,79,64,0,2,15,3,10.mid,experiment,0
12,41,12675,76,64,0,2,15,3,10.mid,experiment,0
13,43,13001,72,64,0,2,15,3,10.mid,experiment,0
14,45,13287,76,64,0,2,15,3,10.mid,experiment,0
15,47,13484,79,64,0,2,15,3,10.mid,experiment,0
16,49,13801,84,64,0,2,15,3,10.mid,experiment,0
17,51,14015,83,64,0,2,15,3,10.mid,experiment,0
18,52,14083,81,64,0,2,15,3,10.mid,experiment,0
19,54,14361,81,64,0,2,15,3,10.mid,experiment,0
20,56,14603,81,64,0,2,15,3,10.mid,experiment,0
21,59,15150,83,64,0,2,15,3,10.mid,experiment,0
22,61,15411,81,64,0,2,15,3,10.mid,experiment,0
23,63,15653,84,64,0,2,15,3,10.mid,experiment,0
24,65,15984,81,64,0,2,15,3,10.mid,experiment,0
25,67,16254,78,64,0,2,15,3,10.mid,experiment,0
26,68,16301,79,64,0,2,15,3,10.mid,experiment,0
27,70,16838,79,64,0,2,15,3,10.mid,experiment,0
28,72,17617,79,64,0,2,15,3,10.mid,experiment,0
29,74,18240,77,64,0,2,15,3,10.mid,experiment,0
30,76,18484,77,64,0,2,15,3,10.mid,experiment,0
31,78,18761,76,64,0,2,15,3,10.mid,experiment,0
32,80,19016,76,64,0,2,15,3,10.mid,experiment,0
33,82,19754,74,64,0,2,15,3,10.mid,experiment,0
34,84,20859,79,64,0,2,15,3,10.mid,experiment,0
35,86,21332,77,64,0,2,15,3,10.mid,experiment,0
36,88,21528,76,64,0,2,15,3,10.mid,experiment,0
37,90,21799,76,64,0,2,15,3,10.mid,experiment,0
38,92,22051,76,64,0,2,15,3,10.mid,experiment,0
39,94,22289,76,64,0,2,15,3,10.mid,experiment,0
40,97,22906,81,64,0,2,15,3,10.mid,experiment,0
41,99,23161,77,64,0,2,15,3,10.mid,experiment,0
42,101,23353,76,64,0,2,15,3,10.mid,experiment,0
43,103,23638,74,64,0,2,15,3,10.mid,experiment,0
44,105,23903,76,64,0,2,15,3,10.mid,experiment,0
45,107,24267,79,64,0,2,15,3,10.mid,experiment,0
46,109,24395,74,64,0,2,15,3,10.mid,experiment,0
47,110,24449,71,64,0,2,15,3,10.mid,experiment,0
48,112,24690,72,64,0,2,15,3,10.mid,experiment,0
49,114,24936,72,64,0,2,15,3,10.mid,experiment,0
50,116,25216,74,64,0,2,15,3,10.mid,experiment,0
51,118,25472,74,64,0,2,15,3,10.mid,experiment,0
52,120,26163,76,64,0,2,15,3,10.mid,experiment,0
53,122,26841,65,64,0,2,15,3,10.mid,experiment,0
54,124,27095,65,64,0,2,15,3,10.mid,experiment,0
55,126,27334,64,64,0,2,15,3,10.mid,experiment,0
56,128,27616,64,64,0,2,15,3,10.mid,experiment,0
57,130,28340,62,64,0,2,15,3,10.mid,experiment,0
58,132,29013,67,64,0,2,15,3,10.mid,experiment,0
59,134,29260,67,64,0,2,15,3,10.mid,experiment,0
60,136,29510,71,64,0,2,15,3,10.mid,experiment,0
61,138,29764,71,64,0,2,15,3,10.mid,experiment,0
62,140,30065,72,64,0,2,15,3,10.mid,experiment,0
63,142,30322,72,64,0,2,15,3,10.mid,experiment,0
64,144,30582,73,64,0,2,15,3,10.mid,experiment,0
65,146,30844,73,64,0,2,15,3,10.mid,experiment,0
66,148,31529,74,64,0,2,15,3,10.mid,experiment,0
67,151,32216,77,64,0,2,15,3,10.mid,experiment,0
68,152,32716,76,64,0,2,15,3,10.mid,experiment,0
69,154,33218,74,64,0,2,15,3,10.mid,experiment,0
70,156,33802,72,64,0,2,15,3,10.mid,experiment,0
71,158,34322,84,64,0,2,15,3,10.mid,experiment,0
72,160,35154,84,64,0,2,15,3,10.mid,experiment,0
1,19,8838,79,64,0,2,15,4,4.mid,experiment,0
2,21,9148,78,64,0,2,15,4,4.mid,experiment,0
3,23,9388,79,64,0,2,15,4,4.mid,experiment,0
4,25,9665,76,64,0,2,15,4,4.mid,experiment,0
5,26,9728,72,64,0,2,15,4,4.mid,experiment,0
6,28,9956,67,64,0,2,15,4,4.mid,experiment,0
7,30,10218,67,64,0,2,15,4,4.mid,experiment,0
8,32,10443,67,64,0,2,15,4,4.mid,experiment,0
9,35,10979,79,64,0,2,15,4,4.mid,experiment,0
10,37,11303,78,64,0,2,15,4,4.mid,experiment,0
11,39,11510,79,64,0,2,15,4,4.mid,experiment,0
12,41,11735,76,64,0,2,15,4,4.mid,experiment,0
13,43,12051,72,64,0,2,15,4,4.mid,experiment,0
14,45,12315,76,64,0,2,15,4,4.mid,experiment,0
15,47,12505,79,64,0,2,15,4,4.mid,experiment,0
16,49,12817,84,64,0,2,15,4,4.mid,experiment,0
17,50,12961,83,64,0,2,15,4,4.mid,experiment,0
18,52,13096,81,64,0,2,15,4,4.mid,experiment,0
19,54,13381,81,64,0,2,15,4,4.mid,experiment,0
20,56,13616,81,64,0,2,15,4,4.mid,experiment,0
21,59,14146,83,64,0,2,15,4,4.mid,experiment,0
22,61,14414,81,64,0,2,15,4,4.mid,experiment,0
23,63,14648,84,64,0,2,15,4,4.mid,experiment,0
24,65,14942,81,64,0,2,15,4,4.mid,experiment,0
25,67,15188,78,64,0,2,15,4,4.mid,experiment,0
26,68,15245,79,64,0,2,15,4,4.mid,experiment,0
27,70,15763,79,64,0,2,15,4,4.mid,experiment,0
28,72,16541,79,64,0,2,15,4,4.mid,experiment,0
29,74,17109,77,64,0,2,15,4,4.mid,experiment,0
30,76,17351,77,64,0,2,15,4,4.mid,experiment,0
31,78,17636,76,64,0,2,15,4,4.mid,experiment,0
32,80,17901,76,64,0,2,15,4,4.mid,experiment,0
33,82,18714,74,64,0,2,15,4,4.mid,experiment,0
34,85,19858,79,64,0,2,15,4,4.mid,experiment,0
35,86,20271,77,64,0,2,15,4,4.mid,experiment,0
36,88,20480,76,64,0,2,15,4,4.mid,experiment,0
37,90,20741,76,64,0,2,15,4,4.mid,experiment,0
38,92,21002,76,64,0,2,15,4,4.mid,experiment,0
39,94,21256,76,64,0,2,15,4,4.mid,experiment,0
40,97,21882,81,64,0,2,15,4,4.mid,experiment,0
41,99,22100,77,64,0,2,15,4,4.mid,experiment,0
42,101,22313,76,64,0,2,15,4,4.mid,experiment,0
43,103,22612,74,64,0,2,15,4,4.mid,experiment,0
44,105,22853,76,64,0,2,15,4,4.mid,experiment,0
45,107,23194,79,64,0,2,15,4,4.mid,experiment,0
46,109,23349,74,64,0,2,15,4,4.mid,experiment,0
47,110,23417,71,64,0,2,15,4,4.mid,experiment,0
48,112,23676,72,64,0,2,15,4,4.mid,experiment,0
49,114,23932,72,64,0,2,15,4,4.mid,experiment,0
50,116,24177,74,64,0,2,15,4,4.mid,experiment,0
51,118,24454,74,64,0,2,15,4,4.mid,experiment,0
52,120,25283,76,64,0,2,15,4,4.mid,experiment,0
53,122,25908,65,64,0,2,15,4,4.mid,experiment,0
54,124,26180,65,64,0,2,15,4,4.mid,experiment,0
55,126,26446,64,64,0,2,15,4,4.mid,experiment,0
56,128,26715,64,64,0,2,15,4,4.mid,experiment,0
57,130,27485,62,64,0,2,15,4,4.mid,experiment,0
58,132,28149,67,64,0,2,15,4,4.mid,experiment,0
59,134,28418,67,64,0,2,15,4,4.mid,experiment,0
60,136,28668,71,64,0,2,15,4,4.mid,experiment,0
61,138,28928,71,64,0,2,15,4,4.mid,experiment,0
62,140,29230,72,64,0,2,15,4,4.mid,experiment,0
63,142,29489,72,64,0,2,15,4,4.mid,experiment,0
64,144,29740,73,64,0,2,15,4,4.mid,experiment,0
65,146,30001,73,64,0,2,15,4,4.mid,experiment,0
66,149,30839,74,64,0,2,15,4,4.mid,experiment,0
67,151,31411,77,64,0,2,15,4,4.mid,experiment,0
68,153,31959,76,64,0,2,15,4,4.mid,experiment,0
69,154,32415,74,64,0,2,15,4,4.mid,experiment,0
70,156,32926,72,64,0,2,15,4,4.mid,experiment,0
71,158,33450,84,64,0,2,15,4,4.mid,experiment,0
72,160,34311,84,64,0,2,15,4,4.mid,experiment,0
1,19,9485,79,64,0,2,15,5,13.mid,experiment,0
2,21,9788,78,64,0,2,15,5,13.mid,experiment,0
3,23,10027,79,64,0,2,15,5,13.mid,experiment,0
4,25,10341,76,64,0,2,15,5,13.mid,experiment,0
5,26,10393,72,64,0,2,15,5,13.mid,experiment,0
6,28,10599,67,64,0,2,15,5,13.mid,experiment,0
7,30,10881,67,64,0,2,15,5,13.mid,experiment,0
8,32,11106,67,64,0,2,15,5,13.mid,experiment,0
9,35,11678,79,64,0,2,15,5,13.mid,experiment,0
10,37,11989,78,64,0,2,15,5,13.mid,experiment,0
11,39,12216,79,64,0,2,15,5,13.mid,experiment,0
12,41,12442,76,64,0,2,15,5,13.mid,experiment,0
13,43,12743,72,64,0,2,15,5,13.mid,experiment,0
14,45,13018,76,64,0,2,15,5,13.mid,experiment,0
15,47,13244,79,64,0,2,15,5,13.mid,experiment,0
16,49,13543,84,64,0,2,15,5,13.mid,experiment,0
17,50,13662,83,64,0,2,15,5,13.mid,experiment,0
18,52,13847,81,64,0,2,15,5,13.mid,experiment,0
19,54,14111,81,64,0,2,15,5,13.mid,experiment,0
20,56,14357,81,64,0,2,15,5,13.mid,experiment,0
21,59,14887,83,64,0,2,15,5,13.mid,experiment,0
22,61,15162,81,64,0,2,15,5,13.mid,experiment,0
23,63,15396,84,64,0,2,15,5,13.mid,experiment,0
24,65,15723,81,64,0,2,15,5,13.mid,experiment,0
25,67,15983,78,64,0,2,15,5,13.mid,experiment,0
26,68,16048,79,64,0,2,15,5,13.mid,experiment,0
27,70,16572,79,64,0,2,15,5,13.mid,experiment,0
28,72,17446,79,64,0,2,15,5,13.mid,experiment,0
29,74,18031,77,64,0,2,15,5,13.mid,experiment,0
30,76,18287,77,64,0,2,15,5,13.mid,experiment,0
31,78,18560,76,64,0,2,15,5,13.mid,experiment,0
32,80,18817,76,64,0,2,15,5,13.mid,experiment,0
33,82,19664,74,64,0,2,15,5,13.mid,experiment,0
34,85,20772,79,64,0,2,15,5,13.mid,experiment,0
35,86,21228,77,64,0,2,15,5,13.mid,experiment,0
36,88,21416,76,64,0,2,15,5,13.mid,experiment,0
37,90,21668,76,64,0,2,15,5,13.mid,experiment,0
38,92,21926,76,64,0,2,15,5,13.mid,experiment,0
39,94,22136,76,64,0,2,15,5,13.mid,experiment,0
40,97,22768,81,64,0,2,15,5,13.mid,experiment,0
41,99,23019,77,64,0,2,15,5,13.mid,experiment,0
42,101,23198,76,64,0,2,15,5,13.mid,experiment,0
43,103,23487,74,64,0,2,15,5,13.mid,experiment,0
44,105,23750,76,64,0,2,15,5,13.mid,experiment,0
45,107,24117,79,64,0,2,15,5,13.mid,experiment,0
46,109,24250,74,64,0,2,15,5,13.mid,experiment,0
47,110,24290,71,64,0,2,15,5,13.mid,experiment,0
48,112,24541,72,64,0,2,15,5,13.mid,experiment,0
49,114,24817,72,64,0,2,15,5,13.mid,experiment,0
50,116,25072,74,64,0,2,15,5,13.mid,experiment,0
51,118,25340,74,64,0,2,15,5,13.mid,experiment,0
52,120,26158,76,64,0,2,15,5,13.mid,experiment,0
53,122,26829,65,64,0,2,15,5,13.mid,experiment,0
54,124,27064,65,64,0,2,15,5,13.mid,experiment,0
55,126,27324,64,64,0,2,15,5,13.mid,experiment,0
56,128,27597,64,64,0,2,15,5,13.mid,experiment,0
57,130,28452,62,64,0,2,15,5,13.mid,experiment,0
58,132,29107,67,64,0,2,15,5,13.mid,experiment,0
59,134,29365,67,64,0,2,15,5,13.mid,experiment,0
60,136,29617,71,64,0,2,15,5,13.mid,experiment,0
61,138,29868,71,64,0,2,15,5,13.mid,experiment,0
62,140,30161,72,64,0,2,15,5,13.mid,experiment,0
63,142,30425,72,64,0,2,15,5,13.mid,experiment,0
64,144,30687,73,64,0,2,15,5,13.mid,experiment,0
65,146,30943,73,64,0,2,15,5,13.mid,experiment,0
66,149,31698,74,64,0,2,15,5,13.mid,experiment,0
67,151,32238,77,64,0,2,15,5,13.mid,experiment,0
68,152,32766,76,64,0,2,15,5,13.mid,experiment,0
69,154,33340,74,64,0,2,15,5,13.mid,experiment,0
70,156,33832,72,64,0,2,15,5,13.mid,experiment,0
71,158,34342,84,64,0,2,15,5,13.mid,experiment,0
72,160,35184,84,64,0,2,15,5,13.mid,experiment,0
1,19,8813,79,64,0,2,15,6,1.mid,experiment,0
2,21,9129,78,64,0,2,15,6,1.mid,experiment,0
3,23,9377,79,64,0,2,15,6,1.mid,experiment,0
4,25,9675,76,64,0,2,15,6,1.mid,experiment,0
5,26,9741,72,64,0,2,15,6,1.mid,experiment,0
6,28,9959,67,64,0,2,15,6,1.mid,experiment,0
7,30,10235,67,64,0,2,15,6,1.mid,experiment,0
8,32,10477,67,64,0,2,15,6,1.mid,experiment,0
9,35,11040,79,64,0,2,15,6,1.mid,experiment,0
10,37,11349,78,64,0,2,15,6,1.mid,experiment,0
11,39,11569,79,64,0,2,15,6,1.mid,experiment,0
12,41,11786,76,64,0,2,15,6,1.mid,experiment,0
13,43,12105,72,64,0,2,15,6,1.mid,experiment,0
14,45,12357,76,64,0,2,15,6,1.mid,experiment,0
15,47,12597,79,64,0,2,15,6,1.mid,experiment,0
16,49,12919,84,64,0,2,15,6,1.mid,experiment,0
17,50,13037,83,64,0,2,15,6,1.mid,experiment,0
18,52,13217,81,64,0,2,15,6,1.mid,experiment,0
19,54,13488,81,64,0,2,15,6,1.mid,experiment,0
20,56,13732,81,64,0,2,15,6,1.mid,experiment,0
21,59,14277,83,64,0,2,15,6,1.mid,experiment,0
22,61,14551,81,64,0,2,15,6,1.mid,experiment,0
23,63,14768,84,64,0,2,15,6,1.mid,experiment,0
24,65,15050,81,64,0,2,15,6,1.mid,experiment,0
25,67,15317,78,64,0,2,15,6,1.mid,experiment,0
26,68,15389,79,64,0,2,15,6,1.mid,experiment,0
27,70,15888,79,64,0,2,15,6,1.mid,experiment,0
28,72,16704,79,64,0,2,15,6,1.mid,experiment,0
29,74,17323,77,64,0,2,15,6,1.mid,experiment,0
30,76,17558,77,64,0,2,15,6,1.mid,experiment,0
31,78,17842,76,64,0,2,15,6,1.mid,experiment,0
32,80,18107,76,64,0,2,15,6,1.mid,experiment,0
33,82,18870,74,64,0,2,15,6,1.mid,experiment,0
34,84,19927,79,64,0,2,15,6,1.mid,experiment,0
35,86,20461,77,64,0,2,15,6,1.mid,experiment,0
36,88,20685,76,64,0,2,15,6,1.mid,experiment,0
37,90,20950,76,64,0,2,15,6,1.mid,experiment,0
38,92,21199,76,64,0,2,15,6,1.mid,experiment,0
39,94,21447,76,64,0,2,15,6,1.mid,experiment,0
40,97,22093,81,64,0,2,15,6,1.mid,experiment,0
41,99,22345,77,64,0,2,15,6,1.mid,experiment,0
42,101,22512,76,64,0,2,15,6,1.mid,experiment,0
43,103,22795,74,64,0,2,15,6,1.mid,experiment,0
44,105,23025,76,64,0,2,15,6,1.mid,experiment,0
45,107,23391,79,64,0,2,15,6,1.mid,experiment,0
46,109,23525,74,64,0,2,15,6,1.mid,experiment,0
47,110,23589,71,64,0,2,15,6,1.mid,experiment,0
48,112,23858,72,64,0,2,15,6,1.mid,experiment,0
49,114,24118,72,64,0,2,15,6,1.mid,experiment,0
50,116,24387,74,64,0,2,15,6,1.mid,experiment,0
51,118,24654,74,64,0,2,15,6,1.mid,experiment,0
52,120,25395,76,64,0,2,15,6,1.mid,experiment,0
53,122,26099,65,64,0,2,15,6,1.mid,experiment,0
54,124,26378,65,64,0,2,15,6,1.mid,experiment,0
55,126,26652,64,64,0,2,15,6,1.mid,experiment,0
56,128,26923,64,64,0,2,15,6,1.mid,experiment,0
57,130,27640,62,64,0,2,15,6,1.mid,experiment,0
58,132,28345,67,64,0,2,15,6,1.mid,experiment,0
59,134,28617,67,64,0,2,15,6,1.mid,experiment,0
60,136,28859,71,64,0,2,15,6,1.mid,experiment,0
61,138,29128,71,64,0,2,15,6,1.mid,experiment,0
62,140,29429,72,64,0,2,15,6,1.mid,experiment,0
63,142,29678,72,64,0,2,15,6,1.mid,experiment,0
64,144,29941,73,64,0,2,15,6,1.mid,experiment,0
65,146,30189,73,64,0,2,15,6,1.mid,experiment,0
66,149,31030,74,64,0,2,15,6,1.mid,experiment,0
67,151,31568,77,64,0,2,15,6,1.mid,experiment,0
68,153,32164,76,64,0,2,15,6,1.mid,experiment,0
69,155,32710,74,64,0,2,15,6,1.mid,experiment,0
70,157,33272,72,64,0,2,15,6,1.mid,experiment,0
71,158,33709,84,64,0,2,15,6,1.mid,experiment,0
72,160,34705,84,64,0,2,15,6,1.mid,experiment,0
1,19,9576,79,64,0,2,15,7,14.mid,experiment,0
2,21,9905,78,64,0,2,15,7,14.mid,experiment,0
3,23,10165,79,64,0,2,15,7,14.mid,experiment,0
4,25,10468,76,64,0,2,15,7,14.mid,experiment,0
5,26,10531,72,64,0,2,15,7,14.mid,experiment,0
6,28,10747,67,64,0,2,15,7,14.mid,experiment,0
7,30,11007,67,64,0,2,15,7,14.mid,experiment,0
8,32,11256,67,64,0,2,15,7,14.mid,experiment,0
9,35,11748,79,64,0,2,15,7,14.mid,experiment,0
10,37,12068,78,64,0,2,15,7,14.mid,experiment,0
11,39,12318,79,64,0,2,15,7,14.mid,experiment,0
12,41,12550,76,64,0,2,15,7,14.mid,experiment,0
13,43,12854,72,64,0,2,15,7,14.mid,experiment,0
14,45,13160,76,64,0,2,15,7,14.mid,experiment,0
15,47,13365,79,64,0,2,15,7,14.mid,experiment,0
16,49,13684,84,64,0,2,15,7,14.mid,experiment,0
17,50,13820,83,64,0,2,15,7,14.mid,experiment,0
18,52,13981,81,64,0,2,15,7,14.mid,experiment,0
19,54,14247,81,64,0,2,15,7,14.mid,experiment,0
20,56,14496,81,64,0,2,15,7,14.mid,experiment,0
21,59,15034,83,64,0,2,15,7,14.mid,experiment,0
22,61,15313,81,64,0,2,15,7,14.mid,experiment,0
23,63,15558,84,64,0,2,15,7,14.mid,experiment,0
24,65,15836,81,64,0,2,15,7,14.mid,experiment,0
25,67,16121,78,64,0,2,15,7,14.mid,experiment,0
26,68,16182,79,64,0,2,15,7,14.mid,experiment,0
27,70,16662,79,64,0,2,15,7,14.mid,experiment,0
28,72,17519,79,64,0,2,15,7,14.mid,experiment,0
29,74,18133,77,64,0,2,15,7,14.mid,experiment,0
30,76,18390,77,64,0,2,15,7,14.mid,experiment,0
31,78,18663,76,64,0,2,15,7,14.mid,experiment,0
32,80,18920,76,64,0,2,15,7,14.mid,experiment,0
33,82,19686,74,64,0,2,15,7,14.mid,experiment,0
34,85,20881,79,64,0,2,15,7,14.mid,experiment,0
35,86,21281,77,64,0,2,15,7,14.mid,experiment,0
36,88,21557,76,64,0,2,15,7,14.mid,experiment,0
37,90,21828,76,64,0,2,15,7,14.mid,experiment,0
38,92,22092,76,64,0,2,15,7,14.mid,experiment,0
39,94,22328,76,64,0,2,15,7,14.mid,experiment,0
40,98,23132,81,64,0,2,15,7,14.mid,experiment,0
41,99,23184,77,64,0,2,15,7,14.mid,experiment,0
42,101,23372,76,64,0,2,15,7,14.mid,experiment,0
43,103,23654,74,64,0,2,15,7,14.mid,experiment,0
44,105,23925,76,64,0,2,15,7,14.mid,experiment,0
45,107,24290,79,64,0,2,15,7,14.mid,experiment,0
46,109,24428,74,64,0,2,15,7,14.mid,experiment,0
47,110,24464,71,64,0,2,15,7,14.mid,experiment,0
48,112,24711,72,64,0,2,15,7,14.mid,experiment,0
49,114,24977,72,64,0,2,15,7,14.mid,experiment,0
50,116,25254,74,64,0,2,15,7,14.mid,experiment,0
51,118,25516,74,64,0,2,15,7,14.mid,experiment,0
52,120,26257,76,64,0,2,15,7,14.mid,experiment,0
53,122,26924,65,64,0,2,15,7,14.mid,experiment,0
54,124,27169,65,64,0,2,15,7,14.mid,experiment,0
55,126,27443,64,64,0,2,15,7,14.mid,experiment,0
56,128,27712,64,64,0,2,15,7,14.mid,experiment,0
57,130,28496,62,64,0,2,15,7,14.mid,experiment,0
58,132,29197,67,64,0,2,15,7,14.mid,experiment,0
59,134,29451,67,64,0,2,15,7,14.mid,experiment,0
60,136,29702,71,64,0,2,15,7,14.mid,experiment,0
61,138,29957,71,64,0,2,15,7,14.mid,experiment,0
62,140,30255,72,64,0,2,15,7,14.mid,experiment,0
63,142,30500,72,64,0,2,15,7,14.mid,experiment,0
64,144,30772,73,64,0,2,15,7,14.mid,experiment,0
65,146,31024,73,64,0,2,15,7,14.mid,experiment,0
66,149,31808,74,64,0,2,15,7,14.mid,experiment,0
67,150,32303,77,64,0,2,15,7,14.mid,experiment,0
68,152,32852,76,64,0,2,15,7,14.mid,experiment,0
69,154,33448,74,64,0,2,15,7,14.mid,experiment,0
70,156,34039,72,64,0,2,15,7,14.mid,experiment,0
71,158,34605,84,64,0,2,15,7,14.mid,experiment,0
72,160,35417,84,64,0,2,15,7,14.mid,experiment,0
1,19,9234,79,64,0,2,15,8,3.mid,experiment,0
2,21,9558,78,64,0,2,15,8,3.mid,experiment,0
3,23,9814,79,64,0,2,15,8,3.mid,experiment,0
4,25,10101,76,64,0,2,15,8,3.mid,experiment,0
5,26,10158,72,64,0,2,15,8,3.mid,experiment,0
6,28,10400,67,64,0,2,15,8,3.mid,experiment,0
7,30,10673,67,64,0,2,15,8,3.mid,experiment,0
8,32,10931,67,64,0,2,15,8,3.mid,experiment,0
9,35,11444,79,64,0,2,15,8,3.mid,experiment,0
10,37,11765,78,64,0,2,15,8,3.mid,experiment,0
11,39,12017,79,64,0,2,15,8,3.mid,experiment,0
12,41,12235,76,64,0,2,15,8,3.mid,experiment,0
13,43,12550,72,64,0,2,15,8,3.mid,experiment,0
14,45,12842,76,64,0,2,15,8,3.mid,experiment,0
15,47,13032,79,64,0,2,15,8,3.mid,experiment,0
16,49,13340,84,64,0,2,15,8,3.mid,experiment,0
17,50,13464,83,64,0,2,15,8,3.mid,experiment,0
18,52,13628,81,64,0,2,15,8,3.mid,experiment,0
19,54,13903,81,64,0,2,15,8,3.mid,experiment,0
20,56,14142,81,64,0,2,15,8,3.mid,experiment,0
21,59,14682,83,64,0,2,15,8,3.mid,experiment,0
22,61,14947,81,64,0,2,15,8,3.mid,experiment,0
23,63,15192,84,64,0,2,15,8,3.mid,experiment,0
24,65,15492,81,64,0,2,15,8,3.mid,experiment,0
25,67,15745,78,64,0,2,15,8,3.mid,experiment,0
26,68,15809,79,64,0,2,15,8,3.mid,experiment,0
27,70,16348,79,64,0,2,15,8,3.mid,experiment,0
28,72,17183,79,64,0,2,15,8,3.mid,experiment,0
29,74,17799,77,64,0,2,15,8,3.mid,experiment,0
30,76,18055,77,64,0,2,15,8,3.mid,experiment,0
31,78,18332,76,64,0,2,15,8,3.mid,experiment,0
32,80,18603,76,64,0,2,15,8,3.mid,experiment,0
33,82,19335,74,64,0,2,15,8,3.mid,experiment,0
34,84,20504,79,64,0,2,15,8,3.mid,experiment,0
35,86,20904,77,64,0,2,15,8,3.mid,experiment,0
36,88,21154,76,64,0,2,15,8,3.mid,experiment,0
37,90,21421,76,64,0,2,15,8,3.mid,experiment,0
38,92,21685,76,64,0,2,15,8,3.mid,experiment,0
39,94,21954,76,64,0,2,15,8,3.mid,experiment,0
40,97,22442,81,64,0,2,15,8,3.mid,experiment,0
41,99,22753,77,64,0,2,15,8,3.mid,experiment,0
42,101,22955,76,64,0,2,15,8,3.mid,experiment,0
43,103,23264,74,64,0,2,15,8,3.mid,experiment,0
44,105,23526,76,64,0,2,15,8,3.mid,experiment,0
45,107,23888,79,64,0,2,15,8,3.mid,experiment,0
46,109,24038,74,64,0,2,15,8,3.mid,experiment,0
47,110,24081,71,64,0,2,15,8,3.mid,experiment,0
48,112,24355,72,64,0,2,15,8,3.mid,experiment,0
49,114,24622,72,64,0,2,15,8,3.mid,experiment,0
50,116,24901,74,64,0,2,15,8,3.mid,experiment,0
51,118,25148,74,64,0,2,15,8,3.mid,experiment,0
52,120,25844,76,64,0,2,15,8,3.mid,experiment,0
53,122,26558,65,64,0,2,15,8,3.mid,experiment,0
54,124,26834,65,64,0,2,15,8,3.mid,experiment,0
55,126,27087,64,64,0,2,15,8,3.mid,experiment,0
56,128,27357,64,64,0,2,15,8,3.mid,experiment,0
57,130,28237,62,64,0,2,15,8,3.mid,experiment,0
58,132,28936,67,64,0,2,15,8,3.mid,experiment,0
59,134,29194,67,64,0,2,15,8,3.mid,experiment,0
60,136,29455,71,64,0,2,15,8,3.mid,experiment,0
61,138,29699,71,64,0,2,15,8,3.mid,experiment,0
62,140,29999,72,64,0,2,15,8,3.mid,experiment,0
63,142,30247,72,64,0,2,15,8,3.mid,experiment,0
64,144,30526,73,64,0,2,15,8,3.mid,experiment,0
65,146,30788,73,64,0,2,15,8,3.mid,experiment,0
66,148,31513,74,64,0,2,15,8,3.mid,experiment,0
67,151,32119,77,64,0,2,15,8,3.mid,experiment,0
68,152,32570,76,64,0,2,15,8,3.mid,experiment,0
69,154,33174,74,64,0,2,15,8,3.mid,experiment,0
70,157,33834,72,64,0,2,15,8,3.mid,experiment,0
71,158,34289,84,64,0,2,15,8,3.mid,experiment,0
72,160,35235,84,64,0,2,15,8,3.mid,experiment,0
1,19,8655,79,64,0,2,15,9,2.mid,experiment,0
2,21,8971,78,64,0,2,15,9,2.mid,experiment,0
3,23,9224,79,64,0,2,15,9,2.mid,experiment,0
4,25,9494,76,64,0,2,15,9,2.mid,experiment,0
5,26,9589,72,64,0,2,15,9,2.mid,experiment,0
6,28,9786,67,64,0,2,15,9,2.mid,experiment,0
7,30,10052,67,64,0,2,15,9,2.mid,experiment,0
8,32,10307,67,64,0,2,15,9,2.mid,experiment,0
9,35,10832,79,64,0,2,15,9,2.mid,experiment,0
10,37,11166,78,64,0,2,15,9,2.mid,experiment,0
11,39,11379,79,64,0,2,15,9,2.mid,experiment,0
12,41,11609,76,64,0,2,15,9,2.mid,experiment,0
13,43,11906,72,64,0,2,15,9,2.mid,experiment,0
14,45,12203,76,64,0,2,15,9,2.mid,experiment,0
15,47,12407,79,64,0,2,15,9,2.mid,experiment,0
16,49,12722,84,64,0,2,15,9,2.mid,experiment,0
17,51,12952,83,64,0,2,15,9,2.mid,experiment,0
18,52,13004,81,64,0,2,15,9,2.mid,experiment,0
19,54,13267,81,64,0,2,15,9,2.mid,experiment,0
20,56,13524,81,64,0,2,15,9,2.mid,experiment,0
21,59,14051,83,64,0,2,15,9,2.mid,experiment,0
22,61,14326,81,64,0,2,15,9,2.mid,experiment,0
23,63,14551,84,64,0,2,15,9,2.mid,experiment,0
24,65,14860,81,64,0,2,15,9,2.mid,experiment,0
25,67,15120,78,64,0,2,15,9,2.mid,experiment,0
26,68,15180,79,64,0,2,15,9,2.mid,experiment,0
27,70,15683,79,64,0,2,15,9,2.mid,experiment,0
28,72,16510,79,64,0,2,15,9,2.mid,experiment,0
29,74,17155,77,64,0,2,15,9,2.mid,experiment,0
30,76,17406,77,64,0,2,15,9,2.mid,experiment,0
31,78,17686,76,64,0,2,15,9,2.mid,experiment,0
32,80,17954,76,64,0,2,15,9,2.mid,experiment,0
33,82,18722,74,64,0,2,15,9,2.mid,experiment,0
34,84,19844,79,64,0,2,15,9,2.mid,experiment,0
35,86,20305,77,64,0,2,15,9,2.mid,experiment,0
36,88,20526,76,64,0,2,15,9,2.mid,experiment,0
37,90,20775,76,64,0,2,15,9,2.mid,experiment,0
38,92,21037,76,64,0,2,15,9,2.mid,experiment,0
39,94,21265,76,64,0,2,15,9,2.mid,experiment,0
40,97,22004,81,64,0,2,15,9,2.mid,experiment,0
41,99,22131,77,64,0,2,15,9,2.mid,experiment,0
42,101,22317,76,64,0,2,15,9,2.mid,experiment,0
43,103,22616,74,64,0,2,15,9,2.mid,experiment,0
44,105,22860,76,64,0,2,15,9,2.mid,experiment,0
45,107,23206,79,64,0,2,15,9,2.mid,experiment,0
46,109,23365,74,64,0,2,15,9,2.mid,experiment,0
47,110,23424,71,64,0,2,15,9,2.mid,experiment,0
48,112,23683,72,64,0,2,15,9,2.mid,experiment,0
49,114,23937,72,64,0,2,15,9,2.mid,experiment,0
50,116,24213,74,64,0,2,15,9,2.mid,experiment,0
51,118,24476,74,64,0,2,15,9,2.mid,experiment,0
52,120,25218,76,64,0,2,15,9,2.mid,experiment,0
53,122,25834,65,64,0,2,15,9,2.mid,experiment,0
54,124,26085,65,64,0,2,15,9,2.mid,experiment,0
55,126,26369,64,64,0,2,15,9,2.mid,experiment,0
56,128,26643,64,64,0,2,15,9,2.mid,experiment,0
57,130,27506,62,64,0,2,15,9,2.mid,experiment,0
58,132,28154,67,64,0,2,15,9,2.mid,experiment,0
59,134,28416,67,64,0,2,15,9,2.mid,experiment,0
60,136,28692,71,64,0,2,15,9,2.mid,experiment,0
61,138,28921,71,64,0,2,15,9,2.mid,experiment,0
62,140,29244,72,64,0,2,15,9,2.mid,experiment,0
63,142,29499,72,64,0,2,15,9,2.mid,experiment,0
64,144,29759,73,64,0,2,15,9,2.mid,experiment,0
65,146,30022,73,64,0,2,15,9,2.mid,experiment,0
66,149,30760,74,64,0,2,15,9,2.mid,experiment,0
67,151,31307,77,64,0,2,15,9,2.mid,experiment,0
68,153,31903,76,64,0,2,15,9,2.mid,experiment,0
69,155,32443,74,64,0,2,15,9,2.mid,experiment,0
70,157,33040,72,64,0,2,15,9,2.mid,experiment,0
71,158,33490,84,64,0,2,15,9,2.mid,experiment,0
72,160,34398,84,64,0,2,15,9,2.mid,experiment,0
1,19,9286,79,64,0,2,15,10,7.mid,experiment,0
2,21,9600,78,64,0,2,15,10,7.mid,experiment,0
3,23,9832,79,64,0,2,15,10,7.mid,experiment,0
4,25,10149,76,64,0,2,15,10,7.mid,experiment,0
5,26,10210,72,64,0,2,15,10,7.mid,experiment,0
6,28,10430,67,64,0,2,15,10,7.mid,experiment,0
7,30,10711,67,64,0,2,15,10,7.mid,experiment,0
8,32,10965,67,64,0,2,15,10,7.mid,experiment,0
9,35,11523,79,64,0,2,15,10,7.mid,experiment,0
10,37,11801,78,64,0,2,15,10,7.mid,experiment,0
11,39,12059,79,64,0,2,15,10,7.mid,experiment,0
12,41,12300,76,64,0,2,15,10,7.mid,experiment,0
13,43,12600,72,64,0,2,15,10,7.mid,experiment,0
14,45,12892,76,64,0,2,15,10,7.mid,experiment,0
15,47,13093,79,64,0,2,15,10,7.mid,experiment,0
16,49,13425,84,64,0,2,15,10,7.mid,experiment,0
17,50,13546,83,64,0,2,15,10,7.mid,experiment,0
18,52,13743,81,64,0,2,15,10,7.mid,experiment,0
19,54,13993,81,64,0,2,15,10,7.mid,experiment,0
20,56,14245,81,64,0,2,15,10,7.mid,experiment,0
21,59,14766,83,64,0,2,15,10,7.mid,experiment,0
22,61,15058,81,64,0,2,15,10,7.mid,experiment,0
23,63,15300,84,64,0,2,15,10,7.mid,experiment,0
24,65,15602,81,64,0,2,15,10,7.mid,experiment,0
25,67,15874,78,64,0,2,15,10,7.mid,experiment,0
26,68,15951,79,64,0,2,15,10,7.mid,experiment,0
27,70,16526,79,64,0,2,15,10,7.mid,experiment,0
28,72,17358,79,64,0,2,15,10,7.mid,experiment,0
29,74,17945,77,64,0,2,15,10,7.mid,experiment,0
30,76,18219,77,64,0,2,15,10,7.mid,experiment,0
31,78,18487,76,64,0,2,15,10,7.mid,experiment,0
32,80,18749,76,64,0,2,15,10,7.mid,experiment,0
33,82,19633,74,64,0,2,15,10,7.mid,experiment,0
34,85,20732,79,64,0,2,15,10,7.mid,experiment,0
35,86,21158,77,64,0,2,15,10,7.mid,experiment,0
36,88,21407,76,64,0,2,15,10,7.mid,experiment,0
37,90,21670,76,64,0,2,15,10,7.mid,experiment,0
38,92,21942,76,64,0,2,15,10,7.mid,experiment,0
39,94,22172,76,64,0,2,15,10,7.mid,experiment,0
40,97,22824,81,64,0,2,15,10,7.mid,experiment,0
41,99,23095,77,64,0,2,15,10,7.mid,experiment,0
42,101,23274,76,64,0,2,15,10,7.mid,experiment,0
43,103,23563,74,64,0,2,15,10,7.mid,experiment,0
44,105,23812,76,64,0,2,15,10,7.mid,experiment,0
45,107,24153,79,64,0,2,15,10,7.mid,experiment,0
46,109,24355,74,64,0,2,15,10,7.mid,experiment,0
47,110,24419,71,64,0,2,15,10,7.mid,experiment,0
48,112,24662,72,64,0,2,15,10,7.mid,experiment,0
49,114,24929,72,64,0,2,15,10,7.mid,experiment,0
50,116,25192,74,64,0,2,15,10,7.mid,experiment,0
51,118,25465,74,64,0,2,15,10,7.mid,experiment,0
52,120,26320,76,64,0,2,15,10,7.mid,experiment,0
53,122,26982,65,64,0,2,15,10,7.mid,experiment,0
54,124,27239,65,64,0,2,15,10,7.mid,experiment,0
55,126,27512,64,64,0,2,15,10,7.mid,experiment,0
56,128,27780,64,64,0,2,15,10,7.mid,experiment,0
57,130,28687,62,64,0,2,15,10,7.mid,experiment,0
58,132,29335,67,64,0,2,15,10,7.mid,experiment,0
59,134,29581,67,64,0,2,15,10,7.mid,experiment,0
60,136,29859,71,64,0,2,15,10,7.mid,experiment,0
61,138,30117,71,64,0,2,15,10,7.mid,experiment,0
62,140,30423,72,64,0,2,15,10,7.mid,experiment,0
63,142,30685,72,64,0,2,15,10,7.mid,experiment,0
64,144,30933,73,64,0,2,15,10,7.mid,experiment,0
65,146,31207,73,64,0,2,15,10,7.mid,experiment,0
66,149,32006,74,64,0,2,15,10,7.mid,experiment,0
67,151,32610,77,64,0,2,15,10,7.mid,experiment,0
68,153,33196,76,64,0,2,15,10,7.mid,experiment,0
69,155,33711,74,64,0,2,15,10,7.mid,experiment,0
70,157,34297,72,64,0,2,15,10,7.mid,experiment,0
71,158,34778,84,64,0,2,15,10,7.mid,experiment,0
72,160,35702,84,64,0,2,15,10,7.mid,experiment,0
1,19,8555,79,64,0,2,15,11,16.mid,experiment,0
2,21,8873,78,64,0,2,15,11,16.mid,experiment,0
3,23,9120,79,64,0,2,15,11,16.mid,experiment,0
4,25,9433,76,64,0,2,15,11,16.mid,experiment,0
5,26,9487,72,64,0,2,15,11,16.mid,experiment,0
6,28,9726,67,64,0,2,15,11,16.mid,experiment,0
7,30,10000,67,64,0,2,15,11,16.mid,experiment,0
8,32,10236,67,64,0,2,15,11,16.mid,experiment,0
9,35,10809,79,64,0,2,15,11,16.mid,experiment,0
10,37,11130,78,64,0,2,15,11,16.mid,experiment,0
11,39,11363,79,64,0,2,15,11,16.mid,experiment,0
12,41,11590,76,64,0,2,15,11,16.mid,experiment,0
13,43,11891,72,64,0,2,15,11,16.mid,experiment,0
14,45,12177,76,64,0,2,15,11,16.mid,experiment,0
15,47,12377,79,64,0,2,15,11,16.mid,experiment,0
16,49,12703,84,64,0,2,15,11,16.mid,experiment,0
17,50,12818,83,64,0,2,15,11,16.mid,experiment,0
18,52,12990,81,64,0,2,15,11,16.mid,experiment,0
19,54,13283,81,64,0,2,15,11,16.mid,experiment,0
20,56,13524,81,64,0,2,15,11,16.mid,experiment,0
21,59,14106,83,64,0,2,15,11,16.mid,experiment,0
22,61,14378,81,64,0,2,15,11,16.mid,experiment,0
23,63,14614,84,64,0,2,15,11,16.mid,experiment,0
24,65,14914,81,64,0,2,15,11,16.mid,experiment,0
25,67,15184,78,64,0,2,15,11,16.mid,experiment,0
26,68,15250,79,64,0,2,15,11,16.mid,experiment,0
27,70,15889,79,64,0,2,15,11,16.mid,experiment,0
28,72,16641,79,64,0,2,15,11,16.mid,experiment,0
29,74,17245,77,64,0,2,15,11,16.mid,experiment,0
30,76,17519,77,64,0,2,15,11,16.mid,experiment,0
31,78,17814,76,64,0,2,15,11,16.mid,experiment,0
32,80,18098,76,64,0,2,15,11,16.mid,experiment,0
33,82,18886,74,64,0,2,15,11,16.mid,experiment,0
34,85,20074,79,64,0,2,15,11,16.mid,experiment,0
35,86,20478,77,64,0,2,15,11,16.mid,experiment,0
36,88,20730,76,64,0,2,15,11,16.mid,experiment,0
37,90,21008,76,64,0,2,15,11,16.mid,experiment,0
38,92,21283,76,64,0,2,15,11,16.mid,experiment,0
39,94,21510,76,64,0,2,15,11,16.mid,experiment,0
40,97,22138,81,64,0,2,15,11,16.mid,experiment,0
41,99,22405,77,64,0,2,15,11,16.mid,experiment,0
42,101,22587,76,64,0,2,15,11,16.mid,experiment,0
43,103,22901,74,64,0,2,15,11,16.mid,experiment,0
44,105,23142,76,64,0,2,15,11,16.mid,experiment,0
45,107,23578,79,64,0,2,15,11,16.mid,experiment,0
46,109,23677,74,64,0,2,15,11,16.mid,experiment,0
47,110,23710,71,64,0,2,15,11,16.mid,experiment,0
48,112,23992,72,64,0,2,15,11,16.mid,experiment,0
49,114,24245,72,64,0,2,15,11,16.mid,experiment,0
50,116,24519,74,64,0,2,15,11,16.mid,experiment,0
51,118,24803,74,64,0,2,15,11,16.mid,experiment,0
52,120,25521,76,64,0,2,15,11,16.mid,experiment,0
53,122,26212,65,64,0,2,15,11,16.mid,experiment,0
54,124,26468,65,64,0,2,15,11,16.mid,experiment,0
55,126,26746,64,64,0,2,15,11,16.mid,experiment,0
56,128,27020,64,64,0,2,15,11,16.mid,experiment,0
57,130,27869,62,64,0,2,15,11,16.mid,experiment,0
58,132,28513,67,64,0,2,15,11,16.mid,experiment,0
59,134,28769,67,64,0,2,15,11,16.mid,experiment,0
60,136,29028,71,64,0,2,15,11,16.mid,experiment,0
61,138,29308,71,64,0,2,15,11,16.mid,experiment,0
62,140,29626,72,64,0,2,15,11,16.mid,experiment,0
63,142,29883,72,64,0,2,15,11,16.mid,experiment,0
64,144,30150,73,64,0,2,15,11,16.mid,experiment,0
65,146,30418,73,64,0,2,15,11,16.mid,experiment,0
66,149,31258,74,64,0,2,15,11,16.mid,experiment,0
67,151,31811,77,64,0,2,15,11,16.mid,experiment,0
68,153,32409,76,64,0,2,15,11,16.mid,experiment,0
69,155,32950,74,64,0,2,15,11,16.mid,experiment,0
70,157,33538,72,64,0,2,15,11,16.mid,experiment,0
71,158,33991,84,64,0,2,15,11,16.mid,experiment,0
72,160,34991,84,64,0,2,15,11,16.mid,experiment,0
1,19,8460,79,64,0,2,15,12,12.mid,experiment,0
2,21,8788,78,64,0,2,15,12,12.mid,experiment,0
3,23,9042,79,64,0,2,15,12,12.mid,experiment,0
4,25,9302,76,64,0,2,15,12,12.mid,experiment,0
5,26,9412,72,64,0,2,15,12,12.mid,experiment,0
6,28,9610,67,64,0,2,15,12,12.mid,experiment,0
7,30,9872,67,64,0,2,15,12,12.mid,experiment,0
8,32,10134,67,64,0,2,15,12,12.mid,experiment,0
9,35,10669,79,64,0,2,15,12,12.mid,experiment,0
10,37,11000,78,64,0,2,15,12,12.mid,experiment,0
11,39,11223,79,64,0,2,15,12,12.mid,experiment,0
12,41,11447,76,64,0,2,15,12,12.mid,experiment,0
13,43,11734,72,64,0,2,15,12,12.mid,experiment,0
14,45,12036,76,64,0,2,15,12,12.mid,experiment,0
15,47,12213,79,64,0,2,15,12,12.mid,experiment,0
16,49,12532,84,64,0,2,15,12,12.mid,experiment,0
17,50,12743,83,64,0,2,15,12,12.mid,experiment,0
18,52,12800,81,64,0,2,15,12,12.mid,experiment,0
19,54,13095,81,64,0,2,15,12,12.mid,experiment,0
20,56,13362,81,64,0,2,15,12,12.mid,experiment,0
21,59,13876,83,64,0,2,15,12,12.mid,experiment,0
22,61,14145,81,64,0,2,15,12,12.mid,experiment,0
23,63,14404,84,64,0,2,15,12,12.mid,experiment,0
24,65,14676,81,64,0,2,15,12,12.mid,experiment,0
25,67,14954,78,64,0,2,15,12,12.mid,experiment,0
26,68,15005,79,64,0,2,15,12,12.mid,experiment,0
27,70,15553,79,64,0,2,15,12,12.mid,experiment,0
28,72,16347,79,64,0,2,15,12,12.mid,experiment,0
29,74,16941,77,64,0,2,15,12,12.mid,experiment,0
30,76,17195,77,64,0,2,15,12,12.mid,experiment,0
31,78,17468,76,64,0,2,15,12,12.mid,experiment,0
32,80,17752,76,64,0,2,15,12,12.mid,experiment,0
33,82,18502,74,64,0,2,15,12,12.mid,experiment,0
34,85,19738,79,64,0,2,15,12,12.mid,experiment,0
35,86,20120,77,64,0,2,15,12,12.mid,experiment,0
36,88,20343,76,64,0,2,15,12,12.mid,experiment,0
37,90,20596,76,64,0,2,15,12,12.mid,experiment,0
38,92,20865,76,64,0,2,15,12,12.mid,experiment,0
39,94,21127,76,64,0,2,15,12,12.mid,experiment,0
40,97,21792,81,64,0,2,15,12,12.mid,experiment,0
41,99,21980,77,64,0,2,15,12,12.mid,experiment,0
42,101,22158,76,64,0,2,15,12,12.mid,experiment,0
43,103,22463,74,64,0,2,15,12,12.mid,experiment,0
44,105,22705,76,64,0,2,15,12,12.mid,experiment,0
45,107,23095,79,64,0,2,15,12,12.mid,experiment,0
46,109,23220,74,64,0,2,15,12,12.mid,experiment,0
47,110,23296,71,64,0,2,15,12,12.mid,experiment,0
48,112,23547,72,64,0,2,15,12,12.mid,experiment,0
49,114,23808,72,64,0,2,15,12,12.mid,experiment,0
50,116,24082,74,64,0,2,15,12,12.mid,experiment,0
51,118,24338,74,64,0,2,15,12,12.mid,experiment,0
52,120,25052,76,64,0,2,15,12,12.mid,experiment,0
53,122,25722,65,64,0,2,15,12,12.mid,experiment,0
54,124,25973,65,64,0,2,15,12,12.mid,experiment,0
55,126,26252,64,64,0,2,15,12,12.mid,experiment,0
56,128,26531,64,64,0,2,15,12,12.mid,experiment,0
57,130,27286,62,64,0,2,15,12,12.mid,experiment,0
58,132,27954,67,64,0,2,15,12,12.mid,experiment,0
59,134,28224,67,64,0,2,15,12,12.mid,experiment,0
60,136,28466,71,64,0,2,15,12,12.mid,experiment,0
61,138,28739,71,64,0,2,15,12,12.mid,experiment,0
62,140,29042,72,64,0,2,15,12,12.mid,experiment,0
63,142,29292,72,64,0,2,15,12,12.mid,experiment,0
64,144,29558,73,64,0,2,15,12,12.mid,experiment,0
65,146,29822,73,64,0,2,15,12,12.mid,experiment,0
66,149,30600,74,64,0,2,15,12,12.mid,experiment,0
67,151,31156,77,64,0,2,15,12,12.mid,experiment,0
68,153,31727,76,64,0,2,15,12,12.mid,experiment,0
69,154,32197,74,64,0,2,15,12,12.mid,experiment,0
70,157,32891,72,64,0,2,15,12,12.mid,experiment,0
71,158,33318,84,64,0,2,15,12,12.mid,experiment,0
72,160,34317,84,64,0,2,15,12,12.mid,experiment,0
1,19,8885,79,64,0,2,15,13,6.mid,experiment,0
2,21,9204,78,64,0,2,15,13,6.mid,experiment,0
3,23,9470,79,64,0,2,15,13,6.mid,experiment,0
4,25,9759,76,64,0,2,15,13,6.mid,experiment,0
5,26,9818,72,64,0,2,15,13,6.mid,experiment,0
6,28,10061,67,64,0,2,15,13,6.mid,experiment,0
7,30,10341,67,64,0,2,15,13,6.mid,experiment,0
8,32,10580,67,64,0,2,15,13,6.mid,experiment,0
9,35,11161,79,64,0,2,15,13,6.mid,experiment,0
10,37,11488,78,64,0,2,15,13,6.mid,experiment,0
11,39,11723,79,64,0,2,15,13,6.mid,experiment,0
12,41,11950,76,64,0,2,15,13,6.mid,experiment,0
13,43,12250,72,64,0,2,15,13,6.mid,experiment,0
14,45,12531,76,64,0,2,15,13,6.mid,experiment,0
15,47,12730,79,64,0,2,15,13,6.mid,experiment,0
16,49,13060,84,64,0,2,15,13,6.mid,experiment,0
17,50,13224,83,64,0,2,15,13,6.mid,experiment,0
18,52,13375,81,64,0,2,15,13,6.mid,experiment,0
19,54,13651,81,64,0,2,15,13,6.mid,experiment,0
20,56,13907,81,64,0,2,15,13,6.mid,experiment,0
21,59,14439,83,64,0,2,15,13,6.mid,experiment,0
22,61,14725,81,64,0,2,15,13,6.mid,experiment,0
23,63,14978,84,64,0,2,15,13,6.mid,experiment,0
24,65,15285,81,64,0,2,15,13,6.mid,experiment,0
25,67,15545,78,64,0,2,15,13,6.mid,experiment,0
26,68,15614,79,64,0,2,15,13,6.mid,experiment,0
27,70,16117,79,64,0,2,15,13,6.mid,experiment,0
28,72,17026,79,64,0,2,15,13,6.mid,experiment,0
29,74,17637,77,64,0,2,15,13,6.mid,experiment,0
30,76,17927,77,64,0,2,15,13,6.mid,experiment,0
31,78,18200,76,64,0,2,15,13,6.mid,experiment,0
32,80,18476,76,64,0,2,15,13,6.mid,experiment,0
33,82,19284,74,64,0,2,15,13,6.mid,experiment,0
34,84,20352,79,64,0,2,15,13,6.mid,experiment,0
35,86,20817,77,64,0,2,15,13,6.mid,experiment,0
36,88,21076,76,64,0,2,15,13,6.mid,experiment,0
37,90,21337,76,64,0,2,15,13,6.mid,experiment,0
38,92,21597,76,64,0,2,15,13,6.mid,experiment,0
39,94,21855,76,64,0,2,15,13,6.mid,experiment,0
40,97,22485,81,64,0,2,15,13,6.mid,experiment,0
41,99,22725,77,64,0,2,15,13,6.mid,experiment,0
42,101,22923,76,64,0,2,15,13,6.mid,experiment,0
43,103,23226,74,64,0,2,15,13,6.mid,experiment,0
44,105,23461,76,64,0,2,15,13,6.mid,experiment,0
45,107,23806,79,64,0,2,15,13,6.mid,experiment,0
46,109,23982,74,64,0,2,15,13,6.mid,experiment,0
47,110,24035,71,64,0,2,15,13,6.mid,experiment,0
48,112,24299,72,64,0,2,15,13,6.mid,experiment,0
49,114,24560,72,64,0,2,15,13,6.mid,experiment,0
50,116,24814,74,64,0,2,15,13,6.mid,experiment,0
51,118,25093,74,64,0,2,15,13,6.mid,experiment,0
52,120,25888,76,64,0,2,15,13,6.mid,experiment,0
53,122,26510,65,64,0,2,15,13,6.mid,experiment,0
54,124,26801,65,64,0,2,15,13,6.mid,experiment,0
55,126,27054,64,64,0,2,15,13,6.mid,experiment,0
56,128,27345,64,64,0,2,15,13,6.mid,experiment,0
57,130,28120,62,64,0,2,15,13,6.mid,experiment,0
58,132,28812,67,64,0,2,15,13,6.mid,experiment,0
59,134,29097,67,64,0,2,15,13,6.mid,experiment,0
60,136,29342,71,64,0,2,15,13,6.mid,experiment,0
61,138,29623,71,64,0,2,15,13,6.mid,experiment,0
62,140,29916,72,64,0,2,15,13,6.mid,experiment,0
63,142,30148,72,64,0,2,15,13,6.mid,experiment,0
64,144,30433,73,64,0,2,15,13,6.mid,experiment,0
65,146,30699,73,64,0,2,15,13,6.mid,experiment,0
66,149,31568,74,64,0,2,15,13,6.mid,experiment,0
67,151,32151,77,64,0,2,15,13,6.mid,experiment,0
68,153,32767,76,64,0,2,15,13,6.mid,experiment,0
69,155,33286,74,64,0,2,15,13,6.mid,experiment,0
70,157,33851,72,64,0,2,15,13,6.mid,experiment,0
71,158,34311,84,64,0,2,15,13,6.mid,experiment,0
72,160,35193,84,64,0,2,15,13,6.mid,experiment,0
1,19,9178,79,64,0,2,15,14,11.mid,experiment,0
2,21,9493,78,64,0,2,15,14,11.mid,experiment,0
3,23,9744,79,64,0,2,15,14,11.mid,experiment,0
4,25,10023,76,64,0,2,15,14,11.mid,experiment,0
5,26,10078,72,64,0,2,15,14,11.mid,experiment,0
6,28,10317,67,64,0,2,15,14,11.mid,experiment,0
7,30,10600,67,64,0,2,15,14,11.mid,experiment,0
8,32,10832,67,64,0,2,15,14,11.mid,experiment,0
9,35,11382,79,64,0,2,15,14,11.mid,experiment,0
10,37,11695,78,64,0,2,15,14,11.mid,experiment,0
11,39,11926,79,64,0,2,15,14,11.mid,experiment,0
12,41,12162,76,64,0,2,15,14,11.mid,experiment,0
13,43,12452,72,64,0,2,15,14,11.mid,experiment,0
14,45,12743,76,64,0,2,15,14,11.mid,experiment,0
15,47,12948,79,64,0,2,15,14,11.mid,experiment,0
16,49,13248,84,64,0,2,15,14,11.mid,experiment,0
17,50,13408,83,64,0,2,15,14,11.mid,experiment,0
18,52,13557,81,64,0,2,15,14,11.mid,experiment,0
19,54,13816,81,64,0,2,15,14,11.mid,experiment,0
20,56,14071,81,64,0,2,15,14,11.mid,experiment,0
21,59,14610,83,64,0,2,15,14,11.mid,experiment,0
22,61,14895,81,64,0,2,15,14,11.mid,experiment,0
23,63,15119,84,64,0,2,15,14,11.mid,experiment,0
24,65,15392,81,64,0,2,15,14,11.mid,experiment,0
25,67,15673,78,64,0,2,15,14,11.mid,experiment,0
26,68,15727,79,64,0,2,15,14,11.mid,experiment,0
27,70,16268,79,64,0,2,15,14,11.mid,experiment,0
28,72,17102,79,64,0,2,15,14,11.mid,experiment,0
29,74,17771,77,64,0,2,15,14,11.mid,experiment,0
30,76,18040,77,64,0,2,15,14,11.mid,experiment,0
31,78,18309,76,64,0,2,15,14,11.mid,experiment,0
32,80,18577,76,64,0,2,15,14,11.mid,experiment,0
33,82,19368,74,64,0,2,15,14,11.mid,experiment,0
34,85,20534,79,64,0,2,15,14,11.mid,experiment,0
35,86,20964,77,64,0,2,15,14,11.mid,experiment,0
36,88,21177,76,64,0,2,15,14,11.mid,experiment,0
37,90,21451,76,64,0,2,15,14,11.mid,experiment,0
38,92,21721,76,64,0,2,15,14,11.mid,experiment,0
39,94,21955,76,64,0,2,15,14,11.mid,experiment,0
40,97,22590,81,64,0,2,15,14,11.mid,experiment,0
41,99,22841,77,64,0,2,15,14,11.mid,experiment,0
42,101,23047,76,64,0,2,15,14,11.mid,experiment,0
43,103,23344,74,64,0,2,15,14,11.mid,experiment,0
44,105,23592,76,64,0,2,15,14,11.mid,experiment,0
45,107,23985,79,64,0,2,15,14,11.mid,experiment,0
46,109,24121,74,64,0,2,15,14,11.mid,experiment,0
47,110,24189,71,64,0,2,15,14,11.mid,experiment,0
48,112,24440,72,64,0,2,15,14,11.mid,experiment,0
49,114,24708,72,64,0,2,15,14,11.mid,experiment,0
50,116,24961,74,64,0,2,15,14,11.mid,experiment,0
51,118,25243,74,64,0,2,15,14,11.mid,experiment,0
52,120,26053,76,64,0,2,15,14,11.mid,experiment,0
53,122,26703,65,64,0,2,15,14,11.mid,experiment,0
54,124,26963,65,64,0,2,15,14,11.mid,experiment,0
55,126,27235,64,64,0,2,15,14,11.mid,experiment,0
56,128,27511,64,64,0,2,15,14,11.mid,experiment,0
57,130,28302,62,64,0,2,15,14,11.mid,experiment,0
58,132,29018,67,64,0,2,15,14,11.mid,experiment,0
59,134,29299,67,64,0,2,15,14,11.mid,experiment,0
60,136,29552,71,64,0,2,15,14,11.mid,experiment,0
61,138,29821,71,64,0,2,15,14,11.mid,experiment,0
62,140,30124,72,64,0,2,15,14,11.mid,experiment,0
63,142,30382,72,64,0,2,15,14,11.mid,experiment,0
64,144,30661,73,64,0,2,15,14,11.mid,experiment,0
65,146,30924,73,64,0,2,15,14,11.mid,experiment,0
66,149,31779,74,64,0,2,15,14,11.mid,experiment,0
67,151,32353,77,64,0,2,15,14,11.mid,experiment,0
68,153,32986,76,64,0,2,15,14,11.mid,experiment,0
69,155,33520,74,64,0,2,15,14,11.mid,experiment,0
70,157,34103,72,64,0,2,15,14,11.mid,experiment,0
71,158,34572,84,64,0,2,15,14,11.mid,experiment,0
72,160,35460,84,64,0,2,15,14,11.mid,experiment,0
1,19,9088,79,64,0,2,15,15,8.mid,experiment,0
2,21,9403,78,64,0,2,15,15,8.mid,experiment,0
3,23,9660,79,64,0,2,15,15,8.mid,experiment,0
4,25,9946,76,64,0,2,15,15,8.mid,experiment,0
5,26,10003,72,64,0,2,15,15,8.mid,experiment,0
6,28,10212,67,64,0,2,15,15,8.mid,experiment,0
7,30,10505,67,64,0,2,15,15,8.mid,experiment,0
8,32,10757,67,64,0,2,15,15,8.mid,experiment,0
9,35,11263,79,64,0,2,15,15,8.mid,experiment,0
10,37,11607,78,64,0,2,15,15,8.mid,experiment,0
11,39,11824,79,64,0,2,15,15,8.mid,experiment,0
12,41,12065,76,64,0,2,15,15,8.mid,experiment,0
13,43,12373,72,64,0,2,15,15,8.mid,experiment,0
14,45,12665,76,64,0,2,15,15,8.mid,experiment,0
15,47,12877,79,64,0,2,15,15,8.mid,experiment,0
16,49,13206,84,64,0,2,15,15,8.mid,experiment,0
17,50,13319,83,64,0,2,15,15,8.mid,experiment,0
18,52,13497,81,64,0,2,15,15,8.mid,experiment,0
19,54,13778,81,64,0,2,15,15,8.mid,experiment,0
20,56,14033,81,64,0,2,15,15,8.mid,experiment,0
21,59,14560,83,64,0,2,15,15,8.mid,experiment,0
22,61,14837,81,64,0,2,15,15,8.mid,experiment,0
23,63,15091,84,64,0,2,15,15,8.mid,experiment,0
24,65,15378,81,64,0,2,15,15,8.mid,experiment,0
25,67,15649,78,64,0,2,15,15,8.mid,experiment,0
26,68,15697,79,64,0,2,15,15,8.mid,experiment,0
27,70,16340,79,64,0,2,15,15,8.mid,experiment,0
28,72,17146,79,64,0,2,15,15,8.mid,experiment,0
29,74,17692,77,64,0,2,15,15,8.mid,experiment,0
30,76,17964,77,64,0,2,15,15,8.mid,experiment,0
31,78,18242,76,64,0,2,15,15,8.mid,experiment,0
32,80,18527,76,64,0,2,15,15,8.mid,experiment,0
33,82,19316,74,64,0,2,15,15,8.mid,experiment,0
34,85,20432,79,64,0,2,15,15,8.mid,experiment,0
35,86,20782,77,64,0,2,15,15,8.mid,experiment,0
36,88,21050,76,64,0,2,15,15,8.mid,experiment,0
37,90,21334,76,64,0,2,15,15,8.mid,experiment,0
38,92,21604,76,64,0,2,15,15,8.mid,experiment,0
39,94,21821,76,64,0,2,15,15,8.mid,experiment,0
40,97,22416,81,64,0,2,15,15,8.mid,experiment,0
41,99,22754,77,64,0,2,15,15,8.mid,experiment,0
42,101,22947,76,64,0,2,15,15,8.mid,experiment,0
43,103,23266,74,64,0,2,15,15,8.mid,experiment,0
44,105,23521,76,64,0,2,15,15,8.mid,experiment,0
45,107,23785,79,64,0,2,15,15,8.mid,experiment,0
46,109,23970,74,64,0,2,15,15,8.mid,experiment,0
47,110,24010,71,64,0,2,15,15,8.mid,experiment,0
48,112,24265,72,64,0,2,15,15,8.mid,experiment,0
49,114,24564,72,64,0,2,15,15,8.mid,experiment,0
50,116,24823,74,64,0,2,15,15,8.mid,experiment,0
51,118,25097,74,64,0,2,15,15,8.mid,experiment,0
52,120,25857,76,64,0,2,15,15,8.mid,experiment,0
53,122,26504,65,64,0,2,15,15,8.mid,experiment,0
54,124,26764,65,64,0,2,15,15,8.mid,experiment,0
55,126,27074,64,64,0,2,15,15,8.mid,experiment,0
56,128,27337,64,64,0,2,15,15,8.mid,experiment,0
57,130,28131,62,64,0,2,15,15,8.mid,experiment,0
58,132,28750,67,64,0,2,15,15,8.mid,experiment,0
59,134,29033,67,64,0,2,15,15,8.mid,experiment,0
60,136,29301,71,64,0,2,15,15,8.mid,experiment,0
61,138,29549,71,64,0,2,15,15,8.mid,experiment,0
62,140,29828,72,64,0,2,15,15,8.mid,experiment,0
63,142,30097,72,64,0,2,15,15,8.mid,experiment,0
64,144,30357,73,64,0,2,15,15,8.mid,experiment,0
65,146,30644,73,64,0,2,15,15,8.mid,experiment,0
66,148,31307,74,64,0,2,15,15,8.mid,experiment,0
67,150,31915,77,64,0,2,15,15,8.mid,experiment,0
68,152,32526,76,64,0,2,15,15,8.mid,experiment,0
69,154,33093,74,64,0,2,15,15,8.mid,experiment,0
70,156,33658,72,64,0,2,15,15,8.mid,experiment,0
71,158,34270,84,64,0,2,15,15,8.mid,experiment,0
72,160,35118,84,64,0,2,15,15,8.mid,experiment,0
1,19,8835,79,64,0,2,15,16,9.mid,experiment,0
2,21,9154,78,64,0,2,15,16,9.mid,experiment,0
3,23,9406,79,64,0,2,15,16,9.mid,experiment,0
4,25,9678,76,64,0,2,15,16,9.mid,experiment,0
5,26,9744,72,64,0,2,15,16,9.mid,experiment,0
6,28,9987,67,64,0,2,15,16,9.mid,experiment,0
7,30,10261,67,64,0,2,15,16,9.mid,experiment,0
8,32,10517,67,64,0,2,15,16,9.mid,experiment,0
9,35,11040,79,64,0,2,15,16,9.mid,experiment,0
10,37,11341,78,64,0,2,15,16,9.mid,experiment,0
11,39,11595,79,64,0,2,15,16,9.mid,experiment,0
12,41,11826,76,64,0,2,15,16,9.mid,experiment,0
13,43,12123,72,64,0,2,15,16,9.mid,experiment,0
14,45,12415,76,64,0,2,15,16,9.mid,experiment,0
15,47,12617,79,64,0,2,15,16,9.mid,experiment,0
16,49,12910,84,64,0,2,15,16,9.mid,experiment,0
17,50,13012,83,64,0,2,15,16,9.mid,experiment,0
18,52,13192,81,64,0,2,15,16,9.mid,experiment,0
19,54,13469,81,64,0,2,15,16,9.mid,experiment,0
20,56,13723,81,64,0,2,15,16,9.mid,experiment,0
21,59,14256,83,64,0,2,15,16,9.mid,experiment,0
22,61,14506,81,64,0,2,15,16,9.mid,experiment,0
23,63,14761,84,64,0,2,15,16,9.mid,experiment,0
24,65,15060,81,64,0,2,15,16,9.mid,experiment,0
25,67,15331,78,64,0,2,15,16,9.mid,experiment,0
26,68,15379,79,64,0,2,15,16,9.mid,experiment,0
27,70,15947,79,64,0,2,15,16,9.mid,experiment,0
28,72,16740,79,64,0,2,15,16,9.mid,experiment,0
29,74,17346,77,64,0,2,15,16,9.mid,experiment,0
30,76,17615,77,64,0,2,15,16,9.mid,experiment,0
31,78,17883,76,64,0,2,15,16,9.mid,experiment,0
32,80,18161,76,64,0,2,15,16,9.mid,experiment,0
33,82,18982,74,64,0,2,15,16,9.mid,experiment,0
34,85,20127,79,64,0,2,15,16,9.mid,experiment,0
35,86,20548,77,64,0,2,15,16,9.mid,experiment,0
36,88,20739,76,64,0,2,15,16,9.mid,experiment,0
37,90,21007,76,64,0,2,15,16,9.mid,experiment,0
38,92,21253,76,64,0,2,15,16,9.mid,experiment,0
39,94,21530,76,64,0,2,15,16,9.mid,experiment,0
40,97,22048,81,64,0,2,15,16,9.mid,experiment,0
41,99,22324,77,64,0,2,15,16,9.mid,experiment,0
42,101,22552,76,64,0,2,15,16,9.mid,experiment,0
43,103,22870,74,64,0,2,15,16,9.mid,experiment,0
44,105,23127,76,64,0,2,15,16,9.mid,experiment,0
45,107,23400,79,64,0,2,15,16,9.mid,experiment,0
46,109,23610,74,64,0,2,15,16,9.mid,experiment,0
47,110,23699,71,64,0,2,15,16,9.mid,experiment,0
48,112,23933,72,64,0,2,15,16,9.mid,experiment,0
49,114,24193,72,64,0,2,15,16,9.mid,experiment,0
50,116,24455,74,64,0,2,15,16,9.mid,experiment,0
51,118,24724,74,64,0,2,15,16,9.mid,experiment,0
52,120,25467,76,64,0,2,15,16,9.mid,experiment,0
53,122,26143,65,64,0,2,15,16,9.mid,experiment,0
54,124,26415,65,64,0,2,15,16,9.mid,experiment,0
55,126,26680,64,64,0,2,15,16,9.mid,experiment,0
56,128,26951,64,64,0,2,15,16,9.mid,experiment,0
57,130,27684,62,64,0,2,15,16,9.mid,experiment,0
58,132,28411,67,64,0,2,15,16,9.mid,experiment,0
59,134,28670,67,64,0,2,15,16,9.mid,experiment,0
60,136,28924,71,64,0,2,15,16,9.mid,experiment,0
61,138,29192,71,64,0,2,15,16,9.mid,experiment,0
62,140,29507,72,64,0,2,15,16,9.mid,experiment,0
63,142,29763,72,64,0,2,15,16,9.mid,experiment,0
64,144,30031,73,64,0,2,15,16,9.mid,experiment,0
65,146,30291,73,64,0,2,15,16,9.mid,experiment,0
66,149,31080,74,64,0,2,15,16,9.mid,experiment,0
67,151,31601,77,64,0,2,15,16,9.mid,experiment,0
68,153,32202,76,64,0,2,15,16,9.mid,experiment,0
69,155,32765,74,64,0,2,15,16,9.mid,experiment,0
70,157,33320,72,64,0,2,15,16,9.mid,experiment,0
71,158,33752,84,64,0,2,15,16,9.mid,experiment,0
72,160,34716,84,64,0,2,15,16,9.mid,experiment,0
1,19,9403,79,64,0,2,16,1,14.mid,experiment,0
2,21,9695,78,64,0,2,16,1,14.mid,experiment,0
3,23,9977,79,64,0,2,16,1,14.mid,experiment,0
4,25,10260,76,64,0,2,16,1,14.mid,experiment,0
5,26,10297,72,64,0,2,16,1,14.mid,experiment,0
6,28,10625,67,64,0,2,16,1,14.mid,experiment,0
7,30,10955,67,64,0,2,16,1,14.mid,experiment,0
8,32,11205,67,64,0,2,16,1,14.mid,experiment,0
9,35,11839,79,64,0,2,16,1,14.mid,experiment,0
10,36,12119,78,64,0,2,16,1,14.mid,experiment,0
11,39,12439,79,64,0,2,16,1,14.mid,experiment,0
12,41,12741,76,64,0,2,16,1,14.mid,experiment,0
13,43,13121,72,64,0,2,16,1,14.mid,experiment,0
14,45,13413,76,64,0,2,16,1,14.mid,experiment,0
15,46,13635,79,64,0,2,16,1,14.mid,experiment,0
16,49,14003,84,64,0,2,16,1,14.mid,experiment,0
17,50,14269,83,64,0,2,16,1,14.mid,experiment,0
18,52,14399,81,64,0,2,16,1,14.mid,experiment,0
19,54,14723,81,64,0,2,16,1,14.mid,experiment,0
20,56,14968,81,64,0,2,16,1,14.mid,experiment,0
21,59,15573,83,64,0,2,16,1,14.mid,experiment,0
22,61,15892,81,64,0,2,16,1,14.mid,experiment,0
23,63,16178,84,64,0,2,16,1,14.mid,experiment,0
24,65,16559,81,64,0,2,16,1,14.mid,experiment,0
25,67,16824,78,64,0,2,16,1,14.mid,experiment,0
26,68,16969,79,64,0,2,16,1,14.mid,experiment,0
27,70,17475,79,64,0,2,16,1,14.mid,experiment,0
28,72,18253,79,64,0,2,16,1,14.mid,experiment,0
29,74,19093,77,64,0,2,16,1,14.mid,experiment,0
30,76,19399,77,64,0,2,16,1,14.mid,experiment,0
31,78,19739,76,64,0,2,16,1,14.mid,experiment,0
32,80,20047,76,64,0,2,16,1,14.mid,experiment,0
33,82,20844,74,64,0,2,16,1,14.mid,experiment,0
34,85,22298,79,64,0,2,16,1,14.mid,experiment,0
35,86,22875,77,64,0,2,16,1,14.mid,experiment,0
36,88,22922,76,64,0,2,16,1,14.mid,experiment,0
37,90,23247,76,64,0,2,16,1,14.mid,experiment,0
38,92,23566,76,64,0,2,16,1,14.mid,experiment,0
39,94,23837,76,64,0,2,16,1,14.mid,experiment,0
40,97,24499,81,64,0,2,16,1,14.mid,experiment,0
41,99,24763,77,64,0,2,16,1,14.mid,experiment,0
42,101,25064,76,64,0,2,16,1,14.mid,experiment,0
43,103,25408,74,64,0,2,16,1,14.mid,experiment,0
44,105,25690,76,64,0,2,16,1,14.mid,experiment,0
45,107,26022,79,64,0,2,16,1,14.mid,experiment,0
46,108,26309,74,64,0,2,16,1,14.mid,experiment,0
47,110,26611,71,64,0,2,16,1,14.mid,experiment,0
48,112,26683,72,64,0,2,16,1,14.mid,experiment,0
49,114,27005,72,64,0,2,16,1,14.mid,experiment,0
50,116,27305,74,64,0,2,16,1,14.mid,experiment,0
51,118,27611,74,64,0,2,16,1,14.mid,experiment,0
52,120,28402,76,64,0,2,16,1,14.mid,experiment,0
53,122,29236,65,64,0,2,16,1,14.mid,experiment,0
54,124,29513,65,64,0,2,16,1,14.mid,experiment,0
55,126,29845,64,64,0,2,16,1,14.mid,experiment,0
56,128,30150,64,64,0,2,16,1,14.mid,experiment,0
57,130,30918,62,64,0,2,16,1,14.mid,experiment,0
58,132,31742,67,64,0,2,16,1,14.mid,experiment,0
59,134,32015,67,64,0,2,16,1,14.mid,experiment,0
60,136,32319,71,64,0,2,16,1,14.mid,experiment,0
61,138,32621,71,64,0,2,16,1,14.mid,experiment,0
62,140,32947,72,64,0,2,16,1,14.mid,experiment,0
63,142,33257,72,64,0,2,16,1,14.mid,experiment,0
64,144,33558,73,64,0,2,16,1,14.mid,experiment,0
65,146,33835,73,64,0,2,16,1,14.mid,experiment,0
66,149,34809,74,64,0,2,16,1,14.mid,experiment,0
67,151,35413,77,64,0,2,16,1,14.mid,experiment,0
68,153,35997,76,64,0,2,16,1,14.mid,experiment,0
69,154,36595,74,64,0,2,16,1,14.mid,experiment,0
70,156,36993,72,64,0,2,16,1,14.mid,experiment,0
71,158,37585,84,64,0,2,16,1,14.mid,experiment,0
72,160,38403,84,64,0,2,16,1,14.mid,experiment,0
1,19,8762,79,64,0,2,16,2,4.mid,experiment,0
2,21,9066,78,64,0,2,16,2,4.mid,experiment,0
3,23,9341,79,64,0,2,16,2,4.mid,experiment,0
4,24,9625,76,64,0,2,16,2,4.mid,experiment,0
5,26,9669,72,64,0,2,16,2,4.mid,experiment,0
6,28,10038,67,64,0,2,16,2,4.mid,experiment,0
7,30,10351,67,64,0,2,16,2,4.mid,experiment,0
8,32,10615,67,64,0,2,16,2,4.mid,experiment,0
9,35,11187,79,64,0,2,16,2,4.mid,experiment,0
10,37,11464,78,64,0,2,16,2,4.mid,experiment,0
11,39,11798,79,64,0,2,16,2,4.mid,experiment,0
12,40,12081,76,64,0,2,16,2,4.mid,experiment,0
13,43,12466,72,64,0,2,16,2,4.mid,experiment,0
14,45,12768,76,64,0,2,16,2,4.mid,experiment,0
15,47,12993,79,64,0,2,16,2,4.mid,experiment,0
16,49,13399,84,64,0,2,16,2,4.mid,experiment,0
17,50,13622,83,64,0,2,16,2,4.mid,experiment,0
18,52,13692,81,64,0,2,16,2,4.mid,experiment,0
19,54,14002,81,64,0,2,16,2,4.mid,experiment,0
20,56,14282,81,64,0,2,16,2,4.mid,experiment,0
21,59,14917,83,64,0,2,16,2,4.mid,experiment,0
22,61,15250,81,64,0,2,16,2,4.mid,experiment,0
23,63,15514,84,64,0,2,16,2,4.mid,experiment,0
24,65,15854,81,64,0,2,16,2,4.mid,experiment,0
25,66,16112,78,64,0,2,16,2,4.mid,experiment,0
26,68,16232,79,64,0,2,16,2,4.mid,experiment,0
27,70,16756,79,64,0,2,16,2,4.mid,experiment,0
28,72,17586,79,64,0,2,16,2,4.mid,experiment,0
29,74,18405,77,64,0,2,16,2,4.mid,experiment,0
30,76,18699,77,64,0,2,16,2,4.mid,experiment,0
31,78,19004,76,64,0,2,16,2,4.mid,experiment,0
32,80,19309,76,64,0,2,16,2,4.mid,experiment,0
33,82,20040,74,64,0,2,16,2,4.mid,experiment,0
34,85,21518,79,64,0,2,16,2,4.mid,experiment,0
35,86,22137,77,64,0,2,16,2,4.mid,experiment,0
36,88,22200,76,64,0,2,16,2,4.mid,experiment,0
37,90,22496,76,64,0,2,16,2,4.mid,experiment,0
38,92,22787,76,64,0,2,16,2,4.mid,experiment,0
39,94,23068,76,64,0,2,16,2,4.mid,experiment,0
40,97,23738,81,64,0,2,16,2,4.mid,experiment,0
41,99,23993,77,64,0,2,16,2,4.mid,experiment,0
42,101,24285,76,64,0,2,16,2,4.mid,experiment,0
43,103,24631,74,64,0,2,16,2,4.mid,experiment,0
44,105,24901,76,64,0,2,16,2,4.mid,experiment,0
45,107,25247,79,64,0,2,16,2,4.mid,experiment,0
46,109,25513,74,64,0,2,16,2,4.mid,experiment,0
47,110,25819,71,64,0,2,16,2,4.mid,experiment,0
48,112,25887,72,64,0,2,16,2,4.mid,experiment,0
49,114,26193,72,64,0,2,16,2,4.mid,experiment,0
50,116,26499,74,64,0,2,16,2,4.mid,experiment,0
51,118,26776,74,64,0,2,16,2,4.mid,experiment,0
52,120,27620,76,64,0,2,16,2,4.mid,experiment,0
53,122,28332,65,64,0,2,16,2,4.mid,experiment,0
54,124,28646,65,64,0,2,16,2,4.mid,experiment,0
55,126,28948,64,64,0,2,16,2,4.mid,experiment,0
56,128,29234,64,64,0,2,16,2,4.mid,experiment,0
57,130,29959,62,64,0,2,16,2,4.mid,experiment,0
58,132,30857,67,64,0,2,16,2,4.mid,experiment,0
59,134,31137,67,64,0,2,16,2,4.mid,experiment,0
60,136,31454,71,64,0,2,16,2,4.mid,experiment,0
61,138,31742,71,64,0,2,16,2,4.mid,experiment,0
62,140,32058,72,64,0,2,16,2,4.mid,experiment,0
63,142,32363,72,64,0,2,16,2,4.mid,experiment,0
64,144,32655,73,64,0,2,16,2,4.mid,experiment,0
65,146,32943,73,64,0,2,16,2,4.mid,experiment,0
66,149,33889,74,64,0,2,16,2,4.mid,experiment,0
67,150,34343,77,64,0,2,16,2,4.mid,experiment,0
68,152,34970,76,64,0,2,16,2,4.mid,experiment,0
69,154,35509,74,64,0,2,16,2,4.mid,experiment,0
70,156,36105,72,64,0,2,16,2,4.mid,experiment,0
71,158,36653,84,64,0,2,16,2,4.mid,experiment,0
72,160,37440,84,64,0,2,16,2,4.mid,experiment,0
1,19,8175,79,64,0,2,16,3,16.mid,experiment,0
2,21,8478,78,64,0,2,16,3,16.mid,experiment,0
3,23,8737,79,64,0,2,16,3,16.mid,experiment,0
4,24,9027,76,64,0,2,16,3,16.mid,experiment,0
5,26,9082,72,64,0,2,16,3,16.mid,experiment,0
6,28,9400,67,64,0,2,16,3,16.mid,experiment,0
7,30,9702,67,64,0,2,16,3,16.mid,experiment,0
8,32,9979,67,64,0,2,16,3,16.mid,experiment,0
9,35,10621,79,64,0,2,16,3,16.mid,experiment,0
10,37,10866,78,64,0,2,16,3,16.mid,experiment,0
11,39,11168,79,64,0,2,16,3,16.mid,experiment,0
12,40,11422,76,64,0,2,16,3,16.mid,experiment,0
13,43,11797,72,64,0,2,16,3,16.mid,experiment,0
14,45,12114,76,64,0,2,16,3,16.mid,experiment,0
15,46,12304,79,64,0,2,16,3,16.mid,experiment,0
16,49,12653,84,64,0,2,16,3,16.mid,experiment,0
17,50,12925,83,64,0,2,16,3,16.mid,experiment,0
18,52,13018,81,64,0,2,16,3,16.mid,experiment,0
19,54,13314,81,64,0,2,16,3,16.mid,experiment,0
20,56,13574,81,64,0,2,16,3,16.mid,experiment,0
21,59,14154,83,64,0,2,16,3,16.mid,experiment,0
22,61,14504,81,64,0,2,16,3,16.mid,experiment,0
23,63,14755,84,64,0,2,16,3,16.mid,experiment,0
24,65,15080,81,64,0,2,16,3,16.mid,experiment,0
25,66,15341,78,64,0,2,16,3,16.mid,experiment,0
26,68,15457,79,64,0,2,16,3,16.mid,experiment,0
27,70,15959,79,64,0,2,16,3,16.mid,experiment,0
28,72,16744,79,64,0,2,16,3,16.mid,experiment,0
29,74,17593,77,64,0,2,16,3,16.mid,experiment,0
30,76,17896,77,64,0,2,16,3,16.mid,experiment,0
31,78,18215,76,64,0,2,16,3,16.mid,experiment,0
32,80,18527,76,64,0,2,16,3,16.mid,experiment,0
33,82,19146,74,64,0,2,16,3,16.mid,experiment,0
34,85,20673,79,64,0,2,16,3,16.mid,experiment,0
35,86,21247,77,64,0,2,16,3,16.mid,experiment,0
36,88,21342,76,64,0,2,16,3,16.mid,experiment,0
37,90,21650,76,64,0,2,16,3,16.mid,experiment,0
38,92,21914,76,64,0,2,16,3,16.mid,experiment,0
39,94,22195,76,64,0,2,16,3,16.mid,experiment,0
40,97,22840,81,64,0,2,16,3,16.mid,experiment,0
41,99,23087,77,64,0,2,16,3,16.mid,experiment,0
42,101,23400,76,64,0,2,16,3,16.mid,experiment,0
43,103,23716,74,64,0,2,16,3,16.mid,experiment,0
44,105,24001,76,64,0,2,16,3,16.mid,experiment,0
45,107,24327,79,64,0,2,16,3,16.mid,experiment,0
46,108,24591,74,64,0,2,16,3,16.mid,experiment,0
47,110,24878,71,64,0,2,16,3,16.mid,experiment,0
48,112,24960,72,64,0,2,16,3,16.mid,experiment,0
49,114,25259,72,64,0,2,16,3,16.mid,experiment,0
50,116,25587,74,64,0,2,16,3,16.mid,experiment,0
51,118,25857,74,64,0,2,16,3,16.mid,experiment,0
52,120,26546,76,64,0,2,16,3,16.mid,experiment,0
53,122,27415,65,64,0,2,16,3,16.mid,experiment,0
54,124,27716,65,64,0,2,16,3,16.mid,experiment,0
55,126,28019,64,64,0,2,16,3,16.mid,experiment,0
56,128,28304,64,64,0,2,16,3,16.mid,experiment,0
57,130,29061,62,64,0,2,16,3,16.mid,experiment,0
58,132,29899,67,64,0,2,16,3,16.mid,experiment,0
59,134,30190,67,64,0,2,16,3,16.mid,experiment,0
60,136,30510,71,64,0,2,16,3,16.mid,experiment,0
61,138,30793,71,64,0,2,16,3,16.mid,experiment,0
62,140,31102,72,64,0,2,16,3,16.mid,experiment,0
63,142,31393,72,64,0,2,16,3,16.mid,experiment,0
64,144,31669,73,64,0,2,16,3,16.mid,experiment,0
65,146,31948,73,64,0,2,16,3,16.mid,experiment,0
66,149,32854,74,64,0,2,16,3,16.mid,experiment,0
67,151,33454,77,64,0,2,16,3,16.mid,experiment,0
68,152,34024,76,64,0,2,16,3,16.mid,experiment,0
69,154,34638,74,64,0,2,16,3,16.mid,experiment,0
70,156,34983,72,64,0,2,16,3,16.mid,experiment,0
71,158,35524,84,64,0,2,16,3,16.mid,experiment,0
72,160,36450,84,64,0,2,16,3,16.mid,experiment,0
1,19,8207,79,64,0,2,16,4,12.mid,experiment,0
2,21,8464,78,64,0,2,16,4,12.mid,experiment,0
3,23,8740,79,64,0,2,16,4,12.mid,experiment,0
4,24,9016,76,64,0,2,16,4,12.mid,experiment,0
5,26,9182,72,64,0,2,16,4,12.mid,experiment,0
6,28,9382,67,64,0,2,16,4,12.mid,experiment,0
7,30,9690,67,64,0,2,16,4,12.mid,experiment,0
8,32,9924,67,64,0,2,16,4,12.mid,experiment,0
9,35,10514,79,64,0,2,16,4,12.mid,experiment,0
10,36,10780,78,64,0,2,16,4,12.mid,experiment,0
11,39,11105,79,64,0,2,16,4,12.mid,experiment,0
12,41,11399,76,64,0,2,16,4,12.mid,experiment,0
13,43,11770,72,64,0,2,16,4,12.mid,experiment,0
14,45,12072,76,64,0,2,16,4,12.mid,experiment,0
15,47,12265,79,64,0,2,16,4,12.mid,experiment,0
16,49,12616,84,64,0,2,16,4,12.mid,experiment,0
17,50,12888,83,64,0,2,16,4,12.mid,experiment,0
18,52,12996,81,64,0,2,16,4,12.mid,experiment,0
19,54,13298,81,64,0,2,16,4,12.mid,experiment,0
20,56,13542,81,64,0,2,16,4,12.mid,experiment,0
21,59,14111,83,64,0,2,16,4,12.mid,experiment,0
22,60,14391,81,64,0,2,16,4,12.mid,experiment,0
23,63,14684,84,64,0,2,16,4,12.mid,experiment,0
24,65,15012,81,64,0,2,16,4,12.mid,experiment,0
25,66,15264,78,64,0,2,16,4,12.mid,experiment,0
26,68,15389,79,64,0,2,16,4,12.mid,experiment,0
27,70,15870,79,64,0,2,16,4,12.mid,experiment,0
28,72,16640,79,64,0,2,16,4,12.mid,experiment,0
29,74,17468,77,64,0,2,16,4,12.mid,experiment,0
30,76,17772,77,64,0,2,16,4,12.mid,experiment,0
31,78,18086,76,64,0,2,16,4,12.mid,experiment,0
32,80,18374,76,64,0,2,16,4,12.mid,experiment,0
33,82,19082,74,64,0,2,16,4,12.mid,experiment,0
34,85,20532,79,64,0,2,16,4,12.mid,experiment,0
35,86,21070,77,64,0,2,16,4,12.mid,experiment,0
36,88,21134,76,64,0,2,16,4,12.mid,experiment,0
37,90,21464,76,64,0,2,16,4,12.mid,experiment,0
38,92,21713,76,64,0,2,16,4,12.mid,experiment,0
39,94,22004,76,64,0,2,16,4,12.mid,experiment,0
40,97,22600,81,64,0,2,16,4,12.mid,experiment,0
41,99,22853,77,64,0,2,16,4,12.mid,experiment,0
42,101,23174,76,64,0,2,16,4,12.mid,experiment,0
43,103,23478,74,64,0,2,16,4,12.mid,experiment,0
44,105,23740,76,64,0,2,16,4,12.mid,experiment,0
45,107,24070,79,64,0,2,16,4,12.mid,experiment,0
46,108,24310,74,64,0,2,16,4,12.mid,experiment,0
47,110,24608,71,64,0,2,16,4,12.mid,experiment,0
48,112,24670,72,64,0,2,16,4,12.mid,experiment,0
49,114,24964,72,64,0,2,16,4,12.mid,experiment,0
50,116,25256,74,64,0,2,16,4,12.mid,experiment,0
51,118,25544,74,64,0,2,16,4,12.mid,experiment,0
52,120,26328,76,64,0,2,16,4,12.mid,experiment,0
53,122,27076,65,64,0,2,16,4,12.mid,experiment,0
54,124,27360,65,64,0,2,16,4,12.mid,experiment,0
55,126,27678,64,64,0,2,16,4,12.mid,experiment,0
56,128,27968,64,64,0,2,16,4,12.mid,experiment,0
57,130,28668,62,64,0,2,16,4,12.mid,experiment,0
58,132,29496,67,64,0,2,16,4,12.mid,experiment,0
59,134,29780,67,64,0,2,16,4,12.mid,experiment,0
60,136,30088,71,64,0,2,16,4,12.mid,experiment,0
61,138,30360,71,64,0,2,16,4,12.mid,experiment,0
62,140,30666,72,64,0,2,16,4,12.mid,experiment,0
63,142,30960,72,64,0,2,16,4,12.mid,experiment,0
64,144,31240,73,64,0,2,16,4,12.mid,experiment,0
65,146,31508,73,64,0,2,16,4,12.mid,experiment,0
66,149,32392,74,64,0,2,16,4,12.mid,experiment,0
67,151,32967,77,64,0,2,16,4,12.mid,experiment,0
68,152,33512,76,64,0,2,16,4,12.mid,experiment,0
69,154,34086,74,64,0,2,16,4,12.mid,experiment,0
70,156,34521,72,64,0,2,16,4,12.mid,experiment,0
71,158,35037,84,64,0,2,16,4,12.mid,experiment,0
72,160,35829,84,64,0,2,16,4,12.mid,experiment,0
1,19,8166,79,64,0,2,16,5,13.mid,experiment,0
2,21,8465,78,64,0,2,16,5,13.mid,experiment,0
3,23,8723,79,64,0,2,16,5,13.mid,experiment,0
4,24,8993,76,64,0,2,16,5,13.mid,experiment,0
5,26,9073,72,64,0,2,16,5,13.mid,experiment,0
6,28,9384,67,64,0,2,16,5,13.mid,experiment,0
7,30,9678,67,64,0,2,16,5,13.mid,experiment,0
8,32,9921,67,64,0,2,16,5,13.mid,experiment,0
9,35,10548,79,64,0,2,16,5,13.mid,experiment,0
10,37,10811,78,64,0,2,16,5,13.mid,experiment,0
11,39,11131,79,64,0,2,16,5,13.mid,experiment,0
12,40,11366,76,64,0,2,16,5,13.mid,experiment,0
13,43,11741,72,64,0,2,16,5,13.mid,experiment,0
14,45,12023,76,64,0,2,16,5,13.mid,experiment,0
15,46,12234,79,64,0,2,16,5,13.mid,experiment,0
16,49,12576,84,64,0,2,16,5,13.mid,experiment,0
17,50,12857,83,64,0,2,16,5,13.mid,experiment,0
18,52,12950,81,64,0,2,16,5,13.mid,experiment,0
19,54,13219,81,64,0,2,16,5,13.mid,experiment,0
20,56,13483,81,64,0,2,16,5,13.mid,experiment,0
21,59,14081,83,64,0,2,16,5,13.mid,experiment,0
22,61,14384,81,64,0,2,16,5,13.mid,experiment,0
23,63,14659,84,64,0,2,16,5,13.mid,experiment,0
24,65,14987,81,64,0,2,16,5,13.mid,experiment,0
25,67,15273,78,64,0,2,16,5,13.mid,experiment,0
26,68,15376,79,64,0,2,16,5,13.mid,experiment,0
27,70,15899,79,64,0,2,16,5,13.mid,experiment,0
28,72,16720,79,64,0,2,16,5,13.mid,experiment,0
29,74,17463,77,64,0,2,16,5,13.mid,experiment,0
30,76,17748,77,64,0,2,16,5,13.mid,experiment,0
31,78,18061,76,64,0,2,16,5,13.mid,experiment,0
32,80,18351,76,64,0,2,16,5,13.mid,experiment,0
33,82,19091,74,64,0,2,16,5,13.mid,experiment,0
34,85,20420,79,64,0,2,16,5,13.mid,experiment,0
35,87,21036,77,64,0,2,16,5,13.mid,experiment,0
36,88,21080,76,64,0,2,16,5,13.mid,experiment,0
37,90,21369,76,64,0,2,16,5,13.mid,experiment,0
38,92,21657,76,64,0,2,16,5,13.mid,experiment,0
39,94,21945,76,64,0,2,16,5,13.mid,experiment,0
40,97,22582,81,64,0,2,16,5,13.mid,experiment,0
41,99,22836,77,64,0,2,16,5,13.mid,experiment,0
42,101,23130,76,64,0,2,16,5,13.mid,experiment,0
43,103,23442,74,64,0,2,16,5,13.mid,experiment,0
44,105,23717,76,64,0,2,16,5,13.mid,experiment,0
45,107,24071,79,64,0,2,16,5,13.mid,experiment,0
46,108,24291,74,64,0,2,16,5,13.mid,experiment,0
47,110,24619,71,64,0,2,16,5,13.mid,experiment,0
48,112,24670,72,64,0,2,16,5,13.mid,experiment,0
49,114,24956,72,64,0,2,16,5,13.mid,experiment,0
50,116,25253,74,64,0,2,16,5,13.mid,experiment,0
51,118,25545,74,64,0,2,16,5,13.mid,experiment,0
52,120,26251,76,64,0,2,16,5,13.mid,experiment,0
53,122,27085,65,64,0,2,16,5,13.mid,experiment,0
54,124,27367,65,64,0,2,16,5,13.mid,experiment,0
55,126,27677,64,64,0,2,16,5,13.mid,experiment,0
56,128,27969,64,64,0,2,16,5,13.mid,experiment,0
57,130,28604,62,64,0,2,16,5,13.mid,experiment,0
58,132,29534,67,64,0,2,16,5,13.mid,experiment,0
59,134,29813,67,64,0,2,16,5,13.mid,experiment,0
60,136,30094,71,64,0,2,16,5,13.mid,experiment,0
61,138,30379,71,64,0,2,16,5,13.mid,experiment,0
62,140,30669,72,64,0,2,16,5,13.mid,experiment,0
63,142,30968,72,64,0,2,16,5,13.mid,experiment,0
64,144,31247,73,64,0,2,16,5,13.mid,experiment,0
65,146,31518,73,64,0,2,16,5,13.mid,experiment,0
66,149,32508,74,64,0,2,16,5,13.mid,experiment,0
67,151,33042,77,64,0,2,16,5,13.mid,experiment,0
68,153,33599,76,64,0,2,16,5,13.mid,experiment,0
69,154,34168,74,64,0,2,16,5,13.mid,experiment,0
70,156,34648,72,64,0,2,16,5,13.mid,experiment,0
71,158,35125,84,64,0,2,16,5,13.mid,experiment,0
72,160,35885,84,64,0,2,16,5,13.mid,experiment,0
1,19,8165,79,64,0,2,16,6,11.mid,experiment,0
2,21,8490,78,64,0,2,16,6,11.mid,experiment,0
3,23,8728,79,64,0,2,16,6,11.mid,experiment,0
4,24,9004,76,64,0,2,16,6,11.mid,experiment,0
5,26,9102,72,64,0,2,16,6,11.mid,experiment,0
6,28,9400,67,64,0,2,16,6,11.mid,experiment,0
7,30,9698,67,64,0,2,16,6,11.mid,experiment,0
8,32,9958,67,64,0,2,16,6,11.mid,experiment,0
9,35,10586,79,64,0,2,16,6,11.mid,experiment,0
10,37,10851,78,64,0,2,16,6,11.mid,experiment,0
11,39,11174,79,64,0,2,16,6,11.mid,experiment,0
12,40,11424,76,64,0,2,16,6,11.mid,experiment,0
13,43,11788,72,64,0,2,16,6,11.mid,experiment,0
14,45,12052,76,64,0,2,16,6,11.mid,experiment,0
15,46,12282,79,64,0,2,16,6,11.mid,experiment,0
16,49,12625,84,64,0,2,16,6,11.mid,experiment,0
17,50,12906,83,64,0,2,16,6,11.mid,experiment,0
18,52,13004,81,64,0,2,16,6,11.mid,experiment,0
19,54,13284,81,64,0,2,16,6,11.mid,experiment,0
20,56,13554,81,64,0,2,16,6,11.mid,experiment,0
21,59,14152,83,64,0,2,16,6,11.mid,experiment,0
22,60,14422,81,64,0,2,16,6,11.mid,experiment,0
23,63,14720,84,64,0,2,16,6,11.mid,experiment,0
24,65,15047,81,64,0,2,16,6,11.mid,experiment,0
25,67,15362,78,64,0,2,16,6,11.mid,experiment,0
26,68,15413,79,64,0,2,16,6,11.mid,experiment,0
27,70,15935,79,64,0,2,16,6,11.mid,experiment,0
28,72,16754,79,64,0,2,16,6,11.mid,experiment,0
29,74,17477,77,64,0,2,16,6,11.mid,experiment,0
30,76,17772,77,64,0,2,16,6,11.mid,experiment,0
31,78,18066,76,64,0,2,16,6,11.mid,experiment,0
32,80,18360,76,64,0,2,16,6,11.mid,experiment,0
33,82,18994,74,64,0,2,16,6,11.mid,experiment,0
34,85,20506,79,64,0,2,16,6,11.mid,experiment,0
35,86,21049,77,64,0,2,16,6,11.mid,experiment,0
36,88,21142,76,64,0,2,16,6,11.mid,experiment,0
37,90,21432,76,64,0,2,16,6,11.mid,experiment,0
38,92,21713,76,64,0,2,16,6,11.mid,experiment,0
39,94,21978,76,64,0,2,16,6,11.mid,experiment,0
40,97,22610,81,64,0,2,16,6,11.mid,experiment,0
41,99,22858,77,64,0,2,16,6,11.mid,experiment,0
42,101,23154,76,64,0,2,16,6,11.mid,experiment,0
43,103,23496,74,64,0,2,16,6,11.mid,experiment,0
44,105,23766,76,64,0,2,16,6,11.mid,experiment,0
45,107,24095,79,64,0,2,16,6,11.mid,experiment,0
46,109,24368,74,64,0,2,16,6,11.mid,experiment,0
47,110,24683,71,64,0,2,16,6,11.mid,experiment,0
48,112,24733,72,64,0,2,16,6,11.mid,experiment,0
49,114,25026,72,64,0,2,16,6,11.mid,experiment,0
50,116,25322,74,64,0,2,16,6,11.mid,experiment,0
51,118,25602,74,64,0,2,16,6,11.mid,experiment,0
52,120,26418,76,64,0,2,16,6,11.mid,experiment,0
53,122,27150,65,64,0,2,16,6,11.mid,experiment,0
54,124,27462,65,64,0,2,16,6,11.mid,experiment,0
55,126,27741,64,64,0,2,16,6,11.mid,experiment,0
56,128,28038,64,64,0,2,16,6,11.mid,experiment,0
57,130,28783,62,64,0,2,16,6,11.mid,experiment,0
58,132,29574,67,64,0,2,16,6,11.mid,experiment,0
59,134,29860,67,64,0,2,16,6,11.mid,experiment,0
60,136,30168,71,64,0,2,16,6,11.mid,experiment,0
61,138,30436,71,64,0,2,16,6,11.mid,experiment,0
62,140,30768,72,64,0,2,16,6,11.mid,experiment,0
63,142,31040,72,64,0,2,16,6,11.mid,experiment,0
64,144,31312,73,64,0,2,16,6,11.mid,experiment,0
65,146,31602,73,64,0,2,16,6,11.mid,experiment,0
66,149,32515,74,64,0,2,16,6,11.mid,experiment,0
67,151,33090,77,64,0,2,16,6,11.mid,experiment,0
68,152,33630,76,64,0,2,16,6,11.mid,experiment,0
69,154,34216,74,64,0,2,16,6,11.mid,experiment,0
70,156,34759,72,64,0,2,16,6,11.mid,experiment,0
71,158,35248,84,64,0,2,16,6,11.mid,experiment,0
72,160,36050,84,64,0,2,16,6,11.mid,experiment,0
1,19,8159,79,64,0,2,16,7,2.mid,experiment,0
2,21,8453,78,64,0,2,16,7,2.mid,experiment,0
3,23,8703,79,64,0,2,16,7,2.mid,experiment,0
4,25,8987,76,64,0,2,16,7,2.mid,experiment,0
5,26,9252,72,64,0,2,16,7,2.mid,experiment,0
6,28,9354,67,64,0,2,16,7,2.mid,experiment,0
7,30,9644,67,64,0,2,16,7,2.mid,experiment,0
8,32,9892,67,64,0,2,16,7,2.mid,experiment,0
9,35,10508,79,64,0,2,16,7,2.mid,experiment,0
10,37,10775,78,64,0,2,16,7,2.mid,experiment,0
11,39,11094,79,64,0,2,16,7,2.mid,experiment,0
12,40,11321,76,64,0,2,16,7,2.mid,experiment,0
13,43,11687,72,64,0,2,16,7,2.mid,experiment,0
14,45,11990,76,64,0,2,16,7,2.mid,experiment,0
15,46,12210,79,64,0,2,16,7,2.mid,experiment,0
16,49,12559,84,64,0,2,16,7,2.mid,experiment,0
17,50,12813,83,64,0,2,16,7,2.mid,experiment,0
18,52,12926,81,64,0,2,16,7,2.mid,experiment,0
19,54,13168,81,64,0,2,16,7,2.mid,experiment,0
20,56,13438,81,64,0,2,16,7,2.mid,experiment,0
21,59,14013,83,64,0,2,16,7,2.mid,experiment,0
22,61,14306,81,64,0,2,16,7,2.mid,experiment,0
23,62,14575,84,64,0,2,16,7,2.mid,experiment,0
24,65,14892,81,64,0,2,16,7,2.mid,experiment,0
25,67,15205,78,64,0,2,16,7,2.mid,experiment,0
26,68,15271,79,64,0,2,16,7,2.mid,experiment,0
27,70,15763,79,64,0,2,16,7,2.mid,experiment,0
28,72,16555,79,64,0,2,16,7,2.mid,experiment,0
29,74,17306,77,64,0,2,16,7,2.mid,experiment,0
30,76,17583,77,64,0,2,16,7,2.mid,experiment,0
31,78,17890,76,64,0,2,16,7,2.mid,experiment,0
32,80,18158,76,64,0,2,16,7,2.mid,experiment,0
33,82,18924,74,64,0,2,16,7,2.mid,experiment,0
34,85,20208,79,64,0,2,16,7,2.mid,experiment,0
35,86,20815,77,64,0,2,16,7,2.mid,experiment,0
36,88,20888,76,64,0,2,16,7,2.mid,experiment,0
37,90,21157,76,64,0,2,16,7,2.mid,experiment,0
38,92,21436,76,64,0,2,16,7,2.mid,experiment,0
39,94,21707,76,64,0,2,16,7,2.mid,experiment,0
40,97,22324,81,64,0,2,16,7,2.mid,experiment,0
41,99,22561,77,64,0,2,16,7,2.mid,experiment,0
42,101,22855,76,64,0,2,16,7,2.mid,experiment,0
43,103,23189,74,64,0,2,16,7,2.mid,experiment,0
44,104,23436,76,64,0,2,16,7,2.mid,experiment,0
45,107,23786,79,64,0,2,16,7,2.mid,experiment,0
46,108,24013,74,64,0,2,16,7,2.mid,experiment,0
47,110,24327,71,64,0,2,16,7,2.mid,experiment,0
48,112,24393,72,64,0,2,16,7,2.mid,experiment,0
49,114,24667,72,64,0,2,16,7,2.mid,experiment,0
50,116,24970,74,64,0,2,16,7,2.mid,experiment,0
51,118,25250,74,64,0,2,16,7,2.mid,experiment,0
52,120,26026,76,64,0,2,16,7,2.mid,experiment,0
53,122,26758,65,64,0,2,16,7,2.mid,experiment,0
54,124,27036,65,64,0,2,16,7,2.mid,experiment,0
55,126,27341,64,64,0,2,16,7,2.mid,experiment,0
56,128,27617,64,64,0,2,16,7,2.mid,experiment,0
57,130,28367,62,64,0,2,16,7,2.mid,experiment,0
58,132,29089,67,64,0,2,16,7,2.mid,experiment,0
59,134,29416,67,64,0,2,16,7,2.mid,experiment,0
60,136,29681,71,64,0,2,16,7,2.mid,experiment,0
61,138,29977,71,64,0,2,16,7,2.mid,experiment,0
62,140,30270,72,64,0,2,16,7,2.mid,experiment,0
63,142,30553,72,64,0,2,16,7,2.mid,experiment,0
64,144,30832,73,64,0,2,16,7,2.mid,experiment,0
65,146,31105,73,64,0,2,16,7,2.mid,experiment,0
66,149,32050,74,64,0,2,16,7,2.mid,experiment,0
67,151,32603,77,64,0,2,16,7,2.mid,experiment,0
68,153,33162,76,64,0,2,16,7,2.mid,experiment,0
69,154,33712,74,64,0,2,16,7,2.mid,experiment,0
70,156,34207,72,64,0,2,16,7,2.mid,experiment,0
71,158,34724,84,64,0,2,16,7,2.mid,experiment,0
72,160,35525,84,64,0,2,16,7,2.mid,experiment,0
1,19,8158,79,64,0,2,16,8,15.mid,experiment,0
2,21,8520,78,64,0,2,16,8,15.mid,experiment,0
3,23,8683,79,64,0,2,16,8,15.mid,experiment,0
4,24,8995,76,64,0,2,16,8,15.mid,experiment,0
5,26,9272,72,64,0,2,16,8,15.mid,experiment,0
6,28,9403,67,64,0,2,16,8,15.mid,experiment,0
7,30,9656,67,64,0,2,16,8,15.mid,experiment,0
8,32,9920,67,64,0,2,16,8,15.mid,experiment,0
9,35,10532,79,64,0,2,16,8,15.mid,experiment,0
10,37,10818,78,64,0,2,16,8,15.mid,experiment,0
11,39,11076,79,64,0,2,16,8,15.mid,experiment,0
12,40,11334,76,64,0,2,16,8,15.mid,experiment,0
13,43,11694,72,64,0,2,16,8,15.mid,experiment,0
14,45,11966,76,64,0,2,16,8,15.mid,experiment,0
15,46,12196,79,64,0,2,16,8,15.mid,experiment,0
16,49,12536,84,64,0,2,16,8,15.mid,experiment,0
17,50,12801,83,64,0,2,16,8,15.mid,experiment,0
18,52,12876,81,64,0,2,16,8,15.mid,experiment,0
19,54,13160,81,64,0,2,16,8,15.mid,experiment,0
20,56,13418,81,64,0,2,16,8,15.mid,experiment,0
21,59,13998,83,64,0,2,16,8,15.mid,experiment,0
22,61,14290,81,64,0,2,16,8,15.mid,experiment,0
23,63,14564,84,64,0,2,16,8,15.mid,experiment,0
24,65,14888,81,64,0,2,16,8,15.mid,experiment,0
25,67,15139,78,64,0,2,16,8,15.mid,experiment,0
26,68,15238,79,64,0,2,16,8,15.mid,experiment,0
27,70,15744,79,64,0,2,16,8,15.mid,experiment,0
28,72,16524,79,64,0,2,16,8,15.mid,experiment,0
29,74,17285,77,64,0,2,16,8,15.mid,experiment,0
30,76,17589,77,64,0,2,16,8,15.mid,experiment,0
31,78,17865,76,64,0,2,16,8,15.mid,experiment,0
32,80,18140,76,64,0,2,16,8,15.mid,experiment,0
33,82,18871,74,64,0,2,16,8,15.mid,experiment,0
34,85,20191,79,64,0,2,16,8,15.mid,experiment,0
35,86,20782,77,64,0,2,16,8,15.mid,experiment,0
36,88,20840,76,64,0,2,16,8,15.mid,experiment,0
37,90,21130,76,64,0,2,16,8,15.mid,experiment,0
38,92,21414,76,64,0,2,16,8,15.mid,experiment,0
39,94,21669,76,64,0,2,16,8,15.mid,experiment,0
40,97,22284,81,64,0,2,16,8,15.mid,experiment,0
41,99,22531,77,64,0,2,16,8,15.mid,experiment,0
42,101,22820,76,64,0,2,16,8,15.mid,experiment,0
43,103,23151,74,64,0,2,16,8,15.mid,experiment,0
44,105,23406,76,64,0,2,16,8,15.mid,experiment,0
45,107,23702,79,64,0,2,16,8,15.mid,experiment,0
46,108,23974,74,64,0,2,16,8,15.mid,experiment,0
47,110,24286,71,64,0,2,16,8,15.mid,experiment,0
48,112,24334,72,64,0,2,16,8,15.mid,experiment,0
49,114,24620,72,64,0,2,16,8,15.mid,experiment,0
50,116,24932,74,64,0,2,16,8,15.mid,experiment,0
51,118,25196,74,64,0,2,16,8,15.mid,experiment,0
52,120,25971,76,64,0,2,16,8,15.mid,experiment,0
53,122,26718,65,64,0,2,16,8,15.mid,experiment,0
54,124,26982,65,64,0,2,16,8,15.mid,experiment,0
55,126,27297,64,64,0,2,16,8,15.mid,experiment,0
56,128,27559,64,64,0,2,16,8,15.mid,experiment,0
57,130,28342,62,64,0,2,16,8,15.mid,experiment,0
58,132,29021,67,64,0,2,16,8,15.mid,experiment,0
59,134,29316,67,64,0,2,16,8,15.mid,experiment,0
60,136,29588,71,64,0,2,16,8,15.mid,experiment,0
61,138,29877,71,64,0,2,16,8,15.mid,experiment,0
62,140,30156,72,64,0,2,16,8,15.mid,experiment,0
63,142,30476,72,64,0,2,16,8,15.mid,experiment,0
64,144,30750,73,64,0,2,16,8,15.mid,experiment,0
65,146,31050,73,64,0,2,16,8,15.mid,experiment,0
66,149,31920,74,64,0,2,16,8,15.mid,experiment,0
67,151,32482,77,64,0,2,16,8,15.mid,experiment,0
68,152,33024,76,64,0,2,16,8,15.mid,experiment,0
69,154,33604,74,64,0,2,16,8,15.mid,experiment,0
70,156,34048,72,64,0,2,16,8,15.mid,experiment,0
71,158,34572,84,64,0,2,16,8,15.mid,experiment,0
72,160,35401,84,64,0,2,16,8,15.mid,experiment,0
1,19,8168,79,64,0,2,16,9,5.mid,experiment,0
2,21,8546,78,64,0,2,16,9,5.mid,experiment,0
3,23,8704,79,64,0,2,16,9,5.mid,experiment,0
4,24,9007,76,64,0,2,16,9,5.mid,experiment,0
5,26,9275,72,64,0,2,16,9,5.mid,experiment,0
6,28,9380,67,64,0,2,16,9,5.mid,experiment,0
7,30,9676,67,64,0,2,16,9,5.mid,experiment,0
8,32,9944,67,64,0,2,16,9,5.mid,experiment,0
9,35,10581,79,64,0,2,16,9,5.mid,experiment,0
10,37,10833,78,64,0,2,16,9,5.mid,experiment,0
11,39,11166,79,64,0,2,16,9,5.mid,experiment,0
12,40,11422,76,64,0,2,16,9,5.mid,experiment,0
13,43,11796,72,64,0,2,16,9,5.mid,experiment,0
14,45,12092,76,64,0,2,16,9,5.mid,experiment,0
15,46,12303,79,64,0,2,16,9,5.mid,experiment,0
16,49,12644,84,64,0,2,16,9,5.mid,experiment,0
17,50,12905,83,64,0,2,16,9,5.mid,experiment,0
18,52,13002,81,64,0,2,16,9,5.mid,experiment,0
19,54,13273,81,64,0,2,16,9,5.mid,experiment,0
20,56,13532,81,64,0,2,16,9,5.mid,experiment,0
21,59,14146,83,64,0,2,16,9,5.mid,experiment,0
22,61,14418,81,64,0,2,16,9,5.mid,experiment,0
23,63,14705,84,64,0,2,16,9,5.mid,experiment,0
24,65,15020,81,64,0,2,16,9,5.mid,experiment,0
25,67,15319,78,64,0,2,16,9,5.mid,experiment,0
26,68,15408,79,64,0,2,16,9,5.mid,experiment,0
27,70,15914,79,64,0,2,16,9,5.mid,experiment,0
28,72,16606,79,64,0,2,16,9,5.mid,experiment,0
29,74,17412,77,64,0,2,16,9,5.mid,experiment,0
30,76,17703,77,64,0,2,16,9,5.mid,experiment,0
31,78,18023,76,64,0,2,16,9,5.mid,experiment,0
32,80,18293,76,64,0,2,16,9,5.mid,experiment,0
33,82,19069,74,64,0,2,16,9,5.mid,experiment,0
34,85,20438,79,64,0,2,16,9,5.mid,experiment,0
35,86,20971,77,64,0,2,16,9,5.mid,experiment,0
36,88,21044,76,64,0,2,16,9,5.mid,experiment,0
37,90,21333,76,64,0,2,16,9,5.mid,experiment,0
38,92,21627,76,64,0,2,16,9,5.mid,experiment,0
39,94,21887,76,64,0,2,16,9,5.mid,experiment,0
40,97,22502,81,64,0,2,16,9,5.mid,experiment,0
41,99,22752,77,64,0,2,16,9,5.mid,experiment,0
42,101,23039,76,64,0,2,16,9,5.mid,experiment,0
43,103,23336,74,64,0,2,16,9,5.mid,experiment,0
44,105,23614,76,64,0,2,16,9,5.mid,experiment,0
45,107,23945,79,64,0,2,16,9,5.mid,experiment,0
46,108,24182,74,64,0,2,16,9,5.mid,experiment,0
47,111,24499,71,64,0,2,16,9,5.mid,experiment,0
48,112,24532,72,64,0,2,16,9,5.mid,experiment,0
49,114,24829,72,64,0,2,16,9,5.mid,experiment,0
50,116,25133,74,64,0,2,16,9,5.mid,experiment,0
51,118,25407,74,64,0,2,16,9,5.mid,experiment,0
52,120,26218,76,64,0,2,16,9,5.mid,experiment,0
53,122,26950,65,64,0,2,16,9,5.mid,experiment,0
54,124,27238,65,64,0,2,16,9,5.mid,experiment,0
55,126,27552,64,64,0,2,16,9,5.mid,experiment,0
56,128,27850,64,64,0,2,16,9,5.mid,experiment,0
57,130,28592,62,64,0,2,16,9,5.mid,experiment,0
58,132,29368,67,64,0,2,16,9,5.mid,experiment,0
59,134,29674,67,64,0,2,16,9,5.mid,experiment,0
60,136,29946,71,64,0,2,16,9,5.mid,experiment,0
61,138,30242,71,64,0,2,16,9,5.mid,experiment,0
62,140,30554,72,64,0,2,16,9,5.mid,experiment,0
63,142,30820,72,64,0,2,16,9,5.mid,experiment,0
64,144,31102,73,64,0,2,16,9,5.mid,experiment,0
65,146,31368,73,64,0,2,16,9,5.mid,experiment,0
66,149,32293,74,64,0,2,16,9,5.mid,experiment,0
67,151,32850,77,64,0,2,16,9,5.mid,experiment,0
68,152,33382,76,64,0,2,16,9,5.mid,experiment,0
69,154,33960,74,64,0,2,16,9,5.mid,experiment,0
70,156,34472,72,64,0,2,16,9,5.mid,experiment,0
71,158,34944,84,64,0,2,16,9,5.mid,experiment,0
72,160,35740,84,64,0,2,16,9,5.mid,experiment,0
1,19,8174,79,64,0,2,16,10,7.mid,experiment,0
2,21,8482,78,64,0,2,16,10,7.mid,experiment,0
3,23,8708,79,64,0,2,16,10,7.mid,experiment,0
4,24,9009,76,64,0,2,16,10,7.mid,experiment,0
5,26,9259,72,64,0,2,16,10,7.mid,experiment,0
6,28,9362,67,64,0,2,16,10,7.mid,experiment,0
7,30,9653,67,64,0,2,16,10,7.mid,experiment,0
8,32,9932,67,64,0,2,16,10,7.mid,experiment,0
9,35,10535,79,64,0,2,16,10,7.mid,experiment,0
10,37,10807,78,64,0,2,16,10,7.mid,experiment,0
11,39,11106,79,64,0,2,16,10,7.mid,experiment,0
12,40,11348,76,64,0,2,16,10,7.mid,experiment,0
13,43,11706,72,64,0,2,16,10,7.mid,experiment,0
14,45,12013,76,64,0,2,16,10,7.mid,experiment,0
15,46,12213,79,64,0,2,16,10,7.mid,experiment,0
16,48,12533,84,64,0,2,16,10,7.mid,experiment,0
17,50,12817,83,64,0,2,16,10,7.mid,experiment,0
18,52,12921,81,64,0,2,16,10,7.mid,experiment,0
19,54,13187,81,64,0,2,16,10,7.mid,experiment,0
20,56,13465,81,64,0,2,16,10,7.mid,experiment,0
21,59,14045,83,64,0,2,16,10,7.mid,experiment,0
22,61,14359,81,64,0,2,16,10,7.mid,experiment,0
23,63,14628,84,64,0,2,16,10,7.mid,experiment,0
24,65,14976,81,64,0,2,16,10,7.mid,experiment,0
25,66,15211,78,64,0,2,16,10,7.mid,experiment,0
26,68,15345,79,64,0,2,16,10,7.mid,experiment,0
27,70,15861,79,64,0,2,16,10,7.mid,experiment,0
28,72,16635,79,64,0,2,16,10,7.mid,experiment,0
29,74,17373,77,64,0,2,16,10,7.mid,experiment,0
30,76,17658,77,64,0,2,16,10,7.mid,experiment,0
31,78,17981,76,64,0,2,16,10,7.mid,experiment,0
32,80,18245,76,64,0,2,16,10,7.mid,experiment,0
33,82,18971,74,64,0,2,16,10,7.mid,experiment,0
34,85,20315,79,64,0,2,16,10,7.mid,experiment,0
35,87,20920,77,64,0,2,16,10,7.mid,experiment,0
36,88,20965,76,64,0,2,16,10,7.mid,experiment,0
37,90,21259,76,64,0,2,16,10,7.mid,experiment,0
38,92,21531,76,64,0,2,16,10,7.mid,experiment,0
39,94,21787,76,64,0,2,16,10,7.mid,experiment,0
40,97,22404,81,64,0,2,16,10,7.mid,experiment,0
41,99,22656,77,64,0,2,16,10,7.mid,experiment,0
42,101,22948,76,64,0,2,16,10,7.mid,experiment,0
43,103,23270,74,64,0,2,16,10,7.mid,experiment,0
44,105,23554,76,64,0,2,16,10,7.mid,experiment,0
45,107,23903,79,64,0,2,16,10,7.mid,experiment,0
46,108,24118,74,64,0,2,16,10,7.mid,experiment,0
47,111,24460,71,64,0,2,16,10,7.mid,experiment,0
48,112,24476,72,64,0,2,16,10,7.mid,experiment,0
49,114,24774,72,64,0,2,16,10,7.mid,experiment,0
50,116,25049,74,64,0,2,16,10,7.mid,experiment,0
51,118,25324,74,64,0,2,16,10,7.mid,experiment,0
52,120,26100,76,64,0,2,16,10,7.mid,experiment,0
53,122,26834,65,64,0,2,16,10,7.mid,experiment,0
54,124,27121,65,64,0,2,16,10,7.mid,experiment,0
55,126,27412,64,64,0,2,16,10,7.mid,experiment,0
56,128,27710,64,64,0,2,16,10,7.mid,experiment,0
57,130,28489,62,64,0,2,16,10,7.mid,experiment,0
58,132,29219,67,64,0,2,16,10,7.mid,experiment,0
59,134,29520,67,64,0,2,16,10,7.mid,experiment,0
60,136,29798,71,64,0,2,16,10,7.mid,experiment,0
61,138,30091,71,64,0,2,16,10,7.mid,experiment,0
62,140,30381,72,64,0,2,16,10,7.mid,experiment,0
63,142,30690,72,64,0,2,16,10,7.mid,experiment,0
64,144,30954,73,64,0,2,16,10,7.mid,experiment,0
65,146,31255,73,64,0,2,16,10,7.mid,experiment,0
66,149,32143,74,64,0,2,16,10,7.mid,experiment,0
67,151,32709,77,64,0,2,16,10,7.mid,experiment,0
68,153,33244,76,64,0,2,16,10,7.mid,experiment,0
69,154,33816,74,64,0,2,16,10,7.mid,experiment,0
70,156,34293,72,64,0,2,16,10,7.mid,experiment,0
71,158,34840,84,64,0,2,16,10,7.mid,experiment,0
72,160,35573,84,64,0,2,16,10,7.mid,experiment,0
1,19,8175,79,64,0,2,16,11,8.mid,experiment,0
2,21,8496,78,64,0,2,16,11,8.mid,experiment,0
3,23,8741,79,64,0,2,16,11,8.mid,experiment,0
4,24,9010,76,64,0,2,16,11,8.mid,experiment,0
5,26,9274,72,64,0,2,16,11,8.mid,experiment,0
6,28,9368,67,64,0,2,16,11,8.mid,experiment,0
7,30,9644,67,64,0,2,16,11,8.mid,experiment,0
8,32,9924,67,64,0,2,16,11,8.mid,experiment,0
9,35,10559,79,64,0,2,16,11,8.mid,experiment,0
10,37,10791,78,64,0,2,16,11,8.mid,experiment,0
11,39,11115,79,64,0,2,16,11,8.mid,experiment,0
12,40,11331,76,64,0,2,16,11,8.mid,experiment,0
13,43,11681,72,64,0,2,16,11,8.mid,experiment,0
14,45,11957,76,64,0,2,16,11,8.mid,experiment,0
15,46,12179,79,64,0,2,16,11,8.mid,experiment,0
16,49,12505,84,64,0,2,16,11,8.mid,experiment,0
17,50,12780,83,64,0,2,16,11,8.mid,experiment,0
18,52,12853,81,64,0,2,16,11,8.mid,experiment,0
19,54,13139,81,64,0,2,16,11,8.mid,experiment,0
20,56,13385,81,64,0,2,16,11,8.mid,experiment,0
21,59,13956,83,64,0,2,16,11,8.mid,experiment,0
22,60,14231,81,64,0,2,16,11,8.mid,experiment,0
23,62,14507,84,64,0,2,16,11,8.mid,experiment,0
24,65,14828,81,64,0,2,16,11,8.mid,experiment,0
25,66,15091,78,64,0,2,16,11,8.mid,experiment,0
26,68,15192,79,64,0,2,16,11,8.mid,experiment,0
27,70,15689,79,64,0,2,16,11,8.mid,experiment,0
28,72,16457,79,64,0,2,16,11,8.mid,experiment,0
29,74,17207,77,64,0,2,16,11,8.mid,experiment,0
30,76,17489,77,64,0,2,16,11,8.mid,experiment,0
31,78,17810,76,64,0,2,16,11,8.mid,experiment,0
32,80,18085,76,64,0,2,16,11,8.mid,experiment,0
33,82,18841,74,64,0,2,16,11,8.mid,experiment,0
34,85,20191,79,64,0,2,16,11,8.mid,experiment,0
35,86,20753,77,64,0,2,16,11,8.mid,experiment,0
36,88,20829,76,64,0,2,16,11,8.mid,experiment,0
37,90,21142,76,64,0,2,16,11,8.mid,experiment,0
38,92,21406,76,64,0,2,16,11,8.mid,experiment,0
39,94,21675,76,64,0,2,16,11,8.mid,experiment,0
40,97,22289,81,64,0,2,16,11,8.mid,experiment,0
41,99,22514,77,64,0,2,16,11,8.mid,experiment,0
42,101,22811,76,64,0,2,16,11,8.mid,experiment,0
43,103,23126,74,64,0,2,16,11,8.mid,experiment,0
44,105,23378,76,64,0,2,16,11,8.mid,experiment,0
45,107,23706,79,64,0,2,16,11,8.mid,experiment,0
46,108,23964,74,64,0,2,16,11,8.mid,experiment,0
47,110,24264,71,64,0,2,16,11,8.mid,experiment,0
48,112,24317,72,64,0,2,16,11,8.mid,experiment,0
49,114,24610,72,64,0,2,16,11,8.mid,experiment,0
50,116,24902,74,64,0,2,16,11,8.mid,experiment,0
51,118,25179,74,64,0,2,16,11,8.mid,experiment,0
52,120,25976,76,64,0,2,16,11,8.mid,experiment,0
53,122,26706,65,64,0,2,16,11,8.mid,experiment,0
54,124,26989,65,64,0,2,16,11,8.mid,experiment,0
55,126,27287,64,64,0,2,16,11,8.mid,experiment,0
56,128,27558,64,64,0,2,16,11,8.mid,experiment,0
57,130,28323,62,64,0,2,16,11,8.mid,experiment,0
58,132,29087,67,64,0,2,16,11,8.mid,experiment,0
59,134,29383,67,64,0,2,16,11,8.mid,experiment,0
60,136,29683,71,64,0,2,16,11,8.mid,experiment,0
61,138,29983,71,64,0,2,16,11,8.mid,experiment,0
62,140,30247,72,64,0,2,16,11,8.mid,experiment,0
63,142,30563,72,64,0,2,16,11,8.mid,experiment,0
64,144,30807,73,64,0,2,16,11,8.mid,experiment,0
65,146,31124,73,64,0,2,16,11,8.mid,experiment,0
66,149,31970,74,64,0,2,16,11,8.mid,experiment,0
67,151,32563,77,64,0,2,16,11,8.mid,experiment,0
68,152,33056,76,64,0,2,16,11,8.mid,experiment,0
69,154,33647,74,64,0,2,16,11,8.mid,experiment,0
70,156,34140,72,64,0,2,16,11,8.mid,experiment,0
71,158,34580,84,64,0,2,16,11,8.mid,experiment,0
72,160,35484,84,64,0,2,16,11,8.mid,experiment,0
1,19,8139,79,64,0,2,16,12,6.mid,experiment,0
2,21,8472,78,64,0,2,16,12,6.mid,experiment,0
3,23,8694,79,64,0,2,16,12,6.mid,experiment,0
4,24,8955,76,64,0,2,16,12,6.mid,experiment,0
5,26,9223,72,64,0,2,16,12,6.mid,experiment,0
6,28,9321,67,64,0,2,16,12,6.mid,experiment,0
7,30,9616,67,64,0,2,16,12,6.mid,experiment,0
8,32,9871,67,64,0,2,16,12,6.mid,experiment,0
9,35,10491,79,64,0,2,16,12,6.mid,experiment,0
10,37,10753,78,64,0,2,16,12,6.mid,experiment,0
11,39,11054,79,64,0,2,16,12,6.mid,experiment,0
12,40,11298,76,64,0,2,16,12,6.mid,experiment,0
13,43,11651,72,64,0,2,16,12,6.mid,experiment,0
14,45,11939,76,64,0,2,16,12,6.mid,experiment,0
15,46,12161,79,64,0,2,16,12,6.mid,experiment,0
16,49,12499,84,64,0,2,16,12,6.mid,experiment,0
17,50,12769,83,64,0,2,16,12,6.mid,experiment,0
18,52,12859,81,64,0,2,16,12,6.mid,experiment,0
19,54,13141,81,64,0,2,16,12,6.mid,experiment,0
20,56,13419,81,64,0,2,16,12,6.mid,experiment,0
21,59,14001,83,64,0,2,16,12,6.mid,experiment,0
22,61,14298,81,64,0,2,16,12,6.mid,experiment,0
23,63,14564,84,64,0,2,16,12,6.mid,experiment,0
24,65,14897,81,64,0,2,16,12,6.mid,experiment,0
25,67,15144,78,64,0,2,16,12,6.mid,experiment,0
26,68,15235,79,64,0,2,16,12,6.mid,experiment,0
27,70,15739,79,64,0,2,16,12,6.mid,experiment,0
28,72,16582,79,64,0,2,16,12,6.mid,experiment,0
29,74,17207,77,64,0,2,16,12,6.mid,experiment,0
30,76,17492,77,64,0,2,16,12,6.mid,experiment,0
31,78,17809,76,64,0,2,16,12,6.mid,experiment,0
32,80,18075,76,64,0,2,16,12,6.mid,experiment,0
33,82,18828,74,64,0,2,16,12,6.mid,experiment,0
34,84,20138,79,64,0,2,16,12,6.mid,experiment,0
35,87,20745,77,64,0,2,16,12,6.mid,experiment,0
36,88,20789,76,64,0,2,16,12,6.mid,experiment,0
37,90,21072,76,64,0,2,16,12,6.mid,experiment,0
38,92,21353,76,64,0,2,16,12,6.mid,experiment,0
39,94,21641,76,64,0,2,16,12,6.mid,experiment,0
40,97,22256,81,64,0,2,16,12,6.mid,experiment,0
41,99,22489,77,64,0,2,16,12,6.mid,experiment,0
42,101,22772,76,64,0,2,16,12,6.mid,experiment,0
43,103,23096,74,64,0,2,16,12,6.mid,experiment,0
44,105,23379,76,64,0,2,16,12,6.mid,experiment,0
45,107,23706,79,64,0,2,16,12,6.mid,experiment,0
46,108,23934,74,64,0,2,16,12,6.mid,experiment,0
47,110,24250,71,64,0,2,16,12,6.mid,experiment,0
48,112,24294,72,64,0,2,16,12,6.mid,experiment,0
49,114,24592,72,64,0,2,16,12,6.mid,experiment,0
50,116,24887,74,64,0,2,16,12,6.mid,experiment,0
51,118,25160,74,64,0,2,16,12,6.mid,experiment,0
52,120,25928,76,64,0,2,16,12,6.mid,experiment,0
53,122,26617,65,64,0,2,16,12,6.mid,experiment,0
54,124,26911,65,64,0,2,16,12,6.mid,experiment,0
55,126,27192,64,64,0,2,16,12,6.mid,experiment,0
56,128,27484,64,64,0,2,16,12,6.mid,experiment,0
57,130,28229,62,64,0,2,16,12,6.mid,experiment,0
58,132,29030,67,64,0,2,16,12,6.mid,experiment,0
59,134,29295,67,64,0,2,16,12,6.mid,experiment,0
60,136,29568,71,64,0,2,16,12,6.mid,experiment,0
61,138,29870,71,64,0,2,16,12,6.mid,experiment,0
62,140,30135,72,64,0,2,16,12,6.mid,experiment,0
63,142,30422,72,64,0,2,16,12,6.mid,experiment,0
64,144,30697,73,64,0,2,16,12,6.mid,experiment,0
65,146,30957,73,64,0,2,16,12,6.mid,experiment,0
66,149,31833,74,64,0,2,16,12,6.mid,experiment,0
67,151,32418,77,64,0,2,16,12,6.mid,experiment,0
68,152,32933,76,64,0,2,16,12,6.mid,experiment,0
69,154,33497,74,64,0,2,16,12,6.mid,experiment,0
70,156,33940,72,64,0,2,16,12,6.mid,experiment,0
71,158,34507,84,64,0,2,16,12,6.mid,experiment,0
72,160,35465,84,64,0,2,16,12,6.mid,experiment,0
1,19,8135,79,64,0,2,16,14,1.mid,experiment,0
2,21,8445,78,64,0,2,16,14,1.mid,experiment,0
3,23,8698,79,64,0,2,16,14,1.mid,experiment,0
4,24,8973,76,64,0,2,16,14,1.mid,experiment,0
5,26,9247,72,64,0,2,16,14,1.mid,experiment,0
6,28,9351,67,64,0,2,16,14,1.mid,experiment,0
7,30,9609,67,64,0,2,16,14,1.mid,experiment,0
8,32,9887,67,64,0,2,16,14,1.mid,experiment,0
9,35,10493,79,64,0,2,16,14,1.mid,experiment,0
10,37,10743,78,64,0,2,16,14,1.mid,experiment,0
11,39,11041,79,64,0,2,16,14,1.mid,experiment,0
12,40,11280,76,64,0,2,16,14,1.mid,experiment,0
13,43,11667,72,64,0,2,16,14,1.mid,experiment,0
14,45,11933,76,64,0,2,16,14,1.mid,experiment,0
15,46,12163,79,64,0,2,16,14,1.mid,experiment,0
16,49,12516,84,64,0,2,16,14,1.mid,experiment,0
17,50,12757,83,64,0,2,16,14,1.mid,experiment,0
18,52,12843,81,64,0,2,16,14,1.mid,experiment,0
19,54,13105,81,64,0,2,16,14,1.mid,experiment,0
20,56,13364,81,64,0,2,16,14,1.mid,experiment,0
21,59,13946,83,64,0,2,16,14,1.mid,experiment,0
22,60,14211,81,64,0,2,16,14,1.mid,experiment,0
23,63,14520,84,64,0,2,16,14,1.mid,experiment,0
24,65,14835,81,64,0,2,16,14,1.mid,experiment,0
25,66,15100,78,64,0,2,16,14,1.mid,experiment,0
26,68,15189,79,64,0,2,16,14,1.mid,experiment,0
27,70,15692,79,64,0,2,16,14,1.mid,experiment,0
28,72,16467,79,64,0,2,16,14,1.mid,experiment,0
29,74,17229,77,64,0,2,16,14,1.mid,experiment,0
30,76,17527,77,64,0,2,16,14,1.mid,experiment,0
31,78,17819,76,64,0,2,16,14,1.mid,experiment,0
32,80,18089,76,64,0,2,16,14,1.mid,experiment,0
33,82,18769,74,64,0,2,16,14,1.mid,experiment,0
34,84,20119,79,64,0,2,16,14,1.mid,experiment,0
35,86,20704,77,64,0,2,16,14,1.mid,experiment,0
36,88,20758,76,64,0,2,16,14,1.mid,experiment,0
37,90,21065,76,64,0,2,16,14,1.mid,experiment,0
38,92,21338,76,64,0,2,16,14,1.mid,experiment,0
39,94,21609,76,64,0,2,16,14,1.mid,experiment,0
40,97,22231,81,64,0,2,16,14,1.mid,experiment,0
41,99,22468,77,64,0,2,16,14,1.mid,experiment,0
42,101,22772,76,64,0,2,16,14,1.mid,experiment,0
43,103,23081,74,64,0,2,16,14,1.mid,experiment,0
44,105,23343,76,64,0,2,16,14,1.mid,experiment,0
45,107,23659,79,64,0,2,16,14,1.mid,experiment,0
46,109,23903,74,64,0,2,16,14,1.mid,experiment,0
47,110,24197,71,64,0,2,16,14,1.mid,experiment,0
48,112,24245,72,64,0,2,16,14,1.mid,experiment,0
49,114,24519,72,64,0,2,16,14,1.mid,experiment,0
50,116,24817,74,64,0,2,16,14,1.mid,experiment,0
51,118,25087,74,64,0,2,16,14,1.mid,experiment,0
52,120,25883,76,64,0,2,16,14,1.mid,experiment,0
53,122,26579,65,64,0,2,16,14,1.mid,experiment,0
54,124,26879,65,64,0,2,16,14,1.mid,experiment,0
55,126,27157,64,64,0,2,16,14,1.mid,experiment,0
56,128,27439,64,64,0,2,16,14,1.mid,experiment,0
57,130,28302,62,64,0,2,16,14,1.mid,experiment,0
58,132,28991,67,64,0,2,16,14,1.mid,experiment,0
59,134,29274,67,64,0,2,16,14,1.mid,experiment,0
60,136,29549,71,64,0,2,16,14,1.mid,experiment,0
61,138,29827,71,64,0,2,16,14,1.mid,experiment,0
62,140,30113,72,64,0,2,16,14,1.mid,experiment,0
63,142,30390,72,64,0,2,16,14,1.mid,experiment,0
64,144,30719,73,64,0,2,16,14,1.mid,experiment,0
65,146,30975,73,64,0,2,16,14,1.mid,experiment,0
66,149,31811,74,64,0,2,16,14,1.mid,experiment,0
67,151,32429,77,64,0,2,16,14,1.mid,experiment,0
68,153,32961,76,64,0,2,16,14,1.mid,experiment,0
69,154,33494,74,64,0,2,16,14,1.mid,experiment,0
70,156,33985,72,64,0,2,16,14,1.mid,experiment,0
71,158,34461,84,64,0,2,16,14,1.mid,experiment,0
72,160,35455,84,64,0,2,16,14,1.mid,experiment,0
1,19,8164,79,64,0,2,16,15,9.mid,experiment,0
2,21,8494,78,64,0,2,16,15,9.mid,experiment,0
3,23,8752,79,64,0,2,16,15,9.mid,experiment,0
4,25,9032,76,64,0,2,16,15,9.mid,experiment,0
5,26,9258,72,64,0,2,16,15,9.mid,experiment,0
6,28,9362,67,64,0,2,16,15,9.mid,experiment,0
7,30,9650,67,64,0,2,16,15,9.mid,experiment,0
8,32,9912,67,64,0,2,16,15,9.mid,experiment,0
9,35,10507,79,64,0,2,16,15,9.mid,experiment,0
10,37,10749,78,64,0,2,16,15,9.mid,experiment,0
11,39,11068,79,64,0,2,16,15,9.mid,experiment,0
12,40,11307,76,64,0,2,16,15,9.mid,experiment,0
13,43,11672,72,64,0,2,16,15,9.mid,experiment,0
14,45,11964,76,64,0,2,16,15,9.mid,experiment,0
15,46,12168,79,64,0,2,16,15,9.mid,experiment,0
16,49,12511,84,64,0,2,16,15,9.mid,experiment,0
17,50,12764,83,64,0,2,16,15,9.mid,experiment,0
18,52,12834,81,64,0,2,16,15,9.mid,experiment,0
19,54,13114,81,64,0,2,16,15,9.mid,experiment,0
20,56,13385,81,64,0,2,16,15,9.mid,experiment,0
21,58,13954,83,64,0,2,16,15,9.mid,experiment,0
22,60,14240,81,64,0,2,16,15,9.mid,experiment,0
23,62,14536,84,64,0,2,16,15,9.mid,experiment,0
24,65,14880,81,64,0,2,16,15,9.mid,experiment,0
25,67,15152,78,64,0,2,16,15,9.mid,experiment,0
26,68,15198,79,64,0,2,16,15,9.mid,experiment,0
27,70,15739,79,64,0,2,16,15,9.mid,experiment,0
28,72,16480,79,64,0,2,16,15,9.mid,experiment,0
29,74,17202,77,64,0,2,16,15,9.mid,experiment,0
30,76,17480,77,64,0,2,16,15,9.mid,experiment,0
31,78,17790,76,64,0,2,16,15,9.mid,experiment,0
32,80,18054,76,64,0,2,16,15,9.mid,experiment,0
33,82,18804,74,64,0,2,16,15,9.mid,experiment,0
34,85,20192,79,64,0,2,16,15,9.mid,experiment,0
35,86,20692,77,64,0,2,16,15,9.mid,experiment,0
36,88,20752,76,64,0,2,16,15,9.mid,experiment,0
37,90,21050,76,64,0,2,16,15,9.mid,experiment,0
38,92,21314,76,64,0,2,16,15,9.mid,experiment,0
39,94,21580,76,64,0,2,16,15,9.mid,experiment,0
40,97,22200,81,64,0,2,16,15,9.mid,experiment,0
41,99,22430,77,64,0,2,16,15,9.mid,experiment,0
42,101,22704,76,64,0,2,16,15,9.mid,experiment,0
43,103,23028,74,64,0,2,16,15,9.mid,experiment,0
44,105,23305,76,64,0,2,16,15,9.mid,experiment,0
45,107,23628,79,64,0,2,16,15,9.mid,experiment,0
46,109,23868,74,64,0,2,16,15,9.mid,experiment,0
47,111,24176,71,64,0,2,16,15,9.mid,experiment,0
48,112,24197,72,64,0,2,16,15,9.mid,experiment,0
49,114,24484,72,64,0,2,16,15,9.mid,experiment,0
50,116,24783,74,64,0,2,16,15,9.mid,experiment,0
51,118,25050,74,64,0,2,16,15,9.mid,experiment,0
52,120,25808,76,64,0,2,16,15,9.mid,experiment,0
53,122,26504,65,64,0,2,16,15,9.mid,experiment,0
54,124,26784,65,64,0,2,16,15,9.mid,experiment,0
55,126,27064,64,64,0,2,16,15,9.mid,experiment,0
56,128,27328,64,64,0,2,16,15,9.mid,experiment,0
57,130,28102,62,64,0,2,16,15,9.mid,experiment,0
58,132,28856,67,64,0,2,16,15,9.mid,experiment,0
59,134,29140,67,64,0,2,16,15,9.mid,experiment,0
60,136,29408,71,64,0,2,16,15,9.mid,experiment,0
61,138,29686,71,64,0,2,16,15,9.mid,experiment,0
62,140,29982,72,64,0,2,16,15,9.mid,experiment,0
63,142,30262,72,64,0,2,16,15,9.mid,experiment,0
64,144,30523,73,64,0,2,16,15,9.mid,experiment,0
65,146,30801,73,64,0,2,16,15,9.mid,experiment,0
66,149,31676,74,64,0,2,16,15,9.mid,experiment,0
67,151,32270,77,64,0,2,16,15,9.mid,experiment,0
68,152,32796,76,64,0,2,16,15,9.mid,experiment,0
69,154,33320,74,64,0,2,16,15,9.mid,experiment,0
70,156,33827,72,64,0,2,16,15,9.mid,experiment,0
71,158,34350,84,64,0,2,16,15,9.mid,experiment,0
72,160,35240,84,64,0,2,16,15,9.mid,experiment,0
1,19,8150,79,64,0,2,16,16,10.mid,experiment,0
2,21,8457,78,64,0,2,16,16,10.mid,experiment,0
3,23,8702,79,64,0,2,16,16,10.mid,experiment,0
4,24,8976,76,64,0,2,16,16,10.mid,experiment,0
5,26,9242,72,64,0,2,16,16,10.mid,experiment,0
6,28,9347,67,64,0,2,16,16,10.mid,experiment,0
7,30,9623,67,64,0,2,16,16,10.mid,experiment,0
8,32,9877,67,64,0,2,16,16,10.mid,experiment,0
9,35,10501,79,64,0,2,16,16,10.mid,experiment,0
10,37,10796,78,64,0,2,16,16,10.mid,experiment,0
11,39,11059,79,64,0,2,16,16,10.mid,experiment,0
12,40,11316,76,64,0,2,16,16,10.mid,experiment,0
13,43,11675,72,64,0,2,16,16,10.mid,experiment,0
14,45,11985,76,64,0,2,16,16,10.mid,experiment,0
15,47,12216,79,64,0,2,16,16,10.mid,experiment,0
16,49,12553,84,64,0,2,16,16,10.mid,experiment,0
17,50,12796,83,64,0,2,16,16,10.mid,experiment,0
18,52,12883,81,64,0,2,16,16,10.mid,experiment,0
19,54,13156,81,64,0,2,16,16,10.mid,experiment,0
20,56,13438,81,64,0,2,16,16,10.mid,experiment,0
21,59,13989,83,64,0,2,16,16,10.mid,experiment,0
22,61,14293,81,64,0,2,16,16,10.mid,experiment,0
23,63,14563,84,64,0,2,16,16,10.mid,experiment,0
24,65,14895,81,64,0,2,16,16,10.mid,experiment,0
25,66,15133,78,64,0,2,16,16,10.mid,experiment,0
26,68,15223,79,64,0,2,16,16,10.mid,experiment,0
27,70,15760,79,64,0,2,16,16,10.mid,experiment,0
28,72,16542,79,64,0,2,16,16,10.mid,experiment,0
29,74,17233,77,64,0,2,16,16,10.mid,experiment,0
30,76,17520,77,64,0,2,16,16,10.mid,experiment,0
31,78,17811,76,64,0,2,16,16,10.mid,experiment,0
32,80,18080,76,64,0,2,16,16,10.mid,experiment,0
33,82,18892,74,64,0,2,16,16,10.mid,experiment,0
34,84,20130,79,64,0,2,16,16,10.mid,experiment,0
35,86,20731,77,64,0,2,16,16,10.mid,experiment,0
36,88,20791,76,64,0,2,16,16,10.mid,experiment,0
37,90,21078,76,64,0,2,16,16,10.mid,experiment,0
38,92,21346,76,64,0,2,16,16,10.mid,experiment,0
39,94,21624,76,64,0,2,16,16,10.mid,experiment,0
40,97,22241,81,64,0,2,16,16,10.mid,experiment,0
41,99,22477,77,64,0,2,16,16,10.mid,experiment,0
42,101,22760,76,64,0,2,16,16,10.mid,experiment,0
43,103,23077,74,64,0,2,16,16,10.mid,experiment,0
44,105,23368,76,64,0,2,16,16,10.mid,experiment,0
45,107,23679,79,64,0,2,16,16,10.mid,experiment,0
46,109,23932,74,64,0,2,16,16,10.mid,experiment,0
47,111,24236,71,64,0,2,16,16,10.mid,experiment,0
48,112,24266,72,64,0,2,16,16,10.mid,experiment,0
49,114,24547,72,64,0,2,16,16,10.mid,experiment,0
50,116,24822,74,64,0,2,16,16,10.mid,experiment,0
51,118,25100,74,64,0,2,16,16,10.mid,experiment,0
52,120,25849,76,64,0,2,16,16,10.mid,experiment,0
53,122,26579,65,64,0,2,16,16,10.mid,experiment,0
54,124,26881,65,64,0,2,16,16,10.mid,experiment,0
55,126,27155,64,64,0,2,16,16,10.mid,experiment,0
56,128,27427,64,64,0,2,16,16,10.mid,experiment,0
57,130,28200,62,64,0,2,16,16,10.mid,experiment,0
58,132,28973,67,64,0,2,16,16,10.mid,experiment,0
59,134,29249,67,64,0,2,16,16,10.mid,experiment,0
60,136,29536,71,64,0,2,16,16,10.mid,experiment,0
61,138,29815,71,64,0,2,16,16,10.mid,experiment,0
62,140,30132,72,64,0,2,16,16,10.mid,experiment,0
63,142,30380,72,64,0,2,16,16,10.mid,experiment,0
64,144,30642,73,64,0,2,16,16,10.mid,experiment,0
65,146,30915,73,64,0,2,16,16,10.mid,experiment,0
66,149,31831,74,64,0,2,16,16,10.mid,experiment,0
67,151,32400,77,64,0,2,16,16,10.mid,experiment,0
68,153,32919,76,64,0,2,16,16,10.mid,experiment,0
69,154,33468,74,64,0,2,16,16,10.mid,experiment,0
70,156,33931,72,64,0,2,16,16,10.mid,experiment,0
71,158,34390,84,64,0,2,16,16,10.mid,experiment,0
72,160,35355,84,64,0,2,16,16,10.mid,experiment,0
1,19,8374,79,64,0,2,17,4,5.mid,experiment,0
2,21,8582,78,64,0,2,17,4,5.mid,experiment,0
3,23,8978,79,64,0,2,17,4,5.mid,experiment,0
4,25,9169,76,64,0,2,17,4,5.mid,experiment,0
5,26,9352,72,64,0,2,17,4,5.mid,experiment,0
6,28,9441,67,64,0,2,17,4,5.mid,experiment,0
7,30,9737,67,64,0,2,17,4,5.mid,experiment,0
8,32,10024,67,64,0,2,17,4,5.mid,experiment,0
9,35,10738,79,64,0,2,17,4,5.mid,experiment,0
10,37,11009,78,64,0,2,17,4,5.mid,experiment,0
11,39,11241,79,64,0,2,17,4,5.mid,experiment,0
12,41,11569,76,64,0,2,17,4,5.mid,experiment,0
13,43,11951,72,64,0,2,17,4,5.mid,experiment,0
14,45,12240,76,64,0,2,17,4,5.mid,experiment,0
15,47,12368,79,64,0,2,17,4,5.mid,experiment,0
16,49,12746,84,64,0,2,17,4,5.mid,experiment,0
17,50,12910,83,64,0,2,17,4,5.mid,experiment,0
18,52,12978,81,64,0,2,17,4,5.mid,experiment,0
19,54,13288,81,64,0,2,17,4,5.mid,experiment,0
20,56,13597,81,64,0,2,17,4,5.mid,experiment,0
21,59,14276,83,64,0,2,17,4,5.mid,experiment,0
22,61,14517,81,64,0,2,17,4,5.mid,experiment,0
23,63,14920,84,64,0,2,17,4,5.mid,experiment,0
24,65,15084,81,64,0,2,17,4,5.mid,experiment,0
25,67,15305,78,64,0,2,17,4,5.mid,experiment,0
26,68,15508,79,64,0,2,17,4,5.mid,experiment,0
27,70,16007,79,64,0,2,17,4,5.mid,experiment,0
28,72,16852,79,64,0,2,17,4,5.mid,experiment,0
29,74,17650,77,64,0,2,17,4,5.mid,experiment,0
30,76,17916,77,64,0,2,17,4,5.mid,experiment,0
31,78,18204,76,64,0,2,17,4,5.mid,experiment,0
32,80,18472,76,64,0,2,17,4,5.mid,experiment,0
33,82,19198,74,64,0,2,17,4,5.mid,experiment,0
34,84,20439,79,64,0,2,17,4,5.mid,experiment,0
35,86,20944,77,64,0,2,17,4,5.mid,experiment,0
36,88,21222,76,64,0,2,17,4,5.mid,experiment,0
37,90,21492,76,64,0,2,17,4,5.mid,experiment,0
38,92,21784,76,64,0,2,17,4,5.mid,experiment,0
39,94,22073,76,64,0,2,17,4,5.mid,experiment,0
40,98,22938,81,64,0,2,17,4,5.mid,experiment,0
41,99,23006,77,64,0,2,17,4,5.mid,experiment,0
42,101,23246,76,64,0,2,17,4,5.mid,experiment,0
43,103,23552,74,64,0,2,17,4,5.mid,experiment,0
44,105,23784,76,64,0,2,17,4,5.mid,experiment,0
45,107,24232,79,64,0,2,17,4,5.mid,experiment,0
46,109,24297,74,64,0,2,17,4,5.mid,experiment,0
47,110,24498,71,64,0,2,17,4,5.mid,experiment,0
48,112,24626,72,64,0,2,17,4,5.mid,experiment,0
49,114,24908,72,64,0,2,17,4,5.mid,experiment,0
50,116,25202,74,64,0,2,17,4,5.mid,experiment,0
51,118,25519,74,64,0,2,17,4,5.mid,experiment,0
52,120,26302,76,64,0,2,17,4,5.mid,experiment,0
53,122,26978,65,64,0,2,17,4,5.mid,experiment,0
54,124,27266,65,64,0,2,17,4,5.mid,experiment,0
55,126,27554,64,64,0,2,17,4,5.mid,experiment,0
56,128,27828,64,64,0,2,17,4,5.mid,experiment,0
57,130,28610,62,64,0,2,17,4,5.mid,experiment,0
58,132,29302,67,64,0,2,17,4,5.mid,experiment,0
59,134,29576,67,64,0,2,17,4,5.mid,experiment,0
60,136,29851,71,64,0,2,17,4,5.mid,experiment,0
61,138,30120,71,64,0,2,17,4,5.mid,experiment,0
62,140,30399,72,64,0,2,17,4,5.mid,experiment,0
63,142,30673,72,64,0,2,17,4,5.mid,experiment,0
64,144,30966,73,64,0,2,17,4,5.mid,experiment,0
65,146,31236,73,64,0,2,17,4,5.mid,experiment,0
66,149,32100,74,64,0,2,17,4,5.mid,experiment,0
67,151,32732,77,64,0,2,17,4,5.mid,experiment,0
68,153,33304,76,64,0,2,17,4,5.mid,experiment,0
69,155,33801,74,64,0,2,17,4,5.mid,experiment,0
70,157,34381,72,64,0,2,17,4,5.mid,experiment,0
71,158,34894,84,64,0,2,17,4,5.mid,experiment,0
72,160,35698,84,64,0,2,17,4,5.mid,experiment,0
1,19,8343,79,64,0,2,17,8,11.mid,experiment,0
2,21,8589,78,64,0,2,17,8,11.mid,experiment,0
3,23,8839,79,64,0,2,17,8,11.mid,experiment,0
4,25,9103,76,64,0,2,17,8,11.mid,experiment,0
5,26,9283,72,64,0,2,17,8,11.mid,experiment,0
6,28,9433,67,64,0,2,17,8,11.mid,experiment,0
7,30,9735,67,64,0,2,17,8,11.mid,experiment,0
8,32,10019,67,64,0,2,17,8,11.mid,experiment,0
9,35,10717,79,64,0,2,17,8,11.mid,experiment,0
10,37,10946,78,64,0,2,17,8,11.mid,experiment,0
11,39,11213,79,64,0,2,17,8,11.mid,experiment,0
12,41,11579,76,64,0,2,17,8,11.mid,experiment,0
13,43,11889,72,64,0,2,17,8,11.mid,experiment,0
14,45,12157,76,64,0,2,17,8,11.mid,experiment,0
15,47,12354,79,64,0,2,17,8,11.mid,experiment,0
16,49,12723,84,64,0,2,17,8,11.mid,experiment,0
17,50,12890,83,64,0,2,17,8,11.mid,experiment,0
18,52,12981,81,64,0,2,17,8,11.mid,experiment,0
19,54,13289,81,64,0,2,17,8,11.mid,experiment,0
20,56,13603,81,64,0,2,17,8,11.mid,experiment,0
21,59,14276,83,64,0,2,17,8,11.mid,experiment,0
22,61,14546,81,64,0,2,17,8,11.mid,experiment,0
23,63,14904,84,64,0,2,17,8,11.mid,experiment,0
24,65,15075,81,64,0,2,17,8,11.mid,experiment,0
25,67,15323,78,64,0,2,17,8,11.mid,experiment,0
26,68,15525,79,64,0,2,17,8,11.mid,experiment,0
27,70,16119,79,64,0,2,17,8,11.mid,experiment,0
28,72,16799,79,64,0,2,17,8,11.mid,experiment,0
29,74,17450,77,64,0,2,17,8,11.mid,experiment,0
30,76,17713,77,64,0,2,17,8,11.mid,experiment,0
31,78,18011,76,64,0,2,17,8,11.mid,experiment,0
32,80,18301,76,64,0,2,17,8,11.mid,experiment,0
33,82,19094,74,64,0,2,17,8,11.mid,experiment,0
34,84,20282,79,64,0,2,17,8,11.mid,experiment,0
35,86,20734,77,64,0,2,17,8,11.mid,experiment,0
36,88,20990,76,64,0,2,17,8,11.mid,experiment,0
37,90,21289,76,64,0,2,17,8,11.mid,experiment,0
38,92,21563,76,64,0,2,17,8,11.mid,experiment,0
39,94,21855,76,64,0,2,17,8,11.mid,experiment,0
40,98,22724,81,64,0,2,17,8,11.mid,experiment,0
41,99,22815,77,64,0,2,17,8,11.mid,experiment,0
42,101,23029,76,64,0,2,17,8,11.mid,experiment,0
43,103,23309,74,64,0,2,17,8,11.mid,experiment,0
44,105,23558,76,64,0,2,17,8,11.mid,experiment,0
45,107,23995,79,64,0,2,17,8,11.mid,experiment,0
46,109,24089,74,64,0,2,17,8,11.mid,experiment,0
47,110,24167,71,64,0,2,17,8,11.mid,experiment,0
48,112,24390,72,64,0,2,17,8,11.mid,experiment,0
49,114,24672,72,64,0,2,17,8,11.mid,experiment,0
50,116,24959,74,64,0,2,17,8,11.mid,experiment,0
51,118,25272,74,64,0,2,17,8,11.mid,experiment,0
52,120,26049,76,64,0,2,17,8,11.mid,experiment,0
53,122,26721,65,64,0,2,17,8,11.mid,experiment,0
54,124,27005,65,64,0,2,17,8,11.mid,experiment,0
55,126,27297,64,64,0,2,17,8,11.mid,experiment,0
56,128,27561,64,64,0,2,17,8,11.mid,experiment,0
57,130,28363,62,64,0,2,17,8,11.mid,experiment,0
58,132,29083,67,64,0,2,17,8,11.mid,experiment,0
59,134,29373,67,64,0,2,17,8,11.mid,experiment,0
60,136,29666,71,64,0,2,17,8,11.mid,experiment,0
61,138,29941,71,64,0,2,17,8,11.mid,experiment,0
62,140,30227,72,64,0,2,17,8,11.mid,experiment,0
63,142,30511,72,64,0,2,17,8,11.mid,experiment,0
64,144,30805,73,64,0,2,17,8,11.mid,experiment,0
65,146,31083,73,64,0,2,17,8,11.mid,experiment,0
66,149,31930,74,64,0,2,17,8,11.mid,experiment,0
67,151,32490,77,64,0,2,17,8,11.mid,experiment,0
68,153,33042,76,64,0,2,17,8,11.mid,experiment,0
69,155,33580,74,64,0,2,17,8,11.mid,experiment,0
70,157,34160,72,64,0,2,17,8,11.mid,experiment,0
71,158,34688,84,64,0,2,17,8,11.mid,experiment,0
72,160,35432,84,64,0,2,17,8,11.mid,experiment,0
1,19,8384,79,64,0,2,17,13,12.mid,experiment,0
2,21,8611,78,64,0,2,17,13,12.mid,experiment,0
3,23,8983,79,64,0,2,17,13,12.mid,experiment,0
4,25,9141,76,64,0,2,17,13,12.mid,experiment,0
5,26,9286,72,64,0,2,17,13,12.mid,experiment,0
6,28,9458,67,64,0,2,17,13,12.mid,experiment,0
7,30,9730,67,64,0,2,17,13,12.mid,experiment,0
8,32,10017,67,64,0,2,17,13,12.mid,experiment,0
9,35,10715,79,64,0,2,17,13,12.mid,experiment,0
10,37,10940,78,64,0,2,17,13,12.mid,experiment,0
11,39,11263,79,64,0,2,17,13,12.mid,experiment,0
12,41,11524,76,64,0,2,17,13,12.mid,experiment,0
13,43,11870,72,64,0,2,17,13,12.mid,experiment,0
14,45,12168,76,64,0,2,17,13,12.mid,experiment,0
15,47,12323,79,64,0,2,17,13,12.mid,experiment,0
16,49,12684,84,64,0,2,17,13,12.mid,experiment,0
17,50,12876,83,64,0,2,17,13,12.mid,experiment,0
18,52,12919,81,64,0,2,17,13,12.mid,experiment,0
19,54,13210,81,64,0,2,17,13,12.mid,experiment,0
20,56,13527,81,64,0,2,17,13,12.mid,experiment,0
21,59,14150,83,64,0,2,17,13,12.mid,experiment,0
22,61,14436,81,64,0,2,17,13,12.mid,experiment,0
23,64,14920,84,64,0,2,17,13,12.mid,experiment,0
24,65,14979,81,64,0,2,17,13,12.mid,experiment,0
25,67,15276,78,64,0,2,17,13,12.mid,experiment,0
26,68,15450,79,64,0,2,17,13,12.mid,experiment,0
27,70,16024,79,64,0,2,17,13,12.mid,experiment,0
28,72,16787,79,64,0,2,17,13,12.mid,experiment,0
29,74,17414,77,64,0,2,17,13,12.mid,experiment,0
30,76,17692,77,64,0,2,17,13,12.mid,experiment,0
31,78,17984,76,64,0,2,17,13,12.mid,experiment,0
32,80,18286,76,64,0,2,17,13,12.mid,experiment,0
33,82,19128,74,64,0,2,17,13,12.mid,experiment,0
34,84,20284,79,64,0,2,17,13,12.mid,experiment,0
35,86,20746,77,64,0,2,17,13,12.mid,experiment,0
36,88,20998,76,64,0,2,17,13,12.mid,experiment,0
37,90,21284,76,64,0,2,17,13,12.mid,experiment,0
38,92,21575,76,64,0,2,17,13,12.mid,experiment,0
39,94,21868,76,64,0,2,17,13,12.mid,experiment,0
40,97,22669,81,64,0,2,17,13,12.mid,experiment,0
41,99,22817,77,64,0,2,17,13,12.mid,experiment,0
42,101,23032,76,64,0,2,17,13,12.mid,experiment,0
43,103,23333,74,64,0,2,17,13,12.mid,experiment,0
44,105,23600,76,64,0,2,17,13,12.mid,experiment,0
45,107,23934,79,64,0,2,17,13,12.mid,experiment,0
46,109,24106,74,64,0,2,17,13,12.mid,experiment,0
47,110,24226,71,64,0,2,17,13,12.mid,experiment,0
48,112,24436,72,64,0,2,17,13,12.mid,experiment,0
49,114,24763,72,64,0,2,17,13,12.mid,experiment,0
50,116,25008,74,64,0,2,17,13,12.mid,experiment,0
51,118,25275,74,64,0,2,17,13,12.mid,experiment,0
52,120,26114,76,64,0,2,17,13,12.mid,experiment,0
53,122,26788,65,64,0,2,17,13,12.mid,experiment,0
54,124,27064,65,64,0,2,17,13,12.mid,experiment,0
55,126,27369,64,64,0,2,17,13,12.mid,experiment,0
56,128,27623,64,64,0,2,17,13,12.mid,experiment,0
57,130,28495,62,64,0,2,17,13,12.mid,experiment,0
58,132,29136,67,64,0,2,17,13,12.mid,experiment,0
59,134,29410,67,64,0,2,17,13,12.mid,experiment,0
60,136,29680,71,64,0,2,17,13,12.mid,experiment,0
61,138,29958,71,64,0,2,17,13,12.mid,experiment,0
62,140,30222,72,64,0,2,17,13,12.mid,experiment,0
63,142,30498,72,64,0,2,17,13,12.mid,experiment,0
64,144,30776,73,64,0,2,17,13,12.mid,experiment,0
65,146,31098,73,64,0,2,17,13,12.mid,experiment,0
66,149,31934,74,64,0,2,17,13,12.mid,experiment,0
67,151,32531,77,64,0,2,17,13,12.mid,experiment,0
68,153,33152,76,64,0,2,17,13,12.mid,experiment,0
69,155,33716,74,64,0,2,17,13,12.mid,experiment,0
70,157,34340,72,64,0,2,17,13,12.mid,experiment,0
71,158,34844,84,64,0,2,17,13,12.mid,experiment,0
72,160,35781,84,64,0,2,17,13,12.mid,experiment,0
1,19,8316,79,64,0,2,17,15,8.mid,experiment,0
2,21,8591,78,64,0,2,17,15,8.mid,experiment,0
3,23,8873,79,64,0,2,17,15,8.mid,experiment,0
4,25,9093,76,64,0,2,17,15,8.mid,experiment,0
5,26,9308,72,64,0,2,17,15,8.mid,experiment,0
6,28,9426,67,64,0,2,17,15,8.mid,experiment,0
7,30,9693,67,64,0,2,17,15,8.mid,experiment,0
8,32,9980,67,64,0,2,17,15,8.mid,experiment,0
9,35,10659,79,64,0,2,17,15,8.mid,experiment,0
10,37,10951,78,64,0,2,17,15,8.mid,experiment,0
11,39,11233,79,64,0,2,17,15,8.mid,experiment,0
12,41,11539,76,64,0,2,17,15,8.mid,experiment,0
13,43,11821,72,64,0,2,17,15,8.mid,experiment,0
14,45,12112,76,64,0,2,17,15,8.mid,experiment,0
15,47,12325,79,64,0,2,17,15,8.mid,experiment,0
16,49,12680,84,64,0,2,17,15,8.mid,experiment,0
17,50,12891,83,64,0,2,17,15,8.mid,experiment,0
18,52,12960,81,64,0,2,17,15,8.mid,experiment,0
19,54,13254,81,64,0,2,17,15,8.mid,experiment,0
20,56,13533,81,64,0,2,17,15,8.mid,experiment,0
21,59,14218,83,64,0,2,17,15,8.mid,experiment,0
22,61,14451,81,64,0,2,17,15,8.mid,experiment,0
23,64,15042,84,64,0,2,17,15,8.mid,experiment,0
24,65,15068,81,64,0,2,17,15,8.mid,experiment,0
25,67,15332,78,64,0,2,17,15,8.mid,experiment,0
26,68,15491,79,64,0,2,17,15,8.mid,experiment,0
27,70,16055,79,64,0,2,17,15,8.mid,experiment,0
28,72,16810,79,64,0,2,17,15,8.mid,experiment,0
29,74,17441,77,64,0,2,17,15,8.mid,experiment,0
30,76,17735,77,64,0,2,17,15,8.mid,experiment,0
31,78,18029,76,64,0,2,17,15,8.mid,experiment,0
32,80,18315,76,64,0,2,17,15,8.mid,experiment,0
33,82,19170,74,64,0,2,17,15,8.mid,experiment,0
34,84,20354,79,64,0,2,17,15,8.mid,experiment,0
35,86,20735,77,64,0,2,17,15,8.mid,experiment,0
36,88,21018,76,64,0,2,17,15,8.mid,experiment,0
37,90,21292,76,64,0,2,17,15,8.mid,experiment,0
38,92,21588,76,64,0,2,17,15,8.mid,experiment,0
39,94,21880,76,64,0,2,17,15,8.mid,experiment,0
40,97,22660,81,64,0,2,17,15,8.mid,experiment,0
41,99,22791,77,64,0,2,17,15,8.mid,experiment,0
42,101,23044,76,64,0,2,17,15,8.mid,experiment,0
43,103,23326,74,64,0,2,17,15,8.mid,experiment,0
44,105,23610,76,64,0,2,17,15,8.mid,experiment,0
45,107,24029,79,64,0,2,17,15,8.mid,experiment,0
46,109,24128,74,64,0,2,17,15,8.mid,experiment,0
47,110,24321,71,64,0,2,17,15,8.mid,experiment,0
48,112,24460,72,64,0,2,17,15,8.mid,experiment,0
49,114,24725,72,64,0,2,17,15,8.mid,experiment,0
50,116,24999,74,64,0,2,17,15,8.mid,experiment,0
51,118,25306,74,64,0,2,17,15,8.mid,experiment,0
52,120,26139,76,64,0,2,17,15,8.mid,experiment,0
53,122,26804,65,64,0,2,17,15,8.mid,experiment,0
54,124,27088,65,64,0,2,17,15,8.mid,experiment,0
55,126,27383,64,64,0,2,17,15,8.mid,experiment,0
56,128,27665,64,64,0,2,17,15,8.mid,experiment,0
57,130,28552,62,64,0,2,17,15,8.mid,experiment,0
58,132,29160,67,64,0,2,17,15,8.mid,experiment,0
59,134,29430,67,64,0,2,17,15,8.mid,experiment,0
60,136,29723,71,64,0,2,17,15,8.mid,experiment,0
61,138,30005,71,64,0,2,17,15,8.mid,experiment,0
62,140,30264,72,64,0,2,17,15,8.mid,experiment,0
63,142,30533,72,64,0,2,17,15,8.mid,experiment,0
64,144,30827,73,64,0,2,17,15,8.mid,experiment,0
65,146,31138,73,64,0,2,17,15,8.mid,experiment,0
66,149,32045,74,64,0,2,17,15,8.mid,experiment,0
67,151,32640,77,64,0,2,17,15,8.mid,experiment,0
68,153,33137,76,64,0,2,17,15,8.mid,experiment,0
69,155,33669,74,64,0,2,17,15,8.mid,experiment,0
70,157,34256,72,64,0,2,17,15,8.mid,experiment,0
71,158,34767,84,64,0,2,17,15,8.mid,experiment,0
72,160,35600,84,64,0,2,17,15,8.mid,experiment,0
1,19,8396,79,64,0,2,17,16,15.mid,experiment,0
2,21,8621,78,64,0,2,17,16,15.mid,experiment,0
3,23,9003,79,64,0,2,17,16,15.mid,experiment,0
4,25,9157,76,64,0,2,17,16,15.mid,experiment,0
5,26,9339,72,64,0,2,17,16,15.mid,experiment,0
6,28,9489,67,64,0,2,17,16,15.mid,experiment,0
7,30,9788,67,64,0,2,17,16,15.mid,experiment,0
8,32,10061,67,64,0,2,17,16,15.mid,experiment,0
9,35,10720,79,64,0,2,17,16,15.mid,experiment,0
10,37,10984,78,64,0,2,17,16,15.mid,experiment,0
11,40,11480,79,64,0,2,17,16,15.mid,experiment,0
12,41,11571,76,64,0,2,17,16,15.mid,experiment,0
13,43,11895,72,64,0,2,17,16,15.mid,experiment,0
14,45,12142,76,64,0,2,17,16,15.mid,experiment,0
15,47,12351,79,64,0,2,17,16,15.mid,experiment,0
16,49,12693,84,64,0,2,17,16,15.mid,experiment,0
17,50,12918,83,64,0,2,17,16,15.mid,experiment,0
18,52,12984,81,64,0,2,17,16,15.mid,experiment,0
19,54,13263,81,64,0,2,17,16,15.mid,experiment,0
20,56,13549,81,64,0,2,17,16,15.mid,experiment,0
21,59,14218,83,64,0,2,17,16,15.mid,experiment,0
22,61,14482,81,64,0,2,17,16,15.mid,experiment,0
23,63,14881,84,64,0,2,17,16,15.mid,experiment,0
24,65,15029,81,64,0,2,17,16,15.mid,experiment,0
25,67,15248,78,64,0,2,17,16,15.mid,experiment,0
26,68,15466,79,64,0,2,17,16,15.mid,experiment,0
27,70,16056,79,64,0,2,17,16,15.mid,experiment,0
28,72,16788,79,64,0,2,17,16,15.mid,experiment,0
29,74,17416,77,64,0,2,17,16,15.mid,experiment,0
30,76,17697,77,64,0,2,17,16,15.mid,experiment,0
31,78,17978,76,64,0,2,17,16,15.mid,experiment,0
32,80,18267,76,64,0,2,17,16,15.mid,experiment,0
33,82,19096,74,64,0,2,17,16,15.mid,experiment,0
34,84,20253,79,64,0,2,17,16,15.mid,experiment,0
35,86,20670,77,64,0,2,17,16,15.mid,experiment,0
36,88,20909,76,64,0,2,17,16,15.mid,experiment,0
37,90,21219,76,64,0,2,17,16,15.mid,experiment,0
38,92,21480,76,64,0,2,17,16,15.mid,experiment,0
39,94,21771,76,64,0,2,17,16,15.mid,experiment,0
40,97,22371,81,64,0,2,17,16,15.mid,experiment,0
41,99,22724,77,64,0,2,17,16,15.mid,experiment,0
42,101,22948,76,64,0,2,17,16,15.mid,experiment,0
43,103,23230,74,64,0,2,17,16,15.mid,experiment,0
44,105,23525,76,64,0,2,17,16,15.mid,experiment,0
45,107,23980,79,64,0,2,17,16,15.mid,experiment,0
46,109,24008,74,64,0,2,17,16,15.mid,experiment,0
47,111,24286,71,64,0,2,17,16,15.mid,experiment,0
48,112,24334,72,64,0,2,17,16,15.mid,experiment,0
49,114,24606,72,64,0,2,17,16,15.mid,experiment,0
50,116,24847,74,64,0,2,17,16,15.mid,experiment,0
51,118,25157,74,64,0,2,17,16,15.mid,experiment,0
52,120,26012,76,64,0,2,17,16,15.mid,experiment,0
53,122,26652,65,64,0,2,17,16,15.mid,experiment,0
54,124,26932,65,64,0,2,17,16,15.mid,experiment,0
55,126,27218,64,64,0,2,17,16,15.mid,experiment,0
56,128,27512,64,64,0,2,17,16,15.mid,experiment,0
57,130,28321,62,64,0,2,17,16,15.mid,experiment,0
58,132,29007,67,64,0,2,17,16,15.mid,experiment,0
59,134,29286,67,64,0,2,17,16,15.mid,experiment,0
60,136,29576,71,64,0,2,17,16,15.mid,experiment,0
61,138,29867,71,64,0,2,17,16,15.mid,experiment,0
62,140,30152,72,64,0,2,17,16,15.mid,experiment,0
63,142,30428,72,64,0,2,17,16,15.mid,experiment,0
64,144,30727,73,64,0,2,17,16,15.mid,experiment,0
65,146,31011,73,64,0,2,17,16,15.mid,experiment,0
66,149,31850,74,64,0,2,17,16,15.mid,experiment,0
67,151,32421,77,64,0,2,17,16,15.mid,experiment,0
68,153,32968,76,64,0,2,17,16,15.mid,experiment,0
69,155,33496,74,64,0,2,17,16,15.mid,experiment,0
70,157,34110,72,64,0,2,17,16,15.mid,experiment,0
71,158,34606,84,64,0,2,17,16,15.mid,experiment,0
72,160,35459,84,64,0,2,17,16,15.mid,experiment,0
1,19,8227,79,64,0,2,18,2,3.mid,experiment,0
2,21,8499,78,64,0,2,18,2,3.mid,experiment,0
3,23,8776,79,64,0,2,18,2,3.mid,experiment,0
4,25,9015,76,64,0,2,18,2,3.mid,experiment,0
5,26,9070,72,64,0,2,18,2,3.mid,experiment,0
6,28,9328,67,64,0,2,18,2,3.mid,experiment,0
7,30,9618,67,64,0,2,18,2,3.mid,experiment,0
8,32,9885,67,64,0,2,18,2,3.mid,experiment,0
9,35,10458,79,64,0,2,18,2,3.mid,experiment,0
10,37,10715,78,64,0,2,18,2,3.mid,experiment,0
11,39,11009,79,64,0,2,18,2,3.mid,experiment,0
12,41,11242,76,64,0,2,18,2,3.mid,experiment,0
13,43,11635,72,64,0,2,18,2,3.mid,experiment,0
14,45,11848,76,64,0,2,18,2,3.mid,experiment,0
15,47,12063,79,64,0,2,18,2,3.mid,experiment,0
16,49,12402,84,64,0,2,18,2,3.mid,experiment,0
17,50,12509,83,64,0,2,18,2,3.mid,experiment,0
18,52,12612,81,64,0,2,18,2,3.mid,experiment,0
19,54,12928,81,64,0,2,18,2,3.mid,experiment,0
20,56,13180,81,64,0,2,18,2,3.mid,experiment,0
21,59,13700,83,64,0,2,18,2,3.mid,experiment,0
22,61,13961,81,64,0,2,18,2,3.mid,experiment,0
23,63,14185,84,64,0,2,18,2,3.mid,experiment,0
24,65,14479,81,64,0,2,18,2,3.mid,experiment,0
25,67,14770,78,64,0,2,18,2,3.mid,experiment,0
26,68,14827,79,64,0,2,18,2,3.mid,experiment,0
27,70,15418,79,64,0,2,18,2,3.mid,experiment,0
28,72,16196,79,64,0,2,18,2,3.mid,experiment,0
29,74,16624,77,64,0,2,18,2,3.mid,experiment,0
30,76,16887,77,64,0,2,18,2,3.mid,experiment,0
31,78,17204,76,64,0,2,18,2,3.mid,experiment,0
32,80,17472,76,64,0,2,18,2,3.mid,experiment,0
33,82,18222,74,64,0,2,18,2,3.mid,experiment,0
34,84,19148,79,64,0,2,18,2,3.mid,experiment,0
35,86,19597,77,64,0,2,18,2,3.mid,experiment,0
36,88,20000,76,64,0,2,18,2,3.mid,experiment,0
37,90,20264,76,64,0,2,18,2,3.mid,experiment,0
38,92,20492,76,64,0,2,18,2,3.mid,experiment,0
39,94,20756,76,64,0,2,18,2,3.mid,experiment,0
40,97,21303,81,64,0,2,18,2,3.mid,experiment,0
41,99,21551,77,64,0,2,18,2,3.mid,experiment,0
42,101,21785,76,64,0,2,18,2,3.mid,experiment,0
43,103,22087,74,64,0,2,18,2,3.mid,experiment,0
44,105,22302,76,64,0,2,18,2,3.mid,experiment,0
45,107,22613,79,64,0,2,18,2,3.mid,experiment,0
46,109,22800,74,64,0,2,18,2,3.mid,experiment,0
47,110,22967,71,64,0,2,18,2,3.mid,experiment,0
48,112,23118,72,64,0,2,18,2,3.mid,experiment,0
49,114,23373,72,64,0,2,18,2,3.mid,experiment,0
50,116,23647,74,64,0,2,18,2,3.mid,experiment,0
51,118,23905,74,64,0,2,18,2,3.mid,experiment,0
52,120,24651,76,64,0,2,18,2,3.mid,experiment,0
53,122,25245,65,64,0,2,18,2,3.mid,experiment,0
54,124,25475,65,64,0,2,18,2,3.mid,experiment,0
55,126,25779,64,64,0,2,18,2,3.mid,experiment,0
56,128,26059,64,64,0,2,18,2,3.mid,experiment,0
57,130,26830,62,64,0,2,18,2,3.mid,experiment,0
58,132,27391,67,64,0,2,18,2,3.mid,experiment,0
59,134,27674,67,64,0,2,18,2,3.mid,experiment,0
60,136,27917,71,64,0,2,18,2,3.mid,experiment,0
61,138,28185,71,64,0,2,18,2,3.mid,experiment,0
62,140,28416,72,64,0,2,18,2,3.mid,experiment,0
63,142,28710,72,64,0,2,18,2,3.mid,experiment,0
64,144,28931,73,64,0,2,18,2,3.mid,experiment,0
65,146,29214,73,64,0,2,18,2,3.mid,experiment,0
66,148,29927,74,64,0,2,18,2,3.mid,experiment,0
67,150,30529,77,64,0,2,18,2,3.mid,experiment,0
68,152,31127,76,64,0,2,18,2,3.mid,experiment,0
69,154,31630,74,64,0,2,18,2,3.mid,experiment,0
70,156,32186,72,64,0,2,18,2,3.mid,experiment,0
71,158,32745,84,64,0,2,18,2,3.mid,experiment,0
72,160,33729,84,64,0,2,18,2,3.mid,experiment,0
1,19,8180,79,64,0,2,18,3,2.mid,experiment,0
2,21,8445,78,64,0,2,18,3,2.mid,experiment,0
3,23,8710,79,64,0,2,18,3,2.mid,experiment,0
4,25,8975,76,64,0,2,18,3,2.mid,experiment,0
5,26,9003,72,64,0,2,18,3,2.mid,experiment,0
6,28,9287,67,64,0,2,18,3,2.mid,experiment,0
7,30,9552,67,64,0,2,18,3,2.mid,experiment,0
8,32,9818,67,64,0,2,18,3,2.mid,experiment,0
9,35,10390,79,64,0,2,18,3,2.mid,experiment,0
10,37,10645,78,64,0,2,18,3,2.mid,experiment,0
11,39,10951,79,64,0,2,18,3,2.mid,experiment,0
12,40,11182,76,64,0,2,18,3,2.mid,experiment,0
13,43,11536,72,64,0,2,18,3,2.mid,experiment,0
14,45,11769,76,64,0,2,18,3,2.mid,experiment,0
15,47,11974,79,64,0,2,18,3,2.mid,experiment,0
16,49,12341,84,64,0,2,18,3,2.mid,experiment,0
17,51,12558,83,64,0,2,18,3,2.mid,experiment,0
18,52,12586,81,64,0,2,18,3,2.mid,experiment,0
19,54,12857,81,64,0,2,18,3,2.mid,experiment,0
20,56,13092,81,64,0,2,18,3,2.mid,experiment,0
21,59,13616,83,64,0,2,18,3,2.mid,experiment,0
22,61,13885,81,64,0,2,18,3,2.mid,experiment,0
23,63,14160,84,64,0,2,18,3,2.mid,experiment,0
24,65,14429,81,64,0,2,18,3,2.mid,experiment,0
25,67,14706,78,64,0,2,18,3,2.mid,experiment,0
26,68,14760,79,64,0,2,18,3,2.mid,experiment,0
27,70,15396,79,64,0,2,18,3,2.mid,experiment,0
28,72,16252,79,64,0,2,18,3,2.mid,experiment,0
29,74,16681,77,64,0,2,18,3,2.mid,experiment,0
30,76,16945,77,64,0,2,18,3,2.mid,experiment,0
31,78,17247,76,64,0,2,18,3,2.mid,experiment,0
32,80,17517,76,64,0,2,18,3,2.mid,experiment,0
33,82,18381,74,64,0,2,18,3,2.mid,experiment,0
34,84,19278,79,64,0,2,18,3,2.mid,experiment,0
35,86,19738,77,64,0,2,18,3,2.mid,experiment,0
36,88,20076,76,64,0,2,18,3,2.mid,experiment,0
37,90,20319,76,64,0,2,18,3,2.mid,experiment,0
38,92,20579,76,64,0,2,18,3,2.mid,experiment,0
39,94,20875,76,64,0,2,18,3,2.mid,experiment,0
40,97,21401,81,64,0,2,18,3,2.mid,experiment,0
41,99,21645,77,64,0,2,18,3,2.mid,experiment,0
42,101,21885,76,64,0,2,18,3,2.mid,experiment,0
43,103,22179,74,64,0,2,18,3,2.mid,experiment,0
44,105,22385,76,64,0,2,18,3,2.mid,experiment,0
45,107,22691,79,64,0,2,18,3,2.mid,experiment,0
46,109,22893,74,64,0,2,18,3,2.mid,experiment,0
47,111,23163,71,64,0,2,18,3,2.mid,experiment,0
48,112,23227,72,64,0,2,18,3,2.mid,experiment,0
49,114,23483,72,64,0,2,18,3,2.mid,experiment,0
50,116,23718,74,64,0,2,18,3,2.mid,experiment,0
51,118,23979,74,64,0,2,18,3,2.mid,experiment,0
52,120,24817,76,64,0,2,18,3,2.mid,experiment,0
53,122,25348,65,64,0,2,18,3,2.mid,experiment,0
54,124,25609,65,64,0,2,18,3,2.mid,experiment,0
55,126,25887,64,64,0,2,18,3,2.mid,experiment,0
56,128,26129,64,64,0,2,18,3,2.mid,experiment,0
57,130,27020,62,64,0,2,18,3,2.mid,experiment,0
58,132,27530,67,64,0,2,18,3,2.mid,experiment,0
59,134,27808,67,64,0,2,18,3,2.mid,experiment,0
60,136,28061,71,64,0,2,18,3,2.mid,experiment,0
61,138,28330,71,64,0,2,18,3,2.mid,experiment,0
62,140,28595,72,64,0,2,18,3,2.mid,experiment,0
63,142,28849,72,64,0,2,18,3,2.mid,experiment,0
64,144,29121,73,64,0,2,18,3,2.mid,experiment,0
65,146,29376,73,64,0,2,18,3,2.mid,experiment,0
66,148,30132,74,64,0,2,18,3,2.mid,experiment,0
67,150,30637,77,64,0,2,18,3,2.mid,experiment,0
68,152,31205,76,64,0,2,18,3,2.mid,experiment,0
69,154,31741,74,64,0,2,18,3,2.mid,experiment,0
70,156,32339,72,64,0,2,18,3,2.mid,experiment,0
71,158,32882,84,64,0,2,18,3,2.mid,experiment,0
72,160,33882,84,64,0,2,18,3,2.mid,experiment,0
1,19,8181,79,64,0,2,18,4,16.mid,experiment,0
2,21,8454,78,64,0,2,18,4,16.mid,experiment,0
3,23,8742,79,64,0,2,18,4,16.mid,experiment,0
4,25,8996,76,64,0,2,18,4,16.mid,experiment,0
5,26,9061,72,64,0,2,18,4,16.mid,experiment,0
6,28,9301,67,64,0,2,18,4,16.mid,experiment,0
7,30,9573,67,64,0,2,18,4,16.mid,experiment,0
8,32,9824,67,64,0,2,18,4,16.mid,experiment,0
9,35,10380,79,64,0,2,18,4,16.mid,experiment,0
10,37,10623,78,64,0,2,18,4,16.mid,experiment,0
11,39,10915,79,64,0,2,18,4,16.mid,experiment,0
12,41,11142,76,64,0,2,18,4,16.mid,experiment,0
13,43,11505,72,64,0,2,18,4,16.mid,experiment,0
14,45,11754,76,64,0,2,18,4,16.mid,experiment,0
15,47,11963,79,64,0,2,18,4,16.mid,experiment,0
16,49,12281,84,64,0,2,18,4,16.mid,experiment,0
17,50,12316,83,64,0,2,18,4,16.mid,experiment,0
18,52,12538,81,64,0,2,18,4,16.mid,experiment,0
19,54,12798,81,64,0,2,18,4,16.mid,experiment,0
20,56,13070,81,64,0,2,18,4,16.mid,experiment,0
21,59,13611,83,64,0,2,18,4,16.mid,experiment,0
22,61,13858,81,64,0,2,18,4,16.mid,experiment,0
23,63,14104,84,64,0,2,18,4,16.mid,experiment,0
24,64,14338,81,64,0,2,18,4,16.mid,experiment,0
25,67,14625,78,64,0,2,18,4,16.mid,experiment,0
26,68,14728,79,64,0,2,18,4,16.mid,experiment,0
27,70,15325,79,64,0,2,18,4,16.mid,experiment,0
28,72,16235,79,64,0,2,18,4,16.mid,experiment,0
29,74,16686,77,64,0,2,18,4,16.mid,experiment,0
30,76,16962,77,64,0,2,18,4,16.mid,experiment,0
31,78,17250,76,64,0,2,18,4,16.mid,experiment,0
32,80,17545,76,64,0,2,18,4,16.mid,experiment,0
33,82,18390,74,64,0,2,18,4,16.mid,experiment,0
34,84,19196,79,64,0,2,18,4,16.mid,experiment,0
35,86,19699,77,64,0,2,18,4,16.mid,experiment,0
36,88,20042,76,64,0,2,18,4,16.mid,experiment,0
37,90,20299,76,64,0,2,18,4,16.mid,experiment,0
38,92,20552,76,64,0,2,18,4,16.mid,experiment,0
39,94,20829,76,64,0,2,18,4,16.mid,experiment,0
40,97,21338,81,64,0,2,18,4,16.mid,experiment,0
41,99,21595,77,64,0,2,18,4,16.mid,experiment,0
42,101,21837,76,64,0,2,18,4,16.mid,experiment,0
43,103,22151,74,64,0,2,18,4,16.mid,experiment,0
44,105,22365,76,64,0,2,18,4,16.mid,experiment,0
45,107,22648,79,64,0,2,18,4,16.mid,experiment,0
46,109,22852,74,64,0,2,18,4,16.mid,experiment,0
47,111,23124,71,64,0,2,18,4,16.mid,experiment,0
48,112,23149,72,64,0,2,18,4,16.mid,experiment,0
49,114,23402,72,64,0,2,18,4,16.mid,experiment,0
50,116,23668,74,64,0,2,18,4,16.mid,experiment,0
51,118,23934,74,64,0,2,18,4,16.mid,experiment,0
52,120,24707,76,64,0,2,18,4,16.mid,experiment,0
53,122,25258,65,64,0,2,18,4,16.mid,experiment,0
54,124,25521,65,64,0,2,18,4,16.mid,experiment,0
55,126,25815,64,64,0,2,18,4,16.mid,experiment,0
56,128,26077,64,64,0,2,18,4,16.mid,experiment,0
57,130,26924,62,64,0,2,18,4,16.mid,experiment,0
58,132,27485,67,64,0,2,18,4,16.mid,experiment,0
59,134,27746,67,64,0,2,18,4,16.mid,experiment,0
60,136,28023,71,64,0,2,18,4,16.mid,experiment,0
61,138,28310,71,64,0,2,18,4,16.mid,experiment,0
62,140,28560,72,64,0,2,18,4,16.mid,experiment,0
63,142,28807,72,64,0,2,18,4,16.mid,experiment,0
64,144,29039,73,64,0,2,18,4,16.mid,experiment,0
65,146,29309,73,64,0,2,18,4,16.mid,experiment,0
66,148,30002,74,64,0,2,18,4,16.mid,experiment,0
67,150,30524,77,64,0,2,18,4,16.mid,experiment,0
68,152,31066,76,64,0,2,18,4,16.mid,experiment,0
69,154,31570,74,64,0,2,18,4,16.mid,experiment,0
70,156,32116,72,64,0,2,18,4,16.mid,experiment,0
71,158,32767,84,64,0,2,18,4,16.mid,experiment,0
72,160,33676,84,64,0,2,18,4,16.mid,experiment,0
1,19,8176,79,64,0,2,18,6,6.mid,experiment,0
2,21,8434,78,64,0,2,18,6,6.mid,experiment,0
3,23,8710,79,64,0,2,18,6,6.mid,experiment,0
4,25,8949,76,64,0,2,18,6,6.mid,experiment,0
5,26,9009,72,64,0,2,18,6,6.mid,experiment,0
6,28,9256,67,64,0,2,18,6,6.mid,experiment,0
7,30,9522,67,64,0,2,18,6,6.mid,experiment,0
8,32,9789,67,64,0,2,18,6,6.mid,experiment,0
9,35,10335,79,64,0,2,18,6,6.mid,experiment,0
10,37,10599,78,64,0,2,18,6,6.mid,experiment,0
11,39,10882,79,64,0,2,18,6,6.mid,experiment,0
12,41,11118,76,64,0,2,18,6,6.mid,experiment,0
13,43,11447,72,64,0,2,18,6,6.mid,experiment,0
14,45,11694,76,64,0,2,18,6,6.mid,experiment,0
15,47,11932,79,64,0,2,18,6,6.mid,experiment,0
16,49,12224,84,64,0,2,18,6,6.mid,experiment,0
17,50,12254,83,64,0,2,18,6,6.mid,experiment,0
18,52,12480,81,64,0,2,18,6,6.mid,experiment,0
19,54,12761,81,64,0,2,18,6,6.mid,experiment,0
20,56,12999,81,64,0,2,18,6,6.mid,experiment,0
21,59,13532,83,64,0,2,18,6,6.mid,experiment,0
22,61,13819,81,64,0,2,18,6,6.mid,experiment,0
23,63,14044,84,64,0,2,18,6,6.mid,experiment,0
24,64,14274,81,64,0,2,18,6,6.mid,experiment,0
25,67,14585,78,64,0,2,18,6,6.mid,experiment,0
26,68,14652,79,64,0,2,18,6,6.mid,experiment,0
27,70,15179,79,64,0,2,18,6,6.mid,experiment,0
28,72,16077,79,64,0,2,18,6,6.mid,experiment,0
29,74,16575,77,64,0,2,18,6,6.mid,experiment,0
30,76,16855,77,64,0,2,18,6,6.mid,experiment,0
31,78,17135,76,64,0,2,18,6,6.mid,experiment,0
32,80,17387,76,64,0,2,18,6,6.mid,experiment,0
33,82,18224,74,64,0,2,18,6,6.mid,experiment,0
34,84,19160,79,64,0,2,18,6,6.mid,experiment,0
35,86,19637,77,64,0,2,18,6,6.mid,experiment,0
36,88,19961,76,64,0,2,18,6,6.mid,experiment,0
37,90,20221,76,64,0,2,18,6,6.mid,experiment,0
38,92,20470,76,64,0,2,18,6,6.mid,experiment,0
39,94,20761,76,64,0,2,18,6,6.mid,experiment,0
40,97,21253,81,64,0,2,18,6,6.mid,experiment,0
41,99,21496,77,64,0,2,18,6,6.mid,experiment,0
42,101,21740,76,64,0,2,18,6,6.mid,experiment,0
43,103,22049,74,64,0,2,18,6,6.mid,experiment,0
44,105,22292,76,64,0,2,18,6,6.mid,experiment,0
45,107,22552,79,64,0,2,18,6,6.mid,experiment,0
46,109,22765,74,64,0,2,18,6,6.mid,experiment,0
47,111,23029,71,64,0,2,18,6,6.mid,experiment,0
48,112,23064,72,64,0,2,18,6,6.mid,experiment,0
49,114,23304,72,64,0,2,18,6,6.mid,experiment,0
50,116,23572,74,64,0,2,18,6,6.mid,experiment,0
51,118,23844,74,64,0,2,18,6,6.mid,experiment,0
52,120,24640,76,64,0,2,18,6,6.mid,experiment,0
53,122,25130,65,64,0,2,18,6,6.mid,experiment,0
54,124,25387,65,64,0,2,18,6,6.mid,experiment,0
55,126,25672,64,64,0,2,18,6,6.mid,experiment,0
56,128,25936,64,64,0,2,18,6,6.mid,experiment,0
57,130,26810,62,64,0,2,18,6,6.mid,experiment,0
58,132,27295,67,64,0,2,18,6,6.mid,experiment,0
59,134,27582,67,64,0,2,18,6,6.mid,experiment,0
60,136,27820,71,64,0,2,18,6,6.mid,experiment,0
61,138,28127,71,64,0,2,18,6,6.mid,experiment,0
62,140,28354,72,64,0,2,18,6,6.mid,experiment,0
63,142,28643,72,64,0,2,18,6,6.mid,experiment,0
64,144,28892,73,64,0,2,18,6,6.mid,experiment,0
65,146,29185,73,64,0,2,18,6,6.mid,experiment,0
66,148,29807,74,64,0,2,18,6,6.mid,experiment,0
67,150,30394,77,64,0,2,18,6,6.mid,experiment,0
68,152,30938,76,64,0,2,18,6,6.mid,experiment,0
69,154,31455,74,64,0,2,18,6,6.mid,experiment,0
70,156,32019,72,64,0,2,18,6,6.mid,experiment,0
71,158,32585,84,64,0,2,18,6,6.mid,experiment,0
72,160,33499,84,64,0,2,18,6,6.mid,experiment,0
1,19,8170,79,64,0,2,18,7,4.mid,experiment,0
2,21,8439,78,64,0,2,18,7,4.mid,experiment,0
3,23,8721,79,64,0,2,18,7,4.mid,experiment,0
4,25,8957,76,64,0,2,18,7,4.mid,experiment,0
5,26,9013,72,64,0,2,18,7,4.mid,experiment,0
6,28,9273,67,64,0,2,18,7,4.mid,experiment,0
7,30,9537,67,64,0,2,18,7,4.mid,experiment,0
8,32,9797,67,64,0,2,18,7,4.mid,experiment,0
9,35,10341,79,64,0,2,18,7,4.mid,experiment,0
10,37,10580,78,64,0,2,18,7,4.mid,experiment,0
11,39,10877,79,64,0,2,18,7,4.mid,experiment,0
12,41,11086,76,64,0,2,18,7,4.mid,experiment,0
13,43,11429,72,64,0,2,18,7,4.mid,experiment,0
14,45,11675,76,64,0,2,18,7,4.mid,experiment,0
15,47,11892,79,64,0,2,18,7,4.mid,experiment,0
16,49,12235,84,64,0,2,18,7,4.mid,experiment,0
17,51,12418,83,64,0,2,18,7,4.mid,experiment,0
18,52,12461,81,64,0,2,18,7,4.mid,experiment,0
19,54,12717,81,64,0,2,18,7,4.mid,experiment,0
20,56,12993,81,64,0,2,18,7,4.mid,experiment,0
21,59,13523,83,64,0,2,18,7,4.mid,experiment,0
22,61,13785,81,64,0,2,18,7,4.mid,experiment,0
23,63,14003,84,64,0,2,18,7,4.mid,experiment,0
24,64,14233,81,64,0,2,18,7,4.mid,experiment,0
25,67,14547,78,64,0,2,18,7,4.mid,experiment,0
26,68,14645,79,64,0,2,18,7,4.mid,experiment,0
27,70,15257,79,64,0,2,18,7,4.mid,experiment,0
28,72,16055,79,64,0,2,18,7,4.mid,experiment,0
29,74,16471,77,64,0,2,18,7,4.mid,experiment,0
30,76,16749,77,64,0,2,18,7,4.mid,experiment,0
31,78,17032,76,64,0,2,18,7,4.mid,experiment,0
32,80,17305,76,64,0,2,18,7,4.mid,experiment,0
33,82,18135,74,64,0,2,18,7,4.mid,experiment,0
34,84,19086,79,64,0,2,18,7,4.mid,experiment,0
35,86,19567,77,64,0,2,18,7,4.mid,experiment,0
36,88,19849,76,64,0,2,18,7,4.mid,experiment,0
37,90,20093,76,64,0,2,18,7,4.mid,experiment,0
38,92,20343,76,64,0,2,18,7,4.mid,experiment,0
39,94,20624,76,64,0,2,18,7,4.mid,experiment,0
40,97,21108,81,64,0,2,18,7,4.mid,experiment,0
41,99,21352,77,64,0,2,18,7,4.mid,experiment,0
42,101,21618,76,64,0,2,18,7,4.mid,experiment,0
43,103,21916,74,64,0,2,18,7,4.mid,experiment,0
44,105,22131,76,64,0,2,18,7,4.mid,experiment,0
45,107,22391,79,64,0,2,18,7,4.mid,experiment,0
46,109,22601,74,64,0,2,18,7,4.mid,experiment,0
47,111,22859,71,64,0,2,18,7,4.mid,experiment,0
48,112,22904,72,64,0,2,18,7,4.mid,experiment,0
49,114,23147,72,64,0,2,18,7,4.mid,experiment,0
50,116,23427,74,64,0,2,18,7,4.mid,experiment,0
51,118,23687,74,64,0,2,18,7,4.mid,experiment,0
52,120,24485,76,64,0,2,18,7,4.mid,experiment,0
53,122,24973,65,64,0,2,18,7,4.mid,experiment,0
54,124,25199,65,64,0,2,18,7,4.mid,experiment,0
55,126,25499,64,64,0,2,18,7,4.mid,experiment,0
56,128,25733,64,64,0,2,18,7,4.mid,experiment,0
57,130,26611,62,64,0,2,18,7,4.mid,experiment,0
58,132,27106,67,64,0,2,18,7,4.mid,experiment,0
59,134,27400,67,64,0,2,18,7,4.mid,experiment,0
60,136,27617,71,64,0,2,18,7,4.mid,experiment,0
61,138,27879,71,64,0,2,18,7,4.mid,experiment,0
62,140,28118,72,64,0,2,18,7,4.mid,experiment,0
63,142,28375,72,64,0,2,18,7,4.mid,experiment,0
64,144,28653,73,64,0,2,18,7,4.mid,experiment,0
65,146,28881,73,64,0,2,18,7,4.mid,experiment,0
66,148,29579,74,64,0,2,18,7,4.mid,experiment,0
67,150,30090,77,64,0,2,18,7,4.mid,experiment,0
68,152,30679,76,64,0,2,18,7,4.mid,experiment,0
69,154,31196,74,64,0,2,18,7,4.mid,experiment,0
70,156,31787,72,64,0,2,18,7,4.mid,experiment,0
71,158,32314,84,64,0,2,18,7,4.mid,experiment,0
72,160,33237,84,64,0,2,18,7,4.mid,experiment,0
1,19,8177,79,64,0,2,18,8,9.mid,experiment,0
2,21,8447,78,64,0,2,18,8,9.mid,experiment,0
3,23,8693,79,64,0,2,18,8,9.mid,experiment,0
4,25,8962,76,64,0,2,18,8,9.mid,experiment,0
5,26,9021,72,64,0,2,18,8,9.mid,experiment,0
6,28,9271,67,64,0,2,18,8,9.mid,experiment,0
7,30,9529,67,64,0,2,18,8,9.mid,experiment,0
8,32,9795,67,64,0,2,18,8,9.mid,experiment,0
9,35,10327,79,64,0,2,18,8,9.mid,experiment,0
10,37,10577,78,64,0,2,18,8,9.mid,experiment,0
11,39,10853,79,64,0,2,18,8,9.mid,experiment,0
12,40,11089,76,64,0,2,18,8,9.mid,experiment,0
13,43,11439,72,64,0,2,18,8,9.mid,experiment,0
14,45,11693,76,64,0,2,18,8,9.mid,experiment,0
15,47,11899,79,64,0,2,18,8,9.mid,experiment,0
16,49,12223,84,64,0,2,18,8,9.mid,experiment,0
17,51,12436,83,64,0,2,18,8,9.mid,experiment,0
18,52,12487,81,64,0,2,18,8,9.mid,experiment,0
19,54,12716,81,64,0,2,18,8,9.mid,experiment,0
20,56,12981,81,64,0,2,18,8,9.mid,experiment,0
21,59,13535,83,64,0,2,18,8,9.mid,experiment,0
22,61,13783,81,64,0,2,18,8,9.mid,experiment,0
23,63,14012,84,64,0,2,18,8,9.mid,experiment,0
24,64,14231,81,64,0,2,18,8,9.mid,experiment,0
25,67,14568,78,64,0,2,18,8,9.mid,experiment,0
26,68,14689,79,64,0,2,18,8,9.mid,experiment,0
27,70,15211,79,64,0,2,18,8,9.mid,experiment,0
28,72,16033,79,64,0,2,18,8,9.mid,experiment,0
29,74,16503,77,64,0,2,18,8,9.mid,experiment,0
30,76,16750,77,64,0,2,18,8,9.mid,experiment,0
31,78,17039,76,64,0,2,18,8,9.mid,experiment,0
32,80,17283,76,64,0,2,18,8,9.mid,experiment,0
33,82,18179,74,64,0,2,18,8,9.mid,experiment,0
34,84,19085,79,64,0,2,18,8,9.mid,experiment,0
35,86,19569,77,64,0,2,18,8,9.mid,experiment,0
36,88,19895,76,64,0,2,18,8,9.mid,experiment,0
37,90,20139,76,64,0,2,18,8,9.mid,experiment,0
38,92,20393,76,64,0,2,18,8,9.mid,experiment,0
39,94,20635,76,64,0,2,18,8,9.mid,experiment,0
40,97,21151,81,64,0,2,18,8,9.mid,experiment,0
41,99,21377,77,64,0,2,18,8,9.mid,experiment,0
42,101,21607,76,64,0,2,18,8,9.mid,experiment,0
43,103,21917,74,64,0,2,18,8,9.mid,experiment,0
44,105,22123,76,64,0,2,18,8,9.mid,experiment,0
45,107,22436,79,64,0,2,18,8,9.mid,experiment,0
46,109,22649,74,64,0,2,18,8,9.mid,experiment,0
47,111,22909,71,64,0,2,18,8,9.mid,experiment,0
48,112,22953,72,64,0,2,18,8,9.mid,experiment,0
49,114,23223,72,64,0,2,18,8,9.mid,experiment,0
50,116,23483,74,64,0,2,18,8,9.mid,experiment,0
51,118,23740,74,64,0,2,18,8,9.mid,experiment,0
52,120,24485,76,64,0,2,18,8,9.mid,experiment,0
53,122,25033,65,64,0,2,18,8,9.mid,experiment,0
54,124,25296,65,64,0,2,18,8,9.mid,experiment,0
55,126,25565,64,64,0,2,18,8,9.mid,experiment,0
56,128,25837,64,64,0,2,18,8,9.mid,experiment,0
57,130,26713,62,64,0,2,18,8,9.mid,experiment,0
58,132,27243,67,64,0,2,18,8,9.mid,experiment,0
59,134,27505,67,64,0,2,18,8,9.mid,experiment,0
60,136,27783,71,64,0,2,18,8,9.mid,experiment,0
61,138,28047,71,64,0,2,18,8,9.mid,experiment,0
62,140,28296,72,64,0,2,18,8,9.mid,experiment,0
63,142,28561,72,64,0,2,18,8,9.mid,experiment,0
64,144,28795,73,64,0,2,18,8,9.mid,experiment,0
65,146,29052,73,64,0,2,18,8,9.mid,experiment,0
66,148,29779,74,64,0,2,18,8,9.mid,experiment,0
67,150,30303,77,64,0,2,18,8,9.mid,experiment,0
68,152,30847,76,64,0,2,18,8,9.mid,experiment,0
69,154,31423,74,64,0,2,18,8,9.mid,experiment,0
70,156,32040,72,64,0,2,18,8,9.mid,experiment,0
71,158,32555,84,64,0,2,18,8,9.mid,experiment,0
72,160,33441,84,64,0,2,18,8,9.mid,experiment,0
1,19,8162,79,64,0,2,18,10,13.mid,experiment,0
2,21,8447,78,64,0,2,18,10,13.mid,experiment,0
3,23,8709,79,64,0,2,18,10,13.mid,experiment,0
4,25,8952,76,64,0,2,18,10,13.mid,experiment,0
5,26,8981,72,64,0,2,18,10,13.mid,experiment,0
6,28,9269,67,64,0,2,18,10,13.mid,experiment,0
7,30,9541,67,64,0,2,18,10,13.mid,experiment,0
8,32,9791,67,64,0,2,18,10,13.mid,experiment,0
9,35,10352,79,64,0,2,18,10,13.mid,experiment,0
10,37,10588,78,64,0,2,18,10,13.mid,experiment,0
11,39,10903,79,64,0,2,18,10,13.mid,experiment,0
12,41,11118,76,64,0,2,18,10,13.mid,experiment,0
13,43,11460,72,64,0,2,18,10,13.mid,experiment,0
14,45,11720,76,64,0,2,18,10,13.mid,experiment,0
15,47,11934,79,64,0,2,18,10,13.mid,experiment,0
16,49,12236,84,64,0,2,18,10,13.mid,experiment,0
17,50,12276,83,64,0,2,18,10,13.mid,experiment,0
18,52,12486,81,64,0,2,18,10,13.mid,experiment,0
19,54,12743,81,64,0,2,18,10,13.mid,experiment,0
20,56,12998,81,64,0,2,18,10,13.mid,experiment,0
21,59,13569,83,64,0,2,18,10,13.mid,experiment,0
22,61,13807,81,64,0,2,18,10,13.mid,experiment,0
23,63,14039,84,64,0,2,18,10,13.mid,experiment,0
24,65,14295,81,64,0,2,18,10,13.mid,experiment,0
25,66,14371,78,64,0,2,18,10,13.mid,experiment,0
26,68,14620,79,64,0,2,18,10,13.mid,experiment,0
27,70,15175,79,64,0,2,18,10,13.mid,experiment,0
28,72,16021,79,64,0,2,18,10,13.mid,experiment,0
29,74,16453,77,64,0,2,18,10,13.mid,experiment,0
30,76,16725,77,64,0,2,18,10,13.mid,experiment,0
31,78,17027,76,64,0,2,18,10,13.mid,experiment,0
32,80,17279,76,64,0,2,18,10,13.mid,experiment,0
33,82,18117,74,64,0,2,18,10,13.mid,experiment,0
34,84,18977,79,64,0,2,18,10,13.mid,experiment,0
35,86,19458,77,64,0,2,18,10,13.mid,experiment,0
36,88,19811,76,64,0,2,18,10,13.mid,experiment,0
37,90,20068,76,64,0,2,18,10,13.mid,experiment,0
38,92,20315,76,64,0,2,18,10,13.mid,experiment,0
39,94,20562,76,64,0,2,18,10,13.mid,experiment,0
40,97,21105,81,64,0,2,18,10,13.mid,experiment,0
41,99,21352,77,64,0,2,18,10,13.mid,experiment,0
42,101,21595,76,64,0,2,18,10,13.mid,experiment,0
43,103,21923,74,64,0,2,18,10,13.mid,experiment,0
44,105,22135,76,64,0,2,18,10,13.mid,experiment,0
45,107,22412,79,64,0,2,18,10,13.mid,experiment,0
46,109,22605,74,64,0,2,18,10,13.mid,experiment,0
47,111,22860,71,64,0,2,18,10,13.mid,experiment,0
48,112,22891,72,64,0,2,18,10,13.mid,experiment,0
49,114,23173,72,64,0,2,18,10,13.mid,experiment,0
50,116,23431,74,64,0,2,18,10,13.mid,experiment,0
51,118,23700,74,64,0,2,18,10,13.mid,experiment,0
52,120,24485,76,64,0,2,18,10,13.mid,experiment,0
53,122,25010,65,64,0,2,18,10,13.mid,experiment,0
54,124,25286,65,64,0,2,18,10,13.mid,experiment,0
55,126,25533,64,64,0,2,18,10,13.mid,experiment,0
56,128,25795,64,64,0,2,18,10,13.mid,experiment,0
57,130,26677,62,64,0,2,18,10,13.mid,experiment,0
58,132,27175,67,64,0,2,18,10,13.mid,experiment,0
59,134,27446,67,64,0,2,18,10,13.mid,experiment,0
60,136,27692,71,64,0,2,18,10,13.mid,experiment,0
61,138,27963,71,64,0,2,18,10,13.mid,experiment,0
62,140,28217,72,64,0,2,18,10,13.mid,experiment,0
63,142,28479,72,64,0,2,18,10,13.mid,experiment,0
64,144,28758,73,64,0,2,18,10,13.mid,experiment,0
65,146,28990,73,64,0,2,18,10,13.mid,experiment,0
66,149,29819,74,64,0,2,18,10,13.mid,experiment,0
67,150,30252,77,64,0,2,18,10,13.mid,experiment,0
68,152,30808,76,64,0,2,18,10,13.mid,experiment,0
69,154,31346,74,64,0,2,18,10,13.mid,experiment,0
70,156,31939,72,64,0,2,18,10,13.mid,experiment,0
71,158,32474,84,64,0,2,18,10,13.mid,experiment,0
72,160,33355,84,64,0,2,18,10,13.mid,experiment,0
1,19,8174,79,64,0,2,18,13,1.mid,experiment,0
2,21,8444,78,64,0,2,18,13,1.mid,experiment,0
3,23,8708,79,64,0,2,18,13,1.mid,experiment,0
4,25,8952,76,64,0,2,18,13,1.mid,experiment,0
5,26,9000,72,64,0,2,18,13,1.mid,experiment,0
6,28,9238,67,64,0,2,18,13,1.mid,experiment,0
7,30,9522,67,64,0,2,18,13,1.mid,experiment,0
8,32,9766,67,64,0,2,18,13,1.mid,experiment,0
9,35,10336,79,64,0,2,18,13,1.mid,experiment,0
10,37,10588,78,64,0,2,18,13,1.mid,experiment,0
11,39,10890,79,64,0,2,18,13,1.mid,experiment,0
12,41,11140,76,64,0,2,18,13,1.mid,experiment,0
13,43,11490,72,64,0,2,18,13,1.mid,experiment,0
14,45,11756,76,64,0,2,18,13,1.mid,experiment,0
15,47,11982,79,64,0,2,18,13,1.mid,experiment,0
16,49,12264,84,64,0,2,18,13,1.mid,experiment,0
17,50,12318,83,64,0,2,18,13,1.mid,experiment,0
18,52,12529,81,64,0,2,18,13,1.mid,experiment,0
19,54,12786,81,64,0,2,18,13,1.mid,experiment,0
20,56,13024,81,64,0,2,18,13,1.mid,experiment,0
21,59,13640,83,64,0,2,18,13,1.mid,experiment,0
22,61,13858,81,64,0,2,18,13,1.mid,experiment,0
23,63,14124,84,64,0,2,18,13,1.mid,experiment,0
24,65,14360,81,64,0,2,18,13,1.mid,experiment,0
25,66,14422,78,64,0,2,18,13,1.mid,experiment,0
26,68,14714,79,64,0,2,18,13,1.mid,experiment,0
27,70,15330,79,64,0,2,18,13,1.mid,experiment,0
28,72,16392,79,64,0,2,18,13,1.mid,experiment,0
29,74,16724,77,64,0,2,18,13,1.mid,experiment,0
30,76,16992,77,64,0,2,18,13,1.mid,experiment,0
31,78,17294,76,64,0,2,18,13,1.mid,experiment,0
32,80,17550,76,64,0,2,18,13,1.mid,experiment,0
33,82,18390,74,64,0,2,18,13,1.mid,experiment,0
34,84,19373,79,64,0,2,18,13,1.mid,experiment,0
35,86,19871,77,64,0,2,18,13,1.mid,experiment,0
36,88,20130,76,64,0,2,18,13,1.mid,experiment,0
37,90,20352,76,64,0,2,18,13,1.mid,experiment,0
38,92,20610,76,64,0,2,18,13,1.mid,experiment,0
39,94,20869,76,64,0,2,18,13,1.mid,experiment,0
40,97,21392,81,64,0,2,18,13,1.mid,experiment,0
41,99,21631,77,64,0,2,18,13,1.mid,experiment,0
42,101,21866,76,64,0,2,18,13,1.mid,experiment,0
43,103,22176,74,64,0,2,18,13,1.mid,experiment,0
44,105,22412,76,64,0,2,18,13,1.mid,experiment,0
45,107,22702,79,64,0,2,18,13,1.mid,experiment,0
46,109,22920,74,64,0,2,18,13,1.mid,experiment,0
47,111,23161,71,64,0,2,18,13,1.mid,experiment,0
48,112,23195,72,64,0,2,18,13,1.mid,experiment,0
49,114,23472,72,64,0,2,18,13,1.mid,experiment,0
50,116,23703,74,64,0,2,18,13,1.mid,experiment,0
51,118,24024,74,64,0,2,18,13,1.mid,experiment,0
52,120,24800,76,64,0,2,18,13,1.mid,experiment,0
53,122,25302,65,64,0,2,18,13,1.mid,experiment,0
54,124,25546,65,64,0,2,18,13,1.mid,experiment,0
55,126,25806,64,64,0,2,18,13,1.mid,experiment,0
56,128,26060,64,64,0,2,18,13,1.mid,experiment,0
57,130,26916,62,64,0,2,18,13,1.mid,experiment,0
58,132,27464,67,64,0,2,18,13,1.mid,experiment,0
59,134,27730,67,64,0,2,18,13,1.mid,experiment,0
60,136,27988,71,64,0,2,18,13,1.mid,experiment,0
61,138,28250,71,64,0,2,18,13,1.mid,experiment,0
62,140,28514,72,64,0,2,18,13,1.mid,experiment,0
63,142,28824,72,64,0,2,18,13,1.mid,experiment,0
64,144,29084,73,64,0,2,18,13,1.mid,experiment,0
65,146,29328,73,64,0,2,18,13,1.mid,experiment,0
66,148,30070,74,64,0,2,18,13,1.mid,experiment,0
67,150,30626,77,64,0,2,18,13,1.mid,experiment,0
68,152,31176,76,64,0,2,18,13,1.mid,experiment,0
69,154,31758,74,64,0,2,18,13,1.mid,experiment,0
70,156,32236,72,64,0,2,18,13,1.mid,experiment,0
71,158,32744,84,64,0,2,18,13,1.mid,experiment,0
72,160,33700,84,64,0,2,18,13,1.mid,experiment,0
1,19,8159,79,64,0,2,18,14,10.mid,experiment,0
2,21,8438,78,64,0,2,18,14,10.mid,experiment,0
3,23,8712,79,64,0,2,18,14,10.mid,experiment,0
4,25,8960,76,64,0,2,18,14,10.mid,experiment,0
5,26,9000,72,64,0,2,18,14,10.mid,experiment,0
6,28,9250,67,64,0,2,18,14,10.mid,experiment,0
7,30,9526,67,64,0,2,18,14,10.mid,experiment,0
8,32,9780,67,64,0,2,18,14,10.mid,experiment,0
9,35,10331,79,64,0,2,18,14,10.mid,experiment,0
10,37,10620,78,64,0,2,18,14,10.mid,experiment,0
11,39,10946,79,64,0,2,18,14,10.mid,experiment,0
12,41,11182,76,64,0,2,18,14,10.mid,experiment,0
13,43,11508,72,64,0,2,18,14,10.mid,experiment,0
14,45,11755,76,64,0,2,18,14,10.mid,experiment,0
15,47,11960,79,64,0,2,18,14,10.mid,experiment,0
16,49,12246,84,64,0,2,18,14,10.mid,experiment,0
17,50,12294,83,64,0,2,18,14,10.mid,experiment,0
18,52,12518,81,64,0,2,18,14,10.mid,experiment,0
19,54,12759,81,64,0,2,18,14,10.mid,experiment,0
20,56,13020,81,64,0,2,18,14,10.mid,experiment,0
21,59,13632,83,64,0,2,18,14,10.mid,experiment,0
22,61,13846,81,64,0,2,18,14,10.mid,experiment,0
23,63,14092,84,64,0,2,18,14,10.mid,experiment,0
24,65,14358,81,64,0,2,18,14,10.mid,experiment,0
25,66,14546,78,64,0,2,18,14,10.mid,experiment,0
26,68,14731,79,64,0,2,18,14,10.mid,experiment,0
27,70,15344,79,64,0,2,18,14,10.mid,experiment,0
28,72,16154,79,64,0,2,18,14,10.mid,experiment,0
29,74,16624,77,64,0,2,18,14,10.mid,experiment,0
30,76,16884,77,64,0,2,18,14,10.mid,experiment,0
31,78,17176,76,64,0,2,18,14,10.mid,experiment,0
32,80,17442,76,64,0,2,18,14,10.mid,experiment,0
33,82,18274,74,64,0,2,18,14,10.mid,experiment,0
34,84,19198,79,64,0,2,18,14,10.mid,experiment,0
35,86,19718,77,64,0,2,18,14,10.mid,experiment,0
36,88,19996,76,64,0,2,18,14,10.mid,experiment,0
37,90,20274,76,64,0,2,18,14,10.mid,experiment,0
38,92,20510,76,64,0,2,18,14,10.mid,experiment,0
39,94,20782,76,64,0,2,18,14,10.mid,experiment,0
40,97,21339,81,64,0,2,18,14,10.mid,experiment,0
41,99,21572,77,64,0,2,18,14,10.mid,experiment,0
42,101,21817,76,64,0,2,18,14,10.mid,experiment,0
43,103,22156,74,64,0,2,18,14,10.mid,experiment,0
44,105,22382,76,64,0,2,18,14,10.mid,experiment,0
45,107,22661,79,64,0,2,18,14,10.mid,experiment,0
46,109,22858,74,64,0,2,18,14,10.mid,experiment,0
47,110,23116,71,64,0,2,18,14,10.mid,experiment,0
48,112,23174,72,64,0,2,18,14,10.mid,experiment,0
49,114,23424,72,64,0,2,18,14,10.mid,experiment,0
50,116,23698,74,64,0,2,18,14,10.mid,experiment,0
51,118,23960,74,64,0,2,18,14,10.mid,experiment,0
52,120,24769,76,64,0,2,18,14,10.mid,experiment,0
53,122,25313,65,64,0,2,18,14,10.mid,experiment,0
54,124,25584,65,64,0,2,18,14,10.mid,experiment,0
55,126,25854,64,64,0,2,18,14,10.mid,experiment,0
56,128,26128,64,64,0,2,18,14,10.mid,experiment,0
57,130,26946,62,64,0,2,18,14,10.mid,experiment,0
58,132,27484,67,64,0,2,18,14,10.mid,experiment,0
59,134,27734,67,64,0,2,18,14,10.mid,experiment,0
60,136,28008,71,64,0,2,18,14,10.mid,experiment,0
61,138,28290,71,64,0,2,18,14,10.mid,experiment,0
62,140,28540,72,64,0,2,18,14,10.mid,experiment,0
63,142,28812,72,64,0,2,18,14,10.mid,experiment,0
64,144,29076,73,64,0,2,18,14,10.mid,experiment,0
65,146,29296,73,64,0,2,18,14,10.mid,experiment,0
66,149,30148,74,64,0,2,18,14,10.mid,experiment,0
67,151,30720,77,64,0,2,18,14,10.mid,experiment,0
68,152,31181,76,64,0,2,18,14,10.mid,experiment,0
69,154,31714,74,64,0,2,18,14,10.mid,experiment,0
70,156,32318,72,64,0,2,18,14,10.mid,experiment,0
71,158,32820,84,64,0,2,18,14,10.mid,experiment,0
72,160,33672,84,64,0,2,18,14,10.mid,experiment,0
1,19,9476,79,64,0,2,19,1,9.mid,experiment,0
2,21,9755,78,64,0,2,19,1,9.mid,experiment,0
3,23,10001,79,64,0,2,19,1,9.mid,experiment,0
4,25,10305,76,64,0,2,19,1,9.mid,experiment,0
5,26,10414,72,64,0,2,19,1,9.mid,experiment,0
6,28,10894,67,64,0,2,19,1,9.mid,experiment,0
7,30,11145,67,64,0,2,19,1,9.mid,experiment,0
8,32,11458,67,64,0,2,19,1,9.mid,experiment,0
9,35,11924,79,64,0,2,19,1,9.mid,experiment,0
10,37,12161,78,64,0,2,19,1,9.mid,experiment,0
11,39,12422,79,64,0,2,19,1,9.mid,experiment,0
12,41,12719,76,64,0,2,19,1,9.mid,experiment,0
13,43,12963,72,64,0,2,19,1,9.mid,experiment,0
14,45,13251,76,64,0,2,19,1,9.mid,experiment,0
15,47,13438,79,64,0,2,19,1,9.mid,experiment,0
16,49,13737,84,64,0,2,19,1,9.mid,experiment,0
17,50,13850,83,64,0,2,19,1,9.mid,experiment,0
18,52,14105,81,64,0,2,19,1,9.mid,experiment,0
19,54,14315,81,64,0,2,19,1,9.mid,experiment,0
20,56,14597,81,64,0,2,19,1,9.mid,experiment,0
21,59,15063,83,64,0,2,19,1,9.mid,experiment,0
22,61,15290,81,64,0,2,19,1,9.mid,experiment,0
23,63,15569,84,64,0,2,19,1,9.mid,experiment,0
24,65,15819,81,64,0,2,19,1,9.mid,experiment,0
25,67,16095,78,64,0,2,19,1,9.mid,experiment,0
26,68,16168,79,64,0,2,19,1,9.mid,experiment,0
27,70,16636,79,64,0,2,19,1,9.mid,experiment,0
28,72,17371,79,64,0,2,19,1,9.mid,experiment,0
29,74,17977,77,64,0,2,19,1,9.mid,experiment,0
30,76,18238,77,64,0,2,19,1,9.mid,experiment,0
31,78,18511,76,64,0,2,19,1,9.mid,experiment,0
32,80,18774,76,64,0,2,19,1,9.mid,experiment,0
33,82,19579,74,64,0,2,19,1,9.mid,experiment,0
34,84,20718,79,64,0,2,19,1,9.mid,experiment,0
35,86,21116,77,64,0,2,19,1,9.mid,experiment,0
36,88,21323,76,64,0,2,19,1,9.mid,experiment,0
37,90,21588,76,64,0,2,19,1,9.mid,experiment,0
38,92,21828,76,64,0,2,19,1,9.mid,experiment,0
39,94,22091,76,64,0,2,19,1,9.mid,experiment,0
40,97,22596,81,64,0,2,19,1,9.mid,experiment,0
41,99,22836,77,64,0,2,19,1,9.mid,experiment,0
42,101,23056,76,64,0,2,19,1,9.mid,experiment,0
43,103,23331,74,64,0,2,19,1,9.mid,experiment,0
44,105,23602,76,64,0,2,19,1,9.mid,experiment,0
45,107,23794,79,64,0,2,19,1,9.mid,experiment,0
46,109,24043,74,64,0,2,19,1,9.mid,experiment,0
47,110,24197,71,64,0,2,19,1,9.mid,experiment,0
48,112,24353,72,64,0,2,19,1,9.mid,experiment,0
49,114,24635,72,64,0,2,19,1,9.mid,experiment,0
50,116,24867,74,64,0,2,19,1,9.mid,experiment,0
51,118,25118,74,64,0,2,19,1,9.mid,experiment,0
52,120,25732,76,64,0,2,19,1,9.mid,experiment,0
53,122,26450,65,64,0,2,19,1,9.mid,experiment,0
54,124,26703,65,64,0,2,19,1,9.mid,experiment,0
55,126,26951,64,64,0,2,19,1,9.mid,experiment,0
56,128,27236,64,64,0,2,19,1,9.mid,experiment,0
57,130,27908,62,64,0,2,19,1,9.mid,experiment,0
58,132,28478,67,64,0,2,19,1,9.mid,experiment,0
59,134,28739,67,64,0,2,19,1,9.mid,experiment,0
60,136,28978,71,64,0,2,19,1,9.mid,experiment,0
61,138,29249,71,64,0,2,19,1,9.mid,experiment,0
62,140,29548,72,64,0,2,19,1,9.mid,experiment,0
63,142,29766,72,64,0,2,19,1,9.mid,experiment,0
64,144,30034,73,64,0,2,19,1,9.mid,experiment,0
65,146,30306,73,64,0,2,19,1,9.mid,experiment,0
66,149,31025,74,64,0,2,19,1,9.mid,experiment,0
67,151,31521,77,64,0,2,19,1,9.mid,experiment,0
68,153,32021,76,64,0,2,19,1,9.mid,experiment,0
69,155,32532,74,64,0,2,19,1,9.mid,experiment,0
70,156,32998,72,64,0,2,19,1,9.mid,experiment,0
71,158,33450,84,64,0,2,19,1,9.mid,experiment,0
72,160,34103,84,64,0,2,19,1,9.mid,experiment,0
1,19,8985,79,64,0,2,19,3,3.mid,experiment,0
2,21,9263,78,64,0,2,19,3,3.mid,experiment,0
3,23,9579,79,64,0,2,19,3,3.mid,experiment,0
4,25,9836,76,64,0,2,19,3,3.mid,experiment,0
5,26,10023,72,64,0,2,19,3,3.mid,experiment,0
6,28,10258,67,64,0,2,19,3,3.mid,experiment,0
7,30,10518,67,64,0,2,19,3,3.mid,experiment,0
8,32,10855,67,64,0,2,19,3,3.mid,experiment,0
9,35,11419,79,64,0,2,19,3,3.mid,experiment,0
10,37,11693,78,64,0,2,19,3,3.mid,experiment,0
11,39,11960,79,64,0,2,19,3,3.mid,experiment,0
12,41,12298,76,64,0,2,19,3,3.mid,experiment,0
13,43,12569,72,64,0,2,19,3,3.mid,experiment,0
14,45,12881,76,64,0,2,19,3,3.mid,experiment,0
15,47,13107,79,64,0,2,19,3,3.mid,experiment,0
16,49,13434,84,64,0,2,19,3,3.mid,experiment,0
17,50,13592,83,64,0,2,19,3,3.mid,experiment,0
18,52,13714,81,64,0,2,19,3,3.mid,experiment,0
19,54,14034,81,64,0,2,19,3,3.mid,experiment,0
20,56,14336,81,64,0,2,19,3,3.mid,experiment,0
21,59,14885,83,64,0,2,19,3,3.mid,experiment,0
22,61,15141,81,64,0,2,19,3,3.mid,experiment,0
23,63,15434,84,64,0,2,19,3,3.mid,experiment,0
24,65,15724,81,64,0,2,19,3,3.mid,experiment,0
25,67,16011,78,64,0,2,19,3,3.mid,experiment,0
26,68,16070,79,64,0,2,19,3,3.mid,experiment,0
27,70,16580,79,64,0,2,19,3,3.mid,experiment,0
28,72,17403,79,64,0,2,19,3,3.mid,experiment,0
29,74,18262,77,64,0,2,19,3,3.mid,experiment,0
30,76,18555,77,64,0,2,19,3,3.mid,experiment,0
31,78,18842,76,64,0,2,19,3,3.mid,experiment,0
32,80,19119,76,64,0,2,19,3,3.mid,experiment,0
33,82,19889,74,64,0,2,19,3,3.mid,experiment,0
34,84,20959,79,64,0,2,19,3,3.mid,experiment,0
35,86,21479,77,64,0,2,19,3,3.mid,experiment,0
36,88,21815,76,64,0,2,19,3,3.mid,experiment,0
37,90,22123,76,64,0,2,19,3,3.mid,experiment,0
38,92,22431,76,64,0,2,19,3,3.mid,experiment,0
39,94,22706,76,64,0,2,19,3,3.mid,experiment,0
40,97,23216,81,64,0,2,19,3,3.mid,experiment,0
41,99,23495,77,64,0,2,19,3,3.mid,experiment,0
42,101,23727,76,64,0,2,19,3,3.mid,experiment,0
43,102,23963,74,64,0,2,19,3,3.mid,experiment,0
44,105,24288,76,64,0,2,19,3,3.mid,experiment,0
45,107,24557,79,64,0,2,19,3,3.mid,experiment,0
46,109,24796,74,64,0,2,19,3,3.mid,experiment,0
47,110,24899,71,64,0,2,19,3,3.mid,experiment,0
48,112,25184,72,64,0,2,19,3,3.mid,experiment,0
49,114,25464,72,64,0,2,19,3,3.mid,experiment,0
50,116,25728,74,64,0,2,19,3,3.mid,experiment,0
51,118,26012,74,64,0,2,19,3,3.mid,experiment,0
52,120,26660,76,64,0,2,19,3,3.mid,experiment,0
53,122,27556,65,64,0,2,19,3,3.mid,experiment,0
54,124,27820,65,64,0,2,19,3,3.mid,experiment,0
55,126,28082,64,64,0,2,19,3,3.mid,experiment,0
56,128,28365,64,64,0,2,19,3,3.mid,experiment,0
57,130,29042,62,64,0,2,19,3,3.mid,experiment,0
58,132,29796,67,64,0,2,19,3,3.mid,experiment,0
59,134,30079,67,64,0,2,19,3,3.mid,experiment,0
60,136,30353,71,64,0,2,19,3,3.mid,experiment,0
61,138,30638,71,64,0,2,19,3,3.mid,experiment,0
62,140,30939,72,64,0,2,19,3,3.mid,experiment,0
63,142,31203,72,64,0,2,19,3,3.mid,experiment,0
64,144,31505,73,64,0,2,19,3,3.mid,experiment,0
65,146,31811,73,64,0,2,19,3,3.mid,experiment,0
66,149,32580,74,64,0,2,19,3,3.mid,experiment,0
67,151,33156,77,64,0,2,19,3,3.mid,experiment,0
68,153,33713,76,64,0,2,19,3,3.mid,experiment,0
69,155,34248,74,64,0,2,19,3,3.mid,experiment,0
70,156,34805,72,64,0,2,19,3,3.mid,experiment,0
71,158,35255,84,64,0,2,19,3,3.mid,experiment,0
72,160,35892,84,64,0,2,19,3,3.mid,experiment,0
1,19,8793,79,64,0,2,19,5,7.mid,experiment,0
2,21,9118,78,64,0,2,19,5,7.mid,experiment,0
3,23,9397,79,64,0,2,19,5,7.mid,experiment,0
4,25,9797,76,64,0,2,19,5,7.mid,experiment,0
5,26,9932,72,64,0,2,19,5,7.mid,experiment,0
6,28,10086,67,64,0,2,19,5,7.mid,experiment,0
7,30,10462,67,64,0,2,19,5,7.mid,experiment,0
8,32,10829,67,64,0,2,19,5,7.mid,experiment,0
9,35,11445,79,64,0,2,19,5,7.mid,experiment,0
10,37,11779,78,64,0,2,19,5,7.mid,experiment,0
11,39,12065,79,64,0,2,19,5,7.mid,experiment,0
12,41,12431,76,64,0,2,19,5,7.mid,experiment,0
13,43,12747,72,64,0,2,19,5,7.mid,experiment,0
14,45,13169,76,64,0,2,19,5,7.mid,experiment,0
15,47,13351,79,64,0,2,19,5,7.mid,experiment,0
16,49,13707,84,64,0,2,19,5,7.mid,experiment,0
17,50,13904,83,64,0,2,19,5,7.mid,experiment,0
18,52,14069,81,64,0,2,19,5,7.mid,experiment,0
19,54,14406,81,64,0,2,19,5,7.mid,experiment,0
20,56,14742,81,64,0,2,19,5,7.mid,experiment,0
21,59,15424,83,64,0,2,19,5,7.mid,experiment,0
22,61,15714,81,64,0,2,19,5,7.mid,experiment,0
23,63,16030,84,64,0,2,19,5,7.mid,experiment,0
24,65,16392,81,64,0,2,19,5,7.mid,experiment,0
25,67,16712,78,64,0,2,19,5,7.mid,experiment,0
26,68,16774,79,64,0,2,19,5,7.mid,experiment,0
27,70,17385,79,64,0,2,19,5,7.mid,experiment,0
28,72,18308,79,64,0,2,19,5,7.mid,experiment,0
29,74,19169,77,64,0,2,19,5,7.mid,experiment,0
30,76,19525,77,64,0,2,19,5,7.mid,experiment,0
31,78,19858,76,64,0,2,19,5,7.mid,experiment,0
32,80,20194,76,64,0,2,19,5,7.mid,experiment,0
33,82,20917,74,64,0,2,19,5,7.mid,experiment,0
34,85,22594,79,64,0,2,19,5,7.mid,experiment,0
35,86,23000,77,64,0,2,19,5,7.mid,experiment,0
36,88,23384,76,64,0,2,19,5,7.mid,experiment,0
37,90,23732,76,64,0,2,19,5,7.mid,experiment,0
38,92,24004,76,64,0,2,19,5,7.mid,experiment,0
39,94,24356,76,64,0,2,19,5,7.mid,experiment,0
40,97,25005,81,64,0,2,19,5,7.mid,experiment,0
41,99,25305,77,64,0,2,19,5,7.mid,experiment,0
42,101,25582,76,64,0,2,19,5,7.mid,experiment,0
43,103,25884,74,64,0,2,19,5,7.mid,experiment,0
44,105,26225,76,64,0,2,19,5,7.mid,experiment,0
45,107,26512,79,64,0,2,19,5,7.mid,experiment,0
46,109,26775,74,64,0,2,19,5,7.mid,experiment,0
47,111,27076,71,64,0,2,19,5,7.mid,experiment,0
48,112,27164,72,64,0,2,19,5,7.mid,experiment,0
49,114,27489,72,64,0,2,19,5,7.mid,experiment,0
50,116,27777,74,64,0,2,19,5,7.mid,experiment,0
51,118,28098,74,64,0,2,19,5,7.mid,experiment,0
52,120,28850,76,64,0,2,19,5,7.mid,experiment,0
53,122,29584,65,64,0,2,19,5,7.mid,experiment,0
54,124,29903,65,64,0,2,19,5,7.mid,experiment,0
55,126,30178,64,64,0,2,19,5,7.mid,experiment,0
56,128,30491,64,64,0,2,19,5,7.mid,experiment,0
57,130,31202,62,64,0,2,19,5,7.mid,experiment,0
58,132,32009,67,64,0,2,19,5,7.mid,experiment,0
59,134,32297,67,64,0,2,19,5,7.mid,experiment,0
60,136,32596,71,64,0,2,19,5,7.mid,experiment,0
61,138,32918,71,64,0,2,19,5,7.mid,experiment,0
62,140,33227,72,64,0,2,19,5,7.mid,experiment,0
63,142,33507,72,64,0,2,19,5,7.mid,experiment,0
64,144,33816,73,64,0,2,19,5,7.mid,experiment,0
65,146,34130,73,64,0,2,19,5,7.mid,experiment,0
66,148,34917,74,64,0,2,19,5,7.mid,experiment,0
67,150,35612,77,64,0,2,19,5,7.mid,experiment,0
68,152,36230,76,64,0,2,19,5,7.mid,experiment,0
69,154,36772,74,64,0,2,19,5,7.mid,experiment,0
70,156,37406,72,64,0,2,19,5,7.mid,experiment,0
71,158,38061,84,64,0,2,19,5,7.mid,experiment,0
72,160,38858,84,64,0,2,19,5,7.mid,experiment,0
1,19,10184,79,64,0,2,19,7,5.mid,experiment,0
2,21,10458,78,64,0,2,19,7,5.mid,experiment,0
3,23,10698,79,64,0,2,19,7,5.mid,experiment,0
4,25,11009,76,64,0,2,19,7,5.mid,experiment,0
5,26,11110,72,64,0,2,19,7,5.mid,experiment,0
6,28,11346,67,64,0,2,19,7,5.mid,experiment,0
7,30,11649,67,64,0,2,19,7,5.mid,experiment,0
8,32,11961,67,64,0,2,19,7,5.mid,experiment,0
9,35,12466,79,64,0,2,19,7,5.mid,experiment,0
10,37,12740,78,64,0,2,19,7,5.mid,experiment,0
11,39,12951,79,64,0,2,19,7,5.mid,experiment,0
12,41,13272,76,64,0,2,19,7,5.mid,experiment,0
13,43,13533,72,64,0,2,19,7,5.mid,experiment,0
14,45,13836,76,64,0,2,19,7,5.mid,experiment,0
15,47,14056,79,64,0,2,19,7,5.mid,experiment,0
16,49,14348,84,64,0,2,19,7,5.mid,experiment,0
17,50,14496,83,64,0,2,19,7,5.mid,experiment,0
18,52,14630,81,64,0,2,19,7,5.mid,experiment,0
19,54,14942,81,64,0,2,19,7,5.mid,experiment,0
20,56,15206,81,64,0,2,19,7,5.mid,experiment,0
21,59,15720,83,64,0,2,19,7,5.mid,experiment,0
22,61,15947,81,64,0,2,19,7,5.mid,experiment,0
23,63,16222,84,64,0,2,19,7,5.mid,experiment,0
24,65,16522,81,64,0,2,19,7,5.mid,experiment,0
25,67,16773,78,64,0,2,19,7,5.mid,experiment,0
26,68,16844,79,64,0,2,19,7,5.mid,experiment,0
27,70,17412,79,64,0,2,19,7,5.mid,experiment,0
28,72,18177,79,64,0,2,19,7,5.mid,experiment,0
29,74,18900,77,64,0,2,19,7,5.mid,experiment,0
30,76,19168,77,64,0,2,19,7,5.mid,experiment,0
31,78,19438,76,64,0,2,19,7,5.mid,experiment,0
32,80,19708,76,64,0,2,19,7,5.mid,experiment,0
33,82,20508,74,64,0,2,19,7,5.mid,experiment,0
34,84,21378,79,64,0,2,19,7,5.mid,experiment,0
35,86,22004,77,64,0,2,19,7,5.mid,experiment,0
36,88,22281,76,64,0,2,19,7,5.mid,experiment,0
37,90,22521,76,64,0,2,19,7,5.mid,experiment,0
38,92,22796,76,64,0,2,19,7,5.mid,experiment,0
39,94,23100,76,64,0,2,19,7,5.mid,experiment,0
40,97,23554,81,64,0,2,19,7,5.mid,experiment,0
41,99,23808,77,64,0,2,19,7,5.mid,experiment,0
42,101,24046,76,64,0,2,19,7,5.mid,experiment,0
43,103,24304,74,64,0,2,19,7,5.mid,experiment,0
44,105,24609,76,64,0,2,19,7,5.mid,experiment,0
45,107,24873,79,64,0,2,19,7,5.mid,experiment,0
46,109,25069,74,64,0,2,19,7,5.mid,experiment,0
47,110,25234,71,64,0,2,19,7,5.mid,experiment,0
48,112,25368,72,64,0,2,19,7,5.mid,experiment,0
49,114,25644,72,64,0,2,19,7,5.mid,experiment,0
50,116,25918,74,64,0,2,19,7,5.mid,experiment,0
51,118,26174,74,64,0,2,19,7,5.mid,experiment,0
52,120,26820,76,64,0,2,19,7,5.mid,experiment,0
53,122,27566,65,64,0,2,19,7,5.mid,experiment,0
54,124,27854,65,64,0,2,19,7,5.mid,experiment,0
55,126,28128,64,64,0,2,19,7,5.mid,experiment,0
56,128,28400,64,64,0,2,19,7,5.mid,experiment,0
57,130,29115,62,64,0,2,19,7,5.mid,experiment,0
58,132,29750,67,64,0,2,19,7,5.mid,experiment,0
59,134,30023,67,64,0,2,19,7,5.mid,experiment,0
60,136,30292,71,64,0,2,19,7,5.mid,experiment,0
61,138,30570,71,64,0,2,19,7,5.mid,experiment,0
62,140,30844,72,64,0,2,19,7,5.mid,experiment,0
63,142,31106,72,64,0,2,19,7,5.mid,experiment,0
64,144,31398,73,64,0,2,19,7,5.mid,experiment,0
65,146,31684,73,64,0,2,19,7,5.mid,experiment,0
66,148,32364,74,64,0,2,19,7,5.mid,experiment,0
67,150,32991,77,64,0,2,19,7,5.mid,experiment,0
68,152,33418,76,64,0,2,19,7,5.mid,experiment,0
69,154,33918,74,64,0,2,19,7,5.mid,experiment,0
70,156,34608,72,64,0,2,19,7,5.mid,experiment,0
71,158,35216,84,64,0,2,19,7,5.mid,experiment,0
72,160,35970,84,64,0,2,19,7,5.mid,experiment,0
1,19,9284,79,64,0,2,19,8,12.mid,experiment,0
2,21,9544,78,64,0,2,19,8,12.mid,experiment,0
3,23,9782,79,64,0,2,19,8,12.mid,experiment,0
4,25,10068,76,64,0,2,19,8,12.mid,experiment,0
5,26,10252,72,64,0,2,19,8,12.mid,experiment,0
6,28,10351,67,64,0,2,19,8,12.mid,experiment,0
7,30,10635,67,64,0,2,19,8,12.mid,experiment,0
8,32,10930,67,64,0,2,19,8,12.mid,experiment,0
9,35,11354,79,64,0,2,19,8,12.mid,experiment,0
10,37,11617,78,64,0,2,19,8,12.mid,experiment,0
11,39,11859,79,64,0,2,19,8,12.mid,experiment,0
12,41,12147,76,64,0,2,19,8,12.mid,experiment,0
13,43,12383,72,64,0,2,19,8,12.mid,experiment,0
14,45,12646,76,64,0,2,19,8,12.mid,experiment,0
15,47,12865,79,64,0,2,19,8,12.mid,experiment,0
16,49,13125,84,64,0,2,19,8,12.mid,experiment,0
17,50,13278,83,64,0,2,19,8,12.mid,experiment,0
18,52,13400,81,64,0,2,19,8,12.mid,experiment,0
19,54,13666,81,64,0,2,19,8,12.mid,experiment,0
20,56,13966,81,64,0,2,19,8,12.mid,experiment,0
21,59,14400,83,64,0,2,19,8,12.mid,experiment,0
22,61,14637,81,64,0,2,19,8,12.mid,experiment,0
23,63,14905,84,64,0,2,19,8,12.mid,experiment,0
24,65,15173,81,64,0,2,19,8,12.mid,experiment,0
25,67,15417,78,64,0,2,19,8,12.mid,experiment,0
26,68,15482,79,64,0,2,19,8,12.mid,experiment,0
27,70,15900,79,64,0,2,19,8,12.mid,experiment,0
28,72,16696,79,64,0,2,19,8,12.mid,experiment,0
29,74,17252,77,64,0,2,19,8,12.mid,experiment,0
30,76,17512,77,64,0,2,19,8,12.mid,experiment,0
31,78,17789,76,64,0,2,19,8,12.mid,experiment,0
32,80,18045,76,64,0,2,19,8,12.mid,experiment,0
33,82,18724,74,64,0,2,19,8,12.mid,experiment,0
34,84,19659,79,64,0,2,19,8,12.mid,experiment,0
35,86,20127,77,64,0,2,19,8,12.mid,experiment,0
36,88,20425,76,64,0,2,19,8,12.mid,experiment,0
37,90,20664,76,64,0,2,19,8,12.mid,experiment,0
38,92,20899,76,64,0,2,19,8,12.mid,experiment,0
39,94,21196,76,64,0,2,19,8,12.mid,experiment,0
40,97,21618,81,64,0,2,19,8,12.mid,experiment,0
41,99,21872,77,64,0,2,19,8,12.mid,experiment,0
42,101,22087,76,64,0,2,19,8,12.mid,experiment,0
43,102,22303,74,64,0,2,19,8,12.mid,experiment,0
44,105,22616,76,64,0,2,19,8,12.mid,experiment,0
45,107,22858,79,64,0,2,19,8,12.mid,experiment,0
46,109,23078,74,64,0,2,19,8,12.mid,experiment,0
47,110,23198,71,64,0,2,19,8,12.mid,experiment,0
48,112,23398,72,64,0,2,19,8,12.mid,experiment,0
49,114,23654,72,64,0,2,19,8,12.mid,experiment,0
50,116,23891,74,64,0,2,19,8,12.mid,experiment,0
51,118,24166,74,64,0,2,19,8,12.mid,experiment,0
52,120,24870,76,64,0,2,19,8,12.mid,experiment,0
53,122,25488,65,64,0,2,19,8,12.mid,experiment,0
54,124,25770,65,64,0,2,19,8,12.mid,experiment,0
55,126,25986,64,64,0,2,19,8,12.mid,experiment,0
56,128,26252,64,64,0,2,19,8,12.mid,experiment,0
57,130,26936,62,64,0,2,19,8,12.mid,experiment,0
58,132,27547,67,64,0,2,19,8,12.mid,experiment,0
59,134,27824,67,64,0,2,19,8,12.mid,experiment,0
60,136,28067,71,64,0,2,19,8,12.mid,experiment,0
61,138,28329,71,64,0,2,19,8,12.mid,experiment,0
62,140,28579,72,64,0,2,19,8,12.mid,experiment,0
63,142,28834,72,64,0,2,19,8,12.mid,experiment,0
64,144,29101,73,64,0,2,19,8,12.mid,experiment,0
65,146,29347,73,64,0,2,19,8,12.mid,experiment,0
66,149,30105,74,64,0,2,19,8,12.mid,experiment,0
67,150,30617,77,64,0,2,19,8,12.mid,experiment,0
68,153,31185,76,64,0,2,19,8,12.mid,experiment,0
69,155,31704,74,64,0,2,19,8,12.mid,experiment,0
70,156,32216,72,64,0,2,19,8,12.mid,experiment,0
71,158,32611,84,64,0,2,19,8,12.mid,experiment,0
72,160,33326,84,64,0,2,19,8,12.mid,experiment,0
1,19,8712,79,64,0,2,19,10,10.mid,experiment,0
2,21,8980,78,64,0,2,19,10,10.mid,experiment,0
3,23,9218,79,64,0,2,19,10,10.mid,experiment,0
4,25,9499,76,64,0,2,19,10,10.mid,experiment,0
5,26,9675,72,64,0,2,19,10,10.mid,experiment,0
6,28,9776,67,64,0,2,19,10,10.mid,experiment,0
7,30,10040,67,64,0,2,19,10,10.mid,experiment,0
8,32,10286,67,64,0,2,19,10,10.mid,experiment,0
9,35,10775,79,64,0,2,19,10,10.mid,experiment,0
10,37,11016,78,64,0,2,19,10,10.mid,experiment,0
11,39,11249,79,64,0,2,19,10,10.mid,experiment,0
12,41,11545,76,64,0,2,19,10,10.mid,experiment,0
13,43,11746,72,64,0,2,19,10,10.mid,experiment,0
14,45,12032,76,64,0,2,19,10,10.mid,experiment,0
15,47,12225,79,64,0,2,19,10,10.mid,experiment,0
16,49,12506,84,64,0,2,19,10,10.mid,experiment,0
17,50,12589,83,64,0,2,19,10,10.mid,experiment,0
18,52,12789,81,64,0,2,19,10,10.mid,experiment,0
19,54,13048,81,64,0,2,19,10,10.mid,experiment,0
20,56,13307,81,64,0,2,19,10,10.mid,experiment,0
21,59,13772,83,64,0,2,19,10,10.mid,experiment,0
22,61,14003,81,64,0,2,19,10,10.mid,experiment,0
23,63,14270,84,64,0,2,19,10,10.mid,experiment,0
24,65,14541,81,64,0,2,19,10,10.mid,experiment,0
25,67,14775,78,64,0,2,19,10,10.mid,experiment,0
26,68,14872,79,64,0,2,19,10,10.mid,experiment,0
27,70,15338,79,64,0,2,19,10,10.mid,experiment,0
28,72,16033,79,64,0,2,19,10,10.mid,experiment,0
29,74,16721,77,64,0,2,19,10,10.mid,experiment,0
30,76,16988,77,64,0,2,19,10,10.mid,experiment,0
31,78,17254,76,64,0,2,19,10,10.mid,experiment,0
32,80,17492,76,64,0,2,19,10,10.mid,experiment,0
33,82,18090,74,64,0,2,19,10,10.mid,experiment,0
34,84,19209,79,64,0,2,19,10,10.mid,experiment,0
35,86,19638,77,64,0,2,19,10,10.mid,experiment,0
36,88,19918,76,64,0,2,19,10,10.mid,experiment,0
37,90,20185,76,64,0,2,19,10,10.mid,experiment,0
38,92,20428,76,64,0,2,19,10,10.mid,experiment,0
39,94,20688,76,64,0,2,19,10,10.mid,experiment,0
40,97,21165,81,64,0,2,19,10,10.mid,experiment,0
41,99,21423,77,64,0,2,19,10,10.mid,experiment,0
42,101,21637,76,64,0,2,19,10,10.mid,experiment,0
43,102,21855,74,64,0,2,19,10,10.mid,experiment,0
44,105,22156,76,64,0,2,19,10,10.mid,experiment,0
45,107,22421,79,64,0,2,19,10,10.mid,experiment,0
46,109,22640,74,64,0,2,19,10,10.mid,experiment,0
47,110,22882,71,64,0,2,19,10,10.mid,experiment,0
48,112,22920,72,64,0,2,19,10,10.mid,experiment,0
49,114,23182,72,64,0,2,19,10,10.mid,experiment,0
50,116,23431,74,64,0,2,19,10,10.mid,experiment,0
51,118,23694,74,64,0,2,19,10,10.mid,experiment,0
52,120,24357,76,64,0,2,19,10,10.mid,experiment,0
53,122,25013,65,64,0,2,19,10,10.mid,experiment,0
54,124,25258,65,64,0,2,19,10,10.mid,experiment,0
55,126,25517,64,64,0,2,19,10,10.mid,experiment,0
56,128,25772,64,64,0,2,19,10,10.mid,experiment,0
57,130,26452,62,64,0,2,19,10,10.mid,experiment,0
58,132,27083,67,64,0,2,19,10,10.mid,experiment,0
59,134,27335,67,64,0,2,19,10,10.mid,experiment,0
60,136,27597,71,64,0,2,19,10,10.mid,experiment,0
61,138,27875,71,64,0,2,19,10,10.mid,experiment,0
62,140,28122,72,64,0,2,19,10,10.mid,experiment,0
63,142,28373,72,64,0,2,19,10,10.mid,experiment,0
64,144,28613,73,64,0,2,19,10,10.mid,experiment,0
65,146,28897,73,64,0,2,19,10,10.mid,experiment,0
66,149,29589,74,64,0,2,19,10,10.mid,experiment,0
67,151,30109,77,64,0,2,19,10,10.mid,experiment,0
68,153,30599,76,64,0,2,19,10,10.mid,experiment,0
69,155,31109,74,64,0,2,19,10,10.mid,experiment,0
70,156,31565,72,64,0,2,19,10,10.mid,experiment,0
71,158,32053,84,64,0,2,19,10,10.mid,experiment,0
72,160,32729,84,64,0,2,19,10,10.mid,experiment,0
1,19,11819,79,64,0,2,19,11,13.mid,experiment,0
2,21,12039,78,64,0,2,19,11,13.mid,experiment,0
3,23,12305,79,64,0,2,19,11,13.mid,experiment,0
4,25,12617,76,64,0,2,19,11,13.mid,experiment,0
5,26,12755,72,64,0,2,19,11,13.mid,experiment,0
6,28,12931,67,64,0,2,19,11,13.mid,experiment,0
7,30,13187,67,64,0,2,19,11,13.mid,experiment,0
8,32,13542,67,64,0,2,19,11,13.mid,experiment,0
9,35,14066,79,64,0,2,19,11,13.mid,experiment,0
10,37,14327,78,64,0,2,19,11,13.mid,experiment,0
11,39,14598,79,64,0,2,19,11,13.mid,experiment,0
12,41,14869,76,64,0,2,19,11,13.mid,experiment,0
13,43,15142,72,64,0,2,19,11,13.mid,experiment,0
14,45,15430,76,64,0,2,19,11,13.mid,experiment,0
15,47,15660,79,64,0,2,19,11,13.mid,experiment,0
16,49,15958,84,64,0,2,19,11,13.mid,experiment,0
17,50,16154,83,64,0,2,19,11,13.mid,experiment,0
18,52,16241,81,64,0,2,19,11,13.mid,experiment,0
19,54,16518,81,64,0,2,19,11,13.mid,experiment,0
20,56,16804,81,64,0,2,19,11,13.mid,experiment,0
21,59,17410,83,64,0,2,19,11,13.mid,experiment,0
22,61,17686,81,64,0,2,19,11,13.mid,experiment,0
23,63,17921,84,64,0,2,19,11,13.mid,experiment,0
24,65,18221,81,64,0,2,19,11,13.mid,experiment,0
25,67,18495,78,64,0,2,19,11,13.mid,experiment,0
26,68,18572,79,64,0,2,19,11,13.mid,experiment,0
27,70,19100,79,64,0,2,19,11,13.mid,experiment,0
28,72,19820,79,64,0,2,19,11,13.mid,experiment,0
29,74,20645,77,64,0,2,19,11,13.mid,experiment,0
30,76,20948,77,64,0,2,19,11,13.mid,experiment,0
31,78,21204,76,64,0,2,19,11,13.mid,experiment,0
32,80,21478,76,64,0,2,19,11,13.mid,experiment,0
33,82,22070,74,64,0,2,19,11,13.mid,experiment,0
34,84,23209,79,64,0,2,19,11,13.mid,experiment,0
35,86,23790,77,64,0,2,19,11,13.mid,experiment,0
36,88,24058,76,64,0,2,19,11,13.mid,experiment,0
37,90,24331,76,64,0,2,19,11,13.mid,experiment,0
38,92,24627,76,64,0,2,19,11,13.mid,experiment,0
39,94,24933,76,64,0,2,19,11,13.mid,experiment,0
40,97,25521,81,64,0,2,19,11,13.mid,experiment,0
41,99,25761,77,64,0,2,19,11,13.mid,experiment,0
42,101,25973,76,64,0,2,19,11,13.mid,experiment,0
43,103,26229,74,64,0,2,19,11,13.mid,experiment,0
44,105,26518,76,64,0,2,19,11,13.mid,experiment,0
45,107,26772,79,64,0,2,19,11,13.mid,experiment,0
46,109,26979,74,64,0,2,19,11,13.mid,experiment,0
47,110,27222,71,64,0,2,19,11,13.mid,experiment,0
48,112,27323,72,64,0,2,19,11,13.mid,experiment,0
49,114,27579,72,64,0,2,19,11,13.mid,experiment,0
50,116,27864,74,64,0,2,19,11,13.mid,experiment,0
51,118,28110,74,64,0,2,19,11,13.mid,experiment,0
52,120,28758,76,64,0,2,19,11,13.mid,experiment,0
53,122,29510,65,64,0,2,19,11,13.mid,experiment,0
54,124,29784,65,64,0,2,19,11,13.mid,experiment,0
55,126,30046,64,64,0,2,19,11,13.mid,experiment,0
56,128,30326,64,64,0,2,19,11,13.mid,experiment,0
57,130,30950,62,64,0,2,19,11,13.mid,experiment,0
58,132,31680,67,64,0,2,19,11,13.mid,experiment,0
59,134,31933,67,64,0,2,19,11,13.mid,experiment,0
60,136,32195,71,64,0,2,19,11,13.mid,experiment,0
61,138,32474,71,64,0,2,19,11,13.mid,experiment,0
62,140,32762,72,64,0,2,19,11,13.mid,experiment,0
63,142,33036,72,64,0,2,19,11,13.mid,experiment,0
64,144,33301,73,64,0,2,19,11,13.mid,experiment,0
65,146,33574,73,64,0,2,19,11,13.mid,experiment,0
66,148,34392,74,64,0,2,19,11,13.mid,experiment,0
67,151,34974,77,64,0,2,19,11,13.mid,experiment,0
68,153,35502,76,64,0,2,19,11,13.mid,experiment,0
69,155,36066,74,64,0,2,19,11,13.mid,experiment,0
70,157,36658,72,64,0,2,19,11,13.mid,experiment,0
71,158,37076,84,64,0,2,19,11,13.mid,experiment,0
72,160,37797,84,64,0,2,19,11,13.mid,experiment,0
1,19,8654,79,64,0,2,19,12,14.mid,experiment,0
2,21,8898,78,64,0,2,19,12,14.mid,experiment,0
3,23,9139,79,64,0,2,19,12,14.mid,experiment,0
4,25,9475,76,64,0,2,19,12,14.mid,experiment,0
5,26,9542,72,64,0,2,19,12,14.mid,experiment,0
6,28,9756,67,64,0,2,19,12,14.mid,experiment,0
7,30,10041,67,64,0,2,19,12,14.mid,experiment,0
8,32,10322,67,64,0,2,19,12,14.mid,experiment,0
9,35,10956,79,64,0,2,19,12,14.mid,experiment,0
10,37,11182,78,64,0,2,19,12,14.mid,experiment,0
11,39,11423,79,64,0,2,19,12,14.mid,experiment,0
12,41,11721,76,64,0,2,19,12,14.mid,experiment,0
13,43,11979,72,64,0,2,19,12,14.mid,experiment,0
14,45,12257,76,64,0,2,19,12,14.mid,experiment,0
15,47,12479,79,64,0,2,19,12,14.mid,experiment,0
16,49,12771,84,64,0,2,19,12,14.mid,experiment,0
17,50,12902,83,64,0,2,19,12,14.mid,experiment,0
18,52,13304,81,64,0,2,19,12,14.mid,experiment,0
19,54,13560,81,64,0,2,19,12,14.mid,experiment,0
20,56,13837,81,64,0,2,19,12,14.mid,experiment,0
21,59,14372,83,64,0,2,19,12,14.mid,experiment,0
22,61,14630,81,64,0,2,19,12,14.mid,experiment,0
23,63,14906,84,64,0,2,19,12,14.mid,experiment,0
24,65,15197,81,64,0,2,19,12,14.mid,experiment,0
25,67,15474,78,64,0,2,19,12,14.mid,experiment,0
26,68,15515,79,64,0,2,19,12,14.mid,experiment,0
27,70,15956,79,64,0,2,19,12,14.mid,experiment,0
28,72,16761,79,64,0,2,19,12,14.mid,experiment,0
29,74,17357,77,64,0,2,19,12,14.mid,experiment,0
30,76,17642,77,64,0,2,19,12,14.mid,experiment,0
31,78,17900,76,64,0,2,19,12,14.mid,experiment,0
32,80,18155,76,64,0,2,19,12,14.mid,experiment,0
33,82,18587,74,64,0,2,19,12,14.mid,experiment,0
34,84,20060,79,64,0,2,19,12,14.mid,experiment,0
35,86,20493,77,64,0,2,19,12,14.mid,experiment,0
36,88,20687,76,64,0,2,19,12,14.mid,experiment,0
37,90,20948,76,64,0,2,19,12,14.mid,experiment,0
38,92,21231,76,64,0,2,19,12,14.mid,experiment,0
39,94,21484,76,64,0,2,19,12,14.mid,experiment,0
40,97,21988,81,64,0,2,19,12,14.mid,experiment,0
41,99,22262,77,64,0,2,19,12,14.mid,experiment,0
42,101,22491,76,64,0,2,19,12,14.mid,experiment,0
43,103,22758,74,64,0,2,19,12,14.mid,experiment,0
44,105,23106,76,64,0,2,19,12,14.mid,experiment,0
45,107,23340,79,64,0,2,19,12,14.mid,experiment,0
46,109,23511,74,64,0,2,19,12,14.mid,experiment,0
47,110,23649,71,64,0,2,19,12,14.mid,experiment,0
48,112,23812,72,64,0,2,19,12,14.mid,experiment,0
49,114,24061,72,64,0,2,19,12,14.mid,experiment,0
50,116,24290,74,64,0,2,19,12,14.mid,experiment,0
51,118,24553,74,64,0,2,19,12,14.mid,experiment,0
52,120,25191,76,64,0,2,19,12,14.mid,experiment,0
53,122,25905,65,64,0,2,19,12,14.mid,experiment,0
54,124,26171,65,64,0,2,19,12,14.mid,experiment,0
55,126,26407,64,64,0,2,19,12,14.mid,experiment,0
56,128,26673,64,64,0,2,19,12,14.mid,experiment,0
57,130,27288,62,64,0,2,19,12,14.mid,experiment,0
58,132,28023,67,64,0,2,19,12,14.mid,experiment,0
59,134,28310,67,64,0,2,19,12,14.mid,experiment,0
60,136,28535,71,64,0,2,19,12,14.mid,experiment,0
61,138,28818,71,64,0,2,19,12,14.mid,experiment,0
62,140,29102,72,64,0,2,19,12,14.mid,experiment,0
63,142,29357,72,64,0,2,19,12,14.mid,experiment,0
64,144,29613,73,64,0,2,19,12,14.mid,experiment,0
65,146,29851,73,64,0,2,19,12,14.mid,experiment,0
66,149,30687,74,64,0,2,19,12,14.mid,experiment,0
67,151,31193,77,64,0,2,19,12,14.mid,experiment,0
68,153,31727,76,64,0,2,19,12,14.mid,experiment,0
69,155,32327,74,64,0,2,19,12,14.mid,experiment,0
70,156,32774,72,64,0,2,19,12,14.mid,experiment,0
71,158,33251,84,64,0,2,19,12,14.mid,experiment,0
72,160,34058,84,64,0,2,19,12,14.mid,experiment,0
1,19,9162,79,64,0,2,19,14,15.mid,experiment,0
2,21,9440,78,64,0,2,19,14,15.mid,experiment,0
3,23,9675,79,64,0,2,19,14,15.mid,experiment,0
4,25,9956,76,64,0,2,19,14,15.mid,experiment,0
5,26,10088,72,64,0,2,19,14,15.mid,experiment,0
6,28,10240,67,64,0,2,19,14,15.mid,experiment,0
7,30,10496,67,64,0,2,19,14,15.mid,experiment,0
8,32,10825,67,64,0,2,19,14,15.mid,experiment,0
9,35,11243,79,64,0,2,19,14,15.mid,experiment,0
10,37,11571,78,64,0,2,19,14,15.mid,experiment,0
11,39,11763,79,64,0,2,19,14,15.mid,experiment,0
12,41,12041,76,64,0,2,19,14,15.mid,experiment,0
13,43,12272,72,64,0,2,19,14,15.mid,experiment,0
14,45,12575,76,64,0,2,19,14,15.mid,experiment,0
15,47,12780,79,64,0,2,19,14,15.mid,experiment,0
16,49,13064,84,64,0,2,19,14,15.mid,experiment,0
17,50,13217,83,64,0,2,19,14,15.mid,experiment,0
18,52,13326,81,64,0,2,19,14,15.mid,experiment,0
19,54,13598,81,64,0,2,19,14,15.mid,experiment,0
20,56,13869,81,64,0,2,19,14,15.mid,experiment,0
21,59,14356,83,64,0,2,19,14,15.mid,experiment,0
22,61,14593,81,64,0,2,19,14,15.mid,experiment,0
23,63,14845,84,64,0,2,19,14,15.mid,experiment,0
24,65,15143,81,64,0,2,19,14,15.mid,experiment,0
25,67,15373,78,64,0,2,19,14,15.mid,experiment,0
26,68,15445,79,64,0,2,19,14,15.mid,experiment,0
27,70,15857,79,64,0,2,19,14,15.mid,experiment,0
28,72,16733,79,64,0,2,19,14,15.mid,experiment,0
29,74,17312,77,64,0,2,19,14,15.mid,experiment,0
30,76,17577,77,64,0,2,19,14,15.mid,experiment,0
31,78,17827,76,64,0,2,19,14,15.mid,experiment,0
32,80,18087,76,64,0,2,19,14,15.mid,experiment,0
33,82,18665,74,64,0,2,19,14,15.mid,experiment,0
34,84,19769,79,64,0,2,19,14,15.mid,experiment,0
35,86,20251,77,64,0,2,19,14,15.mid,experiment,0
36,88,20508,76,64,0,2,19,14,15.mid,experiment,0
37,90,20775,76,64,0,2,19,14,15.mid,experiment,0
38,92,21064,76,64,0,2,19,14,15.mid,experiment,0
39,94,21304,76,64,0,2,19,14,15.mid,experiment,0
40,97,21872,81,64,0,2,19,14,15.mid,experiment,0
41,99,22090,77,64,0,2,19,14,15.mid,experiment,0
42,101,22320,76,64,0,2,19,14,15.mid,experiment,0
43,103,22582,74,64,0,2,19,14,15.mid,experiment,0
44,105,22868,76,64,0,2,19,14,15.mid,experiment,0
45,107,23072,79,64,0,2,19,14,15.mid,experiment,0
46,108,23281,74,64,0,2,19,14,15.mid,experiment,0
47,111,23558,71,64,0,2,19,14,15.mid,experiment,0
48,112,23594,72,64,0,2,19,14,15.mid,experiment,0
49,114,23834,72,64,0,2,19,14,15.mid,experiment,0
50,116,24097,74,64,0,2,19,14,15.mid,experiment,0
51,118,24350,74,64,0,2,19,14,15.mid,experiment,0
52,120,25002,76,64,0,2,19,14,15.mid,experiment,0
53,122,25676,65,64,0,2,19,14,15.mid,experiment,0
54,124,25944,65,64,0,2,19,14,15.mid,experiment,0
55,126,26191,64,64,0,2,19,14,15.mid,experiment,0
56,128,26452,64,64,0,2,19,14,15.mid,experiment,0
57,130,27173,62,64,0,2,19,14,15.mid,experiment,0
58,132,27790,67,64,0,2,19,14,15.mid,experiment,0
59,134,28046,67,64,0,2,19,14,15.mid,experiment,0
60,136,28297,71,64,0,2,19,14,15.mid,experiment,0
61,138,28558,71,64,0,2,19,14,15.mid,experiment,0
62,140,28832,72,64,0,2,19,14,15.mid,experiment,0
63,142,29070,72,64,0,2,19,14,15.mid,experiment,0
64,144,29341,73,64,0,2,19,14,15.mid,experiment,0
65,146,29629,73,64,0,2,19,14,15.mid,experiment,0
66,149,30375,74,64,0,2,19,14,15.mid,experiment,0
67,151,30897,77,64,0,2,19,14,15.mid,experiment,0
68,153,31448,76,64,0,2,19,14,15.mid,experiment,0
69,155,31961,74,64,0,2,19,14,15.mid,experiment,0
70,156,32439,72,64,0,2,19,14,15.mid,experiment,0
71,158,32928,84,64,0,2,19,14,15.mid,experiment,0
72,160,33740,84,64,0,2,19,14,15.mid,experiment,0
1,19,8747,79,64,0,2,19,15,6.mid,experiment,0
2,21,9011,78,64,0,2,19,15,6.mid,experiment,0
3,23,9270,79,64,0,2,19,15,6.mid,experiment,0
4,25,9669,76,64,0,2,19,15,6.mid,experiment,0
5,26,9931,72,64,0,2,19,15,6.mid,experiment,0
6,28,10284,67,64,0,2,19,15,6.mid,experiment,0
7,30,10573,67,64,0,2,19,15,6.mid,experiment,0
8,32,10872,67,64,0,2,19,15,6.mid,experiment,0
9,35,11382,79,64,0,2,19,15,6.mid,experiment,0
10,37,11648,78,64,0,2,19,15,6.mid,experiment,0
11,39,11871,79,64,0,2,19,15,6.mid,experiment,0
12,41,12197,76,64,0,2,19,15,6.mid,experiment,0
13,43,12427,72,64,0,2,19,15,6.mid,experiment,0
14,45,12718,76,64,0,2,19,15,6.mid,experiment,0
15,47,12934,79,64,0,2,19,15,6.mid,experiment,0
16,49,13230,84,64,0,2,19,15,6.mid,experiment,0
17,50,13473,83,64,0,2,19,15,6.mid,experiment,0
18,52,13702,81,64,0,2,19,15,6.mid,experiment,0
19,54,13983,81,64,0,2,19,15,6.mid,experiment,0
20,56,14246,81,64,0,2,19,15,6.mid,experiment,0
21,59,14879,83,64,0,2,19,15,6.mid,experiment,0
22,61,15105,81,64,0,2,19,15,6.mid,experiment,0
23,63,15369,84,64,0,2,19,15,6.mid,experiment,0
24,65,15677,81,64,0,2,19,15,6.mid,experiment,0
25,66,15909,78,64,0,2,19,15,6.mid,experiment,0
26,68,16031,79,64,0,2,19,15,6.mid,experiment,0
27,70,16573,79,64,0,2,19,15,6.mid,experiment,0
28,72,17305,79,64,0,2,19,15,6.mid,experiment,0
29,74,17963,77,64,0,2,19,15,6.mid,experiment,0
30,76,18233,77,64,0,2,19,15,6.mid,experiment,0
31,78,18497,76,64,0,2,19,15,6.mid,experiment,0
32,80,18767,76,64,0,2,19,15,6.mid,experiment,0
33,82,19273,74,64,0,2,19,15,6.mid,experiment,0
34,84,20437,79,64,0,2,19,15,6.mid,experiment,0
35,86,20962,77,64,0,2,19,15,6.mid,experiment,0
36,88,21294,76,64,0,2,19,15,6.mid,experiment,0
37,90,21583,76,64,0,2,19,15,6.mid,experiment,0
38,92,21859,76,64,0,2,19,15,6.mid,experiment,0
39,94,22152,76,64,0,2,19,15,6.mid,experiment,0
40,97,22747,81,64,0,2,19,15,6.mid,experiment,0
41,99,22995,77,64,0,2,19,15,6.mid,experiment,0
42,101,23233,76,64,0,2,19,15,6.mid,experiment,0
43,102,23493,74,64,0,2,19,15,6.mid,experiment,0
44,105,23774,76,64,0,2,19,15,6.mid,experiment,0
45,107,24053,79,64,0,2,19,15,6.mid,experiment,0
46,109,24279,74,64,0,2,19,15,6.mid,experiment,0
47,110,24403,71,64,0,2,19,15,6.mid,experiment,0
48,112,24865,72,64,0,2,19,15,6.mid,experiment,0
49,114,25166,72,64,0,2,19,15,6.mid,experiment,0
50,116,25427,74,64,0,2,19,15,6.mid,experiment,0
51,118,25681,74,64,0,2,19,15,6.mid,experiment,0
52,120,26305,76,64,0,2,19,15,6.mid,experiment,0
53,122,27101,65,64,0,2,19,15,6.mid,experiment,0
54,124,27395,65,64,0,2,19,15,6.mid,experiment,0
55,126,27674,64,64,0,2,19,15,6.mid,experiment,0
56,128,27928,64,64,0,2,19,15,6.mid,experiment,0
57,130,28503,62,64,0,2,19,15,6.mid,experiment,0
58,132,29301,67,64,0,2,19,15,6.mid,experiment,0
59,134,29559,67,64,0,2,19,15,6.mid,experiment,0
60,136,29811,71,64,0,2,19,15,6.mid,experiment,0
61,138,30076,71,64,0,2,19,15,6.mid,experiment,0
62,140,30345,72,64,0,2,19,15,6.mid,experiment,0
63,142,30615,72,64,0,2,19,15,6.mid,experiment,0
64,144,30859,73,64,0,2,19,15,6.mid,experiment,0
65,146,31139,73,64,0,2,19,15,6.mid,experiment,0
66,149,31957,74,64,0,2,19,15,6.mid,experiment,0
67,151,32504,77,64,0,2,19,15,6.mid,experiment,0
68,153,33035,76,64,0,2,19,15,6.mid,experiment,0
69,155,33557,74,64,0,2,19,15,6.mid,experiment,0
70,156,33983,72,64,0,2,19,15,6.mid,experiment,0
71,158,34655,84,64,0,2,19,15,6.mid,experiment,0
72,160,35491,84,64,0,2,19,15,6.mid,experiment,0
1,19,8631,79,64,0,2,19,16,11.mid,experiment,0
2,21,8892,78,64,0,2,19,16,11.mid,experiment,0
3,23,9125,79,64,0,2,19,16,11.mid,experiment,0
4,25,9453,76,64,0,2,19,16,11.mid,experiment,0
5,26,9608,72,64,0,2,19,16,11.mid,experiment,0
6,28,9724,67,64,0,2,19,16,11.mid,experiment,0
7,30,9981,67,64,0,2,19,16,11.mid,experiment,0
8,32,10265,67,64,0,2,19,16,11.mid,experiment,0
9,35,10765,79,64,0,2,19,16,11.mid,experiment,0
10,37,11037,78,64,0,2,19,16,11.mid,experiment,0
11,39,11255,79,64,0,2,19,16,11.mid,experiment,0
12,41,11525,76,64,0,2,19,16,11.mid,experiment,0
13,43,11811,72,64,0,2,19,16,11.mid,experiment,0
14,45,12085,76,64,0,2,19,16,11.mid,experiment,0
15,47,12267,79,64,0,2,19,16,11.mid,experiment,0
16,49,12556,84,64,0,2,19,16,11.mid,experiment,0
17,50,12685,83,64,0,2,19,16,11.mid,experiment,0
18,52,12837,81,64,0,2,19,16,11.mid,experiment,0
19,54,13083,81,64,0,2,19,16,11.mid,experiment,0
20,56,13357,81,64,0,2,19,16,11.mid,experiment,0
21,59,13853,83,64,0,2,19,16,11.mid,experiment,0
22,61,14082,81,64,0,2,19,16,11.mid,experiment,0
23,63,14358,84,64,0,2,19,16,11.mid,experiment,0
24,65,14630,81,64,0,2,19,16,11.mid,experiment,0
25,67,14863,78,64,0,2,19,16,11.mid,experiment,0
26,68,14946,79,64,0,2,19,16,11.mid,experiment,0
27,70,15307,79,64,0,2,19,16,11.mid,experiment,0
28,72,16167,79,64,0,2,19,16,11.mid,experiment,0
29,74,16837,77,64,0,2,19,16,11.mid,experiment,0
30,76,17131,77,64,0,2,19,16,11.mid,experiment,0
31,78,17365,76,64,0,2,19,16,11.mid,experiment,0
32,80,17655,76,64,0,2,19,16,11.mid,experiment,0
33,82,18207,74,64,0,2,19,16,11.mid,experiment,0
34,84,19542,79,64,0,2,19,16,11.mid,experiment,0
35,86,20037,77,64,0,2,19,16,11.mid,experiment,0
36,88,20155,76,64,0,2,19,16,11.mid,experiment,0
37,90,20400,76,64,0,2,19,16,11.mid,experiment,0
38,92,20695,76,64,0,2,19,16,11.mid,experiment,0
39,94,20959,76,64,0,2,19,16,11.mid,experiment,0
40,97,21533,81,64,0,2,19,16,11.mid,experiment,0
41,99,21755,77,64,0,2,19,16,11.mid,experiment,0
42,101,21999,76,64,0,2,19,16,11.mid,experiment,0
43,103,22265,74,64,0,2,19,16,11.mid,experiment,0
44,105,22559,76,64,0,2,19,16,11.mid,experiment,0
45,107,22809,79,64,0,2,19,16,11.mid,experiment,0
46,109,23039,74,64,0,2,19,16,11.mid,experiment,0
47,110,23253,71,64,0,2,19,16,11.mid,experiment,0
48,112,23344,72,64,0,2,19,16,11.mid,experiment,0
49,114,23606,72,64,0,2,19,16,11.mid,experiment,0
50,116,23843,74,64,0,2,19,16,11.mid,experiment,0
51,118,24105,74,64,0,2,19,16,11.mid,experiment,0
52,120,24737,76,64,0,2,19,16,11.mid,experiment,0
53,122,25484,65,64,0,2,19,16,11.mid,experiment,0
54,124,25758,65,64,0,2,19,16,11.mid,experiment,0
55,126,26000,64,64,0,2,19,16,11.mid,experiment,0
56,128,26269,64,64,0,2,19,16,11.mid,experiment,0
57,130,26925,62,64,0,2,19,16,11.mid,experiment,0
58,132,27647,67,64,0,2,19,16,11.mid,experiment,0
59,134,27915,67,64,0,2,19,16,11.mid,experiment,0
60,136,28164,71,64,0,2,19,16,11.mid,experiment,0
61,138,28429,71,64,0,2,19,16,11.mid,experiment,0
62,140,28715,72,64,0,2,19,16,11.mid,experiment,0
63,142,28958,72,64,0,2,19,16,11.mid,experiment,0
64,144,29241,73,64,0,2,19,16,11.mid,experiment,0
65,146,29521,73,64,0,2,19,16,11.mid,experiment,0
66,149,30339,74,64,0,2,19,16,11.mid,experiment,0
67,151,30864,77,64,0,2,19,16,11.mid,experiment,0
68,153,31364,76,64,0,2,19,16,11.mid,experiment,0
69,155,31935,74,64,0,2,19,16,11.mid,experiment,0
70,157,32508,72,64,0,2,19,16,11.mid,experiment,0
71,158,32939,84,64,0,2,19,16,11.mid,experiment,0
72,160,33862,84,64,0,2,19,16,11.mid,experiment,0
1,19,10038,79,64,0,2,20,2,1.mid,experiment,0
2,21,10292,78,64,0,2,20,2,1.mid,experiment,0
3,23,10692,79,64,0,2,20,2,1.mid,experiment,0
4,25,10990,76,64,0,2,20,2,1.mid,experiment,0
5,27,11256,72,64,0,2,20,2,1.mid,experiment,0
6,28,11333,67,64,0,2,20,2,1.mid,experiment,0
7,30,11622,67,64,0,2,20,2,1.mid,experiment,0
8,32,11916,67,64,0,2,20,2,1.mid,experiment,0
9,35,12636,79,64,0,2,20,2,1.mid,experiment,0
10,37,12920,78,64,0,2,20,2,1.mid,experiment,0
11,39,13225,79,64,0,2,20,2,1.mid,experiment,0
12,41,13538,76,64,0,2,20,2,1.mid,experiment,0
13,43,13863,72,64,0,2,20,2,1.mid,experiment,0
14,45,14194,76,64,0,2,20,2,1.mid,experiment,0
15,47,14435,79,64,0,2,20,2,1.mid,experiment,0
16,49,14874,84,64,0,2,20,2,1.mid,experiment,0
17,51,15090,83,64,0,2,20,2,1.mid,experiment,0
18,52,15123,81,64,0,2,20,2,1.mid,experiment,0
19,54,15408,81,64,0,2,20,2,1.mid,experiment,0
20,56,15717,81,64,0,2,20,2,1.mid,experiment,0
21,59,16334,83,64,0,2,20,2,1.mid,experiment,0
22,61,16628,81,64,0,2,20,2,1.mid,experiment,0
23,63,17005,84,64,0,2,20,2,1.mid,experiment,0
24,65,17253,81,64,0,2,20,2,1.mid,experiment,0
25,67,17555,78,64,0,2,20,2,1.mid,experiment,0
26,68,17651,79,64,0,2,20,2,1.mid,experiment,0
27,70,18118,79,64,0,2,20,2,1.mid,experiment,0
28,72,19036,79,64,0,2,20,2,1.mid,experiment,0
29,74,19940,77,64,0,2,20,2,1.mid,experiment,0
30,76,20250,77,64,0,2,20,2,1.mid,experiment,0
31,78,20574,76,64,0,2,20,2,1.mid,experiment,0
32,80,20890,76,64,0,2,20,2,1.mid,experiment,0
33,82,21538,74,64,0,2,20,2,1.mid,experiment,0
34,85,23300,79,64,0,2,20,2,1.mid,experiment,0
35,87,23847,77,64,0,2,20,2,1.mid,experiment,0
36,88,23883,76,64,0,2,20,2,1.mid,experiment,0
37,90,24208,76,64,0,2,20,2,1.mid,experiment,0
38,92,24504,76,64,0,2,20,2,1.mid,experiment,0
39,94,24803,76,64,0,2,20,2,1.mid,experiment,0
40,97,25576,81,64,0,2,20,2,1.mid,experiment,0
41,99,25806,77,64,0,2,20,2,1.mid,experiment,0
42,101,26024,76,64,0,2,20,2,1.mid,experiment,0
43,103,26376,74,64,0,2,20,2,1.mid,experiment,0
44,105,26663,76,64,0,2,20,2,1.mid,experiment,0
45,107,27129,79,64,0,2,20,2,1.mid,experiment,0
46,109,27250,74,64,0,2,20,2,1.mid,experiment,0
47,111,27576,71,64,0,2,20,2,1.mid,experiment,0
48,112,27585,72,64,0,2,20,2,1.mid,experiment,0
49,114,27897,72,64,0,2,20,2,1.mid,experiment,0
50,116,28209,74,64,0,2,20,2,1.mid,experiment,0
51,118,28480,74,64,0,2,20,2,1.mid,experiment,0
52,120,29061,76,64,0,2,20,2,1.mid,experiment,0
53,122,30119,65,64,0,2,20,2,1.mid,experiment,0
54,124,30414,65,64,0,2,20,2,1.mid,experiment,0
55,126,30730,64,64,0,2,20,2,1.mid,experiment,0
56,128,31044,64,64,0,2,20,2,1.mid,experiment,0
57,130,31626,62,64,0,2,20,2,1.mid,experiment,0
58,132,32738,67,64,0,2,20,2,1.mid,experiment,0
59,134,33024,67,64,0,2,20,2,1.mid,experiment,0
60,136,33337,71,64,0,2,20,2,1.mid,experiment,0
61,138,33628,71,64,0,2,20,2,1.mid,experiment,0
62,140,33912,72,64,0,2,20,2,1.mid,experiment,0
63,142,34246,72,64,0,2,20,2,1.mid,experiment,0
64,144,34535,73,64,0,2,20,2,1.mid,experiment,0
65,146,34779,73,64,0,2,20,2,1.mid,experiment,0
66,149,35882,74,64,0,2,20,2,1.mid,experiment,0
67,151,36423,77,64,0,2,20,2,1.mid,experiment,0
68,153,37026,76,64,0,2,20,2,1.mid,experiment,0
69,155,37596,74,64,0,2,20,2,1.mid,experiment,0
70,157,38238,72,64,0,2,20,2,1.mid,experiment,0
71,158,38385,84,64,0,2,20,2,1.mid,experiment,0
72,160,39338,84,64,0,2,20,2,1.mid,experiment,0
1,19,9956,79,64,0,2,20,3,4.mid,experiment,0
2,20,10176,78,64,0,2,20,3,4.mid,experiment,0
3,23,10632,79,64,0,2,20,3,4.mid,experiment,0
4,25,10872,76,64,0,2,20,3,4.mid,experiment,0
5,27,11163,72,64,0,2,20,3,4.mid,experiment,0
6,28,11241,67,64,0,2,20,3,4.mid,experiment,0
7,30,11526,67,64,0,2,20,3,4.mid,experiment,0
8,32,11826,67,64,0,2,20,3,4.mid,experiment,0
9,35,12535,79,64,0,2,20,3,4.mid,experiment,0
10,37,12774,78,64,0,2,20,3,4.mid,experiment,0
11,39,13091,79,64,0,2,20,3,4.mid,experiment,0
12,41,13374,76,64,0,2,20,3,4.mid,experiment,0
13,43,13682,72,64,0,2,20,3,4.mid,experiment,0
14,45,14025,76,64,0,2,20,3,4.mid,experiment,0
15,47,14217,79,64,0,2,20,3,4.mid,experiment,0
16,49,14693,84,64,0,2,20,3,4.mid,experiment,0
17,51,14883,83,64,0,2,20,3,4.mid,experiment,0
18,52,14901,81,64,0,2,20,3,4.mid,experiment,0
19,54,15182,81,64,0,2,20,3,4.mid,experiment,0
20,56,15487,81,64,0,2,20,3,4.mid,experiment,0
21,59,16125,83,64,0,2,20,3,4.mid,experiment,0
22,60,16358,81,64,0,2,20,3,4.mid,experiment,0
23,63,16721,84,64,0,2,20,3,4.mid,experiment,0
24,65,16970,81,64,0,2,20,3,4.mid,experiment,0
25,67,17251,78,64,0,2,20,3,4.mid,experiment,0
26,68,17366,79,64,0,2,20,3,4.mid,experiment,0
27,70,17843,79,64,0,2,20,3,4.mid,experiment,0
28,72,18820,79,64,0,2,20,3,4.mid,experiment,0
29,74,19612,77,64,0,2,20,3,4.mid,experiment,0
30,76,19904,77,64,0,2,20,3,4.mid,experiment,0
31,78,20253,76,64,0,2,20,3,4.mid,experiment,0
32,80,20554,76,64,0,2,20,3,4.mid,experiment,0
33,82,21137,74,64,0,2,20,3,4.mid,experiment,0
34,85,22812,79,64,0,2,20,3,4.mid,experiment,0
35,87,23377,77,64,0,2,20,3,4.mid,experiment,0
36,88,23429,76,64,0,2,20,3,4.mid,experiment,0
37,90,23719,76,64,0,2,20,3,4.mid,experiment,0
38,92,24004,76,64,0,2,20,3,4.mid,experiment,0
39,94,24290,76,64,0,2,20,3,4.mid,experiment,0
40,97,25038,81,64,0,2,20,3,4.mid,experiment,0
41,99,25283,77,64,0,2,20,3,4.mid,experiment,0
42,100,25502,76,64,0,2,20,3,4.mid,experiment,0
43,103,25851,74,64,0,2,20,3,4.mid,experiment,0
44,105,26115,76,64,0,2,20,3,4.mid,experiment,0
45,107,26549,79,64,0,2,20,3,4.mid,experiment,0
46,109,26673,74,64,0,2,20,3,4.mid,experiment,0
47,111,27022,71,64,0,2,20,3,4.mid,experiment,0
48,112,27032,72,64,0,2,20,3,4.mid,experiment,0
49,114,27309,72,64,0,2,20,3,4.mid,experiment,0
50,116,27593,74,64,0,2,20,3,4.mid,experiment,0
51,118,27896,74,64,0,2,20,3,4.mid,experiment,0
52,120,28449,76,64,0,2,20,3,4.mid,experiment,0
53,122,29479,65,64,0,2,20,3,4.mid,experiment,0
54,124,29766,65,64,0,2,20,3,4.mid,experiment,0
55,126,30074,64,64,0,2,20,3,4.mid,experiment,0
56,128,30354,64,64,0,2,20,3,4.mid,experiment,0
57,130,30947,62,64,0,2,20,3,4.mid,experiment,0
58,132,31961,67,64,0,2,20,3,4.mid,experiment,0
59,134,32297,67,64,0,2,20,3,4.mid,experiment,0
60,136,32586,71,64,0,2,20,3,4.mid,experiment,0
61,138,32899,71,64,0,2,20,3,4.mid,experiment,0
62,140,33190,72,64,0,2,20,3,4.mid,experiment,0
63,142,33479,72,64,0,2,20,3,4.mid,experiment,0
64,144,33785,73,64,0,2,20,3,4.mid,experiment,0
65,146,34043,73,64,0,2,20,3,4.mid,experiment,0
66,149,35114,74,64,0,2,20,3,4.mid,experiment,0
67,151,35607,77,64,0,2,20,3,4.mid,experiment,0
68,153,36143,76,64,0,2,20,3,4.mid,experiment,0
69,154,36711,74,64,0,2,20,3,4.mid,experiment,0
70,156,37316,72,64,0,2,20,3,4.mid,experiment,0
71,158,37494,84,64,0,2,20,3,4.mid,experiment,0
72,160,38489,84,64,0,2,20,3,4.mid,experiment,0
1,19,10260,79,64,0,2,20,4,3.mid,experiment,0
2,20,10505,78,64,0,2,20,4,3.mid,experiment,0
3,23,10921,79,64,0,2,20,4,3.mid,experiment,0
4,25,11187,76,64,0,2,20,4,3.mid,experiment,0
5,27,11446,72,64,0,2,20,4,3.mid,experiment,0
6,28,11519,67,64,0,2,20,4,3.mid,experiment,0
7,30,11803,67,64,0,2,20,4,3.mid,experiment,0
8,32,12117,67,64,0,2,20,4,3.mid,experiment,0
9,35,12846,79,64,0,2,20,4,3.mid,experiment,0
10,37,13127,78,64,0,2,20,4,3.mid,experiment,0
11,39,13409,79,64,0,2,20,4,3.mid,experiment,0
12,41,13683,76,64,0,2,20,4,3.mid,experiment,0
13,43,14013,72,64,0,2,20,4,3.mid,experiment,0
14,45,14327,76,64,0,2,20,4,3.mid,experiment,0
15,47,14512,79,64,0,2,20,4,3.mid,experiment,0
16,49,14986,84,64,0,2,20,4,3.mid,experiment,0
17,51,15169,83,64,0,2,20,4,3.mid,experiment,0
18,52,15202,81,64,0,2,20,4,3.mid,experiment,0
19,54,15481,81,64,0,2,20,4,3.mid,experiment,0
20,56,15751,81,64,0,2,20,4,3.mid,experiment,0
21,59,16465,83,64,0,2,20,4,3.mid,experiment,0
22,60,16685,81,64,0,2,20,4,3.mid,experiment,0
23,63,17076,84,64,0,2,20,4,3.mid,experiment,0
24,65,17322,81,64,0,2,20,4,3.mid,experiment,0
25,66,17552,78,64,0,2,20,4,3.mid,experiment,0
26,68,17694,79,64,0,2,20,4,3.mid,experiment,0
27,70,18152,79,64,0,2,20,4,3.mid,experiment,0
28,72,19075,79,64,0,2,20,4,3.mid,experiment,0
29,74,19877,77,64,0,2,20,4,3.mid,experiment,0
30,76,20184,77,64,0,2,20,4,3.mid,experiment,0
31,78,20479,76,64,0,2,20,4,3.mid,experiment,0
32,80,20795,76,64,0,2,20,4,3.mid,experiment,0
33,82,21612,74,64,0,2,20,4,3.mid,experiment,0
34,85,23116,79,64,0,2,20,4,3.mid,experiment,0
35,87,23712,77,64,0,2,20,4,3.mid,experiment,0
36,88,23752,76,64,0,2,20,4,3.mid,experiment,0
37,90,24071,76,64,0,2,20,4,3.mid,experiment,0
38,92,24352,76,64,0,2,20,4,3.mid,experiment,0
39,94,24624,76,64,0,2,20,4,3.mid,experiment,0
40,97,25370,81,64,0,2,20,4,3.mid,experiment,0
41,99,25633,77,64,0,2,20,4,3.mid,experiment,0
42,101,25859,76,64,0,2,20,4,3.mid,experiment,0
43,103,26216,74,64,0,2,20,4,3.mid,experiment,0
44,105,26472,76,64,0,2,20,4,3.mid,experiment,0
45,107,26932,79,64,0,2,20,4,3.mid,experiment,0
46,109,27061,74,64,0,2,20,4,3.mid,experiment,0
47,111,27398,71,64,0,2,20,4,3.mid,experiment,0
48,112,27424,72,64,0,2,20,4,3.mid,experiment,0
49,114,27701,72,64,0,2,20,4,3.mid,experiment,0
50,116,27989,74,64,0,2,20,4,3.mid,experiment,0
51,118,28277,74,64,0,2,20,4,3.mid,experiment,0
52,120,29050,76,64,0,2,20,4,3.mid,experiment,0
53,122,29977,65,64,0,2,20,4,3.mid,experiment,0
54,124,30213,65,64,0,2,20,4,3.mid,experiment,0
55,126,30516,64,64,0,2,20,4,3.mid,experiment,0
56,128,30790,64,64,0,2,20,4,3.mid,experiment,0
57,130,31525,62,64,0,2,20,4,3.mid,experiment,0
58,132,32400,67,64,0,2,20,4,3.mid,experiment,0
59,134,32710,67,64,0,2,20,4,3.mid,experiment,0
60,136,33014,71,64,0,2,20,4,3.mid,experiment,0
61,138,33301,71,64,0,2,20,4,3.mid,experiment,0
62,140,33586,72,64,0,2,20,4,3.mid,experiment,0
63,142,33885,72,64,0,2,20,4,3.mid,experiment,0
64,144,34153,73,64,0,2,20,4,3.mid,experiment,0
65,146,34451,73,64,0,2,20,4,3.mid,experiment,0
66,149,35527,74,64,0,2,20,4,3.mid,experiment,0
67,151,36090,77,64,0,2,20,4,3.mid,experiment,0
68,153,36661,76,64,0,2,20,4,3.mid,experiment,0
69,154,37234,74,64,0,2,20,4,3.mid,experiment,0
70,157,37917,72,64,0,2,20,4,3.mid,experiment,0
71,158,38060,84,64,0,2,20,4,3.mid,experiment,0
72,160,38959,84,64,0,2,20,4,3.mid,experiment,0
1,19,9618,79,64,0,2,20,6,2.mid,experiment,0
2,21,9848,78,64,0,2,20,6,2.mid,experiment,0
3,23,10245,79,64,0,2,20,6,2.mid,experiment,0
4,25,10513,76,64,0,2,20,6,2.mid,experiment,0
5,26,10716,72,64,0,2,20,6,2.mid,experiment,0
6,28,10816,67,64,0,2,20,6,2.mid,experiment,0
7,30,11102,67,64,0,2,20,6,2.mid,experiment,0
8,32,11375,67,64,0,2,20,6,2.mid,experiment,0
9,35,12012,79,64,0,2,20,6,2.mid,experiment,0
10,37,12268,78,64,0,2,20,6,2.mid,experiment,0
11,39,12578,79,64,0,2,20,6,2.mid,experiment,0
12,40,12816,76,64,0,2,20,6,2.mid,experiment,0
13,43,13147,72,64,0,2,20,6,2.mid,experiment,0
14,45,13468,76,64,0,2,20,6,2.mid,experiment,0
15,47,13674,79,64,0,2,20,6,2.mid,experiment,0
16,49,14096,84,64,0,2,20,6,2.mid,experiment,0
17,51,14304,83,64,0,2,20,6,2.mid,experiment,0
18,52,14321,81,64,0,2,20,6,2.mid,experiment,0
19,54,14591,81,64,0,2,20,6,2.mid,experiment,0
20,56,14867,81,64,0,2,20,6,2.mid,experiment,0
21,59,15463,83,64,0,2,20,6,2.mid,experiment,0
22,60,15720,81,64,0,2,20,6,2.mid,experiment,0
23,63,16107,84,64,0,2,20,6,2.mid,experiment,0
24,65,16336,81,64,0,2,20,6,2.mid,experiment,0
25,67,16626,78,64,0,2,20,6,2.mid,experiment,0
26,68,16707,79,64,0,2,20,6,2.mid,experiment,0
27,70,17174,79,64,0,2,20,6,2.mid,experiment,0
28,72,18024,79,64,0,2,20,6,2.mid,experiment,0
29,74,18906,77,64,0,2,20,6,2.mid,experiment,0
30,76,19212,77,64,0,2,20,6,2.mid,experiment,0
31,78,19553,76,64,0,2,20,6,2.mid,experiment,0
32,80,19826,76,64,0,2,20,6,2.mid,experiment,0
33,82,20440,74,64,0,2,20,6,2.mid,experiment,0
34,85,22016,79,64,0,2,20,6,2.mid,experiment,0
35,87,22619,77,64,0,2,20,6,2.mid,experiment,0
36,88,22684,76,64,0,2,20,6,2.mid,experiment,0
37,90,22977,76,64,0,2,20,6,2.mid,experiment,0
38,92,23276,76,64,0,2,20,6,2.mid,experiment,0
39,94,23547,76,64,0,2,20,6,2.mid,experiment,0
40,97,24261,81,64,0,2,20,6,2.mid,experiment,0
41,99,24532,77,64,0,2,20,6,2.mid,experiment,0
42,101,24753,76,64,0,2,20,6,2.mid,experiment,0
43,103,25073,74,64,0,2,20,6,2.mid,experiment,0
44,105,25360,76,64,0,2,20,6,2.mid,experiment,0
45,107,25763,79,64,0,2,20,6,2.mid,experiment,0
46,109,25883,74,64,0,2,20,6,2.mid,experiment,0
47,111,26215,71,64,0,2,20,6,2.mid,experiment,0
48,112,26228,72,64,0,2,20,6,2.mid,experiment,0
49,114,26500,72,64,0,2,20,6,2.mid,experiment,0
50,116,26782,74,64,0,2,20,6,2.mid,experiment,0
51,118,27087,74,64,0,2,20,6,2.mid,experiment,0
52,120,27681,76,64,0,2,20,6,2.mid,experiment,0
53,122,28698,65,64,0,2,20,6,2.mid,experiment,0
54,124,28979,65,64,0,2,20,6,2.mid,experiment,0
55,126,29261,64,64,0,2,20,6,2.mid,experiment,0
56,128,29539,64,64,0,2,20,6,2.mid,experiment,0
57,130,30159,62,64,0,2,20,6,2.mid,experiment,0
58,132,31103,67,64,0,2,20,6,2.mid,experiment,0
59,134,31411,67,64,0,2,20,6,2.mid,experiment,0
60,136,31700,71,64,0,2,20,6,2.mid,experiment,0
61,138,32003,71,64,0,2,20,6,2.mid,experiment,0
62,140,32251,72,64,0,2,20,6,2.mid,experiment,0
63,142,32529,72,64,0,2,20,6,2.mid,experiment,0
64,144,32815,73,64,0,2,20,6,2.mid,experiment,0
65,146,33069,73,64,0,2,20,6,2.mid,experiment,0
66,149,34116,74,64,0,2,20,6,2.mid,experiment,0
67,151,34660,77,64,0,2,20,6,2.mid,experiment,0
68,153,35224,76,64,0,2,20,6,2.mid,experiment,0
69,154,35757,74,64,0,2,20,6,2.mid,experiment,0
70,157,36366,72,64,0,2,20,6,2.mid,experiment,0
71,158,36513,84,64,0,2,20,6,2.mid,experiment,0
72,160,37426,84,64,0,2,20,6,2.mid,experiment,0
1,19,9193,79,64,0,2,20,7,6.mid,experiment,0
2,20,9415,78,64,0,2,20,7,6.mid,experiment,0
3,23,9777,79,64,0,2,20,7,6.mid,experiment,0
4,25,10069,76,64,0,2,20,7,6.mid,experiment,0
5,26,10291,72,64,0,2,20,7,6.mid,experiment,0
6,28,10367,67,64,0,2,20,7,6.mid,experiment,0
7,30,10653,67,64,0,2,20,7,6.mid,experiment,0
8,32,10933,67,64,0,2,20,7,6.mid,experiment,0
9,35,11570,79,64,0,2,20,7,6.mid,experiment,0
10,37,11848,78,64,0,2,20,7,6.mid,experiment,0
11,39,12117,79,64,0,2,20,7,6.mid,experiment,0
12,41,12406,76,64,0,2,20,7,6.mid,experiment,0
13,43,12684,72,64,0,2,20,7,6.mid,experiment,0
14,45,13042,76,64,0,2,20,7,6.mid,experiment,0
15,47,13266,79,64,0,2,20,7,6.mid,experiment,0
16,49,13707,84,64,0,2,20,7,6.mid,experiment,0
17,51,13874,83,64,0,2,20,7,6.mid,experiment,0
18,52,13908,81,64,0,2,20,7,6.mid,experiment,0
19,54,14207,81,64,0,2,20,7,6.mid,experiment,0
20,56,14484,81,64,0,2,20,7,6.mid,experiment,0
21,59,15085,83,64,0,2,20,7,6.mid,experiment,0
22,60,15314,81,64,0,2,20,7,6.mid,experiment,0
23,63,15706,84,64,0,2,20,7,6.mid,experiment,0
24,65,15972,81,64,0,2,20,7,6.mid,experiment,0
25,67,16214,78,64,0,2,20,7,6.mid,experiment,0
26,68,16315,79,64,0,2,20,7,6.mid,experiment,0
27,70,16766,79,64,0,2,20,7,6.mid,experiment,0
28,72,17694,79,64,0,2,20,7,6.mid,experiment,0
29,74,18527,77,64,0,2,20,7,6.mid,experiment,0
30,76,18790,77,64,0,2,20,7,6.mid,experiment,0
31,78,19085,76,64,0,2,20,7,6.mid,experiment,0
32,80,19367,76,64,0,2,20,7,6.mid,experiment,0
33,82,20054,74,64,0,2,20,7,6.mid,experiment,0
34,85,21531,79,64,0,2,20,7,6.mid,experiment,0
35,87,22130,77,64,0,2,20,7,6.mid,experiment,0
36,88,22163,76,64,0,2,20,7,6.mid,experiment,0
37,90,22446,76,64,0,2,20,7,6.mid,experiment,0
38,92,22729,76,64,0,2,20,7,6.mid,experiment,0
39,94,23009,76,64,0,2,20,7,6.mid,experiment,0
40,97,23745,81,64,0,2,20,7,6.mid,experiment,0
41,99,23984,77,64,0,2,20,7,6.mid,experiment,0
42,101,24204,76,64,0,2,20,7,6.mid,experiment,0
43,103,24542,74,64,0,2,20,7,6.mid,experiment,0
44,105,24819,76,64,0,2,20,7,6.mid,experiment,0
45,107,25260,79,64,0,2,20,7,6.mid,experiment,0
46,109,25346,74,64,0,2,20,7,6.mid,experiment,0
47,111,25689,71,64,0,2,20,7,6.mid,experiment,0
48,112,25726,72,64,0,2,20,7,6.mid,experiment,0
49,114,26018,72,64,0,2,20,7,6.mid,experiment,0
50,116,26311,74,64,0,2,20,7,6.mid,experiment,0
51,118,26589,74,64,0,2,20,7,6.mid,experiment,0
52,120,27143,76,64,0,2,20,7,6.mid,experiment,0
53,122,28157,65,64,0,2,20,7,6.mid,experiment,0
54,124,28432,65,64,0,2,20,7,6.mid,experiment,0
55,126,28731,64,64,0,2,20,7,6.mid,experiment,0
56,128,29010,64,64,0,2,20,7,6.mid,experiment,0
57,130,29549,62,64,0,2,20,7,6.mid,experiment,0
58,132,30542,67,64,0,2,20,7,6.mid,experiment,0
59,134,30822,67,64,0,2,20,7,6.mid,experiment,0
60,136,31092,71,64,0,2,20,7,6.mid,experiment,0
61,138,31397,71,64,0,2,20,7,6.mid,experiment,0
62,140,31650,72,64,0,2,20,7,6.mid,experiment,0
63,142,31932,72,64,0,2,20,7,6.mid,experiment,0
64,144,32205,73,64,0,2,20,7,6.mid,experiment,0
65,146,32465,73,64,0,2,20,7,6.mid,experiment,0
66,149,33496,74,64,0,2,20,7,6.mid,experiment,0
67,151,33961,77,64,0,2,20,7,6.mid,experiment,0
68,153,34559,76,64,0,2,20,7,6.mid,experiment,0
69,154,35089,74,64,0,2,20,7,6.mid,experiment,0
70,156,35685,72,64,0,2,20,7,6.mid,experiment,0
71,158,35813,84,64,0,2,20,7,6.mid,experiment,0
72,160,36690,84,64,0,2,20,7,6.mid,experiment,0
1,19,9341,79,64,0,2,20,8,13.mid,experiment,0
2,21,9586,78,64,0,2,20,8,13.mid,experiment,0
3,23,9974,79,64,0,2,20,8,13.mid,experiment,0
4,25,10241,76,64,0,2,20,8,13.mid,experiment,0
5,27,10513,72,64,0,2,20,8,13.mid,experiment,0
6,28,10580,67,64,0,2,20,8,13.mid,experiment,0
7,30,10847,67,64,0,2,20,8,13.mid,experiment,0
8,32,11123,67,64,0,2,20,8,13.mid,experiment,0
9,35,11769,79,64,0,2,20,8,13.mid,experiment,0
10,37,12047,78,64,0,2,20,8,13.mid,experiment,0
11,39,12339,79,64,0,2,20,8,13.mid,experiment,0
12,41,12601,76,64,0,2,20,8,13.mid,experiment,0
13,43,12892,72,64,0,2,20,8,13.mid,experiment,0
14,45,13241,76,64,0,2,20,8,13.mid,experiment,0
15,47,13444,79,64,0,2,20,8,13.mid,experiment,0
16,49,13886,84,64,0,2,20,8,13.mid,experiment,0
17,51,14056,83,64,0,2,20,8,13.mid,experiment,0
18,52,14088,81,64,0,2,20,8,13.mid,experiment,0
19,54,14382,81,64,0,2,20,8,13.mid,experiment,0
20,56,14640,81,64,0,2,20,8,13.mid,experiment,0
21,59,15234,83,64,0,2,20,8,13.mid,experiment,0
22,61,15491,81,64,0,2,20,8,13.mid,experiment,0
23,63,15866,84,64,0,2,20,8,13.mid,experiment,0
24,65,16132,81,64,0,2,20,8,13.mid,experiment,0
25,67,16406,78,64,0,2,20,8,13.mid,experiment,0
26,68,16486,79,64,0,2,20,8,13.mid,experiment,0
27,70,16923,79,64,0,2,20,8,13.mid,experiment,0
28,72,17768,79,64,0,2,20,8,13.mid,experiment,0
29,74,18648,77,64,0,2,20,8,13.mid,experiment,0
30,76,18932,77,64,0,2,20,8,13.mid,experiment,0
31,78,19233,76,64,0,2,20,8,13.mid,experiment,0
32,80,19523,76,64,0,2,20,8,13.mid,experiment,0
33,82,20132,74,64,0,2,20,8,13.mid,experiment,0
34,85,21674,79,64,0,2,20,8,13.mid,experiment,0
35,87,22246,77,64,0,2,20,8,13.mid,experiment,0
36,88,22291,76,64,0,2,20,8,13.mid,experiment,0
37,90,22590,76,64,0,2,20,8,13.mid,experiment,0
38,92,22872,76,64,0,2,20,8,13.mid,experiment,0
39,94,23140,76,64,0,2,20,8,13.mid,experiment,0
40,97,23820,81,64,0,2,20,8,13.mid,experiment,0
41,99,24070,77,64,0,2,20,8,13.mid,experiment,0
42,101,24285,76,64,0,2,20,8,13.mid,experiment,0
43,103,24645,74,64,0,2,20,8,13.mid,experiment,0
44,105,24888,76,64,0,2,20,8,13.mid,experiment,0
45,107,25403,79,64,0,2,20,8,13.mid,experiment,0
46,108,25450,74,64,0,2,20,8,13.mid,experiment,0
47,111,25788,71,64,0,2,20,8,13.mid,experiment,0
48,112,25805,72,64,0,2,20,8,13.mid,experiment,0
49,114,26100,72,64,0,2,20,8,13.mid,experiment,0
50,116,26393,74,64,0,2,20,8,13.mid,experiment,0
51,118,26667,74,64,0,2,20,8,13.mid,experiment,0
52,120,27218,76,64,0,2,20,8,13.mid,experiment,0
53,122,28163,65,64,0,2,20,8,13.mid,experiment,0
54,124,28449,65,64,0,2,20,8,13.mid,experiment,0
55,126,28751,64,64,0,2,20,8,13.mid,experiment,0
56,128,29021,64,64,0,2,20,8,13.mid,experiment,0
57,130,29655,62,64,0,2,20,8,13.mid,experiment,0
58,132,30598,67,64,0,2,20,8,13.mid,experiment,0
59,134,30892,67,64,0,2,20,8,13.mid,experiment,0
60,136,31198,71,64,0,2,20,8,13.mid,experiment,0
61,138,31472,71,64,0,2,20,8,13.mid,experiment,0
62,140,31738,72,64,0,2,20,8,13.mid,experiment,0
63,142,32020,72,64,0,2,20,8,13.mid,experiment,0
64,144,32288,73,64,0,2,20,8,13.mid,experiment,0
65,146,32572,73,64,0,2,20,8,13.mid,experiment,0
66,149,33553,74,64,0,2,20,8,13.mid,experiment,0
67,151,34126,77,64,0,2,20,8,13.mid,experiment,0
68,153,34674,76,64,0,2,20,8,13.mid,experiment,0
69,155,35209,74,64,0,2,20,8,13.mid,experiment,0
70,157,35798,72,64,0,2,20,8,13.mid,experiment,0
71,158,35943,84,64,0,2,20,8,13.mid,experiment,0
72,160,36849,84,64,0,2,20,8,13.mid,experiment,0
1,19,9280,79,64,0,2,20,9,14.mid,experiment,0
2,21,9484,78,64,0,2,20,9,14.mid,experiment,0
3,23,9873,79,64,0,2,20,9,14.mid,experiment,0
4,25,10145,76,64,0,2,20,9,14.mid,experiment,0
5,26,10383,72,64,0,2,20,9,14.mid,experiment,0
6,28,10459,67,64,0,2,20,9,14.mid,experiment,0
7,30,10751,67,64,0,2,20,9,14.mid,experiment,0
8,32,11049,67,64,0,2,20,9,14.mid,experiment,0
9,35,11717,79,64,0,2,20,9,14.mid,experiment,0
10,37,11976,78,64,0,2,20,9,14.mid,experiment,0
11,39,12285,79,64,0,2,20,9,14.mid,experiment,0
12,41,12551,76,64,0,2,20,9,14.mid,experiment,0
13,43,12901,72,64,0,2,20,9,14.mid,experiment,0
14,45,13209,76,64,0,2,20,9,14.mid,experiment,0
15,47,13390,79,64,0,2,20,9,14.mid,experiment,0
16,49,13815,84,64,0,2,20,9,14.mid,experiment,0
17,51,14031,83,64,0,2,20,9,14.mid,experiment,0
18,52,14045,81,64,0,2,20,9,14.mid,experiment,0
19,54,14336,81,64,0,2,20,9,14.mid,experiment,0
20,56,14593,81,64,0,2,20,9,14.mid,experiment,0
21,59,15257,83,64,0,2,20,9,14.mid,experiment,0
22,60,15487,81,64,0,2,20,9,14.mid,experiment,0
23,63,15861,84,64,0,2,20,9,14.mid,experiment,0
24,65,16117,81,64,0,2,20,9,14.mid,experiment,0
25,66,16365,78,64,0,2,20,9,14.mid,experiment,0
26,68,16451,79,64,0,2,20,9,14.mid,experiment,0
27,70,16919,79,64,0,2,20,9,14.mid,experiment,0
28,72,17813,79,64,0,2,20,9,14.mid,experiment,0
29,74,18700,77,64,0,2,20,9,14.mid,experiment,0
30,76,19004,77,64,0,2,20,9,14.mid,experiment,0
31,78,19319,76,64,0,2,20,9,14.mid,experiment,0
32,80,19581,76,64,0,2,20,9,14.mid,experiment,0
33,82,20222,74,64,0,2,20,9,14.mid,experiment,0
34,85,21873,79,64,0,2,20,9,14.mid,experiment,0
35,87,22440,77,64,0,2,20,9,14.mid,experiment,0
36,88,22493,76,64,0,2,20,9,14.mid,experiment,0
37,90,22781,76,64,0,2,20,9,14.mid,experiment,0
38,92,23078,76,64,0,2,20,9,14.mid,experiment,0
39,94,23351,76,64,0,2,20,9,14.mid,experiment,0
40,97,24049,81,64,0,2,20,9,14.mid,experiment,0
41,99,24303,77,64,0,2,20,9,14.mid,experiment,0
42,101,24543,76,64,0,2,20,9,14.mid,experiment,0
43,103,24865,74,64,0,2,20,9,14.mid,experiment,0
44,105,25123,76,64,0,2,20,9,14.mid,experiment,0
45,107,25576,79,64,0,2,20,9,14.mid,experiment,0
46,109,25682,74,64,0,2,20,9,14.mid,experiment,0
47,111,26004,71,64,0,2,20,9,14.mid,experiment,0
48,112,26040,72,64,0,2,20,9,14.mid,experiment,0
49,114,26309,72,64,0,2,20,9,14.mid,experiment,0
50,116,26598,74,64,0,2,20,9,14.mid,experiment,0
51,118,26891,74,64,0,2,20,9,14.mid,experiment,0
52,120,27529,76,64,0,2,20,9,14.mid,experiment,0
53,122,28502,65,64,0,2,20,9,14.mid,experiment,0
54,124,28768,65,64,0,2,20,9,14.mid,experiment,0
55,126,29059,64,64,0,2,20,9,14.mid,experiment,0
56,128,29335,64,64,0,2,20,9,14.mid,experiment,0
57,130,30018,62,64,0,2,20,9,14.mid,experiment,0
58,132,30965,67,64,0,2,20,9,14.mid,experiment,0
59,134,31233,67,64,0,2,20,9,14.mid,experiment,0
60,136,31533,71,64,0,2,20,9,14.mid,experiment,0
61,138,31831,71,64,0,2,20,9,14.mid,experiment,0
62,140,32081,72,64,0,2,20,9,14.mid,experiment,0
63,142,32371,72,64,0,2,20,9,14.mid,experiment,0
64,144,32653,73,64,0,2,20,9,14.mid,experiment,0
65,146,32889,73,64,0,2,20,9,14.mid,experiment,0
66,149,33943,74,64,0,2,20,9,14.mid,experiment,0
67,151,34495,77,64,0,2,20,9,14.mid,experiment,0
68,153,35117,76,64,0,2,20,9,14.mid,experiment,0
69,154,35587,74,64,0,2,20,9,14.mid,experiment,0
70,157,36191,72,64,0,2,20,9,14.mid,experiment,0
71,158,36351,84,64,0,2,20,9,14.mid,experiment,0
72,160,37247,84,64,0,2,20,9,14.mid,experiment,0
1,19,9511,79,64,0,2,20,10,5.mid,experiment,0
2,21,9732,78,64,0,2,20,10,5.mid,experiment,0
3,23,10102,79,64,0,2,20,10,5.mid,experiment,0
4,25,10413,76,64,0,2,20,10,5.mid,experiment,0
5,27,10658,72,64,0,2,20,10,5.mid,experiment,0
6,28,10745,67,64,0,2,20,10,5.mid,experiment,0
7,30,11009,67,64,0,2,20,10,5.mid,experiment,0
8,32,11308,67,64,0,2,20,10,5.mid,experiment,0
9,35,12037,79,64,0,2,20,10,5.mid,experiment,0
10,37,12278,78,64,0,2,20,10,5.mid,experiment,0
11,39,12573,79,64,0,2,20,10,5.mid,experiment,0
12,41,12858,76,64,0,2,20,10,5.mid,experiment,0
13,43,13178,72,64,0,2,20,10,5.mid,experiment,0
14,45,13492,76,64,0,2,20,10,5.mid,experiment,0
15,47,13703,79,64,0,2,20,10,5.mid,experiment,0
16,49,14142,84,64,0,2,20,10,5.mid,experiment,0
17,51,14339,83,64,0,2,20,10,5.mid,experiment,0
18,52,14362,81,64,0,2,20,10,5.mid,experiment,0
19,54,14652,81,64,0,2,20,10,5.mid,experiment,0
20,56,14927,81,64,0,2,20,10,5.mid,experiment,0
21,59,15539,83,64,0,2,20,10,5.mid,experiment,0
22,61,15801,81,64,0,2,20,10,5.mid,experiment,0
23,63,16147,84,64,0,2,20,10,5.mid,experiment,0
24,65,16387,81,64,0,2,20,10,5.mid,experiment,0
25,67,16644,78,64,0,2,20,10,5.mid,experiment,0
26,68,16764,79,64,0,2,20,10,5.mid,experiment,0
27,70,17294,79,64,0,2,20,10,5.mid,experiment,0
28,72,18173,79,64,0,2,20,10,5.mid,experiment,0
29,74,19033,77,64,0,2,20,10,5.mid,experiment,0
30,76,19312,77,64,0,2,20,10,5.mid,experiment,0
31,78,19609,76,64,0,2,20,10,5.mid,experiment,0
32,80,19895,76,64,0,2,20,10,5.mid,experiment,0
33,82,20562,74,64,0,2,20,10,5.mid,experiment,0
34,85,22157,79,64,0,2,20,10,5.mid,experiment,0
35,87,22756,77,64,0,2,20,10,5.mid,experiment,0
36,88,22811,76,64,0,2,20,10,5.mid,experiment,0
37,90,23085,76,64,0,2,20,10,5.mid,experiment,0
38,92,23384,76,64,0,2,20,10,5.mid,experiment,0
39,94,23663,76,64,0,2,20,10,5.mid,experiment,0
40,97,24381,81,64,0,2,20,10,5.mid,experiment,0
41,99,24641,77,64,0,2,20,10,5.mid,experiment,0
42,101,24855,76,64,0,2,20,10,5.mid,experiment,0
43,103,25181,74,64,0,2,20,10,5.mid,experiment,0
44,105,25477,76,64,0,2,20,10,5.mid,experiment,0
45,107,25909,79,64,0,2,20,10,5.mid,experiment,0
46,109,25980,74,64,0,2,20,10,5.mid,experiment,0
47,111,26326,71,64,0,2,20,10,5.mid,experiment,0
48,112,26361,72,64,0,2,20,10,5.mid,experiment,0
49,114,26642,72,64,0,2,20,10,5.mid,experiment,0
50,116,26936,74,64,0,2,20,10,5.mid,experiment,0
51,118,27226,74,64,0,2,20,10,5.mid,experiment,0
52,120,27842,76,64,0,2,20,10,5.mid,experiment,0
53,122,28827,65,64,0,2,20,10,5.mid,experiment,0
54,124,29117,65,64,0,2,20,10,5.mid,experiment,0
55,126,29410,64,64,0,2,20,10,5.mid,experiment,0
56,128,29678,64,64,0,2,20,10,5.mid,experiment,0
57,130,30481,62,64,0,2,20,10,5.mid,experiment,0
58,132,31333,67,64,0,2,20,10,5.mid,experiment,0
59,134,31603,67,64,0,2,20,10,5.mid,experiment,0
60,136,31933,71,64,0,2,20,10,5.mid,experiment,0
61,138,32199,71,64,0,2,20,10,5.mid,experiment,0
62,140,32451,72,64,0,2,20,10,5.mid,experiment,0
63,142,32742,72,64,0,2,20,10,5.mid,experiment,0
64,144,33032,73,64,0,2,20,10,5.mid,experiment,0
65,146,33274,73,64,0,2,20,10,5.mid,experiment,0
66,149,34416,74,64,0,2,20,10,5.mid,experiment,0
67,151,34845,77,64,0,2,20,10,5.mid,experiment,0
68,153,35462,76,64,0,2,20,10,5.mid,experiment,0
69,155,35988,74,64,0,2,20,10,5.mid,experiment,0
70,156,36590,72,64,0,2,20,10,5.mid,experiment,0
71,158,36798,84,64,0,2,20,10,5.mid,experiment,0
72,160,37687,84,64,0,2,20,10,5.mid,experiment,0
1,19,9674,79,64,0,2,20,11,8.mid,experiment,0
2,21,9928,78,64,0,2,20,11,8.mid,experiment,0
3,23,10302,79,64,0,2,20,11,8.mid,experiment,0
4,25,10541,76,64,0,2,20,11,8.mid,experiment,0
5,26,10806,72,64,0,2,20,11,8.mid,experiment,0
6,28,10890,67,64,0,2,20,11,8.mid,experiment,0
7,30,11162,67,64,0,2,20,11,8.mid,experiment,0
8,32,11450,67,64,0,2,20,11,8.mid,experiment,0
9,35,12144,79,64,0,2,20,11,8.mid,experiment,0
10,36,12410,78,64,0,2,20,11,8.mid,experiment,0
11,39,12734,79,64,0,2,20,11,8.mid,experiment,0
12,41,12973,76,64,0,2,20,11,8.mid,experiment,0
13,43,13304,72,64,0,2,20,11,8.mid,experiment,0
14,45,13664,76,64,0,2,20,11,8.mid,experiment,0
15,47,13847,79,64,0,2,20,11,8.mid,experiment,0
16,49,14286,84,64,0,2,20,11,8.mid,experiment,0
17,51,14464,83,64,0,2,20,11,8.mid,experiment,0
18,52,14471,81,64,0,2,20,11,8.mid,experiment,0
19,54,14761,81,64,0,2,20,11,8.mid,experiment,0
20,56,15046,81,64,0,2,20,11,8.mid,experiment,0
21,59,15630,83,64,0,2,20,11,8.mid,experiment,0
22,61,15902,81,64,0,2,20,11,8.mid,experiment,0
23,63,16256,84,64,0,2,20,11,8.mid,experiment,0
24,65,16497,81,64,0,2,20,11,8.mid,experiment,0
25,66,16727,78,64,0,2,20,11,8.mid,experiment,0
26,68,16850,79,64,0,2,20,11,8.mid,experiment,0
27,70,17374,79,64,0,2,20,11,8.mid,experiment,0
28,72,18244,79,64,0,2,20,11,8.mid,experiment,0
29,74,19098,77,64,0,2,20,11,8.mid,experiment,0
30,76,19428,77,64,0,2,20,11,8.mid,experiment,0
31,78,19716,76,64,0,2,20,11,8.mid,experiment,0
32,80,20020,76,64,0,2,20,11,8.mid,experiment,0
33,82,20586,74,64,0,2,20,11,8.mid,experiment,0
34,85,22220,79,64,0,2,20,11,8.mid,experiment,0
35,87,22840,77,64,0,2,20,11,8.mid,experiment,0
36,88,22884,76,64,0,2,20,11,8.mid,experiment,0
37,90,23188,76,64,0,2,20,11,8.mid,experiment,0
38,92,23468,76,64,0,2,20,11,8.mid,experiment,0
39,94,23742,76,64,0,2,20,11,8.mid,experiment,0
40,97,24451,81,64,0,2,20,11,8.mid,experiment,0
41,99,24698,77,64,0,2,20,11,8.mid,experiment,0
42,101,24918,76,64,0,2,20,11,8.mid,experiment,0
43,103,25240,74,64,0,2,20,11,8.mid,experiment,0
44,105,25492,76,64,0,2,20,11,8.mid,experiment,0
45,107,25952,79,64,0,2,20,11,8.mid,experiment,0
46,108,26034,74,64,0,2,20,11,8.mid,experiment,0
47,110,26366,71,64,0,2,20,11,8.mid,experiment,0
48,112,26438,72,64,0,2,20,11,8.mid,experiment,0
49,114,26708,72,64,0,2,20,11,8.mid,experiment,0
50,116,26992,74,64,0,2,20,11,8.mid,experiment,0
51,118,27290,74,64,0,2,20,11,8.mid,experiment,0
52,120,27876,76,64,0,2,20,11,8.mid,experiment,0
53,122,28886,65,64,0,2,20,11,8.mid,experiment,0
54,124,29172,65,64,0,2,20,11,8.mid,experiment,0
55,126,29484,64,64,0,2,20,11,8.mid,experiment,0
56,128,29758,64,64,0,2,20,11,8.mid,experiment,0
57,130,30366,62,64,0,2,20,11,8.mid,experiment,0
58,132,31383,67,64,0,2,20,11,8.mid,experiment,0
59,134,31680,67,64,0,2,20,11,8.mid,experiment,0
60,136,31968,71,64,0,2,20,11,8.mid,experiment,0
61,138,32242,71,64,0,2,20,11,8.mid,experiment,0
62,140,32529,72,64,0,2,20,11,8.mid,experiment,0
63,142,32804,72,64,0,2,20,11,8.mid,experiment,0
64,144,33058,73,64,0,2,20,11,8.mid,experiment,0
65,146,33314,73,64,0,2,20,11,8.mid,experiment,0
66,149,34388,74,64,0,2,20,11,8.mid,experiment,0
67,151,34918,77,64,0,2,20,11,8.mid,experiment,0
68,153,35529,76,64,0,2,20,11,8.mid,experiment,0
69,154,35983,74,64,0,2,20,11,8.mid,experiment,0
70,157,36602,72,64,0,2,20,11,8.mid,experiment,0
71,158,36762,84,64,0,2,20,11,8.mid,experiment,0
72,160,37685,84,64,0,2,20,11,8.mid,experiment,0
1,19,9477,79,64,0,2,20,12,12.mid,experiment,0
2,21,9765,78,64,0,2,20,12,12.mid,experiment,0
3,23,10146,79,64,0,2,20,12,12.mid,experiment,0
4,25,10392,76,64,0,2,20,12,12.mid,experiment,0
5,26,10623,72,64,0,2,20,12,12.mid,experiment,0
6,28,10690,67,64,0,2,20,12,12.mid,experiment,0
7,30,10988,67,64,0,2,20,12,12.mid,experiment,0
8,32,11267,67,64,0,2,20,12,12.mid,experiment,0
9,35,11928,79,64,0,2,20,12,12.mid,experiment,0
10,37,12174,78,64,0,2,20,12,12.mid,experiment,0
11,39,12454,79,64,0,2,20,12,12.mid,experiment,0
12,41,12728,76,64,0,2,20,12,12.mid,experiment,0
13,43,13101,72,64,0,2,20,12,12.mid,experiment,0
14,45,13371,76,64,0,2,20,12,12.mid,experiment,0
15,47,13574,79,64,0,2,20,12,12.mid,experiment,0
16,49,14032,84,64,0,2,20,12,12.mid,experiment,0
17,51,14193,83,64,0,2,20,12,12.mid,experiment,0
18,52,14206,81,64,0,2,20,12,12.mid,experiment,0
19,54,14502,81,64,0,2,20,12,12.mid,experiment,0
20,56,14773,81,64,0,2,20,12,12.mid,experiment,0
21,59,15366,83,64,0,2,20,12,12.mid,experiment,0
22,60,15613,81,64,0,2,20,12,12.mid,experiment,0
23,63,15966,84,64,0,2,20,12,12.mid,experiment,0
24,65,16205,81,64,0,2,20,12,12.mid,experiment,0
25,67,16465,78,64,0,2,20,12,12.mid,experiment,0
26,68,16563,79,64,0,2,20,12,12.mid,experiment,0
27,70,17080,79,64,0,2,20,12,12.mid,experiment,0
28,72,17829,79,64,0,2,20,12,12.mid,experiment,0
29,74,18728,77,64,0,2,20,12,12.mid,experiment,0
30,76,19016,77,64,0,2,20,12,12.mid,experiment,0
31,78,19299,76,64,0,2,20,12,12.mid,experiment,0
32,80,19577,76,64,0,2,20,12,12.mid,experiment,0
33,82,20240,74,64,0,2,20,12,12.mid,experiment,0
34,84,21712,79,64,0,2,20,12,12.mid,experiment,0
35,87,22345,77,64,0,2,20,12,12.mid,experiment,0
36,88,22401,76,64,0,2,20,12,12.mid,experiment,0
37,90,22689,76,64,0,2,20,12,12.mid,experiment,0
38,92,22963,76,64,0,2,20,12,12.mid,experiment,0
39,94,23252,76,64,0,2,20,12,12.mid,experiment,0
40,97,23908,81,64,0,2,20,12,12.mid,experiment,0
41,99,24156,77,64,0,2,20,12,12.mid,experiment,0
42,101,24386,76,64,0,2,20,12,12.mid,experiment,0
43,103,24699,74,64,0,2,20,12,12.mid,experiment,0
44,105,25004,76,64,0,2,20,12,12.mid,experiment,0
45,107,25431,79,64,0,2,20,12,12.mid,experiment,0
46,109,25544,74,64,0,2,20,12,12.mid,experiment,0
47,111,25840,71,64,0,2,20,12,12.mid,experiment,0
48,112,25858,72,64,0,2,20,12,12.mid,experiment,0
49,114,26142,72,64,0,2,20,12,12.mid,experiment,0
50,116,26420,74,64,0,2,20,12,12.mid,experiment,0
51,118,26721,74,64,0,2,20,12,12.mid,experiment,0
52,120,27357,76,64,0,2,20,12,12.mid,experiment,0
53,122,28233,65,64,0,2,20,12,12.mid,experiment,0
54,124,28520,65,64,0,2,20,12,12.mid,experiment,0
55,126,28812,64,64,0,2,20,12,12.mid,experiment,0
56,128,29069,64,64,0,2,20,12,12.mid,experiment,0
57,130,29769,62,64,0,2,20,12,12.mid,experiment,0
58,132,30668,67,64,0,2,20,12,12.mid,experiment,0
59,134,30945,67,64,0,2,20,12,12.mid,experiment,0
60,136,31251,71,64,0,2,20,12,12.mid,experiment,0
61,138,31541,71,64,0,2,20,12,12.mid,experiment,0
62,140,31787,72,64,0,2,20,12,12.mid,experiment,0
63,142,32065,72,64,0,2,20,12,12.mid,experiment,0
64,144,32356,73,64,0,2,20,12,12.mid,experiment,0
65,146,32598,73,64,0,2,20,12,12.mid,experiment,0
66,149,33673,74,64,0,2,20,12,12.mid,experiment,0
67,151,34221,77,64,0,2,20,12,12.mid,experiment,0
68,153,34818,76,64,0,2,20,12,12.mid,experiment,0
69,154,35295,74,64,0,2,20,12,12.mid,experiment,0
70,157,35899,72,64,0,2,20,12,12.mid,experiment,0
71,158,36049,84,64,0,2,20,12,12.mid,experiment,0
72,160,36996,84,64,0,2,20,12,12.mid,experiment,0
1,19,9482,79,64,0,2,20,13,10.mid,experiment,0
2,20,9691,78,64,0,2,20,13,10.mid,experiment,0
3,23,10128,79,64,0,2,20,13,10.mid,experiment,0
4,25,10359,76,64,0,2,20,13,10.mid,experiment,0
5,26,10591,72,64,0,2,20,13,10.mid,experiment,0
6,28,10674,67,64,0,2,20,13,10.mid,experiment,0
7,30,10963,67,64,0,2,20,13,10.mid,experiment,0
8,32,11236,67,64,0,2,20,13,10.mid,experiment,0
9,35,11911,79,64,0,2,20,13,10.mid,experiment,0
10,37,12174,78,64,0,2,20,13,10.mid,experiment,0
11,39,12468,79,64,0,2,20,13,10.mid,experiment,0
12,40,12705,76,64,0,2,20,13,10.mid,experiment,0
13,43,13035,72,64,0,2,20,13,10.mid,experiment,0
14,45,13370,76,64,0,2,20,13,10.mid,experiment,0
15,47,13592,79,64,0,2,20,13,10.mid,experiment,0
16,49,14042,84,64,0,2,20,13,10.mid,experiment,0
17,51,14227,83,64,0,2,20,13,10.mid,experiment,0
18,52,14261,81,64,0,2,20,13,10.mid,experiment,0
19,54,14533,81,64,0,2,20,13,10.mid,experiment,0
20,56,14788,81,64,0,2,20,13,10.mid,experiment,0
21,59,15407,83,64,0,2,20,13,10.mid,experiment,0
22,61,15650,81,64,0,2,20,13,10.mid,experiment,0
23,63,16014,84,64,0,2,20,13,10.mid,experiment,0
24,65,16232,81,64,0,2,20,13,10.mid,experiment,0
25,67,16497,78,64,0,2,20,13,10.mid,experiment,0
26,68,16620,79,64,0,2,20,13,10.mid,experiment,0
27,70,17209,79,64,0,2,20,13,10.mid,experiment,0
28,72,17977,79,64,0,2,20,13,10.mid,experiment,0
29,74,18864,77,64,0,2,20,13,10.mid,experiment,0
30,76,19172,77,64,0,2,20,13,10.mid,experiment,0
31,78,19480,76,64,0,2,20,13,10.mid,experiment,0
32,80,19768,76,64,0,2,20,13,10.mid,experiment,0
33,82,20366,74,64,0,2,20,13,10.mid,experiment,0
34,85,22038,79,64,0,2,20,13,10.mid,experiment,0
35,87,22625,77,64,0,2,20,13,10.mid,experiment,0
36,88,22673,76,64,0,2,20,13,10.mid,experiment,0
37,90,22955,76,64,0,2,20,13,10.mid,experiment,0
38,92,23247,76,64,0,2,20,13,10.mid,experiment,0
39,94,23512,76,64,0,2,20,13,10.mid,experiment,0
40,97,24244,81,64,0,2,20,13,10.mid,experiment,0
41,99,24488,77,64,0,2,20,13,10.mid,experiment,0
42,101,24694,76,64,0,2,20,13,10.mid,experiment,0
43,103,25034,74,64,0,2,20,13,10.mid,experiment,0
44,105,25307,76,64,0,2,20,13,10.mid,experiment,0
45,107,25806,79,64,0,2,20,13,10.mid,experiment,0
46,109,25862,74,64,0,2,20,13,10.mid,experiment,0
47,111,26184,71,64,0,2,20,13,10.mid,experiment,0
48,112,26213,72,64,0,2,20,13,10.mid,experiment,0
49,114,26482,72,64,0,2,20,13,10.mid,experiment,0
50,116,26766,74,64,0,2,20,13,10.mid,experiment,0
51,118,27042,74,64,0,2,20,13,10.mid,experiment,0
52,120,27626,76,64,0,2,20,13,10.mid,experiment,0
53,122,28559,65,64,0,2,20,13,10.mid,experiment,0
54,124,28836,65,64,0,2,20,13,10.mid,experiment,0
55,126,29145,64,64,0,2,20,13,10.mid,experiment,0
56,128,29414,64,64,0,2,20,13,10.mid,experiment,0
57,130,30070,62,64,0,2,20,13,10.mid,experiment,0
58,132,30992,67,64,0,2,20,13,10.mid,experiment,0
59,134,31282,67,64,0,2,20,13,10.mid,experiment,0
60,136,31566,71,64,0,2,20,13,10.mid,experiment,0
61,138,31858,71,64,0,2,20,13,10.mid,experiment,0
62,140,32115,72,64,0,2,20,13,10.mid,experiment,0
63,142,32412,72,64,0,2,20,13,10.mid,experiment,0
64,144,32742,73,64,0,2,20,13,10.mid,experiment,0
65,146,33003,73,64,0,2,20,13,10.mid,experiment,0
66,149,33956,74,64,0,2,20,13,10.mid,experiment,0
67,151,34466,77,64,0,2,20,13,10.mid,experiment,0
68,153,35091,76,64,0,2,20,13,10.mid,experiment,0
69,155,35631,74,64,0,2,20,13,10.mid,experiment,0
70,156,36240,72,64,0,2,20,13,10.mid,experiment,0
71,158,36460,84,64,0,2,20,13,10.mid,experiment,0
72,160,37246,84,64,0,2,20,13,10.mid,experiment,0
1,19,9153,79,64,0,2,20,14,11.mid,experiment,0
2,20,9396,78,64,0,2,20,14,11.mid,experiment,0
3,23,9870,79,64,0,2,20,14,11.mid,experiment,0
4,25,10097,76,64,0,2,20,14,11.mid,experiment,0
5,26,10325,72,64,0,2,20,14,11.mid,experiment,0
6,28,10419,67,64,0,2,20,14,11.mid,experiment,0
7,30,10671,67,64,0,2,20,14,11.mid,experiment,0
8,32,10954,67,64,0,2,20,14,11.mid,experiment,0
9,35,11626,79,64,0,2,20,14,11.mid,experiment,0
10,37,11883,78,64,0,2,20,14,11.mid,experiment,0
11,39,12142,79,64,0,2,20,14,11.mid,experiment,0
12,41,12422,76,64,0,2,20,14,11.mid,experiment,0
13,43,12729,72,64,0,2,20,14,11.mid,experiment,0
14,45,13129,76,64,0,2,20,14,11.mid,experiment,0
15,47,13287,79,64,0,2,20,14,11.mid,experiment,0
16,49,13705,84,64,0,2,20,14,11.mid,experiment,0
17,51,13905,83,64,0,2,20,14,11.mid,experiment,0
18,52,13923,81,64,0,2,20,14,11.mid,experiment,0
19,54,14211,81,64,0,2,20,14,11.mid,experiment,0
20,56,14472,81,64,0,2,20,14,11.mid,experiment,0
21,59,15087,83,64,0,2,20,14,11.mid,experiment,0
22,60,15311,81,64,0,2,20,14,11.mid,experiment,0
23,63,15693,84,64,0,2,20,14,11.mid,experiment,0
24,65,15896,81,64,0,2,20,14,11.mid,experiment,0
25,66,16165,78,64,0,2,20,14,11.mid,experiment,0
26,68,16313,79,64,0,2,20,14,11.mid,experiment,0
27,70,16780,79,64,0,2,20,14,11.mid,experiment,0
28,72,17606,79,64,0,2,20,14,11.mid,experiment,0
29,74,18818,77,64,0,2,20,14,11.mid,experiment,0
30,76,19110,77,64,0,2,20,14,11.mid,experiment,0
31,78,19422,76,64,0,2,20,14,11.mid,experiment,0
32,80,19719,76,64,0,2,20,14,11.mid,experiment,0
33,82,20267,74,64,0,2,20,14,11.mid,experiment,0
34,85,21900,79,64,0,2,20,14,11.mid,experiment,0
35,87,22494,77,64,0,2,20,14,11.mid,experiment,0
36,88,22567,76,64,0,2,20,14,11.mid,experiment,0
37,90,22851,76,64,0,2,20,14,11.mid,experiment,0
38,92,23155,76,64,0,2,20,14,11.mid,experiment,0
39,94,23448,76,64,0,2,20,14,11.mid,experiment,0
40,97,24156,81,64,0,2,20,14,11.mid,experiment,0
41,99,24393,77,64,0,2,20,14,11.mid,experiment,0
42,101,24618,76,64,0,2,20,14,11.mid,experiment,0
43,103,24960,74,64,0,2,20,14,11.mid,experiment,0
44,105,25215,76,64,0,2,20,14,11.mid,experiment,0
45,107,25648,79,64,0,2,20,14,11.mid,experiment,0
46,109,25797,74,64,0,2,20,14,11.mid,experiment,0
47,111,26088,71,64,0,2,20,14,11.mid,experiment,0
48,112,26146,72,64,0,2,20,14,11.mid,experiment,0
49,114,26405,72,64,0,2,20,14,11.mid,experiment,0
50,116,26676,74,64,0,2,20,14,11.mid,experiment,0
51,118,26973,74,64,0,2,20,14,11.mid,experiment,0
52,120,27529,76,64,0,2,20,14,11.mid,experiment,0
53,122,28573,65,64,0,2,20,14,11.mid,experiment,0
54,124,28832,65,64,0,2,20,14,11.mid,experiment,0
55,126,29106,64,64,0,2,20,14,11.mid,experiment,0
56,128,29389,64,64,0,2,20,14,11.mid,experiment,0
57,130,30082,62,64,0,2,20,14,11.mid,experiment,0
58,132,31024,67,64,0,2,20,14,11.mid,experiment,0
59,134,31325,67,64,0,2,20,14,11.mid,experiment,0
60,136,31627,71,64,0,2,20,14,11.mid,experiment,0
61,138,31923,71,64,0,2,20,14,11.mid,experiment,0
62,140,32162,72,64,0,2,20,14,11.mid,experiment,0
63,142,32464,72,64,0,2,20,14,11.mid,experiment,0
64,144,32748,73,64,0,2,20,14,11.mid,experiment,0
65,146,32991,73,64,0,2,20,14,11.mid,experiment,0
66,149,34007,74,64,0,2,20,14,11.mid,experiment,0
67,151,34545,77,64,0,2,20,14,11.mid,experiment,0
68,153,35146,76,64,0,2,20,14,11.mid,experiment,0
69,154,35667,74,64,0,2,20,14,11.mid,experiment,0
70,157,36333,72,64,0,2,20,14,11.mid,experiment,0
71,158,36498,84,64,0,2,20,14,11.mid,experiment,0
72,160,37442,84,64,0,2,20,14,11.mid,experiment,0
1,19,10109,79,64,0,2,20,15,15.mid,experiment,0
2,20,10343,78,64,0,2,20,15,15.mid,experiment,0
3,23,10807,79,64,0,2,20,15,15.mid,experiment,0
4,25,11035,76,64,0,2,20,15,15.mid,experiment,0
5,26,11275,72,64,0,2,20,15,15.mid,experiment,0
6,28,11339,67,64,0,2,20,15,15.mid,experiment,0
7,30,11652,67,64,0,2,20,15,15.mid,experiment,0
8,32,11949,67,64,0,2,20,15,15.mid,experiment,0
9,35,12639,79,64,0,2,20,15,15.mid,experiment,0
10,37,12881,78,64,0,2,20,15,15.mid,experiment,0
11,39,13178,79,64,0,2,20,15,15.mid,experiment,0
12,41,13461,76,64,0,2,20,15,15.mid,experiment,0
13,43,13794,72,64,0,2,20,15,15.mid,experiment,0
14,45,14115,76,64,0,2,20,15,15.mid,experiment,0
15,47,14316,79,64,0,2,20,15,15.mid,experiment,0
16,49,14786,84,64,0,2,20,15,15.mid,experiment,0
17,51,14956,83,64,0,2,20,15,15.mid,experiment,0
18,52,14964,81,64,0,2,20,15,15.mid,experiment,0
19,54,15259,81,64,0,2,20,15,15.mid,experiment,0
20,56,15535,81,64,0,2,20,15,15.mid,experiment,0
21,59,16162,83,64,0,2,20,15,15.mid,experiment,0
22,60,16406,81,64,0,2,20,15,15.mid,experiment,0
23,63,16781,84,64,0,2,20,15,15.mid,experiment,0
24,65,17036,81,64,0,2,20,15,15.mid,experiment,0
25,66,17269,78,64,0,2,20,15,15.mid,experiment,0
26,68,17381,79,64,0,2,20,15,15.mid,experiment,0
27,70,17900,79,64,0,2,20,15,15.mid,experiment,0
28,72,18707,79,64,0,2,20,15,15.mid,experiment,0
29,74,19757,77,64,0,2,20,15,15.mid,experiment,0
30,76,20024,77,64,0,2,20,15,15.mid,experiment,0
31,78,20308,76,64,0,2,20,15,15.mid,experiment,0
32,80,20600,76,64,0,2,20,15,15.mid,experiment,0
33,82,21243,74,64,0,2,20,15,15.mid,experiment,0
34,85,22855,79,64,0,2,20,15,15.mid,experiment,0
35,87,23443,77,64,0,2,20,15,15.mid,experiment,0
36,88,23499,76,64,0,2,20,15,15.mid,experiment,0
37,90,23822,76,64,0,2,20,15,15.mid,experiment,0
38,92,24099,76,64,0,2,20,15,15.mid,experiment,0
39,94,24366,76,64,0,2,20,15,15.mid,experiment,0
40,97,25083,81,64,0,2,20,15,15.mid,experiment,0
41,99,25365,77,64,0,2,20,15,15.mid,experiment,0
42,101,25593,76,64,0,2,20,15,15.mid,experiment,0
43,103,25914,74,64,0,2,20,15,15.mid,experiment,0
44,105,26195,76,64,0,2,20,15,15.mid,experiment,0
45,107,26637,79,64,0,2,20,15,15.mid,experiment,0
46,109,26767,74,64,0,2,20,15,15.mid,experiment,0
47,111,27070,71,64,0,2,20,15,15.mid,experiment,0
48,112,27146,72,64,0,2,20,15,15.mid,experiment,0
49,114,27391,72,64,0,2,20,15,15.mid,experiment,0
50,116,27679,74,64,0,2,20,15,15.mid,experiment,0
51,118,27977,74,64,0,2,20,15,15.mid,experiment,0
52,120,28568,76,64,0,2,20,15,15.mid,experiment,0
53,122,29542,65,64,0,2,20,15,15.mid,experiment,0
54,124,29801,65,64,0,2,20,15,15.mid,experiment,0
55,126,30095,64,64,0,2,20,15,15.mid,experiment,0
56,128,30383,64,64,0,2,20,15,15.mid,experiment,0
57,130,31107,62,64,0,2,20,15,15.mid,experiment,0
58,132,32014,67,64,0,2,20,15,15.mid,experiment,0
59,134,32327,67,64,0,2,20,15,15.mid,experiment,0
60,136,32575,71,64,0,2,20,15,15.mid,experiment,0
61,138,32865,71,64,0,2,20,15,15.mid,experiment,0
62,140,33152,72,64,0,2,20,15,15.mid,experiment,0
63,142,33409,72,64,0,2,20,15,15.mid,experiment,0
64,144,33694,73,64,0,2,20,15,15.mid,experiment,0
65,146,34012,73,64,0,2,20,15,15.mid,experiment,0
66,149,34961,74,64,0,2,20,15,15.mid,experiment,0
67,151,35418,77,64,0,2,20,15,15.mid,experiment,0
68,153,35998,76,64,0,2,20,15,15.mid,experiment,0
69,155,36569,74,64,0,2,20,15,15.mid,experiment,0
70,157,37180,72,64,0,2,20,15,15.mid,experiment,0
71,158,37324,84,64,0,2,20,15,15.mid,experiment,0
72,160,38251,84,64,0,2,20,15,15.mid,experiment,0
1,19,9784,79,64,0,2,20,16,9.mid,experiment,0
2,21,10042,78,64,0,2,20,16,9.mid,experiment,0
3,23,10456,79,64,0,2,20,16,9.mid,experiment,0
4,25,10711,76,64,0,2,20,16,9.mid,experiment,0
5,27,10948,72,64,0,2,20,16,9.mid,experiment,0
6,28,11034,67,64,0,2,20,16,9.mid,experiment,0
7,30,11283,67,64,0,2,20,16,9.mid,experiment,0
8,32,11563,67,64,0,2,20,16,9.mid,experiment,0
9,35,12182,79,64,0,2,20,16,9.mid,experiment,0
10,37,12475,78,64,0,2,20,16,9.mid,experiment,0
11,39,12766,79,64,0,2,20,16,9.mid,experiment,0
12,41,13037,76,64,0,2,20,16,9.mid,experiment,0
13,43,13426,72,64,0,2,20,16,9.mid,experiment,0
14,45,13672,76,64,0,2,20,16,9.mid,experiment,0
15,47,13872,79,64,0,2,20,16,9.mid,experiment,0
16,49,14305,84,64,0,2,20,16,9.mid,experiment,0
17,51,14453,83,64,0,2,20,16,9.mid,experiment,0
18,52,14507,81,64,0,2,20,16,9.mid,experiment,0
19,54,14799,81,64,0,2,20,16,9.mid,experiment,0
20,56,15051,81,64,0,2,20,16,9.mid,experiment,0
21,59,15638,83,64,0,2,20,16,9.mid,experiment,0
22,61,15871,81,64,0,2,20,16,9.mid,experiment,0
23,63,16242,84,64,0,2,20,16,9.mid,experiment,0
24,65,16461,81,64,0,2,20,16,9.mid,experiment,0
25,67,16708,78,64,0,2,20,16,9.mid,experiment,0
26,68,16798,79,64,0,2,20,16,9.mid,experiment,0
27,70,17251,79,64,0,2,20,16,9.mid,experiment,0
28,72,18164,79,64,0,2,20,16,9.mid,experiment,0
29,74,18943,77,64,0,2,20,16,9.mid,experiment,0
30,76,19258,77,64,0,2,20,16,9.mid,experiment,0
31,78,19546,76,64,0,2,20,16,9.mid,experiment,0
32,80,19821,76,64,0,2,20,16,9.mid,experiment,0
33,82,20461,74,64,0,2,20,16,9.mid,experiment,0
34,84,22106,79,64,0,2,20,16,9.mid,experiment,0
35,87,22716,77,64,0,2,20,16,9.mid,experiment,0
36,88,22757,76,64,0,2,20,16,9.mid,experiment,0
37,90,23040,76,64,0,2,20,16,9.mid,experiment,0
38,92,23337,76,64,0,2,20,16,9.mid,experiment,0
39,94,23623,76,64,0,2,20,16,9.mid,experiment,0
40,97,24287,81,64,0,2,20,16,9.mid,experiment,0
41,99,24561,77,64,0,2,20,16,9.mid,experiment,0
42,101,24774,76,64,0,2,20,16,9.mid,experiment,0
43,103,25100,74,64,0,2,20,16,9.mid,experiment,0
44,105,25393,76,64,0,2,20,16,9.mid,experiment,0
45,107,25813,79,64,0,2,20,16,9.mid,experiment,0
46,109,25947,74,64,0,2,20,16,9.mid,experiment,0
47,111,26243,71,64,0,2,20,16,9.mid,experiment,0
48,112,26277,72,64,0,2,20,16,9.mid,experiment,0
49,114,26554,72,64,0,2,20,16,9.mid,experiment,0
50,116,26833,74,64,0,2,20,16,9.mid,experiment,0
51,118,27130,74,64,0,2,20,16,9.mid,experiment,0
52,120,27808,76,64,0,2,20,16,9.mid,experiment,0
53,122,28675,65,64,0,2,20,16,9.mid,experiment,0
54,124,28959,65,64,0,2,20,16,9.mid,experiment,0
55,126,29266,64,64,0,2,20,16,9.mid,experiment,0
56,128,29535,64,64,0,2,20,16,9.mid,experiment,0
57,130,30197,62,64,0,2,20,16,9.mid,experiment,0
58,132,31227,67,64,0,2,20,16,9.mid,experiment,0
59,134,31562,67,64,0,2,20,16,9.mid,experiment,0
60,136,31865,71,64,0,2,20,16,9.mid,experiment,0
61,138,32159,71,64,0,2,20,16,9.mid,experiment,0
62,140,32420,72,64,0,2,20,16,9.mid,experiment,0
63,142,32699,72,64,0,2,20,16,9.mid,experiment,0
64,144,33013,73,64,0,2,20,16,9.mid,experiment,0
65,146,33252,73,64,0,2,20,16,9.mid,experiment,0
66,149,34361,74,64,0,2,20,16,9.mid,experiment,0
67,151,34851,77,64,0,2,20,16,9.mid,experiment,0
68,153,35529,76,64,0,2,20,16,9.mid,experiment,0
69,154,35971,74,64,0,2,20,16,9.mid,experiment,0
70,156,36627,72,64,0,2,20,16,9.mid,experiment,0
71,158,36828,84,64,0,2,20,16,9.mid,experiment,0
72,160,37748,84,64,0,2,20,16,9.mid,experiment,0
1,19,8112,79,64,0,2,21,1,1.mid,experiment,0
2,21,8368,78,64,0,2,21,1,1.mid,experiment,0
3,22,8615,79,64,0,2,21,1,1.mid,experiment,0
4,25,8938,76,64,0,2,21,1,1.mid,experiment,0
5,26,9132,72,64,0,2,21,1,1.mid,experiment,0
6,28,9248,67,64,0,2,21,1,1.mid,experiment,0
7,30,9527,67,64,0,2,21,1,1.mid,experiment,0
8,32,9791,67,64,0,2,21,1,1.mid,experiment,0
9,35,10301,79,64,0,2,21,1,1.mid,experiment,0
10,37,10593,78,64,0,2,21,1,1.mid,experiment,0
11,38,10844,79,64,0,2,21,1,1.mid,experiment,0
12,40,11129,76,64,0,2,21,1,1.mid,experiment,0
13,43,11449,72,64,0,2,21,1,1.mid,experiment,0
14,45,11718,76,64,0,2,21,1,1.mid,experiment,0
15,46,11935,79,64,0,2,21,1,1.mid,experiment,0
16,49,12303,84,64,0,2,21,1,1.mid,experiment,0
17,50,12503,83,64,0,2,21,1,1.mid,experiment,0
18,52,12561,81,64,0,2,21,1,1.mid,experiment,0
19,54,12827,81,64,0,2,21,1,1.mid,experiment,0
20,56,13097,81,64,0,2,21,1,1.mid,experiment,0
21,58,13604,83,64,0,2,21,1,1.mid,experiment,0
22,60,13832,81,64,0,2,21,1,1.mid,experiment,0
23,63,14149,84,64,0,2,21,1,1.mid,experiment,0
24,64,14399,81,64,0,2,21,1,1.mid,experiment,0
25,66,14678,78,64,0,2,21,1,1.mid,experiment,0
26,68,14727,79,64,0,2,21,1,1.mid,experiment,0
27,70,15279,79,64,0,2,21,1,1.mid,experiment,0
28,72,16004,79,64,0,2,21,1,1.mid,experiment,0
29,74,16540,77,64,0,2,21,1,1.mid,experiment,0
30,76,16808,77,64,0,2,21,1,1.mid,experiment,0
31,78,17113,76,64,0,2,21,1,1.mid,experiment,0
32,80,17373,76,64,0,2,21,1,1.mid,experiment,0
33,82,18195,74,64,0,2,21,1,1.mid,experiment,0
34,84,18958,79,64,0,2,21,1,1.mid,experiment,0
35,86,19480,77,64,0,2,21,1,1.mid,experiment,0
36,88,19818,76,64,0,2,21,1,1.mid,experiment,0
37,90,20108,76,64,0,2,21,1,1.mid,experiment,0
38,92,20355,76,64,0,2,21,1,1.mid,experiment,0
39,94,20645,76,64,0,2,21,1,1.mid,experiment,0
40,96,21122,81,64,0,2,21,1,1.mid,experiment,0
41,98,21389,77,64,0,2,21,1,1.mid,experiment,0
42,100,21633,76,64,0,2,21,1,1.mid,experiment,0
43,103,21932,74,64,0,2,21,1,1.mid,experiment,0
44,104,22176,76,64,0,2,21,1,1.mid,experiment,0
45,106,22456,79,64,0,2,21,1,1.mid,experiment,0
46,108,22687,74,64,0,2,21,1,1.mid,experiment,0
47,110,22811,71,64,0,2,21,1,1.mid,experiment,0
48,112,23024,72,64,0,2,21,1,1.mid,experiment,0
49,114,23297,72,64,0,2,21,1,1.mid,experiment,0
50,116,23561,74,64,0,2,21,1,1.mid,experiment,0
51,118,23824,74,64,0,2,21,1,1.mid,experiment,0
52,120,24515,76,64,0,2,21,1,1.mid,experiment,0
53,122,25164,65,64,0,2,21,1,1.mid,experiment,0
54,124,25611,65,64,0,2,21,1,1.mid,experiment,0
55,126,25690,64,64,0,2,21,1,1.mid,experiment,0
56,128,25949,64,64,0,2,21,1,1.mid,experiment,0
57,130,26706,62,64,0,2,21,1,1.mid,experiment,0
58,132,27191,67,64,0,2,21,1,1.mid,experiment,0
59,134,27492,67,64,0,2,21,1,1.mid,experiment,0
60,136,27739,71,64,0,2,21,1,1.mid,experiment,0
61,138,28006,71,64,0,2,21,1,1.mid,experiment,0
62,140,28309,72,64,0,2,21,1,1.mid,experiment,0
63,142,28557,72,64,0,2,21,1,1.mid,experiment,0
64,144,28838,73,64,0,2,21,1,1.mid,experiment,0
65,146,29089,73,64,0,2,21,1,1.mid,experiment,0
66,148,29542,74,64,0,2,21,1,1.mid,experiment,0
67,151,30309,77,64,0,2,21,1,1.mid,experiment,0
68,153,30871,76,64,0,2,21,1,1.mid,experiment,0
69,154,31366,74,64,0,2,21,1,1.mid,experiment,0
70,156,31831,72,64,0,2,21,1,1.mid,experiment,0
71,158,32320,84,64,0,2,21,1,1.mid,experiment,0
72,160,33646,84,64,0,2,21,1,1.mid,experiment,0
1,19,8195,79,64,0,2,21,4,15.mid,experiment,0
2,21,8443,78,64,0,2,21,4,15.mid,experiment,0
3,22,8662,79,64,0,2,21,4,15.mid,experiment,0
4,24,8967,76,64,0,2,21,4,15.mid,experiment,0
5,26,9162,72,64,0,2,21,4,15.mid,experiment,0
6,28,9331,67,64,0,2,21,4,15.mid,experiment,0
7,30,9605,67,64,0,2,21,4,15.mid,experiment,0
8,32,9871,67,64,0,2,21,4,15.mid,experiment,0
9,35,10457,79,64,0,2,21,4,15.mid,experiment,0
10,37,10714,78,64,0,2,21,4,15.mid,experiment,0
11,39,10996,79,64,0,2,21,4,15.mid,experiment,0
12,40,11246,76,64,0,2,21,4,15.mid,experiment,0
13,43,11583,72,64,0,2,21,4,15.mid,experiment,0
14,45,11867,76,64,0,2,21,4,15.mid,experiment,0
15,47,12107,79,64,0,2,21,4,15.mid,experiment,0
16,49,12436,84,64,0,2,21,4,15.mid,experiment,0
17,50,12616,83,64,0,2,21,4,15.mid,experiment,0
18,52,12720,81,64,0,2,21,4,15.mid,experiment,0
19,54,13003,81,64,0,2,21,4,15.mid,experiment,0
20,56,13264,81,64,0,2,21,4,15.mid,experiment,0
21,59,13827,83,64,0,2,21,4,15.mid,experiment,0
22,61,14083,81,64,0,2,21,4,15.mid,experiment,0
23,63,14337,84,64,0,2,21,4,15.mid,experiment,0
24,65,14588,81,64,0,2,21,4,15.mid,experiment,0
25,66,14844,78,64,0,2,21,4,15.mid,experiment,0
26,68,14939,79,64,0,2,21,4,15.mid,experiment,0
27,70,15524,79,64,0,2,21,4,15.mid,experiment,0
28,72,16362,79,64,0,2,21,4,15.mid,experiment,0
29,74,16954,77,64,0,2,21,4,15.mid,experiment,0
30,76,17378,77,64,0,2,21,4,15.mid,experiment,0
31,78,17527,76,64,0,2,21,4,15.mid,experiment,0
32,80,17786,76,64,0,2,21,4,15.mid,experiment,0
33,82,18517,74,64,0,2,21,4,15.mid,experiment,0
34,84,19446,79,64,0,2,21,4,15.mid,experiment,0
35,86,19998,77,64,0,2,21,4,15.mid,experiment,0
36,88,20341,76,64,0,2,21,4,15.mid,experiment,0
37,90,20632,76,64,0,2,21,4,15.mid,experiment,0
38,92,20902,76,64,0,2,21,4,15.mid,experiment,0
39,94,21132,76,64,0,2,21,4,15.mid,experiment,0
40,97,21719,81,64,0,2,21,4,15.mid,experiment,0
41,99,22005,77,64,0,2,21,4,15.mid,experiment,0
42,101,22242,76,64,0,2,21,4,15.mid,experiment,0
43,103,22539,74,64,0,2,21,4,15.mid,experiment,0
44,104,22765,76,64,0,2,21,4,15.mid,experiment,0
45,107,23051,79,64,0,2,21,4,15.mid,experiment,0
46,108,23291,74,64,0,2,21,4,15.mid,experiment,0
47,110,23579,71,64,0,2,21,4,15.mid,experiment,0
48,112,23647,72,64,0,2,21,4,15.mid,experiment,0
49,114,23902,72,64,0,2,21,4,15.mid,experiment,0
50,116,24190,74,64,0,2,21,4,15.mid,experiment,0
51,118,24426,74,64,0,2,21,4,15.mid,experiment,0
52,120,25271,76,64,0,2,21,4,15.mid,experiment,0
53,122,25890,65,64,0,2,21,4,15.mid,experiment,0
54,124,26186,65,64,0,2,21,4,15.mid,experiment,0
55,126,26463,64,64,0,2,21,4,15.mid,experiment,0
56,128,26720,64,64,0,2,21,4,15.mid,experiment,0
57,130,27488,62,64,0,2,21,4,15.mid,experiment,0
58,132,28040,67,64,0,2,21,4,15.mid,experiment,0
59,134,28332,67,64,0,2,21,4,15.mid,experiment,0
60,136,28614,71,64,0,2,21,4,15.mid,experiment,0
61,138,28904,71,64,0,2,21,4,15.mid,experiment,0
62,140,29164,72,64,0,2,21,4,15.mid,experiment,0
63,142,29460,72,64,0,2,21,4,15.mid,experiment,0
64,144,29745,73,64,0,2,21,4,15.mid,experiment,0
65,146,30006,73,64,0,2,21,4,15.mid,experiment,0
66,148,30557,74,64,0,2,21,4,15.mid,experiment,0
67,150,31129,77,64,0,2,21,4,15.mid,experiment,0
68,152,31712,76,64,0,2,21,4,15.mid,experiment,0
69,154,32322,74,64,0,2,21,4,15.mid,experiment,0
70,156,32794,72,64,0,2,21,4,15.mid,experiment,0
71,158,33441,84,64,0,2,21,4,15.mid,experiment,0
72,160,34902,84,64,0,2,21,4,15.mid,experiment,0
1,19,8165,79,64,0,2,21,12,6.mid,experiment,0
2,21,8407,78,64,0,2,21,12,6.mid,experiment,0
3,22,8664,79,64,0,2,21,12,6.mid,experiment,0
4,24,8983,76,64,0,2,21,12,6.mid,experiment,0
5,26,9071,72,64,0,2,21,12,6.mid,experiment,0
6,28,9342,67,64,0,2,21,12,6.mid,experiment,0
7,30,9621,67,64,0,2,21,12,6.mid,experiment,0
8,32,9884,67,64,0,2,21,12,6.mid,experiment,0
9,35,10469,79,64,0,2,21,12,6.mid,experiment,0
10,37,10738,78,64,0,2,21,12,6.mid,experiment,0
11,38,10975,79,64,0,2,21,12,6.mid,experiment,0
12,40,11259,76,64,0,2,21,12,6.mid,experiment,0
13,43,11590,72,64,0,2,21,12,6.mid,experiment,0
14,45,11881,76,64,0,2,21,12,6.mid,experiment,0
15,46,12083,79,64,0,2,21,12,6.mid,experiment,0
16,48,12367,84,64,0,2,21,12,6.mid,experiment,0
17,50,12583,83,64,0,2,21,12,6.mid,experiment,0
18,52,12706,81,64,0,2,21,12,6.mid,experiment,0
19,54,12983,81,64,0,2,21,12,6.mid,experiment,0
20,56,13271,81,64,0,2,21,12,6.mid,experiment,0
21,59,13821,83,64,0,2,21,12,6.mid,experiment,0
22,60,14086,81,64,0,2,21,12,6.mid,experiment,0
23,63,14433,84,64,0,2,21,12,6.mid,experiment,0
24,64,14654,81,64,0,2,21,12,6.mid,experiment,0
25,66,14918,78,64,0,2,21,12,6.mid,experiment,0
26,68,14994,79,64,0,2,21,12,6.mid,experiment,0
27,70,15631,79,64,0,2,21,12,6.mid,experiment,0
28,72,16529,79,64,0,2,21,12,6.mid,experiment,0
29,74,17030,77,64,0,2,21,12,6.mid,experiment,0
30,76,17311,77,64,0,2,21,12,6.mid,experiment,0
31,78,17603,76,64,0,2,21,12,6.mid,experiment,0
32,80,17897,76,64,0,2,21,12,6.mid,experiment,0
33,82,18736,74,64,0,2,21,12,6.mid,experiment,0
34,84,19703,79,64,0,2,21,12,6.mid,experiment,0
35,86,20251,77,64,0,2,21,12,6.mid,experiment,0
36,88,20542,76,64,0,2,21,12,6.mid,experiment,0
37,90,20812,76,64,0,2,21,12,6.mid,experiment,0
38,92,21090,76,64,0,2,21,12,6.mid,experiment,0
39,94,21337,76,64,0,2,21,12,6.mid,experiment,0
40,96,21942,81,64,0,2,21,12,6.mid,experiment,0
41,99,22238,77,64,0,2,21,12,6.mid,experiment,0
42,100,22475,76,64,0,2,21,12,6.mid,experiment,0
43,102,22770,74,64,0,2,21,12,6.mid,experiment,0
44,104,23010,76,64,0,2,21,12,6.mid,experiment,0
45,107,23319,79,64,0,2,21,12,6.mid,experiment,0
46,108,23556,74,64,0,2,21,12,6.mid,experiment,0
47,110,23835,71,64,0,2,21,12,6.mid,experiment,0
48,112,23919,72,64,0,2,21,12,6.mid,experiment,0
49,114,24206,72,64,0,2,21,12,6.mid,experiment,0
50,116,24455,74,64,0,2,21,12,6.mid,experiment,0
51,118,24733,74,64,0,2,21,12,6.mid,experiment,0
52,120,25570,76,64,0,2,21,12,6.mid,experiment,0
53,122,26128,65,64,0,2,21,12,6.mid,experiment,0
54,124,26417,65,64,0,2,21,12,6.mid,experiment,0
55,126,26681,64,64,0,2,21,12,6.mid,experiment,0
56,128,26954,64,64,0,2,21,12,6.mid,experiment,0
57,130,27764,62,64,0,2,21,12,6.mid,experiment,0
58,132,28356,67,64,0,2,21,12,6.mid,experiment,0
59,134,28648,67,64,0,2,21,12,6.mid,experiment,0
60,136,28922,71,64,0,2,21,12,6.mid,experiment,0
61,138,29218,71,64,0,2,21,12,6.mid,experiment,0
62,140,29463,72,64,0,2,21,12,6.mid,experiment,0
63,142,29800,72,64,0,2,21,12,6.mid,experiment,0
64,144,30086,73,64,0,2,21,12,6.mid,experiment,0
65,146,30405,73,64,0,2,21,12,6.mid,experiment,0
66,148,30940,74,64,0,2,21,12,6.mid,experiment,0
67,150,31545,77,64,0,2,21,12,6.mid,experiment,0
68,152,32057,76,64,0,2,21,12,6.mid,experiment,0
69,154,32586,74,64,0,2,21,12,6.mid,experiment,0
70,156,33085,72,64,0,2,21,12,6.mid,experiment,0
71,158,33726,84,64,0,2,21,12,6.mid,experiment,0
72,160,34886,84,64,0,2,21,12,6.mid,experiment,0
1,19,8190,79,64,0,2,21,14,4.mid,experiment,0
2,21,8480,78,64,0,2,21,14,4.mid,experiment,0
3,22,8708,79,64,0,2,21,14,4.mid,experiment,0
4,24,9018,76,64,0,2,21,14,4.mid,experiment,0
5,26,9165,72,64,0,2,21,14,4.mid,experiment,0
6,28,9353,67,64,0,2,21,14,4.mid,experiment,0
7,30,9642,67,64,0,2,21,14,4.mid,experiment,0
8,32,9914,67,64,0,2,21,14,4.mid,experiment,0
9,34,10409,79,64,0,2,21,14,4.mid,experiment,0
10,37,10709,78,64,0,2,21,14,4.mid,experiment,0
11,38,10939,79,64,0,2,21,14,4.mid,experiment,0
12,40,11270,76,64,0,2,21,14,4.mid,experiment,0
13,43,11574,72,64,0,2,21,14,4.mid,experiment,0
14,45,11868,76,64,0,2,21,14,4.mid,experiment,0
15,46,12086,79,64,0,2,21,14,4.mid,experiment,0
16,49,12405,84,64,0,2,21,14,4.mid,experiment,0
17,50,12603,83,64,0,2,21,14,4.mid,experiment,0
18,52,12710,81,64,0,2,21,14,4.mid,experiment,0
19,54,12988,81,64,0,2,21,14,4.mid,experiment,0
20,56,13264,81,64,0,2,21,14,4.mid,experiment,0
21,59,13805,83,64,0,2,21,14,4.mid,experiment,0
22,60,14030,81,64,0,2,21,14,4.mid,experiment,0
23,62,14275,84,64,0,2,21,14,4.mid,experiment,0
24,65,14614,81,64,0,2,21,14,4.mid,experiment,0
25,67,14902,78,64,0,2,21,14,4.mid,experiment,0
26,68,14937,79,64,0,2,21,14,4.mid,experiment,0
27,70,15564,79,64,0,2,21,14,4.mid,experiment,0
28,72,16422,79,64,0,2,21,14,4.mid,experiment,0
29,74,17001,77,64,0,2,21,14,4.mid,experiment,0
30,76,17290,77,64,0,2,21,14,4.mid,experiment,0
31,78,17561,76,64,0,2,21,14,4.mid,experiment,0
32,80,17845,76,64,0,2,21,14,4.mid,experiment,0
33,82,18664,74,64,0,2,21,14,4.mid,experiment,0
34,84,19647,79,64,0,2,21,14,4.mid,experiment,0
35,86,20157,77,64,0,2,21,14,4.mid,experiment,0
36,88,20415,76,64,0,2,21,14,4.mid,experiment,0
37,90,20681,76,64,0,2,21,14,4.mid,experiment,0
38,92,20973,76,64,0,2,21,14,4.mid,experiment,0
39,94,21221,76,64,0,2,21,14,4.mid,experiment,0
40,97,21916,81,64,0,2,21,14,4.mid,experiment,0
41,98,22111,77,64,0,2,21,14,4.mid,experiment,0
42,100,22369,76,64,0,2,21,14,4.mid,experiment,0
43,102,22644,74,64,0,2,21,14,4.mid,experiment,0
44,104,22895,76,64,0,2,21,14,4.mid,experiment,0
45,106,23155,79,64,0,2,21,14,4.mid,experiment,0
46,108,23375,74,64,0,2,21,14,4.mid,experiment,0
47,110,23530,71,64,0,2,21,14,4.mid,experiment,0
48,112,23767,72,64,0,2,21,14,4.mid,experiment,0
49,114,24041,72,64,0,2,21,14,4.mid,experiment,0
50,116,24288,74,64,0,2,21,14,4.mid,experiment,0
51,118,24566,74,64,0,2,21,14,4.mid,experiment,0
52,120,25435,76,64,0,2,21,14,4.mid,experiment,0
53,122,26055,65,64,0,2,21,14,4.mid,experiment,0
54,124,26346,65,64,0,2,21,14,4.mid,experiment,0
55,126,26641,64,64,0,2,21,14,4.mid,experiment,0
56,128,26903,64,64,0,2,21,14,4.mid,experiment,0
57,130,27713,62,64,0,2,21,14,4.mid,experiment,0
58,132,28278,67,64,0,2,21,14,4.mid,experiment,0
59,134,28570,67,64,0,2,21,14,4.mid,experiment,0
60,136,28844,71,64,0,2,21,14,4.mid,experiment,0
61,138,29138,71,64,0,2,21,14,4.mid,experiment,0
62,140,29443,72,64,0,2,21,14,4.mid,experiment,0
63,142,29709,72,64,0,2,21,14,4.mid,experiment,0
64,144,29994,73,64,0,2,21,14,4.mid,experiment,0
65,146,30261,73,64,0,2,21,14,4.mid,experiment,0
66,148,30810,74,64,0,2,21,14,4.mid,experiment,0
67,150,31354,77,64,0,2,21,14,4.mid,experiment,0
68,152,31875,76,64,0,2,21,14,4.mid,experiment,0
69,154,32457,74,64,0,2,21,14,4.mid,experiment,0
70,156,32944,72,64,0,2,21,14,4.mid,experiment,0
71,158,33530,84,64,0,2,21,14,4.mid,experiment,0
72,160,34730,84,64,0,2,21,14,4.mid,experiment,0
1,19,8132,79,64,0,2,21,16,11.mid,experiment,0
2,21,8397,78,64,0,2,21,16,11.mid,experiment,0
3,22,8631,79,64,0,2,21,16,11.mid,experiment,0
4,24,8944,76,64,0,2,21,16,11.mid,experiment,0
5,26,9090,72,64,0,2,21,16,11.mid,experiment,0
6,28,9322,67,64,0,2,21,16,11.mid,experiment,0
7,30,9600,67,64,0,2,21,16,11.mid,experiment,0
8,32,9883,67,64,0,2,21,16,11.mid,experiment,0
9,35,10420,79,64,0,2,21,16,11.mid,experiment,0
10,36,10698,78,64,0,2,21,16,11.mid,experiment,0
11,38,10949,79,64,0,2,21,16,11.mid,experiment,0
12,40,11238,76,64,0,2,21,16,11.mid,experiment,0
13,43,11593,72,64,0,2,21,16,11.mid,experiment,0
14,45,11876,76,64,0,2,21,16,11.mid,experiment,0
15,46,12068,79,64,0,2,21,16,11.mid,experiment,0
16,48,12370,84,64,0,2,21,16,11.mid,experiment,0
17,50,12608,83,64,0,2,21,16,11.mid,experiment,0
18,52,12746,81,64,0,2,21,16,11.mid,experiment,0
19,54,13022,81,64,0,2,21,16,11.mid,experiment,0
20,56,13281,81,64,0,2,21,16,11.mid,experiment,0
21,59,13845,83,64,0,2,21,16,11.mid,experiment,0
22,60,14096,81,64,0,2,21,16,11.mid,experiment,0
23,62,14394,84,64,0,2,21,16,11.mid,experiment,0
24,65,14683,81,64,0,2,21,16,11.mid,experiment,0
25,66,14937,78,64,0,2,21,16,11.mid,experiment,0
26,68,14988,79,64,0,2,21,16,11.mid,experiment,0
27,70,15586,79,64,0,2,21,16,11.mid,experiment,0
28,72,16442,79,64,0,2,21,16,11.mid,experiment,0
29,74,17026,77,64,0,2,21,16,11.mid,experiment,0
30,76,17316,77,64,0,2,21,16,11.mid,experiment,0
31,78,17619,76,64,0,2,21,16,11.mid,experiment,0
32,80,17888,76,64,0,2,21,16,11.mid,experiment,0
33,82,18759,74,64,0,2,21,16,11.mid,experiment,0
34,84,19760,79,64,0,2,21,16,11.mid,experiment,0
35,86,20251,77,64,0,2,21,16,11.mid,experiment,0
36,88,20521,76,64,0,2,21,16,11.mid,experiment,0
37,90,20791,76,64,0,2,21,16,11.mid,experiment,0
38,92,21063,76,64,0,2,21,16,11.mid,experiment,0
39,94,21314,76,64,0,2,21,16,11.mid,experiment,0
40,97,21963,81,64,0,2,21,16,11.mid,experiment,0
41,99,22212,77,64,0,2,21,16,11.mid,experiment,0
42,100,22466,76,64,0,2,21,16,11.mid,experiment,0
43,103,22778,74,64,0,2,21,16,11.mid,experiment,0
44,104,23001,76,64,0,2,21,16,11.mid,experiment,0
45,106,23292,79,64,0,2,21,16,11.mid,experiment,0
46,108,23533,74,64,0,2,21,16,11.mid,experiment,0
47,110,23654,71,64,0,2,21,16,11.mid,experiment,0
48,112,23870,72,64,0,2,21,16,11.mid,experiment,0
49,114,24176,72,64,0,2,21,16,11.mid,experiment,0
50,116,24445,74,64,0,2,21,16,11.mid,experiment,0
51,118,24738,74,64,0,2,21,16,11.mid,experiment,0
52,120,25528,76,64,0,2,21,16,11.mid,experiment,0
53,122,26162,65,64,0,2,21,16,11.mid,experiment,0
54,124,26453,65,64,0,2,21,16,11.mid,experiment,0
55,126,26737,64,64,0,2,21,16,11.mid,experiment,0
56,128,27003,64,64,0,2,21,16,11.mid,experiment,0
57,130,27800,62,64,0,2,21,16,11.mid,experiment,0
58,132,28439,67,64,0,2,21,16,11.mid,experiment,0
59,134,28737,67,64,0,2,21,16,11.mid,experiment,0
60,136,28990,71,64,0,2,21,16,11.mid,experiment,0
61,138,29262,71,64,0,2,21,16,11.mid,experiment,0
62,140,29537,72,64,0,2,21,16,11.mid,experiment,0
63,142,29842,72,64,0,2,21,16,11.mid,experiment,0
64,144,30125,73,64,0,2,21,16,11.mid,experiment,0
65,146,30403,73,64,0,2,21,16,11.mid,experiment,0
66,148,31035,74,64,0,2,21,16,11.mid,experiment,0
67,150,31601,77,64,0,2,21,16,11.mid,experiment,0
68,152,32120,76,64,0,2,21,16,11.mid,experiment,0
69,154,32773,74,64,0,2,21,16,11.mid,experiment,0
70,156,33294,72,64,0,2,21,16,11.mid,experiment,0
71,158,33929,84,64,0,2,21,16,11.mid,experiment,0
72,160,34956,84,64,0,2,21,16,11.mid,experiment,0
1,19,8291,79,64,0,2,3,2,14.mid,experiment,1
2,21,8555,78,64,0,2,3,2,14.mid,experiment,1
3,23,8875,79,64,0,2,3,2,14.mid,experiment,1
4,25,9165,76,64,0,2,3,2,14.mid,experiment,1
5,26,9399,72,64,0,2,3,2,14.mid,experiment,1
6,28,9485,67,64,0,2,3,2,14.mid,experiment,1
7,30,9727,67,64,0,2,3,2,14.mid,experiment,1
8,32,9999,67,64,0,2,3,2,14.mid,experiment,1
9,35,10619,79,64,0,2,3,2,14.mid,experiment,1
10,37,10916,78,64,0,2,3,2,14.mid,experiment,1
11,39,11174,79,64,0,2,3,2,14.mid,experiment,1
12,41,11405,76,64,0,2,3,2,14.mid,experiment,1
13,43,11783,72,64,0,2,3,2,14.mid,experiment,1
14,45,12009,76,64,0,2,3,2,14.mid,experiment,1
15,47,12271,79,64,0,2,3,2,14.mid,experiment,1
16,49,12625,84,64,0,2,3,2,14.mid,experiment,1
17,50,12845,83,64,0,2,3,2,14.mid,experiment,1
18,52,12961,81,64,0,2,3,2,14.mid,experiment,1
19,54,13185,81,64,0,2,3,2,14.mid,experiment,1
20,56,13453,81,64,0,2,3,2,14.mid,experiment,1
21,59,13973,83,64,0,2,3,2,14.mid,experiment,1
22,61,14247,81,64,0,2,3,2,14.mid,experiment,1
23,63,14567,84,64,0,2,3,2,14.mid,experiment,1
24,65,14821,81,64,0,2,3,2,14.mid,experiment,1
25,67,15101,78,64,0,2,3,2,14.mid,experiment,1
26,68,15253,79,64,0,2,3,2,14.mid,experiment,1
27,70,15679,79,64,0,2,3,2,14.mid,experiment,1
28,72,16354,79,64,0,2,3,2,14.mid,experiment,1
29,74,17438,77,64,0,2,3,2,14.mid,experiment,1
30,76,17712,77,64,0,2,3,2,14.mid,experiment,1
31,78,17971,76,64,0,2,3,2,14.mid,experiment,1
32,80,18245,76,64,0,2,3,2,14.mid,experiment,1
33,82,18627,74,64,0,2,3,2,14.mid,experiment,1
34,84,19893,79,64,0,2,3,2,14.mid,experiment,1
35,86,20435,77,64,0,2,3,2,14.mid,experiment,1
36,88,20857,76,64,0,2,3,2,14.mid,experiment,1
37,90,21123,76,64,0,2,3,2,14.mid,experiment,1
38,92,21403,76,64,0,2,3,2,14.mid,experiment,1
39,94,21678,76,64,0,2,3,2,14.mid,experiment,1
40,97,22339,81,64,0,2,3,2,14.mid,experiment,1
41,99,22521,77,64,0,2,3,2,14.mid,experiment,1
42,100,22733,76,64,0,2,3,2,14.mid,experiment,1
43,103,23013,74,64,0,2,3,2,14.mid,experiment,1
44,105,23305,76,64,0,2,3,2,14.mid,experiment,1
45,107,23621,79,64,0,2,3,2,14.mid,experiment,1
46,109,23805,74,64,0,2,3,2,14.mid,experiment,1
47,110,23975,71,64,0,2,3,2,14.mid,experiment,1
48,112,24147,72,64,0,2,3,2,14.mid,experiment,1
49,114,24383,72,64,0,2,3,2,14.mid,experiment,1
50,116,24627,74,64,0,2,3,2,14.mid,experiment,1
51,118,24905,74,64,0,2,3,2,14.mid,experiment,1
52,120,25343,76,64,0,2,3,2,14.mid,experiment,1
53,122,26548,65,64,0,2,3,2,14.mid,experiment,1
54,124,26831,65,64,0,2,3,2,14.mid,experiment,1
56,130,28451,64,64,0,2,3,2,14.mid,experiment,1
57,132,28723,64,64,0,2,3,2,14.mid,experiment,1
58,134,29155,62,64,0,2,3,2,14.mid,experiment,1
59,136,30181,67,64,0,2,3,2,14.mid,experiment,1
60,138,30439,67,64,0,2,3,2,14.mid,experiment,1
61,140,30711,71,64,0,2,3,2,14.mid,experiment,1
62,142,30985,71,64,0,2,3,2,14.mid,experiment,1
63,144,31237,72,64,0,2,3,2,14.mid,experiment,1
64,146,31503,72,64,0,2,3,2,14.mid,experiment,1
65,148,31769,73,64,0,2,3,2,14.mid,experiment,1
66,150,32051,73,64,0,2,3,2,14.mid,experiment,1
67,152,32419,74,64,0,2,3,2,14.mid,experiment,1
68,154,32959,77,64,0,2,3,2,14.mid,experiment,1
69,156,33491,76,64,0,2,3,2,14.mid,experiment,1
70,158,33993,74,64,0,2,3,2,14.mid,experiment,1
71,160,34533,72,64,0,2,3,2,14.mid,experiment,1
72,162,35115,84,64,0,2,3,2,14.mid,experiment,1
73,164,35837,84,64,0,2,3,2,14.mid,experiment,1
1,19,8171,79,64,0,2,4,9,8.mid,experiment,1
2,21,8442,78,64,0,2,4,9,8.mid,experiment,1
3,23,8719,79,64,0,2,4,9,8.mid,experiment,1
4,25,9030,76,64,0,2,4,9,8.mid,experiment,1
5,26,9055,72,64,0,2,4,9,8.mid,experiment,1
6,28,9310,67,64,0,2,4,9,8.mid,experiment,1
7,30,9589,67,64,0,2,4,9,8.mid,experiment,1
8,32,9897,67,64,0,2,4,9,8.mid,experiment,1
10,37,10427,79,64,0,2,4,9,8.mid,experiment,1
11,39,10758,78,64,0,2,4,9,8.mid,experiment,1
12,41,11003,79,64,0,2,4,9,8.mid,experiment,1
13,42,11238,76,64,0,2,4,9,8.mid,experiment,1
14,45,11646,72,64,0,2,4,9,8.mid,experiment,1
15,47,11824,76,64,0,2,4,9,8.mid,experiment,1
16,49,12060,79,64,0,2,4,9,8.mid,experiment,1
17,51,12419,84,64,0,2,4,9,8.mid,experiment,1
18,52,12550,83,64,0,2,4,9,8.mid,experiment,1
19,54,12635,81,64,0,2,4,9,8.mid,experiment,1
20,56,12916,81,64,0,2,4,9,8.mid,experiment,1
21,58,13184,81,64,0,2,4,9,8.mid,experiment,1
22,61,13767,83,64,0,2,4,9,8.mid,experiment,1
23,63,14024,81,64,0,2,4,9,8.mid,experiment,1
24,65,14348,84,64,0,2,4,9,8.mid,experiment,1
25,67,14584,81,64,0,2,4,9,8.mid,experiment,1
26,69,14886,78,64,0,2,4,9,8.mid,experiment,1
27,70,14940,79,64,0,2,4,9,8.mid,experiment,1
28,72,15275,79,64,0,2,4,9,8.mid,experiment,1
29,74,16255,79,64,0,2,4,9,8.mid,experiment,1
30,76,16795,77,64,0,2,4,9,8.mid,experiment,1
31,78,17060,77,64,0,2,4,9,8.mid,experiment,1
32,80,17360,76,64,0,2,4,9,8.mid,experiment,1
33,82,17660,76,64,0,2,4,9,8.mid,experiment,1
34,84,18449,74,64,0,2,4,9,8.mid,experiment,1
35,86,19251,79,64,0,2,4,9,8.mid,experiment,1
36,88,19796,77,64,0,2,4,9,8.mid,experiment,1
37,90,20153,76,64,0,2,4,9,8.mid,experiment,1
38,92,20419,76,64,0,2,4,9,8.mid,experiment,1
39,94,20690,76,64,0,2,4,9,8.mid,experiment,1
40,96,20978,76,64,0,2,4,9,8.mid,experiment,1
41,99,21681,81,64,0,2,4,9,8.mid,experiment,1
42,101,21892,77,64,0,2,4,9,8.mid,experiment,1
43,103,22128,76,64,0,2,4,9,8.mid,experiment,1
44,105,22501,74,64,0,2,4,9,8.mid,experiment,1
45,107,22735,76,64,0,2,4,9,8.mid,experiment,1
46,109,23089,79,64,0,2,4,9,8.mid,experiment,1
47,111,23255,74,64,0,2,4,9,8.mid,experiment,1
48,112,23294,71,64,0,2,4,9,8.mid,experiment,1
49,114,23563,72,64,0,2,4,9,8.mid,experiment,1
50,116,23828,72,64,0,2,4,9,8.mid,experiment,1
51,118,24100,74,64,0,2,4,9,8.mid,experiment,1
52,120,24390,74,64,0,2,4,9,8.mid,experiment,1
53,122,25179,76,64,0,2,4,9,8.mid,experiment,1
54,124,25714,65,64,0,2,4,9,8.mid,experiment,1
55,126,25988,65,64,0,2,4,9,8.mid,experiment,1
56,128,26291,64,64,0,2,4,9,8.mid,experiment,1
57,130,26565,64,64,0,2,4,9,8.mid,experiment,1
58,132,27405,62,64,0,2,4,9,8.mid,experiment,1
59,134,27979,67,64,0,2,4,9,8.mid,experiment,1
60,136,28252,67,64,0,2,4,9,8.mid,experiment,1
61,138,28573,71,64,0,2,4,9,8.mid,experiment,1
62,140,28813,71,64,0,2,4,9,8.mid,experiment,1
63,142,29092,72,64,0,2,4,9,8.mid,experiment,1
64,144,29371,72,64,0,2,4,9,8.mid,experiment,1
65,146,29642,73,64,0,2,4,9,8.mid,experiment,1
66,148,29923,73,64,0,2,4,9,8.mid,experiment,1
67,150,30610,74,64,0,2,4,9,8.mid,experiment,1
68,152,31189,77,64,0,2,4,9,8.mid,experiment,1
69,154,31741,76,64,0,2,4,9,8.mid,experiment,1
70,156,32223,74,64,0,2,4,9,8.mid,experiment,1
71,158,32732,72,64,0,2,4,9,8.mid,experiment,1
72,160,33362,84,64,0,2,4,9,8.mid,experiment,1
73,162,34484,84,64,0,2,4,9,8.mid,experiment,1
1,19,8167,79,64,0,2,4,11,2.mid,experiment,1
2,21,8419,78,64,0,2,4,11,2.mid,experiment,1
3,23,8696,79,64,0,2,4,11,2.mid,experiment,1
4,25,9017,76,64,0,2,4,11,2.mid,experiment,1
5,26,9077,72,64,0,2,4,11,2.mid,experiment,1
6,28,9329,67,64,0,2,4,11,2.mid,experiment,1
7,30,9602,67,64,0,2,4,11,2.mid,experiment,1
8,32,9873,67,64,0,2,4,11,2.mid,experiment,1
9,35,10410,79,64,0,2,4,11,2.mid,experiment,1
10,37,10672,78,64,0,2,4,11,2.mid,experiment,1
11,39,10903,79,64,0,2,4,11,2.mid,experiment,1
12,41,11179,76,64,0,2,4,11,2.mid,experiment,1
13,43,11630,72,64,0,2,4,11,2.mid,experiment,1
14,45,11745,76,64,0,2,4,11,2.mid,experiment,1
15,47,11992,79,64,0,2,4,11,2.mid,experiment,1
16,49,12367,84,64,0,2,4,11,2.mid,experiment,1
17,50,12464,83,64,0,2,4,11,2.mid,experiment,1
18,52,12613,81,64,0,2,4,11,2.mid,experiment,1
19,54,12861,81,64,0,2,4,11,2.mid,experiment,1
20,56,13137,81,64,0,2,4,11,2.mid,experiment,1
21,59,13750,83,64,0,2,4,11,2.mid,experiment,1
22,61,13980,81,64,0,2,4,11,2.mid,experiment,1
23,63,14332,84,64,0,2,4,11,2.mid,experiment,1
24,65,14564,81,64,0,2,4,11,2.mid,experiment,1
25,67,14845,78,64,0,2,4,11,2.mid,experiment,1
26,68,14913,79,64,0,2,4,11,2.mid,experiment,1
27,70,15218,79,64,0,2,4,11,2.mid,experiment,1
28,72,16167,79,64,0,2,4,11,2.mid,experiment,1
29,74,16787,77,64,0,2,4,11,2.mid,experiment,1
30,76,17062,77,64,0,2,4,11,2.mid,experiment,1
31,78,17359,76,64,0,2,4,11,2.mid,experiment,1
32,80,17656,76,64,0,2,4,11,2.mid,experiment,1
33,82,18385,74,64,0,2,4,11,2.mid,experiment,1
34,84,19266,79,64,0,2,4,11,2.mid,experiment,1
35,86,19771,77,64,0,2,4,11,2.mid,experiment,1
36,88,20132,76,64,0,2,4,11,2.mid,experiment,1
37,90,20417,76,64,0,2,4,11,2.mid,experiment,1
38,92,20733,76,64,0,2,4,11,2.mid,experiment,1
39,94,20982,76,64,0,2,4,11,2.mid,experiment,1
40,97,21631,81,64,0,2,4,11,2.mid,experiment,1
41,99,21845,77,64,0,2,4,11,2.mid,experiment,1
42,101,22073,76,64,0,2,4,11,2.mid,experiment,1
43,103,22409,74,64,0,2,4,11,2.mid,experiment,1
44,105,22681,76,64,0,2,4,11,2.mid,experiment,1
45,107,23019,79,64,0,2,4,11,2.mid,experiment,1
46,109,23217,74,64,0,2,4,11,2.mid,experiment,1
47,110,23261,71,64,0,2,4,11,2.mid,experiment,1
48,112,23519,72,64,0,2,4,11,2.mid,experiment,1
49,114,23781,72,64,0,2,4,11,2.mid,experiment,1
50,116,24081,74,64,0,2,4,11,2.mid,experiment,1
51,118,24352,74,64,0,2,4,11,2.mid,experiment,1
52,120,25137,76,64,0,2,4,11,2.mid,experiment,1
53,122,25773,65,64,0,2,4,11,2.mid,experiment,1
54,124,26039,65,64,0,2,4,11,2.mid,experiment,1
55,126,26310,64,64,0,2,4,11,2.mid,experiment,1
56,128,26604,64,64,0,2,4,11,2.mid,experiment,1
57,130,27356,62,64,0,2,4,11,2.mid,experiment,1
58,132,28211,67,64,0,2,4,11,2.mid,experiment,1
59,134,28479,67,64,0,2,4,11,2.mid,experiment,1
60,136,28783,71,64,0,2,4,11,2.mid,experiment,1
61,138,29047,71,64,0,2,4,11,2.mid,experiment,1
62,140,29290,72,64,0,2,4,11,2.mid,experiment,1
63,142,29554,72,64,0,2,4,11,2.mid,experiment,1
64,144,29814,73,64,0,2,4,11,2.mid,experiment,1
65,146,30063,73,64,0,2,4,11,2.mid,experiment,1
66,148,30831,74,64,0,2,4,11,2.mid,experiment,1
67,150,31392,77,64,0,2,4,11,2.mid,experiment,1
68,152,31945,76,64,0,2,4,11,2.mid,experiment,1
70,156,32419,74,64,0,2,4,11,2.mid,experiment,1
71,158,33271,72,64,0,2,4,11,2.mid,experiment,1
72,160,33709,84,64,0,2,4,11,2.mid,experiment,1
73,162,35010,84,64,0,2,4,11,2.mid,experiment,1
1,19,8156,79,64,0,2,8,13,5.mid,experiment,1
2,21,8507,78,64,0,2,8,13,5.mid,experiment,1
3,23,8737,79,64,0,2,8,13,5.mid,experiment,1
4,25,9024,76,64,0,2,8,13,5.mid,experiment,1
5,26,9108,72,64,0,2,8,13,5.mid,experiment,1
6,28,9330,67,64,0,2,8,13,5.mid,experiment,1
7,30,9594,67,64,0,2,8,13,5.mid,experiment,1
8,32,9865,67,64,0,2,8,13,5.mid,experiment,1
9,35,10476,79,64,0,2,8,13,5.mid,experiment,1
10,37,10904,78,64,0,2,8,13,5.mid,experiment,1
11,39,11039,79,64,0,2,8,13,5.mid,experiment,1
12,40,11271,76,64,0,2,8,13,5.mid,experiment,1
13,43,11594,72,64,0,2,8,13,5.mid,experiment,1
14,45,11917,76,64,0,2,8,13,5.mid,experiment,1
15,47,12155,79,64,0,2,8,13,5.mid,experiment,1
16,49,12503,84,64,0,2,8,13,5.mid,experiment,1
17,50,12625,83,64,0,2,8,13,5.mid,experiment,1
18,52,12747,81,64,0,2,8,13,5.mid,experiment,1
19,54,13033,81,64,0,2,8,13,5.mid,experiment,1
20,56,13305,81,64,0,2,8,13,5.mid,experiment,1
21,58,13847,83,64,0,2,8,13,5.mid,experiment,1
22,61,14153,81,64,0,2,8,13,5.mid,experiment,1
23,63,14486,84,64,0,2,8,13,5.mid,experiment,1
24,65,14739,81,64,0,2,8,13,5.mid,experiment,1
25,67,15060,78,64,0,2,8,13,5.mid,experiment,1
26,68,15155,79,64,0,2,8,13,5.mid,experiment,1
27,70,15768,79,64,0,2,8,13,5.mid,experiment,1
28,72,16495,79,64,0,2,8,13,5.mid,experiment,1
29,74,17082,77,64,0,2,8,13,5.mid,experiment,1
30,76,17355,77,64,0,2,8,13,5.mid,experiment,1
31,78,17640,76,64,0,2,8,13,5.mid,experiment,1
32,80,17920,76,64,0,2,8,13,5.mid,experiment,1
33,82,18802,74,64,0,2,8,13,5.mid,experiment,1
34,84,19730,79,64,0,2,8,13,5.mid,experiment,1
35,86,20382,77,64,0,2,8,13,5.mid,experiment,1
36,88,20570,76,64,0,2,8,13,5.mid,experiment,1
37,90,20850,76,64,0,2,8,13,5.mid,experiment,1
38,92,21120,76,64,0,2,8,13,5.mid,experiment,1
39,94,21400,76,64,0,2,8,13,5.mid,experiment,1
41,98,21901,81,64,0,2,8,13,5.mid,experiment,1
42,101,22257,77,64,0,2,8,13,5.mid,experiment,1
43,103,22525,76,64,0,2,8,13,5.mid,experiment,1
44,105,22840,74,64,0,2,8,13,5.mid,experiment,1
45,107,23099,76,64,0,2,8,13,5.mid,experiment,1
46,109,23415,79,64,0,2,8,13,5.mid,experiment,1
47,110,23632,74,64,0,2,8,13,5.mid,experiment,1
48,112,23933,71,64,0,2,8,13,5.mid,experiment,1
49,114,23971,72,64,0,2,8,13,5.mid,experiment,1
50,116,24254,72,64,0,2,8,13,5.mid,experiment,1
51,118,24541,74,64,0,2,8,13,5.mid,experiment,1
52,120,24831,74,64,0,2,8,13,5.mid,experiment,1
53,122,25675,76,64,0,2,8,13,5.mid,experiment,1
54,124,26293,65,64,0,2,8,13,5.mid,experiment,1
55,126,26587,65,64,0,2,8,13,5.mid,experiment,1
56,128,26889,64,64,0,2,8,13,5.mid,experiment,1
57,130,27165,64,64,0,2,8,13,5.mid,experiment,1
58,132,28023,62,64,0,2,8,13,5.mid,experiment,1
59,134,28637,67,64,0,2,8,13,5.mid,experiment,1
60,136,28909,67,64,0,2,8,13,5.mid,experiment,1
61,138,29191,71,64,0,2,8,13,5.mid,experiment,1
62,140,29459,71,64,0,2,8,13,5.mid,experiment,1
63,142,29752,72,64,0,2,8,13,5.mid,experiment,1
64,144,30012,72,64,0,2,8,13,5.mid,experiment,1
65,146,30286,73,64,0,2,8,13,5.mid,experiment,1
66,148,30576,73,64,0,2,8,13,5.mid,experiment,1
67,151,31508,74,64,0,2,8,13,5.mid,experiment,1
68,153,32100,77,64,0,2,8,13,5.mid,experiment,1
69,155,32687,76,64,0,2,8,13,5.mid,experiment,1
70,156,33210,74,64,0,2,8,13,5.mid,experiment,1
71,158,33772,72,64,0,2,8,13,5.mid,experiment,1
72,160,34280,84,64,0,2,8,13,5.mid,experiment,1
73,162,35195,84,64,0,2,8,13,5.mid,experiment,1
1,19,8193,79,64,0,2,8,15,11.mid,experiment,1
2,21,8521,78,64,0,2,8,15,11.mid,experiment,1
3,23,8725,79,64,0,2,8,15,11.mid,experiment,1
5,27,9050,76,64,0,2,8,15,11.mid,experiment,1
6,28,9193,72,64,0,2,8,15,11.mid,experiment,1
7,30,9379,67,64,0,2,8,15,11.mid,experiment,1
8,32,9651,67,64,0,2,8,15,11.mid,experiment,1
9,34,9917,67,64,0,2,8,15,11.mid,experiment,1
10,37,10521,79,64,0,2,8,15,11.mid,experiment,1
11,39,10841,78,64,0,2,8,15,11.mid,experiment,1
12,41,11086,79,64,0,2,8,15,11.mid,experiment,1
13,42,11313,76,64,0,2,8,15,11.mid,experiment,1
14,45,11652,72,64,0,2,8,15,11.mid,experiment,1
15,47,11937,76,64,0,2,8,15,11.mid,experiment,1
16,49,12166,79,64,0,2,8,15,11.mid,experiment,1
17,51,12549,84,64,0,2,8,15,11.mid,experiment,1
18,52,12663,83,64,0,2,8,15,11.mid,experiment,1
19,54,12787,81,64,0,2,8,15,11.mid,experiment,1
20,56,13066,81,64,0,2,8,15,11.mid,experiment,1
21,58,13338,81,64,0,2,8,15,11.mid,experiment,1
22,61,13928,83,64,0,2,8,15,11.mid,experiment,1
23,63,14166,81,64,0,2,8,15,11.mid,experiment,1
24,65,14504,84,64,0,2,8,15,11.mid,experiment,1
25,66,14730,81,64,0,2,8,15,11.mid,experiment,1
26,69,15053,78,64,0,2,8,15,11.mid,experiment,1
27,70,15173,79,64,0,2,8,15,11.mid,experiment,1
28,72,15837,79,64,0,2,8,15,11.mid,experiment,1
29,74,16711,79,64,0,2,8,15,11.mid,experiment,1
30,76,17182,77,64,0,2,8,15,11.mid,experiment,1
31,78,17457,77,64,0,2,8,15,11.mid,experiment,1
32,80,17741,76,64,0,2,8,15,11.mid,experiment,1
33,82,18023,76,64,0,2,8,15,11.mid,experiment,1
34,84,18856,74,64,0,2,8,15,11.mid,experiment,1
35,86,19911,79,64,0,2,8,15,11.mid,experiment,1
36,88,20525,77,64,0,2,8,15,11.mid,experiment,1
37,90,20714,76,64,0,2,8,15,11.mid,experiment,1
38,92,20997,76,64,0,2,8,15,11.mid,experiment,1
39,94,21267,76,64,0,2,8,15,11.mid,experiment,1
40,96,21533,76,64,0,2,8,15,11.mid,experiment,1
41,99,22155,81,64,0,2,8,15,11.mid,experiment,1
42,101,22432,77,64,0,2,8,15,11.mid,experiment,1
43,103,22675,76,64,0,2,8,15,11.mid,experiment,1
44,105,23007,74,64,0,2,8,15,11.mid,experiment,1
45,107,23285,76,64,0,2,8,15,11.mid,experiment,1
46,109,23575,79,64,0,2,8,15,11.mid,experiment,1
47,110,23790,74,64,0,2,8,15,11.mid,experiment,1
48,113,24098,71,64,0,2,8,15,11.mid,experiment,1
49,114,24141,72,64,0,2,8,15,11.mid,experiment,1
50,116,24422,72,64,0,2,8,15,11.mid,experiment,1
51,118,24701,74,64,0,2,8,15,11.mid,experiment,1
52,120,24991,74,64,0,2,8,15,11.mid,experiment,1
53,122,25946,76,64,0,2,8,15,11.mid,experiment,1
54,124,26505,65,64,0,2,8,15,11.mid,experiment,1
55,126,26764,65,64,0,2,8,15,11.mid,experiment,1
56,128,27049,64,64,0,2,8,15,11.mid,experiment,1
57,130,27334,64,64,0,2,8,15,11.mid,experiment,1
58,132,28313,62,64,0,2,8,15,11.mid,experiment,1
59,134,28892,67,64,0,2,8,15,11.mid,experiment,1
60,136,29146,67,64,0,2,8,15,11.mid,experiment,1
61,138,29465,71,64,0,2,8,15,11.mid,experiment,1
62,140,29706,71,64,0,2,8,15,11.mid,experiment,1
63,142,30009,72,64,0,2,8,15,11.mid,experiment,1
64,144,30276,72,64,0,2,8,15,11.mid,experiment,1
65,146,30560,73,64,0,2,8,15,11.mid,experiment,1
66,148,30839,73,64,0,2,8,15,11.mid,experiment,1
67,151,31715,74,64,0,2,8,15,11.mid,experiment,1
68,152,32237,77,64,0,2,8,15,11.mid,experiment,1
69,154,32791,76,64,0,2,8,15,11.mid,experiment,1
70,156,33340,74,64,0,2,8,15,11.mid,experiment,1
71,158,34021,72,64,0,2,8,15,11.mid,experiment,1
72,160,34467,84,64,0,2,8,15,11.mid,experiment,1
73,162,35611,84,64,0,2,8,15,11.mid,experiment,1
1,19,8171,79,64,0,2,9,5,11.mid,experiment,1
2,21,8410,78,64,0,2,9,5,11.mid,experiment,1
3,23,8691,79,64,0,2,9,5,11.mid,experiment,1
4,25,8958,76,64,0,2,9,5,11.mid,experiment,1
5,26,9042,72,64,0,2,9,5,11.mid,experiment,1
6,28,9272,67,64,0,2,9,5,11.mid,experiment,1
7,30,9512,67,64,0,2,9,5,11.mid,experiment,1
8,32,9766,67,64,0,2,9,5,11.mid,experiment,1
9,35,10299,79,64,0,2,9,5,11.mid,experiment,1
10,37,10558,78,64,0,2,9,5,11.mid,experiment,1
11,39,10831,79,64,0,2,9,5,11.mid,experiment,1
12,41,11120,76,64,0,2,9,5,11.mid,experiment,1
13,43,11302,72,64,0,2,9,5,11.mid,experiment,1
14,45,11619,76,64,0,2,9,5,11.mid,experiment,1
15,47,11857,79,64,0,2,9,5,11.mid,experiment,1
16,49,12151,84,64,0,2,9,5,11.mid,experiment,1
17,50,12270,83,64,0,2,9,5,11.mid,experiment,1
18,52,12401,81,64,0,2,9,5,11.mid,experiment,1
19,54,12649,81,64,0,2,9,5,11.mid,experiment,1
20,56,12905,81,64,0,2,9,5,11.mid,experiment,1
22,61,13411,83,64,0,2,9,5,11.mid,experiment,1
23,63,13684,81,64,0,2,9,5,11.mid,experiment,1
24,65,13953,84,64,0,2,9,5,11.mid,experiment,1
25,67,14242,81,64,0,2,9,5,11.mid,experiment,1
26,69,14452,78,64,0,2,9,5,11.mid,experiment,1
27,70,14533,79,64,0,2,9,5,11.mid,experiment,1
28,72,14842,79,64,0,2,9,5,11.mid,experiment,1
29,74,15498,79,64,0,2,9,5,11.mid,experiment,1
30,76,16337,77,64,0,2,9,5,11.mid,experiment,1
31,78,16621,77,64,0,2,9,5,11.mid,experiment,1
32,80,16836,76,64,0,2,9,5,11.mid,experiment,1
33,82,17102,76,64,0,2,9,5,11.mid,experiment,1
34,84,17635,74,64,0,2,9,5,11.mid,experiment,1
35,86,18574,79,64,0,2,9,5,11.mid,experiment,1
36,88,19122,77,64,0,2,9,5,11.mid,experiment,1
37,90,19548,76,64,0,2,9,5,11.mid,experiment,1
38,92,19805,76,64,0,2,9,5,11.mid,experiment,1
39,94,20038,76,64,0,2,9,5,11.mid,experiment,1
40,96,20294,76,64,0,2,9,5,11.mid,experiment,1
41,99,20779,81,64,0,2,9,5,11.mid,experiment,1
42,101,21071,77,64,0,2,9,5,11.mid,experiment,1
43,103,21272,76,64,0,2,9,5,11.mid,experiment,1
44,105,21549,74,64,0,2,9,5,11.mid,experiment,1
45,107,21745,76,64,0,2,9,5,11.mid,experiment,1
46,109,22018,79,64,0,2,9,5,11.mid,experiment,1
47,111,22234,74,64,0,2,9,5,11.mid,experiment,1
48,112,22321,71,64,0,2,9,5,11.mid,experiment,1
49,114,22526,72,64,0,2,9,5,11.mid,experiment,1
50,116,22775,72,64,0,2,9,5,11.mid,experiment,1
51,118,23041,74,64,0,2,9,5,11.mid,experiment,1
52,120,23302,74,64,0,2,9,5,11.mid,experiment,1
53,122,23832,76,64,0,2,9,5,11.mid,experiment,1
54,124,24660,65,64,0,2,9,5,11.mid,experiment,1
55,126,24912,65,64,0,2,9,5,11.mid,experiment,1
56,128,25149,64,64,0,2,9,5,11.mid,experiment,1
57,130,25404,64,64,0,2,9,5,11.mid,experiment,1
58,132,25971,62,64,0,2,9,5,11.mid,experiment,1
59,134,26707,67,64,0,2,9,5,11.mid,experiment,1
60,136,26954,67,64,0,2,9,5,11.mid,experiment,1
61,138,27201,71,64,0,2,9,5,11.mid,experiment,1
62,140,27474,71,64,0,2,9,5,11.mid,experiment,1
63,142,27722,72,64,0,2,9,5,11.mid,experiment,1
64,144,27978,72,64,0,2,9,5,11.mid,experiment,1
65,146,28224,73,64,0,2,9,5,11.mid,experiment,1
66,148,28482,73,64,0,2,9,5,11.mid,experiment,1
67,150,28867,74,64,0,2,9,5,11.mid,experiment,1
68,152,29357,77,64,0,2,9,5,11.mid,experiment,1
69,154,29803,76,64,0,2,9,5,11.mid,experiment,1
70,156,30298,74,64,0,2,9,5,11.mid,experiment,1
71,158,30919,72,64,0,2,9,5,11.mid,experiment,1
72,160,31289,84,64,0,2,9,5,11.mid,experiment,1
73,162,31922,84,64,0,2,9,5,11.mid,experiment,1
1,19,8150,79,64,0,2,10,2,10.mid,experiment,1
2,21,8436,78,64,0,2,10,2,10.mid,experiment,1
3,23,8695,79,64,0,2,10,2,10.mid,experiment,1
4,25,9017,76,64,0,2,10,2,10.mid,experiment,1
5,26,9055,72,64,0,2,10,2,10.mid,experiment,1
6,28,9300,67,64,0,2,10,2,10.mid,experiment,1
7,30,9599,67,64,0,2,10,2,10.mid,experiment,1
8,32,9878,67,64,0,2,10,2,10.mid,experiment,1
9,35,10410,79,64,0,2,10,2,10.mid,experiment,1
10,37,10659,78,64,0,2,10,2,10.mid,experiment,1
11,39,10927,79,64,0,2,10,2,10.mid,experiment,1
12,41,11235,76,64,0,2,10,2,10.mid,experiment,1
13,43,11568,72,64,0,2,10,2,10.mid,experiment,1
14,45,11821,76,64,0,2,10,2,10.mid,experiment,1
15,47,12047,79,64,0,2,10,2,10.mid,experiment,1
16,49,12349,84,64,0,2,10,2,10.mid,experiment,1
17,50,12357,83,64,0,2,10,2,10.mid,experiment,1
18,52,12637,81,64,0,2,10,2,10.mid,experiment,1
19,54,12905,81,64,0,2,10,2,10.mid,experiment,1
20,56,13180,81,64,0,2,10,2,10.mid,experiment,1
21,59,13742,83,64,0,2,10,2,10.mid,experiment,1
22,61,13975,81,64,0,2,10,2,10.mid,experiment,1
23,63,14286,84,64,0,2,10,2,10.mid,experiment,1
24,65,14579,81,64,0,2,10,2,10.mid,experiment,1
25,66,14610,78,64,0,2,10,2,10.mid,experiment,1
26,70,14879,79,64,0,2,10,2,10.mid,experiment,1
27,72,15089,79,64,0,2,10,2,10.mid,experiment,1
28,74,15374,79,64,0,2,10,2,10.mid,experiment,1
30,78,16962,77,64,0,2,10,2,10.mid,experiment,1
31,80,17248,77,64,0,2,10,2,10.mid,experiment,1
32,82,17519,76,64,0,2,10,2,10.mid,experiment,1
33,84,17788,76,64,0,2,10,2,10.mid,experiment,1
34,86,18415,74,64,0,2,10,2,10.mid,experiment,1
35,88,19254,79,64,0,2,10,2,10.mid,experiment,1
36,90,19760,77,64,0,2,10,2,10.mid,experiment,1
37,92,20286,76,64,0,2,10,2,10.mid,experiment,1
38,94,20589,76,64,0,2,10,2,10.mid,experiment,1
39,96,20851,76,64,0,2,10,2,10.mid,experiment,1
40,98,21115,76,64,0,2,10,2,10.mid,experiment,1
41,101,21677,81,64,0,2,10,2,10.mid,experiment,1
42,103,21897,77,64,0,2,10,2,10.mid,experiment,1
43,105,22137,76,64,0,2,10,2,10.mid,experiment,1
44,107,22433,74,64,0,2,10,2,10.mid,experiment,1
45,109,22688,76,64,0,2,10,2,10.mid,experiment,1
46,111,22978,79,64,0,2,10,2,10.mid,experiment,1
47,113,23220,74,64,0,2,10,2,10.mid,experiment,1
48,114,23252,71,64,0,2,10,2,10.mid,experiment,1
49,116,23518,72,64,0,2,10,2,10.mid,experiment,1
50,118,23804,72,64,0,2,10,2,10.mid,experiment,1
51,120,24054,74,64,0,2,10,2,10.mid,experiment,1
52,122,24318,74,64,0,2,10,2,10.mid,experiment,1
53,124,24960,76,64,0,2,10,2,10.mid,experiment,1
54,126,25802,65,64,0,2,10,2,10.mid,experiment,1
55,128,26054,65,64,0,2,10,2,10.mid,experiment,1
56,130,26352,64,64,0,2,10,2,10.mid,experiment,1
57,132,26591,64,64,0,2,10,2,10.mid,experiment,1
58,134,27357,62,64,0,2,10,2,10.mid,experiment,1
59,136,28071,67,64,0,2,10,2,10.mid,experiment,1
60,138,28319,67,64,0,2,10,2,10.mid,experiment,1
61,140,28610,71,64,0,2,10,2,10.mid,experiment,1
62,142,28846,71,64,0,2,10,2,10.mid,experiment,1
63,144,29115,72,64,0,2,10,2,10.mid,experiment,1
64,146,29379,72,64,0,2,10,2,10.mid,experiment,1
65,148,29659,73,64,0,2,10,2,10.mid,experiment,1
66,150,29891,73,64,0,2,10,2,10.mid,experiment,1
67,152,30471,74,64,0,2,10,2,10.mid,experiment,1
68,154,31146,77,64,0,2,10,2,10.mid,experiment,1
69,156,31711,76,64,0,2,10,2,10.mid,experiment,1
70,158,32291,74,64,0,2,10,2,10.mid,experiment,1
71,160,32898,72,64,0,2,10,2,10.mid,experiment,1
72,162,33481,84,64,0,2,10,2,10.mid,experiment,1
73,164,34587,84,64,0,2,10,2,10.mid,experiment,1
1,19,8230,79,64,0,2,11,8,16.mid,experiment,1
2,21,8481,78,64,0,2,11,8,16.mid,experiment,1
3,23,8745,79,64,0,2,11,8,16.mid,experiment,1
4,25,8975,76,64,0,2,11,8,16.mid,experiment,1
5,26,9004,72,64,0,2,11,8,16.mid,experiment,1
6,28,9272,67,64,0,2,11,8,16.mid,experiment,1
7,30,9545,67,64,0,2,11,8,16.mid,experiment,1
8,32,9810,67,64,0,2,11,8,16.mid,experiment,1
9,35,10478,79,64,0,2,11,8,16.mid,experiment,1
10,37,10700,78,64,0,2,11,8,16.mid,experiment,1
11,39,10926,79,64,0,2,11,8,16.mid,experiment,1
12,41,11170,76,64,0,2,11,8,16.mid,experiment,1
13,43,11482,72,64,0,2,11,8,16.mid,experiment,1
14,45,11800,76,64,0,2,11,8,16.mid,experiment,1
15,47,11975,79,64,0,2,11,8,16.mid,experiment,1
16,49,12260,84,64,0,2,11,8,16.mid,experiment,1
17,50,12283,83,64,0,2,11,8,16.mid,experiment,1
18,52,12581,81,64,0,2,11,8,16.mid,experiment,1
19,54,12822,81,64,0,2,11,8,16.mid,experiment,1
20,56,13063,81,64,0,2,11,8,16.mid,experiment,1
21,59,13661,83,64,0,2,11,8,16.mid,experiment,1
22,61,13905,81,64,0,2,11,8,16.mid,experiment,1
23,63,14214,84,64,0,2,11,8,16.mid,experiment,1
24,65,14437,81,64,0,2,11,8,16.mid,experiment,1
26,68,14602,78,64,0,2,11,8,16.mid,experiment,1
27,70,14724,79,64,0,2,11,8,16.mid,experiment,1
28,72,14987,79,64,0,2,11,8,16.mid,experiment,1
29,74,15606,79,64,0,2,11,8,16.mid,experiment,1
30,76,16784,77,64,0,2,11,8,16.mid,experiment,1
31,78,17055,77,64,0,2,11,8,16.mid,experiment,1
32,80,17319,76,64,0,2,11,8,16.mid,experiment,1
33,82,17570,76,64,0,2,11,8,16.mid,experiment,1
34,84,18248,74,64,0,2,11,8,16.mid,experiment,1
35,86,19235,79,64,0,2,11,8,16.mid,experiment,1
36,88,19775,77,64,0,2,11,8,16.mid,experiment,1
37,90,20175,76,64,0,2,11,8,16.mid,experiment,1
38,92,20449,76,64,0,2,11,8,16.mid,experiment,1
39,94,20720,76,64,0,2,11,8,16.mid,experiment,1
40,96,20935,76,64,0,2,11,8,16.mid,experiment,1
41,99,21590,81,64,0,2,11,8,16.mid,experiment,1
42,101,21846,77,64,0,2,11,8,16.mid,experiment,1
43,103,22078,76,64,0,2,11,8,16.mid,experiment,1
44,105,22374,74,64,0,2,11,8,16.mid,experiment,1
45,107,22623,76,64,0,2,11,8,16.mid,experiment,1
46,109,22939,79,64,0,2,11,8,16.mid,experiment,1
47,111,23099,74,64,0,2,11,8,16.mid,experiment,1
48,112,23128,71,64,0,2,11,8,16.mid,experiment,1
49,114,23397,72,64,0,2,11,8,16.mid,experiment,1
50,116,23657,72,64,0,2,11,8,16.mid,experiment,1
51,118,23928,74,64,0,2,11,8,16.mid,experiment,1
52,120,24186,74,64,0,2,11,8,16.mid,experiment,1
53,122,24941,76,64,0,2,11,8,16.mid,experiment,1
54,124,25684,65,64,0,2,11,8,16.mid,experiment,1
55,126,25938,65,64,0,2,11,8,16.mid,experiment,1
56,128,26188,64,64,0,2,11,8,16.mid,experiment,1
57,130,26444,64,64,0,2,11,8,16.mid,experiment,1
58,132,27220,62,64,0,2,11,8,16.mid,experiment,1
59,134,27901,67,64,0,2,11,8,16.mid,experiment,1
60,136,28180,67,64,0,2,11,8,16.mid,experiment,1
61,138,28440,71,64,0,2,11,8,16.mid,experiment,1
62,140,28678,71,64,0,2,11,8,16.mid,experiment,1
63,142,28947,72,64,0,2,11,8,16.mid,experiment,1
64,144,29202,72,64,0,2,11,8,16.mid,experiment,1
65,146,29491,73,64,0,2,11,8,16.mid,experiment,1
66,148,29737,73,64,0,2,11,8,16.mid,experiment,1
67,150,30054,74,64,0,2,11,8,16.mid,experiment,1
68,152,30590,77,64,0,2,11,8,16.mid,experiment,1
69,154,31202,76,64,0,2,11,8,16.mid,experiment,1
70,156,31798,74,64,0,2,11,8,16.mid,experiment,1
71,158,32446,72,64,0,2,11,8,16.mid,experiment,1
72,160,32888,84,64,0,2,11,8,16.mid,experiment,1
73,162,33853,84,64,0,2,11,8,16.mid,experiment,1
1,19,8283,79,64,0,2,12,7,13.mid,experiment,1
2,21,8547,78,64,0,2,12,7,13.mid,experiment,1
3,23,8862,79,64,0,2,12,7,13.mid,experiment,1
4,25,9200,76,64,0,2,12,7,13.mid,experiment,1
5,26,9277,72,64,0,2,12,7,13.mid,experiment,1
6,28,9511,67,64,0,2,12,7,13.mid,experiment,1
7,30,9805,67,64,0,2,12,7,13.mid,experiment,1
8,32,10087,67,64,0,2,12,7,13.mid,experiment,1
9,35,10706,79,64,0,2,12,7,13.mid,experiment,1
10,37,10991,78,64,0,2,12,7,13.mid,experiment,1
11,39,11271,79,64,0,2,12,7,13.mid,experiment,1
12,41,11536,76,64,0,2,12,7,13.mid,experiment,1
13,43,11844,72,64,0,2,12,7,13.mid,experiment,1
14,45,12110,76,64,0,2,12,7,13.mid,experiment,1
15,47,12367,79,64,0,2,12,7,13.mid,experiment,1
16,49,12715,84,64,0,2,12,7,13.mid,experiment,1
17,50,12858,83,64,0,2,12,7,13.mid,experiment,1
18,52,13080,81,64,0,2,12,7,13.mid,experiment,1
19,54,13351,81,64,0,2,12,7,13.mid,experiment,1
20,56,13629,81,64,0,2,12,7,13.mid,experiment,1
21,59,14174,83,64,0,2,12,7,13.mid,experiment,1
22,61,14448,81,64,0,2,12,7,13.mid,experiment,1
23,63,14766,84,64,0,2,12,7,13.mid,experiment,1
24,65,15003,81,64,0,2,12,7,13.mid,experiment,1
25,67,15281,78,64,0,2,12,7,13.mid,experiment,1
26,68,15383,79,64,0,2,12,7,13.mid,experiment,1
27,70,15727,79,64,0,2,12,7,13.mid,experiment,1
28,72,16817,79,64,0,2,12,7,13.mid,experiment,1
29,74,17374,77,64,0,2,12,7,13.mid,experiment,1
30,76,17670,77,64,0,2,12,7,13.mid,experiment,1
31,78,17947,76,64,0,2,12,7,13.mid,experiment,1
32,80,18211,76,64,0,2,12,7,13.mid,experiment,1
33,82,19077,74,64,0,2,12,7,13.mid,experiment,1
34,84,20077,79,64,0,2,12,7,13.mid,experiment,1
35,86,20548,77,64,0,2,12,7,13.mid,experiment,1
36,88,20907,76,64,0,2,12,7,13.mid,experiment,1
37,90,21188,76,64,0,2,12,7,13.mid,experiment,1
38,92,21470,76,64,0,2,12,7,13.mid,experiment,1
39,94,21769,76,64,0,2,12,7,13.mid,experiment,1
40,97,22412,81,64,0,2,12,7,13.mid,experiment,1
41,99,22636,77,64,0,2,12,7,13.mid,experiment,1
42,100,22891,76,64,0,2,12,7,13.mid,experiment,1
43,103,23201,74,64,0,2,12,7,13.mid,experiment,1
44,105,23470,76,64,0,2,12,7,13.mid,experiment,1
45,107,23766,79,64,0,2,12,7,13.mid,experiment,1
46,108,23991,74,64,0,2,12,7,13.mid,experiment,1
47,110,24062,71,64,0,2,12,7,13.mid,experiment,1
48,112,24346,72,64,0,2,12,7,13.mid,experiment,1
49,114,24621,72,64,0,2,12,7,13.mid,experiment,1
50,116,24905,74,64,0,2,12,7,13.mid,experiment,1
51,118,25196,74,64,0,2,12,7,13.mid,experiment,1
52,120,26161,76,64,0,2,12,7,13.mid,experiment,1
53,122,26748,65,64,0,2,12,7,13.mid,experiment,1
54,124,27049,65,64,0,2,12,7,13.mid,experiment,1
55,126,27328,64,64,0,2,12,7,13.mid,experiment,1
56,128,27611,64,64,0,2,12,7,13.mid,experiment,1
57,130,28598,62,64,0,2,12,7,13.mid,experiment,1
58,132,29178,67,64,0,2,12,7,13.mid,experiment,1
59,134,29469,67,64,0,2,12,7,13.mid,experiment,1
60,136,29751,71,64,0,2,12,7,13.mid,experiment,1
61,138,30035,71,64,0,2,12,7,13.mid,experiment,1
62,140,30321,72,64,0,2,12,7,13.mid,experiment,1
63,142,30605,72,64,0,2,12,7,13.mid,experiment,1
64,144,30927,73,64,0,2,12,7,13.mid,experiment,1
65,146,31198,73,64,0,2,12,7,13.mid,experiment,1
66,148,31890,74,64,0,2,12,7,13.mid,experiment,1
68,152,32652,77,64,0,2,12,7,13.mid,experiment,1
69,154,33257,76,64,0,2,12,7,13.mid,experiment,1
70,156,33821,74,64,0,2,12,7,13.mid,experiment,1
71,158,34374,72,64,0,2,12,7,13.mid,experiment,1
72,160,35005,84,64,0,2,12,7,13.mid,experiment,1
73,162,36024,84,64,0,2,12,7,13.mid,experiment,1
1,19,8215,79,64,0,2,14,6,16.mid,experiment,1
2,21,8533,78,64,0,2,14,6,16.mid,experiment,1
3,23,8766,79,64,0,2,14,6,16.mid,experiment,1
4,25,9062,76,64,0,2,14,6,16.mid,experiment,1
5,26,9284,72,64,0,2,14,6,16.mid,experiment,1
6,28,9349,67,64,0,2,14,6,16.mid,experiment,1
7,30,9633,67,64,0,2,14,6,16.mid,experiment,1
8,32,9926,67,64,0,2,14,6,16.mid,experiment,1
9,35,10523,79,64,0,2,14,6,16.mid,experiment,1
10,37,10808,78,64,0,2,14,6,16.mid,experiment,1
11,39,11057,79,64,0,2,14,6,16.mid,experiment,1
12,41,11347,76,64,0,2,14,6,16.mid,experiment,1
13,43,11653,72,64,0,2,14,6,16.mid,experiment,1
14,45,11979,76,64,0,2,14,6,16.mid,experiment,1
15,47,12182,79,64,0,2,14,6,16.mid,experiment,1
16,49,12483,84,64,0,2,14,6,16.mid,experiment,1
17,50,12701,83,64,0,2,14,6,16.mid,experiment,1
18,52,12799,81,64,0,2,14,6,16.mid,experiment,1
19,54,13073,81,64,0,2,14,6,16.mid,experiment,1
20,56,13373,81,64,0,2,14,6,16.mid,experiment,1
21,59,13893,83,64,0,2,14,6,16.mid,experiment,1
22,61,14213,81,64,0,2,14,6,16.mid,experiment,1
23,63,14480,84,64,0,2,14,6,16.mid,experiment,1
24,65,14737,81,64,0,2,14,6,16.mid,experiment,1
25,67,15064,78,64,0,2,14,6,16.mid,experiment,1
26,68,15119,79,64,0,2,14,6,16.mid,experiment,1
27,70,15401,79,64,0,2,14,6,16.mid,experiment,1
28,72,16548,79,64,0,2,14,6,16.mid,experiment,1
30,76,21320,77,64,0,2,14,6,16.mid,experiment,1
31,78,21624,77,64,0,2,14,6,16.mid,experiment,1
32,80,21903,76,64,0,2,14,6,16.mid,experiment,1
33,82,22179,76,64,0,2,14,6,16.mid,experiment,1
34,84,23047,74,64,0,2,14,6,16.mid,experiment,1
35,87,24225,79,64,0,2,14,6,16.mid,experiment,1
36,88,24733,77,64,0,2,14,6,16.mid,experiment,1
37,90,24815,76,64,0,2,14,6,16.mid,experiment,1
38,92,25113,76,64,0,2,14,6,16.mid,experiment,1
39,94,25393,76,64,0,2,14,6,16.mid,experiment,1
40,96,25668,76,64,0,2,14,6,16.mid,experiment,1
41,99,26230,81,64,0,2,14,6,16.mid,experiment,1
42,101,26469,77,64,0,2,14,6,16.mid,experiment,1
43,103,26713,76,64,0,2,14,6,16.mid,experiment,1
44,105,27027,74,64,0,2,14,6,16.mid,experiment,1
45,107,27345,76,64,0,2,14,6,16.mid,experiment,1
46,109,27620,79,64,0,2,14,6,16.mid,experiment,1
47,110,27855,74,64,0,2,14,6,16.mid,experiment,1
48,112,28093,71,64,0,2,14,6,16.mid,experiment,1
49,114,28178,72,64,0,2,14,6,16.mid,experiment,1
50,116,28459,72,64,0,2,14,6,16.mid,experiment,1
51,118,28766,74,64,0,2,14,6,16.mid,experiment,1
52,120,29053,74,64,0,2,14,6,16.mid,experiment,1
53,122,29899,76,64,0,2,14,6,16.mid,experiment,1
54,124,30529,65,64,0,2,14,6,16.mid,experiment,1
55,126,30826,65,64,0,2,14,6,16.mid,experiment,1
56,128,31091,64,64,0,2,14,6,16.mid,experiment,1
57,130,31368,64,64,0,2,14,6,16.mid,experiment,1
58,132,32225,62,64,0,2,14,6,16.mid,experiment,1
59,134,32875,67,64,0,2,14,6,16.mid,experiment,1
60,136,33134,67,64,0,2,14,6,16.mid,experiment,1
61,138,33430,71,64,0,2,14,6,16.mid,experiment,1
62,140,33709,71,64,0,2,14,6,16.mid,experiment,1
63,142,33992,72,64,0,2,14,6,16.mid,experiment,1
64,144,34277,72,64,0,2,14,6,16.mid,experiment,1
65,146,34556,73,64,0,2,14,6,16.mid,experiment,1
66,148,34835,73,64,0,2,14,6,16.mid,experiment,1
67,151,35679,74,64,0,2,14,6,16.mid,experiment,1
68,153,36296,77,64,0,2,14,6,16.mid,experiment,1
69,155,36858,76,64,0,2,14,6,16.mid,experiment,1
70,157,37432,74,64,0,2,14,6,16.mid,experiment,1
71,158,37869,72,64,0,2,14,6,16.mid,experiment,1
72,160,38145,84,64,0,2,14,6,16.mid,experiment,1
73,162,39262,84,64,0,2,14,6,16.mid,experiment,1
1,19,8198,79,64,0,2,14,11,12.mid,experiment,1
2,21,8508,78,64,0,2,14,11,12.mid,experiment,1
3,23,8761,79,64,0,2,14,11,12.mid,experiment,1
4,25,9028,76,64,0,2,14,11,12.mid,experiment,1
5,26,9283,72,64,0,2,14,11,12.mid,experiment,1
6,28,9369,67,64,0,2,14,11,12.mid,experiment,1
7,30,9669,67,64,0,2,14,11,12.mid,experiment,1
8,32,9943,67,64,0,2,14,11,12.mid,experiment,1
9,35,10530,79,64,0,2,14,11,12.mid,experiment,1
10,37,10886,78,64,0,2,14,11,12.mid,experiment,1
11,39,11108,79,64,0,2,14,11,12.mid,experiment,1
12,41,11423,76,64,0,2,14,11,12.mid,experiment,1
13,43,11678,72,64,0,2,14,11,12.mid,experiment,1
14,45,11976,76,64,0,2,14,11,12.mid,experiment,1
15,47,12222,79,64,0,2,14,11,12.mid,experiment,1
16,49,12572,84,64,0,2,14,11,12.mid,experiment,1
17,51,12825,83,64,0,2,14,11,12.mid,experiment,1
18,52,12903,81,64,0,2,14,11,12.mid,experiment,1
19,54,13156,81,64,0,2,14,11,12.mid,experiment,1
20,56,13439,81,64,0,2,14,11,12.mid,experiment,1
21,59,14030,83,64,0,2,14,11,12.mid,experiment,1
22,61,14310,81,64,0,2,14,11,12.mid,experiment,1
23,63,14622,84,64,0,2,14,11,12.mid,experiment,1
24,65,14916,81,64,0,2,14,11,12.mid,experiment,1
25,67,15210,78,64,0,2,14,11,12.mid,experiment,1
26,68,15327,79,64,0,2,14,11,12.mid,experiment,1
27,70,15831,79,64,0,2,14,11,12.mid,experiment,1
28,72,16707,79,64,0,2,14,11,12.mid,experiment,1
29,74,17256,77,64,0,2,14,11,12.mid,experiment,1
30,76,17549,77,64,0,2,14,11,12.mid,experiment,1
31,78,17830,76,64,0,2,14,11,12.mid,experiment,1
32,80,18100,76,64,0,2,14,11,12.mid,experiment,1
33,82,18927,74,64,0,2,14,11,12.mid,experiment,1
34,85,20283,79,64,0,2,14,11,12.mid,experiment,1
35,87,20747,77,64,0,2,14,11,12.mid,experiment,1
36,88,20814,76,64,0,2,14,11,12.mid,experiment,1
37,90,21076,76,64,0,2,14,11,12.mid,experiment,1
38,92,21356,76,64,0,2,14,11,12.mid,experiment,1
39,94,21615,76,64,0,2,14,11,12.mid,experiment,1
40,97,22241,81,64,0,2,14,11,12.mid,experiment,1
41,99,22450,77,64,0,2,14,11,12.mid,experiment,1
42,101,22721,76,64,0,2,14,11,12.mid,experiment,1
43,103,23012,74,64,0,2,14,11,12.mid,experiment,1
44,105,23304,76,64,0,2,14,11,12.mid,experiment,1
45,107,23595,79,64,0,2,14,11,12.mid,experiment,1
46,109,23832,74,64,0,2,14,11,12.mid,experiment,1
47,110,24092,71,64,0,2,14,11,12.mid,experiment,1
48,112,24170,72,64,0,2,14,11,12.mid,experiment,1
49,114,24459,72,64,0,2,14,11,12.mid,experiment,1
50,116,24735,74,64,0,2,14,11,12.mid,experiment,1
51,118,25029,74,64,0,2,14,11,12.mid,experiment,1
52,120,25956,76,64,0,2,14,11,12.mid,experiment,1
53,122,26545,65,64,0,2,14,11,12.mid,experiment,1
54,124,26843,65,64,0,2,14,11,12.mid,experiment,1
55,126,27114,64,64,0,2,14,11,12.mid,experiment,1
56,128,27400,64,64,0,2,14,11,12.mid,experiment,1
57,130,28330,62,64,0,2,14,11,12.mid,experiment,1
58,132,28895,67,64,0,2,14,11,12.mid,experiment,1
59,134,29180,67,64,0,2,14,11,12.mid,experiment,1
60,136,29501,71,64,0,2,14,11,12.mid,experiment,1
61,138,29763,71,64,0,2,14,11,12.mid,experiment,1
62,140,30045,72,64,0,2,14,11,12.mid,experiment,1
63,142,30331,72,64,0,2,14,11,12.mid,experiment,1
64,144,30607,73,64,0,2,14,11,12.mid,experiment,1
65,146,30882,73,64,0,2,14,11,12.mid,experiment,1
66,149,31745,74,64,0,2,14,11,12.mid,experiment,1
67,151,32416,77,64,0,2,14,11,12.mid,experiment,1
68,153,32910,76,64,0,2,14,11,12.mid,experiment,1
69,155,33475,74,64,0,2,14,11,12.mid,experiment,1
70,156,33806,72,64,0,2,14,11,12.mid,experiment,1
72,160,34404,84,64,0,2,14,11,12.mid,experiment,1
73,162,35568,84,64,0,2,14,11,12.mid,experiment,1
1,19,8227,79,64,0,2,14,15,8.mid,experiment,1
2,21,8577,78,64,0,2,14,15,8.mid,experiment,1
3,23,8755,79,64,0,2,14,15,8.mid,experiment,1
4,25,9035,76,64,0,2,14,15,8.mid,experiment,1
5,26,9299,72,64,0,2,14,15,8.mid,experiment,1
6,28,9350,67,64,0,2,14,15,8.mid,experiment,1
7,30,9657,67,64,0,2,14,15,8.mid,experiment,1
8,32,9943,67,64,0,2,14,15,8.mid,experiment,1
9,35,10525,79,64,0,2,14,15,8.mid,experiment,1
10,37,10913,78,64,0,2,14,15,8.mid,experiment,1
11,39,11119,79,64,0,2,14,15,8.mid,experiment,1
12,41,11461,76,64,0,2,14,15,8.mid,experiment,1
13,43,11719,72,64,0,2,14,15,8.mid,experiment,1
14,45,12020,76,64,0,2,14,15,8.mid,experiment,1
15,47,12266,79,64,0,2,14,15,8.mid,experiment,1
16,49,12597,84,64,0,2,14,15,8.mid,experiment,1
17,51,12833,83,64,0,2,14,15,8.mid,experiment,1
18,52,12877,81,64,0,2,14,15,8.mid,experiment,1
19,54,13149,81,64,0,2,14,15,8.mid,experiment,1
20,56,13429,81,64,0,2,14,15,8.mid,experiment,1
21,59,14064,83,64,0,2,14,15,8.mid,experiment,1
22,61,14333,81,64,0,2,14,15,8.mid,experiment,1
23,63,14569,84,64,0,2,14,15,8.mid,experiment,1
24,65,14823,81,64,0,2,14,15,8.mid,experiment,1
25,67,15137,78,64,0,2,14,15,8.mid,experiment,1
26,68,15335,79,64,0,2,14,15,8.mid,experiment,1
27,70,15857,79,64,0,2,14,15,8.mid,experiment,1
28,72,16710,79,64,0,2,14,15,8.mid,experiment,1
29,74,17200,77,64,0,2,14,15,8.mid,experiment,1
30,76,17507,77,64,0,2,14,15,8.mid,experiment,1
31,78,17779,76,64,0,2,14,15,8.mid,experiment,1
32,80,18062,76,64,0,2,14,15,8.mid,experiment,1
33,82,18891,74,64,0,2,14,15,8.mid,experiment,1
34,85,20061,79,64,0,2,14,15,8.mid,experiment,1
35,87,20601,77,64,0,2,14,15,8.mid,experiment,1
36,88,20661,76,64,0,2,14,15,8.mid,experiment,1
37,90,20915,76,64,0,2,14,15,8.mid,experiment,1
38,92,21196,76,64,0,2,14,15,8.mid,experiment,1
39,94,21467,76,64,0,2,14,15,8.mid,experiment,1
40,97,22099,81,64,0,2,14,15,8.mid,experiment,1
41,99,22345,77,64,0,2,14,15,8.mid,experiment,1
42,101,22614,76,64,0,2,14,15,8.mid,experiment,1
43,103,22885,74,64,0,2,14,15,8.mid,experiment,1
44,105,23177,76,64,0,2,14,15,8.mid,experiment,1
45,107,23497,79,64,0,2,14,15,8.mid,experiment,1
46,109,23764,74,64,0,2,14,15,8.mid,experiment,1
47,110,23987,71,64,0,2,14,15,8.mid,experiment,1
48,112,24069,72,64,0,2,14,15,8.mid,experiment,1
49,114,24351,72,64,0,2,14,15,8.mid,experiment,1
50,116,24619,74,64,0,2,14,15,8.mid,experiment,1
51,118,24920,74,64,0,2,14,15,8.mid,experiment,1
52,120,25811,76,64,0,2,14,15,8.mid,experiment,1
53,122,26413,65,64,0,2,14,15,8.mid,experiment,1
54,124,26707,65,64,0,2,14,15,8.mid,experiment,1
55,126,26987,64,64,0,2,14,15,8.mid,experiment,1
56,128,27273,64,64,0,2,14,15,8.mid,experiment,1
57,130,28109,62,64,0,2,14,15,8.mid,experiment,1
58,132,28763,67,64,0,2,14,15,8.mid,experiment,1
59,134,29047,67,64,0,2,14,15,8.mid,experiment,1
60,136,29347,71,64,0,2,14,15,8.mid,experiment,1
61,138,29619,71,64,0,2,14,15,8.mid,experiment,1
62,140,29917,72,64,0,2,14,15,8.mid,experiment,1
63,142,30206,72,64,0,2,14,15,8.mid,experiment,1
64,144,30475,73,64,0,2,14,15,8.mid,experiment,1
65,146,30756,73,64,0,2,14,15,8.mid,experiment,1
67,151,31641,74,64,0,2,14,15,8.mid,experiment,1
68,153,32207,77,64,0,2,14,15,8.mid,experiment,1
69,155,32791,76,64,0,2,14,15,8.mid,experiment,1
70,157,33363,74,64,0,2,14,15,8.mid,experiment,1
71,158,33743,72,64,0,2,14,15,8.mid,experiment,1
72,160,34283,84,64,0,2,14,15,8.mid,experiment,1
73,162,35479,84,64,0,2,14,15,8.mid,experiment,1
1,19,8758,79,64,0,2,19,2,2.mid,experiment,1
2,21,9041,78,64,0,2,19,2,2.mid,experiment,1
3,24,9320,79,64,0,2,19,2,2.mid,experiment,1
5,27,9631,76,64,0,2,19,2,2.mid,experiment,1
6,28,9839,72,64,0,2,19,2,2.mid,experiment,1
7,30,9908,67,64,0,2,19,2,2.mid,experiment,1
8,32,10218,67,64,0,2,19,2,2.mid,experiment,1
9,34,10483,67,64,0,2,19,2,2.mid,experiment,1
10,37,11013,79,64,0,2,19,2,2.mid,experiment,1
11,39,11299,78,64,0,2,19,2,2.mid,experiment,1
12,41,11536,79,64,0,2,19,2,2.mid,experiment,1
13,43,11847,76,64,0,2,19,2,2.mid,experiment,1
14,45,12100,72,64,0,2,19,2,2.mid,experiment,1
15,47,12400,76,64,0,2,19,2,2.mid,experiment,1
16,49,12605,79,64,0,2,19,2,2.mid,experiment,1
17,51,12890,84,64,0,2,19,2,2.mid,experiment,1
18,52,13008,83,64,0,2,19,2,2.mid,experiment,1
19,54,13196,81,64,0,2,19,2,2.mid,experiment,1
20,56,13504,81,64,0,2,19,2,2.mid,experiment,1
21,58,13751,81,64,0,2,19,2,2.mid,experiment,1
22,61,14245,83,64,0,2,19,2,2.mid,experiment,1
23,63,14488,81,64,0,2,19,2,2.mid,experiment,1
24,65,14779,84,64,0,2,19,2,2.mid,experiment,1
25,67,15056,81,64,0,2,19,2,2.mid,experiment,1
26,69,15315,78,64,0,2,19,2,2.mid,experiment,1
27,70,15386,79,64,0,2,19,2,2.mid,experiment,1
28,72,15853,79,64,0,2,19,2,2.mid,experiment,1
29,74,16679,79,64,0,2,19,2,2.mid,experiment,1
30,76,17285,77,64,0,2,19,2,2.mid,experiment,1
31,78,17574,77,64,0,2,19,2,2.mid,experiment,1
32,80,17852,76,64,0,2,19,2,2.mid,experiment,1
33,82,18115,76,64,0,2,19,2,2.mid,experiment,1
34,84,18944,74,64,0,2,19,2,2.mid,experiment,1
35,86,20043,79,64,0,2,19,2,2.mid,experiment,1
36,88,20460,77,64,0,2,19,2,2.mid,experiment,1
37,90,20698,76,64,0,2,19,2,2.mid,experiment,1
38,92,20994,76,64,0,2,19,2,2.mid,experiment,1
39,94,21244,76,64,0,2,19,2,2.mid,experiment,1
40,96,21547,76,64,0,2,19,2,2.mid,experiment,1
41,99,22043,81,64,0,2,19,2,2.mid,experiment,1
42,101,22319,77,64,0,2,19,2,2.mid,experiment,1
43,103,22551,76,64,0,2,19,2,2.mid,experiment,1
44,105,22825,74,64,0,2,19,2,2.mid,experiment,1
45,107,23076,76,64,0,2,19,2,2.mid,experiment,1
46,109,23377,79,64,0,2,19,2,2.mid,experiment,1
47,110,23576,74,64,0,2,19,2,2.mid,experiment,1
48,112,23695,71,64,0,2,19,2,2.mid,experiment,1
49,114,23911,72,64,0,2,19,2,2.mid,experiment,1
50,116,24181,72,64,0,2,19,2,2.mid,experiment,1
51,118,24451,74,64,0,2,19,2,2.mid,experiment,1
52,120,24709,74,64,0,2,19,2,2.mid,experiment,1
53,122,25463,76,64,0,2,19,2,2.mid,experiment,1
54,124,26146,65,64,0,2,19,2,2.mid,experiment,1
55,126,26419,65,64,0,2,19,2,2.mid,experiment,1
56,128,26722,64,64,0,2,19,2,2.mid,experiment,1
57,130,26991,64,64,0,2,19,2,2.mid,experiment,1
58,132,27780,62,64,0,2,19,2,2.mid,experiment,1
59,134,28412,67,64,0,2,19,2,2.mid,experiment,1
60,136,28681,67,64,0,2,19,2,2.mid,experiment,1
61,138,28932,71,64,0,2,19,2,2.mid,experiment,1
62,140,29217,71,64,0,2,19,2,2.mid,experiment,1
63,142,29479,72,64,0,2,19,2,2.mid,experiment,1
64,144,29744,72,64,0,2,19,2,2.mid,experiment,1
65,146,30025,73,64,0,2,19,2,2.mid,experiment,1
66,148,30321,73,64,0,2,19,2,2.mid,experiment,1
67,151,31097,74,64,0,2,19,2,2.mid,experiment,1
68,153,31638,77,64,0,2,19,2,2.mid,experiment,1
69,155,32197,76,64,0,2,19,2,2.mid,experiment,1
70,157,32686,74,64,0,2,19,2,2.mid,experiment,1
71,159,33240,72,64,0,2,19,2,2.mid,experiment,1
72,160,33530,84,64,0,2,19,2,2.mid,experiment,1
73,162,34216,84,64,0,2,19,2,2.mid,experiment,1
1,19,8916,79,64,0,2,19,4,1.mid,experiment,1
2,21,9092,78,64,0,2,19,4,1.mid,experiment,1
3,23,9362,79,64,0,2,19,4,1.mid,experiment,1
4,27,9642,76,64,0,2,19,4,1.mid,experiment,1
5,28,9836,72,64,0,2,19,4,1.mid,experiment,1
6,30,9915,67,64,0,2,19,4,1.mid,experiment,1
7,32,10174,67,64,0,2,19,4,1.mid,experiment,1
8,34,10440,67,64,0,2,19,4,1.mid,experiment,1
9,37,10934,79,64,0,2,19,4,1.mid,experiment,1
10,39,11162,78,64,0,2,19,4,1.mid,experiment,1
11,41,11424,79,64,0,2,19,4,1.mid,experiment,1
12,43,11694,76,64,0,2,19,4,1.mid,experiment,1
13,45,11952,72,64,0,2,19,4,1.mid,experiment,1
14,47,12230,76,64,0,2,19,4,1.mid,experiment,1
15,49,12428,79,64,0,2,19,4,1.mid,experiment,1
16,51,12716,84,64,0,2,19,4,1.mid,experiment,1
17,52,12870,83,64,0,2,19,4,1.mid,experiment,1
18,54,12990,81,64,0,2,19,4,1.mid,experiment,1
19,56,13246,81,64,0,2,19,4,1.mid,experiment,1
20,58,13552,81,64,0,2,19,4,1.mid,experiment,1
21,61,14014,83,64,0,2,19,4,1.mid,experiment,1
22,63,14249,81,64,0,2,19,4,1.mid,experiment,1
23,65,14520,84,64,0,2,19,4,1.mid,experiment,1
24,67,14806,81,64,0,2,19,4,1.mid,experiment,1
25,69,15030,78,64,0,2,19,4,1.mid,experiment,1
26,70,15096,79,64,0,2,19,4,1.mid,experiment,1
27,72,15530,79,64,0,2,19,4,1.mid,experiment,1
28,74,16336,79,64,0,2,19,4,1.mid,experiment,1
29,76,17006,77,64,0,2,19,4,1.mid,experiment,1
30,78,17280,77,64,0,2,19,4,1.mid,experiment,1
31,80,17576,76,64,0,2,19,4,1.mid,experiment,1
32,82,17829,76,64,0,2,19,4,1.mid,experiment,1
33,84,18290,74,64,0,2,19,4,1.mid,experiment,1
34,86,19606,79,64,0,2,19,4,1.mid,experiment,1
35,88,20008,77,64,0,2,19,4,1.mid,experiment,1
36,90,20228,76,64,0,2,19,4,1.mid,experiment,1
37,92,20490,76,64,0,2,19,4,1.mid,experiment,1
38,94,20755,76,64,0,2,19,4,1.mid,experiment,1
39,96,21028,76,64,0,2,19,4,1.mid,experiment,1
40,101,21501,81,64,0,2,19,4,1.mid,experiment,1
41,103,21726,77,64,0,2,19,4,1.mid,experiment,1
42,105,21970,76,64,0,2,19,4,1.mid,experiment,1
43,107,22206,74,64,0,2,19,4,1.mid,experiment,1
44,109,22508,76,64,0,2,19,4,1.mid,experiment,1
45,111,22780,79,64,0,2,19,4,1.mid,experiment,1
46,113,22957,74,64,0,2,19,4,1.mid,experiment,1
47,115,23188,71,64,0,2,19,4,1.mid,experiment,1
48,116,23238,72,64,0,2,19,4,1.mid,experiment,1
49,118,23485,72,64,0,2,19,4,1.mid,experiment,1
50,120,23730,74,64,0,2,19,4,1.mid,experiment,1
51,122,24003,74,64,0,2,19,4,1.mid,experiment,1
52,124,24714,76,64,0,2,19,4,1.mid,experiment,1
53,126,25372,65,64,0,2,19,4,1.mid,experiment,1
54,128,25610,65,64,0,2,19,4,1.mid,experiment,1
55,130,25874,64,64,0,2,19,4,1.mid,experiment,1
56,132,26120,64,64,0,2,19,4,1.mid,experiment,1
57,134,26844,62,64,0,2,19,4,1.mid,experiment,1
58,136,27461,67,64,0,2,19,4,1.mid,experiment,1
59,138,27736,67,64,0,2,19,4,1.mid,experiment,1
60,140,27970,71,64,0,2,19,4,1.mid,experiment,1
61,142,28239,71,64,0,2,19,4,1.mid,experiment,1
62,144,28524,72,64,0,2,19,4,1.mid,experiment,1
63,146,28792,72,64,0,2,19,4,1.mid,experiment,1
64,148,29043,73,64,0,2,19,4,1.mid,experiment,1
65,150,29312,73,64,0,2,19,4,1.mid,experiment,1
67,155,30021,74,64,0,2,19,4,1.mid,experiment,1
68,157,30534,77,64,0,2,19,4,1.mid,experiment,1
69,159,31054,76,64,0,2,19,4,1.mid,experiment,1
70,161,31561,74,64,0,2,19,4,1.mid,experiment,1
71,163,32091,72,64,0,2,19,4,1.mid,experiment,1
72,164,32490,84,64,0,2,19,4,1.mid,experiment,1
73,166,33145,84,64,0,2,19,4,1.mid,experiment,1
1,19,8890,79,64,0,2,19,6,4.mid,experiment,1
2,21,9140,78,64,0,2,19,6,4.mid,experiment,1
3,23,9402,79,64,0,2,19,6,4.mid,experiment,1
4,25,9692,76,64,0,2,19,6,4.mid,experiment,1
5,26,9789,72,64,0,2,19,6,4.mid,experiment,1
6,28,10006,67,64,0,2,19,6,4.mid,experiment,1
7,30,10300,67,64,0,2,19,6,4.mid,experiment,1
8,32,10575,67,64,0,2,19,6,4.mid,experiment,1
9,35,11100,79,64,0,2,19,6,4.mid,experiment,1
10,37,11347,78,64,0,2,19,6,4.mid,experiment,1
11,39,11583,79,64,0,2,19,6,4.mid,experiment,1
12,41,11870,76,64,0,2,19,6,4.mid,experiment,1
13,43,12120,72,64,0,2,19,6,4.mid,experiment,1
14,45,12399,76,64,0,2,19,6,4.mid,experiment,1
15,47,12596,79,64,0,2,19,6,4.mid,experiment,1
16,49,12892,84,64,0,2,19,6,4.mid,experiment,1
17,50,12989,83,64,0,2,19,6,4.mid,experiment,1
18,52,13178,81,64,0,2,19,6,4.mid,experiment,1
19,54,13431,81,64,0,2,19,6,4.mid,experiment,1
20,56,13724,81,64,0,2,19,6,4.mid,experiment,1
22,61,14221,83,64,0,2,19,6,4.mid,experiment,1
23,63,14443,81,64,0,2,19,6,4.mid,experiment,1
24,65,14714,84,64,0,2,19,6,4.mid,experiment,1
25,67,14974,81,64,0,2,19,6,4.mid,experiment,1
26,69,15227,78,64,0,2,19,6,4.mid,experiment,1
27,70,15311,79,64,0,2,19,6,4.mid,experiment,1
28,72,15767,79,64,0,2,19,6,4.mid,experiment,1
29,74,16568,79,64,0,2,19,6,4.mid,experiment,1
30,76,17215,77,64,0,2,19,6,4.mid,experiment,1
31,78,17475,77,64,0,2,19,6,4.mid,experiment,1
32,80,17750,76,64,0,2,19,6,4.mid,experiment,1
33,82,17998,76,64,0,2,19,6,4.mid,experiment,1
34,84,18770,74,64,0,2,19,6,4.mid,experiment,1
35,86,19884,79,64,0,2,19,6,4.mid,experiment,1
36,88,20272,77,64,0,2,19,6,4.mid,experiment,1
37,90,20496,76,64,0,2,19,6,4.mid,experiment,1
38,92,20768,76,64,0,2,19,6,4.mid,experiment,1
39,94,21037,76,64,0,2,19,6,4.mid,experiment,1
40,96,21335,76,64,0,2,19,6,4.mid,experiment,1
41,99,21804,81,64,0,2,19,6,4.mid,experiment,1
42,101,22029,77,64,0,2,19,6,4.mid,experiment,1
43,103,22270,76,64,0,2,19,6,4.mid,experiment,1
44,105,22523,74,64,0,2,19,6,4.mid,experiment,1
45,107,22791,76,64,0,2,19,6,4.mid,experiment,1
46,109,23040,79,64,0,2,19,6,4.mid,experiment,1
47,111,23269,74,64,0,2,19,6,4.mid,experiment,1
48,112,23460,71,64,0,2,19,6,4.mid,experiment,1
49,114,23558,72,64,0,2,19,6,4.mid,experiment,1
50,116,23824,72,64,0,2,19,6,4.mid,experiment,1
51,118,24089,74,64,0,2,19,6,4.mid,experiment,1
52,120,24349,74,64,0,2,19,6,4.mid,experiment,1
53,122,24964,76,64,0,2,19,6,4.mid,experiment,1
54,124,25688,65,64,0,2,19,6,4.mid,experiment,1
55,126,25944,65,64,0,2,19,6,4.mid,experiment,1
56,128,26193,64,64,0,2,19,6,4.mid,experiment,1
57,130,26464,64,64,0,2,19,6,4.mid,experiment,1
58,132,27128,62,64,0,2,19,6,4.mid,experiment,1
59,134,27752,67,64,0,2,19,6,4.mid,experiment,1
60,136,28014,67,64,0,2,19,6,4.mid,experiment,1
61,138,28267,71,64,0,2,19,6,4.mid,experiment,1
62,140,28544,71,64,0,2,19,6,4.mid,experiment,1
63,142,28823,72,64,0,2,19,6,4.mid,experiment,1
64,144,29052,72,64,0,2,19,6,4.mid,experiment,1
65,146,29338,73,64,0,2,19,6,4.mid,experiment,1
66,148,29610,73,64,0,2,19,6,4.mid,experiment,1
67,151,30338,74,64,0,2,19,6,4.mid,experiment,1
68,153,30861,77,64,0,2,19,6,4.mid,experiment,1
69,155,31401,76,64,0,2,19,6,4.mid,experiment,1
70,157,31921,74,64,0,2,19,6,4.mid,experiment,1
71,159,32443,72,64,0,2,19,6,4.mid,experiment,1
72,160,32897,84,64,0,2,19,6,4.mid,experiment,1
73,162,33515,84,64,0,2,19,6,4.mid,experiment,1
1,19,8775,79,64,0,2,19,13,16.mid,experiment,1
2,21,9054,78,64,0,2,19,13,16.mid,experiment,1
3,23,9322,79,64,0,2,19,13,16.mid,experiment,1
4,25,9635,76,64,0,2,19,13,16.mid,experiment,1
5,26,9778,72,64,0,2,19,13,16.mid,experiment,1
6,28,9946,67,64,0,2,19,13,16.mid,experiment,1
7,30,10253,67,64,0,2,19,13,16.mid,experiment,1
8,32,10552,67,64,0,2,19,13,16.mid,experiment,1
9,35,11121,79,64,0,2,19,13,16.mid,experiment,1
10,37,11394,78,64,0,2,19,13,16.mid,experiment,1
11,39,11671,79,64,0,2,19,13,16.mid,experiment,1
12,41,11987,76,64,0,2,19,13,16.mid,experiment,1
13,43,12257,72,64,0,2,19,13,16.mid,experiment,1
14,45,12553,76,64,0,2,19,13,16.mid,experiment,1
15,47,12774,79,64,0,2,19,13,16.mid,experiment,1
16,49,13065,84,64,0,2,19,13,16.mid,experiment,1
17,50,13217,83,64,0,2,19,13,16.mid,experiment,1
18,52,13661,81,64,0,2,19,13,16.mid,experiment,1
19,54,13943,81,64,0,2,19,13,16.mid,experiment,1
20,56,14219,81,64,0,2,19,13,16.mid,experiment,1
21,59,14762,83,64,0,2,19,13,16.mid,experiment,1
22,62,15035,81,64,0,2,19,13,16.mid,experiment,1
24,65,15325,84,64,0,2,19,13,16.mid,experiment,1
25,67,15633,81,64,0,2,19,13,16.mid,experiment,1
26,69,15908,78,64,0,2,19,13,16.mid,experiment,1
27,70,15974,79,64,0,2,19,13,16.mid,experiment,1
28,72,16456,79,64,0,2,19,13,16.mid,experiment,1
29,74,17262,79,64,0,2,19,13,16.mid,experiment,1
30,76,18127,77,64,0,2,19,13,16.mid,experiment,1
31,78,18385,77,64,0,2,19,13,16.mid,experiment,1
32,80,18679,76,64,0,2,19,13,16.mid,experiment,1
33,82,18939,76,64,0,2,19,13,16.mid,experiment,1
34,84,19482,74,64,0,2,19,13,16.mid,experiment,1
35,86,20809,79,64,0,2,19,13,16.mid,experiment,1
36,88,21368,77,64,0,2,19,13,16.mid,experiment,1
37,90,21618,76,64,0,2,19,13,16.mid,experiment,1
38,92,21894,76,64,0,2,19,13,16.mid,experiment,1
39,94,22138,76,64,0,2,19,13,16.mid,experiment,1
40,96,22445,76,64,0,2,19,13,16.mid,experiment,1
41,99,23057,81,64,0,2,19,13,16.mid,experiment,1
42,101,23300,77,64,0,2,19,13,16.mid,experiment,1
43,103,23547,76,64,0,2,19,13,16.mid,experiment,1
44,104,23778,74,64,0,2,19,13,16.mid,experiment,1
45,107,24114,76,64,0,2,19,13,16.mid,experiment,1
46,109,24349,79,64,0,2,19,13,16.mid,experiment,1
47,111,24596,74,64,0,2,19,13,16.mid,experiment,1
48,112,24723,71,64,0,2,19,13,16.mid,experiment,1
49,114,24921,72,64,0,2,19,13,16.mid,experiment,1
50,116,25193,72,64,0,2,19,13,16.mid,experiment,1
51,118,25462,74,64,0,2,19,13,16.mid,experiment,1
52,120,25738,74,64,0,2,19,13,16.mid,experiment,1
53,122,26387,76,64,0,2,19,13,16.mid,experiment,1
54,124,27192,65,64,0,2,19,13,16.mid,experiment,1
55,126,27442,65,64,0,2,19,13,16.mid,experiment,1
56,128,27715,64,64,0,2,19,13,16.mid,experiment,1
57,130,27976,64,64,0,2,19,13,16.mid,experiment,1
58,132,28661,62,64,0,2,19,13,16.mid,experiment,1
59,134,29372,67,64,0,2,19,13,16.mid,experiment,1
60,136,29629,67,64,0,2,19,13,16.mid,experiment,1
61,138,29897,71,64,0,2,19,13,16.mid,experiment,1
62,140,30163,71,64,0,2,19,13,16.mid,experiment,1
63,142,30416,72,64,0,2,19,13,16.mid,experiment,1
64,144,30689,72,64,0,2,19,13,16.mid,experiment,1
65,146,30956,73,64,0,2,19,13,16.mid,experiment,1
66,148,31232,73,64,0,2,19,13,16.mid,experiment,1
67,151,32178,74,64,0,2,19,13,16.mid,experiment,1
68,152,32699,77,64,0,2,19,13,16.mid,experiment,1
69,155,33266,76,64,0,2,19,13,16.mid,experiment,1
70,157,33822,74,64,0,2,19,13,16.mid,experiment,1
71,158,34367,72,64,0,2,19,13,16.mid,experiment,1
72,160,34841,84,64,0,2,19,13,16.mid,experiment,1
73,162,35574,84,64,0,2,19,13,16.mid,experiment,1
1,18,7984,79,64,0,2,21,2,5.mid,experiment,1
2,20,8285,78,64,0,2,21,2,5.mid,experiment,1
3,22,8517,79,64,0,2,21,2,5.mid,experiment,1
4,24,8767,76,64,0,2,21,2,5.mid,experiment,1
5,26,9006,72,64,0,2,21,2,5.mid,experiment,1
6,28,9287,67,64,0,2,21,2,5.mid,experiment,1
7,30,9515,67,64,0,2,21,2,5.mid,experiment,1
8,32,9779,67,64,0,2,21,2,5.mid,experiment,1
9,34,10131,79,64,0,2,21,2,5.mid,experiment,1
10,36,10438,78,64,0,2,21,2,5.mid,experiment,1
11,38,10689,79,64,0,2,21,2,5.mid,experiment,1
12,40,10992,76,64,0,2,21,2,5.mid,experiment,1
13,42,11243,72,64,0,2,21,2,5.mid,experiment,1
14,44,11506,76,64,0,2,21,2,5.mid,experiment,1
15,46,11787,79,64,0,2,21,2,5.mid,experiment,1
16,48,12039,84,64,0,2,21,2,5.mid,experiment,1
17,50,12298,83,64,0,2,21,2,5.mid,experiment,1
18,52,12496,81,64,0,2,21,2,5.mid,experiment,1
19,54,12745,81,64,0,2,21,2,5.mid,experiment,1
20,56,13015,81,64,0,2,21,2,5.mid,experiment,1
21,58,13338,83,64,0,2,21,2,5.mid,experiment,1
22,60,13595,81,64,0,2,21,2,5.mid,experiment,1
23,62,13941,84,64,0,2,21,2,5.mid,experiment,1
24,64,14226,81,64,0,2,21,2,5.mid,experiment,1
25,66,14446,78,64,0,2,21,2,5.mid,experiment,1
26,68,14686,79,64,0,2,21,2,5.mid,experiment,1
27,70,15191,79,64,0,2,21,2,5.mid,experiment,1
28,72,16055,79,64,0,2,21,2,5.mid,experiment,1
29,74,16671,77,64,0,2,21,2,5.mid,experiment,1
30,76,16998,77,64,0,2,21,2,5.mid,experiment,1
31,78,17259,76,64,0,2,21,2,5.mid,experiment,1
32,80,17526,76,64,0,2,21,2,5.mid,experiment,1
33,82,18299,74,64,0,2,21,2,5.mid,experiment,1
34,84,19146,79,64,0,2,21,2,5.mid,experiment,1
35,86,19713,77,64,0,2,21,2,5.mid,experiment,1
36,88,19990,76,64,0,2,21,2,5.mid,experiment,1
37,90,20260,76,64,0,2,21,2,5.mid,experiment,1
38,92,20508,76,64,0,2,21,2,5.mid,experiment,1
40,96,20775,76,64,0,2,21,2,5.mid,experiment,1
41,98,21163,81,64,0,2,21,2,5.mid,experiment,1
42,100,21457,77,64,0,2,21,2,5.mid,experiment,1
43,102,21680,76,64,0,2,21,2,5.mid,experiment,1
44,104,21928,74,64,0,2,21,2,5.mid,experiment,1
45,106,22224,76,64,0,2,21,2,5.mid,experiment,1
46,108,22473,79,64,0,2,21,2,5.mid,experiment,1
47,110,22755,74,64,0,2,21,2,5.mid,experiment,1
48,112,23056,71,64,0,2,21,2,5.mid,experiment,1
49,114,23184,72,64,0,2,21,2,5.mid,experiment,1
50,116,23590,72,64,0,2,21,2,5.mid,experiment,1
51,118,23736,74,64,0,2,21,2,5.mid,experiment,1
52,120,24035,74,64,0,2,21,2,5.mid,experiment,1
53,122,24744,76,64,0,2,21,2,5.mid,experiment,1
54,124,25375,65,64,0,2,21,2,5.mid,experiment,1
55,126,25746,65,64,0,2,21,2,5.mid,experiment,1
56,128,25947,64,64,0,2,21,2,5.mid,experiment,1
57,130,26302,64,64,0,2,21,2,5.mid,experiment,1
58,132,26891,62,64,0,2,21,2,5.mid,experiment,1
59,134,27527,67,64,0,2,21,2,5.mid,experiment,1
60,136,27938,67,64,0,2,21,2,5.mid,experiment,1
61,138,28067,71,64,0,2,21,2,5.mid,experiment,1
62,140,28402,71,64,0,2,21,2,5.mid,experiment,1
63,142,28630,72,64,0,2,21,2,5.mid,experiment,1
64,145,28999,72,64,0,2,21,2,5.mid,experiment,1
65,146,29131,73,64,0,2,21,2,5.mid,experiment,1
66,148,29453,73,64,0,2,21,2,5.mid,experiment,1
67,150,29950,74,64,0,2,21,2,5.mid,experiment,1
68,152,30490,77,64,0,2,21,2,5.mid,experiment,1
69,154,30983,76,64,0,2,21,2,5.mid,experiment,1
70,156,31380,74,64,0,2,21,2,5.mid,experiment,1
71,158,31936,72,64,0,2,21,2,5.mid,experiment,1
72,160,32513,84,64,0,2,21,2,5.mid,experiment,1
73,162,33573,84,64,0,2,21,2,5.mid,experiment,1
1,19,8150,79,64,0,2,4,1,7.mid,experiment,1
2,21,8414,78,64,0,2,4,1,7.mid,experiment,1
3,23,8732,79,64,0,2,4,1,7.mid,experiment,1
4,25,8992,76,64,0,2,4,1,7.mid,experiment,1
5,26,8998,72,64,0,2,4,1,7.mid,experiment,1
6,28,9306,67,64,0,2,4,1,7.mid,experiment,1
7,30,9564,67,64,0,2,4,1,7.mid,experiment,1
8,32,9850,67,64,0,2,4,1,7.mid,experiment,1
9,35,10486,79,64,0,2,4,1,7.mid,experiment,1
10,37,10815,78,64,0,2,4,1,7.mid,experiment,1
11,39,11256,79,64,0,2,4,1,7.mid,experiment,1
12,41,11372,76,64,0,2,4,1,7.mid,experiment,1
13,44,11910,72,64,0,2,4,1,7.mid,experiment,1
14,45,11942,76,64,0,2,4,1,7.mid,experiment,1
15,47,12173,79,64,0,2,4,1,7.mid,experiment,1
16,49,12594,84,64,0,2,4,1,7.mid,experiment,1
17,50,12684,83,64,0,2,4,1,7.mid,experiment,1
18,52,12815,81,64,0,2,4,1,7.mid,experiment,1
19,54,13107,81,64,0,2,4,1,7.mid,experiment,1
20,56,13392,81,64,0,2,4,1,7.mid,experiment,1
21,59,13996,83,64,0,2,4,1,7.mid,experiment,1
22,61,14332,81,64,0,2,4,1,7.mid,experiment,1
23,63,14596,84,64,0,2,4,1,7.mid,experiment,1
24,65,14960,81,64,0,2,4,1,7.mid,experiment,1
25,67,15174,78,64,0,2,4,1,7.mid,experiment,1
26,68,15234,79,64,0,2,4,1,7.mid,experiment,1
27,70,15540,79,64,0,2,4,1,7.mid,experiment,1
28,72,16308,79,64,0,2,4,1,7.mid,experiment,1
29,74,17172,77,64,0,2,4,1,7.mid,experiment,1
30,76,17452,77,64,0,2,4,1,7.mid,experiment,1
31,78,17738,76,64,0,2,4,1,7.mid,experiment,1
32,80,17988,76,64,0,2,4,1,7.mid,experiment,1
33,82,18602,74,64,0,2,4,1,7.mid,experiment,1
34,84,19742,79,64,0,2,4,1,7.mid,experiment,1
35,86,20248,77,64,0,2,4,1,7.mid,experiment,1
36,88,20600,76,64,0,2,4,1,7.mid,experiment,1
37,90,20862,76,64,0,2,4,1,7.mid,experiment,1
38,92,21142,76,64,0,2,4,1,7.mid,experiment,1
39,94,21408,76,64,0,2,4,1,7.mid,experiment,1
40,98,22440,81,64,0,2,4,1,7.mid,experiment,1
41,99,22446,77,64,0,2,4,1,7.mid,experiment,1
42,101,22612,76,64,0,2,4,1,7.mid,experiment,1
43,103,22934,74,64,0,2,4,1,7.mid,experiment,1
44,105,23228,76,64,0,2,4,1,7.mid,experiment,1
45,107,23601,79,64,0,2,4,1,7.mid,experiment,1
46,109,23669,74,64,0,2,4,1,7.mid,experiment,1
47,110,23704,71,64,0,2,4,1,7.mid,experiment,1
48,112,23971,72,64,0,2,4,1,7.mid,experiment,1
49,114,24229,72,64,0,2,4,1,7.mid,experiment,1
50,116,24516,74,64,0,2,4,1,7.mid,experiment,1
51,118,24799,74,64,0,2,4,1,7.mid,experiment,1
52,120,25629,76,64,0,2,4,1,7.mid,experiment,1
53,122,26154,65,64,0,2,4,1,7.mid,experiment,1
54,124,26416,65,64,0,2,4,1,7.mid,experiment,1
55,126,26710,64,64,0,2,4,1,7.mid,experiment,1
56,128,26964,64,64,0,2,4,1,7.mid,experiment,1
57,130,27676,62,64,0,2,4,1,7.mid,experiment,1
58,132,28378,67,64,0,2,4,1,7.mid,experiment,1
59,134,28632,67,64,0,2,4,1,7.mid,experiment,1
60,136,29178,71,64,0,2,4,1,7.mid,experiment,1
61,136,,71,,0,2,4,1,7.mid,experiment,1
62,138,29439,72,64,0,2,4,1,7.mid,experiment,1
63,140,29718,72,64,0,2,4,1,7.mid,experiment,1
64,142,29988,73,64,0,2,4,1,7.mid,experiment,1
65,144,30250,73,64,0,2,4,1,7.mid,experiment,1
66,147,31264,74,64,0,2,4,1,7.mid,experiment,1
67,149,31766,77,64,0,2,4,1,7.mid,experiment,1
68,151,32314,76,64,0,2,4,1,7.mid,experiment,1
69,153,32828,74,64,0,2,4,1,7.mid,experiment,1
70,155,33530,72,64,0,2,4,1,7.mid,experiment,1
71,156,33686,84,64,0,2,4,1,7.mid,experiment,1
72,158,34750,84,64,0,2,4,1,7.mid,experiment,1
1,19,8150,79,64,0,2,4,5,3.mid,experiment,1
2,21,8420,78,64,0,2,4,5,3.mid,experiment,1
3,23,8703,79,64,0,2,4,5,3.mid,experiment,1
4,25,9069,76,64,0,2,4,5,3.mid,experiment,1
5,27,9263,72,64,0,2,4,5,3.mid,experiment,1
6,28,9282,67,64,0,2,4,5,3.mid,experiment,1
7,30,9548,67,64,0,2,4,5,3.mid,experiment,1
8,32,9845,67,64,0,2,4,5,3.mid,experiment,1
9,35,10451,79,64,0,2,4,5,3.mid,experiment,1
10,37,10736,78,64,0,2,4,5,3.mid,experiment,1
11,39,10990,79,64,0,2,4,5,3.mid,experiment,1
12,41,11286,76,64,0,2,4,5,3.mid,experiment,1
13,43,11609,72,64,0,2,4,5,3.mid,experiment,1
14,45,11817,76,64,0,2,4,5,3.mid,experiment,1
15,47,12042,79,64,0,2,4,5,3.mid,experiment,1
16,49,12520,84,64,0,2,4,5,3.mid,experiment,1
17,50,12602,83,64,0,2,4,5,3.mid,experiment,1
18,52,12672,81,64,0,2,4,5,3.mid,experiment,1
19,54,12923,81,64,0,2,4,5,3.mid,experiment,1
20,56,13181,81,64,0,2,4,5,3.mid,experiment,1
21,59,13766,83,64,0,2,4,5,3.mid,experiment,1
22,61,14055,81,64,0,2,4,5,3.mid,experiment,1
23,63,14377,84,64,0,2,4,5,3.mid,experiment,1
24,65,14665,81,64,0,2,4,5,3.mid,experiment,1
25,67,14910,78,64,0,2,4,5,3.mid,experiment,1
26,68,14949,79,64,0,2,4,5,3.mid,experiment,1
27,70,15615,79,64,0,2,4,5,3.mid,experiment,1
28,72,16320,79,64,0,2,4,5,3.mid,experiment,1
29,74,16898,77,64,0,2,4,5,3.mid,experiment,1
30,76,17153,77,64,0,2,4,5,3.mid,experiment,1
31,78,17444,76,64,0,2,4,5,3.mid,experiment,1
32,80,17683,76,64,0,2,4,5,3.mid,experiment,1
33,82,18572,74,64,0,2,4,5,3.mid,experiment,1
34,84,19385,79,64,0,2,4,5,3.mid,experiment,1
35,86,19984,77,64,0,2,4,5,3.mid,experiment,1
36,88,20289,76,64,0,2,4,5,3.mid,experiment,1
37,90,20548,76,64,0,2,4,5,3.mid,experiment,1
38,92,20824,76,64,0,2,4,5,3.mid,experiment,1
39,94,21102,76,64,0,2,4,5,3.mid,experiment,1
40,98,22003,81,64,0,2,4,5,3.mid,experiment,1
41,99,22075,77,64,0,2,4,5,3.mid,experiment,1
42,101,22257,76,64,0,2,4,5,3.mid,experiment,1
43,103,22592,74,64,0,2,4,5,3.mid,experiment,1
44,105,22846,76,64,0,2,4,5,3.mid,experiment,1
45,107,23198,79,64,0,2,4,5,3.mid,experiment,1
46,109,23358,74,64,0,2,4,5,3.mid,experiment,1
47,110,23377,71,64,0,2,4,5,3.mid,experiment,1
48,112,23660,72,64,0,2,4,5,3.mid,experiment,1
49,114,23917,72,64,0,2,4,5,3.mid,experiment,1
50,116,24206,74,64,0,2,4,5,3.mid,experiment,1
51,118,24470,74,64,0,2,4,5,3.mid,experiment,1
52,120,25424,76,64,0,2,4,5,3.mid,experiment,1
53,122,25932,65,64,0,2,4,5,3.mid,experiment,1
54,124,26185,65,64,0,2,4,5,3.mid,experiment,1
55,126,26473,64,64,0,2,4,5,3.mid,experiment,1
56,128,26737,64,64,0,2,4,5,3.mid,experiment,1
57,130,27669,62,64,0,2,4,5,3.mid,experiment,1
58,132,28207,67,64,0,2,4,5,3.mid,experiment,1
59,134,28499,67,64,0,2,4,5,3.mid,experiment,1
60,136,29064,71,64,0,2,4,5,3.mid,experiment,1
61,136,,71,,0,2,4,5,3.mid,experiment,1
62,138,29311,72,64,0,2,4,5,3.mid,experiment,1
63,140,29588,72,64,0,2,4,5,3.mid,experiment,1
64,142,29906,73,64,0,2,4,5,3.mid,experiment,1
65,144,30135,73,64,0,2,4,5,3.mid,experiment,1
66,147,31089,74,64,0,2,4,5,3.mid,experiment,1
67,149,31634,77,64,0,2,4,5,3.mid,experiment,1
68,151,32178,76,64,0,2,4,5,3.mid,experiment,1
69,153,32743,74,64,0,2,4,5,3.mid,experiment,1
70,155,33479,72,64,0,2,4,5,3.mid,experiment,1
71,156,33649,84,64,0,2,4,5,3.mid,experiment,1
72,158,34782,84,64,0,2,4,5,3.mid,experiment,1
1,19,8136,79,64,0,2,4,13,12.mid,experiment,1
2,21,8415,78,64,0,2,4,13,12.mid,experiment,1
3,23,8657,79,64,0,2,4,13,12.mid,experiment,1
4,25,8995,76,64,0,2,4,13,12.mid,experiment,1
5,27,9272,72,64,0,2,4,13,12.mid,experiment,1
6,28,9279,67,64,0,2,4,13,12.mid,experiment,1
7,30,9576,67,64,0,2,4,13,12.mid,experiment,1
8,32,9828,67,64,0,2,4,13,12.mid,experiment,1
9,35,10380,79,64,0,2,4,13,12.mid,experiment,1
10,37,10664,78,64,0,2,4,13,12.mid,experiment,1
11,39,10970,79,64,0,2,4,13,12.mid,experiment,1
12,41,11177,76,64,0,2,4,13,12.mid,experiment,1
13,43,11518,72,64,0,2,4,13,12.mid,experiment,1
14,45,11699,76,64,0,2,4,13,12.mid,experiment,1
15,47,11955,79,64,0,2,4,13,12.mid,experiment,1
16,49,12308,84,64,0,2,4,13,12.mid,experiment,1
17,51,12521,83,64,0,2,4,13,12.mid,experiment,1
18,52,12558,81,64,0,2,4,13,12.mid,experiment,1
19,54,12830,81,64,0,2,4,13,12.mid,experiment,1
20,56,13084,81,64,0,2,4,13,12.mid,experiment,1
21,59,13658,83,64,0,2,4,13,12.mid,experiment,1
22,61,13928,81,64,0,2,4,13,12.mid,experiment,1
23,63,14248,84,64,0,2,4,13,12.mid,experiment,1
24,65,14504,81,64,0,2,4,13,12.mid,experiment,1
25,67,14807,78,64,0,2,4,13,12.mid,experiment,1
26,68,14832,79,64,0,2,4,13,12.mid,experiment,1
27,70,15183,79,64,0,2,4,13,12.mid,experiment,1
28,72,16182,79,64,0,2,4,13,12.mid,experiment,1
29,74,16742,77,64,0,2,4,13,12.mid,experiment,1
30,76,17028,77,64,0,2,4,13,12.mid,experiment,1
31,78,17332,76,64,0,2,4,13,12.mid,experiment,1
32,80,17594,76,64,0,2,4,13,12.mid,experiment,1
33,82,18372,74,64,0,2,4,13,12.mid,experiment,1
34,85,19580,79,64,0,2,4,13,12.mid,experiment,1
35,86,19986,77,64,0,2,4,13,12.mid,experiment,1
36,88,20132,76,64,0,2,4,13,12.mid,experiment,1
37,90,20407,76,64,0,2,4,13,12.mid,experiment,1
38,92,20688,76,64,0,2,4,13,12.mid,experiment,1
39,92,,76,,0,2,4,13,12.mid,experiment,1
40,95,21656,81,64,0,2,4,13,12.mid,experiment,1
41,97,21864,77,64,0,2,4,13,12.mid,experiment,1
42,99,22066,76,64,0,2,4,13,12.mid,experiment,1
43,101,22416,74,64,0,2,4,13,12.mid,experiment,1
44,103,22666,76,64,0,2,4,13,12.mid,experiment,1
45,105,22988,79,64,0,2,4,13,12.mid,experiment,1
46,107,23168,74,64,0,2,4,13,12.mid,experiment,1
47,108,23256,71,64,0,2,4,13,12.mid,experiment,1
48,110,23481,72,64,0,2,4,13,12.mid,experiment,1
49,112,23730,72,64,0,2,4,13,12.mid,experiment,1
50,114,24018,74,64,0,2,4,13,12.mid,experiment,1
51,116,24272,74,64,0,2,4,13,12.mid,experiment,1
52,118,25097,76,64,0,2,4,13,12.mid,experiment,1
53,120,25672,65,64,0,2,4,13,12.mid,experiment,1
54,122,25962,65,64,0,2,4,13,12.mid,experiment,1
55,124,26269,64,64,0,2,4,13,12.mid,experiment,1
56,126,26560,64,64,0,2,4,13,12.mid,experiment,1
57,128,27302,62,64,0,2,4,13,12.mid,experiment,1
58,130,27880,67,64,0,2,4,13,12.mid,experiment,1
59,132,28166,67,64,0,2,4,13,12.mid,experiment,1
60,134,28450,71,64,0,2,4,13,12.mid,experiment,1
61,136,28720,71,64,0,2,4,13,12.mid,experiment,1
62,138,28986,72,64,0,2,4,13,12.mid,experiment,1
63,140,29242,72,64,0,2,4,13,12.mid,experiment,1
64,142,29524,73,64,0,2,4,13,12.mid,experiment,1
65,144,29780,73,64,0,2,4,13,12.mid,experiment,1
66,147,30782,74,64,0,2,4,13,12.mid,experiment,1
67,149,31308,77,64,0,2,4,13,12.mid,experiment,1
68,151,31782,76,64,0,2,4,13,12.mid,experiment,1
69,153,32330,74,64,0,2,4,13,12.mid,experiment,1
70,155,32970,72,64,0,2,4,13,12.mid,experiment,1
71,156,33138,84,64,0,2,4,13,12.mid,experiment,1
72,158,34232,84,64,0,2,4,13,12.mid,experiment,1
1,19,8232,79,64,0,2,5,1,11.mid,experiment,1
2,21,8530,78,64,0,2,5,1,11.mid,experiment,1
3,23,8810,79,64,0,2,5,1,11.mid,experiment,1
4,25,9138,76,64,0,2,5,1,11.mid,experiment,1
5,26,9334,72,64,0,2,5,1,11.mid,experiment,1
6,28,9462,67,64,0,2,5,1,11.mid,experiment,1
7,30,9717,67,64,0,2,5,1,11.mid,experiment,1
8,32,10004,67,64,0,2,5,1,11.mid,experiment,1
9,35,10596,79,64,0,2,5,1,11.mid,experiment,1
10,37,10901,78,64,0,2,5,1,11.mid,experiment,1
11,39,11202,79,64,0,2,5,1,11.mid,experiment,1
12,41,11460,76,64,0,2,5,1,11.mid,experiment,1
13,43,11731,72,64,0,2,5,1,11.mid,experiment,1
14,45,12006,76,64,0,2,5,1,11.mid,experiment,1
15,47,12244,79,64,0,2,5,1,11.mid,experiment,1
16,49,12602,84,64,0,2,5,1,11.mid,experiment,1
17,50,12804,83,64,0,2,5,1,11.mid,experiment,1
18,52,12929,81,64,0,2,5,1,11.mid,experiment,1
19,54,13198,81,64,0,2,5,1,11.mid,experiment,1
20,56,13473,81,64,0,2,5,1,11.mid,experiment,1
21,59,14117,83,64,0,2,5,1,11.mid,experiment,1
22,61,14315,81,64,0,2,5,1,11.mid,experiment,1
23,63,14639,84,64,0,2,5,1,11.mid,experiment,1
24,65,14934,81,64,0,2,5,1,11.mid,experiment,1
25,67,15184,78,64,0,2,5,1,11.mid,experiment,1
26,68,15246,79,64,0,2,5,1,11.mid,experiment,1
27,70,15689,79,64,0,2,5,1,11.mid,experiment,1
28,72,16734,79,64,0,2,5,1,11.mid,experiment,1
29,74,17398,77,64,0,2,5,1,11.mid,experiment,1
30,76,17657,77,64,0,2,5,1,11.mid,experiment,1
31,78,17957,76,64,0,2,5,1,11.mid,experiment,1
32,80,18233,76,64,0,2,5,1,11.mid,experiment,1
33,82,19118,74,64,0,2,5,1,11.mid,experiment,1
34,85,20416,79,64,0,2,5,1,11.mid,experiment,1
35,86,20921,77,64,0,2,5,1,11.mid,experiment,1
36,88,20988,76,64,0,2,5,1,11.mid,experiment,1
37,90,21280,76,64,0,2,5,1,11.mid,experiment,1
38,92,21567,76,64,0,2,5,1,11.mid,experiment,1
39,94,21841,76,64,0,2,5,1,11.mid,experiment,1
40,97,22471,81,64,0,2,5,1,11.mid,experiment,1
41,99,22782,77,64,0,2,5,1,11.mid,experiment,1
42,101,22997,76,64,0,2,5,1,11.mid,experiment,1
43,103,23316,74,64,0,2,5,1,11.mid,experiment,1
44,105,23642,76,64,0,2,5,1,11.mid,experiment,1
45,107,23901,79,64,0,2,5,1,11.mid,experiment,1
46,109,24135,74,64,0,2,5,1,11.mid,experiment,1
47,111,24457,71,64,0,2,5,1,11.mid,experiment,1
48,112,24494,72,64,0,2,5,1,11.mid,experiment,1
49,114,24763,72,64,0,2,5,1,11.mid,experiment,1
50,116,25052,74,64,0,2,5,1,11.mid,experiment,1
51,118,25341,74,64,0,2,5,1,11.mid,experiment,1
52,120,26198,76,64,0,2,5,1,11.mid,experiment,1
53,122,26955,65,64,0,2,5,1,11.mid,experiment,1
54,124,27220,65,64,0,2,5,1,11.mid,experiment,1
55,126,27793,64,64,0,2,5,1,11.mid,experiment,1
56,126,,64,,0,2,5,1,11.mid,experiment,1
57,128,28683,62,64,0,2,5,1,11.mid,experiment,1
58,130,29276,67,64,0,2,5,1,11.mid,experiment,1
59,132,29546,67,64,0,2,5,1,11.mid,experiment,1
60,134,29819,71,64,0,2,5,1,11.mid,experiment,1
61,136,30090,71,64,0,2,5,1,11.mid,experiment,1
62,138,30374,72,64,0,2,5,1,11.mid,experiment,1
63,140,30663,72,64,0,2,5,1,11.mid,experiment,1
64,142,30957,73,64,0,2,5,1,11.mid,experiment,1
65,144,31237,73,64,0,2,5,1,11.mid,experiment,1
66,147,32165,74,64,0,2,5,1,11.mid,experiment,1
67,149,32708,77,64,0,2,5,1,11.mid,experiment,1
68,151,33297,76,64,0,2,5,1,11.mid,experiment,1
69,153,33870,74,64,0,2,5,1,11.mid,experiment,1
70,154,34231,72,64,0,2,5,1,11.mid,experiment,1
71,156,34646,84,64,0,2,5,1,11.mid,experiment,1
72,158,35879,84,64,0,2,5,1,11.mid,experiment,1
1,19,8205,79,64,0,2,5,2,13.mid,experiment,1
2,21,8489,78,64,0,2,5,2,13.mid,experiment,1
3,23,8792,79,64,0,2,5,2,13.mid,experiment,1
4,25,9113,76,64,0,2,5,2,13.mid,experiment,1
5,26,9319,72,64,0,2,5,2,13.mid,experiment,1
6,28,9407,67,64,0,2,5,2,13.mid,experiment,1
7,30,9716,67,64,0,2,5,2,13.mid,experiment,1
8,32,10003,67,64,0,2,5,2,13.mid,experiment,1
9,35,10583,79,64,0,2,5,2,13.mid,experiment,1
10,37,10907,78,64,0,2,5,2,13.mid,experiment,1
11,39,11213,79,64,0,2,5,2,13.mid,experiment,1
12,41,11478,76,64,0,2,5,2,13.mid,experiment,1
13,43,11773,72,64,0,2,5,2,13.mid,experiment,1
14,45,12046,76,64,0,2,5,2,13.mid,experiment,1
15,47,12319,79,64,0,2,5,2,13.mid,experiment,1
16,49,12707,84,64,0,2,5,2,13.mid,experiment,1
17,50,12943,83,64,0,2,5,2,13.mid,experiment,1
18,52,13013,81,64,0,2,5,2,13.mid,experiment,1
19,54,13286,81,64,0,2,5,2,13.mid,experiment,1
20,56,13572,81,64,0,2,5,2,13.mid,experiment,1
21,59,14205,83,64,0,2,5,2,13.mid,experiment,1
22,61,14430,81,64,0,2,5,2,13.mid,experiment,1
23,63,14760,84,64,0,2,5,2,13.mid,experiment,1
24,65,15057,81,64,0,2,5,2,13.mid,experiment,1
25,67,15307,78,64,0,2,5,2,13.mid,experiment,1
26,68,15382,79,64,0,2,5,2,13.mid,experiment,1
27,70,15795,79,64,0,2,5,2,13.mid,experiment,1
28,72,16871,79,64,0,2,5,2,13.mid,experiment,1
29,74,17513,77,64,0,2,5,2,13.mid,experiment,1
30,76,17809,77,64,0,2,5,2,13.mid,experiment,1
31,78,18102,76,64,0,2,5,2,13.mid,experiment,1
32,80,18407,76,64,0,2,5,2,13.mid,experiment,1
33,82,19416,74,64,0,2,5,2,13.mid,experiment,1
34,85,20692,79,64,0,2,5,2,13.mid,experiment,1
35,87,21215,77,64,0,2,5,2,13.mid,experiment,1
36,88,21261,76,64,0,2,5,2,13.mid,experiment,1
37,90,21517,76,64,0,2,5,2,13.mid,experiment,1
38,92,21805,76,64,0,2,5,2,13.mid,experiment,1
39,94,22117,76,64,0,2,5,2,13.mid,experiment,1
40,97,22759,81,64,0,2,5,2,13.mid,experiment,1
41,99,23031,77,64,0,2,5,2,13.mid,experiment,1
42,101,23253,76,64,0,2,5,2,13.mid,experiment,1
43,103,23567,74,64,0,2,5,2,13.mid,experiment,1
44,105,23901,76,64,0,2,5,2,13.mid,experiment,1
45,107,24115,79,64,0,2,5,2,13.mid,experiment,1
46,109,24387,74,64,0,2,5,2,13.mid,experiment,1
47,110,24455,71,64,0,2,5,2,13.mid,experiment,1
48,112,24717,72,64,0,2,5,2,13.mid,experiment,1
49,114,24981,72,64,0,2,5,2,13.mid,experiment,1
50,116,25281,74,64,0,2,5,2,13.mid,experiment,1
51,118,25573,74,64,0,2,5,2,13.mid,experiment,1
52,120,26459,76,64,0,2,5,2,13.mid,experiment,1
53,122,27227,65,64,0,2,5,2,13.mid,experiment,1
54,124,27503,65,64,0,2,5,2,13.mid,experiment,1
55,126,28089,64,64,0,2,5,2,13.mid,experiment,1
56,126,,64,,0,2,5,2,13.mid,experiment,1
57,128,28931,62,64,0,2,5,2,13.mid,experiment,1
58,130,29638,67,64,0,2,5,2,13.mid,experiment,1
59,132,29927,67,64,0,2,5,2,13.mid,experiment,1
60,134,30211,71,64,0,2,5,2,13.mid,experiment,1
61,136,30469,71,64,0,2,5,2,13.mid,experiment,1
62,138,30749,72,64,0,2,5,2,13.mid,experiment,1
63,140,31035,72,64,0,2,5,2,13.mid,experiment,1
64,142,31342,73,64,0,2,5,2,13.mid,experiment,1
65,144,31601,73,64,0,2,5,2,13.mid,experiment,1
66,147,32491,74,64,0,2,5,2,13.mid,experiment,1
67,149,33111,77,64,0,2,5,2,13.mid,experiment,1
68,151,33697,76,64,0,2,5,2,13.mid,experiment,1
69,152,34253,74,64,0,2,5,2,13.mid,experiment,1
70,155,34897,72,64,0,2,5,2,13.mid,experiment,1
71,156,35011,84,64,0,2,5,2,13.mid,experiment,1
72,158,36375,84,64,0,2,5,2,13.mid,experiment,1
1,19,8282,79,64,0,2,5,7,16.mid,experiment,1
2,21,8547,78,64,0,2,5,7,16.mid,experiment,1
3,23,8800,79,64,0,2,5,7,16.mid,experiment,1
4,25,9128,76,64,0,2,5,7,16.mid,experiment,1
5,26,9276,72,64,0,2,5,7,16.mid,experiment,1
6,28,9469,67,64,0,2,5,7,16.mid,experiment,1
7,30,9753,67,64,0,2,5,7,16.mid,experiment,1
8,32,10005,67,64,0,2,5,7,16.mid,experiment,1
9,35,10574,79,64,0,2,5,7,16.mid,experiment,1
10,37,10890,78,64,0,2,5,7,16.mid,experiment,1
11,39,11167,79,64,0,2,5,7,16.mid,experiment,1
12,41,11431,76,64,0,2,5,7,16.mid,experiment,1
13,43,11698,72,64,0,2,5,7,16.mid,experiment,1
14,45,11978,76,64,0,2,5,7,16.mid,experiment,1
15,47,12229,79,64,0,2,5,7,16.mid,experiment,1
16,49,12579,84,64,0,2,5,7,16.mid,experiment,1
17,50,12737,83,64,0,2,5,7,16.mid,experiment,1
18,52,12911,81,64,0,2,5,7,16.mid,experiment,1
19,54,13194,81,64,0,2,5,7,16.mid,experiment,1
20,56,13461,81,64,0,2,5,7,16.mid,experiment,1
21,59,14058,83,64,0,2,5,7,16.mid,experiment,1
22,61,14269,81,64,0,2,5,7,16.mid,experiment,1
23,63,14603,84,64,0,2,5,7,16.mid,experiment,1
24,65,14866,81,64,0,2,5,7,16.mid,experiment,1
25,67,15111,78,64,0,2,5,7,16.mid,experiment,1
26,68,15177,79,64,0,2,5,7,16.mid,experiment,1
27,70,15584,79,64,0,2,5,7,16.mid,experiment,1
28,72,16730,79,64,0,2,5,7,16.mid,experiment,1
29,74,17306,77,64,0,2,5,7,16.mid,experiment,1
30,76,17590,77,64,0,2,5,7,16.mid,experiment,1
31,78,17873,76,64,0,2,5,7,16.mid,experiment,1
32,80,18161,76,64,0,2,5,7,16.mid,experiment,1
33,82,19066,74,64,0,2,5,7,16.mid,experiment,1
34,85,20371,79,64,0,2,5,7,16.mid,experiment,1
35,86,20882,77,64,0,2,5,7,16.mid,experiment,1
36,88,20963,76,64,0,2,5,7,16.mid,experiment,1
37,90,21272,76,64,0,2,5,7,16.mid,experiment,1
38,92,21536,76,64,0,2,5,7,16.mid,experiment,1
39,94,21814,76,64,0,2,5,7,16.mid,experiment,1
40,97,22433,81,64,0,2,5,7,16.mid,experiment,1
41,99,22712,77,64,0,2,5,7,16.mid,experiment,1
42,101,22965,76,64,0,2,5,7,16.mid,experiment,1
43,103,23260,74,64,0,2,5,7,16.mid,experiment,1
44,105,23585,76,64,0,2,5,7,16.mid,experiment,1
45,107,23758,79,64,0,2,5,7,16.mid,experiment,1
46,108,24001,74,64,0,2,5,7,16.mid,experiment,1
47,110,24228,71,64,0,2,5,7,16.mid,experiment,1
48,112,24321,72,64,0,2,5,7,16.mid,experiment,1
49,114,24601,72,64,0,2,5,7,16.mid,experiment,1
50,116,24869,74,64,0,2,5,7,16.mid,experiment,1
51,118,25144,74,64,0,2,5,7,16.mid,experiment,1
52,120,26083,76,64,0,2,5,7,16.mid,experiment,1
53,122,26782,65,64,0,2,5,7,16.mid,experiment,1
54,124,27062,65,64,0,2,5,7,16.mid,experiment,1
55,124,,64,,0,2,5,7,16.mid,experiment,1
56,124,,64,,0,2,5,7,16.mid,experiment,1
57,126,28436,62,64,0,2,5,7,16.mid,experiment,1
58,128,29107,67,64,0,2,5,7,16.mid,experiment,1
59,130,29396,67,64,0,2,5,7,16.mid,experiment,1
60,132,29691,71,64,0,2,5,7,16.mid,experiment,1
61,134,29947,71,64,0,2,5,7,16.mid,experiment,1
62,136,30203,72,64,0,2,5,7,16.mid,experiment,1
63,138,30495,72,64,0,2,5,7,16.mid,experiment,1
64,140,30792,73,64,0,2,5,7,16.mid,experiment,1
65,142,31076,73,64,0,2,5,7,16.mid,experiment,1
66,145,31985,74,64,0,2,5,7,16.mid,experiment,1
67,147,32615,77,64,0,2,5,7,16.mid,experiment,1
68,149,33182,76,64,0,2,5,7,16.mid,experiment,1
69,151,33754,74,64,0,2,5,7,16.mid,experiment,1
70,153,34418,72,64,0,2,5,7,16.mid,experiment,1
71,154,34539,84,64,0,2,5,7,16.mid,experiment,1
72,156,36093,84,64,0,2,5,7,16.mid,experiment,1
1,19,8145,79,64,0,2,5,9,8.mid,experiment,1
2,21,8423,78,64,0,2,5,9,8.mid,experiment,1
3,22,8672,79,64,0,2,5,9,8.mid,experiment,1
4,25,9012,76,64,0,2,5,9,8.mid,experiment,1
5,26,9118,72,64,0,2,5,9,8.mid,experiment,1
6,28,9313,67,64,0,2,5,9,8.mid,experiment,1
7,30,9567,67,64,0,2,5,9,8.mid,experiment,1
8,32,9854,67,64,0,2,5,9,8.mid,experiment,1
9,35,10422,79,64,0,2,5,9,8.mid,experiment,1
10,37,10726,78,64,0,2,5,9,8.mid,experiment,1
11,39,11023,79,64,0,2,5,9,8.mid,experiment,1
12,41,11259,76,64,0,2,5,9,8.mid,experiment,1
13,43,11574,72,64,0,2,5,9,8.mid,experiment,1
14,45,11857,76,64,0,2,5,9,8.mid,experiment,1
15,47,12076,79,64,0,2,5,9,8.mid,experiment,1
16,49,12389,84,64,0,2,5,9,8.mid,experiment,1
17,50,12581,83,64,0,2,5,9,8.mid,experiment,1
18,52,12673,81,64,0,2,5,9,8.mid,experiment,1
19,54,12951,81,64,0,2,5,9,8.mid,experiment,1
20,56,13211,81,64,0,2,5,9,8.mid,experiment,1
21,59,13812,83,64,0,2,5,9,8.mid,experiment,1
22,61,14055,81,64,0,2,5,9,8.mid,experiment,1
23,63,14364,84,64,0,2,5,9,8.mid,experiment,1
24,65,14635,81,64,0,2,5,9,8.mid,experiment,1
25,67,14898,78,64,0,2,5,9,8.mid,experiment,1
26,68,14991,79,64,0,2,5,9,8.mid,experiment,1
27,70,15422,79,64,0,2,5,9,8.mid,experiment,1
28,72,16469,79,64,0,2,5,9,8.mid,experiment,1
29,74,17112,77,64,0,2,5,9,8.mid,experiment,1
30,76,17393,77,64,0,2,5,9,8.mid,experiment,1
31,78,17679,76,64,0,2,5,9,8.mid,experiment,1
32,80,17949,76,64,0,2,5,9,8.mid,experiment,1
33,82,18822,74,64,0,2,5,9,8.mid,experiment,1
34,85,20123,79,64,0,2,5,9,8.mid,experiment,1
35,86,20705,77,64,0,2,5,9,8.mid,experiment,1
36,88,20768,76,64,0,2,5,9,8.mid,experiment,1
37,90,21034,76,64,0,2,5,9,8.mid,experiment,1
38,92,21329,76,64,0,2,5,9,8.mid,experiment,1
39,94,21574,76,64,0,2,5,9,8.mid,experiment,1
40,97,22236,81,64,0,2,5,9,8.mid,experiment,1
41,99,22491,77,64,0,2,5,9,8.mid,experiment,1
42,101,22731,76,64,0,2,5,9,8.mid,experiment,1
43,103,23060,74,64,0,2,5,9,8.mid,experiment,1
44,105,23450,76,64,0,2,5,9,8.mid,experiment,1
45,107,23594,79,64,0,2,5,9,8.mid,experiment,1
46,108,23835,74,64,0,2,5,9,8.mid,experiment,1
47,110,24132,71,64,0,2,5,9,8.mid,experiment,1
48,112,24174,72,64,0,2,5,9,8.mid,experiment,1
49,114,24446,72,64,0,2,5,9,8.mid,experiment,1
50,116,24747,74,64,0,2,5,9,8.mid,experiment,1
51,118,25007,74,64,0,2,5,9,8.mid,experiment,1
52,120,25925,76,64,0,2,5,9,8.mid,experiment,1
53,122,26643,65,64,0,2,5,9,8.mid,experiment,1
54,124,26924,65,64,0,2,5,9,8.mid,experiment,1
55,126,27512,64,64,0,2,5,9,8.mid,experiment,1
56,126,,64,,0,2,5,9,8.mid,experiment,1
57,128,28385,62,64,0,2,5,9,8.mid,experiment,1
58,130,29041,67,64,0,2,5,9,8.mid,experiment,1
59,132,29305,67,64,0,2,5,9,8.mid,experiment,1
60,134,29598,71,64,0,2,5,9,8.mid,experiment,1
61,136,29846,71,64,0,2,5,9,8.mid,experiment,1
62,138,30121,72,64,0,2,5,9,8.mid,experiment,1
63,140,30390,72,64,0,2,5,9,8.mid,experiment,1
64,142,30683,73,64,0,2,5,9,8.mid,experiment,1
65,144,30943,73,64,0,2,5,9,8.mid,experiment,1
66,147,31861,74,64,0,2,5,9,8.mid,experiment,1
67,149,32489,77,64,0,2,5,9,8.mid,experiment,1
68,151,33033,76,64,0,2,5,9,8.mid,experiment,1
69,152,33608,74,64,0,2,5,9,8.mid,experiment,1
70,155,34248,72,64,0,2,5,9,8.mid,experiment,1
71,156,34349,84,64,0,2,5,9,8.mid,experiment,1
72,158,35839,84,64,0,2,5,9,8.mid,experiment,1
1,19,8159,79,64,0,2,5,15,14.mid,experiment,1
2,21,8421,78,64,0,2,5,15,14.mid,experiment,1
3,23,8705,79,64,0,2,5,15,14.mid,experiment,1
4,25,9041,76,64,0,2,5,15,14.mid,experiment,1
5,26,9260,72,64,0,2,5,15,14.mid,experiment,1
6,28,9345,67,64,0,2,5,15,14.mid,experiment,1
7,30,9610,67,64,0,2,5,15,14.mid,experiment,1
8,32,9902,67,64,0,2,5,15,14.mid,experiment,1
9,35,10468,79,64,0,2,5,15,14.mid,experiment,1
10,37,10765,78,64,0,2,5,15,14.mid,experiment,1
11,39,11100,79,64,0,2,5,15,14.mid,experiment,1
12,41,11310,76,64,0,2,5,15,14.mid,experiment,1
13,43,11600,72,64,0,2,5,15,14.mid,experiment,1
14,45,11880,76,64,0,2,5,15,14.mid,experiment,1
15,46,12112,79,64,0,2,5,15,14.mid,experiment,1
16,49,12475,84,64,0,2,5,15,14.mid,experiment,1
17,50,12702,83,64,0,2,5,15,14.mid,experiment,1
18,52,12742,81,64,0,2,5,15,14.mid,experiment,1
19,54,13019,81,64,0,2,5,15,14.mid,experiment,1
20,54,,81,,0,2,5,15,14.mid,experiment,1
21,57,13898,83,64,0,2,5,15,14.mid,experiment,1
22,59,14136,81,64,0,2,5,15,14.mid,experiment,1
23,61,14420,84,64,0,2,5,15,14.mid,experiment,1
24,63,14705,81,64,0,2,5,15,14.mid,experiment,1
25,65,14959,78,64,0,2,5,15,14.mid,experiment,1
26,66,15024,79,64,0,2,5,15,14.mid,experiment,1
27,68,15385,79,64,0,2,5,15,14.mid,experiment,1
28,70,16463,79,64,0,2,5,15,14.mid,experiment,1
29,72,17115,77,64,0,2,5,15,14.mid,experiment,1
30,74,17391,77,64,0,2,5,15,14.mid,experiment,1
31,76,17680,76,64,0,2,5,15,14.mid,experiment,1
32,78,17969,76,64,0,2,5,15,14.mid,experiment,1
33,80,18865,74,64,0,2,5,15,14.mid,experiment,1
34,83,20048,79,64,0,2,5,15,14.mid,experiment,1
35,84,20612,77,64,0,2,5,15,14.mid,experiment,1
36,86,20664,76,64,0,2,5,15,14.mid,experiment,1
37,88,20940,76,64,0,2,5,15,14.mid,experiment,1
38,90,21211,76,64,0,2,5,15,14.mid,experiment,1
39,92,21461,76,64,0,2,5,15,14.mid,experiment,1
40,95,22068,81,64,0,2,5,15,14.mid,experiment,1
41,97,22320,77,64,0,2,5,15,14.mid,experiment,1
42,99,22553,76,64,0,2,5,15,14.mid,experiment,1
43,101,22899,74,64,0,2,5,15,14.mid,experiment,1
44,103,23173,76,64,0,2,5,15,14.mid,experiment,1
45,105,23424,79,64,0,2,5,15,14.mid,experiment,1
46,106,23682,74,64,0,2,5,15,14.mid,experiment,1
47,108,23769,71,64,0,2,5,15,14.mid,experiment,1
48,110,23992,72,64,0,2,5,15,14.mid,experiment,1
49,112,24259,72,64,0,2,5,15,14.mid,experiment,1
50,114,24525,74,64,0,2,5,15,14.mid,experiment,1
51,116,24812,74,64,0,2,5,15,14.mid,experiment,1
52,118,25650,76,64,0,2,5,15,14.mid,experiment,1
53,120,26322,65,64,0,2,5,15,14.mid,experiment,1
54,122,26590,65,64,0,2,5,15,14.mid,experiment,1
55,124,26880,64,64,0,2,5,15,14.mid,experiment,1
56,126,27184,64,64,0,2,5,15,14.mid,experiment,1
57,128,28021,62,64,0,2,5,15,14.mid,experiment,1
58,130,28629,67,64,0,2,5,15,14.mid,experiment,1
59,132,28897,67,64,0,2,5,15,14.mid,experiment,1
60,134,29166,71,64,0,2,5,15,14.mid,experiment,1
61,136,29429,71,64,0,2,5,15,14.mid,experiment,1
62,138,29688,72,64,0,2,5,15,14.mid,experiment,1
63,140,29990,72,64,0,2,5,15,14.mid,experiment,1
64,142,30268,73,64,0,2,5,15,14.mid,experiment,1
65,144,30490,73,64,0,2,5,15,14.mid,experiment,1
66,147,31333,74,64,0,2,5,15,14.mid,experiment,1
67,149,31936,77,64,0,2,5,15,14.mid,experiment,1
68,151,32495,76,64,0,2,5,15,14.mid,experiment,1
69,153,33076,74,64,0,2,5,15,14.mid,experiment,1
70,155,33693,72,64,0,2,5,15,14.mid,experiment,1
71,156,33815,84,64,0,2,5,15,14.mid,experiment,1
72,158,35221,84,64,0,2,5,15,14.mid,experiment,1
1,19,8158,79,64,0,2,5,16,3.mid,experiment,1
2,21,8407,78,64,0,2,5,16,3.mid,experiment,1
3,23,8673,79,64,0,2,5,16,3.mid,experiment,1
4,25,9020,76,64,0,2,5,16,3.mid,experiment,1
5,26,9230,72,64,0,2,5,16,3.mid,experiment,1
6,28,9300,67,64,0,2,5,16,3.mid,experiment,1
7,30,9582,67,64,0,2,5,16,3.mid,experiment,1
8,32,9841,67,64,0,2,5,16,3.mid,experiment,1
9,35,10402,79,64,0,2,5,16,3.mid,experiment,1
10,37,10739,78,64,0,2,5,16,3.mid,experiment,1
11,39,11115,79,64,0,2,5,16,3.mid,experiment,1
12,41,11270,76,64,0,2,5,16,3.mid,experiment,1
13,43,11596,72,64,0,2,5,16,3.mid,experiment,1
14,45,11870,76,64,0,2,5,16,3.mid,experiment,1
15,47,12094,79,64,0,2,5,16,3.mid,experiment,1
16,49,12466,84,64,0,2,5,16,3.mid,experiment,1
17,51,12736,83,64,0,2,5,16,3.mid,experiment,1
18,52,12764,81,64,0,2,5,16,3.mid,experiment,1
19,54,13070,81,64,0,2,5,16,3.mid,experiment,1
20,56,13336,81,64,0,2,5,16,3.mid,experiment,1
21,59,13908,83,64,0,2,5,16,3.mid,experiment,1
22,61,14142,81,64,0,2,5,16,3.mid,experiment,1
23,63,14458,84,64,0,2,5,16,3.mid,experiment,1
24,65,14775,81,64,0,2,5,16,3.mid,experiment,1
25,67,15044,78,64,0,2,5,16,3.mid,experiment,1
26,68,15071,79,64,0,2,5,16,3.mid,experiment,1
27,70,15430,79,64,0,2,5,16,3.mid,experiment,1
28,72,16524,79,64,0,2,5,16,3.mid,experiment,1
29,74,17164,77,64,0,2,5,16,3.mid,experiment,1
30,76,17447,77,64,0,2,5,16,3.mid,experiment,1
31,78,17737,76,64,0,2,5,16,3.mid,experiment,1
32,80,18016,76,64,0,2,5,16,3.mid,experiment,1
33,82,18901,74,64,0,2,5,16,3.mid,experiment,1
34,85,20176,79,64,0,2,5,16,3.mid,experiment,1
35,86,20735,77,64,0,2,5,16,3.mid,experiment,1
36,88,20794,76,64,0,2,5,16,3.mid,experiment,1
37,90,21070,76,64,0,2,5,16,3.mid,experiment,1
38,92,21351,76,64,0,2,5,16,3.mid,experiment,1
39,94,21622,76,64,0,2,5,16,3.mid,experiment,1
40,97,22249,81,64,0,2,5,16,3.mid,experiment,1
41,99,22503,77,64,0,2,5,16,3.mid,experiment,1
42,101,22756,76,64,0,2,5,16,3.mid,experiment,1
43,103,23079,74,64,0,2,5,16,3.mid,experiment,1
44,105,23448,76,64,0,2,5,16,3.mid,experiment,1
45,107,23601,79,64,0,2,5,16,3.mid,experiment,1
46,108,23853,74,64,0,2,5,16,3.mid,experiment,1
47,110,24152,71,64,0,2,5,16,3.mid,experiment,1
48,112,24198,72,64,0,2,5,16,3.mid,experiment,1
49,112,,72,,0,2,5,16,3.mid,experiment,1
50,114,24763,74,64,0,2,5,16,3.mid,experiment,1
51,116,25049,74,64,0,2,5,16,3.mid,experiment,1
52,118,25909,76,64,0,2,5,16,3.mid,experiment,1
53,120,26607,65,64,0,2,5,16,3.mid,experiment,1
54,122,26885,65,64,0,2,5,16,3.mid,experiment,1
55,124,27171,64,64,0,2,5,16,3.mid,experiment,1
56,126,27445,64,64,0,2,5,16,3.mid,experiment,1
57,128,28303,62,64,0,2,5,16,3.mid,experiment,1
58,130,28960,67,64,0,2,5,16,3.mid,experiment,1
59,132,29254,67,64,0,2,5,16,3.mid,experiment,1
60,134,29534,71,64,0,2,5,16,3.mid,experiment,1
61,136,29799,71,64,0,2,5,16,3.mid,experiment,1
62,138,30090,72,64,0,2,5,16,3.mid,experiment,1
63,140,30334,72,64,0,2,5,16,3.mid,experiment,1
64,142,30650,73,64,0,2,5,16,3.mid,experiment,1
65,144,30920,73,64,0,2,5,16,3.mid,experiment,1
66,147,31769,74,64,0,2,5,16,3.mid,experiment,1
67,149,32387,77,64,0,2,5,16,3.mid,experiment,1
68,151,32974,76,64,0,2,5,16,3.mid,experiment,1
69,153,33492,74,64,0,2,5,16,3.mid,experiment,1
70,155,34134,72,64,0,2,5,16,3.mid,experiment,1
71,156,34265,84,64,0,2,5,16,3.mid,experiment,1
72,158,35870,84,64,0,2,5,16,3.mid,experiment,1
1,19,8110,79,64,0,2,6,1,3.mid,experiment,1
2,21,8419,78,64,0,2,6,1,3.mid,experiment,1
3,23,8676,79,64,0,2,6,1,3.mid,experiment,1
4,25,8967,76,64,0,2,6,1,3.mid,experiment,1
5,26,9030,72,64,0,2,6,1,3.mid,experiment,1
6,28,9284,67,64,0,2,6,1,3.mid,experiment,1
7,30,9578,67,64,0,2,6,1,3.mid,experiment,1
8,30,,67,,0,2,6,1,3.mid,experiment,1
9,33,10416,79,64,0,2,6,1,3.mid,experiment,1
10,35,10728,78,64,0,2,6,1,3.mid,experiment,1
11,37,10961,79,64,0,2,6,1,3.mid,experiment,1
12,39,11226,76,64,0,2,6,1,3.mid,experiment,1
13,41,11593,72,64,0,2,6,1,3.mid,experiment,1
14,43,11846,76,64,0,2,6,1,3.mid,experiment,1
15,45,12079,79,64,0,2,6,1,3.mid,experiment,1
16,47,12401,84,64,0,2,6,1,3.mid,experiment,1
17,48,12489,83,64,0,2,6,1,3.mid,experiment,1
18,50,12711,81,64,0,2,6,1,3.mid,experiment,1
19,52,13022,81,64,0,2,6,1,3.mid,experiment,1
20,54,13278,81,64,0,2,6,1,3.mid,experiment,1
21,57,13821,83,64,0,2,6,1,3.mid,experiment,1
22,59,14069,81,64,0,2,6,1,3.mid,experiment,1
23,61,14357,84,64,0,2,6,1,3.mid,experiment,1
24,63,14607,81,64,0,2,6,1,3.mid,experiment,1
25,64,14732,78,64,0,2,6,1,3.mid,experiment,1
26,66,14912,79,64,0,2,6,1,3.mid,experiment,1
27,68,15206,79,64,0,2,6,1,3.mid,experiment,1
28,70,16506,79,64,0,2,6,1,3.mid,experiment,1
29,72,16945,77,64,0,2,6,1,3.mid,experiment,1
30,74,17208,77,64,0,2,6,1,3.mid,experiment,1
31,76,17480,76,64,0,2,6,1,3.mid,experiment,1
32,78,17761,76,64,0,2,6,1,3.mid,experiment,1
33,80,18766,74,64,0,2,6,1,3.mid,experiment,1
34,82,19636,79,64,0,2,6,1,3.mid,experiment,1
35,84,20285,77,64,0,2,6,1,3.mid,experiment,1
36,86,20526,76,64,0,2,6,1,3.mid,experiment,1
37,88,20816,76,64,0,2,6,1,3.mid,experiment,1
38,90,21079,76,64,0,2,6,1,3.mid,experiment,1
39,92,21323,76,64,0,2,6,1,3.mid,experiment,1
40,95,21935,81,64,0,2,6,1,3.mid,experiment,1
41,97,22155,77,64,0,2,6,1,3.mid,experiment,1
42,99,22419,76,64,0,2,6,1,3.mid,experiment,1
43,101,22699,74,64,0,2,6,1,3.mid,experiment,1
44,103,22956,76,64,0,2,6,1,3.mid,experiment,1
45,105,23235,79,64,0,2,6,1,3.mid,experiment,1
46,106,23455,74,64,0,2,6,1,3.mid,experiment,1
47,109,23729,71,64,0,2,6,1,3.mid,experiment,1
48,110,23769,72,64,0,2,6,1,3.mid,experiment,1
49,112,24045,72,64,0,2,6,1,3.mid,experiment,1
50,114,24306,74,64,0,2,6,1,3.mid,experiment,1
51,116,24579,74,64,0,2,6,1,3.mid,experiment,1
52,118,25524,76,64,0,2,6,1,3.mid,experiment,1
53,120,26087,65,64,0,2,6,1,3.mid,experiment,1
54,122,26392,65,64,0,2,6,1,3.mid,experiment,1
55,124,26661,64,64,0,2,6,1,3.mid,experiment,1
56,126,26967,64,64,0,2,6,1,3.mid,experiment,1
57,128,28008,62,64,0,2,6,1,3.mid,experiment,1
58,130,28502,67,64,0,2,6,1,3.mid,experiment,1
59,132,28791,67,64,0,2,6,1,3.mid,experiment,1
60,134,29065,71,64,0,2,6,1,3.mid,experiment,1
61,136,29333,71,64,0,2,6,1,3.mid,experiment,1
62,138,29594,72,64,0,2,6,1,3.mid,experiment,1
63,140,29872,72,64,0,2,6,1,3.mid,experiment,1
64,142,30136,73,64,0,2,6,1,3.mid,experiment,1
65,144,30396,73,64,0,2,6,1,3.mid,experiment,1
66,147,31271,74,64,0,2,6,1,3.mid,experiment,1
67,149,31845,77,64,0,2,6,1,3.mid,experiment,1
68,151,32437,76,64,0,2,6,1,3.mid,experiment,1
69,153,32933,74,64,0,2,6,1,3.mid,experiment,1
70,155,33549,72,64,0,2,6,1,3.mid,experiment,1
71,156,33932,84,64,0,2,6,1,3.mid,experiment,1
72,158,34690,84,64,0,2,6,1,3.mid,experiment,1
1,19,8175,79,64,0,2,6,3,6.mid,experiment,1
2,21,8456,78,64,0,2,6,3,6.mid,experiment,1
3,23,8664,79,64,0,2,6,3,6.mid,experiment,1
4,25,8977,76,64,0,2,6,3,6.mid,experiment,1
5,26,9039,72,64,0,2,6,3,6.mid,experiment,1
6,28,9254,67,64,0,2,6,3,6.mid,experiment,1
7,30,9576,67,64,0,2,6,3,6.mid,experiment,1
8,32,9818,67,64,0,2,6,3,6.mid,experiment,1
9,35,10374,79,64,0,2,6,3,6.mid,experiment,1
10,37,10666,78,64,0,2,6,3,6.mid,experiment,1
11,39,10883,79,64,0,2,6,3,6.mid,experiment,1
12,41,11138,76,64,0,2,6,3,6.mid,experiment,1
13,43,11474,72,64,0,2,6,3,6.mid,experiment,1
14,45,11731,76,64,0,2,6,3,6.mid,experiment,1
15,47,11970,79,64,0,2,6,3,6.mid,experiment,1
16,49,12294,84,64,0,2,6,3,6.mid,experiment,1
17,50,12390,83,64,0,2,6,3,6.mid,experiment,1
18,52,12562,81,64,0,2,6,3,6.mid,experiment,1
19,54,12872,81,64,0,2,6,3,6.mid,experiment,1
20,56,13136,81,64,0,2,6,3,6.mid,experiment,1
21,59,13672,83,64,0,2,6,3,6.mid,experiment,1
22,61,13898,81,64,0,2,6,3,6.mid,experiment,1
23,63,14179,84,64,0,2,6,3,6.mid,experiment,1
24,65,14428,81,64,0,2,6,3,6.mid,experiment,1
25,66,14588,78,64,0,2,6,3,6.mid,experiment,1
26,68,14741,79,64,0,2,6,3,6.mid,experiment,1
27,70,15366,79,64,0,2,6,3,6.mid,experiment,1
28,72,16350,79,64,0,2,6,3,6.mid,experiment,1
29,74,16799,77,64,0,2,6,3,6.mid,experiment,1
30,76,17066,77,64,0,2,6,3,6.mid,experiment,1
31,78,17360,76,64,0,2,6,3,6.mid,experiment,1
32,80,17626,76,64,0,2,6,3,6.mid,experiment,1
33,82,18588,74,64,0,2,6,3,6.mid,experiment,1
34,84,19546,79,64,0,2,6,3,6.mid,experiment,1
35,86,20095,77,64,0,2,6,3,6.mid,experiment,1
36,88,20290,76,64,0,2,6,3,6.mid,experiment,1
37,90,20567,76,64,0,2,6,3,6.mid,experiment,1
38,92,20797,76,64,0,2,6,3,6.mid,experiment,1
39,94,21045,76,64,0,2,6,3,6.mid,experiment,1
40,97,21630,81,64,0,2,6,3,6.mid,experiment,1
41,99,21863,77,64,0,2,6,3,6.mid,experiment,1
42,101,22111,76,64,0,2,6,3,6.mid,experiment,1
43,103,22400,74,64,0,2,6,3,6.mid,experiment,1
44,105,22638,76,64,0,2,6,3,6.mid,experiment,1
45,107,22930,79,64,0,2,6,3,6.mid,experiment,1
46,109,23184,74,64,0,2,6,3,6.mid,experiment,1
47,110,23312,71,64,0,2,6,3,6.mid,experiment,1
48,112,23476,72,64,0,2,6,3,6.mid,experiment,1
49,114,23734,72,64,0,2,6,3,6.mid,experiment,1
50,116,23984,74,64,0,2,6,3,6.mid,experiment,1
51,118,24240,74,64,0,2,6,3,6.mid,experiment,1
52,120,25115,76,64,0,2,6,3,6.mid,experiment,1
53,122,25611,65,64,0,2,6,3,6.mid,experiment,1
54,122,,65,,0,2,6,3,6.mid,experiment,1
55,124,26150,64,64,0,2,6,3,6.mid,experiment,1
56,126,26430,64,64,0,2,6,3,6.mid,experiment,1
57,128,27384,62,64,0,2,6,3,6.mid,experiment,1
58,130,27867,67,64,0,2,6,3,6.mid,experiment,1
59,132,28162,67,64,0,2,6,3,6.mid,experiment,1
60,134,28409,71,64,0,2,6,3,6.mid,experiment,1
61,136,28692,71,64,0,2,6,3,6.mid,experiment,1
62,138,28940,72,64,0,2,6,3,6.mid,experiment,1
63,140,29198,72,64,0,2,6,3,6.mid,experiment,1
64,142,29448,73,64,0,2,6,3,6.mid,experiment,1
65,144,29698,73,64,0,2,6,3,6.mid,experiment,1
66,147,30596,74,64,0,2,6,3,6.mid,experiment,1
67,149,31158,77,64,0,2,6,3,6.mid,experiment,1
68,151,31686,76,64,0,2,6,3,6.mid,experiment,1
69,153,32182,74,64,0,2,6,3,6.mid,experiment,1
70,155,32774,72,64,0,2,6,3,6.mid,experiment,1
71,156,33167,84,64,0,2,6,3,6.mid,experiment,1
72,158,33954,84,64,0,2,6,3,6.mid,experiment,1
1,19,8079,79,64,0,2,6,4,11.mid,experiment,1
2,21,8388,78,64,0,2,6,4,11.mid,experiment,1
3,23,8591,79,64,0,2,6,4,11.mid,experiment,1
4,25,8905,76,64,0,2,6,4,11.mid,experiment,1
5,26,8974,72,64,0,2,6,4,11.mid,experiment,1
6,28,9235,67,64,0,2,6,4,11.mid,experiment,1
7,30,9505,67,64,0,2,6,4,11.mid,experiment,1
8,32,9766,67,64,0,2,6,4,11.mid,experiment,1
9,35,10284,79,64,0,2,6,4,11.mid,experiment,1
10,37,10593,78,64,0,2,6,4,11.mid,experiment,1
11,39,10819,79,64,0,2,6,4,11.mid,experiment,1
12,41,11086,76,64,0,2,6,4,11.mid,experiment,1
13,43,11411,72,64,0,2,6,4,11.mid,experiment,1
14,45,11671,76,64,0,2,6,4,11.mid,experiment,1
15,47,11910,79,64,0,2,6,4,11.mid,experiment,1
16,49,12207,84,64,0,2,6,4,11.mid,experiment,1
17,50,12357,83,64,0,2,6,4,11.mid,experiment,1
18,52,12488,81,64,0,2,6,4,11.mid,experiment,1
19,54,12777,81,64,0,2,6,4,11.mid,experiment,1
20,56,13030,81,64,0,2,6,4,11.mid,experiment,1
21,59,13580,83,64,0,2,6,4,11.mid,experiment,1
22,61,13818,81,64,0,2,6,4,11.mid,experiment,1
23,63,14096,84,64,0,2,6,4,11.mid,experiment,1
24,65,14340,81,64,0,2,6,4,11.mid,experiment,1
25,66,14529,78,64,0,2,6,4,11.mid,experiment,1
26,68,14699,79,64,0,2,6,4,11.mid,experiment,1
27,70,15268,79,64,0,2,6,4,11.mid,experiment,1
28,72,16317,79,64,0,2,6,4,11.mid,experiment,1
29,74,16679,77,64,0,2,6,4,11.mid,experiment,1
30,76,16984,77,64,0,2,6,4,11.mid,experiment,1
31,78,17237,76,64,0,2,6,4,11.mid,experiment,1
32,80,17504,76,64,0,2,6,4,11.mid,experiment,1
33,82,18481,74,64,0,2,6,4,11.mid,experiment,1
34,84,19324,79,64,0,2,6,4,11.mid,experiment,1
35,86,19927,77,64,0,2,6,4,11.mid,experiment,1
36,88,20184,76,64,0,2,6,4,11.mid,experiment,1
37,90,20683,76,64,0,2,6,4,11.mid,experiment,1
38,92,20935,76,64,0,2,6,4,11.mid,experiment,1
39,92,,76,,0,2,6,4,11.mid,experiment,1
40,95,21517,81,64,0,2,6,4,11.mid,experiment,1
41,97,21767,77,64,0,2,6,4,11.mid,experiment,1
42,99,22001,76,64,0,2,6,4,11.mid,experiment,1
43,101,22283,74,64,0,2,6,4,11.mid,experiment,1
44,103,22539,76,64,0,2,6,4,11.mid,experiment,1
45,105,22835,79,64,0,2,6,4,11.mid,experiment,1
46,107,23091,74,64,0,2,6,4,11.mid,experiment,1
47,108,23196,71,64,0,2,6,4,11.mid,experiment,1
48,110,23396,72,64,0,2,6,4,11.mid,experiment,1
49,112,23668,72,64,0,2,6,4,11.mid,experiment,1
50,114,23926,74,64,0,2,6,4,11.mid,experiment,1
51,116,24202,74,64,0,2,6,4,11.mid,experiment,1
52,118,25152,76,64,0,2,6,4,11.mid,experiment,1
53,120,25663,65,64,0,2,6,4,11.mid,experiment,1
54,122,26007,65,64,0,2,6,4,11.mid,experiment,1
55,124,26258,64,64,0,2,6,4,11.mid,experiment,1
56,126,26533,64,64,0,2,6,4,11.mid,experiment,1
57,128,27634,62,64,0,2,6,4,11.mid,experiment,1
58,130,27975,67,64,0,2,6,4,11.mid,experiment,1
59,132,28262,67,64,0,2,6,4,11.mid,experiment,1
60,134,28574,71,64,0,2,6,4,11.mid,experiment,1
61,136,28823,71,64,0,2,6,4,11.mid,experiment,1
62,138,29083,72,64,0,2,6,4,11.mid,experiment,1
63,140,29347,72,64,0,2,6,4,11.mid,experiment,1
64,142,29627,73,64,0,2,6,4,11.mid,experiment,1
65,144,29893,73,64,0,2,6,4,11.mid,experiment,1
66,146,30627,74,64,0,2,6,4,11.mid,experiment,1
67,148,31182,77,64,0,2,6,4,11.mid,experiment,1
68,150,31752,76,64,0,2,6,4,11.mid,experiment,1
69,152,32327,74,64,0,2,6,4,11.mid,experiment,1
70,154,32878,72,64,0,2,6,4,11.mid,experiment,1
71,156,33535,84,64,0,2,6,4,11.mid,experiment,1
72,158,34345,84,64,0,2,6,4,11.mid,experiment,1
1,19,8089,79,64,0,2,6,5,5.mid,experiment,1
2,21,8393,78,64,0,2,6,5,5.mid,experiment,1
3,23,8632,79,64,0,2,6,5,5.mid,experiment,1
4,25,8934,76,64,0,2,6,5,5.mid,experiment,1
5,26,9008,72,64,0,2,6,5,5.mid,experiment,1
6,28,9210,67,64,0,2,6,5,5.mid,experiment,1
7,30,9513,67,64,0,2,6,5,5.mid,experiment,1
8,32,9793,67,64,0,2,6,5,5.mid,experiment,1
9,35,10328,79,64,0,2,6,5,5.mid,experiment,1
10,37,10674,78,64,0,2,6,5,5.mid,experiment,1
11,39,10859,79,64,0,2,6,5,5.mid,experiment,1
12,41,11118,76,64,0,2,6,5,5.mid,experiment,1
13,43,11440,72,64,0,2,6,5,5.mid,experiment,1
14,45,11720,76,64,0,2,6,5,5.mid,experiment,1
15,47,11940,79,64,0,2,6,5,5.mid,experiment,1
16,49,12270,84,64,0,2,6,5,5.mid,experiment,1
17,50,12375,83,64,0,2,6,5,5.mid,experiment,1
18,52,12507,81,64,0,2,6,5,5.mid,experiment,1
19,54,12792,81,64,0,2,6,5,5.mid,experiment,1
20,56,13052,81,64,0,2,6,5,5.mid,experiment,1
21,59,13591,83,64,0,2,6,5,5.mid,experiment,1
22,61,13813,81,64,0,2,6,5,5.mid,experiment,1
23,63,14089,84,64,0,2,6,5,5.mid,experiment,1
24,65,14343,81,64,0,2,6,5,5.mid,experiment,1
25,66,14459,78,64,0,2,6,5,5.mid,experiment,1
26,68,14745,79,64,0,2,6,5,5.mid,experiment,1
27,70,15245,79,64,0,2,6,5,5.mid,experiment,1
28,72,16231,79,64,0,2,6,5,5.mid,experiment,1
29,74,16634,77,64,0,2,6,5,5.mid,experiment,1
30,76,16909,77,64,0,2,6,5,5.mid,experiment,1
31,78,17181,76,64,0,2,6,5,5.mid,experiment,1
32,80,17440,76,64,0,2,6,5,5.mid,experiment,1
33,82,18363,74,64,0,2,6,5,5.mid,experiment,1
34,84,19195,79,64,0,2,6,5,5.mid,experiment,1
35,86,19752,77,64,0,2,6,5,5.mid,experiment,1
36,88,19990,76,64,0,2,6,5,5.mid,experiment,1
37,90,20270,76,64,0,2,6,5,5.mid,experiment,1
38,92,20526,76,64,0,2,6,5,5.mid,experiment,1
39,94,20764,76,64,0,2,6,5,5.mid,experiment,1
40,97,21376,81,64,0,2,6,5,5.mid,experiment,1
41,99,21574,77,64,0,2,6,5,5.mid,experiment,1
42,101,21836,76,64,0,2,6,5,5.mid,experiment,1
43,103,22097,74,64,0,2,6,5,5.mid,experiment,1
44,105,22354,76,64,0,2,6,5,5.mid,experiment,1
45,107,22671,79,64,0,2,6,5,5.mid,experiment,1
46,109,22875,74,64,0,2,6,5,5.mid,experiment,1
47,110,23017,71,64,0,2,6,5,5.mid,experiment,1
48,112,23193,72,64,0,2,6,5,5.mid,experiment,1
49,114,23447,72,64,0,2,6,5,5.mid,experiment,1
50,116,23691,74,64,0,2,6,5,5.mid,experiment,1
51,118,23961,74,64,0,2,6,5,5.mid,experiment,1
52,120,24910,76,64,0,2,6,5,5.mid,experiment,1
53,122,25389,65,64,0,2,6,5,5.mid,experiment,1
54,124,25669,65,64,0,2,6,5,5.mid,experiment,1
55,126,25932,64,64,0,2,6,5,5.mid,experiment,1
56,128,26202,64,64,0,2,6,5,5.mid,experiment,1
57,130,27241,62,64,0,2,6,5,5.mid,experiment,1
58,132,27722,67,64,0,2,6,5,5.mid,experiment,1
59,132,,67,,0,2,6,5,5.mid,experiment,1
60,134,28259,71,64,0,2,6,5,5.mid,experiment,1
61,136,28517,71,64,0,2,6,5,5.mid,experiment,1
62,138,28777,72,64,0,2,6,5,5.mid,experiment,1
63,140,29038,72,64,0,2,6,5,5.mid,experiment,1
64,142,29302,73,64,0,2,6,5,5.mid,experiment,1
65,144,29557,73,64,0,2,6,5,5.mid,experiment,1
66,146,30278,74,64,0,2,6,5,5.mid,experiment,1
67,148,30826,77,64,0,2,6,5,5.mid,experiment,1
68,150,31385,76,64,0,2,6,5,5.mid,experiment,1
69,152,31931,74,64,0,2,6,5,5.mid,experiment,1
70,154,32421,72,64,0,2,6,5,5.mid,experiment,1
71,156,33086,84,64,0,2,6,5,5.mid,experiment,1
72,158,33870,84,64,0,2,6,5,5.mid,experiment,1
1,19,8105,79,64,0,2,6,7,7.mid,experiment,1
2,21,8387,78,64,0,2,6,7,7.mid,experiment,1
3,23,8626,79,64,0,2,6,7,7.mid,experiment,1
4,25,8927,76,64,0,2,6,7,7.mid,experiment,1
5,26,8994,72,64,0,2,6,7,7.mid,experiment,1
6,28,9206,67,64,0,2,6,7,7.mid,experiment,1
7,30,9489,67,64,0,2,6,7,7.mid,experiment,1
8,32,9733,67,64,0,2,6,7,7.mid,experiment,1
9,35,10299,79,64,0,2,6,7,7.mid,experiment,1
10,37,10608,78,64,0,2,6,7,7.mid,experiment,1
11,39,10837,79,64,0,2,6,7,7.mid,experiment,1
12,41,11073,76,64,0,2,6,7,7.mid,experiment,1
13,43,11391,72,64,0,2,6,7,7.mid,experiment,1
14,45,11651,76,64,0,2,6,7,7.mid,experiment,1
15,47,11878,79,64,0,2,6,7,7.mid,experiment,1
16,49,12178,84,64,0,2,6,7,7.mid,experiment,1
17,50,12269,83,64,0,2,6,7,7.mid,experiment,1
18,52,12431,81,64,0,2,6,7,7.mid,experiment,1
19,54,12718,81,64,0,2,6,7,7.mid,experiment,1
20,56,12990,81,64,0,2,6,7,7.mid,experiment,1
21,59,13545,83,64,0,2,6,7,7.mid,experiment,1
22,61,13765,81,64,0,2,6,7,7.mid,experiment,1
23,63,14023,84,64,0,2,6,7,7.mid,experiment,1
24,65,14297,81,64,0,2,6,7,7.mid,experiment,1
25,66,14438,78,64,0,2,6,7,7.mid,experiment,1
26,68,14649,79,64,0,2,6,7,7.mid,experiment,1
27,70,15217,79,64,0,2,6,7,7.mid,experiment,1
28,72,16148,79,64,0,2,6,7,7.mid,experiment,1
29,74,16590,77,64,0,2,6,7,7.mid,experiment,1
30,76,16881,77,64,0,2,6,7,7.mid,experiment,1
31,78,17140,76,64,0,2,6,7,7.mid,experiment,1
32,80,17406,76,64,0,2,6,7,7.mid,experiment,1
33,82,18315,74,64,0,2,6,7,7.mid,experiment,1
34,84,19271,79,64,0,2,6,7,7.mid,experiment,1
35,86,19828,77,64,0,2,6,7,7.mid,experiment,1
36,88,20049,76,64,0,2,6,7,7.mid,experiment,1
37,90,20308,76,64,0,2,6,7,7.mid,experiment,1
38,92,20566,76,64,0,2,6,7,7.mid,experiment,1
39,94,20802,76,64,0,2,6,7,7.mid,experiment,1
40,97,21388,81,64,0,2,6,7,7.mid,experiment,1
41,99,21615,77,64,0,2,6,7,7.mid,experiment,1
42,101,21850,76,64,0,2,6,7,7.mid,experiment,1
43,103,22129,74,64,0,2,6,7,7.mid,experiment,1
44,105,22384,76,64,0,2,6,7,7.mid,experiment,1
45,107,22658,79,64,0,2,6,7,7.mid,experiment,1
46,109,22916,74,64,0,2,6,7,7.mid,experiment,1
47,110,23022,71,64,0,2,6,7,7.mid,experiment,1
48,112,23213,72,64,0,2,6,7,7.mid,experiment,1
49,114,23481,72,64,0,2,6,7,7.mid,experiment,1
50,116,23733,74,64,0,2,6,7,7.mid,experiment,1
51,118,23989,74,64,0,2,6,7,7.mid,experiment,1
52,120,24906,76,64,0,2,6,7,7.mid,experiment,1
53,122,25376,65,64,0,2,6,7,7.mid,experiment,1
54,122,,65,,0,2,6,7,7.mid,experiment,1
55,124,25921,64,64,0,2,6,7,7.mid,experiment,1
56,126,26196,64,64,0,2,6,7,7.mid,experiment,1
57,128,27078,62,64,0,2,6,7,7.mid,experiment,1
58,130,27530,67,64,0,2,6,7,7.mid,experiment,1
59,132,27848,67,64,0,2,6,7,7.mid,experiment,1
60,134,28356,71,64,0,2,6,7,7.mid,experiment,1
61,134,,71,,0,2,6,7,7.mid,experiment,1
62,136,28615,72,64,0,2,6,7,7.mid,experiment,1
63,138,28887,72,64,0,2,6,7,7.mid,experiment,1
64,140,29134,73,64,0,2,6,7,7.mid,experiment,1
65,142,29377,73,64,0,2,6,7,7.mid,experiment,1
66,144,30090,74,64,0,2,6,7,7.mid,experiment,1
67,146,30630,77,64,0,2,6,7,7.mid,experiment,1
68,148,31148,76,64,0,2,6,7,7.mid,experiment,1
69,150,31705,74,64,0,2,6,7,7.mid,experiment,1
70,152,32245,72,64,0,2,6,7,7.mid,experiment,1
71,154,32803,84,64,0,2,6,7,7.mid,experiment,1
72,156,33688,84,64,0,2,6,7,7.mid,experiment,1
1,19,8083,79,64,0,2,6,9,14.mid,experiment,1
2,21,8413,78,64,0,2,6,9,14.mid,experiment,1
3,23,8621,79,64,0,2,6,9,14.mid,experiment,1
4,25,8938,76,64,0,2,6,9,14.mid,experiment,1
5,26,8992,72,64,0,2,6,9,14.mid,experiment,1
6,28,9194,67,64,0,2,6,9,14.mid,experiment,1
7,30,9489,67,64,0,2,6,9,14.mid,experiment,1
8,32,9738,67,64,0,2,6,9,14.mid,experiment,1
9,35,10304,79,64,0,2,6,9,14.mid,experiment,1
10,37,10598,78,64,0,2,6,9,14.mid,experiment,1
11,39,10828,79,64,0,2,6,9,14.mid,experiment,1
12,41,11057,76,64,0,2,6,9,14.mid,experiment,1
13,43,11393,72,64,0,2,6,9,14.mid,experiment,1
14,45,11645,76,64,0,2,6,9,14.mid,experiment,1
15,47,11874,79,64,0,2,6,9,14.mid,experiment,1
16,49,12181,84,64,0,2,6,9,14.mid,experiment,1
17,50,12277,83,64,0,2,6,9,14.mid,experiment,1
18,52,12715,81,64,0,2,6,9,14.mid,experiment,1
19,54,12969,81,64,0,2,6,9,14.mid,experiment,1
20,54,,81,,0,2,6,9,14.mid,experiment,1
21,57,13517,83,64,0,2,6,9,14.mid,experiment,1
22,59,13743,81,64,0,2,6,9,14.mid,experiment,1
23,61,14010,84,64,0,2,6,9,14.mid,experiment,1
24,63,14256,81,64,0,2,6,9,14.mid,experiment,1
25,64,14396,78,64,0,2,6,9,14.mid,experiment,1
26,66,14525,79,64,0,2,6,9,14.mid,experiment,1
27,68,15139,79,64,0,2,6,9,14.mid,experiment,1
28,70,16099,79,64,0,2,6,9,14.mid,experiment,1
29,72,16527,77,64,0,2,6,9,14.mid,experiment,1
30,72,,77,,0,2,6,9,14.mid,experiment,1
31,74,17075,76,64,0,2,6,9,14.mid,experiment,1
32,76,17323,76,64,0,2,6,9,14.mid,experiment,1
33,78,18268,74,64,0,2,6,9,14.mid,experiment,1
34,80,19072,79,64,0,2,6,9,14.mid,experiment,1
35,82,19574,77,64,0,2,6,9,14.mid,experiment,1
36,84,19788,76,64,0,2,6,9,14.mid,experiment,1
37,86,20084,76,64,0,2,6,9,14.mid,experiment,1
38,88,20584,76,64,0,2,6,9,14.mid,experiment,1
39,88,,76,,0,2,6,9,14.mid,experiment,1
40,91,21168,81,64,0,2,6,9,14.mid,experiment,1
41,93,21377,77,64,0,2,6,9,14.mid,experiment,1
42,95,21616,76,64,0,2,6,9,14.mid,experiment,1
43,97,21866,74,64,0,2,6,9,14.mid,experiment,1
44,99,22118,76,64,0,2,6,9,14.mid,experiment,1
45,101,22404,79,64,0,2,6,9,14.mid,experiment,1
46,103,22620,74,64,0,2,6,9,14.mid,experiment,1
47,104,22718,71,64,0,2,6,9,14.mid,experiment,1
48,106,22914,72,64,0,2,6,9,14.mid,experiment,1
49,108,23176,72,64,0,2,6,9,14.mid,experiment,1
50,110,23432,74,64,0,2,6,9,14.mid,experiment,1
51,112,23689,74,64,0,2,6,9,14.mid,experiment,1
52,114,24608,76,64,0,2,6,9,14.mid,experiment,1
53,116,25077,65,64,0,2,6,9,14.mid,experiment,1
54,118,25364,65,64,0,2,6,9,14.mid,experiment,1
55,120,25653,64,64,0,2,6,9,14.mid,experiment,1
56,122,25906,64,64,0,2,6,9,14.mid,experiment,1
57,124,26919,62,64,0,2,6,9,14.mid,experiment,1
58,126,27375,67,64,0,2,6,9,14.mid,experiment,1
59,128,27636,67,64,0,2,6,9,14.mid,experiment,1
60,130,27934,71,64,0,2,6,9,14.mid,experiment,1
61,132,28177,71,64,0,2,6,9,14.mid,experiment,1
62,134,28436,72,64,0,2,6,9,14.mid,experiment,1
63,136,28710,72,64,0,2,6,9,14.mid,experiment,1
64,138,28965,73,64,0,2,6,9,14.mid,experiment,1
65,140,29212,73,64,0,2,6,9,14.mid,experiment,1
66,142,29938,74,64,0,2,6,9,14.mid,experiment,1
67,144,30499,77,64,0,2,6,9,14.mid,experiment,1
68,146,31025,76,64,0,2,6,9,14.mid,experiment,1
69,148,31572,74,64,0,2,6,9,14.mid,experiment,1
70,150,32045,72,64,0,2,6,9,14.mid,experiment,1
71,152,32675,84,64,0,2,6,9,14.mid,experiment,1
72,154,33528,84,64,0,2,6,9,14.mid,experiment,1
1,19,8076,79,64,0,2,6,13,13.mid,experiment,1
2,21,8387,78,64,0,2,6,13,13.mid,experiment,1
3,23,8592,79,64,0,2,6,13,13.mid,experiment,1
4,25,8897,76,64,0,2,6,13,13.mid,experiment,1
5,26,8941,72,64,0,2,6,13,13.mid,experiment,1
6,28,9168,67,64,0,2,6,13,13.mid,experiment,1
7,30,9449,67,64,0,2,6,13,13.mid,experiment,1
8,32,9686,67,64,0,2,6,13,13.mid,experiment,1
9,35,10239,79,64,0,2,6,13,13.mid,experiment,1
10,37,10558,78,64,0,2,6,13,13.mid,experiment,1
11,39,10779,79,64,0,2,6,13,13.mid,experiment,1
12,41,11010,76,64,0,2,6,13,13.mid,experiment,1
13,43,11322,72,64,0,2,6,13,13.mid,experiment,1
14,45,11597,76,64,0,2,6,13,13.mid,experiment,1
15,47,11816,79,64,0,2,6,13,13.mid,experiment,1
16,49,12134,84,64,0,2,6,13,13.mid,experiment,1
17,50,12250,83,64,0,2,6,13,13.mid,experiment,1
18,52,12381,81,64,0,2,6,13,13.mid,experiment,1
19,54,12645,81,64,0,2,6,13,13.mid,experiment,1
20,56,12903,81,64,0,2,6,13,13.mid,experiment,1
21,59,13480,83,64,0,2,6,13,13.mid,experiment,1
22,61,13705,81,64,0,2,6,13,13.mid,experiment,1
23,63,13976,84,64,0,2,6,13,13.mid,experiment,1
24,65,14217,81,64,0,2,6,13,13.mid,experiment,1
25,66,14363,78,64,0,2,6,13,13.mid,experiment,1
26,68,14558,79,64,0,2,6,13,13.mid,experiment,1
27,70,15099,79,64,0,2,6,13,13.mid,experiment,1
28,72,15965,79,64,0,2,6,13,13.mid,experiment,1
29,74,16415,77,64,0,2,6,13,13.mid,experiment,1
30,76,16707,77,64,0,2,6,13,13.mid,experiment,1
31,78,17001,76,64,0,2,6,13,13.mid,experiment,1
32,80,17239,76,64,0,2,6,13,13.mid,experiment,1
33,82,18119,74,64,0,2,6,13,13.mid,experiment,1
34,84,19023,79,64,0,2,6,13,13.mid,experiment,1
35,86,19640,77,64,0,2,6,13,13.mid,experiment,1
36,88,20108,76,64,0,2,6,13,13.mid,experiment,1
37,90,20365,76,64,0,2,6,13,13.mid,experiment,1
38,92,20637,76,64,0,2,6,13,13.mid,experiment,1
39,92,,76,,0,2,6,13,13.mid,experiment,1
40,95,21161,81,64,0,2,6,13,13.mid,experiment,1
41,97,21381,77,64,0,2,6,13,13.mid,experiment,1
42,99,21613,76,64,0,2,6,13,13.mid,experiment,1
43,101,21875,74,64,0,2,6,13,13.mid,experiment,1
44,103,22132,76,64,0,2,6,13,13.mid,experiment,1
45,105,22399,79,64,0,2,6,13,13.mid,experiment,1
46,107,22686,74,64,0,2,6,13,13.mid,experiment,1
47,108,22789,71,64,0,2,6,13,13.mid,experiment,1
48,110,22966,72,64,0,2,6,13,13.mid,experiment,1
49,112,23233,72,64,0,2,6,13,13.mid,experiment,1
50,114,23484,74,64,0,2,6,13,13.mid,experiment,1
51,116,23751,74,64,0,2,6,13,13.mid,experiment,1
52,118,24657,76,64,0,2,6,13,13.mid,experiment,1
53,120,25163,65,64,0,2,6,13,13.mid,experiment,1
54,122,25465,65,64,0,2,6,13,13.mid,experiment,1
55,124,25734,64,64,0,2,6,13,13.mid,experiment,1
56,126,25994,64,64,0,2,6,13,13.mid,experiment,1
57,128,26882,62,64,0,2,6,13,13.mid,experiment,1
58,130,27452,67,64,0,2,6,13,13.mid,experiment,1
59,132,27747,67,64,0,2,6,13,13.mid,experiment,1
60,134,28005,71,64,0,2,6,13,13.mid,experiment,1
61,136,28294,71,64,0,2,6,13,13.mid,experiment,1
62,138,28532,72,64,0,2,6,13,13.mid,experiment,1
63,140,28802,72,64,0,2,6,13,13.mid,experiment,1
64,142,29080,73,64,0,2,6,13,13.mid,experiment,1
65,144,29332,73,64,0,2,6,13,13.mid,experiment,1
66,146,30049,74,64,0,2,6,13,13.mid,experiment,1
67,148,30627,77,64,0,2,6,13,13.mid,experiment,1
68,150,31177,76,64,0,2,6,13,13.mid,experiment,1
69,152,31691,74,64,0,2,6,13,13.mid,experiment,1
70,154,32208,72,64,0,2,6,13,13.mid,experiment,1
71,156,32885,84,64,0,2,6,13,13.mid,experiment,1
72,158,33730,84,64,0,2,6,13,13.mid,experiment,1
1,19,8094,79,64,0,2,6,16,4.mid,experiment,1
2,21,8349,78,64,0,2,6,16,4.mid,experiment,1
3,23,8605,79,64,0,2,6,16,4.mid,experiment,1
4,25,8908,76,64,0,2,6,16,4.mid,experiment,1
5,26,8961,72,64,0,2,6,16,4.mid,experiment,1
6,28,9167,67,64,0,2,6,16,4.mid,experiment,1
7,30,9458,67,64,0,2,6,16,4.mid,experiment,1
8,32,9703,67,64,0,2,6,16,4.mid,experiment,1
9,35,10246,79,64,0,2,6,16,4.mid,experiment,1
10,37,10539,78,64,0,2,6,16,4.mid,experiment,1
11,39,10749,79,64,0,2,6,16,4.mid,experiment,1
12,41,10996,76,64,0,2,6,16,4.mid,experiment,1
13,43,11333,72,64,0,2,6,16,4.mid,experiment,1
14,45,11577,76,64,0,2,6,16,4.mid,experiment,1
15,47,11806,79,64,0,2,6,16,4.mid,experiment,1
16,49,12132,84,64,0,2,6,16,4.mid,experiment,1
17,50,12224,83,64,0,2,6,16,4.mid,experiment,1
18,52,12384,81,64,0,2,6,16,4.mid,experiment,1
19,54,12634,81,64,0,2,6,16,4.mid,experiment,1
20,56,12908,81,64,0,2,6,16,4.mid,experiment,1
21,59,13463,83,64,0,2,6,16,4.mid,experiment,1
22,61,13676,81,64,0,2,6,16,4.mid,experiment,1
23,63,13959,84,64,0,2,6,16,4.mid,experiment,1
24,65,14211,81,64,0,2,6,16,4.mid,experiment,1
25,66,14356,78,64,0,2,6,16,4.mid,experiment,1
26,68,14584,79,64,0,2,6,16,4.mid,experiment,1
27,70,15136,79,64,0,2,6,16,4.mid,experiment,1
28,72,16025,79,64,0,2,6,16,4.mid,experiment,1
29,74,16476,77,64,0,2,6,16,4.mid,experiment,1
30,76,16793,77,64,0,2,6,16,4.mid,experiment,1
31,78,17066,76,64,0,2,6,16,4.mid,experiment,1
32,80,17336,76,64,0,2,6,16,4.mid,experiment,1
33,82,18211,74,64,0,2,6,16,4.mid,experiment,1
34,84,19093,79,64,0,2,6,16,4.mid,experiment,1
35,86,19667,77,64,0,2,6,16,4.mid,experiment,1
36,88,19870,76,64,0,2,6,16,4.mid,experiment,1
37,90,20141,76,64,0,2,6,16,4.mid,experiment,1
38,92,20380,76,64,0,2,6,16,4.mid,experiment,1
39,94,20627,76,64,0,2,6,16,4.mid,experiment,1
40,97,21227,81,64,0,2,6,16,4.mid,experiment,1
41,99,21473,77,64,0,2,6,16,4.mid,experiment,1
42,101,21698,76,64,0,2,6,16,4.mid,experiment,1
43,103,21981,74,64,0,2,6,16,4.mid,experiment,1
44,105,22214,76,64,0,2,6,16,4.mid,experiment,1
45,107,22488,79,64,0,2,6,16,4.mid,experiment,1
46,109,22761,74,64,0,2,6,16,4.mid,experiment,1
47,110,22871,71,64,0,2,6,16,4.mid,experiment,1
48,112,23034,72,64,0,2,6,16,4.mid,experiment,1
49,114,23296,72,64,0,2,6,16,4.mid,experiment,1
50,116,23548,74,64,0,2,6,16,4.mid,experiment,1
51,118,23802,74,64,0,2,6,16,4.mid,experiment,1
52,120,24682,76,64,0,2,6,16,4.mid,experiment,1
53,122,25180,65,64,0,2,6,16,4.mid,experiment,1
54,122,,65,,0,2,6,16,4.mid,experiment,1
55,124,25727,64,64,0,2,6,16,4.mid,experiment,1
56,126,25991,64,64,0,2,6,16,4.mid,experiment,1
57,128,27030,62,64,0,2,6,16,4.mid,experiment,1
58,130,27386,67,64,0,2,6,16,4.mid,experiment,1
59,132,27685,67,64,0,2,6,16,4.mid,experiment,1
60,134,27928,71,64,0,2,6,16,4.mid,experiment,1
61,136,28186,71,64,0,2,6,16,4.mid,experiment,1
62,138,28433,72,64,0,2,6,16,4.mid,experiment,1
63,140,28699,72,64,0,2,6,16,4.mid,experiment,1
64,142,28947,73,64,0,2,6,16,4.mid,experiment,1
65,144,29190,73,64,0,2,6,16,4.mid,experiment,1
66,146,29941,74,64,0,2,6,16,4.mid,experiment,1
67,148,30451,77,64,0,2,6,16,4.mid,experiment,1
68,150,30994,76,64,0,2,6,16,4.mid,experiment,1
69,152,31542,74,64,0,2,6,16,4.mid,experiment,1
70,154,32110,72,64,0,2,6,16,4.mid,experiment,1
71,156,32634,84,64,0,2,6,16,4.mid,experiment,1
72,158,33513,84,64,0,2,6,16,4.mid,experiment,1
1,19,8299,79,64,0,2,7,1,16.mid,experiment,1
2,21,8689,78,64,0,2,7,1,16.mid,experiment,1
3,23,8939,79,64,0,2,7,1,16.mid,experiment,1
4,25,9262,76,64,0,2,7,1,16.mid,experiment,1
5,26,9348,72,64,0,2,7,1,16.mid,experiment,1
6,28,9582,67,64,0,2,7,1,16.mid,experiment,1
7,30,9865,67,64,0,2,7,1,16.mid,experiment,1
8,32,10178,67,64,0,2,7,1,16.mid,experiment,1
9,35,10847,79,64,0,2,7,1,16.mid,experiment,1
10,37,11189,78,64,0,2,7,1,16.mid,experiment,1
11,39,11451,79,64,0,2,7,1,16.mid,experiment,1
12,40,11706,76,64,0,2,7,1,16.mid,experiment,1
13,43,12079,72,64,0,2,7,1,16.mid,experiment,1
14,45,12428,76,64,0,2,7,1,16.mid,experiment,1
15,47,12691,79,64,0,2,7,1,16.mid,experiment,1
16,49,13068,84,64,0,2,7,1,16.mid,experiment,1
17,50,13178,83,64,0,2,7,1,16.mid,experiment,1
18,52,13689,81,64,0,2,7,1,16.mid,experiment,1
19,52,,81,,0,2,7,1,16.mid,experiment,1
20,52,,81,,0,2,7,1,16.mid,experiment,1
21,55,14648,83,64,0,2,7,1,16.mid,experiment,1
22,57,14893,81,64,0,2,7,1,16.mid,experiment,1
23,59,15158,84,64,0,2,7,1,16.mid,experiment,1
24,60,15325,81,64,0,2,7,1,16.mid,experiment,1
25,62,15702,78,64,0,2,7,1,16.mid,experiment,1
26,64,15866,79,64,0,2,7,1,16.mid,experiment,1
27,66,16339,79,64,0,2,7,1,16.mid,experiment,1
28,68,17371,79,64,0,2,7,1,16.mid,experiment,1
29,70,18034,77,64,0,2,7,1,16.mid,experiment,1
30,72,18322,77,64,0,2,7,1,16.mid,experiment,1
31,74,18630,76,64,0,2,7,1,16.mid,experiment,1
32,76,18920,76,64,0,2,7,1,16.mid,experiment,1
33,78,20045,74,64,0,2,7,1,16.mid,experiment,1
34,80,20950,79,64,0,2,7,1,16.mid,experiment,1
35,82,21372,77,64,0,2,7,1,16.mid,experiment,1
36,84,21771,76,64,0,2,7,1,16.mid,experiment,1
37,86,22060,76,64,0,2,7,1,16.mid,experiment,1
38,88,22356,76,64,0,2,7,1,16.mid,experiment,1
39,90,22671,76,64,0,2,7,1,16.mid,experiment,1
40,93,23447,81,64,0,2,7,1,16.mid,experiment,1
41,95,23675,77,64,0,2,7,1,16.mid,experiment,1
42,97,23948,76,64,0,2,7,1,16.mid,experiment,1
43,99,24267,74,64,0,2,7,1,16.mid,experiment,1
44,101,24569,76,64,0,2,7,1,16.mid,experiment,1
45,103,24893,79,64,0,2,7,1,16.mid,experiment,1
46,104,25105,74,64,0,2,7,1,16.mid,experiment,1
47,106,25182,71,64,0,2,7,1,16.mid,experiment,1
48,108,25466,72,64,0,2,7,1,16.mid,experiment,1
49,110,25772,72,64,0,2,7,1,16.mid,experiment,1
50,112,26060,74,64,0,2,7,1,16.mid,experiment,1
51,114,26382,74,64,0,2,7,1,16.mid,experiment,1
52,116,27250,76,64,0,2,7,1,16.mid,experiment,1
53,118,27946,65,64,0,2,7,1,16.mid,experiment,1
54,120,28245,65,64,0,2,7,1,16.mid,experiment,1
55,122,28557,64,64,0,2,7,1,16.mid,experiment,1
56,124,28863,64,64,0,2,7,1,16.mid,experiment,1
57,126,29820,62,64,0,2,7,1,16.mid,experiment,1
58,128,30380,67,64,0,2,7,1,16.mid,experiment,1
59,130,30677,67,64,0,2,7,1,16.mid,experiment,1
60,132,31264,71,64,0,2,7,1,16.mid,experiment,1
61,132,,71,,0,2,7,1,16.mid,experiment,1
62,134,31547,72,64,0,2,7,1,16.mid,experiment,1
63,136,31829,72,64,0,2,7,1,16.mid,experiment,1
64,138,32169,73,64,0,2,7,1,16.mid,experiment,1
65,140,32457,73,64,0,2,7,1,16.mid,experiment,1
66,143,33322,74,64,0,2,7,1,16.mid,experiment,1
67,144,33857,77,64,0,2,7,1,16.mid,experiment,1
68,146,34473,76,64,0,2,7,1,16.mid,experiment,1
69,148,35008,74,64,0,2,7,1,16.mid,experiment,1
70,150,35567,72,64,0,2,7,1,16.mid,experiment,1
71,152,36111,84,64,0,2,7,1,16.mid,experiment,1
72,154,37131,84,64,0,2,7,1,16.mid,experiment,1
1,19,8303,79,64,0,2,7,3,7.mid,experiment,1
2,21,8693,78,64,0,2,7,3,7.mid,experiment,1
3,23,8878,79,64,0,2,7,3,7.mid,experiment,1
4,25,9191,76,64,0,2,7,3,7.mid,experiment,1
5,26,9247,72,64,0,2,7,3,7.mid,experiment,1
6,28,9476,67,64,0,2,7,3,7.mid,experiment,1
7,30,9770,67,64,0,2,7,3,7.mid,experiment,1
8,32,10071,67,64,0,2,7,3,7.mid,experiment,1
9,35,10743,79,64,0,2,7,3,7.mid,experiment,1
10,37,11025,78,64,0,2,7,3,7.mid,experiment,1
11,39,11302,79,64,0,2,7,3,7.mid,experiment,1
12,40,11552,76,64,0,2,7,3,7.mid,experiment,1
13,43,11928,72,64,0,2,7,3,7.mid,experiment,1
14,45,12225,76,64,0,2,7,3,7.mid,experiment,1
15,47,12467,79,64,0,2,7,3,7.mid,experiment,1
16,49,12792,84,64,0,2,7,3,7.mid,experiment,1
17,50,12922,83,64,0,2,7,3,7.mid,experiment,1
18,52,13127,81,64,0,2,7,3,7.mid,experiment,1
19,54,13422,81,64,0,2,7,3,7.mid,experiment,1
20,56,13714,81,64,0,2,7,3,7.mid,experiment,1
21,59,14346,83,64,0,2,7,3,7.mid,experiment,1
22,61,14594,81,64,0,2,7,3,7.mid,experiment,1
23,62,14872,84,64,0,2,7,3,7.mid,experiment,1
24,65,15167,81,64,0,2,7,3,7.mid,experiment,1
25,66,15322,78,64,0,2,7,3,7.mid,experiment,1
26,68,15501,79,64,0,2,7,3,7.mid,experiment,1
27,70,15979,79,64,0,2,7,3,7.mid,experiment,1
28,72,16980,79,64,0,2,7,3,7.mid,experiment,1
29,74,17610,77,64,0,2,7,3,7.mid,experiment,1
30,76,17914,77,64,0,2,7,3,7.mid,experiment,1
31,78,18203,76,64,0,2,7,3,7.mid,experiment,1
32,80,18497,76,64,0,2,7,3,7.mid,experiment,1
33,82,19426,74,64,0,2,7,3,7.mid,experiment,1
34,84,20490,79,64,0,2,7,3,7.mid,experiment,1
35,86,20934,77,64,0,2,7,3,7.mid,experiment,1
36,88,21293,76,64,0,2,7,3,7.mid,experiment,1
37,90,21579,76,64,0,2,7,3,7.mid,experiment,1
38,92,21866,76,64,0,2,7,3,7.mid,experiment,1
39,94,22167,76,64,0,2,7,3,7.mid,experiment,1
40,97,22891,81,64,0,2,7,3,7.mid,experiment,1
41,99,23108,77,64,0,2,7,3,7.mid,experiment,1
42,101,23356,76,64,0,2,7,3,7.mid,experiment,1
43,103,23702,74,64,0,2,7,3,7.mid,experiment,1
44,105,23970,76,64,0,2,7,3,7.mid,experiment,1
45,107,24313,79,64,0,2,7,3,7.mid,experiment,1
46,108,24522,74,64,0,2,7,3,7.mid,experiment,1
47,110,24596,71,64,0,2,7,3,7.mid,experiment,1
48,112,24900,72,64,0,2,7,3,7.mid,experiment,1
49,114,25182,72,64,0,2,7,3,7.mid,experiment,1
50,116,25474,74,64,0,2,7,3,7.mid,experiment,1
51,118,25770,74,64,0,2,7,3,7.mid,experiment,1
52,120,26687,76,64,0,2,7,3,7.mid,experiment,1
53,122,27304,65,64,0,2,7,3,7.mid,experiment,1
54,124,27606,65,64,0,2,7,3,7.mid,experiment,1
55,126,27929,64,64,0,2,7,3,7.mid,experiment,1
56,128,28231,64,64,0,2,7,3,7.mid,experiment,1
57,130,29226,62,64,0,2,7,3,7.mid,experiment,1
58,132,29776,67,64,0,2,7,3,7.mid,experiment,1
59,134,30053,67,64,0,2,7,3,7.mid,experiment,1
60,134,,71,,0,2,7,3,7.mid,experiment,1
61,134,,71,,0,2,7,3,7.mid,experiment,1
62,136,30929,72,64,0,2,7,3,7.mid,experiment,1
63,138,31196,72,64,0,2,7,3,7.mid,experiment,1
64,140,31484,73,64,0,2,7,3,7.mid,experiment,1
65,142,31782,73,64,0,2,7,3,7.mid,experiment,1
66,145,32669,74,64,0,2,7,3,7.mid,experiment,1
67,146,33240,77,64,0,2,7,3,7.mid,experiment,1
68,148,33820,76,64,0,2,7,3,7.mid,experiment,1
69,150,34380,74,64,0,2,7,3,7.mid,experiment,1
70,152,34913,72,64,0,2,7,3,7.mid,experiment,1
71,154,35350,84,64,0,2,7,3,7.mid,experiment,1
72,156,36396,84,64,0,2,7,3,7.mid,experiment,1
1,19,8236,79,64,0,2,7,8,4.mid,experiment,1
2,21,8534,78,64,0,2,7,8,4.mid,experiment,1
3,23,8756,79,64,0,2,7,8,4.mid,experiment,1
4,25,9078,76,64,0,2,7,8,4.mid,experiment,1
5,26,9148,72,64,0,2,7,8,4.mid,experiment,1
6,28,9340,67,64,0,2,7,8,4.mid,experiment,1
7,30,9638,67,64,0,2,7,8,4.mid,experiment,1
8,32,9912,67,64,0,2,7,8,4.mid,experiment,1
9,35,10480,79,64,0,2,7,8,4.mid,experiment,1
10,37,10780,78,64,0,2,7,8,4.mid,experiment,1
11,39,11028,79,64,0,2,7,8,4.mid,experiment,1
12,40,11244,76,64,0,2,7,8,4.mid,experiment,1
13,43,11602,72,64,0,2,7,8,4.mid,experiment,1
14,45,11856,76,64,0,2,7,8,4.mid,experiment,1
15,47,12078,79,64,0,2,7,8,4.mid,experiment,1
16,49,12400,84,64,0,2,7,8,4.mid,experiment,1
17,50,12494,83,64,0,2,7,8,4.mid,experiment,1
18,52,12679,81,64,0,2,7,8,4.mid,experiment,1
19,54,12953,81,64,0,2,7,8,4.mid,experiment,1
20,56,13228,81,64,0,2,7,8,4.mid,experiment,1
21,59,13779,83,64,0,2,7,8,4.mid,experiment,1
22,61,14048,81,64,0,2,7,8,4.mid,experiment,1
23,62,14294,84,64,0,2,7,8,4.mid,experiment,1
24,65,14615,81,64,0,2,7,8,4.mid,experiment,1
25,66,14740,78,64,0,2,7,8,4.mid,experiment,1
26,68,14934,79,64,0,2,7,8,4.mid,experiment,1
27,70,15369,79,64,0,2,7,8,4.mid,experiment,1
28,72,16236,79,64,0,2,7,8,4.mid,experiment,1
29,74,17016,77,64,0,2,7,8,4.mid,experiment,1
30,76,17288,77,64,0,2,7,8,4.mid,experiment,1
31,78,17580,76,64,0,2,7,8,4.mid,experiment,1
32,80,17866,76,64,0,2,7,8,4.mid,experiment,1
33,82,18710,74,64,0,2,7,8,4.mid,experiment,1
34,84,19772,79,64,0,2,7,8,4.mid,experiment,1
35,86,20186,77,64,0,2,7,8,4.mid,experiment,1
36,88,20491,76,64,0,2,7,8,4.mid,experiment,1
37,90,20762,76,64,0,2,7,8,4.mid,experiment,1
38,92,21051,76,64,0,2,7,8,4.mid,experiment,1
39,94,21321,76,64,0,2,7,8,4.mid,experiment,1
40,97,22072,81,64,0,2,7,8,4.mid,experiment,1
41,99,22216,77,64,0,2,7,8,4.mid,experiment,1
42,101,22436,76,64,0,2,7,8,4.mid,experiment,1
43,103,22756,74,64,0,2,7,8,4.mid,experiment,1
44,105,23060,76,64,0,2,7,8,4.mid,experiment,1
45,107,23379,79,64,0,2,7,8,4.mid,experiment,1
46,108,23540,74,64,0,2,7,8,4.mid,experiment,1
47,110,23594,71,64,0,2,7,8,4.mid,experiment,1
48,112,23956,72,64,0,2,7,8,4.mid,experiment,1
49,114,24200,72,64,0,2,7,8,4.mid,experiment,1
50,116,24490,74,64,0,2,7,8,4.mid,experiment,1
51,118,24768,74,64,0,2,7,8,4.mid,experiment,1
52,120,25540,76,64,0,2,7,8,4.mid,experiment,1
53,122,26240,65,64,0,2,7,8,4.mid,experiment,1
54,124,26522,65,64,0,2,7,8,4.mid,experiment,1
55,126,27060,64,64,0,2,7,8,4.mid,experiment,1
56,126,,64,,0,2,7,8,4.mid,experiment,1
57,128,27830,62,64,0,2,7,8,4.mid,experiment,1
58,130,28534,67,64,0,2,7,8,4.mid,experiment,1
59,132,28794,67,64,0,2,7,8,4.mid,experiment,1
60,134,29112,71,64,0,2,7,8,4.mid,experiment,1
61,136,29362,71,64,0,2,7,8,4.mid,experiment,1
62,138,29637,72,64,0,2,7,8,4.mid,experiment,1
63,140,29908,72,64,0,2,7,8,4.mid,experiment,1
64,142,30224,73,64,0,2,7,8,4.mid,experiment,1
65,144,30484,73,64,0,2,7,8,4.mid,experiment,1
66,147,31365,74,64,0,2,7,8,4.mid,experiment,1
67,149,31909,77,64,0,2,7,8,4.mid,experiment,1
68,151,32526,76,64,0,2,7,8,4.mid,experiment,1
69,152,33050,74,64,0,2,7,8,4.mid,experiment,1
70,154,33587,72,64,0,2,7,8,4.mid,experiment,1
71,156,33940,84,64,0,2,7,8,4.mid,experiment,1
72,158,34972,84,64,0,2,7,8,4.mid,experiment,1
1,19,8190,79,64,0,2,7,9,5.mid,experiment,1
2,21,8616,78,64,0,2,7,9,5.mid,experiment,1
3,23,8747,79,64,0,2,7,9,5.mid,experiment,1
4,25,9067,76,64,0,2,7,9,5.mid,experiment,1
5,26,9102,72,64,0,2,7,9,5.mid,experiment,1
6,28,9344,67,64,0,2,7,9,5.mid,experiment,1
7,30,9609,67,64,0,2,7,9,5.mid,experiment,1
8,32,9886,67,64,0,2,7,9,5.mid,experiment,1
9,35,10504,79,64,0,2,7,9,5.mid,experiment,1
10,37,10801,78,64,0,2,7,9,5.mid,experiment,1
11,39,11038,79,64,0,2,7,9,5.mid,experiment,1
12,40,11283,76,64,0,2,7,9,5.mid,experiment,1
13,43,11637,72,64,0,2,7,9,5.mid,experiment,1
14,45,11930,76,64,0,2,7,9,5.mid,experiment,1
15,47,12145,79,64,0,2,7,9,5.mid,experiment,1
16,49,12453,84,64,0,2,7,9,5.mid,experiment,1
17,50,12526,83,64,0,2,7,9,5.mid,experiment,1
18,52,12754,81,64,0,2,7,9,5.mid,experiment,1
19,54,13019,81,64,0,2,7,9,5.mid,experiment,1
20,56,13318,81,64,0,2,7,9,5.mid,experiment,1
21,59,13909,83,64,0,2,7,9,5.mid,experiment,1
22,61,14136,81,64,0,2,7,9,5.mid,experiment,1
23,63,14403,84,64,0,2,7,9,5.mid,experiment,1
24,65,14709,81,64,0,2,7,9,5.mid,experiment,1
25,66,14849,78,64,0,2,7,9,5.mid,experiment,1
26,68,15041,79,64,0,2,7,9,5.mid,experiment,1
27,70,15441,79,64,0,2,7,9,5.mid,experiment,1
28,72,16416,79,64,0,2,7,9,5.mid,experiment,1
29,74,17033,77,64,0,2,7,9,5.mid,experiment,1
30,76,17300,77,64,0,2,7,9,5.mid,experiment,1
31,78,17592,76,64,0,2,7,9,5.mid,experiment,1
32,80,17878,76,64,0,2,7,9,5.mid,experiment,1
33,82,18655,74,64,0,2,7,9,5.mid,experiment,1
34,84,19846,79,64,0,2,7,9,5.mid,experiment,1
35,86,20178,77,64,0,2,7,9,5.mid,experiment,1
36,88,20527,76,64,0,2,7,9,5.mid,experiment,1
37,90,20800,76,64,0,2,7,9,5.mid,experiment,1
38,92,21086,76,64,0,2,7,9,5.mid,experiment,1
39,94,21349,76,64,0,2,7,9,5.mid,experiment,1
40,97,22033,81,64,0,2,7,9,5.mid,experiment,1
41,99,22236,77,64,0,2,7,9,5.mid,experiment,1
42,101,22461,76,64,0,2,7,9,5.mid,experiment,1
43,103,22798,74,64,0,2,7,9,5.mid,experiment,1
44,105,23067,76,64,0,2,7,9,5.mid,experiment,1
45,107,23402,79,64,0,2,7,9,5.mid,experiment,1
46,108,23564,74,64,0,2,7,9,5.mid,experiment,1
47,110,23621,71,64,0,2,7,9,5.mid,experiment,1
48,112,23918,72,64,0,2,7,9,5.mid,experiment,1
49,114,24192,72,64,0,2,7,9,5.mid,experiment,1
50,116,24463,74,64,0,2,7,9,5.mid,experiment,1
51,118,24752,74,64,0,2,7,9,5.mid,experiment,1
52,120,25544,76,64,0,2,7,9,5.mid,experiment,1
53,122,26293,65,64,0,2,7,9,5.mid,experiment,1
54,124,26551,65,64,0,2,7,9,5.mid,experiment,1
55,126,27082,64,64,0,2,7,9,5.mid,experiment,1
56,126,,64,,0,2,7,9,5.mid,experiment,1
57,128,27872,62,64,0,2,7,9,5.mid,experiment,1
58,130,28512,67,64,0,2,7,9,5.mid,experiment,1
59,132,28762,67,64,0,2,7,9,5.mid,experiment,1
60,134,29056,71,64,0,2,7,9,5.mid,experiment,1
61,136,29326,71,64,0,2,7,9,5.mid,experiment,1
62,138,29604,72,64,0,2,7,9,5.mid,experiment,1
63,140,29870,72,64,0,2,7,9,5.mid,experiment,1
64,142,30163,73,64,0,2,7,9,5.mid,experiment,1
65,144,30420,73,64,0,2,7,9,5.mid,experiment,1
66,147,31241,74,64,0,2,7,9,5.mid,experiment,1
67,148,31744,77,64,0,2,7,9,5.mid,experiment,1
68,151,32417,76,64,0,2,7,9,5.mid,experiment,1
69,152,32869,74,64,0,2,7,9,5.mid,experiment,1
70,154,33433,72,64,0,2,7,9,5.mid,experiment,1
71,156,33870,84,64,0,2,7,9,5.mid,experiment,1
72,158,34932,84,64,0,2,7,9,5.mid,experiment,1
1,19,8261,79,64,0,2,7,16,12.mid,experiment,1
2,21,8708,78,64,0,2,7,16,12.mid,experiment,1
3,23,8805,79,64,0,2,7,16,12.mid,experiment,1
4,25,9129,76,64,0,2,7,16,12.mid,experiment,1
5,26,9169,72,64,0,2,7,16,12.mid,experiment,1
6,28,9411,67,64,0,2,7,16,12.mid,experiment,1
7,30,9684,67,64,0,2,7,16,12.mid,experiment,1
8,32,9952,67,64,0,2,7,16,12.mid,experiment,1
9,35,10580,79,64,0,2,7,16,12.mid,experiment,1
10,37,10871,78,64,0,2,7,16,12.mid,experiment,1
11,39,11124,79,64,0,2,7,16,12.mid,experiment,1
12,40,11347,76,64,0,2,7,16,12.mid,experiment,1
13,43,11701,72,64,0,2,7,16,12.mid,experiment,1
14,45,12006,76,64,0,2,7,16,12.mid,experiment,1
15,47,12210,79,64,0,2,7,16,12.mid,experiment,1
16,49,12531,84,64,0,2,7,16,12.mid,experiment,1
17,50,12620,83,64,0,2,7,16,12.mid,experiment,1
18,52,13074,81,64,0,2,7,16,12.mid,experiment,1
19,54,13344,81,64,0,2,7,16,12.mid,experiment,1
20,54,,81,,0,2,7,16,12.mid,experiment,1
21,57,13915,83,64,0,2,7,16,12.mid,experiment,1
22,59,14160,81,64,0,2,7,16,12.mid,experiment,1
23,61,14419,84,64,0,2,7,16,12.mid,experiment,1
24,62,14632,81,64,0,2,7,16,12.mid,experiment,1
25,64,14798,78,64,0,2,7,16,12.mid,experiment,1
26,66,15015,79,64,0,2,7,16,12.mid,experiment,1
27,68,15462,79,64,0,2,7,16,12.mid,experiment,1
28,70,16410,79,64,0,2,7,16,12.mid,experiment,1
29,72,17035,77,64,0,2,7,16,12.mid,experiment,1
30,74,17304,77,64,0,2,7,16,12.mid,experiment,1
31,76,17590,76,64,0,2,7,16,12.mid,experiment,1
32,78,17873,76,64,0,2,7,16,12.mid,experiment,1
33,80,18731,74,64,0,2,7,16,12.mid,experiment,1
34,82,19811,79,64,0,2,7,16,12.mid,experiment,1
35,84,20241,77,64,0,2,7,16,12.mid,experiment,1
36,86,20540,76,64,0,2,7,16,12.mid,experiment,1
37,88,20824,76,64,0,2,7,16,12.mid,experiment,1
38,90,21101,76,64,0,2,7,16,12.mid,experiment,1
39,92,21373,76,64,0,2,7,16,12.mid,experiment,1
40,95,22040,81,64,0,2,7,16,12.mid,experiment,1
41,97,22303,77,64,0,2,7,16,12.mid,experiment,1
42,99,22513,76,64,0,2,7,16,12.mid,experiment,1
43,100,22753,74,64,0,2,7,16,12.mid,experiment,1
44,104,23413,76,64,0,2,7,16,12.mid,experiment,1
45,105,23518,79,64,0,2,7,16,12.mid,experiment,1
46,106,23654,74,64,0,2,7,16,12.mid,experiment,1
47,108,23742,71,64,0,2,7,16,12.mid,experiment,1
48,110,23987,72,64,0,2,7,16,12.mid,experiment,1
49,112,24260,72,64,0,2,7,16,12.mid,experiment,1
50,114,24542,74,64,0,2,7,16,12.mid,experiment,1
51,116,24840,74,64,0,2,7,16,12.mid,experiment,1
52,118,25627,76,64,0,2,7,16,12.mid,experiment,1
53,120,26264,65,64,0,2,7,16,12.mid,experiment,1
54,122,26542,65,64,0,2,7,16,12.mid,experiment,1
55,124,26825,64,64,0,2,7,16,12.mid,experiment,1
56,126,27095,64,64,0,2,7,16,12.mid,experiment,1
57,128,27919,62,64,0,2,7,16,12.mid,experiment,1
58,130,28578,67,64,0,2,7,16,12.mid,experiment,1
59,132,28864,67,64,0,2,7,16,12.mid,experiment,1
60,134,29141,71,64,0,2,7,16,12.mid,experiment,1
61,136,29441,71,64,0,2,7,16,12.mid,experiment,1
62,138,29703,72,64,0,2,7,16,12.mid,experiment,1
63,140,29963,72,64,0,2,7,16,12.mid,experiment,1
64,142,30261,73,64,0,2,7,16,12.mid,experiment,1
65,144,30560,73,64,0,2,7,16,12.mid,experiment,1
66,146,31369,74,64,0,2,7,16,12.mid,experiment,1
67,149,31969,77,64,0,2,7,16,12.mid,experiment,1
68,150,32517,76,64,0,2,7,16,12.mid,experiment,1
69,152,33080,74,64,0,2,7,16,12.mid,experiment,1
70,154,33616,72,64,0,2,7,16,12.mid,experiment,1
71,156,33981,84,64,0,2,7,16,12.mid,experiment,1
72,158,35039,84,64,0,2,7,16,12.mid,experiment,1
1,19,8159,79,64,0,2,8,3,8.mid,experiment,1
2,21,8489,78,64,0,2,8,3,8.mid,experiment,1
3,23,8724,79,64,0,2,8,3,8.mid,experiment,1
4,25,9033,76,64,0,2,8,3,8.mid,experiment,1
5,26,9117,72,64,0,2,8,3,8.mid,experiment,1
6,28,9849,67,64,0,2,8,3,8.mid,experiment,1
7,28,,67,,0,2,8,3,8.mid,experiment,1
8,28,,67,,0,2,8,3,8.mid,experiment,1
9,31,10443,79,64,0,2,8,3,8.mid,experiment,1
10,33,10753,78,64,0,2,8,3,8.mid,experiment,1
11,35,11008,79,64,0,2,8,3,8.mid,experiment,1
12,36,11227,76,64,0,2,8,3,8.mid,experiment,1
13,39,11553,72,64,0,2,8,3,8.mid,experiment,1
14,41,11860,76,64,0,2,8,3,8.mid,experiment,1
15,43,12078,79,64,0,2,8,3,8.mid,experiment,1
16,45,12455,84,64,0,2,8,3,8.mid,experiment,1
17,46,12577,83,64,0,2,8,3,8.mid,experiment,1
18,48,12675,81,64,0,2,8,3,8.mid,experiment,1
19,50,12953,81,64,0,2,8,3,8.mid,experiment,1
20,52,13239,81,64,0,2,8,3,8.mid,experiment,1
21,55,13799,83,64,0,2,8,3,8.mid,experiment,1
22,57,14049,81,64,0,2,8,3,8.mid,experiment,1
23,59,14379,84,64,0,2,8,3,8.mid,experiment,1
24,61,14599,81,64,0,2,8,3,8.mid,experiment,1
25,63,14923,78,64,0,2,8,3,8.mid,experiment,1
26,64,14983,79,64,0,2,8,3,8.mid,experiment,1
27,66,15461,79,64,0,2,8,3,8.mid,experiment,1
28,68,16321,79,64,0,2,8,3,8.mid,experiment,1
29,70,16913,77,64,0,2,8,3,8.mid,experiment,1
30,72,17187,77,64,0,2,8,3,8.mid,experiment,1
31,74,17475,76,64,0,2,8,3,8.mid,experiment,1
32,76,17757,76,64,0,2,8,3,8.mid,experiment,1
33,78,18592,74,64,0,2,8,3,8.mid,experiment,1
34,80,19647,79,64,0,2,8,3,8.mid,experiment,1
35,82,20249,77,64,0,2,8,3,8.mid,experiment,1
36,84,20387,76,64,0,2,8,3,8.mid,experiment,1
37,86,20627,76,64,0,2,8,3,8.mid,experiment,1
38,88,20899,76,64,0,2,8,3,8.mid,experiment,1
39,90,21173,76,64,0,2,8,3,8.mid,experiment,1
40,93,21747,81,64,0,2,8,3,8.mid,experiment,1
41,95,22008,77,64,0,2,8,3,8.mid,experiment,1
42,97,22261,76,64,0,2,8,3,8.mid,experiment,1
43,99,22567,74,64,0,2,8,3,8.mid,experiment,1
44,101,22837,76,64,0,2,8,3,8.mid,experiment,1
45,103,23181,79,64,0,2,8,3,8.mid,experiment,1
46,104,23361,74,64,0,2,8,3,8.mid,experiment,1
47,107,23660,71,64,0,2,8,3,8.mid,experiment,1
48,108,23689,72,64,0,2,8,3,8.mid,experiment,1
49,110,23975,72,64,0,2,8,3,8.mid,experiment,1
50,112,24237,74,64,0,2,8,3,8.mid,experiment,1
51,114,24498,74,64,0,2,8,3,8.mid,experiment,1
52,116,25357,76,64,0,2,8,3,8.mid,experiment,1
53,118,25883,65,64,0,2,8,3,8.mid,experiment,1
54,120,26156,65,64,0,2,8,3,8.mid,experiment,1
55,122,26463,64,64,0,2,8,3,8.mid,experiment,1
56,124,26711,64,64,0,2,8,3,8.mid,experiment,1
57,126,27619,62,64,0,2,8,3,8.mid,experiment,1
58,128,28383,67,64,0,2,8,3,8.mid,experiment,1
59,128,,67,,0,2,8,3,8.mid,experiment,1
60,130,28659,71,64,0,2,8,3,8.mid,experiment,1
61,132,28917,71,64,0,2,8,3,8.mid,experiment,1
62,134,29199,72,64,0,2,8,3,8.mid,experiment,1
63,136,29451,72,64,0,2,8,3,8.mid,experiment,1
64,138,29726,73,64,0,2,8,3,8.mid,experiment,1
65,140,30004,73,64,0,2,8,3,8.mid,experiment,1
66,143,30888,74,64,0,2,8,3,8.mid,experiment,1
67,145,31446,77,64,0,2,8,3,8.mid,experiment,1
68,147,31979,76,64,0,2,8,3,8.mid,experiment,1
69,149,32518,74,64,0,2,8,3,8.mid,experiment,1
70,150,33055,72,64,0,2,8,3,8.mid,experiment,1
71,152,33434,84,64,0,2,8,3,8.mid,experiment,1
72,154,34527,84,64,0,2,8,3,8.mid,experiment,1
1,19,8196,79,64,0,2,8,4,14.mid,experiment,1
2,21,8533,78,64,0,2,8,4,14.mid,experiment,1
3,23,8757,79,64,0,2,8,4,14.mid,experiment,1
4,25,9035,76,64,0,2,8,4,14.mid,experiment,1
5,26,9229,72,64,0,2,8,4,14.mid,experiment,1
6,28,9343,67,64,0,2,8,4,14.mid,experiment,1
7,30,9611,67,64,0,2,8,4,14.mid,experiment,1
8,32,9896,67,64,0,2,8,4,14.mid,experiment,1
9,35,10511,79,64,0,2,8,4,14.mid,experiment,1
10,37,10838,78,64,0,2,8,4,14.mid,experiment,1
11,39,11101,79,64,0,2,8,4,14.mid,experiment,1
12,40,11305,76,64,0,2,8,4,14.mid,experiment,1
13,43,11638,72,64,0,2,8,4,14.mid,experiment,1
14,45,11924,76,64,0,2,8,4,14.mid,experiment,1
15,47,12170,79,64,0,2,8,4,14.mid,experiment,1
16,49,12611,84,64,0,2,8,4,14.mid,experiment,1
17,50,12723,83,64,0,2,8,4,14.mid,experiment,1
18,52,12783,81,64,0,2,8,4,14.mid,experiment,1
19,54,13101,81,64,0,2,8,4,14.mid,experiment,1
20,56,13375,81,64,0,2,8,4,14.mid,experiment,1
21,59,13976,83,64,0,2,8,4,14.mid,experiment,1
22,61,14205,81,64,0,2,8,4,14.mid,experiment,1
23,63,14588,84,64,0,2,8,4,14.mid,experiment,1
24,64,14755,81,64,0,2,8,4,14.mid,experiment,1
25,67,15103,78,64,0,2,8,4,14.mid,experiment,1
26,68,15199,79,64,0,2,8,4,14.mid,experiment,1
27,70,15751,79,64,0,2,8,4,14.mid,experiment,1
28,72,16538,79,64,0,2,8,4,14.mid,experiment,1
29,74,17215,77,64,0,2,8,4,14.mid,experiment,1
30,76,17519,77,64,0,2,8,4,14.mid,experiment,1
31,78,17816,76,64,0,2,8,4,14.mid,experiment,1
32,80,18093,76,64,0,2,8,4,14.mid,experiment,1
33,80,,74,,0,2,8,4,14.mid,experiment,1
34,83,20002,79,64,0,2,8,4,14.mid,experiment,1
35,84,20547,77,64,0,2,8,4,14.mid,experiment,1
36,86,20619,76,64,0,2,8,4,14.mid,experiment,1
37,88,20882,76,64,0,2,8,4,14.mid,experiment,1
38,90,21162,76,64,0,2,8,4,14.mid,experiment,1
39,92,21427,76,64,0,2,8,4,14.mid,experiment,1
40,95,22080,81,64,0,2,8,4,14.mid,experiment,1
41,97,22319,77,64,0,2,8,4,14.mid,experiment,1
42,99,22559,76,64,0,2,8,4,14.mid,experiment,1
43,101,22885,74,64,0,2,8,4,14.mid,experiment,1
44,103,23129,76,64,0,2,8,4,14.mid,experiment,1
45,105,23477,79,64,0,2,8,4,14.mid,experiment,1
46,106,23666,74,64,0,2,8,4,14.mid,experiment,1
47,109,24004,71,64,0,2,8,4,14.mid,experiment,1
48,110,24034,72,64,0,2,8,4,14.mid,experiment,1
49,112,24313,72,64,0,2,8,4,14.mid,experiment,1
50,114,24609,74,64,0,2,8,4,14.mid,experiment,1
51,116,24920,74,64,0,2,8,4,14.mid,experiment,1
52,118,25757,76,64,0,2,8,4,14.mid,experiment,1
53,120,26345,65,64,0,2,8,4,14.mid,experiment,1
54,122,26631,65,64,0,2,8,4,14.mid,experiment,1
55,124,26911,64,64,0,2,8,4,14.mid,experiment,1
56,126,27187,64,64,0,2,8,4,14.mid,experiment,1
57,128,28070,62,64,0,2,8,4,14.mid,experiment,1
58,130,28716,67,64,0,2,8,4,14.mid,experiment,1
59,132,28995,67,64,0,2,8,4,14.mid,experiment,1
60,134,29545,71,64,0,2,8,4,14.mid,experiment,1
61,134,,71,,0,2,8,4,14.mid,experiment,1
62,136,29819,72,64,0,2,8,4,14.mid,experiment,1
63,138,30093,72,64,0,2,8,4,14.mid,experiment,1
64,140,30369,73,64,0,2,8,4,14.mid,experiment,1
65,142,30629,73,64,0,2,8,4,14.mid,experiment,1
66,144,31343,74,64,0,2,8,4,14.mid,experiment,1
67,146,31949,77,64,0,2,8,4,14.mid,experiment,1
68,148,32524,76,64,0,2,8,4,14.mid,experiment,1
69,150,33085,74,64,0,2,8,4,14.mid,experiment,1
70,152,33683,72,64,0,2,8,4,14.mid,experiment,1
71,154,34280,84,64,0,2,8,4,14.mid,experiment,1
72,156,35121,84,64,0,2,8,4,14.mid,experiment,1
1,19,8230,79,64,0,2,8,9,3.mid,experiment,1
2,21,8542,78,64,0,2,8,9,3.mid,experiment,1
3,23,8793,79,64,0,2,8,9,3.mid,experiment,1
4,25,9087,76,64,0,2,8,9,3.mid,experiment,1
5,26,9227,72,64,0,2,8,9,3.mid,experiment,1
6,28,9458,67,64,0,2,8,9,3.mid,experiment,1
7,30,9727,67,64,0,2,8,9,3.mid,experiment,1
8,32,9997,67,64,0,2,8,9,3.mid,experiment,1
9,35,10637,79,64,0,2,8,9,3.mid,experiment,1
10,37,10945,78,64,0,2,8,9,3.mid,experiment,1
11,39,11211,79,64,0,2,8,9,3.mid,experiment,1
12,40,11408,76,64,0,2,8,9,3.mid,experiment,1
13,43,11755,72,64,0,2,8,9,3.mid,experiment,1
14,45,12051,76,64,0,2,8,9,3.mid,experiment,1
15,47,12277,79,64,0,2,8,9,3.mid,experiment,1
16,49,12687,84,64,0,2,8,9,3.mid,experiment,1
17,50,12758,83,64,0,2,8,9,3.mid,experiment,1
18,52,13219,81,64,0,2,8,9,3.mid,experiment,1
19,54,13485,81,64,0,2,8,9,3.mid,experiment,1
20,54,,81,,0,2,8,9,3.mid,experiment,1
21,57,14079,83,64,0,2,8,9,3.mid,experiment,1
22,59,14335,81,64,0,2,8,9,3.mid,experiment,1
23,61,14709,84,64,0,2,8,9,3.mid,experiment,1
24,62,14895,81,64,0,2,8,9,3.mid,experiment,1
25,65,15233,78,64,0,2,8,9,3.mid,experiment,1
26,66,15339,79,64,0,2,8,9,3.mid,experiment,1
27,68,15909,79,64,0,2,8,9,3.mid,experiment,1
28,70,16665,79,64,0,2,8,9,3.mid,experiment,1
29,72,17345,77,64,0,2,8,9,3.mid,experiment,1
30,74,17591,77,64,0,2,8,9,3.mid,experiment,1
31,76,17891,76,64,0,2,8,9,3.mid,experiment,1
32,78,18175,76,64,0,2,8,9,3.mid,experiment,1
33,80,19117,74,64,0,2,8,9,3.mid,experiment,1
34,82,20239,79,64,0,2,8,9,3.mid,experiment,1
35,84,20831,77,64,0,2,8,9,3.mid,experiment,1
36,86,20909,76,64,0,2,8,9,3.mid,experiment,1
37,88,21177,76,64,0,2,8,9,3.mid,experiment,1
38,90,21488,76,64,0,2,8,9,3.mid,experiment,1
39,92,21775,76,64,0,2,8,9,3.mid,experiment,1
40,95,22367,81,64,0,2,8,9,3.mid,experiment,1
41,97,22669,77,64,0,2,8,9,3.mid,experiment,1
42,99,22909,76,64,0,2,8,9,3.mid,experiment,1
43,101,23253,74,64,0,2,8,9,3.mid,experiment,1
44,103,23493,76,64,0,2,8,9,3.mid,experiment,1
45,105,23861,79,64,0,2,8,9,3.mid,experiment,1
46,106,24034,74,64,0,2,8,9,3.mid,experiment,1
47,109,24344,71,64,0,2,8,9,3.mid,experiment,1
48,110,24384,72,64,0,2,8,9,3.mid,experiment,1
49,112,24671,72,64,0,2,8,9,3.mid,experiment,1
50,114,24968,74,64,0,2,8,9,3.mid,experiment,1
51,116,25265,74,64,0,2,8,9,3.mid,experiment,1
52,118,26205,76,64,0,2,8,9,3.mid,experiment,1
53,120,26795,65,64,0,2,8,9,3.mid,experiment,1
54,122,27073,65,64,0,2,8,9,3.mid,experiment,1
55,124,27367,64,64,0,2,8,9,3.mid,experiment,1
56,126,27675,64,64,0,2,8,9,3.mid,experiment,1
57,128,28651,62,64,0,2,8,9,3.mid,experiment,1
58,130,29225,67,64,0,2,8,9,3.mid,experiment,1
59,132,29531,67,64,0,2,8,9,3.mid,experiment,1
60,134,30077,71,64,0,2,8,9,3.mid,experiment,1
61,134,,71,,0,2,8,9,3.mid,experiment,1
62,136,30349,72,64,0,2,8,9,3.mid,experiment,1
63,138,30627,72,64,0,2,8,9,3.mid,experiment,1
64,140,30937,73,64,0,2,8,9,3.mid,experiment,1
65,142,31199,73,64,0,2,8,9,3.mid,experiment,1
66,145,32081,74,64,0,2,8,9,3.mid,experiment,1
67,147,32687,77,64,0,2,8,9,3.mid,experiment,1
68,149,33315,76,64,0,2,8,9,3.mid,experiment,1
69,151,33840,74,64,0,2,8,9,3.mid,experiment,1
70,153,34425,72,64,0,2,8,9,3.mid,experiment,1
71,154,34889,84,64,0,2,8,9,3.mid,experiment,1
72,156,35775,84,64,0,2,8,9,3.mid,experiment,1
1,19,8208,79,64,0,2,8,11,15.mid,experiment,1
2,21,8614,78,64,0,2,8,11,15.mid,experiment,1
3,23,8764,79,64,0,2,8,11,15.mid,experiment,1
4,25,9075,76,64,0,2,8,11,15.mid,experiment,1
5,26,9290,72,64,0,2,8,11,15.mid,experiment,1
6,28,9366,67,64,0,2,8,11,15.mid,experiment,1
7,30,9643,67,64,0,2,8,11,15.mid,experiment,1
8,30,,67,,0,2,8,11,15.mid,experiment,1
9,33,10541,79,64,0,2,8,11,15.mid,experiment,1
10,35,10847,78,64,0,2,8,11,15.mid,experiment,1
11,37,11139,79,64,0,2,8,11,15.mid,experiment,1
12,38,11332,76,64,0,2,8,11,15.mid,experiment,1
13,41,11664,72,64,0,2,8,11,15.mid,experiment,1
14,43,11957,76,64,0,2,8,11,15.mid,experiment,1
15,44,12177,79,64,0,2,8,11,15.mid,experiment,1
16,47,12625,84,64,0,2,8,11,15.mid,experiment,1
17,48,12784,83,64,0,2,8,11,15.mid,experiment,1
18,50,12844,81,64,0,2,8,11,15.mid,experiment,1
19,52,13145,81,64,0,2,8,11,15.mid,experiment,1
20,54,13422,81,64,0,2,8,11,15.mid,experiment,1
21,57,14053,83,64,0,2,8,11,15.mid,experiment,1
22,59,14264,81,64,0,2,8,11,15.mid,experiment,1
23,61,14620,84,64,0,2,8,11,15.mid,experiment,1
24,63,14832,81,64,0,2,8,11,15.mid,experiment,1
25,65,15160,78,64,0,2,8,11,15.mid,experiment,1
26,66,15294,79,64,0,2,8,11,15.mid,experiment,1
27,68,15845,79,64,0,2,8,11,15.mid,experiment,1
28,70,16648,79,64,0,2,8,11,15.mid,experiment,1
29,72,17322,77,64,0,2,8,11,15.mid,experiment,1
30,74,17599,77,64,0,2,8,11,15.mid,experiment,1
31,76,17879,76,64,0,2,8,11,15.mid,experiment,1
32,78,18160,76,64,0,2,8,11,15.mid,experiment,1
33,80,18979,74,64,0,2,8,11,15.mid,experiment,1
34,82,20253,79,64,0,2,8,11,15.mid,experiment,1
35,84,20815,77,64,0,2,8,11,15.mid,experiment,1
36,86,20927,76,64,0,2,8,11,15.mid,experiment,1
37,88,21201,76,64,0,2,8,11,15.mid,experiment,1
38,90,21490,76,64,0,2,8,11,15.mid,experiment,1
39,92,21754,76,64,0,2,8,11,15.mid,experiment,1
40,95,22345,81,64,0,2,8,11,15.mid,experiment,1
41,97,22682,77,64,0,2,8,11,15.mid,experiment,1
42,99,22913,76,64,0,2,8,11,15.mid,experiment,1
43,101,23261,74,64,0,2,8,11,15.mid,experiment,1
44,103,23496,76,64,0,2,8,11,15.mid,experiment,1
45,105,23850,79,64,0,2,8,11,15.mid,experiment,1
46,107,24059,74,64,0,2,8,11,15.mid,experiment,1
47,108,24349,71,64,0,2,8,11,15.mid,experiment,1
48,110,24392,72,64,0,2,8,11,15.mid,experiment,1
49,112,24692,72,64,0,2,8,11,15.mid,experiment,1
50,114,24973,74,64,0,2,8,11,15.mid,experiment,1
51,116,25276,74,64,0,2,8,11,15.mid,experiment,1
52,118,26231,76,64,0,2,8,11,15.mid,experiment,1
53,120,26826,65,64,0,2,8,11,15.mid,experiment,1
54,122,27110,65,64,0,2,8,11,15.mid,experiment,1
55,124,27394,64,64,0,2,8,11,15.mid,experiment,1
56,126,27675,64,64,0,2,8,11,15.mid,experiment,1
57,128,28576,62,64,0,2,8,11,15.mid,experiment,1
58,130,29232,67,64,0,2,8,11,15.mid,experiment,1
59,132,29481,67,64,0,2,8,11,15.mid,experiment,1
60,134,29774,71,64,0,2,8,11,15.mid,experiment,1
61,136,30067,71,64,0,2,8,11,15.mid,experiment,1
62,138,30355,72,64,0,2,8,11,15.mid,experiment,1
63,140,30639,72,64,0,2,8,11,15.mid,experiment,1
64,142,30946,73,64,0,2,8,11,15.mid,experiment,1
65,144,31234,73,64,0,2,8,11,15.mid,experiment,1
66,147,32129,74,64,0,2,8,11,15.mid,experiment,1
67,148,32606,77,64,0,2,8,11,15.mid,experiment,1
68,150,33198,76,64,0,2,8,11,15.mid,experiment,1
69,152,33763,74,64,0,2,8,11,15.mid,experiment,1
70,154,34433,72,64,0,2,8,11,15.mid,experiment,1
71,156,35024,84,64,0,2,8,11,15.mid,experiment,1
72,158,36088,84,64,0,2,8,11,15.mid,experiment,1
1,19,8209,79,64,0,2,8,12,2.mid,experiment,1
2,21,8511,78,64,0,2,8,12,2.mid,experiment,1
3,23,8773,79,64,0,2,8,12,2.mid,experiment,1
4,25,9102,76,64,0,2,8,12,2.mid,experiment,1
5,26,9254,72,64,0,2,8,12,2.mid,experiment,1
6,28,9385,67,64,0,2,8,12,2.mid,experiment,1
7,30,9664,67,64,0,2,8,12,2.mid,experiment,1
8,32,9943,67,64,0,2,8,12,2.mid,experiment,1
9,35,10584,79,64,0,2,8,12,2.mid,experiment,1
10,37,10999,78,64,0,2,8,12,2.mid,experiment,1
11,39,11152,79,64,0,2,8,12,2.mid,experiment,1
12,40,11372,76,64,0,2,8,12,2.mid,experiment,1
13,43,11693,72,64,0,2,8,12,2.mid,experiment,1
14,45,12006,76,64,0,2,8,12,2.mid,experiment,1
15,47,12231,79,64,0,2,8,12,2.mid,experiment,1
16,49,12600,84,64,0,2,8,12,2.mid,experiment,1
17,50,12754,83,64,0,2,8,12,2.mid,experiment,1
18,52,12869,81,64,0,2,8,12,2.mid,experiment,1
19,54,13180,81,64,0,2,8,12,2.mid,experiment,1
20,56,13497,81,64,0,2,8,12,2.mid,experiment,1
21,59,14081,83,64,0,2,8,12,2.mid,experiment,1
22,61,14313,81,64,0,2,8,12,2.mid,experiment,1
23,63,14697,84,64,0,2,8,12,2.mid,experiment,1
24,65,14895,81,64,0,2,8,12,2.mid,experiment,1
25,67,15246,78,64,0,2,8,12,2.mid,experiment,1
26,68,15330,79,64,0,2,8,12,2.mid,experiment,1
27,70,15998,79,64,0,2,8,12,2.mid,experiment,1
28,72,16771,79,64,0,2,8,12,2.mid,experiment,1
29,74,17713,77,64,0,2,8,12,2.mid,experiment,1
30,74,,77,,0,2,8,12,2.mid,experiment,1
31,76,17972,76,64,0,2,8,12,2.mid,experiment,1
32,78,18200,76,64,0,2,8,12,2.mid,experiment,1
33,80,19100,74,64,0,2,8,12,2.mid,experiment,1
34,82,20104,79,64,0,2,8,12,2.mid,experiment,1
35,84,20678,77,64,0,2,8,12,2.mid,experiment,1
36,86,20872,76,64,0,2,8,12,2.mid,experiment,1
37,88,21143,76,64,0,2,8,12,2.mid,experiment,1
38,90,21423,76,64,0,2,8,12,2.mid,experiment,1
39,92,21705,76,64,0,2,8,12,2.mid,experiment,1
40,95,22339,81,64,0,2,8,12,2.mid,experiment,1
41,97,22613,77,64,0,2,8,12,2.mid,experiment,1
42,99,22864,76,64,0,2,8,12,2.mid,experiment,1
43,101,23189,74,64,0,2,8,12,2.mid,experiment,1
44,103,23444,76,64,0,2,8,12,2.mid,experiment,1
45,105,23807,79,64,0,2,8,12,2.mid,experiment,1
46,106,23992,74,64,0,2,8,12,2.mid,experiment,1
47,109,24320,71,64,0,2,8,12,2.mid,experiment,1
48,110,24342,72,64,0,2,8,12,2.mid,experiment,1
49,112,24620,72,64,0,2,8,12,2.mid,experiment,1
50,114,24910,74,64,0,2,8,12,2.mid,experiment,1
51,116,25196,74,64,0,2,8,12,2.mid,experiment,1
52,118,26052,76,64,0,2,8,12,2.mid,experiment,1
53,120,26639,65,64,0,2,8,12,2.mid,experiment,1
54,122,26917,65,64,0,2,8,12,2.mid,experiment,1
55,124,27499,64,64,0,2,8,12,2.mid,experiment,1
56,124,,64,,0,2,8,12,2.mid,experiment,1
57,126,28400,62,64,0,2,8,12,2.mid,experiment,1
58,128,29031,67,64,0,2,8,12,2.mid,experiment,1
59,130,29259,67,64,0,2,8,12,2.mid,experiment,1
60,132,29550,71,64,0,2,8,12,2.mid,experiment,1
61,134,29861,71,64,0,2,8,12,2.mid,experiment,1
62,136,30124,72,64,0,2,8,12,2.mid,experiment,1
63,138,30402,72,64,0,2,8,12,2.mid,experiment,1
64,140,30694,73,64,0,2,8,12,2.mid,experiment,1
65,142,30972,73,64,0,2,8,12,2.mid,experiment,1
66,145,31903,74,64,0,2,8,12,2.mid,experiment,1
67,146,32339,77,64,0,2,8,12,2.mid,experiment,1
68,148,32891,76,64,0,2,8,12,2.mid,experiment,1
69,150,33434,74,64,0,2,8,12,2.mid,experiment,1
70,152,34105,72,64,0,2,8,12,2.mid,experiment,1
71,154,34620,84,64,0,2,8,12,2.mid,experiment,1
72,156,35606,84,64,0,2,8,12,2.mid,experiment,1
1,19,8162,79,64,0,2,8,16,1.mid,experiment,1
2,21,8499,78,64,0,2,8,16,1.mid,experiment,1
3,23,8706,79,64,0,2,8,16,1.mid,experiment,1
4,25,9027,76,64,0,2,8,16,1.mid,experiment,1
5,26,9166,72,64,0,2,8,16,1.mid,experiment,1
6,28,9332,67,64,0,2,8,16,1.mid,experiment,1
7,30,9650,67,64,0,2,8,16,1.mid,experiment,1
8,32,9915,67,64,0,2,8,16,1.mid,experiment,1
9,35,10496,79,64,0,2,8,16,1.mid,experiment,1
10,37,10862,78,64,0,2,8,16,1.mid,experiment,1
11,39,11061,79,64,0,2,8,16,1.mid,experiment,1
12,40,11311,76,64,0,2,8,16,1.mid,experiment,1
13,43,11625,72,64,0,2,8,16,1.mid,experiment,1
14,45,11959,76,64,0,2,8,16,1.mid,experiment,1
15,47,12183,79,64,0,2,8,16,1.mid,experiment,1
16,49,12532,84,64,0,2,8,16,1.mid,experiment,1
17,50,12678,83,64,0,2,8,16,1.mid,experiment,1
18,52,12826,81,64,0,2,8,16,1.mid,experiment,1
19,54,13104,81,64,0,2,8,16,1.mid,experiment,1
20,56,13394,81,64,0,2,8,16,1.mid,experiment,1
21,59,13980,83,64,0,2,8,16,1.mid,experiment,1
22,61,14253,81,64,0,2,8,16,1.mid,experiment,1
23,63,14572,84,64,0,2,8,16,1.mid,experiment,1
24,65,14855,81,64,0,2,8,16,1.mid,experiment,1
25,67,15141,78,64,0,2,8,16,1.mid,experiment,1
26,68,15305,79,64,0,2,8,16,1.mid,experiment,1
27,70,15944,79,64,0,2,8,16,1.mid,experiment,1
28,72,16769,79,64,0,2,8,16,1.mid,experiment,1
29,74,17352,77,64,0,2,8,16,1.mid,experiment,1
30,76,17627,77,64,0,2,8,16,1.mid,experiment,1
31,78,18168,76,64,0,2,8,16,1.mid,experiment,1
32,78,,76,,0,2,8,16,1.mid,experiment,1
33,80,19122,74,64,0,2,8,16,1.mid,experiment,1
34,82,20071,79,64,0,2,8,16,1.mid,experiment,1
35,84,20656,77,64,0,2,8,16,1.mid,experiment,1
36,86,20823,76,64,0,2,8,16,1.mid,experiment,1
37,88,21110,76,64,0,2,8,16,1.mid,experiment,1
38,90,21396,76,64,0,2,8,16,1.mid,experiment,1
39,92,21687,76,64,0,2,8,16,1.mid,experiment,1
40,95,22296,81,64,0,2,8,16,1.mid,experiment,1
41,97,22589,77,64,0,2,8,16,1.mid,experiment,1
42,99,22828,76,64,0,2,8,16,1.mid,experiment,1
43,101,23156,74,64,0,2,8,16,1.mid,experiment,1
44,103,23422,76,64,0,2,8,16,1.mid,experiment,1
45,105,23778,79,64,0,2,8,16,1.mid,experiment,1
46,106,23951,74,64,0,2,8,16,1.mid,experiment,1
47,109,24272,71,64,0,2,8,16,1.mid,experiment,1
48,110,24288,72,64,0,2,8,16,1.mid,experiment,1
49,112,24562,72,64,0,2,8,16,1.mid,experiment,1
50,114,24840,74,64,0,2,8,16,1.mid,experiment,1
51,116,25143,74,64,0,2,8,16,1.mid,experiment,1
52,118,26065,76,64,0,2,8,16,1.mid,experiment,1
53,120,26635,65,64,0,2,8,16,1.mid,experiment,1
54,122,26920,65,64,0,2,8,16,1.mid,experiment,1
55,124,27194,64,64,0,2,8,16,1.mid,experiment,1
56,126,27469,64,64,0,2,8,16,1.mid,experiment,1
57,128,28441,62,64,0,2,8,16,1.mid,experiment,1
58,130,29078,67,64,0,2,8,16,1.mid,experiment,1
59,132,29348,67,64,0,2,8,16,1.mid,experiment,1
60,134,29657,71,64,0,2,8,16,1.mid,experiment,1
61,136,29926,71,64,0,2,8,16,1.mid,experiment,1
62,138,30218,72,64,0,2,8,16,1.mid,experiment,1
63,140,30498,72,64,0,2,8,16,1.mid,experiment,1
64,142,30790,73,64,0,2,8,16,1.mid,experiment,1
65,144,31064,73,64,0,2,8,16,1.mid,experiment,1
66,146,31922,74,64,0,2,8,16,1.mid,experiment,1
67,148,32501,77,64,0,2,8,16,1.mid,experiment,1
68,150,33080,76,64,0,2,8,16,1.mid,experiment,1
69,152,33654,74,64,0,2,8,16,1.mid,experiment,1
70,154,34182,72,64,0,2,8,16,1.mid,experiment,1
71,156,34771,84,64,0,2,8,16,1.mid,experiment,1
72,158,35897,84,64,0,2,8,16,1.mid,experiment,1
1,19,8178,79,64,0,2,9,2,9.mid,experiment,1
2,21,8442,78,64,0,2,9,2,9.mid,experiment,1
3,23,8731,79,64,0,2,9,2,9.mid,experiment,1
4,25,8973,76,64,0,2,9,2,9.mid,experiment,1
5,26,9051,72,64,0,2,9,2,9.mid,experiment,1
6,28,9285,67,64,0,2,9,2,9.mid,experiment,1
7,30,9566,67,64,0,2,9,2,9.mid,experiment,1
8,32,9836,67,64,0,2,9,2,9.mid,experiment,1
9,35,10452,79,64,0,2,9,2,9.mid,experiment,1
10,37,10697,78,64,0,2,9,2,9.mid,experiment,1
11,39,10975,79,64,0,2,9,2,9.mid,experiment,1
12,41,11257,76,64,0,2,9,2,9.mid,experiment,1
13,43,11460,72,64,0,2,9,2,9.mid,experiment,1
14,45,11756,76,64,0,2,9,2,9.mid,experiment,1
15,47,12020,79,64,0,2,9,2,9.mid,experiment,1
16,49,12286,84,64,0,2,9,2,9.mid,experiment,1
17,50,12349,83,64,0,2,9,2,9.mid,experiment,1
18,52,12606,81,64,0,2,9,2,9.mid,experiment,1
19,54,12871,81,64,0,2,9,2,9.mid,experiment,1
20,56,13122,81,64,0,2,9,2,9.mid,experiment,1
21,59,13687,83,64,0,2,9,2,9.mid,experiment,1
22,61,13917,81,64,0,2,9,2,9.mid,experiment,1
23,63,14195,84,64,0,2,9,2,9.mid,experiment,1
24,65,14476,81,64,0,2,9,2,9.mid,experiment,1
25,67,14704,78,64,0,2,9,2,9.mid,experiment,1
26,68,14766,79,64,0,2,9,2,9.mid,experiment,1
27,70,15128,79,64,0,2,9,2,9.mid,experiment,1
28,72,15733,79,64,0,2,9,2,9.mid,experiment,1
29,74,16758,77,64,0,2,9,2,9.mid,experiment,1
30,76,17029,77,64,0,2,9,2,9.mid,experiment,1
31,78,17256,76,64,0,2,9,2,9.mid,experiment,1
32,80,17520,76,64,0,2,9,2,9.mid,experiment,1
33,82,18101,74,64,0,2,9,2,9.mid,experiment,1
34,84,19104,79,64,0,2,9,2,9.mid,experiment,1
35,86,19634,77,64,0,2,9,2,9.mid,experiment,1
36,88,20032,76,64,0,2,9,2,9.mid,experiment,1
37,90,20304,76,64,0,2,9,2,9.mid,experiment,1
38,92,20546,76,64,0,2,9,2,9.mid,experiment,1
39,94,20813,76,64,0,2,9,2,9.mid,experiment,1
40,97,21319,81,64,0,2,9,2,9.mid,experiment,1
41,99,21625,77,64,0,2,9,2,9.mid,experiment,1
42,101,21831,76,64,0,2,9,2,9.mid,experiment,1
43,103,22123,74,64,0,2,9,2,9.mid,experiment,1
44,105,22319,76,64,0,2,9,2,9.mid,experiment,1
45,107,22581,79,64,0,2,9,2,9.mid,experiment,1
46,109,22812,74,64,0,2,9,2,9.mid,experiment,1
47,110,22863,71,64,0,2,9,2,9.mid,experiment,1
48,112,23125,72,64,0,2,9,2,9.mid,experiment,1
49,114,23365,72,64,0,2,9,2,9.mid,experiment,1
50,116,23595,74,64,0,2,9,2,9.mid,experiment,1
51,118,23853,74,64,0,2,9,2,9.mid,experiment,1
52,120,24181,76,64,0,2,9,2,9.mid,experiment,1
53,122,25155,65,64,0,2,9,2,9.mid,experiment,1
54,124,25436,65,64,0,2,9,2,9.mid,experiment,1
55,126,25710,64,64,0,2,9,2,9.mid,experiment,1
56,126,,64,,0,2,9,2,9.mid,experiment,1
57,128,26292,62,64,0,2,9,2,9.mid,experiment,1
58,130,27246,67,64,0,2,9,2,9.mid,experiment,1
59,132,27508,67,64,0,2,9,2,9.mid,experiment,1
60,134,28009,71,64,0,2,9,2,9.mid,experiment,1
61,134,,71,,0,2,9,2,9.mid,experiment,1
62,136,28267,72,64,0,2,9,2,9.mid,experiment,1
63,138,28501,72,64,0,2,9,2,9.mid,experiment,1
64,140,28767,73,64,0,2,9,2,9.mid,experiment,1
65,142,29014,73,64,0,2,9,2,9.mid,experiment,1
66,144,29484,74,64,0,2,9,2,9.mid,experiment,1
67,146,29970,77,64,0,2,9,2,9.mid,experiment,1
68,148,30421,76,64,0,2,9,2,9.mid,experiment,1
69,150,30924,74,64,0,2,9,2,9.mid,experiment,1
70,152,31474,72,64,0,2,9,2,9.mid,experiment,1
71,154,31989,84,64,0,2,9,2,9.mid,experiment,1
72,156,32759,84,64,0,2,9,2,9.mid,experiment,1
1,19,8142,79,64,0,2,9,7,5.mid,experiment,1
2,21,8396,78,64,0,2,9,7,5.mid,experiment,1
3,23,8656,79,64,0,2,9,7,5.mid,experiment,1
4,25,8908,76,64,0,2,9,7,5.mid,experiment,1
5,26,8964,72,64,0,2,9,7,5.mid,experiment,1
6,28,9195,67,64,0,2,9,7,5.mid,experiment,1
7,30,9457,67,64,0,2,9,7,5.mid,experiment,1
8,32,9697,67,64,0,2,9,7,5.mid,experiment,1
9,35,10250,79,64,0,2,9,7,5.mid,experiment,1
10,37,10489,78,64,0,2,9,7,5.mid,experiment,1
11,39,10741,79,64,0,2,9,7,5.mid,experiment,1
12,41,11007,76,64,0,2,9,7,5.mid,experiment,1
13,43,11211,72,64,0,2,9,7,5.mid,experiment,1
14,45,11514,76,64,0,2,9,7,5.mid,experiment,1
15,47,11764,79,64,0,2,9,7,5.mid,experiment,1
16,49,12031,84,64,0,2,9,7,5.mid,experiment,1
17,50,12109,83,64,0,2,9,7,5.mid,experiment,1
18,52,12299,81,64,0,2,9,7,5.mid,experiment,1
19,54,12537,81,64,0,2,9,7,5.mid,experiment,1
20,56,12766,81,64,0,2,9,7,5.mid,experiment,1
21,59,13280,83,64,0,2,9,7,5.mid,experiment,1
22,61,13521,81,64,0,2,9,7,5.mid,experiment,1
23,63,13771,84,64,0,2,9,7,5.mid,experiment,1
24,65,14059,81,64,0,2,9,7,5.mid,experiment,1
25,67,14270,78,64,0,2,9,7,5.mid,experiment,1
26,68,14326,79,64,0,2,9,7,5.mid,experiment,1
27,70,14616,79,64,0,2,9,7,5.mid,experiment,1
28,72,15238,79,64,0,2,9,7,5.mid,experiment,1
29,74,16143,77,64,0,2,9,7,5.mid,experiment,1
30,76,16395,77,64,0,2,9,7,5.mid,experiment,1
31,78,16625,76,64,0,2,9,7,5.mid,experiment,1
32,80,16888,76,64,0,2,9,7,5.mid,experiment,1
33,82,17492,74,64,0,2,9,7,5.mid,experiment,1
34,84,18373,79,64,0,2,9,7,5.mid,experiment,1
35,86,18882,77,64,0,2,9,7,5.mid,experiment,1
36,88,19276,76,64,0,2,9,7,5.mid,experiment,1
37,90,19546,76,64,0,2,9,7,5.mid,experiment,1
38,92,19773,76,64,0,2,9,7,5.mid,experiment,1
39,94,20041,76,64,0,2,9,7,5.mid,experiment,1
40,97,20520,81,64,0,2,9,7,5.mid,experiment,1
41,99,20796,77,64,0,2,9,7,5.mid,experiment,1
42,101,21001,76,64,0,2,9,7,5.mid,experiment,1
43,103,21284,74,64,0,2,9,7,5.mid,experiment,1
44,105,21482,76,64,0,2,9,7,5.mid,experiment,1
45,107,21746,79,64,0,2,9,7,5.mid,experiment,1
46,109,21971,74,64,0,2,9,7,5.mid,experiment,1
47,110,22109,71,64,0,2,9,7,5.mid,experiment,1
48,112,22338,72,64,0,2,9,7,5.mid,experiment,1
49,114,22601,72,64,0,2,9,7,5.mid,experiment,1
50,116,22823,74,64,0,2,9,7,5.mid,experiment,1
51,118,23101,74,64,0,2,9,7,5.mid,experiment,1
52,120,23490,76,64,0,2,9,7,5.mid,experiment,1
53,122,24400,65,64,0,2,9,7,5.mid,experiment,1
54,124,24673,65,64,0,2,9,7,5.mid,experiment,1
55,126,25168,64,64,0,2,9,7,5.mid,experiment,1
56,126,,64,,0,2,9,7,5.mid,experiment,1
57,128,25786,62,64,0,2,9,7,5.mid,experiment,1
58,130,26471,67,64,0,2,9,7,5.mid,experiment,1
59,132,26727,67,64,0,2,9,7,5.mid,experiment,1
60,134,27223,71,64,0,2,9,7,5.mid,experiment,1
61,134,,71,,0,2,9,7,5.mid,experiment,1
62,136,27472,72,64,0,2,9,7,5.mid,experiment,1
63,138,27698,72,64,0,2,9,7,5.mid,experiment,1
64,140,27945,73,64,0,2,9,7,5.mid,experiment,1
65,142,28194,73,64,0,2,9,7,5.mid,experiment,1
66,144,28691,74,64,0,2,9,7,5.mid,experiment,1
67,146,29182,77,64,0,2,9,7,5.mid,experiment,1
68,148,29694,76,64,0,2,9,7,5.mid,experiment,1
69,150,30170,74,64,0,2,9,7,5.mid,experiment,1
70,152,30682,72,64,0,2,9,7,5.mid,experiment,1
71,154,31170,84,64,0,2,9,7,5.mid,experiment,1
72,156,31789,84,64,0,2,9,7,5.mid,experiment,1
1,19,8147,79,64,0,2,9,8,1.mid,experiment,1
2,21,8389,78,64,0,2,9,8,1.mid,experiment,1
3,23,8673,79,64,0,2,9,8,1.mid,experiment,1
4,25,8903,76,64,0,2,9,8,1.mid,experiment,1
5,26,8977,72,64,0,2,9,8,1.mid,experiment,1
6,28,9198,67,64,0,2,9,8,1.mid,experiment,1
7,30,9459,67,64,0,2,9,8,1.mid,experiment,1
8,32,9711,67,64,0,2,9,8,1.mid,experiment,1
9,35,10240,79,64,0,2,9,8,1.mid,experiment,1
10,37,10491,78,64,0,2,9,8,1.mid,experiment,1
11,39,10752,79,64,0,2,9,8,1.mid,experiment,1
12,41,11011,76,64,0,2,9,8,1.mid,experiment,1
13,43,11208,72,64,0,2,9,8,1.mid,experiment,1
14,45,11530,76,64,0,2,9,8,1.mid,experiment,1
15,47,11764,79,64,0,2,9,8,1.mid,experiment,1
16,49,12036,84,64,0,2,9,8,1.mid,experiment,1
17,50,12124,83,64,0,2,9,8,1.mid,experiment,1
18,52,12310,81,64,0,2,9,8,1.mid,experiment,1
19,54,12543,81,64,0,2,9,8,1.mid,experiment,1
20,56,12794,81,64,0,2,9,8,1.mid,experiment,1
21,59,13302,83,64,0,2,9,8,1.mid,experiment,1
22,61,13541,81,64,0,2,9,8,1.mid,experiment,1
23,63,13781,84,64,0,2,9,8,1.mid,experiment,1
24,65,14088,81,64,0,2,9,8,1.mid,experiment,1
25,67,14314,78,64,0,2,9,8,1.mid,experiment,1
26,68,14386,79,64,0,2,9,8,1.mid,experiment,1
27,70,14650,79,64,0,2,9,8,1.mid,experiment,1
28,72,15356,79,64,0,2,9,8,1.mid,experiment,1
29,74,16477,77,64,0,2,9,8,1.mid,experiment,1
30,74,,77,,0,2,9,8,1.mid,experiment,1
31,76,16719,76,64,0,2,9,8,1.mid,experiment,1
32,78,16975,76,64,0,2,9,8,1.mid,experiment,1
33,80,17523,74,64,0,2,9,8,1.mid,experiment,1
34,82,18408,79,64,0,2,9,8,1.mid,experiment,1
35,84,18905,77,64,0,2,9,8,1.mid,experiment,1
36,86,19326,76,64,0,2,9,8,1.mid,experiment,1
37,88,19568,76,64,0,2,9,8,1.mid,experiment,1
38,90,19810,76,64,0,2,9,8,1.mid,experiment,1
39,92,20058,76,64,0,2,9,8,1.mid,experiment,1
40,95,20542,81,64,0,2,9,8,1.mid,experiment,1
41,97,20832,77,64,0,2,9,8,1.mid,experiment,1
42,99,21030,76,64,0,2,9,8,1.mid,experiment,1
43,101,21341,74,64,0,2,9,8,1.mid,experiment,1
44,103,21531,76,64,0,2,9,8,1.mid,experiment,1
45,105,21805,79,64,0,2,9,8,1.mid,experiment,1
46,107,22047,74,64,0,2,9,8,1.mid,experiment,1
47,108,22151,71,64,0,2,9,8,1.mid,experiment,1
48,110,22357,72,64,0,2,9,8,1.mid,experiment,1
49,112,22595,72,64,0,2,9,8,1.mid,experiment,1
50,114,22818,74,64,0,2,9,8,1.mid,experiment,1
51,116,23068,74,64,0,2,9,8,1.mid,experiment,1
52,118,23646,76,64,0,2,9,8,1.mid,experiment,1
53,120,24402,65,64,0,2,9,8,1.mid,experiment,1
54,122,24650,65,64,0,2,9,8,1.mid,experiment,1
55,124,24896,64,64,0,2,9,8,1.mid,experiment,1
56,126,25143,64,64,0,2,9,8,1.mid,experiment,1
57,128,25752,62,64,0,2,9,8,1.mid,experiment,1
58,130,26428,67,64,0,2,9,8,1.mid,experiment,1
59,132,26684,67,64,0,2,9,8,1.mid,experiment,1
60,134,27181,71,64,0,2,9,8,1.mid,experiment,1
61,134,,71,,0,2,9,8,1.mid,experiment,1
62,136,27438,72,64,0,2,9,8,1.mid,experiment,1
63,138,27670,72,64,0,2,9,8,1.mid,experiment,1
64,140,27934,73,64,0,2,9,8,1.mid,experiment,1
65,142,28200,73,64,0,2,9,8,1.mid,experiment,1
66,144,28675,74,64,0,2,9,8,1.mid,experiment,1
67,146,29194,77,64,0,2,9,8,1.mid,experiment,1
68,148,29661,76,64,0,2,9,8,1.mid,experiment,1
69,150,30180,74,64,0,2,9,8,1.mid,experiment,1
70,152,30756,72,64,0,2,9,8,1.mid,experiment,1
71,154,31220,84,64,0,2,9,8,1.mid,experiment,1
72,156,31965,84,64,0,2,9,8,1.mid,experiment,1
1,19,8171,79,64,0,2,9,16,6.mid,experiment,1
2,21,8421,78,64,0,2,9,16,6.mid,experiment,1
3,23,8675,79,64,0,2,9,16,6.mid,experiment,1
4,25,8925,76,64,0,2,9,16,6.mid,experiment,1
5,26,8986,72,64,0,2,9,16,6.mid,experiment,1
6,28,9223,67,64,0,2,9,16,6.mid,experiment,1
7,30,9480,67,64,0,2,9,16,6.mid,experiment,1
8,32,9735,67,64,0,2,9,16,6.mid,experiment,1
9,35,10271,79,64,0,2,9,16,6.mid,experiment,1
10,37,10532,78,64,0,2,9,16,6.mid,experiment,1
11,39,10791,79,64,0,2,9,16,6.mid,experiment,1
12,41,11058,76,64,0,2,9,16,6.mid,experiment,1
13,43,11262,72,64,0,2,9,16,6.mid,experiment,1
14,45,11563,76,64,0,2,9,16,6.mid,experiment,1
15,47,11814,79,64,0,2,9,16,6.mid,experiment,1
16,49,12079,84,64,0,2,9,16,6.mid,experiment,1
17,50,12154,83,64,0,2,9,16,6.mid,experiment,1
18,52,12349,81,64,0,2,9,16,6.mid,experiment,1
19,54,12589,81,64,0,2,9,16,6.mid,experiment,1
20,56,12824,81,64,0,2,9,16,6.mid,experiment,1
21,59,13340,83,64,0,2,9,16,6.mid,experiment,1
22,61,13580,81,64,0,2,9,16,6.mid,experiment,1
23,63,13815,84,64,0,2,9,16,6.mid,experiment,1
24,65,14128,81,64,0,2,9,16,6.mid,experiment,1
25,67,14348,78,64,0,2,9,16,6.mid,experiment,1
26,68,14427,79,64,0,2,9,16,6.mid,experiment,1
27,70,14776,79,64,0,2,9,16,6.mid,experiment,1
28,72,15338,79,64,0,2,9,16,6.mid,experiment,1
29,74,16176,77,64,0,2,9,16,6.mid,experiment,1
30,76,16419,77,64,0,2,9,16,6.mid,experiment,1
31,78,16658,76,64,0,2,9,16,6.mid,experiment,1
32,80,16914,76,64,0,2,9,16,6.mid,experiment,1
33,82,17444,74,64,0,2,9,16,6.mid,experiment,1
34,84,18399,79,64,0,2,9,16,6.mid,experiment,1
35,86,18909,77,64,0,2,9,16,6.mid,experiment,1
36,88,19313,76,64,0,2,9,16,6.mid,experiment,1
37,90,19558,76,64,0,2,9,16,6.mid,experiment,1
38,92,19773,76,64,0,2,9,16,6.mid,experiment,1
39,94,20027,76,64,0,2,9,16,6.mid,experiment,1
40,97,20512,81,64,0,2,9,16,6.mid,experiment,1
41,99,20805,77,64,0,2,9,16,6.mid,experiment,1
42,101,21005,76,64,0,2,9,16,6.mid,experiment,1
43,103,21289,74,64,0,2,9,16,6.mid,experiment,1
44,105,21499,76,64,0,2,9,16,6.mid,experiment,1
45,107,21771,79,64,0,2,9,16,6.mid,experiment,1
46,109,22000,74,64,0,2,9,16,6.mid,experiment,1
47,110,22070,71,64,0,2,9,16,6.mid,experiment,1
48,112,22267,72,64,0,2,9,16,6.mid,experiment,1
49,114,22502,72,64,0,2,9,16,6.mid,experiment,1
50,116,22750,74,64,0,2,9,16,6.mid,experiment,1
51,118,22991,74,64,0,2,9,16,6.mid,experiment,1
52,120,23521,76,64,0,2,9,16,6.mid,experiment,1
53,122,24333,65,64,0,2,9,16,6.mid,experiment,1
54,124,24582,65,64,0,2,9,16,6.mid,experiment,1
55,126,25072,64,64,0,2,9,16,6.mid,experiment,1
56,126,,64,,0,2,9,16,6.mid,experiment,1
57,128,25669,62,64,0,2,9,16,6.mid,experiment,1
58,130,26411,67,64,0,2,9,16,6.mid,experiment,1
59,132,26649,67,64,0,2,9,16,6.mid,experiment,1
60,134,26885,71,64,0,2,9,16,6.mid,experiment,1
61,136,27125,71,64,0,2,9,16,6.mid,experiment,1
62,138,27398,72,64,0,2,9,16,6.mid,experiment,1
63,140,27635,72,64,0,2,9,16,6.mid,experiment,1
64,142,27892,73,64,0,2,9,16,6.mid,experiment,1
65,144,28160,73,64,0,2,9,16,6.mid,experiment,1
66,146,28592,74,64,0,2,9,16,6.mid,experiment,1
67,148,29157,77,64,0,2,9,16,6.mid,experiment,1
68,150,29637,76,64,0,2,9,16,6.mid,experiment,1
69,152,30131,74,64,0,2,9,16,6.mid,experiment,1
70,154,30682,72,64,0,2,9,16,6.mid,experiment,1
71,156,31148,84,64,0,2,9,16,6.mid,experiment,1
72,158,31823,84,64,0,2,9,16,6.mid,experiment,1
1,19,8177,79,64,0,2,10,1,9.mid,experiment,1
2,21,8463,78,64,0,2,10,1,9.mid,experiment,1
3,23,8755,79,64,0,2,10,1,9.mid,experiment,1
4,25,9067,76,64,0,2,10,1,9.mid,experiment,1
5,26,9112,72,64,0,2,10,1,9.mid,experiment,1
6,28,9357,67,64,0,2,10,1,9.mid,experiment,1
7,30,9649,67,64,0,2,10,1,9.mid,experiment,1
8,32,9924,67,64,0,2,10,1,9.mid,experiment,1
9,35,10488,79,64,0,2,10,1,9.mid,experiment,1
10,37,10725,78,64,0,2,10,1,9.mid,experiment,1
11,39,11007,79,64,0,2,10,1,9.mid,experiment,1
12,41,11301,76,64,0,2,10,1,9.mid,experiment,1
13,43,11638,72,64,0,2,10,1,9.mid,experiment,1
14,45,11886,76,64,0,2,10,1,9.mid,experiment,1
15,47,12113,79,64,0,2,10,1,9.mid,experiment,1
16,49,12416,84,64,0,2,10,1,9.mid,experiment,1
17,50,12423,83,64,0,2,10,1,9.mid,experiment,1
18,52,12700,81,64,0,2,10,1,9.mid,experiment,1
19,54,12973,81,64,0,2,10,1,9.mid,experiment,1
20,56,13255,81,64,0,2,10,1,9.mid,experiment,1
21,59,13821,83,64,0,2,10,1,9.mid,experiment,1
22,61,14055,81,64,0,2,10,1,9.mid,experiment,1
23,63,14380,84,64,0,2,10,1,9.mid,experiment,1
24,65,14624,81,64,0,2,10,1,9.mid,experiment,1
25,67,14910,78,64,0,2,10,1,9.mid,experiment,1
26,68,14938,79,64,0,2,10,1,9.mid,experiment,1
27,70,15300,79,64,0,2,10,1,9.mid,experiment,1
28,72,16404,79,64,0,2,10,1,9.mid,experiment,1
29,74,16955,77,64,0,2,10,1,9.mid,experiment,1
30,76,17222,77,64,0,2,10,1,9.mid,experiment,1
31,78,17498,76,64,0,2,10,1,9.mid,experiment,1
32,80,17751,76,64,0,2,10,1,9.mid,experiment,1
33,82,18294,74,64,0,2,10,1,9.mid,experiment,1
34,84,19222,79,64,0,2,10,1,9.mid,experiment,1
35,86,19742,77,64,0,2,10,1,9.mid,experiment,1
36,88,20300,76,64,0,2,10,1,9.mid,experiment,1
37,90,20573,76,64,0,2,10,1,9.mid,experiment,1
38,92,20842,76,64,0,2,10,1,9.mid,experiment,1
39,94,21109,76,64,0,2,10,1,9.mid,experiment,1
40,97,21669,81,64,0,2,10,1,9.mid,experiment,1
41,99,21903,77,64,0,2,10,1,9.mid,experiment,1
42,101,22169,76,64,0,2,10,1,9.mid,experiment,1
43,103,22454,74,64,0,2,10,1,9.mid,experiment,1
44,105,22710,76,64,0,2,10,1,9.mid,experiment,1
45,107,22997,79,64,0,2,10,1,9.mid,experiment,1
46,109,23253,74,64,0,2,10,1,9.mid,experiment,1
47,110,23306,71,64,0,2,10,1,9.mid,experiment,1
48,112,23538,72,64,0,2,10,1,9.mid,experiment,1
49,114,23828,72,64,0,2,10,1,9.mid,experiment,1
50,116,24107,74,64,0,2,10,1,9.mid,experiment,1
51,118,24379,74,64,0,2,10,1,9.mid,experiment,1
52,120,25081,76,64,0,2,10,1,9.mid,experiment,1
53,122,25842,65,64,0,2,10,1,9.mid,experiment,1
54,124,26096,65,64,0,2,10,1,9.mid,experiment,1
55,126,26646,64,64,0,2,10,1,9.mid,experiment,1
56,126,,64,,0,2,10,1,9.mid,experiment,1
57,128,27475,62,64,0,2,10,1,9.mid,experiment,1
58,130,28117,67,64,0,2,10,1,9.mid,experiment,1
59,132,28406,67,64,0,2,10,1,9.mid,experiment,1
60,134,28953,71,64,0,2,10,1,9.mid,experiment,1
61,134,,71,,0,2,10,1,9.mid,experiment,1
62,136,29200,72,64,0,2,10,1,9.mid,experiment,1
63,138,29470,72,64,0,2,10,1,9.mid,experiment,1
64,140,29773,73,64,0,2,10,1,9.mid,experiment,1
65,142,30023,73,64,0,2,10,1,9.mid,experiment,1
66,144,30532,74,64,0,2,10,1,9.mid,experiment,1
67,146,31268,77,64,0,2,10,1,9.mid,experiment,1
68,148,31821,76,64,0,2,10,1,9.mid,experiment,1
69,150,32357,74,64,0,2,10,1,9.mid,experiment,1
70,152,32947,72,64,0,2,10,1,9.mid,experiment,1
71,154,33542,84,64,0,2,10,1,9.mid,experiment,1
72,156,34515,84,64,0,2,10,1,9.mid,experiment,1
1,19,8190,79,64,0,2,10,3,2.mid,experiment,1
2,21,8476,78,64,0,2,10,3,2.mid,experiment,1
3,23,8756,79,64,0,2,10,3,2.mid,experiment,1
4,25,9066,76,64,0,2,10,3,2.mid,experiment,1
5,26,9095,72,64,0,2,10,3,2.mid,experiment,1
6,28,9356,67,64,0,2,10,3,2.mid,experiment,1
7,30,9612,67,64,0,2,10,3,2.mid,experiment,1
8,32,9884,67,64,0,2,10,3,2.mid,experiment,1
9,35,10446,79,64,0,2,10,3,2.mid,experiment,1
10,37,10691,78,64,0,2,10,3,2.mid,experiment,1
11,39,10950,79,64,0,2,10,3,2.mid,experiment,1
12,41,11242,76,64,0,2,10,3,2.mid,experiment,1
13,43,11566,72,64,0,2,10,3,2.mid,experiment,1
14,45,11831,76,64,0,2,10,3,2.mid,experiment,1
15,47,12062,79,64,0,2,10,3,2.mid,experiment,1
16,49,12340,84,64,0,2,10,3,2.mid,experiment,1
17,50,12424,83,64,0,2,10,3,2.mid,experiment,1
18,52,12637,81,64,0,2,10,3,2.mid,experiment,1
19,54,12910,81,64,0,2,10,3,2.mid,experiment,1
20,56,13176,81,64,0,2,10,3,2.mid,experiment,1
21,59,13757,83,64,0,2,10,3,2.mid,experiment,1
22,61,13974,81,64,0,2,10,3,2.mid,experiment,1
23,63,14275,84,64,0,2,10,3,2.mid,experiment,1
24,65,14533,81,64,0,2,10,3,2.mid,experiment,1
25,67,14797,78,64,0,2,10,3,2.mid,experiment,1
26,68,14800,79,64,0,2,10,3,2.mid,experiment,1
27,70,15121,79,64,0,2,10,3,2.mid,experiment,1
28,72,16122,79,64,0,2,10,3,2.mid,experiment,1
29,74,16764,77,64,0,2,10,3,2.mid,experiment,1
30,76,17027,77,64,0,2,10,3,2.mid,experiment,1
31,78,17302,76,64,0,2,10,3,2.mid,experiment,1
32,80,17551,76,64,0,2,10,3,2.mid,experiment,1
33,82,18167,74,64,0,2,10,3,2.mid,experiment,1
34,84,19059,79,64,0,2,10,3,2.mid,experiment,1
35,86,19596,77,64,0,2,10,3,2.mid,experiment,1
36,88,20115,76,64,0,2,10,3,2.mid,experiment,1
37,90,20399,76,64,0,2,10,3,2.mid,experiment,1
38,92,20674,76,64,0,2,10,3,2.mid,experiment,1
39,94,20961,76,64,0,2,10,3,2.mid,experiment,1
40,97,21507,81,64,0,2,10,3,2.mid,experiment,1
41,99,21725,77,64,0,2,10,3,2.mid,experiment,1
42,101,21974,76,64,0,2,10,3,2.mid,experiment,1
43,103,22284,74,64,0,2,10,3,2.mid,experiment,1
44,105,22530,76,64,0,2,10,3,2.mid,experiment,1
45,107,22797,79,64,0,2,10,3,2.mid,experiment,1
46,109,23059,74,64,0,2,10,3,2.mid,experiment,1
47,110,23120,71,64,0,2,10,3,2.mid,experiment,1
48,112,23355,72,64,0,2,10,3,2.mid,experiment,1
49,114,23651,72,64,0,2,10,3,2.mid,experiment,1
50,116,23907,74,64,0,2,10,3,2.mid,experiment,1
51,118,24171,74,64,0,2,10,3,2.mid,experiment,1
52,120,24847,76,64,0,2,10,3,2.mid,experiment,1
53,122,25602,65,64,0,2,10,3,2.mid,experiment,1
54,124,25883,65,64,0,2,10,3,2.mid,experiment,1
55,126,26159,64,64,0,2,10,3,2.mid,experiment,1
56,128,26418,64,64,0,2,10,3,2.mid,experiment,1
57,130,27170,62,64,0,2,10,3,2.mid,experiment,1
58,132,27809,67,64,0,2,10,3,2.mid,experiment,1
59,134,28079,67,64,0,2,10,3,2.mid,experiment,1
60,136,28603,71,64,0,2,10,3,2.mid,experiment,1
61,136,,71,,0,2,10,3,2.mid,experiment,1
62,138,28875,72,64,0,2,10,3,2.mid,experiment,1
63,140,29137,72,64,0,2,10,3,2.mid,experiment,1
64,142,29397,73,64,0,2,10,3,2.mid,experiment,1
65,144,29653,73,64,0,2,10,3,2.mid,experiment,1
66,146,30280,74,64,0,2,10,3,2.mid,experiment,1
67,148,30888,77,64,0,2,10,3,2.mid,experiment,1
68,150,31458,76,64,0,2,10,3,2.mid,experiment,1
69,152,32010,74,64,0,2,10,3,2.mid,experiment,1
70,154,32593,72,64,0,2,10,3,2.mid,experiment,1
71,156,33184,84,64,0,2,10,3,2.mid,experiment,1
72,158,34250,84,64,0,2,10,3,2.mid,experiment,1
1,19,8199,79,64,0,2,10,7,7.mid,experiment,1
2,21,8466,78,64,0,2,10,7,7.mid,experiment,1
3,23,8789,79,64,0,2,10,7,7.mid,experiment,1
4,25,9050,76,64,0,2,10,7,7.mid,experiment,1
5,26,9076,72,64,0,2,10,7,7.mid,experiment,1
6,28,9336,67,64,0,2,10,7,7.mid,experiment,1
7,30,9880,67,64,0,2,10,7,7.mid,experiment,1
8,30,,67,,0,2,10,7,7.mid,experiment,1
9,33,10471,79,64,0,2,10,7,7.mid,experiment,1
10,35,10705,78,64,0,2,10,7,7.mid,experiment,1
11,37,10967,79,64,0,2,10,7,7.mid,experiment,1
12,39,11274,76,64,0,2,10,7,7.mid,experiment,1
13,41,11594,72,64,0,2,10,7,7.mid,experiment,1
14,43,11849,76,64,0,2,10,7,7.mid,experiment,1
15,45,12061,79,64,0,2,10,7,7.mid,experiment,1
16,47,12369,84,64,0,2,10,7,7.mid,experiment,1
17,48,12421,83,64,0,2,10,7,7.mid,experiment,1
18,50,12661,81,64,0,2,10,7,7.mid,experiment,1
19,52,12921,81,64,0,2,10,7,7.mid,experiment,1
20,54,13201,81,64,0,2,10,7,7.mid,experiment,1
21,57,13750,83,64,0,2,10,7,7.mid,experiment,1
22,59,13984,81,64,0,2,10,7,7.mid,experiment,1
23,61,14317,84,64,0,2,10,7,7.mid,experiment,1
24,63,14579,81,64,0,2,10,7,7.mid,experiment,1
25,64,14695,78,64,0,2,10,7,7.mid,experiment,1
26,66,14902,79,64,0,2,10,7,7.mid,experiment,1
27,68,15280,79,64,0,2,10,7,7.mid,experiment,1
28,70,16316,79,64,0,2,10,7,7.mid,experiment,1
29,72,16877,77,64,0,2,10,7,7.mid,experiment,1
30,74,17147,77,64,0,2,10,7,7.mid,experiment,1
31,76,17426,76,64,0,2,10,7,7.mid,experiment,1
32,78,17704,76,64,0,2,10,7,7.mid,experiment,1
33,80,18340,74,64,0,2,10,7,7.mid,experiment,1
34,82,19228,79,64,0,2,10,7,7.mid,experiment,1
35,84,19890,77,64,0,2,10,7,7.mid,experiment,1
36,86,20293,76,64,0,2,10,7,7.mid,experiment,1
37,88,20560,76,64,0,2,10,7,7.mid,experiment,1
38,90,20828,76,64,0,2,10,7,7.mid,experiment,1
39,92,21118,76,64,0,2,10,7,7.mid,experiment,1
40,95,21726,81,64,0,2,10,7,7.mid,experiment,1
41,97,21948,77,64,0,2,10,7,7.mid,experiment,1
42,99,22183,76,64,0,2,10,7,7.mid,experiment,1
43,101,22476,74,64,0,2,10,7,7.mid,experiment,1
44,103,22727,76,64,0,2,10,7,7.mid,experiment,1
45,105,23054,79,64,0,2,10,7,7.mid,experiment,1
46,107,23273,74,64,0,2,10,7,7.mid,experiment,1
47,108,23319,71,64,0,2,10,7,7.mid,experiment,1
48,110,23564,72,64,0,2,10,7,7.mid,experiment,1
49,112,23840,72,64,0,2,10,7,7.mid,experiment,1
50,114,24130,74,64,0,2,10,7,7.mid,experiment,1
51,116,24385,74,64,0,2,10,7,7.mid,experiment,1
52,118,25220,76,64,0,2,10,7,7.mid,experiment,1
53,120,25844,65,64,0,2,10,7,7.mid,experiment,1
54,122,26117,65,64,0,2,10,7,7.mid,experiment,1
55,124,26373,64,64,0,2,10,7,7.mid,experiment,1
56,126,26649,64,64,0,2,10,7,7.mid,experiment,1
57,128,27550,62,64,0,2,10,7,7.mid,experiment,1
58,130,28116,67,64,0,2,10,7,7.mid,experiment,1
59,132,28379,67,64,0,2,10,7,7.mid,experiment,1
60,134,28669,71,64,0,2,10,7,7.mid,experiment,1
61,136,28938,71,64,0,2,10,7,7.mid,experiment,1
62,138,29195,72,64,0,2,10,7,7.mid,experiment,1
63,140,29485,72,64,0,2,10,7,7.mid,experiment,1
64,142,29748,73,64,0,2,10,7,7.mid,experiment,1
65,144,30021,73,64,0,2,10,7,7.mid,experiment,1
66,146,30716,74,64,0,2,10,7,7.mid,experiment,1
67,148,31401,77,64,0,2,10,7,7.mid,experiment,1
68,150,31929,76,64,0,2,10,7,7.mid,experiment,1
69,152,32488,74,64,0,2,10,7,7.mid,experiment,1
70,154,33087,72,64,0,2,10,7,7.mid,experiment,1
71,156,33710,84,64,0,2,10,7,7.mid,experiment,1
72,158,34740,84,64,0,2,10,7,7.mid,experiment,1
1,19,8136,79,64,0,2,10,8,3.mid,experiment,1
2,21,8388,78,64,0,2,10,8,3.mid,experiment,1
3,23,8673,79,64,0,2,10,8,3.mid,experiment,1
4,25,8977,76,64,0,2,10,8,3.mid,experiment,1
5,26,9029,72,64,0,2,10,8,3.mid,experiment,1
6,28,9285,67,64,0,2,10,8,3.mid,experiment,1
7,30,9571,67,64,0,2,10,8,3.mid,experiment,1
8,32,9858,67,64,0,2,10,8,3.mid,experiment,1
9,35,10402,79,64,0,2,10,8,3.mid,experiment,1
10,37,10679,78,64,0,2,10,8,3.mid,experiment,1
11,39,10914,79,64,0,2,10,8,3.mid,experiment,1
12,41,11186,76,64,0,2,10,8,3.mid,experiment,1
13,43,11516,72,64,0,2,10,8,3.mid,experiment,1
14,45,11781,76,64,0,2,10,8,3.mid,experiment,1
15,47,12012,79,64,0,2,10,8,3.mid,experiment,1
16,49,12319,84,64,0,2,10,8,3.mid,experiment,1
17,50,12357,83,64,0,2,10,8,3.mid,experiment,1
18,52,12620,81,64,0,2,10,8,3.mid,experiment,1
19,54,12890,81,64,0,2,10,8,3.mid,experiment,1
20,56,13160,81,64,0,2,10,8,3.mid,experiment,1
21,59,13736,83,64,0,2,10,8,3.mid,experiment,1
22,61,13964,81,64,0,2,10,8,3.mid,experiment,1
23,63,14314,84,64,0,2,10,8,3.mid,experiment,1
24,65,14559,81,64,0,2,10,8,3.mid,experiment,1
25,66,14789,78,64,0,2,10,8,3.mid,experiment,1
26,68,14840,79,64,0,2,10,8,3.mid,experiment,1
27,70,15140,79,64,0,2,10,8,3.mid,experiment,1
28,72,16291,79,64,0,2,10,8,3.mid,experiment,1
29,74,16897,77,64,0,2,10,8,3.mid,experiment,1
30,76,17159,77,64,0,2,10,8,3.mid,experiment,1
31,78,17438,76,64,0,2,10,8,3.mid,experiment,1
32,80,17700,76,64,0,2,10,8,3.mid,experiment,1
33,82,18412,74,64,0,2,10,8,3.mid,experiment,1
34,84,19335,79,64,0,2,10,8,3.mid,experiment,1
35,86,19878,77,64,0,2,10,8,3.mid,experiment,1
36,88,20402,76,64,0,2,10,8,3.mid,experiment,1
37,90,20690,76,64,0,2,10,8,3.mid,experiment,1
38,92,20942,76,64,0,2,10,8,3.mid,experiment,1
39,94,21216,76,64,0,2,10,8,3.mid,experiment,1
40,97,21848,81,64,0,2,10,8,3.mid,experiment,1
41,99,22102,77,64,0,2,10,8,3.mid,experiment,1
42,101,22315,76,64,0,2,10,8,3.mid,experiment,1
43,103,22612,74,64,0,2,10,8,3.mid,experiment,1
44,105,22863,76,64,0,2,10,8,3.mid,experiment,1
45,107,23185,79,64,0,2,10,8,3.mid,experiment,1
46,109,23417,74,64,0,2,10,8,3.mid,experiment,1
47,110,23454,71,64,0,2,10,8,3.mid,experiment,1
48,112,23710,72,64,0,2,10,8,3.mid,experiment,1
49,114,23984,72,64,0,2,10,8,3.mid,experiment,1
50,116,24250,74,64,0,2,10,8,3.mid,experiment,1
51,118,24521,74,64,0,2,10,8,3.mid,experiment,1
52,120,25348,76,64,0,2,10,8,3.mid,experiment,1
53,122,26020,65,64,0,2,10,8,3.mid,experiment,1
54,124,26297,65,64,0,2,10,8,3.mid,experiment,1
55,126,26837,64,64,0,2,10,8,3.mid,experiment,1
56,126,,64,,0,2,10,8,3.mid,experiment,1
57,128,27708,62,64,0,2,10,8,3.mid,experiment,1
58,130,28277,67,64,0,2,10,8,3.mid,experiment,1
59,132,28572,67,64,0,2,10,8,3.mid,experiment,1
60,134,28817,71,64,0,2,10,8,3.mid,experiment,1
61,136,29110,71,64,0,2,10,8,3.mid,experiment,1
62,138,29388,72,64,0,2,10,8,3.mid,experiment,1
63,140,29656,72,64,0,2,10,8,3.mid,experiment,1
64,142,29931,73,64,0,2,10,8,3.mid,experiment,1
65,144,30197,73,64,0,2,10,8,3.mid,experiment,1
66,146,30839,74,64,0,2,10,8,3.mid,experiment,1
67,148,31545,77,64,0,2,10,8,3.mid,experiment,1
68,150,32062,76,64,0,2,10,8,3.mid,experiment,1
69,152,32659,74,64,0,2,10,8,3.mid,experiment,1
70,154,33207,72,64,0,2,10,8,3.mid,experiment,1
71,156,33805,84,64,0,2,10,8,3.mid,experiment,1
72,158,34794,84,64,0,2,10,8,3.mid,experiment,1
1,19,8179,79,64,0,2,10,11,13.mid,experiment,1
2,21,8437,78,64,0,2,10,11,13.mid,experiment,1
3,23,8714,79,64,0,2,10,11,13.mid,experiment,1
4,25,9013,76,64,0,2,10,11,13.mid,experiment,1
5,26,9067,72,64,0,2,10,11,13.mid,experiment,1
6,28,9284,67,64,0,2,10,11,13.mid,experiment,1
7,30,9563,67,64,0,2,10,11,13.mid,experiment,1
8,30,,67,,0,2,10,11,13.mid,experiment,1
9,33,10387,79,64,0,2,10,11,13.mid,experiment,1
10,35,10660,78,64,0,2,10,11,13.mid,experiment,1
11,37,10898,79,64,0,2,10,11,13.mid,experiment,1
12,38,11164,76,64,0,2,10,11,13.mid,experiment,1
13,41,11508,72,64,0,2,10,11,13.mid,experiment,1
14,43,11771,76,64,0,2,10,11,13.mid,experiment,1
15,45,11985,79,64,0,2,10,11,13.mid,experiment,1
16,47,12291,84,64,0,2,10,11,13.mid,experiment,1
17,48,12345,83,64,0,2,10,11,13.mid,experiment,1
18,50,12590,81,64,0,2,10,11,13.mid,experiment,1
19,52,12842,81,64,0,2,10,11,13.mid,experiment,1
20,54,13108,81,64,0,2,10,11,13.mid,experiment,1
21,57,13675,83,64,0,2,10,11,13.mid,experiment,1
22,59,13940,81,64,0,2,10,11,13.mid,experiment,1
23,61,14236,84,64,0,2,10,11,13.mid,experiment,1
24,63,14479,81,64,0,2,10,11,13.mid,experiment,1
25,65,14759,78,64,0,2,10,11,13.mid,experiment,1
26,66,14818,79,64,0,2,10,11,13.mid,experiment,1
27,68,15111,79,64,0,2,10,11,13.mid,experiment,1
28,70,16206,79,64,0,2,10,11,13.mid,experiment,1
29,72,16822,77,64,0,2,10,11,13.mid,experiment,1
30,74,17077,77,64,0,2,10,11,13.mid,experiment,1
31,76,17335,76,64,0,2,10,11,13.mid,experiment,1
32,78,17612,76,64,0,2,10,11,13.mid,experiment,1
33,80,18367,74,64,0,2,10,11,13.mid,experiment,1
34,82,19251,79,64,0,2,10,11,13.mid,experiment,1
35,84,19855,77,64,0,2,10,11,13.mid,experiment,1
36,86,20161,76,64,0,2,10,11,13.mid,experiment,1
37,88,20439,76,64,0,2,10,11,13.mid,experiment,1
38,90,20704,76,64,0,2,10,11,13.mid,experiment,1
39,92,20978,76,64,0,2,10,11,13.mid,experiment,1
40,95,21568,81,64,0,2,10,11,13.mid,experiment,1
41,97,21812,77,64,0,2,10,11,13.mid,experiment,1
42,99,22045,76,64,0,2,10,11,13.mid,experiment,1
43,101,22323,74,64,0,2,10,11,13.mid,experiment,1
44,103,22578,76,64,0,2,10,11,13.mid,experiment,1
45,105,22912,79,64,0,2,10,11,13.mid,experiment,1
46,107,23126,74,64,0,2,10,11,13.mid,experiment,1
47,108,23137,71,64,0,2,10,11,13.mid,experiment,1
48,110,23435,72,64,0,2,10,11,13.mid,experiment,1
49,112,23702,72,64,0,2,10,11,13.mid,experiment,1
50,114,23965,74,64,0,2,10,11,13.mid,experiment,1
51,116,24226,74,64,0,2,10,11,13.mid,experiment,1
52,118,25017,76,64,0,2,10,11,13.mid,experiment,1
53,120,25675,65,64,0,2,10,11,13.mid,experiment,1
54,122,25949,65,64,0,2,10,11,13.mid,experiment,1
55,124,26229,64,64,0,2,10,11,13.mid,experiment,1
56,126,26510,64,64,0,2,10,11,13.mid,experiment,1
57,128,27262,62,64,0,2,10,11,13.mid,experiment,1
58,130,27949,67,64,0,2,10,11,13.mid,experiment,1
59,132,28224,67,64,0,2,10,11,13.mid,experiment,1
60,134,28461,71,64,0,2,10,11,13.mid,experiment,1
61,136,28737,71,64,0,2,10,11,13.mid,experiment,1
62,138,29035,72,64,0,2,10,11,13.mid,experiment,1
63,140,29290,72,64,0,2,10,11,13.mid,experiment,1
64,142,29546,73,64,0,2,10,11,13.mid,experiment,1
65,144,29816,73,64,0,2,10,11,13.mid,experiment,1
66,146,30484,74,64,0,2,10,11,13.mid,experiment,1
67,148,31121,77,64,0,2,10,11,13.mid,experiment,1
68,150,31712,76,64,0,2,10,11,13.mid,experiment,1
69,152,32240,74,64,0,2,10,11,13.mid,experiment,1
70,154,32869,72,64,0,2,10,11,13.mid,experiment,1
71,156,33474,84,64,0,2,10,11,13.mid,experiment,1
72,158,34531,84,64,0,2,10,11,13.mid,experiment,1
1,19,8280,79,64,0,2,11,4,1.mid,experiment,1
2,21,8571,78,64,0,2,11,4,1.mid,experiment,1
3,23,8782,79,64,0,2,11,4,1.mid,experiment,1
4,25,8998,76,64,0,2,11,4,1.mid,experiment,1
5,26,9018,72,64,0,2,11,4,1.mid,experiment,1
6,28,9341,67,64,0,2,11,4,1.mid,experiment,1
7,30,9583,67,64,0,2,11,4,1.mid,experiment,1
8,32,9872,67,64,0,2,11,4,1.mid,experiment,1
9,35,10491,79,64,0,2,11,4,1.mid,experiment,1
10,37,10704,78,64,0,2,11,4,1.mid,experiment,1
11,39,10957,79,64,0,2,11,4,1.mid,experiment,1
12,41,11169,76,64,0,2,11,4,1.mid,experiment,1
13,43,11490,72,64,0,2,11,4,1.mid,experiment,1
14,45,11749,76,64,0,2,11,4,1.mid,experiment,1
15,47,11944,79,64,0,2,11,4,1.mid,experiment,1
16,49,12235,84,64,0,2,11,4,1.mid,experiment,1
17,50,12270,83,64,0,2,11,4,1.mid,experiment,1
18,52,12551,81,64,0,2,11,4,1.mid,experiment,1
19,54,12813,81,64,0,2,11,4,1.mid,experiment,1
20,56,13042,81,64,0,2,11,4,1.mid,experiment,1
21,59,13581,83,64,0,2,11,4,1.mid,experiment,1
22,61,13822,81,64,0,2,11,4,1.mid,experiment,1
23,63,14110,84,64,0,2,11,4,1.mid,experiment,1
24,65,14336,81,64,0,2,11,4,1.mid,experiment,1
25,67,14601,78,64,0,2,11,4,1.mid,experiment,1
26,68,14635,79,64,0,2,11,4,1.mid,experiment,1
27,70,14888,79,64,0,2,11,4,1.mid,experiment,1
28,72,15465,79,64,0,2,11,4,1.mid,experiment,1
29,74,16570,77,64,0,2,11,4,1.mid,experiment,1
30,76,16832,77,64,0,2,11,4,1.mid,experiment,1
31,78,17091,76,64,0,2,11,4,1.mid,experiment,1
32,80,17337,76,64,0,2,11,4,1.mid,experiment,1
33,82,17995,74,64,0,2,11,4,1.mid,experiment,1
34,84,18954,79,64,0,2,11,4,1.mid,experiment,1
35,86,19446,77,64,0,2,11,4,1.mid,experiment,1
36,88,19856,76,64,0,2,11,4,1.mid,experiment,1
37,90,20101,76,64,0,2,11,4,1.mid,experiment,1
38,92,20364,76,64,0,2,11,4,1.mid,experiment,1
39,94,20638,76,64,0,2,11,4,1.mid,experiment,1
40,97,21236,81,64,0,2,11,4,1.mid,experiment,1
41,99,21486,77,64,0,2,11,4,1.mid,experiment,1
42,101,21666,76,64,0,2,11,4,1.mid,experiment,1
43,103,21932,74,64,0,2,11,4,1.mid,experiment,1
44,105,22166,76,64,0,2,11,4,1.mid,experiment,1
45,107,22460,79,64,0,2,11,4,1.mid,experiment,1
46,109,22636,74,64,0,2,11,4,1.mid,experiment,1
47,110,22684,71,64,0,2,11,4,1.mid,experiment,1
48,112,22999,72,64,0,2,11,4,1.mid,experiment,1
49,114,23270,72,64,0,2,11,4,1.mid,experiment,1
50,116,23517,74,64,0,2,11,4,1.mid,experiment,1
51,118,23785,74,64,0,2,11,4,1.mid,experiment,1
52,120,24493,76,64,0,2,11,4,1.mid,experiment,1
53,122,25179,65,64,0,2,11,4,1.mid,experiment,1
54,124,25455,65,64,0,2,11,4,1.mid,experiment,1
55,126,25688,64,64,0,2,11,4,1.mid,experiment,1
56,128,25951,64,64,0,2,11,4,1.mid,experiment,1
57,130,26731,62,64,0,2,11,4,1.mid,experiment,1
58,132,27398,67,64,0,2,11,4,1.mid,experiment,1
59,134,27656,67,64,0,2,11,4,1.mid,experiment,1
60,136,28156,71,64,0,2,11,4,1.mid,experiment,1
61,136,,71,,0,2,11,4,1.mid,experiment,1
62,138,28456,72,64,0,2,11,4,1.mid,experiment,1
63,140,28682,72,64,0,2,11,4,1.mid,experiment,1
64,142,28958,73,64,0,2,11,4,1.mid,experiment,1
65,144,29187,73,64,0,2,11,4,1.mid,experiment,1
66,146,29455,74,64,0,2,11,4,1.mid,experiment,1
67,148,29995,77,64,0,2,11,4,1.mid,experiment,1
68,150,30539,76,64,0,2,11,4,1.mid,experiment,1
69,152,31088,74,64,0,2,11,4,1.mid,experiment,1
70,154,31609,72,64,0,2,11,4,1.mid,experiment,1
71,156,32171,84,64,0,2,11,4,1.mid,experiment,1
72,158,32801,84,64,0,2,11,4,1.mid,experiment,1
1,19,8240,79,64,0,2,11,11,6.mid,experiment,1
2,21,8500,78,64,0,2,11,11,6.mid,experiment,1
3,23,8738,79,64,0,2,11,11,6.mid,experiment,1
4,25,8980,76,64,0,2,11,11,6.mid,experiment,1
5,26,9017,72,64,0,2,11,11,6.mid,experiment,1
6,28,9566,67,64,0,2,11,11,6.mid,experiment,1
7,30,9838,67,64,0,2,11,11,6.mid,experiment,1
8,30,,67,,0,2,11,11,6.mid,experiment,1
9,33,10440,79,64,0,2,11,11,6.mid,experiment,1
10,35,10682,78,64,0,2,11,11,6.mid,experiment,1
11,37,10936,79,64,0,2,11,11,6.mid,experiment,1
12,39,11178,76,64,0,2,11,11,6.mid,experiment,1
13,41,11471,72,64,0,2,11,11,6.mid,experiment,1
14,43,11759,76,64,0,2,11,11,6.mid,experiment,1
15,45,11937,79,64,0,2,11,11,6.mid,experiment,1
16,47,12226,84,64,0,2,11,11,6.mid,experiment,1
17,48,12264,83,64,0,2,11,11,6.mid,experiment,1
18,50,12530,81,64,0,2,11,11,6.mid,experiment,1
19,52,12786,81,64,0,2,11,11,6.mid,experiment,1
20,54,13048,81,64,0,2,11,11,6.mid,experiment,1
21,57,13622,83,64,0,2,11,11,6.mid,experiment,1
22,59,13860,81,64,0,2,11,11,6.mid,experiment,1
23,61,14154,84,64,0,2,11,11,6.mid,experiment,1
24,63,14400,81,64,0,2,11,11,6.mid,experiment,1
25,65,14670,78,64,0,2,11,11,6.mid,experiment,1
26,66,14702,79,64,0,2,11,11,6.mid,experiment,1
27,68,14976,79,64,0,2,11,11,6.mid,experiment,1
28,70,15740,79,64,0,2,11,11,6.mid,experiment,1
29,72,16824,77,64,0,2,11,11,6.mid,experiment,1
30,74,17079,77,64,0,2,11,11,6.mid,experiment,1
31,76,17330,76,64,0,2,11,11,6.mid,experiment,1
32,78,17582,76,64,0,2,11,11,6.mid,experiment,1
33,80,18414,74,64,0,2,11,11,6.mid,experiment,1
34,82,19306,79,64,0,2,11,11,6.mid,experiment,1
35,84,19789,77,64,0,2,11,11,6.mid,experiment,1
36,86,20161,76,64,0,2,11,11,6.mid,experiment,1
37,88,20414,76,64,0,2,11,11,6.mid,experiment,1
38,90,20676,76,64,0,2,11,11,6.mid,experiment,1
39,92,20937,76,64,0,2,11,11,6.mid,experiment,1
40,95,21568,81,64,0,2,11,11,6.mid,experiment,1
41,97,21806,77,64,0,2,11,11,6.mid,experiment,1
42,99,22028,76,64,0,2,11,11,6.mid,experiment,1
43,101,22315,74,64,0,2,11,11,6.mid,experiment,1
44,103,22546,76,64,0,2,11,11,6.mid,experiment,1
45,105,22854,79,64,0,2,11,11,6.mid,experiment,1
46,107,23032,74,64,0,2,11,11,6.mid,experiment,1
47,108,23072,71,64,0,2,11,11,6.mid,experiment,1
48,110,23348,72,64,0,2,11,11,6.mid,experiment,1
49,112,23600,72,64,0,2,11,11,6.mid,experiment,1
50,114,23855,74,64,0,2,11,11,6.mid,experiment,1
51,116,24122,74,64,0,2,11,11,6.mid,experiment,1
52,118,24858,76,64,0,2,11,11,6.mid,experiment,1
53,120,25602,65,64,0,2,11,11,6.mid,experiment,1
54,122,25854,65,64,0,2,11,11,6.mid,experiment,1
55,124,26133,64,64,0,2,11,11,6.mid,experiment,1
56,126,26370,64,64,0,2,11,11,6.mid,experiment,1
57,128,27162,62,64,0,2,11,11,6.mid,experiment,1
58,130,27794,67,64,0,2,11,11,6.mid,experiment,1
59,132,28096,67,64,0,2,11,11,6.mid,experiment,1
60,134,28312,71,64,0,2,11,11,6.mid,experiment,1
61,136,28578,71,64,0,2,11,11,6.mid,experiment,1
62,138,28856,72,64,0,2,11,11,6.mid,experiment,1
63,140,29112,72,64,0,2,11,11,6.mid,experiment,1
64,142,29395,73,64,0,2,11,11,6.mid,experiment,1
65,144,29656,73,64,0,2,11,11,6.mid,experiment,1
66,146,30208,74,64,0,2,11,11,6.mid,experiment,1
67,148,30706,77,64,0,2,11,11,6.mid,experiment,1
68,150,31250,76,64,0,2,11,11,6.mid,experiment,1
69,152,31718,74,64,0,2,11,11,6.mid,experiment,1
70,154,32394,72,64,0,2,11,11,6.mid,experiment,1
71,156,32890,84,64,0,2,11,11,6.mid,experiment,1
72,158,33704,84,64,0,2,11,11,6.mid,experiment,1
1,19,8315,79,64,0,2,11,15,5.mid,experiment,1
2,21,8543,78,64,0,2,11,15,5.mid,experiment,1
3,23,8804,79,64,0,2,11,15,5.mid,experiment,1
4,25,9025,76,64,0,2,11,15,5.mid,experiment,1
5,26,9031,72,64,0,2,11,15,5.mid,experiment,1
6,28,9337,67,64,0,2,11,15,5.mid,experiment,1
7,30,9590,67,64,0,2,11,15,5.mid,experiment,1
8,30,,67,,0,2,11,15,5.mid,experiment,1
9,33,10556,79,64,0,2,11,15,5.mid,experiment,1
10,35,10744,78,64,0,2,11,15,5.mid,experiment,1
11,37,11034,79,64,0,2,11,15,5.mid,experiment,1
12,39,11224,76,64,0,2,11,15,5.mid,experiment,1
13,41,11564,72,64,0,2,11,15,5.mid,experiment,1
14,43,11840,76,64,0,2,11,15,5.mid,experiment,1
15,45,11981,79,64,0,2,11,15,5.mid,experiment,1
16,47,12284,84,64,0,2,11,15,5.mid,experiment,1
17,48,12305,83,64,0,2,11,15,5.mid,experiment,1
18,50,12559,81,64,0,2,11,15,5.mid,experiment,1
19,52,12815,81,64,0,2,11,15,5.mid,experiment,1
20,54,13046,81,64,0,2,11,15,5.mid,experiment,1
21,57,13696,83,64,0,2,11,15,5.mid,experiment,1
22,59,13896,81,64,0,2,11,15,5.mid,experiment,1
23,61,14188,84,64,0,2,11,15,5.mid,experiment,1
24,63,14434,81,64,0,2,11,15,5.mid,experiment,1
25,65,14732,78,64,0,2,11,15,5.mid,experiment,1
26,66,14760,79,64,0,2,11,15,5.mid,experiment,1
27,68,15038,79,64,0,2,11,15,5.mid,experiment,1
28,70,15897,79,64,0,2,11,15,5.mid,experiment,1
29,72,16755,77,64,0,2,11,15,5.mid,experiment,1
30,74,17025,77,64,0,2,11,15,5.mid,experiment,1
31,76,17263,76,64,0,2,11,15,5.mid,experiment,1
32,78,17525,76,64,0,2,11,15,5.mid,experiment,1
33,80,18447,74,64,0,2,11,15,5.mid,experiment,1
34,82,19307,79,64,0,2,11,15,5.mid,experiment,1
35,84,19807,77,64,0,2,11,15,5.mid,experiment,1
36,86,20138,76,64,0,2,11,15,5.mid,experiment,1
37,88,20393,76,64,0,2,11,15,5.mid,experiment,1
38,90,20643,76,64,0,2,11,15,5.mid,experiment,1
39,92,20897,76,64,0,2,11,15,5.mid,experiment,1
40,95,21583,81,64,0,2,11,15,5.mid,experiment,1
41,97,21803,77,64,0,2,11,15,5.mid,experiment,1
42,99,22027,76,64,0,2,11,15,5.mid,experiment,1
43,101,22302,74,64,0,2,11,15,5.mid,experiment,1
44,103,22562,76,64,0,2,11,15,5.mid,experiment,1
45,105,22896,79,64,0,2,11,15,5.mid,experiment,1
46,107,23041,74,64,0,2,11,15,5.mid,experiment,1
47,108,23098,71,64,0,2,11,15,5.mid,experiment,1
48,110,23328,72,64,0,2,11,15,5.mid,experiment,1
49,112,23581,72,64,0,2,11,15,5.mid,experiment,1
50,114,23841,74,64,0,2,11,15,5.mid,experiment,1
51,116,24111,74,64,0,2,11,15,5.mid,experiment,1
52,118,24909,76,64,0,2,11,15,5.mid,experiment,1
53,120,25593,65,64,0,2,11,15,5.mid,experiment,1
54,122,25856,65,64,0,2,11,15,5.mid,experiment,1
55,124,26141,64,64,0,2,11,15,5.mid,experiment,1
56,126,26391,64,64,0,2,11,15,5.mid,experiment,1
57,128,27238,62,64,0,2,11,15,5.mid,experiment,1
58,130,27932,67,64,0,2,11,15,5.mid,experiment,1
59,132,28273,67,64,0,2,11,15,5.mid,experiment,1
60,134,28436,71,64,0,2,11,15,5.mid,experiment,1
61,136,28705,71,64,0,2,11,15,5.mid,experiment,1
62,138,29001,72,64,0,2,11,15,5.mid,experiment,1
63,140,29252,72,64,0,2,11,15,5.mid,experiment,1
64,142,29517,73,64,0,2,11,15,5.mid,experiment,1
65,144,29776,73,64,0,2,11,15,5.mid,experiment,1
66,146,30416,74,64,0,2,11,15,5.mid,experiment,1
67,148,30962,77,64,0,2,11,15,5.mid,experiment,1
68,150,31516,76,64,0,2,11,15,5.mid,experiment,1
69,152,31983,74,64,0,2,11,15,5.mid,experiment,1
70,154,32605,72,64,0,2,11,15,5.mid,experiment,1
71,156,32982,84,64,0,2,11,15,5.mid,experiment,1
72,158,33994,84,64,0,2,11,15,5.mid,experiment,1
1,19,8259,79,64,0,2,12,1,16.mid,experiment,1
2,21,8587,78,64,0,2,12,1,16.mid,experiment,1
3,23,8895,79,64,0,2,12,1,16.mid,experiment,1
4,25,9235,76,64,0,2,12,1,16.mid,experiment,1
5,26,9325,72,64,0,2,12,1,16.mid,experiment,1
6,28,9825,67,64,0,2,12,1,16.mid,experiment,1
7,30,10109,67,64,0,2,12,1,16.mid,experiment,1
8,30,,67,,0,2,12,1,16.mid,experiment,1
9,33,10815,79,64,0,2,12,1,16.mid,experiment,1
10,35,11079,78,64,0,2,12,1,16.mid,experiment,1
11,37,11416,79,64,0,2,12,1,16.mid,experiment,1
12,39,11707,76,64,0,2,12,1,16.mid,experiment,1
13,41,12091,72,64,0,2,12,1,16.mid,experiment,1
14,43,12334,76,64,0,2,12,1,16.mid,experiment,1
15,45,12564,79,64,0,2,12,1,16.mid,experiment,1
16,47,12936,84,64,0,2,12,1,16.mid,experiment,1
17,48,13166,83,64,0,2,12,1,16.mid,experiment,1
18,50,13224,81,64,0,2,12,1,16.mid,experiment,1
19,52,13523,81,64,0,2,12,1,16.mid,experiment,1
20,54,13832,81,64,0,2,12,1,16.mid,experiment,1
21,57,14515,83,64,0,2,12,1,16.mid,experiment,1
22,59,14831,81,64,0,2,12,1,16.mid,experiment,1
23,61,15129,84,64,0,2,12,1,16.mid,experiment,1
24,63,15415,81,64,0,2,12,1,16.mid,experiment,1
25,65,15761,78,64,0,2,12,1,16.mid,experiment,1
26,66,15882,79,64,0,2,12,1,16.mid,experiment,1
27,68,16439,79,64,0,2,12,1,16.mid,experiment,1
28,70,17572,79,64,0,2,12,1,16.mid,experiment,1
29,72,18053,77,64,0,2,12,1,16.mid,experiment,1
30,74,18363,77,64,0,2,12,1,16.mid,experiment,1
31,76,18678,76,64,0,2,12,1,16.mid,experiment,1
32,78,18983,76,64,0,2,12,1,16.mid,experiment,1
33,80,19971,74,64,0,2,12,1,16.mid,experiment,1
34,82,21172,79,64,0,2,12,1,16.mid,experiment,1
35,84,21793,77,64,0,2,12,1,16.mid,experiment,1
36,86,22040,76,64,0,2,12,1,16.mid,experiment,1
37,88,22360,76,64,0,2,12,1,16.mid,experiment,1
38,90,22654,76,64,0,2,12,1,16.mid,experiment,1
39,92,22954,76,64,0,2,12,1,16.mid,experiment,1
40,95,23736,81,64,0,2,12,1,16.mid,experiment,1
41,97,23995,77,64,0,2,12,1,16.mid,experiment,1
42,99,24255,76,64,0,2,12,1,16.mid,experiment,1
43,101,24642,74,64,0,2,12,1,16.mid,experiment,1
44,103,24902,76,64,0,2,12,1,16.mid,experiment,1
45,105,25263,79,64,0,2,12,1,16.mid,experiment,1
46,107,25469,74,64,0,2,12,1,16.mid,experiment,1
47,108,25737,71,64,0,2,12,1,16.mid,experiment,1
48,110,25793,72,64,0,2,12,1,16.mid,experiment,1
49,112,26085,72,64,0,2,12,1,16.mid,experiment,1
50,114,26408,74,64,0,2,12,1,16.mid,experiment,1
51,116,26717,74,64,0,2,12,1,16.mid,experiment,1
52,118,27396,76,64,0,2,12,1,16.mid,experiment,1
53,120,28360,65,64,0,2,12,1,16.mid,experiment,1
54,122,28665,65,64,0,2,12,1,16.mid,experiment,1
55,124,28988,64,64,0,2,12,1,16.mid,experiment,1
56,126,29307,64,64,0,2,12,1,16.mid,experiment,1
57,128,30314,62,64,0,2,12,1,16.mid,experiment,1
58,130,30877,67,64,0,2,12,1,16.mid,experiment,1
59,132,31196,67,64,0,2,12,1,16.mid,experiment,1
60,134,31526,71,64,0,2,12,1,16.mid,experiment,1
61,136,31798,71,64,0,2,12,1,16.mid,experiment,1
62,138,32106,72,64,0,2,12,1,16.mid,experiment,1
63,140,32440,72,64,0,2,12,1,16.mid,experiment,1
64,142,32718,73,64,0,2,12,1,16.mid,experiment,1
65,144,33073,73,64,0,2,12,1,16.mid,experiment,1
66,146,33658,74,64,0,2,12,1,16.mid,experiment,1
67,148,34363,77,64,0,2,12,1,16.mid,experiment,1
68,150,35083,76,64,0,2,12,1,16.mid,experiment,1
69,152,35690,74,64,0,2,12,1,16.mid,experiment,1
70,154,36388,72,64,0,2,12,1,16.mid,experiment,1
71,156,37091,84,64,0,2,12,1,16.mid,experiment,1
72,158,38067,84,64,0,2,12,1,16.mid,experiment,1
1,19,8204,79,64,0,2,12,5,10.mid,experiment,1
2,21,8463,78,64,0,2,12,5,10.mid,experiment,1
3,23,8778,79,64,0,2,12,5,10.mid,experiment,1
4,25,9038,76,64,0,2,12,5,10.mid,experiment,1
5,26,9178,72,64,0,2,12,5,10.mid,experiment,1
6,28,9340,67,64,0,2,12,5,10.mid,experiment,1
7,30,9602,67,64,0,2,12,5,10.mid,experiment,1
8,32,9882,67,64,0,2,12,5,10.mid,experiment,1
9,35,10432,79,64,0,2,12,5,10.mid,experiment,1
10,37,10684,78,64,0,2,12,5,10.mid,experiment,1
11,39,10964,79,64,0,2,12,5,10.mid,experiment,1
12,41,11210,76,64,0,2,12,5,10.mid,experiment,1
13,43,11526,72,64,0,2,12,5,10.mid,experiment,1
14,45,11750,76,64,0,2,12,5,10.mid,experiment,1
15,47,11982,79,64,0,2,12,5,10.mid,experiment,1
16,49,12322,84,64,0,2,12,5,10.mid,experiment,1
17,50,12424,83,64,0,2,12,5,10.mid,experiment,1
18,52,12672,81,64,0,2,12,5,10.mid,experiment,1
19,54,12963,81,64,0,2,12,5,10.mid,experiment,1
20,56,13214,81,64,0,2,12,5,10.mid,experiment,1
21,59,13792,83,64,0,2,12,5,10.mid,experiment,1
22,61,14014,81,64,0,2,12,5,10.mid,experiment,1
23,63,14308,84,64,0,2,12,5,10.mid,experiment,1
24,65,14545,81,64,0,2,12,5,10.mid,experiment,1
25,67,14821,78,64,0,2,12,5,10.mid,experiment,1
26,68,14924,79,64,0,2,12,5,10.mid,experiment,1
27,70,15242,79,64,0,2,12,5,10.mid,experiment,1
28,72,16166,79,64,0,2,12,5,10.mid,experiment,1
29,74,16914,77,64,0,2,12,5,10.mid,experiment,1
30,76,17163,77,64,0,2,12,5,10.mid,experiment,1
31,78,17459,76,64,0,2,12,5,10.mid,experiment,1
32,80,17714,76,64,0,2,12,5,10.mid,experiment,1
33,82,18564,74,64,0,2,12,5,10.mid,experiment,1
34,84,19428,79,64,0,2,12,5,10.mid,experiment,1
35,86,20066,77,64,0,2,12,5,10.mid,experiment,1
36,88,20332,76,64,0,2,12,5,10.mid,experiment,1
37,90,20604,76,64,0,2,12,5,10.mid,experiment,1
38,92,20858,76,64,0,2,12,5,10.mid,experiment,1
39,94,21121,76,64,0,2,12,5,10.mid,experiment,1
40,97,21705,81,64,0,2,12,5,10.mid,experiment,1
41,99,21977,77,64,0,2,12,5,10.mid,experiment,1
42,101,22154,76,64,0,2,12,5,10.mid,experiment,1
43,103,22450,74,64,0,2,12,5,10.mid,experiment,1
44,105,22697,76,64,0,2,12,5,10.mid,experiment,1
45,107,22988,79,64,0,2,12,5,10.mid,experiment,1
46,109,23198,74,64,0,2,12,5,10.mid,experiment,1
47,110,23354,71,64,0,2,12,5,10.mid,experiment,1
48,112,23548,72,64,0,2,12,5,10.mid,experiment,1
49,114,23802,72,64,0,2,12,5,10.mid,experiment,1
50,116,24054,74,64,0,2,12,5,10.mid,experiment,1
51,118,24320,74,64,0,2,12,5,10.mid,experiment,1
52,120,25160,76,64,0,2,12,5,10.mid,experiment,1
53,122,25850,65,64,0,2,12,5,10.mid,experiment,1
54,124,26132,65,64,0,2,12,5,10.mid,experiment,1
55,126,26692,64,64,0,2,12,5,10.mid,experiment,1
56,126,,64,,0,2,12,5,10.mid,experiment,1
57,128,27570,62,64,0,2,12,5,10.mid,experiment,1
58,130,28208,67,64,0,2,12,5,10.mid,experiment,1
59,132,28496,67,64,0,2,12,5,10.mid,experiment,1
60,134,28741,71,64,0,2,12,5,10.mid,experiment,1
61,136,28997,71,64,0,2,12,5,10.mid,experiment,1
62,138,29270,72,64,0,2,12,5,10.mid,experiment,1
63,140,29528,72,64,0,2,12,5,10.mid,experiment,1
64,142,29804,73,64,0,2,12,5,10.mid,experiment,1
65,144,30064,73,64,0,2,12,5,10.mid,experiment,1
66,146,30704,74,64,0,2,12,5,10.mid,experiment,1
67,148,31317,77,64,0,2,12,5,10.mid,experiment,1
68,150,31835,76,64,0,2,12,5,10.mid,experiment,1
69,152,32406,74,64,0,2,12,5,10.mid,experiment,1
70,154,32926,72,64,0,2,12,5,10.mid,experiment,1
71,156,33465,84,64,0,2,12,5,10.mid,experiment,1
72,158,34317,84,64,0,2,12,5,10.mid,experiment,1
1,19,8189,79,64,0,2,12,6,4.mid,experiment,1
2,21,8466,78,64,0,2,12,6,4.mid,experiment,1
3,23,8762,79,64,0,2,12,6,4.mid,experiment,1
4,25,9054,76,64,0,2,12,6,4.mid,experiment,1
5,26,9221,72,64,0,2,12,6,4.mid,experiment,1
6,28,9884,67,64,0,2,12,6,4.mid,experiment,1
7,30,10210,67,64,0,2,12,6,4.mid,experiment,1
8,32,10529,67,64,0,2,12,6,4.mid,experiment,1
9,35,11126,79,64,0,2,12,6,4.mid,experiment,1
10,37,11400,78,64,0,2,12,6,4.mid,experiment,1
11,39,11640,79,64,0,2,12,6,4.mid,experiment,1
12,41,11912,76,64,0,2,12,6,4.mid,experiment,1
13,43,12177,72,64,0,2,12,6,4.mid,experiment,1
14,45,12432,76,64,0,2,12,6,4.mid,experiment,1
15,47,12652,79,64,0,2,12,6,4.mid,experiment,1
16,49,13024,84,64,0,2,12,6,4.mid,experiment,1
17,50,13188,83,64,0,2,12,6,4.mid,experiment,1
18,52,13534,81,64,0,2,12,6,4.mid,experiment,1
19,54,13866,81,64,0,2,12,6,4.mid,experiment,1
20,56,14146,81,64,0,2,12,6,4.mid,experiment,1
21,59,14687,83,64,0,2,12,6,4.mid,experiment,1
22,61,14937,81,64,0,2,12,6,4.mid,experiment,1
23,63,15239,84,64,0,2,12,6,4.mid,experiment,1
24,65,15481,81,64,0,2,12,6,4.mid,experiment,1
25,67,15755,78,64,0,2,12,6,4.mid,experiment,1
26,68,15875,79,64,0,2,12,6,4.mid,experiment,1
27,70,16197,79,64,0,2,12,6,4.mid,experiment,1
28,72,17198,79,64,0,2,12,6,4.mid,experiment,1
29,74,17944,77,64,0,2,12,6,4.mid,experiment,1
30,76,18229,77,64,0,2,12,6,4.mid,experiment,1
31,78,18518,76,64,0,2,12,6,4.mid,experiment,1
32,80,18841,76,64,0,2,12,6,4.mid,experiment,1
33,82,19629,74,64,0,2,12,6,4.mid,experiment,1
34,84,20609,79,64,0,2,12,6,4.mid,experiment,1
35,86,21290,77,64,0,2,12,6,4.mid,experiment,1
36,88,21647,76,64,0,2,12,6,4.mid,experiment,1
37,90,21934,76,64,0,2,12,6,4.mid,experiment,1
38,92,22216,76,64,0,2,12,6,4.mid,experiment,1
39,94,22457,76,64,0,2,12,6,4.mid,experiment,1
40,97,23035,81,64,0,2,12,6,4.mid,experiment,1
41,99,23282,77,64,0,2,12,6,4.mid,experiment,1
42,100,23514,76,64,0,2,12,6,4.mid,experiment,1
43,103,23814,74,64,0,2,12,6,4.mid,experiment,1
44,105,24074,76,64,0,2,12,6,4.mid,experiment,1
45,107,24363,79,64,0,2,12,6,4.mid,experiment,1
46,108,24587,74,64,0,2,12,6,4.mid,experiment,1
47,110,24745,71,64,0,2,12,6,4.mid,experiment,1
48,112,25064,72,64,0,2,12,6,4.mid,experiment,1
49,114,25335,72,64,0,2,12,6,4.mid,experiment,1
50,116,25604,74,64,0,2,12,6,4.mid,experiment,1
51,118,25859,74,64,0,2,12,6,4.mid,experiment,1
52,120,26408,76,64,0,2,12,6,4.mid,experiment,1
53,122,27573,65,64,0,2,12,6,4.mid,experiment,1
54,124,27833,65,64,0,2,12,6,4.mid,experiment,1
55,126,28144,64,64,0,2,12,6,4.mid,experiment,1
56,128,28443,64,64,0,2,12,6,4.mid,experiment,1
57,130,28933,62,64,0,2,12,6,4.mid,experiment,1
58,132,29955,67,64,0,2,12,6,4.mid,experiment,1
59,134,30269,67,64,0,2,12,6,4.mid,experiment,1
60,136,30770,71,64,0,2,12,6,4.mid,experiment,1
61,136,,71,,0,2,12,6,4.mid,experiment,1
62,138,31045,72,64,0,2,12,6,4.mid,experiment,1
63,140,31320,72,64,0,2,12,6,4.mid,experiment,1
64,142,31605,73,64,0,2,12,6,4.mid,experiment,1
65,144,31890,73,64,0,2,12,6,4.mid,experiment,1
66,146,32473,74,64,0,2,12,6,4.mid,experiment,1
67,148,33096,77,64,0,2,12,6,4.mid,experiment,1
68,150,33674,76,64,0,2,12,6,4.mid,experiment,1
69,152,34221,74,64,0,2,12,6,4.mid,experiment,1
70,154,34738,72,64,0,2,12,6,4.mid,experiment,1
71,156,35279,84,64,0,2,12,6,4.mid,experiment,1
72,158,36082,84,64,0,2,12,6,4.mid,experiment,1
1,19,8511,79,64,0,2,12,15,14.mid,experiment,1
2,21,8886,78,64,0,2,12,15,14.mid,experiment,1
3,23,9354,79,64,0,2,12,15,14.mid,experiment,1
4,25,9822,76,64,0,2,12,15,14.mid,experiment,1
5,26,9964,72,64,0,2,12,15,14.mid,experiment,1
6,28,10208,67,64,0,2,12,15,14.mid,experiment,1
7,30,10535,67,64,0,2,12,15,14.mid,experiment,1
8,32,10852,67,64,0,2,12,15,14.mid,experiment,1
9,35,11710,79,64,0,2,12,15,14.mid,experiment,1
10,37,12020,78,64,0,2,12,15,14.mid,experiment,1
11,39,12452,79,64,0,2,12,15,14.mid,experiment,1
12,41,12689,76,64,0,2,12,15,14.mid,experiment,1
13,43,13098,72,64,0,2,12,15,14.mid,experiment,1
14,45,13384,76,64,0,2,12,15,14.mid,experiment,1
15,47,13681,79,64,0,2,12,15,14.mid,experiment,1
16,49,14104,84,64,0,2,12,15,14.mid,experiment,1
17,50,14302,83,64,0,2,12,15,14.mid,experiment,1
18,52,14402,81,64,0,2,12,15,14.mid,experiment,1
19,54,14670,81,64,0,2,12,15,14.mid,experiment,1
20,56,14963,81,64,0,2,12,15,14.mid,experiment,1
21,59,15743,83,64,0,2,12,15,14.mid,experiment,1
22,61,16053,81,64,0,2,12,15,14.mid,experiment,1
23,63,16403,84,64,0,2,12,15,14.mid,experiment,1
24,65,16668,81,64,0,2,12,15,14.mid,experiment,1
25,66,16973,78,64,0,2,12,15,14.mid,experiment,1
26,68,17015,79,64,0,2,12,15,14.mid,experiment,1
27,70,17482,79,64,0,2,12,15,14.mid,experiment,1
28,72,18621,79,64,0,2,12,15,14.mid,experiment,1
29,74,19144,77,64,0,2,12,15,14.mid,experiment,1
30,76,19437,77,64,0,2,12,15,14.mid,experiment,1
31,78,19706,76,64,0,2,12,15,14.mid,experiment,1
32,80,19993,76,64,0,2,12,15,14.mid,experiment,1
33,82,21033,74,64,0,2,12,15,14.mid,experiment,1
34,84,21776,79,64,0,2,12,15,14.mid,experiment,1
35,86,22384,77,64,0,2,12,15,14.mid,experiment,1
36,88,22735,76,64,0,2,12,15,14.mid,experiment,1
37,90,22998,76,64,0,2,12,15,14.mid,experiment,1
38,92,23267,76,64,0,2,12,15,14.mid,experiment,1
39,94,23519,76,64,0,2,12,15,14.mid,experiment,1
40,97,24269,81,64,0,2,12,15,14.mid,experiment,1
41,99,24575,77,64,0,2,12,15,14.mid,experiment,1
42,101,24823,76,64,0,2,12,15,14.mid,experiment,1
43,103,25163,74,64,0,2,12,15,14.mid,experiment,1
44,105,25477,76,64,0,2,12,15,14.mid,experiment,1
45,107,25784,79,64,0,2,12,15,14.mid,experiment,1
46,109,26058,74,64,0,2,12,15,14.mid,experiment,1
47,110,26336,71,64,0,2,12,15,14.mid,experiment,1
48,112,26401,72,64,0,2,12,15,14.mid,experiment,1
49,114,26685,72,64,0,2,12,15,14.mid,experiment,1
50,116,26947,74,64,0,2,12,15,14.mid,experiment,1
51,118,27213,74,64,0,2,12,15,14.mid,experiment,1
52,120,28071,76,64,0,2,12,15,14.mid,experiment,1
53,122,28551,65,64,0,2,12,15,14.mid,experiment,1
54,124,28794,65,64,0,2,12,15,14.mid,experiment,1
55,126,29382,64,64,0,2,12,15,14.mid,experiment,1
56,126,,64,,0,2,12,15,14.mid,experiment,1
57,128,30267,62,64,0,2,12,15,14.mid,experiment,1
58,130,30713,67,64,0,2,12,15,14.mid,experiment,1
59,132,30960,67,64,0,2,12,15,14.mid,experiment,1
60,134,31205,71,64,0,2,12,15,14.mid,experiment,1
61,136,31464,71,64,0,2,12,15,14.mid,experiment,1
62,138,31761,72,64,0,2,12,15,14.mid,experiment,1
63,140,31987,72,64,0,2,12,15,14.mid,experiment,1
64,142,32292,73,64,0,2,12,15,14.mid,experiment,1
65,144,32544,73,64,0,2,12,15,14.mid,experiment,1
66,146,33059,74,64,0,2,12,15,14.mid,experiment,1
67,148,33624,77,64,0,2,12,15,14.mid,experiment,1
68,150,34156,76,64,0,2,12,15,14.mid,experiment,1
69,152,34671,74,64,0,2,12,15,14.mid,experiment,1
70,154,35203,72,64,0,2,12,15,14.mid,experiment,1
71,156,35748,84,64,0,2,12,15,14.mid,experiment,1
72,158,36489,84,64,0,2,12,15,14.mid,experiment,1
1,19,8211,79,64,0,2,13,8,15.mid,experiment,1
2,21,8484,78,64,0,2,13,8,15.mid,experiment,1
3,23,8739,79,64,0,2,13,8,15.mid,experiment,1
4,25,9008,76,64,0,2,13,8,15.mid,experiment,1
5,26,9060,72,64,0,2,13,8,15.mid,experiment,1
6,28,9311,67,64,0,2,13,8,15.mid,experiment,1
7,30,9562,67,64,0,2,13,8,15.mid,experiment,1
8,32,9811,67,64,0,2,13,8,15.mid,experiment,1
9,35,10425,79,64,0,2,13,8,15.mid,experiment,1
10,37,10679,78,64,0,2,13,8,15.mid,experiment,1
11,39,10931,79,64,0,2,13,8,15.mid,experiment,1
12,41,11313,76,64,0,2,13,8,15.mid,experiment,1
13,43,11531,72,64,0,2,13,8,15.mid,experiment,1
14,45,11807,76,64,0,2,13,8,15.mid,experiment,1
15,47,12002,79,64,0,2,13,8,15.mid,experiment,1
16,49,12277,84,64,0,2,13,8,15.mid,experiment,1
17,50,12321,83,64,0,2,13,8,15.mid,experiment,1
18,52,12556,81,64,0,2,13,8,15.mid,experiment,1
19,54,12787,81,64,0,2,13,8,15.mid,experiment,1
20,56,13037,81,64,0,2,13,8,15.mid,experiment,1
21,59,13584,83,64,0,2,13,8,15.mid,experiment,1
22,61,13851,81,64,0,2,13,8,15.mid,experiment,1
23,63,14099,84,64,0,2,13,8,15.mid,experiment,1
24,64,14162,81,64,0,2,13,8,15.mid,experiment,1
25,67,14612,78,64,0,2,13,8,15.mid,experiment,1
26,68,14648,79,64,0,2,13,8,15.mid,experiment,1
27,70,15088,79,64,0,2,13,8,15.mid,experiment,1
28,72,15728,79,64,0,2,13,8,15.mid,experiment,1
29,74,16744,77,64,0,2,13,8,15.mid,experiment,1
30,76,17014,77,64,0,2,13,8,15.mid,experiment,1
31,78,17559,76,64,0,2,13,8,15.mid,experiment,1
32,78,,76,,0,2,13,8,15.mid,experiment,1
33,80,18265,74,64,0,2,13,8,15.mid,experiment,1
34,82,19107,79,64,0,2,13,8,15.mid,experiment,1
35,84,19686,77,64,0,2,13,8,15.mid,experiment,1
36,86,20066,76,64,0,2,13,8,15.mid,experiment,1
37,88,20345,76,64,0,2,13,8,15.mid,experiment,1
38,90,20607,76,64,0,2,13,8,15.mid,experiment,1
39,92,20877,76,64,0,2,13,8,15.mid,experiment,1
40,95,21422,81,64,0,2,13,8,15.mid,experiment,1
41,97,21661,77,64,0,2,13,8,15.mid,experiment,1
42,99,21904,76,64,0,2,13,8,15.mid,experiment,1
43,101,22179,74,64,0,2,13,8,15.mid,experiment,1
44,103,22404,76,64,0,2,13,8,15.mid,experiment,1
45,105,22699,79,64,0,2,13,8,15.mid,experiment,1
46,107,22930,74,64,0,2,13,8,15.mid,experiment,1
47,108,22983,71,64,0,2,13,8,15.mid,experiment,1
48,110,23197,72,64,0,2,13,8,15.mid,experiment,1
49,112,23449,72,64,0,2,13,8,15.mid,experiment,1
50,114,23688,74,64,0,2,13,8,15.mid,experiment,1
51,116,23939,74,64,0,2,13,8,15.mid,experiment,1
52,118,24612,76,64,0,2,13,8,15.mid,experiment,1
53,120,25436,65,64,0,2,13,8,15.mid,experiment,1
54,122,25703,65,64,0,2,13,8,15.mid,experiment,1
55,124,25951,64,64,0,2,13,8,15.mid,experiment,1
56,126,26232,64,64,0,2,13,8,15.mid,experiment,1
57,128,26877,62,64,0,2,13,8,15.mid,experiment,1
58,130,27696,67,64,0,2,13,8,15.mid,experiment,1
59,132,27960,67,64,0,2,13,8,15.mid,experiment,1
60,134,28211,71,64,0,2,13,8,15.mid,experiment,1
61,136,28456,71,64,0,2,13,8,15.mid,experiment,1
62,138,28706,72,64,0,2,13,8,15.mid,experiment,1
63,140,28967,72,64,0,2,13,8,15.mid,experiment,1
64,142,29215,73,64,0,2,13,8,15.mid,experiment,1
65,144,29479,73,64,0,2,13,8,15.mid,experiment,1
66,146,29956,74,64,0,2,13,8,15.mid,experiment,1
67,148,30483,77,64,0,2,13,8,15.mid,experiment,1
68,150,30976,76,64,0,2,13,8,15.mid,experiment,1
69,152,31456,74,64,0,2,13,8,15.mid,experiment,1
70,154,31949,72,64,0,2,13,8,15.mid,experiment,1
71,156,32514,84,64,0,2,13,8,15.mid,experiment,1
72,158,33360,84,64,0,2,13,8,15.mid,experiment,1
1,19,8855,79,64,0,2,15,1,5.mid,experiment,1
2,21,9173,78,64,0,2,15,1,5.mid,experiment,1
3,23,9410,79,64,0,2,15,1,5.mid,experiment,1
4,25,9717,76,64,0,2,15,1,5.mid,experiment,1
5,26,9782,72,64,0,2,15,1,5.mid,experiment,1
6,28,9999,67,64,0,2,15,1,5.mid,experiment,1
7,30,10278,67,64,0,2,15,1,5.mid,experiment,1
8,32,10525,67,64,0,2,15,1,5.mid,experiment,1
9,35,11086,79,64,0,2,15,1,5.mid,experiment,1
10,37,11396,78,64,0,2,15,1,5.mid,experiment,1
11,39,11644,79,64,0,2,15,1,5.mid,experiment,1
12,41,11880,76,64,0,2,15,1,5.mid,experiment,1
13,43,12206,72,64,0,2,15,1,5.mid,experiment,1
14,45,12511,76,64,0,2,15,1,5.mid,experiment,1
15,47,12712,79,64,0,2,15,1,5.mid,experiment,1
16,49,13038,84,64,0,2,15,1,5.mid,experiment,1
17,51,13272,83,64,0,2,15,1,5.mid,experiment,1
18,52,13307,81,64,0,2,15,1,5.mid,experiment,1
19,54,13593,81,64,0,2,15,1,5.mid,experiment,1
20,56,13832,81,64,0,2,15,1,5.mid,experiment,1
21,59,14391,83,64,0,2,15,1,5.mid,experiment,1
22,61,14693,81,64,0,2,15,1,5.mid,experiment,1
23,63,14906,84,64,0,2,15,1,5.mid,experiment,1
24,65,15207,81,64,0,2,15,1,5.mid,experiment,1
25,67,15481,78,64,0,2,15,1,5.mid,experiment,1
26,68,15530,79,64,0,2,15,1,5.mid,experiment,1
27,70,15952,79,64,0,2,15,1,5.mid,experiment,1
28,72,16865,79,64,0,2,15,1,5.mid,experiment,1
29,74,17458,77,64,0,2,15,1,5.mid,experiment,1
30,76,17724,77,64,0,2,15,1,5.mid,experiment,1
31,78,18014,76,64,0,2,15,1,5.mid,experiment,1
32,80,18280,76,64,0,2,15,1,5.mid,experiment,1
33,82,18984,74,64,0,2,15,1,5.mid,experiment,1
34,84,20015,79,64,0,2,15,1,5.mid,experiment,1
35,86,20547,77,64,0,2,15,1,5.mid,experiment,1
36,88,20787,76,64,0,2,15,1,5.mid,experiment,1
37,90,21049,76,64,0,2,15,1,5.mid,experiment,1
38,92,21313,76,64,0,2,15,1,5.mid,experiment,1
39,94,21539,76,64,0,2,15,1,5.mid,experiment,1
40,97,22137,81,64,0,2,15,1,5.mid,experiment,1
41,99,22402,77,64,0,2,15,1,5.mid,experiment,1
42,101,22597,76,64,0,2,15,1,5.mid,experiment,1
43,103,22894,74,64,0,2,15,1,5.mid,experiment,1
44,105,23152,76,64,0,2,15,1,5.mid,experiment,1
45,107,23430,79,64,0,2,15,1,5.mid,experiment,1
46,109,23632,74,64,0,2,15,1,5.mid,experiment,1
47,110,23693,71,64,0,2,15,1,5.mid,experiment,1
48,112,23954,72,64,0,2,15,1,5.mid,experiment,1
49,114,24206,72,64,0,2,15,1,5.mid,experiment,1
50,116,24456,74,64,0,2,15,1,5.mid,experiment,1
51,118,24731,74,64,0,2,15,1,5.mid,experiment,1
52,120,25444,76,64,0,2,15,1,5.mid,experiment,1
53,122,26089,65,64,0,2,15,1,5.mid,experiment,1
54,124,26340,65,64,0,2,15,1,5.mid,experiment,1
55,126,26881,64,64,0,2,15,1,5.mid,experiment,1
56,126,,64,,0,2,15,1,5.mid,experiment,1
57,128,27613,62,64,0,2,15,1,5.mid,experiment,1
58,130,28335,67,64,0,2,15,1,5.mid,experiment,1
59,132,28584,67,64,0,2,15,1,5.mid,experiment,1
60,134,28824,71,64,0,2,15,1,5.mid,experiment,1
61,136,29083,71,64,0,2,15,1,5.mid,experiment,1
62,138,29374,72,64,0,2,15,1,5.mid,experiment,1
63,140,29638,72,64,0,2,15,1,5.mid,experiment,1
64,142,29910,73,64,0,2,15,1,5.mid,experiment,1
65,144,30156,73,64,0,2,15,1,5.mid,experiment,1
66,147,31027,74,64,0,2,15,1,5.mid,experiment,1
67,149,31572,77,64,0,2,15,1,5.mid,experiment,1
68,151,32138,76,64,0,2,15,1,5.mid,experiment,1
69,153,32669,74,64,0,2,15,1,5.mid,experiment,1
70,155,33243,72,64,0,2,15,1,5.mid,experiment,1
71,156,33552,84,64,0,2,15,1,5.mid,experiment,1
72,158,34418,84,64,0,2,15,1,5.mid,experiment,1
1,19,8128,79,64,0,2,16,13,3.mid,experiment,1
2,21,8425,78,64,0,2,16,13,3.mid,experiment,1
3,23,8678,79,64,0,2,16,13,3.mid,experiment,1
4,25,8959,76,64,0,2,16,13,3.mid,experiment,1
5,26,9205,72,64,0,2,16,13,3.mid,experiment,1
6,28,9319,67,64,0,2,16,13,3.mid,experiment,1
7,30,9581,67,64,0,2,16,13,3.mid,experiment,1
8,32,9848,67,64,0,2,16,13,3.mid,experiment,1
9,35,10459,79,64,0,2,16,13,3.mid,experiment,1
10,37,10673,78,64,0,2,16,13,3.mid,experiment,1
11,39,11015,79,64,0,2,16,13,3.mid,experiment,1
12,40,11225,76,64,0,2,16,13,3.mid,experiment,1
13,43,11620,72,64,0,2,16,13,3.mid,experiment,1
14,45,11913,76,64,0,2,16,13,3.mid,experiment,1
15,46,12111,79,64,0,2,16,13,3.mid,experiment,1
16,49,12455,84,64,0,2,16,13,3.mid,experiment,1
17,50,12727,83,64,0,2,16,13,3.mid,experiment,1
18,52,12791,81,64,0,2,16,13,3.mid,experiment,1
19,54,13085,81,64,0,2,16,13,3.mid,experiment,1
20,56,13361,81,64,0,2,16,13,3.mid,experiment,1
21,59,13938,83,64,0,2,16,13,3.mid,experiment,1
22,61,14222,81,64,0,2,16,13,3.mid,experiment,1
23,62,14505,84,64,0,2,16,13,3.mid,experiment,1
24,65,14853,81,64,0,2,16,13,3.mid,experiment,1
25,66,15079,78,64,0,2,16,13,3.mid,experiment,1
26,68,15165,79,64,0,2,16,13,3.mid,experiment,1
27,70,15681,79,64,0,2,16,13,3.mid,experiment,1
28,72,16521,79,64,0,2,16,13,3.mid,experiment,1
29,74,17207,77,64,0,2,16,13,3.mid,experiment,1
30,76,17497,77,64,0,2,16,13,3.mid,experiment,1
31,78,17793,76,64,0,2,16,13,3.mid,experiment,1
32,80,18059,76,64,0,2,16,13,3.mid,experiment,1
33,82,18860,74,64,0,2,16,13,3.mid,experiment,1
34,85,20123,79,64,0,2,16,13,3.mid,experiment,1
35,87,20707,77,64,0,2,16,13,3.mid,experiment,1
36,88,20752,76,64,0,2,16,13,3.mid,experiment,1
37,90,21039,76,64,0,2,16,13,3.mid,experiment,1
38,92,21321,76,64,0,2,16,13,3.mid,experiment,1
39,94,21607,76,64,0,2,16,13,3.mid,experiment,1
40,97,22234,81,64,0,2,16,13,3.mid,experiment,1
41,99,22466,77,64,0,2,16,13,3.mid,experiment,1
42,100,22751,76,64,0,2,16,13,3.mid,experiment,1
43,103,23079,74,64,0,2,16,13,3.mid,experiment,1
44,104,23341,76,64,0,2,16,13,3.mid,experiment,1
45,107,23690,79,64,0,2,16,13,3.mid,experiment,1
46,108,23917,74,64,0,2,16,13,3.mid,experiment,1
47,110,24215,71,64,0,2,16,13,3.mid,experiment,1
48,112,24269,72,64,0,2,16,13,3.mid,experiment,1
49,114,24557,72,64,0,2,16,13,3.mid,experiment,1
50,116,24848,74,64,0,2,16,13,3.mid,experiment,1
51,118,25119,74,64,0,2,16,13,3.mid,experiment,1
52,120,25888,76,64,0,2,16,13,3.mid,experiment,1
53,122,26594,65,64,0,2,16,13,3.mid,experiment,1
54,124,26883,65,64,0,2,16,13,3.mid,experiment,1
55,126,27179,64,64,0,2,16,13,3.mid,experiment,1
56,128,27453,64,64,0,2,16,13,3.mid,experiment,1
57,130,28226,62,64,0,2,16,13,3.mid,experiment,1
58,132,28979,67,64,0,2,16,13,3.mid,experiment,1
59,134,29281,67,64,0,2,16,13,3.mid,experiment,1
60,136,29541,71,64,0,2,16,13,3.mid,experiment,1
61,136,,71,,0,2,16,13,3.mid,experiment,1
62,138,30109,72,64,0,2,16,13,3.mid,experiment,1
63,140,30429,72,64,0,2,16,13,3.mid,experiment,1
64,142,30699,73,64,0,2,16,13,3.mid,experiment,1
65,144,30967,73,64,0,2,16,13,3.mid,experiment,1
66,147,31842,74,64,0,2,16,13,3.mid,experiment,1
67,149,32453,77,64,0,2,16,13,3.mid,experiment,1
68,150,32949,76,64,0,2,16,13,3.mid,experiment,1
69,152,33527,74,64,0,2,16,13,3.mid,experiment,1
70,154,33975,72,64,0,2,16,13,3.mid,experiment,1
71,156,34511,84,64,0,2,16,13,3.mid,experiment,1
72,158,35391,84,64,0,2,16,13,3.mid,experiment,1
1,19,8399,79,64,0,2,17,2,1.mid,experiment,1
2,21,8713,78,64,0,2,17,2,1.mid,experiment,1
3,23,9065,79,64,0,2,17,2,1.mid,experiment,1
4,25,9183,76,64,0,2,17,2,1.mid,experiment,1
5,26,9278,72,64,0,2,17,2,1.mid,experiment,1
6,28,9500,67,64,0,2,17,2,1.mid,experiment,1
7,30,9794,67,64,0,2,17,2,1.mid,experiment,1
8,32,10085,67,64,0,2,17,2,1.mid,experiment,1
9,35,10813,79,64,0,2,17,2,1.mid,experiment,1
10,37,11074,78,64,0,2,17,2,1.mid,experiment,1
11,39,11310,79,64,0,2,17,2,1.mid,experiment,1
12,41,11672,76,64,0,2,17,2,1.mid,experiment,1
13,43,11948,72,64,0,2,17,2,1.mid,experiment,1
14,45,12275,76,64,0,2,17,2,1.mid,experiment,1
15,47,12483,79,64,0,2,17,2,1.mid,experiment,1
16,49,12813,84,64,0,2,17,2,1.mid,experiment,1
17,50,12955,83,64,0,2,17,2,1.mid,experiment,1
18,52,13466,81,64,0,2,17,2,1.mid,experiment,1
19,54,13755,81,64,0,2,17,2,1.mid,experiment,1
20,54,,81,,0,2,17,2,1.mid,experiment,1
21,57,14407,83,64,0,2,17,2,1.mid,experiment,1
22,59,14679,81,64,0,2,17,2,1.mid,experiment,1
23,62,15267,84,64,0,2,17,2,1.mid,experiment,1
24,63,15277,81,64,0,2,17,2,1.mid,experiment,1
25,65,15572,78,64,0,2,17,2,1.mid,experiment,1
26,66,15740,79,64,0,2,17,2,1.mid,experiment,1
27,68,16327,79,64,0,2,17,2,1.mid,experiment,1
28,70,17110,79,64,0,2,17,2,1.mid,experiment,1
29,72,17758,77,64,0,2,17,2,1.mid,experiment,1
30,74,18060,77,64,0,2,17,2,1.mid,experiment,1
31,76,18372,76,64,0,2,17,2,1.mid,experiment,1
32,78,18653,76,64,0,2,17,2,1.mid,experiment,1
33,80,19458,74,64,0,2,17,2,1.mid,experiment,1
34,82,20601,79,64,0,2,17,2,1.mid,experiment,1
35,84,21158,77,64,0,2,17,2,1.mid,experiment,1
36,86,21432,76,64,0,2,17,2,1.mid,experiment,1
37,88,21722,76,64,0,2,17,2,1.mid,experiment,1
38,90,21990,76,64,0,2,17,2,1.mid,experiment,1
39,90,,76,,0,2,17,2,1.mid,experiment,1
40,94,23149,81,64,0,2,17,2,1.mid,experiment,1
41,95,23212,77,64,0,2,17,2,1.mid,experiment,1
42,97,23448,76,64,0,2,17,2,1.mid,experiment,1
43,99,23738,74,64,0,2,17,2,1.mid,experiment,1
44,101,24034,76,64,0,2,17,2,1.mid,experiment,1
45,103,24415,79,64,0,2,17,2,1.mid,experiment,1
46,105,24563,74,64,0,2,17,2,1.mid,experiment,1
47,106,24617,71,64,0,2,17,2,1.mid,experiment,1
48,108,24889,72,64,0,2,17,2,1.mid,experiment,1
49,110,25179,72,64,0,2,17,2,1.mid,experiment,1
50,112,25466,74,64,0,2,17,2,1.mid,experiment,1
51,114,25763,74,64,0,2,17,2,1.mid,experiment,1
52,116,26604,76,64,0,2,17,2,1.mid,experiment,1
53,118,27290,65,64,0,2,17,2,1.mid,experiment,1
54,120,27574,65,64,0,2,17,2,1.mid,experiment,1
55,122,27850,64,64,0,2,17,2,1.mid,experiment,1
56,124,28131,64,64,0,2,17,2,1.mid,experiment,1
57,126,28978,62,64,0,2,17,2,1.mid,experiment,1
58,128,29619,67,64,0,2,17,2,1.mid,experiment,1
59,130,29885,67,64,0,2,17,2,1.mid,experiment,1
60,132,30180,71,64,0,2,17,2,1.mid,experiment,1
61,134,30467,71,64,0,2,17,2,1.mid,experiment,1
62,136,30771,72,64,0,2,17,2,1.mid,experiment,1
63,138,31015,72,64,0,2,17,2,1.mid,experiment,1
64,140,31310,73,64,0,2,17,2,1.mid,experiment,1
65,142,31594,73,64,0,2,17,2,1.mid,experiment,1
66,145,32431,74,64,0,2,17,2,1.mid,experiment,1
67,147,33046,77,64,0,2,17,2,1.mid,experiment,1
68,149,33619,76,64,0,2,17,2,1.mid,experiment,1
69,151,34165,74,64,0,2,17,2,1.mid,experiment,1
70,153,34831,72,64,0,2,17,2,1.mid,experiment,1
71,154,35352,84,64,0,2,17,2,1.mid,experiment,1
72,156,36324,84,64,0,2,17,2,1.mid,experiment,1
1,19,8352,79,64,0,2,17,10,10.mid,experiment,1
2,21,8591,78,64,0,2,17,10,10.mid,experiment,1
3,23,8905,79,64,0,2,17,10,10.mid,experiment,1
4,25,9128,76,64,0,2,17,10,10.mid,experiment,1
5,26,9259,72,64,0,2,17,10,10.mid,experiment,1
6,28,9456,67,64,0,2,17,10,10.mid,experiment,1
7,30,9767,67,64,0,2,17,10,10.mid,experiment,1
8,32,10067,67,64,0,2,17,10,10.mid,experiment,1
9,35,10731,79,64,0,2,17,10,10.mid,experiment,1
10,37,10991,78,64,0,2,17,10,10.mid,experiment,1
11,39,11284,79,64,0,2,17,10,10.mid,experiment,1
12,41,11575,76,64,0,2,17,10,10.mid,experiment,1
13,43,11929,72,64,0,2,17,10,10.mid,experiment,1
14,45,12227,76,64,0,2,17,10,10.mid,experiment,1
15,47,12378,79,64,0,2,17,10,10.mid,experiment,1
16,49,12724,84,64,0,2,17,10,10.mid,experiment,1
17,50,12955,83,64,0,2,17,10,10.mid,experiment,1
18,52,13006,81,64,0,2,17,10,10.mid,experiment,1
19,54,13297,81,64,0,2,17,10,10.mid,experiment,1
20,54,,81,,0,2,17,10,10.mid,experiment,1
21,57,14361,83,64,0,2,17,10,10.mid,experiment,1
22,59,14627,81,64,0,2,17,10,10.mid,experiment,1
23,62,15151,84,64,0,2,17,10,10.mid,experiment,1
24,63,15152,81,64,0,2,17,10,10.mid,experiment,1
25,65,15431,78,64,0,2,17,10,10.mid,experiment,1
26,66,15650,79,64,0,2,17,10,10.mid,experiment,1
27,68,16250,79,64,0,2,17,10,10.mid,experiment,1
28,70,16981,79,64,0,2,17,10,10.mid,experiment,1
29,72,17591,77,64,0,2,17,10,10.mid,experiment,1
30,74,17895,77,64,0,2,17,10,10.mid,experiment,1
31,76,18174,76,64,0,2,17,10,10.mid,experiment,1
32,78,18450,76,64,0,2,17,10,10.mid,experiment,1
33,80,19275,74,64,0,2,17,10,10.mid,experiment,1
34,82,20422,79,64,0,2,17,10,10.mid,experiment,1
35,84,20869,77,64,0,2,17,10,10.mid,experiment,1
36,86,21164,76,64,0,2,17,10,10.mid,experiment,1
37,88,21465,76,64,0,2,17,10,10.mid,experiment,1
38,90,21712,76,64,0,2,17,10,10.mid,experiment,1
39,92,21996,76,64,0,2,17,10,10.mid,experiment,1
40,95,22685,81,64,0,2,17,10,10.mid,experiment,1
41,97,23023,77,64,0,2,17,10,10.mid,experiment,1
42,99,23168,76,64,0,2,17,10,10.mid,experiment,1
43,101,23459,74,64,0,2,17,10,10.mid,experiment,1
44,103,23737,76,64,0,2,17,10,10.mid,experiment,1
45,105,24089,79,64,0,2,17,10,10.mid,experiment,1
46,107,24236,74,64,0,2,17,10,10.mid,experiment,1
47,108,24433,71,64,0,2,17,10,10.mid,experiment,1
48,110,24580,72,64,0,2,17,10,10.mid,experiment,1
49,112,24842,72,64,0,2,17,10,10.mid,experiment,1
50,114,25119,74,64,0,2,17,10,10.mid,experiment,1
51,116,25410,74,64,0,2,17,10,10.mid,experiment,1
52,118,26264,76,64,0,2,17,10,10.mid,experiment,1
53,120,26940,65,64,0,2,17,10,10.mid,experiment,1
54,122,27228,65,64,0,2,17,10,10.mid,experiment,1
55,124,27529,64,64,0,2,17,10,10.mid,experiment,1
56,126,27791,64,64,0,2,17,10,10.mid,experiment,1
57,128,28639,62,64,0,2,17,10,10.mid,experiment,1
58,130,29293,67,64,0,2,17,10,10.mid,experiment,1
59,132,29571,67,64,0,2,17,10,10.mid,experiment,1
60,134,29849,71,64,0,2,17,10,10.mid,experiment,1
61,136,30129,71,64,0,2,17,10,10.mid,experiment,1
62,138,30432,72,64,0,2,17,10,10.mid,experiment,1
63,140,30701,72,64,0,2,17,10,10.mid,experiment,1
64,142,31278,73,64,0,2,17,10,10.mid,experiment,1
65,142,,73,,0,2,17,10,10.mid,experiment,1
66,145,32092,74,64,0,2,17,10,10.mid,experiment,1
67,147,32694,77,64,0,2,17,10,10.mid,experiment,1
68,149,33274,76,64,0,2,17,10,10.mid,experiment,1
69,151,33829,74,64,0,2,17,10,10.mid,experiment,1
70,153,34430,72,64,0,2,17,10,10.mid,experiment,1
71,154,34939,84,64,0,2,17,10,10.mid,experiment,1
72,156,35755,84,64,0,2,17,10,10.mid,experiment,1
1,19,8359,79,64,0,2,17,11,6.mid,experiment,1
2,21,8621,78,64,0,2,17,11,6.mid,experiment,1
3,23,8932,79,64,0,2,17,11,6.mid,experiment,1
4,25,9136,76,64,0,2,17,11,6.mid,experiment,1
5,26,9289,72,64,0,2,17,11,6.mid,experiment,1
6,28,9389,67,64,0,2,17,11,6.mid,experiment,1
7,30,9675,67,64,0,2,17,11,6.mid,experiment,1
8,32,9963,67,64,0,2,17,11,6.mid,experiment,1
9,35,10645,79,64,0,2,17,11,6.mid,experiment,1
10,37,10921,78,64,0,2,17,11,6.mid,experiment,1
11,39,11267,79,64,0,2,17,11,6.mid,experiment,1
12,41,11481,76,64,0,2,17,11,6.mid,experiment,1
13,43,11829,72,64,0,2,17,11,6.mid,experiment,1
14,45,12109,76,64,0,2,17,11,6.mid,experiment,1
15,47,12265,79,64,0,2,17,11,6.mid,experiment,1
16,49,12647,84,64,0,2,17,11,6.mid,experiment,1
17,50,12805,83,64,0,2,17,11,6.mid,experiment,1
18,52,12867,81,64,0,2,17,11,6.mid,experiment,1
19,54,13161,81,64,0,2,17,11,6.mid,experiment,1
20,56,13460,81,64,0,2,17,11,6.mid,experiment,1
21,59,14097,83,64,0,2,17,11,6.mid,experiment,1
22,61,14366,81,64,0,2,17,11,6.mid,experiment,1
23,63,14758,84,64,0,2,17,11,6.mid,experiment,1
24,65,14910,81,64,0,2,17,11,6.mid,experiment,1
25,67,15176,78,64,0,2,17,11,6.mid,experiment,1
26,68,15364,79,64,0,2,17,11,6.mid,experiment,1
27,70,15933,79,64,0,2,17,11,6.mid,experiment,1
28,72,16609,79,64,0,2,17,11,6.mid,experiment,1
29,74,17281,77,64,0,2,17,11,6.mid,experiment,1
30,76,17569,77,64,0,2,17,11,6.mid,experiment,1
31,78,17847,76,64,0,2,17,11,6.mid,experiment,1
32,80,18125,76,64,0,2,17,11,6.mid,experiment,1
33,82,18927,74,64,0,2,17,11,6.mid,experiment,1
34,84,20103,79,64,0,2,17,11,6.mid,experiment,1
35,86,20497,77,64,0,2,17,11,6.mid,experiment,1
36,88,20785,76,64,0,2,17,11,6.mid,experiment,1
37,90,21061,76,64,0,2,17,11,6.mid,experiment,1
38,92,21340,76,64,0,2,17,11,6.mid,experiment,1
39,94,21629,76,64,0,2,17,11,6.mid,experiment,1
40,97,22345,81,64,0,2,17,11,6.mid,experiment,1
41,99,22593,77,64,0,2,17,11,6.mid,experiment,1
42,101,22821,76,64,0,2,17,11,6.mid,experiment,1
43,103,23093,74,64,0,2,17,11,6.mid,experiment,1
44,105,23369,76,64,0,2,17,11,6.mid,experiment,1
45,107,23661,79,64,0,2,17,11,6.mid,experiment,1
46,108,23865,74,64,0,2,17,11,6.mid,experiment,1
47,110,23903,71,64,0,2,17,11,6.mid,experiment,1
48,112,24181,72,64,0,2,17,11,6.mid,experiment,1
49,114,24467,72,64,0,2,17,11,6.mid,experiment,1
50,116,24743,74,64,0,2,17,11,6.mid,experiment,1
51,118,25023,74,64,0,2,17,11,6.mid,experiment,1
52,120,25880,76,64,0,2,17,11,6.mid,experiment,1
53,122,26535,65,64,0,2,17,11,6.mid,experiment,1
54,124,26813,65,64,0,2,17,11,6.mid,experiment,1
55,126,27091,64,64,0,2,17,11,6.mid,experiment,1
56,128,27389,64,64,0,2,17,11,6.mid,experiment,1
57,130,28307,62,64,0,2,17,11,6.mid,experiment,1
58,132,28918,67,64,0,2,17,11,6.mid,experiment,1
59,134,29191,67,64,0,2,17,11,6.mid,experiment,1
60,136,29465,71,64,0,2,17,11,6.mid,experiment,1
61,138,29741,71,64,0,2,17,11,6.mid,experiment,1
62,140,30017,72,64,0,2,17,11,6.mid,experiment,1
63,142,30287,72,64,0,2,17,11,6.mid,experiment,1
64,144,30591,73,64,0,2,17,11,6.mid,experiment,1
65,144,,73,,0,2,17,11,6.mid,experiment,1
66,147,31763,74,64,0,2,17,11,6.mid,experiment,1
67,149,32333,77,64,0,2,17,11,6.mid,experiment,1
68,151,32916,76,64,0,2,17,11,6.mid,experiment,1
69,153,33486,74,64,0,2,17,11,6.mid,experiment,1
70,155,34123,72,64,0,2,17,11,6.mid,experiment,1
71,156,34654,84,64,0,2,17,11,6.mid,experiment,1
72,158,35533,84,64,0,2,17,11,6.mid,experiment,1
1,19,8365,79,64,0,2,17,12,2.mid,experiment,1
2,21,8626,78,64,0,2,17,12,2.mid,experiment,1
3,23,8864,79,64,0,2,17,12,2.mid,experiment,1
4,25,9134,76,64,0,2,17,12,2.mid,experiment,1
5,26,9266,72,64,0,2,17,12,2.mid,experiment,1
6,28,9454,67,64,0,2,17,12,2.mid,experiment,1
7,30,9773,67,64,0,2,17,12,2.mid,experiment,1
8,32,10045,67,64,0,2,17,12,2.mid,experiment,1
9,35,10716,79,64,0,2,17,12,2.mid,experiment,1
10,37,10976,78,64,0,2,17,12,2.mid,experiment,1
11,39,11267,79,64,0,2,17,12,2.mid,experiment,1
12,41,11544,76,64,0,2,17,12,2.mid,experiment,1
13,43,11832,72,64,0,2,17,12,2.mid,experiment,1
14,45,12207,76,64,0,2,17,12,2.mid,experiment,1
15,47,12327,79,64,0,2,17,12,2.mid,experiment,1
16,49,12652,84,64,0,2,17,12,2.mid,experiment,1
17,50,12847,83,64,0,2,17,12,2.mid,experiment,1
18,52,12936,81,64,0,2,17,12,2.mid,experiment,1
19,54,13230,81,64,0,2,17,12,2.mid,experiment,1
20,56,13540,81,64,0,2,17,12,2.mid,experiment,1
21,59,14224,83,64,0,2,17,12,2.mid,experiment,1
22,61,14472,81,64,0,2,17,12,2.mid,experiment,1
23,64,15016,84,64,0,2,17,12,2.mid,experiment,1
24,65,15018,81,64,0,2,17,12,2.mid,experiment,1
25,67,15294,78,64,0,2,17,12,2.mid,experiment,1
26,68,15492,79,64,0,2,17,12,2.mid,experiment,1
27,70,16098,79,64,0,2,17,12,2.mid,experiment,1
28,72,16802,79,64,0,2,17,12,2.mid,experiment,1
29,74,17502,77,64,0,2,17,12,2.mid,experiment,1
30,76,17781,77,64,0,2,17,12,2.mid,experiment,1
31,78,18058,76,64,0,2,17,12,2.mid,experiment,1
32,80,18368,76,64,0,2,17,12,2.mid,experiment,1
33,82,19144,74,64,0,2,17,12,2.mid,experiment,1
34,84,20332,79,64,0,2,17,12,2.mid,experiment,1
35,86,20748,77,64,0,2,17,12,2.mid,experiment,1
36,88,21037,76,64,0,2,17,12,2.mid,experiment,1
37,90,21322,76,64,0,2,17,12,2.mid,experiment,1
38,92,21616,76,64,0,2,17,12,2.mid,experiment,1
39,94,21882,76,64,0,2,17,12,2.mid,experiment,1
40,98,22753,81,64,0,2,17,12,2.mid,experiment,1
41,99,22894,77,64,0,2,17,12,2.mid,experiment,1
42,101,23044,76,64,0,2,17,12,2.mid,experiment,1
43,103,23348,74,64,0,2,17,12,2.mid,experiment,1
44,105,23597,76,64,0,2,17,12,2.mid,experiment,1
45,107,23910,79,64,0,2,17,12,2.mid,experiment,1
46,109,24121,74,64,0,2,17,12,2.mid,experiment,1
47,110,24207,71,64,0,2,17,12,2.mid,experiment,1
48,112,24473,72,64,0,2,17,12,2.mid,experiment,1
49,114,24746,72,64,0,2,17,12,2.mid,experiment,1
50,116,25010,74,64,0,2,17,12,2.mid,experiment,1
51,118,25283,74,64,0,2,17,12,2.mid,experiment,1
52,120,26094,76,64,0,2,17,12,2.mid,experiment,1
53,122,26782,65,64,0,2,17,12,2.mid,experiment,1
54,124,27063,65,64,0,2,17,12,2.mid,experiment,1
55,126,27375,64,64,0,2,17,12,2.mid,experiment,1
56,128,27644,64,64,0,2,17,12,2.mid,experiment,1
57,130,28503,62,64,0,2,17,12,2.mid,experiment,1
58,132,29124,67,64,0,2,17,12,2.mid,experiment,1
59,134,29389,67,64,0,2,17,12,2.mid,experiment,1
60,136,29944,71,64,0,2,17,12,2.mid,experiment,1
61,136,,71,,0,2,17,12,2.mid,experiment,1
62,138,30207,72,64,0,2,17,12,2.mid,experiment,1
63,140,30491,72,64,0,2,17,12,2.mid,experiment,1
64,142,30771,73,64,0,2,17,12,2.mid,experiment,1
65,144,31063,73,64,0,2,17,12,2.mid,experiment,1
66,147,31843,74,64,0,2,17,12,2.mid,experiment,1
67,149,32425,77,64,0,2,17,12,2.mid,experiment,1
68,151,32973,76,64,0,2,17,12,2.mid,experiment,1
69,153,33547,74,64,0,2,17,12,2.mid,experiment,1
70,155,34125,72,64,0,2,17,12,2.mid,experiment,1
71,156,34662,84,64,0,2,17,12,2.mid,experiment,1
72,158,35483,84,64,0,2,17,12,2.mid,experiment,1
1,19,8226,79,64,0,2,18,1,15.mid,experiment,1
2,21,8510,78,64,0,2,18,1,15.mid,experiment,1
3,23,8801,79,64,0,2,18,1,15.mid,experiment,1
4,25,9070,76,64,0,2,18,1,15.mid,experiment,1
5,26,9133,72,64,0,2,18,1,15.mid,experiment,1
6,28,9427,67,64,0,2,18,1,15.mid,experiment,1
7,30,9713,67,64,0,2,18,1,15.mid,experiment,1
8,32,10044,67,64,0,2,18,1,15.mid,experiment,1
9,35,10616,79,64,0,2,18,1,15.mid,experiment,1
10,37,10880,78,64,0,2,18,1,15.mid,experiment,1
11,39,11207,79,64,0,2,18,1,15.mid,experiment,1
12,41,11430,76,64,0,2,18,1,15.mid,experiment,1
13,43,11822,72,64,0,2,18,1,15.mid,experiment,1
14,45,12082,76,64,0,2,18,1,15.mid,experiment,1
15,47,12308,79,64,0,2,18,1,15.mid,experiment,1
16,49,12631,84,64,0,2,18,1,15.mid,experiment,1
17,50,12673,83,64,0,2,18,1,15.mid,experiment,1
18,52,12908,81,64,0,2,18,1,15.mid,experiment,1
19,54,13182,81,64,0,2,18,1,15.mid,experiment,1
20,56,13439,81,64,0,2,18,1,15.mid,experiment,1
21,59,14005,83,64,0,2,18,1,15.mid,experiment,1
22,61,14294,81,64,0,2,18,1,15.mid,experiment,1
23,63,14538,84,64,0,2,18,1,15.mid,experiment,1
24,65,14885,81,64,0,2,18,1,15.mid,experiment,1
25,67,15151,78,64,0,2,18,1,15.mid,experiment,1
26,68,15212,79,64,0,2,18,1,15.mid,experiment,1
27,70,15815,79,64,0,2,18,1,15.mid,experiment,1
28,72,16667,79,64,0,2,18,1,15.mid,experiment,1
29,74,17134,77,64,0,2,18,1,15.mid,experiment,1
30,76,17416,77,64,0,2,18,1,15.mid,experiment,1
31,78,17730,76,64,0,2,18,1,15.mid,experiment,1
32,80,18010,76,64,0,2,18,1,15.mid,experiment,1
33,82,18822,74,64,0,2,18,1,15.mid,experiment,1
34,84,19813,79,64,0,2,18,1,15.mid,experiment,1
35,86,20320,77,64,0,2,18,1,15.mid,experiment,1
36,88,20661,76,64,0,2,18,1,15.mid,experiment,1
37,90,20922,76,64,0,2,18,1,15.mid,experiment,1
38,92,21197,76,64,0,2,18,1,15.mid,experiment,1
39,94,21475,76,64,0,2,18,1,15.mid,experiment,1
40,97,22068,81,64,0,2,18,1,15.mid,experiment,1
41,99,22328,77,64,0,2,18,1,15.mid,experiment,1
42,101,22582,76,64,0,2,18,1,15.mid,experiment,1
43,103,22920,74,64,0,2,18,1,15.mid,experiment,1
44,105,23139,76,64,0,2,18,1,15.mid,experiment,1
45,107,23440,79,64,0,2,18,1,15.mid,experiment,1
46,109,23640,74,64,0,2,18,1,15.mid,experiment,1
47,110,23890,71,64,0,2,18,1,15.mid,experiment,1
48,112,23962,72,64,0,2,18,1,15.mid,experiment,1
49,112,,72,,0,2,18,1,15.mid,experiment,1
50,114,24509,74,64,0,2,18,1,15.mid,experiment,1
51,116,24797,74,64,0,2,18,1,15.mid,experiment,1
52,118,25572,76,64,0,2,18,1,15.mid,experiment,1
53,120,26128,65,64,0,2,18,1,15.mid,experiment,1
54,122,26444,65,64,0,2,18,1,15.mid,experiment,1
55,124,26680,64,64,0,2,18,1,15.mid,experiment,1
56,126,26962,64,64,0,2,18,1,15.mid,experiment,1
57,128,27580,62,64,0,2,18,1,15.mid,experiment,1
58,130,28404,67,64,0,2,18,1,15.mid,experiment,1
59,132,28653,67,64,0,2,18,1,15.mid,experiment,1
60,134,28941,71,64,0,2,18,1,15.mid,experiment,1
61,136,29196,71,64,0,2,18,1,15.mid,experiment,1
62,138,29456,72,64,0,2,18,1,15.mid,experiment,1
63,140,29747,72,64,0,2,18,1,15.mid,experiment,1
64,142,30001,73,64,0,2,18,1,15.mid,experiment,1
65,144,30251,73,64,0,2,18,1,15.mid,experiment,1
66,146,30970,74,64,0,2,18,1,15.mid,experiment,1
67,148,31558,77,64,0,2,18,1,15.mid,experiment,1
68,150,32122,76,64,0,2,18,1,15.mid,experiment,1
69,152,32639,74,64,0,2,18,1,15.mid,experiment,1
70,154,33264,72,64,0,2,18,1,15.mid,experiment,1
71,156,33915,84,64,0,2,18,1,15.mid,experiment,1
72,158,34781,84,64,0,2,18,1,15.mid,experiment,1
1,19,8151,79,64,0,2,18,5,14.mid,experiment,1
2,21,8422,78,64,0,2,18,5,14.mid,experiment,1
3,23,8665,79,64,0,2,18,5,14.mid,experiment,1
4,25,8937,76,64,0,2,18,5,14.mid,experiment,1
5,26,9008,72,64,0,2,18,5,14.mid,experiment,1
6,28,9242,67,64,0,2,18,5,14.mid,experiment,1
7,30,9524,67,64,0,2,18,5,14.mid,experiment,1
8,32,9775,67,64,0,2,18,5,14.mid,experiment,1
9,35,10328,79,64,0,2,18,5,14.mid,experiment,1
10,37,10600,78,64,0,2,18,5,14.mid,experiment,1
11,39,10894,79,64,0,2,18,5,14.mid,experiment,1
12,40,11072,76,64,0,2,18,5,14.mid,experiment,1
13,43,11445,72,64,0,2,18,5,14.mid,experiment,1
14,45,11678,76,64,0,2,18,5,14.mid,experiment,1
15,47,11901,79,64,0,2,18,5,14.mid,experiment,1
16,49,12232,84,64,0,2,18,5,14.mid,experiment,1
17,50,12356,83,64,0,2,18,5,14.mid,experiment,1
18,52,12455,81,64,0,2,18,5,14.mid,experiment,1
19,54,12748,81,64,0,2,18,5,14.mid,experiment,1
20,56,12995,81,64,0,2,18,5,14.mid,experiment,1
21,59,13504,83,64,0,2,18,5,14.mid,experiment,1
22,61,13786,81,64,0,2,18,5,14.mid,experiment,1
23,62,14003,84,64,0,2,18,5,14.mid,experiment,1
24,65,14361,81,64,0,2,18,5,14.mid,experiment,1
25,67,14630,78,64,0,2,18,5,14.mid,experiment,1
26,68,14714,79,64,0,2,18,5,14.mid,experiment,1
27,70,15254,79,64,0,2,18,5,14.mid,experiment,1
28,72,16048,79,64,0,2,18,5,14.mid,experiment,1
29,74,16504,77,64,0,2,18,5,14.mid,experiment,1
30,76,16766,77,64,0,2,18,5,14.mid,experiment,1
31,78,17031,76,64,0,2,18,5,14.mid,experiment,1
32,80,17304,76,64,0,2,18,5,14.mid,experiment,1
33,82,18139,74,64,0,2,18,5,14.mid,experiment,1
34,84,19068,79,64,0,2,18,5,14.mid,experiment,1
35,86,19551,77,64,0,2,18,5,14.mid,experiment,1
36,88,19844,76,64,0,2,18,5,14.mid,experiment,1
37,90,20094,76,64,0,2,18,5,14.mid,experiment,1
38,92,20355,76,64,0,2,18,5,14.mid,experiment,1
39,94,20631,76,64,0,2,18,5,14.mid,experiment,1
40,97,21155,81,64,0,2,18,5,14.mid,experiment,1
41,99,21390,77,64,0,2,18,5,14.mid,experiment,1
42,101,21619,76,64,0,2,18,5,14.mid,experiment,1
43,103,21931,74,64,0,2,18,5,14.mid,experiment,1
44,105,22181,76,64,0,2,18,5,14.mid,experiment,1
45,107,22455,79,64,0,2,18,5,14.mid,experiment,1
46,109,22641,74,64,0,2,18,5,14.mid,experiment,1
47,110,22897,71,64,0,2,18,5,14.mid,experiment,1
48,112,22992,72,64,0,2,18,5,14.mid,experiment,1
49,114,23217,72,64,0,2,18,5,14.mid,experiment,1
50,116,23481,74,64,0,2,18,5,14.mid,experiment,1
51,118,23755,74,64,0,2,18,5,14.mid,experiment,1
52,120,24535,76,64,0,2,18,5,14.mid,experiment,1
53,122,25157,65,64,0,2,18,5,14.mid,experiment,1
54,124,25395,65,64,0,2,18,5,14.mid,experiment,1
55,126,25915,64,64,0,2,18,5,14.mid,experiment,1
56,126,,64,,0,2,18,5,14.mid,experiment,1
57,128,26749,62,64,0,2,18,5,14.mid,experiment,1
58,130,27280,67,64,0,2,18,5,14.mid,experiment,1
59,132,27538,67,64,0,2,18,5,14.mid,experiment,1
60,134,27792,71,64,0,2,18,5,14.mid,experiment,1
61,136,28091,71,64,0,2,18,5,14.mid,experiment,1
62,138,28312,72,64,0,2,18,5,14.mid,experiment,1
63,140,28603,72,64,0,2,18,5,14.mid,experiment,1
64,142,28836,73,64,0,2,18,5,14.mid,experiment,1
65,144,29097,73,64,0,2,18,5,14.mid,experiment,1
66,146,29835,74,64,0,2,18,5,14.mid,experiment,1
67,148,30402,77,64,0,2,18,5,14.mid,experiment,1
68,150,30926,76,64,0,2,18,5,14.mid,experiment,1
69,152,31424,74,64,0,2,18,5,14.mid,experiment,1
70,154,31930,72,64,0,2,18,5,14.mid,experiment,1
71,156,32519,84,64,0,2,18,5,14.mid,experiment,1
72,158,33386,84,64,0,2,18,5,14.mid,experiment,1
1,19,8192,79,64,0,2,18,9,11.mid,experiment,1
2,21,8478,78,64,0,2,18,9,11.mid,experiment,1
3,23,8746,79,64,0,2,18,9,11.mid,experiment,1
4,25,9013,76,64,0,2,18,9,11.mid,experiment,1
5,26,9067,72,64,0,2,18,9,11.mid,experiment,1
6,28,9306,67,64,0,2,18,9,11.mid,experiment,1
7,30,9584,67,64,0,2,18,9,11.mid,experiment,1
8,32,9829,67,64,0,2,18,9,11.mid,experiment,1
9,35,10408,79,64,0,2,18,9,11.mid,experiment,1
10,37,10688,78,64,0,2,18,9,11.mid,experiment,1
11,39,10974,79,64,0,2,18,9,11.mid,experiment,1
12,41,11202,76,64,0,2,18,9,11.mid,experiment,1
13,43,11544,72,64,0,2,18,9,11.mid,experiment,1
14,45,11816,76,64,0,2,18,9,11.mid,experiment,1
15,47,12040,79,64,0,2,18,9,11.mid,experiment,1
16,49,12374,84,64,0,2,18,9,11.mid,experiment,1
17,50,12433,83,64,0,2,18,9,11.mid,experiment,1
18,52,12634,81,64,0,2,18,9,11.mid,experiment,1
19,54,12902,81,64,0,2,18,9,11.mid,experiment,1
20,56,13140,81,64,0,2,18,9,11.mid,experiment,1
21,59,13695,83,64,0,2,18,9,11.mid,experiment,1
22,61,13975,81,64,0,2,18,9,11.mid,experiment,1
23,63,14207,84,64,0,2,18,9,11.mid,experiment,1
24,64,14404,81,64,0,2,18,9,11.mid,experiment,1
25,66,14670,78,64,0,2,18,9,11.mid,experiment,1
26,68,14803,79,64,0,2,18,9,11.mid,experiment,1
27,70,15387,79,64,0,2,18,9,11.mid,experiment,1
28,72,16201,79,64,0,2,18,9,11.mid,experiment,1
29,74,16723,77,64,0,2,18,9,11.mid,experiment,1
30,76,16988,77,64,0,2,18,9,11.mid,experiment,1
31,78,17539,76,64,0,2,18,9,11.mid,experiment,1
32,78,,76,,0,2,18,9,11.mid,experiment,1
33,80,18372,74,64,0,2,18,9,11.mid,experiment,1
34,82,19321,79,64,0,2,18,9,11.mid,experiment,1
35,84,19743,77,64,0,2,18,9,11.mid,experiment,1
36,86,20104,76,64,0,2,18,9,11.mid,experiment,1
37,88,20386,76,64,0,2,18,9,11.mid,experiment,1
38,90,20631,76,64,0,2,18,9,11.mid,experiment,1
39,92,20900,76,64,0,2,18,9,11.mid,experiment,1
40,95,21411,81,64,0,2,18,9,11.mid,experiment,1
41,97,21671,77,64,0,2,18,9,11.mid,experiment,1
42,99,21922,76,64,0,2,18,9,11.mid,experiment,1
43,101,22228,74,64,0,2,18,9,11.mid,experiment,1
44,103,22448,76,64,0,2,18,9,11.mid,experiment,1
45,105,22729,79,64,0,2,18,9,11.mid,experiment,1
46,107,22929,74,64,0,2,18,9,11.mid,experiment,1
47,109,23190,71,64,0,2,18,9,11.mid,experiment,1
48,110,23229,72,64,0,2,18,9,11.mid,experiment,1
49,112,23483,72,64,0,2,18,9,11.mid,experiment,1
50,114,23736,74,64,0,2,18,9,11.mid,experiment,1
51,116,24014,74,64,0,2,18,9,11.mid,experiment,1
52,118,24892,76,64,0,2,18,9,11.mid,experiment,1
53,120,25347,65,64,0,2,18,9,11.mid,experiment,1
54,122,25610,65,64,0,2,18,9,11.mid,experiment,1
55,124,25897,64,64,0,2,18,9,11.mid,experiment,1
56,124,,64,,0,2,18,9,11.mid,experiment,1
57,126,26989,62,64,0,2,18,9,11.mid,experiment,1
58,128,27483,67,64,0,2,18,9,11.mid,experiment,1
59,130,27810,67,64,0,2,18,9,11.mid,experiment,1
60,132,28018,71,64,0,2,18,9,11.mid,experiment,1
61,134,28291,71,64,0,2,18,9,11.mid,experiment,1
62,136,28546,72,64,0,2,18,9,11.mid,experiment,1
63,138,28800,72,64,0,2,18,9,11.mid,experiment,1
64,140,29060,73,64,0,2,18,9,11.mid,experiment,1
65,142,29344,73,64,0,2,18,9,11.mid,experiment,1
66,144,30063,74,64,0,2,18,9,11.mid,experiment,1
67,146,30629,77,64,0,2,18,9,11.mid,experiment,1
68,149,31230,76,64,0,2,18,9,11.mid,experiment,1
69,150,31674,74,64,0,2,18,9,11.mid,experiment,1
70,152,32217,72,64,0,2,18,9,11.mid,experiment,1
71,154,32750,84,64,0,2,18,9,11.mid,experiment,1
72,156,33440,84,64,0,2,18,9,11.mid,experiment,1
1,19,8171,79,64,0,2,18,11,5.mid,experiment,1
2,21,8440,78,64,0,2,18,11,5.mid,experiment,1
3,23,8709,79,64,0,2,18,11,5.mid,experiment,1
4,25,9020,76,64,0,2,18,11,5.mid,experiment,1
5,26,9055,72,64,0,2,18,11,5.mid,experiment,1
6,28,9290,67,64,0,2,18,11,5.mid,experiment,1
7,30,9564,67,64,0,2,18,11,5.mid,experiment,1
8,32,9816,67,64,0,2,18,11,5.mid,experiment,1
9,35,10377,79,64,0,2,18,11,5.mid,experiment,1
10,37,10664,78,64,0,2,18,11,5.mid,experiment,1
11,39,10956,79,64,0,2,18,11,5.mid,experiment,1
12,41,11184,76,64,0,2,18,11,5.mid,experiment,1
13,43,11516,72,64,0,2,18,11,5.mid,experiment,1
14,45,11765,76,64,0,2,18,11,5.mid,experiment,1
15,47,11971,79,64,0,2,18,11,5.mid,experiment,1
16,49,12296,84,64,0,2,18,11,5.mid,experiment,1
17,50,12321,83,64,0,2,18,11,5.mid,experiment,1
18,52,12549,81,64,0,2,18,11,5.mid,experiment,1
19,54,12803,81,64,0,2,18,11,5.mid,experiment,1
20,56,13087,81,64,0,2,18,11,5.mid,experiment,1
21,59,13621,83,64,0,2,18,11,5.mid,experiment,1
22,61,13871,81,64,0,2,18,11,5.mid,experiment,1
23,63,14110,84,64,0,2,18,11,5.mid,experiment,1
24,64,14348,81,64,0,2,18,11,5.mid,experiment,1
25,67,14642,78,64,0,2,18,11,5.mid,experiment,1
26,68,14720,79,64,0,2,18,11,5.mid,experiment,1
27,70,15283,79,64,0,2,18,11,5.mid,experiment,1
28,72,16133,79,64,0,2,18,11,5.mid,experiment,1
29,74,16577,77,64,0,2,18,11,5.mid,experiment,1
30,76,16856,77,64,0,2,18,11,5.mid,experiment,1
31,78,17123,76,64,0,2,18,11,5.mid,experiment,1
32,78,,76,,0,2,18,11,5.mid,experiment,1
33,80,18212,74,64,0,2,18,11,5.mid,experiment,1
34,82,19066,79,64,0,2,18,11,5.mid,experiment,1
35,84,19519,77,64,0,2,18,11,5.mid,experiment,1
36,86,19821,76,64,0,2,18,11,5.mid,experiment,1
37,88,20097,76,64,0,2,18,11,5.mid,experiment,1
38,90,20323,76,64,0,2,18,11,5.mid,experiment,1
39,92,20601,76,64,0,2,18,11,5.mid,experiment,1
40,95,21118,81,64,0,2,18,11,5.mid,experiment,1
41,97,21337,77,64,0,2,18,11,5.mid,experiment,1
42,99,21596,76,64,0,2,18,11,5.mid,experiment,1
43,101,21863,74,64,0,2,18,11,5.mid,experiment,1
44,103,22091,76,64,0,2,18,11,5.mid,experiment,1
45,105,22403,79,64,0,2,18,11,5.mid,experiment,1
46,107,22588,74,64,0,2,18,11,5.mid,experiment,1
47,108,22848,71,64,0,2,18,11,5.mid,experiment,1
48,110,22907,72,64,0,2,18,11,5.mid,experiment,1
49,112,23155,72,64,0,2,18,11,5.mid,experiment,1
50,114,23424,74,64,0,2,18,11,5.mid,experiment,1
51,116,23699,74,64,0,2,18,11,5.mid,experiment,1
52,118,24491,76,64,0,2,18,11,5.mid,experiment,1
53,120,25010,65,64,0,2,18,11,5.mid,experiment,1
54,122,25299,65,64,0,2,18,11,5.mid,experiment,1
55,124,25547,64,64,0,2,18,11,5.mid,experiment,1
56,126,25819,64,64,0,2,18,11,5.mid,experiment,1
57,128,26646,62,64,0,2,18,11,5.mid,experiment,1
58,130,27175,67,64,0,2,18,11,5.mid,experiment,1
59,132,27448,67,64,0,2,18,11,5.mid,experiment,1
60,134,27692,71,64,0,2,18,11,5.mid,experiment,1
61,136,27974,71,64,0,2,18,11,5.mid,experiment,1
62,138,28199,72,64,0,2,18,11,5.mid,experiment,1
63,140,28484,72,64,0,2,18,11,5.mid,experiment,1
64,142,28752,73,64,0,2,18,11,5.mid,experiment,1
65,144,29013,73,64,0,2,18,11,5.mid,experiment,1
66,147,29852,74,64,0,2,18,11,5.mid,experiment,1
67,148,30264,77,64,0,2,18,11,5.mid,experiment,1
68,150,30810,76,64,0,2,18,11,5.mid,experiment,1
69,152,31358,74,64,0,2,18,11,5.mid,experiment,1
70,154,31922,72,64,0,2,18,11,5.mid,experiment,1
71,156,32390,84,64,0,2,18,11,5.mid,experiment,1
72,158,33259,84,64,0,2,18,11,5.mid,experiment,1
1,19,8156,79,64,0,2,18,12,7.mid,experiment,1
2,21,8418,78,64,0,2,18,12,7.mid,experiment,1
3,23,8694,79,64,0,2,18,12,7.mid,experiment,1
4,25,8944,76,64,0,2,18,12,7.mid,experiment,1
5,26,8992,72,64,0,2,18,12,7.mid,experiment,1
6,28,9224,67,64,0,2,18,12,7.mid,experiment,1
7,30,9484,67,64,0,2,18,12,7.mid,experiment,1
8,32,9768,67,64,0,2,18,12,7.mid,experiment,1
9,35,10324,79,64,0,2,18,12,7.mid,experiment,1
10,37,10596,78,64,0,2,18,12,7.mid,experiment,1
11,39,10937,79,64,0,2,18,12,7.mid,experiment,1
12,41,11124,76,64,0,2,18,12,7.mid,experiment,1
13,43,11452,72,64,0,2,18,12,7.mid,experiment,1
14,45,11712,76,64,0,2,18,12,7.mid,experiment,1
15,47,11960,79,64,0,2,18,12,7.mid,experiment,1
16,49,12240,84,64,0,2,18,12,7.mid,experiment,1
17,50,12291,83,64,0,2,18,12,7.mid,experiment,1
18,52,12514,81,64,0,2,18,12,7.mid,experiment,1
19,54,12784,81,64,0,2,18,12,7.mid,experiment,1
20,56,13070,81,64,0,2,18,12,7.mid,experiment,1
21,59,13601,83,64,0,2,18,12,7.mid,experiment,1
22,61,13851,81,64,0,2,18,12,7.mid,experiment,1
23,63,14079,84,64,0,2,18,12,7.mid,experiment,1
24,64,14292,81,64,0,2,18,12,7.mid,experiment,1
25,67,14630,78,64,0,2,18,12,7.mid,experiment,1
26,68,14682,79,64,0,2,18,12,7.mid,experiment,1
27,70,15314,79,64,0,2,18,12,7.mid,experiment,1
28,72,16218,79,64,0,2,18,12,7.mid,experiment,1
29,74,16606,77,64,0,2,18,12,7.mid,experiment,1
30,76,16872,77,64,0,2,18,12,7.mid,experiment,1
31,78,17151,76,64,0,2,18,12,7.mid,experiment,1
32,80,17402,76,64,0,2,18,12,7.mid,experiment,1
33,82,18272,74,64,0,2,18,12,7.mid,experiment,1
34,84,19242,79,64,0,2,18,12,7.mid,experiment,1
35,86,19682,77,64,0,2,18,12,7.mid,experiment,1
36,88,19974,76,64,0,2,18,12,7.mid,experiment,1
37,90,20232,76,64,0,2,18,12,7.mid,experiment,1
38,92,20512,76,64,0,2,18,12,7.mid,experiment,1
39,94,20751,76,64,0,2,18,12,7.mid,experiment,1
40,97,21358,81,64,0,2,18,12,7.mid,experiment,1
41,99,21588,77,64,0,2,18,12,7.mid,experiment,1
42,101,21810,76,64,0,2,18,12,7.mid,experiment,1
43,103,22136,74,64,0,2,18,12,7.mid,experiment,1
44,105,22366,76,64,0,2,18,12,7.mid,experiment,1
45,107,22658,79,64,0,2,18,12,7.mid,experiment,1
46,109,22860,74,64,0,2,18,12,7.mid,experiment,1
47,111,23111,71,64,0,2,18,12,7.mid,experiment,1
48,112,23142,72,64,0,2,18,12,7.mid,experiment,1
49,114,23392,72,64,0,2,18,12,7.mid,experiment,1
50,116,23670,74,64,0,2,18,12,7.mid,experiment,1
51,118,23938,74,64,0,2,18,12,7.mid,experiment,1
52,120,24770,76,64,0,2,18,12,7.mid,experiment,1
53,122,25258,65,64,0,2,18,12,7.mid,experiment,1
54,124,25514,65,64,0,2,18,12,7.mid,experiment,1
55,126,26016,64,64,0,2,18,12,7.mid,experiment,1
56,126,,64,,0,2,18,12,7.mid,experiment,1
57,128,26830,62,64,0,2,18,12,7.mid,experiment,1
58,130,27352,67,64,0,2,18,12,7.mid,experiment,1
59,132,27634,67,64,0,2,18,12,7.mid,experiment,1
60,134,27896,71,64,0,2,18,12,7.mid,experiment,1
61,136,28172,71,64,0,2,18,12,7.mid,experiment,1
62,138,28406,72,64,0,2,18,12,7.mid,experiment,1
63,140,28666,72,64,0,2,18,12,7.mid,experiment,1
64,142,28922,73,64,0,2,18,12,7.mid,experiment,1
65,144,29166,73,64,0,2,18,12,7.mid,experiment,1
66,147,29943,74,64,0,2,18,12,7.mid,experiment,1
67,149,30468,77,64,0,2,18,12,7.mid,experiment,1
68,150,30972,76,64,0,2,18,12,7.mid,experiment,1
69,152,31542,74,64,0,2,18,12,7.mid,experiment,1
70,155,32176,72,64,0,2,18,12,7.mid,experiment,1
71,156,32576,84,64,0,2,18,12,7.mid,experiment,1
72,158,33616,84,64,0,2,18,12,7.mid,experiment,1
1,19,8169,79,64,0,2,18,15,12.mid,experiment,1
2,21,8431,78,64,0,2,18,15,12.mid,experiment,1
3,23,8682,79,64,0,2,18,15,12.mid,experiment,1
4,25,8920,76,64,0,2,18,15,12.mid,experiment,1
5,26,8977,72,64,0,2,18,15,12.mid,experiment,1
6,28,9199,67,64,0,2,18,15,12.mid,experiment,1
7,30,9494,67,64,0,2,18,15,12.mid,experiment,1
8,32,9740,67,64,0,2,18,15,12.mid,experiment,1
9,35,10301,79,64,0,2,18,15,12.mid,experiment,1
10,37,10544,78,64,0,2,18,15,12.mid,experiment,1
11,39,10848,79,64,0,2,18,15,12.mid,experiment,1
12,41,11062,76,64,0,2,18,15,12.mid,experiment,1
13,43,11411,72,64,0,2,18,15,12.mid,experiment,1
14,45,11666,76,64,0,2,18,15,12.mid,experiment,1
15,47,11885,79,64,0,2,18,15,12.mid,experiment,1
16,49,12168,84,64,0,2,18,15,12.mid,experiment,1
17,50,12225,83,64,0,2,18,15,12.mid,experiment,1
18,52,12450,81,64,0,2,18,15,12.mid,experiment,1
19,54,12690,81,64,0,2,18,15,12.mid,experiment,1
20,56,12971,81,64,0,2,18,15,12.mid,experiment,1
21,59,13564,83,64,0,2,18,15,12.mid,experiment,1
22,61,13792,81,64,0,2,18,15,12.mid,experiment,1
23,63,14020,84,64,0,2,18,15,12.mid,experiment,1
24,64,14235,81,64,0,2,18,15,12.mid,experiment,1
25,66,14429,78,64,0,2,18,15,12.mid,experiment,1
26,68,14649,79,64,0,2,18,15,12.mid,experiment,1
27,70,15283,79,64,0,2,18,15,12.mid,experiment,1
28,72,16117,79,64,0,2,18,15,12.mid,experiment,1
29,74,16550,77,64,0,2,18,15,12.mid,experiment,1
30,76,16821,77,64,0,2,18,15,12.mid,experiment,1
31,78,17123,76,64,0,2,18,15,12.mid,experiment,1
32,78,,76,,0,2,18,15,12.mid,experiment,1
33,80,18200,74,64,0,2,18,15,12.mid,experiment,1
34,82,19038,79,64,0,2,18,15,12.mid,experiment,1
35,84,19556,77,64,0,2,18,15,12.mid,experiment,1
36,86,19825,76,64,0,2,18,15,12.mid,experiment,1
37,88,20085,76,64,0,2,18,15,12.mid,experiment,1
38,90,20337,76,64,0,2,18,15,12.mid,experiment,1
39,92,20597,76,64,0,2,18,15,12.mid,experiment,1
40,95,21095,81,64,0,2,18,15,12.mid,experiment,1
41,97,21362,77,64,0,2,18,15,12.mid,experiment,1
42,99,21598,76,64,0,2,18,15,12.mid,experiment,1
43,101,21886,74,64,0,2,18,15,12.mid,experiment,1
44,103,22141,76,64,0,2,18,15,12.mid,experiment,1
45,105,22401,79,64,0,2,18,15,12.mid,experiment,1
46,107,22613,74,64,0,2,18,15,12.mid,experiment,1
47,108,22832,71,64,0,2,18,15,12.mid,experiment,1
48,110,22907,72,64,0,2,18,15,12.mid,experiment,1
49,112,23170,72,64,0,2,18,15,12.mid,experiment,1
50,114,23432,74,64,0,2,18,15,12.mid,experiment,1
51,116,23678,74,64,0,2,18,15,12.mid,experiment,1
52,118,24515,76,64,0,2,18,15,12.mid,experiment,1
53,120,25027,65,64,0,2,18,15,12.mid,experiment,1
54,122,25272,65,64,0,2,18,15,12.mid,experiment,1
55,124,25534,64,64,0,2,18,15,12.mid,experiment,1
56,126,25812,64,64,0,2,18,15,12.mid,experiment,1
57,128,26671,62,64,0,2,18,15,12.mid,experiment,1
58,130,27164,67,64,0,2,18,15,12.mid,experiment,1
59,132,27425,67,64,0,2,18,15,12.mid,experiment,1
60,134,27670,71,64,0,2,18,15,12.mid,experiment,1
61,136,27962,71,64,0,2,18,15,12.mid,experiment,1
62,138,28195,72,64,0,2,18,15,12.mid,experiment,1
63,140,28453,72,64,0,2,18,15,12.mid,experiment,1
64,142,28717,73,64,0,2,18,15,12.mid,experiment,1
65,144,28953,73,64,0,2,18,15,12.mid,experiment,1
66,146,29722,74,64,0,2,18,15,12.mid,experiment,1
67,148,30246,77,64,0,2,18,15,12.mid,experiment,1
68,150,30783,76,64,0,2,18,15,12.mid,experiment,1
69,152,31363,74,64,0,2,18,15,12.mid,experiment,1
70,154,31897,72,64,0,2,18,15,12.mid,experiment,1
71,156,32494,84,64,0,2,18,15,12.mid,experiment,1
72,158,33465,84,64,0,2,18,15,12.mid,experiment,1
1,19,8136,79,64,0,2,18,16,8.mid,experiment,1
2,21,8402,78,64,0,2,18,16,8.mid,experiment,1
3,23,8657,79,64,0,2,18,16,8.mid,experiment,1
4,25,8914,76,64,0,2,18,16,8.mid,experiment,1
5,26,8966,72,64,0,2,18,16,8.mid,experiment,1
6,28,9231,67,64,0,2,18,16,8.mid,experiment,1
7,30,9501,67,64,0,2,18,16,8.mid,experiment,1
8,32,9726,67,64,0,2,18,16,8.mid,experiment,1
9,35,10272,79,64,0,2,18,16,8.mid,experiment,1
10,37,10532,78,64,0,2,18,16,8.mid,experiment,1
11,39,10803,79,64,0,2,18,16,8.mid,experiment,1
12,41,11021,76,64,0,2,18,16,8.mid,experiment,1
13,43,11358,72,64,0,2,18,16,8.mid,experiment,1
14,45,11592,76,64,0,2,18,16,8.mid,experiment,1
15,47,11826,79,64,0,2,18,16,8.mid,experiment,1
16,49,12116,84,64,0,2,18,16,8.mid,experiment,1
17,50,12176,83,64,0,2,18,16,8.mid,experiment,1
18,52,12386,81,64,0,2,18,16,8.mid,experiment,1
19,54,12654,81,64,0,2,18,16,8.mid,experiment,1
20,56,12898,81,64,0,2,18,16,8.mid,experiment,1
21,59,13434,83,64,0,2,18,16,8.mid,experiment,1
22,61,13688,81,64,0,2,18,16,8.mid,experiment,1
23,63,13922,84,64,0,2,18,16,8.mid,experiment,1
24,64,14154,81,64,0,2,18,16,8.mid,experiment,1
25,66,14303,78,64,0,2,18,16,8.mid,experiment,1
26,68,14507,79,64,0,2,18,16,8.mid,experiment,1
27,70,15114,79,64,0,2,18,16,8.mid,experiment,1
28,72,15950,79,64,0,2,18,16,8.mid,experiment,1
29,74,16402,77,64,0,2,18,16,8.mid,experiment,1
30,76,16660,77,64,0,2,18,16,8.mid,experiment,1
31,78,16944,76,64,0,2,18,16,8.mid,experiment,1
32,80,17205,76,64,0,2,18,16,8.mid,experiment,1
33,82,18020,74,64,0,2,18,16,8.mid,experiment,1
34,84,18956,79,64,0,2,18,16,8.mid,experiment,1
35,86,19384,77,64,0,2,18,16,8.mid,experiment,1
36,88,19718,76,64,0,2,18,16,8.mid,experiment,1
37,90,19971,76,64,0,2,18,16,8.mid,experiment,1
38,92,20217,76,64,0,2,18,16,8.mid,experiment,1
39,94,20492,76,64,0,2,18,16,8.mid,experiment,1
40,97,21022,81,64,0,2,18,16,8.mid,experiment,1
41,99,21262,77,64,0,2,18,16,8.mid,experiment,1
42,101,21502,76,64,0,2,18,16,8.mid,experiment,1
43,103,21820,74,64,0,2,18,16,8.mid,experiment,1
44,105,22050,76,64,0,2,18,16,8.mid,experiment,1
45,107,22322,79,64,0,2,18,16,8.mid,experiment,1
46,109,22502,74,64,0,2,18,16,8.mid,experiment,1
47,110,22732,71,64,0,2,18,16,8.mid,experiment,1
48,112,22802,72,64,0,2,18,16,8.mid,experiment,1
49,114,23054,72,64,0,2,18,16,8.mid,experiment,1
50,116,23314,74,64,0,2,18,16,8.mid,experiment,1
51,118,23565,74,64,0,2,18,16,8.mid,experiment,1
52,120,24394,76,64,0,2,18,16,8.mid,experiment,1
53,122,24914,65,64,0,2,18,16,8.mid,experiment,1
54,124,25176,65,64,0,2,18,16,8.mid,experiment,1
55,126,25430,64,64,0,2,18,16,8.mid,experiment,1
56,128,25691,64,64,0,2,18,16,8.mid,experiment,1
57,130,26522,62,64,0,2,18,16,8.mid,experiment,1
58,132,27338,67,64,0,2,18,16,8.mid,experiment,1
59,132,,67,,0,2,18,16,8.mid,experiment,1
60,134,27626,71,64,0,2,18,16,8.mid,experiment,1
61,136,27898,71,64,0,2,18,16,8.mid,experiment,1
62,138,28147,72,64,0,2,18,16,8.mid,experiment,1
63,140,28414,72,64,0,2,18,16,8.mid,experiment,1
64,142,28648,73,64,0,2,18,16,8.mid,experiment,1
65,144,28893,73,64,0,2,18,16,8.mid,experiment,1
66,147,29735,74,64,0,2,18,16,8.mid,experiment,1
67,149,30343,77,64,0,2,18,16,8.mid,experiment,1
68,151,30898,76,64,0,2,18,16,8.mid,experiment,1
69,153,31476,74,64,0,2,18,16,8.mid,experiment,1
70,154,31888,72,64,0,2,18,16,8.mid,experiment,1
71,156,32380,84,64,0,2,18,16,8.mid,experiment,1
72,158,33516,84,64,0,2,18,16,8.mid,experiment,1
1,19,10157,79,64,0,2,19,9,8.mid,experiment,1
2,21,10440,78,64,0,2,19,9,8.mid,experiment,1
3,23,10685,79,64,0,2,19,9,8.mid,experiment,1
4,25,10958,76,64,0,2,19,9,8.mid,experiment,1
5,26,11132,72,64,0,2,19,9,8.mid,experiment,1
6,28,11277,67,64,0,2,19,9,8.mid,experiment,1
7,30,11561,67,64,0,2,19,9,8.mid,experiment,1
8,32,11917,67,64,0,2,19,9,8.mid,experiment,1
9,35,12406,79,64,0,2,19,9,8.mid,experiment,1
10,37,12688,78,64,0,2,19,9,8.mid,experiment,1
11,39,12920,79,64,0,2,19,9,8.mid,experiment,1
12,41,13199,76,64,0,2,19,9,8.mid,experiment,1
13,43,13466,72,64,0,2,19,9,8.mid,experiment,1
14,45,13748,76,64,0,2,19,9,8.mid,experiment,1
15,47,13960,79,64,0,2,19,9,8.mid,experiment,1
16,49,14261,84,64,0,2,19,9,8.mid,experiment,1
17,50,14398,83,64,0,2,19,9,8.mid,experiment,1
18,52,14550,81,64,0,2,19,9,8.mid,experiment,1
19,54,14829,81,64,0,2,19,9,8.mid,experiment,1
20,56,15114,81,64,0,2,19,9,8.mid,experiment,1
21,59,15658,83,64,0,2,19,9,8.mid,experiment,1
22,61,15889,81,64,0,2,19,9,8.mid,experiment,1
23,63,16170,84,64,0,2,19,9,8.mid,experiment,1
24,65,16475,81,64,0,2,19,9,8.mid,experiment,1
25,67,16720,78,64,0,2,19,9,8.mid,experiment,1
26,68,16792,79,64,0,2,19,9,8.mid,experiment,1
27,70,17440,79,64,0,2,19,9,8.mid,experiment,1
28,72,18263,79,64,0,2,19,9,8.mid,experiment,1
29,74,18954,77,64,0,2,19,9,8.mid,experiment,1
30,76,19219,77,64,0,2,19,9,8.mid,experiment,1
31,78,19517,76,64,0,2,19,9,8.mid,experiment,1
32,80,19790,76,64,0,2,19,9,8.mid,experiment,1
33,82,20361,74,64,0,2,19,9,8.mid,experiment,1
34,84,21620,79,64,0,2,19,9,8.mid,experiment,1
35,86,22165,77,64,0,2,19,9,8.mid,experiment,1
36,88,22473,76,64,0,2,19,9,8.mid,experiment,1
37,90,22724,76,64,0,2,19,9,8.mid,experiment,1
38,92,22994,76,64,0,2,19,9,8.mid,experiment,1
39,94,23299,76,64,0,2,19,9,8.mid,experiment,1
40,97,23746,81,64,0,2,19,9,8.mid,experiment,1
41,99,24008,77,64,0,2,19,9,8.mid,experiment,1
42,101,24232,76,64,0,2,19,9,8.mid,experiment,1
43,103,24508,74,64,0,2,19,9,8.mid,experiment,1
44,105,24783,76,64,0,2,19,9,8.mid,experiment,1
45,107,25063,79,64,0,2,19,9,8.mid,experiment,1
46,109,25268,74,64,0,2,19,9,8.mid,experiment,1
47,110,25389,71,64,0,2,19,9,8.mid,experiment,1
48,112,25580,72,64,0,2,19,9,8.mid,experiment,1
49,114,25849,72,64,0,2,19,9,8.mid,experiment,1
50,116,26113,74,64,0,2,19,9,8.mid,experiment,1
51,118,26385,74,64,0,2,19,9,8.mid,experiment,1
52,120,27140,76,64,0,2,19,9,8.mid,experiment,1
53,122,27892,65,64,0,2,19,9,8.mid,experiment,1
54,124,28150,65,64,0,2,19,9,8.mid,experiment,1
55,126,28672,64,64,0,2,19,9,8.mid,experiment,1
56,126,,64,,0,2,19,9,8.mid,experiment,1
57,128,29418,62,64,0,2,19,9,8.mid,experiment,1
58,130,30082,67,64,0,2,19,9,8.mid,experiment,1
59,132,30344,67,64,0,2,19,9,8.mid,experiment,1
60,134,30587,71,64,0,2,19,9,8.mid,experiment,1
61,136,30865,71,64,0,2,19,9,8.mid,experiment,1
62,138,31156,72,64,0,2,19,9,8.mid,experiment,1
63,140,31386,72,64,0,2,19,9,8.mid,experiment,1
64,142,31638,73,64,0,2,19,9,8.mid,experiment,1
65,144,31953,73,64,0,2,19,9,8.mid,experiment,1
66,147,32680,74,64,0,2,19,9,8.mid,experiment,1
67,148,33117,77,64,0,2,19,9,8.mid,experiment,1
68,150,33703,76,64,0,2,19,9,8.mid,experiment,1
69,152,34280,74,64,0,2,19,9,8.mid,experiment,1
70,154,34849,72,64,0,2,19,9,8.mid,experiment,1
71,156,35396,84,64,0,2,19,9,8.mid,experiment,1
72,158,36163,84,64,0,2,19,9,8.mid,experiment,1
1,19,10244,79,64,0,2,20,5,16.mid,experiment,1
2,20,10473,78,64,0,2,20,5,16.mid,experiment,1
3,23,10911,79,64,0,2,20,5,16.mid,experiment,1
4,25,11170,76,64,0,2,20,5,16.mid,experiment,1
5,27,11432,72,64,0,2,20,5,16.mid,experiment,1
6,28,11503,67,64,0,2,20,5,16.mid,experiment,1
7,30,11772,67,64,0,2,20,5,16.mid,experiment,1
8,32,12052,67,64,0,2,20,5,16.mid,experiment,1
9,35,12760,79,64,0,2,20,5,16.mid,experiment,1
10,37,13014,78,64,0,2,20,5,16.mid,experiment,1
11,39,13343,79,64,0,2,20,5,16.mid,experiment,1
12,41,13587,76,64,0,2,20,5,16.mid,experiment,1
13,43,13942,72,64,0,2,20,5,16.mid,experiment,1
14,45,14256,76,64,0,2,20,5,16.mid,experiment,1
15,47,14449,79,64,0,2,20,5,16.mid,experiment,1
16,49,14890,84,64,0,2,20,5,16.mid,experiment,1
17,51,15083,83,64,0,2,20,5,16.mid,experiment,1
18,52,15100,81,64,0,2,20,5,16.mid,experiment,1
19,54,15378,81,64,0,2,20,5,16.mid,experiment,1
20,56,15670,81,64,0,2,20,5,16.mid,experiment,1
21,59,16290,83,64,0,2,20,5,16.mid,experiment,1
22,61,16532,81,64,0,2,20,5,16.mid,experiment,1
23,63,16899,84,64,0,2,20,5,16.mid,experiment,1
24,65,17147,81,64,0,2,20,5,16.mid,experiment,1
25,67,17411,78,64,0,2,20,5,16.mid,experiment,1
26,68,17523,79,64,0,2,20,5,16.mid,experiment,1
27,70,17996,79,64,0,2,20,5,16.mid,experiment,1
28,72,18841,79,64,0,2,20,5,16.mid,experiment,1
29,74,19734,77,64,0,2,20,5,16.mid,experiment,1
30,76,20045,77,64,0,2,20,5,16.mid,experiment,1
31,78,20357,76,64,0,2,20,5,16.mid,experiment,1
32,80,20642,76,64,0,2,20,5,16.mid,experiment,1
33,82,21256,74,64,0,2,20,5,16.mid,experiment,1
34,84,22774,79,64,0,2,20,5,16.mid,experiment,1
35,87,23413,77,64,0,2,20,5,16.mid,experiment,1
36,88,23448,76,64,0,2,20,5,16.mid,experiment,1
37,90,23770,76,64,0,2,20,5,16.mid,experiment,1
38,92,24059,76,64,0,2,20,5,16.mid,experiment,1
39,94,24336,76,64,0,2,20,5,16.mid,experiment,1
40,97,25079,81,64,0,2,20,5,16.mid,experiment,1
41,99,25294,77,64,0,2,20,5,16.mid,experiment,1
42,101,25513,76,64,0,2,20,5,16.mid,experiment,1
43,103,25870,74,64,0,2,20,5,16.mid,experiment,1
44,105,26122,76,64,0,2,20,5,16.mid,experiment,1
45,107,26511,79,64,0,2,20,5,16.mid,experiment,1
46,109,26660,74,64,0,2,20,5,16.mid,experiment,1
47,111,26988,71,64,0,2,20,5,16.mid,experiment,1
48,112,27006,72,64,0,2,20,5,16.mid,experiment,1
49,114,27290,72,64,0,2,20,5,16.mid,experiment,1
50,116,27585,74,64,0,2,20,5,16.mid,experiment,1
51,118,27879,74,64,0,2,20,5,16.mid,experiment,1
52,120,28487,76,64,0,2,20,5,16.mid,experiment,1
53,122,29504,65,64,0,2,20,5,16.mid,experiment,1
54,124,29797,65,64,0,2,20,5,16.mid,experiment,1
55,126,30103,64,64,0,2,20,5,16.mid,experiment,1
56,128,30397,64,64,0,2,20,5,16.mid,experiment,1
57,130,31091,62,64,0,2,20,5,16.mid,experiment,1
58,132,32036,67,64,0,2,20,5,16.mid,experiment,1
59,134,32348,67,64,0,2,20,5,16.mid,experiment,1
60,136,32900,71,64,0,2,20,5,16.mid,experiment,1
61,136,,71,,0,2,20,5,16.mid,experiment,1
62,138,33242,72,64,0,2,20,5,16.mid,experiment,1
63,140,33480,72,64,0,2,20,5,16.mid,experiment,1
64,142,33728,73,64,0,2,20,5,16.mid,experiment,1
65,144,34033,73,64,0,2,20,5,16.mid,experiment,1
66,147,35003,74,64,0,2,20,5,16.mid,experiment,1
67,149,35556,77,64,0,2,20,5,16.mid,experiment,1
68,151,36148,76,64,0,2,20,5,16.mid,experiment,1
69,152,36662,74,64,0,2,20,5,16.mid,experiment,1
70,155,37302,72,64,0,2,20,5,16.mid,experiment,1
71,156,37461,84,64,0,2,20,5,16.mid,experiment,1
72,158,38323,84,64,0,2,20,5,16.mid,experiment,1
1,19,8139,79,64,0,2,21,3,8.mid,experiment,1
2,21,8405,78,64,0,2,21,3,8.mid,experiment,1
3,22,8607,79,64,0,2,21,3,8.mid,experiment,1
4,24,8923,76,64,0,2,21,3,8.mid,experiment,1
5,26,9125,72,64,0,2,21,3,8.mid,experiment,1
6,28,9311,67,64,0,2,21,3,8.mid,experiment,1
7,30,9577,67,64,0,2,21,3,8.mid,experiment,1
8,32,9873,67,64,0,2,21,3,8.mid,experiment,1
9,35,10409,79,64,0,2,21,3,8.mid,experiment,1
10,37,10678,78,64,0,2,21,3,8.mid,experiment,1
11,39,10914,79,64,0,2,21,3,8.mid,experiment,1
12,40,11199,76,64,0,2,21,3,8.mid,experiment,1
13,43,11501,72,64,0,2,21,3,8.mid,experiment,1
14,45,11773,76,64,0,2,21,3,8.mid,experiment,1
15,46,11971,79,64,0,2,21,3,8.mid,experiment,1
16,49,12321,84,64,0,2,21,3,8.mid,experiment,1
17,50,12537,83,64,0,2,21,3,8.mid,experiment,1
18,52,12614,81,64,0,2,21,3,8.mid,experiment,1
19,54,12889,81,64,0,2,21,3,8.mid,experiment,1
20,56,13179,81,64,0,2,21,3,8.mid,experiment,1
21,59,13710,83,64,0,2,21,3,8.mid,experiment,1
22,60,13959,81,64,0,2,21,3,8.mid,experiment,1
23,63,14241,84,64,0,2,21,3,8.mid,experiment,1
24,65,14535,81,64,0,2,21,3,8.mid,experiment,1
25,67,14796,78,64,0,2,21,3,8.mid,experiment,1
26,68,14889,79,64,0,2,21,3,8.mid,experiment,1
27,70,15375,79,64,0,2,21,3,8.mid,experiment,1
28,72,16257,79,64,0,2,21,3,8.mid,experiment,1
29,74,16895,77,64,0,2,21,3,8.mid,experiment,1
30,76,17347,77,64,0,2,21,3,8.mid,experiment,1
31,78,17437,76,64,0,2,21,3,8.mid,experiment,1
32,80,17725,76,64,0,2,21,3,8.mid,experiment,1
33,82,18551,74,64,0,2,21,3,8.mid,experiment,1
34,84,19343,79,64,0,2,21,3,8.mid,experiment,1
35,86,19963,77,64,0,2,21,3,8.mid,experiment,1
36,88,20277,76,64,0,2,21,3,8.mid,experiment,1
37,90,20525,76,64,0,2,21,3,8.mid,experiment,1
38,92,20782,76,64,0,2,21,3,8.mid,experiment,1
39,94,21049,76,64,0,2,21,3,8.mid,experiment,1
40,97,21558,81,64,0,2,21,3,8.mid,experiment,1
41,98,21816,77,64,0,2,21,3,8.mid,experiment,1
42,100,22067,76,64,0,2,21,3,8.mid,experiment,1
43,103,22368,74,64,0,2,21,3,8.mid,experiment,1
44,105,22647,76,64,0,2,21,3,8.mid,experiment,1
45,107,22926,79,64,0,2,21,3,8.mid,experiment,1
46,108,23147,74,64,0,2,21,3,8.mid,experiment,1
47,110,23419,71,64,0,2,21,3,8.mid,experiment,1
48,112,23474,72,64,0,2,21,3,8.mid,experiment,1
49,114,23955,72,64,0,2,21,3,8.mid,experiment,1
50,116,24305,74,64,0,2,21,3,8.mid,experiment,1
51,116,,74,,0,2,21,3,8.mid,experiment,1
52,118,25157,76,64,0,2,21,3,8.mid,experiment,1
53,120,25979,65,64,0,2,21,3,8.mid,experiment,1
54,122,26421,65,64,0,2,21,3,8.mid,experiment,1
55,124,26537,64,64,0,2,21,3,8.mid,experiment,1
56,126,26811,64,64,0,2,21,3,8.mid,experiment,1
57,128,27604,62,64,0,2,21,3,8.mid,experiment,1
58,130,28157,67,64,0,2,21,3,8.mid,experiment,1
59,132,28627,67,64,0,2,21,3,8.mid,experiment,1
60,134,28697,71,64,0,2,21,3,8.mid,experiment,1
61,136,29027,71,64,0,2,21,3,8.mid,experiment,1
62,138,29241,72,64,0,2,21,3,8.mid,experiment,1
63,140,29599,72,64,0,2,21,3,8.mid,experiment,1
64,142,29803,73,64,0,2,21,3,8.mid,experiment,1
65,144,30087,73,64,0,2,21,3,8.mid,experiment,1
66,146,30637,74,64,0,2,21,3,8.mid,experiment,1
67,148,31205,77,64,0,2,21,3,8.mid,experiment,1
68,150,31769,76,64,0,2,21,3,8.mid,experiment,1
69,152,32291,74,64,0,2,21,3,8.mid,experiment,1
70,154,32897,72,64,0,2,21,3,8.mid,experiment,1
71,156,33431,84,64,0,2,21,3,8.mid,experiment,1
72,158,34699,84,64,0,2,21,3,8.mid,experiment,1
1,19,8157,79,64,0,2,21,5,7.mid,experiment,1
2,21,8430,78,64,0,2,21,5,7.mid,experiment,1
3,22,8681,79,64,0,2,21,5,7.mid,experiment,1
4,24,8981,76,64,0,2,21,5,7.mid,experiment,1
5,26,9095,72,64,0,2,21,5,7.mid,experiment,1
6,28,9323,67,64,0,2,21,5,7.mid,experiment,1
7,30,9612,67,64,0,2,21,5,7.mid,experiment,1
8,32,9866,67,64,0,2,21,5,7.mid,experiment,1
9,35,10480,79,64,0,2,21,5,7.mid,experiment,1
10,37,10743,78,64,0,2,21,5,7.mid,experiment,1
11,39,11007,79,64,0,2,21,5,7.mid,experiment,1
12,40,11282,76,64,0,2,21,5,7.mid,experiment,1
13,43,11629,72,64,0,2,21,5,7.mid,experiment,1
14,45,11895,76,64,0,2,21,5,7.mid,experiment,1
15,46,12121,79,64,0,2,21,5,7.mid,experiment,1
16,48,12418,84,64,0,2,21,5,7.mid,experiment,1
17,50,12579,83,64,0,2,21,5,7.mid,experiment,1
18,52,13005,81,64,0,2,21,5,7.mid,experiment,1
19,54,13284,81,64,0,2,21,5,7.mid,experiment,1
20,54,,81,,0,2,21,5,7.mid,experiment,1
21,57,13837,83,64,0,2,21,5,7.mid,experiment,1
22,58,14097,81,64,0,2,21,5,7.mid,experiment,1
23,60,14368,84,64,0,2,21,5,7.mid,experiment,1
24,62,14662,81,64,0,2,21,5,7.mid,experiment,1
25,64,14903,78,64,0,2,21,5,7.mid,experiment,1
26,66,14984,79,64,0,2,21,5,7.mid,experiment,1
27,68,15600,79,64,0,2,21,5,7.mid,experiment,1
28,70,16479,79,64,0,2,21,5,7.mid,experiment,1
29,72,17069,77,64,0,2,21,5,7.mid,experiment,1
30,74,17369,77,64,0,2,21,5,7.mid,experiment,1
31,76,17670,76,64,0,2,21,5,7.mid,experiment,1
32,78,17947,76,64,0,2,21,5,7.mid,experiment,1
33,80,18799,74,64,0,2,21,5,7.mid,experiment,1
34,82,19726,79,64,0,2,21,5,7.mid,experiment,1
35,84,20204,77,64,0,2,21,5,7.mid,experiment,1
36,86,20483,76,64,0,2,21,5,7.mid,experiment,1
37,88,20776,76,64,0,2,21,5,7.mid,experiment,1
38,90,21042,76,64,0,2,21,5,7.mid,experiment,1
39,92,21314,76,64,0,2,21,5,7.mid,experiment,1
40,95,21829,81,64,0,2,21,5,7.mid,experiment,1
41,96,22048,77,64,0,2,21,5,7.mid,experiment,1
42,99,22339,76,64,0,2,21,5,7.mid,experiment,1
43,101,22651,74,64,0,2,21,5,7.mid,experiment,1
44,102,22879,76,64,0,2,21,5,7.mid,experiment,1
45,104,23190,79,64,0,2,21,5,7.mid,experiment,1
46,106,23420,74,64,0,2,21,5,7.mid,experiment,1
47,108,23560,71,64,0,2,21,5,7.mid,experiment,1
48,110,23778,72,64,0,2,21,5,7.mid,experiment,1
49,112,24057,72,64,0,2,21,5,7.mid,experiment,1
50,114,24343,74,64,0,2,21,5,7.mid,experiment,1
51,116,24598,74,64,0,2,21,5,7.mid,experiment,1
52,118,25466,76,64,0,2,21,5,7.mid,experiment,1
53,120,26103,65,64,0,2,21,5,7.mid,experiment,1
54,122,26413,65,64,0,2,21,5,7.mid,experiment,1
55,124,26716,64,64,0,2,21,5,7.mid,experiment,1
56,126,26979,64,64,0,2,21,5,7.mid,experiment,1
57,128,27799,62,64,0,2,21,5,7.mid,experiment,1
58,130,28354,67,64,0,2,21,5,7.mid,experiment,1
59,132,28648,67,64,0,2,21,5,7.mid,experiment,1
60,134,28926,71,64,0,2,21,5,7.mid,experiment,1
61,136,29236,71,64,0,2,21,5,7.mid,experiment,1
62,138,29510,72,64,0,2,21,5,7.mid,experiment,1
63,140,29796,72,64,0,2,21,5,7.mid,experiment,1
64,142,30095,73,64,0,2,21,5,7.mid,experiment,1
65,144,30397,73,64,0,2,21,5,7.mid,experiment,1
66,146,30959,74,64,0,2,21,5,7.mid,experiment,1
67,148,31511,77,64,0,2,21,5,7.mid,experiment,1
68,150,32075,76,64,0,2,21,5,7.mid,experiment,1
69,152,32636,74,64,0,2,21,5,7.mid,experiment,1
70,154,33178,72,64,0,2,21,5,7.mid,experiment,1
71,156,33766,84,64,0,2,21,5,7.mid,experiment,1
72,158,35007,84,64,0,2,21,5,7.mid,experiment,1
1,19,8156,79,64,0,2,21,6,10.mid,experiment,1
2,21,8438,78,64,0,2,21,6,10.mid,experiment,1
3,23,8664,79,64,0,2,21,6,10.mid,experiment,1
4,24,8967,76,64,0,2,21,6,10.mid,experiment,1
5,26,9084,72,64,0,2,21,6,10.mid,experiment,1
6,28,9333,67,64,0,2,21,6,10.mid,experiment,1
7,30,9631,67,64,0,2,21,6,10.mid,experiment,1
8,32,9883,67,64,0,2,21,6,10.mid,experiment,1
9,35,10405,79,64,0,2,21,6,10.mid,experiment,1
10,37,10713,78,64,0,2,21,6,10.mid,experiment,1
11,38,10948,79,64,0,2,21,6,10.mid,experiment,1
12,40,11262,76,64,0,2,21,6,10.mid,experiment,1
13,43,11612,72,64,0,2,21,6,10.mid,experiment,1
14,45,11890,76,64,0,2,21,6,10.mid,experiment,1
15,46,12117,79,64,0,2,21,6,10.mid,experiment,1
16,48,12411,84,64,0,2,21,6,10.mid,experiment,1
17,50,12542,83,64,0,2,21,6,10.mid,experiment,1
18,52,12731,81,64,0,2,21,6,10.mid,experiment,1
19,54,13288,81,64,0,2,21,6,10.mid,experiment,1
20,54,,81,,0,2,21,6,10.mid,experiment,1
21,56,13830,83,64,0,2,21,6,10.mid,experiment,1
22,58,14110,81,64,0,2,21,6,10.mid,experiment,1
23,60,14392,84,64,0,2,21,6,10.mid,experiment,1
24,63,14694,81,64,0,2,21,6,10.mid,experiment,1
25,65,14992,78,64,0,2,21,6,10.mid,experiment,1
26,66,15135,79,64,0,2,21,6,10.mid,experiment,1
27,68,15655,79,64,0,2,21,6,10.mid,experiment,1
28,70,16540,79,64,0,2,21,6,10.mid,experiment,1
29,72,17139,77,64,0,2,21,6,10.mid,experiment,1
30,74,17410,77,64,0,2,21,6,10.mid,experiment,1
31,76,17711,76,64,0,2,21,6,10.mid,experiment,1
32,78,17971,76,64,0,2,21,6,10.mid,experiment,1
33,80,18904,74,64,0,2,21,6,10.mid,experiment,1
34,82,19801,79,64,0,2,21,6,10.mid,experiment,1
35,84,20331,77,64,0,2,21,6,10.mid,experiment,1
36,86,20665,76,64,0,2,21,6,10.mid,experiment,1
37,88,20936,76,64,0,2,21,6,10.mid,experiment,1
38,90,21206,76,64,0,2,21,6,10.mid,experiment,1
39,92,21481,76,64,0,2,21,6,10.mid,experiment,1
40,95,22071,81,64,0,2,21,6,10.mid,experiment,1
41,97,22341,77,64,0,2,21,6,10.mid,experiment,1
42,98,22586,76,64,0,2,21,6,10.mid,experiment,1
43,101,22878,74,64,0,2,21,6,10.mid,experiment,1
44,103,23132,76,64,0,2,21,6,10.mid,experiment,1
45,105,23434,79,64,0,2,21,6,10.mid,experiment,1
46,106,23658,74,64,0,2,21,6,10.mid,experiment,1
47,108,23942,71,64,0,2,21,6,10.mid,experiment,1
48,110,24006,72,64,0,2,21,6,10.mid,experiment,1
49,112,24294,72,64,0,2,21,6,10.mid,experiment,1
50,114,24548,74,64,0,2,21,6,10.mid,experiment,1
51,116,24821,74,64,0,2,21,6,10.mid,experiment,1
52,118,25741,76,64,0,2,21,6,10.mid,experiment,1
53,120,26345,65,64,0,2,21,6,10.mid,experiment,1
54,122,26639,65,64,0,2,21,6,10.mid,experiment,1
55,124,27172,64,64,0,2,21,6,10.mid,experiment,1
56,124,,64,,0,2,21,6,10.mid,experiment,1
57,126,28029,62,64,0,2,21,6,10.mid,experiment,1
58,128,28565,67,64,0,2,21,6,10.mid,experiment,1
59,130,28872,67,64,0,2,21,6,10.mid,experiment,1
60,132,29130,71,64,0,2,21,6,10.mid,experiment,1
61,134,29403,71,64,0,2,21,6,10.mid,experiment,1
62,136,29724,72,64,0,2,21,6,10.mid,experiment,1
63,138,30023,72,64,0,2,21,6,10.mid,experiment,1
64,140,30316,73,64,0,2,21,6,10.mid,experiment,1
65,142,30590,73,64,0,2,21,6,10.mid,experiment,1
66,144,31133,74,64,0,2,21,6,10.mid,experiment,1
67,146,31684,77,64,0,2,21,6,10.mid,experiment,1
68,148,32200,76,64,0,2,21,6,10.mid,experiment,1
69,150,32773,74,64,0,2,21,6,10.mid,experiment,1
70,152,33333,72,64,0,2,21,6,10.mid,experiment,1
71,154,33976,84,64,0,2,21,6,10.mid,experiment,1
72,156,35003,84,64,0,2,21,6,10.mid,experiment,1
1,19,8202,79,64,0,2,21,7,16.mid,experiment,1
2,21,8430,78,64,0,2,21,7,16.mid,experiment,1
3,22,8673,79,64,0,2,21,7,16.mid,experiment,1
4,24,8966,76,64,0,2,21,7,16.mid,experiment,1
5,26,9118,72,64,0,2,21,7,16.mid,experiment,1
6,28,9333,67,64,0,2,21,7,16.mid,experiment,1
7,30,9599,67,64,0,2,21,7,16.mid,experiment,1
8,32,9902,67,64,0,2,21,7,16.mid,experiment,1
9,35,10489,79,64,0,2,21,7,16.mid,experiment,1
10,37,10756,78,64,0,2,21,7,16.mid,experiment,1
11,39,10999,79,64,0,2,21,7,16.mid,experiment,1
12,40,11264,76,64,0,2,21,7,16.mid,experiment,1
13,43,11585,72,64,0,2,21,7,16.mid,experiment,1
14,45,11857,76,64,0,2,21,7,16.mid,experiment,1
15,46,12074,79,64,0,2,21,7,16.mid,experiment,1
16,48,12376,84,64,0,2,21,7,16.mid,experiment,1
17,50,12604,83,64,0,2,21,7,16.mid,experiment,1
18,52,12717,81,64,0,2,21,7,16.mid,experiment,1
19,54,12988,81,64,0,2,21,7,16.mid,experiment,1
20,56,13264,81,64,0,2,21,7,16.mid,experiment,1
21,59,13844,83,64,0,2,21,7,16.mid,experiment,1
22,60,14082,81,64,0,2,21,7,16.mid,experiment,1
23,62,14336,84,64,0,2,21,7,16.mid,experiment,1
24,65,14620,81,64,0,2,21,7,16.mid,experiment,1
25,67,14880,78,64,0,2,21,7,16.mid,experiment,1
26,68,15017,79,64,0,2,21,7,16.mid,experiment,1
27,70,15605,79,64,0,2,21,7,16.mid,experiment,1
28,72,16448,79,64,0,2,21,7,16.mid,experiment,1
29,74,17006,77,64,0,2,21,7,16.mid,experiment,1
30,76,17300,77,64,0,2,21,7,16.mid,experiment,1
31,78,17585,76,64,0,2,21,7,16.mid,experiment,1
32,80,17855,76,64,0,2,21,7,16.mid,experiment,1
33,82,18649,74,64,0,2,21,7,16.mid,experiment,1
34,84,19614,79,64,0,2,21,7,16.mid,experiment,1
35,86,20124,77,64,0,2,21,7,16.mid,experiment,1
36,88,20418,76,64,0,2,21,7,16.mid,experiment,1
37,90,20674,76,64,0,2,21,7,16.mid,experiment,1
38,92,20953,76,64,0,2,21,7,16.mid,experiment,1
39,94,21197,76,64,0,2,21,7,16.mid,experiment,1
40,97,21803,81,64,0,2,21,7,16.mid,experiment,1
41,99,22054,77,64,0,2,21,7,16.mid,experiment,1
42,101,22305,76,64,0,2,21,7,16.mid,experiment,1
43,103,22596,74,64,0,2,21,7,16.mid,experiment,1
44,104,22829,76,64,0,2,21,7,16.mid,experiment,1
45,106,23091,79,64,0,2,21,7,16.mid,experiment,1
46,108,23335,74,64,0,2,21,7,16.mid,experiment,1
47,110,23490,71,64,0,2,21,7,16.mid,experiment,1
48,112,23663,72,64,0,2,21,7,16.mid,experiment,1
49,114,23947,72,64,0,2,21,7,16.mid,experiment,1
50,116,24229,74,64,0,2,21,7,16.mid,experiment,1
51,116,,74,,0,2,21,7,16.mid,experiment,1
52,118,25356,76,64,0,2,21,7,16.mid,experiment,1
53,120,25970,65,64,0,2,21,7,16.mid,experiment,1
54,122,26275,65,64,0,2,21,7,16.mid,experiment,1
55,124,26545,64,64,0,2,21,7,16.mid,experiment,1
56,126,26787,64,64,0,2,21,7,16.mid,experiment,1
57,128,27606,62,64,0,2,21,7,16.mid,experiment,1
58,130,28178,67,64,0,2,21,7,16.mid,experiment,1
59,132,28456,67,64,0,2,21,7,16.mid,experiment,1
60,134,28713,71,64,0,2,21,7,16.mid,experiment,1
61,136,29000,71,64,0,2,21,7,16.mid,experiment,1
62,138,29278,72,64,0,2,21,7,16.mid,experiment,1
63,140,29564,72,64,0,2,21,7,16.mid,experiment,1
64,142,29846,73,64,0,2,21,7,16.mid,experiment,1
65,144,30117,73,64,0,2,21,7,16.mid,experiment,1
66,146,30738,74,64,0,2,21,7,16.mid,experiment,1
67,148,31259,77,64,0,2,21,7,16.mid,experiment,1
68,150,31835,76,64,0,2,21,7,16.mid,experiment,1
69,152,32353,74,64,0,2,21,7,16.mid,experiment,1
70,154,32936,72,64,0,2,21,7,16.mid,experiment,1
71,156,33526,84,64,0,2,21,7,16.mid,experiment,1
72,158,34824,84,64,0,2,21,7,16.mid,experiment,1
1,19,8152,79,64,0,2,21,8,3.mid,experiment,1
2,21,8416,78,64,0,2,21,8,3.mid,experiment,1
3,22,8623,79,64,0,2,21,8,3.mid,experiment,1
4,24,8918,76,64,0,2,21,8,3.mid,experiment,1
5,26,9048,72,64,0,2,21,8,3.mid,experiment,1
6,28,9285,67,64,0,2,21,8,3.mid,experiment,1
7,30,9576,67,64,0,2,21,8,3.mid,experiment,1
8,32,9834,67,64,0,2,21,8,3.mid,experiment,1
9,35,10382,79,64,0,2,21,8,3.mid,experiment,1
10,37,10653,78,64,0,2,21,8,3.mid,experiment,1
11,39,10942,79,64,0,2,21,8,3.mid,experiment,1
12,40,11185,76,64,0,2,21,8,3.mid,experiment,1
13,43,11496,72,64,0,2,21,8,3.mid,experiment,1
14,45,11767,76,64,0,2,21,8,3.mid,experiment,1
15,46,11999,79,64,0,2,21,8,3.mid,experiment,1
16,48,12282,84,64,0,2,21,8,3.mid,experiment,1
17,50,12550,83,64,0,2,21,8,3.mid,experiment,1
18,52,12914,81,64,0,2,21,8,3.mid,experiment,1
19,54,13178,81,64,0,2,21,8,3.mid,experiment,1
20,54,,81,,0,2,21,8,3.mid,experiment,1
21,56,13708,83,64,0,2,21,8,3.mid,experiment,1
22,58,13983,81,64,0,2,21,8,3.mid,experiment,1
23,60,14230,84,64,0,2,21,8,3.mid,experiment,1
24,62,14547,81,64,0,2,21,8,3.mid,experiment,1
25,64,14812,78,64,0,2,21,8,3.mid,experiment,1
26,66,14891,79,64,0,2,21,8,3.mid,experiment,1
27,68,15501,79,64,0,2,21,8,3.mid,experiment,1
28,70,16322,79,64,0,2,21,8,3.mid,experiment,1
29,72,17191,77,64,0,2,21,8,3.mid,experiment,1
30,74,17494,77,64,0,2,21,8,3.mid,experiment,1
31,76,17774,76,64,0,2,21,8,3.mid,experiment,1
32,78,18031,76,64,0,2,21,8,3.mid,experiment,1
33,80,18869,74,64,0,2,21,8,3.mid,experiment,1
34,82,19694,79,64,0,2,21,8,3.mid,experiment,1
35,84,20258,77,64,0,2,21,8,3.mid,experiment,1
36,86,20555,76,64,0,2,21,8,3.mid,experiment,1
37,88,20840,76,64,0,2,21,8,3.mid,experiment,1
38,90,21133,76,64,0,2,21,8,3.mid,experiment,1
39,92,21394,76,64,0,2,21,8,3.mid,experiment,1
40,94,21920,81,64,0,2,21,8,3.mid,experiment,1
41,97,22214,77,64,0,2,21,8,3.mid,experiment,1
42,98,22464,76,64,0,2,21,8,3.mid,experiment,1
43,101,22730,74,64,0,2,21,8,3.mid,experiment,1
44,102,22979,76,64,0,2,21,8,3.mid,experiment,1
45,105,23274,79,64,0,2,21,8,3.mid,experiment,1
46,106,23515,74,64,0,2,21,8,3.mid,experiment,1
47,108,23823,71,64,0,2,21,8,3.mid,experiment,1
48,110,23878,72,64,0,2,21,8,3.mid,experiment,1
49,112,24150,72,64,0,2,21,8,3.mid,experiment,1
50,114,24424,74,64,0,2,21,8,3.mid,experiment,1
51,116,24698,74,64,0,2,21,8,3.mid,experiment,1
52,118,25480,76,64,0,2,21,8,3.mid,experiment,1
53,120,26064,65,64,0,2,21,8,3.mid,experiment,1
54,122,26373,65,64,0,2,21,8,3.mid,experiment,1
55,124,26688,64,64,0,2,21,8,3.mid,experiment,1
56,126,26930,64,64,0,2,21,8,3.mid,experiment,1
57,128,27735,62,64,0,2,21,8,3.mid,experiment,1
58,130,28292,67,64,0,2,21,8,3.mid,experiment,1
59,132,28576,67,64,0,2,21,8,3.mid,experiment,1
60,134,28887,71,64,0,2,21,8,3.mid,experiment,1
61,136,29180,71,64,0,2,21,8,3.mid,experiment,1
62,138,29439,72,64,0,2,21,8,3.mid,experiment,1
63,140,29740,72,64,0,2,21,8,3.mid,experiment,1
64,142,30010,73,64,0,2,21,8,3.mid,experiment,1
65,144,30274,73,64,0,2,21,8,3.mid,experiment,1
66,146,30884,74,64,0,2,21,8,3.mid,experiment,1
67,148,31392,77,64,0,2,21,8,3.mid,experiment,1
68,150,31973,76,64,0,2,21,8,3.mid,experiment,1
69,152,32515,74,64,0,2,21,8,3.mid,experiment,1
70,154,33059,72,64,0,2,21,8,3.mid,experiment,1
71,156,33715,84,64,0,2,21,8,3.mid,experiment,1
72,158,35091,84,64,0,2,21,8,3.mid,experiment,1
1,19,8169,79,64,0,2,21,9,14.mid,experiment,1
2,21,8437,78,64,0,2,21,9,14.mid,experiment,1
3,22,8660,79,64,0,2,21,9,14.mid,experiment,1
4,24,8970,76,64,0,2,21,9,14.mid,experiment,1
5,26,9045,72,64,0,2,21,9,14.mid,experiment,1
6,28,9343,67,64,0,2,21,9,14.mid,experiment,1
7,30,9627,67,64,0,2,21,9,14.mid,experiment,1
8,32,9893,67,64,0,2,21,9,14.mid,experiment,1
9,35,10441,79,64,0,2,21,9,14.mid,experiment,1
10,37,10710,78,64,0,2,21,9,14.mid,experiment,1
11,39,10977,79,64,0,2,21,9,14.mid,experiment,1
12,40,11249,76,64,0,2,21,9,14.mid,experiment,1
13,43,11544,72,64,0,2,21,9,14.mid,experiment,1
14,45,11827,76,64,0,2,21,9,14.mid,experiment,1
15,46,12053,79,64,0,2,21,9,14.mid,experiment,1
16,48,12390,84,64,0,2,21,9,14.mid,experiment,1
17,50,12639,83,64,0,2,21,9,14.mid,experiment,1
18,52,12731,81,64,0,2,21,9,14.mid,experiment,1
19,54,12999,81,64,0,2,21,9,14.mid,experiment,1
20,56,13289,81,64,0,2,21,9,14.mid,experiment,1
21,59,13853,83,64,0,2,21,9,14.mid,experiment,1
22,60,14064,81,64,0,2,21,9,14.mid,experiment,1
23,62,14298,84,64,0,2,21,9,14.mid,experiment,1
24,65,14651,81,64,0,2,21,9,14.mid,experiment,1
25,67,14958,78,64,0,2,21,9,14.mid,experiment,1
26,68,15015,79,64,0,2,21,9,14.mid,experiment,1
27,70,15607,79,64,0,2,21,9,14.mid,experiment,1
28,72,16441,79,64,0,2,21,9,14.mid,experiment,1
29,74,17008,77,64,0,2,21,9,14.mid,experiment,1
30,76,17296,77,64,0,2,21,9,14.mid,experiment,1
31,78,17577,76,64,0,2,21,9,14.mid,experiment,1
32,78,,76,,0,2,21,9,14.mid,experiment,1
33,80,18725,74,64,0,2,21,9,14.mid,experiment,1
34,82,19623,79,64,0,2,21,9,14.mid,experiment,1
35,84,20170,77,64,0,2,21,9,14.mid,experiment,1
36,86,20447,76,64,0,2,21,9,14.mid,experiment,1
37,88,20707,76,64,0,2,21,9,14.mid,experiment,1
38,90,20968,76,64,0,2,21,9,14.mid,experiment,1
39,92,21229,76,64,0,2,21,9,14.mid,experiment,1
40,95,21807,81,64,0,2,21,9,14.mid,experiment,1
41,97,22101,77,64,0,2,21,9,14.mid,experiment,1
42,98,22333,76,64,0,2,21,9,14.mid,experiment,1
43,101,22631,74,64,0,2,21,9,14.mid,experiment,1
44,102,22857,76,64,0,2,21,9,14.mid,experiment,1
45,105,23145,79,64,0,2,21,9,14.mid,experiment,1
46,106,23348,74,64,0,2,21,9,14.mid,experiment,1
47,108,23578,71,64,0,2,21,9,14.mid,experiment,1
48,110,23693,72,64,0,2,21,9,14.mid,experiment,1
49,112,23960,72,64,0,2,21,9,14.mid,experiment,1
50,114,24235,74,64,0,2,21,9,14.mid,experiment,1
51,116,24494,74,64,0,2,21,9,14.mid,experiment,1
52,118,25369,76,64,0,2,21,9,14.mid,experiment,1
53,120,25933,65,64,0,2,21,9,14.mid,experiment,1
54,120,,65,,0,2,21,9,14.mid,experiment,1
55,122,26549,64,64,0,2,21,9,14.mid,experiment,1
56,124,26815,64,64,0,2,21,9,14.mid,experiment,1
57,126,27592,62,64,0,2,21,9,14.mid,experiment,1
58,128,28121,67,64,0,2,21,9,14.mid,experiment,1
59,130,28421,67,64,0,2,21,9,14.mid,experiment,1
60,132,28701,71,64,0,2,21,9,14.mid,experiment,1
61,134,28963,71,64,0,2,21,9,14.mid,experiment,1
62,136,29258,72,64,0,2,21,9,14.mid,experiment,1
63,138,29539,72,64,0,2,21,9,14.mid,experiment,1
64,140,29804,73,64,0,2,21,9,14.mid,experiment,1
65,142,30077,73,64,0,2,21,9,14.mid,experiment,1
66,144,30718,74,64,0,2,21,9,14.mid,experiment,1
67,146,31229,77,64,0,2,21,9,14.mid,experiment,1
68,148,31704,76,64,0,2,21,9,14.mid,experiment,1
69,150,32241,74,64,0,2,21,9,14.mid,experiment,1
70,152,32772,72,64,0,2,21,9,14.mid,experiment,1
71,154,33424,84,64,0,2,21,9,14.mid,experiment,1
72,156,34924,84,64,0,2,21,9,14.mid,experiment,1
1,19,8162,79,64,0,2,21,10,9.mid,experiment,1
2,21,8465,78,64,0,2,21,10,9.mid,experiment,1
3,22,8677,79,64,0,2,21,10,9.mid,experiment,1
4,25,9000,76,64,0,2,21,10,9.mid,experiment,1
5,26,9168,72,64,0,2,21,10,9.mid,experiment,1
6,28,9314,67,64,0,2,21,10,9.mid,experiment,1
7,30,9608,67,64,0,2,21,10,9.mid,experiment,1
8,32,9885,67,64,0,2,21,10,9.mid,experiment,1
9,35,10434,79,64,0,2,21,10,9.mid,experiment,1
10,37,10752,78,64,0,2,21,10,9.mid,experiment,1
11,39,10971,79,64,0,2,21,10,9.mid,experiment,1
12,40,11256,76,64,0,2,21,10,9.mid,experiment,1
13,43,11552,72,64,0,2,21,10,9.mid,experiment,1
14,45,11834,76,64,0,2,21,10,9.mid,experiment,1
15,46,12049,79,64,0,2,21,10,9.mid,experiment,1
16,48,12369,84,64,0,2,21,10,9.mid,experiment,1
17,50,12604,83,64,0,2,21,10,9.mid,experiment,1
18,52,12742,81,64,0,2,21,10,9.mid,experiment,1
19,54,12997,81,64,0,2,21,10,9.mid,experiment,1
20,56,13262,81,64,0,2,21,10,9.mid,experiment,1
21,59,13850,83,64,0,2,21,10,9.mid,experiment,1
22,60,14068,81,64,0,2,21,10,9.mid,experiment,1
23,62,14336,84,64,0,2,21,10,9.mid,experiment,1
24,65,14631,81,64,0,2,21,10,9.mid,experiment,1
25,67,14908,78,64,0,2,21,10,9.mid,experiment,1
26,68,14946,79,64,0,2,21,10,9.mid,experiment,1
27,70,15607,79,64,0,2,21,10,9.mid,experiment,1
28,72,16488,79,64,0,2,21,10,9.mid,experiment,1
29,74,17000,77,64,0,2,21,10,9.mid,experiment,1
30,76,17287,77,64,0,2,21,10,9.mid,experiment,1
31,78,17817,76,64,0,2,21,10,9.mid,experiment,1
32,78,,76,,0,2,21,10,9.mid,experiment,1
33,80,18695,74,64,0,2,21,10,9.mid,experiment,1
34,82,19638,79,64,0,2,21,10,9.mid,experiment,1
35,84,20179,77,64,0,2,21,10,9.mid,experiment,1
36,86,20447,76,64,0,2,21,10,9.mid,experiment,1
37,88,20717,76,64,0,2,21,10,9.mid,experiment,1
38,90,20978,76,64,0,2,21,10,9.mid,experiment,1
39,92,21250,76,64,0,2,21,10,9.mid,experiment,1
40,95,21816,81,64,0,2,21,10,9.mid,experiment,1
41,96,22051,77,64,0,2,21,10,9.mid,experiment,1
42,99,22333,76,64,0,2,21,10,9.mid,experiment,1
43,101,22615,74,64,0,2,21,10,9.mid,experiment,1
44,102,22834,76,64,0,2,21,10,9.mid,experiment,1
45,104,23137,79,64,0,2,21,10,9.mid,experiment,1
46,106,23355,74,64,0,2,21,10,9.mid,experiment,1
47,108,23516,71,64,0,2,21,10,9.mid,experiment,1
48,110,23719,72,64,0,2,21,10,9.mid,experiment,1
49,112,23990,72,64,0,2,21,10,9.mid,experiment,1
50,114,24285,74,64,0,2,21,10,9.mid,experiment,1
51,116,24556,74,64,0,2,21,10,9.mid,experiment,1
52,118,25406,76,64,0,2,21,10,9.mid,experiment,1
53,120,25982,65,64,0,2,21,10,9.mid,experiment,1
54,122,26267,65,64,0,2,21,10,9.mid,experiment,1
55,124,26556,64,64,0,2,21,10,9.mid,experiment,1
56,126,26823,64,64,0,2,21,10,9.mid,experiment,1
57,128,27636,62,64,0,2,21,10,9.mid,experiment,1
58,130,28199,67,64,0,2,21,10,9.mid,experiment,1
59,132,28489,67,64,0,2,21,10,9.mid,experiment,1
60,134,29012,71,64,0,2,21,10,9.mid,experiment,1
61,134,,71,,0,2,21,10,9.mid,experiment,1
62,136,29289,72,64,0,2,21,10,9.mid,experiment,1
63,138,29610,72,64,0,2,21,10,9.mid,experiment,1
64,140,29910,73,64,0,2,21,10,9.mid,experiment,1
65,142,30195,73,64,0,2,21,10,9.mid,experiment,1
66,144,30722,74,64,0,2,21,10,9.mid,experiment,1
67,146,31300,77,64,0,2,21,10,9.mid,experiment,1
68,148,31864,76,64,0,2,21,10,9.mid,experiment,1
69,150,32422,74,64,0,2,21,10,9.mid,experiment,1
70,152,33009,72,64,0,2,21,10,9.mid,experiment,1
71,154,33558,84,64,0,2,21,10,9.mid,experiment,1
72,156,34900,84,64,0,2,21,10,9.mid,experiment,1
1,19,8170,79,64,0,2,21,11,12.mid,experiment,1
2,21,8426,78,64,0,2,21,11,12.mid,experiment,1
3,22,8655,79,64,0,2,21,11,12.mid,experiment,1
4,24,8968,76,64,0,2,21,11,12.mid,experiment,1
5,26,9072,72,64,0,2,21,11,12.mid,experiment,1
6,28,9299,67,64,0,2,21,11,12.mid,experiment,1
7,30,9604,67,64,0,2,21,11,12.mid,experiment,1
8,30,,67,,0,2,21,11,12.mid,experiment,1
9,33,10380,79,64,0,2,21,11,12.mid,experiment,1
10,35,10699,78,64,0,2,21,11,12.mid,experiment,1
11,36,10915,79,64,0,2,21,11,12.mid,experiment,1
12,38,11225,76,64,0,2,21,11,12.mid,experiment,1
13,41,11545,72,64,0,2,21,11,12.mid,experiment,1
14,43,11849,76,64,0,2,21,11,12.mid,experiment,1
15,44,12056,79,64,0,2,21,11,12.mid,experiment,1
16,47,12408,84,64,0,2,21,11,12.mid,experiment,1
17,48,12594,83,64,0,2,21,11,12.mid,experiment,1
18,50,12732,81,64,0,2,21,11,12.mid,experiment,1
19,52,12984,81,64,0,2,21,11,12.mid,experiment,1
20,54,13253,81,64,0,2,21,11,12.mid,experiment,1
21,57,13831,83,64,0,2,21,11,12.mid,experiment,1
22,59,14075,81,64,0,2,21,11,12.mid,experiment,1
23,60,14333,84,64,0,2,21,11,12.mid,experiment,1
24,63,14635,81,64,0,2,21,11,12.mid,experiment,1
25,65,14899,78,64,0,2,21,11,12.mid,experiment,1
26,66,14973,79,64,0,2,21,11,12.mid,experiment,1
27,68,15655,79,64,0,2,21,11,12.mid,experiment,1
28,70,16542,79,64,0,2,21,11,12.mid,experiment,1
29,72,17098,77,64,0,2,21,11,12.mid,experiment,1
30,74,17386,77,64,0,2,21,11,12.mid,experiment,1
31,76,17966,76,64,0,2,21,11,12.mid,experiment,1
32,76,,76,,0,2,21,11,12.mid,experiment,1
33,78,18846,74,64,0,2,21,11,12.mid,experiment,1
34,80,19809,79,64,0,2,21,11,12.mid,experiment,1
35,82,20321,77,64,0,2,21,11,12.mid,experiment,1
36,84,20598,76,64,0,2,21,11,12.mid,experiment,1
37,86,20877,76,64,0,2,21,11,12.mid,experiment,1
38,88,21149,76,64,0,2,21,11,12.mid,experiment,1
39,90,21424,76,64,0,2,21,11,12.mid,experiment,1
40,93,22038,81,64,0,2,21,11,12.mid,experiment,1
41,95,22282,77,64,0,2,21,11,12.mid,experiment,1
42,97,22546,76,64,0,2,21,11,12.mid,experiment,1
43,99,22847,74,64,0,2,21,11,12.mid,experiment,1
44,100,23064,76,64,0,2,21,11,12.mid,experiment,1
45,103,23373,79,64,0,2,21,11,12.mid,experiment,1
46,104,23593,74,64,0,2,21,11,12.mid,experiment,1
47,106,23682,71,64,0,2,21,11,12.mid,experiment,1
48,108,23914,72,64,0,2,21,11,12.mid,experiment,1
49,110,24187,72,64,0,2,21,11,12.mid,experiment,1
50,112,24470,74,64,0,2,21,11,12.mid,experiment,1
51,114,24742,74,64,0,2,21,11,12.mid,experiment,1
52,116,25575,76,64,0,2,21,11,12.mid,experiment,1
53,118,26174,65,64,0,2,21,11,12.mid,experiment,1
54,120,26470,65,64,0,2,21,11,12.mid,experiment,1
55,122,26999,64,64,0,2,21,11,12.mid,experiment,1
56,122,,64,,0,2,21,11,12.mid,experiment,1
57,124,27845,62,64,0,2,21,11,12.mid,experiment,1
58,126,28423,67,64,0,2,21,11,12.mid,experiment,1
59,128,28720,67,64,0,2,21,11,12.mid,experiment,1
60,130,29012,71,64,0,2,21,11,12.mid,experiment,1
61,132,29289,71,64,0,2,21,11,12.mid,experiment,1
62,134,29551,72,64,0,2,21,11,12.mid,experiment,1
63,136,29832,72,64,0,2,21,11,12.mid,experiment,1
64,138,30136,73,64,0,2,21,11,12.mid,experiment,1
65,140,30405,73,64,0,2,21,11,12.mid,experiment,1
66,142,30976,74,64,0,2,21,11,12.mid,experiment,1
67,144,31575,77,64,0,2,21,11,12.mid,experiment,1
68,146,32081,76,64,0,2,21,11,12.mid,experiment,1
69,148,32612,74,64,0,2,21,11,12.mid,experiment,1
70,150,33225,72,64,0,2,21,11,12.mid,experiment,1
71,152,33870,84,64,0,2,21,11,12.mid,experiment,1
72,154,35415,84,64,0,2,21,11,12.mid,experiment,1
1,19,8165,79,64,0,2,21,13,13.mid,experiment,1
2,21,8432,78,64,0,2,21,13,13.mid,experiment,1
3,22,8663,79,64,0,2,21,13,13.mid,experiment,1
4,24,8964,76,64,0,2,21,13,13.mid,experiment,1
5,26,9050,72,64,0,2,21,13,13.mid,experiment,1
6,28,9308,67,64,0,2,21,13,13.mid,experiment,1
7,30,9612,67,64,0,2,21,13,13.mid,experiment,1
8,32,9870,67,64,0,2,21,13,13.mid,experiment,1
9,35,10407,79,64,0,2,21,13,13.mid,experiment,1
10,37,10729,78,64,0,2,21,13,13.mid,experiment,1
11,39,10958,79,64,0,2,21,13,13.mid,experiment,1
12,40,11216,76,64,0,2,21,13,13.mid,experiment,1
13,43,11574,72,64,0,2,21,13,13.mid,experiment,1
14,45,11846,76,64,0,2,21,13,13.mid,experiment,1
15,46,12055,79,64,0,2,21,13,13.mid,experiment,1
16,49,12382,84,64,0,2,21,13,13.mid,experiment,1
17,50,12584,83,64,0,2,21,13,13.mid,experiment,1
18,52,12686,81,64,0,2,21,13,13.mid,experiment,1
19,54,12961,81,64,0,2,21,13,13.mid,experiment,1
20,56,13237,81,64,0,2,21,13,13.mid,experiment,1
21,59,13798,83,64,0,2,21,13,13.mid,experiment,1
22,60,14050,81,64,0,2,21,13,13.mid,experiment,1
23,63,14354,84,64,0,2,21,13,13.mid,experiment,1
24,65,14632,81,64,0,2,21,13,13.mid,experiment,1
25,66,14873,78,64,0,2,21,13,13.mid,experiment,1
26,68,14934,79,64,0,2,21,13,13.mid,experiment,1
27,70,15533,79,64,0,2,21,13,13.mid,experiment,1
28,72,16439,79,64,0,2,21,13,13.mid,experiment,1
29,74,16977,77,64,0,2,21,13,13.mid,experiment,1
30,76,17243,77,64,0,2,21,13,13.mid,experiment,1
31,78,17824,76,64,0,2,21,13,13.mid,experiment,1
32,78,,76,,0,2,21,13,13.mid,experiment,1
33,80,18690,74,64,0,2,21,13,13.mid,experiment,1
34,82,19600,79,64,0,2,21,13,13.mid,experiment,1
35,84,20185,77,64,0,2,21,13,13.mid,experiment,1
36,86,20496,76,64,0,2,21,13,13.mid,experiment,1
37,88,20749,76,64,0,2,21,13,13.mid,experiment,1
38,90,21032,76,64,0,2,21,13,13.mid,experiment,1
39,92,21315,76,64,0,2,21,13,13.mid,experiment,1
40,94,21850,81,64,0,2,21,13,13.mid,experiment,1
41,96,22142,77,64,0,2,21,13,13.mid,experiment,1
42,98,22409,76,64,0,2,21,13,13.mid,experiment,1
43,101,22696,74,64,0,2,21,13,13.mid,experiment,1
44,102,22948,76,64,0,2,21,13,13.mid,experiment,1
45,104,23240,79,64,0,2,21,13,13.mid,experiment,1
46,106,23488,74,64,0,2,21,13,13.mid,experiment,1
47,108,23663,71,64,0,2,21,13,13.mid,experiment,1
48,110,23820,72,64,0,2,21,13,13.mid,experiment,1
49,112,24093,72,64,0,2,21,13,13.mid,experiment,1
50,114,24352,74,64,0,2,21,13,13.mid,experiment,1
51,116,24626,74,64,0,2,21,13,13.mid,experiment,1
52,118,25490,76,64,0,2,21,13,13.mid,experiment,1
53,120,26044,65,64,0,2,21,13,13.mid,experiment,1
54,122,26324,65,64,0,2,21,13,13.mid,experiment,1
55,124,26588,64,64,0,2,21,13,13.mid,experiment,1
56,126,26901,64,64,0,2,21,13,13.mid,experiment,1
57,128,27768,62,64,0,2,21,13,13.mid,experiment,1
58,130,28286,67,64,0,2,21,13,13.mid,experiment,1
59,132,28630,67,64,0,2,21,13,13.mid,experiment,1
60,134,28914,71,64,0,2,21,13,13.mid,experiment,1
61,136,29167,71,64,0,2,21,13,13.mid,experiment,1
62,138,29448,72,64,0,2,21,13,13.mid,experiment,1
63,140,29727,72,64,0,2,21,13,13.mid,experiment,1
64,142,30010,73,64,0,2,21,13,13.mid,experiment,1
65,144,30390,73,64,0,2,21,13,13.mid,experiment,1
66,146,30831,74,64,0,2,21,13,13.mid,experiment,1
67,148,31498,77,64,0,2,21,13,13.mid,experiment,1
68,150,31996,76,64,0,2,21,13,13.mid,experiment,1
69,152,32552,74,64,0,2,21,13,13.mid,experiment,1
70,154,33104,72,64,0,2,21,13,13.mid,experiment,1
71,156,33703,84,64,0,2,21,13,13.mid,experiment,1
72,158,34678,84,64,0,2,21,13,13.mid,experiment,1
1,19,8133,79,64,0,2,21,15,2.mid,experiment,1
2,21,8418,78,64,0,2,21,15,2.mid,experiment,1
3,22,8643,79,64,0,2,21,15,2.mid,experiment,1
4,24,8984,76,64,0,2,21,15,2.mid,experiment,1
5,26,9171,72,64,0,2,21,15,2.mid,experiment,1
6,28,9381,67,64,0,2,21,15,2.mid,experiment,1
7,30,9642,67,64,0,2,21,15,2.mid,experiment,1
8,32,9910,67,64,0,2,21,15,2.mid,experiment,1
9,35,10414,79,64,0,2,21,15,2.mid,experiment,1
10,37,10707,78,64,0,2,21,15,2.mid,experiment,1
11,38,10924,79,64,0,2,21,15,2.mid,experiment,1
12,40,11241,76,64,0,2,21,15,2.mid,experiment,1
13,43,11566,72,64,0,2,21,15,2.mid,experiment,1
14,45,11851,76,64,0,2,21,15,2.mid,experiment,1
15,46,12054,79,64,0,2,21,15,2.mid,experiment,1
16,49,12433,84,64,0,2,21,15,2.mid,experiment,1
17,50,12595,83,64,0,2,21,15,2.mid,experiment,1
18,52,12698,81,64,0,2,21,15,2.mid,experiment,1
19,54,12981,81,64,0,2,21,15,2.mid,experiment,1
20,56,13230,81,64,0,2,21,15,2.mid,experiment,1
21,59,13793,83,64,0,2,21,15,2.mid,experiment,1
22,60,14022,81,64,0,2,21,15,2.mid,experiment,1
23,62,14255,84,64,0,2,21,15,2.mid,experiment,1
24,64,14558,81,64,0,2,21,15,2.mid,experiment,1
25,66,14832,78,64,0,2,21,15,2.mid,experiment,1
26,68,14931,79,64,0,2,21,15,2.mid,experiment,1
27,70,15454,79,64,0,2,21,15,2.mid,experiment,1
28,72,16298,79,64,0,2,21,15,2.mid,experiment,1
29,74,16906,77,64,0,2,21,15,2.mid,experiment,1
30,76,17183,77,64,0,2,21,15,2.mid,experiment,1
31,78,17476,76,64,0,2,21,15,2.mid,experiment,1
32,80,17766,76,64,0,2,21,15,2.mid,experiment,1
33,82,18623,74,64,0,2,21,15,2.mid,experiment,1
34,84,19457,79,64,0,2,21,15,2.mid,experiment,1
35,86,20050,77,64,0,2,21,15,2.mid,experiment,1
36,88,20347,76,64,0,2,21,15,2.mid,experiment,1
37,90,20611,76,64,0,2,21,15,2.mid,experiment,1
38,92,20871,76,64,0,2,21,15,2.mid,experiment,1
39,94,21146,76,64,0,2,21,15,2.mid,experiment,1
40,97,21671,81,64,0,2,21,15,2.mid,experiment,1
41,99,21954,77,64,0,2,21,15,2.mid,experiment,1
42,101,22214,76,64,0,2,21,15,2.mid,experiment,1
43,103,22476,74,64,0,2,21,15,2.mid,experiment,1
44,104,22714,76,64,0,2,21,15,2.mid,experiment,1
45,106,22992,79,64,0,2,21,15,2.mid,experiment,1
46,108,23230,74,64,0,2,21,15,2.mid,experiment,1
47,110,23524,71,64,0,2,21,15,2.mid,experiment,1
48,112,23890,72,64,0,2,21,15,2.mid,experiment,1
49,112,,72,,0,2,21,15,2.mid,experiment,1
50,114,24154,74,64,0,2,21,15,2.mid,experiment,1
51,116,24447,74,64,0,2,21,15,2.mid,experiment,1
52,118,25260,76,64,0,2,21,15,2.mid,experiment,1
53,120,25865,65,64,0,2,21,15,2.mid,experiment,1
54,122,26144,65,64,0,2,21,15,2.mid,experiment,1
55,124,26663,64,64,0,2,21,15,2.mid,experiment,1
56,124,,64,,0,2,21,15,2.mid,experiment,1
57,126,27509,62,64,0,2,21,15,2.mid,experiment,1
58,128,28119,67,64,0,2,21,15,2.mid,experiment,1
59,130,28419,67,64,0,2,21,15,2.mid,experiment,1
60,132,28745,71,64,0,2,21,15,2.mid,experiment,1
61,134,28989,71,64,0,2,21,15,2.mid,experiment,1
62,136,29283,72,64,0,2,21,15,2.mid,experiment,1
63,138,29559,72,64,0,2,21,15,2.mid,experiment,1
64,140,29815,73,64,0,2,21,15,2.mid,experiment,1
65,142,30114,73,64,0,2,21,15,2.mid,experiment,1
66,144,30644,74,64,0,2,21,15,2.mid,experiment,1
67,146,31251,77,64,0,2,21,15,2.mid,experiment,1
68,148,31738,76,64,0,2,21,15,2.mid,experiment,1
69,150,32316,74,64,0,2,21,15,2.mid,experiment,1
70,152,32888,72,64,0,2,21,15,2.mid,experiment,1
71,154,33461,84,64,0,2,21,15,2.mid,experiment,1
72,156,34566,84,64,0,2,21,15,2.mid,experiment,1
1,19,8210,79,64,0,2,4,8,6.mid,experiment,1
2,21,8468,78,64,0,2,4,8,6.mid,experiment,1
3,23,8704,79,64,0,2,4,8,6.mid,experiment,1
4,25,9054,76,64,0,2,4,8,6.mid,experiment,1
5,26,9106,72,64,0,2,4,8,6.mid,experiment,1
6,28,9328,67,64,0,2,4,8,6.mid,experiment,1
7,30,9596,67,64,0,2,4,8,6.mid,experiment,1
8,32,9908,67,64,0,2,4,8,6.mid,experiment,1
9,35,10509,79,64,0,2,4,8,6.mid,experiment,1
10,37,10787,78,64,0,2,4,8,6.mid,experiment,1
11,39,11106,79,64,0,2,4,8,6.mid,experiment,1
12,41,11351,76,64,0,2,4,8,6.mid,experiment,1
13,43,11733,72,64,0,2,4,8,6.mid,experiment,1
14,45,11910,76,64,0,2,4,8,6.mid,experiment,1
15,47,12149,79,64,0,2,4,8,6.mid,experiment,1
16,49,12462,84,64,0,2,4,8,6.mid,experiment,1
17,50,12599,83,64,0,2,4,8,6.mid,experiment,1
18,52,12705,81,64,0,2,4,8,6.mid,experiment,1
19,54,12971,81,64,0,2,4,8,6.mid,experiment,1
20,56,13232,81,64,0,2,4,8,6.mid,experiment,1
21,59,13818,83,64,0,2,4,8,6.mid,experiment,1
22,61,14130,81,64,0,2,4,8,6.mid,experiment,1
23,63,14568,84,64,0,2,4,8,6.mid,experiment,1
24,65,14680,81,64,0,2,4,8,6.mid,experiment,1
25,67,,78,,0,2,4,8,6.mid,experiment,1
26,68,,79,,0,2,4,8,6.mid,experiment,1
27,70,15262,79,64,0,2,4,8,6.mid,experiment,1
28,72,16258,79,64,0,2,4,8,6.mid,experiment,1
29,74,16776,77,64,0,2,4,8,6.mid,experiment,1
30,76,17036,77,64,0,2,4,8,6.mid,experiment,1
31,78,17316,76,64,0,2,4,8,6.mid,experiment,1
32,80,17603,76,64,0,2,4,8,6.mid,experiment,1
33,82,18484,74,64,0,2,4,8,6.mid,experiment,1
34,84,19314,79,64,0,2,4,8,6.mid,experiment,1
35,86,19810,77,64,0,2,4,8,6.mid,experiment,1
36,88,20171,76,64,0,2,4,8,6.mid,experiment,1
37,90,20456,76,64,0,2,4,8,6.mid,experiment,1
38,92,20726,76,64,0,2,4,8,6.mid,experiment,1
39,94,20994,76,64,0,2,4,8,6.mid,experiment,1
40,97,21693,81,64,0,2,4,8,6.mid,experiment,1
41,99,21901,77,64,0,2,4,8,6.mid,experiment,1
42,101,22124,76,64,0,2,4,8,6.mid,experiment,1
43,103,22464,74,64,0,2,4,8,6.mid,experiment,1
44,105,22709,76,64,0,2,4,8,6.mid,experiment,1
45,107,23031,79,64,0,2,4,8,6.mid,experiment,1
46,109,23202,74,64,0,2,4,8,6.mid,experiment,1
47,110,23258,71,64,0,2,4,8,6.mid,experiment,1
48,112,23506,72,64,0,2,4,8,6.mid,experiment,1
49,114,23774,72,64,0,2,4,8,6.mid,experiment,1
50,116,24046,74,64,0,2,4,8,6.mid,experiment,1
51,118,24307,74,64,0,2,4,8,6.mid,experiment,1
52,120,25156,76,64,0,2,4,8,6.mid,experiment,1
53,122,25673,65,64,0,2,4,8,6.mid,experiment,1
54,124,25972,65,64,0,2,4,8,6.mid,experiment,1
55,126,26229,64,64,0,2,4,8,6.mid,experiment,1
56,128,26514,64,64,0,2,4,8,6.mid,experiment,1
57,130,27377,62,64,0,2,4,8,6.mid,experiment,1
58,132,27928,67,64,0,2,4,8,6.mid,experiment,1
59,134,28192,67,64,0,2,4,8,6.mid,experiment,1
60,136,28475,71,64,0,2,4,8,6.mid,experiment,1
61,138,28770,71,64,0,2,4,8,6.mid,experiment,1
62,140,29000,72,64,0,2,4,8,6.mid,experiment,1
63,142,29283,72,64,0,2,4,8,6.mid,experiment,1
64,144,29541,73,64,0,2,4,8,6.mid,experiment,1
65,146,29805,73,64,0,2,4,8,6.mid,experiment,1
66,148,30543,74,64,0,2,4,8,6.mid,experiment,1
67,150,31109,77,64,0,2,4,8,6.mid,experiment,1
68,152,31645,76,64,0,2,4,8,6.mid,experiment,1
69,154,32085,74,64,0,2,4,8,6.mid,experiment,1
70,156,32586,72,64,0,2,4,8,6.mid,experiment,1
71,158,33173,84,64,0,2,4,8,6.mid,experiment,1
72,160,34308,84,64,0,2,4,8,6.mid,experiment,1
1,19,8282,79,64,0,2,4,16,15.mid,experiment,1
2,21,8529,78,64,0,2,4,16,15.mid,experiment,1
3,23,8809,79,64,0,2,4,16,15.mid,experiment,1
4,25,9215,76,64,0,2,4,16,15.mid,experiment,1
5,26,9298,72,64,0,2,4,16,15.mid,experiment,1
6,28,9440,67,64,0,2,4,16,15.mid,experiment,1
7,30,9724,67,64,0,2,4,16,15.mid,experiment,1
8,32,10004,67,64,0,2,4,16,15.mid,experiment,1
9,35,10536,79,64,0,2,4,16,15.mid,experiment,1
10,37,10872,78,64,0,2,4,16,15.mid,experiment,1
11,39,11108,79,64,0,2,4,16,15.mid,experiment,1
12,41,11390,76,64,0,2,4,16,15.mid,experiment,1
13,43,11818,72,64,0,2,4,16,15.mid,experiment,1
14,45,11921,76,64,0,2,4,16,15.mid,experiment,1
15,47,12151,79,64,0,2,4,16,15.mid,experiment,1
16,49,12476,84,64,0,2,4,16,15.mid,experiment,1
17,50,12686,83,64,0,2,4,16,15.mid,experiment,1
18,52,12736,81,64,0,2,4,16,15.mid,experiment,1
19,54,13004,81,64,0,2,4,16,15.mid,experiment,1
20,56,13268,81,64,0,2,4,16,15.mid,experiment,1
21,59,13864,83,64,0,2,4,16,15.mid,experiment,1
22,61,14112,81,64,0,2,4,16,15.mid,experiment,1
23,63,14436,84,64,0,2,4,16,15.mid,experiment,1
24,65,14678,81,64,0,2,4,16,15.mid,experiment,1
25,67,,78,,0,2,4,16,15.mid,experiment,1
26,68,,79,,0,2,4,16,15.mid,experiment,1
27,70,15229,79,64,0,2,4,16,15.mid,experiment,1
28,72,16276,79,64,0,2,4,16,15.mid,experiment,1
29,74,16876,77,64,0,2,4,16,15.mid,experiment,1
30,76,17145,77,64,0,2,4,16,15.mid,experiment,1
31,78,17436,76,64,0,2,4,16,15.mid,experiment,1
32,80,17722,76,64,0,2,4,16,15.mid,experiment,1
33,82,18544,74,64,0,2,4,16,15.mid,experiment,1
34,84,19353,79,64,0,2,4,16,15.mid,experiment,1
35,86,19888,77,64,0,2,4,16,15.mid,experiment,1
36,88,20296,76,64,0,2,4,16,15.mid,experiment,1
37,90,20568,76,64,0,2,4,16,15.mid,experiment,1
38,92,20870,76,64,0,2,4,16,15.mid,experiment,1
39,94,21151,76,64,0,2,4,16,15.mid,experiment,1
40,97,21887,81,64,0,2,4,16,15.mid,experiment,1
41,99,22079,77,64,0,2,4,16,15.mid,experiment,1
42,101,22246,76,64,0,2,4,16,15.mid,experiment,1
43,103,22591,74,64,0,2,4,16,15.mid,experiment,1
44,105,22842,76,64,0,2,4,16,15.mid,experiment,1
45,107,23170,79,64,0,2,4,16,15.mid,experiment,1
46,109,23344,74,64,0,2,4,16,15.mid,experiment,1
47,110,23394,71,64,0,2,4,16,15.mid,experiment,1
48,112,23657,72,64,0,2,4,16,15.mid,experiment,1
49,114,23914,72,64,0,2,4,16,15.mid,experiment,1
50,116,24194,74,64,0,2,4,16,15.mid,experiment,1
51,118,24486,74,64,0,2,4,16,15.mid,experiment,1
52,120,25300,76,64,0,2,4,16,15.mid,experiment,1
53,122,25851,65,64,0,2,4,16,15.mid,experiment,1
54,124,26116,65,64,0,2,4,16,15.mid,experiment,1
55,126,26420,64,64,0,2,4,16,15.mid,experiment,1
56,128,26696,64,64,0,2,4,16,15.mid,experiment,1
57,130,27558,62,64,0,2,4,16,15.mid,experiment,1
58,132,28140,67,64,0,2,4,16,15.mid,experiment,1
59,134,28419,67,64,0,2,4,16,15.mid,experiment,1
60,136,28726,71,64,0,2,4,16,15.mid,experiment,1
61,138,28951,71,64,0,2,4,16,15.mid,experiment,1
62,140,29240,72,64,0,2,4,16,15.mid,experiment,1
63,142,29512,72,64,0,2,4,16,15.mid,experiment,1
64,144,29812,73,64,0,2,4,16,15.mid,experiment,1
65,146,30064,73,64,0,2,4,16,15.mid,experiment,1
66,148,30838,74,64,0,2,4,16,15.mid,experiment,1
67,150,31412,77,64,0,2,4,16,15.mid,experiment,1
68,152,31938,76,64,0,2,4,16,15.mid,experiment,1
69,154,32406,74,64,0,2,4,16,15.mid,experiment,1
70,156,33113,72,64,0,2,4,16,15.mid,experiment,1
71,158,33466,84,64,0,2,4,16,15.mid,experiment,1
72,160,34730,84,64,0,2,4,16,15.mid,experiment,1
1,19,8147,79,64,0,2,5,5,12.mid,experiment,1
2,21,8429,78,64,0,2,5,5,12.mid,experiment,1
3,23,8662,79,64,0,2,5,5,12.mid,experiment,1
4,25,8995,76,64,0,2,5,5,12.mid,experiment,1
5,26,9167,72,64,0,2,5,5,12.mid,experiment,1
6,28,9321,67,64,0,2,5,5,12.mid,experiment,1
7,30,9587,67,64,0,2,5,5,12.mid,experiment,1
8,32,9845,67,64,0,2,5,5,12.mid,experiment,1
9,35,10430,79,64,0,2,5,5,12.mid,experiment,1
10,37,10729,78,64,0,2,5,5,12.mid,experiment,1
11,39,11003,79,64,0,2,5,5,12.mid,experiment,1
12,41,11264,76,64,0,2,5,5,12.mid,experiment,1
13,43,11555,72,64,0,2,5,5,12.mid,experiment,1
14,45,11826,76,64,0,2,5,5,12.mid,experiment,1
15,47,12058,79,64,0,2,5,5,12.mid,experiment,1
16,49,12413,84,64,0,2,5,5,12.mid,experiment,1
17,50,12656,83,64,0,2,5,5,12.mid,experiment,1
18,52,12712,81,64,0,2,5,5,12.mid,experiment,1
19,54,12968,81,64,0,2,5,5,12.mid,experiment,1
20,56,13235,81,64,0,2,5,5,12.mid,experiment,1
21,59,13815,83,64,0,2,5,5,12.mid,experiment,1
22,61,14061,81,64,0,2,5,5,12.mid,experiment,1
23,63,14350,84,64,0,2,5,5,12.mid,experiment,1
24,65,14624,81,64,0,2,5,5,12.mid,experiment,1
25,67,14884,78,64,0,2,5,5,12.mid,experiment,1
26,68,14950,79,64,0,2,5,5,12.mid,experiment,1
27,70,15472,79,64,0,2,5,5,12.mid,experiment,1
28,72,16416,79,64,0,2,5,5,12.mid,experiment,1
29,74,17002,77,64,0,2,5,5,12.mid,experiment,1
30,76,17275,77,64,0,2,5,5,12.mid,experiment,1
31,78,17577,76,64,0,2,5,5,12.mid,experiment,1
32,80,17860,76,64,0,2,5,5,12.mid,experiment,1
33,82,18721,74,64,0,2,5,5,12.mid,experiment,1
34,85,19987,79,64,0,2,5,5,12.mid,experiment,1
35,87,20544,77,64,0,2,5,5,12.mid,experiment,1
36,88,20577,76,64,0,2,5,5,12.mid,experiment,1
37,90,20852,76,64,0,2,5,5,12.mid,experiment,1
38,92,21125,76,64,0,2,5,5,12.mid,experiment,1
39,94,21399,76,64,0,2,5,5,12.mid,experiment,1
40,97,22037,81,64,0,2,5,5,12.mid,experiment,1
41,99,22300,77,64,0,2,5,5,12.mid,experiment,1
42,101,22525,76,64,0,2,5,5,12.mid,experiment,1
43,103,22825,74,64,0,2,5,5,12.mid,experiment,1
44,105,23176,76,64,0,2,5,5,12.mid,experiment,1
45,107,23480,79,64,0,2,5,5,12.mid,experiment,1
46,109,23613,74,64,0,2,5,5,12.mid,experiment,1
47,111,,71,6,0,2,5,5,12.mid,experiment,1
48,112,,72,,0,2,5,5,12.mid,experiment,1
49,114,24167,72,64,0,2,5,5,12.mid,experiment,1
50,116,24453,74,64,0,2,5,5,12.mid,experiment,1
51,118,24732,74,64,0,2,5,5,12.mid,experiment,1
52,120,25564,76,64,0,2,5,5,12.mid,experiment,1
53,122,26267,65,64,0,2,5,5,12.mid,experiment,1
54,124,26553,65,64,0,2,5,5,12.mid,experiment,1
55,126,26814,64,64,0,2,5,5,12.mid,experiment,1
56,128,27093,64,64,0,2,5,5,12.mid,experiment,1
57,130,27948,62,64,0,2,5,5,12.mid,experiment,1
58,132,28570,67,64,0,2,5,5,12.mid,experiment,1
59,134,28861,67,64,0,2,5,5,12.mid,experiment,1
60,136,29112,71,64,0,2,5,5,12.mid,experiment,1
61,138,29398,71,64,0,2,5,5,12.mid,experiment,1
62,140,29666,72,64,0,2,5,5,12.mid,experiment,1
63,142,29939,72,64,0,2,5,5,12.mid,experiment,1
64,144,30213,73,64,0,2,5,5,12.mid,experiment,1
65,146,30504,73,64,0,2,5,5,12.mid,experiment,1
66,149,31392,74,64,0,2,5,5,12.mid,experiment,1
67,151,32007,77,64,0,2,5,5,12.mid,experiment,1
68,153,32544,76,64,0,2,5,5,12.mid,experiment,1
69,155,33072,74,64,0,2,5,5,12.mid,experiment,1
70,157,33701,72,64,0,2,5,5,12.mid,experiment,1
71,158,33872,84,64,0,2,5,5,12.mid,experiment,1
72,160,35170,84,64,0,2,5,5,12.mid,experiment,1
1,19,8180,79,64,0,2,5,13,4.mid,experiment,1
2,21,8423,78,64,0,2,5,13,4.mid,experiment,1
3,23,8718,79,64,0,2,5,13,4.mid,experiment,1
4,25,9033,76,64,0,2,5,13,4.mid,experiment,1
5,26,9238,72,64,0,2,5,13,4.mid,experiment,1
6,28,9338,67,64,0,2,5,13,4.mid,experiment,1
7,30,9624,67,64,0,2,5,13,4.mid,experiment,1
8,32,9889,67,64,0,2,5,13,4.mid,experiment,1
9,35,10444,79,64,0,2,5,13,4.mid,experiment,1
10,37,10771,78,64,0,2,5,13,4.mid,experiment,1
11,39,11036,79,64,0,2,5,13,4.mid,experiment,1
12,41,11307,76,64,0,2,5,13,4.mid,experiment,1
13,43,11617,72,64,0,2,5,13,4.mid,experiment,1
14,45,11873,76,64,0,2,5,13,4.mid,experiment,1
15,47,12104,79,64,0,2,5,13,4.mid,experiment,1
16,49,12485,84,64,0,2,5,13,4.mid,experiment,1
17,50,12704,83,64,0,2,5,13,4.mid,experiment,1
18,52,12750,81,64,0,2,5,13,4.mid,experiment,1
19,54,13026,81,64,0,2,5,13,4.mid,experiment,1
20,56,13298,81,64,0,2,5,13,4.mid,experiment,1
21,59,13876,83,64,0,2,5,13,4.mid,experiment,1
22,61,14135,81,64,0,2,5,13,4.mid,experiment,1
23,63,14463,84,64,0,2,5,13,4.mid,experiment,1
24,65,14720,81,64,0,2,5,13,4.mid,experiment,1
25,67,14990,78,64,0,2,5,13,4.mid,experiment,1
26,68,15096,79,64,0,2,5,13,4.mid,experiment,1
27,70,15574,79,64,0,2,5,13,4.mid,experiment,1
28,72,16509,79,64,0,2,5,13,4.mid,experiment,1
29,74,17201,77,64,0,2,5,13,4.mid,experiment,1
30,76,17480,77,64,0,2,5,13,4.mid,experiment,1
31,78,17762,76,64,0,2,5,13,4.mid,experiment,1
32,80,18060,76,64,0,2,5,13,4.mid,experiment,1
33,82,18890,74,64,0,2,5,13,4.mid,experiment,1
34,85,20151,79,64,0,2,5,13,4.mid,experiment,1
35,87,,77,,0,2,5,13,4.mid,experiment,1
36,88,,76,,0,2,5,13,4.mid,experiment,1
37,90,21032,76,64,0,2,5,13,4.mid,experiment,1
38,92,21308,76,64,0,2,5,13,4.mid,experiment,1
39,94,21547,76,64,0,2,5,13,4.mid,experiment,1
40,97,22163,81,64,0,2,5,13,4.mid,experiment,1
41,99,22423,77,64,0,2,5,13,4.mid,experiment,1
42,101,22677,76,64,0,2,5,13,4.mid,experiment,1
43,103,23012,74,64,0,2,5,13,4.mid,experiment,1
44,105,23288,76,64,0,2,5,13,4.mid,experiment,1
45,107,23526,79,64,0,2,5,13,4.mid,experiment,1
46,108,23755,74,64,0,2,5,13,4.mid,experiment,1
47,110,23927,71,64,0,2,5,13,4.mid,experiment,1
48,112,24106,72,64,0,2,5,13,4.mid,experiment,1
49,114,24369,72,64,0,2,5,13,4.mid,experiment,1
50,116,24649,74,64,0,2,5,13,4.mid,experiment,1
51,118,24923,74,64,0,2,5,13,4.mid,experiment,1
52,120,25791,76,64,0,2,5,13,4.mid,experiment,1
53,122,26442,65,64,0,2,5,13,4.mid,experiment,1
54,124,26726,65,64,0,2,5,13,4.mid,experiment,1
55,126,27008,64,64,0,2,5,13,4.mid,experiment,1
56,128,27315,64,64,0,2,5,13,4.mid,experiment,1
57,130,28144,62,64,0,2,5,13,4.mid,experiment,1
58,132,28776,67,64,0,2,5,13,4.mid,experiment,1
59,134,29047,67,64,0,2,5,13,4.mid,experiment,1
60,136,29325,71,64,0,2,5,13,4.mid,experiment,1
61,138,29609,71,64,0,2,5,13,4.mid,experiment,1
62,140,29870,72,64,0,2,5,13,4.mid,experiment,1
63,142,30121,72,64,0,2,5,13,4.mid,experiment,1
64,144,30416,73,64,0,2,5,13,4.mid,experiment,1
65,146,30666,73,64,0,2,5,13,4.mid,experiment,1
66,149,31522,74,64,0,2,5,13,4.mid,experiment,1
67,150,32058,77,64,0,2,5,13,4.mid,experiment,1
68,153,32706,76,64,0,2,5,13,4.mid,experiment,1
69,154,33235,74,64,0,2,5,13,4.mid,experiment,1
70,156,33797,72,64,0,2,5,13,4.mid,experiment,1
71,158,33956,84,64,0,2,5,13,4.mid,experiment,1
72,160,35379,84,64,0,2,5,13,4.mid,experiment,1
1,19,8183,79,64,0,2,7,12,3.mid,experiment,1
2,21,8638,78,64,0,2,7,12,3.mid,experiment,1
3,23,8725,79,64,0,2,7,12,3.mid,experiment,1
4,25,,76,,0,2,7,12,3.mid,experiment,1
5,26,,72,,0,2,7,12,3.mid,experiment,1
6,28,9326,67,64,0,2,7,12,3.mid,experiment,1
7,30,9595,67,64,0,2,7,12,3.mid,experiment,1
8,32,9881,67,64,0,2,7,12,3.mid,experiment,1
9,35,10466,79,64,0,2,7,12,3.mid,experiment,1
10,37,10759,78,64,0,2,7,12,3.mid,experiment,1
11,39,11029,79,64,0,2,7,12,3.mid,experiment,1
12,40,11236,76,64,0,2,7,12,3.mid,experiment,1
13,43,11593,72,64,0,2,7,12,3.mid,experiment,1
14,45,11880,76,64,0,2,7,12,3.mid,experiment,1
15,47,12108,79,64,0,2,7,12,3.mid,experiment,1
16,49,12432,84,64,0,2,7,12,3.mid,experiment,1
17,50,12523,83,64,0,2,7,12,3.mid,experiment,1
18,52,12732,81,64,0,2,7,12,3.mid,experiment,1
19,54,12993,81,64,0,2,7,12,3.mid,experiment,1
20,56,13286,81,64,0,2,7,12,3.mid,experiment,1
21,59,13873,83,64,0,2,7,12,3.mid,experiment,1
22,61,14110,81,64,0,2,7,12,3.mid,experiment,1
23,63,14381,84,64,0,2,7,12,3.mid,experiment,1
24,65,14708,81,64,0,2,7,12,3.mid,experiment,1
25,66,14818,78,64,0,2,7,12,3.mid,experiment,1
26,68,15031,79,64,0,2,7,12,3.mid,experiment,1
27,70,15490,79,64,0,2,7,12,3.mid,experiment,1
28,72,16370,79,64,0,2,7,12,3.mid,experiment,1
29,74,17115,77,64,0,2,7,12,3.mid,experiment,1
30,76,17388,77,64,0,2,7,12,3.mid,experiment,1
31,78,17684,76,64,0,2,7,12,3.mid,experiment,1
32,80,17977,76,64,0,2,7,12,3.mid,experiment,1
33,82,18781,74,64,0,2,7,12,3.mid,experiment,1
34,84,19957,79,64,0,2,7,12,3.mid,experiment,1
35,86,20445,77,64,0,2,7,12,3.mid,experiment,1
36,88,20712,76,64,0,2,7,12,3.mid,experiment,1
37,90,21000,76,64,0,2,7,12,3.mid,experiment,1
38,92,21287,76,64,0,2,7,12,3.mid,experiment,1
39,94,21562,76,64,0,2,7,12,3.mid,experiment,1
40,97,22269,81,64,0,2,7,12,3.mid,experiment,1
41,99,22495,77,64,0,2,7,12,3.mid,experiment,1
42,101,22734,76,64,0,2,7,12,3.mid,experiment,1
43,103,23073,74,64,0,2,7,12,3.mid,experiment,1
44,105,23386,76,64,0,2,7,12,3.mid,experiment,1
45,107,23679,79,64,0,2,7,12,3.mid,experiment,1
46,108,23885,74,64,0,2,7,12,3.mid,experiment,1
47,110,23936,71,64,0,2,7,12,3.mid,experiment,1
48,112,24268,72,64,0,2,7,12,3.mid,experiment,1
49,114,24549,72,64,0,2,7,12,3.mid,experiment,1
50,116,24836,74,64,0,2,7,12,3.mid,experiment,1
51,118,25129,74,64,0,2,7,12,3.mid,experiment,1
52,120,25973,76,64,0,2,7,12,3.mid,experiment,1
53,122,26608,65,64,0,2,7,12,3.mid,experiment,1
54,124,26882,65,64,0,2,7,12,3.mid,experiment,1
55,126,27195,64,64,0,2,7,12,3.mid,experiment,1
56,128,27470,64,64,0,2,7,12,3.mid,experiment,1
57,130,28390,62,64,0,2,7,12,3.mid,experiment,1
58,132,28971,67,64,0,2,7,12,3.mid,experiment,1
59,134,29268,67,64,0,2,7,12,3.mid,experiment,1
60,136,29572,71,64,0,2,7,12,3.mid,experiment,1
61,138,29849,71,64,0,2,7,12,3.mid,experiment,1
62,140,30128,72,64,0,2,7,12,3.mid,experiment,1
63,142,30405,72,64,0,2,7,12,3.mid,experiment,1
64,144,30711,73,64,0,2,7,12,3.mid,experiment,1
65,146,30976,73,64,0,2,7,12,3.mid,experiment,1
66,149,31940,74,64,0,2,7,12,3.mid,experiment,1
67,151,32447,77,64,0,2,7,12,3.mid,experiment,1
68,152,33014,76,64,0,2,7,12,3.mid,experiment,1
69,154,33508,74,64,0,2,7,12,3.mid,experiment,1
70,156,34105,72,64,0,2,7,12,3.mid,experiment,1
71,158,34478,84,64,0,2,7,12,3.mid,experiment,1
72,160,35593,84,64,0,2,7,12,3.mid,experiment,1
1,19,8260,79,64,0,2,11,7,15.mid,experiment,1
2,21,8580,78,64,0,2,11,7,15.mid,experiment,1
3,23,8867,79,64,0,2,11,7,15.mid,experiment,1
4,25,9071,76,64,0,2,11,7,15.mid,experiment,1
5,26,9096,72,64,0,2,11,7,15.mid,experiment,1
6,28,9362,67,64,0,2,11,7,15.mid,experiment,1
7,30,9606,67,64,0,2,11,7,15.mid,experiment,1
8,32,9927,67,64,0,2,11,7,15.mid,experiment,1
9,35,10589,79,64,0,2,11,7,15.mid,experiment,1
10,37,10815,78,64,0,2,11,7,15.mid,experiment,1
11,39,11055,79,64,0,2,11,7,15.mid,experiment,1
12,41,11262,76,64,0,2,11,7,15.mid,experiment,1
13,43,11601,72,64,0,2,11,7,15.mid,experiment,1
14,45,11887,76,64,0,2,11,7,15.mid,experiment,1
15,47,12058,79,64,0,2,11,7,15.mid,experiment,1
16,49,,84,,0,2,11,7,15.mid,experiment,1
17,50,,83,,0,2,11,7,15.mid,experiment,1
18,52,12641,81,64,0,2,11,7,15.mid,experiment,1
19,54,12892,81,64,0,2,11,7,15.mid,experiment,1
20,56,13158,81,64,0,2,11,7,15.mid,experiment,1
21,59,13803,83,64,0,2,11,7,15.mid,experiment,1
22,61,14048,81,64,0,2,11,7,15.mid,experiment,1
23,63,14334,84,64,0,2,11,7,15.mid,experiment,1
24,65,14568,81,64,0,2,11,7,15.mid,experiment,1
25,67,14850,78,64,0,2,11,7,15.mid,experiment,1
26,68,14890,79,64,0,2,11,7,15.mid,experiment,1
27,70,15166,79,64,0,2,11,7,15.mid,experiment,1
28,72,15813,79,64,0,2,11,7,15.mid,experiment,1
29,74,16878,77,64,0,2,11,7,15.mid,experiment,1
30,76,17135,77,64,0,2,11,7,15.mid,experiment,1
31,78,17409,76,64,0,2,11,7,15.mid,experiment,1
32,80,17676,76,64,0,2,11,7,15.mid,experiment,1
33,82,18470,74,64,0,2,11,7,15.mid,experiment,1
34,84,19372,79,64,0,2,11,7,15.mid,experiment,1
35,86,19838,77,64,0,2,11,7,15.mid,experiment,1
36,88,20325,76,64,0,2,11,7,15.mid,experiment,1
37,90,20594,76,64,0,2,11,7,15.mid,experiment,1
38,92,20860,76,64,0,2,11,7,15.mid,experiment,1
39,94,21108,76,64,0,2,11,7,15.mid,experiment,1
40,97,21818,81,64,0,2,11,7,15.mid,experiment,1
41,99,22091,77,64,0,2,11,7,15.mid,experiment,1
42,101,22313,76,64,0,2,11,7,15.mid,experiment,1
43,103,22585,74,64,0,2,11,7,15.mid,experiment,1
44,105,22804,76,64,0,2,11,7,15.mid,experiment,1
45,107,23141,79,64,0,2,11,7,15.mid,experiment,1
46,109,23301,74,64,0,2,11,7,15.mid,experiment,1
47,110,23342,71,64,0,2,11,7,15.mid,experiment,1
48,112,23600,72,64,0,2,11,7,15.mid,experiment,1
49,114,23859,72,64,0,2,11,7,15.mid,experiment,1
50,116,24116,74,64,0,2,11,7,15.mid,experiment,1
51,118,24396,74,64,0,2,11,7,15.mid,experiment,1
52,120,25155,76,64,0,2,11,7,15.mid,experiment,1
53,122,25851,65,64,0,2,11,7,15.mid,experiment,1
54,124,26093,65,64,0,2,11,7,15.mid,experiment,1
55,126,26340,64,64,0,2,11,7,15.mid,experiment,1
56,128,26604,64,64,0,2,11,7,15.mid,experiment,1
57,130,27373,62,64,0,2,11,7,15.mid,experiment,1
58,132,28093,67,64,0,2,11,7,15.mid,experiment,1
59,134,28372,67,64,0,2,11,7,15.mid,experiment,1
60,136,28631,71,64,0,2,11,7,15.mid,experiment,1
61,138,28847,71,64,0,2,11,7,15.mid,experiment,1
62,140,29158,72,64,0,2,11,7,15.mid,experiment,1
63,142,29394,72,64,0,2,11,7,15.mid,experiment,1
64,144,29683,73,64,0,2,11,7,15.mid,experiment,1
65,146,29937,73,64,0,2,11,7,15.mid,experiment,1
66,148,30309,74,64,0,2,11,7,15.mid,experiment,1
67,150,30816,77,64,0,2,11,7,15.mid,experiment,1
68,152,31364,76,64,0,2,11,7,15.mid,experiment,1
69,154,31939,74,64,0,2,11,7,15.mid,experiment,1
70,156,32576,72,64,0,2,11,7,15.mid,experiment,1
71,158,33033,84,64,0,2,11,7,15.mid,experiment,1
72,160,33872,84,64,0,2,11,7,15.mid,experiment,1
1,19,8244,79,64,0,2,11,9,8.mid,experiment,1
2,21,8501,78,64,0,2,11,9,8.mid,experiment,1
3,23,8751,79,64,0,2,11,9,8.mid,experiment,1
4,25,8957,76,64,0,2,11,9,8.mid,experiment,1
5,26,8964,72,64,0,2,11,9,8.mid,experiment,1
6,28,9261,67,64,0,2,11,9,8.mid,experiment,1
7,30,9496,67,64,0,2,11,9,8.mid,experiment,1
8,32,9794,67,64,0,2,11,9,8.mid,experiment,1
9,35,10454,79,64,0,2,11,9,8.mid,experiment,1
10,37,10651,78,64,0,2,11,9,8.mid,experiment,1
11,39,10929,79,64,0,2,11,9,8.mid,experiment,1
12,41,11102,76,64,0,2,11,9,8.mid,experiment,1
13,43,11431,72,64,0,2,11,9,8.mid,experiment,1
14,45,11717,76,64,0,2,11,9,8.mid,experiment,1
15,47,11877,79,64,0,2,11,9,8.mid,experiment,1
16,49,,84,,0,2,11,9,8.mid,experiment,1
17,50,,83,,0,2,11,9,8.mid,experiment,1
18,52,12462,81,64,0,2,11,9,8.mid,experiment,1
19,54,12705,81,64,0,2,11,9,8.mid,experiment,1
20,56,12952,81,64,0,2,11,9,8.mid,experiment,1
21,59,13551,83,64,0,2,11,9,8.mid,experiment,1
22,61,13792,81,64,0,2,11,9,8.mid,experiment,1
23,63,14077,84,64,0,2,11,9,8.mid,experiment,1
24,65,14291,81,64,0,2,11,9,8.mid,experiment,1
25,67,14573,78,64,0,2,11,9,8.mid,experiment,1
26,68,14612,79,64,0,2,11,9,8.mid,experiment,1
27,70,14854,79,64,0,2,11,9,8.mid,experiment,1
28,72,15556,79,64,0,2,11,9,8.mid,experiment,1
29,74,16588,77,64,0,2,11,9,8.mid,experiment,1
30,76,16847,77,64,0,2,11,9,8.mid,experiment,1
31,78,17105,76,64,0,2,11,9,8.mid,experiment,1
32,80,17361,76,64,0,2,11,9,8.mid,experiment,1
33,82,18151,74,64,0,2,11,9,8.mid,experiment,1
34,84,19017,79,64,0,2,11,9,8.mid,experiment,1
35,86,19461,77,64,0,2,11,9,8.mid,experiment,1
36,88,19905,76,64,0,2,11,9,8.mid,experiment,1
37,90,20164,76,64,0,2,11,9,8.mid,experiment,1
38,92,20412,76,64,0,2,11,9,8.mid,experiment,1
39,94,20662,76,64,0,2,11,9,8.mid,experiment,1
40,97,21265,81,64,0,2,11,9,8.mid,experiment,1
41,99,21523,77,64,0,2,11,9,8.mid,experiment,1
42,101,21764,76,64,0,2,11,9,8.mid,experiment,1
43,103,22037,74,64,0,2,11,9,8.mid,experiment,1
44,105,22274,76,64,0,2,11,9,8.mid,experiment,1
45,107,22607,79,64,0,2,11,9,8.mid,experiment,1
46,109,22757,74,64,0,2,11,9,8.mid,experiment,1
47,110,22788,71,64,0,2,11,9,8.mid,experiment,1
48,112,23055,72,64,0,2,11,9,8.mid,experiment,1
49,114,23312,72,64,0,2,11,9,8.mid,experiment,1
50,116,23566,74,64,0,2,11,9,8.mid,experiment,1
51,118,23875,74,64,0,2,11,9,8.mid,experiment,1
52,120,24661,76,64,0,2,11,9,8.mid,experiment,1
53,122,25308,65,64,0,2,11,9,8.mid,experiment,1
54,124,25573,65,64,0,2,11,9,8.mid,experiment,1
55,126,25825,64,64,0,2,11,9,8.mid,experiment,1
56,128,26089,64,64,0,2,11,9,8.mid,experiment,1
57,130,26861,62,64,0,2,11,9,8.mid,experiment,1
58,132,27518,67,64,0,2,11,9,8.mid,experiment,1
59,134,27792,67,64,0,2,11,9,8.mid,experiment,1
60,136,28040,71,64,0,2,11,9,8.mid,experiment,1
61,138,28289,71,64,0,2,11,9,8.mid,experiment,1
62,140,28546,72,64,0,2,11,9,8.mid,experiment,1
63,142,28803,72,64,0,2,11,9,8.mid,experiment,1
64,144,29076,73,64,0,2,11,9,8.mid,experiment,1
65,146,29321,73,64,0,2,11,9,8.mid,experiment,1
66,148,29961,74,64,0,2,11,9,8.mid,experiment,1
67,150,30513,77,64,0,2,11,9,8.mid,experiment,1
68,152,31062,76,64,0,2,11,9,8.mid,experiment,1
69,154,31486,74,64,0,2,11,9,8.mid,experiment,1
70,156,32025,72,64,0,2,11,9,8.mid,experiment,1
71,158,32531,84,64,0,2,11,9,8.mid,experiment,1
72,160,33361,84,64,0,2,11,9,8.mid,experiment,1
1,19,8219,79,64,0,2,11,10,10.mid,experiment,1
2,21,8497,78,64,0,2,11,10,10.mid,experiment,1
3,23,8751,79,64,0,2,11,10,10.mid,experiment,1
4,25,,76,,0,2,11,10,10.mid,experiment,1
5,26,,72,,0,2,11,10,10.mid,experiment,1
6,28,9235,67,64,0,2,11,10,10.mid,experiment,1
7,30,9500,67,64,0,2,11,10,10.mid,experiment,1
8,32,9787,67,64,0,2,11,10,10.mid,experiment,1
9,35,10381,79,64,0,2,11,10,10.mid,experiment,1
10,37,10655,78,64,0,2,11,10,10.mid,experiment,1
11,39,10944,79,64,0,2,11,10,10.mid,experiment,1
12,41,11118,76,64,0,2,11,10,10.mid,experiment,1
13,43,11440,72,64,0,2,11,10,10.mid,experiment,1
14,45,11711,76,64,0,2,11,10,10.mid,experiment,1
15,47,11886,79,64,0,2,11,10,10.mid,experiment,1
16,49,,84,,0,2,11,10,10.mid,experiment,1
17,50,,83,,0,2,11,10,10.mid,experiment,1
18,52,12428,81,64,0,2,11,10,10.mid,experiment,1
19,54,12684,81,64,0,2,11,10,10.mid,experiment,1
20,56,12938,81,64,0,2,11,10,10.mid,experiment,1
21,59,13585,83,64,0,2,11,10,10.mid,experiment,1
22,61,13860,81,64,0,2,11,10,10.mid,experiment,1
23,63,14103,84,64,0,2,11,10,10.mid,experiment,1
24,65,14322,81,64,0,2,11,10,10.mid,experiment,1
25,67,14591,78,64,0,2,11,10,10.mid,experiment,1
26,68,14628,79,64,0,2,11,10,10.mid,experiment,1
27,70,14909,79,64,0,2,11,10,10.mid,experiment,1
28,72,15657,79,64,0,2,11,10,10.mid,experiment,1
29,74,16591,77,64,0,2,11,10,10.mid,experiment,1
30,76,16867,77,64,0,2,11,10,10.mid,experiment,1
31,78,17128,76,64,0,2,11,10,10.mid,experiment,1
32,80,17382,76,64,0,2,11,10,10.mid,experiment,1
33,82,18178,74,64,0,2,11,10,10.mid,experiment,1
34,84,19023,79,64,0,2,11,10,10.mid,experiment,1
35,86,19514,77,64,0,2,11,10,10.mid,experiment,1
36,88,19896,76,64,0,2,11,10,10.mid,experiment,1
37,90,20146,76,64,0,2,11,10,10.mid,experiment,1
38,92,20436,76,64,0,2,11,10,10.mid,experiment,1
39,94,20669,76,64,0,2,11,10,10.mid,experiment,1
40,97,21287,81,64,0,2,11,10,10.mid,experiment,1
41,99,21489,77,64,0,2,11,10,10.mid,experiment,1
42,101,21745,76,64,0,2,11,10,10.mid,experiment,1
43,103,22031,74,64,0,2,11,10,10.mid,experiment,1
44,105,22278,76,64,0,2,11,10,10.mid,experiment,1
45,107,22570,79,64,0,2,11,10,10.mid,experiment,1
46,109,22760,74,64,0,2,11,10,10.mid,experiment,1
47,110,22830,71,64,0,2,11,10,10.mid,experiment,1
48,112,23028,72,64,0,2,11,10,10.mid,experiment,1
49,114,23294,72,64,0,2,11,10,10.mid,experiment,1
50,116,23565,74,64,0,2,11,10,10.mid,experiment,1
51,118,23850,74,64,0,2,11,10,10.mid,experiment,1
52,120,24657,76,64,0,2,11,10,10.mid,experiment,1
53,122,25322,65,64,0,2,11,10,10.mid,experiment,1
54,124,25588,65,64,0,2,11,10,10.mid,experiment,1
55,126,25861,64,64,0,2,11,10,10.mid,experiment,1
56,128,26130,64,64,0,2,11,10,10.mid,experiment,1
57,130,26944,62,64,0,2,11,10,10.mid,experiment,1
58,132,27537,67,64,0,2,11,10,10.mid,experiment,1
59,134,27791,67,64,0,2,11,10,10.mid,experiment,1
60,136,28083,71,64,0,2,11,10,10.mid,experiment,1
61,138,28329,71,64,0,2,11,10,10.mid,experiment,1
62,140,28617,72,64,0,2,11,10,10.mid,experiment,1
63,142,28845,72,64,0,2,11,10,10.mid,experiment,1
64,144,29100,73,64,0,2,11,10,10.mid,experiment,1
65,146,29349,73,64,0,2,11,10,10.mid,experiment,1
66,148,29849,74,64,0,2,11,10,10.mid,experiment,1
67,150,30396,77,64,0,2,11,10,10.mid,experiment,1
68,152,31044,76,64,0,2,11,10,10.mid,experiment,1
69,154,31536,74,64,0,2,11,10,10.mid,experiment,1
70,156,32094,72,64,0,2,11,10,10.mid,experiment,1
71,158,32629,84,64,0,2,11,10,10.mid,experiment,1
72,160,33587,84,64,0,2,11,10,10.mid,experiment,1
1,19,8401,79,64,0,2,17,3,14.mid,experiment,1
2,21,8671,78,64,0,2,17,3,14.mid,experiment,1
3,23,9004,79,64,0,2,17,3,14.mid,experiment,1
4,25,9171,76,64,0,2,17,3,14.mid,experiment,1
5,26,9393,72,64,0,2,17,3,14.mid,experiment,1
6,28,9508,67,64,0,2,17,3,14.mid,experiment,1
7,30,9757,67,64,0,2,17,3,14.mid,experiment,1
8,32,10067,67,64,0,2,17,3,14.mid,experiment,1
9,35,10722,79,64,0,2,17,3,14.mid,experiment,1
10,37,10997,78,64,0,2,17,3,14.mid,experiment,1
11,39,11247,79,64,0,2,17,3,14.mid,experiment,1
12,41,11548,76,64,0,2,17,3,14.mid,experiment,1
13,43,11857,72,64,0,2,17,3,14.mid,experiment,1
14,45,12216,76,64,0,2,17,3,14.mid,experiment,1
15,47,12365,79,64,0,2,17,3,14.mid,experiment,1
16,49,12695,84,64,0,2,17,3,14.mid,experiment,1
17,50,12846,83,64,0,2,17,3,14.mid,experiment,1
18,52,12964,81,64,0,2,17,3,14.mid,experiment,1
19,54,13250,81,64,0,2,17,3,14.mid,experiment,1
20,56,13531,81,64,0,2,17,3,14.mid,experiment,1
21,59,14233,83,64,0,2,17,3,14.mid,experiment,1
22,61,14495,81,64,0,2,17,3,14.mid,experiment,1
23,64,,84,,0,2,17,3,14.mid,experiment,1
24,65,,81,,0,2,17,3,14.mid,experiment,1
25,67,15331,78,64,0,2,17,3,14.mid,experiment,1
26,68,15542,79,64,0,2,17,3,14.mid,experiment,1
27,70,16118,79,64,0,2,17,3,14.mid,experiment,1
28,72,16840,79,64,0,2,17,3,14.mid,experiment,1
29,74,17482,77,64,0,2,17,3,14.mid,experiment,1
30,76,17766,77,64,0,2,17,3,14.mid,experiment,1
31,78,18059,76,64,0,2,17,3,14.mid,experiment,1
32,80,18351,76,64,0,2,17,3,14.mid,experiment,1
33,82,19149,74,64,0,2,17,3,14.mid,experiment,1
34,84,20246,79,64,0,2,17,3,14.mid,experiment,1
35,86,20812,77,64,0,2,17,3,14.mid,experiment,1
36,88,21061,76,64,0,2,17,3,14.mid,experiment,1
37,90,21332,76,64,0,2,17,3,14.mid,experiment,1
38,92,21629,76,64,0,2,17,3,14.mid,experiment,1
39,94,21920,76,64,0,2,17,3,14.mid,experiment,1
40,97,22585,81,64,0,2,17,3,14.mid,experiment,1
41,99,22922,77,64,0,2,17,3,14.mid,experiment,1
42,101,23132,76,64,0,2,17,3,14.mid,experiment,1
43,103,23417,74,64,0,2,17,3,14.mid,experiment,1
44,105,23740,76,64,0,2,17,3,14.mid,experiment,1
45,107,24065,79,64,0,2,17,3,14.mid,experiment,1
46,109,24229,74,64,0,2,17,3,14.mid,experiment,1
47,110,24442,71,64,0,2,17,3,14.mid,experiment,1
48,112,24560,72,64,0,2,17,3,14.mid,experiment,1
49,114,24836,72,64,0,2,17,3,14.mid,experiment,1
50,116,25121,74,64,0,2,17,3,14.mid,experiment,1
51,118,25415,74,64,0,2,17,3,14.mid,experiment,1
52,120,26240,76,64,0,2,17,3,14.mid,experiment,1
53,122,26947,65,64,0,2,17,3,14.mid,experiment,1
54,124,27239,65,64,0,2,17,3,14.mid,experiment,1
55,126,27540,64,64,0,2,17,3,14.mid,experiment,1
56,128,27811,64,64,0,2,17,3,14.mid,experiment,1
57,130,28638,62,64,0,2,17,3,14.mid,experiment,1
58,132,29379,67,64,0,2,17,3,14.mid,experiment,1
59,134,29667,67,64,0,2,17,3,14.mid,experiment,1
60,136,29950,71,64,0,2,17,3,14.mid,experiment,1
61,138,30237,71,64,0,2,17,3,14.mid,experiment,1
62,140,30520,72,64,0,2,17,3,14.mid,experiment,1
63,142,30766,72,64,0,2,17,3,14.mid,experiment,1
64,144,31092,73,64,0,2,17,3,14.mid,experiment,1
65,146,31375,73,64,0,2,17,3,14.mid,experiment,1
66,148,32218,74,64,0,2,17,3,14.mid,experiment,1
67,151,32878,77,64,0,2,17,3,14.mid,experiment,1
68,153,33457,76,64,0,2,17,3,14.mid,experiment,1
69,154,33998,74,64,0,2,17,3,14.mid,experiment,1
70,156,34575,72,64,0,2,17,3,14.mid,experiment,1
71,158,35186,84,64,0,2,17,3,14.mid,experiment,1
72,160,36003,84,64,0,2,17,3,14.mid,experiment,1
1,19,8338,79,64,0,2,17,5,9.mid,experiment,1
2,21,8592,78,64,0,2,17,5,9.mid,experiment,1
3,23,8887,79,64,0,2,17,5,9.mid,experiment,1
4,25,9128,76,64,0,2,17,5,9.mid,experiment,1
5,26,9187,72,64,0,2,17,5,9.mid,experiment,1
6,28,9419,67,64,0,2,17,5,9.mid,experiment,1
7,30,9686,67,64,0,2,17,5,9.mid,experiment,1
8,32,9949,67,64,0,2,17,5,9.mid,experiment,1
9,35,10653,79,64,0,2,17,5,9.mid,experiment,1
10,37,10877,78,64,0,2,17,5,9.mid,experiment,1
11,39,11123,79,64,0,2,17,5,9.mid,experiment,1
12,41,11508,76,64,0,2,17,5,9.mid,experiment,1
13,43,11846,72,64,0,2,17,5,9.mid,experiment,1
14,45,12123,76,64,0,2,17,5,9.mid,experiment,1
15,47,12263,79,64,0,2,17,5,9.mid,experiment,1
16,49,12626,84,64,0,2,17,5,9.mid,experiment,1
17,50,12774,83,64,0,2,17,5,9.mid,experiment,1
18,52,12883,81,64,0,2,17,5,9.mid,experiment,1
19,54,13175,81,64,0,2,17,5,9.mid,experiment,1
20,56,13481,81,64,0,2,17,5,9.mid,experiment,1
21,59,14126,83,64,0,2,17,5,9.mid,experiment,1
22,61,14372,81,64,0,2,17,5,9.mid,experiment,1
23,64,,84,,0,2,17,5,9.mid,experiment,1
24,65,,81,,0,2,17,5,9.mid,experiment,1
25,67,15217,78,64,0,2,17,5,9.mid,experiment,1
26,68,15418,79,64,0,2,17,5,9.mid,experiment,1
27,70,15973,79,64,0,2,17,5,9.mid,experiment,1
28,72,16763,79,64,0,2,17,5,9.mid,experiment,1
29,74,17408,77,64,0,2,17,5,9.mid,experiment,1
30,76,17700,77,64,0,2,17,5,9.mid,experiment,1
31,78,18004,76,64,0,2,17,5,9.mid,experiment,1
32,80,18286,76,64,0,2,17,5,9.mid,experiment,1
33,82,19198,74,64,0,2,17,5,9.mid,experiment,1
34,84,20308,79,64,0,2,17,5,9.mid,experiment,1
35,86,20815,77,64,0,2,17,5,9.mid,experiment,1
36,88,21069,76,64,0,2,17,5,9.mid,experiment,1
37,90,21342,76,64,0,2,17,5,9.mid,experiment,1
38,92,21642,76,64,0,2,17,5,9.mid,experiment,1
39,94,21957,76,64,0,2,17,5,9.mid,experiment,1
40,97,22653,81,64,0,2,17,5,9.mid,experiment,1
41,99,22864,77,64,0,2,17,5,9.mid,experiment,1
42,101,23096,76,64,0,2,17,5,9.mid,experiment,1
43,103,23424,74,64,0,2,17,5,9.mid,experiment,1
44,105,23668,76,64,0,2,17,5,9.mid,experiment,1
45,107,24075,79,64,0,2,17,5,9.mid,experiment,1
46,109,24180,74,64,0,2,17,5,9.mid,experiment,1
47,110,24249,71,64,0,2,17,5,9.mid,experiment,1
48,112,24521,72,64,0,2,17,5,9.mid,experiment,1
49,114,24790,72,64,0,2,17,5,9.mid,experiment,1
50,116,25075,74,64,0,2,17,5,9.mid,experiment,1
51,118,25370,74,64,0,2,17,5,9.mid,experiment,1
52,120,26099,76,64,0,2,17,5,9.mid,experiment,1
53,122,26821,65,64,0,2,17,5,9.mid,experiment,1
54,124,27085,65,64,0,2,17,5,9.mid,experiment,1
55,126,27370,64,64,0,2,17,5,9.mid,experiment,1
56,128,27665,64,64,0,2,17,5,9.mid,experiment,1
57,130,28466,62,64,0,2,17,5,9.mid,experiment,1
58,132,29164,67,64,0,2,17,5,9.mid,experiment,1
59,134,29424,67,64,0,2,17,5,9.mid,experiment,1
60,136,29707,71,64,0,2,17,5,9.mid,experiment,1
61,138,29986,71,64,0,2,17,5,9.mid,experiment,1
62,140,30259,72,64,0,2,17,5,9.mid,experiment,1
63,142,30512,72,64,0,2,17,5,9.mid,experiment,1
64,144,30836,73,64,0,2,17,5,9.mid,experiment,1
65,146,31120,73,64,0,2,17,5,9.mid,experiment,1
66,148,31908,74,64,0,2,17,5,9.mid,experiment,1
67,151,32508,77,64,0,2,17,5,9.mid,experiment,1
68,153,33114,76,64,0,2,17,5,9.mid,experiment,1
69,154,33611,74,64,0,2,17,5,9.mid,experiment,1
70,156,34163,72,64,0,2,17,5,9.mid,experiment,1
71,158,34621,84,64,0,2,17,5,9.mid,experiment,1
72,160,35426,84,64,0,2,17,5,9.mid,experiment,1
1,19,8375,79,64,0,2,17,9,13.mid,experiment,1
2,21,8619,78,64,0,2,17,9,13.mid,experiment,1
3,23,9021,79,64,0,2,17,9,13.mid,experiment,1
4,25,9126,76,64,0,2,17,9,13.mid,experiment,1
5,26,9312,72,64,0,2,17,9,13.mid,experiment,1
6,28,9480,67,64,0,2,17,9,13.mid,experiment,1
7,30,9775,67,64,0,2,17,9,13.mid,experiment,1
8,32,10071,67,64,0,2,17,9,13.mid,experiment,1
9,35,10703,79,64,0,2,17,9,13.mid,experiment,1
10,37,11021,78,64,0,2,17,9,13.mid,experiment,1
11,39,11321,79,64,0,2,17,9,13.mid,experiment,1
12,41,11588,76,64,0,2,17,9,13.mid,experiment,1
13,43,11980,72,64,0,2,17,9,13.mid,experiment,1
14,45,12266,76,64,0,2,17,9,13.mid,experiment,1
15,47,12383,79,64,0,2,17,9,13.mid,experiment,1
16,49,12729,84,64,0,2,17,9,13.mid,experiment,1
17,50,12899,83,64,0,2,17,9,13.mid,experiment,1
18,52,12983,81,64,0,2,17,9,13.mid,experiment,1
19,54,13277,81,64,0,2,17,9,13.mid,experiment,1
20,56,13584,81,64,0,2,17,9,13.mid,experiment,1
21,59,14281,83,64,0,2,17,9,13.mid,experiment,1
22,61,14571,81,64,0,2,17,9,13.mid,experiment,1
23,64,,84,,0,2,17,9,13.mid,experiment,1
24,65,,81,,0,2,17,9,13.mid,experiment,1
25,67,15413,78,64,0,2,17,9,13.mid,experiment,1
26,68,15573,79,64,0,2,17,9,13.mid,experiment,1
27,70,16100,79,64,0,2,17,9,13.mid,experiment,1
28,72,16888,79,64,0,2,17,9,13.mid,experiment,1
29,74,17556,77,64,0,2,17,9,13.mid,experiment,1
30,76,17839,77,64,0,2,17,9,13.mid,experiment,1
31,78,18137,76,64,0,2,17,9,13.mid,experiment,1
32,80,18447,76,64,0,2,17,9,13.mid,experiment,1
33,82,19280,74,64,0,2,17,9,13.mid,experiment,1
34,84,20440,79,64,0,2,17,9,13.mid,experiment,1
35,86,20887,77,64,0,2,17,9,13.mid,experiment,1
36,88,21151,76,64,0,2,17,9,13.mid,experiment,1
37,90,21438,76,64,0,2,17,9,13.mid,experiment,1
38,92,21741,76,64,0,2,17,9,13.mid,experiment,1
39,94,22047,76,64,0,2,17,9,13.mid,experiment,1
40,97,22813,81,64,0,2,17,9,13.mid,experiment,1
41,99,23151,77,64,0,2,17,9,13.mid,experiment,1
42,101,23253,76,64,0,2,17,9,13.mid,experiment,1
43,103,23601,74,64,0,2,17,9,13.mid,experiment,1
44,105,23855,76,64,0,2,17,9,13.mid,experiment,1
45,107,24158,79,64,0,2,17,9,13.mid,experiment,1
46,109,24323,74,64,0,2,17,9,13.mid,experiment,1
47,110,24541,71,64,0,2,17,9,13.mid,experiment,1
48,112,24664,72,64,0,2,17,9,13.mid,experiment,1
49,114,24935,72,64,0,2,17,9,13.mid,experiment,1
50,116,25218,74,64,0,2,17,9,13.mid,experiment,1
51,118,25497,74,64,0,2,17,9,13.mid,experiment,1
52,120,26295,76,64,0,2,17,9,13.mid,experiment,1
53,122,26991,65,64,0,2,17,9,13.mid,experiment,1
54,124,27250,65,64,0,2,17,9,13.mid,experiment,1
55,126,27540,64,64,0,2,17,9,13.mid,experiment,1
56,128,27828,64,64,0,2,17,9,13.mid,experiment,1
57,130,28694,62,64,0,2,17,9,13.mid,experiment,1
58,132,29336,67,64,0,2,17,9,13.mid,experiment,1
59,134,29611,67,64,0,2,17,9,13.mid,experiment,1
60,136,29880,71,64,0,2,17,9,13.mid,experiment,1
61,138,30175,71,64,0,2,17,9,13.mid,experiment,1
62,140,30428,72,64,0,2,17,9,13.mid,experiment,1
63,142,30710,72,64,0,2,17,9,13.mid,experiment,1
64,144,31021,73,64,0,2,17,9,13.mid,experiment,1
65,146,31305,73,64,0,2,17,9,13.mid,experiment,1
66,148,32036,74,64,0,2,17,9,13.mid,experiment,1
67,151,32643,77,64,0,2,17,9,13.mid,experiment,1
68,153,33273,76,64,0,2,17,9,13.mid,experiment,1
69,154,33784,74,64,0,2,17,9,13.mid,experiment,1
70,157,34444,72,64,0,2,17,9,13.mid,experiment,1
71,158,34969,84,64,0,2,17,9,13.mid,experiment,1
72,160,35804,84,64,0,2,17,9,13.mid,experiment,1
1,17,7808,79,49,1,2,12,13,11.mid,experiment,1
2,18,8074,78,76,1,2,12,13,11.mid,experiment,1
3,20,8329,79,82,1,2,12,13,11.mid,experiment,1
4,22,8576,76,79,1,2,12,13,11.mid,experiment,1
5,24,8816,72,67,1,2,12,13,11.mid,experiment,1
6,27,9056,67,60,1,2,12,13,11.mid,experiment,1
7,29,9318,67,62,1,2,12,13,11.mid,experiment,1
8,31,9566,67,58,1,2,12,13,11.mid,experiment,1
9,33,9826,79,56,1,2,12,13,11.mid,experiment,1
10,34,10056,78,79,1,2,12,13,11.mid,experiment,1
11,36,10293,79,84,1,2,12,13,11.mid,experiment,1
12,38,10528,76,79,1,2,12,13,11.mid,experiment,1
13,40,10758,72,79,1,2,12,13,11.mid,experiment,1
14,42,11011,76,73,1,2,12,13,11.mid,experiment,1
15,46,11243,79,96,1,2,12,13,11.mid,experiment,1
16,48,11488,84,93,1,2,12,13,11.mid,experiment,1
17,50,11714,83,88,1,2,12,13,11.mid,experiment,1
18,52,11985,81,66,1,2,12,13,11.mid,experiment,1
19,55,12225,81,70,1,2,12,13,11.mid,experiment,1
20,57,12469,81,71,1,2,12,13,11.mid,experiment,1
21,59,12715,83,80,1,2,12,13,11.mid,experiment,1
22,60,12950,81,91,1,2,12,13,11.mid,experiment,1
23,62,13187,84,94,1,2,12,13,11.mid,experiment,1
24,64,13421,81,87,1,2,12,13,11.mid,experiment,1
25,66,13659,78,79,1,2,12,13,11.mid,experiment,1
26,68,13885,79,89,1,2,12,13,11.mid,experiment,1
27,71,14163,79,85,1,2,12,13,11.mid,experiment,1
28,73,14690,79,81,1,2,12,13,11.mid,experiment,1
29,75,15693,77,59,1,2,12,13,11.mid,experiment,1
30,77,15939,77,63,1,2,12,13,11.mid,experiment,1
31,79,16167,76,58,1,2,12,13,11.mid,experiment,1
32,81,16402,76,50,1,2,12,13,11.mid,experiment,1
33,83,16689,74,49,1,2,12,13,11.mid,experiment,1
34,85,17704,79,58,1,2,12,13,11.mid,experiment,1
35,87,18219,77,66,1,2,12,13,11.mid,experiment,1
36,89,18719,76,66,1,2,12,13,11.mid,experiment,1
37,91,18961,76,58,1,2,12,13,11.mid,experiment,1
38,93,19198,76,63,1,2,12,13,11.mid,experiment,1
39,95,19436,76,68,1,2,12,13,11.mid,experiment,1
40,97,19681,81,70,1,2,12,13,11.mid,experiment,1
41,98,19925,77,75,1,2,12,13,11.mid,experiment,1
42,100,20163,76,74,1,2,12,13,11.mid,experiment,1
43,102,20397,74,86,1,2,12,13,11.mid,experiment,1
44,104,20647,76,84,1,2,12,13,11.mid,experiment,1
45,106,20881,79,93,1,2,12,13,11.mid,experiment,1
46,108,21118,74,87,1,2,12,13,11.mid,experiment,1
47,110,21343,71,79,1,2,12,13,11.mid,experiment,1
48,113,21582,72,68,1,2,12,13,11.mid,experiment,1
49,115,21818,72,63,1,2,12,13,11.mid,experiment,1
50,117,22067,74,56,1,2,12,13,11.mid,experiment,1
51,119,22306,74,55,1,2,12,13,11.mid,experiment,1
52,121,22604,76,43,1,2,12,13,11.mid,experiment,1
53,123,23592,65,57,1,2,12,13,11.mid,experiment,1
54,125,23843,65,62,1,2,12,13,11.mid,experiment,1
55,127,24094,64,51,1,2,12,13,11.mid,experiment,1
56,129,24353,64,48,1,2,12,13,11.mid,experiment,1
57,131,24667,62,42,1,2,12,13,11.mid,experiment,1
58,133,25649,67,56,1,2,12,13,11.mid,experiment,1
59,135,25895,67,64,1,2,12,13,11.mid,experiment,1
60,137,26122,71,76,1,2,12,13,11.mid,experiment,1
61,139,26362,71,80,1,2,12,13,11.mid,experiment,1
62,141,26602,72,85,1,2,12,13,11.mid,experiment,1
63,143,26846,72,90,1,2,12,13,11.mid,experiment,1
64,145,,73,,1,2,12,13,11.mid,experiment,1
65,147,27311,73,91,1,2,12,13,11.mid,experiment,1
66,149,27604,74,88,1,2,12,13,11.mid,experiment,1
67,151,28149,77,97,1,2,12,13,11.mid,experiment,1
68,153,28688,76,86,1,2,12,13,11.mid,experiment,1
69,155,29207,74,86,1,2,12,13,11.mid,experiment,1
70,157,29727,72,81,1,2,12,13,11.mid,experiment,1
71,159,30263,84,88,1,2,12,13,11.mid,experiment,1
72,161,30823,84,91,1,2,12,13,11.mid,experiment,1
1,19,8383,79,64,0,2,17,7,7.mid,experiment,1
2,21,8600,78,64,0,2,17,7,7.mid,experiment,1
3,23,9029,79,64,0,2,17,7,7.mid,experiment,1
4,25,9184,76,64,0,2,17,7,7.mid,experiment,1
5,26,9374,72,64,0,2,17,7,7.mid,experiment,1
6,28,9470,67,64,0,2,17,7,7.mid,experiment,1
7,30,9772,67,64,0,2,17,7,7.mid,experiment,1
8,32,10110,67,64,0,2,17,7,7.mid,experiment,1
9,35,10795,79,64,0,2,17,7,7.mid,experiment,1
10,37,11093,78,64,0,2,17,7,7.mid,experiment,1
11,39,11292,79,64,0,2,17,7,7.mid,experiment,1
12,41,11632,76,64,0,2,17,7,7.mid,experiment,1
13,43,12037,72,64,0,2,17,7,7.mid,experiment,1
14,45,12266,76,64,0,2,17,7,7.mid,experiment,1
15,47,12440,79,64,0,2,17,7,7.mid,experiment,1
16,49,12798,84,64,0,2,17,7,7.mid,experiment,1
17,50,12966,83,64,0,2,17,7,7.mid,experiment,1
18,52,13077,81,64,0,2,17,7,7.mid,experiment,1
19,54,13371,81,64,0,2,17,7,7.mid,experiment,1
20,56,13682,81,64,0,2,17,7,7.mid,experiment,1
21,59,14341,83,64,0,2,17,7,7.mid,experiment,1
22,61,14597,81,64,0,2,17,7,7.mid,experiment,1
23,64,,84,,0,2,17,7,7.mid,experiment,1
24,65,,81,,0,2,17,7,7.mid,experiment,1
25,67,15481,78,64,0,2,17,7,7.mid,experiment,1
26,68,15686,79,64,0,2,17,7,7.mid,experiment,1
27,70,16279,79,64,0,2,17,7,7.mid,experiment,1
28,72,16952,79,64,0,2,17,7,7.mid,experiment,1
29,74,17630,77,64,0,2,17,7,7.mid,experiment,1
30,76,17899,77,64,0,2,17,7,7.mid,experiment,1
31,78,18190,76,64,0,2,17,7,7.mid,experiment,1
32,80,18463,76,64,0,2,17,7,7.mid,experiment,1
33,82,19306,74,64,0,2,17,7,7.mid,experiment,1
34,84,20454,79,64,0,2,17,7,7.mid,experiment,1
35,86,20967,77,64,0,2,17,7,7.mid,experiment,1
36,88,21233,76,64,0,2,17,7,7.mid,experiment,1
37,90,21503,76,64,0,2,17,7,7.mid,experiment,1
38,92,21797,76,64,0,2,17,7,7.mid,experiment,1
39,94,22083,76,64,0,2,17,7,7.mid,experiment,1
41,100,22937,81,64,0,2,17,7,7.mid,experiment,1
42,101,23017,77,64,0,2,17,7,7.mid,experiment,1
43,103,23273,76,64,0,2,17,7,7.mid,experiment,1
44,105,23500,74,64,0,2,17,7,7.mid,experiment,1
45,107,23790,76,64,0,2,17,7,7.mid,experiment,1
46,109,24129,79,64,0,2,17,7,7.mid,experiment,1
47,111,24280,74,64,0,2,17,7,7.mid,experiment,1
48,112,24550,71,64,0,2,17,7,7.mid,experiment,1
49,114,24600,72,64,0,2,17,7,7.mid,experiment,1
50,116,24883,72,64,0,2,17,7,7.mid,experiment,1
51,118,25162,74,64,0,2,17,7,7.mid,experiment,1
52,120,25434,74,64,0,2,17,7,7.mid,experiment,1
53,122,26256,76,64,0,2,17,7,7.mid,experiment,1
54,124,26903,65,64,0,2,17,7,7.mid,experiment,1
55,126,27192,65,64,0,2,17,7,7.mid,experiment,1
56,128,27482,64,64,0,2,17,7,7.mid,experiment,1
57,130,27770,64,64,0,2,17,7,7.mid,experiment,1
58,132,28574,62,64,0,2,17,7,7.mid,experiment,1
59,134,29234,67,64,0,2,17,7,7.mid,experiment,1
60,136,29491,67,64,0,2,17,7,7.mid,experiment,1
61,138,29769,71,64,0,2,17,7,7.mid,experiment,1
62,140,30057,71,64,0,2,17,7,7.mid,experiment,1
63,142,30318,72,64,0,2,17,7,7.mid,experiment,1
64,144,30592,72,64,0,2,17,7,7.mid,experiment,1
65,146,30875,73,64,0,2,17,7,7.mid,experiment,1
66,148,31142,73,64,0,2,17,7,7.mid,experiment,1
67,151,32023,74,64,0,2,17,7,7.mid,experiment,1
68,153,32606,77,64,0,2,17,7,7.mid,experiment,1
69,155,33194,76,64,0,2,17,7,7.mid,experiment,1
70,157,33729,74,64,0,2,17,7,7.mid,experiment,1
71,159,34321,72,64,0,2,17,7,7.mid,experiment,1
72,160,34881,84,64,0,2,17,7,7.mid,experiment,1
73,162,35682,84,64,0,2,17,7,7.mid,experiment,1
1,19,8178,79,64,0,2,4,4,5.mid,experiment,1
2,21,8438,78,64,0,2,4,4,5.mid,experiment,1
3,23,8727,79,64,0,2,4,4,5.mid,experiment,1
4,25,,76,,0,2,4,4,5.mid,experiment,1
5,26,,72,,0,2,4,4,5.mid,experiment,1
6,28,9281,67,64,0,2,4,4,5.mid,experiment,1
7,30,9523,67,64,0,2,4,4,5.mid,experiment,1
8,32,9805,67,64,0,2,4,4,5.mid,experiment,1
9,35,10414,79,64,0,2,4,4,5.mid,experiment,1
10,37,10698,78,64,0,2,4,4,5.mid,experiment,1
11,39,10906,79,64,0,2,4,4,5.mid,experiment,1
12,41,11190,76,64,0,2,4,4,5.mid,experiment,1
13,43,11617,72,64,0,2,4,4,5.mid,experiment,1
14,45,11726,76,64,0,2,4,4,5.mid,experiment,1
15,47,11934,79,64,0,2,4,4,5.mid,experiment,1
16,49,12275,84,64,0,2,4,4,5.mid,experiment,1
17,50,12356,83,64,0,2,4,4,5.mid,experiment,1
18,52,12533,81,64,0,2,4,4,5.mid,experiment,1
19,54,12781,81,64,0,2,4,4,5.mid,experiment,1
20,57,,81,,0,2,4,4,5.mid,experiment,1
21,57,13616,83,64,0,2,4,4,5.mid,experiment,1
22,59,13869,81,64,0,2,4,4,5.mid,experiment,1
23,61,14313,84,64,0,2,4,4,5.mid,experiment,1
24,63,14458,81,64,0,2,4,4,5.mid,experiment,1
25,65,,78,,0,2,4,4,5.mid,experiment,1
26,66,,79,,0,2,4,4,5.mid,experiment,1
27,68,14978,79,64,0,2,4,4,5.mid,experiment,1
28,70,15991,79,64,0,2,4,4,5.mid,experiment,1
29,72,16545,77,64,0,2,4,4,5.mid,experiment,1
30,74,16815,77,64,0,2,4,4,5.mid,experiment,1
31,76,17071,76,64,0,2,4,4,5.mid,experiment,1
32,78,17295,76,64,0,2,4,4,5.mid,experiment,1
33,80,18128,74,64,0,2,4,4,5.mid,experiment,1
34,82,18975,79,64,0,2,4,4,5.mid,experiment,1
35,84,19476,77,64,0,2,4,4,5.mid,experiment,1
36,86,19861,76,64,0,2,4,4,5.mid,experiment,1
37,88,20122,76,64,0,2,4,4,5.mid,experiment,1
38,90,20378,76,64,0,2,4,4,5.mid,experiment,1
39,92,20644,76,64,0,2,4,4,5.mid,experiment,1
40,95,21375,81,64,0,2,4,4,5.mid,experiment,1
41,97,21550,77,64,0,2,4,4,5.mid,experiment,1
42,99,21745,76,64,0,2,4,4,5.mid,experiment,1
43,101,22069,74,64,0,2,4,4,5.mid,experiment,1
44,103,22326,76,64,0,2,4,4,5.mid,experiment,1
45,105,22717,79,64,0,2,4,4,5.mid,experiment,1
46,107,22816,74,64,0,2,4,4,5.mid,experiment,1
47,108,22859,71,64,0,2,4,4,5.mid,experiment,1
48,110,23120,72,64,0,2,4,4,5.mid,experiment,1
49,112,23366,72,64,0,2,4,4,5.mid,experiment,1
50,114,23655,74,64,0,2,4,4,5.mid,experiment,1
51,116,23929,74,64,0,2,4,4,5.mid,experiment,1
52,118,24739,76,64,0,2,4,4,5.mid,experiment,1
53,120,25257,65,64,0,2,4,4,5.mid,experiment,1
54,122,25519,65,64,0,2,4,4,5.mid,experiment,1
55,124,26047,64,64,0,2,4,4,5.mid,experiment,1
56,124,,64,,0,2,4,4,5.mid,experiment,1
57,126,26923,62,64,0,2,4,4,5.mid,experiment,1
58,128,27414,67,64,0,2,4,4,5.mid,experiment,1
59,130,27687,67,64,0,2,4,4,5.mid,experiment,1
60,132,27968,71,64,0,2,4,4,5.mid,experiment,1
61,134,28226,71,64,0,2,4,4,5.mid,experiment,1
62,136,28478,72,64,0,2,4,4,5.mid,experiment,1
63,138,28746,72,64,0,2,4,4,5.mid,experiment,1
64,140,29002,73,64,0,2,4,4,5.mid,experiment,1
65,142,29258,73,64,0,2,4,4,5.mid,experiment,1
66,145,30313,74,64,0,2,4,4,5.mid,experiment,1
67,147,30758,77,64,0,2,4,4,5.mid,experiment,1
68,149,31296,76,64,0,2,4,4,5.mid,experiment,1
69,151,31823,74,64,0,2,4,4,5.mid,experiment,1
70,153,32559,72,64,0,2,4,4,5.mid,experiment,1
71,154,32681,84,64,0,2,4,4,5.mid,experiment,1
72,156,33990,84,64,0,2,4,4,5.mid,experiment,1
1,19,8162,79,64,0,2,4,15,14.mid,experiment,1
2,21,8425,78,64,0,2,4,15,14.mid,experiment,1
3,23,8734,79,64,0,2,4,15,14.mid,experiment,1
4,25,9076,76,64,0,2,4,15,14.mid,experiment,1
5,27,9309,72,64,0,2,4,15,14.mid,experiment,1
6,28,9360,67,64,0,2,4,15,14.mid,experiment,1
7,30,9613,67,64,0,2,4,15,14.mid,experiment,1
8,32,9881,67,64,0,2,4,15,14.mid,experiment,1
9,35,10440,79,64,0,2,4,15,14.mid,experiment,1
10,37,10732,78,64,0,2,4,15,14.mid,experiment,1
11,39,10998,79,64,0,2,4,15,14.mid,experiment,1
12,41,11262,76,64,0,2,4,15,14.mid,experiment,1
13,43,11627,72,64,0,2,4,15,14.mid,experiment,1
14,45,11804,76,64,0,2,4,15,14.mid,experiment,1
15,47,12034,79,64,0,2,4,15,14.mid,experiment,1
16,49,12443,84,64,0,2,4,15,14.mid,experiment,1
17,50,12570,83,64,0,2,4,15,14.mid,experiment,1
18,52,12709,81,64,0,2,4,15,14.mid,experiment,1
19,54,12939,81,64,0,2,4,15,14.mid,experiment,1
20,56,13209,81,64,0,2,4,15,14.mid,experiment,1
21,59,13787,83,64,0,2,4,15,14.mid,experiment,1
22,61,14015,81,64,0,2,4,15,14.mid,experiment,1
23,64,,84,,0,2,4,15,14.mid,experiment,1
24,65,,81,,0,2,4,15,14.mid,experiment,1
25,67,14864,78,64,0,2,4,15,14.mid,experiment,1
26,68,14904,79,64,0,2,4,15,14.mid,experiment,1
27,70,15194,79,64,0,2,4,15,14.mid,experiment,1
28,72,16093,79,64,0,2,4,15,14.mid,experiment,1
29,74,16747,77,64,0,2,4,15,14.mid,experiment,1
30,76,17038,77,64,0,2,4,15,14.mid,experiment,1
31,78,17310,76,64,0,2,4,15,14.mid,experiment,1
32,80,17591,76,64,0,2,4,15,14.mid,experiment,1
33,82,18444,74,64,0,2,4,15,14.mid,experiment,1
34,84,19244,79,64,0,2,4,15,14.mid,experiment,1
35,86,19769,77,64,0,2,4,15,14.mid,experiment,1
36,88,20152,76,64,0,2,4,15,14.mid,experiment,1
37,90,20425,76,64,0,2,4,15,14.mid,experiment,1
38,92,20690,76,64,0,2,4,15,14.mid,experiment,1
39,92,,76,,0,2,4,15,14.mid,experiment,1
40,95,21611,81,64,0,2,4,15,14.mid,experiment,1
41,97,21853,77,64,0,2,4,15,14.mid,experiment,1
42,99,22057,76,64,0,2,4,15,14.mid,experiment,1
43,101,22402,74,64,0,2,4,15,14.mid,experiment,1
44,103,22683,76,64,0,2,4,15,14.mid,experiment,1
45,105,23020,79,64,0,2,4,15,14.mid,experiment,1
46,107,23173,74,64,0,2,4,15,14.mid,experiment,1
47,108,23209,71,64,0,2,4,15,14.mid,experiment,1
48,110,23467,72,64,0,2,4,15,14.mid,experiment,1
49,112,23714,72,64,0,2,4,15,14.mid,experiment,1
50,114,23993,74,64,0,2,4,15,14.mid,experiment,1
51,116,24264,74,64,0,2,4,15,14.mid,experiment,1
52,118,25042,76,64,0,2,4,15,14.mid,experiment,1
53,120,25580,65,64,0,2,4,15,14.mid,experiment,1
54,122,25862,65,64,0,2,4,15,14.mid,experiment,1
55,124,26121,64,64,0,2,4,15,14.mid,experiment,1
56,126,26401,64,64,0,2,4,15,14.mid,experiment,1
57,128,27303,62,64,0,2,4,15,14.mid,experiment,1
58,130,27820,67,64,0,2,4,15,14.mid,experiment,1
59,132,28101,67,64,0,2,4,15,14.mid,experiment,1
60,134,28356,71,64,0,2,4,15,14.mid,experiment,1
61,136,28625,71,64,0,2,4,15,14.mid,experiment,1
62,138,28920,72,64,0,2,4,15,14.mid,experiment,1
63,140,29205,72,64,0,2,4,15,14.mid,experiment,1
64,142,29505,73,64,0,2,4,15,14.mid,experiment,1
65,144,29731,73,64,0,2,4,15,14.mid,experiment,1
66,147,30708,74,64,0,2,4,15,14.mid,experiment,1
67,149,31207,77,64,0,2,4,15,14.mid,experiment,1
68,151,31746,76,64,0,2,4,15,14.mid,experiment,1
69,153,32282,74,64,0,2,4,15,14.mid,experiment,1
70,155,32913,72,64,0,2,4,15,14.mid,experiment,1
71,156,33151,84,64,0,2,4,15,14.mid,experiment,1
72,158,34439,84,64,0,2,4,15,14.mid,experiment,1
1,19,8290,79,64,0,2,7,11,15.mid,experiment,1
2,22,,78,,0,2,7,11,15.mid,experiment,1
3,23,,79,,0,2,7,11,15.mid,experiment,1
4,25,9173,76,64,0,2,7,11,15.mid,experiment,1
5,26,9240,72,64,0,2,7,11,15.mid,experiment,1
6,28,9716,67,64,0,2,7,11,15.mid,experiment,1
7,30,9988,67,64,0,2,7,11,15.mid,experiment,1
8,30,,67,,0,2,7,11,15.mid,experiment,1
9,33,10570,79,64,0,2,7,11,15.mid,experiment,1
10,35,10849,78,64,0,2,7,11,15.mid,experiment,1
11,37,11085,79,64,0,2,7,11,15.mid,experiment,1
12,38,11344,76,64,0,2,7,11,15.mid,experiment,1
13,41,11700,72,64,0,2,7,11,15.mid,experiment,1
14,43,11982,76,64,0,2,7,11,15.mid,experiment,1
15,45,12192,79,64,0,2,7,11,15.mid,experiment,1
16,47,12507,84,64,0,2,7,11,15.mid,experiment,1
17,48,12622,83,64,0,2,7,11,15.mid,experiment,1
18,50,12805,81,64,0,2,7,11,15.mid,experiment,1
19,52,13071,81,64,0,2,7,11,15.mid,experiment,1
20,54,13347,81,64,0,2,7,11,15.mid,experiment,1
21,57,13906,83,64,0,2,7,11,15.mid,experiment,1
22,59,14165,81,64,0,2,7,11,15.mid,experiment,1
23,60,14396,84,64,0,2,7,11,15.mid,experiment,1
24,62,14653,81,64,0,2,7,11,15.mid,experiment,1
25,64,14824,78,64,0,2,7,11,15.mid,experiment,1
26,66,15014,79,64,0,2,7,11,15.mid,experiment,1
27,68,15465,79,64,0,2,7,11,15.mid,experiment,1
28,70,16328,79,64,0,2,7,11,15.mid,experiment,1
29,72,17095,77,64,0,2,7,11,15.mid,experiment,1
30,74,17373,77,64,0,2,7,11,15.mid,experiment,1
31,76,17652,76,64,0,2,7,11,15.mid,experiment,1
32,78,17953,76,64,0,2,7,11,15.mid,experiment,1
33,80,18755,74,64,0,2,7,11,15.mid,experiment,1
34,82,19860,79,64,0,2,7,11,15.mid,experiment,1
35,84,20352,77,64,0,2,7,11,15.mid,experiment,1
36,86,20602,76,64,0,2,7,11,15.mid,experiment,1
37,88,20886,76,64,0,2,7,11,15.mid,experiment,1
38,90,21165,76,64,0,2,7,11,15.mid,experiment,1
39,92,21442,76,64,0,2,7,11,15.mid,experiment,1
40,95,22065,81,64,0,2,7,11,15.mid,experiment,1
41,97,22321,77,64,0,2,7,11,15.mid,experiment,1
42,99,22549,76,64,0,2,7,11,15.mid,experiment,1
43,101,22886,74,64,0,2,7,11,15.mid,experiment,1
44,103,23153,76,64,0,2,7,11,15.mid,experiment,1
45,105,23485,79,64,0,2,7,11,15.mid,experiment,1
46,106,23663,74,64,0,2,7,11,15.mid,experiment,1
47,108,23774,71,64,0,2,7,11,15.mid,experiment,1
48,110,24016,72,64,0,2,7,11,15.mid,experiment,1
49,112,24302,72,64,0,2,7,11,15.mid,experiment,1
50,114,24578,74,64,0,2,7,11,15.mid,experiment,1
51,116,24868,74,64,0,2,7,11,15.mid,experiment,1
52,118,25714,76,64,0,2,7,11,15.mid,experiment,1
53,120,26324,65,64,0,2,7,11,15.mid,experiment,1
54,122,26584,65,64,0,2,7,11,15.mid,experiment,1
55,124,26875,64,64,0,2,7,11,15.mid,experiment,1
56,126,27161,64,64,0,2,7,11,15.mid,experiment,1
57,128,28083,62,64,0,2,7,11,15.mid,experiment,1
58,130,28629,67,64,0,2,7,11,15.mid,experiment,1
59,132,28890,67,64,0,2,7,11,15.mid,experiment,1
60,134,29204,71,64,0,2,7,11,15.mid,experiment,1
61,136,29475,71,64,0,2,7,11,15.mid,experiment,1
62,138,29772,72,64,0,2,7,11,15.mid,experiment,1
63,140,30048,72,64,0,2,7,11,15.mid,experiment,1
64,142,30361,73,64,0,2,7,11,15.mid,experiment,1
65,144,30641,73,64,0,2,7,11,15.mid,experiment,1
66,147,31507,74,64,0,2,7,11,15.mid,experiment,1
67,149,32094,77,64,0,2,7,11,15.mid,experiment,1
68,150,32618,76,64,0,2,7,11,15.mid,experiment,1
69,152,33132,74,64,0,2,7,11,15.mid,experiment,1
70,154,33778,72,64,0,2,7,11,15.mid,experiment,1
71,156,34087,84,64,0,2,7,11,15.mid,experiment,1
72,158,35203,84,64,0,2,7,11,15.mid,experiment,1
1,19,8181,79,64,0,2,10,10,6.mid,experiment,1
2,21,8433,78,64,0,2,10,10,6.mid,experiment,1
3,23,8717,79,64,0,2,10,10,6.mid,experiment,1
4,25,9015,76,64,0,2,10,10,6.mid,experiment,1
5,26,9045,72,64,0,2,10,10,6.mid,experiment,1
6,28,9301,67,64,0,2,10,10,6.mid,experiment,1
7,30,9571,67,64,0,2,10,10,6.mid,experiment,1
8,32,9830,67,64,0,2,10,10,6.mid,experiment,1
9,35,10381,79,64,0,2,10,10,6.mid,experiment,1
10,37,10657,78,64,0,2,10,10,6.mid,experiment,1
11,39,10912,79,64,0,2,10,10,6.mid,experiment,1
12,41,11172,76,64,0,2,10,10,6.mid,experiment,1
13,43,11489,72,64,0,2,10,10,6.mid,experiment,1
14,45,11775,76,64,0,2,10,10,6.mid,experiment,1
15,47,11999,79,64,0,2,10,10,6.mid,experiment,1
16,49,12285,84,64,0,2,10,10,6.mid,experiment,1
17,50,12332,83,64,0,2,10,10,6.mid,experiment,1
18,52,12801,81,64,0,2,10,10,6.mid,experiment,1
19,54,13077,81,64,0,2,10,10,6.mid,experiment,1
20,54,,81,,0,2,10,10,6.mid,experiment,1
21,57,13657,83,64,0,2,10,10,6.mid,experiment,1
22,59,13878,81,64,0,2,10,10,6.mid,experiment,1
23,61,14163,84,64,0,2,10,10,6.mid,experiment,1
24,63,14421,81,64,0,2,10,10,6.mid,experiment,1
25,65,14709,78,64,0,2,10,10,6.mid,experiment,1
26,66,14710,79,64,0,2,10,10,6.mid,experiment,1
27,68,15081,79,64,0,2,10,10,6.mid,experiment,1
28,70,16181,79,64,0,2,10,10,6.mid,experiment,1
29,72,16831,77,64,0,2,10,10,6.mid,experiment,1
30,74,17099,77,64,0,2,10,10,6.mid,experiment,1
31,76,17383,76,64,0,2,10,10,6.mid,experiment,1
32,78,17665,76,64,0,2,10,10,6.mid,experiment,1
33,80,18309,74,64,0,2,10,10,6.mid,experiment,1
34,82,19157,79,64,0,2,10,10,6.mid,experiment,1
35,84,19699,77,64,0,2,10,10,6.mid,experiment,1
36,86,20237,76,64,0,2,10,10,6.mid,experiment,1
37,88,20547,76,64,0,2,10,10,6.mid,experiment,1
38,90,20801,76,64,0,2,10,10,6.mid,experiment,1
39,92,21055,76,64,0,2,10,10,6.mid,experiment,1
40,95,21662,81,64,0,2,10,10,6.mid,experiment,1
41,97,21880,77,64,0,2,10,10,6.mid,experiment,1
42,99,22117,76,64,0,2,10,10,6.mid,experiment,1
43,101,22409,74,64,0,2,10,10,6.mid,experiment,1
44,103,22658,76,64,0,2,10,10,6.mid,experiment,1
45,105,22958,79,64,0,2,10,10,6.mid,experiment,1
46,107,23201,74,64,0,2,10,10,6.mid,experiment,1
47,108,23247,71,64,0,2,10,10,6.mid,experiment,1
48,110,23494,72,64,0,2,10,10,6.mid,experiment,1
49,112,23773,72,64,0,2,10,10,6.mid,experiment,1
50,114,24051,74,64,0,2,10,10,6.mid,experiment,1
51,116,24313,74,64,0,2,10,10,6.mid,experiment,1
52,118,25091,76,64,0,2,10,10,6.mid,experiment,1
53,120,25763,65,64,0,2,10,10,6.mid,experiment,1
54,122,26041,65,64,0,2,10,10,6.mid,experiment,1
55,124,26586,64,64,0,2,10,10,6.mid,experiment,1
56,126,,64,,0,2,10,10,6.mid,experiment,1
57,126,27349,62,64,0,2,10,10,6.mid,experiment,1
58,128,28030,67,64,0,2,10,10,6.mid,experiment,1
59,130,28311,67,64,0,2,10,10,6.mid,experiment,1
60,132,28562,71,64,0,2,10,10,6.mid,experiment,1
61,134,28843,71,64,0,2,10,10,6.mid,experiment,1
62,136,29115,72,64,0,2,10,10,6.mid,experiment,1
63,138,29389,72,64,0,2,10,10,6.mid,experiment,1
64,140,29655,73,64,0,2,10,10,6.mid,experiment,1
65,142,29932,73,64,0,2,10,10,6.mid,experiment,1
66,144,30569,74,64,0,2,10,10,6.mid,experiment,1
67,146,31277,77,64,0,2,10,10,6.mid,experiment,1
68,148,31801,76,64,0,2,10,10,6.mid,experiment,1
69,152,32375,74,64,0,2,10,10,6.mid,experiment,1
70,154,32913,72,64,0,2,10,10,6.mid,experiment,1
71,156,33547,84,64,0,2,10,10,6.mid,experiment,1
72,158,34693,84,64,0,2,10,10,6.mid,experiment,1
1,19,8322,79,64,0,2,17,1,4.mid,experiment,1
2,21,8620,78,64,0,2,17,1,4.mid,experiment,1
3,23,8889,79,64,0,2,17,1,4.mid,experiment,1
4,25,9082,76,64,0,2,17,1,4.mid,experiment,1
5,26,9113,72,64,0,2,17,1,4.mid,experiment,1
6,28,9401,67,64,0,2,17,1,4.mid,experiment,1
7,30,9722,67,64,0,2,17,1,4.mid,experiment,1
8,32,10003,67,64,0,2,17,1,4.mid,experiment,1
9,35,10696,79,64,0,2,17,1,4.mid,experiment,1
10,37,10932,78,64,0,2,17,1,4.mid,experiment,1
11,39,11183,79,64,0,2,17,1,4.mid,experiment,1
12,41,11539,76,64,0,2,17,1,4.mid,experiment,1
13,43,11825,72,64,0,2,17,1,4.mid,experiment,1
14,45,12102,76,64,0,2,17,1,4.mid,experiment,1
15,47,12314,79,64,0,2,17,1,4.mid,experiment,1
16,49,12688,84,64,0,2,17,1,4.mid,experiment,1
17,50,12857,83,64,0,2,17,1,4.mid,experiment,1
18,52,13242,81,64,0,2,17,1,4.mid,experiment,1
19,54,13520,81,64,0,2,17,1,4.mid,experiment,1
20,54,,81,,0,2,17,1,4.mid,experiment,1
21,57,14170,83,64,0,2,17,1,4.mid,experiment,1
22,59,14427,81,64,0,2,17,1,4.mid,experiment,1
23,62,,84,,0,2,17,1,4.mid,experiment,1
24,63,,81,,0,2,17,1,4.mid,experiment,1
25,65,15264,78,64,0,2,17,1,4.mid,experiment,1
26,66,15432,79,64,0,2,17,1,4.mid,experiment,1
27,68,15847,79,64,0,2,17,1,4.mid,experiment,1
28,70,16708,79,64,0,2,17,1,4.mid,experiment,1
29,72,17334,77,64,0,2,17,1,4.mid,experiment,1
30,74,17617,77,64,0,2,17,1,4.mid,experiment,1
31,76,17891,76,64,0,2,17,1,4.mid,experiment,1
32,78,18150,76,64,0,2,17,1,4.mid,experiment,1
33,80,18938,74,64,0,2,17,1,4.mid,experiment,1
34,82,20084,79,64,0,2,17,1,4.mid,experiment,1
35,84,20550,77,64,0,2,17,1,4.mid,experiment,1
36,86,20783,76,64,0,2,17,1,4.mid,experiment,1
37,88,21100,76,64,0,2,17,1,4.mid,experiment,1
38,90,21336,76,64,0,2,17,1,4.mid,experiment,1
39,92,21629,76,64,0,2,17,1,4.mid,experiment,1
40,96,22499,81,64,0,2,17,1,4.mid,experiment,1
41,97,22556,77,64,0,2,17,1,4.mid,experiment,1
42,99,22770,76,64,0,2,17,1,4.mid,experiment,1
43,101,23058,74,64,0,2,17,1,4.mid,experiment,1
44,103,23347,76,64,0,2,17,1,4.mid,experiment,1
45,106,,79,,0,2,17,1,4.mid,experiment,1
46,107,,74,,0,2,17,1,4.mid,experiment,1
47,108,23922,71,64,0,2,17,1,4.mid,experiment,1
48,110,24175,72,64,0,2,17,1,4.mid,experiment,1
49,112,24448,72,64,0,2,17,1,4.mid,experiment,1
50,114,24722,74,64,0,2,17,1,4.mid,experiment,1
51,116,25001,74,64,0,2,17,1,4.mid,experiment,1
52,118,25801,76,64,0,2,17,1,4.mid,experiment,1
53,120,26434,65,64,0,2,17,1,4.mid,experiment,1
54,122,26693,65,64,0,2,17,1,4.mid,experiment,1
55,124,26999,64,64,0,2,17,1,4.mid,experiment,1
56,126,27257,64,64,0,2,17,1,4.mid,experiment,1
57,128,28065,62,64,0,2,17,1,4.mid,experiment,1
58,130,28686,67,64,0,2,17,1,4.mid,experiment,1
59,132,28957,67,64,0,2,17,1,4.mid,experiment,1
60,134,29218,71,64,0,2,17,1,4.mid,experiment,1
61,136,29482,71,64,0,2,17,1,4.mid,experiment,1
62,138,29763,72,64,0,2,17,1,4.mid,experiment,1
63,140,30004,72,64,0,2,17,1,4.mid,experiment,1
64,142,30312,73,64,0,2,17,1,4.mid,experiment,1
65,144,30561,73,64,0,2,17,1,4.mid,experiment,1
66,147,31392,74,64,0,2,17,1,4.mid,experiment,1
67,149,32005,77,64,0,2,17,1,4.mid,experiment,1
68,151,32616,76,64,0,2,17,1,4.mid,experiment,1
69,152,33056,74,64,0,2,17,1,4.mid,experiment,1
70,154,33586,72,64,0,2,17,1,4.mid,experiment,1
71,156,34003,84,64,0,2,17,1,4.mid,experiment,1
72,158,34948,84,64,0,2,17,1,4.mid,experiment,1
1,19,8335,79,64,0,2,17,6,3.mid,experiment,1
2,21,8553,78,64,0,2,17,6,3.mid,experiment,1
3,23,9005,79,64,0,2,17,6,3.mid,experiment,1
4,25,9149,76,64,0,2,17,6,3.mid,experiment,1
5,26,9299,72,64,0,2,17,6,3.mid,experiment,1
6,28,9418,67,64,0,2,17,6,3.mid,experiment,1
7,30,9707,67,64,0,2,17,6,3.mid,experiment,1
8,32,9987,67,64,0,2,17,6,3.mid,experiment,1
9,35,10663,79,64,0,2,17,6,3.mid,experiment,1
10,37,10915,78,64,0,2,17,6,3.mid,experiment,1
11,39,11179,79,64,0,2,17,6,3.mid,experiment,1
12,41,11513,76,64,0,2,17,6,3.mid,experiment,1
13,43,11827,72,64,0,2,17,6,3.mid,experiment,1
14,45,12137,76,64,0,2,17,6,3.mid,experiment,1
15,47,12323,79,64,0,2,17,6,3.mid,experiment,1
16,49,12721,84,64,0,2,17,6,3.mid,experiment,1
17,50,12883,83,64,0,2,17,6,3.mid,experiment,1
18,52,12947,81,64,0,2,17,6,3.mid,experiment,1
19,54,13253,81,64,0,2,17,6,3.mid,experiment,1
20,56,13528,81,64,0,2,17,6,3.mid,experiment,1
21,59,14265,83,64,0,2,17,6,3.mid,experiment,1
22,61,14513,81,64,0,2,17,6,3.mid,experiment,1
23,64,15037,84,64,0,2,17,6,3.mid,experiment,1
24,65,15044,81,64,0,2,17,6,3.mid,experiment,1
25,67,15313,78,64,0,2,17,6,3.mid,experiment,1
26,68,15527,79,64,0,2,17,6,3.mid,experiment,1
27,70,16121,79,64,0,2,17,6,3.mid,experiment,1
28,72,16913,79,64,0,2,17,6,3.mid,experiment,1
29,74,17577,77,64,0,2,17,6,3.mid,experiment,1
30,76,17869,77,64,0,2,17,6,3.mid,experiment,1
31,78,18173,76,64,0,2,17,6,3.mid,experiment,1
32,80,18453,76,64,0,2,17,6,3.mid,experiment,1
33,82,19246,74,64,0,2,17,6,3.mid,experiment,1
34,84,20385,79,64,0,2,17,6,3.mid,experiment,1
35,86,20819,77,64,0,2,17,6,3.mid,experiment,1
36,88,21129,76,64,0,2,17,6,3.mid,experiment,1
37,90,21447,76,64,0,2,17,6,3.mid,experiment,1
38,92,21725,76,64,0,2,17,6,3.mid,experiment,1
39,94,21989,76,64,0,2,17,6,3.mid,experiment,1
40,98,22957,81,64,0,2,17,6,3.mid,experiment,1
41,99,23052,77,64,0,2,17,6,3.mid,experiment,1
42,101,23254,76,64,0,2,17,6,3.mid,experiment,1
43,103,23517,74,64,0,2,17,6,3.mid,experiment,1
44,105,23808,76,64,0,2,17,6,3.mid,experiment,1
45,108,,79,,0,2,17,6,3.mid,experiment,1
46,109,,74,,0,2,17,6,3.mid,experiment,1
47,110,24480,71,64,0,2,17,6,3.mid,experiment,1
48,112,24591,72,64,0,2,17,6,3.mid,experiment,1
49,114,24873,72,64,0,2,17,6,3.mid,experiment,1
50,116,25157,74,64,0,2,17,6,3.mid,experiment,1
51,116,,74,,0,2,17,6,3.mid,experiment,1
52,118,26270,76,64,0,2,17,6,3.mid,experiment,1
53,120,26946,65,64,0,2,17,6,3.mid,experiment,1
54,122,27219,65,64,0,2,17,6,3.mid,experiment,1
55,124,27521,64,64,0,2,17,6,3.mid,experiment,1
56,126,27791,64,64,0,2,17,6,3.mid,experiment,1
57,128,28611,62,64,0,2,17,6,3.mid,experiment,1
58,130,29586,67,64,0,2,17,6,3.mid,experiment,1
59,132,30167,67,64,0,2,17,6,3.mid,experiment,1
60,134,30406,71,64,0,2,17,6,3.mid,experiment,1
61,136,30665,71,64,0,2,17,6,3.mid,experiment,1
62,138,30941,72,64,0,2,17,6,3.mid,experiment,1
63,140,31215,72,64,0,2,17,6,3.mid,experiment,1
64,142,31531,73,64,0,2,17,6,3.mid,experiment,1
65,144,31787,73,64,0,2,17,6,3.mid,experiment,1
66,147,32683,74,64,0,2,17,6,3.mid,experiment,1
67,149,33311,77,64,0,2,17,6,3.mid,experiment,1
68,151,33891,76,64,0,2,17,6,3.mid,experiment,1
69,153,34428,74,64,0,2,17,6,3.mid,experiment,1
70,155,35059,72,64,0,2,17,6,3.mid,experiment,1
71,156,35591,84,64,0,2,17,6,3.mid,experiment,1
72,158,36493,84,64,0,2,17,6,3.mid,experiment,1
1,19,8307,79,64,0,2,17,14,16.mid,experiment,1
2,21,8565,78,64,0,2,17,14,16.mid,experiment,1
3,23,8851,79,64,0,2,17,14,16.mid,experiment,1
4,25,9084,76,64,0,2,17,14,16.mid,experiment,1
5,26,9333,72,64,0,2,17,14,16.mid,experiment,1
6,28,9397,67,64,0,2,17,14,16.mid,experiment,1
7,30,9686,67,64,0,2,17,14,16.mid,experiment,1
8,32,9979,67,64,0,2,17,14,16.mid,experiment,1
9,35,10644,79,64,0,2,17,14,16.mid,experiment,1
10,37,10892,78,64,0,2,17,14,16.mid,experiment,1
11,39,11173,79,64,0,2,17,14,16.mid,experiment,1
12,41,11493,76,64,0,2,17,14,16.mid,experiment,1
13,43,11810,72,64,0,2,17,14,16.mid,experiment,1
14,45,12139,76,64,0,2,17,14,16.mid,experiment,1
15,47,12286,79,64,0,2,17,14,16.mid,experiment,1
16,49,12639,84,64,0,2,17,14,16.mid,experiment,1
17,50,12815,83,64,0,2,17,14,16.mid,experiment,1
18,52,12905,81,64,0,2,17,14,16.mid,experiment,1
19,54,13199,81,64,0,2,17,14,16.mid,experiment,1
20,56,13492,81,64,0,2,17,14,16.mid,experiment,1
21,59,14126,83,64,0,2,17,14,16.mid,experiment,1
22,61,14409,81,64,0,2,17,14,16.mid,experiment,1
23,64,,84,,0,2,17,14,16.mid,experiment,1
24,65,,81,,0,2,17,14,16.mid,experiment,1
25,67,15254,78,64,0,2,17,14,16.mid,experiment,1
26,68,15433,79,64,0,2,17,14,16.mid,experiment,1
27,70,16008,79,64,0,2,17,14,16.mid,experiment,1
28,72,16727,79,64,0,2,17,14,16.mid,experiment,1
29,74,17353,77,64,0,2,17,14,16.mid,experiment,1
30,76,17648,77,64,0,2,17,14,16.mid,experiment,1
31,78,17942,76,64,0,2,17,14,16.mid,experiment,1
32,78,,76,,0,2,17,14,16.mid,experiment,1
33,80,19072,74,64,0,2,17,14,16.mid,experiment,1
34,82,20191,79,64,0,2,17,14,16.mid,experiment,1
35,84,20695,77,64,0,2,17,14,16.mid,experiment,1
36,86,21021,76,64,0,2,17,14,16.mid,experiment,1
37,88,21283,76,64,0,2,17,14,16.mid,experiment,1
38,90,21569,76,64,0,2,17,14,16.mid,experiment,1
39,92,21862,76,64,0,2,17,14,16.mid,experiment,1
40,95,22619,81,64,0,2,17,14,16.mid,experiment,1
41,98,22958,77,64,0,2,17,14,16.mid,experiment,1
42,99,23048,76,64,0,2,17,14,16.mid,experiment,1
43,101,23331,74,64,0,2,17,14,16.mid,experiment,1
44,103,23606,76,64,0,2,17,14,16.mid,experiment,1
45,105,24067,79,64,0,2,17,14,16.mid,experiment,1
46,107,24150,74,64,0,2,17,14,16.mid,experiment,1
47,108,24412,71,64,0,2,17,14,16.mid,experiment,1
48,110,24480,72,64,0,2,17,14,16.mid,experiment,1
49,112,24749,72,64,0,2,17,14,16.mid,experiment,1
50,114,25031,74,64,0,2,17,14,16.mid,experiment,1
51,116,25312,74,64,0,2,17,14,16.mid,experiment,1
52,118,26166,76,64,0,2,17,14,16.mid,experiment,1
53,120,26838,65,64,0,2,17,14,16.mid,experiment,1
54,122,27126,65,64,0,2,17,14,16.mid,experiment,1
55,124,27425,64,64,0,2,17,14,16.mid,experiment,1
56,126,27711,64,64,0,2,17,14,16.mid,experiment,1
57,128,28576,62,64,0,2,17,14,16.mid,experiment,1
58,130,29495,67,64,0,2,17,14,16.mid,experiment,1
59,132,29762,67,64,0,2,17,14,16.mid,experiment,1
60,134,30053,71,64,0,2,17,14,16.mid,experiment,1
61,136,30335,71,64,0,2,17,14,16.mid,experiment,1
62,138,30613,72,64,0,2,17,14,16.mid,experiment,1
63,140,30905,72,64,0,2,17,14,16.mid,experiment,1
64,142,31173,73,64,0,2,17,14,16.mid,experiment,1
65,144,31451,73,64,0,2,17,14,16.mid,experiment,1
66,147,32337,74,64,0,2,17,14,16.mid,experiment,1
67,149,32892,77,64,0,2,17,14,16.mid,experiment,1
68,151,33440,76,64,0,2,17,14,16.mid,experiment,1
69,153,34000,74,64,0,2,17,14,16.mid,experiment,1
70,155,34682,72,64,0,2,17,14,16.mid,experiment,1
71,156,35082,84,64,0,2,17,14,16.mid,experiment,1
72,158,35928,84,64,0,2,17,14,16.mid,experiment,1
1,19,10159,79,64,0,2,20,1,7.mid,experiment,1
2,21,10416,78,64,0,2,20,1,7.mid,experiment,1
3,23,10830,79,64,0,2,20,1,7.mid,experiment,1
4,25,11106,76,64,0,2,20,1,7.mid,experiment,1
5,27,11407,72,64,0,2,20,1,7.mid,experiment,1
6,28,11484,67,64,0,2,20,1,7.mid,experiment,1
7,30,11779,67,64,0,2,20,1,7.mid,experiment,1
8,32,12109,67,64,0,2,20,1,7.mid,experiment,1
9,35,12844,79,64,0,2,20,1,7.mid,experiment,1
10,36,13122,78,64,0,2,20,1,7.mid,experiment,1
11,39,13451,79,64,0,2,20,1,7.mid,experiment,1
12,41,13767,76,64,0,2,20,1,7.mid,experiment,1
13,43,14123,72,64,0,2,20,1,7.mid,experiment,1
14,45,14464,76,64,0,2,20,1,7.mid,experiment,1
15,47,14698,79,64,0,2,20,1,7.mid,experiment,1
16,49,15173,84,64,0,2,20,1,7.mid,experiment,1
17,51,15358,83,64,0,2,20,1,7.mid,experiment,1
18,52,15381,81,64,0,2,20,1,7.mid,experiment,1
19,54,15687,81,64,0,2,20,1,7.mid,experiment,1
20,56,16011,81,64,0,2,20,1,7.mid,experiment,1
21,59,16701,83,64,0,2,20,1,7.mid,experiment,1
22,60,16967,81,64,0,2,20,1,7.mid,experiment,1
23,63,17456,84,64,0,2,20,1,7.mid,experiment,1
24,65,17649,81,64,0,2,20,1,7.mid,experiment,1
25,67,17916,78,64,0,2,20,1,7.mid,experiment,1
26,68,18072,79,64,0,2,20,1,7.mid,experiment,1
27,70,18579,79,64,0,2,20,1,7.mid,experiment,1
28,72,19597,79,64,0,2,20,1,7.mid,experiment,1
29,74,20409,77,64,0,2,20,1,7.mid,experiment,1
30,76,20734,77,64,0,2,20,1,7.mid,experiment,1
31,78,21078,76,64,0,2,20,1,7.mid,experiment,1
32,80,21388,76,64,0,2,20,1,7.mid,experiment,1
33,82,22050,74,64,0,2,20,1,7.mid,experiment,1
34,85,23837,79,64,0,2,20,1,7.mid,experiment,1
35,87,24437,77,64,0,2,20,1,7.mid,experiment,1
36,88,24534,76,64,0,2,20,1,7.mid,experiment,1
37,90,24822,76,64,0,2,20,1,7.mid,experiment,1
38,92,25142,76,64,0,2,20,1,7.mid,experiment,1
39,94,25445,76,64,0,2,20,1,7.mid,experiment,1
40,97,26263,81,64,0,2,20,1,7.mid,experiment,1
41,99,26510,77,64,0,2,20,1,7.mid,experiment,1
42,101,26750,76,64,0,2,20,1,7.mid,experiment,1
43,103,27099,74,64,0,2,20,1,7.mid,experiment,1
44,105,27389,76,64,0,2,20,1,7.mid,experiment,1
45,107,27811,79,64,0,2,20,1,7.mid,experiment,1
46,109,28005,74,64,0,2,20,1,7.mid,experiment,1
47,111,,71,,0,2,20,1,7.mid,experiment,1
48,112,,72,,0,2,20,1,7.mid,experiment,1
49,114,28678,72,64,0,2,20,1,7.mid,experiment,1
50,116,28988,74,64,0,2,20,1,7.mid,experiment,1
51,118,29317,74,64,0,2,20,1,7.mid,experiment,1
52,120,29901,76,64,0,2,20,1,7.mid,experiment,1
53,122,31018,65,64,0,2,20,1,7.mid,experiment,1
54,124,31326,65,64,0,2,20,1,7.mid,experiment,1
55,126,31950,64,64,0,2,20,1,7.mid,experiment,1
56,126,,64,,0,2,20,1,7.mid,experiment,1
57,128,32660,62,64,0,2,20,1,7.mid,experiment,1
58,130,33648,67,64,0,2,20,1,7.mid,experiment,1
59,132,33965,67,64,0,2,20,1,7.mid,experiment,1
60,134,34252,71,64,0,2,20,1,7.mid,experiment,1
61,136,34597,71,64,0,2,20,1,7.mid,experiment,1
62,138,34878,72,64,0,2,20,1,7.mid,experiment,1
63,140,35141,72,64,0,2,20,1,7.mid,experiment,1
64,142,35474,73,64,0,2,20,1,7.mid,experiment,1
65,144,35737,73,64,0,2,20,1,7.mid,experiment,1
66,147,36781,74,64,0,2,20,1,7.mid,experiment,1
67,149,37358,77,64,0,2,20,1,7.mid,experiment,1
68,151,37942,76,64,0,2,20,1,7.mid,experiment,1
69,152,38478,74,64,0,2,20,1,7.mid,experiment,1
70,154,39057,72,64,0,2,20,1,7.mid,experiment,1
71,156,39308,84,64,0,2,20,1,7.mid,experiment,1
72,158,40193,84,64,0,2,20,1,7.mid,experiment,1
1,19,8086,79,64,0,2,6,2,12.mid,experiment,1
2,21,8389,78,64,0,2,6,2,12.mid,experiment,1
3,23,8612,79,64,0,2,6,2,12.mid,experiment,1
4,25,8912,76,64,0,2,6,2,12.mid,experiment,1
5,26,8981,72,64,0,2,6,2,12.mid,experiment,1
6,28,9230,67,64,0,2,6,2,12.mid,experiment,1
7,30,9496,67,64,0,2,6,2,12.mid,experiment,1
8,32,9756,67,64,0,2,6,2,12.mid,experiment,1
9,37,10287,79,64,0,2,6,2,12.mid,experiment,1
10,39,10647,78,64,0,2,6,2,12.mid,experiment,1
11,41,10857,79,64,0,2,6,2,12.mid,experiment,1
12,43,11112,76,64,0,2,6,2,12.mid,experiment,1
13,45,11449,72,64,0,2,6,2,12.mid,experiment,1
14,47,11698,76,64,0,2,6,2,12.mid,experiment,1
15,49,11911,79,64,0,2,6,2,12.mid,experiment,1
16,51,12281,84,64,0,2,6,2,12.mid,experiment,1
17,52,12303,83,64,0,2,6,2,12.mid,experiment,1
18,54,12512,81,64,0,2,6,2,12.mid,experiment,1
19,56,12790,81,64,0,2,6,2,12.mid,experiment,1
20,58,13047,81,64,0,2,6,2,12.mid,experiment,1
21,61,13604,83,64,0,2,6,2,12.mid,experiment,1
22,63,13829,81,64,0,2,6,2,12.mid,experiment,1
23,65,14145,84,64,0,2,6,2,12.mid,experiment,1
24,67,14342,81,64,0,2,6,2,12.mid,experiment,1
25,68,14476,78,64,0,2,6,2,12.mid,experiment,1
26,70,14651,79,64,0,2,6,2,12.mid,experiment,1
27,72,15228,79,64,0,2,6,2,12.mid,experiment,1
28,74,16205,79,64,0,2,6,2,12.mid,experiment,1
29,76,16671,77,64,0,2,6,2,12.mid,experiment,1
30,78,16950,77,64,0,2,6,2,12.mid,experiment,1
31,80,17255,76,64,0,2,6,2,12.mid,experiment,1
32,82,17509,76,64,0,2,6,2,12.mid,experiment,1
33,84,18408,74,64,0,2,6,2,12.mid,experiment,1
34,86,19289,79,64,0,2,6,2,12.mid,experiment,1
35,88,19867,77,64,0,2,6,2,12.mid,experiment,1
36,90,20119,76,64,0,2,6,2,12.mid,experiment,1
37,92,20386,76,64,0,2,6,2,12.mid,experiment,1
38,94,20636,76,64,0,2,6,2,12.mid,experiment,1
39,96,20890,76,64,0,2,6,2,12.mid,experiment,1
40,99,21495,81,64,0,2,6,2,12.mid,experiment,1
41,101,21736,77,64,0,2,6,2,12.mid,experiment,1
42,103,21969,76,64,0,2,6,2,12.mid,experiment,1
43,105,22259,74,64,0,2,6,2,12.mid,experiment,1
44,107,22515,76,64,0,2,6,2,12.mid,experiment,1
45,109,22782,79,64,0,2,6,2,12.mid,experiment,1
46,111,23029,74,64,0,2,6,2,12.mid,experiment,1
47,112,23116,71,64,0,2,6,2,12.mid,experiment,1
48,114,23328,72,64,0,2,6,2,12.mid,experiment,1
49,116,23627,72,64,0,2,6,2,12.mid,experiment,1
50,118,23882,74,64,0,2,6,2,12.mid,experiment,1
51,120,24139,74,64,0,2,6,2,12.mid,experiment,1
52,122,25074,76,64,0,2,6,2,12.mid,experiment,1
53,124,25584,65,64,0,2,6,2,12.mid,experiment,1
54,126,25869,65,64,0,2,6,2,12.mid,experiment,1
55,128,26167,64,64,0,2,6,2,12.mid,experiment,1
56,130,26438,64,64,0,2,6,2,12.mid,experiment,1
57,132,27391,62,64,0,2,6,2,12.mid,experiment,1
58,134,27897,67,64,0,2,6,2,12.mid,experiment,1
59,136,28163,67,64,0,2,6,2,12.mid,experiment,1
60,138,28448,71,64,0,2,6,2,12.mid,experiment,1
61,140,28711,71,64,0,2,6,2,12.mid,experiment,1
62,142,29232,72,64,0,2,6,2,12.mid,experiment,1
63,142,,72,,0,2,6,2,12.mid,experiment,1
64,144,29482,73,64,0,2,6,2,12.mid,experiment,1
65,146,29754,73,64,0,2,6,2,12.mid,experiment,1
66,149,30615,74,64,0,2,6,2,12.mid,experiment,1
67,150,31052,77,64,0,2,6,2,12.mid,experiment,1
68,152,31636,76,64,0,2,6,2,12.mid,experiment,1
69,154,32177,74,64,0,2,6,2,12.mid,experiment,1
70,156,32679,72,64,0,2,6,2,12.mid,experiment,1
71,158,33213,84,64,0,2,6,2,12.mid,experiment,1
72,160,33941,84,64,0,2,6,2,12.mid,experiment,1
1,19,8081,79,64,0,2,6,12,10.mid,experiment,1
2,21,8373,78,64,0,2,6,12,10.mid,experiment,1
3,23,8608,79,64,0,2,6,12,10.mid,experiment,1
4,25,8939,76,64,0,2,6,12,10.mid,experiment,1
5,26,8997,72,64,0,2,6,12,10.mid,experiment,1
6,28,9178,67,64,0,2,6,12,10.mid,experiment,1
7,30,9723,67,64,0,2,6,12,10.mid,experiment,1
8,33,,67,,0,2,6,12,10.mid,experiment,1
9,33,10271,79,64,0,2,6,12,10.mid,experiment,1
10,35,10574,78,64,0,2,6,12,10.mid,experiment,1
11,37,10784,79,64,0,2,6,12,10.mid,experiment,1
12,39,11028,76,64,0,2,6,12,10.mid,experiment,1
13,41,11334,72,64,0,2,6,12,10.mid,experiment,1
14,43,11596,76,64,0,2,6,12,10.mid,experiment,1
15,45,11827,79,64,0,2,6,12,10.mid,experiment,1
16,47,12143,84,64,0,2,6,12,10.mid,experiment,1
17,48,12252,83,64,0,2,6,12,10.mid,experiment,1
18,50,12398,81,64,0,2,6,12,10.mid,experiment,1
19,52,12694,81,64,0,2,6,12,10.mid,experiment,1
20,54,12963,81,64,0,2,6,12,10.mid,experiment,1
21,57,13488,83,64,0,2,6,12,10.mid,experiment,1
22,59,13702,81,64,0,2,6,12,10.mid,experiment,1
23,61,13966,84,64,0,2,6,12,10.mid,experiment,1
24,63,14222,81,64,0,2,6,12,10.mid,experiment,1
25,64,14371,78,64,0,2,6,12,10.mid,experiment,1
26,66,14582,79,64,0,2,6,12,10.mid,experiment,1
27,68,15109,79,64,0,2,6,12,10.mid,experiment,1
28,70,16038,79,64,0,2,6,12,10.mid,experiment,1
29,72,16458,77,64,0,2,6,12,10.mid,experiment,1
30,74,16727,77,64,0,2,6,12,10.mid,experiment,1
31,76,16997,76,64,0,2,6,12,10.mid,experiment,1
32,78,17267,76,64,0,2,6,12,10.mid,experiment,1
33,80,18188,74,64,0,2,6,12,10.mid,experiment,1
34,82,19058,79,64,0,2,6,12,10.mid,experiment,1
35,84,19608,77,64,0,2,6,12,10.mid,experiment,1
36,86,19801,76,64,0,2,6,12,10.mid,experiment,1
37,88,20075,76,64,0,2,6,12,10.mid,experiment,1
38,90,20337,76,64,0,2,6,12,10.mid,experiment,1
39,92,20579,76,64,0,2,6,12,10.mid,experiment,1
40,95,21159,81,64,0,2,6,12,10.mid,experiment,1
41,97,21396,77,64,0,2,6,12,10.mid,experiment,1
42,99,21628,76,64,0,2,6,12,10.mid,experiment,1
43,102,21913,74,64,0,2,6,12,10.mid,experiment,1
44,105,22136,76,64,0,2,6,12,10.mid,experiment,1
45,107,22455,79,64,0,2,6,12,10.mid,experiment,1
46,109,22674,74,64,0,2,6,12,10.mid,experiment,1
47,110,22771,71,64,0,2,6,12,10.mid,experiment,1
48,112,22969,72,64,0,2,6,12,10.mid,experiment,1
49,114,23224,72,64,0,2,6,12,10.mid,experiment,1
50,116,23469,74,64,0,2,6,12,10.mid,experiment,1
51,118,23749,74,64,0,2,6,12,10.mid,experiment,1
52,120,24622,76,64,0,2,6,12,10.mid,experiment,1
53,122,25098,65,64,0,2,6,12,10.mid,experiment,1
54,124,25370,65,64,0,2,6,12,10.mid,experiment,1
55,126,25686,64,64,0,2,6,12,10.mid,experiment,1
56,128,25950,64,64,0,2,6,12,10.mid,experiment,1
57,130,26912,62,64,0,2,6,12,10.mid,experiment,1
58,132,27295,67,64,0,2,6,12,10.mid,experiment,1
59,134,27564,67,64,0,2,6,12,10.mid,experiment,1
60,136,27829,71,64,0,2,6,12,10.mid,experiment,1
61,138,28106,71,64,0,2,6,12,10.mid,experiment,1
62,140,28364,72,64,0,2,6,12,10.mid,experiment,1
63,142,28631,72,64,0,2,6,12,10.mid,experiment,1
64,144,28872,73,64,0,2,6,12,10.mid,experiment,1
65,146,29146,73,64,0,2,6,12,10.mid,experiment,1
66,148,29864,74,64,0,2,6,12,10.mid,experiment,1
67,150,30397,77,64,0,2,6,12,10.mid,experiment,1
68,152,30939,76,64,0,2,6,12,10.mid,experiment,1
69,154,31460,74,64,0,2,6,12,10.mid,experiment,1
70,156,32022,72,64,0,2,6,12,10.mid,experiment,1
71,158,32576,84,64,0,2,6,12,10.mid,experiment,1
72,160,33470,84,64,0,2,6,12,10.mid,experiment,1
1,19,8146,79,64,0,2,8,6,9.mid,experiment,1
2,21,8474,78,64,0,2,8,6,9.mid,experiment,1
3,23,8685,79,64,0,2,8,6,9.mid,experiment,1
4,25,9000,76,64,0,2,8,6,9.mid,experiment,1
5,26,9159,72,64,0,2,8,6,9.mid,experiment,1
6,28,9346,67,64,0,2,8,6,9.mid,experiment,1
7,30,9548,67,64,0,2,8,6,9.mid,experiment,1
8,32,9891,67,64,0,2,8,6,9.mid,experiment,1
9,35,10436,79,64,0,2,8,6,9.mid,experiment,1
10,37,10729,78,64,0,2,8,6,9.mid,experiment,1
11,39,10990,79,64,0,2,8,6,9.mid,experiment,1
12,40,11221,76,64,0,2,8,6,9.mid,experiment,1
13,43,11550,72,64,0,2,8,6,9.mid,experiment,1
14,45,11839,76,64,0,2,8,6,9.mid,experiment,1
15,47,12062,79,64,0,2,8,6,9.mid,experiment,1
16,49,12451,84,64,0,2,8,6,9.mid,experiment,1
17,50,12570,83,64,0,2,8,6,9.mid,experiment,1
18,52,12702,81,64,0,2,8,6,9.mid,experiment,1
19,54,12983,81,64,0,2,8,6,9.mid,experiment,1
20,56,13261,81,64,0,2,8,6,9.mid,experiment,1
21,59,13818,83,64,0,2,8,6,9.mid,experiment,1
22,61,14058,81,64,0,2,8,6,9.mid,experiment,1
23,63,14383,84,64,0,2,8,6,9.mid,experiment,1
24,64,14601,81,64,0,2,8,6,9.mid,experiment,1
25,67,14913,78,64,0,2,8,6,9.mid,experiment,1
26,68,15057,79,64,0,2,8,6,9.mid,experiment,1
27,70,15559,79,64,0,2,8,6,9.mid,experiment,1
28,72,16408,79,64,0,2,8,6,9.mid,experiment,1
29,74,16955,77,64,0,2,8,6,9.mid,experiment,1
30,76,17245,77,64,0,2,8,6,9.mid,experiment,1
31,78,17513,76,64,0,2,8,6,9.mid,experiment,1
32,80,17788,76,64,0,2,8,6,9.mid,experiment,1
33,82,18629,74,64,0,2,8,6,9.mid,experiment,1
34,84,19788,79,64,0,2,8,6,9.mid,experiment,1
35,86,20371,77,64,0,2,8,6,9.mid,experiment,1
36,88,20491,76,64,0,2,8,6,9.mid,experiment,1
37,90,20767,76,64,0,2,8,6,9.mid,experiment,1
38,92,21038,76,64,0,2,8,6,9.mid,experiment,1
39,94,21275,76,64,0,2,8,6,9.mid,experiment,1
40,97,21839,81,64,0,2,8,6,9.mid,experiment,1
41,99,22123,77,64,0,2,8,6,9.mid,experiment,1
42,101,22364,76,64,0,2,8,6,9.mid,experiment,1
43,103,22684,74,64,0,2,8,6,9.mid,experiment,1
44,105,22931,76,64,0,2,8,6,9.mid,experiment,1
45,107,23285,79,64,0,2,8,6,9.mid,experiment,1
46,108,23489,74,64,0,2,8,6,9.mid,experiment,1
47,112,23754,71,64,0,2,8,6,9.mid,experiment,1
48,114,23812,72,64,0,2,8,6,9.mid,experiment,1
49,116,24095,72,64,0,2,8,6,9.mid,experiment,1
50,118,24387,74,64,0,2,8,6,9.mid,experiment,1
51,120,24678,74,64,0,2,8,6,9.mid,experiment,1
52,122,25479,76,64,0,2,8,6,9.mid,experiment,1
53,124,26119,65,64,0,2,8,6,9.mid,experiment,1
54,126,26388,65,64,0,2,8,6,9.mid,experiment,1
55,128,26662,64,64,0,2,8,6,9.mid,experiment,1
56,130,26939,64,64,0,2,8,6,9.mid,experiment,1
57,132,27906,62,64,0,2,8,6,9.mid,experiment,1
58,134,28412,67,64,0,2,8,6,9.mid,experiment,1
59,136,28685,67,64,0,2,8,6,9.mid,experiment,1
60,138,29239,71,64,0,2,8,6,9.mid,experiment,1
61,138,,71,,0,2,8,6,9.mid,experiment,1
62,140,29520,72,64,0,2,8,6,9.mid,experiment,1
63,142,29767,72,64,0,2,8,6,9.mid,experiment,1
64,144,30098,73,64,0,2,8,6,9.mid,experiment,1
65,146,30310,73,64,0,2,8,6,9.mid,experiment,1
66,149,31184,74,64,0,2,8,6,9.mid,experiment,1
67,151,31767,77,64,0,2,8,6,9.mid,experiment,1
68,153,32327,76,64,0,2,8,6,9.mid,experiment,1
69,155,32851,74,64,0,2,8,6,9.mid,experiment,1
70,156,33412,72,64,0,2,8,6,9.mid,experiment,1
71,158,33858,84,64,0,2,8,6,9.mid,experiment,1
72,160,34765,84,64,0,2,8,6,9.mid,experiment,1
1,19,8154,79,64,0,2,8,10,12.mid,experiment,1
2,21,8578,78,64,0,2,8,10,12.mid,experiment,1
3,24,8692,79,64,0,2,8,10,12.mid,experiment,1
4,27,9003,76,64,0,2,8,10,12.mid,experiment,1
5,28,9179,72,64,0,2,8,10,12.mid,experiment,1
6,30,9303,67,64,0,2,8,10,12.mid,experiment,1
7,32,9596,67,64,0,2,8,10,12.mid,experiment,1
8,34,9868,67,64,0,2,8,10,12.mid,experiment,1
9,37,10498,79,64,0,2,8,10,12.mid,experiment,1
10,39,10798,78,64,0,2,8,10,12.mid,experiment,1
11,41,11074,79,64,0,2,8,10,12.mid,experiment,1
12,42,11296,76,64,0,2,8,10,12.mid,experiment,1
13,45,11622,72,64,0,2,8,10,12.mid,experiment,1
14,47,11920,76,64,0,2,8,10,12.mid,experiment,1
15,49,12132,79,64,0,2,8,10,12.mid,experiment,1
16,51,12564,84,64,0,2,8,10,12.mid,experiment,1
17,52,12661,83,64,0,2,8,10,12.mid,experiment,1
18,54,12779,81,64,0,2,8,10,12.mid,experiment,1
19,56,13071,81,64,0,2,8,10,12.mid,experiment,1
20,58,13339,81,64,0,2,8,10,12.mid,experiment,1
21,61,13977,83,64,0,2,8,10,12.mid,experiment,1
22,63,14204,81,64,0,2,8,10,12.mid,experiment,1
23,65,14546,84,64,0,2,8,10,12.mid,experiment,1
24,66,14755,81,64,0,2,8,10,12.mid,experiment,1
25,69,15091,78,64,0,2,8,10,12.mid,experiment,1
26,70,15199,79,64,0,2,8,10,12.mid,experiment,1
27,72,15831,79,64,0,2,8,10,12.mid,experiment,1
28,74,16591,79,64,0,2,8,10,12.mid,experiment,1
29,76,17250,77,64,0,2,8,10,12.mid,experiment,1
30,78,17518,77,64,0,2,8,10,12.mid,experiment,1
31,80,17808,76,64,0,2,8,10,12.mid,experiment,1
32,82,18095,76,64,0,2,8,10,12.mid,experiment,1
33,84,19042,74,64,0,2,8,10,12.mid,experiment,1
34,87,20210,79,64,0,2,8,10,12.mid,experiment,1
35,88,20794,77,64,0,2,8,10,12.mid,experiment,1
36,90,20873,76,64,0,2,8,10,12.mid,experiment,1
37,92,21162,76,64,0,2,8,10,12.mid,experiment,1
38,94,21449,76,64,0,2,8,10,12.mid,experiment,1
39,96,21721,76,64,0,2,8,10,12.mid,experiment,1
40,99,22330,81,64,0,2,8,10,12.mid,experiment,1
41,101,22608,77,64,0,2,8,10,12.mid,experiment,1
42,103,22859,76,64,0,2,8,10,12.mid,experiment,1
43,105,23170,74,64,0,2,8,10,12.mid,experiment,1
44,107,23454,76,64,0,2,8,10,12.mid,experiment,1
45,109,23772,79,64,0,2,8,10,12.mid,experiment,1
46,110,23933,74,64,0,2,8,10,12.mid,experiment,1
47,113,24257,71,64,0,2,8,10,12.mid,experiment,1
48,114,24291,72,64,0,2,8,10,12.mid,experiment,1
49,116,24591,72,64,0,2,8,10,12.mid,experiment,1
50,118,24867,74,64,0,2,8,10,12.mid,experiment,1
51,120,25155,74,64,0,2,8,10,12.mid,experiment,1
52,122,26035,76,64,0,2,8,10,12.mid,experiment,1
53,124,26701,65,64,0,2,8,10,12.mid,experiment,1
54,126,26972,65,64,0,2,8,10,12.mid,experiment,1
55,128,27268,64,64,0,2,8,10,12.mid,experiment,1
56,130,27537,64,64,0,2,8,10,12.mid,experiment,1
57,132,28466,62,64,0,2,8,10,12.mid,experiment,1
58,134,29089,67,64,0,2,8,10,12.mid,experiment,1
59,136,29367,67,64,0,2,8,10,12.mid,experiment,1
60,138,29944,71,64,0,2,8,10,12.mid,experiment,1
61,138,,71,,0,2,8,10,12.mid,experiment,1
62,140,30210,72,64,0,2,8,10,12.mid,experiment,1
63,142,30484,72,64,0,2,8,10,12.mid,experiment,1
64,144,30783,73,64,0,2,8,10,12.mid,experiment,1
65,146,31055,73,64,0,2,8,10,12.mid,experiment,1
66,149,31965,74,64,0,2,8,10,12.mid,experiment,1
67,151,32562,77,64,0,2,8,10,12.mid,experiment,1
68,153,33116,76,64,0,2,8,10,12.mid,experiment,1
69,155,33664,74,64,0,2,8,10,12.mid,experiment,1
70,157,34265,72,64,0,2,8,10,12.mid,experiment,1
71,158,34697,84,64,0,2,8,10,12.mid,experiment,1
72,160,35895,84,64,0,2,8,10,12.mid,experiment,1
1,19,8198,79,64,0,2,13,1,4.mid,experiment,1
2,21,8470,78,64,0,2,13,1,4.mid,experiment,1
3,23,8742,79,64,0,2,13,1,4.mid,experiment,1
4,25,8970,76,64,0,2,13,1,4.mid,experiment,1
5,26,8996,72,64,0,2,13,1,4.mid,experiment,1
6,28,9544,67,64,0,2,13,1,4.mid,experiment,1
7,30,9802,67,64,0,2,13,1,4.mid,experiment,1
8,33,,67,,0,2,13,1,4.mid,experiment,1
9,33,10381,79,64,0,2,13,1,4.mid,experiment,1
10,35,10592,78,64,0,2,13,1,4.mid,experiment,1
11,37,10859,79,64,0,2,13,1,4.mid,experiment,1
12,39,11156,76,64,0,2,13,1,4.mid,experiment,1
13,41,11430,72,64,0,2,13,1,4.mid,experiment,1
14,43,11706,76,64,0,2,13,1,4.mid,experiment,1
15,45,11909,79,64,0,2,13,1,4.mid,experiment,1
16,47,12184,84,64,0,2,13,1,4.mid,experiment,1
17,48,12210,83,64,0,2,13,1,4.mid,experiment,1
18,50,12460,81,64,0,2,13,1,4.mid,experiment,1
19,52,12724,81,64,0,2,13,1,4.mid,experiment,1
20,54,12959,81,64,0,2,13,1,4.mid,experiment,1
21,57,13492,83,64,0,2,13,1,4.mid,experiment,1
22,59,13768,81,64,0,2,13,1,4.mid,experiment,1
23,61,14028,84,64,0,2,13,1,4.mid,experiment,1
24,62,14068,81,64,0,2,13,1,4.mid,experiment,1
25,66,14422,78,64,0,2,13,1,4.mid,experiment,1
26,68,14542,79,64,0,2,13,1,4.mid,experiment,1
27,70,14946,79,64,0,2,13,1,4.mid,experiment,1
28,72,15579,79,64,0,2,13,1,4.mid,experiment,1
29,74,16668,77,64,0,2,13,1,4.mid,experiment,1
30,76,16920,77,64,0,2,13,1,4.mid,experiment,1
31,78,17190,76,64,0,2,13,1,4.mid,experiment,1
32,80,17458,76,64,0,2,13,1,4.mid,experiment,1
33,82,17988,74,64,0,2,13,1,4.mid,experiment,1
34,84,18973,79,64,0,2,13,1,4.mid,experiment,1
35,86,19525,77,64,0,2,13,1,4.mid,experiment,1
36,88,20077,76,64,0,2,13,1,4.mid,experiment,1
37,90,20326,76,64,0,2,13,1,4.mid,experiment,1
38,92,20586,76,64,0,2,13,1,4.mid,experiment,1
39,94,20835,76,64,0,2,13,1,4.mid,experiment,1
40,97,21408,81,64,0,2,13,1,4.mid,experiment,1
41,99,21632,77,64,0,2,13,1,4.mid,experiment,1
42,101,21869,76,64,0,2,13,1,4.mid,experiment,1
43,103,22133,74,64,0,2,13,1,4.mid,experiment,1
44,104,22358,76,64,0,2,13,1,4.mid,experiment,1
45,107,22626,79,64,0,2,13,1,4.mid,experiment,1
46,108,22885,74,64,0,2,13,1,4.mid,experiment,1
47,110,22921,71,64,0,2,13,1,4.mid,experiment,1
48,112,23181,72,64,0,2,13,1,4.mid,experiment,1
49,114,23444,72,64,0,2,13,1,4.mid,experiment,1
50,116,23680,74,64,0,2,13,1,4.mid,experiment,1
51,118,23932,74,64,0,2,13,1,4.mid,experiment,1
52,120,24455,76,64,0,2,13,1,4.mid,experiment,1
53,122,25348,65,64,0,2,13,1,4.mid,experiment,1
54,124,25591,65,64,0,2,13,1,4.mid,experiment,1
55,126,25862,64,64,0,2,13,1,4.mid,experiment,1
56,128,26106,64,64,0,2,13,1,4.mid,experiment,1
57,130,26648,62,64,0,2,13,1,4.mid,experiment,1
58,132,27598,67,64,0,2,13,1,4.mid,experiment,1
59,134,27866,67,64,0,2,13,1,4.mid,experiment,1
60,136,28098,71,64,0,2,13,1,4.mid,experiment,1
61,138,28356,71,64,0,2,13,1,4.mid,experiment,1
62,140,28594,72,64,0,2,13,1,4.mid,experiment,1
63,142,28836,72,64,0,2,13,1,4.mid,experiment,1
64,144,29090,73,64,0,2,13,1,4.mid,experiment,1
65,146,29326,73,64,0,2,13,1,4.mid,experiment,1
66,148,29700,74,64,0,2,13,1,4.mid,experiment,1
67,150,30214,77,64,0,2,13,1,4.mid,experiment,1
68,152,30708,76,64,0,2,13,1,4.mid,experiment,1
69,154,31224,74,64,0,2,13,1,4.mid,experiment,1
70,156,31746,72,64,0,2,13,1,4.mid,experiment,1
71,158,32280,84,64,0,2,13,1,4.mid,experiment,1
72,160,32898,84,64,0,2,13,1,4.mid,experiment,1
