RowNr,Instance,KeyOnOff,Stimuli,TimeStamp,Pitch,Velocity,Category
1,3,1,3,0,79,68,Art_only
2,3,1,3,306,78,67,Art_only
1,3,0,3,336,79,0,Art_only
3,3,1,3,603,79,70,Art_only
2,3,0,3,614,78,0,Art_only
4,3,1,3,904,76,67,Art_only
3,3,0,3,909,79,0,Art_only
5,3,1,3,1199,72,71,Art_only
4,3,0,3,1254,76,0,Art_only
5,3,0,3,1453,72,0,Art_only
6,3,1,3,1501,67,70,Art_only
6,3,0,3,1559,67,0,Art_only
7,3,1,3,1793,67,72,Art_only
7,3,0,3,1842,67,0,Art_only
8,3,1,3,2089,67,73,Art_only
8,3,0,3,2134,67,0,Art_only
9,3,1,3,2400,79,74,Art_only
10,3,1,3,2705,78,68,Art_only
9,3,0,3,2730,79,0,Art_only
11,3,1,3,3005,79,71,Art_only
10,3,0,3,3017,78,0,Art_only
12,3,1,3,3301,76,68,Art_only
11,3,0,3,3339,79,0,Art_only
13,3,1,3,3603,72,72,Art_only
12,3,0,3,3626,76,0,Art_only
14,3,1,3,3892,76,74,Art_only
13,3,0,3,3956,72,0,Art_only
15,3,1,3,4186,79,73,Art_only
14,3,0,3,4234,76,0,Art_only
15,3,0,3,4474,79,0,Art_only
16,3,1,3,4483,84,78,Art_only
17,3,1,3,4784,83,74,Art_only
16,3,0,3,4826,84,0,Art_only
17,3,0,3,5030,83,0,Art_only
18,3,1,3,5081,81,70,Art_only
18,3,0,3,5140,81,0,Art_only
19,3,1,3,5368,81,70,Art_only
19,3,0,3,5429,81,0,Art_only
20,3,1,3,5659,81,67,Art_only
20,3,0,3,5735,81,0,Art_only
21,3,1,3,5949,83,70,Art_only
22,3,1,3,6251,81,69,Art_only
21,3,0,3,6270,83,0,Art_only
23,3,1,3,6539,84,74,Art_only
22,3,0,3,6559,81,0,Art_only
24,3,1,3,6840,81,71,Art_only
23,3,0,3,6862,84,0,Art_only
25,3,1,3,7135,78,70,Art_only
24,3,0,3,7150,81,0,Art_only
25,3,0,3,7412,78,0,Art_only
26,3,1,3,7431,79,72,Art_only
26,3,0,3,7593,79,0,Art_only
27,3,1,3,7738,79,69,Art_only
27,3,0,3,8180,79,0,Art_only
28,3,1,3,8345,79,68,Art_only
28,3,0,3,8995,79,0,Art_only
29,3,1,3,9609,77,76,Art_only
29,3,0,3,9653,77,0,Art_only
30,3,1,3,9915,77,69,Art_only
30,3,0,3,9966,77,0,Art_only
31,3,1,3,10205,76,73,Art_only
31,3,0,3,10261,76,0,Art_only
32,3,1,3,10494,76,71,Art_only
32,3,0,3,10568,76,0,Art_only
33,3,1,3,10807,74,70,Art_only
33,3,0,3,11465,74,0,Art_only
34,3,1,3,12058,79,73,Art_only
34,3,0,3,12526,79,0,Art_only
35,3,1,3,12673,77,67,Art_only
35,3,0,3,13146,77,0,Art_only
36,3,1,3,13254,76,73,Art_only
36,3,0,3,13307,76,0,Art_only
37,3,1,3,13552,76,73,Art_only
37,3,0,3,13601,76,0,Art_only
38,3,1,3,13843,76,76,Art_only
38,3,0,3,13893,76,0,Art_only
39,3,1,3,14123,76,71,Art_only
39,3,0,3,14204,76,0,Art_only
40,3,1,3,14431,81,72,Art_only
41,3,1,3,14734,77,67,Art_only
40,3,0,3,14742,81,0,Art_only
42,3,1,3,15016,76,68,Art_only
41,3,0,3,15050,77,0,Art_only
43,3,1,3,15306,74,69,Art_only
42,3,0,3,15317,76,0,Art_only
44,3,1,3,15602,76,70,Art_only
43,3,0,3,15616,74,0,Art_only
45,3,1,3,15894,79,69,Art_only
44,3,0,3,15904,76,0,Art_only
46,3,1,3,16184,74,70,Art_only
45,3,0,3,16227,79,0,Art_only
47,3,1,3,16483,71,69,Art_only
46,3,0,3,16494,74,0,Art_only
47,3,0,3,16750,71,0,Art_only
48,3,1,3,16776,72,71,Art_only
48,3,0,3,16818,72,0,Art_only
49,3,1,3,17064,72,73,Art_only
49,3,0,3,17109,72,0,Art_only
50,3,1,3,17364,74,73,Art_only
50,3,0,3,17405,74,0,Art_only
51,3,1,3,17647,74,75,Art_only
51,3,0,3,17695,74,0,Art_only
52,3,1,3,17962,76,66,Art_only
52,3,0,3,18559,76,0,Art_only
53,3,1,3,19216,65,76,Art_only
53,3,0,3,19261,65,0,Art_only
54,3,1,3,19512,65,74,Art_only
54,3,0,3,19560,65,0,Art_only
55,3,1,3,19808,64,77,Art_only
55,3,0,3,19857,64,0,Art_only
56,3,1,3,20100,64,72,Art_only
56,3,0,3,20165,64,0,Art_only
57,3,1,3,20404,62,69,Art_only
57,3,0,3,21012,62,0,Art_only
58,3,1,3,21592,67,74,Art_only
58,3,0,3,21636,67,0,Art_only
59,3,1,3,21886,67,74,Art_only
59,3,0,3,21941,67,0,Art_only
60,3,1,3,22177,71,76,Art_only
60,3,0,3,22239,71,0,Art_only
61,3,1,3,22454,71,75,Art_only
61,3,0,3,22530,71,0,Art_only
62,3,1,3,22745,72,77,Art_only
62,3,0,3,22814,72,0,Art_only
63,3,1,3,23026,72,77,Art_only
63,3,0,3,23110,72,0,Art_only
64,3,1,3,23313,73,80,Art_only
64,3,0,3,23400,73,0,Art_only
65,3,1,3,23608,73,76,Art_only
65,3,0,3,23701,73,0,Art_only
66,3,1,3,23908,74,78,Art_only
66,3,0,3,24422,74,0,Art_only
67,3,1,3,24511,77,73,Art_only
67,3,0,3,25017,77,0,Art_only
68,3,1,3,25109,76,68,Art_only
68,3,0,3,25608,76,0,Art_only
69,3,1,3,25698,74,69,Art_only
69,3,0,3,26161,74,0,Art_only
70,3,1,3,26327,72,71,Art_only
70,3,0,3,26777,72,0,Art_only
71,3,1,3,26962,84,76,Art_only
71,3,0,3,27385,84,0,Art_only
72,3,1,3,27629,84,76,Art_only
72,3,0,3,28303,84,0,Art_only
