RowNr,Instance,KeyOnOff,Stimuli,TimeStamp,Pitch,Velocity,Category
1,11,1,1,0,79,80,Dyn_only
1,12,0,1,73,79,0,Dyn_only
2,11,1,1,296,78,87,Dyn_only
2,12,0,1,366,78,0,Dyn_only
3,11,1,1,579,79,86,Dyn_only
3,12,0,1,628,79,0,Dyn_only
4,11,1,1,871,76,80,Dyn_only
4,12,0,1,914,76,0,Dyn_only
5,11,1,1,1162,72,77,Dyn_only
5,12,0,1,1208,72,0,Dyn_only
6,11,1,1,1450,67,56,Dyn_only
6,12,0,1,1507,67,0,Dyn_only
7,11,1,1,1738,67,64,Dyn_only
7,12,0,1,1806,67,0,Dyn_only
8,11,1,1,2027,67,69,Dyn_only
8,12,0,1,2101,67,0,Dyn_only
9,11,1,1,2332,79,88,Dyn_only
9,12,0,1,2408,79,0,Dyn_only
10,11,1,1,2619,78,88,Dyn_only
10,12,0,1,2717,78,0,Dyn_only
11,11,1,1,2896,79,92,Dyn_only
11,12,0,1,2993,79,0,Dyn_only
12,11,1,1,3181,76,90,Dyn_only
12,12,0,1,3261,76,0,Dyn_only
13,11,1,1,3474,72,90,Dyn_only
13,12,0,1,3600,72,0,Dyn_only
14,11,1,1,3755,76,83,Dyn_only
14,12,0,1,3847,76,0,Dyn_only
15,11,1,1,4035,79,87,Dyn_only
15,12,0,1,4101,79,0,Dyn_only
16,11,1,1,4313,84,84,Dyn_only
16,12,0,1,4406,84,0,Dyn_only
17,11,1,1,4616,83,73,Dyn_only
17,12,0,1,4684,83,0,Dyn_only
18,11,1,1,4909,81,64,Dyn_only
18,12,0,1,4960,81,0,Dyn_only
19,11,1,1,5178,81,59,Dyn_only
19,12,0,1,5236,81,0,Dyn_only
20,11,1,1,5452,81,65,Dyn_only
20,12,0,1,5515,81,0,Dyn_only
21,11,1,1,5736,83,90,Dyn_only
21,12,0,1,5813,83,0,Dyn_only
22,11,1,1,6027,81,93,Dyn_only
22,12,0,1,6085,81,0,Dyn_only
23,11,1,1,6308,84,94,Dyn_only
23,12,0,1,6393,84,0,Dyn_only
24,11,1,1,6585,81,93,Dyn_only
24,12,0,1,6639,81,0,Dyn_only
25,11,1,1,6871,78,88,Dyn_only
25,12,0,1,6982,78,0,Dyn_only
26,11,1,1,7158,79,87,Dyn_only
26,12,0,1,7244,79,0,Dyn_only
27,11,1,1,7445,79,81,Dyn_only
27,12,0,1,7555,79,0,Dyn_only
28,11,1,1,8059,79,74,Dyn_only
28,12,0,1,8248,79,0,Dyn_only
29,11,1,1,9301,77,53,Dyn_only
29,12,0,1,9400,77,0,Dyn_only
30,11,1,1,9593,77,53,Dyn_only
30,12,0,1,9673,77,0,Dyn_only
31,11,1,1,9870,76,56,Dyn_only
31,12,0,1,9926,76,0,Dyn_only
32,11,1,1,10148,76,51,Dyn_only
32,12,0,1,10226,76,0,Dyn_only
33,11,1,1,10468,74,57,Dyn_only
33,12,0,1,10914,74,0,Dyn_only
34,11,1,1,11570,79,58,Dyn_only
34,12,0,1,11760,79,0,Dyn_only
35,11,1,1,12168,77,66,Dyn_only
35,12,0,1,12333,77,0,Dyn_only
36,11,1,1,12768,76,68,Dyn_only
36,12,0,1,12865,76,0,Dyn_only
37,11,1,1,13051,76,66,Dyn_only
37,12,0,1,13106,76,0,Dyn_only
38,11,1,1,13321,76,66,Dyn_only
38,12,0,1,13377,76,0,Dyn_only
39,11,1,1,13590,76,71,Dyn_only
39,12,0,1,13672,76,0,Dyn_only
40,11,1,1,13883,81,84,Dyn_only
40,12,0,1,13956,81,0,Dyn_only
41,11,1,1,14161,77,89,Dyn_only
41,12,0,1,14214,77,0,Dyn_only
42,11,1,1,14448,76,86,Dyn_only
42,12,0,1,14507,76,0,Dyn_only
43,11,1,1,14726,74,85,Dyn_only
43,12,0,1,14806,74,0,Dyn_only
44,11,1,1,15011,76,86,Dyn_only
44,12,0,1,15086,76,0,Dyn_only
45,11,1,1,15289,79,84,Dyn_only
45,12,0,1,15378,79,0,Dyn_only
46,11,1,1,15567,74,82,Dyn_only
46,12,0,1,15646,74,0,Dyn_only
47,11,1,1,15853,71,76,Dyn_only
47,12,0,1,15920,71,0,Dyn_only
48,11,1,1,16137,72,62,Dyn_only
48,12,0,1,16192,72,0,Dyn_only
49,11,1,1,16407,72,58,Dyn_only
49,12,0,1,16464,72,0,Dyn_only
50,11,1,1,16690,74,55,Dyn_only
50,12,0,1,16748,74,0,Dyn_only
51,11,1,1,16960,74,58,Dyn_only
51,12,0,1,17016,74,0,Dyn_only
52,11,1,1,17273,76,52,Dyn_only
52,12,0,1,17718,76,0,Dyn_only
53,11,1,1,18419,65,56,Dyn_only
53,12,0,1,18512,65,0,Dyn_only
54,11,1,1,18701,65,55,Dyn_only
54,12,0,1,18796,65,0,Dyn_only
55,11,1,1,18995,64,60,Dyn_only
55,12,0,1,19053,64,0,Dyn_only
56,11,1,1,19270,64,52,Dyn_only
56,12,0,1,19337,64,0,Dyn_only
57,11,1,1,19581,62,55,Dyn_only
57,12,0,1,20163,62,0,Dyn_only
58,11,1,1,20747,67,57,Dyn_only
58,12,0,1,20847,67,0,Dyn_only
59,11,1,1,21037,67,59,Dyn_only
59,12,0,1,21124,67,0,Dyn_only
60,11,1,1,21336,71,62,Dyn_only
60,12,0,1,21400,71,0,Dyn_only
61,11,1,1,21605,71,60,Dyn_only
61,12,0,1,21708,71,0,Dyn_only
62,11,1,1,21877,72,69,Dyn_only
62,12,0,1,21953,72,0,Dyn_only
63,11,1,1,22146,72,70,Dyn_only
63,12,0,1,22248,72,0,Dyn_only
64,11,1,1,22424,73,76,Dyn_only
64,12,0,1,22520,73,0,Dyn_only
65,11,1,1,22702,73,74,Dyn_only
65,12,0,1,22790,73,0,Dyn_only
66,11,1,1,23019,74,89,Dyn_only
66,12,0,1,23376,74,0,Dyn_only
67,11,1,1,23605,77,89,Dyn_only
67,12,0,1,23860,77,0,Dyn_only
68,11,1,1,24195,76,91,Dyn_only
68,12,0,1,24466,76,0,Dyn_only
69,11,1,1,24785,74,94,Dyn_only
69,12,0,1,25138,74,0,Dyn_only
70,11,1,1,25403,72,90,Dyn_only
70,12,0,1,25762,72,0,Dyn_only
71,11,1,1,26019,84,88,Dyn_only
71,12,0,1,26164,84,0,Dyn_only
72,11,1,1,26666,84,91,Dyn_only
72,12,0,1,27052,84,0,Dyn_only
