RowNr,Instance,KeyOnOff,Stimuli,TimeStamp,Pitch,Velocity,Category
1,11,1,1,0,79,60,Art_only
2,11,1,1,296,78,63,Art_only
1,2,0,1,330,79,0,Art_only
3,11,1,1,579,79,64,Art_only
2,2,0,1,594,78,0,Art_only
4,11,1,1,871,76,60,Art_only
3,2,0,1,929,79,0,Art_only
5,11,1,1,1162,72,62,Art_only
4,2,0,1,1201,76,0,Art_only
5,2,0,1,1385,72,0,Art_only
6,11,1,1,1450,67,55,Art_only
6,2,0,1,1498,67,0,Art_only
7,11,1,1,1738,67,61,Art_only
7,2,0,1,1790,67,0,Art_only
8,11,1,1,2027,67,60,Art_only
8,2,0,1,2076,67,0,Art_only
9,11,1,1,2332,79,63,Art_only
10,11,1,1,2619,78,68,Art_only
9,2,0,1,2656,79,0,Art_only
11,11,1,1,2896,79,71,Art_only
10,2,0,1,2956,78,0,Art_only
12,11,1,1,3181,76,68,Art_only
11,2,0,1,3198,79,0,Art_only
12,2,0,1,3461,76,0,Art_only
13,11,1,1,3474,72,68,Art_only
14,11,1,1,3755,76,66,Art_only
13,2,0,1,3772,72,0,Art_only
15,11,1,1,4035,79,71,Art_only
14,2,0,1,4109,76,0,Art_only
16,11,1,1,4313,84,69,Art_only
15,2,0,1,4352,79,0,Art_only
17,11,1,1,4616,83,68,Art_only
16,2,0,1,4680,84,0,Art_only
17,2,0,1,4908,83,0,Art_only
18,11,1,1,4909,81,66,Art_only
18,2,0,1,4969,81,0,Art_only
19,11,1,1,5178,81,65,Art_only
19,2,0,1,5238,81,0,Art_only
20,11,1,1,5452,81,67,Art_only
20,2,0,1,5518,81,0,Art_only
21,11,1,1,5736,83,67,Art_only
22,11,1,1,6027,81,72,Art_only
21,2,0,1,6075,83,0,Art_only
23,11,1,1,6308,84,67,Art_only
22,2,0,1,6347,81,0,Art_only
24,11,1,1,6585,81,65,Art_only
23,2,0,1,6657,84,0,Art_only
24,2,0,1,6846,81,0,Art_only
25,11,1,1,6871,78,69,Art_only
25,2,0,1,7156,78,0,Art_only
26,11,1,1,7158,79,66,Art_only
26,2,0,1,7281,79,0,Art_only
27,11,1,1,7445,79,65,Art_only
27,2,0,1,7707,79,0,Art_only
28,11,1,1,8059,79,58,Art_only
28,2,0,1,8701,79,0,Art_only
29,11,1,1,9301,77,54,Art_only
29,2,0,1,9366,77,0,Art_only
30,11,1,1,9593,77,60,Art_only
30,2,0,1,9643,77,0,Art_only
31,11,1,1,9870,76,57,Art_only
31,2,0,1,9925,76,0,Art_only
32,11,1,1,10148,76,57,Art_only
32,2,0,1,10227,76,0,Art_only
33,11,1,1,10468,74,59,Art_only
33,2,0,1,11040,74,0,Art_only
34,11,1,1,11570,79,63,Art_only
34,2,0,1,12099,79,0,Art_only
35,11,1,1,12168,77,67,Art_only
35,2,0,1,12678,77,0,Art_only
36,11,1,1,12768,76,61,Art_only
36,2,0,1,12851,76,0,Art_only
37,11,1,1,13051,76,59,Art_only
37,2,0,1,13126,76,0,Art_only
38,11,1,1,13321,76,61,Art_only
38,2,0,1,13409,76,0,Art_only
39,11,1,1,13590,76,64,Art_only
39,2,0,1,13670,76,0,Art_only
40,11,1,1,13883,81,61,Art_only
41,11,1,1,14161,77,65,Art_only
40,2,0,1,14282,81,0,Art_only
42,11,1,1,14448,76,64,Art_only
41,2,0,1,14522,77,0,Art_only
43,11,1,1,14726,74,67,Art_only
42,2,0,1,14770,76,0,Art_only
44,11,1,1,15011,76,66,Art_only
43,2,0,1,15046,74,0,Art_only
45,11,1,1,15289,79,68,Art_only
44,2,0,1,15326,76,0,Art_only
46,11,1,1,15567,74,68,Art_only
45,2,0,1,15651,79,0,Art_only
47,11,1,1,15853,71,65,Art_only
46,2,0,1,15868,74,0,Art_only
48,11,1,1,16137,72,66,Art_only
47,2,0,1,16156,71,0,Art_only
48,2,0,1,16195,72,0,Art_only
49,11,1,1,16407,72,60,Art_only
49,2,0,1,16469,72,0,Art_only
50,11,1,1,16690,74,63,Art_only
50,2,0,1,16745,74,0,Art_only
51,11,1,1,16960,74,60,Art_only
51,2,0,1,17032,74,0,Art_only
52,11,1,1,17273,76,53,Art_only
52,2,0,1,17851,76,0,Art_only
53,11,1,1,18419,65,49,Art_only
53,2,0,1,18488,65,0,Art_only
54,11,1,1,18701,65,53,Art_only
54,2,0,1,18779,65,0,Art_only
55,11,1,1,18995,64,57,Art_only
55,2,0,1,19056,64,0,Art_only
56,11,1,1,19270,64,57,Art_only
56,2,0,1,19348,64,0,Art_only
57,11,1,1,19581,62,58,Art_only
57,2,0,1,20235,62,0,Art_only
58,11,1,1,20747,67,63,Art_only
58,2,0,1,20802,67,0,Art_only
59,11,1,1,21037,67,60,Art_only
59,2,0,1,21104,67,0,Art_only
60,11,1,1,21336,71,61,Art_only
60,2,0,1,21392,71,0,Art_only
61,11,1,1,21605,71,62,Art_only
61,2,0,1,21671,71,0,Art_only
62,11,1,1,21877,72,62,Art_only
62,2,0,1,21948,72,0,Art_only
63,11,1,1,22146,72,65,Art_only
63,2,0,1,22230,72,0,Art_only
64,11,1,1,22424,73,66,Art_only
64,2,0,1,22519,73,0,Art_only
65,11,1,1,22702,73,65,Art_only
65,2,0,1,22814,73,0,Art_only
66,11,1,1,23019,74,68,Art_only
66,2,0,1,23565,74,0,Art_only
67,11,1,1,23605,77,65,Art_only
67,2,0,1,24137,77,0,Art_only
68,11,1,1,24195,76,62,Art_only
68,2,0,1,24732,76,0,Art_only
69,11,1,1,24785,74,67,Art_only
69,2,0,1,25332,74,0,Art_only
70,11,1,1,25403,72,68,Art_only
70,2,0,1,25756,72,0,Art_only
71,11,1,1,26019,84,63,Art_only
71,2,0,1,26344,84,0,Art_only
72,11,1,1,26666,84,64,Art_only
72,2,0,1,27105,84,0,Art_only
